<svg id="Layer_1" data-name="Layer 1" xmlns="http://www.w3.org/2000/svg" viewBox="0 0 300 300"><defs><style>.cls-1{fill:#1e5690;}.cls-2{fill:#cdcdcd;}.cls-3{fill:#040506;}.cls-4{fill:#102a45;}.cls-5{fill:#ebaf11;}.cls-6{fill:#eaaf11;}.cls-7{fill:#2a2b2c;}.cls-8{fill:#434445;}.cls-9{fill:#acadad;}.cls-10{fill:#acacac;}.cls-11{fill:#adadad;}.cls-12{fill:#393a3b;}.cls-13{fill:#6b6b6c;}.cls-14{fill:#262627;}.cls-15{fill:#a1a1a2;}.cls-16{fill:#8a670c;}.cls-17{fill:#58595a;}.cls-18{fill:#090a0b;}.cls-19{fill:#0c0d0e;}.cls-20{fill:#08090a;}</style></defs><path d="M25.1-.6H274.9a1,1,0,0,1,1,1V175.65A123.39,123.39,0,0,1,152.5,299h-4.77A123.62,123.62,0,0,1,24.11,175.42V.4a1,1,0,0,1,1-1Z"/><path class="cls-1" d="M150.05,294.73c-19.83,0-38.87-3.66-56.65-12.71-23.91-12.18-40.63-31.16-51.66-55.4a141.2,141.2,0,0,1-7.2-19.88,3.43,3.43,0,0,1,.69-3.56q44.94-54.45,89.81-109Q136.76,80,148.48,65.76c1.5-1.83,1.55-1.83,3-.08l48.26,58.57,50.62,61.46c4.86,5.9,9.71,11.82,14.6,17.69a2.82,2.82,0,0,1,.64,2.87c-6,21.54-16.19,40.76-32.26,56.56s-35.24,25.24-57.17,29.48A134.55,134.55,0,0,1,150.05,294.73Z"/><path class="cls-1" d="M150,4.34H268.64c2.61,0,2.61,0,2.61,2.64,0,16.41,0,32.82,0,49.23,0,1.8-.34,2.46-2.32,2.46q-119-.09-237.9,0c-1.68,0-2.38-.28-2.37-2.21q.14-25,0-50c0-1.82.59-2.11,2.23-2.11Q90.46,4.37,150,4.34Z"/><path class="cls-2" d="M33.25,201.58A149.8,149.8,0,0,1,30,183.41a207.65,207.65,0,0,1-1.22-26q.06-47,0-93.94c0-1.72.35-2.24,2.18-2.24q57.85.09,115.7,0h2.28Z"/><path class="cls-2" d="M266.77,201.6,151.37,61.53a2.48,2.48,0,0,1,1.8-.27q58.05,0,116.08,0c1.59,0,2.05.31,2.05,2-.06,34.06,0,68.11-.08,102.17A156.25,156.25,0,0,1,266.77,201.6Z"/><path class="cls-3" d="M103.78,162.92c5-3.14,8.78-7.58,12.14-12.36,2.86-4.07,5.71-8.14,9.61-11.33a18.13,18.13,0,0,1,8.94-4.18,1.87,1.87,0,0,0,1.59-1.18c2.16-4.3,4.66-5.9,8.51-5.54,3.59.33,6.48,2.85,7.49,7,.48,2,1,1.94,2.79,1.36A32.78,32.78,0,0,1,166.49,135c5.64.28,9.47,4.3,13,8.3a25.32,25.32,0,0,1,1.6,2c2.36,3.29,4.63,6.65,7.08,9.88a41.43,41.43,0,0,0,9.13,8.45,35.33,35.33,0,0,1-7.91-1.44c-.21.94.42,1.43.77,2,2.77,4.36,5.76,8.57,8.85,12.71a9.81,9.81,0,0,0,15.94-.07,23.44,23.44,0,0,0,3.34-7.27c.36-1.19.73-2.45,2.21-2.72s2.32.72,3.1,1.69c2.93,3.59,3.43,7.66,2.22,12a18.47,18.47,0,0,1-1.21,3.31c-.7,1.42-.54,2,1.2,1.84a20.24,20.24,0,0,1,11.57,2.26,17.87,17.87,0,0,1,6,5c1.25,1.69,2.38,3.49,1.16,5.56s-3.29,2.05-5.26,1.63c-6.06-1.31-11.73,1-17.85,1.62,6.19,6.21,6.26,14,6.61,21.73.17,3.64-2.48,5.78-5.93,4.58-6.08-2.12-12.2-4.31-17.3-8.49-1-.79-1.4-1-1.67.51a30.91,30.91,0,0,1-2.29,7.07,22.25,22.25,0,0,0-2.21,11.4c.13,1.36,0,2.66-1.46,3.34s-2.7,0-3.69-1c-4.29-4.37-6.1-9.84-6.57-15.77a36.84,36.84,0,0,1,.54-11.13c.39-1.7-.22-1.63-1.6-1.33-5.67,1.26-11,.62-15.79-3a11,11,0,0,1-3.87-6.65c-.47-2.12,1.06-3.52,3.28-2.93a45.33,45.33,0,0,0,5.55,1.21c6.25.82,11.12-2.86,12-9.06a2.72,2.72,0,0,0-.28-1.88l-10.5-17c0-.09-.21-.13-.46-.27-.26,1.17-.45,2.3-.76,3.4a7.18,7.18,0,0,1-3.62,4.66c-.86.46-1.44.66-1.42-.7.1-7.41-2.54-14.07-5.74-20.56-1.41-2.88-2.86-5.74-4.25-8.62a14.52,14.52,0,0,1-1.76-7.16c.08-1.41-.54-1.35-1.51-.88a3.92,3.92,0,0,0-2.06,2.24,13.57,13.57,0,0,0-.76,5c0,13.55-.67,27-3.17,40.39-.24,1.28-1,2.86-.52,3.76s2.22-.06,3.44.06a6.54,6.54,0,0,1,4.68,2.89,17.57,17.57,0,0,1,2.9,6.59,2.92,2.92,0,0,0,.75,1.77c2.63,2.27,3.89,5.35,4.95,8.53.83,2.48,1.59,5,2.44,7.45s2.46,4.41,3.55,6.91l-5.42-3c1.52,3.68,2.82,6.78,4.08,9.9,2.28,5.66,4.29,11.39,3.82,17.65a34,34,0,0,1-.38,3.5c-.37,2-1.65,2.49-3.2,1.2a14.62,14.62,0,0,0-4.22-2.44c-5-1.89-7.26-5.67-7.85-10.76A128.56,128.56,0,0,0,157.74,231c-1.54.89-2.73,2.3-4.72,2.37.29-2.27,1.27-4.29,1.35-6.53a64.81,64.81,0,0,0-1-11.89c-.44-2.86-.36-5.59,1.45-8.05.75-1-.17-4.55-1.26-5.34s-3.2.06-4.2,1.59a5.57,5.57,0,0,0-.88,1.94c-1.83,9.11-4.77,17.93-6.86,27-1.19,5.12-1.84,10.39-.57,15.54a25.24,25.24,0,0,0,15.93,18.27c1.63.64,1.91,1.14,1,2.56a11.67,11.67,0,0,1-3.31,3.81,5.16,5.16,0,0,1-6.09.05c-8.17-5.88-14.28-13.26-16-23.49-1.22-7.12.1-14,2-20.88,3-10.68,6.2-21.34,8.22-32.27,3-16.28,5.25-32.65,4.49-49.27-.12-2.67-.43-5.34-.8-8-.28-2-1.75-3.56-3-3.34s-2.27,2.74-1.67,4.53c1.52,4.53.68,8.73-1.51,12.83a146.47,146.47,0,0,0-6.87,13.87,36.49,36.49,0,0,0-3.08,13.09,4.06,4.06,0,0,1-.48,2.14c-4-1.36-4.64-4.87-5.24-8.9-1,1.54-1.77,2.6-2.46,3.68-2.44,3.87-4.85,7.75-7.3,11.62-2.76,4.36-1.48,9.33,3.07,11.92,3.24,1.85,6.64,1.66,10.09.92.83-.18,1.64-.46,2.47-.63,2.48-.5,3.8.9,3.17,3.33-1.41,5.5-5.91,9-12.47,9.56a17.83,17.83,0,0,1-6.82-.35c-2-.64-2.22-.46-1.93,1.73a44.08,44.08,0,0,1-.1,13.47,24.63,24.63,0,0,1-5.3,11.65,8.16,8.16,0,0,1-1.85,1.72c-2.19,1.42-4.84.15-4.45-2.38.79-5.16-1-9.64-2.76-14.23-.77-2-1.23-4.11-1.89-6.41-4.46,4.47-10.43,5.94-15.87,8.37-6.17,2.77-9.38.22-8.56-6.51.4-3.3,1-6.58,1.6-9.86a15.5,15.5,0,0,1,3.91-7.57c.42-.47,1-.8,1.21-1.66-4.91-.23-9.49-2.41-14.46-2-1.5.12-3,.27-4.49.38a3.93,3.93,0,0,1-4-2,3.79,3.79,0,0,1,.53-4.24c4.55-6.43,11-8.73,18.6-8.2.51,0,1,.34,1.61-.06-.55-1.57-1.2-3.13-1.64-4.75-1.3-4.79-.73-9.21,3-12.87,1.8-1.78,3.71-1.32,4.47,1.09.89,2.88,1.71,5.76,3.64,8.18,4.33,5.44,11.74,5.35,15.93-.19,3.07-4.07,6.17-8.12,8.91-12.43a3.55,3.55,0,0,0,.86-1.84c-2.2.36-4.23,1.14-6.38,1.21C104.47,163.34,103.87,163.9,103.78,162.92Z"/><path class="cls-4" d="M103.78,162.92c.28.4.74.28,1.13.37-.53.3-1.06.67-1.64.09Z"/><path class="cls-2" d="M99.34,217.42c.8,1.72,1.16,3.67,2.74,5-.49-3.58-1.93-7-1.55-10.7,1.08,1.91,1.43,4.11,3,6,0-4.48-2.33-8.59-.77-12.95.88,6.28,3.65,12.13,4.12,18.51a42.11,42.11,0,0,1,.13,4.63c0,.35-.27,1,.55.86,1.48-4.9.71-9.72-.59-14.49s-2.45-9.33-2.3-14.24a17.57,17.57,0,0,1,1.53-7c1.47-3.13,2.89-6.28,4.31-9.44.25-.56.78-1.08.46-2a36.55,36.55,0,0,0-6.47,10c-2.2,4.62-3.43,9.56-4.68,14.49-1.76,6.93-5.73,12-12.58,14.7-3.1,1.2-6.09,2.69-9.2,3.86s-4.3.21-4-3.12a83.67,83.67,0,0,1,1.61-11,13,13,0,0,1,7.85-9.62,36.66,36.66,0,0,0,14.11-11.23c.42-.54,1-1,1-2.07a6.63,6.63,0,0,0-1.22.86c-3.83,4.44-8.73,4.6-14,3.71a67.88,67.88,0,0,0-13-1.44,16.19,16.19,0,0,0-7,1.63c-.22.52.06.48.41.37,5.91-1.49,11.69-.18,17.46.87a47.06,47.06,0,0,0,8.85.76,3.59,3.59,0,0,1-3.22,1.79c-3.57-.08-7.14,0-10.74,0,2,1.11,4.39,1.14,6.82,1.86a19.53,19.53,0,0,1-10.45-.31,27,27,0,0,0-12-.71c-.19,0-.39,0-.59.06-.85.06-1.81.17-2.31-.67s.15-1.61.66-2.29a17.28,17.28,0,0,1,10.6-6.51c3.2-.71,6.37,0,9.55.25,4.9.38,9.79.52,14.57-1a14.88,14.88,0,0,0,7.62-5.19A219.1,219.1,0,0,0,115,161.14c.87-1.45,2.4-1.67,3.74-2.5-2.38,5.74-4.85,11.43-4.39,17.94,4.36-.65,6-4.37,8.56-7.05.38-.1.57,0,.43.42-3.87,6.12-7.62,12.32-11.64,18.35-4.13,6.19-5,12.76-3,19.82A43,43,0,0,1,110,227.5a22.85,22.85,0,0,1-4.21,9.81,6.23,6.23,0,0,1-2.22,2.11c-.52-.33-.41-.81-.34-1.25a20.87,20.87,0,0,0-1.6-10.72,33.63,33.63,0,0,1-2.64-8.77C98.89,218.2,98.42,217.59,99.34,217.42Z"/><path class="cls-2" d="M236.69,193.13c-3.94-2.18-8.21-1.84-12.43-1.49-3.19.26-6.36.73-9.52,1.22-4.18.64-7.91,0-11-3.23-.55-.6-1.1-1.57-2.33-1.16,3.55,5.18,7.9,9.51,13.58,12.09,6,2.72,9.15,7.07,9.71,13.51.26,2.93.75,5.84.88,8.77.12,2.68-1,3.5-3.55,2.56a75.53,75.53,0,0,1-13.31-6.09c-5.76-3.51-8.09-9.26-9.36-15.62A51,51,0,0,0,191.18,184a3.94,3.94,0,0,0-2.18-1.89c1.3,2.93,2.41,5.87,3.87,8.63,3.27,6.2,2.87,12.57,1.23,19.05-1,3.91-2.31,7.74-2.68,11.81a21.36,21.36,0,0,0,.62,7.56c.81.1.49-.53.52-.87a25.64,25.64,0,0,1,.15-3.82,35.17,35.17,0,0,1,1.8-9.37,98.84,98.84,0,0,0,2.64-9.9c1.56,4.25-.91,8.21-.84,12.56,1.59-1.72,1.88-3.84,2.9-6,.66,2.28-.11,4.08-.52,5.88s-1,3.7-1.28,5.66a17.56,17.56,0,0,0,3.26-6.59c.75-.07.5.39.4.77a23,23,0,0,1-2.15,8.09c-1.9,4.24-3.15,8.57-2.57,13.28a4,4,0,0,1-.13.87,4.67,4.67,0,0,1-2.25-1.92,24.53,24.53,0,0,1-4.73-13.27,47.16,47.16,0,0,1,2-16.44c1.92-6.81,1.31-13.24-2.6-19.34s-7.49-12.24-11.22-18.37c-.15-.42,0-.51.41-.42,1.14,1.34,2.24,2.71,3.42,4a12.62,12.62,0,0,0,1.89,1.69c.8.6,1.85,1.21,2.7.79s.22-1.54.21-2.34a33.15,33.15,0,0,0-3.36-13c-.34-.76-.65-1.54-1-2.38,2.5.74,3,1.1,4.23,3.11,4,6.74,8.77,13,13.28,19.38,3.43,4.86,8.3,6.49,13.76,7.16a50.64,50.64,0,0,0,11.54-.25c6.79-.74,12.71.85,17.08,6.48.57.74,1.46,1.57.87,2.6s-1.74.7-2.69.55a30.23,30.23,0,0,0-12.8.7,20,20,0,0,1-9.26.08c2.17-.62,4.42-.86,6.94-1.94-5-.87-9.82,1.13-14.18-1.37,4.35-.42,8.63-1,12.91-1.74,3.35-.54,6.72-1.07,10.13-.43.89.17,1.79.32,2.69.47C236.56,193.6,236.94,193.73,236.69,193.13Z"/><path class="cls-5" d="M151.37,142.89a8.78,8.78,0,0,1,8-4.65c-.12.95-.32,1.68-1.37,1.88-4.28.81-6.23,3.5-6.4,8.56-.17,5.23-.22,10.46-.38,15.68a186,186,0,0,1-4.61,34.52c0,.25-.08.5-.18,1.09,1.14-.75,2-1.4,3-2,3.47-2,5.87-1.34,7.79,2.16a14.25,14.25,0,0,1,1.49,3.61c.1.42.37.92-.33,1.09-.54.14-.83-.1-1-.64a22.69,22.69,0,0,0-.86-2.39c-1.21-2.88-3-3.64-6-2.59a6.3,6.3,0,0,0-4.3,4.73c-2.18,10.14-5.57,20-7.44,30.2-1.15,6.29-1.42,12.65,1.39,18.66a30.46,30.46,0,0,0,14.11,14.67c.41.21,1.21.13.84,1-.29.66-.78,1.12-1.55.76a7.65,7.65,0,0,1-1.81-1.13c-1.9-1.69-3.74-3.46-5.62-5.18a17.39,17.39,0,0,0-2.94-2.21,33,33,0,0,0,8.75,9.85,2.56,2.56,0,0,1-2.77-.56c-12.69-9.16-17.35-21.72-13.56-37,2.75-11.08,6.33-21.95,8.64-33.14,3.64-17.64,5.92-35.43,5.26-53.5-.1-2.8-.46-5.6-.74-8.39a6.44,6.44,0,0,0-1.25-3.25c-2.07-2.76-6.12-3.06-7.5.28-.19.45-.3,1.45-1.33.81-.85-.53-.43-1.09-.14-1.66,1.06-2.06,2.6-3.47,5-3.44a5.78,5.78,0,0,1,5.56,3.64c1,2.23,1.09,4.69,1.59,7C150.87,141.84,150.69,142.34,151.37,142.89Z"/><path class="cls-5" d="M128,176.17c-1.86-8.41,1.06-16.16,2.85-24.19-1.34,2.28-2.65,4.58-4,6.85s-2.91,4.8-4.46,7.14a57.53,57.53,0,0,1-5.06,6.54c-.52-2.19.37-5.38,3.15-11,1.68-3.42,3.46-6.79,5.07-10.31-4,2.51-7.62,5.58-12.22,7,3.62-4.18,6.25-9,9.86-13.16,3-3.37,6.17-6.43,10.79-7.36,2.52-.51,2.7-.35,2.84,2.13a20.57,20.57,0,0,1-1.17,7.89c-.2.58-.73,1.11-.37,2,2.62-2.84,3.44-6.22,3.65-9.88a9.81,9.81,0,0,1,.65,8.18,60.56,60.56,0,0,1-4,8.28c-2.84,5.45-5.57,10.93-6.92,17C128.43,174.16,128.21,175.17,128,176.17Z"/><path class="cls-5" d="M183,172.28c-4.63-5.3-8-11.44-11.39-17.53a15.54,15.54,0,0,0-1.83-2.76c1.75,7.9,4.61,15.63,3,24.12-.22-.28-.38-.38-.4-.51-1.18-8-4.91-15.08-8.44-22.21-.89-1.81-1.81-3.62-2.53-5.51a9.73,9.73,0,0,1,.62-8.38c.45,3.41.84,6.79,3.29,9.52.69-.61.13-1.08,0-1.47-1.12-2.88-1.13-5.87-1.06-8.88,0-1.15.54-1.41,1.58-1.39a10.85,10.85,0,0,1,5.83,2,25,25,0,0,1,6.29,5.85c3.2,4.2,6.24,8.52,9.23,13-4.58-1.51-8.14-4.71-12.41-7.64,1.8,3.53,3.45,6.6,4.95,9.75,1.66,3.47,3.26,7,3.76,10.85C183.46,171.55,184,172.18,183,172.28Z"/><path class="cls-2" d="M164.55,236.81c-.44,7.37,4.57,11.93,7.14,17.63-5.83-1.5-9.22-4.73-9.66-10.82-.29-4-1.56-7.8-2.52-11.66a4.68,4.68,0,0,1,.52-4.21c.74,1.45,1,3.09,2.05,4.3.38.43.75,1.09,1.37,1s.89-.94,1-1.53c.27-1.67.38-3.37.55-5,3.18,3.75,8.46,20.64,7.91,25.69-1.65-2.52-3.24-4.87-4.72-7.28A57.59,57.59,0,0,1,164.55,236.81Z"/><path class="cls-2" d="M110.48,204.92c5.09,3.23,5.66,3.4,10.48,3-1.37-.41-2.41-.66-3.4-1a14.8,14.8,0,0,1-3.17-1.48c-4.62-3.21-5.19-4.81-3.25-10.26,4.12,9.55,11.75,9.48,20.33,7.33-.64,2.47-1.61,4.48-3.58,5.78a16.47,16.47,0,0,1-12.76,2.19C112.22,209.83,110.5,208.19,110.48,204.92Z"/><path class="cls-2" d="M179,207.87c4.22.57,5.72.14,10.36-2.82-.46,3.82-1.2,4.8-5.07,5.49a16.14,16.14,0,0,1-11.51-2,8.76,8.76,0,0,1-4.23-6.31c8.47,2.36,16,2.42,20.31-6.9,1.87,3.63,1.43,6.19-1.55,8.83a11.31,11.31,0,0,1-3.84,2.29C182.17,206.92,180.81,207.32,179,207.87Z"/><path class="cls-2" d="M80.4,180.94a13.17,13.17,0,0,0,3.21,4.52c-3.79.65-4,.53-5.52-2.65-1.41-3-2.32-6.1-1.45-9.45a9.29,9.29,0,0,1,2.86-4.68c2.42,8.08,5.79,14.84,16.3,14.12a13.4,13.4,0,0,1-8.15,2.56C85,185.17,83.05,182.74,80.4,180.94Z"/><path class="cls-2" d="M205.75,183.2c6,.36,10.44-2.42,13.23-8.43.57-1.24.93-2.58,1.45-3.84.18-.46,0-1.24.63-1.32s.89.65,1.21,1.11a10.06,10.06,0,0,1,1.29,9.15,27.75,27.75,0,0,1-1.29,3.27c-1.52,3.36-1.53,3.35-5.56,3.06.9-1.59,2.48-2.59,3.06-4.39-.88,0-1.37.68-1.87,1.16-3.45,3.28-7.24,3.41-11.32,1.38-.52-.26-1.06-.49-1.59-.73C204.93,182.91,205.34,183.06,205.75,183.2Z"/><path class="cls-6" d="M162.36,227.53a57.86,57.86,0,0,1-2.75-9.08c-1.13,3.05-.82,6.23-2.82,8.7.38-4.92-.78-9.69-1.19-14.51a7.62,7.62,0,0,1,.21-2.33,3.55,3.55,0,0,1,2.63-2.87c1.51-.38,2.53.51,3.31,1.58,2.49,3.37,3.36,7.36,4.54,11.74-2-1.86-2.88-4.06-4.75-5.93C161.24,219.35,163,223.36,162.36,227.53Z"/><path class="cls-7" d="M107.6,228.77a2,2,0,0,1-.68,1.53v-7C107.85,225,106.76,227,107.6,228.77Z"/><path class="cls-8" d="M192.71,224.45v5.89l-.23.09-.44-1.29C192.92,227.67,191.89,225.93,192.71,224.45Z"/><path class="cls-9" d="M99.34,217.42l-.4,1.26a4.57,4.57,0,0,1-.07-3.2Z"/><path class="cls-10" d="M177.86,169.93l-.41.42a3.87,3.87,0,0,1-1.19-2.2A3,3,0,0,1,177.86,169.93Z"/><path class="cls-11" d="M123.34,170l-.43-.42.8-1.17c.38-.08.59,0,.42.44Z"/><path class="cls-12" d="M63.73,192.72a3.22,3.22,0,0,1-1.78.67c.24-.73.84-.84,1.37-1Z"/><path class="cls-13" d="M201.07,217.45l-.4-.77a.85.85,0,0,1,.59-1.07A2,2,0,0,1,201.07,217.45Z"/><path class="cls-14" d="M236.69,193.13c.46.13,1,.2,1.1.91a2.37,2.37,0,0,1-1.57-.51Z"/><path class="cls-15" d="M124.13,168.8l-.42-.44c.21-.37.44-1.09.85-.77S124.41,168.42,124.13,168.8Z"/><path class="cls-16" d="M183,172.28c.5-.28.26-.82.43-1.21.28.48.56,1,.12,1.49C183.33,172.76,183.07,172.52,183,172.28Z"/><path class="cls-17" d="M205.75,183.2l-.76.42c-.37-.05-.72-.33-.47-.59S205.36,182.91,205.75,183.2Z"/><path class="cls-18" d="M91,211c2.16-5.64,5.6-10.54,9-15.45A43,43,0,0,1,91,211Z"/><path class="cls-19" d="M99.29,191.69c-.8,3.4-3.13,5.56-6,7.24C94.67,196,97.13,194,99.29,191.69Z"/><path class="cls-20" d="M199.82,195.4a94.58,94.58,0,0,1,9.83,16.93C206.57,210,201.54,201.5,199.82,195.4Z"/><path class="cls-19" d="M201,192.2a57.39,57.39,0,0,1,6.68,7.4C204.73,198.81,202.3,196.11,201,192.2Z"/></svg>