<svg id="Layer_1" data-name="Layer 1" xmlns="http://www.w3.org/2000/svg" viewBox="0 0 300 300"><defs><style>.cls-1{fill:#134990;}.cls-2{fill:#c2c3c5;}.cls-3{fill:#d28d00;}.cls-4{fill:#010100;}.cls-5{fill:#815700;}.cls-6{fill:#130d00;}.cls-7{fill:#402b00;}.cls-8{fill:#9e6a00;}.cls-9{fill:#b87c00;}.cls-10{fill:#160e00;}.cls-11{fill:#674500;}.cls-12{fill:#3f2b00;}.cls-13{fill:#1d1300;}.cls-14{fill:#2a1d00;}.cls-15{fill:#543900;}.cls-16{fill:#060400;}</style></defs><path d="M22.12-.09H283.39a1,1,0,0,1,1,1V174.49A125.05,125.05,0,0,1,159.34,299.54h-12.5A125.71,125.71,0,0,1,21.12,173.83V.9a1,1,0,0,1,1-1Z"/><path class="cls-1" d="M152.84,2.43q62.94,0,125.87-.06c2.63,0,3.33.62,3.33,3.3q-.14,81.86-.08,163.72c0,21.14-5.28,41-14.41,60-1.16,2.41-2.85,2.64-5.07,2.64q-41.52,0-83,0-67.92,0-135.85.07c-3.24,0-5-.94-6.4-4C28.21,209,23.3,189,23.34,167.74q.12-80.94,0-161.88c0-3.43,0-3.43,3.35-3.43Z"/><path class="cls-2" d="M40.54,234.19h224c.23,1-.43,1.58-.81,2.22Q233.59,288,174.45,296.3c-23.57,3.32-46.82,1.77-69.4-6.25-28.19-10-49.13-28.61-63.86-54.46C41,235.23,40.84,234.84,40.54,234.19Z"/><path d="M68,93.54c-2.55,0-4.73,0-6.91,0-2.39-.06-3.83-1.42-4.7-3.57a4.94,4.94,0,0,1,1.05-5.57c.82-.89,1.6-1.81,2.59-2.92-1.2-.26-2.1-.5-3-.65-4.06-.65-4.55-1.07-5.19-5a77.74,77.74,0,0,1-1.12-15.69A12.2,12.2,0,0,1,56,50.08a65.63,65.63,0,0,1,16.48-8,3.75,3.75,0,0,1,4.64,1.39c.84,1.11,1.76,2.15,2.88,3.5,1.22-4,2-8.2,7.27-7.59,4.61.54,4.87,5.22,7.18,8.29,1.76-2.46,3.47-4.74,5-7.11a1.83,1.83,0,0,1,2.81-.73c2.17,1.14,4.43,2.1,6.6,3.24a17.09,17.09,0,0,1,7.83,8.2c2.18,4.78,4.47,9.51,6.63,14.29.59,1.29,1.22,2.2,2.81,2.29,4.12.24,6.72,2.49,8,6.35a36.34,36.34,0,0,1,1.43,3.38c.82,3.5,2.43,6,6.4,6.33,1.39.1,1.75,1.29,2.07,2.4,1.26,4.46,2.68,8.89,3.7,13.41.63,2.76,2.69,3.58,4.82,4.18,1.59.46,4.32-2.26,4.88-4.31,1.14-4.13,2.43-8.23,3.42-12.39.55-2.28,1.73-3.62,4-3.8s3.43-1.54,4-3.71c.44-1.68,1.36-3.22,1.92-4.88,1.43-4.2,4.12-6.82,8.71-7,1.43-.07,1.87-1,2.36-2.07,1.89-4.15,4-8.21,5.68-12.42,2.35-5.83,6.62-9.49,12.21-12,5-2.24,5-2.33,8.1,2.12,1,1.36,1.88,2.72,3,4.37,1-1.9,1.92-3.55,2.8-5.22,1.18-2.22,2.94-3.48,5.51-3.23a5.19,5.19,0,0,1,5,4.25c.24,1,.65,2,1.12,3.37.93-1.13,1.76-2,2.41-2.94a4.31,4.31,0,0,1,5.68-1.78,73.45,73.45,0,0,1,15.33,7.4,12.63,12.63,0,0,1,5.88,10.83,78.85,78.85,0,0,1-1,14.64c-.75,4.73-1,4.95-5.62,5.73-.77.13-1.54.32-2.84.6,2.86,2.93,6.12,5.73,3,10-2.81,3.81-7,1.53-10.79,2.12,1.23,2.7,2.42,5.29,3.6,7.89.36.79.87,1.6-.13,2.33-4.37,3.22-8.65,6.71-14.31,7.31-3.58.37-7.16-.35-10.73-.6-3-.21-5.93-.51-8.89-.83a2.67,2.67,0,0,0-2.88,1.29c-2.32,3.64-5.72,4.55-9.78,3.82a31.21,31.21,0,0,1-3.38-.43c-3.52-1.1-6.57-.86-8.84,2.49-.64.94-1.65.73-2.64.47-4.66-1.2-9.38-2.19-14-3.57-2.63-.79-4.23.67-5.79,2.06-1.07,1-.19,5,1,6.27,3,3,5.82,6.08,8.9,8.93,2,1.87,2.6,3.85,1.49,6.29-.75,1.68-.33,2.88.88,4.21,1.64,1.81,2.9,4,4.49,5.81a8,8,0,0,1,1.11,9.45,3.1,3.1,0,0,0,.47,3.57c2.93,4,5.7,8.2,8.66,12.21,3.38,4.59,4.24,9.69,3.54,15.19s-.71,5.62-6.24,6.23l-5,.54,2.93,4.57c1.44,2.25,1.78,4.52.16,6.86s-3.87,2.77-6.48,2c-.83-.22-1.68-.34-3-.6.6,1.77,1.05,3.21,1.59,4.61a3.29,3.29,0,0,1-.95,4c-5,4.4-10.32,8.42-16.56,11a10.56,10.56,0,0,1-8.43-.11c-6-2.59-11.18-6.49-16.1-10.74a3.42,3.42,0,0,1-1.06-4.23c.54-1.36,1-2.75,1.61-4.55-3.94.77-7.93,2.35-10.05-2.41-2-4.37,2-6.85,3.48-10.48-2.75-.25-5.38-.54-8-.71-1.75-.11-2.72-.76-2.76-2.69,0-2.36-.42-4.71-.45-7.07a17.13,17.13,0,0,1,3.07-10.4c3.12-4.44,6.2-8.91,9.37-13.32a2.9,2.9,0,0,0,.49-3.33,8.33,8.33,0,0,1,1.21-9.92c.8-.92,1.35-2.07,2.19-2.95,2.43-2.54,4.5-5.06,2.53-8.9-.64-1.25.27-2.32,1.17-3.23,3.14-3.18,6.25-6.38,9.39-9.55,1.46-1.48,2.27-4.9,1.48-6.48s-4.2-2.56-6.24-2c-4.23,1.09-8.51,2-12.7,3.28-2.09.63-3.64.22-4.8-1.45-1.48-2.12-3.31-2.36-5.66-1.75-2,.51-4.16.54-6.22.9a7.93,7.93,0,0,1-8.62-3.57,3.55,3.55,0,0,0-3.79-1.6c-4.43.45-8.93.52-13.32,1.24-6.28,1-11.58-.93-16.45-4.57-5.35-4-4.82-2.1-2.23-8.08C66.45,96.73,67.18,95.25,68,93.54Z"/><path d="M152.67,8.43c2.75,5.44,5.3,10.22,7.59,15.12a4.76,4.76,0,0,0,4.13,3c4.76.65,9.5,1.42,14.26,2.16.58.09,1.37-.09,1.62.59s-.5,1-.91,1.44c-3.39,3.42-6.72,6.9-10.25,10.17a5,5,0,0,0-1.6,5.12c1,5.23,1.75,10.49,2.65,16-2.64-.61-4.55-2-6.61-3-3-1.45-6-3-8.85-4.6a3.74,3.74,0,0,0-4.11,0c-4.92,2.63-9.92,5.13-15.42,8,.7-4.48.91-8.52,2-12.32,1.45-5.05.54-8.83-3.74-12.08-2.69-2-4.9-4.73-7.3-7.16-.45-.46-1.33-.82-1-1.64.25-.66,1.06-.45,1.64-.54,4.75-.74,9.5-1.53,14.26-2.18a4.76,4.76,0,0,0,4.1-3C147.39,18.62,149.93,13.85,152.67,8.43Z"/><path d="M66.8,128.7c5.84,1.57,11.16,2.89,16.41,4.46a4.41,4.41,0,0,0,4.72-1c3.56-3.1,7.3-6,11-9,.59-.48,1.23-.87,2.15-1.52.35,6,.73,11.69,1,17.34a3.75,3.75,0,0,0,2,3.33c4.24,2.65,8.4,5.4,12.58,8.13.48.31,1.27.5,1.19,1.23s-.9.75-1.42,1c-4.57,1.78-9.12,3.61-13.75,5.22a4.21,4.21,0,0,0-3.1,3.38c-1.29,5.35-2.78,10.65-4.35,16.53-3.16-3.87-6.28-7.19-8.78-10.93-2.26-3.39-4.9-4.64-8.93-4.15-4.56.57-9.19.57-14.32.84,3.28-5,6.19-9.68,9.31-14.2a4.48,4.48,0,0,0,.49-4.8C70.85,139.49,69,134.34,66.8,128.7Z"/><path d="M242.18,163.51c-6.2-.29-11.88-.52-17.54-.86a3.74,3.74,0,0,0-3.55,1.63c-3.44,4.4-7,8.7-10.91,13.53-1.4-5.23-2.87-9.86-3.82-14.6-.66-3.29-2.13-5.14-5.42-6.09-3.93-1.14-7.71-2.84-11.55-4.33-.69-.27-1.77-.24-1.84-1.17-.05-.73.9-1,1.47-1.34,4.11-2.67,8.21-5.36,12.37-8a3.53,3.53,0,0,0,1.92-3.13c.24-5.68.61-11.36.94-17,.93-.46,1.33.3,1.83.7,3.81,3.08,7.68,6.1,11.37,9.32a4.47,4.47,0,0,0,4.75,1c5.2-1.52,10.45-2.89,15.63-4.3.76.83.09,1.44-.13,2-1.79,4.75-3.6,9.5-5.52,14.2a3.68,3.68,0,0,0,.46,3.86C235.78,153.58,238.78,158.3,242.18,163.51Z"/><path class="cls-3" d="M224.52,51.81c1.69-2.23,3.24-4.19,4.69-6.22a3,3,0,0,1,4-1.22c5.14,2,10.21,4.15,14.78,7.3a10.08,10.08,0,0,1,4.52,8.18,74.08,74.08,0,0,1-1.15,16.22,2.7,2.7,0,0,1-2.71,2.61c-2.51.2-5,.6-8,1,2,2.1,3.62,3.94,5.34,5.72,1.13,1.17,1.68,2.36.95,4a3.36,3.36,0,0,1-3.56,2.13c-3.22-.17-6.43-.46-9.92-.71,1.65,3.28,3.13,6.42,4.78,9.47.91,1.67.37,2.44-1,3.62-6.23,5.42-13.45,5.62-21.05,4.54-3.55-.51-7.15-.65-10.71-1.07a2,2,0,0,0-2.32,1.14c-2,3.65-5.09,5-9.22,4-1.35-.32-2.82-.21-4.15-.59-3.2-.9-6.12-1.28-8.07,2.28-.55,1-1.56,1.12-2.75.8-4.47-1.22-9-2.27-13.46-3.48a6.9,6.9,0,0,0-8.45,6.05,7.36,7.36,0,0,0,2.77,6.59c2.72,2.33,5,5.19,7.64,7.58,2,1.82,2.45,3.73,1.22,6-.92,1.68-.43,2.78.79,4.1,1.83,2,3.29,4.32,5.09,6.34,2.52,2.8,2.2,5.76.59,8.69a2.76,2.76,0,0,0,.34,3.47c3.32,4.62,6.48,9.36,9.84,14,3.67,5,3.09,10.55,2.49,16.16-.14,1.28-1.15,1.08-2,1.18a87.17,87.17,0,0,1-11,.52c.91,2.23,2.61,3.66,3.7,5.49.67,1.12,1.38,2.23,2.05,3.35a3.08,3.08,0,0,1-.27,3.68,3,3,0,0,1-3.41,1.31c-2.59-.68-5.21-1.2-8.17-1.87,1.17,2.78,2.15,5.19,3.19,7.57a2.58,2.58,0,0,1-.86,3.42,73.52,73.52,0,0,1-13.43,9.15,10.31,10.31,0,0,1-9.81.07,74,74,0,0,1-13.67-9.25,2.59,2.59,0,0,1-.79-3.44c1-2.37,2-4.76,3.17-7.52-2.92.66-5.46,1.16-8,1.83a3.12,3.12,0,0,1-3.65-1.31,3.18,3.18,0,0,1-.1-3.91c1.81-2.76,3.68-5.47,5.63-8.37-3.8-.25-7.42-.54-11-.7-1.44-.06-1.81-.63-2.05-2-1.16-6.87.16-13,4.66-18.45,2.88-3.51,5.28-7.41,8-11.09a2.38,2.38,0,0,0,.24-3c-1.72-3.12-2-6.21.68-9.14,1.88-2.07,3.41-4.45,5.29-6.52,1-1.07,1.26-1.94.6-3.21-1.32-2.53-1.09-4.64,1.23-6.69,3.08-2.72,5.84-5.8,8.77-8.69,2.51-2.48,1.84-7.94-1-9.86a7.8,7.8,0,0,0-7.81-1c-3.25,1.22-6.77,1.71-10.11,2.74-2.44.75-4.28.25-5.59-1.87-1.05-1.72-2.34-1.9-4.21-1.43-2.36.6-4.85.65-7.24,1.16-3.9.84-6.65-.68-8.55-3.93a2.38,2.38,0,0,0-2.74-1.32c-5.48.57-11,.78-16.47,1.52-6.48.89-11.25-2.37-16-5.85-1-.77-.46-1.54-.09-2.3,1.56-3.21,3.16-6.41,4.93-10-2.78.24-5.32.49-7.85.67a13.17,13.17,0,0,1-3.14,0,3.27,3.27,0,0,1-2-5.4c1.73-2.06,3.64-4,5.64-6.12-2.61-1-5.18-.67-7.62-1.14-1.69-.32-2.68-.92-3-2.68a73.41,73.41,0,0,1-1.1-16.48,9.81,9.81,0,0,1,4.3-7.75c4.77-3.35,10.08-5.57,15.49-7.62a2.46,2.46,0,0,1,3.17,1c1.56,2.1,3.15,4.17,5,6.61.84-2.73,1.63-5.14,2.3-7.59a3.48,3.48,0,0,1,6.62-.67c1.43,2.89,2.82,5.8,4.31,8.89,2-3,3.93-5.85,5.76-8.79.94-1.5,1.76-1.84,3.56-1.09,6.14,2.53,10.66,6.44,13.09,12.8,1.65,4.32,3.85,8.43,5.72,12.67a2.39,2.39,0,0,0,2.47,1.77c3.73,0,6.48,1.55,7.71,5.38.78,2.4,2,4.66,2.76,7.07.52,1.72,1.16,2.73,3.14,2.78,2.54.07,4,1.36,4.58,4.06.86,4.1,2.14,8.11,3.23,12.17,1,3.57,6,5.59,9.23,4a7.66,7.66,0,0,0,4.56-6.09c.64-3.34,1.95-6.55,2.61-9.88.57-2.88,2.12-4.27,4.93-4.35,1.55,0,2.24-.74,2.71-2.24.84-2.66,2.14-5.17,3-7.82,1.2-3.61,3.86-5,7.35-5.09,1.64,0,2.23-.74,2.83-2.06,2.37-5.26,4.9-10.45,7.27-15.71,2.51-5.55,7.62-7.69,12.66-10,1.25-.56,1.55.54,2,1.17,2,3,4,6,6.14,9.24,1.11-2.41,2.11-4.66,3.18-6.88a14.57,14.57,0,0,1,1.71-2.94A3.31,3.31,0,0,1,222,43.75C222.93,46.28,223.62,48.87,224.52,51.81Z"/><path class="cls-2" d="M152.67,13.13c2.3,4.55,4.41,8.62,6.43,12.75a3.71,3.71,0,0,0,3.26,2.44c4.59.52,9.13,1.4,14.27,2.22A102.36,102.36,0,0,1,169,38c-3.34,2.69-4.64,5.58-3.32,9.89,1,3.3,1.17,6.86,1.77,10.72-4.4-2.23-8.54-4.2-12.54-6.42a4.15,4.15,0,0,0-4.56,0c-4,2.18-8,4.17-12.46,6.42.78-5,1.36-9.59,2.28-14.15a3.91,3.91,0,0,0-1.43-4.07c-3.26-3.15-6.42-6.4-9.93-9.92,5-.79,9.56-1.65,14.18-2.2a3.73,3.73,0,0,0,3.25-2.47C148.26,21.75,150.37,17.68,152.67,13.13Z"/><path class="cls-2" d="M94.19,173.26c-3.31-4.09-6.33-7.72-9.22-11.45a3.15,3.15,0,0,0-3.09-1.36c-4.71.34-9.43.53-14.69.81,1.85-2.86,3.21-5.61,5.16-7.85,3.59-4.13,4.05-8.2,1.32-13-1.42-2.46-2.14-5.32-3.4-8.58,3.8,1,7.28,1.57,10.5,2.83,4,1.54,7,1,10-2.07,2.41-2.48,5.35-4.44,8.42-6.93.28,5,.66,9.48.71,14a4.39,4.39,0,0,0,2.49,4.12c3.79,2.3,7.47,4.78,11.62,7.47-4.7,1.81-8.94,3.52-13.23,5.06a3.94,3.94,0,0,0-2.94,3.16C96.8,164,95.48,168.44,94.19,173.26Z"/><path class="cls-2" d="M211.15,173.28c-1.35-5-2.64-9.56-3.74-14.15a3.38,3.38,0,0,0-2.44-2.68c-4.4-1.6-8.75-3.3-13.62-5.15,4.23-2.74,8-5.3,12-7.7a3.77,3.77,0,0,0,2.1-3.52c.11-4.63.46-9.25.74-14.41,3.91,3.17,7.53,6,11,9a4,4,0,0,0,4.24.91c4.33-1.33,8.74-2.4,13.64-3.71-1.29,3.41-2.12,6.63-3.67,9.46-2.36,4.31-1.83,7.87,1.27,11.55,2,2.43,3.54,5.31,5.53,8.36-5.19-.25-9.88-.41-14.56-.75a3.33,3.33,0,0,0-3.31,1.45C217.41,165.64,214.39,169.26,211.15,173.28Z"/><path class="cls-4" d="M91.23,76q16.84,9.09,33.67,18.18c5.92,3.2,11.8,6.49,17.75,9.63,1.63.85.95,1.66.41,2.69s-1,1.57-2.34.75q-25-15.43-50.06-30.75C90.6,76,90.64,75.7,91.23,76Z"/><path class="cls-4" d="M214.68,76.51,175.13,100.8c-3.51,2.14-7,4.22-10.5,6.46-1.32.85-1.79.29-2.35-.78s-1.19-1.8.43-2.67Q188.45,90,214.12,76C214.7,75.75,214.77,76,214.68,76.51Z"/><path class="cls-4" d="M152.24,182.72q-.78-28.87-1.58-57.76c0-1.57.34-2.15,2-2.15s2.05.58,2,2.15q-.82,28.88-1.57,57.76A.51.51,0,0,1,152.24,182.72Z"/><path class="cls-5" d="M152.2,195.84V192.7a.6.6,0,0,1,.92,0v3.14A.56.56,0,0,1,152.2,195.84Z"/><path class="cls-6" d="M91.23,76l-.57.5c-1.14-.56-2.38-1-3.16-2.07l0,0C89.07,74.12,90.09,75.21,91.23,76Z"/><path class="cls-7" d="M152.23,189V186.4a.56.56,0,0,1,.9,0V189A.52.52,0,0,1,152.23,189Z"/><path class="cls-8" d="M152.2,195.84h.94c0,.88,0,1.76,0,2.63a.6.6,0,0,1-1,0Z"/><path class="cls-9" d="M152.18,198.47h1c0,.74.26,1.53-.46,2.3C151.86,200.13,152.23,199.24,152.18,198.47Z"/><path class="cls-10" d="M152.24,182.72h.86v2.1a.51.51,0,0,1-.87,0Z"/><path class="cls-11" d="M153.13,192.7h-.92c0-.7,0-1.4,0-2.1a.56.56,0,0,1,.9,0Z"/><path class="cls-12" d="M87.5,74.42c-.64-.11-1.32-.17-1.64-1,1.11-.4,1.47.15,1.61,1.07Z"/><path class="cls-13" d="M214.68,76.51l-.56-.52c.49-.42,1.17-1.26,1.63-.6C216.34,76.24,215.17,76.23,214.68,76.51Z"/><path class="cls-14" d="M152.23,184.82h.87c0,.53,0,1.05,0,1.58h-.9C152.23,185.87,152.23,185.35,152.23,184.82Z"/><path class="cls-15" d="M153.12,190.6h-.9c0-.53,0-1,0-1.58h.88C153.11,189.55,153.12,190.07,153.12,190.6Z"/><path class="cls-16" d="M218.32,74.21c.2-1,.79-1.08,1.35-1.2C219.72,74,219,73.88,218.32,74.21Z"/></svg>