<svg id="Layer_1" data-name="Layer 1" xmlns="http://www.w3.org/2000/svg" viewBox="0 0 300 300"><defs><style>.cls-1{fill:#c2c3c5;}.cls-2{fill:#c72030;}.cls-3{fill:#c1c2c4;}.cls-4{fill:#c6202f;}.cls-5{fill:#c62030;}.cls-6{fill:#c51f2f;}.cls-7{fill:#c1c2c3;}.cls-8{fill:#969798;}.cls-9{fill:#b81e2c;}.cls-10{fill:#ba1e2d;}.cls-11{fill:#a8a8aa;}.cls-12{fill:#3d0a0e;}.cls-13{fill:#400a0f;}.cls-14{fill:#1a1a1a;}.cls-15{fill:#d28d00;}</style></defs><path d="M19.36-.09H280.64a1,1,0,0,1,1,1V174.49A125.05,125.05,0,0,1,156.58,299.54h-12.5A125.71,125.71,0,0,1,18.37,173.83V.9a1,1,0,0,1,1-1Z"/><path class="cls-1" d="M196.88,93.65c-8.56-8.06-16.53-15.56-24.51-23.05-7-6.56-14-13.08-20.92-19.7-1.15-1.1-1.74-1.08-2.88,0q-21.91,20.71-43.94,41.33a5.46,5.46,0,0,1-1.14.63l.34.79c3.29,0,6.58.09,9.86,0,1.7-.07,2.16.46,2.15,2.16q-.09,30.28,0,60.58c0,1.49-.26,2.15-2,2.11-4.49-.12-9-.09-13.47,0-1.47,0-1.94-.46-1.92-1.92.07-4.75,0-9.5.06-14.24,0-1.59-.45-2.08-2-2.06-6,.09-11.91.07-17.87,0-1.35,0-1.77.39-1.75,1.75.07,4.74-.07,9.49.07,14.24.06,1.94-.7,2.27-2.4,2.22-3.62-.11-7.25-.12-10.87,0-1.77.06-2.39-.41-2.33-2.27.13-4.57,0-9.15.07-13.72,0-1.59-.28-2.28-2.09-2.25-5.87.12-11.74.13-17.61,0-1.85,0-2.06.72-2,2.25.08,4.66,0,9.32.07,14,0,1.63-.48,2.05-2,2-4.06-.11-8.12-.16-12.17,0-2.07.09-2.37-.7-2.36-2.53.06-16.14,0-32.27,0-48.41q0-51.27-.06-102.53c0-2.31.57-2.83,2.84-2.83q124,.09,248,0c2.29,0,2.83.55,2.83,2.83q-.11,75.35,0,150.69c0,2.06-.38,2.89-2.64,2.78-4-.19-7.94-.12-11.9,0-1.59,0-2.08-.4-2.05-2,.11-4.66,0-9.32.07-14,0-1.55-.21-2.28-2.05-2.24q-8.8.18-17.6,0c-1.83,0-2.12.67-2.09,2.26.09,4.57-.06,9.15.07,13.72.06,1.87-.57,2.32-2.34,2.26-3.62-.13-7.25-.16-10.87,0-2,.1-2.44-.64-2.39-2.51.13-4.57,0-9.15.08-13.72,0-1.62-.45-2-2-2q-8.81.14-17.6,0c-1.61,0-2.07.48-2,2.06.09,4.66,0,9.32.07,14,0,1.72-.51,2.23-2.21,2.19-4.31-.11-8.63-.1-12.94,0-1.61,0-2.23-.31-2.22-2.1q.09-30.3,0-60.59c0-1.7.46-2.22,2.16-2.15C189.57,93.74,192.83,93.65,196.88,93.65Z"/><path class="cls-1" d="M153.85,240.13c-3.13-.33-1.64-2.7-1.78-4.23-.17-1.79,1.5-1.23,2.25-1.06,1.26.3,3.54-1.38,3.62,1.28,0,1.37,1.69,3.95-2.05,3.87l4.11,5.68,4-5.55c-3.43-.22-2.32-2.81-2-4.26.57-2.38,2.87-.63,4.35-1.05,1.12-.32,1.9.25,1.62,1.52s1.34,3.73-2.17,3.62l4.07,5.7,3.09-4.06c.68.85.4,1.64.4,2.36,0,16.3,0,32.6.06,48.9,0,2.08-.57,2.74-2.66,3a158.38,158.38,0,0,1-41.78-.06c-1.39-.19-2.59-.14-2.58-2.28.09-17,0-34,.06-51a7.13,7.13,0,0,1,.14-.94c1.57,1,2,2.79,3.46,3.9l3.92-5.39c-3.44-.22-2.34-2.82-2-4.27.58-2.36,2.89-.62,4.37-1,1.15-.32,1.89.29,1.6,1.54s1.35,3.73-2.14,3.6l4,5.57c1.69-1.56,2.72-3.49,4.13-5.38-3.3-.36-2.16-2.85-1.9-4.25.47-2.39,2.71-.68,4.11-1.07.94-.27,2.15-.06,1.75,1.34s1.58,3.78-1.69,3.77c0,.22-.06.43,0,.54C150.07,246.3,150.08,246.3,153.85,240.13Z"/><path class="cls-2" d="M190.77,91.44H109.09c.14-1,.91-1.38,1.44-1.89,12.43-11.71,24.9-23.38,37.29-35.14,1.63-1.55,2.6-1.72,4.35,0C164.41,66,176.76,77.57,189.09,89.15c.67.63,1.4,1.2,2.11,1.8Z"/><path class="cls-2" d="M199.4,255.82c-4.48,0-9-.07-13.46,0-1.68,0-2.26-.48-2.22-2.2.1-4.57.08-9.15,0-13.72,0-1.56.47-2.1,2.06-2.09q13.72.09,27.44,0c1.59,0,2.09.48,2.06,2.06-.09,4.58-.1,9.15,0,13.72,0,1.68-.43,2.27-2.16,2.23C208.55,255.75,204,255.82,199.4,255.82Z"/><path class="cls-2" d="M100.55,255.82c-4.57,0-9.15,0-13.72,0-1.52,0-2.14-.36-2.11-2q.15-7,0-14c0-1.65.59-2,2.11-2q13.59.09,27.18,0c1.61,0,2.32.36,2.28,2.14q-.17,6.86,0,13.72c0,1.78-.66,2.18-2.28,2.15C109.52,255.76,105,255.82,100.55,255.82Z"/><path class="cls-2" d="M232.56,217c-4.57,0-9.14-.06-13.71,0-1.58,0-2.1-.45-2.07-2.05.09-4.65.07-9.31,0-14,0-1.44.41-2,1.9-2q13.84.08,27.69,0c1.42,0,2,.45,2,1.94-.07,4.66-.08,9.32,0,14,0,1.59-.5,2.1-2.08,2.07C241.7,217,237.13,217,232.56,217Z"/><path class="cls-2" d="M100.51,217c-4.57,0-9.14-.06-13.71,0-1.55,0-2.11-.4-2.08-2q.15-7,0-14c0-1.68.66-2,2.14-2q13.58.08,27.16,0c1.64,0,2.3.44,2.26,2.19-.1,4.57-.08,9.14,0,13.71,0,1.56-.45,2.12-2,2.09C109.66,217,105.09,217,100.51,217Z"/><path class="cls-2" d="M67.41,217c-4.49,0-9-.05-13.46,0-1.57,0-2.35-.27-2.3-2.09q.16-6.86,0-13.72c0-1.76.66-2.18,2.27-2.17q13.59.09,27.18,0c1.49,0,2.16.33,2.13,2q-.15,7,0,14c0,1.65-.58,2-2.11,2C76.55,217,72,217,67.41,217Z"/><path class="cls-2" d="M199.38,217c-4.57,0-9.14-.05-13.71,0-1.47,0-2-.47-1.94-1.93.07-4.66.05-9.31,0-14,0-1.34.28-2.08,1.84-2.07q14,.06,27.94,0c1.38,0,1.77.53,1.76,1.83-.06,4.75-.07,9.49,0,14.23,0,1.48-.48,1.94-1.93,1.91C208.69,217,204,217,199.38,217Z"/><path class="cls-2" d="M67.43,237.87c4.57,0,9.14,0,13.71,0,1.57,0,2.12.44,2.08,2-.09,4.66-.07,9.32,0,14,0,1.41-.37,2-1.88,2-8.29-.05-16.57,0-24.85,0-2.08,0-4.73-2.89-4.78-5.25-.08-3.62,0-7.25-.05-10.87,0-1.58.71-1.84,2.05-1.83C58.28,237.9,62.85,237.87,67.43,237.87Z"/><path class="cls-2" d="M232.62,237.87c4.22,0,8.46.16,12.67-.06,2.61-.14,3.25.78,3.08,3.2-.21,2.92-.11,5.87,0,8.8a5.81,5.81,0,0,1-1.23,3.55,5.46,5.46,0,0,1-5.2,2.51c-7.59-.15-15.18-.1-22.77,0-1.77,0-2.42-.43-2.37-2.29.12-4.48.13-9,0-13.46-.06-1.9.66-2.31,2.39-2.27C223.64,237.94,228.13,237.87,232.62,237.87Z"/><path class="cls-2" d="M199.35,178.23c-4.57,0-9.14,0-13.7,0-1.48,0-1.94-.48-1.92-1.93q.11-7,0-14c0-1.53.63-1.88,2-1.88q13.83.06,27.66,0c1.5,0,1.89.56,1.87,2-.06,4.65-.08,9.3,0,14,0,1.54-.58,1.86-2,1.84C208.66,178.19,204,178.23,199.35,178.23Z"/><path class="cls-2" d="M232.5,178.23c-4.48,0-9-.09-13.45,0-1.86,0-2.33-.57-2.28-2.34.12-4.4.09-8.8,0-13.19,0-1.59.32-2.29,2.11-2.28q13.71.12,27.41,0c1.61,0,2.07.57,2,2.11-.08,4.48-.12,9,0,13.45.06,1.93-.73,2.27-2.42,2.23C241.46,178.16,237,178.23,232.5,178.23Z"/><path class="cls-2" d="M216,236.35c-4.48,0-9-.06-13.45,0-1.61,0-2.31-.36-2.27-2.14.11-4.57.08-9.14,0-13.71,0-1.42.39-2,1.89-2q13.85.08,27.68,0c1.38,0,2,.29,2,1.85-.09,4.66-.1,9.31,0,14,0,1.68-.67,2-2.15,2C225.1,236.3,220.53,236.35,216,236.35Z"/><path class="cls-2" d="M50.94,179.78c4.57,0,9.14.07,13.71,0,1.61,0,2.07.49,2,2.06-.09,4.56-.08,9.14,0,13.7,0,1.56-.45,2.11-2,2.1q-13.71-.09-27.42,0c-1.59,0-2.1-.57-2.07-2.12.07-4.57.08-9.14,0-13.71,0-1.61.55-2.06,2.09-2C41.8,179.83,46.37,179.78,50.94,179.78Z"/><path class="cls-2" d="M117,179.78c4.57,0,9.14.06,13.7,0,1.55,0,2.13.42,2.1,2-.09,4.57-.07,9.14,0,13.71,0,1.53-.46,2.13-2.06,2.12q-13.71-.09-27.41,0c-1.59,0-2.08-.54-2-2.1q.12-6.84,0-13.7c0-1.56.41-2.1,2-2.06C107.85,179.85,112.42,179.78,117,179.78Z"/><path class="cls-2" d="M183.06,179.78c4.48,0,9,.06,13.44,0,1.61,0,2.3.32,2.25,2.11-.11,4.57-.09,9.14,0,13.7,0,1.62-.57,2.06-2.1,2.05q-13.57-.08-27.14,0c-1.63,0-2.32-.42-2.29-2.17.1-4.57.09-9.14,0-13.71,0-1.67.66-2,2.15-2C173.92,179.83,178.49,179.78,183.06,179.78Z"/><path class="cls-2" d="M216.28,179.78c4.49,0,9,.06,13.46,0,1.55,0,2.12.4,2.08,2-.1,4.57-.08,9.14,0,13.72,0,1.55-.45,2.12-2,2.11q-13.72-.09-27.44,0c-1.56,0-2.11-.51-2.08-2.09.08-4.57.09-9.15,0-13.72,0-1.6.48-2.08,2.07-2.05C207,179.84,211.62,179.78,216.28,179.78Z"/><path class="cls-2" d="M249.22,179.78c4.57,0,9.14.05,13.71,0,1.47,0,1.95.48,1.93,1.93q-.11,7,0,14c0,1.47-.54,2-2,1.95q-13.83-.06-27.67,0c-1.51,0-1.9-.59-1.88-2,.06-4.65.07-9.31,0-14,0-1.48.49-1.91,1.93-1.89C239.91,179.83,244.56,179.78,249.22,179.78Z"/><path class="cls-2" d="M84,236.35c-4.57,0-9.15-.06-13.72,0-1.57,0-2.09-.5-2.06-2.07.09-4.57.1-9.15,0-13.72,0-1.61.54-2,2.08-2q13.71.09,27.43,0c1.56,0,2.1.45,2.07,2q-.14,6.85,0,13.71c0,1.61-.54,2.09-2.09,2.06C93.1,236.3,88.53,236.35,84,236.35Z"/><path class="cls-2" d="M67.67,178.23c-4.65,0-9.31-.06-14,0-1.58,0-2.09-.48-2.05-2.06.08-4.57.09-9.14,0-13.71,0-1.64.63-2,2.13-2q13.71.06,27.41,0c1.62,0,2,.56,2,2.1-.08,4.57-.1,9.14,0,13.7,0,1.67-.61,2-2.11,2C76.64,178.18,72.16,178.23,67.67,178.23Z"/><path class="cls-2" d="M100.29,178.23c-4.4,0-8.79-.07-13.18,0-1.7,0-2.46-.29-2.4-2.22.14-4.48.09-9,0-13.44,0-1.5.31-2.15,2-2.13q13.7.1,27.4,0c1.75,0,2.2.62,2.17,2.26-.09,4.39-.11,8.79,0,13.18,0,1.77-.45,2.41-2.3,2.36C109.43,178.14,104.86,178.23,100.29,178.23Z"/><path class="cls-2" d="M84,179.78c4.57,0,9.15.06,13.72,0,1.59,0,2.08.48,2.05,2.06q-.14,6.85,0,13.72c0,1.59-.54,2.08-2.09,2.08q-13.71-.08-27.44,0c-1.61,0-2.06-.59-2-2.12.08-4.58.09-9.15,0-13.72,0-1.64.55-2.05,2.09-2C74.84,179.83,79.42,179.78,84,179.78Z"/><path class="cls-2" d="M133.52,122.92c4.49,0,9,.06,13.47,0,1.62,0,2.34.39,2.3,2.15q-.14,6.74,0,13.46c0,1.65-.61,2-2.13,2q-13.6-.09-27.19,0c-1.48,0-2.16-.31-2.13-2,.11-4.57.09-9.15,0-13.72,0-1.49.51-1.93,2-1.91C124.37,123,129,122.92,133.52,122.92Z"/><path class="cls-2" d="M166.54,140.49c-4.58,0-9.15-.05-13.73,0-1.56,0-2.12-.46-2.1-2.05.08-4.49.07-9,0-13.46,0-1.54.46-2.13,2.07-2.12q13.72.09,27.44,0c1.48,0,1.94.49,1.92,1.94-.07,4.58-.1,9.15,0,13.73,0,1.71-.72,2-2.16,1.94C175.51,140.45,171,140.49,166.54,140.49Z"/><path class="cls-2" d="M166.5,178.23c-4.48,0-8.95-.06-13.43,0-1.59,0-2.32-.33-2.28-2.11.11-4.56.07-9.13,0-13.69,0-1.42.45-2,1.93-2q13.81.08,27.63,0c1.29,0,1.85.37,1.84,1.75-.06,4.74-.08,9.47,0,14.21,0,1.59-.69,1.81-2,1.8C175.62,178.19,171.06,178.23,166.5,178.23Z"/><path class="cls-2" d="M133.68,160.5c4.47,0,8.95.05,13.43,0,1.55,0,2.12.5,2.09,2.08-.07,4.56-.08,9.12,0,13.68,0,1.62-.59,2-2.12,2q-13.68-.08-27.37,0c-1.45,0-2-.43-1.93-1.9q.1-7,0-13.95c0-1.46.5-1.94,1.94-1.92C124.38,160.54,129,160.5,133.68,160.5Z"/><path class="cls-2" d="M150,103.8c4.4,0,8.79.07,13.18,0,1.86,0,2.62.41,2.55,2.43-.14,4.3-.09,8.62,0,12.92,0,1.6-.35,2.3-2.13,2.29q-13.58-.12-27.14,0c-1.76,0-2.18-.66-2.14-2.27.08-4.4.1-8.79,0-13.18,0-1.78.65-2.2,2.26-2.18C141,103.85,145.51,103.8,150,103.8Z"/><path class="cls-2" d="M84.13,257.37c4.48,0,9,0,13.45,0,1.43,0,2.22.23,2.18,1.95-.1,4.65-.09,9.31,0,14,0,1.52-.56,1.9-2,1.89-6.81,0-13.62-.07-20.43,0-2,0-3-1.45-4.5-2.26-3.69-2-5-4.95-4.74-9.28.42-6.23.1-6.25,6.45-6.25Z"/><path class="cls-2" d="M216.19,257.37c4.48,0,9,.07,13.45,0,1.71,0,2.34.53,2.17,2.21a9.15,9.15,0,0,0,0,3.09c1.56,6.31-2.75,9.1-7,12a3.66,3.66,0,0,1-2.22.5c-6.72,0-13.44-.05-20.17,0-1.72,0-2.21-.54-2.18-2.21.1-4.48.11-9,0-13.45,0-1.75.6-2.19,2.24-2.16C207.05,257.43,211.62,257.37,216.19,257.37Z"/><path class="cls-2" d="M249.11,218.58c4.57,0,9.13.06,13.69,0,1.59,0,2,.53,2.09,2.07.31,3.9-1.78,6.93-3.35,10.14-2.73,5.61-2.78,5.59-8.94,5.59-5.69,0-11.37,0-17,0-1.63,0-2.28-.4-2.24-2.15q.16-6.84,0-13.69c0-1.66.62-2,2.11-2C240,218.63,244.55,218.58,249.11,218.58Z"/><path class="cls-2" d="M51.09,218.58c4.48,0,8.95,0,13.43,0,1.43,0,2.21.19,2.17,1.93-.11,4.64-.08,9.3,0,13.95,0,1.45-.46,1.94-1.92,1.93q-10.85-.08-21.7,0a2.53,2.53,0,0,1-2.58-1.65c-1.46-3-2.95-6-4.5-9-1-1.86-.78-3.84-.8-5.81,0-1.49,1-1.32,2-1.33Z"/><path class="cls-2" d="M149.74,158.43c-4.39,0-8.79-.06-13.18,0-1.62,0-2.32-.4-2.27-2.17q.17-6.06,0-12.13c0-1.78.68-2.15,2.29-2.14q13.42.09,26.86,0c1.62,0,2.32.38,2.27,2.15-.1,4-.11,8.09,0,12.14,0,1.77-.68,2.17-2.28,2.15C158.86,158.38,154.3,158.43,149.74,158.43Z"/><path class="cls-2" d="M149.91,179.78c4.57,0,9.14.09,13.7,0,1.85-.05,2.11.75,2.09,2.3-.07,4.39,0,8.79,0,13.18,0,2.54-.93,3-3.43,1.75a26.5,26.5,0,0,0-9.06-2.86,25.24,25.24,0,0,0-14.78,2.54,6.24,6.24,0,0,1-2.4.9c-1,.06-1.67-.16-1.67-1.36,0-5,0-10,0-15,0-1.44.88-1.42,1.88-1.41Z"/><path class="cls-2" d="M263.17,178.23c-3.79,0-7.58-.06-11.38,0-1.43,0-2-.4-1.94-1.89q.12-7,0-14c0-1.48.51-1.92,1.95-1.91q11.51.08,23,0c1.39,0,2.05.35,2,1.89-.13,4.48,0,9-.22,13.44-.11,2.11-.93,2.53-2.82,2.46C270.25,178.13,266.71,178.23,263.17,178.23Z"/><path class="cls-2" d="M36.63,160.5c3.79,0,7.59.05,11.38,0,1.48,0,2.18.31,2.14,2-.09,4.65-.06,9.31,0,14,0,1.3-.36,1.83-1.75,1.82q-11.51-.08-23,0c-1.32,0-1.77-.42-1.88-1.74-.43-4.73-.18-9.48-.31-14.21,0-1.61.76-1.83,2.07-1.81C29,160.53,32.84,160.5,36.63,160.5Z"/><path class="cls-2" d="M187.08,236.35c-3.1,0-6.21-.07-9.31,0-1.59,0-2.34-.34-2.3-2.13q.17-6.86,0-13.7c0-1.69.65-2,2.12-2,6.38.06,12.76.07,19.14,0,1.63,0,2,.56,2,2.09-.08,4.57-.09,9.14,0,13.7,0,1.63-.57,2.07-2.1,2C193.46,236.28,190.27,236.35,187.08,236.35Z"/><path class="cls-2" d="M113,218.58c3.18,0,6.37.06,9.56,0,1.46,0,1.94.44,1.92,1.92q-.12,7,0,14c0,1.46-.51,1.95-2,1.94q-9.69-.08-19.38,0c-1.49,0-1.91-.55-1.89-2,.07-4.65.08-9.3,0-14,0-1.48.5-1.93,1.94-1.89C106.47,218.64,109.74,218.58,113,218.58Z"/><path class="cls-2" d="M112.84,275.13c-3.18,0-6.37,0-9.55,0-1.33,0-2.06-.21-2-1.81.09-4.73.07-9.47,0-14.2,0-1.35.45-1.8,1.79-1.79q9.81.07,19.62,0c1.34,0,1.81.49,1.8,1.82q-.08,7.09,0,14.2c0,1.35-.51,1.8-1.83,1.78C119.39,275.08,116.11,275.13,112.84,275.13Z"/><path class="cls-2" d="M187,275.13c-3.19,0-6.37-.06-9.56,0-1.45,0-2-.46-2-1.93q.11-7,0-14c0-1.49.54-1.93,2-1.92q9.69.07,19.38,0c1.47,0,1.93.49,1.91,1.93q-.11,7,0,14c0,1.47-.48,1.95-1.93,1.91C193.54,275.07,190.27,275.13,187,275.13Z"/><path class="cls-2" d="M38.63,199.1c3.18,0,6.37.05,9.56,0,1.43,0,2,.43,2,1.92-.07,4.74-.08,9.48,0,14.22,0,1.56-.66,1.84-2,1.83-4.65-.06-9.31-.09-14,0a2.33,2.33,0,0,1-2.57-1.91q-2.36-6.83-4.25-13.81c-.44-1.61-.21-2.36,1.71-2.28C32.25,199.19,35.44,199.1,38.63,199.1Z"/><path class="cls-2" d="M258.78,217c-2.41,0-4.83-.05-7.24,0-1.2,0-1.68-.4-1.67-1.63q.06-7.36,0-14.73c0-1.3.61-1.59,1.74-1.59,6.55,0,13.09,0,19.64,0,1.41,0,1.84.42,1.47,1.82-1.32,5-2.8,9.92-4.57,14.78A1.88,1.88,0,0,1,266,217C263.6,217,261.19,217,258.78,217Z"/><path class="cls-2" d="M100.48,276.66c4.56,0,9.13,0,13.7,0,1.54,0,2.14.42,2.1,2q-.14,6.33,0,12.66c0,1.79-.58,1.93-2.16,1.52A119.71,119.71,0,0,1,86.84,282c-.85-.47-1.9-.72-2.1-2-.41-2.76,0-3.31,2.81-3.31C91.86,276.65,96.17,276.66,100.48,276.66Z"/><path class="cls-2" d="M199.45,276.66c4.31,0,8.62-.05,12.93,0,1,0,2.52-.81,2.78.87s.46,3.26-1.66,4.34a143.58,143.58,0,0,1-16,7.26c-3.88,1.42-7.82,2.63-11.81,3.73-1.56.43-2,.07-2-1.48.06-4.31.08-8.63,0-12.93,0-1.56.64-1.87,2-1.85C190.31,276.69,194.88,276.66,199.45,276.66Z"/><path class="cls-2" d="M249.4,142.36c2.33,0,4.65,0,7,0,1.25,0,1.89.29,1.86,1.72-.07,4.22-.05,8.44,0,12.66,0,1.18-.32,1.73-1.6,1.72-4.73,0-9.47-.05-14.21,0-1.38,0-1.77-.56-1.76-1.85.05-4.14.08-8.27,0-12.41,0-1.56.68-1.89,2-1.85C244.92,142.4,247.16,142.36,249.4,142.36Z"/><path class="cls-2" d="M50.62,158.43c-2.32,0-4.65,0-7,0-1.24,0-1.92-.24-1.89-1.7q.1-6.33,0-12.66c0-1.4.57-1.75,1.84-1.74,4.65,0,9.3,0,14,0,1.34,0,1.79.51,1.78,1.83-.06,4.14-.07,8.27,0,12.41,0,1.53-.63,1.91-2,1.87C55.1,158.37,52.86,158.43,50.62,158.43Z"/><path class="cls-2" d="M212.16,158.43c-2.15,0-4.31-.06-6.46,0-1.48.06-2.22-.33-2.19-2,.08-4,.06-8.1,0-12.15,0-1.43.46-2,1.94-2q6.84.1,13.7,0c1.5,0,1.91.58,1.89,2-.06,4.05-.09,8.1,0,12.15,0,1.68-.69,2-2.17,2C216.65,158.37,214.4,158.43,212.16,158.43Z"/><path class="cls-2" d="M87.82,142.35c2.24,0,4.48,0,6.72,0,1.22,0,2,.25,1.94,1.69,0,4.22,0,8.45,0,12.67,0,1.39-.64,1.75-1.91,1.74-4.56,0-9.13-.06-13.7,0-1.49,0-1.93-.54-1.91-2,.07-4,.09-8.1,0-12.15,0-1.67.66-2.05,2.15-2C83.34,142.42,85.58,142.35,87.82,142.35Z"/><path class="cls-2" d="M182.12,112.72c0,2.24-.06,4.48,0,6.71.06,1.43-.4,2-1.89,2q-5.55-.12-11.1,0c-1.46,0-2-.5-1.95-2,.07-4.56.06-9.12,0-13.69,0-1.43.48-2,1.94-2,3.7.06,7.4.07,11.1,0,1.51,0,1.94.56,1.89,2C182.06,108.07,182.12,110.4,182.12,112.72Z"/><path class="cls-2" d="M117.88,112.49c0-2.07.11-4.14,0-6.2-.12-1.84.35-2.63,2.39-2.54,3.52.17,7.06.09,10.58,0,1.44,0,2,.49,2,2q-.09,6.84,0,13.68c0,1.42-.42,2-1.92,2-3.78-.08-7.57-.06-11.36,0-1.22,0-1.68-.44-1.65-1.66C117.92,117.31,117.88,114.9,117.88,112.49Z"/><path class="cls-2" d="M133.86,93.66c4.39,0,8.79.06,13.18,0,1.65,0,2.22.47,2.26,2.18.14,6.44.2,6.43-6.25,6.43-7.58,0-15.16-.06-22.74.05-1.91,0-2.5-.49-2.48-2.45,0-6.18,0-6.18,6.21-6.18Z"/><path class="cls-2" d="M166.33,102.24c-4.39,0-8.79-.09-13.17.05-2,.06-2.46-.65-2.46-2.52,0-6.11-.06-6.11,6.06-6.11,7.58,0,15.16,0,22.74,0,1.91,0,2.71.35,2.68,2.51-.09,6.1,0,6.1-6,6.1Z"/><path class="cls-2" d="M182.12,150.15c0,2.15,0,4.3,0,6.45,0,1.28-.34,1.87-1.73,1.85-3.78-.07-7.57-.06-11.35,0-1.32,0-1.85-.47-1.84-1.81q.08-6.31,0-12.64c0-1.41.44-2,1.93-2,3.78.08,7.56.06,11.35,0,1.23,0,1.67.45,1.64,1.67C182.08,145.85,182.12,148,182.12,150.15Z"/><path class="cls-2" d="M132.76,150.4c0,2.06,0,4.13,0,6.19,0,1.3-.43,1.87-1.79,1.85q-5.69-.08-11.35,0c-1.35,0-1.8-.49-1.78-1.81,0-4.3.06-8.6,0-12.9,0-1.43.62-1.73,1.87-1.71,3.7.05,7.4.07,11.09,0,1.45,0,2,.47,2,1.93C132.71,146.1,132.76,148.25,132.76,150.4Z"/><path class="cls-3" d="M152,213.12c0-4.91.08-9.83,0-14.74,0-1.76.25-2.43,2.22-2.09,3.85.66,3.87.55,3.87,4.48,0,9.14-.13,18.27.07,27.4.07,3.25-2,2.15-3.53,2.35-1.85.23-2.74-.18-2.65-2.41C152.13,223.12,152,218.12,152,213.12Z"/><path class="cls-3" d="M148,213.3c0,5-.09,10,.05,15,0,1.85-.5,2.5-2.3,2.24a10,10,0,0,0-2.32,0c-1.15.1-1.49-.41-1.49-1.49,0-10.09-.07-20.17.07-30.25,0-3.16,3-2.13,4.78-2.49,2.1-.43,1.14,1.47,1.16,2.27C148.05,203.47,148,208.39,148,213.3Z"/><path class="cls-2" d="M165.48,199.1c5.51,0,10.24,0,15,0,1.38,0,1.77.57,1.76,1.86-.05,4.74-.07,9.49,0,14.23,0,1.5-.56,2-2,1.86a4.51,4.51,0,0,0-.52,0c-4.07.05-4.09.05-5.21-3.88A29.08,29.08,0,0,0,165.48,199.1Z"/><path class="cls-2" d="M134.27,199.1c-2.19,2.45-4.22,4.4-5.65,6.84a26,26,0,0,0-3.52,8.83c-.3,1.78-1,2.36-2.89,2.31-4.39-.12-4.4,0-4.4-4.37,0-3.8.07-7.59,0-11.38,0-1.64.41-2.31,2.16-2.27C124.56,199.16,129.18,199.1,134.27,199.1Z"/><path class="cls-3" d="M138.07,198.85c0,10.54,0,20.2,0,29.85,0,1.52-.5,2-1.92,1.82a11.24,11.24,0,0,0-2.32,0c-1.39.15-2-.24-2-1.8.07-7.5-.07-15,.08-22.5C132.05,202.58,135.5,201.54,138.07,198.85Z"/><path class="cls-3" d="M161.93,199.26c3.83,2.54,6.63,4.84,6.25,9.82-.47,6.34-.17,12.75-.07,19.12,0,1.73-.32,2.62-2.23,2.33a7.48,7.48,0,0,0-2.06,0c-1.42.17-1.93-.31-1.92-1.82C162,219.05,161.93,209.4,161.93,199.26Z"/><path class="cls-2" d="M266.4,188.54c0-2.33.05-4.65,0-7,0-1.32.41-1.86,1.78-1.8,2.15.09,4.31.08,6.46,0,1.44,0,1.72.5,1.54,1.85-.62,4.6-1.28,9.2-2.16,13.77-.32,1.68-1,2.28-2.7,2.24-5.9-.17-4.77.61-4.9-4.68C266.37,191.47,266.4,190,266.4,188.54Z"/><path class="cls-2" d="M33.6,188.2c0,2.79-.06,5,0,7.27.06,1.51-.4,2.11-2,2.15-5.05.13-5.12.22-6-4.73-.7-3.8-1.14-7.66-1.76-11.48-.21-1.31.29-1.75,1.51-1.63h.26c2.56.15,6.08-1.12,7.45.47C34.79,182.29,33.33,185.85,33.6,188.2Z"/><path class="cls-4" d="M117.81,246.74c0-2.33.07-4.65,0-7-.06-1.47.51-1.94,1.95-1.92,5.7.1,4.64-.51,4.72,4.59.06,3.7-.07,7.4,0,11.1.06,1.85-.62,2.37-2.39,2.32-5.11-.15-4.2.49-4.29-4.21C117.79,250,117.81,248.37,117.81,246.74Z"/><path class="cls-4" d="M182.19,246.79c0,2.41-.05,4.83,0,7.24,0,1.33-.46,1.82-1.8,1.81-6.08-.08-4.79.51-4.89-4.68-.07-3.7,0-7.41-.05-11.12,0-1.7.56-2.25,2.24-2.2,5.42.14,4.36-.51,4.47,4.29C182.22,243.68,182.19,245.24,182.19,246.79Z"/><path class="cls-4" d="M124.47,285.79c0,2.5,0,5,0,7.5,0,1.27-.52,1.71-1.74,1.46s-2.36-.47-3.54-.69a1.56,1.56,0,0,1-1.4-1.8q.06-7,0-13.95c0-1.2.43-1.6,1.65-1.68,5-.34,5-.38,5,4.51Z"/><path class="cls-5" d="M175.51,285.66c0-2.41.05-4.83,0-7.24,0-1.36.5-1.74,1.82-1.79,4.88-.22,4.88-.27,4.88,4.65,0,3.36-.1,6.73,0,10.09.08,1.82-.47,2.74-2.33,2.88a18.48,18.48,0,0,0-2.53.48c-1.32.29-1.92-.14-1.88-1.57C175.56,290.67,175.51,288.16,175.51,285.66Z"/><path class="cls-5" d="M56.69,257.72a5.44,5.44,0,0,1,.88-.31c9.54-.61,9.64-.51,8.94,10.16A88.66,88.66,0,0,1,56.69,257.72Z"/><path class="cls-5" d="M233.36,267.68c0-3.44,0-6.17,0-8.91,0-1,.36-1.41,1.36-1.4,2.73,0,5.46,0,8.87,0A90.33,90.33,0,0,1,233.36,267.68Z"/><path class="cls-6" d="M50.12,248.67c-3-2.82-5-6.17-7.08-9.51-.45-.73-.52-1.31.63-1.29,1.73,0,3.45,0,5.18,0,1.29,0,1.27.87,1.27,1.76Z"/><path class="cls-6" d="M257.67,237.87a54.88,54.88,0,0,1-7.78,10.89c0-3.23,0-6.45,0-9.67,0-1.09.69-1.23,1.55-1.22Z"/><path class="cls-7" d="M128.09,213.17c0,5.4,0,10.67,0,15.94,0,.57.12,1.28-.76,1.36-.53.05-.79-.31-.77-.79.18-5.37-.72-10.81,1-16.08C127.59,213.47,127.79,213.4,128.09,213.17Z"/><path class="cls-3" d="M171.91,213.34c1.67,2.94,1.52,6,1.54,9.11,0,2.16,0,4.31,0,6.46,0,.6.32,1.59-.78,1.53s-.72-1-.72-1.63C171.9,223.66,171.91,218.5,171.91,213.34Z"/><path class="cls-8" d="M128.17,237.31c0,.51,0,1,0,1.53s-.14,1-.81,1c-.85.06-.94-.52-1-1.15s0-1.53,0-2.28-.28-1.75.93-1.68.74,1.1.84,1.78a6.42,6.42,0,0,1,0,.76Z"/><path class="cls-9" d="M217,279.57c-.26-3.25-.26-3.25,4.37-2.68A12.09,12.09,0,0,1,217,279.57Z"/><path class="cls-10" d="M78.88,277.22c4.5-.76,4.5-.76,4.05,2.49Z"/><path class="cls-11" d="M173.49,237.32c0,.52,0,1,0,1.54a1.6,1.6,0,0,1-.18.72.59.59,0,0,1-.89.19c-1.13-1.22-.34-2.73-.51-4.11a.76.76,0,0,1,.73-.88c.71-.06.82.47.85,1S173.49,236.81,173.49,237.32Z"/><path class="cls-12" d="M266.84,219.36c-.16.29-.22.57-.4.69-.34.22-.41-.11-.4-.34a2.41,2.41,0,0,1,.21-.66Z"/><path class="cls-13" d="M34,219.65c-.08.31-.12.63-.45.4a.8.8,0,0,1-.29-.62c0-.13.32-.24.5-.37Z"/><path class="cls-14" d="M245.8,66.54C242,70.38,238.51,74,234.9,77.35a4.21,4.21,0,0,0-1.38,4.32c.9,4.81,1.61,9.66,2.48,15-4.67-2.4-9-4.5-13.26-6.87a4.65,4.65,0,0,0-5.17,0c-4.2,2.34-8.53,4.42-13.23,6.82.82-5.18,1.47-10,2.4-14.76a4.55,4.55,0,0,0-1.5-4.75c-3.54-3.35-6.9-6.89-10.59-10.6,5-.8,9.68-1.68,14.35-2.2A5.1,5.1,0,0,0,213.6,61c2-4.29,4.22-8.45,6.55-13.06,2.36,4.65,4.66,8.92,6.7,13.31a4.78,4.78,0,0,0,4.24,3C235.84,64.91,240.56,65.74,245.8,66.54Z"/><path class="cls-14" d="M64,96.67c.8-5.11,1.42-9.87,2.36-14.56a5,5,0,0,0-1.69-5.19C61.23,73.7,58,70.25,54.34,66.57c5-.79,9.68-1.64,14.39-2.23a4.9,4.9,0,0,0,4.46-3.14c2-4.38,4.29-8.61,6.64-13.23,2.4,4.72,4.76,9.08,6.84,13.58a4.38,4.38,0,0,0,3.89,2.73c4.78.65,9.53,1.43,14.32,2.16.15,1.14-.82,1.48-1.36,2-3,3-5.89,6.06-9,8.92a4.18,4.18,0,0,0-1.32,4.34c.88,4.81,1.6,9.65,2.46,14.93-4.91-2.51-9.49-4.79-14-7.2a3.31,3.31,0,0,0-3.54,0C73.58,91.86,69,94.14,64,96.67Z"/><path class="cls-14" d="M175.59,22.41c-3.9,3.9-7.44,7.52-11.09,11A3.48,3.48,0,0,0,163.32,37c.92,5,1.61,10,2.46,15.44-4.55-2.32-8.75-4.29-12.76-6.58a5.25,5.25,0,0,0-5.9-.06c-4,2.32-8.23,4.28-12.68,6.55a29.25,29.25,0,0,1,1.3-9.22c1.8-5.88.61-10.31-4.44-14-2.46-1.79-4.38-4.31-6.79-6.75,5.47-.89,10.62-1.77,15.78-2.51a2.93,2.93,0,0,0,2.49-1.83c2.27-4.62,4.63-9.19,7.21-14.28,2.21,4.35,4.45,8.19,6.14,12.25,1.23,3,3.1,4,6.15,4.32C166.6,20.78,170.88,21.67,175.59,22.41Z"/><path class="cls-15" d="M198.82,68c4.73-.76,8.8-1.49,12.89-2a3.12,3.12,0,0,0,2.66-2c1.82-3.7,3.72-7.36,5.8-11.44,2,3.9,3.79,7.4,5.5,11a3.85,3.85,0,0,0,3.4,2.58c3.93.42,7.83,1.2,12.32,1.92-3,3-5.61,5.78-8.43,8.34a4.66,4.66,0,0,0-1.61,5c.64,3,1,5.94,1.5,8.92.28,1.78-.16,2.5-2,1.49-2.95-1.6-6-3-8.94-4.65a3.14,3.14,0,0,0-3.36,0c-3,1.65-6.12,3.16-9.18,4.75-.63.33-1.32.73-2,.35-.88-.54,0-1.22.09-1.83a39.29,39.29,0,0,1,1.16-7.13c1.19-3.68,0-6.16-2.85-8.46C203.45,72.85,201.44,70.58,198.82,68Z"/><path class="cls-15" d="M58.66,68c4.52-.73,8.58-1.45,12.66-2A3.1,3.1,0,0,0,74,64c1.8-3.71,3.72-7.37,5.81-11.48,2,4,4,7.65,5.73,11.33A3.27,3.27,0,0,0,88.43,66c4.06.52,8.1,1.28,12.76,2-3.21,3.14-6,6-8.88,8.63A3.91,3.91,0,0,0,91,80.74c.59,3,1,5.94,1.48,8.92.12.82.54,1.86-.25,2.42s-1.44-.28-2.11-.61c-2.77-1.39-5.57-2.73-8.26-4.27a3.69,3.69,0,0,0-4.07,0c-2.85,1.59-5.8,3-8.71,4.53-.62.32-1.28.74-2,.38-1-.52,0-1.2,0-1.78.49-3.41,1-6.82,1.63-10.21A3.16,3.16,0,0,0,67.68,77C64.77,74.18,61.94,71.29,58.66,68Z"/><path class="cls-15" d="M136.85,48.82c.75-4.66,1.32-8.65,2.07-12.61a3.34,3.34,0,0,0-1.1-3.42c-2.91-2.78-5.73-5.67-9-8.94,4.48-.72,8.41-1.44,12.38-1.93a3.55,3.55,0,0,0,3.11-2.22c1.73-3.63,3.61-7.18,5.69-11.29,2.06,4,3.94,7.57,5.65,11.18A3.68,3.68,0,0,0,159,21.92c3.9.47,7.78,1.21,12.17,1.91-3.18,3.21-6,6.11-8.85,8.88a3.53,3.53,0,0,0-1.18,3.63c.76,3.95,1.3,7.94,2,12.42-4-2-7.64-3.81-11.16-5.73a3.49,3.49,0,0,0-3.8,0C144.6,44.94,141,46.71,136.85,48.82Z"/></svg>