<svg id="Layer_1" data-name="Layer 1" xmlns="http://www.w3.org/2000/svg" viewBox="0 0 300 300"><defs><style>.cls-1{fill:#017851;}.cls-2{fill:#c2c3c5;}.cls-3{fill:#d28d00;}.cls-4{fill:#d18d00;}.cls-5{fill:#ce8b00;}.cls-6{fill:#cd8a00;}.cls-7{fill:#7c5400;}.cls-8{fill:#7d5400;}.cls-9{fill:#030200;}.cls-10{fill:#050300;}.cls-11{fill:#060400;}.cls-12{fill:#080600;}</style></defs><path d="M22.45-.09H277.55a1,1,0,0,1,1,1V174.49A125.05,125.05,0,0,1,153.49,299.54h-6.31A125.71,125.71,0,0,1,21.46,173.83V.9a1,1,0,0,1,1-1Z"/><path class="cls-1" d="M150,77.6H270c3.76,0,3.76,0,3.76,3.65,0,29.5-.19,59,.06,88.5.24,29.92-9.93,56-28.89,78.66-18.62,22.3-42.2,36.85-70.88,42.15-38.65,7.16-73.55-1.53-103.74-26.94a122.29,122.29,0,0,1-41.68-68.74A101.14,101.14,0,0,1,26.28,173q0-46,0-92c0-3.35,0-3.36,3.3-3.36Z"/><path class="cls-2" d="M150,58.76q-60.48,0-121,.05c-2.11,0-2.85-.34-2.82-2.7.14-12.67.1-25.35,0-38,0-1.81.32-2.45,2.32-2.44q121.44.07,242.9,0c2,0,2.29.73,2.28,2.48-.06,12.76-.09,25.53,0,38.29,0,2.16-.78,2.39-2.59,2.39Q210.59,58.73,150,58.76Z"/><path d="M242.28,163.52c9.6-7.08,10-17.57,10.86-27.89.9-.39,1.2.39,1.6.85,6.11,7.08,6.92,15.22,4.28,23.78-1.44,4.66-4.95,7.79-9.3,9.91-9.92,4.83-20.49,7.82-31.09,10.7-1.79.49-3.57,1-5.35,1.55-.48.14-1.1.27-1.12.83,0,.3.43.74.76.9,5.34,2.43,10.58,5,16.5,1.24q5.78-3.67,11.47-7.46c.48-.32,1-.91,1.56-.65.77.34.42,1.18.46,1.81.18,3.31-1.63,5.77-3.64,8.1C237.69,189,236,190.79,234,193c4.38.7,7.51-1.49,10.86-2.75a6.23,6.23,0,0,1-2.75,7.19c-6.34,4-13.17,5.88-20.41,2.62-4.54-2-8.88-4.52-13.27-6.88a31,31,0,0,0-17.86-3.64,13.69,13.69,0,0,0-6.43,2.1c-1,.67-2,1.49-1.57,2.89s1.51,1.67,2.77,1.74c4,.24,7.92-.5,11.86-.88a26.86,26.86,0,0,1,16.19,3.45c-4.62,2.77-6.93,7-9.54,11.05-3.78,5.79-7.8,6.21-15.9,5.29-1.66-.19-3.53-1.37-4.84-.88s-.68,2.89-1.33,4.34c-1.69,3.74-2.13,7.8-2.92,11.76a22.26,22.26,0,0,1-1.2,4.92c-3.7,8.13-5.36,16.83-7.42,25.43a39.14,39.14,0,0,0-1.35,9.23,28.31,28.31,0,0,1-1.12,9c-1.32,4.05-4.07,6.26-8.2,6.38-6.33.18-12.67.24-19,0-5.63-.22-9.15-3.71-9.16-10.4,0-9.21-3.13-17.75-4.38-26.67a11.77,11.77,0,0,0-1.14-3.87c-3.27-6.14-4.7-12.82-5.79-19.59-.56-3.44-2.43-6.49-2.7-10-.09-1.22-1.08-.76-1.77-.53a28.68,28.68,0,0,1-10.26,1.19,10.27,10.27,0,0,1-8.24-4.25c-.66-.88-1.27-1.79-1.86-2.72-2.28-3.56-4.49-7.18-8.62-9.61a25.59,25.59,0,0,1,16-3.53c3.7.31,7.36,1,11.1.92,1.52,0,3.28.08,3.69-1.87s-1.17-2.75-2.55-3.34c-6.25-2.66-12.56-2.13-18.76.12-5.5,2-10.53,5-15.6,7.87-7.21,4.09-14.18,2.78-21.06-.55A7.44,7.44,0,0,1,55,190.2c3.43,1.13,6.56,3.5,11,2.73-1.85-2-3.46-3.68-5-5.43-2-2.31-3.94-4.69-3.9-8,0-.74-.32-1.72.33-2.14s1.37.39,2,.79a132.48,132.48,0,0,0,11.54,7.36A15.73,15.73,0,0,0,88,183.27c-.71-1-1.84-1.06-2.83-1.33-10.25-2.83-20.55-5.55-30.38-9.7-3.66-1.55-7.23-3.19-10.13-6.11-4-4-4.92-9.1-5-14.43a21.87,21.87,0,0,1,5.55-15.11c.4-.46.71-1.36,1.53-1,.61.28.35,1.06.36,1.62a48.55,48.55,0,0,0,3,16.61,19.39,19.39,0,0,0,8.06,9.83c-.91-7.09-.72-13.52,5.61-18.35l2.07,9.62c.82,3.83,1.77,7.6,4.87,10.36a10.52,10.52,0,0,0,1.35,1.15c1.28.81,2.72,2,4.16,1.05,1.23-.79.43-2.45.15-3.56C73.65,153,71,142.09,62.19,134c-2.41-2.23-4.54-4.77-6.76-7.21-3.25-3.57-6.57-7-11.25-8.78a18.23,18.23,0,0,1-5.56-3.93c-3.82-3.51-3.94-7.79-2.75-12.37.16-.6.21-1.48,1-1.57.65-.08.91.68,1.23,1.14a25.93,25.93,0,0,0,5,5.38c.57.45,1.12,1.27,1.93.9s.45-1.2.54-1.84c.58-4.3,1.26-8.56,4.35-11.94.35-.37.66-.77,1-1.11.61-.56,1.16-1.59,2-1.3s.56,1.47.55,2.25c-.09,6.66.48,13.17,3.59,19.23a24.47,24.47,0,0,0,5,6.93c.87.82,1.82,1.82,3.08,1.15s1.07-2,.94-3.18a32.23,32.23,0,0,0-3.33-11.88c-1.2-2.24-2.31-4.52-3.56-6.73-.87-1.54-.28-2,1.22-1.85,3.34.3,5.75,2.25,8,4.53,3.69,3.8,5.44,8.69,7.52,13.4.48,1.09.57,3.06,1.86,2.93s1.21-2,1.4-3.25c1.15-7.34-1-13.88-5.13-19.84-1.63-2.33-3.45-4.55-5.34-7,2.36-.76,4.38-.05,6.33.42a16.07,16.07,0,0,1,10.14,7.45,47.16,47.16,0,0,1,4.45,10.2c.33,1,.55,1.7,1.89.94a112.41,112.41,0,0,0,13.08-8.21,11.33,11.33,0,0,0,4.87-9.76c0-1.34-.47-3.22,1.06-3.84s2.91.53,4.16,1.41c3.13,2.2,4.07,5.38,4.16,9,.08,2.9.23,2.89,2.84,1.57,5.37-2.72,9.56-6.93,13.94-10.9.87-.79,1.69-1.65,2.57-2.44.49-.43.94-1.22,1.64-1s.42,1.17.46,1.79c.48,7-2.51,12.24-7.84,16.41-1.71,1.33-3.4,2.67-5.56,4.37,4.35.24,7.56-1.19,10.66-3.09s5.52-4.64,7.94-8a14.31,14.31,0,0,1-.05,9.74,16.2,16.2,0,0,1-15,11.34c-7.52.14-15,.07-22.56.14-13.28.14-22.66,9.66-23,23-.27,9.06,1.09,17.67,5.7,25.61a27.53,27.53,0,0,0,5.32,6.41c.41.38.79,1,1.44.83s.42-1,.45-1.56c.3-5.15.57-10.3,2.81-15.09.58-1.23-.16-2.31-.56-3.39-1.73-4.78-1.12-9.07,2.52-12.91,1.07,1.87,1.25,4,2.68,5.56.39.43.73,1.12,1.36,1s.72-.86.88-1.42c1.16-3.83.54-7.7.22-11.56-.07-.84-.3-1.67-.37-2.51s-.93-2.05-.16-2.62,1.89.3,2.76.73c4.29,2.11,6,6.06,7,10.35.49,2.24,1.26,2.28,3,1.38,4.1-2.07,7.24-5.21,10.19-8.62.6-.68,1-1.59,2.22-2a14.39,14.39,0,0,1-1.48,12.81c-2.8,4.54-6.84,7.87-11.22,10.83-2,1.33-3.92,2.65-5.83,4-6.32,4.61-7.21,16.27,1.55,20.85q2.69,1.41,5.43,2.72c1.05.5,1.79.61,1.43-1.07-.63-2.91.17-3.73,3.3-3.55s5.63,1.67,8.36,2.79c.66.27,1.4,1,2.09.4s0-1.44-.31-2c-1-1.76-.52-2.35,1.43-2.41A13.86,13.86,0,0,1,146,176.8c2.87,2.13,5.33,2,8.17,0a13.29,13.29,0,0,1,8.34-2.57c2.7.07,2.83.24,1.7,2.68-.25.53-.49,1.07-.75,1.63,1,.81,1.79.08,2.57-.23,2.36-.92,4.57-2.21,7.1-2.66a9.47,9.47,0,0,1,3.52,0c1.52.3,2,1,1.44,2.49-.23.64-.92,1.52-.14,2.08s1.46-.18,2.11-.5c1.68-.8,3.31-1.7,4.93-2.59,8.38-4.59,7.27-15.9,1.71-20.26-2.14-1.68-4.4-3.14-6.64-4.65a36.8,36.8,0,0,1-11-10.72,14.43,14.43,0,0,1-2-10.21c.12-.79-.06-2,.83-2.25s1.27.9,1.78,1.5c3,3.57,6.29,6.83,10.54,9,1.69.85,2.44.77,2.89-1.31,1-4.59,2.88-8.7,7.56-10.76.68-.3,1.48-.94,2.12-.54s.13,1.37,0,2.09c-.57,4.17-1.31,8.34-.7,12.59a9.08,9.08,0,0,0,.24,1.49c.23.71.23,1.76,1,2,1,.26,1.34-.82,1.84-1.44,1.12-1.41,1.32-3.27,2.16-4.84a9.84,9.84,0,0,1,3.06,11.08,11,11,0,0,0,.1,8c1.51,3.78,1.54,7.93,1.74,12,0,.57-.22,1.34.35,1.63.77.4,1.18-.44,1.65-.86,5.61-5,8.47-11.54,9.89-18.71,1.48-7.51,2.19-15.15-1-22.42-3.76-8.56-10-13.87-19.87-13.83-7.86,0-15.72,0-23.58-.14A16.52,16.52,0,0,1,153.72,97a2.88,2.88,0,0,1,.92-2.26c3.34,4.61,7.38,8.33,12.88,10.11a14.59,14.59,0,0,0,5.55.68c-2.12-1.68-3.78-3-5.47-4.34-5.43-4.21-8.45-9.57-7.95-16.61,0-.56-.25-1.33.34-1.63.76-.37,1.19.44,1.66.85,3.47,3.1,6.88,6.26,10.37,9.32a36.67,36.67,0,0,0,6.56,4.29c1.7.93,2.56,1,2.56-1.36,0-3.26.43-6.44,3.25-8.69.33-.26.62-.58,1-.81,1.28-.83,2.72-2,4.17-1.31s1,2.4.95,3.67c-.15,4.27,1.6,7.41,5,10A111.43,111.43,0,0,0,208.31,107c1.14.64,1.57.44,2-.73.87-2.46,1.76-4.93,2.82-7.32,3-6.77,8.21-10.55,15.63-11.17.71-.06,1.69-.5,2.08.28s-.52,1.34-1,1.9A50.76,50.76,0,0,0,224,98.14c-3,5.6-4.35,11.5-3,17.84a3.08,3.08,0,0,0,1.46,2.48,41.35,41.35,0,0,0,3.12-6.85c2-4.74,4.5-9.09,8.71-12.23a10.48,10.48,0,0,1,4.84-2.08c.65-.09,1.48-.28,1.91.29s-.19,1.26-.48,1.83c-2.4,4.65-5.24,9.11-6.1,14.4a47.84,47.84,0,0,0-.61,4.77c-.06.88,0,2,1,2.38a2.34,2.34,0,0,0,2.52-.76,23.81,23.81,0,0,0,4.87-6.11c3.32-5.94,4.35-12.38,4.22-19.07,0-.76,0-1.53,0-2.29,0-.48-.12-1.1.41-1.37s1.09.26,1.51.64a17,17,0,0,1,5.52,10.28c.2,1.34.43,2.67.55,4,.14,1.67.86,1.57,1.93.75a27.37,27.37,0,0,0,5.54-5.88c.32-.45.56-1.23,1.26-1.06s.73.88.87,1.43c1.21,4.56,1.18,8.85-2.6,12.4a21.2,21.2,0,0,1-6.88,4.67c-4.17,1.57-6.87,4.81-9.74,7.88-3.87,4.13-7.64,8.35-11.48,12.52A20.34,20.34,0,0,0,229.3,146c-2.32,6.34-5,12.57-5.86,19.35-.32,2.5.48,3.12,2.81,2.06a12.2,12.2,0,0,0,6.52-7.4c1.45-4.07,2-8.37,3-12.56.15-.62.08-1.49.83-1.67s1,.58,1.37,1c3.93,3.92,4.75,8.78,4.19,14.05C242,161.57,241.62,162.38,242.28,163.52Z"/><path class="cls-3" d="M189.63,133.8c0,3.88-.42,7.79,1,11.53s2.69,4,5.36.92c.66-.74,1.27-1.52,2-2.4,1.29,2.58.47,4.89-.51,7a6.52,6.52,0,0,0,.12,6.36c2.29,4.52,1.6,9.58,2,14.44.11,1.2-.61,2.93.54,3.5s2.53-.63,3.6-1.38a26.69,26.69,0,0,0,9-10.77c4.68-9.94,6.22-20.39,3.56-31.08-2.83-11.41-10.9-17.8-22.62-18.68-5.15-.38-10.31-.12-15.46,0a88.75,88.75,0,0,1-9.37-.2c-6.75-.55-11.72-5.23-12.75-12.44,1.1.94,1.94,1.68,2.81,2.39a20.11,20.11,0,0,0,14,4.89c1.17,0,2.56,0,3.1-1.26.62-1.41-.72-2.12-1.57-2.86-2.61-2.26-5.35-4.4-7.93-6.71a13.41,13.41,0,0,1-4.45-9.28c1.47,1.32,2.59,2.31,3.69,3.32a52.83,52.83,0,0,0,11.44,8.32,22.71,22.71,0,0,0,4.74,1.77c1.88.5,2.32-.13,1.91-2-.82-3.75-.93-7.42,2.34-10.28.37-.32.69-.86,1.25-.67s.5.84.51,1.31c0,5.34,2.86,8.9,6.94,12,4.75,3.57,10.16,6,15,9.51,1.27.91,1.37-.19,1.61-1a79.52,79.52,0,0,1,4-10.68,15.77,15.77,0,0,1,10.37-8.75c-1.09,1.67-1.85,2.91-2.67,4.11-4.37,6.39-5.5,13.5-4.67,21a4.7,4.7,0,0,0,.13.75c.54,2,1.06,4.31,3.38,4.56,2.17.25,2.92-2,3.68-3.64,1.34-2.91,2.5-5.91,3.91-8.78a17,17,0,0,1,7.26-7.85c-.69,1.47-1.25,2.66-1.8,3.86-2.09,4.48-3.62,9.1-3.57,14.11,0,1.74.23,3.44,2,4.34s3.51.29,4.95-.86c5.28-4.21,7.89-10,9.36-16.38.66-2.84.9-5.78,1.39-9.1,1.91,2.65,2.32,5.34,2.65,8a21.48,21.48,0,0,1,.13,2.78c-.06,4.91,1.59,3.86,4.41,2.15a72.85,72.85,0,0,0,6.06-4.59,7.63,7.63,0,0,1-1.92,6.2,21.14,21.14,0,0,1-8.22,5.76,14.51,14.51,0,0,0-5.18,3.56q-7.92,8.55-15.86,17.09a17.28,17.28,0,0,0-3.26,5.09c-2.88,6.86-5.62,13.77-6.8,21.15-.3,1.87-1.3,4.23.92,5.59s4.61.45,6.65-.89a14.9,14.9,0,0,0,6.34-8.57c.89-3.14,1.71-6.29,2.67-9.85,2.77,5,1.85,9.75,1.24,14.51-.09.73-.69,1.62-.12,2.16.73.69,1.58-.13,2.29-.44,7.74-3.43,11-10.11,12.7-17.82.49-2.19.92-4.4,1.42-6.83,5.87,8.3,2.24,21.9-6.91,26.31-8.31,4-17.13,6.65-26,9.19-3.56,1-7.15,2-10.7,3.08-1.2.37-2.57.91-2.78,2.32-.24,1.59,1.14,2.39,2.28,3,6.7,3.9,13.48,5.86,20.61.86a63.61,63.61,0,0,1,7.72-4.5c-2.6,4.92-7.18,8.24-10.74,12.64,4.2,1.45,8.14.82,12.17-.17-1.25,1.88-4.76,3.44-8.24,4a19,19,0,0,1-13.6-2.49,95,95,0,0,0-13.73-7,30.47,30.47,0,0,0-17.65-1.66,14.42,14.42,0,0,0-6.28,3.12,4.28,4.28,0,0,0-1.46,5c.56,1.81,2.07,2.49,3.93,2.64,4.84.4,9.61-.27,14.4-.78a19.87,19.87,0,0,1,10.67,1.78c-3.34,3.05-5.46,6.71-8,10-3,3.83-6.94,4.52-11.36,3.87-4.69-.68-8.81-2.8-12.82-5.2-.66-.39-1.52-1.4-2.21-.56-.84,1,.39,1.64,1.07,2.15,2,1.49.83,2.27-.69,2.64a50.34,50.34,0,0,1-6.23,1.06c-4,.48-6.6,2.73-8.09,6.39a54.89,54.89,0,0,1-2.3,5.68c3.2-1.29,3.46-4.94,5.54-7.18a18.48,18.48,0,0,0,1.35,1.78c1.59,1.67,3.22,3.49,5.83,2.82a7.07,7.07,0,0,0,5.42-5.45c.31-1.22.17-2.58,1-3.64.5-.66,1.17-1.43,2.06-1.14s.41,1.18.41,1.8c0,7.52-5.87,12.6-13.14,11.26-2.38-.44-3.21.7-3.88,2.61,4.7-1.11,9.7.67,14.39-2-3.65,12.2-7.65,24.13-10.07,36.57-2.53-2.39-3.13-5.42-4.11-8.35a5.53,5.53,0,0,0-.27,4.25,23.26,23.26,0,0,0,2.06,5.69c3.21,5.27,1.2,10.29-.35,15.37-.23.76-.65,1.13-1.47.6a23.16,23.16,0,0,0-6.87-3.15c-.56-.14-1.2-.42-1-1.2s.49-1.64,1.59-1.66a6.61,6.61,0,0,0,3.34-1.05,4.06,4.06,0,0,0,1-6.48c-.11-.13-.22-.26-.34-.38-4.52-4.69-17.07-4.71-21.65-.05-2.48,2.53-1.95,5.71,1.23,7.26a7.41,7.41,0,0,0,2.93.73c1,0,1.2.83,1.39,1.57s-.4,1.09-1,1.24a23.56,23.56,0,0,0-6.88,3.14c-1,.64-1.32.08-1.59-.75-1.67-5.18-3.26-10.23-.15-15.61a13.1,13.1,0,0,0,1.77-10.3c-1.17,3.58-1.67,6.72-3.89,9.38-3.51-12.42-6.93-24.5-10.35-36.58l.25-.58c4.26,3.07,9.25,1.27,13.73,2.34-.36-2.45-1-3.15-3.38-2.48-6.08,1.72-13.33-3.24-13.29-11.46,0-.61-.38-1.5.52-1.73.69-.18,1.3.4,1.7.91a5.23,5.23,0,0,1,.82,1.81c.24.8.33,1.65.54,2.47a6.89,6.89,0,0,0,5.17,5.06c2.5.73,4.13-.92,5.69-2.5a23.54,23.54,0,0,0,1.6-2c2.14,2.18,2.29,5.84,6,7.64-1.84-3.29-2.42-6.52-4.38-9.12a8.64,8.64,0,0,0-5.78-3.32c-2.25-.36-4.53-.6-6.74-1.12s-2.23-1.27-.69-2.73c.58-.56,1.66-1.13,1-2s-1.53,0-2.18.41c-3.87,2.28-7.81,4.32-12.3,5.15-5.3,1-9.67-.17-12.85-4.85A52.37,52.37,0,0,0,91,199.26c4.68-2.29,9.32-2.12,14-1.43a53,53,0,0,0,11.12.4c1.77-.11,3.21-.82,3.76-2.5a4.26,4.26,0,0,0-1.31-5,15.59,15.59,0,0,0-9.24-3.69,30.8,30.8,0,0,0-16.51,2.9c-5.06,2.53-10,5.28-15.08,7.78-5.34,2.64-14.47,1.25-19.07-2.94,2.27.32,4.25.68,6.24.85a13.43,13.43,0,0,0,6.33-.85c-2.06-2.14-4-4.17-6-6.22a42.59,42.59,0,0,1-5.37-6.43c1-.51,1.54.39,2.18.79a71.62,71.62,0,0,0,10.1,5.78c4.74,2,14.72-.25,18.12-4.09,1.2-1.36,1-2.43-.45-3.35a17.24,17.24,0,0,0-5.2-1.92c-10.61-2.84-21.14-5.89-31.24-10.25-10.53-4.56-14.65-16.19-9.48-26.45a6.07,6.07,0,0,1,.7-.84c.52,2.48.94,4.68,1.44,6.87,1.73,7.6,4.82,14.27,12.45,17.72.8.37,1.73,1.25,2.52.6s-.06-1.57-.15-2.39c-.54-4.67-1.47-9.38,1.32-14.33.78,3,1.44,5.58,2.11,8.14a17.06,17.06,0,0,0,4.3,8.19,13.65,13.65,0,0,0,4.31,3.07c4.17,1.68,6.79,0,6-4.34C76.7,154,74.06,142.84,65.54,134.2c-3-3-5.82-6.13-8.65-9.27-3.29-3.66-6.68-7.09-11.45-8.93a15.13,15.13,0,0,1-6.13-4.8,7.6,7.6,0,0,1-1.76-6.14c1.61,1.34,2.91,2.51,4.31,3.55a25.35,25.35,0,0,0,3.22,2c1.78.92,2.84.62,2.86-1.69a32.27,32.27,0,0,1,.63-7.06,16.06,16.06,0,0,1,2.22-5.32c.33,2.53.6,4.41.83,6.3a33,33,0,0,0,6.61,16.22,12.31,12.31,0,0,0,4.54,4c2.89,1.35,5.31,0,5.64-3.19.42-4.14-.68-8-2.08-11.87a39.38,39.38,0,0,0-3.57-7.33c2.45.9,3.8,2.6,5.17,4.21,2.61,3.08,3.91,6.87,5.45,10.52a15.94,15.94,0,0,0,2.46,4.69c1.35,1.52,2.69,1.53,4-.11a7.94,7.94,0,0,0,1.63-4.19c.86-7.55-.3-14.65-4.67-21-.8-1.18-1.55-2.39-2.58-4a14.85,14.85,0,0,1,10,8,56.51,56.51,0,0,1,4.1,10.87c.42,1.5.79,2.24,2.48,1,4.7-3.43,10-5.86,14.7-9.43,3.84-3,6.42-6.41,6.52-11.41,0-.55-.18-1.33.53-1.54s1,.49,1.43.87c2.9,2.6,2.86,5.94,2.31,9.37-.52,3.22-.44,3.37,2.75,2.4,5.73-1.73,10.23-5.45,14.64-9.29,1.31-1.15,2.59-2.33,4.27-3.85a13.77,13.77,0,0,1-4.53,9.34c-2.65,2.36-5.43,4.57-8.13,6.88-.75.64-1.77,1.31-1.43,2.47s1.65,1.34,2.73,1.42a20,20,0,0,0,14.32-4.72c.91-.73,1.78-1.52,2.77-2.36-.1,6.13-5.61,11.61-12.08,12.24-5.82.57-11.65.06-17.48.09-2.7,0-5.4.09-8.11.16-11.08.27-18.33,6.4-21.44,16.33-4.64,14.85-2.15,28.88,8.07,41.07a16,16,0,0,0,5.62,4.24c1.47.68,2.12.59,2.13-1.26,0-3,.29-6.08.39-9.12a18.45,18.45,0,0,1,2.18-8.5,3.91,3.91,0,0,0,.13-3.78c-1.05-2.59-2.44-5.22-1.11-8.36,1.12,1.26,2,2.45,3.13,3.47,1.77,1.66,2.52,1.5,3.65-.61,1.8-3.34,1.77-7,1.72-10.63,0-.76,0-1.52-.06-2.28s-.78-2,.55-2.56a19.31,19.31,0,0,1,4.15,9.12c.45,2.24,1.7,2.63,3.68,2.11,3.12-.82,5.56-2.78,8-4.67,1.25-1,2.43-2,4-3.24a16.06,16.06,0,0,1-4.72,9.52c-3.5,3.75-7.82,6.43-12,9.3-4.43,3-7.2,6.93-7.39,12.54s1.89,10,6.72,13c3.88,2.42,8.15,4.06,12.21,6.13,1.22.61,2.82,1,2.17,3-.19.6.4,1.11,1,1.31s1-.43,1.38-.88c.54-.71,1.35-1.43.66-2.46a10,10,0,0,0-1.33-1.51c-1.13-1.14-2.33-2.22-3.41-3.4-.76-.85-2.17-2-1.47-2.91.8-1.1,2.52-.62,3.76-.09,1.55.66,3,1.53,4.52,2.29a26.36,26.36,0,0,0,3.88,1.83c2.61.81,3.2.22,2.77-2.45a5.64,5.64,0,0,0-.22-1.25c-.74-1.86.28-1.74,1.55-1.45a17.53,17.53,0,0,1,7.44,4.16,2.27,2.27,0,0,0,3.46,0,17.53,17.53,0,0,1,7.44-4.16c1.27-.28,2.16-.46,1.59,1.46-.33,1.14-1.15,2.78-.12,3.58,1.26,1,2.9.15,4.28-.53,1.13-.57,2.22-1.22,3.34-1.8a34.59,34.59,0,0,1,3.4-1.68c1.26-.5,3-1,3.77.08s-.69,2.08-1.47,2.91c-1.32,1.42-2.8,2.71-4.13,4.12a2.51,2.51,0,0,0,.74,4,1.07,1.07,0,0,0,1.64-1.15c-.53-2.07,1-2.42,2.19-3,4.28-2.18,8.75-4,12.86-6.53,7.8-4.85,7.43-16.27,2.88-21.48a24.71,24.71,0,0,0-4.6-4,96,96,0,0,1-10-7.4c-3.82-3.47-5.87-7-6.2-10.92,2,1.59,3.92,3.12,5.87,4.55a17.66,17.66,0,0,0,6,3.15c2,.5,3.23.12,3.69-2.12a19.29,19.29,0,0,1,4.14-9.12C190.41,131.85,189.69,132.89,189.63,133.8Z"/><path class="cls-4" d="M149.94,264.51a10.64,10.64,0,0,1,5.6,1.21c1.17.61,1.63,1.3,0,2-.61.27-1.21.58-1.81.88-1.66.82-2.21,2-1.14,3.66.77,1.19,1.42,2.41,0,3.58-.67.57-5.15.34-5.62-.24a2.39,2.39,0,0,1,0-2.81c1.39-2.73,1.17-3.21-1.58-4.62-.74-.38-2.12-.36-1.94-1.55.15-.94,1.37-1.12,2.21-1.46A10.25,10.25,0,0,1,149.94,264.51Z"/><path class="cls-4" d="M150,283c-3,0-6.06,0-9.09,0-1,0-2.38.05-2.63-1s1.19-1.25,2-1.58a23.77,23.77,0,0,1,19.8.19c.65.29,1.77.45,1.61,1.32s-1.25,1-2.07,1c-3.19,0-6.39,0-9.59,0Z"/><path class="cls-5" d="M170.19,220.78a4.12,4.12,0,0,1-3.84-3c-.21-.6-.52-1.39.16-1.86a3,3,0,0,1,2.41-.53c.92.23.6,1.05.63,1.69s-.38,1.55.55,1.67c.68.09,1.06-.72,1.42-1.3a2.38,2.38,0,0,0,.23-.45c.43-1.35,1.16-3,2.71-2,1.11.69.26,2.34-.41,3.42A4.7,4.7,0,0,1,170.19,220.78Z"/><path class="cls-5" d="M129.73,220.78a5,5,0,0,1-4.54-4.38c0-.54-.28-1.27.5-1.51a1.53,1.53,0,0,1,1.81.52,12.14,12.14,0,0,1,.74,1.59c.38.76.8,1.87,1.62,1.75,1.18-.17.53-1.36.55-2.11,0-1,.4-1.46,1.38-1.23s2.14,0,2.05,1.62A4.33,4.33,0,0,1,129.73,220.78Z"/><path class="cls-6" d="M143,272.3a2.87,2.87,0,0,1-3-1.8,2.32,2.32,0,0,1,.43-2.79c.8-.64,1.21.5,1.82.79a10.33,10.33,0,0,1,1.48.91c.68.45,2.06.39,1.57,1.76C144.94,272.18,144,272.31,143,272.3Z"/><path class="cls-6" d="M160.2,269.48a2.6,2.6,0,0,1-1.69,2.55,3.2,3.2,0,0,1-3.33-.24c-.81-.65-.92-1.37.13-2s1.86-1.09,2.8-1.6c.46-.25.78-1.07,1.44-.56A2,2,0,0,1,160.2,269.48Z"/><path class="cls-7" d="M110.92,131.24c-.81.72-.18,1.75-.55,2.56a4,4,0,0,1-.4-2.61C110.17,130.15,110.62,130.64,110.92,131.24Z"/><path class="cls-8" d="M189.63,133.8c-.36-.82.26-1.84-.55-2.56.3-.6.75-1.09.95-.05A3.94,3.94,0,0,1,189.63,133.8Z"/><path class="cls-9" d="M170.62,198.92c-6.08-.1-11,3-16.11,5.56a9,9,0,0,1-8.9.06c-5.13-2.61-10.11-5.73-16.26-5.68,2.73-1.69,5.49-1.39,8.21-.5a19.89,19.89,0,0,1,4.83,2.19c5.17,3.44,10.19,3.31,15.33-.06a22,22,0,0,1,4.6-2.1A9.18,9.18,0,0,1,170.62,198.92Z"/><path class="cls-9" d="M141.73,230.79c3.91,5,3.62,21.33-.47,24.15C143.37,246.88,142.08,239.14,141.73,230.79Z"/><path class="cls-9" d="M158.75,254.75c-4.11-2.11-4.49-19.26-.55-23.72C158,239.11,156.55,246.88,158.75,254.75Z"/><path class="cls-10" d="M201.31,201.22c-5.29.21-9.61,3.4-14.6,4.39a6.91,6.91,0,0,1-5.8-1.53c5.52.36,9.72-2.18,14.3-3.29A9,9,0,0,1,201.31,201.22Z"/><path class="cls-10" d="M98.72,201.23c7.1-2.36,12.83,3.59,19.79,2.78a5,5,0,0,1-5.41,1.54,37.9,37.9,0,0,1-5.51-1.84A33.42,33.42,0,0,0,98.72,201.23Z"/><path class="cls-11" d="M133.07,206.24c2.38,1.32,4.18,2.42,6.06,3.34a6.22,6.22,0,0,1,3.73,5.8c0,.42.1.84.09,1.26,0,.91,1.2,2.29.08,2.61s-1.49-1.34-1.65-2.34a8.39,8.39,0,0,0-4.38-6.1C135.39,209.84,133.76,208.78,133.07,206.24Z"/><path class="cls-11" d="M166.79,206.28c-.41,2.36-1.86,3.31-3.26,4.16-2.66,1.59-4.61,3.6-5,6.83a4.09,4.09,0,0,1-.55,1.4c-.24.45-.62.92-1.19.67s-.22-.71-.2-1.12c.22-4.73,1.93-8.4,6.8-10A22.51,22.51,0,0,0,166.79,206.28Z"/><path class="cls-12" d="M157.26,196.72c-1.43,3.19-4.22,3.93-7.24,3.93s-5.81-.73-7.39-3.93C147.51,198.88,152.33,199.15,157.26,196.72Z"/></svg>