<svg id="Layer_1" data-name="Layer 1" xmlns="http://www.w3.org/2000/svg" viewBox="0 0 300 300"><defs><style>.cls-1{fill:#e5e5e5;}.cls-2{fill:#008557;}.cls-3{fill:#008456;}.cls-4{fill:#04130e;}.cls-5{fill:#101614;}.cls-6{fill:#010202;}.cls-7{fill:#010201;}.cls-8{fill:#040907;}.cls-9{fill:#070a09;}.cls-10{fill:#030605;}.cls-11{fill:#060c0a;}.cls-12{fill:#050d0a;}.cls-13{fill:#050a08;}.cls-14{fill:#070c0b;}.cls-15{fill:#050c09;}.cls-16{fill:#070c0a;}.cls-17{fill:#05130e;}.cls-18{fill:#0e100f;}.cls-19{fill:#080d0c;}.cls-20{fill:#030705;}.cls-21{fill:#030e0a;}.cls-22{fill:#010302;}.cls-23{fill:#04100c;}.cls-24{fill:#030907;}.cls-25{fill:#010604;}.cls-26{fill:#0b120f;}.cls-27{fill:#080b0a;}.cls-28{fill:#090b0a;}.cls-29{fill:#0b1511;}.cls-30{fill:#0d1613;}.cls-31{fill:#050907;}.cls-32{fill:#0c1914;}.cls-33{fill:#080c0b;}.cls-34{fill:#0d1210;}.cls-35{fill:#060a08;}.cls-36{fill:#081510;}.cls-37{fill:#00110b;}.cls-38{fill:#000d09;}.cls-39{fill:#00100b;}.cls-40{fill:#001910;}.cls-41{fill:#002116;}.cls-42{fill:#002217;}.cls-43{fill:#000b07;}.cls-44{fill:#000202;}.cls-45{fill:#252525;}.cls-46{fill:#002418;}.cls-47{fill:#002d1d;}.cls-48{fill:#003824;}.cls-49{fill:#002216;}.cls-50{fill:#001f14;}.cls-51{fill:#00603e;}.cls-52{fill:#003522;}.cls-53{fill:#003723;}.cls-54{fill:#00281a;}.cls-55{fill:#080808;}.cls-56{fill:#4c4c4c;}</style></defs><path d="M24-.6H276a1,1,0,0,1,1,1V175.65A123.39,123.39,0,0,1,153.6,299h-7A123.62,123.62,0,0,1,23,175.42V.4a1,1,0,0,1,1-1Z"/><path class="cls-1" d="M41.73,140c5.31-1.66,2.38-6,2.65-9.07.3-3.35-2.89-1.37-4.48-1.81-4.88-1.36-7.35,2.34-10.18,5.28-1.49-1.28-.78-2.84-.78-4.16-.05-39.83,0-79.67-.13-119.5,0-3.84,1-4.79,4.79-4.79q116.31.18,232.61.14c2.05,0,4.93-1.43,4.92,3-.13,41.78-.08,83.57-.08,125.43-2,.28-2.71-1.34-3.37-2.34-2.88-4.31-7.17-3-11.11-3.1-2.1-.05-1.45,1.66-1.68,2.84-1.4,7.23,3.63,10.91,8.18,14.86,1.14.53,2.51.45,3.53,1.33S269,150,269,151.79c-.18,1.32,1,2,1.43,2.94,1,2.26,1.58,5.59-.08,6.77a5.91,5.91,0,0,1-7.54-1.12c-2.48-2.53-5.16-4.85-8.3-7.77,0,2.61-.07,4.8,0,7,.17,4.53-3.79,6.18-6.22,8.82-1.14,1.25-2.18-1.87-3.78-.88-1.49.5-2.24-.49-3-1.46-1.53-2.91-3-5.83-2.2-9.45-1.89-.13-2.26,1.36-3.18,2-1.64,1.33-3,3.12-5,3.93-2.63,1-5.51,2.13-7.58-.74s-1.49-5.75.81-8.06c4-4.07,7.73-8.41,11.47-12.73.53-.61,1.2-1.11,1.71-1.75,2-2.57,2.69-5.92.5-8-1.89-1.8-5.21-1.67-7.35,1-1.45,1.62-2.82,3.36-5,4.16-2.47.26-3-1.42-3.28-3.31-.2-1.44,0-3-1.18-4.12-1.95-1.91-3.84-5.71-6-5.12-3.19.88-5.73,4.21-7.35,7.32-2.92,5.61-2.69,5.73-7.63,1.3a10.6,10.6,0,0,0-2-1.42c-7.41-1.71-8.51-.64-6.92,6.78.4.6.89,1.13,1.31,1.71,3.61,4.41,8.3,7.78,11.7,12.38,2.06,2.8,4.32,5.74,2.27,9.29-2.14,3.72-5.83,2.68-9.2,2.14a12.32,12.32,0,0,1-5.29-5.21c-.21-.42-.3-1.05-.67-1.23-1.18-.56-.77.59-.76.94,0,2.65-.47,5.08-2.41,7-.82.8-1.64,1.6-2.44,2.43-4.92,3.06-10.51.18-11.61-6-.29-1.59.17-3.24-.54-5-2.47,1.22-3.82,3.47-5.5,5.38a4.41,4.41,0,0,1-1.28.81c-.47.16-.95.23-1.42.35-2.67.65-5.78,2-7.41-1.2a7.82,7.82,0,0,1,1.26-9.12c1.86-2.06,3.93-3.91,5.8-5.94,1.2-1.38,2.88-2.39,3.34-4.34a9.52,9.52,0,0,1,3.12-3.49,8.54,8.54,0,0,0,1.95-1.65c1.18-7,.19-7.81-7.1-6.09-2.89,1.23-3.94,5.5-8,4.83-1.49-1.34-.69-3.6-2-5-.73-.87-1.11-2-2-2.75-1.8-1.48-3-4.86-5.51-4a10.82,10.82,0,0,0-6.26,6.42c-2.67,7.06-3.08,7.21-8.63,1.68a5.09,5.09,0,0,0-7.4-1c-2,1.66-1.44,4.89,0,7.26a39.7,39.7,0,0,0,6.91,8.24c2.25,2.13,4.5,4.29,6.56,6.61,2.6,2.93,2.92,6.7.9,8.88s-6.21,2.17-9.11.24c-2-1.35-3.34-3.58-5.8-4.94-.94,5.35-3.12,10.17-8.55,11.44-4.08.95-6.07-3-8-6-1.08-2.24.58-5-1.4-7.07-3.38,1.76-4.9,5.9-8.88,6.85-6.57,0-7.09-.65-6.76-8.48a6.06,6.06,0,0,1,2-3.43c4.14-2.94,7.3-7,11.46-9.94,3.2-2.27,2.55-5.93,1.87-9-.5-2.3-3-1.23-4.69-1.41-2-.21-3.4.88-4.56,2.38-.59.54-1.19,1.08-1.82,1.56-3.48,2.66-4.19,2.46-5.3-1.78a12.27,12.27,0,0,0-1.59-3.44,17.07,17.07,0,0,0-2.55-3.37c-2.36-2.88-4.11-2.2-5.59.79a22.25,22.25,0,0,1-3.39,3.47c-2.79,1-.7,5.71-4.08,5.89-2.79.14-3.29-3.37-5.35-4.58a7.84,7.84,0,0,0-7.92-.34c-2.27,1.39-1.19,4.36-.67,6.71a18.13,18.13,0,0,0,6.39,6.31,14.15,14.15,0,0,1,2.77,3c1.89,3.24,5.77,5,6.83,8.84a9.12,9.12,0,0,1-.44,5.29,3.14,3.14,0,0,1-1.12,1.11c-2,.86-4.06.61-6.13.43-3.57-.88-5.17-4.34-8.53-6.52.07,6.08-2.54,10.72-8,12.58-3.77,1.29-6.06-2.27-8.19-5-1.15-2.27-.4-4.88-1-7.27-1.6.22-1.76,1.5-2.41,2.3-1.07,1.27-2.11,2.6-4,2.61a12.67,12.67,0,0,1-1.92.27c-1.94,0-4.78,1.68-5.51-.86-.69-2.38-1.26-5.45,1.13-7.8,2-1.93,3.74-4,5.6-6.08.57-3.15,3.15-4.77,5.17-6.82Z"/><path class="cls-2" d="M193.2,157.54l4.12,4.85c2.3,1.92,5,1.26,7.51.88,2.71-.42,3.37-5.9,1-8.79A121.57,121.57,0,0,0,191,138.84a4.27,4.27,0,0,1-.62-2.82c.19-2-.94-4.73,1.73-5.59s5.43-1,7.79,1.27c2,1.87,3.59,4.18,7.14,6-1.08-6,2.25-9.35,5.56-12.72,1.71-1.73,3.27-1.91,5-.15,2.75,2.74,6,5.06,5.3,9.81-.29,2.06.69,3.45,2.72,1.13a11.7,11.7,0,0,1,4-3.89,6.37,6.37,0,0,1,1.55-1.18c2.66-.91,5.91-1.87,7.64.62,1.64,2.33,1.44,5.57-.76,8.15-3.92,4.59-8,9-12.32,13.26-1,1-2.5,1.9-2.68,3.4-.26,2.2-1.14,4.94.85,6.48,2.42,1.87,5.34.93,7.85-.38,1.28-.67,2.16-2,3.18-3,2.38-2.13,4.52-3.28,4.62,1.47.05,2.24,1.66,3.32,2.9,4.73l2.1,2.1c1.36,4.38,3.36,4.64,6.35,1.22,2.74-3.14,6.65-5.53,5.43-12,4.59,4.19,7.9,8.19,13.6,7.82,1.56-.1,1.1,2.1,1.12,3.31.54,46.88-18.31,83.94-58.21,108.57-71.53,44.13-165,2.89-181.63-79.47a135.86,135.86,0,0,1-2.37-28.84c.05-3,.91-4.08,3.89-4.1,1.56,0,3.92.24,3.91-2.57a6.22,6.22,0,0,1,3-3c6.07-3.11,3.14,2.66,4.31,4.37A3.49,3.49,0,0,0,45,164.39c2.36,1.76,4.16,6.19,7.18,4.61,3.23-1.69,7-4.24,7.26-9,.24-3.64,2.05-3,4.08-1.18,1.44,1.29,2.56,2.95,4.38,3.81,2.62.53,5.24,1,7.78-.34,2.49-7.37-3-10.69-7.38-14.59l-2.13-2.77c-2-2.68-5-4.48-6.65-7.45.24-2.56-1.67-6.14,2.12-7.16,3.45-.93,7.19-.87,9.61,2.89a8.94,8.94,0,0,0,4,3.83c1.68-2.46-.14-6.1,2.63-8.06a6.3,6.3,0,0,1,3-3c4.26-3.23,4.26-3.23,9.54,2.93,2.61,2.94.71,6.88,2.14,9.83.9-2.42,3.49-3.57,5-5.61,1.3-.94,2.08-2.78,3.81-2.88,2.31-.14,5.52-1.42,6.61,1.28,1.15,2.86,1.65,6.41-1.17,9.07-3.78,3.56-7.82,6.85-11,11l-2.11,2.05c-.29.51-.46,1.09-.77,1.6a5,5,0,0,0-.5,1.1,14.71,14.71,0,0,0,.18,5.61,4.56,4.56,0,0,0,.87.83,12.49,12.49,0,0,0,6.83-.21c2.86-1.17,3.64-5.48,7.57-5,1.31,1.23,1,3,1.59,4.51,5.13,9.48,8.17,9.5,15.19.05,1.13-1.29.21-3.21,1.35-4.5,3.72.07,4.67,4,7.42,5.37a11.56,11.56,0,0,0,7.24.09,6.74,6.74,0,0,0,.93-.92c.63-2.6,1.13-5.19-.69-7.58-4.41-4.83-9.31-9.16-13.65-14.06-2.17-2.45-2.14-5.07-1.79-7.77.42-3.19,4.16-3.69,8.82-1.32a9.05,9.05,0,0,0,1.61,1.84c1.55,1.43,3.09,4,5,3.52,2.2-.53.77-3.42,1.22-5.22.9-3.64,3.82-5.58,6.63-7.48,1.24-.84,2.42.38,3.39,1.3,3.33,3.18,6.73,6.3,5.77,11.82,2.72-.3,3.67-2.13,4.91-3.52s2.22-3.11,4.08-3.36c2.34-.32,5.42-1.38,6.87,1a6.65,6.65,0,0,1-1.17,8.53l-3.07,3c-1.13,1.41-2.48,2.6-3.73,3.89-2,2.13-4.12,4.18-6.13,6.3-2.51,2.64-1.83,5.74-1.73,8.77,0,1.47,1.23,1.77,2.46,1.75,2.6,0,5.26.18,7.25-2l-.09.07c.51-.41.93-.91,1.45-1.31,1.35-1,2.2-3.34,4.28-2.61s.86,2.88,1.35,4.32c1.17,3.41,4,5.55,6.79,7.34,2,1.27,3-1.2,4.36-2.21,1.06-.91,1.77-2.14,2.77-3.11,1.62-.92,1.69-2.46,1.8-4.08S190.76,156.48,193.2,157.54Z"/><path class="cls-3" d="M269,151.79a6,6,0,0,1-3-3,6.85,6.85,0,0,1-1.78-3.11c-2-2.13-4.1-4.18-5.95-6.43s-2.34-5.77-.37-7.51,4.86-.93,7.5.93c6.43,4.55,5.95,10.93,5.55,17.45C270.91,151.39,270,151.67,269,151.79Z"/><path class="cls-3" d="M34.9,145.85l-4.66,5.51-1.2-.75c.3-5.74-2-11.68,3.76-16.77,2.88-2.55,5.8-3.82,8.64-2.35,2.44,1.27,1.23,4.59.53,7.07a14,14,0,0,0-.24,1.44l.08-.1C39.38,141.74,37.8,144.55,34.9,145.85Z"/><path class="cls-4" d="M34.9,145.85c2-2.37,3.46-5.3,6.91-5.95-.66,3.46-3.64,5-5.9,7.12Z"/><path class="cls-5" d="M264.26,145.68a2.92,2.92,0,0,1,1.78,3.11,3.07,3.07,0,0,1-3-2Z"/><path class="cls-6" d="M217.16,31.49c7.14,4.59,14.59,8.73,21,14.36,15.17,13.31,14.57,36.76-1.16,48.21-7.09,5.16-14.58,6.14-22.63,2.44-2.9-1.33-5.61-3.3-9.47-3.21,1.21,4.49,4.19,7.55,7.29,10.2s4,5.65,2.5,9.66c-7.32-4.42-11.15-11.26-13.81-18.91-2.22,0-3.36,2.06-5.29,2.47-.82.5-1.29,0-1.69-.61-.12-.47-.24-1.15.08-1.37,4.73-3.38,4.21-7.17,1.1-11.34a4.13,4.13,0,0,1-.53-3.69A2.07,2.07,0,0,1,196,78.43c3.1-3.33,2.6-7.12,1.19-10.89-1.31-3.48-3.53-6.66-3.09-10.64.28-.95.71-1.77,1.81-1.95,1.59.36,2,2,3.17,3,1.88-4.23.2-9.4,4-12.86a1.76,1.76,0,0,1,1.74.9c1.44,3.34.43,6.69,0,10.63,1.53-.87,2.64-2.16,4.24-2A1.92,1.92,0,0,1,210.54,56c.27,2.17-1,3.75-2.18,5.31-3.08,4.24-5.61,8.58-3.66,14,.76-.85,1.76-2,3.47-1.89a2,2,0,0,1,1.46,1.44c.09,3.66-2.64,6.24-3.68,9.51s-.43,5,2.9,5.86a24.84,24.84,0,0,1,5.49,2.15c13.77,7.39,25.93-3.1,29.45-13.88,3.73-11.44.71-22.31-8.48-30.16A123.68,123.68,0,0,0,220,37.64c-2-1.26-4.53-2.24-4.53-5.29C215.8,31.61,216.24,31.08,217.16,31.49Z"/><path class="cls-7" d="M126.42,92.78c-7,6.6-15,8.06-23.9,4.19-3.07-1.33-5.9-3.5-9.9-3.41,1.37,4.55,4.26,7.68,7.41,10.33s3.87,5.37,2.49,9.61c-5.58-3.35-9.16-8.1-11.74-13.74s-2.58-5.64-7.5-2.28c-8,5.47-15.73,5.19-23.89-.86-.36-.88.17-1.32.84-1.7,2.07-.66,3.83.36,5.58,1.16,7.08,3.23,12.89.63,18.43-3.74,2.12-1.68,1.29-3.3.39-5.14-1.32-2.71-3.9-4.94-3.3-8.41a1.93,1.93,0,0,1,1.52-1.29c.93-.16,2.39,1.21,2.64-.87.4-3.36,1-6.66-.76-10-1.56-2.95-3.44-6-2.45-9.65a1.91,1.91,0,0,1,1.64-1.13c1.61.4,2.27,1.79,3.25,3.27.86-3.24-.33-7,3.17-9.1,1.78.59,1.83,2.14,2,3.61.34,1.09-.19,2.26.31,3.4a27,27,0,0,1,8.49-7.3c1.13-.57,2.56-1.4,3.57-.08s-.15,2.49-1.07,3.37a69.51,69.51,0,0,0-8,9.27c-2.49,3.39-4.5,6.84-3.43,11.33.33,1.41.29,3-.53,3.65A14.5,14.5,0,0,1,95.37,72c1.29-1,2.75-2.36,4.33-.92,1.35,1.25.33,2.78-.47,4A52.15,52.15,0,0,0,94.08,84c-1.82,4.53-1.51,5.27,3,6.72A52.35,52.35,0,0,1,103,93c6.07,2.78,12,2.8,17.92-.56,1.41-.81,2.84-1.7,4.61-1.35C126.26,91.44,126.8,91.87,126.42,92.78Z"/><path class="cls-8" d="M136.27,73.52c-1,6-2.65,11.66-7.06,16.14-.92.15-1.28-.42-1.48-1.18-.13-2.12,1.19-3.68,2.1-5.4a27.26,27.26,0,0,0-4.9-32.56A74.17,74.17,0,0,0,110,39.39c-6.36-3.77-11.86-8.23-13.64-16.13-7,4.31-14.36,7.09-20.89,11.53a68.94,68.94,0,0,0-11,9.05c-1.23,1.28-2.42,2.73-4.43,2.84-.71-.32-1.36-.68-.79-1.62,3.77-6.61,10.1-10.46,16.11-14.55,7.56-5.15,16.1-8.51,25-13.42C98.57,30.73,109,34.55,117,40.17c5,3.53,10.28,6.58,13.92,11.9,2.68,3.91,4.73,7.84,5.35,12.51A21.72,21.72,0,0,1,136.27,73.52Z"/><path class="cls-9" d="M107.67,157.58l-6.74,6a19.41,19.41,0,0,1-9-.1l0,0a15.56,15.56,0,0,1,0-8.61l.93-.31a2.66,2.66,0,0,1,.52,1.79c.27,6.47.27,6.47,7.37,5.14a40.72,40.72,0,0,1,7.82-7.86c2.17-.08,1.41,1.6,1.52,2.66.21,2.06-.28,4.16.32,6.21a12,12,0,0,0,1.43,1.34c2.06,1.38,3.28,5.61,5.88,4.14,3.34-1.89,6.81-4.78,6.28-9.72a8.58,8.58,0,0,1,1-5.05c2,2.23,4.37,4.27,6.08,6.74,2.15,3.13,5.08,2.41,7.82,2,2.51-.38,2.64-5.08.16-7.75-3.89-4.21-7.63-8.63-11.94-12.37-3.83-3.33-2.72-7.35-2.84-11.3a1.67,1.67,0,0,1,.6-1.21c2-1.53,9.21.31,10.51,2.62a.72.72,0,0,1-1.25.11c-2.56-1.1-5.89-2.33-7.4.24s-.69,5.77,2,8.31c4.66,4.47,9,9.31,13.44,14a18.16,18.16,0,0,1,0,8.91h0a19.28,19.28,0,0,1-9,.05l-6.76-6c-1.18,1.59.05,3.58-.85,5.21-.79.82-1.55,1.67-2.35,2.47-7.41,7.43-9.08,7.13-14.6-2.61C107.53,161.09,108.84,159.12,107.67,157.58Z"/><path class="cls-10" d="M194.28,95.61l1.32,1.1c-7.62,8.65-25.14,3.2-30-7-5.74-12.09-6.23-24.22-.11-36.33a35.28,35.28,0,0,1,8-11c1-.33,1.38.28,1.64,1.08.05,2.7-1.8,4.49-3.18,6.48-7.14,10.3-8.51,21.48-4.81,33.27,3.5,11.17,12.08,15.63,23.37,12.53C191.76,95.4,193,94.79,194.28,95.61Z"/><path class="cls-11" d="M235.69,159.73c-1.75,2.14-3.26,4.73-6.53,4.5-2.32-.16-5.74,1.35-6.68-1.31-1.12-3.19-1.65-7,1.46-10,3.41-3.3,6.68-6.74,10-10.14,1.14-1.17,2.16-2.46,3.29-3.64a6.12,6.12,0,0,0,1-6.89c-1-2.27-3.77-1-5.77-.93a13.54,13.54,0,0,0-2.83.62c1.79-5.54,6.3-2.35,9.49-2.63,2.69-.24,1.22,2.7,1.49,4.21.61,3.46-.53,6.18-3.23,8.63-3.75,3.39-7,7.36-10.67,10.82-2.76,2.58-4.16,6.21-1.78,8.45s6.16,1,8.49-2a15.34,15.34,0,0,1,2.16-1.93A1.68,1.68,0,0,1,235.69,159.73Z"/><path class="cls-12" d="M134.14,132l1.25-.11c1.89.81,2.61,3.45,5.5,3.24-1.36-6.5,4.42-8.85,7.59-12.83,1-1.27,1.86-.77,2.74.2,2.28,2.48,4.94,4.63,6.63,7.62,1.35,1.68-.45,4,1.07,5.59l6.28-5.86a6.84,6.84,0,0,1,1.9-.34c8.65-.34,9,.09,7.48,9.13l-2,1.09a11.36,11.36,0,0,0,.66-2.83c-.09-1.95,1.42-4.73-1.26-5.57-2.34-.74-5.16-1-7.25,1.41-2.23,2.56-4.62,5-7.15,7.69-1.44-1.74-1.06-3.47-.85-4.89.78-5.22-3.32-7.44-6.12-10.44-1.18-1.26-2,0-2.81.75-4.24,3.56-4.46,4.13-5,14.67A46.4,46.4,0,0,1,134.14,132Z"/><path class="cls-13" d="M225.64,135.79c.23,2.41-1.53,3.28-3.72,4.93-.12-5.68.73-11-4.44-14.59-2.35-1.65-3.32-1.55-5.12.32-2.82,2.94-5.06,5.92-4.28,10.33a3.77,3.77,0,0,1-1.23,4c-1.8-2.05-3.58-4.1-5.38-6.13-2.27-2.54-5-4.79-8.47-3.33s-.88,4.94-1.58,7.4a1,1,0,0,1-.17,1.4l-1-1c-.87-11.12-1.71-9.82,9.27-9.17l6.6,6.13c-1.32-7.24,4.38-9.64,7.56-13.61.65-.81,1.55-1.39,2.39-.24,2.84,3.85,8.64,5.79,7.81,12C223.73,135.5,224.45,135.94,225.64,135.79Z"/><path class="cls-14" d="M67.37,163.48l-6.79-6c.88,6.82-4.19,9.23-7.37,12.87-1.38,1.6-2.55.81-3.66-.38q-3-3.22-6-6.43a.8.8,0,0,1,1.26-.1c.27.17.56.31.81.5,2.16,1.67,4,5.7,6.78,4,3.29-2.05,7.08-5,6.1-10.19a32.75,32.75,0,0,1,0-5.31l9.87,9.45c2.29.11,4.58.5,6.84-.23l0-.11a9,9,0,0,0,0-5.9c-2.11-2.82-5.41-4.62-6.92-8C75.51,151,77.66,155,77,163.48A19.38,19.38,0,0,1,67.37,163.48Z"/><path class="cls-15" d="M59.28,45.06l1,1.3c1,2-.61,3.37-1.48,4.8a39.42,39.42,0,0,0-6.1,16.71,8.43,8.43,0,0,0,0,6.19c.54,6.77,2.17,13.12,6.95,18.3a3.29,3.29,0,0,1,1,3.11l-1.22,1.15c-7.67-5.46-9.91-13.34-9.91-22.22a13.24,13.24,0,0,1,0-6.9C49.68,58.68,53.35,51.38,59.28,45.06Z"/><path class="cls-16" d="M217.16,31.49l-1.25,1.15c-4-1.12-4.44-1.74-7.18-9.56-6.35,3.22-12.77,6.19-18.86,9.84-2,1.22-4,2.94-6.69,2.39a2.12,2.12,0,0,1-1.08-.92c8.64-8,19.87-11.28,30.39-17.71C211.93,23,213.52,27.64,217.16,31.49Z"/><path class="cls-17" d="M191.25,140.08c.06-.46.11-.93.17-1.4,6.59,4.1,11.18,10.3,16,16.13,1.78,2.17,2.14,7.26-.47,8.85-2.4,1.46-6.83,2.31-9.59-1.27,1.44-.12,2.89-.2,4.33-.35s3.74.64,4.18-1.42c.42-1.91.69-4.07-1.08-5.91C200.16,149.92,195.74,145,191.25,140.08Z"/><path class="cls-18" d="M78,129c-.31,3.65-.62,7.31-1,11.89A93.22,93.22,0,0,1,70.56,134a7.2,7.2,0,0,0-8.23-2.74c-3.31.95-1.06,4.21-1.75,6.32.35,1.09-.19,1.39-1.16,1.3-1.61-2.53-.49-5.33-.74-8-.19-2,1.4-1.63,2.66-1.87,5.9-1.15,9.86,1.8,13.13,6.55C76.48,133.47,73.59,129.22,78,129Z"/><path class="cls-19" d="M95.84,151.57c1.26-4.14,5.2-6,7.67-9.17a13.91,13.91,0,0,1,2-2.09c2.83-2.37,3.38-6.18,1.55-8.27-2-2.3-5.67-1.52-8.07,1.2a6.35,6.35,0,0,1-1.17.87,1.62,1.62,0,0,1-.11-2.28c2.74-4.69,7.25-2.45,11-2.58,1.63-.06,1.81,8.69-.15,10.61C104.51,143.91,100.12,147.68,95.84,151.57Z"/><path class="cls-20" d="M186.5,167.57c-4,4.53-3.92,4.49-8.3.15-2.67-2.64-5.58-5.08-4.67-9.53-2.72.22-3.31,3.56-5.94,3.32.83-4.24,5.14-5.53,8-8.65a43.08,43.08,0,0,1,0,6.53c-.7,4.47,2.75,6.34,5.28,8.62,1.87,1.69,3-1,4.5-1.61C186.34,166.13,186.72,166.54,186.5,167.57Z"/><path class="cls-21" d="M167.68,161.44c-1.39,2.45-7.82,4.05-10,2.47-1.39-1-1.43-8.13.25-10.1,2.4-2.83,5.1-5.41,7.67-8.09,1-.17,1.5.19,1.18,1.27-1.74,1.92-3.28,4.1-5.29,5.69-2.91,2.31-3.62,5.52-2.36,8.26,1.1,2.38,4.29.91,6.59.73C166.39,161.62,167,161.52,167.68,161.44Z"/><path class="cls-22" d="M97.75,131.83c0,.76.08,1.52.11,2.28l-6.16,6.54c-1.53-4.16.62-8.19-1.88-11.45-.44-.95.13-1.1.88-1.1A6.63,6.63,0,0,1,93,135C95.49,135,96,132.48,97.75,131.83Z"/><path class="cls-23" d="M235.69,159.73c-.05-.77-.09-1.55-.14-2.32l4.9-5.31c.81,4.88-.56,9.5,2,13.33-2.72-.47-3.84-2.21-3.77-4.83C238.78,156.49,237,159,235.69,159.73Z"/><path class="cls-24" d="M193.2,157.54c-2.31.1-1.86,1.86-1.88,3.24,0,2-.55,3.56-2.9,3.74a.75.75,0,0,1-1.13-.07c3.44-3.25,1.3-7.55,2.26-11.71C191.25,154.12,193.49,154.74,193.2,157.54Z"/><path class="cls-25" d="M44.83,163.43l-1.26.1c-1.06-.77-1-1.95-.85-3,.43-3-1.49-2.27-3.11-2.07.24-2.93,2.86-3.83,5.22-5.46Z"/><path class="cls-26" d="M90.7,128.1l-.88,1.1c-2.66-1.94-4.57-6-8.91-3.22,2.45-5.6,2.82-5.71,6.8-1.53C88.79,125.58,90.3,126.4,90.7,128.1Z"/><path class="cls-11" d="M182.1,34.39l1.52.24a12,12,0,0,1-9,9l-1.17-1.23C176,39.35,178.43,36.19,182.1,34.39Z"/><path class="cls-27" d="M199.54,129.9l-.49,0c-8.59.29-8.59.29-8.78,9.13-1.85-2.61-.49-5.56-.85-8.33-.16-1.23.64-1.79,1.77-1.65C194,129.43,196.91,128.13,199.54,129.9Z"/><path class="cls-28" d="M174.58,138.68c0-8.37,0-8.37-9.38-8.79,2.69-1.73,5.66-.49,8.48-.8a1.43,1.43,0,0,1,1.73,1.76C175,133.45,176.38,136.24,174.58,138.68Z"/><path class="cls-29" d="M59.42,138.89l1.16-1.3c1.86,2.45,5.31,3.69,5.63,7.32C62.9,144.09,61.4,141.22,59.42,138.89Z"/><path class="cls-30" d="M100.74,161.48c-6.8,2.87-8,1.84-7.89-6.93l.88-.93a9.93,9.93,0,0,1,.08,1.44C93.09,162.72,93.12,162.76,100.74,161.48Z"/><path class="cls-30" d="M110.4,162.49c-2.11-2.65.52-6.28-1.84-8.87,1-1.19,1.66-.79,1.71.58C110.39,157,110.37,159.72,110.4,162.49Z"/><path class="cls-17" d="M166.81,147l-1.18-1.27c1.08-1.29,2-2.79,3.93-3C170.16,145.15,168.14,145.85,166.81,147Z"/><path class="cls-15" d="M128.26,88.51l1,1.15c-.23,1.67-1.52,2.38-2.79,3.12l-1.19-1.19C125.06,89.4,126.1,88.41,128.26,88.51Z"/><path class="cls-31" d="M136.27,73.52q0-4.47,0-8.94A12.31,12.31,0,0,1,136.27,73.52Z"/><path class="cls-32" d="M75.19,161.65c-2.23,1.48-4.52,1.22-6.84.23C70.63,161.82,72.93,162.39,75.19,161.65Z"/><path class="cls-28" d="M158.92,135.75c-2.21-1.51-.57-3.75-1.07-5.59C159.62,131.76,158.19,134,158.92,135.75Z"/><path class="cls-32" d="M75.26,155.64a4.83,4.83,0,0,1,0,5.9Z"/><path class="cls-33" d="M49.49,67.5c0,2.3,0,4.6,0,6.9A9.3,9.3,0,0,1,49.49,67.5Z"/><path class="cls-34" d="M187.29,164.45l1.13.07a3.28,3.28,0,0,1-1.92,3l-1.2-1.17Z"/><path class="cls-7" d="M180.64,208.69c10.64,6.93,15.14,17.85,12.2,29.6-2.19,8.72-7.83,14.4-15.72,18.31-8.2,4.07-16.22.4-25.11-.8a30.8,30.8,0,0,0,10.55,10.53c3.87,2.52,5.07,5.55,3.43,10.31-6.32-3.47-11.6-8-15.15-14.08-2.36-4.06-4.42-5.14-7.87-1.52a7.54,7.54,0,0,1-1.68,1c-.87.38-1.29-.13-1.62-.83-.2-2.18,1.39-3.24,2.86-4.23,2.56-1.74,2.26-3.69.71-5.86s-3.26-4.1-4.64-6.34c-.77-1.27-1.56-2.67-.67-4.13,1-1.67,2.6-.28,3.81-.26a20,20,0,0,0-4-14c-1.43-1.92-2.85-4.1-2-6.81a2.52,2.52,0,0,1,1.65-1.25c1.24-.15,1.83,1.25,3.08,1.3.69-3.7.95-7.47,2-11.07.47-1.69,1-4,3.24-3.57,2,.4,1.52,2.63,1.32,4.2-.34,2.61-.3,5.23-.5,8,1.26-1.55,2-3.31,3.45-4.54,1.12-1,2.4-2.08,3.88-.89,1.28,1,.59,2.42,0,3.6a47.77,47.77,0,0,1-3.47,5.92c-3.91,5.61-3.08,11.82-2.55,17.4,1.12-4.38,2.35-6,6.21-7.75a2,2,0,0,1,1.51,1.45c.3,2.27-.93,4.09-1.85,6a28.92,28.92,0,0,0-2.59,7.38c-.9,5-.15,6.13,4.76,6.91,2.1.34,4.15.91,6.25,1.28,11.19,2,18.63-.83,25.21-11.61,5.16-8.44,2.77-20.05-4.66-27.55-1.46-1.47-3.53-2.53-3.6-5C179.27,208.94,179.66,208.35,180.64,208.69Z"/><path class="cls-10" d="M180.64,208.69l-1.16,1.15a1.91,1.91,0,0,1-1.88.16c-9.84-6.2-21.39-10.62-24.91-23.47-.66-2.42-1.74-2.34-3.47-1.29-8.38,5.1-17.28,9.33-25.48,14.7-9.1,6-15.66,13.82-17,25.11a18.42,18.42,0,0,0,.13,10.2c.35,4.38,1.9,8.5,2.69,12.79-.19,1.07-.33,2.19-1.86,2.06a29.6,29.6,0,0,1-4.06-16.51,14,14,0,0,1,0-7.28c.3-12.12,6.43-21.05,15.8-27.95,8.46-6.24,18.32-10.18,27.17-15.82,2.61-1.67,5.76-5.12,7.74-4.55,3.13.91.82,5.42,1.82,8.25a22.47,22.47,0,0,0,6.87,10C168.56,200.87,175.34,203.74,180.64,208.69Z"/><path class="cls-8" d="M140.11,260.86l1.18,1.18c-6.48,5.43-15.42,5.17-24.17-.69a14.35,14.35,0,0,1-4.61-4.23c-.37-1,.25-1.31,1-1.52a4.07,4.07,0,0,1,2.32.65c7.12,5,14.64,7.78,23.33,4.33C139.46,260.47,139.81,260.7,140.11,260.86Z"/><path class="cls-35" d="M113.49,256l-1,1.1a16.9,16.9,0,0,1-4.82-7c.32-.66.64-1.32,1-2C112.43,249.43,113.92,252.14,113.49,256Z"/><path class="cls-32" d="M67.37,163.48H77A11.5,11.5,0,0,1,67.37,163.48Z"/><path class="cls-30" d="M91.92,154.86q0,4.3,0,8.61A10,10,0,0,1,91.92,154.86Z"/><path class="cls-36" d="M142.11,163.5c0-3,0-5.94,0-8.91A10.48,10.48,0,0,1,142.11,163.5Z"/><path class="cls-30" d="M91.93,163.49l9,.1C97.92,164.67,94.91,164.94,91.93,163.49Z"/><path class="cls-36" d="M133.11,163.56l9-.05A11.15,11.15,0,0,1,133.11,163.56Z"/><path class="cls-35" d="M103.64,226.31c0,2.43,0,4.85,0,7.28A8.55,8.55,0,0,1,103.64,226.31Z"/><path class="cls-30" d="M107.67,157.58c2.21,1.36.42,3.41.88,5.08C107.44,161.11,108.05,159.26,107.67,157.58Z"/><path class="cls-36" d="M125.5,162.8c.38-1.72-1.39-3.79.85-5.21C126,159.32,126.64,161.2,125.5,162.8Z"/><path class="cls-2" d="M174.66,43.61c3.14-2.85,6.41-5.56,9-9,8.61-4.49,16.88-9.64,26-13.44,1.53,4.27,2.16,8.85,6.29,11.45,6.45,5.58,14.29,9.17,20.79,14.73,14.23,12.19,13.42,35.33-1.78,45.47-6,4-12.31,5-19.07,1.86-2.66-1.26-5.36-2.84-8.19-3.24-5-.69-4.7-3.22-3.47-6.84s3.13-6.47,4.93-9.58c.72-2.42,2.55-4,3.8-5.46-1.59,1-2.3,3.81-5,4.26-1.39,1.5-2.79,3-4.24,4.56-3.67-9.22,1.44-15.63,6.42-22.07A6.07,6.07,0,0,1,212,53.27a6.14,6.14,0,0,1-3.08,1.87l-5.67,5.13c.37-5.23.68-9.5,1-13.77.29-1.48,0-3,.39-4.49.07-.5.29-1,.35-1.49a5,5,0,0,1-.27.91,6.18,6.18,0,0,1-1.45,4c-1,5.4-1.95,10.8-3,16.6-2.65-1.77-3.08-4.45-4.25-6.63a4,4,0,0,1-1.34-2.3c-.07.24.11.41.12.64.45,1.16-.43,2.45.39,3.56.46,1.73.5,3.74,1.45,5.13,3.95,5.77,3.16,12,2.43,18.43-1.69.45-2-1.31-2.93-2a6.06,6.06,0,0,1-1.11-.85,3.45,3.45,0,0,0,.06,2.06c.54,1.18,1,2.41,1.61,3.55,3.76,7,3.77,7-2.4,12-14.83,7.74-28.57-1.19-30.56-19.46C162.34,63.46,166.88,53.06,174.66,43.61Z"/><path class="cls-37" d="M207.92,73.84a23,23,0,0,1,7.08-6.4,26.39,26.39,0,0,1-5.88,7.6Z"/><path class="cls-38" d="M208.91,55.14c1.67-2.4,3.9-4,7.58-5.89a23.81,23.81,0,0,1-6.39,7.08Z"/><path class="cls-39" d="M195.07,80.11l-3-5.49a7.78,7.78,0,0,1,4.07,4.28Z"/><path class="cls-40" d="M205.22,41.58c-.13,1.68.14,3.44-1,4.92l-1-1.06,1.05-4.87C205.14,40.42,205.73,40.51,205.22,41.58Z"/><path class="cls-41" d="M195.17,57.31c-1.09-1.1-.94-2.53-1.06-3.9-.41-1.06.12-1.23,1-1,.29,1,.58,2,.88,3C195.72,56,195.45,56.67,195.17,57.31Z"/><path class="cls-2" d="M128.26,88.51l-3,3.08c-8.16,6.31-16.67,6.79-25.57,1.62a14.87,14.87,0,0,0-3.18-1.27c-6.13-1.85-6.3-2.24-4.07-8.22,1.65-4.4,4.73-8,7.94-13-4.91,2-6.38,5.64-9.29,8.79-.56-6.15-1.75-11.46,2.2-16.63,3.42-4.47,7.14-8.64,10.94-12.81-5.36,2-8.77,6.32-13.18,11.08V54.48c1.09-2.36-.42-4.86.38-7.23.17-1.16.56-2.29.68-3.47-.24.67-.18,1.4-.41,2.07-.42,1.55-.34,3.27-1.56,4.54-.62,3.94-1.24,7.88-2,12.41-2.49-1.91-2.91-4.58-4.33-6.54a3.28,3.28,0,0,1-1.35-2.93,12.62,12.62,0,0,1-1-3.86,4.58,4.58,0,0,1-.92-3.26c-.4.83.14,2,.86,3.2a15.25,15.25,0,0,0,1,3.89c.34,1.31,0,2.71.56,4,.47,1.86.46,4.06,1.5,5.53,4,5.71,2.79,11.94,2.46,18.47-2.14-.46-2.84-2.19-3.94-3.41-.52-.09-.88-1-1.26-.65s-.08,1.13.25,1.67c1.11,3.48,3.25,6.41,5.08,9.51,1.24,2.1.74,3.18-1.17,4.82-8,6.85-16.34,7.42-25.3,2.23-6.51-5.76-9-13.23-9.35-21.67a17.28,17.28,0,0,1,0-5.65c.47-8.31,4.47-15.16,9-21.79,9.82-12,23.49-18.33,37.32-25.09,1,8.65,6.81,13.11,13.43,17.16,7.9,4.85,16,9.6,20.46,18.36,5,9.85,3.91,19.43-1.5,28.77Z"/><path class="cls-42" d="M82,78.91a12.49,12.49,0,0,1-2.73-6c2.6,1.19,2.81,3.35,3.74,5Z"/><path class="cls-43" d="M92.08,46.57c-.36,2.64.3,5.41-1.06,7.91-.27-1.37.26-2.92-.91-4.09.3-1.65.61-3.3.91-5C92,45.26,92.49,45.48,92.08,46.57Z"/><path class="cls-44" d="M83,57.3c-1.09-1.16-.92-2.65-1.07-4.06a.65.65,0,0,1,1,.08c.29,1,.59,2,.89,2.94Z"/><path class="cls-33" d="M51.25,68.15c0,1.88,0,3.77,0,5.65A5.48,5.48,0,0,1,51.25,68.15Z"/><path class="cls-1" d="M113.49,256l-4.85-7.9c-2.24-4-2.48-8.43-3.15-12.78a38.31,38.31,0,0,1,.05-10.8c1.2-11.27,7.49-19.49,16.58-25.31,10-6.41,20.55-11.9,31.37-18.08-.11,10.49,6.43,16.15,14,21.06,4,2.56,8,5.09,11.95,7.63,7.19,6,12.35,12.78,12,22.9-.6,15.39-15,26.49-29.95,22.65-2.37-.61-4.86-1.49-7.2-1.25-4.87.5-5.49-2.19-5.28-5.88.33-5.9,3.3-10.85,5.84-15.94.32-.25.39-.52.18-.79a.75.75,0,0,0-1.17-.14c-2.88,2.74-4.47,6.32-6.66,10.84-.54-6.14-3-11-.79-16.39,2-4.78,4.71-9.16,7.24-13.76-4,1.66-5.42,5.7-8.49,9.23a107.24,107.24,0,0,1,.38-16.08c-3.23,5.81-2.9,12.31-3.47,19.5l-4.9-6.08a2.88,2.88,0,0,1-1.58-2.14c-.05.18.07.26.08.39.11.95,1.1,1.65.62,2.7.67,1.64,1.21,3.35,2,4.91,4.77,9,4.79,9,5.52,19.25-2.4-.07-3-2.88-5.51-3.41.27,3.43,2.78,5.44,4.5,7.76,4.89,6.58,5,6.51-1.36,11.41a15.63,15.63,0,0,0-1.36,1.34c-7.49,5.19-14.59,2.86-21.53-1.2C116.78,258.61,115.18,257.24,113.49,256Z"/><path class="cls-45" d="M153.86,231.39c.52-1,1-2.92,2.37-1.86,1,.77-.47,2-1.38,2.79Z"/><path d="M136.29,219.6l-1.23-2.8c-.45-1,0-1.15.85-1l1.26,2.83Z"/><path class="cls-35" d="M105.54,224.54q0,5.4-.05,10.8A15.06,15.06,0,0,1,105.54,224.54Z"/><path class="cls-46" d="M192.53,73.45c-1.72-.6-1.9-1.7-1.68-3.14C192.89,70.86,192.26,72.37,192.53,73.45Z"/><path class="cls-47" d="M205.22,41.58c-.31-.33-.61-.67-.92-1,.34-.85.69-1.69,1.13-2.79C206.56,39.47,206,40.53,205.22,41.58Z"/><path class="cls-48" d="M195.12,52.37c-.34.34-.67.69-1,1a3.15,3.15,0,0,1-.68-3.07C194.89,50.27,194.73,51.55,195.12,52.37Z"/><path class="cls-49" d="M92.08,46.57,91,45.44c.29-1.88.53-3.78,2.59-5.27Z"/><path class="cls-50" d="M78.1,67l2.13,5.47A6.47,6.47,0,0,1,77,67.06.75.75,0,0,1,78.1,67Z"/><path class="cls-51" d="M81.06,49.32c-1.21-1.16-1.23-2.48-.49-4.16L82,49.36C81.67,49.86,81.35,49.83,81.06,49.32Z"/><path class="cls-52" d="M81.06,49.32a6,6,0,0,1,1,0l.93,4-1-.08C80.69,52.14,81.1,50.68,81.06,49.32Z"/><path class="cls-53" d="M93.48,38c-.5-1.26.16-1.91.74-2.58.17.16.48.3.5.48A2,2,0,0,1,93.48,38Z"/><path class="cls-54" d="M78.1,67l-1.12,0c-.64-.73-1.35-2-.39-2.3C77.85,64.41,77.93,66,78.1,67Z"/><path class="cls-55" d="M131.39,229c1.7,1.29,2.53,2.26,2,4C132,232.12,131.52,231,131.39,229Z"/><path class="cls-56" d="M135.91,215.82l-.85,1c-1.22-1-1.2-2.39-1.48-3.84C135.54,213.21,135.46,214.72,135.91,215.82Z"/></svg>