<svg id="Layer_1" data-name="Layer 1" xmlns="http://www.w3.org/2000/svg" viewBox="0 0 300 300"><defs><style>.cls-1{fill:#c1303d;}.cls-2{fill:#f5c00e;}.cls-3{fill:#fefefe;}.cls-4{fill:#f4c00e;}.cls-5{fill:#f0bc0e;}.cls-6{fill:#f4bf0e;}.cls-7{fill:#f3bf0e;}.cls-8{fill:#f2be0e;}.cls-9{fill:#f3be0e;}.cls-10{fill:#fbfbfb;}.cls-11{fill:#f1bd0e;}.cls-12{fill:#eee;}.cls-13{fill:#dadada;}.cls-14{fill:#e4b30d;}.cls-15{fill:#e0b00d;}.cls-16{fill:#d8aa0c;}.cls-17{fill:#e1b10d;}.cls-18{fill:#ecb90d;}.cls-19{fill:#f5f5f5;}.cls-20{fill:#e3b20d;}.cls-21{fill:#b28b0a;}.cls-22{fill:#838383;}.cls-23{fill:#0b0901;}.cls-24{fill:#090700;}.cls-25{fill:#070600;}.cls-26{fill:#090701;}.cls-27{fill:#181818;}.cls-28{fill:#161616;}.cls-29{fill:#121212;}.cls-30{fill:#141414;}.cls-31{fill:#e7b50d;}.cls-32{fill:#ddae0d;}.cls-33{fill:#deae0d;}.cls-34{fill:#dbac0d;}.cls-35{fill:#020100;}.cls-36{fill:#030200;}.cls-37{fill:#040300;}.cls-38{fill:#010100;}</style></defs><path d="M24-.6H276a1,1,0,0,1,1,1V175.65A123.39,123.39,0,0,1,153.6,299h-7A123.62,123.62,0,0,1,23,175.42V.4a1,1,0,0,1,1-1Z"/><path class="cls-1" d="M150.05,1.9q60.07,0,120.15,0c3.81,0,3.29-.54,3.29,3.39q0,83.48,0,167c0,34.35-12,64-36.11,88.35a119.64,119.64,0,0,1-68.64,34.84c-25.21,3.84-49.51.53-72.3-10.84-36-18-58.57-46.89-67.35-86.31a121.83,121.83,0,0,1-2.56-26.61q.06-83.34,0-166.69c0-2.55.61-3.16,3.16-3.15Q89.85,2,150.05,1.9Z"/><path d="M248.26,224.85c3.74,2.68,3.9,4.55.8,7.58l-.73.71c-3.57,3.43-5.19,3.28-8-.81-1.06,1-2.07,2-3.17,2.9s-2.51,1.49-3.93.45a2.67,2.67,0,0,1-.88-3.77c.5-.89.2-1.2-.5-1.75-2.07-1.63-4-3.37-1.78-6.28.52-.68-.16-1.07-.55-1.46-5.87-5.92-11.54-12.07-18.36-17a23,23,0,0,0-8.48-3.76,4.78,4.78,0,0,0-4.75,1.26c-5.29,4.64-11.91,3.67-15-2a7.51,7.51,0,0,1-.44-6.81c.45-1.07.93-1.62,2.16-.5,2.77,2.5,6.37,1.89,8.43-1.2.25-.37.51-.7.12-1.08-1.56-1.55-2.59-3.64-5.39-3.63q-37.7.1-75.39,0c-2.81,0-3.87,2-5.44,3.57a.76.76,0,0,0-.15.89c1,2.64,5.81,3.87,8.06,2.06,1.92-1.55,2.73-1.23,3.22,1.26,1.21,6.21-5.37,11.93-11.57,10.06a10.51,10.51,0,0,1-4.52-2.69,4.2,4.2,0,0,0-4.28-1.22c-5.11,1-9.14,3.75-12.94,7-4.92,4.23-9.48,8.86-14,13.53-.47.49-1.43.91-.69,1.85,2,2.53.41,4.25-1.41,5.77-.9.75-1.61,1.13-.8,2.5.7,1.19.17,2.46-1,3.33a2.58,2.58,0,0,1-3.29,0c-1.35-1-2.57-2.16-3.94-3.33-1.13,1.77-2.37,4-4.81,3-2.74-1.13-5.15-3.09-5.93-6.12-.55-2.13,1.29-3.27,3.31-4.56a43.49,43.49,0,0,1-3.39-2.94c-1-1.1-1.57-2.46-.58-3.9a2.62,2.62,0,0,1,3.73-1c1.15.66,1.36-.09,1.85-.8,1.8-2.61,2.89-3,5.87-1.86.91.35,1.26-.09,1.69-.56,5.57-6.09,11.5-11.88,16.08-18.81a23.48,23.48,0,0,0,3.15-6.86c.76-2.79.84-5.16-1.7-7.49a8.13,8.13,0,0,1-2-9.31,9.13,9.13,0,0,1,7.22-6,7,7,0,0,1,3,.2c1.78.43,2.54.94.92,2.73-2.16,2.39-1,6.92,2.12,8,1.55.53,2.49-1.31,3-2.62a37.68,37.68,0,0,0,1.54-19.08c-.71-4.53-1.92-8.7.25-13,0-16.19.07-32.38-.07-48.56a10,10,0,0,0-3-6.73q-19-19.77-38.06-39.55c-1.75-1.82-3.39-3.77-5.24-5.48-6.81-6.32-8.73-14.52-9.26-23.32-.1-1.76.58-2.18,2.18-2,8.69.84,16.57,3.22,22.8,9.94C73,35,82.09,44.17,91,53.48a11.15,11.15,0,0,0,1.7,1.9c.57-3,1.59-5.38,3.87-7.11s4.77-1.88,7.43-1.87q47.43,0,94.86,0c2.12,0,3,.35,2.84,2.71-.23,3.78-.07,7.58-.07,11.37.87.32,1-.45,1.38-.81q17-17.55,33.88-35.15c6.07-6.33,13.89-8.18,22.2-8.9,1.42-.12,1.72.53,1.66,1.77-.47,8.79-2.53,16.81-9,23.43-14.53,14.8-28.81,29.85-43.11,44.86-1.88,2-3.43,4.25-5.71,5.85a2.69,2.69,0,0,0-1.28,2.32q0,15.8,0,31.61c4.63-.36,5.27.35,5.21,5s0,9.27,0,13.91c.06,4.22-.21,4.62-4.46,4.91-1,.07-.78.69-.78,1.19,0,5.4,0,10.79,0,16.19a5.5,5.5,0,0,0,1.83,3.76,48.1,48.1,0,0,1,4.19,4.39c1.53,2.08,2.53,1.29,3.79-.19,2.24-2.64,2.46-4.4.27-6.9-1.39-1.58-.39-1.93.84-2.35,5.43-1.85,11.93,3.78,11.07,9.6a9.52,9.52,0,0,1-3.11,6.19c-1.78,1.47-1.88,3.16-1.5,5.19.94,5,3.63,9,6.7,12.86,3.95,4.94,8.34,9.5,12.66,14.12.52.56.94,1.44,2.05.71,2.46-1.61,4.18-.19,5.55,1.69.69,1,1,1.72,2.42.93,1.22-.68,2.45-.1,3.3,1.06a2.56,2.56,0,0,1,0,3.28C250.68,222.31,249.48,223.5,248.26,224.85Z"/><path class="cls-2" d="M106,107.4c0-19.06,0-38.11,0-57.17,0-2.12.57-2.63,2.66-2.63q44.65.1,89.3,0c2,0,2.55.49,2.55,2.52q-.09,57.42,0,114.84c0,1.81-.35,2.43-2.33,2.43q-45-.1-90.05,0c-2,0-2.11-.75-2.1-2.35Q106.06,136.24,106,107.4Z"/><path class="cls-3" d="M93.35,84.15c-3.55-3.2-7.49-6.39-11-10C71,62.6,59.9,50.85,48.62,39.26c-5.71-5.87-7.55-13.11-8-20.94-.06-1.15.34-1.44,1.44-1.34,7.72.73,14.84,2.77,20.42,8.63Q77.23,41.06,92.11,56.39A8.79,8.79,0,0,1,95,63.59c-.17,2,.13,4.06-.08,6.06a21.47,21.47,0,0,0,0,6.2A11.88,11.88,0,0,1,93.35,84.15Z"/><path class="cls-3" d="M206.84,84.78c.48-4.39-.41-8.78.46-13.23a6.18,6.18,0,0,0-1-4.59c-1.18-1.49-2.7-1.52-4.42-.71a4.72,4.72,0,0,1,1.34-5c11.34-11.67,22.67-23.35,33.84-35.18,5.69-6,12.82-8.32,20.74-9.11,1.46-.14,1.68.42,1.6,1.67-.47,8-2.66,15.26-8.52,21.25-14,14.34-27.87,28.87-41.77,43.33-.57.6-1,1.31-1.55,2Z"/><path class="cls-4" d="M151.49,168.59c15.6,0,31.2,0,46.79,0,1,0,2.93-.93,2.8,1.33-.12,1.81-1.2,2.54-3.24,2.54-28.58-.08-57.17-.05-85.75-.06a53.55,53.55,0,0,0-8.58.48c-2.94.47-4.61,2-4.72,4.39-.13,2.62,1.29,4.17,4.44,4.87a41.32,41.32,0,0,0,8.82.48q42.75,0,85.5,0c.82,0,1.8-.35,2.43.27a3.07,3.07,0,0,1,1.08,3c-.32,1.12-1.42.66-2.18.66q-45.66,0-91.32,0a21.92,21.92,0,0,1-7.24-.94c-3.61-1.26-5-3.69-5-8.38,0-4.19,1.65-6.67,5.14-7.78a28.79,28.79,0,0,1,8.77-.87C123.32,168.56,137.41,168.59,151.49,168.59Z"/><path class="cls-2" d="M199.47,181.47h-2.84q-42.74,0-85.47,0c-2.43,0-4.88-.2-7.3-.44-2-.2-3.73-1-3.86-3.26s1.56-3.18,3.52-3.55a48.2,48.2,0,0,1,8.57-.45q42.49,0,85-.05c1.8,0,2.58.22,2.12,2.28A13.46,13.46,0,0,0,199.47,181.47Z"/><path class="cls-2" d="M116.49,194.84a6.69,6.69,0,0,1-1.9,7.38,7.22,7.22,0,0,1-7.35,2.19,10.13,10.13,0,0,1-4.55-2.6c-7.29-7-14.62-14-21.86-21-3.59-3.48-4.24-7.52-1.89-10.89a7.38,7.38,0,0,1,8.33-3.33c-3.58,4.59-.88,7.67,2.26,10.89,5.17,5.29,10.69,10.19,16,15.32.67.64,1.34,1.28,2.06,1.87C110.73,197.21,112.29,197.25,116.49,194.84Z"/><path class="cls-2" d="M183.59,194.82c4.23,2.59,6,2.43,9.69-.9,1.62-1.46,3.17-3,4.75-4.53.79-.75,1.49-1.64,2.75-1.59A1.12,1.12,0,0,0,202,187c.88-3.49,4.09-5,6.23-7.39.89-1,1.93-1.88,2.89-2.83,3.86-3.79,4.17-5.44,1.93-10.15a7.65,7.65,0,0,1,9.16,9.33,9.19,9.19,0,0,1-2.49,4.32c-7.58,7.31-15.11,14.68-22.81,21.86-4.18,3.9-9.7,3.17-12.6-1.39A6.15,6.15,0,0,1,183.59,194.82Z"/><path class="cls-5" d="M94.78,170.8a7.15,7.15,0,0,1,6.16-5.25c1.29-.23,1.63-.64,1.62-1.88-.06-6.49-.08-13,0-19.47,0-1.67-.73-1.84-2-1.51a7.46,7.46,0,0,0-4.64,4c-.43.77-.41,1.81-1.3,2.37-.67-4.22,1.63-7.75,5.77-8.53,1.63-.3,2.17-.81,2.16-2.53q-.09-27.43,0-54.87c0-2.19-.76-2.4-2.5-1.82-3,1-4.06,3.58-5.18,6.24-1.34-3.79,1.44-8,5.84-8.64,1.63-.24,1.82-.84,1.82-2.2,0-8.26-.09-16.53,0-24.78,0-2.1-.8-2.24-2.4-1.71A7.66,7.66,0,0,0,96,54c-.46.77-.46,1.79-1.27,2.41-1.06-5.2,4.05-10.09,9.14-8.81.72.18,1,.52,1,1.21s0,1.18,0,1.77q0,57,.06,114c0,2.08-.45,3-2.64,3.17a8.83,8.83,0,0,0-7,4C94.32,171.9,94.69,171.28,94.78,170.8Z"/><path class="cls-4" d="M245.62,217.72a2.75,2.75,0,0,1-1.09,2c-3.09,3-6.21,5.9-9.26,8.91-1.5,1.48-2.68.84-3.84-.38s-1.56-2.39-.18-3.7l9.46-9.07c.68-.65,1.39-1.27,2.44-.68A4.89,4.89,0,0,1,245.62,217.72Z"/><path class="cls-4" d="M69.62,226.5a4.15,4.15,0,0,1-2.31,2.75c-1.15.69-1.9-.05-2.64-.75-3-2.9-6-5.86-9.1-8.7-1.58-1.46-1.3-2.7,0-4.05s2.41-1.63,3.86-.19c3,3,6,5.83,9.06,8.74A2.55,2.55,0,0,1,69.62,226.5Z"/><path class="cls-6" d="M219.82,210.63c-2.95-1.65-4.36-3.58-4.08-7,.43-5.44.32-10.93.46-16.4,0-1-.17-2,.82-2.53C221.31,192.94,219.69,201.72,219.82,210.63Z"/><path class="cls-6" d="M83,184.76c1.08.45.8,1.56.83,2.51.15,5.56,0,11.14.48,16.67.29,3.38-1.41,5-4.09,6.79C80.37,201.81,78.73,193.06,83,184.76Z"/><path class="cls-7" d="M234.67,235c-1-.38-2-1-1.29-2.35a6.76,6.76,0,0,1,1.39-1.77q6-5.81,12-11.55a13.39,13.39,0,0,1,1.79-1.39,1.45,1.45,0,0,1,2,.34,1.43,1.43,0,0,1,.16,1.86,10,10,0,0,1-1.26,1.56q-6.08,5.9-12.18,11.74A4.62,4.62,0,0,1,234.67,235Z"/><path class="cls-7" d="M66.93,233.3c-.29,1.13-.88,2-2.26,1.47a6.82,6.82,0,0,1-2-1.45q-6-5.74-12-11.56a11,11,0,0,1-1.4-1.77,1.59,1.59,0,0,1,2.14-2.12,13.52,13.52,0,0,1,1.81,1.35c4.07,3.89,8.13,7.81,12.19,11.72A4.92,4.92,0,0,1,66.93,233.3Z"/><path class="cls-8" d="M225.25,215.91c-3.1-2.12-4.64-4.11-4.31-7.57.4-4.06.1-8.18.1-12.83,3.26,3.09,4.75,6,4.29,10C225,208.76,225.25,212.12,225.25,215.91Z"/><path class="cls-8" d="M74.72,216c0-5.17-.17-9.85.07-14.51.11-2.27,2.46-3.51,3.59-5.87a15,15,0,0,1,.37,4.68,74.29,74.29,0,0,0,.32,8.06C79.63,211.8,77.89,213.78,74.72,216Z"/><path class="cls-6" d="M85.51,187.34c2.76,1.66,4.33,3.89,3.88,7.35a19,19,0,0,0,.1,5.53c.54,3.14-1.11,4.58-4,5.71Z"/><path class="cls-6" d="M214.54,187.33v18.61c-2.81-1.16-4.55-2.53-4-5.69a18.31,18.31,0,0,0,.1-5.53C210.21,191.26,211.77,189,214.54,187.33Z"/><path class="cls-8" d="M69.56,221.41c0-5.17-.21-9.68.1-14.16.13-2,2.25-3.12,4.06-4.53,0,4.64.18,9.3-.08,13.93C73.53,218.61,71.47,219.57,69.56,221.41Z"/><path class="cls-9" d="M226.35,202.32c3.18,2.54,4.62,5.09,4.19,8.77-.37,3.18-.08,6.44-.08,10.17-2.84-2.22-4.56-4.06-4.2-7.45C226.65,210.18,226.35,206.47,226.35,202.32Z"/><path class="cls-10" d="M202.35,170.86c.61.69,1,1.21,1.5,1.69,5.3,5.54,5.27,5.64-.93,10.44-1,.75-1.16.39-1.54-.46C199.66,178.61,200,174.86,202.35,170.86Z"/><path class="cls-9" d="M205.67,137.19c0,1.94-.09,3.88,0,5.81.14,2.22-1.55,1.12-2.43,1.42-1.3.43-1.31-.5-1.31-1.41,0-3.87.08-7.74,0-11.61-.05-1.65,1-1.69,2.08-1.81,1.36-.15,1.73.53,1.68,1.8C205.61,133.32,205.67,135.26,205.67,137.19Z"/><path class="cls-7" d="M205.67,77.61c0,1.86-.08,3.71,0,5.56.08,1.38-.4,1.7-1.73,1.6-1.15-.08-2.09.14-2-1.59.12-3.71.07-7.42,0-11.12,0-1.29.43-1.84,1.75-1.82s2.09.24,2,1.82C205.59,73.9,205.67,75.76,205.67,77.61Z"/><path class="cls-8" d="M231.57,208.3c5.56,3.58,5.69,10.59,0,14v-14Z"/><path class="cls-11" d="M68.21,222.08c-5.38-3.1-5.33-10.15,0-13.62Z"/><path class="cls-7" d="M249.89,228.78c0,1.53-4.16,5.51-5.68,5.43a2.41,2.41,0,0,1-2-1.34,2.05,2.05,0,0,1,.25-2.56c1.15-1.21,2.37-2.37,3.62-3.48a2,2,0,0,1,2.35-.24A2.55,2.55,0,0,1,249.89,228.78Z"/><path class="cls-7" d="M52.53,226.33c1.53-.06,5.67,4.06,5.59,5.55-.08,1.68-2,3-3.44,2.07a13.85,13.85,0,0,1-4.27-4.18C49.55,228.39,50.89,226.38,52.53,226.33Z"/><path class="cls-8" d="M209.23,202.76c-1.5-1.07-3.57-.68-4-2.56-.77-3.47.87-5.9,4-7.68Z"/><path class="cls-5" d="M90.78,202.93V192.49c3.07,1.77,4.71,4.12,4,7.62C94.44,202.14,92.32,201.57,90.78,202.93Z"/><path class="cls-12" d="M108.26,187.75c-2.57,3.29-2.57,3.29-6,0Z"/><path class="cls-13" d="M191.9,187.83h5.3C195.24,191.49,194.63,191.52,191.9,187.83Z"/><path class="cls-14" d="M203.92,145.21c.93,0,1.85,0,1.76,1.24A1.66,1.66,0,0,1,204,148.2c-1.21.07-2-.46-2-1.7C202,145.07,203.23,145.48,203.92,145.21Z"/><path class="cls-15" d="M203.9,85.89c.8.11,1.84-.13,1.76,1.19a1.7,1.7,0,0,1-1.81,1.7A1.62,1.62,0,0,1,202,87.17C201.91,85.68,203.06,86,203.9,85.89Z"/><path class="cls-16" d="M203.64,128.83c-.62-.16-1.68.58-1.62-.79,0-1.12.82-1.58,1.83-1.57a1.58,1.58,0,0,1,1.75,1.41C205.69,129.57,204.24,128.39,203.64,128.83Z"/><path class="cls-17" d="M203.82,69.12c-.6-.22-1.66.54-1.75-.64-.07-1,.71-1.4,1.66-1.43s1.94.43,1.86,1.5S204.42,68.89,203.82,69.12Z"/><path class="cls-18" d="M96.05,197.52A8.17,8.17,0,0,1,98.78,200C96,200.76,96,200.76,96.05,197.52Z"/><path class="cls-18" d="M203.89,197.53c.24,3.17.24,3.17-2.64,2.58A8.14,8.14,0,0,1,203.89,197.53Z"/><path class="cls-19" d="M93.85,179.54c-1-.94-3.34-1.43-1.08-3.39,1.33-1.16,1,.25,1.17.77A3.75,3.75,0,0,1,93.85,179.54Z"/><path class="cls-14" d="M62.92,216.84c-1.87-.85-1.64-1.72,0-2.89Z"/><path class="cls-20" d="M237.13,214.08c1.61.9,1.93,1.74.1,2.74A4.21,4.21,0,0,1,237.13,214.08Z"/><path class="cls-21" d="M94.78,170.8l.51,1.07-.73,1.76C94.27,172.3,94.15,171.53,94.78,170.8Z"/><path class="cls-22" d="M93.85,179.54l.09-2.62a4.89,4.89,0,0,1,.36,2.67s-.12.16-.14.15A2,2,0,0,1,93.85,179.54Z"/><path d="M125.86,68.38c-1.52-2.61-3-5.23-4.57-7.8-.66-1.08-1-2-.18-3.2a9.09,9.09,0,0,0,1.48-4.78c0-1.66.79-1.85,2.18-1.85q28.2.06,56.4,0c1.47,0,2.34.16,2.34,2a6.69,6.69,0,0,0,1,3.6c1.47,2.07.73,3.67-.44,5.46-1.43,2.18-2.66,4.48-4.19,7.09a28.15,28.15,0,0,0,6.28-3.38c2.34-1.48,4.52-2.73,7.23-.77a8.43,8.43,0,0,0,2.65.76c.91.25,2.34-.34,2.21,1.56-.1,1.36.18,2.69-1.85,2.86-.89.07-2,.73-2.09,1.63-.22,2.23-1.31,3.22-3.45,3.68a2.52,2.52,0,0,0-1.82,3,3.08,3.08,0,0,0,2.64,2.7c1.49.28,2.32.82,2.34,2.52a2.58,2.58,0,0,0,2.3,2.38c1.8.32,1.93,1.36,1.92,2.87q-.08,19,0,37.93c0,1.54-.22,2.48-1.94,2.84-2.29.48-1.81,3-2.85,4.23s-3.4.73-4.23,2.65.42,3.75,2.81,4.16c1.34.23,1.85.66,1.9,2a3.14,3.14,0,0,0,2.95,3c1.94.33,1.15,1.7,1.32,2.72.22,1.35-.66,1.37-1.67,1.51a9,9,0,0,0-3.86,1.06c-2.09,1.46-3.66.75-5.46-.44a30.2,30.2,0,0,0-7-3.47c1.5,2.58,3,5.2,4.53,7.73a2.78,2.78,0,0,1,.14,3.44,7.71,7.71,0,0,0-1.37,4.29c0,2.08-1,2.22-2.65,2.19-4.8-.08-9.61,0-14.41,0-13.66,0-27.31,0-41,0-1.81,0-3.11-.06-3-2.39a4.16,4.16,0,0,0-.67-2.4c-1.83-2.66-1-4.9.68-7.24a21.92,21.92,0,0,0,2.95-6c-2.63,1.53-5.28,3-7.86,4.61a2.61,2.61,0,0,1-3.21.15,9.07,9.07,0,0,0-4.77-1.47c-1.72,0-1.82-.85-1.82-2.2q0-40,0-79.92c0-1.48.33-2.12,1.9-2.13a5.47,5.47,0,0,0,2.91-.74c2.68-1.81,4.9-.94,7.23.72,1.76,1.24,3.73,2.2,5.61,3.28Z"/><path class="cls-23" d="M197.74,161.33A2.5,2.5,0,0,1,195,164a2.37,2.37,0,0,1-2.55-2.52A2.41,2.41,0,0,1,195,158.7C196.75,158.67,197.6,159.66,197.74,161.33Z"/><path class="cls-24" d="M197.73,54A2.48,2.48,0,0,1,195,56.56a2.42,2.42,0,0,1-2.55-2.79A2.4,2.4,0,0,1,195,51.26,2.53,2.53,0,0,1,197.73,54Z"/><path class="cls-25" d="M113.67,53.85c-.1,1.65-.93,2.69-2.65,2.71a2.66,2.66,0,0,1-.17-5.31A2.56,2.56,0,0,1,113.67,53.85Z"/><path class="cls-26" d="M113.67,161.34a2.5,2.5,0,0,1-2.76,2.62,2.37,2.37,0,0,1-2.54-2.53,2.41,2.41,0,0,1,2.6-2.73A2.49,2.49,0,0,1,113.67,161.34Z"/><path class="cls-27" d="M79.5,56.25l-8.41-7.53-.14.16L79,56.71Z"/><path class="cls-28" d="M91.27,70.27l-7.8-8.13.06,0,8.37,7.5Z"/><path class="cls-29" d="M59.46,37.09l6.22,6.15-.2.22-6-6.31Z"/><path class="cls-28" d="M208.39,69.47l8.78-7.7-.6-.61C216.28,62.9,210.49,69,208.39,69.47Z"/><path class="cls-28" d="M221.7,55.55l6.94-5.95c-1.16,1.62-3.9,3.95-6.31,6.59Z"/><path class="cls-30" d="M240.43,37.33,235,43.05l-.19-.18Z"/><path class="cls-2" d="M169.3,135.19c-1.41-1.65-1.27-2.74,0-4.17,3.16-3.59,6.23-7.31,7.78-12s0-8.48-4-10.78c-1.22-.7-1.82-.88-2.42.93-1.24,3.81.22,6.47,2.75,9,.57.58,1.81,1.16,1.2,2.2a19.35,19.35,0,0,1-3,3.73c-.34.34-1-.38-1.45-.72-4.37-3.3-5.36-10.45-2-15.27,1.7-2.4,3.73-4.56,5.53-6.89.81-1,1.4-.77,2.26-.09a15.31,15.31,0,0,1,3.89,18.73C176.93,125.3,173.15,130.12,169.3,135.19Z"/><path class="cls-2" d="M155.75,125.66c-.37-.33-.71-.58-1-.88-1.9-2-3.75-4.11-5.7-6.08-.92-.92-.67-1.43.16-2.2,1.39-1.31,3.88-2.5,3.8-4.07s-2.22-3-3.59-4.35-1.52-2.08,0-3.35a61.54,61.54,0,0,0,5.5-5.22c.86-.88,1.45-1.12,2.39,0,1.67,1.9,3.43,3.71,5.27,5.45,1,1,.77,1.49-.15,2.36-3.71,3.51-3.67,3.55-.11,7.39,2.5,2.69,2.5,2.69-.24,5.19-1.75,1.59-3.46,3.21-5.2,4.81C156.58,125,156.19,125.3,155.75,125.66Z"/><path class="cls-2" d="M142.69,98c-.63,3.82-4.91,4.61-5.06,8a.48.48,0,0,0,.25.12c1.2.21,2.47-1.46,3.51-.23,1.53,1.82,3.5,3.43,3.67,6.12.22,3.29-.12,6.33-2.79,8.73a28.28,28.28,0,0,0-2.74,3.29c-2.1,2.54-3.27,2.57-5.41.14-4.4-5-5-9.09-2.1-15A23.71,23.71,0,0,1,142.69,98Z"/><path class="cls-6" d="M124.73,87.42c3.43-7,6.75-13.74,10.12-20.5a2.25,2.25,0,0,1,4.08-.19c3.42,6.82,6.76,13.67,10.23,20.72-2.26.57-3.94.49-4.65-2a3.85,3.85,0,0,0-.31-.69c-3-6.23-3-6.2-10-6-1.16,0-1.85.3-2.24,1.46-.51,1.51-1.38,2.91-1.77,4.44C129.45,87.59,127.67,88.29,124.73,87.42Z"/><path class="cls-2" d="M158.55,76.28c0-3,.08-5.9,0-8.85-.06-1.48.46-1.87,1.86-1.8,2.19.11,4.39,0,6.58,0,5,0,7.42,1.78,8.87,6.53a14.73,14.73,0,0,1-.13,9.19c-1.45,4.31-3.92,6-8.49,6-2.28,0-4.56-.08-6.83,0-1.4.06-1.91-.33-1.86-1.81C158.63,82.52,158.55,79.4,158.55,76.28Z"/><path class="cls-7" d="M120.94,108c-1,1.17-1.92,2.32-2.86,3.51-.42.53-.77.82-1.41.26a1,1,0,0,1-.25-1.5,35,35,0,0,1,8.14-9.58c1.58-1.2,2.43-.71,2.45,1.29,0,4.46,0,8.93,0,13.4,0,.83-.31,1.82.37,2.43,2.62,2.37,1.06,4-.88,5.6-.32.27-.61.58-1,1-.49-.72-.91-1.41-1.41-2s-1.24-1.22-2-.16-1.71.48-2.31-.12c-.85-.86.21-1.42.7-1.75a3.35,3.35,0,0,0,1.35-3.27c-.07-2.84,0-5.69,0-8.53Z"/><path class="cls-2" d="M178.55,86.93c-1.58.36-1.73-.48-1.82-1.79-.12-1.75.73-1.79,2.08-1.86,1.7-.09,1.59.84,1.66,2C180.57,86.85,179.87,87.21,178.55,86.93Z"/><path class="cls-4" d="M152.91,86.91c-1.7.38-1.87-.47-1.91-1.79s.43-1.81,1.85-1.85c1.62,0,2,.54,1.94,2S154.14,87.24,152.91,86.91Z"/><path class="cls-31" d="M184.94,121.36c-.62.64-.79,1.77-1.7,1.43s-1.87-.78-1.87-1.8c0-.63.58-1.65,1.36-1.45A3.88,3.88,0,0,1,184.94,121.36Z"/><path class="cls-20" d="M195.15,162.78a1.46,1.46,0,0,1-1.49-1.37,1.41,1.41,0,1,1,2.82-.14C196.53,162.13,196,162.6,195.15,162.78Z"/><path class="cls-32" d="M196.53,53.81a1.45,1.45,0,0,1-1.38,1.51,1.34,1.34,0,0,1-1.5-1.33A1.31,1.31,0,0,1,195,52.51,1.45,1.45,0,0,1,196.53,53.81Z"/><path class="cls-33" d="M111,52.49A1.39,1.39,0,0,1,112.42,54,1.33,1.33,0,0,1,111,55.32a1.34,1.34,0,0,1-1.38-1.45A1.36,1.36,0,0,1,111,52.49Z"/><path class="cls-34" d="M112.46,161.31c-.14.8-.55,1.42-1.42,1.44a1.32,1.32,0,0,1-1.46-1.37,1.35,1.35,0,0,1,1.37-1.47C111.81,159.86,112.27,160.47,112.46,161.31Z"/><path class="cls-24" d="M158.45,107a9.22,9.22,0,0,1-1.42,1.71c-.65.47-1-.29-1.37-.64-.73-.67-1.36-1.46-2.13-2.09-1-.83-.65-1.4.1-2.16s1.31-.73,2,.09C156.5,105,157.48,106,158.45,107Z"/><path class="cls-35" d="M157.34,119.72c-.6,0-3.55-3.3-3.33-3.64.49-.74.91-1.63,1.9-1.82.36-.07,3.41,3.37,3.26,3.67A4.11,4.11,0,0,1,157.34,119.72Z"/><path class="cls-36" d="M140,115.82c-.08,1.55.15,4-1.09,4.23-1.55.28-2.42-1.93-3.14-3.43a5.85,5.85,0,0,1-.58-4.37c.32-1,.46-2.48,1.57-2.61s1.72,1.18,2.33,2.08A6.6,6.6,0,0,1,140,115.82Z"/><path class="cls-37" d="M136.92,69.32c.48,1,.72,1.41.92,1.86,2.49,5.42,2.49,5.42-4,5Z"/><path class="cls-38" d="M161.31,76.6c0-2.28.05-4.55,0-6.83,0-1.2.38-1.69,1.59-1.58a13.35,13.35,0,0,0,2.28,0c3.14-.25,6,.28,7.48,3.43a10.46,10.46,0,0,1-.48,10.6,5.89,5.89,0,0,1-5.39,2.68c-5.47,0-5.47.07-5.47-5.28C161.3,78.62,161.3,77.61,161.31,76.6Z"/></svg>