<svg id="Layer_1" data-name="Layer 1" xmlns="http://www.w3.org/2000/svg" viewBox="0 0 300 300"><defs><style>.cls-1{fill:#171d9f;}.cls-2{fill:#b7b9b9;}.cls-3{fill:#010101;}.cls-4{fill:#921832;}</style></defs><path d="M22.23-.6H277.77a1,1,0,0,1,1,1V175.65A123.39,123.39,0,0,1,155.37,299H144.86A123.62,123.62,0,0,1,21.24,175.42V.4a1,1,0,0,1,1-1Z"/><path class="cls-1" d="M119.81,148.5V289.62c0,3.36,0,3.36-3.17,2.59-38.2-9.39-64.55-32.89-80.76-68.22a137,137,0,0,1-12.32-58.36c.19-52.57.06-105.15.06-157.72,0-3.81,0-3.81,3.77-3.81h89c3.45,0,3.45,0,3.45,3.54Z"/><path class="cls-1" d="M180,148.58V7.46c0-3.36,0-3.36,3.37-3.36q44.88,0,89.75,0c2,0,3.13.17,3.12,2.72-.09,55.25.78,110.53-.41,165.75C275,212.43,258.64,246,227.17,271.4c-13.13,10.59-28.33,17.1-44.68,21-2.61.63-2.54-.6-2.54-2.48Q180,219.27,180,148.58Z"/><path class="cls-2" d="M177.41,149q0,71,0,141.92c0,2.15-.4,3.09-2.77,3.45a158.08,158.08,0,0,1-50.35-.19c-1.5-.25-2.21-.69-2-2.25a7.08,7.08,0,0,0,0-1q0-142,0-284.11c0-2.47.53-3.13,3.06-3.11q24.64.19,49.29,0c2.38,0,2.78.68,2.78,2.88Q177.35,77.82,177.41,149Z"/><path class="cls-3" d="M150.1,50.65c6.65,0,13.3,0,20,0,1.52,0,2.29.14,2.27,2-.1,8.38.09,16.76,0,25.13-.16,11.67-8.26,20.68-19.24,21.67-13.28,1.2-23-5.63-25.24-18a41.42,41.42,0,0,1-.33-7.23c0-7.17.08-14.34,0-21.51,0-1.69.46-2.16,2.15-2.14C136.45,50.71,143.28,50.65,150.1,50.65Z"/><path class="cls-4" d="M149.88,80.61c5.7,0,11.4,0,17.09,0,3.18,0,3.26.09,2.24,3.22C166.88,91,162.1,95.5,154.67,97.08c-11.17,2.37-21.09-3.16-24.18-13.46-.87-2.91-.8-3,2.29-3C138.48,80.6,144.18,80.61,149.88,80.61Z"/><path class="cls-4" d="M149.89,52.73c6,0,11.94.05,17.9,0,1.75,0,2.5.43,2.4,2.31-.14,2.5-.08,5,0,7.52,0,1.35-.31,2.07-1.86,2.06q-18.42-.06-36.83,0c-1.55,0-1.89-.7-1.86-2.06.06-2.59.1-5.19,0-7.78-.07-1.63.6-2.06,2.13-2C137.79,52.77,143.84,52.73,149.89,52.73Z"/><path class="cls-2" d="M149.9,78.4c-6.05,0-12.1-.06-18.15,0-1.69,0-2.25-.45-2.16-2.16.14-2.67.09-5.36,0-8,0-1.26.41-1.61,1.63-1.61q18.66.06,37.33,0c1.22,0,1.67.34,1.63,1.6-.08,2.77-.1,5.54,0,8.3.06,1.47-.42,1.91-1.89,1.89C162.17,78.36,156,78.4,149.9,78.4Z"/></svg>