<svg id="Layer_1" data-name="Layer 1" xmlns="http://www.w3.org/2000/svg" viewBox="0 0 300 300"><defs><style>.cls-1{fill:#e5190c;}.cls-2{fill:#dbad23;}.cls-3{fill:#010000;}.cls-4{fill:#daac23;}.cls-5{fill:#d9ab22;}.cls-6{fill:#010100;}.cls-7{fill:#d8ab22;}.cls-8{fill:#d9ac23;}.cls-9{fill:#050100;}.cls-10{fill:#040100;}.cls-11{fill:#060100;}.cls-12{fill:#be971e;}.cls-13{fill:#d4a521;}.cls-14{fill:#c59c1f;}.cls-15{fill:#cfa020;}.cls-16{fill:#0a0100;}.cls-17{fill:#c1941e;}.cls-18{fill:#c0961e;}.cls-19{fill:#b8911d;}.cls-20{fill:#1c0602;}.cls-21{fill:#c4941e;}.cls-22{fill:#c5991f;}.cls-23{fill:#260402;}.cls-24{fill:#b07118;}.cls-25{fill:#d7a922;}.cls-26{fill:#050401;}.cls-27{fill:#b38d1c;}.cls-28{fill:#a8851b;}.cls-29{fill:#aa861b;}.cls-30{fill:#b6901d;}.cls-31{fill:#c49b1f;}.cls-32{fill:#c99f20;}.cls-33{fill:#bd961e;}.cls-34{fill:#d1a621;}.cls-35{fill:#ba911d;}.cls-36{fill:#b18c1c;}.cls-37{fill:#d0a521;}.cls-38{fill:#8a6d16;}.cls-39{fill:#040301;}.cls-40{fill:#bd951e;}.cls-41{fill:#c89e20;}.cls-42{fill:#b7911d;}.cls-43{fill:#bc951e;}.cls-44{fill:#b48f1d;}.cls-45{fill:#d7aa22;}.cls-46{fill:#d5a822;}.cls-47{fill:#d2a621;}.cls-48{fill:#cba120;}.cls-49{fill:#ba901d;}.cls-50{fill:#0b0902;}.cls-51{fill:#1b1504;}.cls-52{fill:#a9851b;}.cls-53{fill:#ad891c;}.cls-54{fill:#ae8a1c;}.cls-55{fill:#daad23;}.cls-56{fill:#957618;}.cls-57{fill:#af8a1c;}.cls-58{fill:#d0a421;}.cls-59{fill:#c79d20;}.cls-60{fill:#cea321;}.cls-61{fill:#b28d1c;}.cls-62{fill:#ca9f20;}.cls-63{fill:#987918;}.cls-64{fill:#cca120;}.cls-65{fill:#caa020;}.cls-66{fill:#a9861b;}.cls-67{fill:#c2991f;}.cls-68{fill:#c69d1f;}.cls-69{fill:#c39a1f;}.cls-70{fill:#c69d20;}.cls-71{fill:#967618;}.cls-72{fill:#ab871b;}.cls-73{fill:#cca220;}.cls-74{fill:#c49a1f;}.cls-75{fill:#c79e20;}.cls-76{fill:#a3811a;}.cls-77{fill:#a2801a;}.cls-78{fill:#967718;}.cls-79{fill:#c79d1f;}.cls-80{fill:#b9921d;}.cls-81{fill:#927317;}</style></defs><path d="M22.23-.6H277.77a1,1,0,0,1,1,1V175.65A123.39,123.39,0,0,1,155.37,299H144.86A123.62,123.62,0,0,1,21.24,175.42V.4a1,1,0,0,1,1-1Z"/><path class="cls-1" d="M149.9,3.32q60.43,0,120.85-.06c2.83,0,3.7.62,3.69,3.61-.1,53.45.26,106.92-.18,160.37-.33,41.79-16,77-48.49,103.81-18.38,15.18-39.93,23-63.62,25.11C141,298,120.56,295.49,101,287.09c-29.53-12.69-50-34.53-63.26-63.47a135.47,135.47,0,0,1-12.19-57.18Q25.66,86.73,25.51,7c0-3.15.86-3.77,3.87-3.77Q89.64,3.42,149.9,3.32Z"/><path d="M69.62,105.15c-8.49-.3-13.79-5.09-17.43-12.3-4-8-5-16.76-6.11-25.47-.48-3.67-1-7.33-1.52-11,0-1.92,1.24-3.32,2.38-4.64,2.13-2.44,3.92-5.13,5.83-7.73a2.2,2.2,0,0,1,.64-.65c.89-.31,1.57-1.16,2.63-1,1.71.39,2.19,1.86,2.78,3.21,2.61,5.92,5.77,11.59,8,17.67.22.59.8,1,1.08,1.57.57,2,1.86,2.92,3.76,1.9,7.17-3.84,11.54-1.62,15.4,4.33,1.7,5.18,4.12,10.25,2.59,16a2.51,2.51,0,0,1-.52.91,2.26,2.26,0,0,1-1.39.53C84,88,82.37,89.75,80.28,94.75c-.89,2.13-1.51,4.42-3,6.21A10.59,10.59,0,0,1,69.62,105.15Z"/><path d="M255.44,57.35c-1.75,8.39-2,17-4,25.37a46.7,46.7,0,0,1-3.92,10.7c-3.63,6.94-8.92,11.48-17.14,11.73a11.07,11.07,0,0,1-9.24-6.84c-1.17-2.68-2-5.53-3.78-7.93-.9-1.19-1.81-1.69-3.21-1a2.45,2.45,0,0,1-1,.19c-1.23-.27-2.39-.63-2.83-2-1.57-5.84.69-11.09,2.52-16.4,2.39-3.65,5.08-6.77,10.09-6.33a11.37,11.37,0,0,1,3.9,1.21c3.35,1.55,3.35,1.55,5.15-1.54a7.56,7.56,0,0,0,1.87-3.26c2.32-5.58,5.23-10.89,7.61-16.45.51-1.17,1.18-2.29,2.67-2.45.9,0,1.45.68,2.1,1.15.92,1.33,2.85,2.17,2.09,4.32a1.64,1.64,0,0,1-1.11.52,1.58,1.58,0,0,0,1.09-.51,1.39,1.39,0,0,1,.84-.21C252.07,50.34,254.65,53.27,255.44,57.35Z"/><path class="cls-2" d="M145.08,49.31c2.17-3.48,2.73-7.67,4.9-11.63,2.16,4,2.74,8.14,4.9,11.63,1.87.15,2.3,1.62,2.68,3,.32,1.21.33,2.5,1,3.59a49.31,49.31,0,0,1,8.3,16.73c.57,2.11,2.18,3.61,3.41,5.33,3.27,4.59,6.63,9.13,7.76,14.84,2,3.63,2.11,7.66,2.54,11.63a3,3,0,0,1-1.34,3.28,10.43,10.43,0,0,0,1,8.51c2.86,5,4,10.67,5.28,16.25,2.17,1.3,1.71,3,.78,4.83a46.32,46.32,0,0,0,.68,8.88c1.93,1.87,1.9,3.76.05,5.67-.16,2.72-.32,5.43-.49,8.15,1.69,2.68,1.57,3.75-.7,6.07-.58,2.52-1.17,5-1.75,7.56,1,2.13.78,3.82-1.72,4.66a37.59,37.59,0,0,1-5.69,7.64,12.58,12.58,0,0,1-8.85,3.79c-1,1.32-2.38,1.15-3.77,1-2.11-.28-4.22-.56-6.3-.92-7.25-1.28-14.37-.11-21.52.86-1.48.21-3,.51-4.09-.91-5.92-.06-9.41-3.85-12.51-8.2-.74-1-1.36-2.15-2-3.22-2.49-.85-2.71-2.54-1.72-4.67-.58-2.52-1.17-5.05-1.75-7.57-2.26-2.31-2.39-3.37-.71-6.06l-.48-8.15c-1.84-1.91-1.87-3.79,0-5.67a47.13,47.13,0,0,0,.67-8.88c-.91-1.8-1.38-3.54.79-4.84,1.4-6.43,3.14-12.73,6.37-18.54,1.07-2,.32-4.14-.13-6.21a3,3,0,0,1-1.34-3.29c.43-4,.57-8,2.55-11.63,1.11-5.67,4.37-10.24,7.72-14.72A24.69,24.69,0,0,0,134,69.8c1.42-5.15,4.22-9.63,7.39-13.88.7-1.09.7-2.38,1-3.58C142.79,50.92,143.22,49.46,145.08,49.31Z"/><path d="M132.14,189.77a84.81,84.81,0,0,1,35.68,0c1.86.92,3.87,1.58,5.13,3.42,1.84,2.68,1.3,5.3-.13,7.92-2.18,2.65-5,2.82-8.1,2.21-5-1-9.72-2.95-14.9-2.91s-9.72,1.94-14.58,2.91c-3.08.61-5.92.44-8.1-2.21C124.33,196,125.82,192.58,132.14,189.77Z"/><path d="M171.05,204c3.49,2.91,3.88,5.05,1.79,9.81-2.43,3.36-5.91,2.81-9.24,2.28-5-.8-9.91-1.83-15-1.64a106.14,106.14,0,0,0-12.42,1.67c-3.31.51-6.81,1-9.17-2.42-2.08-4.12-1.56-6.79,1.88-9.7,1.62-1.42,3.46,0,5.18-.4,2.67-.59,5.33-1.22,8-2a28.55,28.55,0,0,1,15.87,0c3.92,1.07,7.82,2.6,12.05,1.81C170.38,203.34,170.74,203.7,171.05,204Z"/><path d="M123.06,92.67a58.08,58.08,0,0,0-2.37,15.09c-3.91,1-7.41,3.1-11.15,4.55-4.18,1.63-8.44,2.73-13,2.26-3.1-.33-5-1.68-4.68-5.08-.29-1.44.88-2.07,1.66-2.87A17,17,0,0,0,98,97a6.47,6.47,0,0,0-1-4.85,3.54,3.54,0,0,1,.3-4.9,3.76,3.76,0,0,1,4.36-1c1.8.76,3.33,1.77,3.45,4.09a21.17,21.17,0,0,1-4.88,14.21c2-2.08,3.35-5.48,4.45-9,.36-1.14.41-2.33,1.87-2.62,4.87-1.15,9.92-.11,14.78-1.3A1.72,1.72,0,0,1,123.06,92.67Z"/><path d="M179.27,107.76a59.38,59.38,0,0,0-2.37-15.09,1.74,1.74,0,0,1,1.8-1c4.84,1.17,9.85.18,14.68,1.26,1.4.26,1.66,1.31,2,2.53a23.25,23.25,0,0,0,4.55,9.2c-3-3.92-5.28-8.54-4.93-14.11a4.69,4.69,0,0,1,6.57-4.1c2.06,1,2.89,2.91,1.83,5-3,5.85-.57,10.55,2.91,15.1.72,1,2.21,1.47,1.84,3.08.23,3.39-1.66,4.73-4.74,5-4.55.45-8.8-.65-13-2.28C186.66,110.85,183.16,108.81,179.27,107.76Z"/><path d="M171.12,216.91c3,2.3,3.65,5.25,2.46,8.73-2.4,3.64-4.16,4.49-8.19,3.63a72.74,72.74,0,0,0-30.81,0c-4,.86-5.77,0-8.19-3.62-1.21-3.48-.55-6.44,2.45-8.73.15-.16.31-.43.46-.42,7,.27,13.71-2.13,20.68-2.07a69,69,0,0,1,10.35,1.13c2.8.45,5.59,1.15,8.47.77C169.66,216.21,170.5,216.11,171.12,216.91Z"/><path d="M225.94,22.57c2.34-.47,3.9-2.44,6.1-3.2,1.83-.63,3.59-1.56,5.92-1.28-1.75,2.84-4.2,4.84-5.33,7.71.09,2-1.18,3.6-1.5,5.47-.33,3.07-1.48,5.94-2,9A74.83,74.83,0,0,0,228,54.72c0,1.89.21,3.83-.88,5.55-.78.95-1.88.85-2.89.77a12.5,12.5,0,0,0-8.8,2.45c-.73.56-1.54,1.14-2.58.66a3.09,3.09,0,0,1-1.19-2.8c-.51-10.78.76-21.2,6.18-30.79a13.58,13.58,0,0,1,3.6-4.39A42.8,42.8,0,0,1,225.94,22.57Z"/><path d="M67.33,25.81c-1.16-2.87-3.54-4.92-5.43-7.77,4.74,0,8.08,2.39,11.5,4.57,2.09.62,3.47,2.23,5.07,3.55,4.26,3.73,6.1,8.85,7.65,14A59.88,59.88,0,0,1,88.29,60.9c-.06,1.15,0,2.36-1.1,3.18a2,2,0,0,1-2.31-.37A12.73,12.73,0,0,0,75.23,61a2.67,2.67,0,0,1-2.33-.65,4.67,4.67,0,0,1-.91-3,87.49,87.49,0,0,0-3.16-26.11C68.51,29.41,67.25,27.8,67.33,25.81Z"/><path d="M170.48,230.28c2.58,2.39,3,5.27,1.88,8.47-2.11,3.77-5.32,4.35-9.23,3.4a54.92,54.92,0,0,0-26.33,0c-3.91,1-7.11.32-9.22-3.43-1.07-3.2-.68-6.07,1.91-8.44,3-1.33,6.28-1.06,9.42-1.7,9-1.86,17.93-1.17,26.78.87C167.29,229.83,169.15,228.64,170.48,230.28Z"/><path d="M128.14,251.91c-1.11-3.34-.77-6.34,2-8.8,2.25-1.54,4.85-.41,7.31-1a51.14,51.14,0,0,1,26,.21c2.14.57,4.44-.76,6.39.82,2.66,2.2,2.83,5.11,2.33,8.2a8.18,8.18,0,0,1-2.07,3,6.35,6.35,0,0,1-5.66,1.17A75.75,75.75,0,0,0,144.84,254a57.83,57.83,0,0,0-9.07,1.42C132.17,256.16,129.81,255,128.14,251.91Z"/><path d="M157.57,57.32q-1.35-4-2.69-8C165.19,27.7,187,15.83,210.67,18.89c4.83.62,9.65,1.31,14.09,3.51,0,2.25-2,2.9-3.28,4.12-2,.93-4-.1-5.91-.41-13.63-2.12-26.68-1.26-38.39,7.11a46.36,46.36,0,0,0-16.3,20.35C160.24,55.12,160,57.25,157.57,57.32Z"/><path d="M145.08,49.31l-2.69,8c-2.69-.21-2.78-2.62-3.54-4.34a45.63,45.63,0,0,0-25-24.61c-10.07-4.17-20.5-3.82-31-2-1.43.24-2.85,1-4.34.19-1.31-1.22-3.32-1.87-3.33-4.14,19.43-8,52-5.28,67.84,23C143.77,46.65,144.4,48,145.08,49.31Z"/><path class="cls-3" d="M244.39,112.52c8-.85,13.44-5.59,16.24-12.64,6-15.14,3.8-29.69-4.71-43.4-2.56-2.44-4.09-5.7-6.49-8.26-1.14-1.46-2-3.14-3.43-4.37-.73-.69-1.31-1.59-2.43-1.75-3.89-3.17-7.31-6.91-11.58-9.65a2.38,2.38,0,0,1-.93-2.52c.68-1.18.59-2.95,2.49-3.17a55.06,55.06,0,0,1,11.14,8.31c.83.76,1.46,1.85,2.76,2a2.49,2.49,0,0,1,2,.89,30.59,30.59,0,0,0,3.8,4.9A23.29,23.29,0,0,1,254.87,45,11.21,11.21,0,0,1,257.35,50c4.55,7.45,8.52,15.17,9.7,24,1.6,12,.41,23.38-7.75,33-4.84,5.69-11,8.61-18.67,6.57C241.46,111.65,243.28,113.4,244.39,112.52Z"/><path class="cls-3" d="M52.56,37.06c3.14-1.76,5.3-4.75,8.3-6.7l5.56-3.61c1.88.22,1.79,2,2.48,3.15A2.37,2.37,0,0,1,68,32.44C63.71,35.17,60.3,39,56.36,42.1c-1.28.22-1.87,1.33-2.74,2.09l.08-.08c-3.5,3.79-6.26,8.16-9.46,12.18C40,61.81,38.05,68.27,36.85,75c-1.39,7.74-1.26,15.48,1.57,22.89,3,7.89,8.17,13.59,17.16,14.65,1.11.87,2.93-.86,3.76,1-7.71,2-13.76-.93-18.68-6.56C34,99.37,32.09,90.12,32.33,80.32a53.17,53.17,0,0,1,8.58-27.25c.61-1,1.13-2,1.7-3A11.14,11.14,0,0,1,45.1,45a19.77,19.77,0,0,1,1.57-2.1,45.06,45.06,0,0,0,4.64-5.75A1,1,0,0,1,52.56,37.06Z"/><path d="M161,283.29a7.31,7.31,0,0,1-5.24,2.53c-.73.08-1.62-.07-2.16.29-4.49,3-8.34-.91-12.53-1.12-.76,0-1.46-1.11-2.19-1.7-2.49-2.32-2.69-7.76-.44-11.71,2.61-4.57,3.15-4.74,8.35-3.76a16.34,16.34,0,0,0,6.92-.17c4.1-1,4.64-.67,7.05,2.87,2.24,3.28,2.5,6.84,1.92,10.61A3.15,3.15,0,0,1,161,283.29Z"/><path class="cls-3" d="M185.83,166.12c.24-2,.47-4.05.7-6.07,1-.58,2.21-.93,3-.3,4.68,3.6,10.43,3,15.71,4.26,2.08.48,4.15.88,5.43,2.87.75,1.17,1.55,1,2.17-.11a2.43,2.43,0,0,1,1.83-1.12q9.38-1.69,18.78-3.29a2.56,2.56,0,0,1,2,.64c4.26,3.16,6.27,2.53,7.82-2.33a3.9,3.9,0,0,1-.05,6.42,5.05,5.05,0,0,1-3.85,1.26c-8.73-1.36-17.05,1.49-25.54,2.42-3.69.41-7.15.4-10.57-1.15a49.38,49.38,0,0,0-11-3.1,3.34,3.34,0,0,0-2.75.12C188.21,167.55,187,167.11,185.83,166.12Z"/><path class="cls-3" d="M113.42,160.05c.24,2,.47,4,.71,6.06-.77.55-1.59,1.41-2.56,1-3.94-1.81-7.78-.22-11,1.29-7.57,3.56-15,2.51-22.71,1.21-5.63-1-11.23-2.24-17-1.27a4.8,4.8,0,0,1-5.46-3c-.74-1.74-.9-3.5,1-4.8,2.21,5.21,3.27,5.51,8.3,2.27a3.93,3.93,0,0,1,3.06-.3c5.44.91,11,1.32,16.23,3,3.28,1.08,5.38,1.33,8.38-.7,2.74-1.85,6.58-1.23,9.88-2,2.62-.64,5.46-.61,7.63-2.73C110.82,159.09,112.22,159.4,113.42,160.05Z"/><path class="cls-3" d="M182.36,178.34c.57-1.55,1.14-3.11,1.72-4.66,1.48-.8,3.25-.86,4,.58,1.17,2.38,3.3,2.79,5.34,3.46,2.81.93,5.68,1.68,8.52,2.54,1,.31,2.4.41,2.92,1.11,2.46,3.35,5.2,2,8.26,1.15,5-1.37,10.27-1.44,15.48-1.23a4.49,4.49,0,0,1,2.75.52c4.2,3.1,4.21,3.09,7-.89,1.84,3.07.62,6-2.82,6.93-2.47.68-4.88.05-7.26-.28a86.27,86.27,0,0,0-18.1-.25,23.32,23.32,0,0,1-14.51-3.6c-3.1-1.93-5.95-4.85-10.34-3.13C183.85,181.14,182.71,179.9,182.36,178.34Z"/><path class="cls-3" d="M115.88,173.68c.58,1.56,1.15,3.11,1.72,4.67a2.79,2.79,0,0,1-4.16,2.09c-1.9-.83-3.27-.22-4.74.63-1.84,1.07-3.65,2.16-5.46,3.27a20.37,20.37,0,0,1-12.44,3,98.73,98.73,0,0,0-22.53.64c-2,.32-4.14.32-5.75-1.09-1.89-1.65-2.62-3.7-.86-6.27a21.05,21.05,0,0,0,1.64,2.53c1.16,1.3,2.94,1.69,3.87.31,1.71-2.57,4.09-2.17,6.46-2.23a61.17,61.17,0,0,1,13.9,1.31c.83.17,1.89.21,2.39.73,1.43,1.51,2.12,1.48,3.17-.46.81-1.49,2.74-1.87,4.37-2.36,3.45-1,6.91-2,10.34-3.14,1.56-.5,3-1,3.92-2.81C112.51,172.88,114.26,172.83,115.88,173.68Z"/><path class="cls-3" d="M113,146.23c0,1.89,0,3.78,0,5.67-7.65-.16-14.37,3.62-21.62,5.11a16.75,16.75,0,0,1-6.65-.19,60.29,60.29,0,0,0-14.86-1.18,9.09,9.09,0,0,1-5.25-.94c-1.39-1.93-2.28-3.85.18-5.66.83-.92,1.57-2.15,3.08-1,2.71,2,5.82,1.49,8.88,1.49s6.62-.82,8.83,2.69a1.48,1.48,0,0,0,2.47,0c1.11-2.23,3.14-1.82,4.93-2.1,3.46-.54,6.93-.93,10.38-1.52a6.26,6.26,0,0,0,4.11-2C108.94,144.76,111.07,145.32,113,146.23Z"/><path class="cls-3" d="M187,151.9c0-1.89,0-3.78-.05-5.67,2.3-1,4.52-1.41,6.22,1,.74,1,1.87,1,2.85,1.14,3.65.64,7.33,1.11,11,1.7,1.79.28,3.78-.1,4.94,2.09a1.56,1.56,0,0,0,2.69-.18c1.5-2.65,4-2.46,6.38-2.54,4-.14,8.05,1,11.7-1.69,1.28-.93,1.7.74,2.48,1.28,2.12,2.2,2,3.33-.4,6a12.73,12.73,0,0,1-5,.56,48.19,48.19,0,0,0-13,.92,23.89,23.89,0,0,1-14-1.12c-1.78-.68-3.79-.92-5.38-1.88C194.11,151.58,190.35,153.22,187,151.9Z"/><path class="cls-3" d="M114.45,132.51c-.26,1.61-.52,3.23-.79,4.84-.71.17-1.54.66-2.12.45-5.47-2-10.55.64-15.79,1.22-4.77.53-9.43.61-14.08-1.05-5.55-2-11.12-4-17.07-4.59-1.48-2.55-1.24-3.49,1.36-5.3,4.5.76,9,1.36,13.48,2.35,2.38.52,5.35.21,6.38,3.62.37,1.2,2.09.92,2.53-.19.81-2.06,2.37-1.82,3.93-1.74,3.49.19,7,.47,10.47.68,2.56.15,5.1.93,7.45-1.27C111.5,130.32,113.21,131.34,114.45,132.51Z"/><path class="cls-3" d="M186.29,137.35l-.78-4.82c1.82-1.7,3.69-2.08,5.55-.12,1,1,2.14.72,3.28.63a138.66,138.66,0,0,1,14-.95c1.27,0,2.38-.06,3.13,1.48s2.39,1.83,3-.07,2.08-2.25,3.59-2.54c5.31-1,10.64-1.93,16-2.88,2.61,1.8,2.86,2.75,1.37,5.3A49.28,49.28,0,0,0,221.3,137c-7.07,2.93-14.16,2.73-21.47,1.27-3.51-.71-7.07-2.31-10.78-.49C188.21,138.19,187.18,137.75,186.29,137.35Z"/><path class="cls-4" d="M161,283.29c.88-4.41,1.53-8.77-1.49-12.77-1.2-1.6-2.52-2.41-4.56-1.82a17.61,17.61,0,0,1-10,0c-2-.59-3.36.22-4.57,1.82-3,4-2.37,8.35-1.48,12.77l-2.46.19c-3.42-2.76-1.93-6.36-1.53-9.68a12.9,12.9,0,0,1,2.37-5.18c.73-1.15,1.23-2.4-.19-3.36s-2.61-.26-3.55,1a17,17,0,0,0-3.82,9.62c-.06,1.23.28,2.91-1.79,3.05l-2.21-.47a4.68,4.68,0,0,1-1.38-4.3c.45-3.15,1.17-6.28,3.16-8.79a8.05,8.05,0,0,0,1.79-6.41l.12-1.7a1.77,1.77,0,0,1,2.31-.32c3.86,2.3,8.4,3.2,11.83,6.52,3,2.92,10.5,2.43,13.57-.57,3.32-3.25,7.89-3.91,11.67-6.15.61-.36,1.22.09,1.71.52l.13,1.7a10.51,10.51,0,0,0,2.28,7.21c1.68,2.18,2.2,5,2.64,7.67a4.81,4.81,0,0,1-1.35,4.62l-2.21.47c-2.07-.14-1.72-1.82-1.79-3.05a16.9,16.9,0,0,0-3.63-9.36c-1-1.31-2.12-2.3-3.73-1.21s-.81,2.43,0,3.62a16.87,16.87,0,0,1,2.69,10.61,4.51,4.51,0,0,1-2,4Z"/><path d="M170.52,257.22c-4.43,2.32-9.45,3.69-12.9,7.63-1.15,1.31-2.64,1.25-4,1.5-4.69.84-8.89.65-12.86-3-3.08-2.85-7.29-4.49-11.29-6.1.07-.61.15-1.22.23-1.83,7.28.83,14.3-2,21.6-1.48,3.59.27,7.19.29,10.68,1.2,2.79.73,5.57.2,8.36.28Z"/><path class="cls-3" d="M52.56,37.06l-.83.75c-1.86,1.46-2.95,3.6-4.61,5.24-.61.64-.95,1.47-1.53,2.13-1.26.9-1.32,3.09-3.36,3.16A43.37,43.37,0,0,1,41.79,22c1.29-4.43,3.7-8.27,9.12-10.1-3.11,7.84-.79,14.8,1.23,21.8C52.45,34.8,53.26,35.85,52.56,37.06Z"/><path class="cls-3" d="M248.86,38.41l-1.4-1.36c-.51-1.31.11-2.48.48-3.68,1.51-4.87,2.77-9.8,2.68-14.95a19.71,19.71,0,0,0-1.49-6.16,7.93,7.93,0,0,1,5.43,3.16,21.09,21.09,0,0,1,4.72,11.27c1,7.32,1,14.58-1.54,21.65-2.05-.07-2.11-2.27-3.37-3.17-.59-.65-.92-1.49-1.54-2.12C251.32,41.66,250.47,39.71,248.86,38.41Z"/><path class="cls-5" d="M208.11,109.54A19.88,19.88,0,0,1,201.33,99a9.14,9.14,0,0,1,.61-7.1c.73-1.25,1.49-2.33.32-3.71a3.18,3.18,0,0,0-3.41-1.11,3.4,3.4,0,0,0-3,3.24c-.35,6.23,2,11.34,6.52,15.56.94.89,2.44,1.36,2.45,3.6-6.63-3.53-9-9.45-10.83-15.79-2.5-3.15-.75-8.2,3.21-9.31,2.12-.6,12.2,1.78,13.92,3.27L213.7,89c3.27,1.95,4.19,5.43,5.44,8.64a38.57,38.57,0,0,0,3.28,6.86c.81,1.28,1.71,2.43,3.73,2.14-5.27-2.26-6.32-7.26-8.08-11.8-1-2.52-2.72-4.54-4.31-6.66-.13-.45-1.59-1.29.16-1.22s2.84,1.3,3.89,2.5a16.41,16.41,0,0,1,3.12,5.82c1.29,4,3.29,7.28,7.58,8.65a8.06,8.06,0,0,1,1.83,1.21c1.2,4,.11,5.67-4,5.47a10.45,10.45,0,0,0-5.31,1.25c-3,1.44-6.2.52-9.21-.56A37,37,0,0,1,208.11,109.54Z"/><path class="cls-5" d="M106,93.72c-1.28,4.51-2.82,8.89-6.16,12.37a11.84,11.84,0,0,1-4.57,3.2c-.29-1.83,1.17-2.36,2.09-3.17a19.6,19.6,0,0,0,6.88-14.79c.07-2.65-1.29-4.23-4-4.31C98,87,96.39,89.08,97.37,90.8c3.71,6.47.58,11.54-3.21,16.49a19.91,19.91,0,0,1-2.29,2.2c-3.33,2-7,3.6-10.8,2.83-3.3-.65-6.52-1.62-9.92-2.06-2.88-.37-2.31-3-1.53-5.11a14.51,14.51,0,0,1,2.69-1.65c3.2-1.12,4.93-3.49,6-6.51,1-2.69,1.82-5.51,3.9-7.58,1.3-1.3,2.52-3.38,5-2A23,23,0,0,0,80.69,98.1c-1.09,3.68-3,6.74-7.54,8.45,3-.06,3.1-.08,4.21-1.76a31.49,31.49,0,0,0,3.44-7.13,25.9,25.9,0,0,1,3.54-7.07,7.51,7.51,0,0,1,4.29-3l.22.08c.2-.24.39-.68.62-.69,4.19-.12,7.75-3,12-2.72a5.71,5.71,0,0,1,5.19,4C107.46,90.2,108,92.14,106,93.72Z"/><path class="cls-6" d="M163.5,283.48a16,16,0,0,0-2.86-15c-1.16-1.5-1.79-2.69.09-3.84,1.72-1.06,3.3-3.31,5.69-.84a19.28,19.28,0,0,1,5.47,13.81c0,.42.08.84.12,1.26C170.24,282.4,167.32,283.77,163.5,283.48Z"/><path class="cls-6" d="M128,278.89c.11-5.43,1.36-10.39,5.1-14.65,2.32-2.64,4-1,6,.19,2.21,1.37,1.38,2.68.12,4.33a15.87,15.87,0,0,0-2.67,14.71C132.64,283.77,129.72,282.4,128,278.89Z"/><path class="cls-3" d="M129.31,258.92c2.84,1.54,3.22,3.05.74,5.62-3.66,3.79-4.43,8.76-4.31,13.88-3.33-.94-6.56-2.2-7.44-6-.93-4,1.27-6.84,4-9.39A24.21,24.21,0,0,1,129.31,258.92Z"/><path class="cls-3" d="M174.22,278.42c.2-5.85-1.35-11.05-5.45-15.41-2.55-2.71,1.25-2.72,1.88-4.09,2.59,1.17,5.2,2.3,7.28,4.33,2.58,2.52,4.64,5.36,3.73,9.18S177.56,277.48,174.22,278.42Z"/><path class="cls-7" d="M171.12,216.91a11.83,11.83,0,0,1-7.78.46,57.05,57.05,0,0,0-26.72,0,11.82,11.82,0,0,1-7.78-.45c-.51-1.13-2.25-1.56-1.81-3.22,2.85,2,5.95,1.84,9.15,1.13a62.51,62.51,0,0,1,27.49,0c3.19.71,6.28.88,9.17-1C173.08,215.29,171.73,215.9,171.12,216.91Z"/><path class="cls-7" d="M171.05,204c-3.1,1.41-6.26.95-9.28-.09a35.21,35.21,0,0,0-23.58,0c-3,1-6.18,1.51-9.28.09-.7-.9-1.91-1.48-1.77-2.89,4.45,2.38,8.89,1,13.2-.31a31.31,31.31,0,0,1,19.29,0c4.3,1.34,8.74,2.69,13.19.31C173,202.52,171.74,203.1,171.05,204Z"/><path class="cls-7" d="M170.48,230.28c-3.75,1.24-7.39,0-11-.66a54,54,0,0,0-21.5.47c-2.83.6-5.64,1.08-8.49.2-1.51-1.23-2.84-2.58-3.1-4.64,2.29,2.5,5,3.13,8.34,2.39a68.9,68.9,0,0,1,30.51,0c3.3.75,6,.11,8.34-2.4C173.31,227.7,172,229.05,170.48,230.28Z"/><path class="cls-5" d="M169.83,243.11a11.47,11.47,0,0,1-7.14.27,52.19,52.19,0,0,0-25.42,0,11.47,11.47,0,0,1-7.14-.27c-1.15-1.29-2.36-2.54-2.55-4.38,2.35,2.8,5.37,3,8.66,2.25a58,58,0,0,1,27.45,0c3.29.78,6.31.56,8.67-2.23C172.19,240.59,171,241.82,169.83,243.11Z"/><path class="cls-8" d="M170.3,255.4c-2.52,2-5.37,1.58-8.19,1a62.68,62.68,0,0,0-24.26,0c-2.82.55-5.67,1-8.19-1a8,8,0,0,1-1.52-3.49,7.45,7.45,0,0,0,7.77,2.22,63.28,63.28,0,0,1,28.68.07,7.32,7.32,0,0,0,5.78-.89c.6-.12.9.06.71.72Z"/><path class="cls-9" d="M64.26,127l.26.68c-.29,1.68-.44,3.41-2,4.56-3.28.67-6.1-.13-8.09-2.9a5.7,5.7,0,0,1-.37-6.71c1.41,3.16,3,5.56,6.76,4.1C62,126.31,63.2,125.9,64.26,127Z"/><path class="cls-10" d="M235.44,127.63l.63-.64a4.21,4.21,0,0,1,3.06-.29c3.61,1.38,5.26-.83,6.7-4.07a5.46,5.46,0,0,1-.12,6.32c-2,3-4.85,3.92-8.31,3.23C235.89,131,235.73,129.31,235.44,127.63Z"/><path class="cls-11" d="M62.36,153.63c-6.51-.9-10-5.43-7.67-10.6.6,4.48,3.15,6.39,7.27,6.35C63.57,150.66,63.49,152.1,62.36,153.63Z"/><path class="cls-11" d="M238,149.38c4.83-.41,6-1.35,7.3-6,2.49,4.53-1.13,9.33-7.71,10.24C236.48,152.09,236.39,150.65,238,149.38Z"/><path class="cls-12" d="M44.24,56.29c2.3-4.72,5.15-9,9.46-12.18.27,1.8-1.38,2.55-2.23,3.59-2.34,2.87-4,6.31-6.91,8.69A1.19,1.19,0,0,0,44.24,56.29Z"/><path class="cls-13" d="M238,149.38c0,1.43.33,2.89-.41,4.25-.76.78-1.52,1.58-2.77,1.44a9.52,9.52,0,0,0,.4-6l1.27-.92c1-.09,1.08.83,1.54,1.33Z"/><path class="cls-13" d="M62.36,153.63c-.73-1.36-.38-2.82-.4-4.25l0,.07c.47-.5.57-1.42,1.54-1.33l1.26.92c-.5,1.87-.15,3.77-.17,5.66A3,3,0,0,1,62.36,153.63Z"/><path class="cls-14" d="M249.6,47.93a26.12,26.12,0,0,1,6.32,8.55l-.48.87L248.76,48A.54.54,0,0,1,249.6,47.93Z"/><path class="cls-15" d="M235.44,127.63a5.07,5.07,0,0,1,2,4.55c-.57.59-1.1,1.25-2,1.2a11.91,11.91,0,0,0-1.36-5.3Z"/><path class="cls-15" d="M62.56,132.19a5.06,5.06,0,0,1,2-4.56l1.44.45a11.66,11.66,0,0,0-1.36,5.3C63.65,133.43,63.13,132.77,62.56,132.19Z"/><path class="cls-16" d="M61.36,125.89a12.14,12.14,0,0,0-2.07-4.62c3.13.16,4.11,2,4.56,4.44A1.69,1.69,0,0,1,61.36,125.89Z"/><path class="cls-16" d="M236.11,125.7c.4-2.34,1.4-4.11,4.58-4.53-1,1.73-1.9,3.09-2.08,4.71A1.65,1.65,0,0,1,236.11,125.7Z"/><path class="cls-17" d="M254.66,44.64l3.08,3.7L257.35,50a17.55,17.55,0,0,1-3.43-4.59A.91.91,0,0,1,254.66,44.64Z"/><path class="cls-17" d="M42.23,48.34l3.07-3.69a.91.91,0,0,1,.75.79A17.36,17.36,0,0,1,42.61,50C42.48,49.47,42.36,48.9,42.23,48.34Z"/><path class="cls-18" d="M75.2,22.4l3.22,3.5c0,.88-.54.75-1.1.5q-1.95-1.91-3.92-3.79Z"/><path class="cls-18" d="M221.55,25.9l3.21-3.5,1.18.17c-.39,1.89-2.1,2.65-3.31,3.83C222.08,26.65,221.58,26.78,221.55,25.9Z"/><path class="cls-19" d="M68.54,30.38c-.71-1.21-1.42-2.42-2.12-3.63l.91-.94a8.37,8.37,0,0,1,2.19,4.25A.72.72,0,0,1,68.54,30.38Z"/><path class="cls-19" d="M233.55,26.76c-.7,1.2-1.39,2.4-2.08,3.6a.76.76,0,0,1-1-.3,8.47,8.47,0,0,1,2.19-4.26Z"/><path class="cls-20" d="M63.47,148.12l-1.54,1.33c.36-1.53-1.6-2.09-1.69-3.77A4.19,4.19,0,0,1,63.47,148.12Z"/><path class="cls-20" d="M238,149.45l-1.54-1.33c.67-1,1.28-2.16,2.86-2.29C239.88,147.45,237.49,148,238,149.45Z"/><path class="cls-21" d="M236.11,125.7l2.5.18c.17.27.34.55.52.82-1,.6-1.91,1.55-3.06.29C236.08,126.56,236.09,126.13,236.11,125.7Z"/><path class="cls-22" d="M61.36,125.89l2.49-.18c.14.41.27.82.41,1.24a4.76,4.76,0,0,1-3.4-.27Z"/><path class="cls-23" d="M244.39,112.52l-3.76,1a2.77,2.77,0,0,1-2.09-1Z"/><path class="cls-23" d="M59.34,113.54l-3.76-1h5.73A2.3,2.3,0,0,1,59.34,113.54Z"/><path class="cls-24" d="M171.08,254l-.71-.72,1.79-2A3.82,3.82,0,0,1,171.08,254Z"/><path class="cls-1" d="M77.32,26.4l1.1-.5A57.14,57.14,0,0,1,104,24.1c18,2.87,30,13.46,37.05,30,.45,1.07.92,2.13,1.38,3.2a27.78,27.78,0,0,0-5.84,10.09,40.29,40.29,0,0,1-7.7,14.36c-2.58,3.24-4.17,7.1-5.79,10.9a43.63,43.63,0,0,1-17.1,1c-.13-1.58.1-3.17-.52-4.72-1.49-3.74-6.22-4.91-8.78-1.9a2.92,2.92,0,0,1-3.73,1.06,22.88,22.88,0,0,0-4.08-.52c.27-4.38-.86-8.54-2-12.7a28.72,28.72,0,0,1-.53-3.72c1.77-2.35.16-4.85.33-7.27.5-8.07.14-16-2.17-23.88A41.29,41.29,0,0,0,77.32,26.4Z"/><path class="cls-1" d="M68.54,30.38l1-.32c3.82,8.67,4.15,17.84,3.84,27.09,0,1-.12,1.91-.18,2.86-.05.43-.14,1-.52,1.08-2.65.59-4,2.68-5.62,4.55-2.46-2.88-3.42-6.55-5.07-9.85-2.14-4.26-4.2-8.55-6.29-12.83-.51-.37-.44-.87-.31-1.38C59,36.9,63.7,33.59,68.54,30.38Z"/><path class="cls-25" d="M67,65.64c.4-3.66,3.13-4.8,6.14-5.63,5.08-.72,9.64.32,13.45,3.94a22.13,22.13,0,0,1,1.9,3.28c.8,2.1.56,3.81-2.24,4a12.79,12.79,0,0,1-1.36-1.29c-3.61-4.67-6.45-5.41-11.66-2.58C70.44,68.88,68.56,68.24,67,65.64Z"/><path class="cls-26" d="M88.63,87.56a12.46,12.46,0,0,0-5.58,7c-1.14,3.08-2.22,6.18-3.34,9.26a7.49,7.49,0,0,1-6.54,5.28c-1,.13-2,0-2.42-1a1.82,1.82,0,0,1,1-2.44c6-1.85,7.73-7,9.8-12.06a11.46,11.46,0,0,1,5.74-6.13Z"/><path class="cls-27" d="M52.75,65.69c-1,1.49-2.44,1.89-4,3C49.86,65.78,49.89,65.76,52.75,65.69Z"/><path class="cls-28" d="M46.78,56.91c1.17-2,2.63-2.55,4.83-2.4A7.67,7.67,0,0,1,46.78,56.91Z"/><path class="cls-29" d="M56.52,83.7a4.18,4.18,0,0,1-3.71,1.75C53.75,83.45,55,83.3,56.52,83.7Z"/><path class="cls-30" d="M53.83,69.26a7.26,7.26,0,0,1-4.12,2.36C50.53,69.3,52.12,69.2,53.83,69.26Z"/><path class="cls-31" d="M50.3,79.2c1.37-1.55,2.54-2.27,4.38-1.69A5.73,5.73,0,0,1,50.3,79.2Z"/><path class="cls-32" d="M51.74,62.64c-.94.48-1.71,1.42-3,1.15-.09-1.27.87-1.47,1.67-1.83S51.79,61.47,51.74,62.64Z"/><path class="cls-33" d="M51.77,82.28c.67-1.06,1.28-1.83,2.49-1.4.17.06.36.67.31.7A2.74,2.74,0,0,1,51.77,82.28Z"/><path class="cls-34" d="M51.19,58.27a3.94,3.94,0,0,1-3.07,1.85C48.53,58.53,49.37,58,51.19,58.27Z"/><path class="cls-35" d="M55.37,41.58c.1.46.2.92.31,1.38-.57.62-1.07,1.34-2.06,1.23A2.73,2.73,0,0,1,55.37,41.58Z"/><path class="cls-36" d="M51.72,74.12c.8-.67,1.74-1.23,2.57-.33.24.26-.72.75-1.29.92C52.6,74.45,52,74.68,51.72,74.12Z"/><path class="cls-37" d="M51.72,74.12l1.28.59c-.66.47-1.47,1.26-2.14.54S51.23,74.37,51.72,74.12Z"/><path class="cls-38" d="M51.74,62.64,50.42,62c.77-.61,1.77-1.05,2.49-.35C53.26,62,52.37,62.51,51.74,62.64Z"/><path class="cls-1" d="M221.55,25.9l1.08.5c-8.82,11.1-10.07,24.07-9.31,37.55.25.37.42.87.16,1.18-1.69,2.1-.75,4.09.19,6.09.11,2.59-.9,5-1.55,7.38a30.55,30.55,0,0,0-1,9.08,11.15,11.15,0,0,0-2.85.2c-2.24.72-3.83.7-5.72-1.39-2.23-2.47-6.72-.79-8,2.51-.61,1.54-.39,3.15-.52,4.72a43.82,43.82,0,0,1-17.1-1,58.47,58.47,0,0,0-10-16.48,9.37,9.37,0,0,1-1.69-3.7c-1.63-5.52-3.85-10.75-7.66-15.17,3-7.21,6.39-14.07,12-19.69,14.17-14.16,31.19-16.42,49.82-12.28C220.11,25.51,220.83,25.72,221.55,25.9Z"/><path class="cls-1" d="M230.44,30.06l1,.3c4.78,3.27,9.55,6.54,13.12,11.22.14.51.2,1-.3,1.38-3.41,6.2-6.14,12.73-9.18,19.11-.59,1.24-.74,3-2.61,3.25-1.14-1.79-2.35-3.48-4.68-3.87a1.4,1.4,0,0,1-1-1.44c-.66-9.58-.39-19.06,2.86-28.24C229.86,31.18,230.18,30.63,230.44,30.06Z"/><path class="cls-25" d="M226.79,60c2.6,1,5.83,1.36,5.71,5.31-.73,2.68-2.29,3.6-5,2.44-7.18-3.13-8-2.94-13.11,2.9a4.21,4.21,0,0,1-.76.55c-2.81-.16-3-1.9-2.26-4A22.1,22.1,0,0,1,213.32,64C217.15,60.36,221.7,59.28,226.79,60Z"/><path class="cls-39" d="M213.76,88.19c3.13,1.67,4.61,4.6,5.71,7.73,1.46,4.16,3.46,7.74,8,9.25,1.34.45,2.28,1.46,1.71,2.92s-1.89,1.11-3,.89c-3.3-.61-5-2.8-6.1-5.82-1.75-4.87-2.95-10-6.31-14.15Z"/><path class="cls-40" d="M221.53,70.7c-2.16.25-3.77,1.18-5.78.66C217.36,69.12,219.11,69.2,221.53,70.7Z"/><path class="cls-41" d="M244.45,59.1a7.61,7.61,0,0,1-5.67,1.57C240.41,58.51,242.38,58.63,244.45,59.1Z"/><path class="cls-42" d="M238.57,64.39c1.7-1.72,3.35-2.1,5.8-1.07A7.26,7.26,0,0,1,238.57,64.39Z"/><path class="cls-43" d="M249.6,47.93l-.84.08a.52.52,0,0,1-.38-.11l.07.08-2.8-3.8c-.14-.63.06-.9.72-.7C247.72,44.76,249.15,46,249.6,47.93Z"/><path class="cls-44" d="M220.3,77.75a6.43,6.43,0,0,1-5.16-.7C217,75.42,218.49,76.19,220.3,77.75Z"/><path class="cls-45" d="M240.41,56.68c1.89-1.83,3.35-1.78,5.24-.93C244.1,56.89,242.66,56.92,240.41,56.68Z"/><path class="cls-46" d="M215.65,74.4c2-1.74,3.45-1.63,5-.5C219.21,74.77,217.83,74.71,215.65,74.4Z"/><path class="cls-47" d="M247.9,51.1c-1.88,1.3-3.18,1.64-5.07,1.12A4.59,4.59,0,0,1,247.9,51.1Z"/><path class="cls-48" d="M248.38,47.9c-1.21,1.46-2.78,1.5-5.1,1.29,1.84-1.88,3.55-1.34,5.17-1.21Z"/><path class="cls-7" d="M214.6,81c1.8-.85,2.9-.86,4.22.33C217.38,81.89,216.32,81.75,214.6,81Z"/><path class="cls-49" d="M246.37,43.48l-.72.7L244.29,43l.3-1.38A3.56,3.56,0,0,1,246.37,43.48Z"/><path d="M185.18,148.85c0,10-.53,18.07-3.26,25.91A24.6,24.6,0,0,1,175,185.29c-3.9,3.46-7.67,3.94-11.85.91-8.9-6.45-17.52-6.41-26.41,0-4.25,3.08-8.08,2.48-12.09-1.19-5.45-5-7.73-11.6-8.71-18.65-2.13-15.3-1.89-30.47,3.33-45.25a2.64,2.64,0,0,1,.1-.3c1.22-2.39,1.63-6.62,4.06-6.63,4,0,8.86.15,11.57,4.1,7.85,11.48,22.07,11.51,30,0,2.7-3.94,7.55-3.38,11.6-4.31,1-.23,1.3,1.23,1.73,2,3.46,6.34,5,13.24,6,20.31A84.56,84.56,0,0,1,185.18,148.85Z"/><path d="M142.8,59.5c.45,3.18.84,5.8,1.2,8.43.31,2.24,1.05,4.57-2.54,5-1.44.2-2,1.82-2,3.31a3.39,3.39,0,0,0,2.75,3.48c2.32.39,1.91,1.54,1.53,3.15a7.44,7.44,0,0,1-6,5.91c-.65.16-1.53-.12-1.88.81,4.16,1,7.43-.83,9-5.22s1.4-9.21,1-13.88c-.22-2.32-.61-4.63-.9-7-1-7.86-.85-8.41,4.95-21.27,3.37,7.28,6.89,14.08,5,22.43a41.34,41.34,0,0,0-.47,17.72c1.15,5.49,4.6,8.12,9.59,7.3-.19-1.07-1.12-.79-1.76-.92-3.7-.77-5.58-3.16-6.32-6.72-.26-1.28-.11-2,1.34-2.23a3.58,3.58,0,0,0,3.16-3.81,3.38,3.38,0,0,0-3.35-3.57c-1.33-.15-1.53-.84-1.39-1.93.46-3.53.89-7.06,1.4-11.13a33,33,0,0,1,6.26,12.6,17.67,17.67,0,0,0,3.5,6.65c6.94,8.49,11,18,10.61,29.26-.11,3.06-1,4.85-4.24,5-4.76.26-8.24,2.57-11.32,6.22-7.11,8.41-16.68,8.45-23.78.1-3.17-3.73-6.72-6.06-11.59-6.36-2.81-.18-3.92-1.62-4.06-4.52-.5-11,3.22-20.44,9.93-28.85a22.94,22.94,0,0,0,4.41-8.3A30.54,30.54,0,0,1,142.8,59.5Z"/><path class="cls-50" d="M159.62,186.28a67.42,67.42,0,0,0-19.19,0C145.41,181.84,154.19,181.82,159.62,186.28Z"/><path class="cls-51" d="M142.53,78a1.6,1.6,0,0,1-1.48-1.69c-.06-.93.31-1.74,1.27-1.86,1.21-.15,1.65.79,1.66,1.79A1.61,1.61,0,0,1,142.53,78Z"/><path class="cls-51" d="M157.84,77.91A1.57,1.57,0,0,1,156,76.37a1.62,1.62,0,0,1,1.48-2c.78,0,1.29.59,1.43,1.4A1.87,1.87,0,0,1,157.84,77.91Z"/><path class="cls-52" d="M134.66,195.05a13,13,0,0,1-6.83,1.83C130,194.47,131.87,194.32,134.66,195.05Z"/><path class="cls-53" d="M135.43,198.17c-2.33.5-4,1.57-6,1.48C130.7,197.14,131.91,196.78,135.43,198.17Z"/><path class="cls-41" d="M134.12,192.46c-1.83.69-3.47,1.88-5.77,1.5C130,191.57,132.05,191.79,134.12,192.46Z"/><path class="cls-54" d="M134.06,209.2c-2,.14-3.41,1.25-5.4.51C130.33,207.92,131.87,207.75,134.06,209.2Z"/><path class="cls-32" d="M133.84,206.38a4.77,4.77,0,0,1-4.35.82C130.54,205.82,132,205.84,133.84,206.38Z"/><path class="cls-55" d="M132.73,211.84l-2.88.63a2.25,2.25,0,0,1,2.85-1.72A.63.63,0,0,1,132.73,211.84Z"/><path class="cls-56" d="M132.73,211.84l0-1.09c.7-.14,1.37.1,1.33.79C134,212,133.23,211.94,132.73,211.84Z"/><path class="cls-53" d="M133.58,219.63c-1.42.56-2.82,1.31-4.76,1C130.43,218.49,131.94,218.63,133.58,219.63Z"/><path class="cls-57" d="M134.55,224.34c-2,.62-3.51,1.33-5.59.82C130.7,223.28,132.32,223.37,134.55,224.34Z"/><path class="cls-58" d="M133.83,221.75a6.69,6.69,0,0,1-5,.9C130.24,220.9,131.76,221.26,133.83,221.75Z"/><path class="cls-28" d="M220.06,58.32a4.69,4.69,0,0,1-4.59,1.75C216.45,58.1,217.88,58,220.06,58.32Z"/><path class="cls-32" d="M219.54,51.72c-1.22,1-2.13,1.3-3.16.79a.43.43,0,0,1,0-.75C217.22,50.89,218.12,51.14,219.54,51.72Z"/><path class="cls-59" d="M215.7,49.2c1.14-1.94,2.42-1.26,3.94-1.11C218.46,49.82,217.19,49.17,215.7,49.2Z"/><path class="cls-34" d="M215.42,56.33c1.28-1.86,2.56-1.4,4.11-1.24C218.31,56.71,217,56.32,215.42,56.33Z"/><path class="cls-60" d="M220.68,45.09c-1.13.75-2,.87-3,0C218.6,44.28,219.51,44.4,220.68,45.09Z"/><path class="cls-47" d="M75.21,53.63c1.65-.72,2.69-1.21,4.69-.5C78.17,53.8,77.18,54.39,75.21,53.63Z"/><path class="cls-61" d="M74.61,44.62c1.27-1.29,2.24-1.45,3.56-.39C77.06,45.08,76,44.91,74.61,44.62Z"/><path class="cls-62" d="M75.13,50.62C77,49.34,78,49,79.33,50.06,78.21,51,77.05,50.69,75.13,50.62Z"/><path class="cls-63" d="M76.61,39.36c-.74.72-1.49,1.12-2.4.35a.54.54,0,0,1,0-.52A1.44,1.44,0,0,1,76.61,39.36Z"/><path class="cls-64" d="M74.22,42c1.16-1.05,2-1.17,3.12-.22A3.12,3.12,0,0,1,74.22,42Z"/><path class="cls-60" d="M78.88,47a4.31,4.31,0,0,1-3.65.06C76.57,46.07,77.57,45.87,78.88,47Z"/><path class="cls-42" d="M134.39,237.23a5,5,0,0,1-4.26,1C131.4,236.35,132.9,236.73,134.39,237.23Z"/><path class="cls-8" d="M129.18,236.39c1.79-2.1,3.17-2.48,5.54-1.34Z"/><path class="cls-65" d="M130,233.42c1.48-1.71,3-1.58,5.29-.81C133.21,233.17,131.9,233.92,130,233.42Z"/><path class="cls-36" d="M130.3,251.25c1.71-1.61,3.08-1.95,5.41-.66C133.69,250.93,132.46,251.79,130.3,251.25Z"/><path class="cls-66" d="M130.2,247c1.44-2.47,3-2,5.27-1.78C133.61,246.65,132.19,246.67,130.2,247Z"/><path class="cls-31" d="M130.07,248.82c1.55-1.7,3-1.58,4.89-.92A6.85,6.85,0,0,1,130.07,248.82Z"/><path class="cls-67" d="M248.86,38.41c2.4.57,3.1,2.84,4.46,4.46a.87.87,0,0,1-.71.8C251.22,42,249.26,40.77,248.86,38.41Z"/><path class="cls-68" d="M252.61,43.67l.71-.8,1.34,1.77-.74.8Z"/><path class="cls-69" d="M46.64,42.87c1.59-1.79,2.38-4.4,5.09-5.06-.72,2.5-2.81,4-4.37,5.86A.88.88,0,0,1,46.64,42.87Z"/><path class="cls-70" d="M46.64,42.87l.72.8-1.31,1.77-.75-.79Z"/><path class="cls-71" d="M45,36.07c-.94,1.68-1.92,1.92-3.39,2.35C42.21,36.52,43.24,36.22,45,36.07Z"/><path class="cls-72" d="M42.42,42c0-1.08.65-1.43,1.51-1.53.14,0,.53.5.47.6A1.48,1.48,0,0,1,42.42,42Z"/><path class="cls-32" d="M255.92,27.32c-1.41.6-2.38.76-3.44-.09C253.56,26,254.54,26.14,255.92,27.32Z"/><path class="cls-37" d="M255.53,30.42a4.39,4.39,0,0,1-4.07.14C252.64,29,253.8,29.31,255.53,30.42Z"/><path class="cls-73" d="M248.91,37c1.21-1.42,2.31-1.45,3.88-.21A5.1,5.1,0,0,1,248.91,37Z"/><path class="cls-74" d="M250.25,33.77c1.31-1.4,2.36-1.25,3.75-.46C252.8,34.42,251.72,34.28,250.25,33.77Z"/><path class="cls-3" d="M202.54,96a6.28,6.28,0,0,1,4.92-6.4c3.36-.82,5.25,0,6.93,3.43a76,76,0,0,1,3.08,7.66,29.77,29.77,0,0,0,3,6.63c1.51,2.29.8,3.46-2,3.63C210.45,111.44,202.43,103.93,202.54,96Z"/><path class="cls-6" d="M97.43,96.06c0,8.07-8.41,15.79-16.28,14.86-1.36-.17-3.37-.66-2.22-2.43,3.22-5,4-10.93,6.87-16,1.84-3.22,4-3.89,7.5-2.6C96.2,91,97.28,93.18,97.43,96.06Z"/><path class="cls-26" d="M87.57,69.73c-1.74-.68-2-2-2.84-2.75a9.27,9.27,0,0,0-11.08-1.72c-.76.38-1.48.84-2.26,1.15a1.58,1.58,0,0,1-2.16-.75,1.56,1.56,0,0,1,.5-2.24c3.38-2.15,7.1-1.93,10.72-1A9,9,0,0,1,87.57,69.73Z"/><path class="cls-26" d="M212.5,70a7.76,7.76,0,0,1,4.3-6.48c4-2.29,8.32-2.14,12.57-.67,1.13.38,2.06,1.3,1.4,2.72-.59,1.24-1.6,1.09-2.7.66C219.77,63.06,218.9,63.26,212.5,70Z"/><path class="cls-59" d="M124.4,159.47a14.7,14.7,0,0,1-6.39,5.77C119,161.6,120.93,160,124.4,159.47Z"/><path class="cls-41" d="M124.07,155.19c-1.86,2.19-3.29,4-5.93,4.65C119,156.52,120.09,155.59,124.07,155.19Z"/><path class="cls-59" d="M117.29,144.25c2.13-2,3.52-4.1,6.8-3.85C122.15,142.61,120.61,144.51,117.29,144.25Z"/><path class="cls-31" d="M120.44,174.5c1.09-2.84,2.35-4.62,4.83-5.37C124.88,171.77,124.12,172.68,120.44,174.5Z"/><path class="cls-41" d="M119.12,170c.72-3,2.22-4.54,5.6-5.21C123.14,167.19,121.82,168.87,119.12,170Z"/><path class="cls-65" d="M119,134.92c1.78-3.48,2.55-4,6.12-4.48A10.2,10.2,0,0,1,119,134.92Z"/><path class="cls-75" d="M123.73,149.68c-2,2.45-3.39,4.18-6.43,4.68C118.83,151.8,120.38,150.25,123.73,149.68Z"/><path class="cls-75" d="M118.21,139.79c.09-.32.07-.57.19-.7,1.28-1.4,2.6-2.74,4.65-2.8.14,0,.49.62.42.72C122.17,138.74,120.59,140,118.21,139.79Z"/><path class="cls-48" d="M123.65,145.73a7.44,7.44,0,0,1-5.82,3.54C119.48,146.46,120.48,145.84,123.65,145.73Z"/><path class="cls-67" d="M121.83,122.86c1.59-2.47,2.25-2.85,5.47-3.2C125.51,122.2,124.91,122.55,121.83,122.86Z"/><path class="cls-43" d="M119.69,128.61c1.5-2.18,2.93-3.49,5.59-3.49A6.47,6.47,0,0,1,119.69,128.61Z"/><path class="cls-60" d="M122.45,178.17c.45-3,2.13-3.88,4.24-4.35A11.74,11.74,0,0,1,122.45,178.17Z"/><path class="cls-36" d="M132,94.78c-2,1.3-3.58,2.07-5.68.74C128,94.08,129.55,93.44,132,94.78Z"/><path class="cls-76" d="M130.63,101.78a7.06,7.06,0,0,1-5.46,1.19C126.53,101.32,128.12,100.48,130.63,101.78Z"/><path class="cls-30" d="M125.14,99.42c1.78-1.89,3.41-2.14,5.72-1.42A6.84,6.84,0,0,1,125.14,99.42Z"/><path class="cls-42" d="M132.9,91.51c-1.74,1.38-3.11,1.43-4.53.15C129.75,90.4,131.12,90.38,132.9,91.51Z"/><path class="cls-40" d="M128.71,88.53c1.78-1.68,3-1.4,4.87-.49C131.79,89.23,130.54,88.85,128.71,88.53Z"/><path class="cls-40" d="M130.86,84.75c.08-.77.66-1,1.27-1s1.62,0,1.81.77-.67.88-1.23,1A1.54,1.54,0,0,1,130.86,84.75Z"/><path class="cls-48" d="M135.59,82.1a4.8,4.8,0,0,1-3.07-.58C134.14,80.61,134.14,80.61,135.59,82.1Z"/><path class="cls-77" d="M206.64,90.69c-.27,2.41-.47,4.12-.66,5.84C204.53,94.68,204.14,92.92,206.64,90.69Z"/><path class="cls-42" d="M209,90.3a14.46,14.46,0,0,1-.46,6.19C206.87,94.39,207,92.65,209,90.3Z"/><path class="cls-78" d="M212.25,96.5c-1.87-2-2.15-3.58-.81-5.76A7.58,7.58,0,0,1,212.25,96.5Z"/><path class="cls-79" d="M89.42,96.72c-.13-1.93-.3-3.33,1-4.61A4,4,0,0,1,89.42,96.72Z"/><path class="cls-80" d="M91.8,94.34c.14-.55-.12-1.44.77-1.42.67,0,.6.79.53,1.26A3.59,3.59,0,0,1,92,96.69,2.52,2.52,0,0,1,91.8,94.34Z"/><path class="cls-41" d="M94.35,94.3c.06-.31,0-.73.22-.9.54-.51.69.1.76.42a3,3,0,0,1-.76,2.93A2.66,2.66,0,0,1,94.35,94.3Z"/><path class="cls-76" d="M94.35,94.3l.22,2.45c-.15.36-.43.88-.65.17A2.86,2.86,0,0,1,94.35,94.3Z"/><path class="cls-81" d="M91.8,94.34,92,96.69C90.66,96,91.47,95.15,91.8,94.34Z"/></svg>