<svg id="Layer_1" data-name="Layer 1" xmlns="http://www.w3.org/2000/svg" viewBox="0 0 300 300"><defs><style>.cls-1{fill:#c2c3c5;}.cls-2{fill:#005daa;}.cls-3{fill:#161616;}.cls-4{fill:#141414;}.cls-5{fill:#101010;}.cls-6{fill:#010101;}.cls-7{fill:#e41937;}.cls-8{fill:#de1835;}.cls-9{fill:#b38971;}.cls-10{fill:#b58a72;}.cls-11{fill:#b28870;}.cls-12{fill:#b18770;}.cls-13{fill:#b38871;}.cls-14{fill:#e01836;}.cls-15{fill:#ad846d;}.cls-16{fill:#b28770;}.cls-17{fill:#b0866f;}.cls-18{fill:#0d0a08;}.cls-19{fill:#150205;}.cls-20{fill:#160205;}.cls-21{fill:#a9806a;}.cls-22{fill:#1b0307;}.cls-23{fill:#d51733;}.cls-24{fill:#d41733;}.cls-25{fill:#cc1631;}.cls-26{fill:#d31733;}.cls-27{fill:#a17a65;}.cls-28{fill:#afafb1;}.cls-29{fill:#130205;}.cls-30{fill:#a57e68;}.cls-31{fill:#a9816b;}.cls-32{fill:#200408;}.cls-33{fill:#1b0306;}.cls-34{fill:#1c0307;}.cls-35{fill:#7f0e1f;}.cls-36{fill:#130f0c;}.cls-37{fill:#c91630;}.cls-38{fill:#a67f69;}.cls-39{fill:#1f0307;}.cls-40{fill:#210408;}.cls-41{fill:#bd152d;}.cls-42{fill:#a8806a;}.cls-43{fill:#a27b66;}.cls-44{fill:#ac836c;}.cls-45{fill:#090102;}.cls-46{fill:#110d0b;}.cls-47{fill:#1a0306;}.cls-48{fill:#28040a;}.cls-49{fill:#2c050b;}.cls-50{fill:#1d0307;}.cls-51{fill:#260409;}.cls-52{fill:#840e20;}.cls-53{fill:#aa1329;}.cls-54{fill:#b6142c;}.cls-55{fill:#800e1f;}.cls-56{fill:#31050c;}.cls-57{fill:#f5c00e;}.cls-58{fill:#120507;}.cls-59{fill:#110204;}.cls-60{fill:#130204;}.cls-61{fill:#1e0307;}.cls-62{fill:#170205;}.cls-63{fill:#190306;}.cls-64{fill:#160609;}.cls-65{fill:#240409;}.cls-66{fill:#38060e;}.cls-67{fill:#eee;}</style></defs><path d="M23.74-.6H276.26a1,1,0,0,1,1,1V175.65A123.39,123.39,0,0,1,153.86,299h-7.5A123.62,123.62,0,0,1,22.75,175.42V.4a1,1,0,0,1,1-1Z"/><path class="cls-1" d="M150.24,85.51c39.73,0,79.47.06,119.21-.11,4.06,0,4.82,1.22,4.79,5-.22,28.77.41,57.56-.47,86.31-1.16,38-18,68.6-47.59,92-23.57,18.65-50.56,27.83-80.81,27.11-54.62-1.29-107-45.71-117.09-99.42a142.76,142.76,0,0,1-2.5-26.73c0-26.64.1-53.28-.08-79.91,0-3.68,1-4.34,4.47-4.33C70.2,85.55,110.22,85.51,150.24,85.51Z"/><path class="cls-2" d="M150.15,82.94c-39.88,0-79.75-.06-119.63.11-4.22,0-5.15-1.23-5.12-5.26.19-23.5.15-47,0-70.5,0-3.27.8-4.42,4.26-4.41q120.48.12,241,0c2.87,0,3.94.67,3.93,3.77-.12,24.21-.16,48.42,0,72.64,0,3.7-1.72,3.68-4.4,3.68Q210.17,82.91,150.15,82.94Z"/><path d="M124.15,101.07c-2.13,5.26-1.3,8.51,2.94,11.93a29.87,29.87,0,0,1,9.71,14.77c2.46,7.86,4.73,15.78,7,23.71a10.84,10.84,0,0,0,5.46,7c16.91,9.77,30.94,22.27,37.1,41.68,3.1,9.74,3.49,19.86,4.25,29.93.21,2.8-.08,6.84,3.19,7.12,3.66.31,5.34-3.47,5.86-6.79,2.47-15.58-1.42-29.6-10.78-42.18-3.16-4.26-7.24-7.64-10.95-11.38-11-11.11-17.75-23.79-16-40.11.71-6.73-1.34-9.8-7-13.78,2.37-2,5-2.88,7.74-1.63,3.7,1.69,3.93-.47,4.18-3.11.27-3-1.68-5-3.13-7.23,4.26-1.51,4.62-1.46,10,1.41.67-3.76-.69-6.62-3.88-8.93,2.13-1.32,3.93-2,5.95-1.36,1.55.49,4.2,1.94,4.36,1.69,1.63-2.6,4.59-3.86,6.2-6.42.7-1.1.31-3.36,2.14-3.15s2.71,1.9,3.21,3.64c.19.66.46,1.28.73,2,2.54-2.77,2.54-2.77,2.81-7.07,3.55.7,4.3,3.58,5.26,6.5a10,10,0,0,0,5-6c.36-1-.15-2.64,1.22-2.88a3.13,3.13,0,0,1,3.49,2c1.06,3.63,3.42,2.68,6,2.29,3.93-.6,8-.59,10.91-4.35,1.92,2.24.81,4.43.5,6.82A13.77,13.77,0,0,0,238,95c1.24,2.49-.14,4.74-.4,7,3.56.39,5.75-1.91,8.39-3.22,1.84,3.27-2,10.11,6.38,8.76-3.65,6.25-9.59,8.33-14.85,12.12,2.27,0,4.54-.14,6.8,0a12.39,12.39,0,0,1,11.28,10.46c.67,4.75-1.58,7.85-6.09,10.05-.41-4.42-.3-9.22-5.92-10.27-3.72-.7-6.6.75-8.83,4.36,3.31.85,6.67,1.33,8.47,4.75-3,1.31-6.35,2.43-7.25,6.55,2.77-.24,5.43-.92,8.36.51-2.86,3.67-4.43,7.72-3.91,12.44,1.8-.34,3-1.87,5-1.65v5.13c3.38-1.27,6.63-1.94,10.24.42-4.61,3-7.46,7-7.84,12.51-.09,1.24-.66,2.27,1.28,2,.77-.1,1.71.13,1.48,1-1.38,4.87,1.25,8.84,2.57,13.16.71,2.33-.85,4.33-2.73,5.86s-3.37,3.41-3.37,6.39c2.57.09,4.05-2.16,6.51-2.51.33,4-.89,7.32-4.21,9.42a4.34,4.34,0,0,0-2.26,4.43A38.36,38.36,0,0,1,244,231.44c3.93-1.07,3.53,1,2.61,3.53-1.32,3.62-4.75,4.67-7.69,6.3.93,1.63,2.52-.05,3.61.85-.51,4.65-3.16,7.38-7.64,8.53a13.9,13.9,0,0,0-3.16,1.26,12.53,12.53,0,0,0-4.42,4c-2.09,3,2.33,2.43,2.48,4.31.05.64.59,1.24,1.3,2.61-7.49-1.3-12.79,2.48-18.25,6-4.59,2.93-9.78.54-14.25,1.3s-8.78,4.62-13.94,3.19a12.07,12.07,0,0,0-9.24,1.15,38,38,0,0,1-18.92,4.37c-1.13-.05-2.18-.13-3.05,1-3,3.75-7.27,3.92-11.87,4.08.67-2.17,2.93-3.15,2.94-6.15-4.69,4-9.7,5.6-15.72,4.24,1.55-2.12,4.55-2.8,5.49-5.59-4.51.14-7.82,1.88-9.57,6.12-2-1.92-2.84-4-2.24-6.11.94-3.25-2.09-3.82-3.06-3.31-4.34,2.29-8.92.39-13.32,1.33a25.37,25.37,0,0,0-8.69,3.51c-1.24-2.73-.11-4.89.69-7.19-1.78-1.22-3,1.17-4.65.81-.89-2.84.1-5.23,2.23-7.79-3.29,1.09-3.78,0-2.73-2.65,1.72-4.41,5.06-6.15,9.91-6.47,4.48-.3,9.53.77,13.18-3.54a3.43,3.43,0,0,0,1-3.32c-1.51-6.37-.24-12.37,2.13-18.33,2.6-6.53,2.26-7.22-3.41-11.43-7.22-5.34-12.35-12.17-14.32-21-.51-2.29-1.31-3.41-3.74-3.55a14.24,14.24,0,0,1-8.56-3.47,5.76,5.76,0,0,0-3.87-1.35,9.39,9.39,0,0,1-5.91-2.12c-1.36-1.13-2.89-3.47-4.57-2.14-1.85,1.45-3.21,4.4-2.48,6.66,1.38,4.26-.31,4.85-3.89,4.77-5.39-.12-8.95,2.42-11.15,7.5-1.75,4-3,4.05-4.62.13-2.48-5.94-6.92-7.91-12.8-7.72-2.23.08-3.5-.65-2.71-2.87,1.42-4-.53-6.86-2.84-9.48-1.79-2-1.91-3.44.08-5.31,1.06-1,3.13-1.76,2.81-3.36a15.26,15.26,0,0,0-2.64-5.73c-2.6-3.63-2.73-6.09.44-9.31,1.62-1.63,2.77-3,3.1-5.59.54-4.13,6.37-7,11-5.61-1.5-3.22-1.1-5.61,2.13-7.33s5.87-1,8.7.83,1.87,3.89.75,6.18c6.29-.95,10.15,1.79,11.23,7.82a2.74,2.74,0,0,0,1.19,2.08c2.82,1.86,3.87,4.72,4.74,7.82.72,2.56,2,4.47,5.12,2.26a9.55,9.55,0,0,1,3.87-1.71c2.26-.37,3.48-1.4,3.93-3.68.57-2.9,3.18-4.66,4.4-7.23,1.14-2.38,1.74-4.19-2.19-4.19-3.06,0-6.53-.09-7.13-4.4-5.92-1.86-5.88-8.8-10.38-12.08-2.92-2.13-1.39-5.18.67-7.45A64.49,64.49,0,0,1,97,112.05a7.92,7.92,0,0,1,2-.8c7.17-1.11,11.25-5.79,14-12a.58.58,0,0,1,1,0c3.09.42,3.62.18,5.81-2.61.82-.14,1.33,0,.92,1-.32,1.22-.67,2.43.68,3.32,1.18.78,1.08-.84,1.79-.93S124.52,100.09,124.15,101.07Z"/><path class="cls-3" d="M124.15,101.07l-.94-1c1.28-1.89,1.48-4.76,5.43-5.42Z"/><path class="cls-4" d="M120.74,97.68l-.92-1c.52-1.52.86-3.19,3.42-3.52C122.4,94.91,122.09,96.53,120.74,97.68Z"/><path d="M115.31,94.88c.32-.91.37-2.43,1.8-1.76.86.41.15,1.37-.47,1.93A1,1,0,0,1,115.31,94.88Z"/><path class="cls-5" d="M114,99.28l-1,0a4.65,4.65,0,0,1,1.47-2.85c.65.09.71.66.92,1.11A1.71,1.71,0,0,1,114,99.28Z"/><path d="M115.43,97.49l-.92-1.11.8-1.5,1.33.17Z"/><path class="cls-6" d="M79.78,11.91c4.07,10.87,9.61,19.44,15.22,28,4.42,6.77,5.24,14.32,3.11,22.11-2.66,9.68-10.28,14.88-20.52,14.16-8.44-.6-15.48-7.57-16.72-16.74-1-7.73.18-15,4.86-21.48A112.59,112.59,0,0,0,79.78,11.91Z"/><path class="cls-6" d="M150,11.8c3.8,10.29,8.83,18.68,14.39,26.79a26.87,26.87,0,0,1,4.26,21.94c-2.34,10.33-9.45,16-19.76,15.7-9.23-.28-16.45-7-17.84-17-.9-6.48-.39-12.92,3.24-18.55C140,31.74,146,22.91,150,11.8Z"/><path class="cls-6" d="M220.13,11.71c3.84,10.78,9.53,19.44,15.19,28.16,4.4,6.78,5.26,14.34,3.15,22.14-2.6,9.63-10.34,14.9-20.55,14.17-8.66-.61-15.76-8-16.86-17.63-.67-5.91-.29-11.85,2.89-17C209.8,32.19,216.15,23.11,220.13,11.71Z"/><path class="cls-7" d="M106.82,188.87c-4.35,2.67-8.82,2.66-13.42.68-2.13-.91-3.45-1.89.51-4.38-3.14.27-4.81.28-6.44.59a7.49,7.49,0,0,1-7.08-1.94c-2.47-2.47-5.39-2.93-8.66-2.3a7.66,7.66,0,0,1-2.92.22c-1.36-.27-2.92-.66-3-2.52s1.54-1.7,2.73-1.94c.67-.13,1.43.07,1.94-.66-.52-1.5-1.77-1.08-2.83-1s-2.39.5-2.58-1.22c-.21-2,1.31-1.78,2.56-2,1-.14,2.33.66,3-1-.35-.19-.68-.36-1-.56-1.15-.73-3.78.95-3.58-1.55.16-2.09,2.53-1.85,4.2-1.85A12.36,12.36,0,0,1,78.79,171c1.44,1.33,2.22,1.82,4.06.28,4.4-3.7,9.94-3.68,15.36-3.87,1.72-.06,3.54.58,6-.71-4.19-1.69-7.86-.49-11.38-1.07-.13-2.4,1.07-4.13,2.4-5.81.43-.56,1.09-1.06,1.26-1.7,1.31-4.82,3.83-8.38,9.09-9.36.23,0,.35-.68,1-1.92C101.6,149.38,97,149,92.43,148.6c-1.4-.11-3.65.22-3.62-2,0-1.94,2-2,3.6-2.22,1.06-.17,2.29.44,3.5-1-1.92-1.07-3.78-.75-5.58-.33-6.18,1.45-9.81-2-8.9-8.65.33-1,0-1.37-1-1-1.23.07-2.64.65-3.45-.8-.9-1.6.27-2.75,1.19-3.74a62.81,62.81,0,0,1,27.44-17.26c2.19-.69,2.28.31,2.43,2a17.1,17.1,0,0,0,2.75,8.86c1.2-2.45-.26-4-.57-5.59-1.13-5.72.42-10.73,4.54-13.64,3.26-2.3,5.23-1.53,5.85,2.47s-.63,7.84-2.55,11.41c-1.34,2.45-2.52,1.6-3.63-.19-.88-1.41-.49-3-.49-3.71-.1,5.35.9,6.47,5,4.87a3.67,3.67,0,0,0,.6-.58c3.14-5,3.54-5,7.81-.79a27,27,0,0,1,6.75,11.17c2.57,8.23,4.92,16.52,7.33,24.8.27.9,1.42,2.37-1,2.07a6.45,6.45,0,0,1-3.61-2.66c.88,1.19,2.22,2.06,2.61,3.61,5.71,4,12.07,6.84,17.79,10.86,19.42,13.65,29.56,32.15,30.19,55.89a92.82,92.82,0,0,0,.9,11.06c.42,2.85,1.46,5.76,4.74,6.46s5.26-1.58,7-3.93a15.51,15.51,0,0,0,2.68-8.42c1.24-18.18-4.2-33.92-17.26-46.83a140.05,140.05,0,0,1-11.68-12.43c-6.73-8.47-10.21-17.89-9.44-28.86.56-7.93,0-9.35-3.56-15.38,4.3.3,7.65,3.44,8.57,8.59.78,4.32,1,8.74,1.67,13.1a18.16,18.16,0,0,0,3.47,9c1.07.38,1.21-.11.94-1a36.64,36.64,0,0,1-1.27-29c2.29-6.34,3.31-12.55,1.29-19.18,3.23.85,4.08,1.72,4.62,5.08.72,4.43.07,8.79-.89,13.13-1.08,4.89-1.89,9.8-.46,14.78.26.9.29,2,2.33,2.46-3.91-10.5,2.32-20.24.85-30.4-.84-5.79,3.47-8.45,7.65-11.58-2.67,7.85-4.28,15.74-1.68,24-.3-9.48-.78-19,9.67-23.6.53,3.35-3.19,5.63-3.74,9.13s-.29,6.62,2.51,9.54c.82-2.4-1-3.8-1.07-5.61,0-3.7.51-7.19,4.13-9.16a20.23,20.23,0,0,0,8.79-9.05c2.08,4.59-1.43,7-3,10a18.53,18.53,0,0,0-.8,3.52,2.69,2.69,0,0,1,1.73-2.57c7-8,8.21-8.67,15.47-8-.08,1.77-2.14,1.08-2.64,2.15-1.7,2.35-4.38,4.05-4.61,6.78.95-2.42,1.95-5.43,5.73-5.84,2.54-.06,5.08-.11,7.61-.2s4.76-.21,7.37-.34c-.59,2.77-2.78,3.23-4.92,3.74-3.19.77-6.31,1.68-8,4.91a3.4,3.4,0,0,0,.06,1.87,4.38,4.38,0,0,0,.93-.79c2.45-3.45,6.14-4.7,10-4.57a29.12,29.12,0,0,0,11-1.53c-1.92,5.38-6.86,4.22-9.84,6.23-1,1.66-2.9,2-3.55,2.4,1-.77,3.17-1.15,5.28-1.61a23.13,23.13,0,0,1,10.84-.39c-7,4.31-14,8.66-18.53,15.76-2.14,3.66-4.89,7-6,10.52,1.82-3,2.49-7.57,6.76-9.65,4.32-4.36,9.73-4.91,15.4-4.26a8.92,8.92,0,0,1,7.48,12.48A31.67,31.67,0,0,0,249,130c-3.84-4.1-11.11-3.64-15.13,1.22-5.33,6.44-8.83,13.46-6,22.33,1.61,5.12,2.81,10.41,2.42,15.93a10.46,10.46,0,0,1-1.06,4c-.1.44-.63.91-.15,1.29.23.18.74-.14,1.09-.32,3.32-3.75,4.24-8.25,3.87-13a34.8,34.8,0,0,1,.19-8.47c.47-2.89,2-4.54,5.33-5-.87,4-2.12,7.75-1.63,11.72s1,4.32,4.58,2.61c1.26,4.58-1.26,8.19-3.06,12a11.69,11.69,0,0,1-3,5c-3.11,4.17-6.28,8.31-7.16,13.64.88-5.25,4-9.35,7-13.47,1.51-1.24,2-3.51,4-4.19a19.42,19.42,0,0,0,3.78-7.45c.68-2.22,2.08-3.4,5.08-3.77-3.38,5.41-3.8,11.07-5.62,16.29-1.55,2.21-3.79,3.77-5.46,5.87-1.25,2.66-3,5.14-3,8.25,0-3.05,1.66-5.51,2.89-8.13,2.12-2.14,3.76-4.84,6.89-5.76,1,.48,2.33-1.18,3,.21.53,1-.23,2.23-.88,3.15a8.85,8.85,0,0,1-2,2.15c-5.53,3.82-6.11,9-4.14,15.48,2.46-4,4.72-7.6,9.15-9.17,0,1.64-1,2.46-2,3.3a10.54,10.54,0,0,0-3.06,4.55c-1.76,5-.59,6.59,4.49,6.06-1.5,4-7.12,2.27-8.42,6.26-.06.68-.37,1.38.13,2a5.79,5.79,0,0,1,.76-.88c.55-.61,1-1.6,1.9-1.49s.74,1,.76,1.72c.14,6.17-.68,12.16-3.48,17.74-1.92,3.82-5.5,5.54-9.28,6.94a6.08,6.08,0,0,1-1.92,1.85c.86-1.07,2.49-.35,3.68-1l1.53-.14c.93-.27,1.17.15,1,1-1.44,4.69-6.18,5.22-9.5,7.54-.3,1,0,1.38,1,1,2.09-1,4.15-2.18,6.63-1.91.75-.19,1.7-.78,1.6.78A18.37,18.37,0,0,0,224.65,255c-3.86,5-9.62,5.85-15.39,6.45-.68.07-1.73-1.35-2-.05-.33,1.56,1.32.91,2.14,1.17a6.62,6.62,0,0,0,4.54,0c1.08.33,1.9-1.35,3.12-.49-4.13,5.32-10.22,7.3-16.37,5.35-1.57-.49-2.8-1.35-4.59.19-5.46,4.72-12.23,4.56-18.15,0-.33-.19-.77-.48-1-.28-.49.36,0,.86.06,1.3,1.15,1.51.27,2.18-1.08,2.82a46.45,46.45,0,0,1-15.83,4.72c-3.28.28-6.67.74-6.81-4.57-1.22,3.65-.42,8.24-5.71,8.75-1.15-2.2.73-4.06.61-6.39-4.75-.26-7.28,4.43-12.15,5.5,1.7-2.78,3.25-5.11,3.11-8.37-4.47,2.48-9.29,3.18-14.28,5.21,1.19-4.17,5.38-4.64,7.87-8.43-6,2.23-11.43,6.47-15.7-1.3.49,3.72-.58,5.69-4.23,5.22-1.83-.24-4-.26-4.67-2.32-.93-2.7,2.71-1.14,3.17-2.8-1.43-1.94-5.12,1.1-5.4-2.57-.23-3,3.2-.85,4-2.51,0-1-.74-.77-1.2-1-1.09-.51-3.17,1-3.3-1.42s2-2.48,3.58-2.65c2.67-.29,5.39-.5,7.86,1.06a4,4,0,0,0,3.28.51c.08-2.48-4.9-1.18-3.25-4.25,1.78-3.32,3.31,1.43,5.42.51-4.31-7.93-4.32-16-.55-24,2.4-5.06.72-10.4,1.75-15.51a3.64,3.64,0,0,1,1.13-2.43,5.74,5.74,0,0,1-2.1,1.33L120.69,218c-8.92-5.29-14.74-12.64-17.07-22.74-.86-3.73,2.67-3.77,4.21-5.48a4.1,4.1,0,0,1,2.56-1.65A22,22,0,0,1,106.82,188.87Z"/><path class="cls-8" d="M231,159.79c-.83-4.16-2-8.3-2.44-12.51-.82-7.28,3-10.88,10-9-5.47,3.38-6,8.57-6.1,13.89-.71,2-.15,4-.34,6C232.1,159,232.34,160,231,159.79Z"/><path class="cls-9" d="M55.07,161.1c-2.49-1.27-6.28-.58-6.17-4.25.12-3.45,3.17-4.43,6.19-4.4s6.07,1.3,5.95,4.68S57,159.7,55.07,161.1Z"/><path class="cls-10" d="M53.15,170.14c.73,1.23,2.39.47,3.72,2-4,.58-.19,8.85-6.76,6.41s-6.35-2.86-4.55-7.45C47.78,168.18,50.36,168.3,53.15,170.14Z"/><path class="cls-11" d="M37.57,166.63c-2.7.37-3.86-.33-2.56-3.25,1.59-3.59,5.64-5.9,9.39-4.91s2.6,4.09,2.79,6.62a3.09,3.09,0,0,1-3.41,2.09A5.15,5.15,0,0,0,37.57,166.63Z"/><path class="cls-12" d="M75.14,165.62c-1.28-.22-2.67-.11-3.65-.7-1.94-1.15-3.44-1.66-5.13.45-.74.92-2.1.55-3.12-.19-1.42-1-.51-2.3-.33-3.48.24-1.58.56-2.93,2.59-3.31C70.28,157.51,74.12,160.21,75.14,165.62Z"/><path class="cls-13" d="M49.91,165.84l-1.43-5.44c4.41,2.4,8.4,2.91,12.38,0-.57,5.55-3.1,8.25-7.68,8.75A3.26,3.26,0,0,1,49.91,165.84Z"/><path class="cls-14" d="M170.73,129.65c-2.47-2.76-3.66-5.34-1.9-8.91a6.82,6.82,0,0,0-.82-7.27,5.69,5.69,0,0,1,5.6,7.49C172.78,123.81,171.74,126.6,170.73,129.65Z"/><path class="cls-15" d="M53,191.84c1.79,1.91,6.87-2.89,6.73,3-.07,3-2.88,3.79-5.35,3.47-2.15-.27-4.67-1-4.07-4.23C50.53,192.71,50.65,191,53,191.84Z"/><path class="cls-13" d="M39.36,183.13a3.73,3.73,0,0,1-3.71-1.86c-.91-1.38.48-2,1.22-2.73,1.72-1.61,3.65-3.64,6.11-2.24,1.18.66,4,2,2.91,3.5C44.41,181.91,41.47,182.67,39.36,183.13Z"/><path class="cls-13" d="M44.63,157c-2.21-.67-5,.77-4.28-2.29a6,6,0,0,1,5.15-4.91c1.54-.12,3.59,1.45,3,3.28S47.61,158.51,44.63,157Z"/><path class="cls-13" d="M66.11,156.5c-4.22,1.54-4.12-2-4.67-3.58s1.48-3.39,3-3.18a6.06,6.06,0,0,1,5,5C70,158.19,66.79,155.8,66.11,156.5Z"/><path class="cls-16" d="M53.13,185.54c-1.29.45-1.55,3.31-3.06,2.21-2.49-1.83-2.67-4.8-2-7.86,1.79.21,3.16,1.61,5.29.86,1.55-.55,2.78,1,2.19,3C55.27,185.08,54,185.05,53.13,185.54Z"/><path class="cls-16" d="M50,190.13c-1.45,1.55-.25,4.25-2.78,4.17a17.15,17.15,0,0,1-7.36-1.57c-1.09-.58.71-2.22,1.82-2.54A18.81,18.81,0,0,1,50,190.13Z"/><path class="cls-16" d="M64.56,189.73a23.94,23.94,0,0,1,2.94.23c1.28.25,2.65.82,2.7,2.25,0,1.79-1.68.88-2.58,1.22a6.45,6.45,0,0,1-2.47.5c-1.27-.06-2.81,1.45-3.77-.35-.5-.94-1.08-2.45-.67-3.13C61.5,189.15,63.24,190,64.56,189.73Z"/><path class="cls-15" d="M43.08,172.7c-1.23,1.41-2.66,2.38-4,.35-1.08-1.64-3.44-3.42-.49-5.52,2-3.44,3.56-1.7,5.1.43C44.38,169.66,43.31,171.12,43.08,172.7Z"/><path class="cls-17" d="M59.74,151.44c-3.2-.53-6.21-1.28-9.67.51.52-3.46,1.78-5,4.6-5.06S59.3,148.1,59.74,151.44Z"/><path class="cls-18" d="M43.08,172.7l-.31-4.88c-.18-1,.23-1.47,1.28-1.23l3.14-1.5,1,.9a2.19,2.19,0,0,1-.38,1.4c.67-.23.65-.88.86-1.4l1.23-.15,3.27,3.32,0,1c-2.55.19-5.17-.35-7.59.91C44.28,170.92,43.81,172,43.08,172.7Z"/><path class="cls-19" d="M118.94,118c-.71,1.38-1.54,3.21-3.12,2.87-.92-.19-1.63-2.15-2.14-3.43-1.45-3.6-.78-6.8,2.33-9.84.87,2.74-2,4.44-1.18,6.52.5,1.3-.93,5.39,3.19,2.91Z"/><path class="cls-20" d="M229.2,126.61a60.83,60.83,0,0,0-7.94,13.6c.68-5.69,2.57-10.75,7.14-14.47Z"/><path class="cls-21" d="M56.09,145.25a7.87,7.87,0,0,1-1.48,0c-1.31-.3-2.73,1.18-3.93-.14-.45-.5,0-1.12.44-1.44,1.5-1,3.06-2.27,5-1.43,1.31.57,3.56.88,3.07,2.79C58.76,146.72,57,144.9,56.09,145.25Z"/><path class="cls-22" d="M220.09,100.26c-3.91,2.32-5.4,6.1-5.65,11.48-2.42-5.23-.44-9.6,4.53-12.42Z"/><path class="cls-23" d="M96.32,267.5c1.28-2.87,3.54-3.54,5.83-4.13,1.49-.38,1.89.64,2.17,1.85.32,1.45-.59,1.66-1.62,1.75C100.69,267.16,98.67,267.31,96.32,267.5Z"/><path class="cls-24" d="M61.16,173c1.91-.43,2.4.42,2.17,1.53-.64,3-3.71,2.33-5.6,3.45-.84.5-1.2-.44-1-1.2C57.23,174.13,59.49,173.57,61.16,173Z"/><path class="cls-25" d="M97,260.22c1.23-2.69,3.12-3.58,5.54-2.88a1.91,1.91,0,0,1,.92,2.85C101.46,263,99.29,259.17,97,260.22Z"/><path class="cls-26" d="M100.19,272.77c1.19-2.56,2.78-4.12,5.22-4.13,1,0,1.48,2,1.14,2.34C104.93,272.69,102.62,272.33,100.19,272.77Z"/><path class="cls-27" d="M45.47,188.06c-1.72-.14-1.93-1.87-2.23-3.31a1.7,1.7,0,0,1,2-2.05c1.79.63,1.06,2.86,1.84,4.28C47.53,187.78,46.58,188.06,45.47,188.06Z"/><path class="cls-28" d="M243.35,193.8c-.32-1-.42-1.13-.39-1.24.66-2.69,2.79-4,5-5.25a.74.74,0,0,1,1,.87C248.29,191.19,245.26,191.64,243.35,193.8Z"/><path class="cls-29" d="M206.14,105.22c-1.49,2.64-.76,5.68-1.56,8.48-1.45-3.26-2-6.44.63-9.43Z"/><path class="cls-30" d="M64.19,188.07c-.74-.08-1.88-.12-1.42-1,.71-1.33-.07-3.66,2.22-3.94a1.45,1.45,0,0,1,1.62,1.53C66.37,186.17,66.09,187.8,64.19,188.07Z"/><path class="cls-31" d="M56.52,187.32c.14,1,1.75,1.86.08,2.84a2.8,2.8,0,0,1-3.54-.18c-1.56-1.54.87-2.26,1-3.52C55.32,185.42,56,186.22,56.52,187.32Z"/><path class="cls-32" d="M139.45,155.64A12.14,12.14,0,0,1,134,149.7c2.92.67,4.35,3.26,6.43,5Z"/><path class="cls-33" d="M236.09,110.37l-8.75,4.54c1.27-3.48,4.22-4.29,7-5.33Z"/><path class="cls-34" d="M244.88,180.58l-6.17,6a1.18,1.18,0,0,1-1-1.08c1.49-2.23,3-4.39,5.79-5.19Z"/><path class="cls-35" d="M231,159.79c1.64-2.31-.29-5.33,1.5-7.61v11.71C231.58,162.68,230.72,161.44,231,159.79Z"/><path class="cls-36" d="M44.05,166.59l-1.28,1.23c-1.26-2.08-2.72-1.1-4.18-.29l-1-.9C39.71,163.65,41.87,162.51,44.05,166.59Z"/><path class="cls-37" d="M58.13,181.68c1.55-2.79,3.08-3.84,5.26-3.63a.92.92,0,0,1,.62,1.34C62.86,181.52,60.67,180.76,58.13,181.68Z"/><path class="cls-20" d="M106.82,188.87c2.36-1.86,4.94-2.14,8.33-1.13-2.51,1.86-5.22.95-7.32,2Z"/><path class="cls-38" d="M58.42,184.76c1-.35,2.2-1.95,3.15-.5.69,1.07-.45,2.35-1.31,3.21-1.65,1.66-1.87-.69-2.79-1.1C56.93,185.34,57.79,185.12,58.42,184.76Z"/><path class="cls-39" d="M233.55,239.44l-6.88,4.65c.87-3.34,2.62-4.77,5.12-5.46Z"/><path class="cls-40" d="M122.43,213.78c.85-2.4,2.64-3.61,5.48-3.67l-4.51,4.76Z"/><path class="cls-41" d="M58.91,172.2c1.3-2.91,2.68-3.73,4.55-3.59.69,0,.79.82.56,1.34C63.1,172,61.12,171,58.91,172.2Z"/><path class="cls-42" d="M42.12,186.79c.4,1.17-.26,1.48-1.24,1.49a2.09,2.09,0,0,1-2.21-2c-.18-1.05.53-1.45,1.45-1.57C41.71,184.51,41.82,185.74,42.12,186.79Z"/><path class="cls-43" d="M48.68,166c.31.84,1.91,1.74-.12,2.46l-4,1.47c-.19-2.86,2.83-2.39,3.63-3.93A1.93,1.93,0,0,0,48.68,166Z"/><path class="cls-44" d="M69.43,184.73c1.13.07,1.83.46,1.71,1.52a2.05,2.05,0,0,1-2.21,2c-.73,0-1.42-.31-1.2-1.22S68.09,184.77,69.43,184.73Z"/><path class="cls-45" d="M241.89,213.72l-1,5.07c-1.73-2.35-1.08-4.32.16-6.22Z"/><path class="cls-46" d="M58.42,184.76l-1,1.61-.95.95c-.77-.46-1.41-1.29-2.49-.86l-.9-.92a2.28,2.28,0,0,1,2.46-1.75Z"/><path class="cls-47" d="M240.27,175.28a12.93,12.93,0,0,1-3.31,4.45,1.21,1.21,0,0,1-1-1l3.38-4.41Z"/><path class="cls-48" d="M223.15,109.45c-.35,1.39-.23,3-1.8,4.32-1.12-2.27-.37-3.86.81-5.4Z"/><path class="cls-47" d="M230.07,174.45c-.9,1.52-1.73,3.17-4.3,2.2l3.36-3.17Z"/><path class="cls-49" d="M177,268.6a4.46,4.46,0,0,1-2.1-3.61c2.25-.46,2.31,1.5,3.08,2.59Z"/><path class="cls-50" d="M175.44,153.78c.92.93,2.37,1.47,2.33,3.47-1.86.05-2.63-1.12-3.27-2.48Z"/><path class="cls-15" d="M54.84,200.11c.51.2,1.6-.28,1.2,1-.16.48-.56,1.16-.95,1.22-.88.16-1.1-.7-1.28-1.36C53.55,200,54.41,200.31,54.84,200.11Z"/><path class="cls-51" d="M80.39,133.35c.88-.57.62-3.13,2.27-1.89,1.1.82-.17,2.18-1.23,2.93Z"/><path class="cls-52" d="M224.8,260.15c-2,.66-3.22,1.26-5.06.88C221.23,259.36,222.63,260,224.8,260.15Z"/><path class="cls-53" d="M236.06,240.29l-1-1,3.41-1.85c.26.17.37.36.31.57s-.12.33-.2.33Z"/><path class="cls-33" d="M227.6,248.86c-.66.79-1.47,2.27-2.42,1.28s.6-1.69,1.38-2.31Z"/><path class="cls-54" d="M238.6,238.35c0-.3-.07-.6-.11-.9.6-.83,1.58-1.75,2.1-.42C241,238.07,239.45,238.12,238.6,238.35Z"/><path class="cls-55" d="M235.83,247.73l-1.6-.78c.91-.73,2.08-1.18,2.92-.34C237.55,247,236.51,247.58,235.83,247.73Z"/><path class="cls-56" d="M213.93,262.55a3.92,3.92,0,0,1-4.54,0Z"/><path class="cls-57" d="M79.77,18.84C83.66,27.4,88.44,34.4,93,41.55c3.92,6.17,4.6,13.07,2.55,20.1-2.24,7.66-8,12-15.64,12s-13.36-4.08-15.75-11.8c-1.84-5.92-1.82-12,1-17.46C69.48,35.88,75.71,28.42,79.77,18.84Z"/><path class="cls-57" d="M149.94,18.76a134.57,134.57,0,0,0,12.15,21,24.59,24.59,0,0,1,4,20.23c-2,8.86-7.91,13.77-16.42,13.68-8.1-.09-14.24-5.25-15.93-13.81-1.21-6.15-.78-12.32,2.62-17.72C141,34.73,146.08,27.54,149.94,18.76Z"/><path class="cls-57" d="M220.15,18.87c3.73,8.24,8.45,15.31,13.07,22.45a23.49,23.49,0,0,1,3,18.82c-2.14,8.94-7.94,13.68-16.53,13.55-8.18-.13-14.34-5.55-15.91-14.39-1-5.87-.58-11.78,2.63-16.92C211.16,34.82,216.26,27.48,220.15,18.87Z"/><path class="cls-58" d="M93.19,122.9c1.44-2,3.49-2.68,5.6-1.7a4.44,4.44,0,0,0,5.43-.76c-2.23,3.76,3,7.79-.9,11.17-1,.86-1.73,2.46-3.81,1.47,1-1.9,4.43-2.52,3.09-5.74-2.44,2.13-4.66,5.13-8.43,2.55a.8.8,0,0,1,0-1c1.23-1.19,3.26-.85,4.81-2.8-2.41.58-3.79-.73-5.35-1.64C93.16,124,92.81,123.55,93.19,122.9Z"/><path class="cls-19" d="M236,178.69l1,1c-1.72,2.93-3.91,5.53-5.44,8.61s-1.17,6.53-2.17,10C226.79,193.08,229.08,186.6,236,178.69Z"/><path class="cls-59" d="M223.17,169.21A19.41,19.41,0,0,0,221,157.74c-1.28-2.43-2.13-5.08-.41-7.91,0,5.86,4.81,10.32,4.44,16.28-.1,1.69,0,3.41-1.09,4.88C222.42,171,222.73,170.12,223.17,169.21Z"/><path class="cls-60" d="M201.08,192.16c4.62,4.83,5.21,11,5.33,17.25-2-5.25-3-10.84-5.55-15.86A.91.91,0,0,1,201.08,192.16Z"/><path class="cls-33" d="M237.72,185.54l1,1.08c-2.12,3.94-3.12,8.25-4.21,12.55A16.2,16.2,0,0,1,237.72,185.54Z"/><path class="cls-20" d="M195.73,186.47c-3-4.05-5.56-8.27-5.37-13.63,2,4.25,3.79,8.61,6.46,12.5C197.08,186.32,196.7,186.68,195.73,186.47Z"/><path class="cls-50" d="M210.54,228.6c-1,4.34-3,8-7.27,9.92,1.77-3.21,4.6-5.76,5.56-9.41.7-1.37-.17-3,.64-4.32v0C212.08,225.4,210.39,227.26,210.54,228.6Z"/><path class="cls-61" d="M213.7,162.9c5.7,1.79,6.32,7.52.86,12.21C216.77,170.33,217.35,166.37,213.7,162.9Z"/><path class="cls-62" d="M199.39,243.68a59.69,59.69,0,0,0,11.44-4.56A10,10,0,0,1,199.39,243.68Z"/><path class="cls-63" d="M217.77,139.12c-2.35-4.54-1-8.09,4.61-10.38C219.05,132.2,217.77,135.4,217.77,139.12Z"/><path class="cls-29" d="M223.17,169.21,224,171c-1.4,3.35-4.18,6.13-4.05,10.16C217.49,176.1,221.47,173,223.17,169.21Z"/><path class="cls-39" d="M224,187.71c-.26-3.75,2.27-5.39,4.89-7,1,.91.61,1.53,0,2-3,2.08-4,5-3.74,8.46.06.78.24,1.78-1,1.91A8.55,8.55,0,0,1,224,187.71Z"/><path class="cls-64" d="M93.19,122.9,94,124c1,1.63,1.38,3.28.24,5l0,.87c-1.47-.87-3.14-.92-5-1.09C91.78,127.54,91.5,124.58,93.19,122.9Z"/><path class="cls-47" d="M195.73,186.47l1.09-1.13a15.35,15.35,0,0,1,4.26,6.82c-.07.47-.15.93-.22,1.39Z"/><path class="cls-50" d="M122.31,122.28c-1,2.54-2.86,3.9-6.17,3.6l5.19-4.68C122,121.27,122.07,121.85,122.31,122.28Z"/><path class="cls-65" d="M212.61,238.29c0-1.86.47-3.33,2.49-4.19C215.43,236.51,214.13,237.51,212.61,238.29Z"/><path d="M122.31,122.28l-1-1.08c.28-.81-.24-2.66,1.1-2.14C124,119.66,122.82,121.18,122.31,122.28Z"/><path class="cls-40" d="M224,187.71c0,1.78.07,3.56.1,5.34C222.62,191.29,223.2,189.5,224,187.71Z"/><path class="cls-66" d="M210.54,228.6c-.3-1.3.18-2.82-1.07-3.85C211.45,225,211.53,225.3,210.54,228.6Z"/><path class="cls-66" d="M209.47,224.79c0,1.47.49,3-.64,4.32C208.93,227.65,208.61,226.13,209.47,224.79Z"/><path class="cls-67" d="M94.21,129a5.47,5.47,0,0,1-.24-5l.86-.87c1.49,1.81,3,2.42,4.55.07.41.37,1,.66,1.2,1.12.65,1.35-.14,2.58-.88,3.48C98.28,129.55,96.14,129,94.21,129Z"/></svg>