<svg id="Layer_1" data-name="Layer 1" xmlns="http://www.w3.org/2000/svg" viewBox="0 0 300 300"><defs><style>.cls-1{fill:#e03b3f;}.cls-2{fill:#97282a;}.cls-3{fill:#fdfdfd;}.cls-4{fill:#df3b3e;}.cls-5{fill:#df3a3e;}.cls-6{fill:#dd3a3e;}.cls-7{fill:#dc3a3e;}.cls-8{fill:#fcfcfc;}.cls-9{fill:#f7f7f7;}.cls-10{fill:#fbfbfb;}.cls-11{fill:#f5f5f5;}.cls-12{fill:#561618;}.cls-13{fill:#8d2528;}</style></defs><path d="M23.74-.6H276.26a1,1,0,0,1,1,1V175.65A123.39,123.39,0,0,1,153.86,299h-7.5A123.62,123.62,0,0,1,22.75,175.42V.4a1,1,0,0,1,1-1Z"/><path class="cls-1" d="M150,3.42q59.82,0,119.63,0c2.11,0,2.8.36,2.8,2.69-.08,56,0,112-.08,168-.08,58-39.95,107.84-96.72,119.74-39.48,8.28-75.15-1-105.86-27.31C46.64,246.65,33.21,221.19,28.74,191a117.72,117.72,0,0,1-1.16-17.31q0-83.74,0-167.49c0-2.29.56-2.88,2.87-2.87Q90.22,3.47,150,3.42Z"/><path d="M216,135.34c3.48,2.77,7,5.53,10.42,8.33a18.65,18.65,0,0,0,12.09,4.26c6,0,9.76-3.65,10.18-9.59.11-1.56,0-3.14,0-4.77,4.29,1.66,7.34,7.38,6.76,12.45-1.31,11.38-10.23,17.35-22.26,14.89a64.52,64.52,0,0,1-8.9-2.66c-.92-.34-1.82-.93-3.23-.48,8.93,4.93,13,13,15.45,22.23a41.78,41.78,0,0,0,1.74,5.24c2.35,5.87,3.69,7,11.1,9.8a12,12,0,0,1-10.48,3.74,15.23,15.23,0,0,1-9.77-5.24c-2.58-2.86-3.67-6.68-6.15-10,1.16,17.11-6.3,26.49-20.11,25.08,5.43-4.77,8.44-10.24,6.38-17.86-.81,1.55-1.37,2.75-2,3.89-4.76,8.16-13.71,11-23.17,7.1a3.53,3.53,0,0,0-4.19.58c-7.26,5.75-15.62,7.48-24.65,6-4.95-.8-8.49-3.77-11.26-9.1,7.16,2.17,13.28,1.25,17.71-5A13.27,13.27,0,0,0,164,183c-.56,1.17-1,2.17-1.52,3.13a15.85,15.85,0,0,1-11.25,8.49c-4.07.82-7.76-1-9-4.26-.45-1.2-.3-1.7,1.1-1.61,6.65.43,9.17-4.46,8.66-9.89a16.37,16.37,0,0,0-6.12-11.43c-7.08-5.87-15.4-7.49-24.26-7.16A77.31,77.31,0,0,0,109.92,162c-6,1.14-10.13,4.42-13.19,9.53a9.91,9.91,0,0,1-16.49,1.34A43,43,0,0,1,75,165.22c-1.48-2.77-.65-4.4,2.5-4.59,2-.13,2.45-.86,2.1-2.63a9.49,9.49,0,0,1,0-2.26c.18-3.23.19-3.22-2.85-2.37-9.5,2.66-18.86,2.6-28.07-1.3-15.4-6.5-15.59-26.57-6.81-35.39,3.68-3.7,8.3-5.14,13.74-5-1,1.59-2,2.91-2.83,4.34-6,10.57-.85,21.9,11,24.36,8.71,1.8,16.95-.37,25.3-3.11a20.9,20.9,0,0,1-3.13-11.11c0-.69.25-1.64-.77-1.9-1.21-.32-1.56.7-2,1.51a30.22,30.22,0,0,0-3,11.34c0,.39-.14.77-.25,1.39-4-2.37-5.73-5.93-6.44-10.13a9.38,9.38,0,0,1-.11-1.5c0-2.25-.32-4.17-2.94-5a4.92,4.92,0,0,1-2.63-2.62,29.66,29.66,0,0,1-2.9-15.87c.1-1.22,1-1.86,1.91-2.5q6.64-4.55,12.89-9.64A9.75,9.75,0,0,0,81,90.1c.52-.6.86-1.32.24-2s-1.39-.37-2,.1c-1.73,1.34-3.39,2.76-5.14,4.06-2.35,1.75-4.81,3.37-7.15,5.15-1.07.81-1.52.49-2-.58a93.75,93.75,0,0,1-5.44-14.86c-.86-3.39,0-4.92,3.15-6.47a14.34,14.34,0,0,1,11-.66c6.81,2.1,13.49,4.57,20.17,7a4.24,4.24,0,0,0,3.55-.15,102.71,102.71,0,0,1,46.07-9.85A12.57,12.57,0,0,0,149,70.66c10.3-4.59,20.86-8.33,32.15-9.56a78.41,78.41,0,0,1,15.08-.51,9.41,9.41,0,0,0,5.05-1c9.83-4.54,20.05-7.14,31-5.81,2.32.29,4.61.87,6.91,1.28,1.09.2,1.56.64,1.37,1.87C239,66.71,236,75.88,229.74,83.69s-15,11.55-24.64,13.41c-.66.13-1.32.25-2,.41-.12,0-.21.22-.56.58,11.89,1.48,22.1-.9,29.7-10.66a45.12,45.12,0,0,0,7.36-13.67c.47-1.46,1.12-1.86,2.65-1.78,9,.51,13.29-2.1,17-10.2,1.69,1.36,1.94,3.22,2.05,5.08a23.12,23.12,0,0,1-22.66,24.72c-1.57,0-3.14,0-4.82,0,3.39,4.63,10.55,4,20.62-1.7,1.81,10.33-12.65,20.5-29.8,21,8.1,4,17.76,2.19,27.34-7.65a12.79,12.79,0,0,1-.68,9,13.11,13.11,0,0,1-4,5.42c-1.85,1.43-2.45,2.46-1.25,5,2.64,5.45-1.37,13.06-7.69,15.39-5.09,1.88-10.07,1.15-15-.81-2.09-.84-4.06-2-6.34-2.32C216.61,134.77,215.85,134.11,216,135.34Z"/><path class="cls-2" d="M216,135.34c-.43-.15-.91-.23-1.15-.78a2,2,0,0,1,2.19.26Z"/><path class="cls-1" d="M138.82,144.55C134,137.06,127,133,118.27,131.93c-8.53-1-16.64,1.1-25,4.12a28.84,28.84,0,0,1,4.29-11.88,1.86,1.86,0,0,1,1.72-.83c8.82-.22,17.62-.18,26.16,2.51,11.34,3.56,18.27,13.87,16.69,25.06a45.67,45.67,0,0,0-10.22-4,30.2,30.2,0,0,0-20.61,1.81c-3.11,1.46-6.29,2.81-9.29,4.46a3.23,3.23,0,0,1-4.23-.48c-1.64-1.45-4.1-2.91-3.93-4.89.12-1.47,3.14-1.66,4.92-2.3a79,79,0,0,1,16.7-4.52A41.2,41.2,0,0,1,138.82,144.55Z"/><path class="cls-3" d="M159.46,90.3l7.69,6.55c-5.21,1.51-10.17.82-15.11.6-1.17,0-2.34-.3-3.51-.27-1.61,0-2.85-.13-3.54-1.92s-2.27-1.7-3.86-1.53c-.59.06-1.51.25-1.65-.66-.11-.69.63-.89,1.19-1,2.19-.61,2.47-2.44,2.84-4.29.59-2.94,1.54-3.6,4.71-3.53-1.13,5.7-.37,8.12,3,9.63C154.37,95.22,156.57,94.31,159.46,90.3Z"/><path class="cls-4" d="M229,60.27C216.5,64.71,206.27,72.38,197.37,82c-1.21,1.31-2.39,2.66-3.7,3.87C197.2,75.3,211,61.24,227,59.77,227.74,59.7,228.59,59.07,229,60.27Z"/><path class="cls-5" d="M193.07,179.32c2.61,5.06,3.06,9.62.84,14.18-1.87,3.85-5.43,5.08-10.16,5.55a31.58,31.58,0,0,0,6.26-9.11A46.81,46.81,0,0,0,193.07,179.32Z"/><path class="cls-6" d="M224.77,123.67c6.58.52,12.53.78,18-2.63a6.43,6.43,0,0,1-4.46,6C233.94,128.79,229.39,127.77,224.77,123.67Z"/><path class="cls-7" d="M156.6,115.75c-.82.89-1.38.28-1.9,0a27.39,27.39,0,0,1-12.32-13.14c-.38-.79-.75-1.7.23-2.21,1.15-.61,1.68.42,2.1,1.2C147.62,107.11,151.76,111.58,156.6,115.75Z"/><path class="cls-7" d="M157,131c-6.68-1.61-11.05-6-14.25-11.81-.44-.8-.9-1.9.18-2.44s1.63.55,2.1,1.31c3.19,5.12,6.89,9.72,12.48,12.42C157.6,130.91,157.49,131.14,157,131Z"/><path class="cls-7" d="M153.75,119.63a16.11,16.11,0,0,1-8.08-4.27,25.49,25.49,0,0,1-5.84-7.49,1.71,1.71,0,0,1,.25-2.3c.76-.59,1.29.15,1.6.67A50.35,50.35,0,0,0,153.75,119.63Z"/><path class="cls-8" d="M94.7,123.89a48.52,48.52,0,0,0-3.83,11.55c-2.21-3.51-2.46-7.09-2.52-10.7,0-.59.44-.85,1-.85Z"/><path class="cls-7" d="M88.67,149.19c1.1-.15.78.65.76,1.13a16.74,16.74,0,0,0,.93,6.36c.26.71.31,1.23-.58,1.56a1.27,1.27,0,0,1-1.73-.39,25.12,25.12,0,0,1-3.2-6.17c-.19-.52-.29-.94.37-1.18C86.39,150.07,87.55,149.61,88.67,149.19Z"/><path class="cls-9" d="M78.25,133.85a15.87,15.87,0,0,1-2.66-9c0-1,.58-1,1.34-.92,1.31.17,2.63.29,4.1.45A30.91,30.91,0,0,0,78.25,133.85Z"/><path class="cls-10" d="M151,88.08c.25-1-.25-2.63,1.4-3,.89-.22,4.12,2.66,4,3.4a2.9,2.9,0,0,1-3.09,2.67C151.3,91.13,150.94,89.83,151,88.08Z"/><path class="cls-11" d="M96.31,155.72c-3.74,1.74-4.08,1.56-4.65-3.33a10,10,0,0,1,0-1.46Z"/><path class="cls-11" d="M85.91,159.34l-3.84.72c-.14-2.42-.46-4.72.57-7.18Z"/><path class="cls-12" d="M229,60.27c-.5-.69-1.3-.23-1.91-.5a2.1,2.1,0,0,1,2.25-.35C230.38,60,229.35,60.07,229,60.27Z"/><path class="cls-13" d="M157,131l.51-.52c.46.13,1,.21,1.24.72A1.31,1.31,0,0,1,157,131Z"/></svg>