<svg id="Layer_1" data-name="Layer 1" xmlns="http://www.w3.org/2000/svg" viewBox="0 0 300 300"><defs><style>.cls-1{fill:#cb2229;}.cls-2{fill:#c12027;}.cls-3{fill:#6f1216;}.cls-4{fill:#7d1519;}.cls-5{fill:#ecad09;}.cls-6{fill:#fefefe;}.cls-7{fill:#ebad09;}.cls-8{fill:#e9ab09;}.cls-9{fill:#eaac09;}.cls-10{fill:#ebac09;}.cls-11{fill:#e6a909;}.cls-12{fill:#e8aa09;}.cls-13{fill:#dea308;}.cls-14{fill:#e7aa09;}.cls-15{fill:#e5a809;}.cls-16{fill:#d29a08;}.cls-17{fill:#d39b08;}.cls-18{fill:#bf2026;}.cls-19{fill:#dfa408;}.cls-20{fill:#be2026;}.cls-21{fill:#dca208;}.cls-22{fill:#e1a509;}.cls-23{fill:#765604;}.cls-24{fill:#ca9508;}.cls-25{fill:#cb9508;}.cls-26{fill:#513b03;}.cls-27{fill:#976f06;}.cls-28{fill:#030200;}.cls-29{fill:#0d0900;}.cls-30{fill:#100b01;}.cls-31{fill:#0d0a01;}.cls-32{fill:#0d0a00;}.cls-33{fill:#100c01;}.cls-34{fill:#130e01;}.cls-35{fill:#140f01;}.cls-36{fill:#0a0800;}.cls-37{fill:#110c01;}.cls-38{fill:#0f0b01;}.cls-39{fill:#140e01;}.cls-40{fill:#191201;}.cls-41{fill:#120d01;}.cls-42{fill:#151001;}.cls-43{fill:#150f01;}.cls-44{fill:#050400;}.cls-45{fill:#987006;}.cls-46{fill:#110d01;}.cls-47{fill:#1d1601;}.cls-48{fill:#d79e08;}</style></defs><path d="M23.74-.6H276.26a1,1,0,0,1,1,1V175.65A123.39,123.39,0,0,1,153.86,299h-7.5A123.62,123.62,0,0,1,22.75,175.42V.4a1,1,0,0,1,1-1Z"/><path class="cls-1" d="M150.15,2.47q60.79,0,121.59-.05c2.41,0,3.11.54,3.11,3q-.12,82.43-.06,164.83c0,34.52-12.29,64.1-36.54,88.47a120.64,120.64,0,0,1-71.82,35.41c-35.56,4.54-67.62-4.24-95.53-26.83-23.26-18.83-37.59-43.26-43.5-72.59a121,121,0,0,1-2.2-24.25q0-82.54-.05-165.08c0-2.58.83-3,3.16-3Q89.23,2.52,150.15,2.47Z"/><path d="M220.31,88.62a22.29,22.29,0,0,0,4.93,16.58c5.31,6.81,11.14,13.24,15.37,20.85,4.62,8.31,6.42,17.1,4,26.45-3.52,13.77-15.16,18.79-26.83,17.78-5.57-.48-10.6-2.74-15.93-5.75,1.07,6.42.91,12.57,4,18,2.54,4.42,6.7,5.6,11.34,3.44a21.6,21.6,0,0,0,6.83-5.6c4.39-4.94,9.16-9.3,16-10.64,4.7-.93,10.95,2,13.66,6.51,2.16,3.61,1.57,9.47-1.28,12.82-.84-.26-.67-1.11-.94-1.68-.64-1.37-1.42-2.66-3.12-2.54a3.34,3.34,0,0,0-3.18,2.85c-.53,4-2.4,7.84-1.19,12a.43.43,0,0,1,0,.25c-1.08,5.18-.87,10.6-3.65,15.47s-4.6,10-3.45,15.72a6.84,6.84,0,0,1-.1,3c-.72,2.73-.4,3.83,2.31,4.43s1.63,1.62.62,2.76c-.49.56-1.1,1.28-1.75,1.4-3.25.63-6.26,1.91-9.74,2.1-2.77.15-6.37,1.21-8.44,3.59-2.56,2.95-4.12,3.8-7.49,2-.94-.49-1.35-.14-2,.3a11.93,11.93,0,0,0-3.62,4.17c-2.5-2.39-2.9-4.73-1.56-8.12.25-.65,1.16-1.28.5-2s-1.69-.42-2.6-.15a9,9,0,0,0-4.82,3.94c-2-2.66-2.15-5.58-.32-8.21a3.91,3.91,0,0,0,.88-3.66,4.19,4.19,0,0,1-.07-1c-.06-1.55.4-3.1,1.82-3.65,3.06-1.19,4.18-6.22,8.82-4.29,3.31,1.38,6.4-.74,9.61-1,.86-.07.76-1,.61-1.68-.77-3.39-1.61-6.75-2.34-10.14-.39-1.84-1.44-1.91-2.79-1.17-2.66,1.48-5.14,3.42-8,4.45-4.18,1.52-5.92,3.85-6.72,8.49-1.37,7.93-6.52,13.6-14.22,16.6a6.48,6.48,0,0,0-1.87,1.26,14.4,14.4,0,0,1-11.86,3.29,10.72,10.72,0,0,1-9-12.35,4.27,4.27,0,0,1,1.78-3.29c1,3,2.51,5.4,6,5.31,2.7-.08,5.56-3.53,6.35-7.51-3.53,2.1-7,2.44-10.11-.23s-1.87-6.53-2.16-10c1.21.1,1.58,1,2.15,1.51,1.45,1.38,3,2.29,5,1.28s2.34-2.75,2.11-4.76a21.66,21.66,0,0,0-2.22-7A70.32,70.32,0,0,1,167,197.36c-1.69-6.87.06-13.45,2.14-19.93.95-3,2.07-5.83,3.2-9A10.79,10.79,0,0,0,165,172c-3.73,3.71-7.45,7.42-11.11,11.2A34.07,34.07,0,0,1,137.81,193c-1.41.37-3.63.32-3.57,2.54a6.09,6.09,0,0,0,3.25,5.4,6.79,6.79,0,0,0,4,.55c4.58-.33,8.21,1.63,11.37,4.69a7.33,7.33,0,0,1,2.63,5.09c0,3.94.43,7.93-.38,11.83-.86,4.1-4.23,6.3-8.56,5.72.32-.8.66-1.56.94-2.35.48-1.3.45-2.57-.81-3.4s-2.27-1.52-3.9-.47a11.66,11.66,0,0,1-8.49,1.91c-1.69-.29-2.3.23-2.12,2a5.65,5.65,0,0,1-1.23,3.54c-1.35,2.13-2.07,2.1-3.38.06-.68-1.07-1.46-2.09-3.14-2a9.65,9.65,0,0,1-1.45,7.28c-.68,1-1.21,1.08-1.66-.17a5,5,0,0,0-2.28-2.95c-1.07-.57-2.38-1.13-3.39-.54s.19,1.63.22,2.5a6.12,6.12,0,0,1-.29,2.75c-.52,1.2-.91,2.17-2.44.78-2-1.85-4.21-.89-6,.39s-4.07,2.5-3,5.45a4.52,4.52,0,0,1,.1.75c.22,1.28-1.79,2.5,0,3.86a14.39,14.39,0,0,0,3.84,1.92c-2.12,3.67-5.16,4.59-8.73,2.62a2.57,2.57,0,0,0-2.31-.39c-2.64.82-4.81-.09-6.52-2.22-.35-.43-.59-1.36-1.25-1-3.29,1.56-7.44-.18-10.37,3.2-1.94,2.23-5.84,1.92-8-.15-.87-.82-1.44-.53-2.22-.22-1.77.69-3,2.1-4.36,3.37-2.18-3.79-1.74-7.55,1.17-10.52.7-.71,1.85-1.37,1-2.49-.7-.94-1.89-.52-2.82-.14-1.15.47-2.25,1.1-3.37,1.66-1.58-4-.51-6.89,3.32-8.55a2.49,2.49,0,0,0,1.78-1.86,4.12,4.12,0,0,1,1.51-2.6c3.19-2.07,6.86-3.15,10.31-4.66,1.27-.56,2.61.53,3.7,1.32,2.6,1.9,5.66,2.1,8.66,2.57a2.39,2.39,0,0,0,2.34-1.25c3.51-4.79,7-9.57,10.48-14.39,1.36-1.89-.54-3.08-1.19-4.51-.47-1-1-1.46-2.52-1.33a38.94,38.94,0,0,0-10.23,2.23c-7.36,2.67-14,.31-18.79-6.14A8.27,8.27,0,0,0,65,201.17c-1.43-.37-3-.33-3.7,1.33s.41,2.7,1.75,3.45c.8.45,1.64.83,2.52,1.27-3,2.47-6.43,2.78-9.19.95a9,9,0,0,1-3.22-10.39c1.75-5,5.71-7.15,10.6-7.91a12.6,12.6,0,0,1,5.41.11c-1.19-4-1.73-7.72,1.58-10.52,2.56-2.16,5.59-1.38,8.53-.76.22.83-.57.92-.91,1.31-1.24,1.46-2,3-.79,4.83,1,1.5,3.52,1.94,5.3.94a13.76,13.76,0,0,0,5.73-6.62c1.12-2.46,2.14-5,3.17-7.48,1.73-4.21,4.63-7.14,9.25-7.8a32.28,32.28,0,0,0,16.21-7.26c5.36-4.35,11.76-5.87,18.54-5.85,6.18,0,12.37.25,18.55.37a135.29,135.29,0,0,0,20-1.36c1.3-.17,1.62-.62,1.7-1.88.4-5.93-3.79-8.72-7.88-11.43-2.67-1.76-5.9-2-9.06-2.05-3.39-.06-6.79,0-10.17-.22-3.78-.25-6.93-2.12-9.75-4.53-1.22-1-1.77-1-2.58.5a13.55,13.55,0,0,1-8.37,7,8.72,8.72,0,0,1-11.13-7.42c-.17-1.5.08-2.85,1.58-3.65a24.68,24.68,0,0,0,2.1,3.21c1.51,1.71,3.28,1.36,4.14-.77a5.92,5.92,0,0,0-.55-4.9c-.53-1.11-1.29-.47-1.93-.27a6.47,6.47,0,0,1-5.55-1c-1-.62-1.88-1.36-.15-2.3a1.83,1.83,0,0,0,1.18-1.82c-.21-1.06-1.29-.42-1.92-.74-2.14-1.12-3.71-.62-4.82,1.58a5.5,5.5,0,0,1-1.62,1.6c-2,1.61-2.43,1.49-3.3-.87-1-2.68-2-3-4.31-1.47s-4.51,1.22-6.84.58a34.16,34.16,0,0,1-3.55-1.37c-1.65.38-.27,1.92-1,2.64a5.16,5.16,0,0,0-.47,2.69c1,4.83-.4,6.75-5.78,7.87,2.18-5.47-2.12-6-5.63-7.23-.57,1.89-.84,3.52,1.17,5.15a5.28,5.28,0,0,1,.64,8.07c-2.19,2.4-2.23,3.36-.27,6,.34.47.7.94,1.06,1.41-3.34,1.86-7.22,1.13-9.18-1.85-.81-1.23-1.54-2-3.15-1.94a5.57,5.57,0,0,1-2.42-.66c-4.78-2.1-6.75-.81-6.69,4.43,0,.51,0,1,0,1.52-4.58-.5-7-3.48-6.37-8,.15-1.06.28-1.86-.61-2.72a4.64,4.64,0,0,1-1-4.31c.24-1.3.24-2.19-1.21-2.79s-2.67-.71-3.73.42a37,37,0,0,0-2.46,3.22c-3.56-4.4-3.19-8.34,1.11-11.89.58-.47,1.13-.79,1.19-1.75.28-4,2.58-5.69,6.48-4.73,6.12,1.49,11.09-.61,15.26-4.84,2.93-3,6.6-4.38,10.34-5.72C83.09,101,87.41,99.66,92,98.11c-7.67-3-10.52-7.2-10-14.57,3.09,2,6,4.54,10,3,2.55-1,4.26-2.88,5.86-5.46-3.4,0-6.07-.79-7.07-4a6.6,6.6,0,0,1,2-7.19c1,1.69,1.37,4,4.08,3.53,2.09-.36,2.43-1.25,1.24-2.94q-3.6-5.08-7-10.27a2.59,2.59,0,0,0-3-1.33c-2.84.38-5.69.44-8.55,1-2,.43-3.88-.87-5.26-2.87,1.83-.73,3.63-1.36,4.62-3.21,1.36-2.54.77-3.75-2-4a9.68,9.68,0,0,0-5.55,1.41c-4.46,2.33-7.27,1.22-8.76-3.51-.37-1.18-1-1.21-1.87-1a12.94,12.94,0,0,0-3.41.88C55,48.77,54.9,47.46,55,46a8.05,8.05,0,0,1,4.93-6.89c1.32-.65,2.52-1.19,2.73-2.94A2.41,2.41,0,0,1,64,34.4c3.87-.89,2.33-4.25,2.67-6.4.24-1.49-2.11-2.51-3.71-3-2.49-.73-1.92-1.63-.49-2.9a7.7,7.7,0,0,1,6.66-1.68,3,3,0,0,0,2.75-.51c1.88-1.48,3.92-1.19,5.87.18.6.41,1.12,1.94,1.9,1,1-1.28,3.46-1.39,3.24-3.81A10.5,10.5,0,0,0,80.48,12c3.8-.81,6.45.66,8.62,3.3.58.7.93,1.32,2.15,1.35a4.72,4.72,0,0,1,4.3,6.48,9.15,9.15,0,0,0-.22,5.15,25.2,25.2,0,0,1,.07,7.85A2.3,2.3,0,0,0,96,38.36c6.68,6.63,13,13.56,20.1,19.82,1.92,1.71,2,1.66,4.78,1.13-.14-1.93-1.61-3.55-1.3-5.9,5.39,5.08,10.86,3.09,16.3.5a27.32,27.32,0,0,1,6.53-2c4.16-.79,8.44-.5,12.61-1.27a6.31,6.31,0,0,1-2.33-.15A7.68,7.68,0,0,0,147,51a2.32,2.32,0,0,1-2.63,0,11.89,11.89,0,0,1-3.91-2.78c-1.89-2.11-1.83-2.94.34-4.75.43-.36,1.08-.57,1-1.53a15.62,15.62,0,0,0-4.63,1.66c-4.36,1.82-8.58,4-13.42,4.5-4.6.44-9-2.22-10.1-6.34a6.86,6.86,0,0,1,6.94-8.67c1.29,0,1.55.47,1.38,1.68-.7,5,1.41,6.76,6.26,5.08,2.4-.83,4.71-1.89,7.08-2.81.93-.37,1-.82.58-1.73-2-4.06-1.52-8,.62-11.91a4.81,4.81,0,0,0,.6-1.66c.43-3.48,2.79-5.13,5.83-5.92,4-1.05,8.2-1.21,12.33-1.53a15.7,15.7,0,0,0,5.84-1.49c5.51-2.69,11-1.3,16.23.79,5,2,11.3-.38,13.3-5.45.09-.24.19-.46.45-1.06,3,5.86,4.83,11.47,1.67,17.58-.51,1-.73,1.72.1,2.72,7.68,9.26,8.7,19.59,4.35,30.49-1.15,2.89-.57,5.61-.7,8.42-.35,7.36-3.84,13.41-8,19.15-2.8,3.83-5.66,7.62-8.4,11.49a9.19,9.19,0,0,0-1.93,6.19c.45,4.7,3.67,6.76,9.11,5.91-1.24,3.83-3.16,4.83-10.21,5.18,2.56,5.37,5.06,10.63,7.58,15.88,2.73,5.68,5.84,11,11.13,14.88,2.45,1.78,4,4.57,5.85,7,4.42,5.78,10,9.56,17.45,10.18,10.88.89,18.07-5.84,18.51-15.66.41-9-3.78-16.19-9.72-22.43-7.07-7.42-14.4-14.58-20.68-22.75C195.81,86.54,194.36,70.5,201,53.62,206.85,38.78,222.45,31,236.63,35.1c15.14,4.43,20.4,23.94,9.5,35.29a11.21,11.21,0,0,1-6.07,3.5,47.14,47.14,0,0,1-12.38.37c-3.51-.28-4.9-3.17-5.93-6.65,6.16,1.18,10.22-1.34,12.67-6.65,1.67-3.6,1.54-7.86-.25-10.63-2.07,9.86-5.08,13.16-11.79,12.78,1-1.53,2.15-2.86,2.6-4.62.58-2.31.36-4.44-1.42-6.1s-4-.9-5.93,0c-2.55,1.22-4.12,3.47-5.42,5.89a23.33,23.33,0,0,0-2.51,13.43c2.42-2.14,5.05-3.12,8.18-2.08,1,.35,1.68.63.51,1.57-5.73,4.56-6,10.2-3.24,16.43.44,1,.8,2,1.2,3.07,0,.06.12.1.43.33l2.95-3.94C221,87.2,220.33,88,220.31,88.62Z"/><path class="cls-2" d="M144.38,51a9.93,9.93,0,0,0,2-.43c3.85-1.63,5.07-1.64,9.64.14-4.56,1.82-9.12,1-13.59,1.15Z"/><path class="cls-3" d="M90.51,120.16a18.88,18.88,0,0,1,0-2.38c.08-.69.52-.69,1-.26C90.55,118.16,91.42,119.5,90.51,120.16Z"/><path class="cls-4" d="M220.31,88.62c-.22-.5.12-1.21-.58-1.52l.64-.66C221.09,87.18,220.78,87.9,220.31,88.62Z"/><path class="cls-5" d="M180.14,239.14c4.7-.39,7.62-3.24,8-7.91a16.85,16.85,0,0,0-.23-5.06c-.63-2.82-1.19-5.65-.4-8.54.18-.66.24-1.53-.66-1.61-.71-.06-.71.78-.86,1.35-.8,3.06-.2,6,.36,9s.71,6.11-1.28,8.79-5.37,3.07-7.5.94a1.59,1.59,0,0,1-.36-2.17c3.64-7.74,3.22-15.57.15-23.38-.22-.55-.36-1.56-1.3-1.12s-.29,1.2-.08,1.78c1.51,4.25,2.86,8.52,2,13.13s-5.34,7-9.13,4.89c-2.11-1.15-2.71-2.51-2.58-5.8.13-.06.31-.19.39-.15,2.21,1.2,4.42,1.78,6.65.08s2.48-4.12,2.07-6.66a24.48,24.48,0,0,0-2.29-6.7,74.48,74.48,0,0,1-4.2-11.42c-2.31-7.65-.35-15,2.2-22.1s5.35-13.91,6.14-21.4c.61-5.82,1.18-11.65.16-17.48-.19-1.1-.07-3.18-1.57-2.92-1.23.21,0,1.85.06,2.86.11,1.18.29,2.35.44,3.59-1.2-.21-1.71-1.17-2.31-1.9-3.74-4.53-8.68-6.25-14.36-6.4-4-.11-8,.25-11.93-.45-3.7-.66-6.37-3-9.17-5.2a1.27,1.27,0,0,1-.52-.83c.39-4.57-1.65-8.53-3.15-12.83,6,4.27,12.56,6.12,19.82,4.63a21.27,21.27,0,0,0,15.7-12.46c2,5.1,5.64,9.07,7.63,14a137.8,137.8,0,0,0,9.55,19,11.23,11.23,0,0,0,2.65,3.38c4.37,3.32,7.66,7.61,11.07,11.85,6,7.42,13.75,10.8,23.32,9.4a16.86,16.86,0,0,0,14.45-15.74c.76-9.59-3.29-17.29-9.52-24.06-4.48-4.86-9.29-9.42-13.75-14.3a99.76,99.76,0,0,1-11.38-15c-8.76-14.26-7.36-36.44,3.28-48.71,7.72-8.92,17.54-11.87,28.9-8.93,12.69,3.28,19.29,22.33,8,33-4,3.73-9.81,4-13,.43.7-.7,1.57-.33,2.33-.33a10.22,10.22,0,0,0,10.39-11.46c-.07-.61.13-1.61-.83-1.57s-.74.95-.71,1.61a9.46,9.46,0,0,1-2,6.89,8,8,0,0,1-9.33,2.31c3.19-3.23,5.64-6.78,5.7-11.49s-1-9-5.37-11.61A15.92,15.92,0,0,0,216,43.62c-.69.32-1.82.74-1.23,1.81.45.84,1.33.31,2,0a14.56,14.56,0,0,1,9-.79c3.88,1,5.89,3.43,6,7.42S229.46,60,226,61.05c-.28-.9.36-1.6.55-2.37,1.44-5.77-2.45-9.81-8.23-8.58-8.24,1.77-12.65,7.29-14.26,15.1-2.43,11.83,1.08,22.43,7.48,32.28.32.49.69,1.13,1.38.63.51-.37.21-.94,0-1.38-.76-1.32-1.59-2.6-2.32-3.93-5-9.07-7.2-18.6-4.57-28.86a16.89,16.89,0,0,1,5.34-8.87c.78.38.48.76.26,1.1a26.65,26.65,0,0,0-3.72,14.31c0,2.79.27,5.58-.27,8.36-.16.8-.49,2.25.76,2.3s.64-1.33.71-2.09c.23-2.79.91-5.36,3.25-7.16A3.9,3.9,0,0,1,216,71c-.58.77-1.14,1.48-1.67,2.22a12,12,0,0,0-1.9,11.3c.47,1.45.92,2.91,1.48,4.32,1.08,2.77,2.17,5.5,1.75,8.59a6.4,6.4,0,0,0,.28,2c.1.49.24,1.12.89,1s.75-.78.6-1.41c-.56-2.22-.3-4.32,1.18-7,.1,8.76,5.35,14.18,9.91,20a132.06,132.06,0,0,1,9.9,13.53c4.7,7.83,6.9,16.22,5,25.31-3.31,16-17.57,19.85-28.56,17.51a36.4,36.4,0,0,1-12.9-5.72c-3-2.06-4.54-5.19-6.07-8.31-.67-1.37-1.21-2.8-1.85-4.18-.2-.43-.42-1.05-1.09-.81-.83.3-.51.94-.28,1.48,1.44,3.33,2.58,6.91,5,9.64,2.22,2.47,2.75,5.31,3.13,8.34a68.62,68.62,0,0,0,2,10.73,13.94,13.94,0,0,0,3.09,5.77c1.25,1.34,1.93,2.75,1.25,4.6-.19.51-.54,1.27.26,1.5s1-.62,1.24-1.25.34-1.29.56-2.17a9.47,9.47,0,0,1,1,6.23c-.13.68-.32,1.55.57,1.67s.89-.89,1-1.49a7.46,7.46,0,0,0,.05-3c-.62-2-.17-2.8,2.09-2.87,3.78-.1,6.63-2.32,9.23-4.83s4.74-5.32,7.54-7.56a22.4,22.4,0,0,1,9.44-4.72,10.09,10.09,0,0,1,6.14.74c-5.44.55-8.63,3.46-11.58,6.81-1.42,1.62-3.48,2.39-5.43,3.22-.55.24-1.23.48-.88,1.24s1,.33,1.52.14a24.07,24.07,0,0,0,6.66-3.94c-.47,3.61-.81,6.77-4,8.65-.47.27-.93.55-.64,1.15.41.82,1,.35,1.51.1a7.15,7.15,0,0,0,3.64-4.67c.37-1.21.62-2.46.88-3.7,1.2-5.75,5.15-8.33,10.31-6.73,4.55,1.42,6.4,6.12,4.42,11.23-4.05-3.22-5-3.17-8.92.5a10.88,10.88,0,0,1-5.86,2.81c-.6.1-1.38.17-1.32.89.08,1,1,.67,1.61.61a17.78,17.78,0,0,0,4.56-1.49A9.68,9.68,0,0,1,236.58,200c-.5.16-1.12.17-1,.83s.81.76,1.42.69c2-.24,3.52-1.51,5-2.87,1.21,3.74-.13,7.66-3.42,10.5-.6.52-2.21.84-1.34,1.93.72.9,1.59-.36,2.34-.8a14.86,14.86,0,0,0,1.38-1.06,4.45,4.45,0,0,1-.89,3.63c-3,4.1-4,8.9-5,13.71-.22,1.06-.16,2.32-1.87,2a.82.82,0,0,0-1,.63c-.1.65.39.85.95.87,1.71.06,2.06,1.33,2.15,2.63s-.57,2-1.94,2.52c-2.9,1-3.65,3.49-1.94,6.37.91,1.52.34,1.71-1,1.71-3.11,0-4.92-3-4-6.47.18-.7,1.22-1.71-.12-2-1-.24-1.19,1-1.41,1.8a6.94,6.94,0,0,0,.24,4.73c.92,2.22.36,3.66-2,3.85a6.09,6.09,0,0,0-5.42,3.36c-1.27,2.21-4.09,1.78-5.18-.57a6.82,6.82,0,0,0-4-4c-1.92-.61-2.28-1.92-2-3.55.36-1.78,1.28-3.17,3.36-3.22a5.9,5.9,0,0,1,5.39,2.77c.36.54.66,1.75,1.61,1,.78-.62-.08-1.38-.46-2a19.24,19.24,0,0,0-1.37-1.68,26.36,26.36,0,0,1,7.6-2.82c.67-.14,1.92,0,1.74-1-.22-1.22-1.37-.6-2.13-.43a22.48,22.48,0,0,0-3.42.94c-2.83,1.12-5.56,2.11-8.8,1.73-2.93-.34-4.41,1.51-5.3,5.57a28,28,0,0,0-3.79-3.69c-1.25-.95-1-2.48-.15-3.64,1.16-1.56,3.14-2.12,4.5-1,2.59,2.08,5,1.39,7.58.46a18.55,18.55,0,0,1,5.95-1.21c.56,0,1.38.17,1.38-.68s-.89-.85-1.54-.84a19.79,19.79,0,0,0-6.92,1.5,5.55,5.55,0,0,1-5.86-.71c-1.51-1.08-.87-1.53.08-2.1a2.16,2.16,0,0,1,1.7-.22c3.67,1.69,7.13-.05,10.64-.57,2.65-.39,3.27-1.4,2.72-4.07s-1.22-5.62-1.9-8.42c-.73-3-.19-4.3,2.57-5.65a12.27,12.27,0,0,1,1.91-.65c.52-.15,1-.35.9-1s-.75-.62-1.25-.53a9.48,9.48,0,0,0-4.64,2.48c-.52.48-.88,1.44-1.83,1s-.64-1.47-.59-2.25a11.07,11.07,0,0,1,1.63-5c.32-.54.64-1.2,0-1.57s-1,.29-1.33.8a13.08,13.08,0,0,0-1.91,6.5c0,.71.36,1.59-.6,2-4,1.79-7.41,4.76-11.61,6.22-.49.18-.68-.11-.8-.5a16.42,16.42,0,0,0,1.07-7.69,1.53,1.53,0,0,1,.2-1.23c3-3.36,1.67-7.78,2.73-11.63.82-3-.65-5.81-2.92-8a8.42,8.42,0,0,1-2.67-4.74c-.56-3-3-4.55-5.57-5.75,2.51,1.36,4.85,2.89,5.18,6.06.1.93-.66,1-2,.87a19.59,19.59,0,0,1,5.67,4.43,8.59,8.59,0,0,1,2.13,7.06c-.21,1.77-.68,2-2.77,1.17,1.32,2.09,2.13,4.15,1.77,6.49-.15,1-.3,2.18-1.5,2.38s-1.54-.87-1.9-1.73a13.65,13.65,0,0,0-3.25-4.51,18.59,18.59,0,0,1,4.46,9.29c.36,2.09.59,4.24-.73,6.14-.44.63-1,1.26-1.89,1s-.63-1.07-.62-1.74c0-2.9-2.38-4.66-3.32-7.12a8.81,8.81,0,0,0,1.72,3.31c.94,1.55,1.85,3.2.62,5-1,1.51,1.09,1.41,1,2.37-.17,1.23.15,2.49-.21,3.71-.57,7.41-4.17,13-10.3,17.05-3.73,2.44-6.76,2.26-9.68-.23C178.92,238.8,179.5,238.92,180.14,239.14Z"/><path class="cls-5" d="M154,214.29a16.07,16.07,0,0,0-3.33-3.33,1,1,0,0,0-1.38,0,1,1,0,0,0,0,1.39c.61.7,1.31,1.31,2,2,4.25,4.58,2.94,12.07-2.13,12.8,1.16-4.78-2.06-6.15-5.62-7.26a14,14,0,0,1-4.29-2.14c-.67-.5-1.55-1.15-2.21-.21s.18,1.64.85,2.12a37.47,37.47,0,0,0,3.27,1.93c-6.17,3.08-10.66,1.47-13.63-4.85-.2-.45-.36-1.06-1-.87s-.51.78-.44,1.27c.27,1.91,1.43,3.38,2.48,4.93-4.33.77-6.52-.5-7.59-4.35-.16-.56-.18-1.34-1-1.24s-.6.9-.55,1.44c.07.74.23,1.47.36,2.2-3.58.05-5.4-2-4.9-5.57.09-.67.36-1.3.51-2,.11-.48.28-1.08-.37-1.28s-.84.37-1.08.82c-2.17,4,0,9.1,4.53,9.64,3.39.41,6.3,2.28,9.78,2.37,2.27.06,2.69,2.58,1,5.31-1.74-2.26-3.87-3.79-6.85-3.61-1,.06-2.33,0-2.55,1.17s1.19.76,1.83,1.13c2.11,1.25,1.35,3,.68,5.07-2.2-3-5.27-3.59-8.55-3.54-.84,0-1.86.05-2.22.92s.76,1.11,1.25,1.6c1.07,1,1.82,2.19,1.27,3.95-4.34-2.11-7.5-.21-10.41,2.79-1.23,1.26-1.86,2.6-1.3,4.34a2.18,2.18,0,0,1-1.47,3A4.5,4.5,0,0,0,98,249.23c-.58,1.66-1.94,2-3.51,1.74a2.74,2.74,0,0,1-2.46-3c0-1.27.11-2.54.1-3.81,0-.57-.06-1.23-.86-1.34a1,1,0,0,0-1.19.74c-.8,5.65-5.06,4.87-9,4.83a8,8,0,0,0,0-1.2c-.18-1.13,0-3.12-1.14-3-1.59.18-.21,1.76-.19,2.7a5.09,5.09,0,0,1-6.54,5,1.81,1.81,0,0,1-1.48-2,8.48,8.48,0,0,0-2.31-6,4.09,4.09,0,0,1,.41-5.64c1.66-1.72,4-2.05,5.66-.41a2.76,2.76,0,0,0,3.14.72c2.24-.59,4.55-.32,6.83-.34.58,0,1.34.11,1.4-.7s-.7-.81-1.28-.82a34.6,34.6,0,0,0-3.81,0c-2.47.21-4.78.49-7.17-1-1.93-1.2-3.22-.52-6.6,1.84-1.56-3.42-1.39-4.93.67-6.29s4.63-.86,6.83,1.66c.21.24.43.65.68.67,3.12.27,6.24.49,9.36.7a.54.54,0,0,0,.59-.65c-.1-.49-.57-.58-1-.62a36.59,36.59,0,0,0-6.31-.59c-2.14.15-2.91-1.47-4.13-2.49-.75-.62,0-1.27.54-1.62a3.26,3.26,0,0,1,4,0c2.62,1.89,5.6,2.6,8.74,3.13a5,5,0,0,0,5.47-2.19c3.11-4.33,6.36-8.57,9.35-13,1.41-2.09,2.91-2.6,5.1-1.51.5.25,1.19.71,1.57,0,.48-.9-.47-1.1-1-1.41a7.24,7.24,0,0,0-2.94-.72c-.48,0-1.12,0-1.22-.63s.53-.82,1-1.05c.89-.49,1.82-.88,2.73-1.34.38-.19.77-.47.59-1a.77.77,0,0,0-1.06-.41,14.43,14.43,0,0,0-2.55,1.1c-1,.59-1.7,1.23-2.6-.26-.8-1.31-.9-1.94.43-3a11.93,11.93,0,0,1,5-2.62c4.92-1.19,8.56-4,9.77-9.23a1.8,1.8,0,0,1,1.41-1.51c5.67-1.78,8.41-5.79,7.87-11.63a2.61,2.61,0,0,1,1.18-2.73c5.48-4.15,3.61-9.34.18-13.45-.33-.39-.74-.82-1.27-.43-.74.54-.14,1,.18,1.49a32.68,32.68,0,0,1,1.82,2.75c2,3.72,1.11,6.49-2.67,8.8a16.52,16.52,0,0,0-3.84-6.19c-.56-.52-1.15-1.75-2-1s.38,1.4.87,1.92c3.34,3.59,4.84,7.73,3.72,12.59-.68,3-2.31,5.25-5.42,6.16-1.06.32-1.67.3-1.75-1.14a17,17,0,0,0-2-6.78c-.23-.45-.52-1-1.12-.79-.84.3-.42,1-.24,1.49.47,1.35,1.11,2.66,1.46,4,1.85,7.27-1.91,12.89-9.6,14.21.59-1.43,1.19-2.77,1.68-4.14.23-.65.79-1.61-.28-1.93-.88-.26-.92.73-1.12,1.35a16.93,16.93,0,0,1-3.54,6.4c-2.13,2.29-4.6,3.86-8.27,3.5,1-1.17,1.8-2.1,2.56-3.08.32-.42,1-.88.32-1.5s-1,.08-1.43.47c-1.06,1.09-2,2.3-3.16,3.3-6.21,5.43-14.17,5.27-20.44-.6,3,.11,5.68.59,8.37,0A11.45,11.45,0,0,0,86.72,203c.47-.45,1.18-1,.53-1.69s-1,.12-1.43.46a13.63,13.63,0,0,1-15.46.47,27,27,0,0,0-3.27-1.93c-3-1.4-5.65-1.05-7,.82s-.8,3.57,1.58,6.19c-2.58.72-4.15.31-5.76-1.59a7.39,7.39,0,0,1-1.22-7.87c2.07-5.39,9.63-8.19,15.52-5.75a30.75,30.75,0,0,0,7.19,2.42,14,14,0,0,0,10.92-3.08c.54-.42,1.6-.82.8-1.73-.64-.72-1.23.13-1.71.5-4.32,3.35-8.86,3.86-13.74,1.27a7.35,7.35,0,0,1-4-6.12c-.38-3.67,2.3-5.95,6.29-5.55-1,4.19-.63,5.85,1.57,7.17,2.57,1.54,5.44,1,8.31-1.55a16.6,16.6,0,0,0,3.9-5.28,42.62,42.62,0,0,0,2.5-5.83c1.75-5.76,5.51-8.88,11.5-9.53a23.15,23.15,0,0,0,12.32-5.55,29.59,29.59,0,0,1,19.95-7q8.4.15,16.78.35a125.31,125.31,0,0,0,21.29-1.33c1.51-.22,2,.1,1.78,1.63a73.21,73.21,0,0,1-2.4,12.19,2.05,2.05,0,0,1-1.92,1.67c-3.46.46-6.09,2.36-8.45,4.78-3.44,3.52-6.93,7-10.36,10.51a32.27,32.27,0,0,1-15.44,9.32c-2.26.57-4.83,1.06-4.8,4.3a8.38,8.38,0,0,0,5.14,7,8.13,8.13,0,0,0,3.52.31c3.82-.36,7,1.15,9.75,3.54A8.39,8.39,0,0,1,154,214.29Z"/><path class="cls-5" d="M144.26,41.19c1.67,4,4.5,3.67,7.72,2.77a20.78,20.78,0,0,1,6.06-.51c1.93,0,1.84-1,1.52-2.22-.78-3-3-4.41-5.84-5a9.48,9.48,0,0,1-4.51-2.13c-4.38-3.81-6.43-3.76-10.71.13-.25.22-.51.42-.76.63-2.39-2.6-1.57-7.43-.25-10,.61-1.18,1.53-.75,2.41-.76,1.77,0,3.64.26,4.88-1.43.34-.46,1.06-1.13.23-1.74s-1,.22-1.35.67c-1.16,1.44-2.78,1-4.24.86-1.22-.15-.72-1.22-.45-1.8a6.15,6.15,0,0,1,4.52-3.36,77.33,77.33,0,0,1,11.84-1.43,18,18,0,0,0,6.57-1.67c4.91-2.41,10-1.39,14.47.8,4,1.95,7.12.8,10.53-.59a25.6,25.6,0,0,0,3.49-2.07c.21,3.44-.79,5.13-3.8,6.41-1.87.79-3.9,1.21-5.49,2.57-1.28,1.09-1.55,1.95.22,3.05,4.38,2.71,6.42,6.88,7.05,12.08-1.33-.48-1.41-2.71-2.48-2-1.43.93.4,2,.77,2.92,1,2.41,1.3,4.71-.3,7.23A39.79,39.79,0,0,0,184,38.21c-.31-.55-.55-1.44-1.45-.91-.75.45-.14,1.09.09,1.56,1.21,2.54,2.33,5.09,2.1,8s-1.8,4.26-4.95,4.47c2.2-2.58,2.29-5.4,1.34-8.36-.18-.57-.33-1.31-1.11-1.07s-.43,1-.33,1.52c.88,5,.41,6.25-3,7.78a11.84,11.84,0,0,0-.3-7.26c-.19-.49-.45-1.27-1.25-.87-.57.29-.29.87-.18,1.36a20,20,0,0,1,.61,3.23c.16,3.73-2,5.65-5.73,5.19a16.09,16.09,0,0,1-4.38-1.24c-.61-.26-1.52-1.16-2-.14s.82,1.2,1.5,1.55a18.86,18.86,0,0,0,6.35,1.55c-1.48,3.14-2.91,6.2-2.65,9.68.05.76-.5,1-1,1.35A10.41,10.41,0,0,0,164,70.06c-.78,1.9-2.31,1.7-3.58,1.28s-.45-1.78-.24-2.61c.9-3.65,3.13-6.52,5.67-9.18.43-.46,1.32-1,.71-1.65-.78-.89-1.36.11-1.84.59-3.19,3.26-5.74,6.89-6.46,11.55-.07.51.19,1.35-.72,1.35-.74,0-.82-.69-1-1.26a11.33,11.33,0,0,1,.06-6.27c.14-.57.83-1.42-.2-1.72s-1.09.8-1.3,1.46a13.58,13.58,0,0,0,.06,7.71c-1.5.11-1.59-.93-1.91-1.63a12.8,12.8,0,0,1-1-5.46c0-3.72.1-3.76,3.73-4.14a3,3,0,0,0,1-.16c.77-.38,2.34-.21,2.11-1.33-.26-1.32-1.48-.34-2.27-.2a17.43,17.43,0,0,1-5.81-.08,23.89,23.89,0,0,0-12.74,1c-3.27,1.25-6.71,2.41-10.35,2.26-2.52-.1-4.63-.92-5.55-4.13,6.14,1.85,11.19-.79,16.35-3,3-1.33,6.32-1,9.53-1a22.71,22.71,0,0,0,10.13-1.95c.62-.28,1.34-.36,1.32-1.28,0-1.09-.92-.75-1.5-.89-1.73-.4-3.47-.77-5.2-1.19-2.37-.57-4.63-.69-6.83.74-1.44.93-5.21-1.22-5.36-2.89-.06-.74.57-1,1-1.33C143.52,43.34,143.53,43.35,144.26,41.19Z"/><path class="cls-5" d="M58.43,125.52a107.43,107.43,0,0,0,6.44-9.93c3.35-5.44,7.72-9.4,14-11.46,9.55-3.12,19.21-5.92,28.74-10.06-.46,6,3.3,7.72,8.57,8.18-2.39,3.16-1.6,6.1-.23,9a31,31,0,0,1,1.21,3.07c.16.45.38,1.12.17,1.41-.41.59-1.09.17-1.61,0-1.62-.66-2.67-2-3.9-3.18-1.07-1-2-2.4-4-2,.5,2,2.69,2.74,2.93,4.6.28,2.11-1,3.44-2.71,4.68-1.3-3.09-3.29-5.26-6.56-5.93-.77-.15-1.84-.83-2.25.2s.78,1.24,1.51,1.57c.3.13.57.32.88.49-1.85,2-4.23,2.23-7,.7-2.08-1.13-3.89-2.73-6.16-3.52-.72-.24-1.45-.45-2.19-.62a1.07,1.07,0,0,0-1.29.56c-.26.57.08,1,.53,1.26a1.65,1.65,0,0,0,.44.26c2.16.7,3.6,2,3.2,4.45s-2.44,3.34-4.52,3.89c-2.61.69-3.9-.2-4.49-2.89-.14-.67-.19-1.43-1.06-1.5a1.76,1.76,0,0,0-1.59,1.09c-1.66,2.8-.9,7.69,1.52,10.08a4.07,4.07,0,0,1,1.15,4.63c-.67,1.73-2.07,1.94-3.74,1.83a7,7,0,0,0-5.43,1.71c-1.23,1.17-2.36.7-3.46.15a2.84,2.84,0,0,1-1.4-3,6.61,6.61,0,0,1,4.79-5.67c.67-.23,2.19.21,1.83-1.05s-1.57-.19-2.4-.14a6.48,6.48,0,0,0-1.3.36c.2-2.38.41-4.64.57-6.91,0-.63.28-1.56-.66-1.66s-.82.86-.85,1.48c-.18,4-.48,8-3,11.33a4.26,4.26,0,0,0-.56,2.45c-.08,2.18-1.37,2.93-3.28,1.84a21.65,21.65,0,0,0-5.07-2.3c-2.47-.68-3.28-2-2.71-4.52a4.17,4.17,0,0,1,4.77-3.16c1,.17,2.4,2,3,.41C61.62,126.29,58.33,125.64,58.43,125.52Z"/><path class="cls-5" d="M71.78,35.76c.89.35,1.59.63,2.3.89,3.76,1.41,3.75,1.4,3,5.25-.14.68-.78,1.73.2,2s1.2-1,1.36-1.74a12.06,12.06,0,0,1,3.71-6.77c.72-.64,1.23-1.46,2.25-.36s.11,1.64-.59,2.2a9.81,9.81,0,0,0-3.51,6.28c-.09.49-.27,1.08.36,1.31.82.31,1.07-.39,1.17-.94A10.14,10.14,0,0,1,86.39,37a1.3,1.3,0,0,0,.31-2,9.43,9.43,0,0,0-.56-.84c-3-4.08-3-4.08.63-7.13-1.93-.09-3.83.43-5.12-1.44-1.51-2.2-.58-4.88,2.09-5.11a15.33,15.33,0,0,0,5.77-1.76c1.6-.81,3.11-1,4.14.84a3.32,3.32,0,0,1-1.51,4.84c-.53.26-1.25.3-1.13,1.09s.74.58,1.21.49c1.15-.25,1.18.52,1.36,1.3a19.71,19.71,0,0,1,.25,8.33,4,4,0,0,0,1.37,4.18c6.66,6.65,13.07,13.55,20.09,19.84a8.74,8.74,0,0,1,.72.87,31.61,31.61,0,0,0-14.74,9.32c-.87,1-1.32.63-1.88-.19-2.64-3.83-5.26-7.69-8-11.49-.63-.89-.26-1.54.07-2.32A7,7,0,0,0,91,49.24c-.26-.44-.57-1-1.15-.75-.79.32-.47,1-.17,1.48a5.8,5.8,0,0,1,.76,4.16,4,4,0,0,1-3.32,3.4c-1.77.42-2.59-.52-3.36-1.91a17.85,17.85,0,0,0-2.06-2.57c-.54-.65-1.19-1.27-.65-2.24s1.31-1,2.15-1.14,2.23.91,2.05-.77c-.1-1-1.58-1-2.38-.71-3.11,1.1-6.21-.66-9.31.15-1.17.3-.79-.72-.77-1.33s.54-1.81-.44-2c-1.27-.2-1,1.16-1.06,1.86-.29,2.4-1.63,3.8-4,3.83-1.92,0-3.06-1.34-3.35-3.21a23.72,23.72,0,0,1,.06-2.79c0-2.12-.2-4.24-.23-6.35,0-1.44.31-2.86,1.94-3.16s3.34-.14,4.49,1.57c.47.71-.08,2.6,1.48,2C72.86,38.38,71.74,37,71.78,35.76Z"/><path class="cls-1" d="M150.26,73.2c5.76,0,11.53,0,17.29,0,1.67,0,2.43.31,2.36,2.2-.14,3.64-.11,7.29,0,10.93,0,1.61-.36,2.22-2.1,2.21q-17.79-.11-35.6,0c-1.46,0-2.15-.28-2.1-2,.11-3.81.11-7.63,0-11.44,0-1.66.65-2,2.1-1.93C138.22,73.24,144.24,73.2,150.26,73.2Z"/><path class="cls-1" d="M150.09,99.79c5.85,0,11.7.09,17.55-.05,2.13,0,2.31.64,1.91,2.5-2.94,13.41-19.87,19.43-31.59,11.18a18.24,18.24,0,0,1-7.62-11.6c-.32-1.56,0-2.09,1.69-2.07C138.05,99.84,144.07,99.79,150.09,99.79Z"/><path class="cls-5" d="M183.09,76.36c-5-2.25-6.37-6.43-3.72-11a71.85,71.85,0,0,1,4.47-6.15,8.7,8.7,0,0,0,1.75-3.63c.09-.54.3-1.3-.55-1.43-.61-.09-.8.5-.9,1a11.26,11.26,0,0,1-2.76,4.79c-3.47,4.15-6.49,8.39-3.5,14.67-3.74-3.16-4.82-6.64-3.44-10.4.64-1.73,1.62-3.34,2.42-5,.24-.5.76-1.11,0-1.53s-1,.33-1.33.81c-2.11,3.62-4.11,7.28-2.63,11.85-2.49-2.34-3.34-5.65-2.45-9.55A20.42,20.42,0,0,1,173,54.73c1.06-1.72,3.14-1.81,4.76-1.71,4.3.27,6.85-1.21,8.59-5.38a49.38,49.38,0,0,0,2.93-8,13.06,13.06,0,0,0-.83-9.1c-.49-1-.86-1.66.49-2.38s1.91-.9,2.94.35c9.11,11.06,7.32,24.77.84,34.76a13.11,13.11,0,0,1-9.08,5.84c1.29-2.86,3.41-4.8,5.24-6.95,3.28-3.88,4.74-8.17,3-13.17-.22-.65-.26-1.85-1.27-1.55s-.39,1.23-.16,1.89c1.5,4.26.41,8-2.36,11.36-1.18,1.44-2.42,2.83-3.64,4.24C181.59,68.35,180.09,71.94,183.09,76.36Z"/><path class="cls-5" d="M194.78,63.24a23.82,23.82,0,0,1-2.29,12.65c-2.28,5-5.66,9.21-8.94,13.51a56.66,56.66,0,0,0-5.49,7.91c-3.32,6.32-1,11.81,5.74,13.88-2.41,3.09-8.51.92-10.32-2.31-1.93-3.46-2-7.14-1.39-10.86a27.1,27.1,0,0,1,5.3-12.2,37.87,37.87,0,0,0,3-4.4c1.24-2.25,2.39-4.37,5.52-2.75a.84.84,0,0,0,1.26-.43c.22-.61-.31-.9-.72-1.17a6.7,6.7,0,0,1-3.34-4.27c-.18-.87-.42-1.78,1-2.09C188.46,69.8,191.81,67.34,194.78,63.24Z"/><path class="cls-6" d="M149.77,98.22c-5.92,0-11.85,0-17.77,0-1.34,0-1.88-.23-1.91-1.76C130,90,129.91,90,136.39,90c10.33,0,20.65,0,31,0,1.82,0,2.62.23,2.56,2.38-.16,5.84,0,5.84-5.94,5.84Z"/><path class="cls-5" d="M118.79,130.27c2,1.19,3.79,2.18,6.19,1.77,3.74-.63,5.86-2.72,6.18-6.56a17.31,17.31,0,0,0-2.1-9.3,34.88,34.88,0,0,1-3.74-13.09c0-.65-.53-1.77.73-1.71.87,0,2.17-.65,2.59.82,1.78,6.19,4.87,11.88,7,18,1.89,5.46.67,9.54-3.64,13.21C126.9,137.67,121.51,136.51,118.79,130.27Z"/><path class="cls-7" d="M120.12,34.64c-.27,6.38,2.8,8.68,8.65,6.69,4.3-1.47,8.32-3.7,12.91-4.38A25.86,25.86,0,0,1,153.91,38a5.73,5.73,0,0,1,3.47,2.88c-8.48-4.08-15.79-1.11-23.1,2.27-3.44,1.59-6.92,3.16-10.82,3.38A8.08,8.08,0,0,1,117,44.33a5.71,5.71,0,0,1-1.7-6C116,36,117.72,35.09,120.12,34.64Z"/><path class="cls-7" d="M117.1,76.53a60.87,60.87,0,0,0-10.1,13c-2.87,4.7-11,8.81-16.82,6.22-2.73-1.21-4.87-2.86-5.84-6.3a20.11,20.11,0,0,0,5.2,2.7,11.42,11.42,0,0,0,13-4.35c2.29-3.15,4.43-6.4,6.64-9.6a11,11,0,0,1,.92-1.21c1.17-1.22,2.17-3.06,3.58-3.48C115.66,72.94,115.11,76.13,117.1,76.53Z"/><path class="cls-7" d="M73.53,34.54c.15-.74,1.71-.94,1-1.9s-1.32.18-2,.39c-1.52.49-3.11.83-4.1-.8s-.59-3,.88-4.23a8.23,8.23,0,0,0,2.56-4.86c.32-1.64,1.12-2.67,2.86-2.56a3.31,3.31,0,0,1,3.2,3.06,4.91,4.91,0,0,1-.41,2.72c-.25.63-1.22,1.41-.15,1.92s1.13-.7,1.51-1.28a13,13,0,0,0,.59-1.18c2.06,2,4.59,4,3,7.12C80.41,36.8,78.89,36.86,73.53,34.54Z"/><path class="cls-7" d="M92.23,73.18c3.75,2.65,6.47,2.23,9.2-1.16A29.47,29.47,0,0,1,120.6,61.13a3,3,0,0,1,3.33,1.38c-4.87.69-7.91,4.74-12.42,6.21-3.17,1-5.32,3.83-7.72,6.09-1.6,1.51-3.1,3.14-5.2,4-1.74.7-3.42,1-5-.31S91.76,75.39,92.23,73.18Z"/><path class="cls-7" d="M85.52,87.87c7.27,2,10.66-2,14.31-6.74A39.57,39.57,0,0,1,113.06,69.6c.45-.22,1-.63,1.36-.14a1.33,1.33,0,0,1-.39,1.78c-5.88,3.88-8.73,10.22-12.64,15.67C98.47,91,91.27,93.23,85.52,87.87Z"/><path class="cls-7" d="M56.93,118.16c-2.07-3.27,1.13-2.8,2.86-3.29,1.25-.34,2.94-1.77,3.61-.84s-.93,2.42-1.63,3.58c-2,3.41-4,6.83-7.69,8.92-1.87,1.07-2.85.36-3.28-1.1a47.77,47.77,0,0,0-2.46-7.69c-.64-1.32.15-2.51,1.61-2.93,1.83-.54,3.58-.38,4.67,1.44a10.3,10.3,0,0,1,.78,2.39c.16.58.27,1.27,1.07,1.1S56.94,119,56.93,118.16Z"/><path class="cls-7" d="M164.22,235.88c3.3,3.21,6.44,4.45,10,1.63.65-.51,1-.37,1.3.35a9.61,9.61,0,0,0,7.13,5.51c-4.44,3.23-8.88,4.06-13.62,1.9C165.33,243.57,164.48,240.17,164.22,235.88Z"/><path class="cls-8" d="M145.58,68.93c-2.26,1.77-4.9,2.16-7.64,2.21s-5.58,0-8.37.16c-4.49.26-8.11,2.1-10.24,6.45a6.58,6.58,0,0,1,5.19-8.85c4.3-.86,8.71-1.13,13.07-1.63a1.43,1.43,0,0,1,1,.2C140.63,69.15,143,69.27,145.58,68.93Z"/><path class="cls-9" d="M139.14,65.83a17,17,0,0,0,8.37-2.26c.49-.26,1.24-.53.84-1.29s-1-.29-1.53,0a15,15,0,0,1-7,2.07c-1.84,0-3.49-.41-4.59-2.35,4.28-1.3,8.24-3.33,12.79-2.43,1,.2,2.64-.41,2.9.85a6,6,0,0,1-.65,4.64C148.51,67.54,142.19,68.11,139.14,65.83Z"/><path class="cls-7" d="M125.49,89.38c.27,7.45-2.84,11-9.52,11.11-4.5.08-6.71-1.64-6.69-5.32C116.61,98.94,120.74,93.71,125.49,89.38Z"/><path class="cls-9" d="M136.88,65.9c-3.19.3-6.18.59-9.17.85-5,.44-9,2.22-10.5,7.55a5,5,0,0,1,1.11-7.63,20.16,20.16,0,0,1,9.9-3.49,5,5,0,0,0,1.51-.06C132.81,61.8,134.81,63.39,136.88,65.9Z"/><path class="cls-10" d="M109.88,92.9c4.13-2.38,8-4.76,10.57-9.18.79.92,1.26,1.93,2,2.25,2.64,1.12,1.77,2.33.37,3.78-2.21,2.26-4.57,4.24-7.73,5.06A4.42,4.42,0,0,1,109.88,92.9Z"/><path class="cls-10" d="M192.65,15.42c.46,4,.26,7.81-3.17,10.66-1.41,1.18-2.62,1.92-4-.23-.78-1.22-2.19-2.05-3.42-3.14,1.26-1.39,3-1.7,4.64-2.34,2.56-1,4.61-2.49,5.11-5.44C192.43,14.51,192.48,15.07,192.65,15.42Z"/><path class="cls-9" d="M107.48,92c2.55-4.22,4.87-8.58,8.46-12,.57-.54,1-2,2-1.23a3,3,0,0,1,1.42,3.53,9.48,9.48,0,0,1-2,3.21A24.91,24.91,0,0,1,107.48,92Z"/><path class="cls-8" d="M120.29,121.92c3.88-3.9,4.43-6.44,2.18-11.6a22.41,22.41,0,0,1-1.77-7.61c-.08-1.21.39-2,1.61-2.16s1.35.89,1.4,1.87a42.16,42.16,0,0,0,1.92,9.68c1,3.24.79,6.38-2.06,8.81A3.85,3.85,0,0,1,120.29,121.92Z"/><path class="cls-8" d="M181,77.57c-2.27,3.41-3.91,7-7,9.5-.57.45-1.23,1.24-2,.87s-.49-1.41-.35-2.07c.75-3.62,2.92-6.58,4.73-9.7.33-.58.88-.23,1.34,0Z"/><path class="cls-8" d="M119.27,101.74c-.34,4.3,1.41,7.87,2.63,11.6a5.57,5.57,0,0,1-1,5.74c-.29.31-.59.62-1.08.49s-.39-.48-.37-.8c.22-3.72-1.76-6.8-2.92-10.12C115.56,105.81,116.27,103.8,119.27,101.74Z"/><path class="cls-11" d="M127.45,117.06c3.54,5.63,2.87,11.32-1.55,13.18a7.64,7.64,0,0,0-.19-7.34,1.66,1.66,0,0,1,.19-2.06A9.9,9.9,0,0,0,127.45,117.06Z"/><path class="cls-12" d="M123,84.51c-1.94-2.21-2.69-4.33-1.79-6.65,1-2.55,3.17-3.87,5.74-4.54.53-.14,1.31-.41,1.42.48s.4,1.6-.59,2.23C123,79.06,123,79.09,123,84.51Z"/><path class="cls-13" d="M123.88,99.31c5.18-5.08,2-11.78,4.31-17.25,0,5.32.2,10.66-.1,16C128,99.93,126,99.69,123.88,99.31Z"/><path class="cls-12" d="M44.46,128.62a5,5,0,0,1-.47-4.75c.65-1.64,2-3.6,3.41-3.31,1.66.34,1.14,2.84,1.53,4.41.13.56-.15.77-.62.86A6.22,6.22,0,0,0,44.46,128.62Z"/><path class="cls-8" d="M64.6,252.4a6.49,6.49,0,0,1,.67-5.09c.66-1.06,1.5-2.61,2.68-2.28,1.45.42,1.86,2.21,2.16,3.7.14.69-.14,1.07-.87,1.23C67.58,250.32,66.25,251.37,64.6,252.4Z"/><path class="cls-14" d="M78.58,143.4a4.93,4.93,0,0,1-5.74-2.73c-.27-.51-.93-1.21-.25-1.8a5.23,5.23,0,0,1,3.57-1c1,0,.94.74,1,1.4A9.35,9.35,0,0,0,78.58,143.4Z"/><path class="cls-11" d="M56.72,45.71a5.11,5.11,0,0,1,2.08-4c1-.78,2.31-2.11,3.19-1.52,1.1.75.42,2.6.52,4,.06.87-.64.79-1.21.88C59.83,45.22,58.36,45.46,56.72,45.71Z"/><path class="cls-15" d="M54.83,139.08c.11-1-.13-2.32.8-2.52,1.2-.25,2.43.57,3.46,1.29s-.17,1.31-.23,2a3.38,3.38,0,0,1-.36.94c-.38.87.16,2.58-.9,2.55-1.49-.05-2.25-1.58-2.65-3A7.18,7.18,0,0,1,54.83,139.08Z"/><path class="cls-15" d="M238.56,240.27a4.27,4.27,0,0,1-3.2,1.71,2.86,2.86,0,0,1-2.79-1.35,2.49,2.49,0,0,1-.18-2.84c.66-1.06,1.42-1.78,2.44-.31C235.71,238.75,237.16,239.32,238.56,240.27Z"/><path class="cls-14" d="M63.62,23.23a5.51,5.51,0,0,1,3.85-1.36c3,0,3.45.78,2,3.43-.67,1.2-1.25,1.63-2.42.45A30.53,30.53,0,0,0,63.62,23.23Z"/><path class="cls-11" d="M231.48,72.79c-2.72.33-5,.27-6.65-2-.69-.93-.68-1.52.7-1.5a4.37,4.37,0,0,0,1.74-.15c1.63-.71,2.41-.14,2.84,1.49A9.11,9.11,0,0,0,231.48,72.79Z"/><path class="cls-11" d="M206.39,252c-.89-2.2-.16-4,.78-5.67.22-.4.43-1.07,1.08-.83a4.52,4.52,0,0,1,2.39,2.17c.34.62,0,.91-.45,1.23Z"/><path class="cls-11" d="M61.09,241.27A3.86,3.86,0,0,1,63,237.19c.77-.47,1.68-1.27,2.5-.76s.89,1.91,1,3c.1.68-.28.91-.88.84C64.08,240.06,62.71,240.8,61.09,241.27Z"/><path class="cls-16" d="M171.71,72.17c4.12,3,4.12,3,0,8.59Z"/><path class="cls-15" d="M198.54,245.53a4.52,4.52,0,0,1,.47-4c.45-.77.83-1.94,1.89-1.8s1.64,1.35,2.26,2.25c.42.6.11,1-.45,1.12A13.18,13.18,0,0,0,198.54,245.53Z"/><path class="cls-17" d="M150.68,67.2c1.84,4.41,1.84,4.41-2.6,4.41h-3.3A30.5,30.5,0,0,0,150.68,67.2Z"/><path class="cls-11" d="M105.34,251a4,4,0,0,1-4.65.69c-.6-.28-1.64-.46-1.42-1.47a3,3,0,0,1,1.53-2.2c1-.49,1.31.3,1.85.79C103.45,249.55,104.31,250.19,105.34,251Z"/><path class="cls-18" d="M146.06,40.93A10,10,0,0,1,155,42.17a34,34,0,0,0-6.54.89C147,43.47,146.8,41.78,146.06,40.93Z"/><path class="cls-19" d="M83.59,13.41a6,6,0,0,1,3.25,1.67c.65.62,1.68,1.24,1.45,2.18s-1.46,1-2.29,1.3c-1,.43-1.64.23-1.56-1C84.54,16.13,83.79,14.86,83.59,13.41Z"/><path class="cls-15" d="M165,71.49c.6-1.06.88-1.66,1.26-2.19.68-1,1.53-2.52,2.47-2.19s1.29,2,1.8,3.1c.42.94-.3,1.23-1,1.26C168.15,71.53,166.8,71.49,165,71.49Z"/><path class="cls-20" d="M139.85,35.6c3-3.4,4.87-3.52,7.79-.54C144.93,35.24,142.36,34.94,139.85,35.6Z"/><path class="cls-21" d="M77,57.72A9.51,9.51,0,0,0,80.39,54c1,1.13,2.34,1.8,2.08,3.25C82.29,58.27,79.47,58.54,77,57.72Z"/><path class="cls-22" d="M125.43,85.26c-1.79-4.17-.77-6.79,3.17-7.52A17.26,17.26,0,0,0,125.43,85.26Z"/><path class="cls-19" d="M86.6,128.5c-.23-.76-.41-1.46-.64-2.14a2.35,2.35,0,0,1,2.11-3c.72,0,.75.55.81,1A3.64,3.64,0,0,1,86.6,128.5Z"/><path class="cls-23" d="M198.93,223c0-1.35-.08-2.71-.13-4.06a1.37,1.37,0,0,1,1.44-.47,1.24,1.24,0,0,1,.67.43C198.52,219.41,199.89,221.74,198.93,223Z"/><path class="cls-24" d="M172.09,92.39c-.32-1.32-.68-2.11.24-2.68a.41.41,0,0,1,.41.1C173.21,90.74,172.35,91.19,172.09,92.39Z"/><path class="cls-25" d="M180.14,239.14c-.45.13-.95.16-1.19.65-.37-.16-.91-.57-.7-.8C178.84,238.32,179.52,238.81,180.14,239.14Z"/><path class="cls-26" d="M192.65,15.42l-.84-.49c-.1-.42-.06-1.2.09-1.15A1.3,1.3,0,0,1,192.65,15.42Z"/><path class="cls-27" d="M200.91,218.87l-.19,0-.18,0c-.19-1.2.52-1.21,1.37-1l.54.53A1.6,1.6,0,0,1,200.91,218.87Z"/><path class="cls-28" d="M201.91,217.85c-.51.26-1.11.42-1.37,1l-1.74,0c-1.23-.25-3.24.05-1.19-2.16,1.21-1.29.4-2.72-.36-4a17.66,17.66,0,0,1-2.43-4.42c-.15-.55-.44-1.29.25-1.58s1,.42,1.17,1a13.16,13.16,0,0,0,1.91,3.56c1.19,1.77,2.18,3.6,1,6.13a3.5,3.5,0,0,0,2.71-3.73,16.14,16.14,0,0,0-4.53-12c-.48-.5-1.59-1-.89-1.78.87-1,1.49.24,2,.74a17,17,0,0,1,4,6.7c1.77-1.48,1.74-3.19,1.38-4.9a22.08,22.08,0,0,0-1.12-2.8c-.3-.87-2-1.7-.93-2.47,1.28-.95,1.4,1.23,2.35,1.59,1.28-2.32.91-5.32-1-7.85a17,17,0,0,0-5.5-4.43c-.62-.34-1.8-.58-1.34-1.49s1.32,0,2,.23c.28.11.55.26,1.13.54-.53-3.39-2.62-4.93-5.08-6.2-.59-.3-1.91-.26-1.47-1.29s1.54-.26,2.17,0c3.15,1.58,5.77,3.66,5.81,7.6,0,1.06.76,1.44,1.38,2,3.76,3.28,5.06,7.3,3.58,12.1a7.25,7.25,0,0,0-.26,3.23c.18,1.37.21,3-.79,3.86-1.88,1.63-1.48,3.54-1.36,5.52A6.89,6.89,0,0,1,201.91,217.85Z"/><path class="cls-29" d="M180.77,201.86a1.34,1.34,0,0,1,.83.86,35.49,35.49,0,0,0,3.64,6.86c.31.43.58.91,0,1.31s-.93-.06-1.22-.44a32.47,32.47,0,0,1-4-7.53A.71.71,0,0,1,180.77,201.86Z"/><path class="cls-30" d="M175.59,205c-.13.27-.19.58-.36.67a.87.87,0,0,1-1.12-.3,13.72,13.72,0,0,1-2.72-6.71.69.69,0,0,1,1.32-.36A17.24,17.24,0,0,0,175.59,205Z"/><path class="cls-31" d="M188.65,208.5c.06.53,0,.88-.38,1a.76.76,0,0,1-.67-.17,20.82,20.82,0,0,1-3.53-7c-.1-.33,0-.75.36-.81a1,1,0,0,1,.85.33A46.66,46.66,0,0,0,188.65,208.5Z"/><path class="cls-32" d="M196.86,176.12a.62.62,0,0,1-1.07.46,22.37,22.37,0,0,0-5.93-3.7,1,1,0,0,1-.41-.78c0-.36.37-.5.73-.53,1.17-.09,6.35,3.25,6.63,4.29C196.83,175.94,196.84,176,196.86,176.12Z"/><path class="cls-29" d="M190.76,206c0,.65.08,1.15-.41,1.3-.65.2-.92-.34-1-.83a17.42,17.42,0,0,0-2.06-5.63c-.21-.38-.34-.86.06-1.14s.94,0,1.21.45A16.13,16.13,0,0,1,190.76,206Z"/><path class="cls-33" d="M180.6,207.15c-.15.92-.62,1.26-1.08.8a13.71,13.71,0,0,1-3.43-6.11.57.57,0,0,1,.46-.76c.22,0,.61,0,.67.14C178.24,203.33,179.1,205.53,180.6,207.15Z"/><path class="cls-33" d="M194.29,169.5c0,.58-.41,1-.94.62a31.15,31.15,0,0,0-5.47-3.12c-.51-.26-.46-.87.23-1.1C189.23,165.54,194.15,168.37,194.29,169.5Z"/><path class="cls-34" d="M187.55,160.88c.74-.06,5,2.71,5.1,3.29a.92.92,0,0,1-.12.69.64.64,0,0,1-.89.15c-1.47-1-2.95-1.91-4.39-2.92-.18-.12-.21-.59-.16-.88S187.45,161,187.55,160.88Z"/><path class="cls-35" d="M192.16,191.82c1,.14,2.8,4.56,2.22,5.31-.41.54-.88.47-1.14-.14-.61-1.39-1.18-2.79-1.74-4.2C191.24,192.14,191.57,191.86,192.16,191.82Z"/><path class="cls-36" d="M192.77,201.38c0,.58.15,1.19-.59,1.23-.49,0-.74-.38-.81-.8a13.06,13.06,0,0,0-1.52-4c-.24-.43-.51-1,0-1.34s.94.12,1.19.56A12.32,12.32,0,0,1,192.77,201.38Z"/><path class="cls-35" d="M190.4,159.2c-.16.14-.45.55-.61.51a7.78,7.78,0,0,1-3.55-2.14c-.25-.26-.07-.63.27-.8C187.13,156.44,190.39,158.36,190.4,159.2Z"/><path class="cls-37" d="M138.32,167.54c-.46.82-1,.41-1.4,0a15.62,15.62,0,0,1-2.75-3.93.77.77,0,0,1,.17-1.11.63.63,0,0,1,.9.17q1.53,2.16,3,4.37C138.34,167.16,138.3,167.36,138.32,167.54Z"/><path class="cls-38" d="M131,163c.58.08.79.57,1.07,1,.66,1,1.32,1.93,1.95,2.9.32.49,1.27.95.38,1.61-.57.43-1.12-.15-1.45-.61-.83-1.15-1.59-2.35-2.36-3.53C130.14,163.7,130.19,163.21,131,163Z"/><path class="cls-39" d="M146.23,165.63c-.31.87-.77,1-1.36.5a9.67,9.67,0,0,1-2.57-3.35c-.29-.63.06-1.53.63-1A29.66,29.66,0,0,1,146.23,165.63Z"/><path class="cls-34" d="M146.94,161.42a1.33,1.33,0,0,1,1.09.72c.51.66,1.05,1.3,1.55,2s1.64.93,1,1.71c-.78.93-1.5-.14-2-.67a19,19,0,0,1-2-2.58A.74.74,0,0,1,146.94,161.42Z"/><path class="cls-40" d="M155.55,164.48c0,.69-.35,1-.8.88a3.38,3.38,0,0,1-1.31-.69c-.93-.77-2.13-1.37-2.29-2.77,0-.34.48-.65.71-.47C153.15,162.42,154.39,163.5,155.55,164.48Z"/><path class="cls-41" d="M142.09,166.17c-.13.6-.44.93-.91.73a3.22,3.22,0,0,1-1.16-1c-.8-1-2-1.91-1.86-3.43,0-.3.61-.47.84-.21C140.08,163.59,141.1,164.92,142.09,166.17Z"/><path class="cls-42" d="M159.46,163.23c-.12.74-.4,1.15-.86,1a5.27,5.27,0,0,1-3-2.21c-.24-.44.28-1,.6-.83A38,38,0,0,1,159.46,163.23Z"/><path class="cls-43" d="M162.74,162.06c0,.57-.31.95-.78.77a3.57,3.57,0,0,1-2.21-1.88c-.19-.47.34-.81.76-.67A3.9,3.9,0,0,1,162.74,162.06Z"/><path class="cls-44" d="M164.3,26.92a2.14,2.14,0,0,1,1.94,1.51c-1.63.19-3.33-1.33-4.61.55-.14.21-.59-.44-.84-.77-.92-1.25.15-3.47-2-4.14-.05,0-.1-.21-.08-.22,2.26-1.32.36-2.49-.05-3.79-.27-.91.49-1.59,1.32-1.94,1.21-.52,2.45-1.35,3.81-.83.69.27.31.78-.24,1.06-.85.43-2,.3-2.8,1.39,1.7.17,3.17.29,4.64.48a7.06,7.06,0,0,1,3.65,1.66c.64.54,1.5,1.19,1.1,2.08-.49,1.08-1.42.34-2.2.18a12.14,12.14,0,0,0-7.06.54c1.73.27,2.82.39,3.88.63.44.1,1.13.35.86,1s-.9.21-1.38.23h-.41C163.89,26.77,164.14,26.8,164.3,26.92Z"/><path class="cls-45" d="M164.3,26.92a5.14,5.14,0,0,1-2.63-.27,1.67,1.67,0,0,1,2.58-.13A.78.78,0,0,1,164.3,26.92Z"/><path class="cls-43" d="M105.36,105.7a12.29,12.29,0,0,1,3.46,1.33.81.81,0,0,1,.45,1c-.22.47-.69.41-1.1.27-1.27-.44-2.52-.92-3.8-1.34-.48-.16-1.13-.22-1-.86S104.18,105.43,105.36,105.7Z"/><path class="cls-37" d="M109.7,103.39c.89.38,2.13.89,3.36,1.43.38.17.79.43.6,1a.75.75,0,0,1-1,.43c-1.43-.52-2.85-1-4.26-1.58-.45-.17-.73-.6-.47-1S108.8,103.3,109.7,103.39Z"/><path class="cls-46" d="M99.64,107.26a7.51,7.51,0,0,1,4.14,1.59c.28.27,0,.88-.15.84-1.45-.28-2.88-.66-4.3-1-.47-.12-1.17-.16-1.09-.8S99,107.16,99.64,107.26Z"/><path class="cls-40" d="M95.19,108.87a3.22,3.22,0,0,1,1,.14c1,.45,2.92.52,2.51,1.84-.46,1.49-1.59-.31-2.48-.29a6.6,6.6,0,0,1-1.25-.17c-.58-.1-1.34-.16-1.23-.94S94.65,109,95.19,108.87Z"/><path class="cls-47" d="M91.1,110.68c1,.4,2.4.22,2.69,1.7.08.38-.57.78-.93.49-1-.82-2.9,0-3.25-1.69C89.48,110.59,90.44,110.57,91.1,110.68Z"/><path class="cls-48" d="M165.36,22.3a5.75,5.75,0,0,1-3.16.68c-.58.06-1-.18-1-.83s.41-.85,1-.81C163.27,21.41,164.42,21.27,165.36,22.3Z"/></svg>