<svg id="Layer_1" data-name="Layer 1" xmlns="http://www.w3.org/2000/svg" viewBox="0 0 300 300"><defs><style>.cls-1{fill:#2660ac;}.cls-2{fill:#e4e4e4;}.cls-3{fill:#020303;}.cls-4{fill:#040607;}.cls-5{fill:#060e19;}.cls-6{fill:#07090b;}.cls-7{fill:#0d1015;}.cls-8{fill:#090c0f;}.cls-9{fill:#0a0c0d;}.cls-10{fill:#0d0f13;}.cls-11{fill:#121518;}.cls-12{fill:#060f19;}.cls-13{fill:#060f1a;}.cls-14{fill:#0f1318;}.cls-15{fill:#161a2b;}.cls-16{fill:#121519;}.cls-17{fill:#121314;}.cls-18{fill:#0e1218;}.cls-19{fill:#0f1319;}.cls-20{fill:#181d2f;}.cls-21{fill:#181e33;}.cls-22{fill:#101528;}.cls-23{fill:#171c2f;}.cls-24{fill:#11182c;}.cls-25{fill:#10141a;}.cls-26{fill:#fefefe;}.cls-27{fill:#4db941;}.cls-28{fill:#20202d;}.cls-29{fill:#0e130d;}.cls-30{fill:#11181d;}.cls-31{fill:#2a2a35;}.cls-32{fill:#5d5d60;}.cls-33{fill:#152320;}.cls-34{fill:#30742b;}.cls-35{fill:#666669;}.cls-36{fill:#225121;}.cls-37{fill:#4cb840;}.cls-38{fill:#131313;}.cls-39{fill:#4cb941;}.cls-40{fill:#070b09;}.cls-41{fill:#1d1d1d;}.cls-42{fill:#fdfdfd;}.cls-43{fill:#1c1c1c;}.cls-44{fill:#1c1c29;}.cls-45{fill:#091615;}.cls-46{fill:#081414;}.cls-47{fill:#242633;}.cls-48{fill:#242431;}.cls-49{fill:#1b1b1b;}.cls-50{fill:#161d22;}.cls-51{fill:#282835;}.cls-52{fill:#2a2a37;}.cls-53{fill:#32323e;}.cls-54{fill:#262632;}.cls-55{fill:#0e0e14;}.cls-56{fill:#272734;}.cls-57{fill:#252531;}.cls-58{fill:#2b2b37;}.cls-59{fill:#0a1415;}.cls-60{fill:#182223;}.cls-61{fill:#1c2827;}.cls-62{fill:#111610;}.cls-63{fill:#242424;}.cls-64{fill:#151515;}.cls-65{fill:#282828;}.cls-66{fill:#141414;}</style></defs><path d="M23.74-.6H276.26a1,1,0,0,1,1,1V175.65A123.39,123.39,0,0,1,153.86,299h-7.5A123.62,123.62,0,0,1,22.75,175.42V.4a1,1,0,0,1,1-1Z"/><path class="cls-1" d="M273.73,4.82c-1.57,2.9-2.9,5.39-4.25,7.87-7.07,12.92-14.17,25.82-21.18,38.77a3.22,3.22,0,0,1-3.43,2c-3.27-.13-6.56.12-9.82-.08-2.37-.15-3.67.64-4.83,2.76-8.84,16.17-17.85,32.25-26.71,48.41a3.45,3.45,0,0,1-3.6,2.13c-3.53-.14-7.07.06-10.6-.09a3.45,3.45,0,0,0-3.59,2.15c-9,16.11-18,32.15-27,48.25a3.48,3.48,0,0,1-3.63,2.11c-3.62-.13-7.25.07-10.86-.08a3.83,3.83,0,0,0-4,2.35c-8.54,15.75-17.24,31.41-25.76,47.16-1.25,2.31-2.57,3.43-5.32,3.2-3.42-.28-6.89,0-10.33-.1a3.1,3.1,0,0,0-3.23,1.87C86.73,229.25,77.78,245,69,260.76c-1.11,2-1.7,2.45-3.59.69C45.1,242.56,32.3,219.61,27.46,192.28a118.16,118.16,0,0,1-1.58-20.58q0-81.84-.05-163.68c0-2.61.63-3.27,3.26-3.27q120.89.12,241.78.07Z"/><path class="cls-2" d="M274.16,9.49v2.24q0,79.91,0,159.81c0,53.41-33.67,100.16-84.79,115.53-39.25,11.81-77,7.36-111.62-15.83-2.36-1.58-4.51-3.47-6.85-5.07-1.52-1-1.63-1.91-.7-3.55,8.53-14.93,17.06-29.88,25.32-45,1.67-3,3.43-4.4,6.91-4,3,.32,6,0,9,.1a3.35,3.35,0,0,0,3.58-2.08c8.73-16.1,17.6-32.13,26.34-48.23a3.74,3.74,0,0,1,4-2.31c3.61.17,7.24-.08,10.86.1,1.93.09,2.86-.67,3.76-2.29,8.94-16.09,18-32.12,26.94-48.2a3.4,3.4,0,0,1,3.57-2.1c3.53.16,7.07-.06,10.6.09a3.4,3.4,0,0,0,3.59-2.09c9-16.35,18.09-32.64,27.06-49a3.54,3.54,0,0,1,3.78-2.2c3.53.16,7.07-.06,10.6.09a3.18,3.18,0,0,0,3.37-2c7.7-14.21,15.49-28.38,23.26-42.55.28-.53.61-1,.91-1.54Z"/><path class="cls-3" d="M105.05,42.5c.44,0,.54,2.08,1.26.23.55-1.42,1-2.91,1.43-4.36.82,0,.91.61,1.07,1.18a5.61,5.61,0,0,1-.2,2c-2.13,8.12-2.72,16.41-3.37,24.76s.27,16.64.63,25.17c.74-.5.94-1.24,1.56-1.49a.84.84,0,0,1,1.08.39c.51,1.15,0,2.18-.4,3.23a64.05,64.05,0,0,0-3.47,12.94,17.57,17.57,0,0,0,.35,5.88,5.87,5.87,0,0,0,.53,1.45c2.27,4.26,6.27,4,10.17,3.76a6.53,6.53,0,0,0,6.27-5.24c1.11-4.16.19-8.22-.95-12.2a76.56,76.56,0,0,0-5.89-14.85c-.6-1.12-1.36-2.23-1.06-3.64a1,1,0,0,1,1-.7,1.92,1.92,0,0,1,1.37,1.07,55.71,55.71,0,0,1,4.75,10.68c.24-6.17,1.09-12.74.75-19.35-.54-10.57-1.17-21.14-4.13-31.4a33.16,33.16,0,0,0-2.69-6.42,4.37,4.37,0,0,0-3.08-2.5c-.4-.2-.73-.44-.66-1,1.8-1.57,3.17-.65,4.3.85a25.32,25.32,0,0,1,3.45,7.11c.29.87.59,1.74,1,3,1.88-2.43,3.11-5,5.17-6.83.57-.07.73.28.8.74-.31,1.89-1.75,3.13-2.74,4.62A8.63,8.63,0,0,0,122,48.45a90.91,90.91,0,0,1,2,17.94c.25,1-.62,2.13.34,3.06a1.89,1.89,0,0,1,.47,1.51c-.37,5.67-.06,11.36-.67,17-.2,1.87-.13,3.78-.4,5.66a20.28,20.28,0,0,0,.38,7.94c.88,3.59,1.58,7.25.51,11a7.22,7.22,0,0,0,0,1.23c-.64,2.28-2.52,3.46-4.21,4.82a8.52,8.52,0,0,1-2.15,1c-2.77.42-5.56.08-8.33.19a9.05,9.05,0,0,1-1.55-.31,12.92,12.92,0,0,1-2-1c-1.24-1-2.66-1.81-3.54-3.22-.14-.52,0-1.08-.18-1.61a17,17,0,0,1,.07-10.89c1.42-4.71.69-9.32.34-14-.3-4-.74-8-.79-12,0-1.36.53-2.65.57-4,0-2.28,0-4.56,0-6.84A76.43,76.43,0,0,1,104,50.74a21,21,0,0,0,.21-7.41C104.29,42.87,104.44,42.44,105.05,42.5Z"/><path class="cls-4" d="M157.35,53.36a17.86,17.86,0,0,1,5.26-3.54c.1,11.25-2.45,21.6-6.83,32.13l13.38-4-1,2.75a1.2,1.2,0,0,1-1.79.39c-3.65.08-6.92,1.63-10.27,2.79-1,.34-1.26,1.55-1.8,2.42s-.84,2-2.22,1.66a1.81,1.81,0,0,1-.31-.69,5.4,5.4,0,0,1,.91-2.91,84.81,84.81,0,0,0,8-28.1c.31-2.75.19-2.84-2.63-2.15C157.59,54.06,157.26,53.88,157.35,53.36Z"/><path class="cls-5" d="M109.24,119.55c3.14-.25,6.33.59,9.42-.54.92-.46,2-.44,2.9-1a53.45,53.45,0,0,0,27.25-13.12,92.75,92.75,0,0,0,7.66-8.33c.72-.81,1.18-1.94,2.46-2.11.41.13.72.32.52.82-10.95,15.14-25.09,24.59-44.38,24.75-5.32,0-10.67.26-15.83-1.46.54-.78,1.35-.72,2.15-.67a4.53,4.53,0,0,1,.75.15,8.12,8.12,0,0,0,2.6.28,5.3,5.3,0,0,1,1.53.23C107.19,119.13,108.29,119.11,109.24,119.55Z"/><path class="cls-6" d="M58.4,82.37a14.18,14.18,0,0,1-2-4.17c4.65.73,8.79,2.57,13.52,3.59a89.57,89.57,0,0,1-5-15.62,65.2,65.2,0,0,1-1.71-16.09,3.88,3.88,0,0,1,2.55,1.24,1.19,1.19,0,0,1-.29,1.11c-1,2.67,0,5.28.32,7.88.91,7.74,3.62,15,6.12,22.33A1.36,1.36,0,0,1,71.28,84c-3.14-.49-6.07-1.74-9.12-2.58-.9-.25-1.86-.72-2,.84A1.26,1.26,0,0,1,58.4,82.37Z"/><path class="cls-5" d="M102,118.48l-2.79.12c-6-1-11.38-3.68-16.41-7a58,58,0,0,1-15-14.31c-.18-.56.19-.64.6-.68,1.11.22,1.66,1.16,2.38,1.88,4.08,4.06,7.92,8.37,12.77,11.59a51.25,51.25,0,0,0,16,7C100.5,117.3,101.75,117.09,102,118.48Z"/><path class="cls-7" d="M148,46.53a27.39,27.39,0,0,1,6.1-5.67,42.78,42.78,0,0,1,1.5,12.7c0,.53-.29,1.11.65.77.52-.21.68.12.79.53-.39,1.54-1.15,2.7-2.9,2.86a1.1,1.1,0,0,1-.74-.83c.12-3.43.21-6.86,0-10.29,0-.65.09-1.53-.69-1.79-.63-.21-1,.52-1.44.9-.84.71-1.51,1.69-2.78,1.68C148.1,47.24,147.8,47,148,46.53Z"/><path class="cls-8" d="M92.1,47a50,50,0,0,1,3.26-13.63c.43-1.19.94-1.48,1.94-.49,1.87,1.86,3.92,3.56,5.28,5.88.19.46-.08.68-.46.84-2.31-.65-3.1-3.12-5.27-4.31-2,3.56-2.15,7.64-3.17,11.47-.43.91-.13,2.2-1.4,2.67a1,1,0,0,1-1-.65A1.53,1.53,0,0,1,92.1,47Z"/><path class="cls-9" d="M65.11,51.86l.65-.54a24.15,24.15,0,0,1,4.53,3.47c0-4.48,0-8.54,1-12.53.46-1.79,1-1.18,1.71-.32.29.69-.28,1.25-.26,1.9-.49,4.41-1,8.83,0,13.23a1.19,1.19,0,0,1-.48,1.07,1,1,0,0,1-1,0C69,56.3,66.62,54.51,65.11,51.86Z"/><path class="cls-10" d="M128.37,33.15c1-1.34,1.55-1.23,2.16.36A75.06,75.06,0,0,1,134,47c.51-.14.74.15.88.57-.17,1.47-.74,2.63-2.4,2.86-1-.47-.48-1.33-.52-2a36.83,36.83,0,0,0-3.35-14.18A1.08,1.08,0,0,1,128.37,33.15Z"/><path class="cls-11" d="M78.25,47l2.39,2.56.22-4.53c.49-1.2-.13-2.53.39-3.73,0-1.18,0-2.37.06-3.56,0-1,.33-1.74,1.53-1A2.56,2.56,0,0,1,83,38.2a9.87,9.87,0,0,1-.26,1.44,6.92,6.92,0,0,0-.16,2.68,18.66,18.66,0,0,1-.2,3.81,17.85,17.85,0,0,0,0,7.8,21.19,21.19,0,0,1,.19,4.57c-.29,1.12.38,2.61-1.23,3.22-.85-.63-.83-1.56-.89-2.47a15.51,15.51,0,0,0-.17-4.51C80.39,52,78,50.3,77.48,47.81A1,1,0,0,1,78.25,47Z"/><path class="cls-12" d="M68.33,96.8l-.47.49A69.35,69.35,0,0,1,58.4,82.37c.59-.08,1.24,0,1.68-.52.4-.23.61,0,.79.32A6.71,6.71,0,0,0,61.76,85a68.61,68.61,0,0,0,5.67,9.08C68,94.88,68.86,95.61,68.33,96.8Z"/><path class="cls-13" d="M159.45,95.31l-.54-.58c-.41-1.19.49-1.92,1-2.74,1.6-2.54,3.23-5,4.6-7.71.18-.39.36-.89.73-1,1.32-.47.14-1,.1-1.52.12-.71.47-1.15,1.26-1.09.46.72,1,0,1.51.1A61.63,61.63,0,0,1,159.45,95.31Z"/><path class="cls-14" d="M148,46.53l.61.62a1.45,1.45,0,0,1-.24,1.45,12.87,12.87,0,0,0-3,7.23.94.94,0,0,1-.66.73c-.67-.2-.86-.75-1-1.34-.33-3.47.31-7-.41-10.42a16.07,16.07,0,0,1-.23-3.39A7,7,0,0,0,143,38.8c-.09-.23-.16-.46-.23-.69a2,2,0,0,1,.05-1.4c.65-.66.89-.44,1.13.38a8,8,0,0,1,.53,3.2c.44.85-.05,1.83.38,2.69v6.53C146.52,48.75,146.83,47.18,148,46.53Z"/><path class="cls-15" d="M92.1,47l-.45,1.67a.56.56,0,0,1-.7,0c-2.16-2.78-4.77-5.24-6.22-8.55a.91.91,0,0,1,.74-.76C88.05,41.55,89.6,44.69,92.1,47Z"/><path class="cls-16" d="M111.32,32.17l.62.54c-.8,2.48-1.5,5-3.7,6.75-.17-.37-.33-.73-.5-1.09C108.46,36,109.22,33.71,111.32,32.17Z"/><path class="cls-17" d="M78.25,47l-.6.64c-2.51-.67-3.6-3.12-5.57-4.47l1-1.25A23.69,23.69,0,0,1,78.25,47Z"/><path class="cls-18" d="M128.37,33.15l.63.58a3.43,3.43,0,0,1-3.18,3.14l-.56-.61A11.23,11.23,0,0,1,128.37,33.15Z"/><path class="cls-19" d="M101.92,39.4l.66-.65a11.08,11.08,0,0,1,2.47,3.75l-.57.67C102.65,42.58,102.08,41.13,101.92,39.4Z"/><path class="cls-20" d="M138.15,41.86l2.62-3a.92.92,0,0,1,.74.77c-.44,1.54-1,2.93-2.91,3.13C138.22,42.56,137.94,42.34,138.15,41.86Z"/><path class="cls-21" d="M138.15,41.86l.62.63a3.18,3.18,0,0,1-2.41,3.28.86.86,0,0,1-.75-.71A12.29,12.29,0,0,1,138.15,41.86Z"/><path class="cls-22" d="M85.47,39.32l-.61.59c-1.51.22-1.82-1.08-2.47-1.95l.45-1.16A7.07,7.07,0,0,1,85.47,39.32Z"/><path class="cls-23" d="M135.61,45.06l.59.67c.42,1.38-.31,1.92-1.53,2.1-.24-.27-.48-.53-.71-.8Z"/><path class="cls-24" d="M141.27,39.37l-.5-.55,2-2.11c.18.4.35.81.53,1.21C142.92,38.79,142.36,39.46,141.27,39.37Z"/><path class="cls-22" d="M81.25,41.32c-.06,1.25.44,2.56-.39,3.73C80.84,43.79,80.57,42.51,81.25,41.32Z"/><path class="cls-25" d="M156.83,54.82l-.6-.49,1.12-1,.64.56C157.92,54.63,157.7,55.14,156.83,54.82Z"/><path class="cls-24" d="M144.85,43c-.72-.81-.39-1.78-.38-2.69A3.93,3.93,0,0,1,144.85,43Z"/><path class="cls-26" d="M82.39,38c1.18.2,1.5,1.48,2.47,1.95l6.79,8.75.41.59a3.13,3.13,0,0,1,1.09.85c.74,1.06,1.32,2.23,2.1,3.27a79.11,79.11,0,0,1,3.41,7.14c2.26,5.2,4.17,10.5,4.29,16.26.51,6.16.94,12.32,1.58,18.46.3,2.85-.68,5.42-1.21,8.09a22.14,22.14,0,0,0,.17,10.94c-.94.52-1.63-.12-2.38-.5a15.51,15.51,0,0,1-5.71-5A105.52,105.52,0,0,1,90,97.3C88,91.61,85.89,85.92,84.34,80.06c-.19-2.42-1.34-4.68-1.22-7.15a63.77,63.77,0,0,1-1.24-14.59l-.15-4.46a37.27,37.27,0,0,1,0-7.76l.14-4c.43-.89,0-1.88.36-2.77Z"/><path class="cls-26" d="M141.27,39.37l2.07-1.45a.49.49,0,0,0,.11.42c.42.88-.06,1.88.39,2.74l.14,3.46c.38,3.54.07,7.09.17,10.62.88,5.1-.47,10-1.05,15a73.34,73.34,0,0,1-2,9.62,124.13,124.13,0,0,1-6.47,20.44,93.89,93.89,0,0,1-5.26,9.78c-1.47,1.77-2.83,3.75-5.62,3.23a17.44,17.44,0,0,0,0-8.67c-1.51-5-1-10-.63-15,.44-5.64.47-11.32.63-17a3.24,3.24,0,0,1,.49-2.15,12.74,12.74,0,0,1,.9-4.8A53,53,0,0,1,127.31,60c.66-1.56,1.34-3.12,2.11-4.63.75-1.32,1.39-2.7,2-4.07a1,1,0,0,1,.85-.55l2.36-2.94a5.15,5.15,0,0,0,1.53-2.1l2.57-3.24A9.48,9.48,0,0,0,141.27,39.37Z"/><path class="cls-26" d="M108.24,39.46c1.15-2.3,1.88-4.82,3.7-6.75,1.86-.78,2.68.49,3.44,1.78,2.89,4.89,4.21,10.32,5.12,15.83A163.5,163.5,0,0,1,121.72,94c0,.29-.09.58-.22,1.34-2.15-5.07-3.83-9.83-6.59-14.07-1.17-1.15-1.87-1-2.67.56-1.41,2.79-2.4,5.82-4.51,8.24q-.95,2.08-1.91,4.17C103.51,75.82,103.51,57.53,108.24,39.46Z"/><path class="cls-27" d="M114.36,81.87c3.22,6.66,6.42,13.34,8,20.63.74,3.37,1.29,6.77.36,10.22a7.07,7.07,0,0,1-5,5.39,14.59,14.59,0,0,1-8.89-.15c-3.74-1.32-5.55-5.43-5-10.58.58-5.81,2.63-11.19,4.54-16.63.68-3.47,2.52-6.44,4.28-9.42C113.32,80.08,114.08,80.61,114.36,81.87Z"/><path class="cls-27" d="M165.08,84.42c-1.55,3.74-4.13,6.86-6.17,10.31-5.64,7.2-11.9,13.71-20,18.18a48.38,48.38,0,0,1-17.21,5.68c-.55,0-1.38.8-1.47-.52a26.09,26.09,0,0,0,4.09-4.18c2.81-1.69,5.54-3.52,8.35-5.21A70.29,70.29,0,0,0,139,104.6a148.62,148.62,0,0,0,18-13.88c1.89-1.75,3.62-3.68,5.51-5.43C163.2,84.65,163.85,83.6,165.08,84.42Z"/><path class="cls-27" d="M68.33,96.8c-2-3.13-4.06-6.25-6.06-9.39a4.87,4.87,0,0,1-1.15-2.51c1.52-.84,2.21.49,2.95,1.27,6.58,6.92,14.27,12.48,22,18a46.56,46.56,0,0,0,5.4,3.5c3.14,2,6.23,4,9.46,5.84.73.58,1.72.87,2.15,1.81l3.49,2.77c-.3,1.38-1.39.46-2.08.72-.83-.13-1.73.3-2.51-.3h0c-6.44-1.59-12.63-3.74-18.22-7.43A69.39,69.39,0,0,1,70.26,98.83C69.64,98.13,69,97.47,68.33,96.8Z"/><path class="cls-26" d="M101.92,39.4l2.56,3.77a7.54,7.54,0,0,1,.7,5.38,101.4,101.4,0,0,0-1.72,17.13c-.65,1.9.46,4-.62,5.85-1.2-.22-.91-1.37-1.12-2.08a67.83,67.83,0,0,0-3.3-8.93A45.44,45.44,0,0,0,94.94,53a23.78,23.78,0,0,1-2.08-3.64c.21-.91-.09-1.87.24-2.77A54.09,54.09,0,0,1,96.46,33.7,34.54,34.54,0,0,1,101.92,39.4Z"/><path class="cls-26" d="M132.31,50.77a1,1,0,0,0-.3.21c-.92,1.41-1.59,3-2.38,4.44a31,31,0,0,0-1.84,3.91,28.27,28.27,0,0,0-2.12,5.41c-.52,1-.63,2.16-1.29,3.09-1.1.35-.78-.7-1.09-1.12A103,103,0,0,0,121,47.85a6.58,6.58,0,0,1,1.09-5.75c1.25-1.73,2.47-3.49,3.7-5.23L129,33.73c2.44,5.17,4.42,10.43,3.08,16.32C132,50.26,132.23,50.52,132.31,50.77Z"/><path class="cls-28" d="M98.86,60.07a50.52,50.52,0,0,1,3.75,11.22c.41.49.49,1.16.89,1.65L103,76.77c-1.4-5.48-2.6-11-5-16.19C98.14,60.25,98.3,59.79,98.86,60.07Z"/><path class="cls-29" d="M114.36,81.87c-.71-1-1.17-.89-1.71.22-1.39,2.91-2.89,5.78-4.35,8.66l-.57-.67c1.35-4,3.53-7.63,5.77-11.77l1.41,3Z"/><path class="cls-30" d="M133,109.17c-2.82,1.75-5.42,3.88-8.73,4.72l-.54-.62a9.68,9.68,0,0,0,5.12-3.55c.5-.31,1-.61,1.5-1a3.19,3.19,0,0,1,2.13-.43C132.87,108.5,133.15,108.71,133,109.17Z"/><path class="cls-31" d="M124.16,67.7a8.12,8.12,0,0,1,1.06-3.09c.51.23.29.79.52,1.14a20.83,20.83,0,0,1-1.49,4.69l-.47-1C123.12,68.67,123.73,68.21,124.16,67.7Z"/><path class="cls-32" d="M103.5,72.94a1.38,1.38,0,0,1-.89-1.65c1.08-1.75,0-3.83.85-5.61Z"/><path class="cls-33" d="M103.1,115.28l-2.27-1.34a.71.71,0,0,1,.64-.58l2,.9Z"/><path class="cls-34" d="M104.52,118.58c.67-.24,1.53.22,2.07-.53a2.56,2.56,0,0,1,1.5,1,1.81,1.81,0,0,1-1.94.08l-1.46-.08c-.19,0-.27-.11-.26-.22S104.47,118.58,104.52,118.58Z"/><path class="cls-35" d="M124.16,67.7c-.13.58-.26,1.15-.38,1.72-1.18-.72-.51-1.77-.49-2.71C123.64,67,123.53,67.67,124.16,67.7Z"/><path class="cls-36" d="M120.2,118.07c.33.63,1,.34,1.47.52-.92.75-2,.38-3,.42A2.41,2.41,0,0,1,120.2,118.07Z"/><path class="cls-5" d="M106.15,119.08l1.94-.08a1.33,1.33,0,0,1,1.15.55C108.21,119.41,107.08,119.93,106.15,119.08Z"/><path class="cls-26" d="M132.33,108.61c-.65,0-1.1.81-1.85.5-.64-.73,0-1.25.32-1.82a47,47,0,0,0,3.17-6.45C137,94.5,138.88,87.76,140.54,81c.7-2.72,1.27-5.49,2.73-8,.47-.71.87-1.46,1.28-2.2a26.3,26.3,0,0,0,2.37-4.28,31,31,0,0,1,2.75-4.05,27.25,27.25,0,0,0,1.65-2.19c.92-1,1.45-2.41,3-2.77a11.76,11.76,0,0,0,2.54-2.68c.6,0,.89-.45,1.16-.9l3.55-2.42c-.22,13-3.88,24.62-9.46,35.77-.38,2.36-1.8,4.2-3,6.14s-2.72,3.93-4.23,5.79a21.43,21.43,0,0,1-5.94,5.68C136.7,106.14,134.84,107.94,132.33,108.61Z"/><path class="cls-37" d="M166.61,80.65l-1,1.12c-1.5,2.89-4.09,4.81-6.34,7-.73.72-1.51,1.41-2.26,2.11-2.93,2.76-6.12,5.2-9.28,7.68-.54.42-1.11.86-1.85.37-.67-1.39.66-2,1.19-2.86s1.27-1.84,1.77-2.85c1.27-1.6,1.81-3.69,3.39-5.08.25-.23.64-.41.73-.68,2.22-6.76,8.93-5.36,13.65-7.56Z"/><path class="cls-38" d="M152.23,88.16a23,23,0,0,1-3,5.07.54.54,0,0,1-.76-.09l3.63-5.87Z"/><path class="cls-5" d="M104.52,118.58l.16.42c-.91-.07-1.93.4-2.68-.53Z"/><path class="cls-26" d="M65.11,51.86,72,58c1.27.33,1.86,1.41,2.58,2.33,1.12,1.42,2,3,3.13,4.39,2.93,4.94,6.2,9.72,7,15.59A154.13,154.13,0,0,0,90.52,98c1.12,3,2.54,5.8,3.94,8.64.41.83,1.07,1.59.89,2.62-1.77.77-2.63-1.19-4.08-1.36-1.85-1.11-3.4-2.66-5.38-3.59a11.58,11.58,0,0,1-4.13-4c-2.1-2.79-4.09-5.66-6.07-8.54-1.68-2.85-3.46-5.66-4.21-9a84.57,84.57,0,0,1-7.14-28.6C64.3,53.5,63.22,52.07,65.11,51.86Z"/><path class="cls-39" d="M60.63,82.26l-.55-.41c-.23-.43-.72-.93-.64-1.28.16-.62.91-.38,1.29-.24,3.4,1.28,7.11,1.65,10.31,3.5,2.24,2.35,3.07,5.53,4.9,8.12,1.29,1.69,2.28,3.6,3.64,5.24a1.37,1.37,0,0,1,.3,1.64c-1,.57-1.64-.2-2.28-.66-5.86-4.24-11-9.29-16.13-14.34A3.87,3.87,0,0,1,60.63,82.26Z"/><path class="cls-40" d="M75.62,92.14A44.52,44.52,0,0,1,71,83.83c.15-.34.29-.68.44-1l4.71,8.69C76.38,92.05,76.11,92.19,75.62,92.14Z"/><path class="cls-26" d="M144.85,56.43c-.46-3.78,1.56-6.56,3.74-9.28,1.63-1.31,2.82-3.15,5-4.33.61,4.89,1.71,9.47.14,14.12a14.57,14.57,0,0,1-2.28,3.33c-.71.57-.92,1.53-1.6,2.13-.8,1.37-1.94,2.51-2.61,4-1,1.3-1.39,3-2.49,4.23-.42.43-.65,1.23-1.52.8a1.45,1.45,0,0,1-.31-.77C143.68,65.91,143.74,61.1,144.85,56.43Z"/><path class="cls-41" d="M151.08,60.05a9.75,9.75,0,0,1,2.63-3.11l.58.56-2.6,3.18A.75.75,0,0,1,151.08,60.05Z"/><path class="cls-15" d="M93.1,46.62l.17,3c.18.56-.08.72-.59.65l-.62-1C93.09,48.64,92.26,47.3,93.1,46.62Z"/><path class="cls-42" d="M72.08,43.19c1.87-.16,2.44,1.6,3.59,2.48a21.88,21.88,0,0,1,2,2c1.26,2.15,3.43,3.86,3.21,6.72.48,1.59-.14,3.27.37,4.86l.14,2.36a32.58,32.58,0,0,1,1.39,9.85c-1,1.3-1.35.13-1.67-.52a51.75,51.75,0,0,0-3.93-6.5,33.35,33.35,0,0,0-2.8-4.1,15.15,15.15,0,0,1-1.83-2.91,5.07,5.07,0,0,1-1.14-3.25A61.14,61.14,0,0,1,72.08,43.19Z"/><path class="cls-43" d="M72.53,57.42a6.63,6.63,0,0,1,2.1,2.51c.19.57-.07.72-.58.66L72,58Z"/><path class="cls-44" d="M82.21,71.89c.45-3.49-1-6.82-.84-10.29.82-1,.19-2.21.51-3.28l2,14.69c-.26.51-.61.82-1.18.44A1.32,1.32,0,0,1,82.21,71.89Z"/><path class="cls-44" d="M81.73,46.1v7.76A14.4,14.4,0,0,1,81.73,46.1Z"/><path class="cls-44" d="M81.23,59.24a13.28,13.28,0,0,1-.37-4.86C81.69,55.94,81.24,57.61,81.23,59.24Z"/><path class="cls-22" d="M82.23,39.38a5.31,5.31,0,0,1-.36,2.76C81.87,41.21,81.53,40.23,82.23,39.38Z"/><path class="cls-45" d="M60.63,82.26c6,6.06,12.18,12,19.25,16.9.88-.06,1.54.56,2.34.75,1.35,1.29,2.08,3.14,3.73,4.17a.41.41,0,0,1,.12.4c0,.13-.09.19-.13.19a131.1,131.1,0,0,1-22.4-18c-.71-.7-1.21-1.72-2.42-1.76C60.61,84.08,59.77,83.33,60.63,82.26Z"/><path class="cls-46" d="M156.82,90.57l8.79-8.8c1.55,1.23-.32,1.77-.53,2.65-2.37,1-3.59,3.36-5.53,4.88-.74.58-1.43,1.22-2.15,1.83C156.87,91.3,156.71,91.07,156.82,90.57Z"/><path class="cls-44" d="M144.85,56.43a64.81,64.81,0,0,1-1.27,11.95,19.3,19.3,0,0,0-.17,3.05c-1,.34-.65-.68-1-1q.79-7.52,1.57-15,.21-.36.42,0Z"/><path class="cls-47" d="M144.41,55.41H144V44.54C145,48.13,144.23,51.79,144.41,55.41Z"/><path class="cls-24" d="M143.84,41.08a5.69,5.69,0,0,1-.39-2.74C144.18,39.17,143.87,40.15,143.84,41.08Z"/><path class="cls-48" d="M90.15,98.34a85.77,85.77,0,0,1-5.68-18.11c.16-.25.34-.26.53,0q2.81,8.54,5.63,17.05C90.91,97.82,91.07,98.33,90.15,98.34Z"/><path class="cls-49" d="M85,80.21l-.53,0C83,74.65,79.76,69.9,77.09,64.89a.56.56,0,0,1,.14-.84c2.4,2.14,3.34,5.22,5,7.84.61.28.2,2,1.62,1.12C83.76,75.49,85.28,77.7,85,80.21Z"/><path class="cls-50" d="M91.17,107.55c1.67-.22,2.51,1.61,4.08,1.65.19-.23.25-.59.61-.68,1.71,1.8,3.35,3.68,5.61,4.84l-.64.58a98.69,98.69,0,0,1-9.71-5.75A.37.37,0,0,1,91.17,107.55Z"/><path class="cls-51" d="M95.86,108.52l-.61.68c-1.81-3.57-3.86-7-5.1-10.86l.48-1.08Q93.24,102.89,95.86,108.52Z"/><path class="cls-52" d="M98.86,60.07l-1,.51-3.24-7.07c-.22-.59.09-.73.6-.69A32.65,32.65,0,0,1,98.86,60.07Z"/><path class="cls-53" d="M95.27,52.82l-.6.69-2-3.28.59-.65A9.46,9.46,0,0,1,95.27,52.82Z"/><path class="cls-54" d="M140.81,80.83c.42,1.92-.51,3.65-1.06,5.31-1.65,5-2.52,10.41-5.64,14.89a.67.67,0,0,1-.13-.87,154.61,154.61,0,0,0,6.38-20.44C141.27,79.78,141.07,80.29,140.81,80.83Z"/><path class="cls-55" d="M140.81,80.83l-.45-1.11q1-4.64,2.06-9.29l1,1h0a1.47,1.47,0,0,1,.56,1.7Z"/><path class="cls-56" d="M134,100.16l.13.87c-.41,3.06-2.53,5.34-3.63,8.08-.38.62-1,.59-1.61.61Z"/><path class="cls-57" d="M125.74,65.75l-.52-1.14A21.82,21.82,0,0,1,127.38,59c.93,0,.79.49.49,1.06Z"/><path class="cls-58" d="M127.87,60.1,127.38,59a13.53,13.53,0,0,1,1.79-3.71.72.72,0,0,1,.9.13C129.33,57,128.6,58.55,127.87,60.1Z"/><path class="cls-56" d="M130.07,55.46l-.9-.13c.92-1.47,1-3.49,2.84-4.35C131.92,52.72,130.9,54.05,130.07,55.46Z"/><path class="cls-59" d="M156.82,90.57l.58.56a118.07,118.07,0,0,1-18.12,14c-.56.16-.71-.09-.58-.6,2.22-1.56,3.85-3.72,5.7-5.65a2.23,2.23,0,0,1,1.57,0C150.09,96.74,153.15,93.26,156.82,90.57Z"/><path class="cls-60" d="M138.7,104.51l.58.6a39,39,0,0,1-6.26,4.06l-.69-.56A45.76,45.76,0,0,1,138.7,104.51Z"/><path class="cls-61" d="M91.17,107.55l0,.64a24.65,24.65,0,0,1-5.18-3.52c0-.19,0-.39,0-.59C88.24,104.41,89.59,106.15,91.17,107.55Z"/><path class="cls-62" d="M146,98.86a1.42,1.42,0,0,1-1.57,0l4-5.72.76.09C148.79,95.48,146.66,96.75,146,98.86Z"/><path class="cls-63" d="M144.36,70.39q1.27-2.13,2.56-4.26c.36.06.4.4.54.65A15.94,15.94,0,0,1,145,71.12.84.84,0,0,1,144.36,70.39Z"/><path class="cls-64" d="M147.46,66.78l-.54-.65a14.65,14.65,0,0,1,2.63-4c.53-.1.77.08.61.64Z"/><path class="cls-65" d="M150.16,62.76l-.61-.64a4.64,4.64,0,0,1,1.53-2.07l.61.63Z"/><path class="cls-66" d="M144.36,70.39l.68.73-1.09,2-.56-1.7C144.11,71.46,143.71,70.43,144.36,70.39Z"/><path class="cls-62" d="M82.22,99.91c-1.13.83-1.73,0-2.34-.75-.87-2.68-3.26-4.43-4.26-7l.57-.65Z"/><path class="cls-43" d="M77.23,64.05l-.14.84-3-4.3.58-.66A9,9,0,0,1,77.23,64.05Z"/></svg>