<svg id="Layer_1" data-name="Layer 1" xmlns="http://www.w3.org/2000/svg" viewBox="0 0 300 300"><defs><style>.cls-1{fill:#065eaa;}.cls-2{fill:#a6a8ab;}.cls-3{fill:#fefefe;}.cls-4{fill:#e21937;}.cls-5{fill:#eebe96;}.cls-6{fill:#065daa;}.cls-7{fill:#e11937;}.cls-8{fill:#edbd96;}.cls-9{fill:#a5a7aa;}.cls-10{fill:#e11936;}.cls-11{fill:#065da9;}.cls-12{fill:#a6a7aa;}.cls-13{fill:#e01936;}.cls-14{fill:#ebbc94;}.cls-15{fill:#eabb94;}.cls-16{fill:#df1936;}.cls-17{fill:#a1a3a6;}.cls-18{fill:#a2a4a7;}.cls-19{fill:#a4a6a9;}.cls-20{fill:#a4a6a8;}.cls-21{fill:#d21733;}.cls-22{fill:#fbfbfb;}.cls-23{fill:#d31733;}.cls-24{fill:#e4b690;}.cls-25{fill:#9b9da0;}.cls-26{fill:#dc1835;}.cls-27{fill:#999b9e;}.cls-28{fill:#e5b791;}.cls-29{fill:#e5b790;}.cls-30{fill:#999a9d;}.cls-31{fill:#dfb28d;}.cls-32{fill:#191919;}.cls-33{fill:#222;}.cls-34{fill:#d0a684;}.cls-35{fill:#1e1e1e;}.cls-36{fill:#8a8c8e;}.cls-37{fill:#131313;}.cls-38{fill:#18140f;}.cls-39{fill:#d5aa87;}.cls-40{fill:#d1a784;}.cls-41{fill:#1f1f1f;}.cls-42{fill:#949699;}.cls-43{fill:#ddb08b;}.cls-44{fill:#cca381;}.cls-45{fill:#898b8d;}.cls-46{fill:#201914;}.cls-47{fill:#1f1914;}.cls-48{fill:#8f9193;}.cls-49{fill:#03294b;}.cls-50{fill:#d6ac87;}.cls-51{fill:#0b0b0b;}.cls-52{fill:#8d8f92;}.cls-53{fill:#352a21;}.cls-54{fill:#282829;}.cls-55{fill:#888a8c;}.cls-56{fill:#5b5d5e;}.cls-57{fill:#020001;}.cls-58{fill:#010000;}.cls-59{fill:#020000;}.cls-60{fill:#120e0b;}.cls-61{fill:#1e1913;}.cls-62{fill:#110e0b;}.cls-63{fill:#282019;}.cls-64{fill:#1c1611;}.cls-65{fill:#29211a;}.cls-66{fill:#271f19;}.cls-67{fill:#241d17;}.cls-68{fill:#3d3026;}.cls-69{fill:#060504;}.cls-70{fill:#1b1511;}.cls-71{fill:#43352a;}.cls-72{fill:#0a0806;}.cls-73{fill:#080705;}.cls-74{fill:#0e0e0e;}.cls-75{fill:#0b0b0c;}.cls-76{fill:#0d0d0d;}</style></defs><path d="M23.74-.6H276.26a1,1,0,0,1,1,1V175.65A123.39,123.39,0,0,1,153.86,299h-7.5A123.62,123.62,0,0,1,22.75,175.42V.4a1,1,0,0,1,1-1Z"/><path class="cls-1" d="M86.5,62.8c1.84-1.1,2.84-2.65,2.3-4.83a2.78,2.78,0,0,0-2.38-2.3c-1.45-.19-1.87.71-2.18,1.88a6.47,6.47,0,0,1-.9,1.51c-1-.46-1.16-1.45-1.54-2.22-7-14.17-13.73-28.44-21.23-42.34a17.78,17.78,0,0,0-6.74-7c-1.8-1.06-2.58-.6-2.66,1.41a20.25,20.25,0,0,0,2.32,10c7,14.14,14.73,27.92,22.19,41.84a3.18,3.18,0,0,1,.74,2,8.52,8.52,0,0,1-1.43.1c-1.41-.18-2.95-.68-3.17,1.53-.21,2.06.7,3.68,2.69,3.9,1.78.19,2.24.62,2.4,2.45a9.22,9.22,0,0,0,8.29,7.86c1,0,1,.68,1.29,1.23.77,1.44,1.93,2.27,3.5,1.44s4.06-1.41,3-4.08c-.74-1.85.35-1.94,1.53-2.21,5-1.18,10.17-1.88,15.27-2.78s9.65-3.78,14.08-6.55c2.13-1.34,4.33-2.58,6.43-4,1.3-.86,1.84-.68,2.09.91a47.45,47.45,0,0,1,.47,7.53c0,1-.05,2.12.74,2.85,2.71,2.5,2.09,5.34.9,8.22a206.07,206.07,0,0,0-12,39.68c-.13.64-.55,1.57.18,1.83,3,1.09,1.84,3.5,1.55,5.3-1.42,8.57-3.18,17.08-2.51,25.87a39.71,39.71,0,0,1-1,10.51,5.6,5.6,0,0,1-2.51,3.86,43.08,43.08,0,0,1-7.35,4.35c-2,.82-3.5,2.13-3.15,4.58a4.32,4.32,0,0,0,4.28,3.89c1.44.13,2,.56,1.91,2.11-.15,3-.09,6,0,9.08,0,1.25-.34,1.73-1.69,1.79-5.59.26-5.59.31-5.59-5.19,0-11.52.06-23,0-34.55,0-2.44.38-3.89,3.86-3.15-2.07-2.25-3.65-4-5.3-5.75-3.67-3.82-7.38-7.6-11.06-11.41-.64-.65-1.13-1.58-2.18-.47q-8,8.42-16,16.81c-.08.09,0,.3,0,.66,3.08-.67,3.22,1.06,3.2,3.5q-.17,18.53,0,37.07c0,2-.57,2.54-2.53,2.49-5-.11-5,0-5-5,0-3.2-.05-6.4,0-9.59,0-1.41-.23-2.15-1.91-2.1-3.69.11-7.39.09-11.09,0-1.42,0-1.9.42-1.87,1.86.08,4.28,0,8.57.06,12.86,0,1.56-.49,2-2,2-5.52.08-5.52.13-5.52-5.24,0-11.43.06-22.87,0-34.3,0-2.41,0-4.27,3.16-3.49.35-.91-.31-1.21-.68-1.59-4.88-5.1-9.82-10.15-14.65-15.29-1.13-1.19-1.81-1.27-3,0-2.14,2.31-4.48,4.43-7,6.9v-2.69q0-66.58-.05-133.16c0-2.32.61-2.89,2.9-2.88q120.29.09,240.58,0c1.56,0,2.79-.27,2.79,2.19Q273,72,273.07,139.6c0,.32,0,.64-.08,1.22-2.45-2.39-4.79-4.58-7-6.88-.92-.95-1.52-1.29-2.6-.15-5.08,5.38-10.23,10.68-15.36,16a.82.82,0,0,0-.25,1.06c3.5-.77,3.17,1.57,3.16,3.94q-.09,18.28,0,36.57c0,1.82-.24,2.67-2.4,2.62-5.13-.14-5.13,0-5.13-5.18,0-3.28,0-6.56,0-9.83,0-1.33-.43-1.75-1.74-1.73-3.79.07-7.57.09-11.35,0-1.56,0-1.78.68-1.76,2,.05,4.2-.05,8.41.05,12.61,0,1.64-.46,2.14-2.14,2.14-5.37,0-5.37.07-5.37-5.39q0-17.15,0-34.3c0-2.18-.26-4.38,3.06-3.22.32-1.18-.49-1.56-1-2.06-4.7-4.93-9.49-9.77-14.11-14.76-1.41-1.52-2.13-1.37-3.48.08-4.56,4.94-9.29,9.73-13.93,14.59-.51.52-1.21.91-1.41,2,3.37-.75,3.3,1.31,3.28,3.69q-.11,18.28,0,36.57c0,2.12-.39,2.93-2.72,2.84-4.58-.19-4.59-.05-4.59-4.71,0-1.34.11-2.69,0-4-.24-2.49-.21-4.45,3.21-4.63,1.72-.09,2.75-1.77,3-3.64a3.85,3.85,0,0,0-2.37-4.07c-2.07-1.1-4.13-2.22-6.19-3.33-3.66-2-4.7-5.1-5.11-8.88a139.9,139.9,0,0,1-.4-16.12,37.59,37.59,0,0,0-1.62-10.12c-.9-3.26-.84-6.77-1.17-10.18,0-.27.2-.78.4-.83,2.53-.67,1.65-2.42,1.33-4a298.4,298.4,0,0,0-9-34.56,18.68,18.68,0,0,0-2.39-5c-1.85-2.64-1.68-4.77.61-7a4.52,4.52,0,0,0,1.3-3.65c0-3.18-.47-6.36.23-9.54.35-1.59.88-2.3,2.47-1.33a1.76,1.76,0,0,0,.46.22c5.16,1.21,7.46,4.1,8.52,9.7,2.76,14.57,17.33,26.72,35.45,25.32,14.79-1.14,28.06-13.55,30-28.76a33.47,33.47,0,0,0-57.74-27.39,29,29,0,0,0-5.06,7.18c-.64,1.31-1.27,1.44-2.5.8-4.25-2.2-8.53-4.33-13.33-5.15a44.22,44.22,0,0,0-7.8-.12c-1.63,0-2.36-.38-2.58-2.14-.41-3.25.25-4.92,3.1-6.59a2.77,2.77,0,0,0,1.42-3.21,20.46,20.46,0,0,0-1.1-3.07c-.7-1.67-1.51-3.13-.31-5.13a2.91,2.91,0,0,0-1.69-4.34,3.39,3.39,0,0,1-2-2.33,18.41,18.41,0,0,0-2.44-4.67c-2.77-3.75-7.55-3.6-10.05.34a16.71,16.71,0,0,0-1.56,3.14c-.61,1.65-1.16,3.12-2.94,4.08a3.83,3.83,0,0,0-.93,5.57c1.06,1.38.74,2.37.13,3.6a12.72,12.72,0,0,0-.82,2.12c-.74,2.55.61,4.5,3.26,4.29,1.49-.12,1.9.3,2.1,1.61.23,1.57.95,3,1,4.66,0,1.46-.36,2.19-2,2.05s-3.2,0-4.79-.1a12.5,12.5,0,0,0-10.47,4.53c-.39.44-.82.85-1.18,1.31-6.91,9-16.92,13.77-26.45,19.09a6.27,6.27,0,0,1-7.32-.5A6.75,6.75,0,0,0,89,63.7C88.32,63,86.87,64.4,86.5,62.8Z"/><path class="cls-2" d="M179.92,62.29c4.33,1.44,8.35,3.15,12.72,3.73.58.07,1.64-.12,1.67.68a3.07,3.07,0,0,1-1.14,2.65c-3,2.22-3.24,5-.68,7.77a2.22,2.22,0,0,0,.58.48c2.53,1.38,4.32-.63,6.18-1.6,1.37-.72,1.29-2.3.63-3.82a4.36,4.36,0,0,1,3.48-5.7c2.51-.18,5-.32,7.54-.51,1.58-.12,2.48.15,1.65,2s-1.37,3.6-2,5.42a3.07,3.07,0,0,1-1.84,2.13c-1.85.78-2.26,2.4-1.34,4.18a12.29,12.29,0,0,1,.88,2,2.75,2.75,0,0,0,1.39,1.71c2.5,1.35,4.07-.91,5.93-1.68,1.43-.59,1.44-2.34.66-3.76a1.75,1.75,0,0,1-.21-1.63c1.15-3.06,2.29-6.13,3.35-9.22.34-1,1-1,1.77-.91a3.85,3.85,0,0,0,4.25-3.14c.49-1.78.88-3.58,1.33-5.37a1.61,1.61,0,0,0-1-2c-2-1.11-1.88-3.18.1-4.39,2.84-1.73,2.94-2.72.73-6.92-.91-1.72-2.33-1.68-4.95-.7-2.94,1.1-4.12,2.43-2.63,5.63.45,1,.08,2.9-2.28,2.4S212,51.17,210.45,54c-.87,1.63-2.64.35-3.88,0s-.32-1.38-.1-2.06c.48-1.52,1.05-3,1.59-4.51a3,3,0,0,1,1.84-2.13c1.88-.76,2.22-2.43,1.34-4.19a10.52,10.52,0,0,1-.87-2,2.65,2.65,0,0,0-1.18-1.59c-2.55-1.56-4.27.7-6.17,1.56-1.38.63-1.53,2.36-.61,3.75s-.11,2.24-.44,3.28c-.55,1.76-.88,3.78-2,5.1s-3.27-.08-4.94.3c-4.81,1.07-7.85-2.73-11.69-4.31-1.3-.53-.1-1.49.21-2.07a31.4,31.4,0,0,1,20.69-16,32.08,32.08,0,0,1,39.52,31.72c-.32,17.19-14,30.83-31.47,31.37-16.44.52-31-12.44-32.45-29A5.38,5.38,0,0,1,179.92,62.29Z"/><path class="cls-3" d="M156.39,83.61c1-1,.63-2.11.73-3.13,0-.55-.7-1.41.42-1.61s1.09.8,1.28,1.47a13.56,13.56,0,0,1,.3,5,1.06,1.06,0,0,0,.63,1.3c.86-2.5.37-4.88,0-7.25,4-.41,4.84,0,6.44,4.29a201.73,201.73,0,0,1,6.49,22.18c1.15,4.64,2,9.34,3.16,14,.31,1.3.11,1.91-1.18,2.43a64.21,64.21,0,0,1-49.3,0c-1.07-.42-1.46-.86-1.19-2.19A205,205,0,0,1,136.3,80.72c.5-1.2,1.1-1.42,2.38-1.51,4.6-.31,9.14-1.21,13.79-.93,3.5.21,3.79.41,3.6,3.93C156.05,82.61,155.8,83,156.39,83.61Z"/><path class="cls-1" d="M150,279.2c1.21-2.27,2.19-3.94,3-5.68.44-.94,2.14-2.1-.55-2.83-1.16-.31-.31-2.28-.5-3.47-.39-2.37.26-3.41,3-3.25,4.78.27,5.65,1.13,4.64,5.89-.06.31-.18.84-.35.86-3.2.55-.9,2.14-.49,3.12a55.62,55.62,0,0,0,2.75,5.08c1.79-2.22,2.66-4.66,3.92-6.86.21-.38.24-.87-.31-1-.71-.19-1.57-.08-1.54-1.21,0-1.77,0-3.53.11-5.29,0-.47.59-.5,1-.5l1.77,0c5.06,0,5.65.69,4.77,5.7-.05.32-.13.86-.29.9-3.39.84-.77,2.43-.35,3.52a48.7,48.7,0,0,0,2.69,5.07c1.51-2.85,2.84-5.36,4.31-8.15-2.2.18-2.7-.88-2.42-2.58a9.51,9.51,0,0,0,0-1.51c0-2.65,2.26-4,4.74-2.89.74.33.64.92.64,1.47,0,8.32,0,16.64,0,25,0,1.29-.63,1.72-1.74,2A112.1,112.1,0,0,1,142.23,296a136.92,136.92,0,0,1-20.34-3.23c-1.85-.42-2.59-1.18-2.56-3.2.12-7.81.15-15.63,0-23.44,0-2.58,1.48-2,2.92-2.11s2.92-.09,2.56,2.14a8.45,8.45,0,0,0,0,2.51c.23,1.68-.36,2.55-2.45,2.34l4.33,8.24c1.4-2.61,2.65-4.92,3.88-7.24.2-.39.29-.85-.3-1s-1.56-.12-1.54-1.22c0-1.77,0-3.53.14-5.28,0-.45.62-.48,1-.48l1.51,0c5.54,0,5.54,0,5,5.48-.05.49.09,1.22-.5,1.28-2.51.28-1.13,1.52-.69,2.54a6.32,6.32,0,0,0,.47.89c.93,1.44,1.2,4,2.73,4.11,1.21.07,1.83-2.52,2.51-4,.52-1.14,2.81-2.35-.21-3.93-1.2-.62-.61-3.82-.18-5.73.28-1.24,1.9-.58,2.9-.6,4.66-.07,5.64,1.22,4.57,5.84-.07.31-.21.83-.38.86-3,.42-1,2-.56,2.91C147.83,275.41,148.84,277,150,279.2Z"/><path class="cls-3" d="M197.8,54.19c.14.53,1.19.42.74,1.47-1.12,2.68-2.09,5.43-3,8.2-.35,1.06-1,.92-1.74.81-2.72-.39-5.45-.76-7.48-2.92a4.16,4.16,0,0,1-1.93-.94c-.19-.32-.38.24-.16,0,.05-.06.1,0,.2.14.28.39.65.76.32,1.3-4.94-1.43-9.59-3.59-14.36-5.45-2.64-1,.14-2-.15-3,.89-2.28,3.12-3.36,4.2-4.88-1.6.9-2.43,3.48-4.93,4-1-.79-.11-1.48.17-2.14.34-.83.59-1.69.69-2a14.9,14.9,0,0,1-2.16,4.4,34.43,34.43,0,0,0-2,15.32c.24,3.37-1.56,5.19-4.85,4.47-5.47-1.19-11.06-1.43-16.53-2.48-2.1-.41-4.27-.54-6.27.74,2,.3,4-.27,6.22.33-2.63,1-5,1.83-7.67,1.52-1.87-.22-2.85-1.1-2.76-3.13.29-6-1.62-11.8-1.55-17.79a3.06,3.06,0,0,0-1.16-2.27l.53,8.15c-1.15.05-1.17-1-1.81-1.34-1.75-1.13-1.91-3.26-2.94-4.56.61,1.62,1.91,3.2,2.38,5.15,1.47,1.56,1,2.55-.83,3.43a30,30,0,0,0-4.52,2.71,43.26,43.26,0,0,1-25.21,8.47,3.88,3.88,0,0,0-.2-1.72c-2.09-3.34.6-4.11,2.7-5.26a34.9,34.9,0,0,0,3.65-2.23c3.19-2.32,6.42-4.08,10.62-2.65a4.27,4.27,0,0,0,4-.65c-2.39-.28-4.78-.12-7.34-.93,7-3.37,10.72-10,16.24-14.68a9.3,9.3,0,0,1,4.3-2c4.3-.87,4.78-.53,5.1,3.79,0,.58.07,1.17.15,1.75.5,3.76,1.43,4.75,5.17,4.62,2.28-.07,3,.73,2.78,2.87a14.26,14.26,0,0,0,0,2.77c.22,2.8,1.26,3.65,4.09,3.51,2-.1,3.18-.94,3.19-3.06,0-.25,0-.5,0-.75,0-1.75-.93-3.83.06-5.17s3.16-.25,4.78-.55a3.19,3.19,0,0,0,2.62-2.41,15.08,15.08,0,0,0,.62-5.48c-.12-2,.75-2.24,2.35-2.11a30,30,0,0,1,10.77,3.25c5.18,2.55,10.31,5.2,15.47,7.81.58,1.31-.54,1.57-1.29,2a8.11,8.11,0,0,1-3,1.21c2-.25,3.48-1.78,5.45-2.06a15.51,15.51,0,0,1,7.29-.5c0,.82-.73.62-1,1-2.39,1.16-4.78,2.31-5.29,3.83C193,56.53,195.58,55.55,197.8,54.19Z"/><path class="cls-4" d="M195,172.23c0-6.3.06-12.6,0-18.9,0-1.79.36-2.5,2.34-2.47,6.72.13,13.44.1,20.16,0,1.65,0,2.14.46,2.13,2.12q-.09,19.41,0,38.81c0,1.57-.31,2.19-2.05,2.17q-10.2-.15-20.41,0c-1.88,0-2.19-.68-2.16-2.33C195.07,185.17,195,178.7,195,172.23Z"/><path class="cls-4" d="M80.42,172.23c0-6.3.06-12.61,0-18.9,0-1.79.32-2.51,2.31-2.47,6.72.13,13.44.1,20.16,0,1.64,0,2.17.45,2.16,2.12q-.09,19.41,0,38.81c0,1.59-.36,2.18-2.08,2.16-6.8-.1-13.61-.12-20.41,0-1.91,0-2.16-.71-2.14-2.34C80.47,185.16,80.42,178.69,80.42,172.23Z"/><path class="cls-4" d="M162.19,172.48c0,6.46-.06,12.93,0,19.39,0,1.67-.51,2.11-2.13,2.09Q150,193.84,140,194c-1.55,0-2.18-.31-2.17-2.05q.1-19.51,0-39c0-1.53.45-2,2-2,6.8.07,13.6.09,20.4,0,1.77,0,2,.69,2,2.22C162.15,159.55,162.19,166,162.19,172.48Z"/><path class="cls-4" d="M47.61,172.75c0,6.3-.09,12.6,0,18.9,0,2-.59,2.36-2.41,2.32-5-.12-10.08-.09-15.12,0-1.46,0-2.2-.2-2.4-1.94a118.2,118.2,0,0,1-.82-13.56c0-8.48.05-17,0-25.45,0-1.63.44-2.16,2.11-2.13,5.45.1,10.92.1,16.37,0,1.73,0,2.31.42,2.28,2.22C47.55,159.64,47.61,166.2,47.61,172.75Z"/><path class="cls-4" d="M252.4,172.41c0-6.47,0-12.94,0-19.4,0-1.62.42-2.17,2.1-2.14,5.54.1,11.09.08,16.63,0,1.49,0,2.05.36,2,2-.28,12.09.46,24.19-.52,36.27-.39,4.82-.33,4.83-5.08,4.83-4.28,0-8.57-.12-12.85,0-2,.07-2.34-.61-2.31-2.42C252.46,185.18,252.4,178.79,252.4,172.41Z"/><path class="cls-5" d="M175.22,135.41c1.4,2.78,1.56,5.78,1.57,8.82,0,6.45-.39,12.92.89,19.31.23,1.14,1,2.57.6,3.35a14.48,14.48,0,0,1-3.43,3.57c-.92.81-1.91-.06-2.86-.19s-.6-1-.57-1.64a31.12,31.12,0,0,0-3.16-16.07,25.74,25.74,0,0,1-3-15.05,2.88,2.88,0,0,0-.86-2.23,29.22,29.22,0,0,1-3.32-5.9c-.46-1-.53-1.66.83-1.9a72.9,72.9,0,0,0,10.66-2.86c.6-.2,1.48-.71,1.45.46-.08,3.1,1.41,6.08.68,9.21C174.51,134.84,174,135.58,175.22,135.41Z"/><path class="cls-5" d="M125.35,134.29c-.74-3.14.82-6.11.67-9.21,0-.9.6-.78,1.23-.57a79.69,79.69,0,0,0,11.13,3c.77.15,1.28.46.76,1.35a3.71,3.71,0,0,1-.19.46c-3.53,4.72-4.24,10.22-4.67,15.88a20.35,20.35,0,0,1-2.73,7.79c-2.58,4.83-3.17,10-3,15.35,0,.73.59,1.78-.81,2-1.07.12-1.92.68-3.18-.36-2.58-2.12-2.89-4.27-2.16-7.44,1.35-5.83.81-11.85.79-17.81,0-3.19.09-6.37,1.57-9.31C126.09,135.6,125.48,134.83,125.35,134.29Z"/><path class="cls-4" d="M82,232.33c-3.53,0-7-.05-10.58,0-1.45,0-2.14-.29-2.07-1.93.13-2.68.1-5.37,0-8.06,0-1.35.48-1.71,1.76-1.71q11.08.08,22.16,0c1.25,0,1.83.27,1.78,1.67-.1,2.76-.09,5.54,0,8.31,0,1.33-.41,1.74-1.73,1.71C89.55,232.28,85.77,232.33,82,232.33Z"/><path class="cls-4" d="M82.29,246.32c3.61,0,7.22.05,10.83,0,1.32,0,2,.22,1.93,1.76-.11,2.77-.07,5.54,0,8.31,0,1.17-.33,1.62-1.56,1.62q-11.2-.08-22.42,0c-1.34,0-1.74-.46-1.71-1.76.08-2.68.09-5.37,0-8.06,0-1.41.41-1.91,1.86-1.88C74.9,246.38,78.59,246.32,82.29,246.32Z"/><path class="cls-4" d="M109.14,232.33c-3.53,0-7-.05-10.58,0-1.43,0-2.15-.22-2.06-1.9.14-2.68.09-5.37,0-8.06,0-1.29.35-1.75,1.7-1.74q11.08.09,22.17,0c1.46,0,1.88.49,1.83,1.89-.09,2.68-.08,5.37,0,8.06,0,1.31-.42,1.76-1.73,1.74C116.7,232.29,112.92,232.33,109.14,232.33Z"/><path class="cls-4" d="M190.6,232.33c-3.61,0-7.22-.07-10.83,0-1.56,0-2.05-.47-2-2,.11-2.68.08-5.37,0-8.06,0-1.17.35-1.63,1.58-1.62q11.33.06,22.67,0c1.12,0,1.45.43,1.43,1.48,0,2.86-.08,5.72,0,8.57,0,1.43-.6,1.65-1.8,1.63C198,232.3,194.3,232.33,190.6,232.33Z"/><path class="cls-4" d="M217.64,232.33c-3.61,0-7.22-.06-10.83,0-1.42,0-1.92-.39-1.86-1.84.1-2.69.07-5.38,0-8.06,0-1.22.21-1.81,1.63-1.8q11.22.09,22.42,0c1.43,0,1.66.63,1.63,1.83,0,2.69-.09,5.38,0,8.06.06,1.52-.59,1.83-1.94,1.8C225,232.29,221.34,232.33,217.64,232.33Z"/><path class="cls-4" d="M217.85,258c-3.61,0-7.23-.09-10.83,0-1.71.06-2.15-.54-2.07-2.15.12-2.6.08-5.21,0-7.81,0-1.28.32-1.76,1.68-1.75,7.39,0,14.78.06,22.17,0,1.45,0,1.89.49,1.84,1.89-.09,2.6-.1,5.21,0,7.81.06,1.53-.42,2.05-2,2C225.07,257.9,221.46,258,217.85,258Z"/><path class="cls-4" d="M109.52,195.44c3.61,0,7.23.06,10.84,0,1.43,0,1.91.42,1.85,1.86-.09,2.51-.09,5,0,7.56.06,1.49-.38,2.09-2,2.08q-11-.1-21.93,0c-1.5,0-1.85-.55-1.8-1.92.09-2.44.12-4.88,0-7.31-.1-1.71.33-2.36,2.18-2.29C102.29,195.54,105.9,195.44,109.52,195.44Z"/><path class="cls-4" d="M217.82,195.44c3.7,0,7.39,0,11.09,0,1.3,0,1.79.37,1.74,1.71-.08,2.6-.08,5.21,0,7.81,0,1.37-.35,2-1.83,2q-11.08-.08-22.18,0c-1.36,0-1.72-.51-1.68-1.77.07-2.69.09-5.38,0-8.07,0-1.41.55-1.66,1.78-1.64C210.43,195.48,214.12,195.44,217.82,195.44Z"/><path class="cls-4" d="M190.7,195.44c3.7,0,7.4.05,11.09,0,1.34,0,1.74.42,1.7,1.73-.08,2.68-.08,5.38,0,8.06,0,1.37-.49,1.71-1.76,1.7-7.31,0-14.63-.05-21.94,0-1.54,0-2.07-.51-2-2,.1-2.44.11-4.88,0-7.31-.07-1.6.36-2.22,2.08-2.16C183.47,195.53,187.09,195.44,190.7,195.44Z"/><path class="cls-4" d="M163.36,195.44c3.6,0,7.21.06,10.81,0,1.56,0,2.27.3,2.17,2-.15,2.51-.1,5,0,7.55,0,1.38-.36,1.92-1.83,1.91-7.3-.06-14.59,0-21.89,0-1.37,0-2-.39-1.94-1.85.08-2.6.09-5.2,0-7.8,0-1.43.46-1.87,1.87-1.84C156.15,195.5,159.75,195.44,163.36,195.44Z"/><path class="cls-4" d="M136.5,195.44c3.69,0,7.38,0,11.06,0,1.28,0,1.81.34,1.77,1.69-.08,2.68-.07,5.36,0,8,0,1.32-.51,1.74-1.79,1.74q-11.06-.06-22.13,0c-1.32,0-1.76-.46-1.72-1.76.07-2.68.08-5.37,0-8,0-1.36.49-1.7,1.76-1.67C129.12,195.48,132.81,195.44,136.5,195.44Z"/><path class="cls-4" d="M82.42,195.44c3.53,0,7.06.05,10.59,0,1.43,0,2.14.21,2,1.89-.14,2.6-.09,5.21,0,7.81,0,1.26-.29,1.8-1.67,1.79q-11.09-.08-22.18,0c-1.46,0-1.88-.56-1.84-2,.08-2.6.09-5.21,0-7.81,0-1.32.42-1.75,1.73-1.73C74.86,195.48,78.64,195.44,82.42,195.44Z"/><path class="cls-4" d="M55.23,206.88c-3.61,0-7.22,0-10.82,0-1.48,0-2.13-.39-2.06-2,.11-2.6.09-5.2,0-7.8,0-1.32.44-1.72,1.74-1.71q11.07.06,22.14,0c1.14,0,1.67.27,1.64,1.53-.07,2.77-.08,5.54,0,8.31,0,1.42-.65,1.65-1.85,1.64C62.44,206.85,58.83,206.88,55.23,206.88Z"/><path class="cls-4" d="M244.7,232.33c-3.52,0-7-.06-10.56,0-1.47,0-2.11-.31-2-1.94.13-2.67.09-5.36,0-8,0-1.31.41-1.73,1.73-1.72q11.06.08,22.12,0c1.38,0,1.69.57,1.67,1.8-.06,2.68-.08,5.37,0,8,0,1.44-.49,1.87-1.89,1.84C252.07,232.28,248.39,232.33,244.7,232.33Z"/><path class="cls-4" d="M55,232.33c-3.6,0-7.21-.05-10.81,0-1.41,0-1.92-.43-1.88-1.86.09-2.68.07-5.37,0-8.05,0-1.24.31-1.8,1.68-1.79q11.07.08,22.12,0c1.33,0,1.76.43,1.72,1.73-.07,2.76-.08,5.53,0,8.3,0,1.38-.55,1.68-1.79,1.66C62.41,232.29,58.73,232.33,55,232.33Z"/><path class="cls-4" d="M244.79,206.88c-3.6,0-7.21,0-10.82,0-1.17,0-1.9-.18-1.86-1.63.09-2.76.08-5.53,0-8.3,0-1.24.47-1.55,1.62-1.55q11.07.06,22.14,0c1.28,0,1.81.35,1.76,1.69-.08,2.6-.1,5.21,0,7.8.06,1.57-.54,2-2,2C252,206.83,248.4,206.88,244.79,206.88Z"/><path class="cls-1" d="M159.65,241.61c0,5.45-.05,10.91,0,16.36,0,1.62-.44,2.15-2.11,2.17-5.61,0-5.61.11-5.61-5.43q0-15.24,0-30.47c0-2.85.18-3,3-2.49l.24.06c4.43.9,4.43.9,4.43,5.44Z"/><path class="cls-1" d="M148,240.83c0,5.71-.05,11.42,0,17.13,0,1.58-.39,2.17-2.09,2.18-5.63,0-5.62.11-5.62-5.42,0-9.65.07-19.31-.06-29,0-2.17.6-3.3,2.75-3.54.58-.07,1.14-.29,1.71-.41,3.09-.63,3.27-.48,3.28,2.66Z"/><path class="cls-4" d="M204.23,233.85c3.6,0,7.21.05,10.81,0,1.47,0,2.13.31,2,1.93-.12,2.43-.08,4.86,0,7.29,0,1.25-.29,1.8-1.67,1.79q-11.19-.08-22.38,0c-1.4,0-1.68-.58-1.65-1.8.07-2.43.12-4.87,0-7.29-.09-1.65.61-2,2.06-1.92C197,233.9,200.63,233.85,204.23,233.85Z"/><path class="cls-4" d="M95.79,244.81c-3.6,0-7.21-.06-10.81,0-1.45,0-2.15-.27-2.06-1.91.13-2.43.07-4.86,0-7.29,0-1.23.26-1.82,1.65-1.81q11.19.09,22.38,0c1.38,0,1.7.55,1.67,1.79-.07,2.51-.09,5,0,7.54.05,1.39-.53,1.7-1.78,1.68C103.17,244.77,99.48,244.81,95.79,244.81Z"/><path class="cls-4" d="M231.39,233.85c3.61,0,7.22.06,10.82,0,1.56,0,2.12.52,2,2-.24,2.9,1.21,6.6-.62,8.48-1.6,1.65-5.26.42-8,.46-4.95.07-9.9,0-14.84,0-1.54,0-2.32-.25-2.2-2a63.59,63.59,0,0,0,0-7c-.09-1.62.56-2,2-1.94C224.17,233.91,227.78,233.85,231.39,233.85Z"/><path class="cls-4" d="M68.53,244.81c-3.6,0-7.21-.05-10.82,0-1.39,0-2-.41-1.92-1.85.08-2.43.05-4.87,0-7.3,0-1.19.25-1.86,1.66-1.85q11.19.06,22.4,0c1.19,0,1.63.4,1.6,1.6-.07,2.51-.09,5,0,7.54.06,1.43-.42,1.9-1.85,1.86C75.92,244.75,72.22,244.81,68.53,244.81Z"/><path class="cls-3" d="M52.73,8.72a13.94,13.94,0,0,1,6.14,5.9c8,14.6,15,29.74,22.47,44.64.8,1.61-.44,1.84-1.29,2.31s-1.58,1.2-2.39-.32C69.78,46.47,61.52,31.89,54.21,16.81A15.43,15.43,0,0,1,52.73,8.72Z"/><path class="cls-4" d="M68.8,208.4c3.6,0,7.21.06,10.81,0,1.44,0,1.91.46,1.85,1.88-.09,2.34-.13,4.7,0,7,.1,1.65-.59,1.92-2,1.91q-10.82-.09-21.63,0c-1.5,0-2.1-.38-2-2a61.52,61.52,0,0,0,0-6.79c-.1-1.74.63-2.12,2.2-2.08C61.59,208.46,65.19,208.4,68.8,208.4Z"/><path class="cls-4" d="M204,219.17c-3.53,0-7.06-.06-10.58,0-1.48,0-2.13-.3-2-1.93.13-2.35.08-4.7,0-7.05,0-1.21.21-1.85,1.63-1.84,7.47.05,14.94,0,22.42,0,1.15,0,1.67.33,1.64,1.57-.07,2.52-.09,5,0,7.56,0,1.38-.53,1.69-1.78,1.67C211.53,219.13,207.75,219.17,204,219.17Z"/><path class="cls-4" d="M204,270.26c-3.52,0-7.05-.09-10.57,0-1.72.06-2.22-.56-2.08-2.16.24-2.82-1.18-6.5.6-8.2,1.42-1.37,5.09-.43,7.76-.44,5.13,0,10.25.05,15.37,0,1.56,0,2.06.45,2,2a57.25,57.25,0,0,0,0,6.55c.11,1.72-.4,2.37-2.22,2.3C211.26,270.16,207.65,270.26,204,270.26Z"/><path class="cls-4" d="M95.81,259.48c3.69,0,7.39,0,11.08,0,1.29,0,1.8.35,1.74,1.7-.09,2.43-.07,4.87,0,7.3,0,1.24-.27,1.83-1.66,1.82-7.48,0-15,0-22.42,0-1.19,0-1.65-.4-1.62-1.61.07-2.51.09-5,0-7.55,0-1.42.59-1.66,1.8-1.65C88.42,259.52,92.11,259.48,95.81,259.48Z"/><path class="cls-4" d="M231.18,219.17c-3.6,0-7.21-.06-10.81,0-1.45,0-1.89-.45-1.83-1.86.1-2.34.12-4.7,0-7-.09-1.63.61-1.94,2.06-1.93q10.82.09,21.63,0c1.55,0,2.06.5,2,2-.1,2.26-.11,4.53,0,6.79.07,1.51-.39,2.06-2,2C238.56,219.1,234.87,219.17,231.18,219.17Z"/><path class="cls-4" d="M177,219.17c-3.69,0-7.38,0-11.07,0-1.29,0-1.79-.38-1.74-1.72.08-2.42.09-4.86,0-7.29-.06-1.52.64-1.81,2-1.8,7.3,0,14.6.05,21.89,0,1.46,0,1.89.5,1.83,1.89a68.87,68.87,0,0,0,0,7c.1,1.68-.63,1.93-2.06,1.9C184.25,219.12,180.65,219.17,177,219.17Z"/><path class="cls-4" d="M123,219.17c-3.69,0-7.38-.06-11.07,0-1.41,0-1.92-.39-1.86-1.84.11-2.34.12-4.7,0-7-.08-1.6.55-2,2-1.95q10.81.09,21.64,0c1.52,0,2.1.45,2,2a59.45,59.45,0,0,0,0,6.54c.11,1.71-.36,2.37-2.2,2.3C130.07,219.07,126.54,219.17,123,219.17Z"/><path class="cls-4" d="M95.61,219.17c-3.61,0-7.22-.06-10.83,0-1.42,0-1.92-.41-1.86-1.85.11-2.35.12-4.71,0-7-.09-1.65.64-1.93,2.08-1.92,7.22.05,14.44.06,21.66,0,1.56,0,2,.49,2,2a67.06,67.06,0,0,0,0,6.8c.07,1.51-.34,2.07-2,2C103,219.09,99.3,219.17,95.61,219.17Z"/><path class="cls-6" d="M136.32,172.75c0,6.29,0,12.58,0,18.87,0,1.63-.26,2.37-2.16,2.36-5.37,0-5.37.05-5.37-5.38,0-2.26,0-4.53,0-6.79,0-1.85-.06-3.6,1.34-5.15.93-1,.79-2.53.52-3.87a30,30,0,0,1,2.84-20.47c.41-.76.72-1.5,1.81-1.37,1.32.16,1,1.16,1,1.92C136.33,159.5,136.32,166.12,136.32,172.75Z"/><path class="cls-6" d="M163.69,172.23c0-6.38,0-12.75,0-19.12,0-.81-.48-2,1-2.16,1.25-.16,1.45.82,1.88,1.63,3.45,6.4,4.07,13.18,2.74,20.23-.24,1.25-.44,2.67.42,3.65,1.64,1.84,1.45,4,1.44,6.12,0,3.11-.1,6.21,0,9.31.08,1.72-.57,2.07-2.15,2.07-5.38,0-5.38.07-5.38-5.38Z"/><path class="cls-4" d="M150,219.17c-3.61,0-7.23,0-10.84,0-1.4,0-2-.38-1.88-1.84.1-2.35.11-4.71,0-7.06-.08-1.64.66-1.93,2.09-1.92,7.15.05,14.29.06,21.43,0,1.54,0,2.09.45,2,2-.11,2.26-.1,4.54,0,6.8.07,1.51-.37,2.07-2,2C157.19,219.1,153.58,219.17,150,219.17Z"/><path class="cls-1" d="M135.43,146.76a21.54,21.54,0,0,0,.93-8.84,3.35,3.35,0,0,1,.74-2.07,20.67,20.67,0,0,0,2.59-4.58c.83-2.76,2.44-3.38,5-2.86,4.09.82,8.2.36,12.29-.11a2.1,2.1,0,0,1,2.63,1.59,9.73,9.73,0,0,0,1.79,3.58c3.54,3.82,1.37,8.63,3,13.36-2.55-1.44-3.79-3.25-5.28-4.76-2.61-2.61-5.18-5.27-7.65-8-1.1-1.22-1.8-1.3-3,0-3.7,4-7.52,7.91-11.32,11.83C136.79,146.29,136.49,147,135.43,146.76Z"/><path class="cls-7" d="M192.69,271.77c3,0,6,.05,9.06,0,1.3,0,1.78.39,1.74,1.72-.08,2.68-.09,5.37,0,8,0,1.39-.43,2-1.82,2-6,0-12.08,0-18.12,0-1.22,0-1.62-.52-1.6-1.67,0-2.76.06-5.53,0-8.3,0-1.46.55-1.89,1.93-1.86C186.82,271.82,189.75,271.77,192.69,271.77Z"/><path class="cls-7" d="M107.38,271.77c2.85,0,5.7,0,8.56,0,1.3,0,2,.24,2,1.78-.1,2.77-.08,5.54,0,8.31,0,1.33-.5,1.74-1.78,1.73q-8.69-.06-17.37,0c-1.67,0-2.39-.59-2.27-2.37a57.18,57.18,0,0,0,0-7c-.12-1.82.34-2.55,2.32-2.43C101.66,271.9,104.52,271.77,107.38,271.77Z"/><path class="cls-4" d="M192.66,246.32c2.94,0,5.88.07,8.81,0,1.46,0,2.12.29,2,1.93-.13,2.67-.09,5.36,0,8,0,1.3-.37,1.74-1.71,1.72q-9-.09-18.12,0c-1.37,0-1.71-.56-1.71-1.79,0-2.77,0-5.54-.12-8.3-.06-1.23.32-1.62,1.52-1.6C186.45,246.36,189.56,246.32,192.66,246.32Z"/><path class="cls-1" d="M136.4,225c0,11.32,0,22.3,0,33.28,0,1.41-.42,1.85-1.85,1.89-5.86.18-5.86.23-5.86-5.68,0-7,.11-14.09-.06-21.13a5.53,5.53,0,0,1,2.58-5.25A24.68,24.68,0,0,1,136.4,225Z"/><path class="cls-1" d="M163.87,225.05a25.85,25.85,0,0,1,6.78,4.65c.76.66.63,1.51.63,2.33,0,8.64,0,17.27.05,25.91,0,1.86-.69,2.19-2.35,2.19-5.38,0-5.38.05-5.38-5.37q0-13.59,0-27.17A4.63,4.63,0,0,1,163.87,225.05Z"/><path class="cls-4" d="M107.45,246.32c2.93,0,5.86.07,8.79,0,1.5,0,2.06.29,1.91,2-.24,2.66-.24,5.35-.22,8,0,1.32-.47,1.73-1.76,1.72q-9-.08-18.1,0c-1.22,0-1.58-.44-1.56-1.61q.1-4.27,0-8.54c0-1.27.5-1.55,1.64-1.53C101.25,246.36,104.35,246.32,107.45,246.32Z"/><path class="cls-7" d="M42.78,208.4c3.19,0,6.38.07,9.56,0,1.56-.05,2,.5,2,2-.11,2.35-.08,4.7,0,7,0,1.27-.34,1.78-1.69,1.77-5.28-.07-10.57-.06-15.85,0a1.85,1.85,0,0,1-2-1.39c-.87-2.44-1.76-4.88-2.73-7.28-.64-1.57-.43-2.23,1.47-2.16C36.57,208.49,39.68,208.4,42.78,208.4Z"/><path class="cls-4" d="M268.49,208.4a79.22,79.22,0,0,1-3.39,9.73c-.39,1.06-1.14,1-2,1-5.19,0-10.39,0-15.58,0-1.45,0-2-.46-1.83-1.87.24-2.89-1.2-6.59.61-8.46,1.58-1.64,5.25-.41,8-.45C259,208.35,263.64,208.4,268.49,208.4Z"/><path class="cls-7" d="M136.11,149.21c4.55-4.75,8.78-9.16,13-13.58.53-.55,1-.86,1.65-.16,4.26,4.48,8.55,8.94,13.15,13.74Z"/><path class="cls-7" d="M106.71,149.31h-28c1.3-1.39,2.27-2.47,3.28-3.52q4.71-4.89,9.44-9.76c.61-.62,1.07-1.52,2.14-.37C97.8,140.11,102.06,144.48,106.71,149.31Z"/><path class="cls-7" d="M220.72,149.28H193.4c1.47-1.55,2.69-2.84,3.92-4.12l8.88-9.26c.58-.6,1-1.3,2-.29,4.13,4.39,8.33,8.73,12.5,13.09C220.75,148.79,220.7,149,220.72,149.28Z"/><path class="cls-7" d="M49.48,149.39H28.24c-.48,0-1.22.05-1.2-.58.05-2-.91-4.25.67-6,2.17-2.44,4.52-4.73,6.75-7.12.64-.68,1.11-.82,1.82-.06C40.49,140,44.73,144.44,49.48,149.39Z"/><path class="cls-7" d="M250.54,149.39c4.74-4.93,9-9.33,13.18-13.76.7-.72,1.16-.69,1.82,0,2.23,2.39,4.59,4.66,6.76,7.11,1.57,1.77.61,4,.67,6,0,.64-.7.6-1.19.6Z"/><path class="cls-4" d="M172.69,186.17V182.9c0-4.18,0-4.17,4.16-4.11,2.4,0,4.55,1.09,6.8,1.7.9.24,1.06.9,1,1.74,0,3.35-.06,6.71,0,10.07,0,1.4-.58,1.67-1.81,1.65-2.85-.07-5.7-.09-8.55,0-1.36.05-1.74-.45-1.69-1.73C172.76,190.21,172.69,188.19,172.69,186.17Z"/><path class="cls-4" d="M127.14,186.59c0,2.34.91,5.45-.24,6.81-1.35,1.59-4.56.46-7,.5-4.63.09-4.64,0-4.63-4.54,0-1,0-2,0-3,0-6,.61-6.7,6.75-7.5,4.82-.64,5.25-.27,5.25,4.48v3.27Z"/><path class="cls-4" d="M230.25,186.38c0-2.42-.95-5.67.25-7,1.41-1.62,4.73-.47,7.22-.52,4.17-.08,4.17,0,4.17,4.25,0,3-.07,6.05,0,9.07.05,1.46-.48,1.87-1.88,1.82-2.69-.09-5.38-.12-8.06,0-1.61.07-2-.55-1.94-2,.1-1.84,0-3.69,0-5.54Z"/><path class="cls-4" d="M69.94,186.16c0,2-.06,4,0,6,.05,1.29-.36,1.79-1.7,1.75-2.86-.08-5.72-.07-8.57,0-1.2,0-1.61-.4-1.59-1.6,0-3.94.06-7.89,0-11.84,0-1.28.33-1.79,1.69-1.75,2.85.09,5.71.07,8.57,0,1.19,0,1.64.38,1.6,1.59C69.89,182.29,69.94,184.22,69.94,186.16Z"/><path class="cls-8" d="M148.44,22.71l1.51.07c4.87.29,6.67,2.56,5.71,7.47a44.51,44.51,0,0,1-1.9,6.48,4.07,4.07,0,0,1-4,2.89c-2.08.09-3.89-.22-4.83-2.31-.57-1.29-1-2.66-1.45-4s-.09-3-1.14-4.53c-.91-1.34,0-3.67.85-5.25.62-1.24,2.44-.58,3.72-.78a9.5,9.5,0,0,1,1.51,0Z"/><path class="cls-2" d="M157.44,46.88a26.28,26.28,0,0,1-.4-2.74c0-.69-.87-1.62,0-2a4.26,4.26,0,0,1,2.69,0c.92.26.56,1.26.55,2s-.08,1.51-.15,2.26c-.31,3.61-.52,3.8-4.05,3.81-3.87,0-4.27.44-4.09,4.4,0,.59.13,1.17.11,1.76,0,1.39.72,3.18-1.75,3.36-2.62.19-2.46-1.6-2.51-3.32,0-1.34-.14-2.67-.22-4s-.68-1.64-1.93-1.73c-5.56-.44-6.26-1.32-6.05-7,0-.9.05-1.63,1.29-1.67s2.19.26,1.77,1.8c-.72,2.66.28,3.25,2.88,2.95A50.75,50.75,0,0,1,157.44,46.88Z"/><path class="cls-9" d="M204.55,43.51a1.88,1.88,0,0,0-.24-.69c-1.66-1.89-.88-2.72,1.26-3.17.89-.19,1.51-1.68,2.61-.89,1.25.9,1.12,2.64,1.88,3.89.34.56-.27,1.43-1,1.41-1.51,0-1.69,1-2.06,2-2.92,8-5.87,16-8.79,24.08-.22.61-.75,1.27-.4,1.89.48.83,1.73,1.62.66,2.54a12.57,12.57,0,0,1-3.68,1.84,1.06,1.06,0,0,1-1.37-.8,5,5,0,0,0-.92-2.26c-1-1.16-.38-2.17.91-2.42a2,2,0,0,0,1.71-1.47c3-8.36,6.07-16.69,9.12-25C204.33,44.16,204.44,43.85,204.55,43.51Z"/><path class="cls-10" d="M259.13,201c0-5.53,0-5.53,5.65-5.53,1.76,0,3.52.09,5.27,0,1.52-.1,1.69.61,1.4,1.81-.62,2.59-1.29,5.18-1.83,7.79a2,2,0,0,1-2.38,1.9c-2.08-.11-4.18-.09-6.27,0-1.45.06-1.94-.54-1.86-1.92S259.13,202.31,259.13,201Z"/><path class="cls-10" d="M34.73,195.44c6.14,0,6.14,0,6.14,6.05,0,5.39,0,5.39-5.38,5.39-4.68,0-4.69,0-5.81-4.55-.43-1.78-.78-3.59-1.18-5.38-.23-1,0-1.58,1.22-1.53C31.39,195.49,33.06,195.44,34.73,195.44Z"/><path class="cls-4" d="M51.57,246.32c5.31,0,10,0,14.71,0,1.18,0,1.63.38,1.6,1.59-.06,2.85,0,5.7,0,8.56,0,.55.13,1.15-.62,1.46-1.35.55-5.56-.16-6.6-1.22A117.74,117.74,0,0,1,51.57,246.32Z"/><path class="cls-4" d="M248.35,246.33a74.85,74.85,0,0,1-9.71,11c-1.65,1.48-4,.52-6.06.48-.41,0-.43-.65-.43-1.07,0-3,0-6.05,0-9.07,0-.94.32-1.37,1.31-1.36C238.27,246.34,243.1,246.33,248.35,246.33Z"/><path class="cls-4" d="M236.53,259.49a87.22,87.22,0,0,1-11.94,10.3c-1.55,1.08-3.59.46-5.4.35-.82,0-.61-.88-.61-1.42,0-2.6,0-5.2,0-7.8,0-.84.09-1.45,1.19-1.44C225.15,259.51,230.56,259.49,236.53,259.49Z"/><path class="cls-4" d="M63.47,259.48c5.91,0,11.19,0,16.45,0,1.26,0,1.58.5,1.53,1.64-.06,1.76.07,3.52,0,5.27-.08,1.27.74,3.21-.57,3.65-1.7.57-3.92.87-5.57-.33A92.88,92.88,0,0,1,63.47,259.48Z"/><path class="cls-7" d="M176.69,233.85c4.1,0,7.86,0,11.61,0,1.19,0,1.63.39,1.6,1.59q-.09,3.89,0,7.77c0,1.16-.32,1.68-1.56,1.64-2-.08-4.13.39-6-.14-2.17-.63-1.59-3.35-2.58-5S177.84,236.05,176.69,233.85Z"/><path class="cls-7" d="M123.38,233.85c-2,3.48-3.79,6.67-4.68,10.25a.85.85,0,0,1-.92.68c-2.25,0-4.51,0-6.77,0-1,0-.88-.82-.88-1.47,0-2.67,0-5.35,0-8,0-.86.16-1.45,1.22-1.44C115.23,233.87,119.13,233.85,123.38,233.85Z"/><path class="cls-11" d="M124.77,235.66c0,7.77,0,15.53,0,23.29,0,1.69-1.42,1.19-2.25,1.09-1.06-.12-3,.92-3.05-1-.27-7.81-.5-15.66,4.22-22.56C123.9,236.12,124,235.67,124.77,235.66Z"/><path class="cls-11" d="M175.22,235a26.64,26.64,0,0,1,5.37,15.79c.08,2.51-.05,5,0,7.54s-1.75,1.66-3,1.75-2.5.4-2.48-1.71C175.28,250.82,175.22,243.27,175.22,235Z"/><path class="cls-12" d="M148,15.93a47.52,47.52,0,0,1,7.71.87c1.45.28,2.4.95,1.94,2.55s-1.09,3-3.28,2.52a29.66,29.66,0,0,0-13.19.09c-1.5.35-2.45.1-2.87-1.43-.46-1.71,0-3.09,1.76-3.6A32.52,32.52,0,0,1,148,15.93Z"/><path class="cls-13" d="M205,282.39c0-3.3,0-6.2,0-9.11,0-1.27.55-1.53,1.66-1.52,4.83,0,9.67,0,15.29,0A109.67,109.67,0,0,1,205,282.39Z"/><path class="cls-13" d="M95,282c-3.29-.95-13.87-7.5-16.45-10.24,5.24,0,10.23,0,15.23,0,1,0,1.24.56,1.23,1.44C95,276.13,95,279.05,95,282Z"/><path class="cls-9" d="M124.35,177.3c-2.88-.38-5.42.9-8.07,1.61-1.62.44-3.22,1-4.92.44a2.92,2.92,0,0,1-2.22-2.46c-.2-1.27.55-1.95,1.51-2.64,2.65-1.9,5.08-1.52,7.52.4a3.91,3.91,0,0,0,5-.75,1.25,1.25,0,0,0-.13-1.61c-.5-.66-1.18-1.19-1.69-1.84s-2.07-.62-1.37-1.6,1.65.12,2.29.68a8.46,8.46,0,0,1,1.62,1.91c.59.95,1.07,1.48,2.37.91.92-.4,2.44-1.48,3,.71.49,2-.32,3.84-2.09,4.21A13.91,13.91,0,0,1,124.35,177.3Z"/><path class="cls-9" d="M186.59,179.61c-1.15-.29-2.56-.55-3.9-1a17.91,17.91,0,0,0-8.36-1.23,2.88,2.88,0,0,1-3.59-2.64c-.36-2.5.53-3.33,2.89-2.45,1.32.5,1.94.24,2.57-.91a6.64,6.64,0,0,1,2.85-2.75.82.82,0,0,1,1.12.22c.34.48-.09.71-.46.94a4.36,4.36,0,0,0-1,.72c-.89,1-2.66,1.68-1.71,3.4.81,1.47,3.5,1.74,4.92.71,2.07-1.48,4.13-2.47,6.64-.82,1.3.85,2.8,1.49,2.26,3.4S188.64,179.58,186.59,179.61Z"/><path class="cls-7" d="M158.73,220.69c5.21,0,10.42.05,15.63,0,1.57,0,2,.48,2,2-.1,2.77,0,5.55,0,8.32,0,.47.15,1.08-.52,1.24-.45.11-.78-.19-1.06-.52A39.68,39.68,0,0,0,158.73,220.69Z"/><path class="cls-7" d="M141.38,220.69a40.06,40.06,0,0,0-15.92,10.75c-.38.42-.73,1.06-1.43.68-.52-.29-.32-.9-.32-1.37,0-2.76.06-5.52,0-8.28,0-1.48.52-1.83,1.9-1.81C130.84,220.72,136.11,220.69,141.38,220.69Z"/><path class="cls-9" d="M220.78,56.2c-1.38,7.13-4,13.72-6.41,20.37-.13.38-.36.88-.23,1.17.39.87,1.58,1.62.76,2.65s-2.39.94-3.41,1.88c-.54.49-1.39,0-1.64-.66a19.27,19.27,0,0,0-1.27-2.91,1.14,1.14,0,0,1,.82-1.76c1.88,0,2-1.47,2.44-2.67,1.91-5.17,3.86-10.34,5.66-15.55A3.25,3.25,0,0,1,220.78,56.2Z"/><path class="cls-10" d="M182,264.56c0-5.09,0-4.94,5.14-5.14,2.42-.1,3.09.75,2.79,2.94a15.61,15.61,0,0,0,0,2.27c0,5.8,0,5.72-5.85,5.68-1.76,0-2.2-.67-2.08-2.22C182,266.92,182,265.74,182,264.56Z"/><path class="cls-10" d="M43,233.85c3.42,0,6.35.1,9.26,0,1.77-.09,2.12.66,2,2.2-.1,2.17,0,4.35,0,6.52,0,.76.44,1.95-.64,2.14-1.23.22-2.77.72-3.75-.55A80.45,80.45,0,0,1,43,233.85Z"/><path class="cls-10" d="M257,233.85a80.4,80.4,0,0,1-6.9,10.31c-.92,1.2-2.38.71-3.55.55-1.36-.18-.76-1.48-.79-2.29-.08-2.18,0-4.37,0-6.55-.07-1.48.34-2.12,1.95-2.06C250.57,233.93,253.51,233.85,257,233.85Z"/><path class="cls-4" d="M110.12,264.61c0-5.17,0-5.08,5.3-5.18,2,0,2.7.5,2.52,2.51s0,3.86,0,5.79c0,.5.19,1.16-.06,1.48-1.7,2.24-4.12.56-6.17,1-1.2.27-1.62-.43-1.56-1.59C110.17,267.3,110.12,266,110.12,264.61Z"/><path class="cls-9" d="M145.54,12.87c-.42,1.94-1.74,2.19-3.4,1.84,1-4.76,2.79-7,5.78-7,2.73-.05,4.92,2.5,6,7.08l-7.26-.33c-.73,0-.7-.55-.67-1.07.13-.2.17-.41-.05-.58S145.67,12.73,145.54,12.87Z"/><path class="cls-14" d="M151.48,41.07,154.26,38c.45,2.24.76,4,1.18,5.72.28,1.19-.18,1.39-1.26,1.36-2.84-.06-5.68-.07-8.51,0-1.2,0-1.66-.2-1.46-1.5s.21-2.83.34-5c1.73,2.61,4.3,1.47,6.3,2.46.05.14,0,.4.05.4C151.24,41.57,151.28,41.21,151.48,41.07Z"/><path class="cls-15" d="M213.18,55.24a2.07,2.07,0,0,0,0,.24c4.1,1.15,2.18,3.74,1.25,5.86-.47,1.11-.16,3.36-2.08,3-2.21-.4-1.15-2.55-1.32-4a4.72,4.72,0,0,1,.1-1c1-.33,1.37,1,2.32.67.54-.89-.46-1-.89-1.35a3,3,0,0,1-.77-3.64,2.55,2.55,0,0,1,3.08-1.91c1.69.31,3.41.53,5.29.82C218.36,55.52,218.36,55.52,213.18,55.24Z"/><path class="cls-16" d="M186,285.08a7.5,7.5,0,0,1,1.5,0c.85.16,2.25-.63,2.3,1,0,1.4.64,3.14-1.61,3.56a15.17,15.17,0,0,0-1.91.62c-4.4,1.46-5.28.61-4.37-4.11.17-.84.54-1.15,1.33-1.14S185.12,285.09,186,285.08Z"/><path class="cls-4" d="M113.54,285.09c4.22,0,5.42,1.67,4.35,5.44-.23.82-.68.86-1.28.69-1.13-.32-2.23-.7-3.35-1-2-.57-3.86-1.28-3.12-4C110.77,283.87,112.77,285.9,113.54,285.09Z"/><path class="cls-17" d="M222.3,54.41c-1.32-1.7-3-3-1.37-5,0-.06.07-.2,0-.24-3-3.14.61-3.34,2-4.39a1.33,1.33,0,0,1,2.29.83,5.35,5.35,0,0,0,1.05,2.2c.5.63.33,1.63-.25,1.72C223.33,49.91,223.43,52.49,222.3,54.41Z"/><path class="cls-18" d="M75.6,66.92c-1.24-.1-2.28-.56-2.24-1.9s1.28-.64,2-.68a12,12,0,0,0,10.2-5.87c.27-.43.19-1.36,1-1.14s.89.92.9,1.63a2.36,2.36,0,0,1-1.1,2.15c-3.24,1.9-6.52,3.75-9.8,5.59A3.07,3.07,0,0,1,75.6,66.92Z"/><path class="cls-19" d="M139.35,77.83c-1.26-.19-2.57.14-2.62-1.71s1.32-1.24,2.23-1.45c1.78-.41,3.56-.87,5.35-1.21.6-.11,1.68-.72,1.62.64,0,.94.79,2.36-.83,2.73C143.16,77.28,141.17,77.52,139.35,77.83Z"/><path class="cls-20" d="M160.89,77.72c-1.88-.28-3.78-.59-5.68-.84s-1.13-1.78-1.13-2.76c0-1.35,1.07-.63,1.68-.53,1.82.27,3.62.64,5.43.94,1,.18,2.22,0,2.09,1.72S161.91,77.57,160.89,77.72Z"/><path class="cls-21" d="M40.9,229.22c-2.18-2.41-3.38-5.24-4.75-8.17,1.06-.68,2.14-.26,3.15-.38,1.18-.14,1.65.36,1.62,1.57C40.85,224.56,40.9,226.89,40.9,229.22Z"/><path class="cls-22" d="M206.86,64.64c-5.27.68-5.27.68-3.48-4.23.46-1.25.92-2.5,1.34-3.76.27-.8.58-1.31,1.6-1,1.3.39.37,1,.2,1.49A10.26,10.26,0,0,0,206.86,64.64Z"/><path class="cls-23" d="M263.84,220.81a29.88,29.88,0,0,1-4.74,8.48v-4.37C259.1,220.47,259.1,220.47,263.84,220.81Z"/><path class="cls-17" d="M149.59,72.83c1.69,0,3-.46,3,1.84s-1.14,2.13-2.63,2.09c-1.32-.05-2.57.31-2.57-1.9S148.45,72.59,149.59,72.83Z"/><path class="cls-24" d="M90.9,70.35c.17.62.38,1.26,1,.33.38-.56-.27-1.73.85-1.79.69,0,1.1.69,1.37,1.33A2.45,2.45,0,0,1,94,73c-1.51,1.79-2.61,1.32-4-1.7C90.29,71,90.05,70.19,90.9,70.35Z"/><path class="cls-25" d="M209.55,64.51c-2.35-1.75-2.73-6.45-1-7.93a1.13,1.13,0,0,1,.88-.27c.69.16.51.8.41,1.22A26.54,26.54,0,0,0,209.55,64.51Z"/><path class="cls-26" d="M198.43,285.65c-1.77.73-3.54,1.47-5.32,2.19-.5.2-1.17.77-1.54.12a4.37,4.37,0,0,1-.16-2c0-.81.61-.9,1.23-.9h5.76Z"/><path class="cls-26" d="M108.73,288.59l-6.94-2.86.07-.63a41.66,41.66,0,0,1,5.7,0C109.6,285.43,108.23,287.09,108.73,288.59Z"/><path class="cls-27" d="M93.43,67.3c2.65-.91,3.5.62,3.9,2.22.34,1.31,1.13,3.14-1.41,3.84C96.18,71,95.73,68.92,93.43,67.3Z"/><path class="cls-28" d="M79.44,73.22c-1.37-2.58.94-2.84,2.33-3.55,1.7-.87,2.45,0,2.64,1.7l-.23.27C82.55,72,81.47,74,79.44,73.22Z"/><path class="cls-29" d="M90.9,70.35l-.88,1c-1-1.56-2.53-3-1-5,.19-.35.32-.8.87-.48C91.67,67,91.21,68.7,90.9,70.35Z"/><path class="cls-24" d="M116.09,171.6a3.46,3.46,0,0,1,5.13.81c.13.24.49.54,0,.82s-1.07.91-1.8.48C118.4,173.07,117.35,172.4,116.09,171.6Z"/><path class="cls-30" d="M86.92,70.34a26.57,26.57,0,0,0,1.67,2.78c1.29,1.69.81,2.64-1.26,3.16l-1-5.27C86.13,70.43,86.41,70.29,86.92,70.34Z"/><path class="cls-24" d="M183.88,171.62c-1.12.7-2.12,1.29-3.06,1.95a1.4,1.4,0,0,1-2-.33c-.65-.75.24-1.13.67-1.46C180.82,170.8,182.18,169.58,183.88,171.62Z"/><path class="cls-25" d="M89.28,79.94c-1.12.08-1.66-.68-1.58-1.35.17-1.33,1.59-1.59,2.57-2s1.45.59,1.39,1.32C91.54,79.33,90,79.25,89.28,79.94Z"/><path class="cls-31" d="M84.41,71.37c.39.82,2,1.88.28,2.44-1.29.41-2.53,3.68-4.32.56.58-2.05,2.93-1.75,4.07-3.05Z"/><path class="cls-32" d="M197.8,54.19c.2,1.31-1.06,1.06-1.65,1.47C194.5,56.8,193,58,192.52,60.1c-.12.51.09,1.42-.82,1.16-.68-.19-.42-1-.32-1.55.49-2.63,3.54-5.16,6.46-5.45Z"/><path class="cls-33" d="M191.55,53.8c-2.3,1.54-4.68,2.88-7.59,2.74,1.92-1.71,5.07-1.27,6.43-3.87Z"/><path class="cls-34" d="M89.92,65.82l-.87.48c-.32-.35-.61-.51-1,0-1.59,2-2.58.58-4-.75C86.31,64.88,88.15,64.35,89.92,65.82Z"/><path class="cls-33" d="M129.78,57.3c-1.76-1.88-2.13-4.58-3.77-6.56,2.75,1,3,3.88,4.33,6Z"/><path class="cls-35" d="M169.67,52.74c2.05-1.38,3.16-4,6.15-5l-5.58,6.06-.53-.71c-.19-.06-.26-.13-.21-.22S169.61,52.74,169.67,52.74Z"/><path class="cls-36" d="M157.52,25A32.59,32.59,0,0,1,159,28.68a1.25,1.25,0,0,1-1.17,1.62c-1,0-.49-.86-.55-1.35-.14-1.08-.19-2.17-.28-3.26C156.77,25.16,156.94,24.89,157.52,25Z"/><path class="cls-37" d="M169.67,52.74c0,.12,0,.24,0,.37l-1.5.08c.51-2.45,2.07-4.53,2.5-7,.79,1.65.09,3.11-.47,4.57C170,51.37,169.25,51.89,169.67,52.74Z"/><path class="cls-38" d="M84.44,71.32c.26,1.51-1.21,1-1.81,1.54a22.21,22.21,0,0,1-2.26,1.51,1.45,1.45,0,0,1-.93-1.15C81.23,72.89,82.49,71.19,84.44,71.32Z"/><path class="cls-39" d="M82.6,76.62c.77-.87,1.49-1.89,2.77-1.54.48.13.43,1.12.07,1.54C84.59,77.63,83.61,77.42,82.6,76.62Z"/><path class="cls-40" d="M223.63,63.45A2.1,2.1,0,0,1,221,64.72c-.52-.16-.45-.94-.2-1.3C221.67,62.11,222.58,63.24,223.63,63.45Z"/><path class="cls-41" d="M184.75,62.24c0-.85-.77-1-1.2-1.44s-1.3-.49-.7-1.25c.44-.56.9.08,1.22.33.77.59,1.75.95,2.25,1.87C185.94,62.38,185.32,62.22,184.75,62.24Z"/><path class="cls-42" d="M139.4,25.54c-.28-1.49.8-1.7,1.77-2.17.5,1.23-.18,2.11-.32,3.06-.5.18-.74-.17-1-.49A3.39,3.39,0,0,0,139.4,25.54Z"/><path class="cls-43" d="M81.55,68.57l-3,1.67C78.31,67.92,78.91,67.61,81.55,68.57Z"/><path class="cls-44" d="M224.64,60.2a3,3,0,0,1-.84-.19c-.65-.46-1.72.08-2.13-.88a.55.55,0,0,1,.42-.75,2.6,2.6,0,0,1,2.54,1.09C224.71,59.57,224.64,59.78,224.64,60.2Z"/><path class="cls-19" d="M139.92,29.47c0,.53,0,.94-.75,1s-.82-.41-1-.84c-.48-.94.1-1.75.33-2.6,1-.18.89.72,1.2,1.22S139.51,29.13,139.92,29.47Z"/><path class="cls-28" d="M222.09,60.61c.73.18,1.74,0,2,1a.51.51,0,0,1-.75.62c-.76-.34-2,.09-2.24-1.07C221,60.68,221.59,60.58,222.09,60.61Z"/><path class="cls-45" d="M139.87,25.46l1,1c-.45.72.81,2.07-.86,2.34C139,27.7,139.56,26.58,139.87,25.46Z"/><path class="cls-46" d="M175.22,135.41c-.83.21-1.43,1.92-2,1.13-.8-1,1-1.43,1.47-2.25Z"/><path class="cls-47" d="M125.35,134.29c.13.1.33.17.37.29.29.76,1.94,1.16,1.14,2s-1.25-.93-2.08-1.12Z"/><path class="cls-48" d="M83.45,67.29l-2.52-.73C82.34,64.22,82.76,65.86,83.45,67.29Z"/><path class="cls-49" d="M86.5,62.8c.61.92,1.87.05,2.52.9H85.41C85.56,63,86.07,63,86.5,62.8Z"/><path class="cls-50" d="M225.48,58.33c-1.28-.52-2.21-.5-2.82-1.47C223.87,56.46,224.73,56.58,225.48,58.33Z"/><path class="cls-51" d="M139.87,25.46l.12,3.32c0,.23-.05.46-.07.69l-.59-1a2.35,2.35,0,0,1,.07-2v-.95A1.09,1.09,0,0,1,139.87,25.46Z"/><path class="cls-52" d="M86.92,70.34l-.56.67C86,70.4,85.7,69.78,85.24,69,86.64,68.89,86.62,69.78,86.92,70.34Z"/><path class="cls-53" d="M151.48,41.07a2.66,2.66,0,0,1-.77,1.87,1.35,1.35,0,0,1,.14-1.88Z"/><path class="cls-54" d="M145.54,12.87c.14-.55.47-1.36,1-1s-.17,1-.52,1.48Z"/><path class="cls-55" d="M157.52,25l-.55.74a2.08,2.08,0,0,1-.35-2.08C157.3,23.82,157.34,24.43,157.52,25Z"/><path class="cls-56" d="M139.4,26.49c0,.67-.05,1.35-.07,2L138.46,27C138.51,26.38,138.93,26.39,139.4,26.49Z"/><path class="cls-57" d="M210.43,164.76v1.77c0,4.53,0,4.47-4.48,4.27-1.41-.07-1.66-.64-1.64-1.84.05-2.77.07-5.55,0-8.32,0-1.38.38-2.08,1.85-1.9a4.83,4.83,0,0,0,1.26,0c2.41-.4,3.4.55,3.05,3A20.29,20.29,0,0,0,210.43,164.76Z"/><path class="cls-57" d="M95.68,164.88q0,1.26,0,2.52c-.05,3.83.45,3.19-3.33,3.4-2.14.12-3-.38-2.82-2.72a55.56,55.56,0,0,0,0-7.3c0-1.5.41-2.21,2-2.05a10.77,10.77,0,0,0,2.27,0c1.41-.13,2,.42,1.89,1.86S95.68,163.45,95.68,164.88Z"/><path class="cls-58" d="M147,164.56a20.14,20.14,0,0,0,0-3c-.37-2.38.65-3,2.89-2.85,3.2.18,3.21,0,3.21,3.26,0,2.35,0,4.69,0,7,0,1.22-.23,1.75-1.63,1.8C147,171,147,171,147,166.57Z"/><path class="cls-59" d="M38.48,164.72v2c0,4.06-1.13,4.92-5.13,4a1,1,0,0,1-1-1.17q0-4.77,0-9.52c0-1,.42-1.24,1.34-1.35,4.48-.52,4.76-.31,4.76,4.24Z"/><path class="cls-59" d="M267.63,164.92a18,18,0,0,0,0,2.75c.39,2.51-.53,3.18-3.08,3.2s-3.32-.75-3.09-3.23a54.49,54.49,0,0,0,0-7c-.05-1.4.42-2.06,1.84-1.89h.26c4.92,0,3.9-.43,4,3.91C267.64,163.42,267.63,164.17,267.63,164.92Z"/><path class="cls-60" d="M167.6,134.43a5,5,0,0,1-1.47-3.63c1.4,1.07,1.49,2.21,2.06,3C168.33,134.36,168.13,134.55,167.6,134.43Z"/><path class="cls-61" d="M167.6,134.43l.59-.6a3.75,3.75,0,0,1,1.58,2C168.47,136,168.06,135.17,167.6,134.43Z"/><path class="cls-62" d="M131.81,133.83c.58-.82.67-2,1.77-2.79.39,1.62-.4,2.5-1.19,3.39C131.87,134.55,131.67,134.36,131.81,133.83Z"/><path class="cls-63" d="M131.45,135.46c-.4.47-.83,1.35-1.47.6-.47-.56.36-.91.83-1.2A.77.77,0,0,1,131.45,135.46Z"/><path class="cls-64" d="M131.45,135.46l-.64-.6,1-1,.58.6A1.68,1.68,0,0,1,131.45,135.46Z"/><path class="cls-65" d="M144.32,25.35l3.81-.91c-1.62,1,.15,2.46-1.31,2.88a1.63,1.63,0,0,1-2-1.3C145.39,25.24,144.11,25.86,144.32,25.35Z"/><path class="cls-66" d="M151.38,34.36h-4.26a5,5,0,0,1,4.26-.69Z"/><path class="cls-67" d="M151.07,27.36c.47,1.3,1.16,2.58.14,4l-.63-3.45C150.73,27.74,150.76,27.43,151.07,27.36Z"/><path class="cls-68" d="M151,24.5c.73,0,1.47-.05,2.19,0,.42,0,1.14-.36,1.2.31s-.69.69-1.25.68a.36.36,0,0,1-.61,0l-1-.06C151.13,25.19,150.77,25,151,24.5Z"/><path class="cls-69" d="M151,24.5l.49.88c-.61.56-.2,1.33-.41,2l-.49.58c-.57-.94.47-2.14-.63-3.15C149.57,24.44,150.6,24.58,151,24.5Z"/><path class="cls-70" d="M152.52,25.44l.61,0,1.41.81c-.88.29-1.45,1.26-2.34.63C151.53,26.43,152.42,26,152.52,25.44Z"/><path class="cls-71" d="M149.65,31.29c-.13.68-.52.73-1,.72s-.72-.07-.58-.5.36-1,1-.8C149.36,30.79,149.51,31.14,149.65,31.29Z"/><path class="cls-72" d="M148.35,36c1-.89,1.72-.83,3-.42C150.19,36.29,149.41,36,148.35,36Z"/><path class="cls-63" d="M151.2,37c.52.45.61,1.3.13,1.43-.9.26-.45-1-1-1.3A.56.56,0,0,1,151.2,37Z"/><path class="cls-69" d="M144.32,25.35c.32.27.89-.13,1.08.42a5.93,5.93,0,0,1-.57.25c-.43-.06-1,.13-1.2-.35S144,25.35,144.32,25.35Z"/><path class="cls-73" d="M151.2,37l-.84.13-1.54.14C149.77,36.19,150.46,36.28,151.2,37Z"/><path class="cls-74" d="M206.84,43.34c-.79-.18-1.34-.54-1.23-1.37a1.21,1.21,0,0,1,2.39.32C207.93,43,207.36,43.19,206.84,43.34Z"/><path class="cls-75" d="M195.38,71.82a1,1,0,0,1,1.16,1,1.09,1.09,0,0,1-1.09,1.34c-.78,0-1.19-.5-1.17-1.27A1,1,0,0,1,195.38,71.82Z"/><path class="cls-76" d="M211.81,77.57c.68.18,1.26.49,1.19,1.31A1.12,1.12,0,0,1,211.66,80a1.09,1.09,0,0,1-1.08-1.12C210.56,78,211.13,77.73,211.81,77.57Z"/><path class="cls-51" d="M223,46.7c.89.12,1.35.57,1.3,1.33a1.05,1.05,0,0,1-1.11,1.1,1.1,1.1,0,0,1-1.17-1.28A1.25,1.25,0,0,1,223,46.7Z"/></svg>