<svg id="Layer_1" data-name="Layer 1" xmlns="http://www.w3.org/2000/svg" viewBox="0 0 300 300"><defs><style>.cls-1{fill:#005941;}.cls-2{fill:#fac825;}.cls-3{fill:#f9c825;}.cls-4{fill:#f9c725;}.cls-5{fill:#f6c524;}.cls-6{fill:#f1c124;}.cls-7{fill:#efc023;}.cls-8{fill:#997a17;}</style></defs><path d="M21.64-.6H278.36a1,1,0,0,1,1,1V175.65A123.39,123.39,0,0,1,156,299H144.27A123.62,123.62,0,0,1,20.65,175.42V.4a1,1,0,0,1,1-1Z"/><path class="cls-1" d="M150.16,2.54H273.22c3.78,0,3.78,0,3.78,3.82q0,84,0,168.07a116.75,116.75,0,0,1-12.39,53.44,118.45,118.45,0,0,1-46.81,49.62,130.39,130.39,0,0,1-56.32,17.62c-22.64,1.83-44.46-1.41-65.28-10.49C70.53,273.4,50.52,255.77,37,231A115.68,115.68,0,0,1,23,174.62Q23,90.32,23,6c0-3.49,0-3.49,3.59-3.49Z"/><path d="M271.54,134.5a45.6,45.6,0,0,0-14.49-3.44c-1.84-.1-3,.38-3.47,2.25a5.88,5.88,0,0,1-.56,1.46c-1.42,2.49-1.48,4.85.45,7.17,1.77,2.11,1.95,4.28.09,6.52-.6.72-.82,1.74-1.37,2.5-3.27,4.49-4.57,9.19-1.86,14.44a2,2,0,0,1-.79,2.72,14.13,14.13,0,0,1-1.17,1c-3.86,2.24-5.09,5.35-3.33,9.57a2.61,2.61,0,0,1-1.16,3.38c-.43.29-.8.67-1.25.92-3.89,2.17-5.64,5.35-4.81,9.85.33,1.81-.21,3.28-2.17,3.85q-7.89,2.25-7.47,10.43c.11,1.95-.94,2.82-2.68,3.15-.26,0-.49.21-.74.25-4.89.76-8,3.21-8.21,8.51a2.16,2.16,0,0,1-2.37,2.21c-.51,0-1,.31-1.53.29-5-.13-8.22,1.83-9,7a2.1,2.1,0,0,1-2.61,1.89c-.35,0-.71,0-1,0-5.11-.87-8.94.5-10.54,5.91a2,2,0,0,1-2.5,1.34c-1.11-.15-2.23-.27-3.35-.4-3.7-.44-7.22-.49-9.3,3.49-.65,1.24-1.92,1.35-3.21,1.07-.42-.09-.85-.17-1.26-.3-4.77-1.53-9.14-1.45-12.43,3.07a1.58,1.58,0,0,1-2.3.37c-.44-.27-1-.4-1.39-.7-2.45-1.8-4.89-1.9-7.34,0-1.84,1.4-3.41,1.19-4.88-.64-2.45-3-5.47-3.86-9.19-2.41s-6.74.8-8.76-2.95a2.37,2.37,0,0,0-2.64-1.17c-2.32.26-4.67.27-7,.55-1.74.2-3.1,0-3.7-1.91-1.44-4.49-4.49-6.18-9.07-5.3-3,.58-5-.57-5.51-3.74S93.31,221.86,90,222c-4.94.19-7.38-2.28-7.63-7.15-.08-1.6-1.09-2.42-2.61-2.8a32.43,32.43,0,0,0-3.7-1.19c-3.45-.43-4.61-2.59-4.55-5.68.08-3.68-1.24-6.29-5-7.36-3.52-1-5-3.32-4.35-7A5.65,5.65,0,0,0,59,184.35c-.89-.51-1.59-1.35-2.46-1.91-1.61-1.05-2.22-2.41-1.46-4.21,1.67-4,.23-6.83-3.2-8.94-2.15-1.32-3-3-1.81-5.38.71-1.46.09-2.17-1.44-2.48a24.09,24.09,0,0,1-8.21-3.15c-2.57-1.62-4.11-3.6-4-7,.26-6.84.39-13.71,0-20.55s2.85-11.37,7.85-15.2a23.87,23.87,0,0,1,8.06-4.11,2.17,2.17,0,0,0,1.87-2.6c0-.34.05-.7,0-1-.78-4.81.4-8.65,5.2-10.8a2.89,2.89,0,0,0,1.62-3.47c-1-5.31.47-9,6.3-10.13a2.32,2.32,0,0,0,2-2.65c0-.17,0-.34,0-.51,0-5.25,1.7-9,7.69-9.26A2.45,2.45,0,0,0,79.3,69a11.19,11.19,0,0,0,.47-1.21c1-5.27,4.18-7.83,9.59-7.49,1.35.09,1.91-.78,2.53-1.82,1.59-2.62,2-6,4.75-7.89.38-.26.31-1.3.32-2,0-3.65.26-7.31,0-10.93-.45-5.28,2.25-8.77,6.1-11.58,9.31-6.8,26.17-5.25,34.23,3a9.36,9.36,0,0,1,3,7.15c-.2,8.23-.32,16.48,0,24.71.4,10.82-7.56,17.06-17.18,17.51a36.85,36.85,0,0,0-6.46.57c-2.93.68-5.82,1.7-7.4,4.39a5.43,5.43,0,0,1-4.53,2.9c-1.11.12-2.2.44-3.31.63-1.38.23-2.3,1-2.27,2.39.06,3.18-1.81,4.88-4.42,6-2.12.94-3.24,2.34-3,4.83s-2,3.57-3.57,4.75a5.8,5.8,0,0,0-2.59,5.77c.12,1,.43,2.28-.46,3-2.31,1.79-.91,2.36.76,3.24,5.51,2.93,11,5.83,16.4,9,10.14,6,21.27,8.71,32.77,10.21a168,168,0,0,0,23.09,1.16,167.33,167.33,0,0,0,50.09-8.06c3-.95,5.92-2,8.92-2.84,1.63-.46,2-1.38,2.16-3,.29-3.75-.17-7.05-3.71-9.21-1.37-.84-1.19-2.28-1-3.53a5.56,5.56,0,0,0-2.61-5.75c-2.26-1.57-4.11-3.42-3.68-6.6.19-1.48-1.19-2-2.25-2.56-2.79-1.43-5.23-3.06-5.1-6.74,0-1.19-.85-1.82-2-2s-2.2-.52-3.31-.66a6.22,6.22,0,0,1-4.79-2.94c-2.68-3.95-7.09-4.74-11.52-4.85-4.05-.09-8-.6-11.51-2.66-4.87-2.81-7.74-7-7.83-12.65-.15-9.54,0-19.08-.08-28.62A5.52,5.52,0,0,1,161,31.35a20.27,20.27,0,0,1,9.38-7.15A30.59,30.59,0,0,1,192,23.54,18.51,18.51,0,0,1,200.08,29a10.42,10.42,0,0,1,3,7.76c-.2,3.63-.05,7.28,0,10.93,0,1.51,0,2.76,1.49,4.05s2.11,3.53,2.91,5.44c.88,2.09,2,3.55,4.54,3.37,4.41-.32,7,1.95,7.74,6.15.71,3.86,3.58,4.81,6.74,5.3,2.39.37,3.62,1.62,3.48,3.93-.32,5.32,2.19,8.35,7.26,9.52a2.16,2.16,0,0,1,1.8,2.69c0,.34,0,.7,0,1-.84,4.66.37,8.29,5,10.34a3.1,3.1,0,0,1,1.78,3.67,9.49,9.49,0,0,0,4.2,10.08,3.83,3.83,0,0,1,1.66,4.71c-.61,1.91.23,2.86,2.3,3.41,7,1.87,12.92,5.4,17.16,11.44A1.84,1.84,0,0,1,271.54,134.5Z"/><path class="cls-1" d="M92.17,144.12c9.72.7,19.47,2.75,29.18,4.92,11.43,2.56,22.91,4.85,34.66,4.84,20.33,0,39.85-4.45,58.77-11.72,1.94-.75,3.88-1.5,5.78-2.34a2.15,2.15,0,0,1,2.8.49c.91,1,.12,1.75-.37,2.53a18.48,18.48,0,0,1-1.72,2.59c-1.48,1.65-1.69,3.32-.42,5.14a2.45,2.45,0,0,1-.48,3.48,6.48,6.48,0,0,0-1.85,7.08,2.21,2.21,0,0,1-1.43,2.93c-2.44,1.06-3.16,3.07-3.07,5.47a5.46,5.46,0,0,1-3.05,5.56c-2.24,1.18-2.67,3.28-2.67,5.5a3.07,3.07,0,0,1-2.52,3.42c-2.14.5-3.13,2-3.7,3.92-.78,2.66-2.09,4.65-5.15,5-2.26.3-2.82,2.45-3.63,4.09-1,1.92-2.09,3.08-4.38,2.74-2.09-.31-2.9,1.48-3.71,2.77-1.46,2.35-3.33,3.44-6,2.9-3-.6-4.56,1.7-6.42,3.24-1.24,1-2.34,1.65-3.95,1a4.65,4.65,0,0,0-5.42,1.19c-.84.86-1.92,1.67-3.22.82-2.72-1.8-5.16-.82-7.43.8-1.87,1.33-3.52,1.45-5.4,0-2.36-1.77-4.88-2.53-7.68-.8-1.47.91-2.4-.4-3.42-1.1s-2-1.9-3.45-1.28c-2.79,1.18-5,.3-6.86-1.82a6,6,0,0,0-5.8-2.09c-2.28.37-3.77-.6-5-2.45-1.27-2-2.71-3.8-5.57-3.31-1.53.26-2.06-1.09-2.56-2.17-1.25-2.71-2.81-5-6.13-5.28-1.43-.14-1.87-1.4-2.26-2.56-1-2.85-2.05-5.53-5.5-6.26-1.19-.25-1.43-1.41-1.41-2.51.05-2.9-.91-5.21-3.62-6.61a4,4,0,0,1-2.09-3.9c0-2.87-.4-5.44-3.6-6.79a2.1,2.1,0,0,1,0-3.78c5.77-2.46,6.72-7,6.26-12.58C88.4,144,88.63,144,92.17,144.12Z"/><path class="cls-2" d="M38.62,151.42c0-8.24-.14-16.21.06-24.17.1-3.8,2.57-6.59,5.36-8.87,8.17-6.69,17.4-8,27.39-5.11,8,2.29,15.18,6.26,22.32,10.34,9.26,5.3,18.55,10.42,29.16,12.62,16.62,3.46,33.34,3.87,50.2,2.43,18.83-1.61,36.57-7.45,54.25-13.56,9.22-3.18,18.55-4.36,28-1.24a26.49,26.49,0,0,1,10.08,5.8c-.56.69-1.18.42-1.7.31a58.1,58.1,0,0,0-36,4.51A195.49,195.49,0,0,1,178.4,150a128.17,128.17,0,0,1-47-.92c-10.52-2.15-20.93-4.8-31.61-6.14C78.76,140.31,58.29,141.51,38.62,151.42Z"/><path class="cls-2" d="M200.94,59c-12.72-9-25.61-9.53-39.22-1.76V50c0-4.76.05-9.53,0-14.29a5.51,5.51,0,0,1,1.48-4c6.14-6.82,14-8.43,22.68-7.55,5.54.57,10.37,2.65,13.72,7.37a5.18,5.18,0,0,1,1.34,2.77C201,42.52,200.94,50.71,200.94,59Z"/><path class="cls-2" d="M138,57.1c-13.35-7.62-26.24-7.16-39,1.9,0-8.3-.13-16.49.09-24.67.06-2.28,2-4,3.68-5.48,5.07-4.37,11.18-5.28,17.54-4.8S132.67,26.74,137,32a4.27,4.27,0,0,1,1.3,2.74c0,7.28,0,14.55,0,21.82A1.42,1.42,0,0,1,138,57.1Z"/><path class="cls-2" d="M180.86,53.44A27.31,27.31,0,0,1,198,58.9c3.85,2.92,3.7,7.29-.32,10.15a12.21,12.21,0,0,1-4.49,2,41,41,0,0,1-16.24.76,11.8,11.8,0,0,1-5.23-2.17c-2.86-2.22-2.77-5.52.24-7.56a8.22,8.22,0,0,1,2.57-1.18,22.62,22.62,0,0,1,13.51,1c1,.4,2.31.88,2.17,2.25s-1.54,1.56-2.58,1.83a13.11,13.11,0,0,1-9.38-.62c-.59-.3-1.27-1-1.76-.07s.56,1.12,1.08,1.37a13.9,13.9,0,0,0,12.29,0c2.57-1.2,2.63-3.59.31-5.31-4-3-14.52-3.39-18.73-.74s-4.47,7.77-.12,10.6,9.19,2.84,14.07,2.5,9.69-.73,13.81-3.81a2.58,2.58,0,0,1,1.74-.19c8.19,1.3,16.5,1.9,24.55,4.14a3,3,0,0,1,2.59,2.91c.66,5.88.74,5.77-5.28,5.12-15.66-1.69-31.25-4-47-5.37-8.45-.71-13.72-6.14-14.09-14.18a4.48,4.48,0,0,1,1.85-4C167.38,55.15,173.11,53.44,180.86,53.44Z"/><path class="cls-2" d="M101.66,70.68c6.93,3.1,13.93,3.56,21.08,2.67a13,13,0,0,0,6.45-2.54c3.71-2.87,3.58-7.31-.28-10a9.14,9.14,0,0,0-3.29-1.48,24.3,24.3,0,0,0-14,1c-1.71.64-3.48,1.56-3.32,3.8s2,2.7,3.65,3.16a14.25,14.25,0,0,0,10.61-.76c.52-.27,1.56-.44,1-1.42-.44-.72-1-.22-1.59,0a13,13,0,0,1-10.09.53c-.89-.28-2-.57-2-1.72s.93-1.64,1.78-2a21.34,21.34,0,0,1,14.72-.86c2.13.68,3.92,2,4,4.56s-1.66,3.86-3.64,4.9a14.75,14.75,0,0,1-5.74,1.49A41.56,41.56,0,0,1,106,70.77a10.64,10.64,0,0,1-4.72-2.61c-3-3-2.86-6.36.39-9,8.07-6.55,23.07-7.75,32.23-2.6,4.35,2.45,5.13,4.27,3.95,9.13-1.5,6.12-6.84,10.24-14,10.78-3,.23-6.06.15-9,1s-5.52,2.06-7,4.59c-1.84,3.09-5,2.3-7.56,3.09-1.17.36-.71-.92-.63-1.44C100.24,79.44,100.94,75.17,101.66,70.68Z"/><path class="cls-2" d="M148.54,215.74c-8.43,6.25-16.7,12.37-25,18.51a4.74,4.74,0,0,1-2.67.84c-1.21.06-2.42.1-3.63.19-5.27.37-5.22.35-7.49-4.31-.51-1.05-.37-1.49.61-2,9.69-4.95,19.42-9.82,29-15C143,212.07,145.59,213.61,148.54,215.74Z"/><path class="cls-2" d="M219.55,165c2.48,11.51,4.9,22.66,7.26,33.82.61,2.86-.37,5.66-.71,8.48-.15,1.23-1.37,1.13-2.22,1.42-6,2-5.92,2-6.3-4.19-.55-9.25-1.16-18.49-1.89-27.72-.23-3,.28-5.87.49-8.8C216.31,166.14,218.08,166,219.55,165Z"/><path class="cls-2" d="M84.77,104.92c-.62-4.34-1.25-8.69-1.86-13-.83-5.92-1.7-11.84-2.43-17.77-.51-4,2.12-7.16,3.4-10.67.21-.56,6.29-1.34,6.78-1s.37.92.35,1.41c-.45,12-.85,24.09-1.42,36.12C89.47,102.63,86.44,103.12,84.77,104.92Z"/><path class="cls-2" d="M243.68,108.84c-12.41-5.33-25-9-36.85-14.77-2.78-1.34-4.37-3.24-4.06-6.67a63.24,63.24,0,0,1,14,2.88q9.42,2.84,18.74,6c3,1,5.15,3.43,7.73,5.16.62.41.43,1.08.43,1.66C243.7,104.87,243.68,106.6,243.68,108.84Z"/><path class="cls-2" d="M115.26,206.06c-6.65,1.11-12.6,2.1-18.56,3.07-2.47.41-5.06.45-7.41,1.22-5.16,1.7-9.63-.41-14.26-2a1.88,1.88,0,0,1-1.3-1.68c-1.5-6.55-1.51-6.62,5.14-6.35,10.55.45,21.1,1,31.64,1.5C113,202,113.18,204.47,115.26,206.06Z"/><path class="cls-2" d="M225.65,142.49c.91.53,1.1,1.42,1.5,2.17,4.5,8.57,8.95,17.18,13.52,25.72,1.47,2.75,1.65,5.79,2.42,8.7.37,1.37-.9,1.75-1.65,2.36-4.59,3.74-4.59,3.72-6.75-1.7q-6-15-12.08-30.07a2.57,2.57,0,0,1,.19-2.86C223.82,145.42,224.71,143.94,225.65,142.49Z"/><path class="cls-2" d="M127,211.21c-5.73,1.77-11.15,3.45-16.57,5.11-3.06.94-6.26,1.53-9.15,2.82-4.87,2.19-9.64,1.07-14.48.32-1.83-.28-1.56-1.83-1.86-3-1-3.69-.93-3.72,2.71-4.32,8.95-1.49,17.89-3,26.86-4.4a33.66,33.66,0,0,1,7.51-.18C124.11,207.73,125.12,209.79,127,211.21Z"/><path class="cls-2" d="M105.86,200.09c-11-.51-21.75-.89-32.46-1.56-3.25-.2-5.8-2.57-8.65-4-.51-.26-.74-6.25-.4-6.81s.92-.35,1.38-.26C77,189.65,88.32,191.9,99.64,194,103.1,194.6,104.76,196.71,105.86,200.09Z"/><path class="cls-2" d="M223,154.34c4.22,10.72,8.4,21.14,12.4,31.62.93,2.45.23,5.16.31,7.75,0,.64-.46.89-.92,1.13l-6.61,3.46c-2.23-12.6-5.63-24.68-7.69-37.06A6.52,6.52,0,0,1,223,154.34Z"/><path class="cls-2" d="M200.33,194.26C197.21,206,194.22,217.53,191,229c-.56,2-2,3.83-3,5.74-.25.49-.55.93-1.15.89a74.21,74.21,0,0,1-7.77-.63c-1.47-.25-.34-1.36-.07-2,2.87-6.49,5.74-13,8.7-19.42,2.41-5.26,4.58-10.63,7.3-15.77C196.17,195.74,197.51,194.38,200.33,194.26Z"/><path class="cls-2" d="M214.12,175.18c.48,6.95.93,13.32,1.35,19.69.25,3.71.21,7.46.73,11.13.56,4-.38,7.7-1.28,11.48a2.36,2.36,0,0,1-2.45,2.1,22,22,0,0,0-4.35.65c-1.68.45-2.26.26-2-1.72q2.26-19.59,4.31-39.2C210.63,177.17,212.44,176.74,214.12,175.18Z"/><path class="cls-2" d="M89.62,182.81l-14.69-5.13c-4.16-1.45-8.27-3.06-12.49-4.33a23.26,23.26,0,0,1-9.06-5.27,3.61,3.61,0,0,1-1.21-4.44c1.42-4.54,1.33-4.56,5.57-2.46q12.78,6.33,25.57,12.67c1.08.54,2.07,1.25,3.15,1.8C89.34,177.12,90.09,179.54,89.62,182.81Z"/><path class="cls-2" d="M210.54,97.63l19.83,7.57c3,1.15,5.88,2.54,8.93,3.43a20.7,20.7,0,0,1,9.55,6.35,2.84,2.84,0,0,1,.84,2.27c-.07,2.33-.82,3.11-3.37,3a18.26,18.26,0,0,1-8.55-2.4c-5.71-3.23-11.5-6.32-17.31-9.36a34.24,34.24,0,0,1-8.41-6C210.2,100.69,210.12,100.76,210.54,97.63Z"/><path class="cls-2" d="M207.85,187.4c-1.12,10.77-2.21,21.54-3.38,32.31-.3,2.68-1.65,5.09-2.47,7.64a1.32,1.32,0,0,1-1.52,1.07,4.51,4.51,0,0,0-.52,0c-2.25,0-5.41.77-6.49-.37-1.22-1.3.62-4.11,1.17-6.24,2.26-8.8,4.55-17.59,6.93-26.36.63-2.32,1.69-4.53,2.39-6.84a3.85,3.85,0,0,1,3.21-2.94C208.53,185.79,207.92,186.7,207.85,187.4Z"/><path class="cls-2" d="M97.23,191.8l-16.21-3c-4.93-.91-9.84-1.92-14.79-2.72-3.89-.64-6.07-3.79-9-5.79-.59-.39.45-6.46,1.07-6.58a3.72,3.72,0,0,1,1.74.31c10.85,3.79,21.65,7.7,32.55,11.34C95.63,186.42,96.08,188.83,97.23,191.8Z"/><path class="cls-2" d="M160.19,214.21c-7.37,7.79-14.63,15.46-21.87,23.14a3.76,3.76,0,0,1-2.26,1.12c-1.79.31-3.57.67-5.35,1-2.87.58-4.88-.48-6.21-3.07-.46-.89.14-1.07.58-1.38,9.72-6.92,18.87-14.64,29-21C156.18,212.74,158,212.51,160.19,214.21Z"/><path class="cls-2" d="M83.68,108.55c-.1,2,.44,4-1.64,5.41-1.2.83-1.86.71-2.29-.66-2.92-9.48-6.15-18.89-8.59-28.49-.75-3,.64-6.46,1.13-9.69.09-.64,5.4-2.57,6-2.29s.58,1,.65,1.57Q81.38,91.47,83.68,108.55Z"/><path class="cls-2" d="M191.3,202c-4.55,10.14-9.05,20-13.43,30a25.48,25.48,0,0,1-4.5,6.91c-.53.59-1,1.2-1.92,1-2.61-.53-5.23-1-8.13-1.59,2.73-4.07,5.25-7.88,7.83-11.66,5.28-7.71,10.14-15.69,15.83-23.12C188.33,201.78,188.35,201.8,191.3,202Z"/><path class="cls-2" d="M136.56,213.79c-9.23,4.77-18.35,9.72-27.7,14.18-3,1.42-6.77.85-10,.19-1.81-.37-2-3.44-2.4-5.37-.28-1.22,1.47-1.14,2.34-1.4,10.59-3.2,21.21-6.3,31.79-9.52C133.07,211.12,135,211.52,136.56,213.79Z"/><path class="cls-2" d="M190.2,79.46l25,3c3,.36,6,.9,9,1.06,3.82.2,7.2,1.62,10.66,3a2.84,2.84,0,0,1,2,3.26c-.2,5.49-.15,5.58-5.27,3.75-10.86-3.87-21.86-7.21-33.33-8.57C194.64,84.54,192.26,82.75,190.2,79.46Z"/><path class="cls-2" d="M169.77,212.45c-6.49,9.06-12.94,18.14-19.49,27.16-1.37,1.88-3.72,2.6-5.79,3.22-1.7.52-2.53-1.74-3.88-2.57s-1.53-1.61-.26-2.92c6.9-7.17,13.66-14.47,20.54-21.65,1.37-1.42,3.09-2.5,4.59-3.8s2.72.3,4.11-.09Z"/><path class="cls-2" d="M181.65,207.76c0,1-.71,1.54-1.16,2.22-5.67,8.51-11.43,17-17,25.5a30.92,30.92,0,0,1-6.37,6.79c-1,.79-5-.24-5.42-1.36-.26-.63.27-1,.54-1.34,6.4-9,12.64-18,19.33-26.76C173.87,209.77,176.64,206.19,181.65,207.76Z"/><path class="cls-2" d="M224.91,138c5.05-2.27,3.17-2.69,7.09,1.72,5.19,5.83,9.22,12.56,13.93,18.76,1.53,2,1.56,4.72,2.37,7.08.24.7-.22,1.13-.69,1.54l-4.7,4.16C236.63,160.16,231.53,148.63,224.91,138Z"/><path class="cls-2" d="M246.73,156.89c-5.6-7.15-10-14.73-16.33-21.22a37.5,37.5,0,0,1,9.1-3,1.5,1.5,0,0,1,1,.07c4.72,3.27,10,6,12.16,11.89a1.28,1.28,0,0,1,.05,1.2C250.76,149.4,248.82,153,246.73,156.89Z"/><path class="cls-2" d="M84.05,172.23c-.94.12-1.61-.51-2.36-.88-8.52-4.2-17-8.57-25.56-12.58-4.08-1.9-4.62-6-6.72-9.13-.47-.7.3-.75.73-1,1.47-.79,2.73-.42,4.1.42,8.48,5.18,17,10.29,25.51,15.43C83.94,167,83.93,167.05,84.05,172.23Z"/><path class="cls-2" d="M78.15,113.29c-2.91-.89-5.46-1.75-8-2.43a2.46,2.46,0,0,1-1.74-1.71c-1.57-3.84-3.26-7.65-4.67-11.55-1.09-3-.47-6.19-.62-9.29-.07-1.47,1.37-1.4,2.21-1.78,4.09-1.84,4.11-1.81,5.42,2.45Z"/><path class="cls-2" d="M97.5,53.35c0,2.55,0,5.11,0,7.66,0,2.74.28,5.39,2.14,7.57A3,3,0,0,1,100,71.3c-.89,5.72-2,11.42-2.67,17.17C97,92,94.67,93.36,92,94.63c-.76-.42-.44-1.09-.42-1.63q.38-13.38.81-26.77A19.9,19.9,0,0,1,97.5,53.35Z"/><path class="cls-2" d="M79,162.24,54.33,147.4c4.65-1.27,8.76-2.51,13.16-2.29a2.69,2.69,0,0,1,1.78.95c3,3,6.07,5.88,8.8,9.15C79.93,157.44,80.11,159.58,79,162.24Z"/><path class="cls-3" d="M216.69,108.13l22.12,12-9.22,2.17c-.79.18-1.33-.33-1.87-.73-3-2.2-6-4.37-8.9-6.73A5.67,5.67,0,0,1,216.69,108.13Z"/><path class="cls-3" d="M201.07,68.08c.41-1.28,1.05-2.35,1-3.4-.1-3.32,1.68-3.49,4.18-2.85a22.67,22.67,0,0,0,3.06.49c7.58.82,7.58.82,9.61,8.4Z"/><path class="cls-3" d="M62.18,98c1.62,4,3.24,7.94,5,12.13a31.74,31.74,0,0,0-9.45.1c-1,.2-1.51,0-1.39-1.14a3.55,3.55,0,0,0,0-1C55.41,103.16,57.13,99.72,62.18,98Z"/><path class="cls-4" d="M49.7,159.69c-3.46-.83-6.94-1.83-9.82-4.26-1.11-.93-1.32-1.52.19-2.42,6.68-4,6.65-4,10.24,2.69a15,15,0,0,1,1.09,2.06C51.91,159.17,51.3,159.86,49.7,159.69Z"/><path class="cls-5" d="M86.61,151.07a35.64,35.64,0,0,0-14.27-6.77,79,79,0,0,1,12.84-.57c1.17,0,1.48.55,1.44,1.6C86.57,147.06,86.61,148.79,86.61,151.07Z"/><path class="cls-5" d="M86.34,153.83a6.79,6.79,0,0,1-3.53,3.44c-1.25.62-1.17-.86-1.69-1.34a31.26,31.26,0,0,1-2.09-2.6c-1.19-1.37-.06-2.47.52-3.47.79-1.37,1.65,0,2.31.35a31.41,31.41,0,0,1,3.54,2.55A6.74,6.74,0,0,1,86.34,153.83Z"/><path class="cls-5" d="M242.29,132a59.16,59.16,0,0,1,8.18-1c1.52-.07,1.84.36,1.21,1.75s-1.21,3-1.86,4.67Z"/><path class="cls-5" d="M221.46,118.87l5.59,4.07c-.49.23-.68.35-.89.43C220.65,125.44,220.56,125.36,221.46,118.87Z"/><path class="cls-6" d="M203.24,53.15l3.49,7.06C201.87,60,202.24,61.15,203.24,53.15Z"/><path class="cls-7" d="M71.77,146.9c2.4-.31,3.64.65,5,1,.45.11,1.11.33.86,1a4.29,4.29,0,0,1-1,1.76c-.51.43-.85-.33-1.21-.62C74.38,149.15,73.29,148.2,71.77,146.9Z"/><path class="cls-8" d="M207.85,187.4c-.26-.57,0-1.34-.68-1.73.22-.27.61-.54.82-.29C208.54,186,208.24,186.74,207.85,187.4Z"/></svg>