<svg id="Layer_1" data-name="Layer 1" xmlns="http://www.w3.org/2000/svg" viewBox="0 0 300 300"><defs><style>.cls-1{fill:#f5c00e;}.cls-2{fill:#e11a1e;}.cls-3{fill:#e01a1e;}.cls-4{fill:#df1a1e;}.cls-5{fill:#f4bf0e;}.cls-6{fill:#f3bf0e;}.cls-7{fill:#d8191d;}.cls-8{fill:#090101;}.cls-9{fill:#9e1215;}.cls-10{fill:#6d5606;}.cls-11{fill:#130202;}.cls-12{fill:#190303;}.cls-13{fill:#600b0d;}.cls-14{fill:#280505;}.cls-15{fill:#180303;}.cls-16{fill:#b61518;}.cls-17{fill:#3d0708;}.cls-18{fill:#330607;}.cls-19{fill:#120203;}.cls-20{fill:#a27f09;}.cls-21{fill:#710d0f;}.cls-22{fill:#9c1215;}.cls-23{fill:#0b0101;}.cls-24{fill:#2f0506;}.cls-25{fill:#b71518;}.cls-26{fill:#620b0d;}.cls-27{fill:#775d07;}.cls-28{fill:#100202;}.cls-29{fill:#0f0202;}.cls-30{fill:#120202;}.cls-31{fill:#0c0102;}.cls-32{fill:#8d1013;}.cls-33{fill:#240405;}.cls-34{fill:#4d090a;}.cls-35{fill:#850f11;}.cls-36{fill:#8c1013;}</style></defs><path d="M25.55-.6H274.45a1,1,0,0,1,1,1V175.65A123.39,123.39,0,0,1,152.05,299h-3.88A123.62,123.62,0,0,1,24.55,175.42V.4a1,1,0,0,1,1-1Z"/><path class="cls-1" d="M159,182.83c4.29,4.1,8.17,8.61,12.6,12.57,5.88,5.25,12,10.24,19,13.86,7.82,4,16,5.28,24.53,2.69a18.37,18.37,0,0,0,9.6-6.53c-20.65-2.71-35.28-15.24-49.77-28.94,3.24,0,5.85-.58,8.6,1.63,12,9.7,25.3,16.88,40.67,19.6,8.86,1.56,17.55,1.27,25.37-4a21,21,0,0,0,8.76-11.45A89.74,89.74,0,0,1,217.28,177,98.63,98.63,0,0,1,195,165.14c1.47-2.37,3-2.72,5.51-1.4,10.67,5.49,21.74,10,33.78,11.4,7.21.85,14.12.25,19.52-5.43,3.61-3.79,5.31-8.4,5.73-14a41.52,41.52,0,0,1-17.06,2.56c-10.79-.4-21.14-3-31.37-6.29-1.66-.53-1-1.36-.92-2.39.19-1.73,1.27-.95,2-.77,10.74,2.75,21.56,3.94,32.56,1.85,10.52-2,16.46-9,16.16-18.86,0-.71.28-1.67-.47-2.07s-1.12.52-1.67.83c-5.61,3.19-11.83,4-18.1,4.49a193.72,193.72,0,0,1-20.59.06,9.3,9.3,0,0,1-3.65-1.2,9.49,9.49,0,0,1,6.22-1.92c8.15.27,16.25-.15,24-2.92A21.05,21.05,0,0,0,261,108.57a3.87,3.87,0,0,0-.69-2.68c-6.48,6.81-15.18,7.89-23.79,9.09-4,.56-8,.75-12.34,1.14,1.46-2.49,2.28-4.66,5.68-4.92A57.12,57.12,0,0,0,249,106.48,22,22,0,0,0,261.3,81.13c-8.85,9-20.79,10.56-32.08,13.61-.66.18-1.67,1-2.1-.29s.41-1.67,1.48-2.11c8.52-3.47,16.91-7.24,24.27-12.91,4.72-3.64,8.21-8.08,8.89-14.27a15.29,15.29,0,0,0-2.53-9.91c-3.67,6.6-9.82,10-16.25,13.09s-12.74,6.3-18.86,9.91c-2.16,1.27-3.87,2.08-5.24-1A159.72,159.72,0,0,0,235,68.42c7.13-4.61,14-9.57,19.25-16.32,4.68-6,7.73-12.54,6.22-20.43a7.73,7.73,0,0,0-2.12-4.49c-2.64,5.12-7.05,8.39-11.62,11.49a206.32,206.32,0,0,1-29.7,17.18c-12.85,5.89-21.64,15.74-26.75,28.88a17.1,17.1,0,0,0-1.18,9.35c.91,5,4.17,7.17,9,6,3.31-.81,4.1-.15,3.55,3.23s-2,6.53-5.52,7.79c-5.43,1.93-8.26,5.79-9.53,11.27-.85,3.65-1.83,4.49-5.18,4.19-9.84-.91-17.49,3.38-24.41,9.65-2.65,2.41-5.24,4.89-8.08,7.54-1.7-7.28-2-14.21,1.66-20.83a68.51,68.51,0,0,1,8.56-11.74c6.63-7.67,13.28-15.31,19-23.68.74-1.08,1.22-1.25,2.26-.3a5.41,5.41,0,0,0,5.86.94c1-.38,1.45-.71.43-1.64-2.33-2.1-2.56-4.76-1.83-7.61.29-1.13.62-2.26,1-3.36.87-2.62,2.09-5.1,2.75-7.8s.51-5.43.55-8.2c6.37,2.3,10.26,1.76,12.58-1.69a9,9,0,0,0-1-11c-.32,1.36-.55,2.64-.94,3.87A2.84,2.84,0,0,1,197.17,53a2.67,2.67,0,0,1-2.72-2.16c-1.2-3.56-2.32-7.15-3.57-10.69-.44-1.23.43-1.22,1.07-1.46a62.85,62.85,0,0,0,9.13-4.12,18.57,18.57,0,0,0,5.08-4,5.55,5.55,0,0,0,1.51-4.37,3,3,0,0,0-5.91-.43,2.73,2.73,0,0,0,2,3.31,10.21,10.21,0,0,0,1.35.27c-4.05,4.44-9.26,6.31-14.43,8.17-1.7.62-1.8-1.4-2.41-2.29-.73-1.06.66-1.12,1.19-1.38A27.4,27.4,0,0,0,195.64,30a7.81,7.81,0,0,0,2.83-4.89c.24-1.87-.38-3.42-2.35-3.85a2.71,2.71,0,0,0-3.46,2.1c-.48,2,.5,3.2,2.5,3.59a2.93,2.93,0,0,1,.6.35c-2.13,3.19-5.44,4.66-8.8,5.7-1,.31-2.55-1.2-4-1.94,1.79-1.34,3.55-2.32,4.81-3.9a6.8,6.8,0,0,0,1.76-4.59c-.09-1.77-.91-3.07-2.9-3.11a2.67,2.67,0,0,0-3,2.38c-.27,1.91.66,3,2.59,3.27a5.8,5.8,0,0,1,.69.22c-1.29,2.31-3.38,3.53-5.5,4.73-.92.52-1.52.05-2.2-.48-2.19-1.68-4.57-2.49-7.25-1.27a1.79,1.79,0,0,1-1.63-.11,4.65,4.65,0,0,0-5.51,1.15c-.52.56-.87.85-1.64.33-5.44-3.68-13.65,1.89-13.63,8.46,1.35-.41,2.63-.93,4-1.19,2.42-.45,4.37.57,4.87,2.82.32,1.5.88,1.53,2.16,1.41,3.28-.31,6.63,2.5,6.43,5.38-4.13-2.78-8.8-3.36-13.51-3.81-6.13-.59-7.7-2.15-7.92-8.22-.06-1.62-.59-1.64-1.81-.93a7.25,7.25,0,0,0-2.65,10,10.11,10.11,0,0,0,8.45,5.09c1.82.16,3.66.25,6.09.41-3.68,2.56-4.74,5.61-3.28,9.73,1.51-2.89,3.43-4.93,6.71-5.13a9.66,9.66,0,0,1,9.8,6c1.41,3.83-.58,9.32-4.35,11.92a26.91,26.91,0,0,1-5.93,2.64c-4.44,1.7-5.62,3.84-4.77,9,1.66-1.21,3.05-2.78,5.17-2.91.65-.12,1.45-.66,1.6.59-4.58,6.08-10.31,11-16.26,15.6a238.38,238.38,0,0,0-29.1,26.54c-.28.3-.59.57-1.06,1-.67-2.31-1.3-4.23.7-6.18,1.32-1.27,1.24-3.25.91-5-.21-1.11-.17-1.69,1.2-1.73,3.88-.09,6.33-2.36,8.55-5.35a24.67,24.67,0,0,0,5-16.68c-.61-11.2-1.16-22.41-1.59-33.62a83.12,83.12,0,0,1,.41-14.79,19.72,19.72,0,0,1,2.06-7c-2.79-.68-4.9.55-6.83,2-7.66,5.68-11.87,13.38-13.28,22.76-1.34,8.93-1,17.87-.12,26.79a10.57,10.57,0,0,1-1.69,7.55c-4-15-4.64-29.78-1.24-44.95a11.26,11.26,0,0,0-4.73,2C95.23,55,91.56,62.68,91.19,72.15a108.71,108.71,0,0,0,4.36,34.45c.7,2.46,1.48,4.6-2.08,5.72C87.28,97.2,81.81,81.87,87.1,64.7A21.15,21.15,0,0,0,74,75.13C70.29,82,70.4,89.29,71.83,96.64A72.72,72.72,0,0,0,87.07,129c.66.82,1.63,1.52.14,2.56-.66.47-1,.69-1.63.05-10.81-11-18.7-23.54-20-39.39a21.88,21.88,0,0,1,.58-6.87,14.83,14.83,0,0,0-5.69,5.8c-6.29,10.63-5.92,21.53-.86,32.42,4.65,10,11.86,18,20.41,24.78,2.23,1.77,2.83,3.28,1.29,5.75-14.92-11.9-29.08-24.26-30.71-45.73a25.51,25.51,0,0,0-6.68,13.4c-1.7,8.81,1.31,16.31,6.48,23.17a87.31,87.31,0,0,0,29.86,25.21A3.45,3.45,0,0,1,82.48,174c-16.71-5.13-28.81-16.15-39-29.72-2.65,4.81-1.44,12.73.66,17.31,2.77,6,7.41,10.47,12.57,14.41,9.19,7,18.55,10.74,32.64,13.29a43.87,43.87,0,0,1-9.72,0,48.58,48.58,0,0,1-10-2.18,58.05,58.05,0,0,1-9.3-4.44,17.89,17.89,0,0,0,4,10.88c5.23,6.64,12.47,9.29,20.59,10a30.16,30.16,0,0,0,13.76-2.19c1-.38,1.6-.64,2.13.65,5.06,12.3,14.25,21.07,24.69,28.77.81.59,1.6,1.21,2.4,1.81,3.67,2.75,3.92,2.88,1.73,7-3.58,6.79-2.82,13,1.66,19a28.62,28.62,0,0,1,2.51,4c1.77,3.45,1.34,5.44-1.66,8.19-.7-.12-.55-.74-.6-1.16a22.16,22.16,0,0,0-7.26-14.22c-4-3.6-5.47-7.72-5.12-13.14.66-10-2.51-14.42-11.89-18.13-1.48-.58-3-1.12-4.42-1.77-4.79-2.13-6.65-6.19-5.25-11.28.2-.71.37-1.42.58-2.22-10.64,3.82-13.68,19.17-4.8,25.81,5.54,4.15,7.89,8.93,7.58,15.55a23.65,23.65,0,0,0,7,18.66,12.85,12.85,0,0,1,3.25,6c-3-.4-5-2-6.77-3.85a20,20,0,0,1-4.72-8.19,22.24,22.24,0,0,0-9.88-13.1A7.69,7.69,0,0,1,86,242.63c0-4.56-2.05-7.78-6.53-9.34-3.7-1.29-6.7-3.41-7.44-7.73-7.1,5.83-7.4,12.35-1,18.21a6.87,6.87,0,0,1,2.51,5.5c-.07,2.26-.13,4.52-.29,6.77-.36,4.93-.68,9.84,1.58,15.16a117.87,117.87,0,0,1-20-19.51A122.11,122.11,0,0,1,27.34,174q0-84.16,0-168.31c0-2.07.3-2.79,2.65-2.79q119.94.12,239.88,0c2.14,0,2.75.42,2.75,2.68-.08,56.1.38,112.21-.2,168.31-.49,47.47-22.09,83.26-62.86,107.5-.95.57-2,1-3.7,1.81,4.42-5.46,6.54-10.93,5.86-17.25-.17-1.55.62-1.66,1.87-1.82,9.15-1.17,16.84-4.81,21.59-13.21.19-.34.35-.7.69-1.38a79.3,79.3,0,0,1-16.08,0c.12-1.79,1.09-2.34,2.77-2.43A36.54,36.54,0,0,0,237,243.66a17.77,17.77,0,0,0,9.41-10.51c-7.71,3.33-15.58,2.58-23.4,2.44-.72,0-1.73.11-1.71-1s1.09-.82,1.75-.93a54.83,54.83,0,0,0,14.41-4.15,22,22,0,0,0,8.07-5.83,9,9,0,0,0,2.34-5.74.69.69,0,0,0-1-.25c-17.6,7.16-35.69,7.23-54.05,3.88-1.75-.33-1.86-.86-1-2.23,1.16-1.81,3-2.87,5-4.49-5.42-.74-10,0-14.16,2.93a2.92,2.92,0,0,1-2.74.69c-10.17-3.08-19.81-7.19-27.75-14.52a42.47,42.47,0,0,1-3.87-4.27c-.34-.41-1.3-1-.42-1.59a1.6,1.6,0,0,1,2.09,0c.86.79,1.73,1.57,2.63,2.33,5.4,4.63,11.22,8.45,18.38,9.77a19.59,19.59,0,0,0,10.33-.89c-.33-.94-1.19-1.22-1.83-1.71a134.4,134.4,0,0,1-18.39-17.06c-.73-.81-1.41-1.54-1-2.85.33-1.15-.4-2.07-1.29-2.79l-2.55-2A3.66,3.66,0,0,1,159,182.83Z"/><path class="cls-2" d="M191.68,217.09c-2.51,3-3.16,6.55-2.81,10.36.17,1.92.27,3.84.4,5.76.24,3.34-1.3,5.53-4.25,7-4.54,2.24-5.22,3.89-3.88,8.84.3,1.13.66,2.25,1,3.37,1.29,4.59.77,8.61-2.81,12.23-4.05,4.09-4.08,9-.57,13.57a9.19,9.19,0,0,0,1.83,1.69c.78.58,1.44.52,1.48-.65.26-7.2,4.57-11.58,10.36-14.94a7.44,7.44,0,0,0,3.83-5.6c.87-6.06,4.41-9.51,10.12-11.5,6.18-2.14,9.18-7.18,10.43-13.38.12-.64.18-1.29.32-2.26a7.35,7.35,0,0,1,3.16,5.59c.7,5.79-.45,11.18-5,15.09a14.08,14.08,0,0,0-5.1,13.14c1.26,11.56-6.47,19.75-14.94,22.9Q135.14,310.57,81.4,275.92c-4.61-3-6.63-7.32-6.85-12.7-.16-4.11.43-8.18.59-12.28a10.46,10.46,0,0,0-3.85-9.05,8.42,8.42,0,0,1-1.22-12.29c.5-.61,1-1.64,1.77-.24a12.29,12.29,0,0,0,7.08,5.31c4,1.35,5.68,4.22,5.64,8.22a8.44,8.44,0,0,0,4.13,7.83c5.18,3.13,8.11,7.74,10,13.35a18.74,18.74,0,0,0,9,11.28c1.55.82,3.85,2.09,4.85,1.11,1.27-1.26-.22-3.4-1-5a27.5,27.5,0,0,0-4.42-6.08,17.47,17.47,0,0,1-4.45-11.19c-.11-2.59-.33-5.18-.4-7.77a13.08,13.08,0,0,0-6-11.23c-4-2.7-6.89-6.2-6.55-11.39.29-4.56,1.86-8.6,5.46-11.66.23.18.45.28.45.37-.38,6.4,2.79,10.19,8.7,12.11a34,34,0,0,1,6.87,3c4.37,2.63,6.73,6.4,6.61,11.59-.05,1.93,0,3.86-.16,5.78a10.61,10.61,0,0,0,3.42,9.07c5.72,5.27,9.47,11.43,9.22,19.56,5.38-2.15,7.36-6.83,4.93-11.58-1.14-2.23-2.6-4.29-3.94-6.41-2.83-4.43-3.45-9-.93-13.79a23.39,23.39,0,0,0,2.2-17,18.24,18.24,0,0,1,.31-10.42c1.7-4.73,4.93-7.67,10-8.3,1.51-.18,2.43-.11,1.54,2-2.71,6.23-2.13,8.37,2.94,13a27.51,27.51,0,0,1,3.45,3.63,10.82,10.82,0,0,1,1.66,11.12,44.93,44.93,0,0,1-2.09,4.82c-2.47,4.52-2,8.64,1.35,12.51a19.77,19.77,0,0,1,4.54,11.21c.26,2.29-.46,4.43-.85,6.69,3.43-.93,5.64-4,6.05-8.37a37.93,37.93,0,0,0-.24-9.28c-1.31-8.64,1.66-15.32,9.23-19.74a18.79,18.79,0,0,0,8.25-8.71,13.9,13.9,0,0,1,11.34-8.48C190.71,216.38,191.54,215.83,191.68,217.09Z"/><path class="cls-2" d="M188.67,157.69c2.14.37,4.29.72,6.42,1.12s2.55,1.32.95,3a15.5,15.5,0,0,1-11.46,4.85c-2.5,0-5-.19-7.86-.32,2,1.34,4,1.54,5.84,2.39,1.64.78,4,1.39,3.81,3.42s-2.6,2.16-4.29,2.39c-4.94.67-9.84.61-14.56-1.35a7,7,0,0,0-4.46-.81c1.21,1.26,2.29,2.38,3.36,3.51s2.67,2,2,3.71c-.53,1.36-2.26,1.12-3.55,1.34a28.87,28.87,0,0,1-10.48-.34c-.72-.15-1.47-.19-2.51-.32,1.33,2.44,3.27,3.83,5.2,5.25.72.53,1.75,1,1.46,2.1s-1.48,1.19-2.47,1.28a9.8,9.8,0,0,1-3.94-.67c-1.18-.4-2.32-1-3.52-1.32-1.7-.51-3.74-1.75-5,.24s.09,3.85,1.45,5.39a21.91,21.91,0,0,0,2.48,2.11c.43.36,1.11.64,1,1.31s-.93.59-1.44.71c-2.78.62-5.3-.36-7.73-1.49-6-2.78-7.69-5.63-7.24-12.2a17.68,17.68,0,0,0-1.21-8.12,8.19,8.19,0,0,1,.54-7.47,40.26,40.26,0,0,1,5.15-8c8.33-9,16.38-18.37,26.24-25.86,4.89-3.72,10.28-5.87,16.55-5.41a20.62,20.62,0,0,0,3.51-.09,5.1,5.1,0,0,0,4.7-3.57,5.58,5.58,0,0,0,.36-.93c.93-5.71,4.09-9.34,9.54-11.5,4.4-1.75,5.68-5.91,5.78-10.32.06-3-1.52-4-4.37-3.35-5.69,1.38-8.59-1-8.49-6.88a18.47,18.47,0,0,1,1.43-6.59,50,50,0,0,1,26.82-28.15c11.58-5.22,22.21-12,32.49-19.39,2.14-1.53,4-3.41,6.22-5.31a10,10,0,0,1-1.85,5.38c-3.11,5.38-7.75,9.15-13,12.27-7.56,4.48-15.36,8.54-22.69,13.41-4.56,3-8.85,6.34-11.74,11.14-2,3.29-2.82,6.71-1.14,10.72,1.27-1.38,2.31-2.65,3.5-3.77,2.46-2.31,6.4-3.32,8-1.83,2.22,2.11,1.4,4.81.68,7.29-.87,3-2.84,5.44-4.94,8.07,2.37.11,4-1.09,5.86-1.75a22.26,22.26,0,0,1,2.6-.91c2.3-.53,3.39.62,2.75,2.94a15.72,15.72,0,0,1-3.85,6.39c-1.31,1.41-2.69,2.75-4.06,4.1s-2.65,2.53-4.09,3.91c1.19.4,2-.28,2.86-.61a76.38,76.38,0,0,1,8-3c1.94-.53,2.45.22,2.2,2a14.29,14.29,0,0,1-4.39,8,50.44,50.44,0,0,1-8.31,6.67c2.57.59,4.76,0,6.94.1,1.62,0,3.74-.62,4.48,1.27s-1,3.26-2.24,4.41c-2.85,2.55-6.38,3.94-9.83,5.43-.57.25-1.12.55-2.22,1.1l4.44.79c1.06.19,2.26.16,2.59,1.54a3,3,0,0,1-1.3,3.06,20.17,20.17,0,0,1-9.29,4.13c-2.76.57-5.67.45-8.64,1.88,2.53.72,4.77.34,7,.46,1.32.08,2.59.23,3.06,1.66s-.31,2.35-1.39,3.19c-3.93,3.07-8.66,3.83-13.34,4.71-1.89.35-3.82.48-5.73.72C187.84,157.41,188.36,157.49,188.67,157.69Z"/><path class="cls-2" d="M124.39,133.23c-1.91,5.48-1.93,10.68,2.23,15.28a10.48,10.48,0,0,0,.9.86c.11.09.3.08.65.16.48-5.95,1.82-11.59,6-16.19,0,2.73-.71,5.38-.49,8.09s.92,5.36,3.44,7.5a56.35,56.35,0,0,1,3.66-15c-2.57,2.53-3.61,5.84-4.89,9.79-1.27-5.76.41-10.55,1.44-15.45-4.43,1.34-6.53,4.93-10.53,17.9-2.49-3.28-2.33-6.72-1.54-10.3.76-3.43,2.64-6.38,4-9.62-6.12,3.17-10.14,8.18-12.94,14.47-1.18-2.54-1-3.91,1.06-8.13,1.22-2.46,2.6-4.83,4.18-7.75-5.15,1.62-8.4,5.12-12.34,8.46a11.91,11.91,0,0,1,2.71-4.15c10.47-12.54,22.71-23.18,35.52-33.22a72,72,0,0,0,14.71-14.67c1.24-1.74,3.1-1.25,5.24-2.29-1.74,3.61-4.32,5.58-6.8,8a11.84,11.84,0,0,0,9.36-.42c2.94-1.43,4.82-4,6.51-6.83,2,3.41,1.43,6-.77,9-6.8,9.27-14.54,17.74-21.81,26.61-6.88,8.39-9.17,17.67-6.44,28.15.42,1.62-.27,2.49-1.31,3.44A76.13,76.13,0,0,0,131,165c-2.17,3.72-3,7.32-1.22,11.42a12.37,12.37,0,0,1,.71,7.17c-1,5.76,1.84,9.43,6.5,12.12a27.22,27.22,0,0,0,2.92,1.43,64.68,64.68,0,0,1,9.86,6.67c7.9,7.94,17.76,12.37,28.21,15.74l1.87.62a41.31,41.31,0,0,0-4.2,7.38c-.5,1.18-1.4,1.3-2.48,1-6.81-1.72-13.74-3.06-20.38-5.28a14.31,14.31,0,0,1-8-7.57c-1.4-3,.17-5.93,1.78-8.5,1.1-1.75.67-2.11-1.14-2.41-6.76-1.1-13.45,4.1-14.65,11.42-.68,4.23.11,8.35.73,12.48a19.06,19.06,0,0,1,.24,4.19c-.28,0-.48.14-.58.07-23.67-15-36.42-36.11-34.92-64.52.76-14.19,5.48-27,17.23-36.29a17,17,0,0,1,2.63-1.78c-1.68,4.56-4.15,9.1.29,13.66,2.18-4.11,4-8.27,7.31-11.41C124.27,132.5,124.54,132.65,124.39,133.23Z"/><path class="cls-2" d="M95.83,185.46c-4.69-2.83-8.36-5.89-10.77-10.28-.91-1.65-1.91-3.39-.69-5.15,1.06-1.54,2.85-1,4.42-.81a6.1,6.1,0,0,0,1.06-.1l-2.38-3.89a27.55,27.55,0,0,1-4.07-9.65,5.67,5.67,0,0,1,.08-3c.3-.88.53-1.87,1.66-2s1.34.85,1.79,1.54c.14.21.23.45.38.65.73,1,1.51,2.45,2.93,1.7,1.65-.88.37-2.22-.13-3.25-2.39-4.9-3.92-10-3-15.49a14.77,14.77,0,0,1,.54-2.18,2.06,2.06,0,0,1,1.76-1.59c1-.1,1.51.48,2,1.25s.68,2.26,2,1.58c1.16-.59.83-1.89.56-2.95a29.54,29.54,0,0,1,.73-17c.11-.31.23-.63.36-.94.44-1,1-2.07,2.3-1.93s1.64,1.16,1.93,2.29c.47,1.83.06,3.88,1.51,5.72,1.11-1.11,1-2.41,1-3.67,0-4.26-.4-8.54.39-12.78a6.38,6.38,0,0,1,.15-1c.5-1.45.47-3.41,2.45-3.71,1.79-.28,2.51,1.35,3.41,2.53.52.69.75,2,1.92,1.6s.94-1.67,1-2.62c0-2.17-.46-4.35.1-6.5A15.35,15.35,0,0,1,112,91a5.23,5.23,0,0,1,4.34-3.4c2.07-.12,2.94,1.63,3.74,3.23a1.79,1.79,0,0,0,1.14,1c0-1.52,0-3,0-4.58-.09-10-.39-19.92,1.05-29.83.9-6.21,2.08-12.34,4.92-17.88.59-.14.62.16.6.37-1.4,13.58.21,27.1.8,40.63.23,5.26.82,10.55-.19,15.78-.86,4.42-3.43,8-6.4,11.17-2.43,2.6-5.73,2.36-8.94,1.82-.2.95.42,1.5.69,2.15,1.14,2.77.8,5.09-1.41,7.07a1.9,1.9,0,0,0-.59,2.54,6.85,6.85,0,0,1-1.12,7.19c-10.92,14.29-16.94,30.27-16,48.49C94.84,179.55,95.4,182.26,95.83,185.46Z"/><path class="cls-2" d="M177.11,72.37A20.76,20.76,0,0,1,172,83.09a8.73,8.73,0,0,1-8.13,3c3.22-3,5.72-6,6.29-10.91-4.37,4.73-10.25,2.43-15.08,4.94a4,4,0,0,1,2.69-3.86c1.6-.72,3.28-1.25,4.9-1.92a12.65,12.65,0,0,0,7.43-8c1.44-4.23.77-8-2.51-11a10.7,10.7,0,0,0-11.87-2.23c-.65.25-1.18,1-2.14.52,1-2.61,3.32-3.33,5.75-3.71a13.57,13.57,0,0,1,8.88,2,12.11,12.11,0,0,0,5.88,2,4.07,4.07,0,0,0,3.33-1.24c0-.53-.36-.59-.69-.6-4.85-.16-7.59-2.49-8.07-7.34-.43-4.4-.12-8.91-3-12.71-.57-.75.11-1.42.71-1.9a2.5,2.5,0,0,1,2.56-.61c1.24.52-.07,1.25.06,1.88.55,2.5,1.09,5,1.66,7.51a1,1,0,0,0,.45.58c2.28,1.14,4.94.77,7.37,2A3.12,3.12,0,0,1,176.91,38c.71-4.8-.69-6.06-5.36-5.1-.52.11-.79,0-1-.4a1.31,1.31,0,0,1,.33-1.61c1.67-1.57,3.72-2.33,5.71-1a37.53,37.53,0,0,0,7.13,3.39c2.2.85,3.4,2.91,4.5,4.9A49.71,49.71,0,0,1,192,48.18a31.77,31.77,0,0,0,1.09,3.34c1.54,3.59,5,4.06,7.5,1,.24-.3.46-.62.8-1.08.66,4.62-1.36,7.54-5.28,7.93-5.37.53-8.35-2.28-8.63-8.35a3.47,3.47,0,0,0-1,4.26c2.08,5.57,1.4,11-.78,16.35-.53,1.32-1.07,2.64-1.52,4-1.25,3.72-2,7.44.54,11.07-3.39.25-5.81-2.25-6.19-6.28-.3-3.17-.41-6.35-.61-9.52C176.77,70.86,177.69,72.07,177.11,72.37Z"/><path class="cls-2" d="M226.28,188a124.78,124.78,0,0,1-40.69-19.78,21.08,21.08,0,0,0,7.43-2.1c.91-.51,1.49.51,2.13.95a94.31,94.31,0,0,0,56.64,17.26c1.32,0,2.63-.13,4.32-.21a21.43,21.43,0,0,1-10.79,10.34c-6.58,3-13.5,3-20.44,1.84-15.66-2.73-29-10.25-41.54-20.16,1.9-1.09,4-1.46,5-3.56.31-.67,1.27.34,1.83.71a113.87,113.87,0,0,0,25.52,12.76,42.65,42.65,0,0,0,9.44,2.42c.8.43,1.69-.25,2.48.19a7.59,7.59,0,0,0,1.76.33,5.32,5.32,0,0,0,1.73.19,6.31,6.31,0,0,0,1.45.28c-.14-.08-.28,0-.41-.05s-.32,0-.48-.08a5.52,5.52,0,0,0-1.71-.19,5,5,0,0,0-1.39-.25A5.16,5.16,0,0,1,226.28,188Z"/><path class="cls-2" d="M239.84,165.74c-13.57,1-25.51-4.3-37.69-9.69,2-1.17,4-1.81,5.7-3.07.9-.68,1.77.08,2.61.35,11.73,3.84,23.62,6.78,36.1,6.48a38.75,38.75,0,0,0,9.17-1.25c1.68-.45,2.1-.24,1.71,1.52A17.49,17.49,0,0,1,241,173.85c-8.79.39-17-2-25.18-5a139.43,139.43,0,0,1-15.13-6.66c-1.2-.6-2.45-1.07-2.26-2.85.13-1.13-1.09-1.46-2.07-2.11a5.92,5.92,0,0,1,5.08.06c8.36,3.85,16.79,7.54,25.93,9.17a37.73,37.73,0,0,0,13-.24c.51-.54,1.25-.39,1.85-.69C241.42,166,240.61,165.56,239.84,165.74Z"/><path class="cls-2" d="M195.67,201.45a116.53,116.53,0,0,1-22.81-18.35c-1.36-1.43-3-2.68-2.92-5,0-1-1.11-1.62-1.7-2.67a9.48,9.48,0,0,1,6.27,2.61,186.94,186.94,0,0,0,17.9,15.35A70.87,70.87,0,0,0,219.49,206a3,3,0,0,1,1.89.83c-4.49,3.75-9.73,5-15.4,4.89A35.06,35.06,0,0,1,187.81,206c-9.89-6.15-18.17-14.14-26.26-22.9,2.56-.74,5-.61,7.25-1.42.92-.33,1.33.84,1.87,1.41,6.75,7,13.91,13.54,22.68,18,.74.37,1.53.64,2.3.95C195.9,201.85,196,201.65,195.67,201.45Z"/><path class="cls-2" d="M84.39,163.4c-13.39-6.75-23.2-16.59-31.07-28.57l-.67.55c1,1.62,1.83,3.28,2.86,4.84a55.5,55.5,0,0,0,3.4,4.66,77.55,77.55,0,0,0,25.54,20.33c1.63.81,1.63.82,2.42,2.42-1.45.08-2.84.2-3.82,1.44-.54.67-1.23.2-1.82-.11-14.27-7.7-26.5-17.66-34-32.37-4.11-8.08-2.68-16.18,2-24.42.58,2.29,1,4,1.45,5.75,2.53,9.29,7.58,17.06,14.3,23.82a96.57,96.57,0,0,0,13.75,12.08C82.19,156.17,82.82,159.62,84.39,163.4Z"/><path class="cls-2" d="M64,112.13A46.44,46.44,0,0,0,83,140.9c2.87,2,3,4.75,4,7.33.16.39.05,1-.46.93-1.35-.25-2.77.43-4.08-.62-9.73-7.78-18.13-16.67-22.75-28.47-3.65-9.34-3.42-18.64,1.58-27.57a7.2,7.2,0,0,1,2.54-3,62.79,62.79,0,0,0,.88,8.73c2.81,13.09,9.54,24,18.79,33.42,1.62,1.66,2.5,3.14,1.86,5.44a20.08,20.08,0,0,0-.31,3.49,41,41,0,0,1-11.06-10.35c-4.36-5.63-6.92-12.18-9.6-18.67a2.89,2.89,0,0,1-.7-1.46s0,0,0,0,.05.22.05.24C64.15,110.93,63.71,111.56,64,112.13Z"/><path class="cls-2" d="M78.5,90.45a59.46,59.46,0,0,0,11.57,29.26,6.7,6.7,0,0,1,1.58,4.78,20,20,0,0,0,.58,6.87,5.8,5.8,0,0,1-2.63-1.73c-10.35-12.53-17.13-26.53-17-43.15,0-8.64,4.66-15.83,11.87-19.07.19,2.14-.75,4-.88,6-.86,13.2,2.54,25.51,7.77,37.43,1.65,3.77,1.73,3.73.42,8.48C84,109.59,80.88,98.29,79.05,86.49,78.21,87.39,78.21,87.39,78.5,90.45Z"/><path class="cls-2" d="M100.16,111.9a4.76,4.76,0,0,1-2.38-3c-4-13.34-6.27-26.89-4.6-40.84A22.51,22.51,0,0,1,103.49,51.6c.6-.41,1.22-1.19,2-.69s.26,1.24.17,1.87a94.51,94.51,0,0,0,3.46,44.11,4,4,0,0,1,.07,2.93c-1.65-1.59-3.23-3.13-5.82-2.39-.77.22-.79-1.15-1-1.8a74.61,74.61,0,0,1-2.63-19.09c0-3.17,0-6.34-.22-9.54a20.15,20.15,0,0,0-1.26,7.32,72.52,72.52,0,0,0,2.85,22.31,7.27,7.27,0,0,1,0,4.61C100.05,104.59,100.2,108.13,100.16,111.9Z"/><path class="cls-2" d="M237.65,142.13c-6.34-.4-12.71-.22-19.17-1.13.06-1.26,1-2.22,1-3.48s1.24-.82,2-.82c4.36,0,8.71.2,13.06.13,8.47-.13,16.88-.76,24.71-4.61.68,7.14-3.67,13.45-10.94,16-6,2-12.15,2.28-18.36,2a78.94,78.94,0,0,1-18-2.94,5.6,5.6,0,0,1-3.41-1.82,22.29,22.29,0,0,0,7.18-2.71,3.12,3.12,0,0,1,2.19-.14,114.77,114.77,0,0,0,20.8.65c1.25-.1,2.48-.37,3.72-.56.5-.52,1.22-.44,1.8-.65a1.83,1.83,0,0,0-.36.07C241.74,142.14,239.69,141.62,237.65,142.13Z"/><path class="cls-2" d="M54.92,166.41c6.45,6.9,14.66,11,23.24,14.44a59.14,59.14,0,0,0,11,3.33A14.77,14.77,0,0,1,96,187.73c-2.72.57-5.13,0-7.52-.36-15.3-2.3-28.65-8.45-39-20.22a23.36,23.36,0,0,1-6-16.58,3.89,3.89,0,0,1,.69-2.83c1.26,1.48,2.5,2.91,3.73,4.35,9.29,10.84,20.42,19,34.13,23.38,2.88.91,3.75,3.69,5.35,5.7.77,1-.92.77-1.41.62-3.19-1-6.38-2-9.49-3.26a76.46,76.46,0,0,1-20.87-12.79C54.91,165.52,54.73,165.78,54.92,166.41Z"/><path class="cls-2" d="M207.83,81.88c-.48-3.31.64-5.36,1.89-7.36,2.68-4.29,6.62-7.26,10.75-10,7.24-4.82,14.95-8.86,22.43-13.3,7-4.13,13-9.18,15.91-17.08,0-.11.25-.15.55-.32.35,5.67-1.55,10.56-4.58,15.07-3.78,5.63-8.86,10-14.28,14a117.65,117.65,0,0,1-23.9,13.66C213.57,77.79,210.07,78.11,207.83,81.88Z"/><path class="cls-2" d="M245.31,76.31c-7.77,5-16.85,7.24-25.07,12.54.52-2.62,1.21-4.65,1.09-6.79-.05-.92.94-1.09,1.56-1.44,6.18-3.51,12.4-6.94,18.82-10s12.76-6.25,17.46-12.27a14,14,0,0,1-.46,12c-1.83,3.82-4.86,6.56-8.23,8.95-7,5-14.74,8.53-22.68,11.66-.45.18-1.14.49-1.4.3-1.85-1.31-3.78-1-5.8-.42,3.54-3,7.66-4.78,11.78-6.56,4.74-2,9.63-3.85,13.56-7.4C246.21,76.22,245.93,76.09,245.31,76.31Z"/><path class="cls-2" d="M246.77,97.86a194.38,194.38,0,0,1-26.8,7.32,36.06,36.06,0,0,0,6.35-7.92c.37-.65,1.33-.6,2.05-.79,5.5-1.42,11-2.79,16.49-4.31A42.27,42.27,0,0,0,260,84.48c1.38,6.08-2.19,14.66-7.59,18.36-5.16,3.53-11.1,4.93-17.11,6.11-2,.38-4,.58-5.95.94-1.38.26-1.45-.22-1.56-1.55-.24-2.84,1-3.72,3.59-4.29,5.54-1.23,11.06-2.66,16-5.63C247.6,97.76,247.22,97.77,246.77,97.86Z"/><path class="cls-2" d="M243.81,121a82.35,82.35,0,0,1-15.17,1.78c-.58,0-1.39.22-1.71-.08-2.45-2.24-5.39-1.82-9-1.48,2.52-2.06,4.18-3.76,7.23-3.83a110.61,110.61,0,0,0,19.67-2.26,37.08,37.08,0,0,0,14.4-6,9.42,9.42,0,0,1-.56,5.71,19.92,19.92,0,0,1-12.21,12.79c-5.72,2.15-16.81,3.52-23.59,2.76,1.68-1.73,3.24-3.3,4-5.46.32-.93,1.47-.57,2.26-.6,5.36-.21,10.69-.57,15.7-2.76C244.83,120.77,244.83,120.77,243.81,121Z"/><path class="cls-2" d="M245.88,220.23a12.3,12.3,0,0,1-5,5.68c-5.92,3.94-12.68,5.43-19.55,6.59-.92.15-1.37-.35-1.88-.94a8.52,8.52,0,0,0-4-2.87c-.12.21-.27.34-.27.47.19,3.94.19,3.86-3.77,4.16-6.48.5-12.85-.38-19.23-1.23-1.11-.15-1.66-.65-1.6-1.78,0-.08,0-.17,0-.25-.8-7.54-.82-7.38,6.59-6.23,15.74,2.46,31.32,2,46.52-3.28a14.79,14.79,0,0,1,1.43-.45C245.31,220.06,245.48,220.15,245.88,220.23Z"/><path class="cls-2" d="M127.4,36.12c-4.79,8-6.19,16.51-7.07,25.17a153.22,153.22,0,0,0-.55,26.35c-2.51-2.31-4.68-1.56-7-.26-1-11.39-1.83-22.55,1-33.62A30.8,30.8,0,0,1,123.93,38,6,6,0,0,1,127.4,36.12Z"/><path class="cls-2" d="M76.65,195.35a28.35,28.35,0,0,0,19.62.11c1.13-.4,2.1-.88,2.37.82.2,1.31,1.94,2.78-.76,3.72-9.78,3.42-19.08,2.64-27.78-3.06a18.17,18.17,0,0,1-7.85-11c.37,0,.63-.08.81,0,9.81,5.05,20.24,5.85,31,4.61,1.1-.13,2.63-1.11,3.25,1.07.42,1.47-.14,1.91-1.3,2.38-4.58,1.82-9.31,1.74-14.08,1.27l-3.74-.38C77.61,194.84,76.84,194.16,76.65,195.35Z"/><path class="cls-2" d="M183.77,242.62c1.55-.89,2.65-1.47,3.69-2.15,1.51-1,2.93-2.39,3-4.16.08-3.22,1.9-2.76,4-2.47,6,.82,11.93,1.63,17.92,2.28,2,.22,2.21.78,1.35,2.47-2.89,5.67-6.85,7.89-13.16,7.29A107,107,0,0,1,183.77,242.62Z"/><path class="cls-2" d="M161.53,199.41c-2.63-2.75-5.47-5.32-7.42-8.69,3.19-1,5.29-.11,7.4,2.34a115.82,115.82,0,0,0,16.64,15.47,17,17,0,0,1-9.46-.38,38,38,0,0,1-17.49-11.3c-1.8-2-3.89-3.79-5.55-5.93-.61-.79-1.35-1.81-.78-2.73.69-1.11,1.84-.29,2.73,0a9,9,0,0,1,5.84,4.23A20.85,20.85,0,0,0,160.9,200C161.49,200.2,161.72,200,161.53,199.41Z"/><path class="cls-2" d="M200.67,248.21c-4,2.6-5.14,6.51-6,10.57-.44,2.18-1.42,3.35-3.79,2.43a6.47,6.47,0,0,0-.73-.18c-1.79-.45-3.85-.49-5.28-1.47-1.64-1.12-.27-3.4-.77-5.12-.69-2.41-1.36-4.82-1.91-7.27-.64-2.84-.13-3.25,2.67-2.65,4.24.92,8.51,1.77,12.77,2.61A7.07,7.07,0,0,1,200.67,248.21Z"/><path class="cls-2" d="M232.92,251.5a19.94,19.94,0,0,1-7.76,7.53,32.69,32.69,0,0,1-11.64,3.69c-1.42.22-2-.21-1.83-1.71a7.84,7.84,0,0,1,1.57-4.4c2.9-3.61,5.94-6.53,11.3-5.22C227.08,252,229.88,251.5,232.92,251.5Z"/><path class="cls-3" d="M243.46,236a16.27,16.27,0,0,1-6.77,6.19,36.32,36.32,0,0,1-13.44,3.55c-1.44.15-2.24,0-1.71-1.81a10.22,10.22,0,0,0,.35-4c-.29-2.33.49-3,2.81-2.82A64.51,64.51,0,0,0,243.46,236Z"/><path class="cls-2" d="M153.09,225.17l20,5c-3.22,2.2-6.27,3.79-8.63,6.28a1.38,1.38,0,0,1-1.17.12c-2.53-.87-5-1.8-7.54-2.71a1.18,1.18,0,0,1-.9-1.31C155,230,154.23,227.74,153.09,225.17Z"/><path class="cls-2" d="M159.48,250.7c-3-1.68-5.57-3.1-8.12-4.47a1.46,1.46,0,0,1-.77-2.07c1.14-2.77,2.32-5.53,3.48-8.3a.84.84,0,0,1,1.17-.58l.93.35c2,.73,4.8.9,5.93,2.34,1.31,1.68-1.42,3.53-1.87,5.54A28.31,28.31,0,0,0,159.48,250.7Z"/><path class="cls-3" d="M166.72,41.93c-2-1-3.77-2.63-6.21-2.35-.22,0-.6-.32-.71-.58-1.58-3.61-4.55-4-8-3.35,1.22-3.8,5.18-6.22,8.74-5.45C164.37,31,167.23,36.39,166.72,41.93Z"/><path class="cls-4" d="M166.51,49.24c-5.36-1.33-10.85-1.64-16.34-2-3.37-.2-6.17-1.42-7.85-4.52-1.44-2.65-1-4.79,1.45-7,.28,2.6.82,5,3,6.55a13.5,13.5,0,0,0,6.86,2c4.94.46,9.8,1.21,13.83,4.48C167.51,49.68,167.05,49.55,166.51,49.24Z"/><path class="cls-5" d="M180.69,278.13c-4-5.21-3.85-8.54-.07-12.8,1.21-1.36,2.22-3.83,3.5-3.95,2.32-.24,4.78.91,7.64,1.59C185.8,266.5,181.33,270.71,180.69,278.13Z"/><path class="cls-6" d="M157.57,263.21a19.15,19.15,0,0,0-4-10.12,15.55,15.55,0,0,1-3.23-5.58c3.15,1.68,6,3.16,8.76,4.7a1.51,1.51,0,0,1,.56,1c.41,4.74,1.24,9.51-1.25,14C156.9,266.16,158.26,264.46,157.57,263.21Z"/><path class="cls-7" d="M173.18,33.34c.17,1.4-.43,2.19.14,3.07l1.84-2c.79,1.84.43,3.09-1,4a1.46,1.46,0,0,1-2.19-.34C170.92,36.38,171.73,35,173.18,33.34Z"/><path class="cls-8" d="M245.34,142.13l-3,.49c-1.51-.81-3.16-.22-4.72-.49,2.37-.64,4.82-.24,7.23-.53C245.37,141.49,245.51,141.67,245.34,142.13Z"/><path class="cls-9" d="M78.5,90.45c-.8-1.91-.42-3.86-.3-5.92,1,.48.91,1.23.85,2C78,87.69,78.88,89.16,78.5,90.45Z"/><path class="cls-10" d="M157.57,263.21c.93,1.2-.11,2.83.86,4-.34.76-.81,1-.91,0A35.3,35.3,0,0,1,157.57,263.21Z"/><path class="cls-11" d="M245.31,76.31l2.54-2.09a3.36,3.36,0,0,1-1.91,2.71Z"/><path class="cls-12" d="M54.92,166.41a3.88,3.88,0,0,1-1.8-2.37,3.68,3.68,0,0,1,2.46,1.7Z"/><path class="cls-13" d="M239.84,165.74c.92-.49,1.89-.45,3.54-.4-1.38.61-2.12,1-3.06.9Z"/><path class="cls-14" d="M161.53,199.41a5,5,0,0,1,1.95,1.92,3.74,3.74,0,0,1-2.58-1.3Z"/><path class="cls-15" d="M226.28,188l2.5.47c0,1-.57.65-1.07.53a5,5,0,0,1-2.54-.53Z"/><path class="cls-16" d="M166.51,49.24l1-.46c.71.34,1.47.63,1.49,1.93Z"/><path class="cls-17" d="M76.65,195.35l-1.59-.63a3.81,3.81,0,0,1,3.12.15Z"/><path class="cls-18" d="M243.81,121a2.46,2.46,0,0,1,2.33-.35c-.12.75-.69.82-1.26.89Z"/><path class="cls-19" d="M64,112.13a3.69,3.69,0,0,1-.53-2.07c-.13-.5,0-.63.51-.45l.5,1.94Z"/><path class="cls-20" d="M159,182.83l-2.76.08c-.79-.45-.16-.56.18-.54A4.89,4.89,0,0,1,159,182.83Z"/><path class="cls-21" d="M177.11,72.37a3.36,3.36,0,0,1,.31-2.09c.09-.18.26-.52.47-.23s.07.59.09.89Z"/><path class="cls-22" d="M191.68,217.09c-.42-.53-1.07-.46-1.63-.62.72-.37,1.44-.77,2.17-.06A5.63,5.63,0,0,1,191.68,217.09Z"/><path class="cls-23" d="M195.67,201.45c.53.12,1.33.25,1.17.82s-.83.15-1.19-.24Z"/><path class="cls-24" d="M246.77,97.86c.49-.37,1.1-1,1.55-.25.26.41-.5.65-.94.81Z"/><path class="cls-25" d="M124.39,133.23l-.64-.64c.29-.41.52-1.24,1.13-.73C125.27,132.19,124.79,132.84,124.39,133.23Z"/><path class="cls-26" d="M188.67,157.69c-.61.06-1.33,0-1.44-.61-.07-.42.59-.3,1-.23Z"/><path class="cls-27" d="M160.55,80.92c-.34-.72-1.08-.35-1.6-.59a1.58,1.58,0,0,1,1.82-.19C161,80.32,160.89,80.73,160.55,80.92Z"/><path d="M52.69,42.7c-1,0-2,.07-3,0-1.69-.14-3-.07-3.33,2.16a2.44,2.44,0,0,1-2.61,1.94,2.53,2.53,0,0,1-2.79-2,2.89,2.89,0,0,0-2.52-2.49,2.84,2.84,0,0,1,.19-5.5,2.35,2.35,0,0,0,2.23-2.19,2.72,2.72,0,0,1,2.88-2.3,2.6,2.6,0,0,1,2.7,2.2c.29,1.78,1.29,2,2.81,1.94,2.59-.11,5.19-.08,7.79,0,1.33,0,2-.28,1.93-1.8-.11-2.84-.08-5.7,0-8.54,0-1.21-.29-1.79-1.6-2a2.76,2.76,0,0,1-2.54-2.93,2.84,2.84,0,0,1,2.6-2.91c1.07-.21,1.52-.52,1.69-1.67A2.95,2.95,0,0,1,65,16.49c.21,1,.46,1.55,1.63,1.73a3,3,0,0,1,0,5.9c-1.21.17-1.45.78-1.44,1.86,0,2.93.06,5.86,0,8.79,0,1.19.4,1.65,1.6,1.63,3,0,6-.07,9,0,1.24,0,1.54-.63,1.76-1.62a2.83,2.83,0,0,1,3-2.51,2.8,2.8,0,0,1,2.77,2.47,2.2,2.2,0,0,0,2.09,2,2.87,2.87,0,0,1,.11,5.6c-1.22.3-2,.65-2.25,2.1a2.87,2.87,0,0,1-5.65,0c-.24-1.51-1-1.83-2.36-1.77-2.76.11-5.53.07-8.29,0-1.18,0-1.87.14-1.82,1.6.1,3,.07,6,0,9,0,1.06.34,1.42,1.36,1.61,1.61.3,2.83,1.22,2.8,3a2.9,2.9,0,0,1-2.86,2.94c-1,.14-1.28.74-1.45,1.67a2.9,2.9,0,0,1-2.9,2.63,2.79,2.79,0,0,1-2.94-2.57c-.17-1.31-.82-1.61-1.9-1.83A2.76,2.76,0,0,1,54.8,58a2.61,2.61,0,0,1,2.26-2.89c1.78-.27,2-1.24,1.9-2.75-.12-2.59-.13-5.19,0-7.78.09-1.61-.5-2.05-2-1.92S54.12,42.7,52.69,42.7Z"/><path class="cls-28" d="M141.7,162.55c-1.93,3.53-2.69,7.15-.95,11.41C137,170.73,137.51,165.79,141.7,162.55Z"/><path class="cls-29" d="M192.34,124c2,4.83-4.06,9.78-8.9,7.37,2.1-.53,4.18-.58,5.81-1.9A8.7,8.7,0,0,0,192.34,124Z"/><path class="cls-30" d="M193.47,130.88c-.13,3.09-1.75,4.35-5.07,4C190,133.3,192.26,132.75,193.47,130.88Z"/><path class="cls-31" d="M181.22,39.55c-3.44-.85-1.46-3.82-2.62-5.88a2.37,2.37,0,0,1,2,2.79A6.36,6.36,0,0,0,181.22,39.55Z"/><path class="cls-32" d="M231.73,189a5.12,5.12,0,0,1,2.47.66,3.06,3.06,0,0,1-2.89-.22A.66.66,0,0,1,231.73,189Z"/><path class="cls-33" d="M231.73,189l-.42.44-1.94-.12c-.07-.44,0-.75.55-.5Z"/><path class="cls-34" d="M229.92,188.83l-.55.5a2.26,2.26,0,0,1-1.66-.33l1.07-.53Z"/><path class="cls-35" d="M64,109.61l-.51.45a1.68,1.68,0,0,1-.25-1.89C63.8,108.49,63.83,109.08,64,109.61Z"/><path class="cls-36" d="M245.34,142.13l-.46-.53c.49-.28,1.18-.72,1.48-.11C246.58,141.94,245.85,142.14,245.34,142.13Z"/></svg>