<svg id="Layer_1" data-name="Layer 1" xmlns="http://www.w3.org/2000/svg" viewBox="0 0 300 300"><defs><style>.cls-1{fill:#134990;}.cls-2{fill:#c2c3c5;}.cls-3{fill:#010100;}.cls-4{fill:#0d3466;}.cls-5{fill:#d28d00;}.cls-6{fill:#bb7e00;}.cls-7{fill:#ca8800;}.cls-8{fill:#030a14;}.cls-9{fill:#114283;}.cls-10{fill:#0f3b75;}.cls-11{fill:#11407f;}.cls-12{fill:#114182;}.cls-13{fill:#103e7b;}.cls-14{fill:#092243;}.cls-15{fill:#092143;}.cls-16{fill:#124488;}.cls-17{fill:#13488f;}.cls-18{fill:#13478e;}.cls-19{fill:#0a254a;}.cls-20{fill:#c1c2c4;}.cls-21{fill:#c2c3c4;}.cls-22{fill:#c0c1c3;}.cls-23{fill:#c0c0c2;}</style></defs><path d="M149.93.44H269.68c3.31,0,3.31,0,3.31,3.62q0,56.28.05,112.56c0,2.79-.52,3.95-3.29,4a35.1,35.1,0,0,0-13.4,3c-9.32,3.94-18.54,3.68-27.9.28a63.07,63.07,0,0,0-12.85-3.39c-5.76-.8-11.33.31-16.86,1.9-.73.21-1.49.39-2.2.67a43.18,43.18,0,0,1-33.84-.22c-8.73-3.62-17.62-3.31-26.45,0-1.77.66-3.6,1.11-5.37,1.75a33,33,0,0,1-22.77,0c-2.75-1-5.58-1.61-8.34-2.52a36.78,36.78,0,0,0-23.32.28c-4.23,1.36-8.5,2.61-12.8,3.69-7,1.76-13.63-.17-20.25-2.42C38.7,122,34,120.56,29,120.46c-1.74,0-2.07-1-2.06-2.65.06-8.56,0-17.13,0-25.7q0-43.84,0-87.7c0-4.48-.4-4,3.74-4Q90.32.43,149.93.44Z"/><path d="M273,166.08c.34,26.4-5.91,51.78-20.26,74.58-19.57,31.1-46.83,50.18-81.54,56.77-27.39,5.19-53.72,1-78.28-12.9-35-19.88-56.23-50.91-64-92.25-2.16-11.56-2.08-23.28-2-35,0-2,.93-2.15,2.38-2a57.94,57.94,0,0,1,14.63,3.44,39.82,39.82,0,0,0,27.74.12,109.2,109.2,0,0,1,10.83-3c6.14-1.44,12.14-.33,18.09,1.42,5.15,1.5,10.24,3.3,15.58,3.95,7.14.87,13.87-1.14,20.45-3.52a37.58,37.58,0,0,1,26.21.1c6.7,2.38,13.53,4.32,20.73,3.38a94.34,94.34,0,0,0,15.83-4,38.75,38.75,0,0,1,24.07.08,86.6,86.6,0,0,0,15.32,3.94c7.15.95,13.79-1.34,20.43-3.57a65.83,65.83,0,0,1,10.72-2.3c2.17-.34,3.39.06,3.12,2.84C272.81,160.47,273,162.83,273,166.08Z"/><path d="M27,136.65c0-7.56.05-15.12,0-22.68,0-1.71.45-2.16,2.15-2A41.12,41.12,0,0,1,41,114.31c11.22,4.35,22.37,4.17,33.57.12,9.57-3.47,19.1-3.15,28.68,0a101,101,0,0,0,10.34,2.63c7.8,1.74,15.22-.3,22.45-2.78a40.46,40.46,0,0,1,26.93,0,98.44,98.44,0,0,0,10.57,2.8c6.76,1.48,13.31,0,19.82-1.74,6.86-1.87,13.67-4.1,21-3.39a49,49,0,0,1,11.64,2.6c10.91,3.81,21.7,4.11,32.57-.21A41.5,41.5,0,0,1,271,111.93c1.62-.11,2,.42,2,2q-.08,22.8,0,45.61c0,1.33-.23,2-1.77,2a52.3,52.3,0,0,0-16.13,3.33,38,38,0,0,1-24.71.41c-6.89-2.08-13.78-4.35-21.17-3.81-5.89.44-11.53,2-17.1,3.76a41,41,0,0,1-25.51-.27c-3.54-1.15-7.16-2.09-10.8-2.91-6.58-1.49-13-.22-19.31,1.64-3.41,1-6.82,2-10.28,2.85-6.22,1.49-12.3.47-18.34-1.21-4.16-1.16-8.33-2.32-12.54-3.26-6.83-1.51-13.5-.28-20.09,1.6-3.5,1-7,2-10.55,2.85a34.85,34.85,0,0,1-18.33-1.15c-5.91-1.84-11.84-3.68-18.1-3.87-1.73-.05-1.28-1.23-1.28-2.14C26.94,151.77,27,144.21,27,136.65Z"/><path d="M134.25,63.15c-3-2.43-3.12-4.1-.53-7.49-2.35-2.36-2.41-2.74-.33-5.14,1.14-1.33,0-2.22-.55-3.11-.72-1.07-1.79-2.1-3.18-1.53s-.76,1.86-.52,2.91c.56,2.4,1.33,4.74,1.22,7.25a8.49,8.49,0,0,1-9.94,8.05c-3.3-.58-5.15-3.31-5.33-7.85,1-.44,2.13,1.55,2.87.2s0-2.82-1-3.92c-1.7-1.73-4-2.57-6-3.73-6.92-3.89-10-10.47-8.23-17.73,2.7-11.21,16.14-15.38,25.7-8a38.84,38.84,0,0,1,8.24,9.29,7.56,7.56,0,0,0,1.94,2.14c-.36-2.6-.57-5.24-1.1-7.81-1.53-7.47,1.19-13.42,6.68-18.15,6.66-5.75,4.62-5.74,11.44,0s8.06,13,6.24,21.22c-.38,1.74-.6,3.51-.89,5.27-.13.49-.1.81.54.53,2.82-4.56,5.8-9,10.08-12.34,9.48-7.48,22.94-3.53,25.8,7.61a15.26,15.26,0,0,1-6.42,16.89c-1.62,1.07-3.39,1.92-5.08,2.88A10,10,0,0,0,183,52.69c-.93,1.09-1.63,2.48-.92,3.72s1.86-.52,2.88-.2c-.09,5-2.4,7.86-6.51,8a8.46,8.46,0,0,1-8.72-7.56c-.26-2.59.53-5,1.1-7.51.26-1.11,1-2.46-.33-3.21s-2.33.24-3,1.21-2.12,2.18-.63,3.73c1.27,1.31,1.38,2.78-.06,4-.86.71-.66.94-.08,1.7,2.06,2.67,1.52,4.93-1.44,6.62-.78,1.17-2,1.08-3.13,1a2.85,2.85,0,0,1-.92-.38,1.69,1.69,0,0,0-1.77-.19,10.84,10.84,0,0,1-1.67.54,9.78,9.78,0,0,1-2.59-.07c-1.18-.64-2.37-1-3.59-.09a7.27,7.27,0,0,1-2.63.15,10.44,10.44,0,0,1-1.06-.29c-.8-.42-1.59-1-2.46-.15a9.66,9.66,0,0,1-1,.34,4.11,4.11,0,0,1-2.09.06,10.1,10.1,0,0,1-1.94-.59,2.67,2.67,0,0,0-2,.14,8.84,8.84,0,0,1-2.28.49A2.45,2.45,0,0,1,134.25,63.15Z"/><path d="M154.63,63.14l3.36,0c1.29.37,2.74-.62,3.95.47,1-.71,2.21-.09,3.27-.46,3.18,1.63,3.36,2.8.61,5.25-.82.72-.33,1.2,0,1.71a15.3,15.3,0,0,0,3.62,3.56,41.47,41.47,0,0,1,6.37,5.46,10.4,10.4,0,0,1,0,14.33c-4,4.54-9.33,5.31-14,1.49-2.26-1.85-2.81-1.11-4.12.84-2.12,3.14-5.06,5.68-6.32,9.46-.56,1.67-2.22,1.64-3.07.06-1.12-2.09-1.79-4.41-3.55-6.13a26,26,0,0,1-4.39-5.71c-.68.54-1.27,1-1.88,1.46-4.91,3.63-10,3.14-14.1-1.34A10.54,10.54,0,0,1,124.27,79c2.18-2.42,4.9-4.18,7.37-6.25A21.39,21.39,0,0,0,134.25,70c.44-.53.63-1-.25-1.61-3-2-2.88-3.41.25-5.25l2.25,0c2,.08,4.07.08,6.1,0a1.75,1.75,0,0,0,1.59,0c1.49,0,3,0,4.48,0h3.1A9.15,9.15,0,0,1,154.63,63.14Z"/><path d="M161.43,35.54c-.15.44-.39,1.23-.77,1s-.1-1,.23-1.52Z"/><path d="M149.76,258.35q-42,0-84.08,0c-2.44,0-3.13-.59-3.12-3.08q.15-37.2,0-74.4c0-2.47.67-3.25,3.13-3.09,3.21.21,6.45.11,9.67,0,1.55,0,2.1.49,2.07,2-.09,3.74,0,7.48-.05,11.21,0,1.53.47,2.14,2,2.09,2.63-.09,5.27-.1,7.9,0,1.64.06,2.26-.5,2.22-2.18-.1-3.65,0-7.31-.06-11,0-1.65.5-2.26,2.18-2.22,3.48.1,7,.09,10.45,0,1.67,0,2.24.58,2.21,2.23-.09,3.56.07,7.14-.07,10.7-.07,2,.64,2.54,2.51,2.42a58.48,58.48,0,0,1,6.62,0c1.75.09,2.41-.51,2.35-2.31-.11-3.57,0-7.14-.06-10.7,0-1.79.59-2.4,2.36-2.35,3.48.1,7,.1,10.45,0,1.75,0,2.42.53,2.36,2.33-.1,3.65,0,7.31-.05,11,0,1.55.52,2.12,2.06,2.06q3.83-.12,7.65,0c1.58,0,2.06-.61,2-2.11-.07-3.57.09-7.14-.07-10.7-.09-2.09.69-2.64,2.65-2.55,3.14.13,6.29.13,9.42,0,2.06-.1,2.9.5,2.8,2.69-.16,3.47,0,7-.07,10.44,0,1.64.49,2.3,2.18,2.23,2.46-.11,4.93-.11,7.39,0,1.72.08,2.2-.64,2.16-2.25-.08-3.56,0-7.13-.05-10.7,0-1.69.4-2.47,2.27-2.41,3.56.12,7.13.09,10.7,0,1.56,0,2.07.54,2,2.07-.08,3.74,0,7.48-.05,11.21,0,1.55.51,2.12,2.06,2.06,2.54-.08,5.1-.08,7.64,0,1.54,0,2.09-.5,2.06-2.06-.09-3.73,0-7.47-.06-11.21,0-1.51.44-2.12,2-2.08,3.57.08,7.14.1,10.7,0,1.73,0,2.16.64,2.12,2.25-.09,3.65,0,7.3-.06,11-.05,1.7.58,2.23,2.22,2.16,2.54-.11,5.09-.08,7.64,0,1.42,0,2-.48,1.93-1.92-.07-3.82,0-7.64,0-11.46,0-1.41.43-2,1.89-2,3.65.07,7.31.08,11,0,1.58,0,2,.58,2,2.09-.07,4.85,0,9.69,0,14.53q0,30.06,0,60.13c0,4.17.45,3.73-3.61,3.73Q191.55,258.37,149.76,258.35Z"/><path d="M149.86,50.29c-5.44,0-5.44,0-6.82-5.37C141.51,39,140.38,33,139.31,27c-1.26-7.09.92-12.7,6.22-17.26,5.08-4.38,3.53-4.13,8.46-.13,6.75,5.49,7.48,12.63,5.84,20.54-1.17,5.65-2.48,11.26-3.77,16.88-.62,2.7-1.75,3.75-4.42,3.28A9.61,9.61,0,0,0,149.86,50.29Z"/><path d="M180,57.21c-3-1-4-2.83-3.41-5.79a10.59,10.59,0,0,1,2.69-4.82c1.83-2.12,3.78-4.15,5.5-6.34,2.1-2.68,2.75-5.71,1-8.78s-5-3.57-8.24-3.31c-4.61.36-7.78,3.08-10.23,6.76a50,50,0,0,0-5.82,13.47c-.25.82-.23,1.87-1.61,1.92-1.58,0-2.54.08-1.77-2.07,2.8-7.81,6.19-15.24,12.08-21.27,4.44-4.54,9.66-6.9,16.07-5.16,5,1.36,8.35,4.65,9.34,9.74,1,5.38,0,10.29-4.68,13.89a54.64,54.64,0,0,1-6.36,3.71C181.48,50.88,179.47,53.2,180,57.21Z"/><path d="M120.08,57.22c.5-4.14-1.65-6.46-4.74-8.19-1.48-.83-3-1.56-4.46-2.46-6.5-4-8.69-11.88-5.17-18.37,3.37-6.24,11.27-8.7,18.13-5.63,3.68,1.64,6.37,4.45,8.82,7.54a54.57,54.57,0,0,1,9.14,18c.22.69,1,1.72-.21,2-1,.26-2.34.56-2.81-1.2a55,55,0,0,0-3.91-10.47,21.24,21.24,0,0,0-5.94-7.85,11.75,11.75,0,0,0-9.83-2.32,6.77,6.77,0,0,0-5,9.92,21.37,21.37,0,0,0,3.79,5.08c1.82,2,3.85,3.87,5,6.37C124.51,53.08,123.46,56.08,120.08,57.22Z"/><path d="M182.49,59.06c-.88,2.89-2.81,3.46-5.06,3.26A6.5,6.5,0,0,1,171.69,57a12.25,12.25,0,0,1,.23-4.55c.23-.9.48-1.8.69-2.71.53-2.17,1.21-4.46-1.44-5.76-1.85-.92-4.71.58-6,3.07-.57,1.05-1,2.19-1.46,3.35-.34-.26-.46-.32-.45-.35,1.52-6.94,3.76-13.56,9.55-18.21A9,9,0,0,1,181,30.29a4.81,4.81,0,0,1,3.38,6.93,18.18,18.18,0,0,1-3.61,4.89,33.48,33.48,0,0,0-5,6.1,8.09,8.09,0,0,0-.25,8.25C176.93,59,179.43,59.51,182.49,59.06Z"/><path d="M136.82,50.06c-1.16-.39-1.1-1.32-1.42-2.06a7,7,0,0,0-3.08-3.6c-1.33-.7-2.76-1.1-4.08-.09a3.56,3.56,0,0,0-1.17,3.9c.61,2.72,1.57,5.38,1.33,8.24a6.52,6.52,0,0,1-7.51,5.8,3.6,3.6,0,0,1-3.2-2.77c.16-.14.27-.32.38-.32,6.15.17,9.25-4.6,6.59-10.22-1.26-2.64-3.36-4.67-5.31-6.78a19.66,19.66,0,0,1-3.4-4.42c-1.82-3.6-.18-6.94,3.79-7.63a9,9,0,0,1,6.63,1.15C133.18,35.7,134.72,43.07,136.82,50.06Z"/><path d="M150,53.54c-4.66,0-9.31,0-14,0-.73,0-2,.48-2-.75,0-.92,1.18-.71,1.89-.72h27.94c.73,0,1.92-.18,1.91.71,0,1.23-1.3.75-2,.76C159.15,53.56,154.58,53.54,150,53.54Z"/><path d="M163.55,57.05c1.43.18,2.38.88,2.42,2.25a2.25,2.25,0,0,1-4.49.15C161.4,58,162.37,57.38,163.55,57.05Z"/><path d="M152.29,59.27c-.21,1.44-.88,2.34-2.31,2.33a2.05,2.05,0,0,1-2.25-2.22A2.1,2.1,0,0,1,150,57.12,2.3,2.3,0,0,1,152.29,59.27Z"/><path d="M138.38,59.4c-.23,1.29-.85,2.23-2.31,2.2a2.24,2.24,0,0,1,0-4.48C137.46,57.12,138.19,58,138.38,59.4Z"/><path d="M157.18,61.62c-1.72,0-2.55-.79-2.64-2.13a2.11,2.11,0,0,1,2.13-2.37A2.06,2.06,0,0,1,159,59.26,2.13,2.13,0,0,1,157.18,61.62Z"/><path d="M142.89,57.06c1.35.19,2.3.8,2.32,2.24a2,2,0,0,1-2.15,2.3,2.08,2.08,0,0,1-2.32-2.16C140.68,58.07,141.62,57.34,142.89,57.06Z"/><path d="M142.6,63.1a7.87,7.87,0,0,1-6.1,0l2-.51a4.45,4.45,0,0,0,2,0Z"/><path d="M154.63,63.14a2.94,2.94,0,0,1-2.86,0C152.73,62.24,153.7,61.72,154.63,63.14Z"/><path d="M138.46,55.63a4.05,4.05,0,0,1,2.22-.14C139.56,56.88,139.56,56.88,138.46,55.63Z"/><path d="M144.91,55.69a3.75,3.75,0,0,1,2.72,0,3.61,3.61,0,0,1-.55.76C146,57.28,145.78,56.13,144.91,55.69Z"/><path d="M159.12,55.51h2.16c0,.18.09.37,0,.44C160.59,56.77,159.88,57.12,159.12,55.51Z"/><path d="M152.08,55.49h2.22c0,.21.12.39.06.48C153.57,57.09,152.92,56.64,152.08,55.49Z"/><path d="M145.18,63.1q1.27-2.22,2.57,0A2.93,2.93,0,0,1,145.18,63.1Z"/><path d="M145.18,63.1h2.57l.92,0a4.66,4.66,0,0,1-4.48,0Z"/><path d="M161.94,63.59c-1.32-.14-2.73.43-4-.47l1.42-.55c.65.34,1.5-.13,2.07.53Z"/><path d="M140.55,62.59c-.68.87-1.35.86-2,0A1.47,1.47,0,0,1,140.55,62.59Z"/><path d="M161.47,63.1c-.72-.06-1.52.2-2.07-.53C160.34,61.76,161,62.23,161.47,63.1Z"/><path d="M149.79,103.71c-1.1-3.24-3.35-5.45-5.45-7.75-2.72-3-3.31-6.61-3.08-10.44a90.14,90.14,0,0,1,2.49-15c.31-1.31.79-2,2.35-1.95,2.54.15,5.09.09,7.64,0a1.66,1.66,0,0,1,2,1.46,82.86,82.86,0,0,1,2.66,16.79,13,13,0,0,1-3.79,9.92A19.74,19.74,0,0,0,149.79,103.71Z"/><path d="M160.92,91.64c2.8.48,5,.26,6.16-2.32s.18-4.79-1.57-6.72A19,19,0,0,0,162.75,80c-3.41-2.52-4.54-6.16-5.17-10.07-.07-.39-.3-.79.13-1.15.83-.7,5.29,0,5.74.95,1.12,2.4,3.05,4,5.05,5.61a64.93,64.93,0,0,1,5.26,4.38c4.06,4,4,9.35,0,13.22C169.89,96.58,165.38,96.25,160.92,91.64Z"/><path d="M139.12,91.64c-4.53,4.62-9,4.93-12.84,1.24-4-3.88-4.07-9.22,0-13.22,1.93-1.88,4.14-3.48,6.26-5.17a14.38,14.38,0,0,0,3.81-4.37c.68-1.25,4-2.16,5.26-1.46.75.42.35,1,.28,1.55-.56,4.54-2.26,8.45-6.16,11.14a6.88,6.88,0,0,0-1.1,1.06c-1.8,2-2.93,4.21-1.71,6.93C134.1,91.89,136.33,92.14,139.12,91.64Z"/><path d="M149.87,66.65c-4.76,0-9.51,0-14.27,0-.62,0-1.61.25-1.61-.7s1-.74,1.61-.74q14.27,0,28.53,0c.68,0,1.64-.09,1.64.74s-1,.72-1.64.72Z"/><path d="M160.48,80.38c1.54,1.53,3.4,2.78,4.54,4.69a3.39,3.39,0,0,1,0,4c-.91,1.19-2.16,1-3.45.68A1.53,1.53,0,0,1,160.18,88c0-2.18-.19-4.36-.31-6.54C159.64,80.88,159.56,80.35,160.48,80.38Z"/><path d="M139.45,80.49c0,2.6-.12,4.79,0,7,.13,1.75-.57,2.52-2.21,2.57a2.49,2.49,0,0,1-2.84-2.53c-.17-1.78.8-3,2-4.19C137.37,82.38,138.35,81.5,139.45,80.49Z"/><path d="M160.48,80.38l-.61,1.1c-.32-.47-.66-1-.25-1.5S160.27,80,160.48,80.38Z"/><path d="M219.5,225.12c-2.37,0-4.74-.08-7.1,0-1.48.07-2.21-.25-2-1.92.23-2.25-.89-5.14.45-6.61s4.16-.37,6.33-.41c3.21-.07,6.43,0,9.64,0,1.34,0,1.91.27,2,1.79.22,7.16.27,7.16-7,7.16Z"/><path d="M159.94,225.12c-2.54,0-5.08,0-7.62,0-1.08,0-1.53-.34-1.49-1.46.06-1.94.09-3.9,0-5.84-.08-1.45.62-1.67,1.83-1.66,4.83,0,9.66.06,14.49,0,1.41,0,1.86.42,1.9,1.88.21,7.08.25,7.08-6.81,7.08Z"/><path d="M139.81,216.19c2.37,0,4.75.11,7.12,0,1.75-.1,2.11.58,2.12,2.19.06,6.78.11,6.78-6.63,6.78-3.22,0-6.45-.05-9.67,0-1.35,0-1.9-.23-1.95-1.77-.2-7.18-.26-7.18,7-7.18Z"/><path d="M149.75,235.73c-2.38,0-4.76-.06-7.13,0-1.38.05-1.9-.35-2-1.84-.24-6.95-.29-6.95,6.74-6.95,3.31,0,6.62,0,9.92,0,1.19,0,1.57.33,1.63,1.57.37,7.22.41,7.22-6.67,7.22Z"/><path d="M90.17,227c2.45,0,4.9,0,7.35,0,1.26,0,1.73.31,1.78,1.69.28,7.1.32,7.1-6.76,7.1-3.21,0-6.42,0-9.63,0-1.38,0-1.89-.33-1.94-1.83-.21-7-.26-7,6.66-7Z"/><path d="M179.74,225.12c-2.29,0-4.58-.07-6.87,0-1.45.07-2.07-.25-2.11-1.91-.16-7-.22-7,6.9-7,3.05,0,6.11.05,9.15,0,1.46,0,2.22.27,2.09,2a43.09,43.09,0,0,0,0,5.33c.08,1.38-.5,1.74-1.78,1.7C184.65,225.07,182.19,225.12,179.74,225.12Z"/><path d="M209.56,235.73c-2.37,0-4.75-.06-7.13,0-1.29,0-1.73-.33-1.79-1.69-.3-7.1-.34-7.1,6.81-7.1,3.06,0,6.12.07,9.17,0,1.49,0,2,.31,2.07,1.95.1,6.85.16,6.85-6.58,6.85Z"/><path d="M189.88,235.73c-2.46,0-4.92-.07-7.38,0-1.35.05-1.68-.45-1.72-1.75-.27-7-.3-7,6.58-7,3.22,0,6.45.06,9.67,0,1.34,0,1.69.42,1.74,1.74.25,7,.29,7-6.6,7Z"/><path d="M169.79,227c2.46,0,4.91.06,7.36,0,1.32,0,1.7.4,1.75,1.72.27,7.07.31,7.07-6.8,7.07-3.22,0-6.43,0-9.64,0-1.22,0-1.56-.41-1.63-1.61-.44-7.18-.47-7.18,6.68-7.18Z"/><path d="M80.35,216.19c2.28,0,4.57.07,6.85,0,1.45,0,2.07.27,2.11,1.93.18,7,.24,7-6.84,7-3.13,0-6.27-.05-9.39,0-1.34,0-1.91-.23-2-1.77-.23-7.18-.28-7.18,6.95-7.18Z"/><path d="M100,225.12c-2.29,0-4.57-.08-6.85,0-1.47.06-2-.27-2.07-1.92-.09-7-.16-7,6.84-7,3,0,6.09.06,9.13,0,1.48,0,2,.32,2.09,1.94.15,7,.21,7-6.86,7Z"/><path d="M119.91,225.12c-2.37,0-4.75-.06-7.12,0-1.26,0-1.74-.26-1.8-1.66-.3-7.29-.35-7.29,6.86-7.29,3,0,5.94.07,8.9,0,1.58,0,2.35.28,2.18,2.08-.2,2.17.66,5-.43,6.39s-4.12.34-6.3.48C121.44,225.16,120.68,225.12,119.91,225.12Z"/><path d="M110.13,235.73c-2.38,0-4.76-.08-7.13,0-1.48.07-2-.49-1.84-1.9a1,1,0,0,0,0-.25C101,227,101,227,107.65,227c3.23,0,6.45.07,9.67,0,1.47-.05,1.82.48,1.85,1.89.14,6.9.18,6.9-6.75,6.9Z"/><path d="M129.7,235.73c-2.21,0-4.41-.07-6.62,0-1.46.07-2.06-.29-2.1-1.94-.17-6.85-.23-6.85,6.58-6.85,3.14,0,6.28,0,9.41,0,1.33,0,1.93.25,2,1.8.24,7,.29,7-6.7,7Z"/><path d="M199.52,225.12c-2.37,0-4.74-.06-7.11,0-1.33.05-1.71-.41-1.77-1.73-.33-7.22-.36-7.22,6.71-7.22,3.05,0,6.1.08,9.15,0,1.6-.06,2,.5,2,2,.1,6.94.14,6.94-6.68,6.94Z"/><path d="M90.4,247.74c2.46,0,4.93,0,7.39,0,1.08,0,1.6.34,1.47,1.46a4.34,4.34,0,0,0,0,.51c.18,6.8.18,6.8-6.55,6.8-3.31,0-6.62,0-9.93,0-1.28,0-1.74-.35-1.8-1.72-.32-7.06-.37-7.06,6.62-7.06Z"/><path d="M219.55,245.94c-2.37,0-4.75-.07-7.13,0-1.46.06-2.06-.24-2.08-1.92-.08-6.52-.15-6.52,6.36-6.52,3.31,0,6.62.06,9.93,0,1.43,0,2.08.21,2.11,1.9.11,6.53.18,6.53-6.39,6.53Z"/><path d="M90.16,214.38c-2.46,0-4.93-.06-7.39,0-1.29,0-1.73-.34-1.79-1.71-.31-7.05-.35-7.05,6.62-7.05,3.31,0,6.63.05,9.94,0,1.29,0,1.71.34,1.76,1.7.26,7.06.3,7.06-6.59,7.06Z"/><path d="M150,247.74c2.37,0,4.75.09,7.12,0,1.49-.07,1.92.48,1.83,1.89-.14,2.19.67,5-.42,6.4s-4.1.42-6.27.48c-3.22.08-6.45,0-9.67,0-1.42,0-1.87-.42-1.91-1.87-.22-6.91-.27-6.91,6.52-6.91Z"/><path d="M150.11,214.38c-2.55,0-5.09-.06-7.63,0-1.3,0-1.74-.36-1.8-1.72-.34-7-.38-7,6.63-7,3.31,0,6.62.05,9.93,0,1.32,0,1.68.39,1.72,1.71.24,7.06.28,7.06-6.81,7.06Z"/><path d="M140,237.53c2.46,0,4.92.05,7.37,0,1.23,0,1.56.44,1.64,1.61.48,6.82.51,6.82-6.34,6.82-3.3,0-6.61-.08-9.91,0-1.6.05-2-.49-2-2-.07-6.43-.13-6.43,6.17-6.43Z"/><path d="M159.7,237.53c2.37,0,4.75.08,7.11,0,1.56-.07,2.23.27,2.24,2.05,0,6.39.13,6.39-6.25,6.39-3.31,0-6.61-.06-9.91,0-1.45,0-2.07-.26-2.09-1.93-.11-6.51-.18-6.51,6.37-6.51Z"/><path d="M179.93,237.53c2.37,0,4.75.08,7.11,0,1.48-.06,1.83.51,1.86,1.91.18,6.53.23,6.53-6.35,6.53-3.22,0-6.44-.09-9.65,0-1.72.07-2.12-.55-2.13-2.18,0-6.27-.1-6.27,6.11-6.27Z"/><path d="M179.78,195.4c2.46,0,4.91,0,7.37,0,1.33,0,1.7.46,1.75,1.77.29,6.6.32,6.6-6.28,6.6-3.31,0-6.62-.06-9.92,0-1.4,0-1.89-.34-1.93-1.82-.2-6.73-.25-6.73,6.46-6.73h2.55Z"/><path d="M189.94,205.64c2.38,0,4.76.07,7.13,0,1.38-.06,1.65.47,1.69,1.76.22,7,.26,7-6.62,7-3.14,0-6.28-.06-9.42,0-1.35,0-2.05-.22-1.94-1.78a38.07,38.07,0,0,0,0-5.34c-.09-1.42.53-1.7,1.78-1.66C185,205.69,187.48,205.64,189.94,205.64Z"/><path d="M209.81,247.74c2.45,0,4.91,0,7.36,0,1.08,0,1.58.36,1.47,1.46a1,1,0,0,0,0,.25c.38,7.06.38,7.06-6.73,7.06-3.22,0-6.43,0-9.64,0-1.18,0-1.68-.29-1.61-1.56a51.93,51.93,0,0,0,0-5.58c-.08-1.42.55-1.7,1.8-1.66C204.91,247.8,207.36,247.74,209.81,247.74Z"/><path d="M80.39,237.53c2.37,0,4.75.06,7.13,0,1.31,0,1.72.4,1.78,1.73.33,6.7.37,6.7-6.23,6.7-3.39,0-6.79-.05-10.18,0-1.34,0-1.7-.42-1.76-1.73-.28-6.7-.32-6.7,6.45-6.7Z"/><path d="M100.14,245.94c-2.46,0-4.92-.05-7.38,0-1.21,0-1.56-.38-1.63-1.6-.39-6.83-.42-6.83,6.31-6.83,3.31,0,6.63.05,9.93,0,1.32,0,1.72.39,1.79,1.72.32,6.71.36,6.71-6.22,6.71Z"/><path d="M209.46,214.38a47.54,47.54,0,0,0-5.85,0c-2.6.33-3.06-.73-3-3.09.17-5.69.05-5.69,5.65-5.69,3.4,0,6.8.11,10.19,0,1.86-.08,2.38.56,2.2,2.3a16.83,16.83,0,0,0,0,3.82c.24,2-.37,2.91-2.58,2.71S211.67,214.38,209.46,214.38Z"/><path d="M120,245.94c-2.45,0-4.91-.05-7.37,0-1.23,0-1.53-.43-1.59-1.62-.36-6.81-.39-6.81,6.29-6.81,3.22,0,6.45.09,9.66,0,1.6-.06,2,.49,2,2,.08,6.43.13,6.43-6.18,6.43Z"/><path d="M110.24,256.5c-2.46,0-4.92-.07-7.38,0-1.35.05-1.68-.44-1.73-1.75-.26-7-.3-7,6.65-7,3.13,0,6.28.09,9.41,0,1.61-.06,2.08.51,2,2a30,30,0,0,0,0,4.83c.15,1.66-.56,2-2,1.95C114.83,256.42,112.53,256.5,110.24,256.5Z"/><path d="M110.24,214.38c-2.37,0-4.75-.1-7.12,0-1.62.09-2.08-.53-2-2a30,30,0,0,0,0-4.83c-.15-1.68.6-1.95,2.06-1.93,4.67.08,9.34.09,14,0,1.59,0,2,.49,2,2,.07,6.76.12,6.76-6.64,6.76Z"/><path d="M170,247.74c2.45,0,4.91,0,7.36,0,1.09,0,1.59.36,1.47,1.46a2.09,2.09,0,0,0,0,.25c.37,7.06.37,7.06-6.74,7.06-3.22,0-6.44,0-9.65,0-1.17,0-1.69-.3-1.63-1.56a54.86,54.86,0,0,0,0-5.59c-.08-1.43.59-1.68,1.83-1.65C165.12,247.79,167.57,247.74,170,247.74Z"/><path d="M189.64,256.5c-2.47,0-4.93,0-7.39,0-1.09,0-1.58-.35-1.44-1.45a2.25,2.25,0,0,0,0-.26c-.32-7.06-.32-7.06,6.8-7.06,3.14,0,6.28.06,9.42,0,1.35,0,1.68.44,1.73,1.74.28,7,.32,7-6.58,7Z"/><path d="M169.71,214.38c-2.37,0-4.74-.06-7.1,0-1.31,0-1.72-.36-1.78-1.7-.32-7.06-.36-7.06,6.52-7.06,3.22,0,6.44.06,9.65,0,1.39,0,2,.31,1.89,1.81a33,33,0,0,0,0,5.07c.15,1.69-.61,2-2.07,1.91C174.46,214.3,172.08,214.38,169.71,214.38Z"/><path d="M130,214.38c-2.29,0-4.59-.11-6.87,0-1.75.12-2.1-.56-2.12-2.18,0-6.59-.1-6.59,6.54-6.59,3.22,0,6.45.05,9.67,0,1.33,0,1.7.45,1.75,1.76.3,7,.34,7-6.68,7Z"/><path d="M128.68,186.54c0,2.19.86,5.13-.22,6.38-1.28,1.48-4.3.43-6.56.47-4.25.08-4.25,0-4.25-4.21,0-2.54,0-5.09,0-7.63,0-1.26.23-1.82,1.65-1.76,2.62.11,5.25.09,7.88,0,1.28,0,1.84.26,1.74,1.67-.12,1.68,0,3.38,0,5.08Z"/><path d="M130.12,256.5c-2.47,0-4.93-.07-7.39,0-1.33.05-1.69-.42-1.74-1.74-.28-7-.32-7,6.64-7,3.14,0,6.28.06,9.42,0,1.44,0,1.85.44,1.89,1.88.21,6.9.26,6.9-6.53,6.9Z"/><path d="M155.34,187c-.21,1.78,1,4.61-.43,6s-4.19.37-6.38.41c-4.25.06-4.25,0-4.25-4.31,0-2.46.07-4.92,0-7.38,0-1.37.26-2,1.8-1.92,2.54.12,5.09.11,7.63,0,1.39-.06,1.75.44,1.68,1.74C155.27,183.22,155.34,184.93,155.34,187Z"/><path d="M182,186.85c-.25,1.84,1,4.73-.52,6.17s-4.2.35-6.39.38c-4.37,0-4.37,0-4.37-4.4,0-2.54,0-5.08,0-7.62,0-1.24.41-1.61,1.61-1.58q4.06.1,8.13,0c1.2,0,1.66.33,1.59,1.56C182,183.05,182,184.75,182,186.85Z"/><path d="M199.46,245.94c-2.11,0-4.25-.15-6.34,0s-2.51-.68-2.49-2.59c.08-5.86,0-5.86,5.77-5.86,3.3,0,6.6.07,9.9,0,1.57-.05,2.19.3,2.2,2.06,0,6.38.1,6.38-6.24,6.38Z"/><path d="M102.34,187c-.19,1.79,1,4.62-.41,6s-4.19.38-6.37.42c-4.26.06-4.26,0-4.26-4.29,0-2.46,0-4.92,0-7.38,0-1.34.22-2,1.78-1.94,2.54.12,5.09.11,7.63,0,1.38-.06,1.77.41,1.69,1.73C102.26,183.21,102.34,184.91,102.34,187Z"/><path d="M219.54,203.74c-2.46,0-4.92-.08-7.37,0-1.49.07-1.79-.49-1.81-1.88-.12-6.5-.16-6.48,6.31-6.51,3.39,0,6.77-.06,10.16-.19,1.41-.06,1.86.37,1.9,1.84.18,6.71.23,6.7-6.39,6.7Z"/><path d="M159.79,203.74c-2.46,0-4.92-.05-7.38,0-1.22,0-1.66-.41-1.58-1.62s0-2.37,0-3.56c0-3.47,0-3.45,3.38-3.37,4.15.09,8.31.19,12.46.15,1.66,0,2.38.3,2.37,2.2,0,6.17.06,6.17-6.2,6.17Z"/><path d="M139.85,203.74c-2.37,0-4.74-.11-7.1,0-1.65.11-1.92-.53-1.94-2-.05-6.36-.1-6.34,6.19-6.37,3.38,0,6.76,0,10.14-.19,1.44-.06,1.86.42,1.91,1.85.22,6.7.27,6.69-6.41,6.69Z"/><path d="M119.93,203.74c-2.45,0-4.9-.05-7.35,0-1.23,0-1.63-.4-1.57-1.6.1-2.1-.64-4.68.33-6.19s3.73-.46,5.7-.56c3.37-.17,6.76-.1,10.13-.22,1.32,0,1.71.38,1.76,1.71.29,6.84.33,6.83-6.46,6.83Z"/><path d="M100.38,195.4c2.37,0,4.74,0,7.11,0,1.14,0,1.59.28,1.67,1.54.42,6.83.46,6.82-6.28,6.82-3.3,0-6.61-.07-9.91,0-1.47,0-1.82-.46-1.84-1.87-.14-6.69-.18-6.69,6.46-6.69h2.79Z"/><path d="M199.64,203.74c-2.46,0-4.92-.05-7.38,0-1.23,0-1.73-.42-1.58-1.62,0-.08,0-.17,0-.25.06-2-.58-4.5.37-6s3.61-.44,5.52-.53c3.38-.16,6.78-.09,10.17-.22,1.34,0,1.69.44,1.74,1.74.29,6.81.33,6.81-6.55,6.81Z"/><path d="M80.18,203.74c-2.2,0-4.42-.11-6.61,0-1.8.12-2.49-.27-2.46-2.3.09-6.18,0-6.16,6.11-6.09,3.39.05,6.79.07,10.18,0,1.4,0,1.87.35,1.91,1.83.18,6.54.23,6.53-6.33,6.53Z"/><path d="M75.52,186.85c-.25,1.84,1,4.72-.51,6.16s-4.2.36-6.38.39c-4.06.06-4.06,0-4.06-4.16,0-2.62.06-5.24,0-7.86,0-1.19.31-1.63,1.55-1.59,2.62.09,5.25.09,7.86,0,1.22,0,1.65.36,1.58,1.57C75.46,183.06,75.52,184.75,75.52,186.85Z"/><path d="M235,186.71c.13,6.7.13,6.7-6.56,6.7-4.34,0-4.34,0-4.34-4.43,0-2.54.06-5.09,0-7.63,0-1.24.4-1.66,1.6-1.54.84.07,1.7,0,2.54,0,2.26.13,5.29-1,6.57.48C235.85,181.55,235,184.51,235,186.71Z"/><path d="M208.33,186.7c-.13,2.16,1.13,4.94-.36,6.34-1.34,1.26-4.05.33-6.16.36-4.26,0-4.26,0-4.26-4.27,0-2.55.08-5.09,0-7.64-.06-1.36.4-1.84,1.72-1.69.76.09,1.53,0,2.29,0,2.26.14,5.28-1,6.57.48C209.19,181.55,208.33,184.5,208.33,186.7Z"/><path d="M72.08,227h.5c7,0,7,0,6.64,7-.06,1.28-.39,1.81-1.75,1.78-3.72-.07-7.45-.07-11.17,0-1.3,0-1.71-.37-1.77-1.71-.3-7.08-.34-7.08,6.78-7.08Z"/><path d="M227.89,235.73c-1.95,0-3.91,0-5.85,0-1.1,0-1.59-.36-1.46-1.46a1,1,0,0,0,0-.25c-.34-7.07-.34-7.07,6.77-7.07.59,0,1.19,0,1.78,0,1.91.16,4.66-.92,5.56.46,1.26,1.94.33,4.76.39,7.2,0,1.11-.81,1.1-1.6,1.1Z"/><path d="M72.1,214.38h-.91c-7.45,0-7.43,0-6.65-7.46.11-1,.42-1.3,1.37-1.29,3.89,0,7.79,0,11.68,0,1.21,0,1.73.43,1.6,1.63,0,.08,0,.16,0,.25-.12,2.18.95,5.11-.41,6.36C77.1,215.41,74.1,214.12,72.1,214.38Z"/><path d="M71.92,247.74c1.69,0,3.39.12,5.07,0,1.87-.17,2.23.61,2.23,2.32,0,6.47.07,6.47-6.43,6.47-.68,0-1.36,0-2,0-2-.15-4.86.94-5.78-.42-1.27-1.88-.29-4.74-.4-7.18-.06-1.13.67-1.16,1.5-1.15C68,247.76,70,247.74,71.92,247.74Z"/><path d="M228,205.64h1c6.55,0,7.17.79,6.14,7.5-.16,1-.6,1.25-1.49,1.24q-5.87,0-11.71,0c-1,0-1.44-.31-1.35-1.31,0-.17,0-.34,0-.51.17-2.26-1-5.46.48-6.54s4.55-.25,6.91-.25Z"/><path d="M227.73,256.5h-.51c-7.45,0-7.43,0-6.66-7.44.1-1,.36-1.34,1.34-1.33q5.86.06,11.71,0c1.09,0,1.58.41,1.49,1.49a2.26,2.26,0,0,0,0,.26C235.54,256.5,235.54,256.5,227.73,256.5Z"/><path d="M64.57,220.44v-1.52c0-2.55,1.53-3.56,4-2.72.82.28.69.85.7,1.4,0,1.69-.12,3.38,0,5.05.18,1.95-.41,2.62-2.46,2.54-1.7-.06-2.51-.39-2.25-2.22A17.79,17.79,0,0,0,64.57,220.44Z"/><path d="M69.22,199.69V201c0,2.72-1.14,3.51-3.84,2.81-.83-.21-.8-.71-.8-1.29,0-1.69.11-3.38,0-5.05s.48-2.23,2.24-2.27c2-.05,2.77.53,2.46,2.52A13.61,13.61,0,0,0,69.22,199.69Z"/><path d="M64.57,241.59v-1.27c0-2.61,1.48-3.61,4-2.78.83.28.69.85.7,1.41,0,1.78-.08,3.57,0,5.35.09,1.42-.55,1.58-1.78,1.69-2.28.21-3.34-.47-2.91-2.87A9.76,9.76,0,0,0,64.57,241.59Z"/><path d="M230.55,220.37a13.05,13.05,0,0,0,0-1.77c-.25-1.84.38-2.47,2.34-2.49s2.39.87,2.26,2.58a22.83,22.83,0,0,0,0,4.05c.19,1.85-.4,2.44-2.35,2.46s-2.44-.84-2.26-2.55A21.65,21.65,0,0,0,230.55,220.37Z"/><path d="M235.11,199.67v1.52c0,2.32-1.75,3.42-3.91,2.53-.75-.31-.63-.9-.64-1.46a32.57,32.57,0,0,0-.05-4.31c-.39-2.62,1-2.87,3.06-2.77,1.27.07,1.6.58,1.55,1.71C235.07,197.81,235.11,198.74,235.11,199.67Z"/><path d="M235.11,241.66a17.4,17.4,0,0,0,0,1.77c.17,1.67-.11,2.56-2.22,2.6s-2.51-.95-2.37-2.71a12.79,12.79,0,0,0,0-3c-.41-2.53.87-2.95,3-2.8,1.21.08,1.67.47,1.6,1.65C235.07,240,235.11,240.82,235.11,241.66Z"/><path class="cls-1" d="M149.93,3.34H267.35c3.25,0,3.25,0,3.25,3.24q0,50.34,0,100.68c0,2.49-.51,3.53-3.23,3.55a37.28,37.28,0,0,0-13.14,2.73c-9.13,3.52-18.18,3.29-27.36.25a66.88,66.88,0,0,0-12.6-3c-5.64-.72-11.1.27-16.52,1.7-.73.19-1.46.34-2.17.6a46.11,46.11,0,0,1-33.17-.2c-8.57-3.23-17.29-3-25.94,0-1.74.58-3.53,1-5.27,1.56a35.22,35.22,0,0,1-22.32,0c-2.7-.85-5.47-1.44-8.18-2.25a39.34,39.34,0,0,0-22.87.25c-4.15,1.21-8.34,2.33-12.55,3.29-6.84,1.58-13.37-.15-19.86-2.16-4.61-1.44-9.26-2.75-14.14-2.84-1.71,0-2-.88-2-2.37.06-7.67,0-15.33,0-23q0-39.23,0-78.45c0-4-.39-3.54,3.67-3.54Z"/><path class="cls-1" d="M270.6,173.29c.33,24.4-5.8,47.86-19.86,68.93-19.2,28.74-45.92,46.38-80,52.46-26.86,4.81-52.68,1-76.76-11.92-34.37-18.37-55.14-47-62.72-85.26-2.12-10.68-2-21.52-2-32.35,0-1.88.91-2,2.34-1.86A59.44,59.44,0,0,1,46,166.48a41.32,41.32,0,0,0,27.2.11c3.47-1.13,7-2,10.62-2.79,6-1.33,11.9-.3,17.74,1.31,5,1.39,10,3,15.28,3.66,7,.81,13.59-1.06,20.05-3.26a38.92,38.92,0,0,1,25.7.1c6.57,2.2,13.26,4,20.32,3.12a98.23,98.23,0,0,0,15.53-3.68,40.09,40.09,0,0,1,23.61.07,88.66,88.66,0,0,0,15,3.64c7,.87,13.52-1.24,20-3.3a67.25,67.25,0,0,1,10.51-2.12c2.13-.32,3.32,0,3.06,2.62C270.43,168.1,270.6,170.29,270.6,173.29Z"/><path class="cls-2" d="M29.34,136.91c0-7.42.05-14.83,0-22.24,0-1.67.44-2.11,2.11-2A40.27,40.27,0,0,1,43.13,115c11,4.25,21.93,4.08,32.91.11,9.39-3.4,18.73-3.09,28.13,0a100.36,100.36,0,0,0,10.14,2.58c7.64,1.7,14.92-.3,22-2.73a39.75,39.75,0,0,1,26.41,0,96.91,96.91,0,0,0,10.36,2.75c6.63,1.45,13,0,19.44-1.7,6.73-1.84,13.41-4,20.56-3.33a48.82,48.82,0,0,1,11.42,2.55c10.69,3.74,21.27,4,31.93-.2a40.35,40.35,0,0,1,12.2-2.39c1.59-.1,2,.41,2,1.93q-.08,22.36,0,44.73c0,1.3-.23,1.91-1.75,1.95A51.67,51.67,0,0,0,253,164.56a37.45,37.45,0,0,1-24.23.4c-6.74-2.05-13.5-4.27-20.75-3.74a76.14,76.14,0,0,0-16.77,3.69,40.37,40.37,0,0,1-25-.27c-3.47-1.13-7-2-10.58-2.85-6.46-1.47-12.73-.22-18.93,1.61-3.35,1-6.7,2-10.09,2.79-6.1,1.46-12.06.46-18-1.19-4.08-1.14-8.17-2.28-12.3-3.19-6.7-1.49-13.23-.28-19.7,1.57-3.43,1-6.86,2-10.34,2.79a34,34,0,0,1-18-1.13c-5.8-1.81-11.61-3.61-17.75-3.79-1.7-.05-1.26-1.21-1.26-2.1C29.33,151.73,29.34,144.32,29.34,136.91Z"/><path d="M134.56,64.83c-2.95-2.38-3.06-4-.52-7.33-2.31-2.32-2.37-2.69-.33-5,1.12-1.3,0-2.17-.54-3-.7-1.06-1.75-2.07-3.11-1.51s-.75,1.83-.51,2.86c.54,2.35,1.3,4.65,1.19,7.11A8.32,8.32,0,0,1,121,65.76c-3.23-.57-5-3.24-5.22-7.7,1-.43,2.08,1.52,2.82.2s0-2.77-1-3.84c-1.67-1.7-3.89-2.52-5.92-3.66-6.79-3.81-9.78-10.27-8.07-17.39,2.65-11,15.83-15.08,25.2-7.86a37.94,37.94,0,0,1,8.08,9.11,7.45,7.45,0,0,0,1.9,2.11c-.35-2.56-.55-5.14-1.07-7.66-1.51-7.32,1.16-13.16,6.54-17.8,6.54-5.64,4.53-5.63,11.22,0s7.91,12.74,6.12,20.81c-.37,1.7-.58,3.44-.87,5.16-.13.49-.1.8.53.52,2.76-4.46,5.68-8.79,9.88-12.1,9.3-7.33,22.5-3.46,25.31,7.46a15,15,0,0,1-6.3,16.57c-1.59,1.05-3.33,1.88-5,2.82a9.75,9.75,0,0,0-2.79,2.07c-.92,1.07-1.6,2.43-.9,3.65s1.83-.51,2.82-.2c-.09,4.94-2.35,7.71-6.38,7.82a8.27,8.27,0,0,1-8.55-7.41c-.26-2.54.51-4.93,1.08-7.36.25-1.09,1-2.41-.32-3.14s-2.29.23-3,1.18-2.07,2.13-.62,3.65c1.24,1.29,1.36,2.73-.06,3.89-.84.69-.64.92-.07,1.66,2,2.62,1.48,4.84-1.41,6.5-.77,1.14-1.92,1.06-3.07,1a3,3,0,0,1-.91-.37,1.64,1.64,0,0,0-1.73-.19,11.62,11.62,0,0,1-1.64.53,9.82,9.82,0,0,1-2.54-.07c-1.16-.63-2.32-1-3.52-.09a7,7,0,0,1-2.58.15,10.09,10.09,0,0,1-1-.29c-.78-.41-1.55-1-2.42-.14a7.37,7.37,0,0,1-1,.33,3.92,3.92,0,0,1-2,.06,10.77,10.77,0,0,1-1.91-.58,2.59,2.59,0,0,0-1.93.14,8.62,8.62,0,0,1-2.24.48A2.37,2.37,0,0,1,134.56,64.83Z"/><path class="cls-3" d="M154.54,64.82h3.29c1.27.36,2.69-.61,3.88.46,1-.7,2.17-.09,3.21-.45,3.12,1.6,3.28,2.74.59,5.14-.8.71-.33,1.18,0,1.68a14.89,14.89,0,0,0,3.55,3.49,39.94,39.94,0,0,1,6.25,5.36,10.2,10.2,0,0,1,0,14.05c-3.95,4.45-9.15,5.21-13.74,1.46-2.22-1.81-2.75-1.09-4,.83-2.07,3.08-5,5.56-6.2,9.27-.54,1.64-2.18,1.61-3,.06-1.09-2-1.75-4.33-3.48-6a25.47,25.47,0,0,1-4.3-5.6c-.67.53-1.25,1-1.84,1.43-4.82,3.56-9.84,3.08-13.83-1.31a10.32,10.32,0,0,1-.08-14.26c2.14-2.37,4.8-4.1,7.23-6.13a20.64,20.64,0,0,0,2.56-2.72c.43-.52.61-1-.25-1.57-2.93-2-2.82-3.35.25-5.16l2.2,0c2,.08,4,.07,6,0a1.7,1.7,0,0,0,1.55,0c1.47,0,2.93,0,4.39,0h3A9.13,9.13,0,0,1,154.54,64.82Z"/><path class="cls-4" d="M161.21,37.76c-.15.44-.39,1.21-.76,1s-.1-1,.23-1.49Z"/><path d="M149.77,256.24c-27.49,0-55,0-82.46.06-2.39,0-3.06-.59-3-3q.13-36.48,0-73c0-2.42.66-3.19,3.06-3,3.15.2,6.33.11,9.49,0,1.52,0,2.06.48,2,2-.08,3.66,0,7.33,0,11,0,1.5.46,2.1,2,2.05,2.58-.09,5.16-.1,7.74,0,1.62.06,2.22-.49,2.18-2.14-.09-3.58,0-7.16,0-10.74,0-1.62.49-2.22,2.14-2.18,3.41.1,6.83.09,10.24,0,1.64,0,2.2.57,2.16,2.18-.08,3.5.07,7-.06,10.5-.07,1.91.63,2.48,2.45,2.37a58.73,58.73,0,0,1,6.5,0c1.72.09,2.36-.5,2.31-2.27-.11-3.49,0-7-.06-10.49,0-1.75.58-2.35,2.31-2.3,3.41.1,6.83.1,10.24,0,1.72-.05,2.38.52,2.32,2.29-.1,3.58,0,7.16-.05,10.74,0,1.52.51,2.08,2,2q3.74-.13,7.49,0c1.56,0,2-.6,2-2.07-.07-3.5.09-7-.06-10.49-.09-2.05.68-2.59,2.59-2.51,3.08.14,6.17.14,9.24,0,2-.09,2.85.5,2.75,2.65-.16,3.4,0,6.83-.07,10.24,0,1.6.48,2.25,2.14,2.18,2.41-.1,4.83-.11,7.24,0,1.69.08,2.16-.63,2.12-2.2-.08-3.5,0-7-.05-10.49,0-1.66.4-2.43,2.23-2.37,3.49.11,7,.09,10.49,0,1.53,0,2,.53,2,2-.07,3.66,0,7.33,0,11,0,1.52.5,2.08,2,2q3.75-.13,7.49,0c1.52,0,2.06-.49,2-2-.08-3.66,0-7.33,0-11,0-1.49.42-2.08,2-2,3.49.08,7,.09,10.49,0,1.69-.05,2.12.63,2.08,2.2-.1,3.58,0,7.17-.06,10.75,0,1.66.57,2.18,2.17,2.11,2.5-.1,5-.08,7.49,0,1.4,0,1.92-.47,1.89-1.88-.06-3.75,0-7.5,0-11.24,0-1.38.42-2,1.85-1.92,3.58.07,7.17.08,10.75,0,1.55,0,2,.57,2,2.05-.07,4.75,0,9.5,0,14.24q0,29.49,0,59c0,4.08.44,3.66-3.54,3.66Z"/><path class="cls-5" d="M149.86,52.23c-5.33,0-5.33,0-6.69-5.27-1.49-5.8-2.61-11.67-3.65-17.57-1.24-7,.9-12.45,6.1-16.93,5-4.29,3.46-4.05,8.29-.12,6.62,5.39,7.34,12.38,5.73,20.14-1.15,5.54-2.43,11-3.7,16.55-.6,2.64-1.72,3.68-4.33,3.21A10.22,10.22,0,0,0,149.86,52.23Z"/><path class="cls-5" d="M179.37,59c-2.92-1-3.91-2.77-3.35-5.67a10.31,10.31,0,0,1,2.65-4.73c1.79-2.08,3.69-4.07,5.39-6.22,2.05-2.62,2.7-5.6.95-8.6s-4.9-3.51-8.08-3.26c-4.52.36-7.63,3-10,6.63a48.83,48.83,0,0,0-5.71,13.22c-.25.8-.23,1.83-1.58,1.87-1.55,0-2.49.09-1.74-2,2.75-7.65,6.07-14.94,11.85-20.85,4.36-4.45,9.47-6.77,15.76-5.06,4.9,1.34,8.19,4.56,9.16,9.55,1,5.28,0,10.1-4.6,13.62a53.88,53.88,0,0,1-6.23,3.64C180.87,52.8,178.9,55.08,179.37,59Z"/><path class="cls-5" d="M120.66,59c.49-4.05-1.61-6.33-4.65-8-1.45-.81-3-1.53-4.37-2.41-6.38-4-8.52-11.65-5.07-18,3.31-6.11,11.05-8.52,17.78-5.52,3.6,1.61,6.24,4.37,8.65,7.4a53.8,53.8,0,0,1,9,17.7c.22.68,1,1.69-.2,2-1,.26-2.3.55-2.77-1.18a54.93,54.93,0,0,0-3.82-10.27A21.09,21.09,0,0,0,129.34,33a11.57,11.57,0,0,0-9.64-2.28,6.64,6.64,0,0,0-4.9,9.73,21,21,0,0,0,3.71,5c1.78,2,3.78,3.79,4.94,6.25C125,55,124,57.9,120.66,59Z"/><path class="cls-5" d="M181.86,60.83c-.87,2.83-2.76,3.39-5,3.19a6.36,6.36,0,0,1-5.62-5.21,12,12,0,0,1,.22-4.46c.23-.89.47-1.77.68-2.66.52-2.13,1.19-4.37-1.41-5.65-1.82-.9-4.62.57-5.93,3-.56,1-1,2.15-1.43,3.28-.34-.25-.46-.31-.45-.34,1.5-6.81,3.69-13.29,9.37-17.86a8.81,8.81,0,0,1,8-1.51,4.71,4.71,0,0,1,3.32,6.79,17.52,17.52,0,0,1-3.54,4.79,33.26,33.26,0,0,0-4.87,6,8,8,0,0,0-.24,8.1C176.41,60.78,178.85,61.27,181.86,60.83Z"/><path class="cls-5" d="M137.07,52c-1.14-.38-1.07-1.29-1.39-2a6.8,6.8,0,0,0-3-3.53c-1.3-.69-2.7-1.08-4-.09a3.5,3.5,0,0,0-1.14,3.83c.59,2.67,1.54,5.27,1.3,8.08A6.41,6.41,0,0,1,121.45,64a3.53,3.53,0,0,1-3.13-2.72c.15-.13.26-.31.37-.31,6,.16,9.07-4.52,6.46-10-1.23-2.6-3.29-4.58-5.21-6.66a19.68,19.68,0,0,1-3.33-4.33c-1.78-3.53-.17-6.8,3.72-7.48a8.84,8.84,0,0,1,6.5,1.13C133.51,37.92,135,45.15,137.07,52Z"/><path class="cls-6" d="M150,55.41c-4.57,0-9.13,0-13.7,0-.72,0-2,.47-2-.73,0-.9,1.15-.7,1.86-.7q13.69,0,27.39,0c.71,0,1.88-.17,1.87.7,0,1.2-1.27.73-2,.74C159,55.44,154.49,55.41,150,55.41Z"/><path class="cls-7" d="M163.29,58.86c1.4.17,2.33.85,2.37,2.2a2.2,2.2,0,0,1-4.4.15C161.18,59.78,162.13,59.17,163.29,58.86Z"/><path class="cls-7" d="M152.25,61c-.21,1.42-.87,2.3-2.27,2.29a2,2,0,0,1-2.21-2.18A2.06,2.06,0,0,1,150,58.92,2.27,2.27,0,0,1,152.25,61Z"/><path class="cls-7" d="M138.6,61.16c-.22,1.26-.83,2.18-2.26,2.16a2.2,2.2,0,0,1,0-4.4C137.7,58.92,138.42,59.83,138.6,61.16Z"/><path class="cls-7" d="M157,63.33c-1.68,0-2.5-.77-2.58-2.08a2.06,2.06,0,0,1,2.08-2.32A2,2,0,0,1,158.82,61,2.07,2.07,0,0,1,157,63.33Z"/><path class="cls-7" d="M143,58.86c1.32.19,2.25.79,2.27,2.2a2,2,0,0,1-2.11,2.25,2,2,0,0,1-2.27-2.11C140.86,59.85,141.78,59.14,143,58.86Z"/><path class="cls-8" d="M142.75,64.79a7.78,7.78,0,0,1-6,0l2-.51a4.18,4.18,0,0,0,2,0Z"/><path class="cls-9" d="M154.54,64.82a2.87,2.87,0,0,1-2.81,0C152.68,64,153.62,63.44,154.54,64.82Z"/><path class="cls-10" d="M138.68,57.46a3.92,3.92,0,0,1,2.18-.13C139.76,58.69,139.76,58.69,138.68,57.46Z"/><path class="cls-11" d="M145,57.53a3.55,3.55,0,0,1,2.66-.05,3.67,3.67,0,0,1-.53.74C146.09,59.09,145.87,58,145,57.53Z"/><path class="cls-12" d="M159,57.35h2.11c0,.17.09.35,0,.43C160.38,58.58,159.69,58.93,159,57.35Z"/><path class="cls-13" d="M152,57.33h2.18c0,.2.11.38.05.47C153.5,58.89,152.87,58.45,152,57.33Z"/><path class="cls-10" d="M145.27,64.79c.84-1.45,1.68-1.46,2.53,0A2.92,2.92,0,0,1,145.27,64.79Z"/><path class="cls-14" d="M145.27,64.79h2.53l.9,0a4.61,4.61,0,0,1-4.4,0Z"/><path class="cls-15" d="M161.71,65.27c-1.3-.14-2.68.42-3.88-.46l1.39-.54c.63.33,1.47-.13,2,.52Z"/><path class="cls-16" d="M140.74,64.29c-.67.85-1.33.85-2,0A1.46,1.46,0,0,1,140.74,64.29Z"/><path class="cls-12" d="M161.24,64.79c-.7-.06-1.49.2-2-.52C160.14,63.47,160.74,63.93,161.24,64.79Z"/><path class="cls-5" d="M149.79,104.61c-1.07-3.18-3.28-5.34-5.34-7.6-2.67-2.93-3.25-6.48-3-10.23A87.53,87.53,0,0,1,143.87,72c.3-1.29.78-2,2.31-1.91,2.49.14,5,.09,7.48,0a1.63,1.63,0,0,1,1.93,1.43A80.53,80.53,0,0,1,158.19,88a12.71,12.71,0,0,1-3.71,9.73A19.36,19.36,0,0,0,149.79,104.61Z"/><path class="cls-5" d="M160.71,92.78c2.74.47,4.92.25,6-2.28s.18-4.69-1.54-6.59a18.29,18.29,0,0,0-2.71-2.57c-3.34-2.47-4.45-6-5.07-9.88-.06-.38-.29-.77.13-1.12.81-.69,5.18,0,5.63.93,1.09,2.35,3,3.93,4.95,5.5a64.1,64.1,0,0,1,5.16,4.29c4,3.93,3.91,9.17-.05,13C169.5,97.62,165.08,97.29,160.71,92.78Z"/><path class="cls-5" d="M139.33,92.78c-4.45,4.53-8.84,4.83-12.59,1.21-3.94-3.8-4-9,0-13A78.94,78.94,0,0,1,132.92,76a14.24,14.24,0,0,0,3.74-4.29c.66-1.23,3.94-2.12,5.16-1.43.73.41.33,1,.27,1.52-.55,4.45-2.22,8.28-6.05,10.93a6.51,6.51,0,0,0-1.07,1c-1.76,2-2.87,4.14-1.68,6.8C134.41,93,136.6,93.26,139.33,92.78Z"/><path class="cls-5" d="M149.87,68.27c-4.66,0-9.33,0-14,0-.61,0-1.58.25-1.58-.69s.95-.73,1.58-.73q14,0,28,0c.66,0,1.6-.09,1.6.73s-1,.7-1.6.7Z"/><path class="cls-17" d="M160.27,81.73c1.52,1.5,3.34,2.73,4.45,4.6a3.32,3.32,0,0,1,0,4c-.89,1.16-2.12,1-3.39.66A1.51,1.51,0,0,1,160,89.22c0-2.13-.19-4.27-.3-6.41C159.45,82.22,159.37,81.71,160.27,81.73Z"/><path class="cls-18" d="M139.66,81.84c0,2.55-.12,4.7,0,6.83.13,1.71-.55,2.47-2.16,2.51a2.44,2.44,0,0,1-2.79-2.48c-.16-1.74.79-3,1.94-4.1C137.61,83.7,138.58,82.83,139.66,81.84Z"/><path class="cls-19" d="M160.27,81.73c-.19.36-.39.72-.59,1.08-.32-.46-.65-1-.25-1.47S160.07,81.4,160.27,81.73Z"/><path class="cls-20" d="M218.15,223.66c-2.33,0-4.65-.08-7,0-1.45.07-2.15-.24-2-1.88.22-2.21-.88-5,.44-6.48s4.08-.36,6.21-.41c3.15-.07,6.3,0,9.45,0,1.31,0,1.87.27,1.92,1.76.22,7,.27,7-6.83,7Z"/><path class="cls-20" d="M159.75,223.66c-2.49,0-5,0-7.48,0-1.06,0-1.5-.33-1.46-1.43.06-1.91.09-3.82,0-5.73-.08-1.42.61-1.63,1.8-1.62,4.73,0,9.47.05,14.2,0,1.39,0,1.83.41,1.87,1.83.2,6.95.25,6.95-6.68,6.95Z"/><path class="cls-20" d="M140,214.9c2.32,0,4.66.11,7,0,1.71-.11,2.06.57,2.08,2.15.06,6.64.1,6.64-6.5,6.64-3.16,0-6.33,0-9.48,0-1.33,0-1.87-.24-1.91-1.75-.21-7-.26-7,6.83-7Z"/><path class="cls-20" d="M149.75,234.06c-2.33,0-4.66-.06-7,0-1.35,0-1.86-.34-1.91-1.8-.23-6.81-.28-6.81,6.61-6.81,3.24,0,6.49,0,9.73,0,1.16,0,1.54.32,1.6,1.54.36,7.07.4,7.07-6.54,7.07Z"/><path class="cls-20" d="M91.33,225.47c2.4,0,4.81.05,7.21,0,1.24,0,1.69.3,1.75,1.65.27,7,.31,7-6.63,7-3.15,0-6.3-.05-9.45,0-1.35,0-1.85-.33-1.9-1.8-.21-6.82-.26-6.82,6.53-6.82Z"/><path class="cls-20" d="M179.16,223.66c-2.25,0-4.49-.07-6.73,0-1.42.06-2-.25-2.07-1.88-.16-6.91-.22-6.91,6.77-6.91,3,0,6,.06,9,0,1.43,0,2.17.26,2,1.9a39.69,39.69,0,0,0,0,5.23c.07,1.36-.5,1.71-1.75,1.67C184,223.61,181.57,223.66,179.16,223.66Z"/><path class="cls-20" d="M208.41,234.06c-2.34,0-4.67-.06-7,0-1.26,0-1.69-.32-1.75-1.66-.29-6.95-.34-6.95,6.67-6.95,3,0,6,.06,9,0,1.46-.05,2,.3,2,1.91.1,6.71.16,6.71-6.45,6.71Z"/><path class="cls-20" d="M189.11,234.06c-2.42,0-4.83-.06-7.24,0-1.33,0-1.64-.44-1.69-1.72-.26-6.9-.3-6.9,6.45-6.9,3.17,0,6.33.05,9.49,0,1.31,0,1.65.42,1.7,1.71.25,6.91.29,6.91-6.47,6.91Z"/><path class="cls-20" d="M169.41,225.47c2.4,0,4.81.06,7.21,0,1.29,0,1.67.38,1.72,1.69.26,6.92.3,6.92-6.67,6.92-3.15,0-6.31,0-9.46,0-1.18,0-1.52-.39-1.59-1.57-.43-7-.46-7,6.55-7Z"/><path class="cls-20" d="M81.7,214.9c2.24,0,4.48.07,6.72,0,1.42-.06,2,.26,2.07,1.88.17,6.9.23,6.9-6.71,6.9-3.07,0-6.14,0-9.21,0-1.31,0-1.87-.23-1.92-1.73-.22-7-.28-7,6.81-7Z"/><path class="cls-20" d="M101,223.66c-2.24,0-4.48-.08-6.72,0-1.44.06-2-.26-2-1.89-.1-6.9-.16-6.9,6.7-6.9,3,0,6,.06,9,0,1.44,0,2,.31,2,1.9.15,6.88.21,6.88-6.72,6.88Z"/><path class="cls-20" d="M120.5,223.66c-2.33,0-4.66,0-7,0-1.23,0-1.71-.25-1.76-1.63-.3-7.15-.34-7.15,6.72-7.15,2.92,0,5.83.07,8.74,0,1.54-.05,2.29.28,2.13,2-.19,2.14.65,4.93-.42,6.27s-4,.33-6.18.47C122,223.7,121.25,223.66,120.5,223.66Z"/><path class="cls-20" d="M110.9,234.06c-2.33,0-4.66-.07-7,0-1.45.06-2-.48-1.81-1.87a2.08,2.08,0,0,0,0-.25c-.14-6.5-.14-6.5,6.36-6.5,3.16,0,6.33.06,9.49,0,1.43,0,1.78.48,1.8,1.86.14,6.76.19,6.76-6.61,6.76Z"/><path class="cls-20" d="M130.09,234.06c-2.16,0-4.32-.07-6.48,0-1.44.06-2-.29-2.07-1.9-.16-6.72-.22-6.72,6.45-6.72,3.08,0,6.16,0,9.24,0,1.3,0,1.89.24,1.94,1.76.23,6.85.28,6.85-6.58,6.85Z"/><path class="cls-20" d="M198.56,223.66c-2.33,0-4.65-.06-7,0-1.3,0-1.67-.4-1.73-1.7-.32-7.08-.36-7.08,6.58-7.08,3,0,6,.08,9,0,1.57-.06,1.93.49,1.95,2,.1,6.8.15,6.8-6.55,6.8Z"/><path class="cls-20" d="M91.56,245.85c2.41,0,4.83,0,7.24,0,1.06,0,1.57.33,1.45,1.43a2.78,2.78,0,0,0,0,.5c.18,6.67.18,6.67-6.42,6.67-3.25,0-6.5,0-9.75,0-1.25,0-1.7-.34-1.76-1.68-.32-6.93-.36-6.93,6.49-6.93Z"/><path class="cls-20" d="M218.2,244.08c-2.33,0-4.66-.08-7,0-1.43.06-2-.23-2-1.87-.08-6.4-.15-6.4,6.23-6.4,3.25,0,6.49,0,9.74,0,1.4,0,2,.2,2.07,1.87.11,6.4.17,6.4-6.26,6.4Z"/><path class="cls-2" d="M91.32,213.13c-2.41,0-4.83-.06-7.24,0-1.26,0-1.7-.33-1.76-1.68-.3-6.91-.35-6.91,6.49-6.91,3.25,0,6.5,0,9.74,0,1.27,0,1.68.34,1.73,1.68.26,6.92.3,6.92-6.46,6.92Z"/><path class="cls-20" d="M150,245.84c2.33,0,4.66.09,7,0,1.45-.07,1.88.46,1.79,1.85-.15,2.14.65,4.92-.41,6.28s-4,.41-6.15.46c-3.16.08-6.33,0-9.48,0-1.39,0-1.84-.41-1.88-1.84-.21-6.77-.26-6.77,6.39-6.77Z"/><path class="cls-2" d="M150.11,213.13c-2.5,0-5-.06-7.49,0-1.27,0-1.7-.36-1.76-1.68-.34-6.91-.38-6.91,6.5-6.91,3.25,0,6.49.05,9.73,0,1.31,0,1.65.38,1.7,1.68.23,6.92.27,6.92-6.69,6.92Z"/><path class="cls-20" d="M140.23,235.83c2.41,0,4.82,0,7.22,0,1.21,0,1.53.43,1.61,1.58.47,6.69.5,6.69-6.22,6.69-3.24,0-6.48-.09-9.72,0-1.57.06-1.92-.48-1.94-2-.07-6.3-.12-6.3,6.06-6.3Z"/><path class="cls-20" d="M159.52,235.83c2.32,0,4.65.08,7,0,1.53-.07,2.18.26,2.19,2,0,6.27.12,6.27-6.13,6.27-3.24,0-6.48-.06-9.71,0-1.42,0-2-.25-2.06-1.89-.11-6.38-.17-6.38,6.25-6.38Z"/><path class="cls-20" d="M179.35,235.83c2.32,0,4.65.07,7,0,1.45-.06,1.79.5,1.83,1.87.17,6.41.22,6.41-6.23,6.41-3.16,0-6.32-.09-9.47,0-1.68.07-2.07-.53-2.09-2.13,0-6.15-.09-6.15,6-6.15Z"/><path class="cls-20" d="M179.2,194.52c2.41,0,4.82,0,7.23,0,1.3,0,1.66.45,1.72,1.73.27,6.47.31,6.47-6.16,6.47-3.25,0-6.49-.06-9.74,0-1.37,0-1.84-.34-1.88-1.79-.2-6.6-.25-6.6,6.33-6.6h2.5Z"/><path class="cls-2" d="M189.17,204.56c2.33,0,4.66.07,7,0,1.35-.06,1.62.46,1.66,1.72.21,6.88.25,6.88-6.5,6.88-3.08,0-6.16-.06-9.24,0-1.32,0-2-.22-1.9-1.75a36.66,36.66,0,0,0,0-5.24c-.08-1.39.52-1.66,1.75-1.62C184.34,204.61,186.75,204.56,189.17,204.56Z"/><path class="cls-2" d="M208.65,245.85c2.4,0,4.81,0,7.21,0,1.06,0,1.56.35,1.45,1.43a1,1,0,0,0,0,.25c.37,6.92.37,6.92-6.61,6.92-3.15,0-6.3,0-9.45,0-1.15,0-1.64-.29-1.58-1.53a47.53,47.53,0,0,0,0-5.47c-.08-1.4.54-1.66,1.77-1.63C203.84,245.9,206.24,245.85,208.65,245.85Z"/><path class="cls-20" d="M81.74,235.83c2.33,0,4.66.06,7,0,1.29-.05,1.69.39,1.75,1.7.33,6.57.37,6.57-6.11,6.57-3.33,0-6.66-.05-10,0-1.3,0-1.66-.41-1.72-1.71-.27-6.56-.31-6.56,6.33-6.56Z"/><path class="cls-20" d="M101.11,244.08c-2.41,0-4.83-.05-7.24,0-1.18,0-1.53-.37-1.6-1.56-.38-6.7-.41-6.7,6.19-6.7,3.25,0,6.5,0,9.74,0,1.29,0,1.69.39,1.75,1.69.32,6.58.36,6.58-6.09,6.58Z"/><path class="cls-2" d="M208.31,213.13a47.74,47.74,0,0,0-5.74,0c-2.55.32-3-.72-2.93-3,.17-5.58.05-5.58,5.54-5.58,3.34,0,6.67.11,10-.05,1.82-.08,2.33.55,2.15,2.26a17.32,17.32,0,0,0,0,3.74c.24,2-.35,2.86-2.53,2.66S210.47,213.13,208.31,213.13Z"/><path class="cls-20" d="M120.55,244.08c-2.41,0-4.82-.05-7.23,0-1.21,0-1.5-.43-1.57-1.59-.34-6.68-.38-6.68,6.18-6.68,3.16,0,6.32.08,9.47,0,1.57-.06,1.93.47,1.95,2,.07,6.31.12,6.31-6.06,6.31Z"/><path class="cls-2" d="M111,254.43c-2.41,0-4.82-.07-7.23,0-1.33.05-1.65-.43-1.7-1.71-.26-6.9-.29-6.9,6.52-6.9,3.07,0,6.15.09,9.23,0,1.58-.06,2,.5,1.92,2a30,30,0,0,0,0,4.74c.14,1.62-.55,2-2,1.91C115.51,254.35,113.26,254.43,111,254.43Z"/><path class="cls-2" d="M111,213.13c-2.33,0-4.66-.1-7,0-1.59.08-2-.52-1.94-2a28.85,28.85,0,0,0,0-4.74c-.15-1.65.59-1.91,2-1.89,4.58.08,9.15.09,13.73,0,1.55,0,1.92.48,1.94,2,.06,6.63.11,6.63-6.51,6.63Z"/><path class="cls-2" d="M169.64,245.85c2.41,0,4.81,0,7.22,0,1.07,0,1.55.35,1.44,1.43a2.09,2.09,0,0,0,0,.25c.36,6.92.36,6.92-6.61,6.92-3.16,0-6.31,0-9.46,0-1.15,0-1.66-.29-1.6-1.53a52.72,52.72,0,0,0,0-5.48c-.08-1.4.58-1.65,1.79-1.61C164.82,245.89,167.23,245.85,169.64,245.85Z"/><path class="cls-2" d="M188.87,254.43c-2.42,0-4.83,0-7.25,0-1.07,0-1.55-.35-1.41-1.43a1,1,0,0,0,0-.25c-.31-6.93-.31-6.93,6.67-6.93,3.08,0,6.16.06,9.23,0,1.33,0,1.66.43,1.71,1.71.27,6.9.31,6.9-6.46,6.9Z"/><path class="cls-2" d="M169.33,213.13c-2.32,0-4.65-.06-7,0-1.28,0-1.68-.36-1.74-1.67-.32-6.92-.36-6.92,6.4-6.92,3.15,0,6.31.06,9.46,0,1.36,0,2,.3,1.85,1.77a31.84,31.84,0,0,0,0,5c.14,1.65-.6,1.94-2,1.87C174,213.05,171.65,213.13,169.33,213.13Z"/><path class="cls-2" d="M130.36,213.13c-2.25,0-4.5-.11-6.74,0-1.71.11-2.06-.55-2.07-2.13,0-6.47-.1-6.47,6.4-6.47,3.17,0,6.33,0,9.49,0,1.31,0,1.66.44,1.72,1.73.29,6.86.33,6.86-6.55,6.86Z"/><path class="cls-2" d="M129.1,185.83c0,2.15.84,5-.22,6.25-1.26,1.45-4.21.43-6.43.47-4.18.08-4.18,0-4.18-4.13,0-2.5.06-5,0-7.48,0-1.23.22-1.79,1.62-1.73,2.57.11,5.15.09,7.72,0,1.26-.05,1.81.25,1.71,1.63-.12,1.65,0,3.32,0,5Z"/><path class="cls-20" d="M130.5,254.43c-2.41,0-4.83-.06-7.24,0-1.31.05-1.66-.41-1.71-1.7-.27-6.91-.31-6.91,6.51-6.91,3.08,0,6.16.06,9.24,0,1.41,0,1.82.43,1.86,1.84.2,6.77.25,6.77-6.41,6.77Z"/><path class="cls-20" d="M155.24,186.3c-.21,1.75.94,4.52-.42,5.85s-4.12.37-6.26.4c-4.17.07-4.17,0-4.17-4.22,0-2.41.07-4.82,0-7.24-.05-1.34.25-2,1.76-1.88,2.49.12,5,.11,7.49,0,1.37-.06,1.72.44,1.64,1.71C155.16,182.58,155.24,184.25,155.24,186.3Z"/><path class="cls-2" d="M181.4,186.14c-.25,1.8,1,4.63-.51,6s-4.12.35-6.27.38c-4.29.05-4.29,0-4.29-4.32,0-2.49.06-5,0-7.47,0-1.22.4-1.58,1.57-1.55q4,.1,8,0c1.18,0,1.62.32,1.56,1.54C181.33,182.41,181.4,184.08,181.4,186.14Z"/><path class="cls-20" d="M198.5,244.08c-2.07,0-4.16-.16-6.22,0s-2.46-.68-2.44-2.54c.08-5.75,0-5.75,5.65-5.75,3.24,0,6.48.07,9.71,0,1.55-.05,2.15.29,2.16,2,0,6.26.1,6.26-6.12,6.26Z"/><path class="cls-20" d="M103.27,186.28c-.19,1.75.92,4.53-.4,5.87s-4.11.37-6.25.4c-4.18.07-4.18,0-4.18-4.2,0-2.41,0-4.83,0-7.24,0-1.31.21-2,1.75-1.9,2.49.12,5,.11,7.48,0,1.35-.06,1.73.41,1.65,1.69C103.19,182.56,103.27,184.23,103.27,186.28Z"/><path class="cls-2" d="M218.19,202.7c-2.41,0-4.82-.08-7.23,0-1.46.07-1.75-.48-1.78-1.84-.11-6.37-.15-6.35,6.2-6.38,3.32,0,6.64-.06,10-.19,1.39,0,1.83.37,1.87,1.81.18,6.57.23,6.57-6.27,6.57Z"/><path class="cls-2" d="M159.6,202.7c-2.41,0-4.82,0-7.23,0-1.21,0-1.64-.4-1.56-1.58s0-2.33,0-3.49c0-3.41,0-3.38,3.31-3.31,4.07.09,8.14.19,12.22.14,1.63,0,2.33.3,2.32,2.16,0,6.06.06,6.06-6.08,6.06Z"/><path class="cls-2" d="M140.05,202.7c-2.33,0-4.65-.11-7,0-1.62.1-1.88-.53-1.89-2-.06-6.24-.1-6.22,6.06-6.25,3.32,0,6.64,0,9.95-.19,1.4-.06,1.82.41,1.86,1.82.23,6.56.27,6.56-6.28,6.56Z"/><path class="cls-2" d="M120.52,202.7c-2.41,0-4.81-.06-7.21,0-1.21,0-1.6-.39-1.54-1.56.1-2.07-.63-4.59.32-6.07s3.66-.45,5.59-.55c3.31-.17,6.63-.1,9.94-.22,1.28,0,1.67.37,1.72,1.68.28,6.7.32,6.7-6.34,6.7Z"/><path class="cls-2" d="M101.35,194.52c2.32,0,4.64,0,7,0,1.13,0,1.56.27,1.64,1.51.42,6.69.46,6.69-6.16,6.69-3.24,0-6.48-.07-9.71,0-1.45.05-1.78-.44-1.81-1.83-.13-6.56-.18-6.55,6.33-6.55h2.75Z"/><path class="cls-21" d="M198.68,202.7c-2.42,0-4.83,0-7.24,0-1.21,0-1.69-.41-1.56-1.58,0-.08,0-.17,0-.25.06-2-.56-4.41.36-5.83s3.55-.43,5.41-.52c3.32-.15,6.65-.09,10-.22,1.32,0,1.66.43,1.72,1.71.28,6.67.31,6.67-6.43,6.67Z"/><path class="cls-2" d="M81.54,202.7c-2.17,0-4.33-.11-6.49,0-1.76.12-2.44-.26-2.41-2.25.09-6.06,0-6,6-6,3.33,0,6.66.06,10,0,1.37,0,1.84.35,1.88,1.8.17,6.41.22,6.41-6.21,6.41Z"/><path class="cls-2" d="M77,186.14c-.24,1.79,1,4.62-.51,6s-4.11.34-6.25.37c-4,.06-4,0-4-4.07,0-2.57,0-5.14,0-7.71,0-1.17.31-1.59,1.52-1.55q3.85.12,7.71,0c1.2,0,1.61.35,1.55,1.55C76.9,182.42,77,184.08,77,186.14Z"/><path class="cls-2" d="M233.33,186c.12,6.58.12,6.58-6.44,6.58-4.25,0-4.25,0-4.25-4.35,0-2.49.06-5,0-7.47,0-1.23.4-1.63,1.57-1.52.82.07,1.66,0,2.49,0,2.22.13,5.19-1,6.44.47C234.18,180.94,233.33,183.84,233.33,186Z"/><path class="cls-2" d="M207.2,186c-.13,2.11,1.11,4.84-.35,6.21s-4,.33-6,.35c-4.17.06-4.17,0-4.17-4.18,0-2.5.07-5,0-7.49,0-1.33.4-1.8,1.7-1.65.74.08,1.5,0,2.24,0,2.22.14,5.18-1,6.44.47C208,180.94,207.2,183.83,207.2,186Z"/><path class="cls-22" d="M73.59,225.47h.5c6.86,0,6.83,0,6.5,6.87-.06,1.26-.38,1.77-1.71,1.75q-5.47-.1-10.95,0c-1.28,0-1.68-.37-1.74-1.68-.29-6.95-.33-6.94,6.65-6.94Z"/><path class="cls-20" d="M226.37,234.06c-1.91,0-3.82,0-5.73,0-1.08,0-1.56-.36-1.43-1.44a2.08,2.08,0,0,0,0-.25c-.34-6.92-.34-6.92,6.64-6.92.58,0,1.16,0,1.74,0,1.88.15,4.57-.91,5.45.44,1.24,1.91.33,4.67.39,7.07,0,1.09-.79,1.07-1.57,1.07Z"/><path class="cls-20" d="M73.61,213.13h-.89c-7.31,0-7.28,0-6.52-7.32.11-1,.41-1.27,1.34-1.26,3.82,0,7.64,0,11.46,0,1.18,0,1.69.42,1.56,1.59a2.08,2.08,0,0,0,0,.25c-.12,2.14.93,5-.4,6.24C78.52,214.13,75.58,212.87,73.61,213.13Z"/><path class="cls-20" d="M73.43,245.84c1.66,0,3.33.12,5,0,1.83-.17,2.19.6,2.19,2.27,0,6.35.06,6.35-6.31,6.35-.66,0-1.33,0-2,0-2-.15-4.76.93-5.67-.41-1.25-1.84-.28-4.65-.4-7,0-1.1.67-1.14,1.48-1.13C69.61,245.86,71.52,245.85,73.43,245.84Z"/><path class="cls-2" d="M226.46,204.56h1c6.42,0,7,.78,6,7.36-.15,1-.58,1.22-1.46,1.21-3.83,0-7.65,0-11.48,0-.94,0-1.41-.3-1.32-1.28,0-.17,0-.34,0-.5.16-2.22-1-5.36.47-6.41s4.46-.25,6.78-.25Z"/><path class="cls-2" d="M226.22,254.43h-.5c-7.31,0-7.28,0-6.53-7.29.09-.94.35-1.31,1.32-1.31q5.73.06,11.48,0c1.07,0,1.54.4,1.46,1.46a2.08,2.08,0,0,0,0,.25C233.88,254.43,233.88,254.43,226.22,254.43Z"/><path class="cls-22" d="M66.23,219.07v-1.49c0-2.5,1.49-3.49,3.88-2.67.79.28.67.84.67,1.38,0,1.65-.11,3.31,0,5,.18,1.91-.4,2.57-2.41,2.49-1.67-.06-2.47-.38-2.21-2.18A18.63,18.63,0,0,0,66.23,219.07Z"/><path class="cls-20" d="M70.79,198.72V200c0,2.67-1.12,3.44-3.77,2.76-.81-.21-.78-.7-.78-1.27,0-1.65.1-3.31,0-4.95s.47-2.19,2.19-2.23c2,0,2.72.52,2.42,2.47A13.08,13.08,0,0,0,70.79,198.72Z"/><path class="cls-22" d="M66.23,239.81v-1.25c0-2.56,1.45-3.53,3.87-2.72.82.27.68.84.68,1.38,0,1.75-.07,3.5,0,5.24.09,1.4-.54,1.56-1.75,1.67-2.23.2-3.27-.47-2.85-2.82A9.38,9.38,0,0,0,66.23,239.81Z"/><path class="cls-22" d="M229,219a12.47,12.47,0,0,0,0-1.73c-.25-1.8.37-2.42,2.29-2.45s2.35.86,2.22,2.53a22.88,22.88,0,0,0,0,4c.19,1.82-.39,2.4-2.3,2.42s-2.39-.83-2.21-2.5A20.91,20.91,0,0,0,229,219Z"/><path class="cls-20" d="M233.46,198.71v1.49c0,2.27-1.72,3.35-3.84,2.48-.73-.3-.62-.89-.63-1.44a33,33,0,0,0,0-4.22c-.39-2.57,1-2.82,3-2.72,1.25.07,1.58.57,1.52,1.68C233.42,196.88,233.45,197.8,233.46,198.71Z"/><path class="cls-23" d="M233.46,239.88a16.83,16.83,0,0,0,0,1.74c.17,1.63-.11,2.51-2.18,2.55s-2.46-.94-2.32-2.67a12.21,12.21,0,0,0,0-3c-.4-2.49.85-2.9,3-2.75,1.18.08,1.64.46,1.57,1.61C233.41,238.23,233.46,239.06,233.46,239.88Z"/></svg>