<svg id="Layer_1" data-name="Layer 1" xmlns="http://www.w3.org/2000/svg" viewBox="0 0 300 300"><defs><style>.cls-1{fill:#bc0000;}.cls-2{fill:#cbcbcb;}.cls-3{fill:#fefefe;}.cls-4{fill:#181818;}.cls-5{fill:#140909;}.cls-6{fill:#1a0b0b;}.cls-7{fill:#170c0c;}.cls-8{fill:#180d0d;}.cls-9{fill:#191919;}.cls-10{fill:#1f1f1f;}.cls-11{fill:#1a1a1a;}.cls-12{fill:#070300;}.cls-13{fill:#070402;}.cls-14{fill:#0a0300;}.cls-15{fill:#0b0600;}.cls-16{fill:#110a00;}.cls-17{fill:#110700;}.cls-18{fill:#110800;}.cls-19{fill:#190c0c;}.cls-20{fill:#140900;}.cls-21{fill:#160d00;}.cls-22{fill:#180c00;}.cls-23{fill:#170900;}.cls-24{fill:#1a0c0c;}.cls-25{fill:#180900;}.cls-26{fill:#190e00;}.cls-27{fill:#181111;}.cls-28{fill:#0a0702;}.cls-29{fill:#1b0a00;}.cls-30{fill:#080404;}.cls-31{fill:#170a0a;}.cls-32{fill:#150909;}.cls-33{fill:#130909;}.cls-34{fill:#170b0b;}.cls-35{fill:#160a0a;}.cls-36{fill:#1d0f0f;}.cls-37{fill:#190d0d;}.cls-38{fill:#170e0e;}.cls-39{fill:#211010;}.cls-40{fill:#201010;}.cls-41{fill:#1c1c1c;}.cls-42{fill:#1b1b1b;}.cls-43{fill:#efae00;}.cls-44{fill:#151515;}.cls-45{fill:#171717;}.cls-46{fill:#1e1706;}.cls-47{fill:#18150c;}.cls-48{fill:#232323;}.cls-49{fill:#212121;}.cls-50{fill:#ecac00;}.cls-51{fill:#ebab00;}.cls-52{fill:#e6a800;}.cls-53{fill:#e4a600;}.cls-54{fill:#3a2a00;}.cls-55{fill:#221900;}.cls-56{fill:#060400;}.cls-57{fill:#dfa200;}.cls-58{fill:#eead00;}.cls-59{fill:#edad00;}.cls-60{fill:#ebac00;}.cls-61{fill:#060500;}.cls-62{fill:#030200;}.cls-63{fill:#2f2200;}.cls-64{fill:#150900;}.cls-65{fill:#040300;}.cls-66{fill:#020200;}.cls-67{fill:#120d00;}.cls-68{fill:#191300;}.cls-69{fill:#1a1300;}.cls-70{fill:#322400;}.cls-71{fill:#3a2b00;}.cls-72{fill:#312400;}</style></defs><path d="M21.9-.6H278.1a1,1,0,0,1,1,1V175.65A123.39,123.39,0,0,1,155.7,299H144.53A123.62,123.62,0,0,1,20.91,175.42V.4a1,1,0,0,1,1-1Z"/><path class="cls-1" d="M152,160.22a4,4,0,0,1,3-.93q58.88,0,117.76,0c1.15,0,2.31-.31,2.35,1.64.38,18.25-1.22,36.23-7.44,53.55-11.72,32.65-33.84,55.68-65.23,70a122.58,122.58,0,0,1-56.25,11.4c-29.05-1.15-55.05-10.82-77.59-29.31-22.82-18.71-36.17-43-41.55-71.8C25,183.61,24.72,172.32,24.84,161c0-1.91,1.11-1.7,2.31-1.7h86.74l-2.42,3.44c-.64,2.21-2.52,3.57-3.71,5.39-1.49,2-3.24,3.69-4.59,5.74a20.79,20.79,0,0,1-2.64,3.06c-.91.94-1.44.57-1.71-.53a21.59,21.59,0,0,0-.46-2.48c-1.8-4.86-7.76-6.67-12.69-3.82a10,10,0,0,0-2.21,1.67c-3.62,3.81-3.83,8.31-.62,13.21a10.21,10.21,0,0,0,1.62,1.79c1.85,1.53,3.76,3,5.61,4.51.41.3.83.59,1.21.92,2.65,2.24,2.67,2.62.39,5.17A43.24,43.24,0,0,1,88.55,201a67.53,67.53,0,0,0-4.63,5.63,130.53,130.53,0,0,0-9.46,13.76c-2.21,3.65-4.43,7.3-6.3,11.15-.74,1.51-1.41,2.91-3.34,3.44-1.2.33-1.57,2.12-2.92,2.58-.65.62-1.16,1.39-.38,2.11,1.37,1.26,1,2.8,1,4.31a4.8,4.8,0,0,0,2.42,2.36c1.93.25,3.88-.62,5.83.23.64.27,1.29-.38,1.51-1.06.58-1.69,2.42-2.74,2.25-4.86-.06-.79,1-1.26,1.66-1.77,2.64-2.09,5.19-4.28,7.68-6.56A155,155,0,0,0,99,215.85a43.84,43.84,0,0,0,4-4.79c1.33-1.67,2.19-3.68,3.76-5.19,2.67.15,4.14,2.31,6,3.72,2.35,1.77,4.43,3.92,7.22,5a9.94,9.94,0,0,0,11.77-14.87,6.33,6.33,0,0,0-5.31-2.92,6.34,6.34,0,0,1-3.22-.4c-.68-.85.1-1.36.46-2,2.9-3.67,6-7.2,8.67-11a28.71,28.71,0,0,1,2.12-2.78c3.56-3.55,6.42-7.68,9.58-11.56,2.12-2.23,3.89-4.75,5.84-7.12A4.74,4.74,0,0,1,152,160.22Z"/><path class="cls-1" d="M162.13,99.87c-1.46,2.48-3.66,2.84-6.4,2.83q-63.93-.14-127.85,0c-2.45,0-3.07-.62-3.06-3.06q.13-47.1,0-94.19c0-2.18.46-2.81,2.75-2.81q122.42.1,244.82,0c2.31,0,2.75.65,2.75,2.81q-.12,47.24,0,94.45c0,2.24-.58,2.8-2.8,2.79-23.72-.08-47.43,0-71.15-.1-.68,0-3.28,1.12-1.53-1.57,1.42-3.09,4-5.41,5.73-8.26A24.58,24.58,0,0,0,207.94,90c2.71-3.61,5.9-6.84,8.39-10.62a15.74,15.74,0,0,1,2.39-3.07c5.18-5.87,10-12,14.82-18.19,3.27-4.17,6.81-8.12,9.91-12.44,4.21-6.13,8.08-12.42,10-19.74,1.11-4.33.74-8.71.67-13.08,0-1.65-.85-2.51-2.73-2.43a35.08,35.08,0,0,0-15.56,4.71c-.62.36-1.29.65-1.89,1a15.66,15.66,0,0,0-2.21,1.59,64.58,64.58,0,0,0-6.43,5.48c-2.12,1.76-3.6,4.12-5.54,6.05-1.17,1.07-1.95,2.47-3,3.62-1.35,1.72-2.66,3.46-4.12,5.1-7.5,9.44-15.13,18.77-22.65,28.19-.94,1-1.69,2.19-2.62,3.22-4,5.07-8.18,10-12.15,15.12-3.81,4.5-7.41,9.19-11.16,13.75C163.46,98.94,163.11,99.77,162.13,99.87Z"/><path class="cls-2" d="M116,157.08a3.6,3.6,0,0,1-3.06,1.28q-43-.06-86.07,0c-1.73,0-2.05-.56-2-2.14q.07-25.18,0-50.37c0-1.6.34-2.15,2.06-2.15q64.94.08,129.86.07c.58,0,2.28-.74,1.29,1.18a10.43,10.43,0,0,1-2.19,3.41q-2,2.49-4,5c-.78.81-1.32,1.81-2.09,2.62-1.34,1.65-2.65,3.32-4,5a15.51,15.51,0,0,0-2.09,2.55,21.07,21.07,0,0,0-2.08,2.61c-1.54,1.77-2.94,3.66-4.43,5.48-.89,1-1.62,2.14-2.54,3.12-1.06,1.59-2.54,2.84-3.57,4.45a23,23,0,0,0-2.1,2.62c-1.55,1.78-3,3.68-4.45,5.5-.78.79-1.3,1.79-2.08,2.59-.87,1-1.6,2.12-2.5,3.09C118.71,154.41,117.77,156.13,116,157.08Z"/><path class="cls-3" d="M199.12,100.46l-3.59,4.47a9.62,9.62,0,0,1-2.16,3.39c-.79.8-1.31,1.81-2,2.68a42.09,42.09,0,0,0-4,4.82c-1,.92-1.64,2.12-2.55,3.1a22.7,22.7,0,0,0-1.6,2.06,19.25,19.25,0,0,0-2,2.55c-1,.92-1.61,2.11-2.51,3.09-1.25,1.72-2.82,3.18-4,4.94-1,.92-1.62,2.11-2.53,3.09-.63.63-1.06,1.42-1.63,2.1-1.54,1.79-3,3.69-4.45,5.53-1.27,1.72-2.83,3.2-4,5a20,20,0,0,0-2.08,2.59,21.84,21.84,0,0,0-2.08,2.61c-1.68,1.68-2.67,4-4.83,5.23a5.21,5.21,0,0,0-1.54,1.94c-1.67,3.43-4.61,5.9-6.76,9-3.28,3.94-6.33,8-9.69,11.92a16.7,16.7,0,0,0-2.6,3.21c-2.75,3.57-5.61,7-8.39,10.58a8.7,8.7,0,0,0-1.61,2.15,14.05,14.05,0,0,0-2.13,2.61c-2.28,2.18-2.37,2.15-4.42-1a4.12,4.12,0,0,1-.3-.64,13.8,13.8,0,0,0-2.83-4.57,15.8,15.8,0,0,0-3.26-3.52c-3.3-2.85-7.28-4.14-11.44-5.06-2.34-.52-2.48-1.07-1.07-3,1.93-2.66,4.41-4.87,6.18-7.66,1.43-1.86,3-3.61,4.46-5.44,1.49-1.6,2.54-3.61,4.45-4.82,1.48-1.74,3.25-3.26,4.07-5.49.85-1.91,2.73-3,3.72-4.83,1-.89,1.62-2.13,2.55-3.09.85-.76,1.25-1.87,2.1-2.62,1.3-1.78,2.71-3.47,4-5.25.91-.85,1.58-1.92,2.44-2.82,1-1.65,2.65-2.78,3.6-4.48,1-.89,1.63-2.15,2.58-3.12,1.35-1.79,2.75-3.55,4.11-5.34,1.05-.54,1.34-1.68,2-2.53.91-.83,1.56-1.89,2.41-2.77,1.34-1.68,2.77-3.27,4.07-5,.86-.74,1.25-1.86,2.1-2.61,1.37-1.64,2.54-3.44,4-5,1.1-.78,1.38-2.38,2.82-2.82,1.28-1.59,3-2.86,3.58-5,3.53-4.71,7.37-9.17,10.94-13.85a16.51,16.51,0,0,0,1.5-2c4.43-4.88,8.38-10.15,12.52-15.28a23.67,23.67,0,0,0,2.58-3.24c7.54-9.11,14.71-18.51,22.19-27.66,1.6-1.83,3-3.78,4.64-5.61,1.24-1,1.94-2.52,3.1-3.63,1.93-1.95,3.44-4.29,5.56-6.07a73.61,73.61,0,0,1,6.56-5.54c.65-.69,1.59-1,2.26-1.64.68-.31,1.26-.79,1.91-1.15a33.42,33.42,0,0,1,14.51-4.56c3.3-.19,3.6.44,3.89,3.71,1,11.7-3.54,21.48-10.11,30.64a5.82,5.82,0,0,0-.57.83c-8,10.37-16.36,20.45-24.54,30.68-1.22.79-1.68,2.21-2.65,3.21C214,82.85,211,86,208.55,89.47c-1.18,1.09-2,2.47-3.19,3.57C203.37,95.59,201.76,98.46,199.12,100.46Z"/><path class="cls-2" d="M196.07,105.52c1-1.48,2.36-1.8,4.1-1.79q36.18.08,72.35,0c2.08,0,2.64.46,2.63,2.6-.1,17.29-.06,34.57-.07,51.86a4,4,0,0,1-2.46.27q-58,0-116,0c-.34,0-.67,0-1,0-1.87-.08-2.06-.42-1.1-2.1.63-1.11,1.59-2,2.31-3a15.7,15.7,0,0,0,2.43-3.08c.89-.94,1.64-2,2.52-3,1.23-1.8,2.89-3.25,4.13-5s2.76-3.56,4.12-5.36c.89-.53,1.18-1.59,2-2.22,1-.86,1.55-2.15,2.48-3.1,1.21-1.77,2.84-3.19,4.05-5,1-.9,1.48-2.2,2.53-3a14.33,14.33,0,0,1,2-2.55,15.26,15.26,0,0,1,1.59-2.08c1.05-.85,1.5-2.19,2.54-3,1.31-1.67,2.38-3.53,4-4.92.74-.83,1.19-1.88,2-2.64C194.31,107.48,194.63,106,196.07,105.52Z"/><path class="cls-4" d="M157.64,152.77c-.61,2-2.7,3.11-3.41,5.19.18.6.79.31,1.22.31H274.08a8.26,8.26,0,0,0,1-.1c-.67,1-1.69.56-2.56.56q-58.2,0-116.39,0c-1.18,0-2.38.13-3.14-1.07a36.56,36.56,0,0,1,4.55-5.68A.55.55,0,0,1,157.64,152.77Z"/><path class="cls-5" d="M174.86,84.89c-.75,2-2.4,3.4-3.66,5-2.82,3.69-5.42,7.6-9,10.65l-.07-.71,12.64-15.71A.45.45,0,0,1,174.86,84.89Z"/><path class="cls-6" d="M144.38,168.24a76.77,76.77,0,0,1,7.07-8.62l.53.6a103,103,0,0,1-7.5,9.3A1,1,0,0,1,144.38,168.24Z"/><path class="cls-7" d="M199.12,100.46l6-7.62a.43.43,0,0,1,.7.07,42,42,0,0,1-6.17,8.11Z"/><path class="cls-8" d="M112,163.3a28.61,28.61,0,0,1-4.16,5c-.41,0-.69-.06-.48-.56a28.48,28.48,0,0,1,4.07-5Z"/><path class="cls-9" d="M120.16,153.28a16.24,16.24,0,0,1-4,4.53l-.09-.73c.78-1.81,2.34-3,3.57-4.45C120.09,152.57,120.35,152.72,120.16,153.28Z"/><path class="cls-10" d="M158.62,105.54a12.45,12.45,0,0,1-2.5,3.14.9.9,0,0,1-.67-.67c.87-1,1.74-2,2.6-3.05Z"/><path class="cls-11" d="M196.07,105.52a12.72,12.72,0,0,1-2.49,3.12.73.73,0,0,1-.59-.6,11.19,11.19,0,0,1,2.54-3.11Z"/><path class="cls-12" d="M61.31,237.17c2.48-2.36,5.81-3.71,7.19-7.36A45.66,45.66,0,0,1,74.05,220c.46-.11.66.16.79.53.11,1.54-1.21,2.58-1.39,4a2.77,2.77,0,0,1-.57.89C71,227,71,229.37,70.12,231.37c-2.1,1.55-2.25,2.9-.53,4.47.91.84,2,1.48,2.85,2.36.24.6.8.32,1.21.43.85.38,1.64-.25,2.47-.13.34.14.61.32.42.75-.72.89-1.61,1.39-1.75,3S73,245.51,72,247.14c-.07.11-.34.24-.44.19-2.31-1-4.81.41-7.13-.52-.13-.43.13-.64.44-.83,1.81-.5.21-1.5.33-2.25a.87.87,0,0,1,.72-.68c1.44.12,2.32,1.21,3.4,1.95.47.33,1,.88,1.54.33s-.09-1.1-.53-1.44c-2.89-2.2-5.37-5-9-6.06A.57.57,0,0,1,61.31,237.17Z"/><path class="cls-13" d="M103.51,173.44c-1.29,3.08-4,5.13-5.76,7.84-.4.61-1.13,1-1.25,2,4.89,1,9.78,2.07,13.5,5.78.13.53-.19.7-.62.8a3.35,3.35,0,0,1-1.83-.76c-3.59-2.53-7.74-3.5-12-4.28a17.55,17.55,0,0,1-5-1.56c-1.26-.67-2.52-1.42-2.57-3.12a1.14,1.14,0,0,1,.77-.81,1.33,1.33,0,0,1,.7.23c3.21,2.34,5.44,2.39,7,.18,1.93-2.73,1.37-6.81-1.33-8.58s-5.43-1.51-8.24-.45c-1.1.41-2,1.32-3.21,1.42-.41-.1-.72-.29-.58-.79,5.27-5.09,13.2-4.09,15.73,2a15.31,15.31,0,0,1,.65,4l3.39-3.87A.37.37,0,0,1,103.51,173.44Z"/><path class="cls-14" d="M120,198.58c.19-1.18,1.18-1.72,1.95-2.44a1,1,0,0,1,1.23,0c3.55-.26,6.93-.08,9.22,3.27a10.71,10.71,0,0,1-1,13.07,10.2,10.2,0,0,1-12.86,2.14c-3.29-1.77-5.83-4.55-8.84-6.69-.89-.63-1.46-1.91-2.87-1.66-.41.13-.66-.1-.88-.39a1.58,1.58,0,0,1-.24-1.38.94.94,0,0,1,.91-.48c3.65,1.81,6.55,4.66,9.73,7.11A16.67,16.67,0,0,0,120,213.4c3.37,1.42,6.56,1.35,9.35-1.31a8.83,8.83,0,0,0,2.58-9.85,7.3,7.3,0,0,0-4.75-4.52,3.45,3.45,0,0,0-2.93-.08c-1.37.4-2.44,1.47-3.85,1.75C120.07,199.22,119.74,199.05,120,198.58Z"/><path class="cls-15" d="M106.59,204.24l-.68.6c-1.34.2-2-.93-2.92-1.52-.7-.45-1.28-1.09-2.16-.4-1.09,0-1.36-.84-1.69-1.6a10.55,10.55,0,0,0-3.27-3.78c-.5-.4-1.07-.95-1.71-.14a1.68,1.68,0,0,1-.8.59c-2.83.55-2.15,3-2.65,4.84-1.25.55-1.56-.73-2.3-1.18-.25-.27-.45-.56-.26-1a38.4,38.4,0,0,1,3.63-4.09c1.55-1.35,1.46-2.27-.19-3.34a18.83,18.83,0,0,1-1.9-1.59.47.47,0,0,1-.15-.43c0-.14.08-.22.12-.22,1.24-.55,2.11.22,2.92.92,4,3.42,8.24,6.61,12.33,10C105.68,202.52,106.6,203.05,106.59,204.24Z"/><path class="cls-16" d="M99.31,215.94c-.09,2-1.88,2.92-2.92,4.15a98.88,98.88,0,0,1-12.2,12.61c-.45.21-.63-.07-.79-.41-.07-1.08.79-1.65,1.29-2.42a5.25,5.25,0,0,1,.74-.75c1.69-1,2.27-2.76,3.24-4.26.77.62,1.18.08,1.68-.45A12.92,12.92,0,0,0,92,222a2.49,2.49,0,0,1,.54-.43c1.58-.59,2.3-2,3.18-3.31a3.42,3.42,0,0,1,.43-.51c1.09-.49,1.47-2,2.87-2Z"/><path class="cls-17" d="M74.58,220.65l-.53-.63a97,97,0,0,1,9.54-13.82,1.18,1.18,0,0,1,.41.59,2.39,2.39,0,0,1-.45,1.7c-.39.59-.76,1.18-1.19,1.74A8.31,8.31,0,0,0,80.22,216a1,1,0,0,1-.63.24C78.38,215.8,77,217.31,77,219c0,.8.59,1.58.12,2.41C75.94,222.32,75.47,220.81,74.58,220.65Z"/><path class="cls-18" d="M83.11,171.35l.58.55a2.27,2.27,0,0,1-.54,1.86,9,9,0,0,0-.3,9.3,3.89,3.89,0,0,1,.56,1.91c-.11.41-.29.73-.81.6C78.78,180.84,79,175.32,83.11,171.35Z"/><path class="cls-19" d="M144.38,168.24c0,.43.06.85.1,1.28-3.08,4-5.94,8.14-9.65,11.59a.5.5,0,0,1-.1-.77c2.47-3.17,4.93-6.35,7.41-9.51C142.84,169.93,143.63,169.1,144.38,168.24Z"/><path class="cls-19" d="M123.6,194.15a113.55,113.55,0,0,1,8.54-10.66.46.46,0,0,1,.74.08c-2.43,4.09-5.69,7.52-8.7,11.15A.68.68,0,0,1,123.6,194.15Z"/><path class="cls-20" d="M83.62,232.11l.57.59a53.13,53.13,0,0,1-7.65,6.55l-.6-.54c-.13-.91.48-1.48,1-2.12a2.72,2.72,0,0,1,.58-.37,4.73,4.73,0,0,0,2.91-3.51,1.3,1.3,0,0,1,.71-.69C81.93,232.18,82.78,232,83.62,232.11Z"/><path class="cls-21" d="M66,243.27l-.59.54c-.75.38-1.41-.4-2.15-.17-.49.15-.69.89-1.36.67a1.07,1.07,0,0,1-.08-1.56c.68-.85.37-1.45-.39-2.06-1.37-1.1-1.5-2.31-.11-3.52,0,.26.09.51.13.77a7.31,7.31,0,0,0,3.22,3.4C65.4,241.7,66.13,242.23,66,243.27Z"/><path class="cls-22" d="M83.69,207l-.1-.76a28.68,28.68,0,0,1,4.57-5.5l.57.58c.27,1.05-.54,1.65-1.08,2.28a2.54,2.54,0,0,0-.63,2.2.92.92,0,0,1-.65.72C85.32,205.74,84.64,207.09,83.69,207Z"/><path class="cls-15" d="M106.32,205.65l.54.65a30,30,0,0,1-3.47,5.1c-.47.15-.69-.14-.89-.48a5.57,5.57,0,0,1-.35-2.91.9.9,0,0,1,.55-.42C104.62,208.28,104.78,205.69,106.32,205.65Z"/><path class="cls-23" d="M89.74,191l0,.65-5.58-4.55c-.19-.48.1-.66.47-.8A7.14,7.14,0,0,1,89.74,191Z"/><path class="cls-24" d="M103.51,173.44l-.63-.05a43.61,43.61,0,0,1,4.52-5.62l.48.56C106.51,170.1,105.34,172.06,103.51,173.44Z"/><path class="cls-25" d="M102.83,210.78l.56.62a11.81,11.81,0,0,1-4.08,4.54h0c-.56-.75-.12-1.4.19-2.07C100.62,212.85,101.08,211.12,102.83,210.78Z"/><path class="cls-26" d="M61.89,244.31l1-1.5c.71,1.15,1.95,2,2.15,3.45l-.65.55A4.76,4.76,0,0,1,61.89,244.31Z"/><path class="cls-27" d="M132.88,183.57l-.74-.08,2.59-3.15.1.77C134.13,181.89,133.86,183,132.88,183.57Z"/><path class="cls-28" d="M123.6,194.15l.58.57-1,1.45-1.23,0Z"/><path class="cls-29" d="M84.73,186.54l-.62.59a3.56,3.56,0,0,1-1.51-1.56l.57-.62C84.22,185,84.77,185.47,84.73,186.54Z"/><path class="cls-30" d="M243.13,45.63c3.32-5.14,6.72-10.23,8.8-16.08a38.12,38.12,0,0,0,1.84-16.41c-.15-1.77-.61-2.61-2.73-2.44a40.21,40.21,0,0,0-15.28,4.75c-.58.26-.67-.1-.67-.55a35.25,35.25,0,0,1,16.36-5.24c2.62-.22,3.11,1,3.32,3.08a39,39,0,0,1-4.47,23.13,63.06,63.06,0,0,1-6.64,10.38C243.2,46.29,242.92,46.17,243.13,45.63Z"/><path class="cls-31" d="M243.13,45.63l.53.62c-5,7.11-10.86,13.57-16.15,20.47-2.24,2.92-4.62,5.73-6.95,8.58-.47.57-.8,1.31-1.65,1.47a.47.47,0,0,1-.09-.75c2.89-3.74,5.71-7.54,8.68-11.22C232.66,58.38,237.91,52,243.13,45.63Z"/><path class="cls-32" d="M212.36,38.85Q203,50.61,193.55,62.37c-1.14,1.43-2.4,2.77-3.61,4.15-.41,0-.68,0-.48-.55q11.4-14.2,22.81-28.39A1.13,1.13,0,0,1,212.36,38.85Z"/><path class="cls-33" d="M174.86,84.89l-.09-.73q6.07-7.57,12.14-15.14c.53-.1.76.1.61.65q-4.59,5.81-9.18,11.62A19.45,19.45,0,0,1,174.86,84.89Z"/><path class="cls-6" d="M208.18,89.18a92.63,92.63,0,0,1,8.12-10.09c.32.07.36.37.5.59a114.69,114.69,0,0,1-8.53,10.73A.93.93,0,0,1,208.18,89.18Z"/><path class="cls-34" d="M232.06,17.94l-6.56,5.62a.7.7,0,0,1-.56-.6,32.13,32.13,0,0,1,6.52-5.63C232,17.21,232.19,17.42,232.06,17.94Z"/><path class="cls-35" d="M224.94,23l.56.6-5.57,6c-.52.13-.72-.07-.59-.59A36.72,36.72,0,0,1,224.94,23Z"/><path class="cls-32" d="M212.36,38.85l-.09-1.27,4-5c.53-.07.78.12.62.68Z"/><path class="cls-36" d="M216.91,33.22c-.21-.23-.42-.45-.62-.68L219.34,29l.59.59A18.57,18.57,0,0,1,216.91,33.22Z"/><path class="cls-37" d="M187.52,69.67l-.61-.65,2.55-3,.48.55A9,9,0,0,1,187.52,69.67Z"/><path class="cls-38" d="M208.18,89.18l.09,1.23a6.28,6.28,0,0,1-2.43,2.5l-.7-.07Z"/><path class="cls-38" d="M216.8,79.68l-.5-.59A13.28,13.28,0,0,1,218.82,76l.09.75Z"/><path class="cls-39" d="M232.06,17.94l-.6-.61a5.33,5.33,0,0,1,2.09-1.48.75.75,0,0,1,.65.59Z"/><path class="cls-40" d="M234.2,16.44l-.65-.59c.52-.31,1-.63,1.54-.95l.67.55A2.83,2.83,0,0,1,234.2,16.44Z"/><path class="cls-9" d="M141.44,126.43a26.2,26.2,0,0,1-4.1,5.49.67.67,0,0,1-.54-.57,35.52,35.52,0,0,1,4.53-5.71A.59.59,0,0,1,141.44,126.43Z"/><path class="cls-9" d="M128.77,142.13a28.25,28.25,0,0,1-4.08,5.52.73.73,0,0,1-.58-.6,38.43,38.43,0,0,1,4.56-5.69A.5.5,0,0,1,128.77,142.13Z"/><path class="cls-9" d="M150,116.21a28.38,28.38,0,0,1-4.13,5c-.43,0-.71-.07-.49-.59a25.27,25.27,0,0,1,4.06-5C150,115.53,150.16,115.69,150,116.21Z"/><path class="cls-11" d="M155.45,108l.67.67c-1.36,1.68-2.72,3.35-4.07,5a.73.73,0,0,1-.59-.6Z"/><path class="cls-4" d="M134.85,135c-.91,1.74-2.41,3-3.66,4.42-.43,0-.73-.08-.49-.6.8-1.8,2.35-3,3.58-4.46C134.78,134.34,135.05,134.49,134.85,135Z"/><path class="cls-11" d="M134.85,135l-.57-.64a11.93,11.93,0,0,1,2.52-3.05l.54.57A11.39,11.39,0,0,1,134.85,135Z"/><path class="cls-11" d="M120.16,153.28l-.57-.65a12.06,12.06,0,0,1,2.51-3c.5-.12.71,0,.56.57A12.23,12.23,0,0,1,120.16,153.28Z"/><path class="cls-41" d="M122.66,150.15l-.56-.57a7.49,7.49,0,0,1,2-2.53l.58.6A7.93,7.93,0,0,1,122.66,150.15Z"/><path class="cls-10" d="M141.44,126.43l-.11-.79,2-2.52a.51.51,0,0,1,.11.79A2.93,2.93,0,0,1,141.44,126.43Z"/><path class="cls-42" d="M151.46,113.11l.59.6a7.72,7.72,0,0,1-2,2.5l-.56-.56A7.78,7.78,0,0,1,151.46,113.11Z"/><path class="cls-42" d="M130.7,138.86l.49.6c-.36,1.29-1.58,1.81-2.42,2.67l-.1-.77A5.19,5.19,0,0,1,130.7,138.86Z"/><path class="cls-11" d="M143.46,123.91l-.11-.79a5.29,5.29,0,0,1,2-2.49l.49.59C145.52,122.52,144.29,123,143.46,123.91Z"/><path class="cls-43" d="M84.73,186.54,83.17,185c-3.17-5.24-3-8.14.52-13a10.6,10.6,0,0,1,8.85-2.58,7,7,0,0,1,5.73,7.9c-.37,2.26-1.45,4.21-3.85,4.8s-4.4-.47-5.63-2.7c-.68-.46-.57-1.12-.47-1.78a4.66,4.66,0,0,1,2.84-3.34c1.86-.76,3.17.15,4.76,1.71-1.59-1.68-3-2.48-4.85-1.72a3.82,3.82,0,0,0-2.44,2.55c-.74,1-.28,2.15-.37,3.24.74,2.2,2.66,3,4.6,3.5,2.26.64,4.58,1.1,6.89,1.56a25.76,25.76,0,0,1,9.73,4.57c1.68.72,2.56,2.29,3.75,3.53s1.86,2.92,2.85,4.34v0c.78,2.82,2.36,5.29,3.7,7.83s4.43,2.87,6.78,1c1.87-2.93,1.62-4.56-1-6.43,2.57,2,2.8,3.49,1,6.38-2.18,1.74-4.73,1.59-6.38-.36a4.59,4.59,0,0,1,.4-6.6,6.94,6.94,0,0,1,3.61-2.07,5.76,5.76,0,0,1,3,0c5.46,2.3,7.41,6.95,5.11,12.18a9.28,9.28,0,0,1-12.89,4.63,24,24,0,0,1-4.33-3l-8.47-6.65q-7.84-6.41-15.7-12.81a3.72,3.72,0,0,0-1.15-.4A20.06,20.06,0,0,0,84.73,186.54Z"/><path class="cls-28" d="M120.56,199.23a13.13,13.13,0,0,0-1,2.55,4.4,4.4,0,0,0,2.2,4.72c1.76,1.07,3.38.45,4.83-.79a.42.42,0,0,1,.08.7c-1,1.92-2.7,1.79-4.33,1.42-2.7-.6-6.75-7.39-6.32-10.39,1.16.63,1.06,2,1.84,3,1.12-.07,1.21-1.46,2.13-1.83Z"/><path class="cls-9" d="M176.89,105.67a131,131,0,0,1-9,11.82c-1.06,1.26-2.15,2.49-3.22,3.73-.44,0-.76-.08-.51-.62,3.29-4.19,6.54-8.41,9.91-12.54.88-1.08,1.47-2.44,2.75-3.19A.58.58,0,0,1,176.89,105.67Z"/><path class="cls-44" d="M206.15,68.42c3.38-4.53,6.94-8.92,10.64-13.2a.54.54,0,0,1,.12.8,73.77,73.77,0,0,1-10.63,13.19A.52.52,0,0,1,206.15,68.42Z"/><path class="cls-44" d="M151.45,136.29l10.08-12.57a.49.49,0,0,1,.76.09,76.08,76.08,0,0,1-10.72,13.27A.52.52,0,0,1,151.45,136.29Z"/><path class="cls-44" d="M189.64,89.87A96.79,96.79,0,0,1,179.31,103c-.44,0-.74-.08-.5-.62l10.07-12.59A.49.49,0,0,1,189.64,89.87Z"/><path class="cls-44" d="M134.93,157.75a96.79,96.79,0,0,1-10.32,13.11c-.44,0-.74-.08-.51-.61l10.08-12.59A.47.47,0,0,1,134.93,157.75Z"/><path class="cls-9" d="M147.5,142.62c-3.23,4.33-6.65,8.49-10.23,12.54-.44,0-.75-.08-.51-.63,3.07-4.43,6.68-8.42,10.08-12.58C147.43,141.81,147.65,142,147.5,142.62Z"/><path class="cls-9" d="M202.29,74.18a75.38,75.38,0,0,1-6.95,9.24c-1.08,1.32-2.24,2.58-3.36,3.86-.44,0-.76-.08-.51-.62,3.05-4.44,6.68-8.42,10.07-12.58A.47.47,0,0,1,202.29,74.18Z"/><path class="cls-9" d="M218.82,52.72c3.06-4.44,6.68-8.42,10.08-12.59.58-.13.81.09.66.68-3.24,4.31-6.64,8.51-10.23,12.54C218.89,53.36,218.57,53.27,218.82,52.72Z"/><path class="cls-45" d="M233.5,34.47l8.07-10c.57-.14.79.08.65.65-2.82,3.43-5.13,7.3-8.59,10.19A.53.53,0,0,1,233.5,34.47Z"/><path class="cls-42" d="M147.5,142.62l-.66-.67c1.52-1.9,2.79-4,4.61-5.66l.12.79A22.38,22.38,0,0,1,147.5,142.62Z"/><path class="cls-42" d="M233.5,34.47l.13.8a22.83,22.83,0,0,1-4.07,5.54l-.66-.68A46.23,46.23,0,0,1,233.5,34.47Z"/><path class="cls-41" d="M122.69,173.42a22.62,22.62,0,0,1-4.52,5.09.44.44,0,0,1-.63,0,31.53,31.53,0,0,1,4.53-5.7A.82.82,0,0,1,122.69,173.42Z"/><path class="cls-10" d="M191.55,111.16l-4,5c-.53.1-.77-.09-.61-.65,1.26-1.76,2.37-3.64,4.17-4.94C191.49,110.58,191.78,110.65,191.55,111.16Z"/><path class="cls-11" d="M178.88,126.86a30.87,30.87,0,0,1-4.12,5c-.44,0-.73-.07-.5-.6,1-1.95,2.61-3.39,4-5C178.82,126.13,179,126.33,178.88,126.86Z"/><path class="cls-11" d="M166.22,142.57a30.79,30.79,0,0,1-4.12,5c-.45,0-.74-.08-.51-.61a24.82,24.82,0,0,1,4-5C166.17,141.84,166.36,142,166.22,142.57Z"/><path class="cls-42" d="M202.29,74.18l-.75-.1c1.52-1.9,2.79-4,4.61-5.66l.13.79C205.09,71,204.26,73,202.29,74.18Z"/><path class="cls-9" d="M166.22,142.57l-.58-.59a37.85,37.85,0,0,1,4.55-5.69.56.56,0,0,1,.11.78A27.34,27.34,0,0,1,166.22,142.57Z"/><path class="cls-46" d="M113,193.28c-1.17-1.22-2.33-2.45-3.49-3.67l.52-.54c1.3.91,2.67,1.75,3.06,3.46A.47.47,0,0,1,113,193.28Z"/><path class="cls-47" d="M113,193.28l.09-.75c1.53,1.33,2.85,2.79,3,4.95C114.27,196.66,113.93,194.74,113,193.28Z"/><path class="cls-10" d="M186.91,115.54l.61.65L185,119.31a.77.77,0,0,1-.61-.63Z"/><path class="cls-10" d="M174.26,131.26l.5.6a10.25,10.25,0,0,1-2.43,3.16.77.77,0,0,1-.6-.63A12.74,12.74,0,0,1,174.26,131.26Z"/><path class="cls-11" d="M178.88,126.86l-.59-.59a12.43,12.43,0,0,1,2.54-3.14.72.72,0,0,1,.57.64Z"/><path class="cls-42" d="M178.81,102.37l.5.62c-.54,1.13-1.09,2.25-2.42,2.68l-.11-.8A8,8,0,0,1,178.81,102.37Z"/><path class="cls-42" d="M122.69,173.42l-.62-.66a8,8,0,0,1,2-2.51l.51.61A6,6,0,0,1,122.69,173.42Z"/><path class="cls-48" d="M242.22,25.08l-.65-.65c.71-.88,1.2-2,2.52-2.59C244.11,23.44,243,24.19,242.22,25.08Z"/><path class="cls-41" d="M191.55,111.16l-.47-.56A5.47,5.47,0,0,1,193,108l.59.6Z"/><path class="cls-42" d="M191.47,86.66l.51.62c-.33,1.28-1.53,1.76-2.34,2.59l-.76-.09C189.68,88.69,190.27,87.42,191.47,86.66Z"/><path class="cls-9" d="M157.64,152.77l-.1-.77,2-2.54a.52.52,0,0,1,.12.79A3.08,3.08,0,0,1,157.64,152.77Z"/><path class="cls-42" d="M136.76,154.53l.51.63c-.32,1.28-1.52,1.76-2.34,2.59l-.75-.09C135,156.56,135.57,155.3,136.76,154.53Z"/><path class="cls-9" d="M181.4,123.77l-.57-.64a8.16,8.16,0,0,1,2-2.53.74.74,0,0,1,.58.64Z"/><path class="cls-42" d="M162.29,123.81l-.76-.09c.8-1.1,1.39-2.36,2.59-3.12l.51.62C164.3,122.5,163.1,123,162.29,123.81Z"/><path class="cls-42" d="M218.82,52.72l.51.63c-.35,1.31-1.6,1.8-2.42,2.67l-.12-.8A5.58,5.58,0,0,1,218.82,52.72Z"/><path class="cls-10" d="M159.68,150.25l-.12-.79a5.32,5.32,0,0,1,2-2.51l.51.61C161.73,148.85,160.53,149.39,159.68,150.25Z"/><path class="cls-4" d="M171.73,134.39l.6.63c-.55.81-.94,1.77-2,2l-.11-.78Z"/><path class="cls-4" d="M183.44,121.24l-.58-.64,1.52-1.92.61.63Z"/><path class="cls-49" d="M117.54,178.46l.63,0c-.15,1-.75,1.69-2.07,2.29A4.25,4.25,0,0,1,117.54,178.46Z"/><path class="cls-50" d="M80.74,232.64c.74,2.67-1.52,3.07-3,4-1-.59-1.09-1.71-1.55-2.61-.27-.83-.5-1.67-.84-2.48-.09-.19-.18-.39-.26-.58a15,15,0,0,0-1-2.33,5.15,5.15,0,0,1-.63-1.53,15.49,15.49,0,0,1-.39-2.62c-.25-1.6,1.23-2.51,1.55-3.88,1.61-2,1.36,1.3,2.43.86l.19.25a4.18,4.18,0,0,0,1.09,2.2,3.1,3.1,0,0,1,.56,1.55,3.38,3.38,0,0,0,.69,2.16,2.16,2.16,0,0,1,.29.59,7.8,7.8,0,0,0,.69,2.45A2.42,2.42,0,0,1,80.74,232.64Z"/><path class="cls-51" d="M74,227l.54,1.33a3.7,3.7,0,0,0,1,2.84l0-.06a11.31,11.31,0,0,0,.76,2.73c.33.94,1,1.79.84,2.87.16,1-.81,1.31-1.18,2-.85,0-1.64,2.25-2.56.08a3,3,0,0,1-1.1-1.61c-.09-.19-.17-.39-.26-.58-.29-.68-.5-1.39-.8-2.07-.1-.19-.18-.38-.27-.58a10.73,10.73,0,0,0-1-2,.61.61,0,0,1,0-.6,7.67,7.67,0,0,1,2.52-6.29C73.37,225.42,73.25,226.54,74,227Z"/><path class="cls-50" d="M66,243.27a6.23,6.23,0,0,0-2.5-2,3.2,3.2,0,0,1-2.05-3.33,2.53,2.53,0,0,1,2.81.29c2.26,1.89,4.57,3.7,6.87,5.53.72.58,1.28,1.31.67,2.14s-1.6.6-2.41,0Z"/><path class="cls-51" d="M74,242.16c-.37,1.11-1.07,1.55-1.93.89-2.46-1.88-4.85-3.85-7.25-5.81a1.16,1.16,0,0,1-.24-1.76,1.12,1.12,0,0,1,1.6-.13c2.5,2,5,4,7.4,6C73.79,241.56,73.86,241.93,74,242.16Z"/><path class="cls-52" d="M70,231.37l0,0c.66.86.72,2.06,1.56,2.82l0-.05a4.05,4.05,0,0,0,1.06,2.59l0-.05c0,.66.53,1.32,0,2a14.79,14.79,0,0,1-3.43-2.5,3.4,3.4,0,0,1,.13-5.33C69.26,230.78,69.68,231.18,70,231.37Z"/><path class="cls-53" d="M65.05,246.26c-.85-1.07-2.72-1.5-2.15-3.45,1.1-.33,1.65.69,2.5,1,.36.77,1.74.94,1.36,2.07C66.48,246.7,65.66,246.28,65.05,246.26Z"/><path class="cls-54" d="M74,227c-1.47.1-1-1.29-1.5-1.93l.55-.55A4.65,4.65,0,0,1,74,227Z"/><path class="cls-55" d="M72.46,238.67c-.17-.66-.49-1.32,0-2l.9,2.09C73.06,238.89,72.69,239.28,72.46,238.67Z"/><path class="cls-56" d="M88.74,177.55c0,.59,0,1.18.05,1.77l-.53.66a3.27,3.27,0,0,1,0-3.51C89.21,176.48,88.93,177,88.74,177.55Z"/><path class="cls-57" d="M106.32,205.65a29.16,29.16,0,0,0-1.73,2.44c-.85,1.46-1.18.25-1.66-.26a3,3,0,0,1-1.14-1.66,7.35,7.35,0,0,0-1.13-2.36.79.79,0,0,1,.22-.92c0-.49-.17-1.21.08-1.43.61-.53,1,.27,1.4.57,1.21.91,2.37,1.87,3.55,2.81Z"/><path class="cls-28" d="M127.17,197.11l-3,0A2.52,2.52,0,0,1,127.17,197.11Z"/><path class="cls-50" d="M99.81,213.81c-.17.71-.33,1.41-.5,2.12-1.55-.2-1.35,2.26-3,2-.72-.48-.8-1.3-1.08-2a18,18,0,0,0-.76-2.13q-.15-.3-.27-.6A9,9,0,0,0,93,210.83a4.47,4.47,0,0,1-.35-1.3,4.92,4.92,0,0,0-1.12-2.65,3.55,3.55,0,0,1-.36-1.27c0-.87-.46-1.67-.48-2.55,0-.11,0-.22,0-.32-1.28-2.36.07-3.86,1.69-5.27.43-.38.73-.23,1,.21.8.4,1,1.21,1.29,1.92a10.53,10.53,0,0,0,1.15,2.33,3.76,3.76,0,0,1,.88,1.8,3.23,3.23,0,0,0,.83,2.42,3.18,3.18,0,0,1,.6,1.53,3.4,3.4,0,0,0,.74,2.35,1.81,1.81,0,0,1,.27.58,4.56,4.56,0,0,0,1,2.31A.78.78,0,0,1,99.81,213.81Z"/><path class="cls-58" d="M91.77,205.57v1.32c.76.77.84,1.92,1.52,2.74V211c.77.66.69,1.84,1.51,2.48l0-.06a12.45,12.45,0,0,0,.76,2.73,15.15,15.15,0,0,0,.72,2.53c-1.19,1-1.52,3-3.37,3.34-1-.64-1.12-1.78-1.59-2.72a15.54,15.54,0,0,0-1-2.54,5.29,5.29,0,0,1-.62-1.52,12.33,12.33,0,0,0-.73-2.4c-.1-.19-.18-.38-.26-.57a15.2,15.2,0,0,0-1-2.31,4.88,4.88,0,0,1-.62-1.53,12.46,12.46,0,0,1-.38-2.65c-.89-2.19,1.38-3,2-4.47,1.23-.3.83,1.6,2,1.46h0A5.7,5.7,0,0,0,91.77,205.57Z"/><path class="cls-59" d="M96.28,203.52l-1-1.24a26.24,26.24,0,0,0-.87-2.73,9.08,9.08,0,0,1-.61-2.41c-.14-1.44.17-1.62,1.49-.83,2.63,1.59,4,4.13,5.57,6.58l0,1a6.72,6.72,0,0,1,1.14,2.4c0,.54.62.95.4,1.57.09,1,.83,1.88.39,2.93-1.13.89-1.57,2.46-3,3l.06-.64a7.36,7.36,0,0,1-1.05-2.82l0,.06a4.12,4.12,0,0,1-1-2.84l-.56-1.35C96.44,205.51,96.58,204.44,96.28,203.52Z"/><path class="cls-54" d="M93.82,197.14a4,4,0,0,1,.87,2.14,1,1,0,0,1-.46.52,4.35,4.35,0,0,1-.89-2.12Z"/><path class="cls-59" d="M90.19,214.86a1.71,1.71,0,0,0,.54,1.32,7.14,7.14,0,0,0,.72,2.91c.32,1,1,1.83.87,2.94.28,1.94-1.43,2.64-2.46,3.68-.71.72-.61-.72-1.16-.74a2.26,2.26,0,0,1-.87-1c-.28-.72-.5-1.46-.75-2.18a10.2,10.2,0,0,0-.82-2.09,5.09,5.09,0,0,1-.61-1.49,11.78,11.78,0,0,0-.73-2.39c-.09-.18-.18-.38-.26-.57a15.36,15.36,0,0,0-1-2.35A5.52,5.52,0,0,1,83,211.3a4.63,4.63,0,0,1,0-2.92,1.52,1.52,0,0,0,.68-1.42c.93.08,1.08-2.82,2.54-.66.77.44.73,1.46,1.41,2l.56,1.34a3.63,3.63,0,0,0,1,2.83l0-.06C89.43,213.24,89.37,214.23,90.19,214.86Z"/><path class="cls-60" d="M88.37,224.06l.33.91c.09,2.29-1.13,3.73-3.08,4.68a2.75,2.75,0,0,1-1.26-1.45,4.54,4.54,0,0,1-.24-.61,18.18,18.18,0,0,0-.74-2.15,6.36,6.36,0,0,1-.28-.59,7.68,7.68,0,0,0-1.23-2.29,3.52,3.52,0,0,1-.34-1.27,8.43,8.43,0,0,0-.69-2.46c-.1-.19-.19-.39-.28-.6a4.5,4.5,0,0,1-.49-2.28c-1-2.61.35-4.4,2.05-6.1,1.09-.17.73,1.17,1.44,1.39l.58,1.4a3.63,3.63,0,0,0,1,2.83l0-.06c.24.87.17,1.86,1,2.49l.55,1.33a6.73,6.73,0,0,0,.67,2.78C87.77,222.65,87.65,223.56,88.37,224.06Z"/><path class="cls-58" d="M82.14,221.27v1.33c.78.66.69,1.86,1.52,2.5l0-.06a5.78,5.78,0,0,0,1,2.82l0,0a6.94,6.94,0,0,0,.42,2.43l-1.45,1.84c-.83.38-1.66,2-2.49,0a4.16,4.16,0,0,1-.93-1.79,19.06,19.06,0,0,1-.63-2.24l0,.06a4.1,4.1,0,0,1-1-2.83L78,224c-.76-.65-.69-1.63-1-2.47l0,0c-1.65-2.79,0-4.78,1.68-6.77.69.11.17,1.12.89,1.21.78.69.7,1.9,1.54,2.56l0-.06A5.71,5.71,0,0,0,82.14,221.27Z"/><path class="cls-61" d="M92.32,222a5.56,5.56,0,0,1-.95-3l.19,0a6.21,6.21,0,0,1,1.31,3Z"/><path class="cls-62" d="M96.24,218.65c-1.09-.59-.87-1.68-1-2.63-.25-.54,0-.6.47-.53a4.92,4.92,0,0,1,.64,2.4Z"/><path class="cls-63" d="M85.07,230.27c-.34-.77-1.36-1.43-.42-2.43.66.42.6,1.23,1,1.81Z"/><path class="cls-54" d="M81.13,218.51c-1.43-.3-1.27-1.56-1.54-2.56a1.29,1.29,0,0,1,.48,0C80.91,216.6,80.94,217.59,81.13,218.51Z"/><path class="cls-64" d="M83.56,211.24c-1.15.23-.78-1.12-1.44-1.39l.89-1.47A7.58,7.58,0,0,0,83.56,211.24Z"/><path class="cls-65" d="M77.12,236.72a6.19,6.19,0,0,1-1-3l.24,0a7.12,7.12,0,0,1,1.33,3Z"/><path class="cls-62" d="M80.5,230.18l.63,1.93-.39.53-.7-1.93C79.78,230.17,80.07,230.11,80.5,230.18Z"/><path class="cls-54" d="M87.64,208.26c-1.42,0-1-1.23-1.41-2l.49-.55A4.48,4.48,0,0,1,87.64,208.26Z"/><path class="cls-66" d="M102.44,207.85l-.59-1.49c-.25-.52,0-.58.44-.5.21.66.43,1.32.64,2Z"/><path class="cls-67" d="M126.72,206.41l-.08-.7c1.16-3.49.71-4.51-2.84-6.29,2.14-.84,3.15.49,4,1.93A3.57,3.57,0,0,1,126.72,206.41Z"/><path class="cls-68" d="M90.73,173.94c3.31-1.13,5.46.12,5.52,3.56-1.16-2-2.49-3.39-4.78-3C90.91,174.73,90.68,174.52,90.73,173.94Z"/><path class="cls-69" d="M90.73,173.94l.74.57a5.76,5.76,0,0,0-2.73,3l-.48-1.08A3.41,3.41,0,0,1,90.73,173.94Z"/><path class="cls-70" d="M78.57,225.31c.35.94.69,1.88,1,2.83C78.24,227.57,77.82,226.65,78.57,225.31Z"/><path class="cls-54" d="M75.55,231.18c-1.38-.57-1.84-1.47-1-2.84A5.93,5.93,0,0,1,75.55,231.18Z"/><path class="cls-71" d="M76.37,233.73l-.12,0-.12-.07a1.83,1.83,0,0,1-.61-2.56A3,3,0,0,1,76.37,233.73Z"/><path class="cls-54" d="M77,221.49A3.81,3.81,0,0,1,78,224C76.43,223.64,76.64,222.6,77,221.49Z"/><path class="cls-54" d="M80.5,230.18l-.46.53a2.14,2.14,0,0,1-.47-2.63A3.45,3.45,0,0,1,80.5,230.18Z"/><path class="cls-54" d="M71.5,234.21c-1.51-.39-1.31-1.73-1.56-2.82C71.21,231.92,71.29,233.1,71.5,234.21Z"/><path class="cls-54" d="M72.52,236.75c-1.52-.39-1.49-1.41-1.06-2.59A4.49,4.49,0,0,1,72.52,236.75Z"/><path class="cls-70" d="M102.29,205.86l-.44.5a4.39,4.39,0,0,1-.95-2.48C102.27,203.9,102,205.11,102.29,205.86Z"/><path class="cls-72" d="M94.8,213.45c-1.34-.32-1.25-1.51-1.51-2.48C94.86,211.14,94.43,212.54,94.8,213.45Z"/><path class="cls-54" d="M93.28,209.63c-1.17-.55-1.4-1.61-1.52-2.74C93.32,207.22,93,208.59,93.28,209.63Z"/><path class="cls-71" d="M97.82,207.57a5.69,5.69,0,0,1,1,2.84C97.46,209.85,97.05,208.93,97.82,207.57Z"/><path class="cls-54" d="M91.77,205.57a1.88,1.88,0,0,1-1.06-2.82A4.76,4.76,0,0,1,91.77,205.57Z"/><path class="cls-54" d="M96.28,203.52a5.4,5.4,0,0,1,1,2.7C95.45,205.87,96.08,204.62,96.28,203.52Z"/><path class="cls-54" d="M98.82,210.35a4.6,4.6,0,0,1,1.05,2.82A1.91,1.91,0,0,1,98.82,210.35Z"/><path class="cls-54" d="M95.7,215.49l-.47.53a2.17,2.17,0,0,1-.47-2.63A3.52,3.52,0,0,1,95.7,215.49Z"/><path class="cls-66" d="M94.23,199.8l.46-.52c.19,1,.93,1.89.61,3C94.53,201.63,94.5,200.66,94.23,199.8Z"/><path class="cls-54" d="M91.56,219l-.19,0c-.83-.8-1.55-1.62-.64-2.82A3.93,3.93,0,0,1,91.56,219Z"/><path class="cls-54" d="M89.23,212.43c-1.4-.56-1.83-1.47-1-2.83A5.89,5.89,0,0,1,89.23,212.43Z"/><path class="cls-71" d="M90.19,214.86c-1.56-.34-1.46-1.34-1-2.49A4.13,4.13,0,0,1,90.19,214.86Z"/><path class="cls-54" d="M85.18,215.47c-1.4-.56-1.82-1.47-1-2.83A5.9,5.9,0,0,1,85.18,215.47Z"/><path class="cls-54" d="M86.13,217.9c-1.57-.34-1.44-1.35-1-2.49A4.09,4.09,0,0,1,86.13,217.9Z"/><path class="cls-71" d="M87.14,222.09c-.43-.91-1.49-1.72-.46-2.86.3.78.61,1.56.92,2.34A1,1,0,0,1,87.14,222.09Z"/><path class="cls-66" d="M87.14,222.09l.46-.52.77,2.49C87.2,223.88,87.47,222.79,87.14,222.09Z"/><path class="cls-54" d="M83.66,225.1c-1.4-.29-1.28-1.51-1.52-2.5C83.71,222.78,83.29,224.18,83.66,225.1Z"/><path class="cls-71" d="M84.67,227.86a1.89,1.89,0,0,1-1-2.82A4.69,4.69,0,0,1,84.67,227.86Z"/><path class="cls-71" d="M82.14,221.27a1.9,1.9,0,0,1-1-2.82A4.63,4.63,0,0,1,82.14,221.27Z"/></svg>