<svg id="Layer_1" data-name="Layer 1" xmlns="http://www.w3.org/2000/svg" viewBox="0 0 300 300"><defs><style>.cls-1{fill:#0038a5;}.cls-2{fill:#c5c5c5;}.cls-3{fill:#0037a4;}.cls-4{fill:#0037a3;}.cls-5{fill:#0036a1;}.cls-6{fill:#0037a2;}.cls-7{fill:#0036a0;}.cls-8{fill:#00359c;}.cls-9{fill:#00349a;}.cls-10{fill:#b4b4b4;}.cls-11{fill:#00349b;}.cls-12{fill:#00369f;}.cls-13{fill:#00359e;}.cls-14{fill:#003191;}.cls-15{fill:#003396;}.cls-16{fill:#003293;}.cls-17{fill:#003397;}.cls-18{fill:#212121;}.cls-19{fill:#003292;}.cls-20{fill:#013293;}.cls-21{fill:#002672;}.cls-22{fill:#021d52;}.cls-23{fill:#bababa;}.cls-24{fill:#9b9b9b;}.cls-25{fill:#002e87;}.cls-26{fill:#003499;}.cls-27{fill:#01266e;}.cls-28{fill:#013190;}.cls-29{fill:#002f8a;}.cls-30{fill:#002c82;}.cls-31{fill:#011b50;}.cls-32{fill:#012e87;}.cls-33{fill:#030303;}.cls-34{fill:#040404;}.cls-35{fill:#050505;}.cls-36{fill:#070707;}.cls-37{fill:#979797;}.cls-38{fill:#080808;}.cls-39{fill:#b0b0b0;}.cls-40{fill:#b5b5b5;}.cls-41{fill:#b7b7b7;}.cls-42{fill:#b1b1b1;}</style></defs><path d="M26.87-.6H273.13a1,1,0,0,1,1,1V176.61A123.39,123.39,0,0,1,150.73,300H149.5A123.62,123.62,0,0,1,25.88,176.38V.4a1,1,0,0,1,1-1Z"/><path class="cls-1" d="M214.61,49.63a26.38,26.38,0,0,0,8-2.09,39.85,39.85,0,0,1,12.28-3.25c2.26-.2,2.77-1.18,1.43-2.89-3.7-4.72-6.59-10.06-10.9-14.32-3.21-3.17-6.83-5.68-11.34-6.46a13.64,13.64,0,0,0-12.23,3.7,9.38,9.38,0,0,1-6,2.65,14.22,14.22,0,0,0-9.35,4.79c-.64.68-1,2.56-2.21,1.68s-2.65-2.1-2-4.18a13.29,13.29,0,0,0,.56-5.44c-.65-6.31-4.68-9.9-10-12.48C168.05,9,162.69,9.19,157.5,8.52a19.84,19.84,0,0,1-4.65-.9,7.53,7.53,0,0,0-7.33.88c-3.94,2.51-8.07,4.72-12,7.31-5.27,3.51-9.76,7.67-9.84,14.72,0,.3-.24.59-.46,1.1-2.1-1.56-4-3.22-6.33-4.13-1.79-.7-3.63-1.79-5.43-1.77-3.92.05-6.35-1.83-8.85-4.57-4.46-4.89-12-4.76-18-.25-4.44,3.32-7.61,7.67-10.31,12.42a75.39,75.39,0,0,1-5.44,9c-.85,1.1-1.08,2.44.77,2.46,7.43.06,14.08,3.33,21.13,4.91,1.7.38,3.44.24,5.37.53a28.81,28.81,0,0,0-2.71,6.89c-.23,1-.74.94-1.39.37-7-6.17-14.83-5.9-23-2.74A58.21,58.21,0,0,1,58,57.6c-2.17.38-2.46,1.23-1,2.78a44.66,44.66,0,0,1,8.07,12.28,36.26,36.26,0,0,0,5.2,8.62c-3.54.66-6.69,0-9.84-.41-1.32-.15-2.61-.56-3.93-.73-1.54-.2-2.15.6-1.37,1.92,2.73,4.67,3.3,9.92,4.33,15.06,1,4.84,2.19,9.58,6,13.41C59.66,109.6,55,111.7,51,115.42a26.21,26.21,0,0,0-7.19,12.12c-1.17,4-2.1,8.07-3.09,12.12-.6,2.42-.09,3.09,2.24,2.43,6-1.69,12.24-1.47,18.34-2.34.62-.08,1.54-.44,1.82.26.35.88-.5,1.61-1.15,2a6.8,6.8,0,0,1-2.64.6c-8.57.73-14,6.13-15.07,14.68a22,22,0,0,0,3.94,16.34,48,48,0,0,1,4.22,7.67c.5,1,1.2,2.06,2.29.48,2.46-3.56,5.88-6.1,9.11-8.87s6.26-5.77,8.06-10.23c2.95,4.93,6.83,8,12.26,8.51a14.53,14.53,0,0,0,10.37-2.92c7-5.15,7.76-13.3,2.1-22.48,2.92.39,5.55,1.34,8.3,1.66,6.9.78,12.37-1.16,15.6-7.7.94-1.92,2.14-2.07,3.78-.87a27.71,27.71,0,0,1,11.57,21.83c1.05,24.44.82,48.89.15,73.34-.08,3.13-1.27,5.93-2.78,9.19-1.57-3.26-3.32-5.77-6.19-7.24-.5-.26-1-.77-1.61-.44-.83.47,0,1.21-.22,2a16,16,0,0,0-5.33-.78,7.87,7.87,0,0,0-5.77,3.08c-.86,1-.57,1.37.65,1.54,1.58.22,3.35,0,5,2-4.73-1.55-8.37-.79-11.12,2.86-.62.83-1.24.42-2,.11-6.37-2.74-10.3-1.55-14.13,4.07a23.75,23.75,0,0,0-3.29,6.16c-.39,1.26-.91,1.32-1.94.68-1.34-.84-2.75-1.58-4.17-2.29-3.5-1.75-3.62-3-.31-5.43a5.19,5.19,0,0,0-5.42-.16c-3.72,2-3.21,5.39-2.49,9a4.69,4.69,0,0,1-2.48-5.27c.08-.53.74-1.14.09-1.58s-1.3.12-1.82.49a7.74,7.74,0,0,0-3.34,6.9c0,1,0,1.95,0,3.5a78.66,78.66,0,0,1-8.93-10c-14.63-18.61-23-39.85-26.61-63.14A186.7,186.7,0,0,1,30,160.94q0-77.62,0-155.25c0-3.56,0-3.56,3.49-3.56H266.59c3.43,0,3.43,0,3.43,3.37q0,78.87,0,157.74c0,22.9-3.86,45-13.82,65.79a132.89,132.89,0,0,1-17.29,26.88c-1.79,2.18-3.84,1.92-6.07,1.71-1.23-.11-.87-.93-.66-1.64a16.55,16.55,0,0,0,.5-6.45,8.63,8.63,0,0,0-12-7.14c-.29.12-.73.31-.77.54-.16.79.63.83,1.08,1.13,3.74,2.49,4.45,4.87,2.52,9.1-1.23-2.63-2.64-4.93-5.6-5.59-.8-.18-1.74-.71-2.37-.06s.15,1.39.39,2.05c1.13,3.22.35,5.39-2.43,6.62-1.19.52-2.09.73-1.9-1.14a12.45,12.45,0,0,0-.73-4.67c-.4-1.41-1-1.85-2.1-.45-1,1.18-1.62,2.73-3.64,3.37,1.06-2.21,1.76-4.24,1-6.42-.18-.54-.19-1.25-.9-1.34s-.75.57-1,.95c-2.18,2.86-5.09,3.76-9,3.35a15.24,15.24,0,0,0,3.08-5.11,7.67,7.67,0,0,0,.18-3.71c-.28-1.27-.26-3.17-1.6-3.41s-1,1.82-1.71,2.69c-.15.19-.22.45-.36.65-.7,1-1.44,2.48-2.74,2.13-.93-.25-.17-1.77-.33-2.71-.1-.57-.07-1.16-.12-1.74,0-.42-.08-.9-.54-1s-.69.32-.94.63-.72.93-1.11,1.36c-3.13,3.43-3.4,3.44-6.72.28-3.11-2.94-8.41-2.91-12.17.07-4,3.16-4.06,3.18-5-2a59.81,59.81,0,0,1-1-8.44c-.79-21.94-.73-43.89-.47-65.84.1-8,2-15.37,8.27-21a18.83,18.83,0,0,1,5.82-3.35c1-.37,1.88-.38,2.35.69,4.12,9.45,11.89,10.1,20.57,8.59a4.85,4.85,0,0,1,.78,0c-1.83,3.83-2.57,7.75-1.34,11.82a14.66,14.66,0,0,0,7.62,9.16c6.74,3.43,13.52,1.59,19.62-5.43a23.07,23.07,0,0,0,11.15,13.12,31.43,31.43,0,0,1,9.2,6.83c1.06,1.15,2.26,1.61,2.53-.5.89-7,3.89-13.45,4.75-20.44,1.13-9.14-4.44-16.62-13.46-17.84-3.35-.45-3.35-.45-5.14-3.81.41-.57,1-.4,1.55-.32a48.44,48.44,0,0,0,15.43-.42c3-.5,6-.75,8.94-1.07,1.65-.17,2.37-.84,1.45-2.45-3-5.13-5.13-10.69-8.38-15.65-3.89-6-9.12-9.63-16.57-9.49-1.64,0-3,.9-4.6,1-.55.34-.53,0-.51-.41,8.92-4.43,11.76-12.68,13.43-21.59.59-3.18.55-6.47,1.28-9.65.42-1.84-.37-2.44-2.2-2.08A76.43,76.43,0,0,1,235,81c2.72-2.6,5-4.81,6.73-7.59C245,68,247,61.94,250.31,56.54c.67-1.07.4-1.92-1-2.12a1.09,1.09,0,0,0-.25,0c-6,.11-11.66-1.87-17.54-2.3-7-.53-13.68.43-19,6.19A32.79,32.79,0,0,0,209,50.61c-.08-1,.64-.77,1.17-.81C211.66,49.69,213.15,50,214.61,49.63Z"/><path class="cls-2" d="M181.58,80a36.61,36.61,0,0,1,6.9,1.1,8.5,8.5,0,0,1,4,2c.7.75,2.09,1.72.95,2.8-1,.92-2.15,2.27-4,.67-4.2-3.63-9.13-3.25-14-1.72A25.24,25.24,0,0,0,160,97.56a45.49,45.49,0,0,0-3.49,35.59c.32,1.07.47,2.29,1.63,3a4.9,4.9,0,0,0,1.36-2.89A58,58,0,0,1,163,122.81c1.08-2.19.62-3.5-1.1-5.08-4.25-3.9-5.3-8.51-3.25-13.07a15.31,15.31,0,0,1,4.81-6c4.06-3.07,8.31-5.89,11.65-9.81.68-.81,1.23-.85,1.44.33,1.12,6.15,3.8,11.92,4.27,18.23a22.57,22.57,0,0,1-.31,6c-1,5-4.34,7.7-9.53,7.77-4.37.06-4.39,0-5.82,4.18-.65,1.89-1.18,3.81-1.75,5.73-.15.54-.52,1.23.08,1.61.76.47,1.21-.32,1.62-.76a63.94,63.94,0,0,1,9.44-8.57c4.78-3.45,9.91-5.59,16-5.34,4.41.17,8.84-.18,13.26-.35,5.73-.21,12.08-5.66,13.24-11.28a2.32,2.32,0,0,0-.24-1.43C212.2,93.39,219.1,87.75,227,84.84c5.66-2.07,11.82-1.92,17.72-3,1.06-.2,1.33.33,1.22,1.28-.78,6.54-1.33,13.12-4.43,19.12-4.21,8.17-11.08,11.09-19.8,8.24-1.76-.57-2.64-.33-3.6,1.29-1.73,2.92-4.41,5-7.23,6.8-.59.39-1.6.79-1.2,1.64s1.34.14,2,0a39.44,39.44,0,0,1,14.63-1.07,4.82,4.82,0,0,0,3.94-1c8.77-7.28,17-3.61,22.51,3.53,3.65,4.7,5.86,10.41,8.49,16-6.82,1-13.36,2.24-20.09,2-8.57-.34-14.1-5.55-14.37-14.1-.08-2.48-1.09-3.17-3.21-3.22a44.91,44.91,0,0,0-9,.18c-.54.1-1.27.12-1.46.8-.24.84.52,1.14,1.06,1.46A72.23,72.23,0,0,1,236.77,146a3.09,3.09,0,0,0,2.82,1.2c5.6.21,10.13,2.28,12.31,7.77,1.52,3.83,1.26,7.91.43,11.83-.94,4.48-2.39,8.84-3.49,13.29-.39,1.6-.94,1.5-1.92.56a39.57,39.57,0,0,0-8.24-5.61c-9.69-5.54-12.3-14.74-6.73-24.44a4.65,4.65,0,0,0,0-5.47,45.81,45.81,0,0,0-9.68-10.59c.26,3.29,1.38,6.05.67,9-2.07-.45-3.26-1.37-3.22-3.66a8.32,8.32,0,0,0-2.11-5.26c-7-8.66-15.9-13.54-27.3-13a21.17,21.17,0,0,0-9.83,3.4,39.86,39.86,0,0,0-10.75,9.63c-.54.68-1.28,1.34-1,2.55,1.25-.09,2.09-.94,3-1.51a23.5,23.5,0,0,1,8.12-3.08,3.27,3.27,0,0,0,2.86-2c2.73-6.52,7.72-8.73,14.51-6.64a18,18,0,0,1,8.76,6.39c1.39,1.76,2.61,3.66,4,5.44s2.73,3.34,4.46,5.44c-4.33.08-7.43,2.43-10.87,4.14a19.42,19.42,0,0,1-13.44,1.25c-4.22-1-7.2-3.45-8.36-7.72-.51-1.87-1.32-2.34-3.22-1.83-6.54,1.75-10.79,6.07-13.67,11.93A27.29,27.29,0,0,0,162,160.8c-.28,22-.29,44.07.09,66.11a52.48,52.48,0,0,0,2,14.83,16.69,16.69,0,0,0,1.19,3c1,1.89,1.75,1.92,3,.16a11,11,0,0,1,5.4-4.63,6.85,6.85,0,0,1,6.77.86c-.93.74-1.94.48-2.85.56-3.43.3-6.29,4.31-5.44,7.61.3,1.14.93.85,1.37.27,2.08-2.8,5.16-3.54,8.31-4a22.22,22.22,0,0,0,7.71-2.91c-2.41,4.19-7.86,4.42-10.66,8.21,5.74-2.93,12.27-4,17.79-7.92-.85,6.79-7.13,6.34-11.23,8.91a81.47,81.47,0,0,1,9.51,0,15.87,15.87,0,0,0,9.43-2.08c-1,3.93-4.25,4.26-6.71,5.73a13.05,13.05,0,0,0,9.73-1.16c.68-.36,1.41-1.55,2.08-.78s.3,2-.31,3-2.2,1.12-3,2.17c5.25,2.41,11.38-1.61,12.65-8.23,3,1.46,3.47,6.14.76,8.45-.57.48-1.24.84-1.84,1.29s-1.43.7-.92,1.45c.41.6,1.22.16,1.83-.13a13.34,13.34,0,0,0,6.13-17.5c3.19-.13,5.5,2,5.91,5.64a13.68,13.68,0,0,1-2.42,10.2c-.82,1.08-1.88,2.09-2.18,3.93,3.14-1.61,5.16-5,9.78-4.14-2.43,2.3-4.48,4.33-6.62,6.25-26.52,23.88-57.55,34.28-93,30.3-24.76-2.78-46.31-13.09-64.76-29.82-2.06-1.86-2.82-7.41-1.15-11.22.9,4.6,4.2,5.7,7.57,6.79a7,7,0,0,1,3,2.19c.3.34.6.93,1.18.45s.23-.91,0-1.35a11,11,0,0,0-2.58-2.7,9.52,9.52,0,0,1-3.11-5c-.4-1.83.3-3.13,2-4.83-.34,3.77,1.72,5.12,4.16,6.27,3.2,1.5,6.3,3.17,7.61,6.77.34-.17.6-.22.61-.31.48-3.74,2.75-5,6.28-4.7,1.44.12,2.8-.39,2.72-2.17s-1.45-2.25-3-2.25-3,.73-4.62,1.22c1-3.08,1.25-3.17,9-3.83-1.33-2.36-3.78-1.28-5.5-2.06,2-2.58,5.35-3.33,8.71-2a20,20,0,0,1,5,3.3,39.24,39.24,0,0,0,3.62,2.67,4.43,4.43,0,0,0,4.75.13c1.11-.65,1.15-1.75.94-2.88a3.83,3.83,0,0,0-3.44-3.15c-1.38-.26-2.79-.37-4.19-.54,1-2.27,3.77-3.21,6.66-2.16a13,13,0,0,1,4.65,2.86c.45.43.85,1.32,1.58.92.89-.49.27-1.38.1-2a10.73,10.73,0,0,0-3.89-6c-.57-.44-1.12-.89-1.92-1.53,3.91-1.23,6.73.06,9.22,3l.84-2.86a9.81,9.81,0,0,1,3.24,5.38c.49,1.91.61,3.9,1.17,6,2.3-5.21,7.78-6.26,11.61-9.4.43-.35.87-1,1.51-.63s.36,1,.39,1.58a5.9,5.9,0,0,1-1.89,4.71c-.92.93-1.76,1.94-2.69,3,1.28.64,2.16-.07,3-.39a10.84,10.84,0,0,1,7.11-.19c3.28,1,4.14,2.89,3,6.14-.23.66-.91,1.25-.47,2.23,2-.88,2.49-2.55,2.51-4.4a5,5,0,0,0-2.95-4.82c-2.22-1.12-4.72-.88-7.17-1.58,1.24-3.59,1.93-7.12-1.37-10.32-1.58,5.34-6.84,5.79-10.21,8.68-.86-1-.1-1.38.11-1.82a35.48,35.48,0,0,0,3.11-14.55c.28-21.95-.07-43.9-.35-65.85a33.2,33.2,0,0,0-9.47-23.53,13.38,13.38,0,0,0-6.25-4c-1.1-.29-2-.31-2.56,1.13-3.07,8.45-9.93,10-18,8.13-4.68-1.07-9-3.66-13.89-3.93-1-.06-.8-.64-.38-1.19,3.3-4.29,5.79-9.18,9.79-13a16.56,16.56,0,0,1,10.82-4.57,10.55,10.55,0,0,1,10.27,5.86,7.73,7.73,0,0,0,4.39,3.77,22.18,22.18,0,0,1,8.5,5.57c.6.62,1.1,1.5,2.33,1.4a4,4,0,0,0-.07-1.21C128.32,126,120.67,119.53,107,120c-7.48.26-14.12,3.16-20.07,7.51-4.26,3.11-6.73,7.41-6.42,12.86.1,1.82-.75,2.33-2.47,2.59a53.49,53.49,0,0,1,.57-8.71c.1-.49.41-1,0-1.41s-1.08,0-1.55.36a43.33,43.33,0,0,0-10.45,11.68c-.77,1.21,0,2,.61,2.91,1.72,2.45,3.13,4.88,3.39,8.12.44,5.28-1.68,9.28-5.14,12.73s-7.13,6.54-10.69,9.81c-.51.46-1,.75-1.37,0-3.24-5.91-8.27-11.08-7.57-18.61A22,22,0,0,1,48.29,151c2.56-4.66,6.7-6.57,11.84-6.39a4.05,4.05,0,0,0,3.81-1.83c5.71-8,13-14.27,21.11-19.7.71-.47,1.89-.82,1.65-1.93-.2-1-1.28-1.19-2.11-1.58a11.08,11.08,0,0,0-6.11-.88c-3.63.44-4.53,1.44-4.67,5-.3,7.94-5.72,13.32-14.53,14.38-5,.59-10,.44-14.91,1.57-.73.16-1.62.32-1.33-1,1.52-7,2.71-14.08,7.52-19.87,5.71-6.85,12.52-8.14,20.12-3.52a5.51,5.51,0,0,0,4.42.9,23.6,23.6,0,0,1,16,2.25c.82.4,2.12,1.39,2.65.39s-1-1.5-1.79-2a40.81,40.81,0,0,1-8.61-6.38,2.7,2.7,0,0,0-3.18-.6,24.62,24.62,0,0,1-4.32,1.22c-5.79.84-10.39-2-12.68-7.85-1.71-4.37-2.11-9.07-3.26-13.59a46.72,46.72,0,0,0-1.17-4.59c-.57-1.57-.58-2.22,1.45-2,4.48.44,9,.55,13.47,1a19.34,19.34,0,0,1,11.1,5.29c4.11,3.7,4.94,8.3,2.12,14.14-1.31,2.7-.73,4.42,1,6.42,3.77,4.32,8.24,6.86,14.16,6.74,4.49-.09,9,0,13.5.36,6.27.45,10.78,4,14.5,8.81a57.08,57.08,0,0,1,4.49,7.21c.23.41.4,1.06,1,1s.83-.8.8-1.34a56,56,0,0,0-2.3-12.5c-.23-.81-.84-1-1.54-1-4.19-.15-8.2-.77-10.75-4.68-2.89-4.43-2.84-9.33-2-14.25.79-4.53,2.87-8.69,4.14-13.08.39-1.33,1-1,1.76-.41,3.89,3,7.91,5.87,11.65,9.06a14,14,0,0,1,1.19,20.3,3.72,3.72,0,0,0-1,4,58.42,58.42,0,0,1,2.5,15.76c0,.65-.09,1.46.83,1.55s1-.65,1.25-1.29c5.8-16.36,4.83-32-5.42-46.41-5.61-7.89-13.22-9.76-22-5.75-2.08.95-3.25,0-4.76-1.09,1.32-1.6,3.3-1.9,4.92-2.81.62-.35,1.64-.55,1.4-1.48s-1.15-.39-1.74-.4c-7.34-.1-14.7.15-22-.71a2.4,2.4,0,0,0-2.3,1C83.44,86,73.89,84.79,69.06,75.9c-3-5.46-5.55-11.16-9.9-16.57,7.34-.39,13.06-4.9,20-4.78,9.47.18,15,5.86,14.91,15.31-.07,4.33-.06,4.27,4.31,4.76a123.32,123.32,0,0,0,17.51.3,18.6,18.6,0,0,1,10.69,2.85c.45.28.84,1,1.49.43s.32-1,0-1.56c-3.22-5.59-2.32-11.63-1.89-17.6.28-3.83.74-7.65-.28-11.44a13.54,13.54,0,0,0-2.13-4.49c-3.16-4.35-6.85-4.17-9.57.5-.47.81-.74,1.59-2,1.43-1.57-.21-2.23-.78-1.76-2.44a8.27,8.27,0,0,1,5.91-5.9c.62-.19,1.48-.19,1.61-1s-.65-1.29-1.28-1.69a18.44,18.44,0,0,0-10.28-2.55c-1.22,0-1.61.66-1.43,1.79.1.66.2,1.32.26,2,.81,9.08-5.46,14.52-14.39,12.49-.65-.15-1.3-.32-1.94-.5-5.91-1.61-11.63-4-18.35-4.23,4.13-5.64,6.46-11.91,11-16.8a20.36,20.36,0,0,1,9.73-6.29c5-1.32,8.73.61,11.56,4.44a7.28,7.28,0,0,0,5.59,3.07c11.78,1.32,19.32,9.34,20.09,21.18,0,.42,0,.84.09,1.25s.06,1.32.72,1.42.92-.63,1-1.18c.56-2.43,1-4.89,1.64-7.31.43-1.71-.65-2.64-1.66-3.63-2.35-2.31-4.32-4.76-4.68-8.28a9.87,9.87,0,0,1,2.12-7.47,32.12,32.12,0,0,1,8.77-7.36c3.32-2.07,6.74-4,10.16-5.9.53-.3,1.5-1.4,1.73.35.85,6.34,2.56,12.57,1.63,19.1-1.17,8.22-4.37,11.69-12.61,13-.58.09-1.24.11-1.56.65a17.24,17.24,0,0,0-2.78,8.84c1.37-.34,1.7-1.37,2.26-2.09,3-3.85,7.18-5.41,10.93-4.08s6.29,5.42,6.25,10.19c0,1,0,1.73-1.4,1.76s-1.59-.58-1.66-1.63c-.47-7.25-5.21-8.54-10.91-4.37-4.71,3.44-5.81,8.59-5.9,14s1.27,10.37,5.07,14.5c1.58,1.71,2.93,3.63,4.34,5.5,4,5.28,6.93,11,7.29,17.76,0,.62-.15,1.58.73,1.62s.94-.89,1.09-1.5a33.44,33.44,0,0,1,1.91-5.94,32.66,32.66,0,0,1,10.2-13.07,58.8,58.8,0,0,0,8.7-7.51c3.13-3.52,5.49-7.34,4.56-12.41-.31-1.66-1-2-2.55-1.63-9.65,2.36-15.19-1.18-17.16-10.94-.91-4.47-1.77-9-2.68-13.61,5.17-.07,10.27-.15,15.25,1A15.24,15.24,0,0,1,181,54.42c0,.34.1.75-.06,1-2,3.15-1.42,6.35-.45,9.67a7.29,7.29,0,0,1-.6,4.65c-.27.7-1,1.39-.23,2.4,1.45-.8,1.87-2.24,2.46-3.57s-.72-2.89.78-4A14.11,14.11,0,0,0,184.49,68c1.48,1.79.76,2.92-.72,4.08-1.24,1-2.42,2-3.57,3,.12.86.75.82,1.17.83,7.41.18,14.84.73,22.2-.7a24.24,24.24,0,0,0,2.91-.72c5.09-1.62,5.18-1.76,5-7.13-.18-7,5.64-12.74,13.56-13.21a37.33,37.33,0,0,1,12.41,1,61.83,61.83,0,0,0,10.31,1.62c-3.89,7.26-6,15.32-12.13,21-6.8,6.32-14.86,6.08-21.52-.43a2.59,2.59,0,0,0-3-.76c-6.8,2.11-13.73,3.47-20.91,3-2.63-.39-5.27-.09-7.91-.17C181.86,79.34,181.42,79.39,181.58,80Z"/><path class="cls-2" d="M182.52,55.48c-.54-3.47,1.33-6.67,1.1-10.11-.33-4.86-3.87-7.52-7.09-10.38-.6-.53-1.27,0-1.88.23-1.41.48-2.79,1.1-4.23,1.5-4.75,1.33-8.68.15-11.54-3.77a45.34,45.34,0,0,1-8.53-21.84c-.11-1-.27-2,1.25-1.57,5.51,1.43,11.28,1.1,16.8,2.46,6.26,1.54,10.85,4.93,12.37,11.58a7.79,7.79,0,0,1-.25,4.69c-1,2.43-.25,4.1,1.43,5.92,2.83,3.07,2.75,3.2,5.2,0,2.59-3.39,5.85-5.43,10.22-5.24a5.12,5.12,0,0,0,4-1.63c6.77-6.33,13-6.55,20.27-.8,5,3.95,8.08,9.48,11.74,14.53.68.93.18,1.31-.8,1.43-3.92.48-7.55,1.94-11.19,3.37a29.9,29.9,0,0,1-9.24,2c-7.48.42-12.41-3.88-13.06-11.36-.12-1.42.6-3.48-1.06-4s-3.58.27-5.13,1.35a5.28,5.28,0,0,0-1,.81c-1,1.19-2.84,2.33-2.51,3.79.28,1.26,2.37.59,3.64.79a5.11,5.11,0,0,1,4.56,4.3c.16.7.45,1.59-.72,1.73-.78.09-1.77.38-2-.82-.46-2-1.71-2.79-3.68-2.32s-2.71,2.08-2.61,4a3.9,3.9,0,0,1-1.35,3.29A16.67,16.67,0,0,0,183,56C182.55,56.1,182.24,56,182.52,55.48Z"/><path class="cls-2" d="M113.58,71.61c1-2.26,1-4.52,2.32-6.51-3.33,3.12-6.91,4.57-11.4,2.63,2.2,2.06,5,2.7,7.15,4.45-5.91,2.18-13-1.43-15.46-7.93a13.15,13.15,0,0,1,24.33-10C123.47,61.14,120.62,68.47,113.58,71.61Z"/><path class="cls-2" d="M210.2,60.48A13.38,13.38,0,0,1,197,73.72c-8.06.09-13.18-8-13.09-13.41A13.47,13.47,0,0,1,197.29,47C204.34,47,210.22,53.19,210.2,60.48Z"/><path class="cls-2" d="M212.09,100.18a13.31,13.31,0,0,1-12.87,13.26,13.61,13.61,0,0,1-13.42-13.27c-.19-7,6.17-13.46,13.13-13.37A13.62,13.62,0,0,1,212.09,100.18Z"/><path class="cls-2" d="M104,110.64a13.19,13.19,0,0,1-.22-26.38,13.59,13.59,0,0,1,13.59,13.16A13.17,13.17,0,0,1,104,110.64Z"/><path class="cls-2" d="M158.54,79.82c-4.35.62-4.35.62-6.68-4.81-1,1.57-.42,3.84-2.3,4.75-1.73.84-3.64,0-5.55.46.84,1.48,2.32,1.07,3.51,1.22,1,.14,1.92.19,2.36,1.37.33.84,1,1.57.26,2.51s-1.71.38-2.5.08a13.74,13.74,0,0,1-8.14-16.8c1.84-6.38,8.94-10.15,16-8.53,6,1.39,10.47,8.31,9.53,14.88A13.51,13.51,0,0,1,154,86.05c-.76.09-1.84.55-2.23-.41s.14-1.67,1.06-2.26a10.4,10.4,0,0,1,3.71-1.95A2.26,2.26,0,0,0,158.54,79.82Z"/><path class="cls-2" d="M98.51,156.14A13.09,13.09,0,1,1,85.57,143,13.06,13.06,0,0,1,98.51,156.14Z"/><path class="cls-2" d="M201.49,156.16a13.09,13.09,0,1,1,13,13.08A13,13,0,0,1,201.49,156.16Z"/><path class="cls-1" d="M194.72,81.7a69,69,0,0,0,16.29-3c1.2-.37,1.86.37,2.61,1,2.4,2.11,4.91,4,8.49,4.68-3.71,2.68-6.91,5.72-8.59,10.32-2.06-3.23-3.89-6.18-7-8a13.85,13.85,0,0,0-7.66-1.92C196.67,84.89,195.4,84.14,194.72,81.7Z"/><path class="cls-1" d="M185.58,116.07l-4,1.13c2.95-8.54.39-16.33-2-24.13a6.33,6.33,0,0,1-.35-1.46c-.14-1.8-1.76-3.77-.11-5.35,1.28-1.23,7.36.28,8.73,1.73.93,1,0,1.51-.42,2.1A16,16,0,0,0,184,98.54c-.66,8.09,3.47,13.82,12,16.71-.36,1.25-1.37.58-2.05.62C191.18,116.05,188.37,115.68,185.58,116.07Z"/><path class="cls-1" d="M136.52,75c-1.92-4.09-1.89-8.45-1.46-12.76a12.29,12.29,0,0,1,6.83-10.13c2.35-1.21,4.14-.67,5.1,1.3,1.24,2.57.76,4.33-1.48,5.61-6,3.42-8.85,8.59-8.46,15.51C137.18,75.06,137,75.19,136.52,75Z"/><path class="cls-1" d="M119.79,115.46c-6.1-1.5-12-.66-17.88-.86-4.82-.16-8.53-2.19-11.8-5.58-1.9-2-2.18-3.75-.41-6,2.72,5.21,6.48,9,12.64,9.62,6,.6,10.65-1.79,14.71-6.62C117.66,109.42,118.21,112.49,119.79,115.46Z"/><path class="cls-1" d="M108.78,80.43a3.61,3.61,0,0,1-3,1.6c-7.28-.13-12.68,2.87-16,9.75a28.38,28.38,0,0,0-6.67-6.52,20.6,20.6,0,0,0,9.15-5.55,1,1,0,0,1,.71-.19C98.11,79.8,103.23,80.1,108.78,80.43Z"/><path class="cls-3" d="M154.08,52c-1.37-4.74-4.54-7.6-10-8.89,6.23-3.94,8-9.73,8.52-16.32,2.07,3.33,3.93,6.64,6.81,9.57-2.18.46-3.85-.08-5.55-.31-2.45-.33-3,.23-2,2.55A46.12,46.12,0,0,1,154.55,51C154.76,51.49,155,52,154.08,52Z"/><path class="cls-3" d="M166.21,79.49a26.78,26.78,0,0,0,1-8.55c0-1.61-1.74-3.44-.43-4.53,1-.8,3-.29,4.59-.39.41,0,.82-.12,1.23-.19,2.18-.37,2.77.14,2.31,2.3C173.8,73.22,170.23,76.47,166.21,79.49Z"/><path class="cls-3" d="M82.61,141.55C81.68,134,87.2,128,95.23,125.47,90.56,130.32,88.3,137.05,82.61,141.55Z"/><path class="cls-3" d="M123.52,57.52a14.72,14.72,0,0,0-6.15-10.46c-1.09-.75-2.52-1.18-1.15-3s3-2.54,4.62-1.57a5.24,5.24,0,0,1,1.77,2C125.21,49.13,125,54,124.37,59,123.07,59.08,124.1,57.82,123.52,57.52Z"/><path class="cls-3" d="M71.68,150.89c-1-1.69-1.83-2.94-2.57-4.22a2,2,0,0,1,0-2.36c2-2.5,3.85-5.16,6.71-7.46.34,2.73,1,5.29.1,7.51S72.56,148,71.68,150.89Z"/><path class="cls-3" d="M145.58,87c4,1.08,7.39,1.55,11.58.5a47.64,47.64,0,0,0-6.25,10.57C149.22,94.14,148.17,90.57,145.58,87Z"/><path class="cls-3" d="M233.67,112.76l.51.41c-4.85,4.4-10.71,3.87-16.56,3.42,1.78-3.75,2.35-4.1,6.23-3.34A19.58,19.58,0,0,0,233.67,112.76Z"/><path class="cls-3" d="M156.79,114.91c1.48,1.74,2.89,3.41,4.32,5.07.48.55.2,1.07,0,1.61l-2.83,8.24C156.65,127.7,155.76,119,156.79,114.91Z"/><path class="cls-4" d="M119.16,94.06A23,23,0,0,0,115.41,87c-.42-.49-.27-.91.23-1.24.21-.13.43-.24.65-.36,1.78-1,4.15-2.26,5.57-1.34s-.12,3.33-.55,5A13.49,13.49,0,0,1,119.16,94.06Z"/><path class="cls-3" d="M141.68,129.62c-.48-2.36-.63-4.85-1.5-7.06-1.49-3.77.48-6.11,2.77-8.51C144.28,117,143.52,126.27,141.68,129.62Z"/><path class="cls-4" d="M114.35,35.26a9.48,9.48,0,0,0-5.67,7.52,1.61,1.61,0,0,1-2.21,1.38c-1.1-.41-.06-1.28.12-1.86a19.4,19.4,0,0,0,.73-6.89c-.06-1.55.51-2.11,2-1.91A10,10,0,0,1,114.35,35.26Z"/><path class="cls-5" d="M185.58,116.07c2.06-.89,4.23-.22,6.33-.43,1.37-.13,2.8.34,4.12-.39,8,1.54,12.93-1.56,17.91-11.36,1.15,1.21.78,2.41.24,3.62-2.48,5.57-6.69,8.53-12.87,8.53C196.07,116,190.82,116.06,185.58,116.07Z"/><path class="cls-4" d="M228.92,151.85a27.27,27.27,0,0,0-3.71-6c-1.36-1.63.2-3.49.25-5.41a17,17,0,0,1,5.43,7.35C231.28,149,229.81,150.23,228.92,151.85Z"/><path class="cls-4" d="M123.93,62.08c.1,3.55-.31,7.13.58,10.64.21.86.21,1.5-1.05,1.15-1.91-.53-3.84-.93-6.32-1.53,3.57-2.76,5.8-6,6.36-10.24C123.63,61.74,123.78,61.73,123.93,62.08Z"/><path class="cls-6" d="M217.65,140.59c-4.38-2.87-6.77-7.1-9.7-11.16C211.85,129.89,217.6,136.47,217.65,140.59Z"/><path class="cls-5" d="M75.62,127.33c.14-1.85.17-3.32.39-4.77.32-2.06,2.1-1.83,3.51-1.91s3.07-.45,3.52.89c.31.94-1.47,1.54-2.36,2.22C79.18,124.92,77.59,126,75.62,127.33Z"/><path class="cls-7" d="M181.41,46.29a23.65,23.65,0,0,0-8.33-7.71c2.12-2,2.74-2,4.5-.24a17,17,0,0,1,3.79,5.22A2.5,2.5,0,0,1,181.41,46.29Z"/><path class="cls-6" d="M117.9,123.69A19.48,19.48,0,0,1,128,131.93C123,130.55,119.82,127.9,117.9,123.69Z"/><path class="cls-7" d="M218,124.4c7.52-.48,6.65-.73,7,5.08Z"/><path class="cls-8" d="M83.06,113.31c-3.62-.17-7.19,1-10.78.22C75.9,113.9,79.43,110.77,83.06,113.31Z"/><path class="cls-9" d="M163.94,95.37c1.85-2.87,4.15-5.25,7.57-6.28C169.57,91.85,166.84,93.68,163.94,95.37Z"/><path class="cls-10" d="M182.52,55.48,183,56a21.41,21.41,0,0,0-.06,8.55c-.75,1.23.15,2.78-.78,4,0-2.52.12-5-.93-7.49C180.45,59.21,182.07,57.36,182.52,55.48Z"/><path class="cls-11" d="M112.8,249.27c1.48.16,2.9.26,3.75,1.62.29.47.28,1.1-.3,1.23a4.88,4.88,0,0,1-3.9-1.12c-.42-.3-1.23-.47-1-1.2S112.35,249.41,112.8,249.27Z"/><path class="cls-12" d="M197.18,36.64c-.18.68.29,1.86-.81,1.39s-3.08-.17-3.21-1.61c-.09-1,1.53-1.73,2.68-1.82C197.42,34.48,196.77,36,197.18,36.64Z"/><path class="cls-13" d="M181.31,127.11c.05,4.21-3,3.54-5.94,4.27C177.52,129.49,179.08,128.05,181.31,127.11Z"/><path class="cls-14" d="M101.93,73.69c-2.06-.54-3.47-.88-4.87-1.27a1.41,1.41,0,0,1-1-1.74c.06-.38.14-1,.39-1.08.8-.38,1.07.5,1.55.87C99.14,71.37,100.25,72.31,101.93,73.69Z"/><path class="cls-8" d="M129.28,121.28c3.27-.31,3.88.48,4.07,4.71C131.67,124.73,130.91,122.92,129.28,121.28Z"/><path class="cls-15" d="M134,90.49c-1.83-1.42-3.67-2.82-5.5-4.25a1.79,1.79,0,0,1-.65-1A13.3,13.3,0,0,1,134.49,90Z"/><path class="cls-16" d="M189.78,73.71a3.9,3.9,0,0,1-2.57.35c-.54,0-1.24.13-1.44-.59-.06-.22.24-.58.46-.81.41-.44.91-.75,1.52-.35S189,73.14,189.78,73.71Z"/><path class="cls-17" d="M167.22,126.77c.21-3.11.67-3.57,3.18-3.33C169.65,124.85,168.39,125.58,167.22,126.77Z"/><path class="cls-18" d="M181.58,80c-.4,0-.93.24-1.06-.26s.44-.58.8-.58c3,0,5.93-.3,8.87.35C187.34,80.09,184.4,79,181.58,80Z"/><path class="cls-19" d="M154.92,52.58c.37,1.27.77,2.53,1.08,3.82.12.49.79,1.22,0,1.49s-.91-.67-1.14-1.25a10.88,10.88,0,0,1-.44-3.44C154.19,52.67,154.44,52.53,154.92,52.58Z"/><path class="cls-20" d="M191.73,44c.7,0,1.09.32,1.1.86,0,.82-.62,1.07-1.31,1.16s-1-.12-.93-.77A1.29,1.29,0,0,1,191.73,44Z"/><path class="cls-21" d="M214.61,49.63c-1.73,1.08-3.89-.24-5.6,1-.6-.9.07-1,.68-1C211.33,49.6,213,49.62,214.61,49.63Z"/><path class="cls-22" d="M123.93,62.08h-.21l-.22,0c0-1.53,0-3.05,0-4.58l.85,1.43A6.8,6.8,0,0,1,123.93,62.08Z"/><path class="cls-23" d="M152.85,81.31a1,1,0,0,1-1,.88c-.64,0-1.15-.29-1.13-.94s.54-.74,1.06-.74S152.75,80.7,152.85,81.31Z"/><path class="cls-24" d="M111.16,70c.12-.61.68-.77,1.2-.95.34-.12.74,0,.78.33a1.05,1.05,0,0,1-1,1.2A.82.82,0,0,1,111.16,70Z"/><path class="cls-25" d="M177.54,244.35l-2.14,1c-.2-1.14.48-1.28,1-1.51S177.58,243.36,177.54,244.35Z"/><path class="cls-26" d="M95.51,256.94a6.57,6.57,0,0,1-3,.47,3.3,3.3,0,0,1,2.41-1C95.14,256.6,95.46,256.61,95.51,256.94Z"/><path class="cls-27" d="M177.54,244.35l-1.1-.56a7.55,7.55,0,0,1,1.15-.41c.37-.06,1-.2,1,.26C178.69,244.27,178,244.25,177.54,244.35Z"/><path class="cls-28" d="M208.56,71.14s-.22-.31-.15-.42a2.53,2.53,0,0,1,.75-.84c.33-.21.39.15.39.36C209.56,70.7,209.28,71,208.56,71.14Z"/><path class="cls-29" d="M130.19,41.82l-.33.48a6.56,6.56,0,0,1-.54-.73.46.46,0,0,1,.13-.38C129.87,41.09,130,41.44,130.19,41.82Z"/><path class="cls-30" d="M138.09,44.44l.43.36a6.44,6.44,0,0,1-.78.5c-.06,0-.32-.16-.34-.27C137.31,44.57,137.69,44.53,138.09,44.44Z"/><path class="cls-31" d="M136.52,75l.53-.47c.31.45.73,1.09.19,1.41C136.87,76.2,136.63,75.48,136.52,75Z"/><path class="cls-6" d="M95.51,256.94l-.58-.49a3.69,3.69,0,0,1,2.13,0C96.64,257.13,96,256.91,95.51,256.94Z"/><path class="cls-32" d="M154.92,52.58l-.51.62L154.08,52c.16-.35.31-.69.47-1A2.21,2.21,0,0,1,154.92,52.58Z"/><path class="cls-33" d="M239.1,132.53a1,1,0,0,1-1.22-.56c-1.81-3.42-4.45-6.22-7-9.11-.3-.36-.82-.7-.57-1.27s.85-.46,1.32-.42c4.06.33,8.13.29,12.25.23-2,2-4.8.92-7.28,2,2.09,1.23,4.12,2.3,6,3.58s3.9,2.46,5.11,4.61c-4.16-1.74-7.61-4.79-12.24-6.51C236.7,127.83,238.8,129.79,239.1,132.53Z"/><path class="cls-34" d="M92,27.9c3.21.78,6.43,1.56,9.64,2.36.81.2,1.22.71.61,1.43-2.34,2.75-4.73,5.46-7.35,8,.53-2.55,2.54-4.18,3.83-6.58-6,.63-11,3.87-16.64,4.83,4.68-3.12,10-4.71,15.54-6.42C95.68,30,93.15,30.19,92,27.9Z"/><path class="cls-34" d="M85.52,71.73c-.7-2.33-2.84-3.45-2.09-6,2.2,2.86,4.41,5.7,6.57,8.58.45.61-.07,1-.59,1a45.12,45.12,0,0,1-12-.49c2.23-1.52,4.79-.56,7.52-1.22-4-2.66-8.31-4.08-11.73-7C77.59,67.32,81.14,70,85.52,71.73Z"/><path class="cls-33" d="M235.29,90.66c-3.27,3.13-7.26,5.4-10.68,9.41,2.5-.62,4.34-1.1,6.19-1.51.54-.12,1.31-.26,1.5.45s-.67.88-1.14,1A53.87,53.87,0,0,0,222.7,103c-1,.49-1.57,0-1.61-1.09-.13-3.67,1.42-6.66,3.75-9.36.42,2.37-1.63,4.1-1.63,6.62C226.88,95.52,230.28,91.91,235.29,90.66Z"/><path class="cls-34" d="M112.69,132.24c-1.82-1.92-4.46-1.84-5.94-3.78,2.43-.43,8.13,2.3,10.87,5.15l-11.55,5.31c1.6-2.88,4.19-3.33,6.39-5.08-4.65-.27-8.72,1.12-12.9,1C103.53,132.46,108,132.72,112.69,132.24Z"/><path class="cls-34" d="M243.3,169.61c-1.47-3.78-1.66-7.89-3.38-11.71-1.33,1.78-.57,4.35-2.83,6.15a94.29,94.29,0,0,0,1.13-10.91c0-1.31.84-.95,1.48-.37a52.67,52.67,0,0,0,8,5.75c-2.6,1-4.07-.93-6.14-1.59C242.86,161.22,243.77,165.32,243.3,169.61Z"/><path class="cls-35" d="M227.87,73c-3.86.65-7.6,0-11.32-.5-.8-.12-.59-.92-.19-1.39,2.31-2.73,3.86-6,6-8.87.14,2.69-1.66,4.7-2.68,7.35,4.43-1.69,8.25-4.06,12.64-5.09-3.39,2.85-7.76,4.1-11.66,6.73C223.27,72,225.75,71.73,227.87,73Z"/><path class="cls-33" d="M79.3,100.28c.27-2-.23-3.65.63-5.2a24.93,24.93,0,0,1,1.56,9.34c0,.52-.36.72-.85.5-3.15-1.45-6.67-1.7-9.9-3.07,2.39-1.27,4.72.45,7.64.09L68.8,91.58l.49-.51C73.28,93.2,75.71,97.15,79.3,100.28Z"/><path class="cls-34" d="M172.34,101.22c-.46,4-3,7.57-3,12.1,1.92-1.49,3.53-2.87,5.85-3.17l-9.08,8.41c-.09-4.52-1.35-8.3-2.32-12.66,2.52,1.83,2.22,4.51,3.59,6.66C168.71,108.48,169.68,104.48,172.34,101.22Z"/><path class="cls-34" d="M174.58,55.89c-.26-2.66-1.88-4.44-2.32-7.29a10.22,10.22,0,0,1,3.24,5.26c.58,1.78,2.14,4.07,1.07,5.33s-3.28-.53-5-.95a18.9,18.9,0,0,1-6.17-2.1c2.49-1.23,4.54.43,7.12.26l-8.72-8c1.92.16,2.55.49,5.6,3C171.06,52.78,172.65,54.22,174.58,55.89Z"/><path class="cls-34" d="M124.62,109.17c2.58-.32,3.81,1.73,5.93,2.92-.72-4-2.7-7.46-2.34-11.42,1.88,3.31,2.3,7.23,4.26,10.78,1.2-1.87.54-4.1,2.7-5.92-.54,3.82-1,7-1.48,10.24-.14.89-.62,1.1-1.35.43Z"/><path class="cls-33" d="M67.46,122.49c-4.56,1.77-8.17,4.44-12.29,6.13,2.72-3.16,6.47-4.83,10.27-7.26l-6.28-1.09c2.16-1.27,3.8-.74,5.36-.77,1.25,0,2.5.07,3.75.15,2.47.14,2.66.51,1.33,2.6L65,129.43C64.48,126.51,66.49,125,67.46,122.49Z"/><path class="cls-35" d="M53.86,154.31a23.45,23.45,0,0,1,8-6.36c.54-.29,1-.09,1,.6,0,3.22-.1,6.44,1.2,9.54-2.6-1.28-1.65-4-2.83-6.05-2.57,3.27-3.24,7.33-5.49,10.6-.09-3.91,2.4-7.06,3.28-10.85C57,152.4,56,154.37,53.86,154.31Z"/><path class="cls-35" d="M134.64,39a37.66,37.66,0,0,1-1.86-13l.61-.1,1.39,8.63c2.19-4.5,3.7-8.59,6.48-12-.8,4.13-3.43,7.6-4.51,12,2.25-.83,3.79-2.37,6-2.44C140.13,34.44,137.21,36.22,134.64,39Z"/><path class="cls-34" d="M190.08,133.44c3.4,1.09,6.86,1.54,9.88,3.37-3.47.47-6.56-1.49-10.21-1.69,1,1.65,3.08,2,3.22,4.11-2.63-2.18-5.81-3.37-9.17-5.2,3.68-1.77,7-2.92,10.44-5.21C193.59,131.62,191,131.69,190.08,133.44Z"/><path class="cls-34" d="M213.56,29.31c-2,1.62-4.6.81-7.09,1.93,3.91,1.17,7.75,1.73,10.69,4.43-3.64-.15-6.85-2-10.54-2.62,1.27,2.54,3.59,4.27,3.81,7.24l-7.49-8.1c-.69-.75-.28-1.22.45-1.48A21.49,21.49,0,0,1,213.56,29.31Z"/><path class="cls-35" d="M164.78,29.58h5.61c-3.12-2.69-5.85-4.91-7.71-7.91l.43-.51,7.79,6.77c.77-2-.89-3.74.44-5.95a55.38,55.38,0,0,0,4,10.13,97.17,97.17,0,0,1-10.62-1.76Z"/><path class="cls-36" d="M192.05,71.7c-2.29-1.5-3.26-4.2-5.42-5.92,2.21.21,3.75,1.94,5.91,2.2s3.89-1.11,6-1.48c-.08,1.68-2,1.52-2.34,2.74.12.13.2.28.32.34.76.36,2.27-.51,2.29.71,0,1-1.45.71-2.31.79a3.36,3.36,0,0,0-1.88.52A4.06,4.06,0,0,1,192.05,71.7Z"/><path class="cls-37" d="M192.05,71.7l2.53-.1A1.75,1.75,0,0,1,192.05,71.7Z"/><path class="cls-38" d="M193.75,101c1.14,4.72,3.18,7.62,8,7.27-2.28,1.51-5,.58-7.18,1.82-1.83-2.13-4.66-3-6.65-5,1.54-.24,2.58,1.17,4.08.55C193.89,104.83,192.71,103.09,193.75,101Z"/><path class="cls-35" d="M102.31,106.26c-.67-.6-1.38-.29-2-.41s-1.78.41-1.73-.73c0-.87,1.11-.88,1.82-.91,1.42-.06,2.84,0,4.25,0a5.87,5.87,0,0,0,5.32-2.69c.26-.42.64-1,1.14-.71s.39,1,.07,1.52c-1.09,1.76-2.18,3.52-3.32,5.25a2.49,2.49,0,0,1-3.09,1,3.15,3.15,0,0,0-2.41-.19c-.48.24-1.09.89-1.5.19s.29-1.17.83-1.59A6.79,6.79,0,0,0,102.31,106.26Z"/><path class="cls-33" d="M92.93,162.22c-1,1.26-2,2.53-3,3.77-.26.32-.64.58-1.08.3-.89-.57-.13-1.33-.12-2.06H87.21c-.82,0-2,.18-2.19-.72-.28-1.21,1.11-.9,1.75-1.21,3.21-1.57,5.62-3.76,6.37-7.43.08-.41-.08-1.08.62-1.14.19,0,.45.19.58.37.55.71.5,6.62-.08,7.31-.19.21-.58.26-.87.38C93.08,161.76,92.93,161.9,92.93,162.22Z"/><path class="cls-39" d="M92.93,162.22c-.55-.13-1.51.43-1.54-.57a1.67,1.67,0,0,1,1.39-1.49c1.19,0,.29,1.1.61,1.63Z"/><path class="cls-33" d="M206.65,162.21a2.74,2.74,0,0,1-1.44-3.53,5.05,5.05,0,0,0,.2-2.87,1.81,1.81,0,0,1,1-2.26c.62,1.61.76,3.37,1.81,4.75a12.1,12.1,0,0,0,5.72,4.27c.42.14,1.13,0,1.07.77-.05.58-.58.74-1.08.84-1.12.24-3.07-.79-2.62,1.88.09.48-1.07.42-1.36-.14-.82-1.57-2.37-2.44-3.41-3.78l.21-.13Z"/><path class="cls-40" d="M194.16,69.84c-.89,1-1.67,1.13-2.65.09A2.19,2.19,0,0,1,194.16,69.84Z"/><path class="cls-41" d="M194.31,106.7c.51.35,1.13.7,1.22,1.41s-.45.63-.85.53a1.33,1.33,0,0,1-1.06-1.46C193.63,106.78,193.88,106.62,194.31,106.7Z"/><path class="cls-10" d="M106.92,106.29a1,1,0,0,1-1.09.77c-.51,0-1.08-.22-1-.76s.71-.55,1.2-.57S106.81,105.8,106.92,106.29Z"/><path class="cls-42" d="M206.65,162.21c.22-.7-.33-1.47.29-2.23.73.47,1.82.85,1.59,1.83s-1.28.15-1.95.33Z"/></svg>