<svg id="Layer_1" data-name="Layer 1" xmlns="http://www.w3.org/2000/svg" viewBox="0 0 300 300"><defs><style>.cls-1{fill:#dddee0;}.cls-2{fill:#f5b607;}.cls-3{fill:#dcdddf;}.cls-4{fill:#dbdcde;}.cls-5{fill:#d9dadc;}.cls-6{fill:#ecb007;}.cls-7{fill:#0c0900;}.cls-8{fill:#0d0d0e;}.cls-9{fill:#d8d9db;}.cls-10{fill:#d6d7d9;}.cls-11{fill:#101010;}.cls-12{fill:#0c0c0c;}.cls-13{fill:#0c0c0d;}.cls-14{fill:#dadbdc;}.cls-15{fill:#121212;}.cls-16{fill:#0f0f0f;}.cls-17{fill:#dbdcdd;}.cls-18{fill:#d5d6d8;}.cls-19{fill:#181818;}.cls-20{fill:#d7d8da;}.cls-21{fill:#141414;}.cls-22{fill:#d3d4d6;}.cls-23{fill:#151515;}.cls-24{fill:#cecfd1;}.cls-25{fill:#1b1b1b;}.cls-26{fill:#1b1b1c;}.cls-27{fill:#242425;}.cls-28{fill:#d5d6d7;}.cls-29{fill:#0e0e0d;}.cls-30{fill:#161616;}.cls-31{fill:#171717;}.cls-32{fill:#c0c1c3;}.cls-33{fill:#262626;}.cls-34{fill:#1a1a1a;}.cls-35{fill:#1c1c1c;}.cls-36{fill:#131313;}.cls-37{fill:#dfa606;}.cls-38{fill:#ca9606;}.cls-39{fill:#d7a006;}.cls-40{fill:#e5aa06;}.cls-41{fill:#211b0c;}.cls-42{fill:#4f5051;}.cls-43{fill:#1c1501;}.cls-44{fill:#17140d;}.cls-45{fill:#141415;}.cls-46{fill:#2b2b2b;}.cls-47{fill:#202020;}.cls-48{fill:#b88905;}.cls-49{fill:#e5ab07;}.cls-50{fill:#352801;}.cls-51{fill:#202021;}.cls-52{fill:#1d1d1d;}.cls-53{fill:#282929;}.cls-54{fill:#090909;}.cls-55{fill:#0e0e0e;}.cls-56{fill:#0b0b0b;}.cls-57{fill:#0d0d0d;}.cls-58{fill:#212121;}.cls-59{fill:#121313;}.cls-60{fill:#0f1010;}.cls-61{fill:#111112;}.cls-62{fill:#1a1a1b;}.cls-63{fill:#19191a;}.cls-64{fill:#181819;}.cls-65{fill:#191919;}.cls-66{fill:#151516;}.cls-67{fill:#171818;}.cls-68{fill:#1e1e1e;}.cls-69{fill:#1f2020;}.cls-70{fill:#111;}.cls-71{fill:#1f1f1f;}.cls-72{fill:#353536;}.cls-73{fill:#1c1c1d;}.cls-74{fill:#282829;}.cls-75{fill:#1f1f20;}.cls-76{fill:#252626;}.cls-77{fill:#222323;}.cls-78{fill:#111212;}.cls-79{fill:#181919;}.cls-80{fill:#2e2e2e;}.cls-81{fill:#191a1a;}.cls-82{fill:#272728;}.cls-83{fill:#151410;}.cls-84{fill:#1a170c;}.cls-85{fill:#222;}.cls-86{fill:#dadbdd;}</style></defs><path d="M26.87-.6H273.13a1,1,0,0,1,1,1V176.61A123.39,123.39,0,0,1,150.73,300H149.5A123.62,123.62,0,0,1,25.88,176.38V.4a1,1,0,0,1,1-1Z"/><path class="cls-1" d="M198.31,131.8c1-.22.91.47,1,1.07,1.29,11.76-1.87,19.41-12.16,24.07-.84.38-1.71.62-2,1.79-1.38,5.45-5.09,9.15-9.59,12.11a57.64,57.64,0,0,1-31.73,9.85,4.75,4.75,0,0,0-3.46.69c4.26.69,7.87.2,11.68-.3-.48,2.1-2.19,2.95-3.32,4.24-.86,1.56-.78,3.26-.81,5,0,1.53-.13,3.08-1.75,3.92-1.27,1.85-2.56,3.68-3.79,5.56a10.91,10.91,0,0,0-2,5.27c-.31,4.8.87,6.35,5.77,7.26a4.25,4.25,0,0,1-5.72,1.38c-6-2.86-3.66-7.73-2.67-12.35-1.69,1.61-2.15,4.08-4.11,5.37-1.06,1.61-2,1.09-3-.1-.29-.34-.13-1.75-1.22-.65-.83.82-1.26,2.12-2.68,2.23a26.59,26.59,0,0,1-2.64,1.61,4.49,4.49,0,0,1-4.88-.63c-1.56-1.21-1.47-2.77-1-4.47,4.64,1.78,6,1.47,7.65-1.65a50.39,50.39,0,0,1,1.79-6.35c0,.05,0,0-.06,0-.73,1.63-.48,3.64-2.12,4.83-2.34,2.34-3,2.42-4.81.27,1.35-.34,2.78-.39,3.58-1.69s.63-2.67.57-4a26.17,26.17,0,0,1,.62-7c.16-.61,0-.95-.68-.69s0,1.86-1.26,1.45a2,2,0,0,1-1.28-1.81,7.46,7.46,0,0,1,.9-4.5c.39-.71,1.25-1.23,1-2.48-1.82.41-2.36,1.87-2.87,3.24-.39,1.05-.45,2.2-.76,3.28-.17.62-.31,1.47-1.28,1.34s-1.1-.84-1.13-1.53c0-1,.08-2.07.14-3.11,0-.54.68-1.22-.11-1.6s-1.12.55-1.53,1A8.43,8.43,0,0,0,115,187c-.25.84-.12,2.3-1.48,1.88s-.56-1.56-.27-2.45a8.65,8.65,0,0,0,.19-1.32c-1.78.51-2,1.78-2.2,3-.38,1.82-.32,4.37-3,3.91s-1.75-3-1.6-4.77c.11-1.32.68-2.6.76-4-1.61,1.49-1.78,3.51-2,5.53-.34,2.86-1,3.33-3.92,2.84-2.64-1.67-.72-3.83-.77-5.41-.08.25-.25.9-.42,1.55-.53,2-1.84,2.23-3.61.83-1.7-3,.33-5.32,2-8.16a5,5,0,0,0-3,3c-1.29,2.5-1.9,2.66-4.22,1-1.94-1.19-1.08-2.81-.82-4.15A23.7,23.7,0,0,0,86.67,187a17.1,17.1,0,0,0-1.22,6.85c0,1,.17,2.12-.8,2.88A23.79,23.79,0,0,0,85.73,206c2,6.21,5.09,8.24,13.27,8.56-.39,2.24-2.14,2.73-3.86,3.06-5.23,1-10.15-1.78-13.06-7.32l-1.08-2c-2-2.37-2.11-5.42-2.4-8.19a34.64,34.64,0,0,1,.88-13.51,29.65,29.65,0,0,1,6-11,31,31,0,0,0-5.69,10,37.56,37.56,0,0,0,0,20.47,23.69,23.69,0,0,1,.64,3c-.35,1.27-.93.81-1.61.26-1.76-1.41-2.75-3.42-4.06-5.17-2-2.17-2.25-5-2.48-7.65a34.42,34.42,0,0,1,1.48-14.24,31.85,31.85,0,0,1,5.29-9.94c1.67-1.74,3-3.82,5.07-5.09l-.08.07c-2.1,1.21-3.3,3.27-4.9,4.92a30.92,30.92,0,0,0-5.07,9.12c-2.31,7.13-2.81,14.27-.32,21.47a19.32,19.32,0,0,1,.46,2c.08.74.61,1.49-.19,2.36-4.53-3.36-6.41-8.09-7-13.47s.47-10.83,2.07-16.08c1.18-5.65,4.83-9.68,8.85-13.46.43-.41,1-.74,1.36-1.18.73-.6,1.55-1.09,2.27-1.71.17-.11.36-.18.54-.28a3.15,3.15,0,0,0-.43.19,29.09,29.09,0,0,0-2.7,2.1,32.29,32.29,0,0,0-9,11.16,6.19,6.19,0,0,1-1.41,2.13c-3,7.37-3.74,14.89-1.52,22.61.21.74.8,1.72.06,2.13-1,.56-1.42-.7-1.88-1.3-3.14-4.05-3.87-8.77-3.72-13.73.18-5.66,2.19-10.79,4.47-15.86.12-1.37,1-2.34,1.73-3.42A28.24,28.24,0,0,1,71,163.16a57.19,57.19,0,0,1,7-5.64c2.06-.85,4-2,5.64-2.72-1.77.93-4,1.87-6.06,3.07A47,47,0,0,0,71,163.15a26.15,26.15,0,0,0-3.13,3.67c-.81,1-1.22,2.23-2.37,2.91-.79.62-.66,2-2,2.38a13.65,13.65,0,0,1,2.34-8.58A30.7,30.7,0,0,1,88.63,149a3.53,3.53,0,0,0,3-1.95c8.83-14.71,21-25.59,37-32.13a10.39,10.39,0,0,0,2.79-1.84c7.45-6.4,15.81-10.85,25.78-11.73,1.55-.14,3.11,0,4.67-.08,3.5-.11,5.94,1.1,7,4.77a5.28,5.28,0,0,0,5.08,3.81,8.75,8.75,0,0,0,8.24-4c2.34-3.5,2.23-7.39,1.18-11.26a30,30,0,0,0-11.68-17c-4.43-3.19-9.32-5.63-14-8.43A59.76,59.76,0,0,1,146,60.51c-6.83-6.78-9.45-14.89-7.8-24.41a7.78,7.78,0,0,1,1.74-3.67,7.62,7.62,0,0,1,1.3-2.78c.89-2.18,2.36-1.76,3.93-.88-.1,1.42-1.27,2.23-1.93,3.33a10.5,10.5,0,0,0-1,10.14c1,1,1.25,0,1.6-.63s.25-2,1.52-2.17c1.27.63.68,1.8.78,2.75.15,1.35-.2,2.73.43,4.06s1.36,2.43,3.07,2.1a3.81,3.81,0,0,1,2,.45c1.58.49,2.53.11,2.18-1.8a.85.85,0,0,1,.91-.36c.87.16,1.76.56,2.59-.15a.63.63,0,0,0,.19-.46,3.79,3.79,0,0,0-.1-.42c-.37,2-1.74,1.08-2.82,1-.33-.1-.79-.19-.93.14-1.1,2.66-1.08,2.67-3.6,1.1-.95-1.62-.15,1.29-.85.33-2.57.1-2.79-1.92-3-3.63a35.88,35.88,0,0,1,0-6.22c-.64.1-.88.7-1.32,1a5.86,5.86,0,0,0-.93,1.83c-.28.7-.59,1.56-1.67,1-1.62-3.35-.9-6.51.71-9.62.85-1,1.35-2.18,2.34-3,.79-1.27-.24-1.25-1-1.28-1.28,0-2.1-.47-2-1.93a11,11,0,0,1-1.09,3.38c-.58.77-.8,1.83-1.86,2.18-1,.67-1.66,1.78-2.92,2-.88-.85-.33-2-.89-3.22-1.48,2.11-2.69,4.28-4.6,5.86-2.14,1.76-4.39,3.11-7.33,2.12a2.72,2.72,0,0,1-2-1.86c-.23-.87-.22-1.47,1-1.49,5.11-.08,8-3.23,9.87-7.53a66.08,66.08,0,0,1,4.23-8.3c6.15-9.73,19.07-14.24,29-10.06a21,21,0,0,1,4.06,2.27c4.18,3,4.53,4.54,2.32,9.16a8.7,8.7,0,0,1-3.61,4.51c1.71-.7,2.37-2.92,4.17-3.91a6.73,6.73,0,0,0,1.71-5.75c-.25-1.41.49-1.46,1.48-1.26a4.49,4.49,0,0,1,2.48,1.36c3.16,3.53,7.4,4.24,11.78,4.6,7.1.59,14.21.29,21.32.35a25,25,0,0,1,9.2,1.37c2.84,1.12,4.78,3,4.84,6.16-10-4.77-20-4.28-30-.59a6.54,6.54,0,0,0-1.44,1c-.61,1.47-1.89,1.36-3.09,1.22-7.45-.87-14.81-1.08-21.7,2.67a2.67,2.67,0,0,1-1.76.27l-3.22,3.77c10.43-1.1,20.49-2.44,30.62-1,2.57-.24,4.92,1.21,7.49,1a9.88,9.88,0,0,1-4-.59c-.51-.17-1-.37-.61-1.07a32.93,32.93,0,0,1,7.75,0c2.47.6,5,1,7.5,2.75a38.83,38.83,0,0,1-11.05,1.28c-7.63.07-15.25-.15-22.87-.15a71.77,71.77,0,0,0-8.3.44c-4,.48-7.43,2-8.85,6.13A11.49,11.49,0,0,0,164.11,57a15.6,15.6,0,0,0,7.18,4.46,78.71,78.71,0,0,1,14.88,6.65c11.07,6.73,19.07,16,22.59,28.61,2,7.07,1.07,14.29.05,21.42-.93,6.6-2.09,13.16-3.07,19.75a27.89,27.89,0,0,0-.26,4.92c.15,5.61,2.25,8,7.78,9-.77,1.86-2.31,2-3.86,1.67a7.35,7.35,0,0,1-6.05-5.38,32.44,32.44,0,0,1-.89-13.14c.43-3.68,1.29-7.31,2-11a74.34,74.34,0,0,0,1.4-9.88A27.26,27.26,0,0,0,204,102.22a.85.85,0,0,0,.08.24c2.32,6.13,2.05,12.36.83,18.62a4.07,4.07,0,0,1-.93,1.81c-1.24,3.44-3.08,6.43-6.3,8.38-.43.88-1.35,1-2.12,1.33a1.15,1.15,0,0,1-1.41-.28c-.46-.55,0-1,.35-1.31.74-.77.74-1.9,1.48-2.73-1.15.07-2.22,1.59-3.2-.07.68-1.67,1.57-3.29,1.25-5.08a9.15,9.15,0,0,1-2,1.17c-.87.39-1.59,1.26-2.71.84-.81-1.22.26-2.07.66-3,.66-1.56,1.73-3,1.34-4.91a4.48,4.48,0,0,0-1.48,1c-.56.48-1.33.54-1.94.94-.54.22-1.13.72-1.64.1s.16-.93.41-1.36c1.2-2.08,2.39-4.17,2.2-6.72-.63.59-1.39,1-2,1.64-.83.4-1.58,1.45-2.58.29.34-2.11,1.6-3.93,1.84-5.75a24.82,24.82,0,0,1-2,5.26c0,.48-.65,1.25.53,1.15a4.65,4.65,0,0,0,2.49-1.12c1.51-.63,1.7.2,1.37,1.35a17.76,17.76,0,0,1-1.73,3.73c-.31.55-1.31,1-.67,1.72s1.37-.22,2.06-.42a7.91,7.91,0,0,0,2-1c1.5.19,1.25,1.09.83,2-.56,1.25-1.25,2.45-1.8,3.71-.22.52-.71,1.13-.24,1.6s1.08,0,1.61-.21c.78-.29,1.39-.92,2.25-1,2.2,1.07.39,2.3.14,3.47-.26.53-.71,1.26.17,1.46,2.75.62,1.66,1.69.42,2.84a6.28,6.28,0,0,0-.47.66C195,133.37,196.55,131.9,198.31,131.8Z"/><path class="cls-1" d="M166.06,277a4.73,4.73,0,0,1,2.29.28c1.14.54,1,1.51.92,2.45s-.87.87-1.58.78a3.78,3.78,0,0,0-3.49,1.29c-2.17,2.41-5.27,2.26-7-.63a3.21,3.21,0,0,0-3.67-1.77c-2.82.29-5.43-.81-8-1.9a4.87,4.87,0,0,0-4.71,0,7.53,7.53,0,0,1-4,.67c-1.38,0-3-.31-2.85,2.09.06.82-.86,1.22-1.71,1.28a1.63,1.63,0,0,1-1.87-1.08c-.65-2.11-1.35-4-3.78-4.87-.92-.33-.37-1.59,0-2.35a1.86,1.86,0,0,1,2.61-1c2.12,1.46,4.26.37,6.37.44,2.88.09,3.71-.88,3.21-3.79-.65-3.84-1.42-7.66-2.11-11.49-1.89-10.56-3.72-21.14-4.95-31.8-.37-3.22-1.66-5.47-4.64-6.91-3.43-1.66-3.59-2.74-1.6-6.06.75-1.24,1.31-2.61,2-3.92.62-1,.92-2.27,2.18-2.78,1.38,1.07,2.69,2.43,4.68,1.27.56-.18,1.32-.92,1.28.52a6.86,6.86,0,0,0,3.71,6.62c.68.38.63,1,.68,1.53.15,1.73.35,3.44.45,5.17.22,3.85.72,3.79-3.43,2.65-2.23-1.08-2.42-2-1-5.2-1.3,2.78-1.28,3,.34,5.78l1.53.93a4.5,4.5,0,0,0-2.17,4.19,4.44,4.44,0,0,0,2.36,3.95c.08,0-.11.59-.17.9-1.24,2.79-.27,5.11,1.56,7.24l.42.38c-1.85,3-.7,5.52,1.13,8,.4.33.38.63.1,1.08-2,3.22-1.41,5.45,2,7.17.64.33.68.56.51,1.08-.86,2.54-2,5.08.22,7.52a4.36,4.36,0,0,0,2,1.38,5.11,5.11,0,0,1-2.23-1.64c-1.58-2.91-1.44-4.57.59-6.68,1.29-1.77,2.34-1.26,3.54.22a38.09,38.09,0,0,1,4.22,6.2,6.57,6.57,0,0,0,6.24,3.91c5.92-.23,11.57,2.15,17.49,1.57a1.62,1.62,0,0,1,1.87,1.42c.17.91.05,1.6-1.14,1.89a3.09,3.09,0,0,0-2.53,2.93c-.08,1.17-.93,1.34-1.79,1.47s-1.41-.35-1.63-1.24c-.28-1.13-1.2-1.56-2.16-2-4.35-2.2-9.1-2.65-13.81-3.2-1.28-.15-2.5-1-4.25-.52,2.31,1.82,4.82,1.45,7.09,1.91,2.75.56,5.66.43,8.13,2.06C165,277.19,165.51,277.14,166.06,277Z"/><path class="cls-1" d="M199.26,181.71c-.23.45-.66.91-.66,1.37,0,3.81-3,4.54-5.69,5.7-.93.41-1-.23-1.13-.82a3.24,3.24,0,0,1,1.14-3.27c4-2.8,5.65-7,7.36-11.24a2.85,2.85,0,0,0,.26-1c-.28.14-.58.26-.86.39-4.3,4.54-9.47,8-14.39,11.81-5.21,4-10.57,7.8-15.9,11.64a5.33,5.33,0,0,0-2.42,3.42,5.57,5.57,0,0,1-5.13,4.39c-1.24.07-1.79-.3-1.47-1.62.66-2.68,1.28-5.37,1.91-8.06.09-.35.22-.78.6-.71,3.18.57,4.68-2.7,7.42-3.23a2.85,2.85,0,0,0,2.18-1.91c.28-.84,1.06-1.13,2-1.24a6.42,6.42,0,0,0,4.93-2.45c.23-.6.35-1.26,1-1.63.15-1,.48-1.65,1.77-1.49a4.91,4.91,0,0,0,4-1.1,2.07,2.07,0,0,1,1.6-1.54c.35-2,2.26-2,3.61-2.64.29-1.06,1.22-1.24,2.08-1.54a3.43,3.43,0,0,1,2.7-2c2.05-.3,3.05-1.73,3.31-3.74.14-1-.67-2.36.61-3.09,2-1.16,3.51-3.38,6.27-3.2a9,9,0,0,0,3.32-.29,6.92,6.92,0,0,1,7.72,1.88,44.79,44.79,0,0,0,10.31,3.62c1.74.39,2.73,2,4,3.08,1,1.72,3.53,2.05,3.8,4.37.29,1.69.22,3-2.11,2.13-.38-.13-1,.26-1.43.41-.31.77-.77,1.34-1.7,1.27a8.38,8.38,0,0,1-2.93-4.3,6.27,6.27,0,0,0-1.85-2.94,26.65,26.65,0,0,1-8-4s0,.05,0,.07a25.84,25.84,0,0,0,7.86,3.87c2.25,2.58,3.15,5.93,5.07,8.71.19,1.45-.18,2.56-1.79,2.89-2.22-1.78-4.36-2.75-7.09-.64-1.08.83-2.33-.15-2.6-1.58a4.2,4.2,0,0,1,0-2.31c.9-2.13-.06-2.76-2-2.8-2.18,0-3.13-1.65-4.19-3.15-.61-.74-.53-1.83-1.25-2.48,0,0,0,0,0,0l.12.18c.08,2.35-1,3.08-3.54,2.34-.61-.18-1-.45-.88.47-1,2-3.4,2.44-4.48,4.3a3.37,3.37,0,0,1-.48.52C201.06,179.32,200.78,181.13,199.26,181.71Z"/><path class="cls-2" d="M220.55,191c1.79.37,1.14,1.6.95,2.68-.24.46-.47.93-1.13.63a3.27,3.27,0,0,0-.48.59c-.38.93,1,2.46-.6,2.83-1.34.31-.52-1.84-1.74-2.13-1.18.6.88,2.3-.76,2.68s-.83-1.91-2-2.06c-1.39.44,1.78,3.36-1.52,2.67-1.35-.66-.46.93-1,1v0c-.24.52-.56.94-1.29.82.76.28,1.34-.2,2-.2A25.77,25.77,0,0,1,226.27,199a37.68,37.68,0,0,0-12.43,7.56c-.86.83-1.81.12-2.65-.2-7.66-3-15.77-12.49-11.38-24,.17-1.85,1.4-3.08,2.52-4.38l-.06.05a54.17,54.17,0,0,1,4.94-4c1.58-1.18,3.57-.43,5.25-1.11,1.51,1.13,2.51,2.76,3.92,4A2.05,2.05,0,0,1,218,179.6c-.4,2.33.11,4.31,3,4.76,1.21.18,1.12,1.41,1.18,2.32a6.5,6.5,0,0,1-.45,3.79A162.58,162.58,0,0,0,204.48,188a11.34,11.34,0,0,0,4.39.82c3.4-.12,6.59,1,9.91,1.16A2.8,2.8,0,0,1,220.55,191Z"/><path class="cls-1" d="M149.3,185.89a5.34,5.34,0,0,0,2.47-2.21c1.23-2.57,3.44-3.23,5.95-3.8a49.49,49.49,0,0,0,7.85-2.61c1.84-.78,2.33,0,2.54,1.54a6.11,6.11,0,0,1-.83,4,11.81,11.81,0,0,0-1.73,7.93c.2,1.4-.35,1.84-1.68,1.86-1.5,0-1.1-1-1.07-1.77a25,25,0,0,0-.25-6.52c-.94.15-.84.65-.8,1a37,37,0,0,1-1.84,14.32c-1.1,3.65-1,7.17,1.56,10.8a7.75,7.75,0,0,1-6-4.44c-1.18-2.28-.87-4.81-1.39-7.24-1.07,1.9-.56,3.84-.25,5.79.12.72.77,1.67-.06,2.16s-1.56-.36-2.16-.9a6.83,6.83,0,0,1-2-6.38,15.75,15.75,0,0,0,.23-3.15c-1.46,1.38-1.29,3.2-1.36,4.91,0,.71.16,1.45-.69,1.73s-1.32-.37-1.71-.9c-1.19-1.61-1.93-3.29-.48-5.19a15.81,15.81,0,0,0,1.12-2,17.19,17.19,0,0,0,1-6.71A1.91,1.91,0,0,1,149.3,185.89Z"/><path class="cls-1" d="M194.56,29.22c1.51-.9,3.17-.68,4.8-.59a114.71,114.71,0,0,1,19.27,2.57A13,13,0,0,1,223,32.92c-.45.87-1.22.41-1.8.41-15.59,0-31.17.46-46.74,1.11a47.26,47.26,0,0,0-6.18.66c-.63.1-1,.12-1.11-.41,0-.23.52-.56.81-.84,1.05-2.1,3.23-2.53,5.11-3.25,5.49-2.08,11.25-1.55,16.93-1.17A13.2,13.2,0,0,0,194.56,29.22Z"/><path class="cls-3" d="M90.85,185a2.79,2.79,0,0,1,.43,2.41,29.54,29.54,0,0,0-.22,13.55,5.37,5.37,0,0,1,.17,1.78c-.16,1.46-.73,2-2.15,1-2-1.48-2.83-3.6-3.45-5.87a21.38,21.38,0,0,1,.28-9.87,33.41,33.41,0,0,1,2.17-4.66c.34-.68.62-1.66,1.48-1.61,1.16.06.8,1.32,1.14,2C90.88,184.1,90.68,184.58,90.85,185Z"/><path class="cls-3" d="M97.61,202.7c-.13.9.53,2.17-.51,2.62s-2.13-.38-2.94-1.16c-1.92-1.87-2.43-4.34-2.65-6.86a31.9,31.9,0,0,1,.6-9c.16-.8,0-1.88,1.52-1.95s1.35.93,1.68,1.74a3.92,3.92,0,0,0,.8.94,1.4,1.4,0,0,1,.67,1C96.68,194.29,97.86,198.45,97.61,202.7Z"/><path class="cls-4" d="M155.39,268.28c.89-1.35,2.22-1.29,3.5-1.28,3.62,0,7.21.28,10.85-.47,2.48-.51,5,1,7.68.53a.82.82,0,0,1,.92.75c0,1.53,1.18,1.68,2.2,2.09a2.74,2.74,0,0,1,1.84,2.59c0,.63-.11,1.31-1.06.78-6.78-3.84-14.42-3-21.73-4C158.18,269,156.72,269.1,155.39,268.28Z"/><path class="cls-4" d="M100.83,192.11c-.12,4,.4,7.76,2.68,11.15a4.16,4.16,0,0,1,.5,2.25c0,1.15-.49,1.28-1.45,1-2.28-.71-3.38-2.54-4.38-4.49-1.33-3.33-1.49-6.82-1.52-10.34a1.94,1.94,0,0,1,1.88-2.25c1.57-.29,1.69.73,2,1.7C100.66,191.44,100.73,191.78,100.83,192.11Z"/><path class="cls-4" d="M218,163.87c1.36-.78,2.75-.29,4,.14a28,28,0,0,0,10.93,1.57,2.82,2.82,0,0,1,3.06,1.5,2.41,2.41,0,0,1-.87,3.19c-1.36,2.73-1.48,2.76-3.88,1a8.87,8.87,0,0,0-6.25-3.7C222.33,167.11,219.42,166.78,218,163.87Z"/><path class="cls-5" d="M101.79,194.23c-.49-1.62,1.28-1.36,2.41-1.62,1.56-.34,1,1.07,1.1,1.66a13.28,13.28,0,0,0,3.21,6.7c.57.67,1.08,1.6.54,2.36s-1.46.38-2.22.26a4.72,4.72,0,0,1-3.5-2.8A17.74,17.74,0,0,1,101.79,194.23Z"/><path class="cls-6" d="M231.92,185.44c1.42,4.31.09,8-2.59,11.35-.39-3.44-.39-6.87-1.46-10.17-.38-1.16.47-1.91,1.5-2.38C231,183.06,231.36,183.24,231.92,185.44Z"/><path class="cls-7" d="M220.55,191a131.46,131.46,0,0,0-13.38-1.81c-3.61-.28-3.74-.51-2.89-4.25.15,0,.37,0,.45.1.76.83-.44,2.73,1,2.84,2,.14-.08-2.35,1.4-2.89,1.22.77-.32,3.21,1.71,3.23,1.85,0,.08-2.18,1.31-2.83.91.12.52.89.62,1.39.14.72-.17,1.69,1,1.72,1.39,0,.68-1.08.89-1.7.11-.3.18-.61.3-1,1.67.54-.36,3.45,2,3.1,1.54-.22.19-2,1.13-2.82,1.07.09.58,1,.67,1.55s-.29,1.66.92,1.81,1-.85,1.15-1.55c.08-.36.25-.71.58-1.65.65,1.95,0,4,2.22,4.25Z"/><path class="cls-8" d="M194.56,29.22c-1.07,1.54-2.57,1-4,.84-5.34-.65-10.65-.8-15.91.59a22.92,22.92,0,0,0-6.71,3.2l-.52-1c7.1-4.78,15-4.74,23.06-3.86,1.21.14,2.38.42,3.49-.3Z"/><path class="cls-9" d="M233.1,178.6a4.33,4.33,0,0,1,1.42,7.54c-1.89,1.57-1.18-1.18-2.06-1.32a4.22,4.22,0,0,1-1.43-1.48C229.55,181.26,230.35,179.48,233.1,178.6Z"/><path class="cls-10" d="M141.77,230c-.57,1,.62,2.92-1.76,2.78a3.31,3.31,0,0,1-3.37-3.72,2.87,2.87,0,0,1,3.31-3.12C142.55,226.17,141.06,228.66,141.77,230Z"/><path class="cls-4" d="M138.41,234.84c1.11-.18,2.36-2,3.29-.34a7.33,7.33,0,0,1,.5,6.27c-.3.74-1.42.14-2.16.14-1.93,0-2.52-1.35-2.88-2.94C136.85,236.63,136.93,235.46,138.41,234.84Z"/><path class="cls-11" d="M100.83,192.11a4.62,4.62,0,0,1-.76-1c-.31-.77-.39-1.52-1.66-1.25s-1.07,1.15-1.11,1.93a40.36,40.36,0,0,0,.71,8.42c.09.58.12,1.18.17,1.77l-.57.7a32.68,32.68,0,0,1-1.4-11.16c0-.85-.06-1.7-.1-2.55l.53-.48c1.81.59,3.25.57,3.28-1.91a1.26,1.26,0,0,1,.17-.48c.51-1.19.76-3.51,1.82-3.15,1.21.41-.55,1.95-.74,3.09-.31,1.89-.69,3.69.27,5.48Z"/><path class="cls-4" d="M123.64,280.27c.12-1.53.56-3,2.19-3.4,1.33-.33,2.21.68,2.78,1.82,1.07,2.15-1.91,2.8-1.77,4.7,0,.61-.83.39-1.26.2A3.17,3.17,0,0,1,123.64,280.27Z"/><path class="cls-12" d="M80.43,209c-3.36-7.94-3.39-16-.89-24.16,1,0,.74.57.51,1.12a40.29,40.29,0,0,0,1,22.3Z"/><path class="cls-13" d="M74.32,181.77c-1.65,6.33-2.49,12.69-.6,19.14.32,1.06.69,2.11,1,3.17l-.55.66c-3.4-6.29-3-12.94-1.77-19.65a14.14,14.14,0,0,1,1.39-4.42C74.77,180.68,74.57,181.22,74.32,181.77Z"/><path class="cls-14" d="M178.85,184.27a8.47,8.47,0,0,1-4.31,2.06c-1.14.19-1.6-.28-1.55-1.35.09-2.17,4.43-4.68,6.57-3.82C179.53,182.24,180.33,183.52,178.85,184.27Z"/><path class="cls-4" d="M185.56,180.07c-1.69.5-4.26,1.61-4.88.06s1.88-2.86,3.46-3.79c.85-.5,1.89-1.38,2.82-.71s.47,1.88.23,2.88A1.9,1.9,0,0,1,185.56,180.07Z"/><path class="cls-15" d="M203.94,122.89c1.62-7.12,2-14.2-.68-21.19-.18-.57.1-.73.62-.68,3.46,7.57,3.07,15.23.54,23Z"/><path class="cls-5" d="M140.51,242.66c1.27-.45,2.16-.16,2.31,1.31.12,1.18.09,2.38.23,3.57.2,1.75-.71,2-2.12,1.72C137.6,246.85,137.44,244.31,140.51,242.66Z"/><path class="cls-16" d="M198.31,131.8a9.37,9.37,0,0,1-7.43,1.53c1.19-1.34,3-1.79,3.53-3.41-1-.8-2.23,1-3-.19-.52-.86.55-1.48,1-2.16.52,0,.83.1.57.7,1.31.44,2-.6,2.78-1.26.46-.37.93-1,1.52-.45s-.11,1.06-.34,1.55a14.88,14.88,0,0,1-2.74,4c1.41.24,2.31-.65,3.39-.81Z"/><path class="cls-10" d="M166.52,188.92c.11-1.56,3.34-4,4.81-3.63,1.26.33.88,1.44.61,2.14-.76,2-2.6,2.66-4.45,3C166.2,190.76,166.64,189.55,166.52,188.92Z"/><path class="cls-9" d="M140.87,254.21c-.09-1.79.63-2.91,1.85-3.19s1.16,1.24,1.7,1.93a2.22,2.22,0,0,1,.24.74c.36,1.14.93,2.37.12,3.43-.32.42-1.32.18-2-.15A3.7,3.7,0,0,1,140.87,254.21Z"/><path class="cls-17" d="M169.07,284.38c.05,1.45-.17,2.65-1.62,3-.89.21-2.23.72-1.77-1.24a2.41,2.41,0,0,0-.31-1.22c-.34-.9-1.22-1.75-.06-2.72a2.64,2.64,0,0,1,2.65-.5C169.37,282.15,168.87,283.52,169.07,284.38Z"/><path class="cls-18" d="M198,192.69c.12.89.05,1.34-.88,1.27-1.52-.11-3.8-2.39-3.59-3.85s1.45-1.68,2.54-1.59C199.26,188.77,196.78,191.69,198,192.69Z"/><path class="cls-19" d="M79.59,163c-2,2.11-4,4.15-5.83,6.36a37.24,37.24,0,0,0-4.67,8.19l-.48-1.05c2.08-5.53,5.24-10.25,10.22-13.6A.46.46,0,0,1,79.59,163Z"/><path class="cls-20" d="M223.81,188.58c-.29-1.24-.5-2.33-.79-3.39-.17-.63-.76-1.27.11-1.78a2.81,2.81,0,0,1,2.66-.47A1.9,1.9,0,0,1,227,185,4.11,4.11,0,0,1,223.81,188.58Z"/><path class="cls-21" d="M218,163.87a14.45,14.45,0,0,0,7.45,3.29c2.54.46,5.12,1,6.07,4a.52.52,0,0,1-.09.76,12.33,12.33,0,0,0-8-4.12,9.07,9.07,0,0,1-6-3.26Z"/><path class="cls-22" d="M190.73,175.89c-.91-.09-2,.84-2.64-.66-.45-1.16.53-1.52,1.11-2,1-.89,2.32-2,3.57-1.6s.35,1.77.14,2.73C192.66,175.52,191.73,175.76,190.73,175.89Z"/><path class="cls-23" d="M90.85,185c-.77-.82-.8-2-1.21-3.08-1.63,1.67-1.76,4.09-3.35,5.61a1,1,0,0,1-.09-1.27,18.23,18.23,0,0,1,6.13-8.72c-.74,2.26-1.76,4.4-.9,6.78Z"/><path class="cls-10" d="M177.54,281.28c-.37-.92-.42-2-1.41-2.57-.52-.3-1.53-.27-1.24-1.3a2.24,2.24,0,0,1,1.66-1.46,1.77,1.77,0,0,1,2,.63C179.94,278.15,179.62,279.77,177.54,281.28Z"/><path class="cls-10" d="M235.73,170.82a3.53,3.53,0,0,1,2.71,3.36c.1.87,0,1.86-1,2.18-1.24.42-.7-1.14-1.37-1.42C233.45,173.14,233.37,172.22,235.73,170.82Z"/><path class="cls-24" d="M198.44,169.24c-.23,2-1.59,2.71-3.33,3a.9.9,0,0,1-1.06-1.11c.41-1.82,2-2.39,3.53-2.93C198.42,167.86,198.5,168.61,198.44,169.24Z"/><path class="cls-25" d="M197.76,35.36l7.49,1.2-.1.68a26,26,0,0,1-10.32-1.7c.93,0,1.36-1.18,2.35-1.06A2.46,2.46,0,0,0,197.76,35.36Z"/><path class="cls-26" d="M86.2,186.24l.09,1.27c-.09,3.45-1,6.85-.66,10.32l-1-1.06A20,20,0,0,1,86.2,186.24Z"/><path class="cls-27" d="M136.24,224.31a4.23,4.23,0,0,1,.64-7.27c.35-.19.73-.63,1.13-.17.57.66-.19.83-.51,1.13-2.51,2.38-2.63,3.56-.58,5.73Z"/><path class="cls-28" d="M106.4,192.59c1.34.5,2.74.26,3.4,1.7.36.8.86,1.79.18,2.37s-1.61-.14-2.2-.74A4.8,4.8,0,0,1,106.4,192.59Z"/><path class="cls-23" d="M149.3,185.89a2.65,2.65,0,0,0-1,2.66,8,8,0,0,1-1.59,6.28l-.55-.64a11,11,0,0,0,1-6.42,1.93,1.93,0,0,1,1.57-2.45Z"/><path class="cls-29" d="M233.1,178.6c-2.84,1.74-2.85,1.88-.64,6.22l-.54.62c-.74-.63-1-2.33-2.55-1.2l-.66-.54a2.87,2.87,0,0,0,1.17-3c-.48-.76-.08-1.22.54-1.61l1.58-1Z"/><path class="cls-30" d="M134.23,207.24c-2.17,2.22-3.56,1-4.76-1.08-.53.06-.81-.11-.61-.69.33-.74.34-1.93,1.4-1.85s.68,1.25.71,1.92c.13,2.27,1.4,1.62,2.65,1.14Z"/><path class="cls-31" d="M172.65,21.39c-1.49,2.78-4.1,4.36-6.59,6.1,1.74-2.5,4.19-4.32,6-6.7Z"/><path class="cls-32" d="M202.46,128.69c-.44,2.56-.83,4.87-1.23,7.19C200.59,133.38,198.89,130.7,202.46,128.69Z"/><path class="cls-23" d="M235.73,170.82c-2.37,1.59-.33,2.8.36,4.12l-.55.65c-1-1.6-3.24-1.9-4.12-3.69l.09-.76c1.75,2,2.43-.44,3.6-.87Z"/><path class="cls-33" d="M138.41,234.84c-1.46,2.81-1.12,4.07,1.63,6.07l-.69.61c-3.33-1.75-3.94-4.61-1.56-7.24Z"/><path class="cls-34" d="M125.41,201.51c1-2,.91-4.48,2.47-6.29.52-.07.78.09.59.66-1,2.35-1.31,4.93-2.67,7.14Z"/><path class="cls-35" d="M140.51,242.66c-2.24,2.34-2.18,3.18.42,6.6l0,.6c-3.8-2.41-4.17-5-1.13-8Z"/><path class="cls-36" d="M143.49,267.09c-2.25-2.71-2.25-4.95,0-7.9l.57.58a5.73,5.73,0,0,0,0,6.75A.65.65,0,0,1,143.49,267.09Z"/><path class="cls-37" d="M224.68,195.27a4.16,4.16,0,0,0,.83-.47c.47-.46-.31-1.84,1.05-1.6a1.73,1.73,0,0,1,1.46,2.09c0,.34,0,.69,0,1-.08.55.29,1.49-.44,1.55-1.13.09-.63-1-.65-1.53,0-1-.19-1.44-1.1-.57a.91.91,0,0,1-1,.15.53.53,0,0,1-.18-.42C224.62,195.35,224.64,195.27,224.68,195.27Z"/><path class="cls-38" d="M220.37,194.29l1.13-.63c.13.79.33,1.43,1.19.51a.35.35,0,0,1,.53.07c-.82,1,.7,3.31-1.31,3.34C220.09,197.61,221.43,195.18,220.37,194.29Z"/><path class="cls-39" d="M227.81,192.47c-2.31-1.07-2.56-2.3-.89-4.63A8.42,8.42,0,0,1,227.81,192.47Z"/><path class="cls-40" d="M223.22,194.24l-.53-.07c0-.87-.43-2.12,1-2.09s1,1.29,1,2.17c0,.34,0,.68,0,1,0,.16,0,.32,0,.48a1.35,1.35,0,0,1-.53,1.6C223.33,196.47,224.52,195,223.22,194.24Z"/><path class="cls-41" d="M216.38,177c-1.81-.57-2.75-2.1-3.81-3.49a1,1,0,0,1,.79-.84,12.47,12.47,0,0,0,3.73,3.75Z"/><path class="cls-42" d="M197.76,35.36c-.88.15-1-.16-.58-.88,2.76.18,5.57-.87,8.28.38C202.88,34.86,200.28,34.44,197.76,35.36Z"/><path class="cls-43" d="M212.92,200.54c-2.31,2.28-3,.31-3.93-1.46,1.45-.86,1.76,2.17,3.22.84Z"/><path class="cls-44" d="M202.33,178c-.33,1.75-1.67,2.92-2.52,4.38l-.55-.68C200,180.22,200.39,178.48,202.33,178Z"/><path class="cls-45" d="M65.46,169.73a8.3,8.3,0,0,1,2-3.15c.52-.1.76.08.59.64L66,170.35Z"/><path class="cls-46" d="M199.68,172.82a3.65,3.65,0,0,1,1.89-2.2.52.52,0,0,1,.42.23c0,1.24-1,1.8-1.71,2.6Z"/><path class="cls-47" d="M128.86,205.47l.61.69a5.16,5.16,0,0,1-2.1,2.59l-.65-.59Z"/><path class="cls-48" d="M225,190.27c0,.48-.18.85-.7.83s-1.07-.16-1.14-.79.34-.71.8-.79C224.56,189.42,225,189.6,225,190.27Z"/><path class="cls-49" d="M224.16,197.35c0-.59,0-1.19.53-1.6l1.13,0C225.85,196.91,226.33,198.53,224.16,197.35Z"/><path class="cls-50" d="M212.2,199.9c0-.25,0-.5-.06-.74-.08-.68-1.3-1.49-.32-1.91s1.07.93,1.42,1.62Z"/><path class="cls-51" d="M139.35,31.8l1.43-2.29c.42.06.46.43.6.72a3.84,3.84,0,0,1-1.45,2.2Z"/><path class="cls-27" d="M178.85,184.27a5.54,5.54,0,0,0,.71-3.11c.78.49.12,1.57.85,2.07a1.78,1.78,0,0,1-1,1.63Z"/><path class="cls-31" d="M190.73,175.89l2.18-1.56.55.59a2.7,2.7,0,0,1-2.08,1.54Z"/><path class="cls-51" d="M166.06,277c-.68.43-1.05,1.34-2.17,1.37-.24-1.24.65-1.62,1.43-2.06Z"/><path class="cls-52" d="M185.56,180.07l1.63-1.56.58.59a2.31,2.31,0,0,1-1.6,1.54Z"/><path class="cls-53" d="M124.69,188.41c.37-.57.69-1.73,1.47-1.07s-.35,1.22-.79,1.76Z"/><path class="cls-54" d="M144,170.2c-6.39,2.84-13.2,4.12-20.06,5-8.78,1.12-17.6,1.69-26.41.24-2.46-.41-4.92-1-6.62-3.11a.59.59,0,0,1,.54-.54c4.07,3,8.86,3.13,13.62,3.29a106.68,106.68,0,0,0,35.11-4.48c1.29-.4,2.55-.91,3.82-1.37A.62.62,0,0,1,144,170.2Z"/><path class="cls-55" d="M145,131.73c2,1.39,3.67,2.62-.29,3.69-1.25.34-1.44,1.87-1.08,3.14a2.43,2.43,0,0,0,2.42,1.95c1,.05,2-.27,3.11.33-.94,1-2.47,1.39-2.7,2.88-.52.88.59,2.28-.9,2.85a40.22,40.22,0,0,0-5.59-.42,5.56,5.56,0,0,0-2.77.28,3.84,3.84,0,0,1-1.72,0c-.56-.25-1.11-.51-.89-1.29,1.07-1.34,2.58-1.28,4.06-1.29,1.91.08,3.86.62,5.66-.48.11-.13.31-.28.29-.41-.27-1.74-3.55-4.36-5.23-4.28-2.32.11-4.6.94-7,.5-.49-.22-1-.43-.89-1.11a26.66,26.66,0,0,1,7.6-1.27,7.31,7.31,0,0,0,5.29-2.43c.91-.92.14-1.27,0-1.88S144.47,131.67,145,131.73Z"/><path class="cls-12" d="M157.47,22.24a9.09,9.09,0,0,1,4.15-6.17c2.23-1.58,3.6-1.25,5.35,1.07.13.56-.08.77-.64.64-.45.3-.31.75-.23,1.15.74,3.67-3.33,5.95-6.55,4.54-.45-.19-.93-.32-1.4-.48C157.6,23,157.17,23,157.47,22.24Z"/><path class="cls-56" d="M150.32,47.39c.84.51,1.54,1.37,2.77,1,.14-1-1.39-2-.55-2.84.55-.58,1.44.11,2,.75-.08.31-.42.39-.56.64l1.46,2.39c-2.54.75-4.91,0-7.17-.5-2-.42-2.34-2.48-2.77-4.3-.38-1.65.61-3.35-.33-4.93-.56.08-.92,0-.66-.7a5.67,5.67,0,0,1,3.26-3c-.75,2.93-1.59,5.59-1.16,8.37.24,1.59.39,3.34,2.57,3.59C149.51,47.67,149.71,47.06,150.32,47.39Z"/><path class="cls-11" d="M131.54,138l1.25.56c-.24,1-1.12,1.24-1.94,1.47-6.71,1.89-13.32,4.08-19.88,6.45a2.39,2.39,0,0,1-1.27.11c-.42-.16-.75-.38-.58-.92a3.87,3.87,0,0,0,2.45-3.33,3.26,3.26,0,0,1,1.18-2.46,1,1,0,0,1,.09,1.27c.22.81-.92,1.72,0,2.35s1.6-.26,2.38-.53C120.59,141.15,125.92,139.13,131.54,138Z"/><path class="cls-19" d="M118,161.49c-.93,1.37-.77,2.41,1,2.84,1,.26,1.92.94,3.09.76l-.08.71c-1.23-.18-2.61-.06-3.66-.59-5.13-2.56-9.94-1.3-14.74.87a15.37,15.37,0,0,1-1.66.55.49.49,0,0,1-.73,0,1.1,1.1,0,0,1,0-.8c3-2.93,7-3.61,10.85-4.07,2-.23,4.08.28,5.91-1A.48.48,0,0,1,118,161.49Z"/><path class="cls-57" d="M101.32,166.54l.64.09c-2.66,1.93-5.77,2.38-8.92,2.58-2.91.18-2.92.11-1.57,2.58l-.54.54c-.73-.28-1-1-1.23-1.58-.68-1.62-.82-2.83,1.65-2.61a12.49,12.49,0,0,0,5.69-.71c-1.52-.75-3.28-.72-4.54-1.88-.13-.5.18-.74.57-.92,1.57-.33,2.92.5,4.38.78C98.67,166,100.23,165.49,101.32,166.54Z"/><path class="cls-11" d="M118,161.49l-.08-.72c.26-1.32,1.42-1.54,2.38-1.61a66.63,66.63,0,0,0,14.73-3,3.48,3.48,0,0,1,1.54-.08c.59.18,1.2.34,1.16,1.14a52.18,52.18,0,0,1-16.2,3.8A32.65,32.65,0,0,0,118,161.49Z"/><path class="cls-12" d="M93,161.37c1.75-1.91,4.31-2.22,6.59-3.31l-2.92-1.4c-.09-.49.21-.74.6-.94,2.9,0,5.78.74,8.7.22a1.22,1.22,0,0,1,.73,1.35,1.54,1.54,0,0,1-.86.92c-4.09,1.33-8.11,2.83-12.23,4C93.2,162.11,92.87,161.9,93,161.37Z"/><path class="cls-11" d="M188.34,119.27c-.08.14-.15.38-.26.4-1.15.26-2.38,1.83-3.34.77s.91-1.73,1.33-2.7c.61-1.4,1.42-2.71,2-4.11.44-1-.17-.92-.83-.61s-.71-.08-.6-.59l3.14-3.74c.36,4.18-1.35,7.31-3.37,10.35.53.58.8-.52,1.3-.25C188,118.9,188.29,118.94,188.34,119.27Z"/><path class="cls-58" d="M147.16,146.8a9.76,9.76,0,0,0,4.86,0c.45-.08,1-.51,1.33.2.23.51-.26.73-.51,1.06-1.84,2.4-1.58,3.41,1.19,5-.22.53-.79.31-1.15.54-1.31,0-1.92-2.52-3.67-1a.87.87,0,0,1-.7-.75c.67-1.4,1.2-2.71-1.1-3.1a1.29,1.29,0,0,1-1-1.11A.84.84,0,0,1,147.16,146.8Z"/><path class="cls-15" d="M117.48,135.37a8.55,8.55,0,0,1,3.81-2c2.25-.56,4-1.56,4.94-3.75.57-.14.79.08.66.65s-1.36,1.69.62,1.52a3.6,3.6,0,0,1,3.08.61c-4.64.65-8.77,1.45-12.46,3.57C117.57,136.15,117.42,135.88,117.48,135.37Z"/><path class="cls-35" d="M126.89,130.25l-.66-.65c3-3.88,7.09-5.41,11.79-5.72a11,11,0,0,1,4.7,0c.48,0,1.13-.35,1.17.56a5,5,0,0,1-3.29,0c-.14.24-.29.24-.44,0-.92.44-2,0-2.89.41A16.39,16.39,0,0,0,126.89,130.25Z"/><path class="cls-30" d="M80.05,186l-.51-1.12a23.08,23.08,0,0,1,7.94-11.49A50.55,50.55,0,0,0,80.05,186Z"/><path class="cls-12" d="M141.38,30.23l-.6-.72c.84-2.1,1-4.38,1.5-7a2.52,2.52,0,0,1,.63,2.7c-.62,2.24.57,2.46,2.29,2.31.76-.07,1.54,0,2.52,0a6.38,6.38,0,0,1-2.12,2.22.65.65,0,0,1-.59-.57C143.32,27.87,142.17,28.42,141.38,30.23Z"/><path class="cls-36" d="M109.12,145.71l.71.65c.06,1.28-.87,2.51.23,3.88.7.88-.46,1.31-1.18,1.45-2,.4-4,.93-6.1.48-.5-.22-1-.43-.9-1.14a1.15,1.15,0,0,1,.23-.1c2.46-.41,5-.63,5.54-3.89C107.73,146.53,108.61,146.15,109.12,145.71Z"/><path class="cls-59" d="M183,134.66c.35-3.81.4-7.51-3.63-9.67.23-.47.75-.29,1.1-.48,3.6,2.28,4.74,6.48,3.08,11.37C182.51,135.86,182.86,135.21,183,134.66Z"/><path class="cls-60" d="M162,39.14a9.14,9.14,0,0,1,3.36-10.86C163.19,31.58,161.69,35.08,162,39.14Z"/><path class="cls-15" d="M145.05,127.54c1.09-.61,2-1.09,1.56-2.8-.36-1.44,0-3.13,2-3.44a4.39,4.39,0,0,1,2.84-.07c.59.63.43,1.35-.38,1.06-1.87-.69-3-.05-3.63,1.59s.95,2.05,1.74,2.9c.09.1.05.32.08.6l-3.62.76C145.13,128.31,145,128.06,145.05,127.54Z"/><path class="cls-61" d="M180.45,124.51l-1.1.48a17.37,17.37,0,0,0-5.12.42c-1.95.49-3.82.31-4.63-2,.18-.37,0-.9.5-1.12.84,2.25,2.45,2.56,4.58,2C176.6,123.69,178.57,123.44,180.45,124.51Z"/><path class="cls-62" d="M144,170.2v-1c3.59-2,7.46-3.55,10.89-5.87a.51.51,0,0,1,.09.75c-1.23,2-3.61,2.3-5.43,3.43A51.46,51.46,0,0,1,144,170.2Z"/><path class="cls-63" d="M189.88,118.22c-.1-1.78,1.51-2.17,2.73-3.66a16.93,16.93,0,0,1-2.08,7.69c-.45.82-1.37,1.54-1.13,2.68-1,.06-.93-.5-.68-1.17.61-1.36,1.18-2.74,1.85-4.07.45-.91.41-1.44-.73-1.53Z"/><path class="cls-31" d="M74.32,181.77l-.49-1.1a23.77,23.77,0,0,1,5.09-9,.72.72,0,0,1,.6.64A49.77,49.77,0,0,0,74.32,181.77Z"/><path class="cls-56" d="M143.58,32.47a11.15,11.15,0,0,0-1.05,9.59c.17.51-.06.7-.55.66-2.09-3.86-1.27-7.47.94-11C143.5,31.66,143.75,31.87,143.58,32.47Z"/><path class="cls-63" d="M77.23,157.67a30.85,30.85,0,0,1,9.14-4.44l.39.88L78,157.79A.51.51,0,0,1,77.23,157.67Z"/><path class="cls-64" d="M176.27,25.68c2.81-2,5.63-3.94,9.4-1.9-.67.61-1.45.24-2.12.25a7.38,7.38,0,0,0-5.05,1.57c-1,.88-2.25,1.67-3.76,1C174.65,25.22,175.87,26.16,176.27,25.68Z"/><path class="cls-65" d="M137.77,157.17l-1.14-.51c0-.26,0-.6.23-.7,3.29-1.59,6.47-3.49,10.29-3.53a.5.5,0,0,1,0,.73A30.93,30.93,0,0,1,137.77,157.17Z"/><path class="cls-11" d="M152.88,153.55,154,153h4.89l.09.36-5.51,2.35c-.62.24-.72-.08-.63-.59C153.52,154.61,154.48,154.09,152.88,153.55Z"/><path class="cls-66" d="M193,128.27l-.57-.7c.29-.68.59-1.35.86-2s.09-1.12-.75-1c-.69.25-.79-.1-.7-.66l3.14-2.68A11.65,11.65,0,0,1,193,128.27Z"/><path class="cls-25" d="M134.4,118c-.38-.2-.69-.34-.47-.94.5-1.35,4.08-4.36,5.45-4.49.38,0,.72,0,.81.38a.68.68,0,0,1-.32.57,10.78,10.78,0,0,0-5.08,4.18A1.5,1.5,0,0,1,134.4,118Z"/><path class="cls-64" d="M77.23,157.67l.8.12q-3.42,2.88-6.83,5.77a.68.68,0,0,1-.58-.61A20.78,20.78,0,0,1,77.23,157.67Z"/><path class="cls-67" d="M167.93,153.57l5.72-5.43.78.84-5.93,5.17A.64.64,0,0,1,167.93,153.57Z"/><path class="cls-30" d="M79.52,172.34l-.6-.64a20,20,0,0,1,5.18-5.15c.55-.13.76.08.63.64Z"/><path class="cls-68" d="M183,134.66l.55,1.22a14.21,14.21,0,0,1-3,5.88.94.94,0,0,1-.69-.71A32.43,32.43,0,0,0,183,134.66Z"/><path class="cls-65" d="M141.88,164a36.13,36.13,0,0,1,5.19-4.7.41.41,0,0,1,.7.07c-1.2,2.31-3.41,3.6-5.29,5.21A.67.67,0,0,1,141.88,164Z"/><path class="cls-25" d="M183.59,112.47c1.27-2.29,1.85-4.84,2.81-7.27.55,2.89-.75,5.32-1.87,7.79C184,113.19,183.8,112.85,183.59,112.47Z"/><path class="cls-69" d="M140.37,166c-2.06,1.26-4.16,2.38-6.72,1.26,2-.59,4.07-1,6-1.81C140.29,165.15,140.35,165.57,140.37,166Z"/><path class="cls-64" d="M157.47,22.24l.68.75a5.1,5.1,0,0,1-4.81,3.09c-.4,0-.92.1-1-.51s.43-.69.87-.63C155.4,25.19,156.47,23.78,157.47,22.24Z"/><path class="cls-30" d="M147.77,159.35l-.7-.07a21.88,21.88,0,0,1,5.8-4.15l.63.59A29.81,29.81,0,0,1,147.77,159.35Z"/><path class="cls-30" d="M191.87,123.84l.7.66c-1.13.64-2.24,1.33-3.4,1.89-.57.28-1.35.69-1.87.07s.26-1,.55-1.5.58-.8.87-1.2a1.37,1.37,0,0,0,.68,1.17C190.38,124.92,191.05,124.21,191.87,123.84Z"/><path class="cls-11" d="M183.59,112.47l.94.52c.91.54,1.41-.48,2.15-.56l.6.59c-1.42,1.44-3.37,1.46-5.19,2.27C182,113.73,183.13,113.3,183.59,112.47Z"/><path class="cls-70" d="M142,42.72l.55-.66c1.37-.59.8-2.39,1.95-3.12l.66.7a11.14,11.14,0,0,0-1.23,4.68A2.22,2.22,0,0,1,142,42.72Z"/><path class="cls-34" d="M179.83,141.05l.69.71c-1.29,1.51-2,3.51-4,4.45C177,144.1,178.73,142.77,179.83,141.05Z"/><path class="cls-70" d="M154,47l.56-.64,2.39-.19c-.16-1.18-1.5-2-.7-3.61.75,1.55,2.58,2.39,1.65,4.43a5.51,5.51,0,0,1-3,0Z"/><path class="cls-34" d="M137.55,118.76c.48-2.42,2.12-3.57,4.08-4.34l.46.5Z"/><path class="cls-35" d="M97.4,156.06l-.72.6c-1.07-1.62-.69-2.45,1.92-4.18.42-.25.67,0,.88.32C99.58,154.4,98.13,155,97.4,156.06Z"/><path class="cls-65" d="M70.62,163l.58.61-3.12,3.66-.59-.64A11.37,11.37,0,0,1,70.62,163Z"/><path class="cls-71" d="M145.05,127.54l.64.6c-.95,1.06-.79,2.33-.66,3.59l-.59.73C143.4,130.66,143.31,129,145.05,127.54Z"/><path class="cls-64" d="M93,161.37l.62.58a5.41,5.41,0,0,1-.48,3l-.65.58C90.45,164.17,90.49,163.81,93,161.37Z"/><path class="cls-30" d="M138.86,111.17c-1.23.65-2.27,1.14-3.24,1.75-.49.3-.93,1-1.43.25-.32-.5.29-1,.73-1.16C136.12,111.53,137.14,110.25,138.86,111.17Z"/><path class="cls-64" d="M167.93,153.57l.57.58a10.25,10.25,0,0,1-3,2.61c-.56.17-.73-.07-.64-.6Z"/><path class="cls-30" d="M158,161.3l3.59-2.56c.56-.16.73.08.63.61L158.72,162C158.06,162.2,157.93,161.87,158,161.3Z"/><path class="cls-72" d="M174.71,22.88c.15-.2.26-.47.46-.58.86-.5,2.19-1.49,2.68-.47.62,1.32-1.3.67-1.85,1.29a2.32,2.32,0,0,1-.65.38C174.81,23.64,174.53,23.5,174.71,22.88Z"/><path class="cls-73" d="M169.58,120.29c.64-1.7,1.9-1.88,3.64-1.44-.87,1.23-2.88.88-3.12,2.56C169.58,121.2,169.78,120.65,169.58,120.29Z"/><path class="cls-35" d="M168.65,18.72l.49-.13c.78-.18.58-1.51,1.59-1.38.47.06.44.45.28.78-.45.93-.95,1.85-2.19,1.77-.3,0-.57-.29-.86-.44C167.91,18.8,168.06,18.5,168.65,18.72Z"/><path class="cls-64" d="M174.71,22.88l.64.62c-.62,1.12-1.29,2.26.92,2.18l-1.53.88C172.84,25.35,173.48,24.12,174.71,22.88Z"/><path class="cls-65" d="M162.25,159.35l-.63-.61,3.21-2.58.64.6A11.55,11.55,0,0,1,162.25,159.35Z"/><path class="cls-74" d="M143.25,117.32c.12.72-.22.89-.53,1-.77.16-1.18,1.36-2.18.74-.1-.06-.09-.54,0-.65C141.33,117.66,142.13,116.93,143.25,117.32Z"/><path class="cls-75" d="M143.58,32.47l-.66-.71A7.08,7.08,0,0,1,145,29.18l.59.57Z"/><path class="cls-68" d="M99.27,153.08l-.67-.6a5.74,5.74,0,0,1,3.28-1.45l1.22.58C102.27,153.25,100.92,153.56,99.27,153.08Z"/><path class="cls-71" d="M158,161.3l.69.68c-1.19.79-2.17,2-3.72,2.13l-.09-.75Z"/><path class="cls-34" d="M117.48,135.37l.65.58-2.85,2.25C115.25,136.42,116.44,136,117.48,135.37Z"/><path class="cls-25" d="M81.56,160.85a7.28,7.28,0,0,1,3.37-1.7,3.71,3.71,0,0,1-3.31,2.36A.38.38,0,0,1,81.56,160.85Z"/><path class="cls-76" d="M133.05,114.31a2.7,2.7,0,0,1-1.38,2.53c-.06,0-.57-.25-.56-.35C131.22,115.49,131.85,114.9,133.05,114.31Z"/><path class="cls-77" d="M140.37,166l-.7-.55,2.21-1.49.6.58A3.38,3.38,0,0,1,140.37,166Z"/><path class="cls-78" d="M150.32,47.39l-1.17.51c.17-1.07-1.76-2.23-.41-2.92C149.47,44.6,149.67,46.6,150.32,47.39Z"/><path class="cls-64" d="M81.56,160.85l.06.66c-.55.67-.88,1.64-2,1.49l-.76-.1A5.18,5.18,0,0,1,81.56,160.85Z"/><path class="cls-21" d="M147.16,146.8l-.68.61c-.69-.07-1.19-.27-.81-1.11l.82-2.58A3.89,3.89,0,0,0,147.16,146.8Z"/><path d="M169.58,120.29l.52,1.12v.85l-.5,1.12A2.88,2.88,0,0,1,169.58,120.29Z"/><path class="cls-79" d="M112.84,141.19l-.09-1.27c.07-.86.57-1.79,1.36-1.31s-.19,1.09-.57,1.58C113.29,140.51,113.07,140.86,112.84,141.19Z"/><path class="cls-80" d="M84.73,167.19l-.63-.64c.51-.53,1.19-1.56,1.78-.81C86.62,166.67,85.24,166.77,84.73,167.19Z"/><path class="cls-68" d="M142.72,123.88H138A7.34,7.34,0,0,1,142.72,123.88Z"/><path class="cls-35" d="M168.65,18.72l-.69.6a2.93,2.93,0,0,1-1.63-1.54l.64-.64Z"/><path class="cls-21" d="M188.34,119.27l-.59-.48a2.07,2.07,0,0,1,2.13-.57l0-.06C189.6,118.88,189.24,119.44,188.34,119.27Z"/><path d="M147.17,153.16l0-.6c.24-.7.68-1,1.4-.64l.66.59A2.49,2.49,0,0,1,147.17,153.16Z"/><path class="cls-68" d="M140.6,124.47l3.29,0C142.8,125.47,141.7,124.67,140.6,124.47Z"/><path class="cls-35" d="M128.47,195.88l-.59-.66c.32-.58.82-1.44,1.41-.84S128.9,195.44,128.47,195.88Z"/><path class="cls-33" d="M203.88,101l-.62.68c-.47-.48-1.19-1-.29-1.6C203.46,99.8,203.75,100.52,203.88,101Z"/><path class="cls-81" d="M154.81,47l3,0A2.79,2.79,0,0,1,154.81,47Z"/><path class="cls-68" d="M137.27,124.88c.88-.71,1.91-.35,2.89-.41A7.12,7.12,0,0,1,137.27,124.88Z"/><path class="cls-82" d="M151.5,121.23l-2.84.07A2.45,2.45,0,0,1,151.5,121.23Z"/><path class="cls-78" d="M143.49,267.09l.57-.57c1.34,1.21,3.21,1.27,4.69,2.25A5.08,5.08,0,0,1,143.49,267.09Z"/><path class="cls-83" d="M213.36,172.62l-.79.84-5.53,1a.37.37,0,0,1,0-.65c.13-1.18-1.69-1.49-1.2-3.08,1.48,1,2.62,2.57,4.77,2,1.64-.45,1.06-1.08.56-1.91-.16-.56.07-.74.6-.63A5.23,5.23,0,0,1,213.36,172.62Z"/><path class="cls-30" d="M217,167.07a31.55,31.55,0,0,0,8.75,4.73c0,.51-.1.8-.68.59a17.42,17.42,0,0,1-8.72-4.71C216.24,167.14,216.43,166.91,217,167.07Z"/><path class="cls-19" d="M225.06,172.39l.68-.59c1.48.56,1.68,2,2.18,3.21a13.92,13.92,0,0,0,2.5,4.08l-.54,1.61C227.86,178.17,227.21,174.84,225.06,172.39Z"/><path class="cls-84" d="M207,173.86c0,.22,0,.43,0,.65-1.35,1.5-2.73,3-4.77,3.55C203.09,175.82,205.11,174.92,207,173.86Z"/><path class="cls-73" d="M211.72,170.23l-.6.62a3.94,3.94,0,0,1-1.61-2C210.89,168.52,211.22,169.5,211.72,170.23Z"/><path class="cls-85" d="M217,167.07l-.65.61c-.5-.34-1.49-.64-.81-1.35S216.6,166.59,217,167.07Z"/><path class="cls-1" d="M148.55,151.92l-1.4.64-10.52,4.1c-6,2.24-12.45,2.7-18.67,4.11-1.91,1.76-1.91,1.65-5.35,1.78a24.43,24.43,0,0,0-11.26,3.57,9.89,9.89,0,0,1-4.16.06l-4-1.21c-1.59-1.28,0-2.06.48-3,3.93-2.61,8.63-3.12,12.91-4.78.43-1.13,1.49-1.38,2.46-1.66a100.66,100.66,0,0,0,13.45-5.13c3.44-1.46,7-2.3,10.8-1.44.17.18.1-.45,0-.12-1.81-1.15-.62-1.84.39-2.55.7-.37,1.52-.06,2.21-.44l1.44-.17c.93-.32,1.94.05,2.86-.35,1.82.48,3.9-.53,5.54,1a1.24,1.24,0,0,0,.81,1.11c.51.71,1.36.58,2.05.86s1.92-.64,2.15.54a2.34,2.34,0,0,1-1.57,2.63A2.3,2.3,0,0,0,148.55,151.92Z"/><path class="cls-1" d="M99.27,153.08l3.83-1.47,6.79-.61c0-1.69-2.56,0-2.08-2,.28-1.19,1.27-1.8,2-2.61,7-3.2,14.37-5.31,21.77-7.33a12,12,0,0,0,1.19-.43c2.65-.32,5.29-.68,7.94-.95.59-.06,1.51-.49,1.71.55.37,1.91,1.56,2.81,3.31,3.53,1.14.47-.8,1.38-.21,2.22-1.13,1.07-2.51.34-3.76.51-1.07.14-2.19-.15-3.25.24-1.37-.31-2.61.24-3.87.61a1.72,1.72,0,0,1-1,1.09,8.32,8.32,0,0,1-6.09,2.65c-1.8,0-3.56,1.09-5.28,1.84-4.3,1.73-8.59,3.5-13,4.89-1,.33-2,1.07-3.21.49-2.91,1.47-5.77.79-8.63-.21C96.92,154.38,98.56,154,99.27,153.08Z"/><path class="cls-21" d="M138.53,144.7c2.26-.94,4.75.24,7-.75C143.36,145.68,140.85,144.35,138.53,144.7Z"/><path class="cls-21" d="M133.62,145.8l1-.49,1.17.52-1.74.74C133.68,146.47,133.46,146.25,133.62,145.8Z"/><path class="cls-21" d="M140.13,145.31l-2.86.35C138.15,145,139.16,145.31,140.13,145.31Z"/><path class="cls-86" d="M162,17.59l.43,3.51c1.39-1,.77-2.1.71-3.08,0-.64.13-1,.76-1.06a.77.77,0,0,1,.93.67c.23,1.45.65,3-.51,4.19a4,4,0,0,1-4.2.77c-1.13-.31-1.44-.92-1-2.09A6,6,0,0,1,162,17.59Z"/><path class="cls-75" d="M97.19,166.18l4.16-.06c0,.14,0,.28,0,.42C99.93,166.59,98.5,167,97.19,166.18Z"/><path class="cls-21" d="M106,156.27c4.2-1.49,8.39-3,12.58-4.47,1.19-.42,2.37-.87,3.56-1.31.23.15.54.2.61.53-5.16,2.71-10.73,4.36-16.24,6.15Z"/><path class="cls-21" d="M122.78,151l-.61-.53a16.09,16.09,0,0,1,4.44-1.71c2.54-.52,5.13-.9,7-3l.47.77c-.44.49-1.23.67-1.37,1.52,1.08.72,2.61.4,3.6,1.78C131.59,148.56,127.13,149.3,122.78,151Z"/></svg>