<svg id="Layer_1" data-name="Layer 1" xmlns="http://www.w3.org/2000/svg" viewBox="0 0 300 300"><defs><style>.cls-1{fill:#d8d8d8;}.cls-2{fill:#d7d7d7;}.cls-3{fill:#cdcdcd;}.cls-4{fill:#242424;}.cls-5{fill:#2c2c2c;}.cls-6{fill:#161616;}</style></defs><path d="M26.87-.6H273.13a1,1,0,0,1,1,1V176.61A123.39,123.39,0,0,1,150.73,300H149.5A123.62,123.62,0,0,1,25.88,176.38V.4a1,1,0,0,1,1-1Z"/><path class="cls-1" d="M84.84,79.82c-.75-1.28-.07-2.1.56-2.88,3.49-4.34,7.71-8.06,10.89-12.67.66-1,2-.28,2.71-1.21-.71-1.12-1.8-.83-2.75-.88a12.83,12.83,0,0,1-5.45-1.32,3.41,3.41,0,0,1-1.67-3.73,2.37,2.37,0,0,1,2.56-2.37c2.69.35,4-.93,4.81-3.39.69.53,1.12.93,1.61,1.23a3.14,3.14,0,0,0,3.39.3,2.59,2.59,0,0,0,1.2-3.12c-.45-1.71.21-2.42,1.73-3,2.32-.89,4.19-2.31,4.35-5.79-2.42,3.47-5.6,4.74-8.92,5.85a9,9,0,0,0-5.49,4.75,1.83,1.83,0,0,1-1.68,1.23c-3.42.37-5.19,2-5.35,4.78s1.48,4.61,4.74,5.53c.72.2,1.56.07,2.19.83-2.63,3.37-5.51,6.53-8.47,9.63-1.87,2-3.64,4-2.18,7a1.66,1.66,0,0,1-.5,2.1c-.82.53-1.46-.22-2.05-.64-3.7-2.6-4.07-4.34-1.84-8.38,1.54-2.77,3.13-5.51,4.63-8.3a3.14,3.14,0,0,0,.32-3.15c-2.63-5.33-1.63-10.41,1.75-15A32.29,32.29,0,0,1,108,34.41c16.51-2.39,30.35,9.18,31.68,26.06,1.2,15.32-4,28.38-13.79,39.91-8.52,10-18,19.09-27.42,28.22a144.69,144.69,0,0,0-10.68,10.77,21.56,21.56,0,0,0-2.35,3.36,7.35,7.35,0,0,0,1.18,8.76c2.39,2.17,5.77,2.32,8.8.37a19.94,19.94,0,0,0,5.14-5.34c5.79-8,10.81-16.49,17-24.18,17-21.13,38.22-35.92,64.77-42.38,10.62-2.59,21.36-3,32,.23l.74.24c4.12,1.38,4.07,1.34,1.41,4.68-2.31,2.91-4.47,5.27-8.89,5.26-19.39,0-36.57,7.23-52.83,17.06-16.57,10-31.38,22.11-43.17,37.61-5,6.54-8.75,13.73-10.27,21.89-1.43,7.75,2.51,13.72,9.65,14.95,3.15.54,7-.94,8.36-3.37a7.28,7.28,0,0,0-.46-8,6.85,6.85,0,0,0-4.46-2.79c-.8-.2-1.66-.14-1.87.81s.57,1.11,1.25,1.33c2,.65,3.54,1.71,3.79,4,.42,3.91-3.13,6.58-7.21,5.4a9.28,9.28,0,0,1-6.27-8.29c-.19-5.13,1.61-9.77,3.91-14.2,5.7-11,13.86-20,23-28.08C145,116.36,160.31,106.12,177.58,99a81.93,81.93,0,0,1,44.63-5c1.91.3,4.2.5,4.88,2.7s-1.08,3.67-2.36,5.12c-3,3.35-6.77,5.49-10.76,7.31-2.41,1.1-5,1.88-7.36,3s-4.44,1.59-5.74-1.64c-.58-1.47-2.42-2-3.94-3,7.81-3.1,15.2-6.61,23.54-7.35a17.58,17.58,0,0,0-11.13,0c-7.1,2.16-13.85,5.5-21.39,6.18a59.92,59.92,0,0,0-13,2.73,30.22,30.22,0,0,0-7.45,3.39c-.68.46-1.75.91-1.46,1.89s1.39.8,2.22.84A31.3,31.3,0,0,1,185,120.83c1.56,1.1,1.58,1.87.2,3.1-1.93,1.72-4,3.23-6.07,4.75-.88.63-2,1.06-2.45,2.24,1.47,1.26,3.34,1.71,5,2.47a22.34,22.34,0,0,1,6.33,3.85c1.58,1.48,1.67,2.93-.15,4.26-1.66,1.22-3.37,2.36-5,3.58-2.63,1.92-2.61,2.13.18,3.66a13.84,13.84,0,0,1,3.3,2.44c2.45,2.52,2.3,4-.62,5.94-.86.56-1.78,1-2.69,1.51s-1.81.94-2.94,1.53c1.18,1.5,2.4,2.87,3.43,4.37,2.06,3,1.71,3.81-1.73,4.74a16.5,16.5,0,0,1-6.37.36c-.68-.08-1.48-.24-1.93.37s.11,1.43.42,2.12c.63,1.4,2.49,2.67,1.29,4.32s-3.14,1-4.82,1c-1.45,0-2.83-.74-4.58-.32.7,1.94,2.42,2.22,4,2.63,5.07,1.37,7.59-.52,7.51-5.7,0-1.59.57-2.21,2.08-2.18a10.73,10.73,0,0,0,7.23-2.15,1.28,1.28,0,0,1,1.83,0c1.68,1.38,4.3,2.23,4.21,4.79s-2.81,2.85-4.68,3.74a6.18,6.18,0,0,1-.72.26c-1.45.5-3.51.58-4.21,1.6-.93,1.37,1.33,2.32,1.87,3.68,1.31,3.24.17,5.24-3.32,5.75-1.08.15-2.82-.45-3.07,1-.2,1.23,1.3,1.91,2.34,2.46,6,3.18,12.39,3.29,18.79,2.16a25.56,25.56,0,0,1,11,.19c12.65,3.12,25,2.24,36.51-4.51.52-.3,1.1-1.14,1.77-.47s0,1.35-.26,1.91a34.83,34.83,0,0,1-10.52,12.44c-.86.68-1.8.38-2.71.28a57.37,57.37,0,0,1-11-2.53,30.88,30.88,0,0,0-18.71,0c-7.2,2.25-14.44,3.8-21.93,1.25-1.45-.5-3-.75-4.45-1.22a30.9,30.9,0,0,0-18.95,0c-6.51,2-13.07,3.65-19.94,1.66-2.05-.6-4.16-1-6.19-1.66a28.64,28.64,0,0,0-18.69,0,39.09,39.09,0,0,1-26.89-.08c-6.64-2.35-13.33-1.63-19.94.47a60.61,60.61,0,0,1-9.51,2.16,3.27,3.27,0,0,1-3.36-1.21C42,187.48,39.07,165.92,53,147.78c8.77-11.4,19.61-20.57,30.86-29.33,10.15-7.91,20.3-15.81,28.86-25.51a43.4,43.4,0,0,0,8.13-12.41,19.11,19.11,0,0,0,1.33-4.94c1-9-2.49-13.58-11.33-15.18-3.19-.57-5.69.73-8,2.57-5.08,4-9.42,8.75-14,13.26A20.48,20.48,0,0,1,84.84,79.82Z"/><path class="cls-1" d="M199,157.12c-1.51-.07-2.52-1.34-3.59-2.37-.68-.66.29-1,.68-1.32a15.42,15.42,0,0,0,4.82-5.9c.54-1.3,1.65-1.64,2.85-1.88a70.75,70.75,0,0,0,28.67-13.07c3.28-2.46,6.83-2.42,10.41-2.81,1.75-.19,1.52,1.21,1.06,2.33a24.09,24.09,0,0,1-6.34,8.61c-6.84,6.21-14.89,10.23-23.59,13.06A122.62,122.62,0,0,1,199,157.12Z"/><path class="cls-1" d="M197.43,139.61c9.41-2.45,18.34-5.13,26-10.94-8.52,3-16.7,7.09-25.87,8.17,0-.29,0-.4,0-.46,2.94-4.31,7.42-5.64,12.21-7A50.76,50.76,0,0,0,232,117c2.18-2.14,5.54-2,8.38-2.85,1.39-.4,1.17,1.12,1,2a15.26,15.26,0,0,1-3.56,7.3c-5.48,6.72-12.61,11.24-20.32,14.93a103,103,0,0,1-12,4.34c-2.56.86-4.62,1-6.29-1.47A12.56,12.56,0,0,0,197.43,139.61Z"/><path class="cls-1" d="M195.79,169.33h-.55c-1.08-.08-2.64.44-3-.74-.47-1.45,1.38-1.34,2.17-2,1.93-1.5,4.27-2.61,4.65-5.45.14-1.09,1.09-1.17,1.93-1.34,2.77-.54,5.54-1,8.3-1.62a63.19,63.19,0,0,0,20.29-8.29c2.55-1.56,4.8-1.87,7.4-.52,1.63.85,4.72,1,4.75,2.27,0,1.78-2.34,3.12-4,4.32-8.09,5.91-17.33,9.09-27,11.11A106.75,106.75,0,0,1,195.79,169.33Z"/><path class="cls-1" d="M197.19,122.92c10.24-1.19,19.43-4.4,27.33-10.81-8.28,2.75-16,7.1-25.09,8.39,1.71-2.94,3.38-4.76,6.88-5.52a41.22,41.22,0,0,0,18.34-9.3c1.49-1.28,2.81-1.76,4.6-1.07a3.9,3.9,0,0,0,1.51.25c3.82-.17,4.42.42,2.63,4.62-1.53,3.58-4.27,6.16-7.18,8.58-6.5,5.41-14.1,8.61-22.14,10.89-1.09.31-1.95.32-2.35-1.1C201.09,125.63,198.71,124.92,197.19,122.92Z"/><path class="cls-1" d="M209.07,192.59a4.55,4.55,0,0,1,4.44-2.88c9.3-.62,18-3,25.55-8.86a7,7,0,0,1,4.49-1.51c3.6,0,7.2-.16,10.8-.24.58,0,1.37-.18,1.65.41.38.8-.5,1.17-1,1.58-7.62,6.85-16.08,11.93-26.61,12.64A65.05,65.05,0,0,1,209.07,192.59Z"/><path class="cls-1" d="M192.61,179.84c2-2.21,4.7-3.9,3.37-7.35-.16-.41.41-.67.88-.68,8.9-.11,17.35-2.8,26-4.45a8.47,8.47,0,0,1,4.32.27c1.61.54,1.81,1.46.6,2.61a14.25,14.25,0,0,1-2.23,1.72,52.08,52.08,0,0,1-28.85,8.57A10.54,10.54,0,0,1,192.61,179.84Z"/><path class="cls-1" d="M184,192.41c3.58-2.92,5.2-5.8,3.7-9.34,6.25,0,12.47,0,18.7,0a3.53,3.53,0,0,1,3.52,2.51c.48,1.5-.82,2.33-1.8,3.08C201,194.13,193,194.14,184,192.41Z"/><path class="cls-1" d="M240.07,176.15a38.31,38.31,0,0,1-12.65,8.15,71.3,71.3,0,0,1-12.34,3.37c-1.32.27-2.23.15-1.8-1.59a2.51,2.51,0,0,0-1.32-2.81c-1.48-1-.84-1.48.38-2a106.46,106.46,0,0,0,15.09-7,2.26,2.26,0,0,1,1.7-.33Z"/><path class="cls-1" d="M173.71,112.61c3.91-1.94,7.75-2.44,11.53-3.11,3.23-.57,6.46-.74,9.6.5,4.93,2,5.45,4.93,1.48,8.37-1.79,1.56-4,2.19-6.23,2.85a1.37,1.37,0,0,1-1.62-.41C184.88,116.06,179.69,114.12,173.71,112.61Z"/><path class="cls-1" d="M181.25,130.32a39,39,0,0,0,7.78-5.8,2,2,0,0,1,.87-.51c1.41-.24,8.37,3.18,9.13,4.34.56.85.1,1.49-.29,2.12a22.49,22.49,0,0,1-6.13,6.13c-.57.41-1,.55-1.52,0C188.63,133.59,185.44,131.72,181.25,130.32Z"/><path class="cls-1" d="M193.18,140.69a8.93,8.93,0,0,1,5,3.95c1,1.72-.43,3-1.56,4.22-4.72,5-6.85,4.72-10.42-1.16a1,1,0,0,1,.31-1.51,23.26,23.26,0,0,0,5.11-5C191.94,140.76,192.49,140.69,193.18,140.69Z"/><path class="cls-2" d="M196.32,160.07a2.38,2.38,0,0,1-.74,1.86,16.35,16.35,0,0,1-2.5,2.2c-4.56,3.09-6.21,2.56-8.28-2.51-.27-.66-.12-.88.4-1.17a15.07,15.07,0,0,0,5.17-4.14,1.18,1.18,0,0,1,.59-.47C192.08,155.53,196.26,158.85,196.32,160.07Z"/><path class="cls-3" d="M101.58,50.42c0,1.29-.61,1.77-1.44,1.72a1.68,1.68,0,0,1-1.69-1.84c0-1,.53-1.62,1.58-1.52A1.6,1.6,0,0,1,101.58,50.42Z"/><path class="cls-4" d="M114.26,40.11C114,43.64,113.72,44,111,44Z"/><path class="cls-5" d="M120.61,42.28c-.11,2.6-.67,4-3.36,4.41Z"/><path class="cls-6" d="M114.63,44.93c.92-1.18,2.11-2,2.74-3.78C117.84,44.42,117.28,45.09,114.63,44.93Z"/></svg>