<svg id="Layer_1" data-name="Layer 1" xmlns="http://www.w3.org/2000/svg" viewBox="0 0 300 300"><defs><style>.cls-1{fill:#1e5690;}.cls-2{fill:#c5c3c4;}.cls-3{fill:#ebaf11;}.cls-4{fill:#eaaf11;}.cls-5{fill:#e7ac11;}.cls-6{fill:#eaae11;}.cls-7{fill:#e9ae11;}.cls-8{fill:#100c01;}.cls-9{fill:#e4aa10;}.cls-10{fill:#1e558f;}.cls-11{fill:#191202;}.cls-12{fill:#181202;}.cls-13{fill:#88660a;}.cls-14{fill:#89670a;}</style></defs><path d="M26.1-.6H273.9a1,1,0,0,1,1,1V176.61A123.39,123.39,0,0,1,151.5,300h-2.78A123.62,123.62,0,0,1,25.1,176.38V.4a1,1,0,0,1,1-1Z"/><path class="cls-1" d="M150,296c-33.72-.55-62.59-12.61-86.49-36.47-2.36-2.35-2.31-2.39.06-4.77Q90,228.21,116.44,201.62a4.81,4.81,0,0,1,4.63-1.58,140.59,140.59,0,0,0,16.14,1.55c4.33.2,6.41,2.44,6.41,6.73,0,.92,0,1.84,0,2.75,0,2.33.22,4.67,2.83,5.57,2.85,1,5.74,1.1,8.36-.74,1.2-.84,1.43-2.22,1.52-3.56s0-2.83.06-4.24c0-3.91,2.19-6.3,6.14-6.49A145,145,0,0,0,179.17,200a4.59,4.59,0,0,1,4.38,1.6q26.65,26.88,53.44,53.64c1.45,1.44,1.54,2.28.08,3.76-18.06,18.35-39.65,30.1-64.95,34.92A120.53,120.53,0,0,1,150,296Z"/><path class="cls-2" d="M271,46.48v3.08q0,62.09,0,124.16a128.35,128.35,0,0,1-2.52,25.79c-.13.63-.34,1.25-.57,2.09-.75-.71-1.36-1.26-1.94-1.84q-36-36.19-72.09-72.4c-1.08-1.08-1.86-1.72-.3-3.28q38.06-38.07,76-76.28C269.88,47.47,270.24,47.16,271,46.48Z"/><path class="cls-2" d="M32.06,201.58a97.08,97.08,0,0,1-2.46-14.92A144.54,144.54,0,0,1,29,171.94q0-61.09,0-122.18V47c1-.12,1.32.72,1.78,1.19Q68.56,86.06,106.28,124c1.07,1.08,1.62,1.71.23,3.11q-36.74,36.76-73.36,73.63C32.87,201,32.54,201.19,32.06,201.58Z"/><path class="cls-1" d="M29,5.45c1.05,1,1.66,1.51,2.23,2.09Q73.48,49.95,115.7,92.35a5.49,5.49,0,0,1,1.83,4.33c-.12,8.91,0,17.83-.08,26.74-.07,16.55-5.56,31-17.07,43a44.19,44.19,0,0,0-10.81,17.74A7,7,0,0,1,87.69,187q-21.43,21.49-42.83,43c-1.52,1.54-2,1.22-2.85-.51A135.07,135.07,0,0,1,33,206a3.49,3.49,0,0,1,1.14-3.9q28.35-28.37,56.62-56.8c5.93-6,11.79-12,17.8-17.89,1.49-1.46,1.43-2.26,0-3.72Q69.81,84.92,31.13,46A6.7,6.7,0,0,1,29,40.79C29.09,29.22,29,17.65,29,5.45Z"/><path class="cls-1" d="M270.62,5.79A4.62,4.62,0,0,1,271,8.43c0,10.91,0,21.82.05,32.73a5.89,5.89,0,0,1-1.84,4.6q-38.75,38.82-77.43,77.68c-1.67,1.68-1.77,2.52,0,4.26q37,37,73.92,74.12a4.23,4.23,0,0,1,1.22,4.79,135.23,135.23,0,0,1-8.89,23c-.78,1.56-1.25,2-2.69.51q-21.43-21.67-43-43.21a6.84,6.84,0,0,1-1.83-2.91,45,45,0,0,0-10.86-17.72c-9-9.45-14.66-20.53-16.31-33.54a79.07,79.07,0,0,1-.66-8.95c-.09-9.33,0-18.66-.09-28A3.6,3.6,0,0,1,183.7,93q43-43.2,86-86.42C269.93,6.35,270.2,6.15,270.62,5.79Z"/><path class="cls-1" d="M71.81,4.18h156.3c0,1-.77,1.35-1.26,1.84q-26,26.16-51.93,52.32c-1.26,1.26-1.74,1.46-3.12-.07C168,54,163.82,50,159.68,46a5.19,5.19,0,0,1-1.77-4.38,36.67,36.67,0,0,0-.15-5.74A4,4,0,0,0,153.44,32c-2.33,0-4.66-.05-7,0a3.91,3.91,0,0,0-4.17,3.8,51.9,51.9,0,0,0-.19,6.48,4.22,4.22,0,0,1-1.32,3.32c-4.48,4.47-8.92,9-13.29,13.55-.88.91-1.23.32-1.75-.2l-7-7.08Q96,29.07,73.43,6.28A4.49,4.49,0,0,1,71.81,4.18Z"/><path class="cls-2" d="M161.39,83.27c3-3,5.79-5.86,8.68-8.58,3.55-3.32,5.36-7.18,4.09-12.07-.35-1.35.7-1.77,1.34-2.42q23.76-23.94,47.56-47.85a25.72,25.72,0,0,0,3-3c3.21-4.48,7.43-5.64,12.87-5.4,10,.46,20.13.13,30.23.13.15.93-.6,1.2-1,1.61Q225.58,48.46,183,91.25c-1.22,1.23-1.83,1.51-3.29.17-4.27-3.92-9.58-5.89-15.09-7.36C163.71,83.81,162.76,83.6,161.39,83.27Z"/><path class="cls-2" d="M30.2,4.75a3.05,3.05,0,0,1,2.51-.68c11.32,0,22.65,0,34-.05a4.43,4.43,0,0,1,3.47,1.45q27.16,27.42,54.43,54.75a3,3,0,0,1,1.08,3.19,10.76,10.76,0,0,0,3.27,10.24c3.14,3.09,6.27,6.19,9.68,9.54A84,84,0,0,0,129.39,86a29.13,29.13,0,0,0-9.17,5.44c-1.23,1.17-1.9,1.16-3.11-.07q-15.8-16-31.7-31.9Q58.8,32.73,32.18,6A11.66,11.66,0,0,0,30.2,4.75Z"/><path class="cls-3" d="M180,133.45c2.45.72,2.46,2.88,2.53,4.76.05,1.55-1.07-.19-1.54.29-2.69-.29-5.22-1.44-7.74-1.54,2.2.34,4.68.43,6.75,2,3.32.84,4,3.45,4.48,6.55a35.41,35.41,0,0,0-14.57-2.82c5.71,2.06,12.86.76,16.62,7.2a199.35,199.35,0,0,0-73.17.39,69.2,69.2,0,0,0,4.16-12.88c1.6-8,1.56-16.06,1.38-24.13,0-2.06.66-2.86,2.51-3.47,11.23-3.72,22.77-4.62,34.49-4a79.6,79.6,0,0,1,23,4.18c.75.26,1.82.27,2,1.18a3.87,3.87,0,0,1-.12,2.66c-.42.67-1.32-.19-2-.41a30.49,30.49,0,0,0-10.74-1.92c.44,1.26,1.33.94,2,1a44.23,44.23,0,0,1,7.8,1.59c2.44.67,3.72,1.95,3.16,4.61a12.86,12.86,0,0,0-.12,1.89,35.09,35.09,0,0,0-13.08-2.77c.66,1.24,1.68,1,2.45,1.08a36.86,36.86,0,0,1,6.84,1.38c4.11,1.29,4.11,1.31,3.83,6.52-4.2-1.39-8.39-2.59-12.77-2.58l-.15.75,3.94.57a30,30,0,0,1,7.23,1.82c2.35.94,3,3.1,1.78,5.7-2.89-.42-5.59-1.64-8-1.81C175,131.84,177.84,131.61,180,133.45Z"/><path class="cls-2" d="M116.35,199.57c-1.7,1.6-3.18,2.91-4.56,4.3q-25,25.11-50,50.28c-1.41,1.42-2.1,1.39-3.37-.13A133.56,133.56,0,0,1,44.91,234.9c-.74-1.26-.61-1.9.4-2.9q21.45-21.45,42.81-43c1-1,1.36-1.06,2.31.15,3.38,4.28,8.44,5.75,13.35,7.26C107.71,197.64,111.78,198.44,116.35,199.57Z"/><path class="cls-2" d="M184,199.33a94,94,0,0,0,14.52-3.6c4.61-1.67,9.26-3.35,12.05-7.82,5.4,5.36,10.73,10.6,16,15.89,9.35,9.36,18.65,18.77,28,28.09A2.13,2.13,0,0,1,255,235a129.89,129.89,0,0,1-13.71,19.29c-.88,1-1.4,1.55-2.66.27q-27-27.23-54-54.34A9,9,0,0,1,184,199.33Z"/><path class="cls-3" d="M92.53,180.65a34.32,34.32,0,0,1,6.23-10.14c3.14-3.66,6.6-7.06,9.27-11.11.69-1.05,1.77-1.17,2.79-1.41,12.3-2.92,24.82-3.84,37.41-3.93,13.76-.09,27.44.78,40.91,3.88a5.05,5.05,0,0,1,3.38,2.22c2.43,3.59,5.51,6.66,8.36,9.92a35.88,35.88,0,0,1,6.15,9.48c-.37.43-.68.47-1,.3-8.85-4.69-18.57-6.15-28.32-7.32a232.94,232.94,0,0,0-50.84-.49c-11,1.08-22,2.43-32.13,7.43C94.14,179.77,93.56,180.1,92.53,180.65Z"/><path class="cls-3" d="M137.51,200.18c-13.4-1-26.47-2.21-38.85-7.18a18.75,18.75,0,0,1-6-3.51c-2.53-2.36-2.51-4.77.16-7a26.73,26.73,0,0,1,9.39-4.49c10.09-3.1,20.49-4.31,31-5a241.1,241.1,0,0,1,44.14,1c7.94.94,15.81,2.23,23.34,5a19.66,19.66,0,0,1,6.93,3.87c2.15,2,2.15,4.19.06,6.3a16.45,16.45,0,0,1-5.44,3.45c-12.62,5.32-26,6.52-39.68,7.53a4.89,4.89,0,0,1,4.8-3.37c9.46-.62,18.9-1.56,28.06-4.26a22.78,22.78,0,0,0,6.61-2.88c3.17-2.2,3.18-4.78,0-6.91a28.82,28.82,0,0,0-9.73-3.73c-14.62-3.35-29.49-4.05-44.41-3.94-13.41.1-26.78.86-39.91,3.91A33.87,33.87,0,0,0,99,182.13c-1.62.91-3.31,2-3.35,4s1.76,3.31,3.46,4.19c5.1,2.64,10.68,3.63,16.25,4.59a137,137,0,0,0,17.12,1.85A5,5,0,0,1,137.51,200.18Z"/><path class="cls-3" d="M163.11,176.92c10.39.53,20.74,1.37,30.84,4.1a22.9,22.9,0,0,1,7.32,3.06c2.11,1.47,2.14,2.81,0,4.25-3.44,2.34-7.45,3.22-11.42,4.1a183.06,183.06,0,0,1-22.74,3c-1.69.15-2.6-.21-2.23-2,1.07-5.37-1.58-8.87-5.75-11.64-.69-.46-1.31-1-2-1.54-1.05-.84-.72-2-.5-3s1.27-.51,1.94-.5C160.12,176.71,161.61,176.84,163.11,176.92Z"/><path class="cls-3" d="M181,103.33a98.18,98.18,0,0,0-62.06,0c0-2.1.09-4.16,0-6.22-.09-1.56,1.07-1.7,2-2a77.15,77.15,0,0,1,22.2-4.27c12-.7,23.9.18,35.44,4.09,1.91.65,2.69,1.52,2.45,3.54A44.22,44.22,0,0,0,181,103.33Z"/><path class="cls-3" d="M113,183.06l-5.73-2.28c4-1.17,7.29-2,10.93-.2A18.87,18.87,0,0,0,128.29,182c-3.63-1.15-7.56-1.07-11.45-3.05a53.33,53.33,0,0,1,9.81-1.39c4.81-.43,9.64-.64,14.46-.87.78,0,2-.67,2.28.68.2,1.08.33,2.23-.9,3.11a53.27,53.27,0,0,0-5,4.16c-.84.76-1.82,1.48-2,2.73-.59,4.31-.59,4.06-5.42,3.94a76.66,76.66,0,0,1-17.91-2.63c-1.66-.44-3.47-.64-4.64-2.15-2.29-1.11-4.77-1.83-7-3.36,2.66-1.62,5.22-2.61,8.16-.78a14.28,14.28,0,0,0,3.27,1.09c4.78.81,9.42,2.29,14.28,2.78,1.49.15,3,.08,4.46.2.88.07,1.84-.26,2.48.36-.95-.72-2.21-.31-3.38-.35a69.18,69.18,0,0,1-15.58-2.62A2.93,2.93,0,0,1,113,183.06Z"/><path class="cls-3" d="M189.8,156.4c-35.32-5.22-44.82-5.22-79.45,0,1.29-3.9,1.46-4.09,5.41-4.92,16.19-3.4,32.54-3.69,49-2.67a171.85,171.85,0,0,1,19,2.48C186.94,151.83,188.91,153.23,189.8,156.4Z"/><path class="cls-3" d="M147,58.28q0-10.74,0-21.49c0-2.11.59-3.42,3.16-3.38,2.76.05,2.83,1.8,2.84,3.69q0,17.74,0,35.49c0,2.66-.07,5.33,0,8,.05,1.4-.33,1.85-1.81,1.83-4.22-.08-4.22,0-4.22-4.14Z"/><path class="cls-3" d="M150.57,186c3.28.29,7,.67,10.73.91,1.64.11,2.15.89,2.09,2.4-.09,2.23.7,5-.36,6.56-1.28,1.84-4.13.19-6.29.11a101.13,101.13,0,0,0-17.66.5c-1.8.25-2.72-.15-2.48-2.16a24.84,24.84,0,0,0,0-3c0-4.16,0-4.23,4-4.66C143.8,186.34,147,186.23,150.57,186Z"/><path class="cls-3" d="M180.84,108.81a101.64,101.64,0,0,0-61.66,0c-.92-2.65.15-3.94,2.8-4.82,12.22-4,24.77-4.66,37.46-3.72A80.45,80.45,0,0,1,178,104C180.59,104.81,181.67,106.11,180.84,108.81Z"/><path class="cls-3" d="M119.9,93.61c15-13.76,48.14-12,59.69-.17A101.38,101.38,0,0,0,119.9,93.61Z"/><path class="cls-3" d="M142.07,46.5c0,2.39,0,4.29,0,6.18A2.75,2.75,0,0,1,141,54.8c-1.78,1.75-3.58,3.49-5.29,5.3-3.14,3.31-3.16,7.4-.07,10.73A30.25,30.25,0,0,0,139.89,75c2.46,1.78,2.28,4.2,2.17,6.68-.07,1.62-1.21,1.65-2,.85-4-4-8.48-7.58-11.75-12.22A9,9,0,0,1,129.44,59C133.4,54.9,137.57,51,142.07,46.5Z"/><path class="cls-3" d="M158,47.05c4.36,4.19,8.85,8.15,12.9,12.52a9,9,0,0,1-.34,12.32c-3.26,3.56-6.78,6.88-10.17,10.33-.57.57-1.16,1-2,.63s-.44-1.16-.52-1.77a6.19,6.19,0,0,1,2.48-6.31,31.59,31.59,0,0,0,3.9-3.86c3.12-3.37,3.13-7.39.06-10.75-.79-.86-1.64-1.66-2.46-2.49C157.63,53.38,157.63,53.38,158,47.05Z"/><path class="cls-4" d="M135,195.47c-10.67-.73-21.32-1.58-31.58-4.92A15.52,15.52,0,0,1,98.31,188c-1-.78-1.67-1.68-.68-3a2,2,0,0,1,3-.62,20.59,20.59,0,0,0,5.89,2.55c4.39.76,8.6,2.27,13,3.09s8.57.68,12.82,1.34C135.57,191.94,135.66,191.86,135,195.47Z"/><path class="cls-5" d="M153,33.7c1.89-.39,2.82.35,3.12,1.89a15.45,15.45,0,0,1,.27,3q0,20.85,0,41.69c0,.86.76,2.39-1.24,2.29S154,81,154,80.09C154,66,154,52,154,37.91,154,36.51,154.2,35.05,153,33.7Z"/><path class="cls-5" d="M143.57,58.76c0-7,0-14,0-20.95,0-1.4,0-2.87,1.25-3.88a1.26,1.26,0,0,1,1.38-.29c.4.23.2.74.07,1.13a12,12,0,0,0-.27,4q0,20.21,0,40.41c0,.49,0,1,0,1.49,0,.86.3,1.87-1.2,1.92s-1.22-1-1.22-1.85C143.56,73.39,143.57,66.07,143.57,58.76Z"/><path class="cls-3" d="M161.64,198.05c-4.88,7.77-18.5,7.69-23.24,0A88.2,88.2,0,0,1,161.64,198.05Z"/><path class="cls-6" d="M154.86,209.48c0,.49,0,1,0,1.49,0,3.73-1,4.73-4.65,4.82-3.9.1-5-1-5.06-4.91,0-5.95,0-5.95,5.4-5.9C154.86,205,154.86,205,154.86,209.48Z"/><path class="cls-7" d="M158.94,185.06a100.62,100.62,0,0,0-17.87,0c-.6.21-1.14.32-1.11-.61,6.61-5.58,13.51-5.58,20.09,0C160.08,185.38,159.54,185.28,158.94,185.06Z"/><path class="cls-5" d="M158.19,56.21c1.93,1.89,3.79,3.55,5.45,5.39a5.57,5.57,0,0,1,.48,7.13,43.18,43.18,0,0,1-5.94,6.1c-.52-1.79-.32-3.13,1-4.18a14.38,14.38,0,0,0,1.24-1.23c3-3.06,3-4.82-.12-8C159,60.06,157.17,58.85,158.19,56.21Z"/><path class="cls-5" d="M141.88,74.63c-1.95-1.86-3.93-3.51-5.63-5.41a5.43,5.43,0,0,1-.1-7.31c1.73-2,3.77-3.67,5.73-5.55.43,1.57.31,2.9-1.07,4A16.24,16.24,0,0,0,139,62.08c-2.32,2.43-2.28,4.42,0,6.91C140.54,70.55,142.9,71.69,141.88,74.63Z"/><path class="cls-8" d="M135,195.47c.29-3.5.29-3.48-3.08-3.64A84,84,0,0,1,109,188c-.85-.28-1.66-.68-2.49-1l1-.44a89.14,89.14,0,0,0,23.08,4.15c4,.17,4,.27,4.89-3.31C135.31,190.09,136.15,192.85,135,195.47Z"/><path class="cls-9" d="M150,179c-1.15.05-2.31.06-3.46.16-.9.09-1.6.18-1.62-1.11s.51-1.53,1.62-1.51c2.31,0,4.63,0,6.94,0,1.13,0,1.64.3,1.61,1.53s-.73,1.19-1.62,1.11C152.32,179.07,151.16,179.06,150,179Z"/><path class="cls-8" d="M113,183.06a103.21,103.21,0,0,0,20.64,3.56A49.75,49.75,0,0,1,112,183.51Z"/><path class="cls-10" d="M158.18,61.73c4,3.1,4,4.35,0,7.62Z"/><path class="cls-10" d="M142,61.36v7.87c-1.6-.76-2.78-1.72-3.05-3.34C138.61,63.79,140.37,63,142,61.36Z"/><path class="cls-11" d="M180,133.45c-3.69-1.28-7.57-1.79-11.34-2.75A23.66,23.66,0,0,1,181,133Z"/><path class="cls-12" d="M180,139c-3.5-1.06-7.12-1.58-10.66-2.51A23.25,23.25,0,0,1,181,138.5Z"/><path class="cls-13" d="M140,184.45c.2.5.73.42,1.11.61-.56.33-1.22.66-1.73.18C139.1,185,139.54,184.57,140,184.45Z"/><path class="cls-14" d="M158.94,185.06c.37-.2.9-.11,1.11-.61.43.11.86.56.62.79C160.16,185.72,159.5,185.38,158.94,185.06Z"/></svg>