<svg id="Layer_1" data-name="Layer 1" xmlns="http://www.w3.org/2000/svg" viewBox="0 0 300 300"><defs><style>.cls-1{fill:#d5d5d5;}.cls-2{fill:#d7182a;}.cls-3{fill:#010100;}.cls-4{fill:#eaaf10;}.cls-5{fill:#ebb010;}.cls-6{fill:#edb110;}.cls-7{fill:#eeb210;}.cls-8{fill:#ecb110;}.cls-9{fill:#e9ae10;}.cls-10{fill:#e7ad10;}</style></defs><path d="M19.8-.6H280.2a1,1,0,0,1,1,1V176.61A123.39,123.39,0,0,1,157.8,300H142.43A123.62,123.62,0,0,1,18.81,176.38V.4a1,1,0,0,1,1-1Z"/><path class="cls-1" d="M132.64,223.53c0-21.91-.07-43.82.07-65.72,0-3.31-.66-4.38-4.21-4.36-33.8.15-67.6,0-101.4.17-3.43,0-4.43-.84-4.32-4.31.26-8.63.23-17.27,0-25.9-.08-3,.9-3.41,3.57-3.4,34.05.09,68.1,0,102.15.14,3.48,0,4.23-.94,4.22-4.28-.13-35.93,0-71.86-.16-107.78,0-3.24.67-4.22,4-4.11,8.51.27,17,.23,25.54,0,3.09-.08,4,.72,3.94,3.89-.12,36.05,0,72.1-.16,108.15,0,3.24.68,4.14,4.06,4.13,34.43-.15,68.85,0,103.28-.17,3.09,0,4,.67,3.89,3.85-.24,8.75-.22,17.52,0,26.28.07,2.93-.9,3.48-3.61,3.48-34.43-.09-68.86,0-103.28-.14-3.44,0-4.34.87-4.33,4.33.12,43.93,0,87.87.18,131.81,0,3.33-1.12,4.27-4.06,4.63a111.83,111.83,0,0,1-25.47-.09c-2.94-.32-4.06-1.19-4-4.52C132.74,267.59,132.64,245.56,132.64,223.53Z"/><path class="cls-2" d="M167.81,61c0-17.76.06-35.52-.06-53.28,0-3,.54-4.09,3.84-4.07q50.83.18,101.69,0c2.85,0,3.85.61,3.84,3.68q-.15,53.85,0,107.69c0,2.9-.92,3.52-3.64,3.51q-51-.12-102.07,0c-3.16,0-3.67-1.15-3.65-3.91C167.86,96.76,167.81,78.87,167.81,61Z"/><path class="cls-2" d="M167.81,224.2c0-21.65.08-43.29-.09-64.94,0-3.42,1-4.1,4.22-4.09q50.51.17,101,0c3.22,0,4.13.7,4.23,4.09.65,23.67-3,46.42-14.49,67.39-20,36.61-50.49,59-91.61,66.66-3,.56-3.29-.58-3.29-3Q167.86,257.24,167.81,224.2Z"/><path class="cls-2" d="M131,224.47c0,21.77,0,43.54,0,65.3,0,2.73-.14,3.84-3.6,3.26C77,284.64,34.17,242.45,25.15,192.22c-2-11.29-2.26-22.61-2.3-34,0-2.66,1.08-3,3.34-3,14.76.08,29.52,0,44.29,0,18.89,0,37.78.07,56.67-.07,3.15,0,4,.89,4,4C131,180.93,131,202.7,131,224.47Z"/><path class="cls-2" d="M22.91,60.94c0-17.89.06-35.78-.06-53.67,0-2.72.6-3.64,3.51-3.63q50.67.15,101.33,0c2.59,0,3.41.69,3.4,3.35q-.12,54,0,108.08c0,2.54-.62,3.46-3.33,3.45q-50.85-.12-101.71,0c-2.87,0-3.19-1.19-3.18-3.56C22.94,97,22.91,79,22.91,60.94Z"/><path class="cls-3" d="M77.89,86.89c-11.39,0-22.78-.07-34.16.06C41,87,40,86.38,40,83.45q.2-25.14,0-50.27c0-3,1-3.5,3.7-3.48,7.19.08,7.11,0,7.25,7,0,1.69-1.2,4.43,1,4.94,2.83.67,5.94.16,8.93,0,.64,0,.67-.95.69-1.57s0-1.5,0-2.25c0-8.85,0-8.79,8.77-8.11,1.86.14,2.34.85,2.28,2.52-.08,2.5,0,5,0,7.51,0,1.62.6,2.08,2.19,2.21,8.5.71,8.66.76,8.44-7.92-.09-3.48.94-4.49,4.38-4.36,6.76.25,6.68.06,6.83,7.06,0,1.69-1.22,4.41,1,4.93,2.83.65,5.94.14,8.93,0,.63,0,.63-1,.64-1.6,0-.87,0-1.75,0-2.63,0-7.88,0-7.77,8-7.72,2.54,0,3.12.89,3.09,3.25-.11,8.88,0,17.77,0,26.65,0,8-.11,16,.06,24,0,2.7-.85,3.35-3.42,3.32C101.17,86.82,89.53,86.89,77.89,86.89Z"/><path class="cls-4" d="M65.57,85.2h-6c-5.11,0-7.06-2.93-5.4-8,.44-1.33,1.38-1.24,2.36-1.24,6.12,0,12.25,0,18.37,0,1.75,0,2.34.56,2.46,2.36.43,6.88.5,6.87-6.54,6.87Z"/><path class="cls-5" d="M90.45,85.2H84.84c-5.42,0-7.4-2.8-5.72-8,.43-1.33,1.37-1.24,2.35-1.24,6.1,0,12.2,0,18.3,0,1.76,0,2.31.62,2.43,2.38.45,6.86.51,6.85-6.15,6.85Z"/><path class="cls-6" d="M53.32,43.55c3,0,6,.1,9,0,2-.09,2.54.64,2.6,2.58.23,6.56.31,6.56-6.11,6.56-4.76,0-9.52-.13-14.27.05-2.36.09-2.93-.71-2.92-3,0-6.18-.1-6.18,6.06-6.18Z"/><path class="cls-6" d="M78.12,52.66h-5.6c-6.18,0-7.24-1.4-6-7.6.27-1.36,1-1.51,2-1.51,6.35,0,12.7,0,19,0,1.62,0,2.06.62,2.19,2.19.54,6.94.59,6.94-6.41,6.94Z"/><path class="cls-6" d="M103,52.65c-3,0-6-.13-9,.05-2.2.13-2.66-.74-2.68-2.78-.06-6.37-.15-6.37,6.17-6.37,4.73,0,9.47.12,14.2,0,2.34-.09,3,.71,2.92,3-.23,7.55.85,6-6,6.17C106.69,52.7,104.82,52.66,103,52.65Z"/><path class="cls-7" d="M53.13,74.28c-2.87,0-5.76-.17-8.62,0-2.42.18-2.88-.77-2.88-3,0-6.11-.08-6.11,6.06-6.11,4.75,0,9.51.12,14.26,0,2.35-.09,2.94.7,2.93,3,0,6.12.11,6.12-6.12,6.12Z"/><path class="cls-7" d="M77.92,74.28c-2.87,0-5.75-.18-8.59,0-2.45.19-2.85-.81-2.84-3,0-6.11-.08-6.11,6-6.11,4.73,0,9.47.14,14.19-.06,2.53-.11,3.39.78,3,3.17a4.66,4.66,0,0,0,0,1.49c.62,3.52-.62,5-4.35,4.5A56.23,56.23,0,0,0,77.92,74.28Z"/><path class="cls-7" d="M103,74.28H97.4c-6.35,0-7.16-1.08-6.09-7.53.24-1.41.91-1.52,2-1.52,6.36,0,12.72,0,19.08,0,1.56,0,2.1.45,2.22,2.1.5,7,.57,7-6.34,7Z"/><path class="cls-8" d="M65.64,63.6c-2.75,0-5.51-.18-8.24,0s-3.59-.86-3.28-3.41a16.5,16.5,0,0,0,0-3.37c-.18-2,.84-2.53,2.69-2.49,5.87.12,11.74.22,17.6.1,2.33,0,3,.66,2.94,3-.22,7.64.75,6-6.09,6.15C69.38,63.64,67.51,63.6,65.64,63.6Z"/><path class="cls-6" d="M90.83,63.6c-3,0-6-.12-9,0-2.17.11-2.74-.71-2.79-2.79-.14-6.32-.23-6.32,5.93-6.32,4.75,0,9.5.12,14.24,0,2.3-.08,3,.61,3,2.94-.22,7.65.67,6-6.12,6.16C94.33,63.64,92.58,63.6,90.83,63.6Z"/><path class="cls-9" d="M47,85.23c-1.56-.42-4.24,1-4.93-.78-.84-2.16-.32-4.87-.3-7.34,0-1,.83-1.1,1.61-1.1,1,0,2,0,3,0,6.13,0,5.83,0,6.17,5.67C52.87,86.57,49.6,84.94,47,85.23Z"/><path class="cls-10" d="M108.81,85.21c-1.35-.37-3.89,1-4.49-.77-.77-2.22-.33-4.88-.29-7.35,0-.91.87-1.08,1.66-1.09a27.74,27.74,0,0,0,4.08,0c3.89-.6,5.18.89,4.87,4.82C114.24,85.75,115.23,85.15,108.81,85.21Z"/><path class="cls-8" d="M47.51,54.53c1.39.31,4-.88,4.57.65.8,2.2.32,4.88.28,7.36,0,1-.89,1-1.66,1.05a29.63,29.63,0,0,0-4.11,0c-3.76.55-5.31-.64-4.93-4.72C42.06,54.56,41.75,54.53,47.51,54.53Z"/><path class="cls-5" d="M109.56,54.53c1.39.32,4-.9,4.57.69.8,2.2.34,4.88.3,7.35,0,1-.94,1-1.69,1a33.1,33.1,0,0,0-4.11,0c-3.64.54-5.13-.57-4.78-4.55C104.32,53.81,103.19,54.62,109.56,54.53Z"/><path class="cls-6" d="M49.44,36.17c-.58,2.57,1.5,6-3.59,5.81-3.48-.13-4.71-1.07-4.18-4.41a11.67,11.67,0,0,0,0-1.87c0-4,2.86-5.9,6.65-4.22C50.72,32.55,48.34,34.94,49.44,36.17Z"/><path class="cls-8" d="M71.13,36.4c-.44,2.41,1.48,5.74-3.55,5.58-3.52-.11-4.68-1.13-4.17-4.43a11.66,11.66,0,0,0,0-1.87c0-3.95,2.95-5.94,6.65-4.17C72.22,32.53,70.55,34.87,71.13,36.4Z"/><path class="cls-5" d="M92.8,35.88a15.59,15.59,0,0,0,0,2.34c.52,3-.86,3.69-3.71,3.71s-4.51-.58-4-3.84a13.94,13.94,0,0,0,0-2.24c0-4.24,2.36-5.92,6.48-4.39C94.22,32.42,91.83,34.85,92.8,35.88Z"/><path class="cls-4" d="M114.36,35.54c.46,4.19.74,6.93-4.14,6.44-2.86-.29-3.76-1.07-3.42-3.73.13-1-.08-2,0-3,.16-1.28-.8-3.28.79-3.67a10.24,10.24,0,0,1,6.23.13C115.48,32.45,114.21,34.92,114.36,35.54Z"/></svg>