<svg id="Layer_1" data-name="Layer 1" xmlns="http://www.w3.org/2000/svg" viewBox="0 0 300 300"><defs><style>.cls-1{fill:#e4e5e5;}.cls-2{fill:#e3e4e4;}.cls-3{fill:#e1e2e2;}.cls-4{fill:#030303;}.cls-5{fill:#dbdcdc;}.cls-6{fill:#dedfdf;}.cls-7{fill:#101010;}.cls-8{fill:#d9dada;}.cls-9{fill:#d0d1d1;}.cls-10{fill:#babbbb;}.cls-11{fill:#bfc0c0;}.cls-12{fill:#1a1a1a;}.cls-13{fill:#0d0d0d;}.cls-14{fill:#191919;}.cls-15{fill:#121212;}.cls-16{fill:#151515;}.cls-17{fill:#141414;}.cls-18{fill:#1b1b1b;}.cls-19{fill:#181818;}.cls-20{fill:#171717;}.cls-21{fill:#161616;}.cls-22{fill:#222323;}.cls-23{fill:#070707;}.cls-24{fill:#0c0c0c;}.cls-25{fill:#1d1d1d;}.cls-26{fill:#1f1f1f;}.cls-27{fill:#313232;}.cls-28{fill:#262626;}.cls-29{fill:#121313;}.cls-30{fill:#040404;}.cls-31{fill:#cacbcb;}</style></defs><path d="M26.1-.6H273.9a1,1,0,0,1,1,1V176.61A123.39,123.39,0,0,1,151.5,300h-2.78A123.62,123.62,0,0,1,25.1,176.38V.4a1,1,0,0,1,1-1Z"/><path class="cls-1" d="M196.83,253.1a2,2,0,0,0,2-1.25l-7.36.79a4.24,4.24,0,0,1,3.57-2.72,6.17,6.17,0,0,0,5-4c1-2.56,3-4.22,5.27-5.58a8.82,8.82,0,0,0,3.83-5c1.85-5.32,3.94-10.56,5.68-15.92,1.54-4.74-1.1-9.3-6-10.61-2.51-.68-5.09-1.07-7.63-1.65a16.19,16.19,0,0,1-9-5.24c-5.56-6.49-10.07-13.48-11.62-22.06-.57-3.13,0-6.25,0-9.37a38.45,38.45,0,0,1,.07-4.43,6.21,6.21,0,0,0-3.68-6.79,5.22,5.22,0,0,1-3.21-4.69c0-.54-.26-1.09-.88-1.07s-.68.69-.71,1.19a5.17,5.17,0,0,0,3.18,5.48c2.82,1.26,3.66,3.41,3.59,6.25-.06,2.43,0,4.86-.27,7.29-.16,1.33-.54,1.86-1.95,1.49a50.32,50.32,0,0,0-8.42-1.64,3,3,0,0,1-2.78-2,3.57,3.57,0,0,0-.7-1.39c-1.44-1.25-2.48-2.53-.73-4.53-1.94-.09-2.92,1.83-4.63,1.3-.37-1.29,1.68-1.29,1.23-2.72-1.52-.1-2.38,1.93-4.05,1.54,0-1.15,1.65-1.36,1.29-2.81-1.82.43-3.31,2.22-5.42,1.51-.26-1.35,1.63-1.32,1.46-2.73-2,.05-3.39,2.4-5.59,1.48.05-1.21,2-1.17,1.75-2.68-1.85-.09-2.95,2.21-4.89,1.67-.28-1,1.1-1.37.78-2.57-3.88,2.92-7.65.08-11.46,0-9.53-.13-16.92-4.92-24.37-11.51,4.64.5,8.5-1.12,12.72.33,5.21,1.8,9.35-1.17,13.12-4.4a9.41,9.41,0,0,0,2.57-3.57c.21-.51.36-1-.25-1.34s-1,0-1.32.42-.58.86-.86,1.3a13.1,13.1,0,0,1-6.56,5.31c-2.79,1-5.39,1.5-8.14-.45-.91-.65-2.7-.11-4.08,0-6.33.42-12.67.85-19,1.34-1.46.12-2.44-.11-2.89-1.72s-2-2.38-3-3.53c-.33-.36-.75-.56-1.13-.25-.57.45-.17,1,.16,1.33a20,20,0,0,0,1.73,1.58,4.68,4.68,0,0,1,1.79,3.61c0,1,.08,2.07-1.51,1.34a1.09,1.09,0,0,0-1.37.46c-.43.63.14,1,.54,1.22,1.88,1.08,1.91,3,2.18,4.77a9,9,0,0,0,2.14,5.26c-1.32,1-2.26.52-3.16-.47-.21-.23-.49-.63-.85-.35a1.21,1.21,0,0,0-.36.87,3.55,3.55,0,0,0,4.18,3.5c.93-.18,1.82-.55,2.75-.78,3.48-.84,6,.59,7.29,4.37-2.3-.42-3.48,1.1-4.74,2.54-1.73,2-3.68,3.24-6.38,1.76-.36-.2-.78-.53-1.12,0a1,1,0,0,0,.28,1.38c.89.84,2,.84,3.16,1,2,.27,3.73,3.2,2.52,3.72-3,1.28-.47,3.16-1.09,4.56-.17.39-.3.81-.47,1.28-1.26-.48-.89-2.24-2.78-2.88,1.75,3.74.3,7.6,2.07,11-2.62.77-2.91.6-4.77-3-1,2.7.62,4.66,1.76,7.37-2.73-1.46-3.56-3.57-4.24-5.54-.77-2.28-2-3.47-4.42-3.71-1.88-.19-2.83-1.58-3.45-3.17a18.66,18.66,0,0,1-1.33-7.39,67.82,67.82,0,0,0-4.28-26.29c-1.92-5.16,1.55-14.57,6.26-17.45,2.6-1.59,5.76-1,8.65-1.44,3.17-.51,6.41-.63,9.57-1.16a25.64,25.64,0,0,0,11.74-4.63c3.16-2.43,6.63-2.85,10.19-.62.44.28,1.08,1,1.56.22s-.37-1.24-.91-1.57c-3.89-2.39-7.78-2.56-11.94.51,1.14-3.17,3.28-4.66,5.61-6,.53-.3,1.58-.51,1.09-1.43s-1.28-.3-1.84,0c-2.4,1.29-4.74,2.86-5.82,5.4-1.52,3.59-4.33,5-7.82,5.62-.85.16-1.69.38-2.55.49-5,.63-5,.5-4.54-4.44.54-5.45,1.1-10.89,1.55-16.34.78-9.44,5.8-16.15,12.94-21.63A17,17,0,0,0,117,78.61c1-2.76,2.08-5.52,3.23-8.23,1.66-3.94,4.06-7.25,8.14-9.06,3.08-1.37,4.51-4.47,7-7,.28,3.08.77,5.81,2.57,8.14.84,1.08-.45,1.73-1,2.37-3.89,4.7-7.61,9.49-10.07,15.13a17.3,17.3,0,0,0-1.8,8.31,7.58,7.58,0,0,0,2.62,5.48,3.78,3.78,0,0,0,5,.24c.94-.66,1.55-1.24.08-2.23-2.23-1.5-1.95-3.7-1-5.8a18.1,18.1,0,0,1,4.64-5.62,19.87,19.87,0,0,0,.8,11.43c.29.82-.62,1.36-1.07,2-2.23,3-4.73,5.77-6.51,9.1a5.84,5.84,0,0,0-.25,5.94,9.16,9.16,0,0,1,.75,3.27,8.5,8.5,0,0,0,2.57,5c2.37,2.33,5,2.8,7.28,1.33s2.75-3.54,1.58-6.9a1.06,1.06,0,0,0-.45.08c-1.35,1-3.16,2.24-4.34.78s-.54-3.6.64-5.1c1.93-2.46,4.85-3.23,7.68-4.07.81-.24,1,.38,1.37.86,2.55,3.17,6.12,4,9.74,2.22a27.38,27.38,0,0,1,6-2.36,9.75,9.75,0,0,0,6.21-5.2c.59-1.06,1.05-1.59,2.35-.68,1.59,1.1,3.45.76,5.58-.15-.68,2.62-1.9,3.92-4.3,4-.56,0-1.36-.16-1.55.61s.52,1,1,1.4a7,7,0,0,0,4.39,1.38c.49,0,1.37-.23,1.45.66a1.32,1.32,0,0,1-1.05,1.34c-2.65.53-1.34,1.42-.26,2.31,2.75,2.26,5.68,4.35,8.24,6.81A43.06,43.06,0,0,0,207,127.77a29.9,29.9,0,0,1,14.17,6.75,25.89,25.89,0,0,0,10.91,5.25c13.91,3.43,22.9,12.16,27.25,25.71q10.44,32.47-10.81,59.23c-2.71,3.4-5.59,6.66-8.42,9.95-4.16,4.83-8,9.83-9.77,16.47a8.46,8.46,0,0,1-1-6.71,16.48,16.48,0,0,1,5.32-9,75.67,75.67,0,0,0,21.17-28c.74-1.66,1.7-3.36,1.18-5.45-1.48.57-1.46,1.87-1.85,2.84A70.64,70.64,0,0,1,234.75,233a23,23,0,0,1-8.16,4.48c-.47.14-1,.55-1.43,0a2.5,2.5,0,0,1-.26-2c.08-.87.69-.47,1.16-.41,2,.25,2.7-1.3,3.57-2.53,2.42-3.39,2.79-7.34,2.25-11.24a7.57,7.57,0,0,1,3.18-7.78,22.28,22.28,0,0,0,5.25-6.09,2.39,2.39,0,0,0,.19-3.06,30.62,30.62,0,0,1-7.81,9.29c.44-2.63,1-4.67,2.82-6.4,5.3-5.1,8.55-11.53,11.19-18.28.25-.63.9-1.4-.09-2.28-1.15.7-1.39,2-1.94,3.11-1.84,3.67-3.75,7.29-7.25,9.69-2.07,1.41-4.28,2.08-6.89.86a30,30,0,0,0,15.22-29c-.08-.78-.08-1.81-1.11-1.7s-.54,1.13-.53,1.72a43,43,0,0,1-2.06,13.33,17.6,17.6,0,0,1-7.7,10.15c-2.92,1.82-5.45,1.64-7.44-.36.09-.11.17-.32.28-.33,7.28-.71,11.86-5.58,13.2-14.05a46.73,46.73,0,0,0,0-13.77c-.8-5.88-3-11-7.55-15a14.27,14.27,0,0,1-4.55-7.12c-.19-.74-.37-2.14-1.43-1.8s-.24,1.46,0,2.19a75.84,75.84,0,0,1,2.58,7.9c1.66,8.14-.54,15.45-5.39,22a5.05,5.05,0,0,0-.94,2.61c-.55,4.89-2.09,9.27-6.05,12.57-1.37,1.14-1.76,3.18-3.28,4.32a.66.66,0,0,0-.09,1.1,1,1,0,0,0,1.18.18,7.69,7.69,0,0,0,2.09-1.93c.46-.45.72-1.43,1.52-1.16s1,1.17,1.09,1.95a10.9,10.9,0,0,1-.47,3.85c-.11.55-.33,1.2.43,1.67,1-.44,1-1.47,1.25-2.33.56-2.08,1.51-2,2.83-.6s2.75,2.9,4.17,4.3a3.82,3.82,0,0,0,2.41,1.45c2.9.11,3,2.11,2.87,4.2a6.11,6.11,0,0,1-.45,2.29c-2.46,5.24-2.15,10.81-2,16.36a11.59,11.59,0,0,1-3.57,8.3c-.28-.14-.49-.18-.52-.27-.38-1.31-.63-3.25-2.17-3.07s-1.11,2.14-1.12,3.38c0,1.55.25,3.11.38,4.66.05.65.45,1.45-.7,1.57-.66-.2-.94,0-.71.7,3.51,5.23,3.62,9.12.33,13a4.77,4.77,0,0,1-2,1.58c-.88.29-1.47.16-1.12-.9.61-1.85-.11-3.17-1.44-4.37a4.53,4.53,0,0,1-1.36-3.54c0-.66.07-1.67-.88-1.55s-.81,1.16-.7,1.93c.08.57.68,1,.34,1.71-.51-.21-1.57-1.6-2.77-3.67-1,2-1,2,2.13,7.94-.39.68-1.5-.15-1.68.65s.72,1.08,1.29,1.39c2.31,1.28,2.62,3.18,1.88,5.84-1-.86-1.8-1.58-2.65-2.2-.39-.29-1-.59-1.43-.18s0,.91.24,1.33c1.61,2.73,1.45,3.24-1.46,4.24-8.53,2.94-17.42,3.85-26.33,4.63a1.7,1.7,0,0,1-1.92-1,1.66,1.66,0,0,1,.23-1.72c.69-1,1.29-.22,2,0,1.72.59,3.46.08,5.15-.18a129.9,129.9,0,0,0,13.59-2.78c-3.45-.51-6.72.56-10.06.9-2.07.21-4.12.59-6.19.82-.54.06-1.27.37-1.58-.42a1.38,1.38,0,0,1,.38-1.44c2.51-2.87,5-5.73,7.54-8.62.72-.84,1.22.08,1.83.12,3.42.89,7,1.37,10.15,3.1-1.14-.46-2.6,0-3-1.85-.23-1-1.21-.57-1.75-.44a5.83,5.83,0,0,1-3.8-.51C196.49,254.2,196,253.69,196.83,253.1Z"/><path class="cls-1" d="M117.89,62.71c-1.9,1.07-1.82,2.7-1.48,4.31,1,4.8,0,9.23-2.22,13.5a1.54,1.54,0,0,1-2.08.93c-1.51-.48-.49-1.46-.34-2.09.75-3.11,1.67-6.19,2.47-9.29.25-1,.6-2-.67-2.74a2.62,2.62,0,0,0-3.1.41,24.56,24.56,0,0,0-8.19,10.58c-.38.91-.53,1.91-1.9,1.54-1.21-.33-2.74-.21-2.86-2a4.2,4.2,0,0,0-1-2.6c-2.12-2.5-2.09-3.53.07-6.1,2-2.36,4.29-4.49,6-8-2.09.76-2.38,2.6-3.92,3.42a35.32,35.32,0,0,1,0-6.11c1.25-6.69,2.53-13.39,5.63-19.56.63-1.25,1.23-1.61,2.76-.89,3.27,1.55,6.43.77,9.27-1.39a16,16,0,0,0,5.45-7.79,18.87,18.87,0,0,1,7.7-10.15,46,46,0,0,0,4-3.4,8,8,0,0,1-2.82,5.45c-1.6,1.58-3.48,2.92-4.53,5-.22.44-.62,1,.11,1.3.53.24.75-.22,1-.61a12.93,12.93,0,0,1,3.32-3.63c3.15-2.61,4.91-5.81,4.28-10-.07-.48-.36-1.09.32-1.34s.95.24,1.32.6a5.94,5.94,0,0,1,1.6,2.66c1.25,4.6-1.84,11.52-6.11,13.77a1.52,1.52,0,0,0-1,1.24,5.43,5.43,0,0,0,4.69-1.82c3.2-3,4.09-7,4.13-11.15,0-1.89.45-2,2-1.3,3,1.45,6.1,2.95,9.27,4.1s6.72,2.11,9.71-.91c.94-.95,1.33-.21,1.59.63A4.58,4.58,0,0,1,161.12,24c-1.42,1.51-2.46.18-3.63-.43-.64-.34-1.29-1-2.14-.4-.14.95.65,1.12,1.23,1.42C162,27.34,165,32,166.91,37.46c.52,1.47,1,3,1.57,4.4.85,2,2.09,3.3,4.41,1.8a3.26,3.26,0,0,1-.4,3.28,2.9,2.9,0,0,1-2.65,1.83c-1.36-.09-1.68-1.22-2-2.37s-.52-2.74-1.81-3.87c-.28,1.36.29,2.45.54,3.54a23.41,23.41,0,0,1-1.71,16.22A40.43,40.43,0,0,1,151.24,78.1c-1.87,1.26-3.82,2.41-5.6,3.8-3.14,2.44-5.93,5.16-5.3,10-2-1.2-2.64-2.61-2.32-4.51a10.89,10.89,0,0,1,4.14-6.73c3.72-3,7.57-5.83,11.29-8.83,5.42-4.39,10-9.47,11.77-16.44.29-1.12,1.32-3-.19-3.45-1.1-.3-1,1.85-1.32,2.92a29.92,29.92,0,0,1-8.83,13.59c-5.45,4.78-11.94,8.3-16.74,13.9.74-3.53,3-5.93,5.86-7.74a52.57,52.57,0,0,0,12.65-10.36c4.13-4.88,6.76-12.39,6-17.21-1.06,0-.91.86-1,1.49-1.53,10-6.85,17.46-15.45,22.65a53.23,53.23,0,0,0-12,9.13,22.51,22.51,0,0,0-3.55,4.8c-1.41,2.67-1.65,5.24.84,7.64-1.52.94-2.4,0-3.18-.85-1.8-2-1.88-4.4-1.33-6.87,1.16-5.21,4-9.57,7.15-13.75,1.15-1.52,2.38-3,3.53-4.52s2.38-2.94,4.87-2.52a4.76,4.76,0,0,0,4.81-2.52c.44-.71,1.24-1.75-.6-1.94-1-.11-.7-.71-.26-1.25.93-1.15,1.89-2.28,2.76-3.47a21.53,21.53,0,0,0,3.91-16c-.1-.74,0-2.12-1.12-2s-.34,1.29-.34,2c0,3.37-1.54,6.18-3.11,9-1.15,2-2.38,4.08-1.26,6.73-2.18.16-2.56-1-2.25-2.57a15,15,0,0,1,1.84-4.28,18.75,18.75,0,0,0,2.4-8.7c0-.5.08-1.13-.67-1.15-.55,0-.71.52-.72.92-.23,5.23-3.3,9.44-5,14.12-1.43,3.87-.71,6,2.63,8.17a4.4,4.4,0,0,1-7.08-1.12,12.94,12.94,0,0,1-.4-10.86,70.42,70.42,0,0,1,3.56-7.51,16.52,16.52,0,0,0,2-8.5c0-.81.33-2.14-.75-2.19-1.3-.06-.75,1.3-.76,2.05a15.59,15.59,0,0,1-3,9.38c-.65-1.47,0-2.44.54-3.48a11.09,11.09,0,0,0,.94-8.33c-.21-.77-.37-2.05-1.47-1.76-.87.23-.43,1.38-.24,2a12.73,12.73,0,0,1,.37,3.88c0,1.24-.05,1.25-1.57,1.53a.63.63,0,0,0-.58.69,11,11,0,0,0,.1,1.82c1.26,7.57-2,13.51-6.82,18.88a4.52,4.52,0,0,1-1.82,1.4c-3.86,1.16-6.52,3.85-9,6.78-.43.5-.8,1.69-1.74,1-.62-.46-.51-1.41-.14-2.18A2.24,2.24,0,0,0,117.89,62.71Z"/><path class="cls-1" d="M134,232.05a59.75,59.75,0,0,1-12.32,7.7c-1.79.82-2.79.71-2.64-1.61.3-4.7-1-9.56,1.5-14.13-2.39.75-2.51.91-3.41,4.31-1.84-1.13-1.68-2.6-.87-4.22,1.07-2.17,3-3.6,4.67-5.2a12.55,12.55,0,0,0,3.48-6.21c1.39-5.15,5.89-7,10.46-8.09,5-1.2,10.09-1.72,15.1-2.75,3.73-.76,7.43-1.74,11.08-2.84,4-1.21,4.95-3.83,2.09-6.74-3.17-3.23-3.93-7-3.94-11.15,0-3.3-.1-6.6-.12-9.91,0-2.35.53-2.63,2.78-1.72a3.52,3.52,0,0,1,2.28,2.64c.41,1.92,1.6,2.67,3.48,2.84,2.08.19,4.13.58,6.18.94a5.77,5.77,0,0,1,5.08,4.58,49,49,0,0,0,4.69,12.9c.86,1.54.24,3-.36,4.5-1.16,2.88-2.55,5.63-2.37,8.94.12,2-1,3.52-3.29,4-3.69.84-6.64,3.34-10.09,4.75-1.73.71-3.51,1.65-5.53.18,1.33-1.17,3.31-1.51,3.79-3.4.15-.56.45-1.27-.2-1.65s-.92.28-1.27.62a21.59,21.59,0,0,1-6.19,4.7c-1.41.62-2.36.86-2-1.27A5.27,5.27,0,0,0,156,213a.76.76,0,0,0-1-.61c-.43.09-.39.48-.38.83a7.06,7.06,0,0,1,0,1.3,3.43,3.43,0,0,1-2.1,2.79c-1.23.54-.5-1.67-1.72-1.27-1.13,3.4.32,5.75,3.84,6.12.47.05,1.12-.29,1.35.37s-.29,1.18-.73,1.57c-2.13,1.86-4.53,2.93-7.41,2s-3.94-3.22-4.39-5.92c-.17-1.06-.16-2.14-.25-3.63a4.7,4.7,0,0,0-1.28,2.73c-.32.92-.62,2-1.71,2.07s-.52-1.35-1.3-1.71c-1.24.3,0,1.91-1.43,2.31-.48.07-.45-.65-.7-1-1.48-2.09-1.84-2.1-3.21,0a3.22,3.22,0,0,1-1.79,1.41c-1.37-2.44-1.37-2.44-2.87-.15a8.91,8.91,0,0,1-4,3.21c-.65.28-1.59.16-2.16,2a123.24,123.24,0,0,0,12.76-5.85c0,2.18,1.17,2.66,3.19,1.65,1.3-.65,2.33,0,3.24.9a2.71,2.71,0,0,1,.3,3.17,11.18,11.18,0,0,1-2.79,3.73,77.65,77.65,0,0,1-17.35,12.77,17,17,0,0,1-1.88.89c-.84.31-1.87.58-2.17-.57s.29-1.78,1.42-2.1c5.64-1.6,10.17-5.07,14.6-8.71C134,232.85,135.16,232.4,134,232.05Z"/><path class="cls-1" d="M58.62,119c-1,1.15-1.29,2.93-2.68,3.91-.8.57-1.67,1.27-2.58,1-1.16-.33-.29-1.51-.52-2.28-.1-.33-.21-.65-.31-1-1.18-.09-.92.87-1.09,1.44a5.06,5.06,0,0,1-3.19,3.54c-.76.27-1.85.8-1.78-1.06.09-2.14-1.36-1.79-2.67-1.12-1.65.85-2.57,2.53-4.48,4.16.47-3.15,1.73-5.15,3.85-6.51a3.37,3.37,0,0,0,1.74-3.42,8.13,8.13,0,0,1,4.17-7.56c9.5-6,18.88-12,26.63-20.28a4.42,4.42,0,0,1,5.13-1.26,15.2,15.2,0,0,1,8.07,5.36c1.9,2.57,4.21,4.6,7.5,5.22.84.16,1.63.37,1.25,1.71-1.68,6-2,12.14-2.42,18.29,0,.42-.14.83-.3,1.76-4.46-3.92-8.26-8-13-11.55,2.3-1.2,5-1.75,5.14-5.23-1.57,1.65-2.72,3.35-5.26,3.38.91-1.65,2.74-2.76,2.08-4.87A25.48,25.48,0,0,1,80,107.3c-1.28,1.33-2.11,2.77-1.54,4.68.49,1.62-.57,1.41-1.37,1a3.93,3.93,0,0,1-2.25-4.52c.07-.52.16-1.17-.53-1.24s-.84.51-1,1c-.41,1.25.14,2.4.4,3.57a12.63,12.63,0,0,1-.24,7.67c-1.36,3.39-5,4.68-7.7,2.83,2.77-2,2.77-2.16.59-4.94a8.52,8.52,0,0,1-1.17-2c-.26-.61-.31-1.31-1-1.64-.84.67-.41,1.52-.56,2.23-.19.93-.29,1.89-.57,2.79a3.45,3.45,0,0,1-3,2.55C58.5,121.44,59.89,119.43,58.62,119Z"/><path class="cls-1" d="M157.52,233.19c-.39-3.63,1.68-6.14,4.13-8.28,5.73-5,12.44-5.68,19.57-4,5.89,1.41,11.1,4.4,16.38,7.21,1,.51,1.88,1.34,3.28.64-1.13-1.34-2.83-1.68-4.11-2.62-2.32-1.68-4.41-3.49-3.94-6.78.35-2.41,1.62-3.37,4.28-3.29-2.18,4.85-.44,8.35,4.84,9.71a23.76,23.76,0,0,0,6.73.6c1.18,0,1.84.14,1.27,1.59-1.09,2.82-2.09,5.69-3.09,8.55a3.67,3.67,0,0,1-1.74,1.82,13.59,13.59,0,0,0-3.46,2.71c-1.83,2.54-4.26,2.59-6.93,2.32a71.79,71.79,0,0,1-10-1.88,18.52,18.52,0,0,0-12.68,1.38c-.39.19-.76.44-1.22.21.86-2.61,3-4.39,6.32-5.21a26.28,26.28,0,0,1,9.84-.39c.76.11,1.81.58,2-.42.16-.82-1-1-1.7-1.3a17.48,17.48,0,0,0-20.21,6.13c-.49.66-1,1.33-1.67,2.29-.54-1.89.24-3,1-4.13,4.6-6.78,12.56-9.49,21.2-7.2,1.25.33,2.44.9,3.69,1.24s2.79,1.81,3.37.35c.47-1.21-1.73-1.52-2.82-2-8.6-3.84-17-2.91-25,1.63-7.08,4-11.9,9.69-10.16,19-2.25-1.16-2.74-2.9-2.88-4.82-.41-5.52,1.91-10.12,4.93-14.48a4.63,4.63,0,0,1,1.79-2.77c4.56-3.84,9.63-6.38,15.82-6.1-6.72-1.78-12.09.28-16,5.94C159.7,231.84,159.51,233.72,157.52,233.19Z"/><path class="cls-1" d="M142.93,94c-1.65-5.66-.85-7.83,4.48-11.42,4.11-2.76,8.31-5.36,11.7-9.07a41.21,41.21,0,0,0,9.56-16.23c1.92,3.9,1.38,7.7,1.21,11.46-.09,2.08-.33,4.15-.37,6.24-.07,4,.47,4.47,4.6,4.51-.29,2-1.1,3.54-3.15,3.88-3.33.54-3.59-2.55-5-5-.11,2.65.8,4.52,1.48,6.4a19.1,19.1,0,0,1,.46,10.77,8.31,8.31,0,0,1-7.34,6.64,10.25,10.25,0,0,0,3.65-8.87,2.46,2.46,0,0,0-1.59-2.56c-.77.86-.17,1.81-.12,2.66.23,3.92-1.06,6.18-4.53,7.94-.65.33-1.92.4-1.11,1.74.28.48,0,.79-.4,1.09-1.9,1.64-5.91,1.5-7.75-.28-2.15-2.09-2.21-4.47-.15-7.16.8.25.42,1,.57,1.48.63,2.12,2.05,2.91,4.19,2.31,3.45-1,5.49-4,5.37-8.21-1.88,1.6-3.56,3.11-5.34,4.5-.7.55-1.44,1.68-2.41,1.1-.76-.46-.32-1.59-.25-2.44,0-.33,0-.66,0-1-3,.36-5,1.93-5.23,4.57-.15,2-1.15,2.59-2.76,3.15-5.58,1.93-6.78,3.13-8,7.75-.87-1.46-.33-2.68.1-3.84,1.15-3.14,3.46-5.38,6-7.35,4.49-3.42,9.12-6.65,13.56-10.13A35.15,35.15,0,0,0,167.1,69.71c.23-.83.76-2-.36-2.22-.89-.21-.89,1.09-1.08,1.77-2.89,10-9.84,16.74-18,22.51-1.34,1-2.74,1.8-4.12,2.7C143,94.71,142.9,94.4,142.93,94Z"/><path class="cls-1" d="M112.6,22.55a17.17,17.17,0,0,0-6,1.77c-2,1-2.45.12-2.43-1.64a20.7,20.7,0,0,1,.11-2.08c.12-.88.52-1.41,1.31-.54,2,2.15,4,1.42,6.14.33a84.18,84.18,0,0,1,12.92-5.45,14.41,14.41,0,0,1,7-.68c0,1.3-1,1.72-1.83,2.24A22.58,22.58,0,0,0,120,28.86a13.15,13.15,0,0,1-5.28,6.93A7.33,7.33,0,0,1,109,37c-1.52-.3-2.76-1-2.61-3.17,2.7,2,4.57.67,6.08-1.32,2.4-3.17,4.23-6.8,7.47-9.29.35-.27.67-.65.29-1.08A.93.93,0,0,0,119,22a9.4,9.4,0,0,0-3.05,2.8c-1.67,2.22-3.23,4.52-4.91,6.73-.94,1.24-1.87,2.05-3.66.79s-2.21.71-2.48,1.8c-1.12,4.68-4.59,8.07-9.08,8.64-3.66.46-5.94-2-5.09-5.48a2.92,2.92,0,0,1,3.65-2.47,1.54,1.54,0,0,1,1.39,1c.32,1.2-.74.54-1.15.77a1.55,1.55,0,0,0-.77,2.19,1.47,1.47,0,0,0,2.41.46,7,7,0,0,0,1.56-1.73c1.69-2.42,3.24-4.94,5-7.3,2-2.66,4.22-5.1,7.75-5.75A2.49,2.49,0,0,0,112.6,22.55Z"/><path class="cls-1" d="M44.84,124.8c-1.28,2.67.6,2.8,2.09,2.44a60.65,60.65,0,0,0,9-2.91c1.35-.56,2.71-1,4.06-1.46,2.68-1,2.69.53,3,2.39.53,3-.62,5-2.95,6.86a58.22,58.22,0,0,1-19,9.89,16.79,16.79,0,0,1-1.76.45c-.91.19-1.88.18-2.06-.94s.73-1.14,1.67-1.3a41.5,41.5,0,0,0,21.25-10.79c.23-.2.3-.57.54-1-1.47-.19-2.19.82-3,1.42-5.27,3.71-10.7,7.07-17.1,8.51-2.38.54-2.66.22-1.89-2.09.81-2.47,1.71-4.91,2.49-7.38A5.86,5.86,0,0,1,44.84,124.8Z"/><path class="cls-2" d="M96.06,194.7a10.88,10.88,0,0,0,2.57-.78c.9-.59,1.88-1.16.71-2.63s-1.08-3.26-.19-5.12c1.81-3.74,3.83-7.52,1.85-12.09,2.13.1,3.47.75,3.9,2.83,1.59,7.7,1.68,15.32-.89,22.85-.29.83-.58,1.72-1.61,1.83s-1.3-.75-1.71-1.38A41.65,41.65,0,0,0,96.06,194.7Z"/><path class="cls-3" d="M109.08,189.14A72.69,72.69,0,0,1,108,201.81c-.17.93-.25,1.92-1.25,2.42a2.05,2.05,0,0,1-2.21,0c-.82-.54-.39-1.24-.13-1.84,3.64-8.39,3.41-17,1.6-25.74-.12-.57-1.07-1.58.18-1.94s1.5.73,1.67,1.55A62.77,62.77,0,0,1,109.08,189.14Z"/><path class="cls-4" d="M157.52,233.19c1.45-.18,1.45-1.59,1.95-2.46,4.17-7.22,11.83-8.38,18-6.42.55.17,1.32.27,1.2,1s-.79.51-1.3.46c-7.69-.81-13.41,2.95-18.59,8A1.52,1.52,0,0,1,157.52,233.19Z"/><path class="cls-3" d="M142.93,94l.61.52c-2.11,1.77-4.32,3.44-6.32,5.34a12.61,12.61,0,0,0-4.23,7.82c-.06.49,0,1.2-.7,1.14A1.92,1.92,0,0,1,131,108a3.65,3.65,0,0,1,.09-4,113.29,113.29,0,0,1,7-10,1.25,1.25,0,0,1,1.78-.44A4.82,4.82,0,0,0,142.93,94Z"/><path class="cls-5" d="M141,114c-1,3.59-3.61,4.65-6.17,2.83a7.43,7.43,0,0,1-3.06-5c-.08-.43-.25-.91.26-1.13a.93.93,0,0,1,1.31.47C134.76,114.69,137.5,115,141,114Z"/><path class="cls-6" d="M112.22,68.29c-.18,1.34-1.21,2-1.85,2.78a33.31,33.31,0,0,0-4.57,8.09c-.36.88-.83,1.57-1.91,1.17-1.34-.5-.63-1.39-.3-2.11a25.34,25.34,0,0,1,6.3-8.78C110.5,68.92,111.05,68.18,112.22,68.29Z"/><path class="cls-7" d="M196.83,253.1c.78,1.87,2.42,1.18,3.74,1.14a23.86,23.86,0,0,0,3.72-.69c.31,1.25-1.13,1.3-1.3,2.28,1.84.87,3.65.06,5.52.15-1.3,1.77-3.66,2.57-5.42,1.34a12.55,12.55,0,0,0-5.66-2,2.71,2.71,0,0,1-1.94-1.18Z"/><path class="cls-8" d="M200.86,220c3,3.78,6.56,4.25,10.61,2.66-.27,2.33-2.73,3.06-7,2.14C201.06,224.09,200,222.89,200.86,220Z"/><path class="cls-8" d="M168.56,51.05c1.49.57,2.38,1.94,4,1.89,1,0,.74.73.37,1.24a2.91,2.91,0,0,1-2.42,1.27c-1.06,0-1.38-.85-1.71-1.65A4.09,4.09,0,0,1,168.56,51.05Z"/><path class="cls-9" d="M111.75,76a1.6,1.6,0,0,1-.13.5c-.67,1.11-.44,2.74-1.9,3.38-.14.06-.62-.24-.61-.32a12.4,12.4,0,0,1,1.56-4.06.79.79,0,0,1,.64-.28C111.75,75.24,111.72,75.65,111.75,76Z"/><path class="cls-10" d="M144.35,55.4c.41.49,1.38.57,1.31,1.32s-.7,1.44-1.33,1.3c-.79-.18-.78-1.15-.74-1.88C143.62,55.76,143.71,55.27,144.35,55.4Z"/><path class="cls-11" d="M148.26,53.2a4.87,4.87,0,0,1,1.91-4.42A5.33,5.33,0,0,1,148.26,53.2Z"/><path class="cls-12" d="M134,232.05c.37-.86,1.18-1.07,2.17-1.5a3.54,3.54,0,0,1-2.11,2.71Z"/><path class="cls-13" d="M222.16,240.62c-.52-.39-1.32-1-.74-1.5s1.09.26,1.45.8Z"/><path class="cls-14" d="M224.24,165.86c-1.17,2.78-3.62,4.06-6.21,5.18l-.44-.51,6.1-5.22Z"/><path class="cls-15" d="M212.81,181.55c2.22-1.52,4.21-3.33,6.56-5.17C219.06,179.32,216.65,181.2,212.81,181.55Z"/><path class="cls-16" d="M222.06,170.17c.05,3.05-2.82,5.5-6.55,5.54A31.6,31.6,0,0,0,222.06,170.17Z"/><path class="cls-17" d="M219,165.86l5.25-4.8.53.55c-1,2.34-3.16,3.55-5.26,4.8Z"/><path class="cls-18" d="M225.53,149.74c-.43,2.48-2.24,3.79-4.29,4.88A12.91,12.91,0,0,1,225.53,149.74Z"/><path class="cls-18" d="M221.68,160.4c.06-.23,0-.55.19-.68,1.12-1,1.95-2.36,3.46-2.89.09,0,.48.39.44.48-.7,1.75-2.29,2.49-3.58,3.58Z"/><path class="cls-19" d="M119.39,82.43c.09.43.21.65.15.73A5,5,0,0,1,116,85.32c-.17,0-.53-.45-.51-.47C116.46,83.52,117.94,83.09,119.39,82.43Z"/><path class="cls-20" d="M225.17,154.05a4.2,4.2,0,0,1-3.07,3.13A4.7,4.7,0,0,1,225.17,154.05Z"/><path class="cls-21" d="M123.36,83.46c-1.17,1.51-2.1,2.43-3.91,1.92A4.31,4.31,0,0,1,123.36,83.46Z"/><path class="cls-17" d="M224.3,222.85c0,1.62-.86,2.42-2.52,2.83C221.91,224,223.3,223.58,224.3,222.85Z"/><path class="cls-16" d="M223.07,149.26a4.59,4.59,0,0,1,3-2.85A3.29,3.29,0,0,1,223.07,149.26Z"/><path class="cls-22" d="M222.59,227.14a2.92,2.92,0,0,1-2.76,2.43C220.31,228,221.68,227.81,222.59,227.14Z"/><path class="cls-23" d="M152,63.94c0-1.09.85-1.78,1.29-2.63,3.12-6.09,6.38-12.13,6.26-19.27,0-1.2-.26-2.4-.38-3.61-.05-.56-.33-1.33.57-1.44s.88.63,1,1.24a29.09,29.09,0,0,1-.5,10.84,37.28,37.28,0,0,1-7,14.33C152.92,63.71,152.7,64.15,152,63.94Z"/><path class="cls-24" d="M112.11,45.82c-.36.58-.73,1.16-1.08,1.75a1.21,1.21,0,0,1-1.34.52.72.72,0,0,1-.67-.92c.42-2-.63-2.92-2.32-3.53-.89-.32-1-1.11-.73-2.11,1.84,1.3,3.29.31,4.74-.72,1.71-1.21,3.46-2.22,6.28-1.21-2,.57-2.26,1.81-2.35,3.15a.88.88,0,0,1-.91-.35c-.86-.76-1.45-.74-1.39.57,0,.59.38,1.16.08,1.76C111.15,44.76,112.55,45.55,112.11,45.82Z"/><path class="cls-25" d="M116.12,52.75c-.59-1.85,0-2.91,1.52-4.14C117.47,50.33,117.28,51.54,116.12,52.75Z"/><path class="cls-26" d="M118.06,55.47c-1.09-2.11-.29-3.2.66-4.73C119.33,52.55,118.56,53.69,118.06,55.47Z"/><path class="cls-27" d="M119.83,57.44c-.74-2-.44-3.16.85-4.34C121,54.66,120.57,55.73,119.83,57.44Z"/><path class="cls-21" d="M114.12,42.07l.52.68c-.09,1.64-1.16,2.48-2.53,3.07-.11-.36-1.5-.87.12-1C112.89,43.91,112.62,42.38,114.12,42.07Z"/><path class="cls-28" d="M123.12,55.21a4,4,0,0,1-.83,3.33C121.81,57,121.72,55.94,123.12,55.21Z"/><path class="cls-29" d="M103.13,66.19c.19,1.92.4,3.06-.67,4.3C101.83,69,102.07,68,103.13,66.19Z"/><path class="cls-17" d="M98,70.77c.24-1.15.91-1.09,1.69-.57a1.07,1.07,0,0,1,.52,1.33c-.53,1.12-1.05-.61-1.63-.07C98,71.54,97.67,71.41,98,70.77Z"/><path class="cls-30" d="M124.6,58.21c-.42-1,0-1.7.59-2.9A2.39,2.39,0,0,1,124.6,58.21Z"/><path class="cls-16" d="M98,70.77l.58.69c-.11.64.26,1.33-.28,2.07A2.18,2.18,0,0,1,98,70.77Z"/><path class="cls-31" d="M114.12,42.07c-.49,1-.79,2.14-1.89,2.73-.54-.38.06-1.21-.62-1.54-.39-.19-1.19-.23-.69-1a3.56,3.56,0,0,1,2.52-1.55C114.38,40.65,114,41.58,114.12,42.07Z"/></svg>