<svg id="Layer_1" data-name="Layer 1" xmlns="http://www.w3.org/2000/svg" viewBox="0 0 300 300"><defs><style>.cls-1{fill:#e1e2e2;}.cls-2{fill:#dedfdf;}.cls-3{fill:#e11a1e;}.cls-4{fill:#f5c00e;}.cls-5{fill:#e01a1e;}.cls-6{fill:#f4bf0e;}.cls-7{fill:#f3bf0e;}.cls-8{fill:#df1a1e;}.cls-9{fill:#f3be0e;}.cls-10{fill:#f2be0e;}.cls-11{fill:#dfe0e0;}.cls-12{fill:#dc191d;}.cls-13{fill:#f1bd0e;}.cls-14{fill:#ecb90d;}.cls-15{fill:#edba0d;}.cls-16{fill:#dadbdb;}.cls-17{fill:#dd191d;}.cls-18{fill:#d7191d;}.cls-19{fill:#da191d;}.cls-20{fill:#d5191c;}.cls-21{fill:#cecfcf;}.cls-22{fill:#a51316;}.cls-23{fill:#790e10;}.cls-24{fill:#c0161a;}.cls-25{fill:#210404;}.cls-26{fill:#440809;}.cls-27{fill:#280505;}.cls-28{fill:#4b080a;}.cls-29{fill:#110202;}.cls-30{fill:#4c090a;}.cls-31{fill:#2a0506;}.cls-32{fill:#a7a8a8;}.cls-33{fill:#0a0101;}.cls-34{fill:#0c0102;}.cls-35{fill:#0b0101;}.cls-36{fill:#040001;}.cls-37{fill:#0d0102;}.cls-38{fill:#140203;}.cls-39{fill:#190303;}.cls-40{fill:#1c0304;}.cls-41{fill:#150203;}.cls-42{fill:#0f0202;}.cls-43{fill:#1b0304;}.cls-44{fill:#250405;}.cls-45{fill:#070101;}.cls-46{fill:#050101;}.cls-47{fill:#0e0202;}.cls-48{fill:#9a1214;}.cls-49{fill:#7f0e11;}.cls-50{fill:#cf181c;}</style></defs><path d="M20.47-.6H279.53a1,1,0,0,1,1,1V176.61A123.39,123.39,0,0,1,157.13,300h-14A123.62,123.62,0,0,1,19.47,176.38V.4a1,1,0,0,1,1-1Z"/><path class="cls-1" d="M150,2.08q62.25,0,124.5-.05c2.25,0,2.83.48,2.82,2.79-.07,55-.27,110,.07,165a120.08,120.08,0,0,1-9.86,48.66c-10.59,24.69-26.3,45.24-49.11,59.9-16.17,10.38-34,16.08-53,18-19.26,2-38.2.55-56.72-5.32-24.22-7.68-43.72-22-58.9-42.26a137.39,137.39,0,0,1-26.41-61,62.94,62.94,0,0,1-.79-10.08q0-86.55-.05-173.09c0-2.24.63-2.64,2.72-2.63Q87.66,2.13,150,2.08Z"/><path d="M76.12,27.53c4.34-6.23,9.22-6.72,14.87-1.47a3.18,3.18,0,0,0,1.28.81c4.13,1.31,5.88,3.95,5.42,8.4-.44,4.3-1.76,8.44-2.45,12.71-.48,3-3.23,4.56-5.68,6.07-2.89,1.79-3,2.15-.6,4.56,2.6,2.67,5.28,5.26,7.84,8,2.2,2.32,4.76,2.59,7.6,1.61a27.37,27.37,0,0,0,6.28-3.59c5-3.37,9.61-7.41,15.61-9.06.94-.26,1-.83.77-1.57-.48-1.74,0-3.44.17-5.18,1.08-.14,1.2.83,1.58,1.39a7.43,7.43,0,0,0,8.29,3.42c5.26-1.08,10.16-3.27,15.31-4.76-.86-1.68-1.95-1.89-3.32-1.07-.37.22-.8.34-1.18.54-2.79,1.44-5.36,2.47-8.28-.2s-3.35-5.44-2-8.87c-1.13-.68-2,.16-2.94.44-4.19,1.33-8.33,2.84-12.54,4.15a20.2,20.2,0,0,1-11,.43c-5.81-1.45-8.68-5.41-8-10.94.7-5.28,4.46-8,10.8-7.77a3.84,3.84,0,0,1-.41.91c-3.14,3.67.24,7.56,4.08,7.82a27.14,27.14,0,0,0,7.47-.75c4.4-.92,8.76-2,13.32-3-.3-.46-.49-.83-.74-1.15-6.34-7.94-3.14-16.25,6.89-17.86,2.21-.36,4.56.22,6.48-1.73.93-.94,2.67-.58,3.63.28,1.5,1.35,3,1.09,4.76.93,10-.91,20-1.18,29.87,1.73,4,1.17,7.57.3,10-3.44,4.63,6,2.4,14.45-5,18.33-2.31,1.2-2.3,2.08-1.3,4.14,3.28,6.84,3,13.88.83,21-.76,2.55-1.92,5-1.9,7.76a3.5,3.5,0,0,0-.16,2c.34,1.23,0,2-1.25,2.37A2.8,2.8,0,0,0,189,66.8a48.45,48.45,0,0,1-5.87,9.45,15.48,15.48,0,0,0-3.24,8.06c-.18,2.34-1.08,2.81-3.3,2.08a12.76,12.76,0,0,0-1.45-.56c-1.57-.32-2.23.89-2.73,1.91-.69,1.4.8,1.46,1.54,1.76,5.06,2.08,10.25,3.07,15.7,1.83a9,9,0,0,0,6.6-4.94c1.24-2.53.91-4.51-1.63-5.64-4.06-1.81-6.25-9.77-4.7-13.46A9.56,9.56,0,0,1,193.28,63c6.45-5.24,13-10.31,18.48-16.66a73.17,73.17,0,0,1,13.07-11.84c6.28-4.47,11-10.49,16.07-16.18,1.84-2.07,3.58-4.26,5.6-6.14,3.07-2.84,6.57-2.31,8.29,1.49,3.51,7.81,4.13,15.84.53,23.86a4.77,4.77,0,0,0-.43,3.12c.77,4.26-1.11,7.83-3.75,11.62,3.58-1.06,5.64-3.42,8.15-5.6,2.53,5.15,1.71,10-.33,14.8-.74,1.76-1.37,3.28-1,5.35.57,3.21-.79,6.12-2.69,8.69a30,30,0,0,1-11.85,9.59c5.51,1.27,10.39,1.52,14.78-1.87,1.91,4.49.09,11.08-4.09,14.84a12.73,12.73,0,0,0-2.65,3.41c-3.66,6.54-9.79,9.22-16.81,10.3a35.72,35.72,0,0,1-5,0c3.14,3.94,5.65,8,11.21,7.65a14.35,14.35,0,0,1-12.53,11.08,15.57,15.57,0,0,0-5.42,1.47c-6.41,3.08-12.11.87-17.42-2.94a54.65,54.65,0,0,1-4.29-3.8c-.11,4.69-.52,9.08,2.73,12.73.84.95.83,1.54-.63,1.9a23.69,23.69,0,0,1-7.44.8c-3.92-.31-7.51-2.09-11.58-2.1-2.78,0-4.54-2.66-5.63-5.21-.75-1.73-1.21-3.59-1.88-5.62-2,2.86-3.67,5.74-3.64,9.34a6.59,6.59,0,0,0,1.52,4.27,80.1,80.1,0,0,0,10.71,10.92c4.81,4.05,10.25,5.09,16.29,4,4.92-.94,9.77-2.35,14.81-2.59,10.39-.48,20.14,1.26,27.46,9.47,9.74,10.92,8.68,28.49-2.33,39.86a4.81,4.81,0,0,0-1.43,5.35,157.2,157.2,0,0,1,4,20.09c.34,2.7,1.44,5.14,2.31,7.67,2.37,6.91,0,11.14-7.05,13a10.67,10.67,0,0,0-3.55,1.51c-2.62,1.92-6.38.77-8.8,3.46-.53.59-2.31.1-3.52,0-.71-.05-1.49-.82-2.08.15a2.81,2.81,0,0,0,0,2.74c.57,1.22,1.79,1.83,2.84,2.88-3,1.35-5.59,1.38-8.39-.42a32.5,32.5,0,0,0-6.94-3.12c-7-2.37-6.87-9.2-4.1-13.25a9.72,9.72,0,0,0,1.38-3.26c1.43-5.65,5.21-10.67,12.41-9.19a31.58,31.58,0,0,0,10.23.49c-2.72-4-5.2-8.06-8.64-11.3-1.22-1.16-3-.69-4.3.4-3.42,2.94-6.24,6.48-9.34,9.75-.56.59-.39,1.28-.41,2a14.28,14.28,0,0,1-4.63,10.63,2.74,2.74,0,0,0-.86,2.73c.4,3.94.15,7.82-1.82,11.35-2.61,4.67-6.69,7.37-12,7.29-5.12-.08-8.38-3.2-10.3-7.85.82-.67,1.47.09,2.13.26,3.18.8,5-.29,5.63-3.51a8.08,8.08,0,0,0-1.83-6.79,41.6,41.6,0,0,0-5.17-5.11c-2-1.79-4.1-3.63-5.13-6.12s-2.14-2-3.91-1.06c-4.64,2.49-8.12,5.84-9.13,11.25-.73,3.92.88,7,4.18,7.8,3.58.91,6.25-.85,7.49-4.93.2-.65.41-1.3.69-2.17,2.78,2.74,4.63,5.65,3.56,9.55-1.46,5.25-5.65,6.81-10.83,7.35a16.32,16.32,0,0,1,5.33,9.39,10.62,10.62,0,0,1-2.53,9.42c-2.73,3-6.06,3.18-10.86.67,1-.66,1.87-1.19,2.67-1.87a3.61,3.61,0,0,0,1.36-4.14c-.55-1.73-1.84-1.76-3.3-1.72-12.31.33-23.92-11.38-18.48-26.63,3.39-9.51,10.21-15.63,18.88-20.06a50.46,50.46,0,0,1,8.06-3.52c2.32-.71,2.55-1.87,2.19-4a161.63,161.63,0,0,1-2.46-34.65c.15-2.92.62-5.83.95-8.89a5.51,5.51,0,0,0-3.61,1.61c-2.1,1.66-4.11,3.45-6.12,5.22a24.34,24.34,0,0,1-12.59,6.27c-1.56.23-2.16,1.37-2.88,2.38-5.42,7.57-5.68,6.34.53,13.83,2.83,3.42,5.86,6.46,10.86,5.83,1.34-.17,2.89,0,3.58-1.54s-.08-2.85-1-4c-.41-.54-.87-1-1.36-1.6A8.32,8.32,0,0,1,163.5,211c1.12,5.79-1.7,10.83-7.28,12.69a4.3,4.3,0,0,0-2.71,2.36c-2.51,4.76-6.84,6.93-12,6.76a14.17,14.17,0,0,0-9.55,3.05,52.13,52.13,0,0,1-6.14,3.89,22.21,22.21,0,0,0-8.49,8.17,10,10,0,0,1-10,5.19,12.54,12.54,0,0,0-5.07.86c-2.24.75-4.53,1.25-6.85.35-1-.39-1.58.07-2.33.58-3.26,2.24-6.67,2.05-9.4-.73a2.61,2.61,0,0,0-3.46-.52c-1.47.72-1.6,2-1,3.33,1,2.16-.43,2.36-1.86,2.28a6.06,6.06,0,0,1-5.53-4.08,16.47,16.47,0,0,0-2-2.91,27.42,27.42,0,0,1-4.67-13c-.26-3.68,3.35-6.9,7.82-7.8a5.39,5.39,0,0,0,3.6-2.15c2.2-3,5.29-3.32,8.63-2.48,4.69,1.18,9.38,2.37,14,3.69a3.64,3.64,0,0,0,4.24-1.4c1.87-2.15,4-4,6.07-6,2.3-2.29,2-4.41-.76-6.06-1.06-.63-1.65-.29-2.49.3-3.39,2.35-7,2.11-11,1.88-4.74-.27-9.43-1.45-14.08-1.28-6.46.23-11.64-1.22-15-7.06-4.07-7.12-.54-14.72,7.88-16.39-.37.73-.66,1.29-.92,1.86-1.26,2.76-.48,5.83,1.7,6.8a5.62,5.62,0,0,0,7.19-2.89,16.27,16.27,0,0,0,1.2-7.37c-.26-6.31,2.31-10.88,7.42-14.5,5.72-4,11.3-8.32,16.7-12.78,4.33-3.57,9.21-4.79,14.64-5,12.28-.53,24.58-1,36.79-2.58a45.78,45.78,0,0,0,8.37-1.78A33.53,33.53,0,0,0,153.27,147c-8.64-3.12-17.71-4.67-26.51-7.19a5.42,5.42,0,0,1-1-.25c-2.27-1.11-3.6-1-4.58,1.92-1.05,3.15-4.15,4.13-7.74,4.36,4.22-6.2-1.6-8.68-4.29-12.59-1.21,1.77-2.08,3.57-3.9,4.58s-3.81,1-6.46.68c2.35-1.71,3.42-3.66,2.81-6.28-.41-1.8-.84-2.42-2.77-1.31-5.84,3.37-11.72,6.68-17.39,10.34C78.23,143.37,78,145,80.27,148c.36.48.91,1,.9,1.53,0,1.56.81,2.07,2.13,2.65a3.6,3.6,0,0,1,1.33,5.32,3.07,3.07,0,0,0-.64,2.82,8.12,8.12,0,0,1-3,9.44,9.83,9.83,0,0,1-11.43.5c-.63-.42-1.22-.89-2.26-1.66,1.33-.13,2.22-.14,3.08-.32a2.8,2.8,0,0,0,2.26-3.06c0-1.3-.25-2.37-1.92-2.52a2.56,2.56,0,0,1-2.33-2.42,16.47,16.47,0,0,0-2.4-6c-.89.07-1,1-1.45,1.58a18.11,18.11,0,0,1-7.95,6.45c-1.33.58-2.82,1-4,.12-1.78-1.3-3.16-.46-4.38.54-1.42,1.17-.7,2.67,0,4,.34.69.7,1.37,1.07,2.1-4.82.13-8.07-1.73-9.44-5.34a9.9,9.9,0,0,1,3.14-11.44,2.21,2.21,0,0,0,1-2.34c-.34-3.15,2-5.27,5.17-4.69a3.59,3.59,0,0,0,3.5-1,15,15,0,0,1,3-2.08,33.63,33.63,0,0,1,3.32-1.39c-.81-2.21-.81-2.21-2.79-1.48-4.8,1.78-9.14.16-11.48-4.49-.55-1.09-1.25-1-2.07-1-2.46.08-3.92,1.16-6,4.32A9.32,9.32,0,0,1,35,128a9.94,9.94,0,0,1,8.68-6.44c2.24-.24,4.47.28,6.68-1.2,1.58-1.07,3.49.27,4.31,1.87.95,1.86,2.31,2.4,4.2,2.84,3.85.9,6.79,3.4,9.15,6.47,1.2,1.55,2.09,1.52,3.56.47q10.15-7.22,20.83-13.66c1.22-.74,1.41-1.36.78-2.61a17.12,17.12,0,0,1-2-7.47c0-1.43-.56-1.69-1.88-1.57a6.52,6.52,0,0,1-5.74-2.44c.06-.56.54-.64.91-.7,3.16-.44,4.56-2.55,5.15-5.4,1-5,1.15-10.15,2.75-15,.29-.89-.27-1.27-.71-1.76-4.13-4.68-8.3-9.31-12.36-14-.94-1.1-1.49-1.27-2.59-.22a14.63,14.63,0,0,1-7.92,4.15,3.35,3.35,0,0,0-1.81.9c-2,2.17-4.36,3.38-7.41,2.74-.91-.18-1.38.59-2,1-4.73,3-10.43,2-13.36-2.29-2.31-3.4-1.66-6.7.45-10a31.89,31.89,0,0,0,3.38,2.69c2.3,1.4,4.11.56,4.8-2,1.19-4.48,4.89-5.42,8.89-6.22-1.66-1.38-3.17-2.07-5.4-1.31-4.12,1.41-5.26.85-7.69-2.82a4.41,4.41,0,0,0-7.41-.16c-.67.9-.74,2.15-1.72,2.85C36.12,51.38,36,47.88,39,43.9A9.23,9.23,0,0,1,49.3,40.28c.91.24,1.59.55,2.53-.35,2.43-2.32,5.36-2.07,7.76.39,2.72,2.8,2.72,2.8,7.21,3.27-.59-2.23-1.2-4-4.07-4.38s-4.49-3.31-4.13-6c.55-4.11-1.18-6.55-5.29-6.87-2.24-.17-2.38-.68-1.34-2.5,3.67-6.49,11.46-7.3,16.18-1.56a3.27,3.27,0,0,0,2.92,1.6c2.37-.07,3.36,1.77,4.13,3.69.93,1.76.32,4,1.8,5.59a35.21,35.21,0,0,1,3.4,4.69c.23-1.55.41-3,.73-4.52s-.54-2.62-1.94-3.26c-.87-.39-1.85-.47-2.72-.85S75.1,28.31,76.12,27.53Z"/><path class="cls-1" d="M193.28,63c-3.52,3.91-3.84,8.24-1.9,13A7.22,7.22,0,0,0,195.12,80c2.55,1.23,3.23,2.66,2.48,5.36-1,3.59-3.61,5.57-7,6.62-5.76,1.77-14.32.36-20.2-3.33,1.09-1.56,2.16-3.46,3.81-4.1s2.82,2,5,1.61c-.75-4.77,1.61-8.43,4.35-12A37.62,37.62,0,0,0,188.88,65c.13-.32.32-.91.4-.89,3.31.59,1.86-2.4,2.74-3.62C192.13,61.49,191.8,62.69,193.28,63Z"/><path class="cls-2" d="M76.12,27.53c-.32.94.17,1.06,1,1.21,4.94.93,5.45,1.69,4.47,6.42a4.43,4.43,0,0,0,.12,2.55c.36.88.24,1.45-.8,1.74s-1.3-.13-1.51-.9A9.69,9.69,0,0,0,76,33.47c-.9-.72-.8-1.61-.76-2.58s0-2.24,0-3.36Z"/><path class="cls-3" d="M140.46,115.63c.61,4.23,2.24,7.47,5.94,9.73,1.9,1.17,2.78,3.7,4.86,4.94,1.56.93,2.75,1.54,3-1.15a14.37,14.37,0,0,1,1.13-3.39c1.06.42,1,1.32,1.36,2,.72,1.4,1.38,3.17,2.78,3.65,4.87,1.66,6.75,7.09,11.52,8.81.64.23,1.09,1.06,1.56,1.67a91.65,91.65,0,0,0,9.52,10.28c6.27,6,13.48,7.65,21.8,5.67,7.08-1.69,14.18-3,21.58-1.94,12.84,1.78,21.39,10,23,22.69,1,8-3.61,19.71-9.6,23.95-.89-2.76-1.06-5.06,1-7.67a20.3,20.3,0,0,0,3.22-21c-2.83-7.3-8.77-10.84-16.23-12.19s-14.65-.39-21.88,1.25c-2,.45-4.1.62-6.15.89a17.65,17.65,0,0,1-16.32-6c-.45-.51-1-.94-1.52-1.43-.69.77-.17,1.42.16,1.88.81,1.12,1.56,2.49,2.69,3.12,6.29,3.53,7.66,9.63,8.7,16a26.61,26.61,0,0,0,2.72,8.62c2.88,5.31,6.07,10.49,5.64,17.5,1.9-2,1.41-3.87,1.49-5.58,0-.48-.31-1.11.27-1.39s1,.18,1.39.5c1.69,1.29,2.61,3.2,4.07,5.37a4.64,4.64,0,0,0-1.27-5.31c-1.3-1.2-.92-1.83.25-2.76,4.45-3.56,7.53-8.65,12.7-11.43.22-.12.54-.37.52-.54-.26-3.47,1.92-6.45,1.9-9.86,0-1.18-.87-2-1.29-3.08,9.41-.89,13.64,8,9.29,19.16,2.5-.55,2.77-1.07,4.33-8.31a8.62,8.62,0,0,1,3,9.84c-2.48,7.27-.59,14,1.15,20.86a172.34,172.34,0,0,1,3.56,18.6c.34,2.45,1.37,4.62,2.12,6.92,1.93,5.87.55,9.74-5.62,10.83a13.28,13.28,0,0,0-4.51,1.93c-1.14.69-2.22,1.25-3.63.54-1.1-.55-1.92,0-2.62,1-1.79,2.55-4.57,2.26-5.8-.57a6.52,6.52,0,0,0-4.72-4.1c-2.41-.48-2-1.83-1.15-3.17,1.37-2.17,3.25-3.55,6.06-3.12a27.65,27.65,0,0,0,9.56-.13c.78-.15,2.15-.07,2-1.11s-1.38-.65-2.22-.59a36.65,36.65,0,0,1-9.06-.18c-4-.66-6.72,1.09-8.69,5.37-.2.45,0,1.41-1,1.08a1.48,1.48,0,0,1-1.22-1.7c.2-2.85,4.24-6.61,7.11-6.34a81.43,81.43,0,0,0,10.12.34c.81,0,1.76.25,2.25-.76-.45-.93-1.31-.71-2.06-.75-2.93-.19-5.93,0-8.8-.6-4.8-.95-7,.76-10,5.95-.36.64.12,2.31-1.55,1.68-1.39-.52-.89-1.72-.65-2.67,1.38-5.29,4.83-7.5,10.28-6.7a45.46,45.46,0,0,0,9.32.6c2.93-.17,3.74-1.71,2.06-4.11-2.19-3.11-4.46-6.18-6.82-9.17-2.58-3.27-5.88-3.64-9-.85-2.3,2.09-4.35,4.47-6.47,6.75-.58.62-1,1.37-1.78,2.36-1.19-3.27-2.39-5.73-2.56-8.72-.43-7.82-7.67-15.76-15.2-17.14-1-.19-2.71-.73-3,.38s1.4,1.44,2.42,1.75c6.87,2,11.78,6.06,13.64,13.23a17.79,17.79,0,0,1,.26,2c-1.31-1.06-2.3-1.9-3.34-2.68-.41-.31-1-.55-1.4-.06s0,1,.42,1.32a20.47,20.47,0,0,1,4.08,4.68c3.7,5.89,3.85,11.81.44,16.56a6.05,6.05,0,0,1-6,2.86c-1.18-.13-2.19-.49-2.52-1.82,5.83-1.39,7.48-4.8,4.89-10.31-1.23-2.61-2.67-5.14-5.9-6,2.17,3.58,5.64,6.53,5,11.9-2.33-4.49-5-7.8-9.46-9.2.12,1.49,1.26,2.05,2.17,2.76a16.16,16.16,0,0,1,4.88,6c.36.76,1,1.61.54,2.38-.58.93-1.78.82-2.63.54-2.68-.87-2.29.5-1.66,2.1,1,2.51,2.75,4.06,5.57,3.68,1.83-.25,2.18.49,2.25,2.1.32,7.54-2.38,12.6-8.07,14.83-3.78,1.48-7.1.74-10.41-2.46,3.83-.49,5.44-2.84,5.95-6.05.61-3.76-1-6.73-3.54-9.34a15.12,15.12,0,0,0-1.65-1.65c-7.09-5.34-10.37-12.68-11.62-21.25-1.75-12-3.17-24-2.39-36.2.43-6.79,2.73-13.2,3.88-19.84.85-4.88.52-9.67-1.91-14.12-.59-1.09-1.07-2.4-2.85-2.74.54,2.52,2.35,4.48,2.35,7.14-6.41-7-14.72-10-23.45-12.23-6.7-1.71-13.39-3.48-20.11-5.14-1.86-.46-2.89-1.21-3.24-3.33-.59-3.6-2.46-6.81-3.9-10.14-.36-.82-1.54-2-.09-2.68s2.75-2.33,4.71-1.28a6.62,6.62,0,0,1,.62.46c6.26,4.34,10.93,3.52,15.53-2.67C139.12,117,139.35,116.1,140.46,115.63Z"/><path class="cls-3" d="M208.08,79.41a35,35,0,0,1-9.31-.28c-2.93-.61-5.08-1.85-6-5-1-3.38-1.07-6.54,1.54-9.2a44.7,44.7,0,0,1,5.07-4.46c5.75-4.25,10.62-9.41,15.44-14.63a71.57,71.57,0,0,1,10.88-9.62c7.14-5.09,12.42-12,18.2-18.45,1.21-1.35,2.37-2.77,3.69-4,2.3-2.17,4.07-1.83,5.59.92,4.51,8.23,2.86,20.62-3.57,27.38-.78.82-2.78,1.76-1.59,2.91,1,1,2.09-.93,3.07-1.66.6-.45.81-1.36,1.72-1.45.45,4.47-3.61,11.28-7.82,13s-8.48,3-12.14,5.78a1.12,1.12,0,0,1-1.42.12c-2.36-1.54-5.1-2-8.09-2.7,9.76-7.42,19.2-14.78,23.12-26.83a71.46,71.46,0,0,1-14,16.82c-5.53,4.7-10.58,10.28-18.59,11.53a17.22,17.22,0,0,1,5.94-4.86c9.7-5.44,16.34-13.44,20.53-23.65a30.41,30.41,0,0,1,8.11-11.62c-1.95-.6-2.79.58-3.64,1.35a22.42,22.42,0,0,0-6,8.72c-3.84,10.29-10.78,17.73-20.14,23.24a33,33,0,0,0-12.44,12.28c-1,1.79-2.08,3.6-1.7,6,1.47-.45,1.68-1.81,2.32-2.73,5.21-7.46,14-10.11,21.93-6.61,1.39.61,1.85,1.06.86,2.57a53.15,53.15,0,0,0-2.92,5.79c-1.42,2.88-3.24,5.31-6.71,5.93-.61.1-1.52.29-1.47,1.19s1,1,1.6,1c6.25-.29,9.14,4.51,12.75,8.18-1.74,1.44-3.43,2.77-5.05,4.18-3.08,2.71-6.69,3.42-10.65,3-.55,0-1.32-.4-1.63.3s.37,1.38.92,1.64c4.54,2.17,4.77,6.4,5.16,10.57.11,1.1.05,1.84-1.37,1.84-2.94,0-5.86.37-8.81-.16a8.33,8.33,0,0,1-5.78-3.55c-.47-.7-1-1.75-2-1.14-.77.46-.37,1.41,0,2.12,2.66,5-.29,9.48-3.28,13.5-.35.47-.76.73-1.3.31-2.73-2.09-6.2-3.15-8.41-6a11.84,11.84,0,0,1-1.92-3.94c-.13-.42-.38-.85-.86-.85s-.66.53-.61,1c.73,6.68-3.75,9.5-8.76,12a1.91,1.91,0,0,1-2.68-.45,15.34,15.34,0,0,1-4.27-10.57c0-1.5.41-3.11-.5-4.53-1.25.32-1,1.4-1.25,2.15-1.69,6.23-7.6,8.48-11.79,9.19-1.44.25-2-.76-2.59-1.73-2-3.36-2.07-7.06-2-10.82,0-1.17.8-3.07-.75-3.34-1.33-.24-1.71,1.71-2.1,2.89-1.87,5.58-1.47,11.26-.42,16.93a4.07,4.07,0,0,0,.52,1.17c.07.12.27.17.74.43-.25-3.92-1-7.67.21-11.57.83,2.39,1.44,4.7,2.95,6.62.86,1.1.08,2.38-.15,3.5-.4,1.94-1.16,3.8-1.67,5.72s-1.32,1.56-2.35.42a10.59,10.59,0,0,1-3-6.18c-.07-.69.26-1.86-.9-1.78-1,.07-.8,1.16-.84,1.92,0,.25-.07.51-.13.93-2-1.17-2.49-3.09-2.93-5a33.41,33.41,0,0,1-.6-9c0-.67.49-1.8-.7-1.84-.83,0-.78,1-.86,1.65a18,18,0,0,1-5.35,10.7c-3.14,3.16-6.55,3.61-10,.82-2.57-2.09-4.66-2-7.48-.56-12.47,6.42-24.92,12.86-36.76,20.39-4.93,3.13-5.41,5.29-2.23,10.13a2.93,2.93,0,0,1,.55,1.67,2.38,2.38,0,0,0,2.08,2.57c1.27.28,2.1,1,1.8,2.37s-1.39,1.32-2.63,1c-3.28-.82-5.93.41-8.11,2.85-.39.44-.69,1.11-1.41,1s-.93-1-1-1.64a9.77,9.77,0,0,0-1.13-3.43,6.67,6.67,0,0,1-.67-6.2c.23-.55.44-1.34-.14-1.67-.78-.44-1.27.29-1.63.88-1.17,1.91-2.25,3.89-3.46,5.78a15.74,15.74,0,0,1-7.28,6.06c-1.72.73-2.76.49-2.89-1.73a8.33,8.33,0,0,0-5.56-7.74c-1.08-.42-1.9-1-1.46-2.3a2.17,2.17,0,0,1,2.65-1.58c2.57.8,4.27-.33,6-2,2.28-2.17,5.29-2.39,8.21-2.75.6-.08,1.22-.08,1.81-.2s1.25-.31,1.22-1.09-.73-.91-1.33-.85c-2.54.27-4.15-.65-4.72-3.27-.37-1.69-1.51-.67-2.24-.38-2.33.95-4.58,2-7.23,1-3.14-1.18-4.55-3.32-4-6.64a17,17,0,0,1,2.91-7.42c1.49-2.07,3.06-2.15,4.19,0a5.71,5.71,0,0,0,4.64,3.17c3.11.53,5.49,2.48,7.59,4.71,3.9,4.14,3.89,4.15,8.79,1a19.77,19.77,0,0,0,1.15,2.13c.42.59.88,1.57,1.76,1.1,1-.57.17-1.32-.14-2-.66-1.37-1.32-2.69.61-3.7.92-.48,1.52-.83,1.79.54a3.18,3.18,0,0,0,.53,1.17c.43.6.77,1.64,1.73,1.08s.23-1.23-.11-1.81c-1-1.72-1.19-3.12.94-4.25,1.12-.59,1.49-.36,1.84.67a9.08,9.08,0,0,0,.77,1.64c.32.53.79,1.09,1.46.72s.16-1.05-.05-1.55c-.74-1.75-1.82-3.5.88-4.65.87-.36,1.44-.66,1.68.55a2.53,2.53,0,0,0,.21.74c.47.85.51,2.55,1.71,2.18,1.59-.51.07-1.7,0-2.59s-1-1.89-.15-2.91c1.39-1.71,2.7-1.49,3.63.54.35.75.69,2,1.68,1.62,1.34-.48.07-1.39,0-2.13-.11-1.12-1.56-2.19.12-3.42,2.5-1.82,2.58-1.89,3.7,1a7.79,7.79,0,0,0,.66,1.4c.32.49.73,1.11,1.43.65.52-.33.39-.88.12-1.39a12.8,12.8,0,0,1-.74-1.65c-.88-2.44.07-4.15,2.54-4.74.58-.14.8,0,1,.48s.29,1,.53,1.46c.47.85.71,2.48,2,1.88s-.08-1.64-.37-2.43a3.73,3.73,0,0,1,3.11-5.12c.62-.08.72.24.88.65a18.85,18.85,0,0,0,.76,1.93c.44.9,1,2.37,2.06,1.76s-.17-1.63-.53-2.39c-1.47-3.14-1.14-3.75,3.06-5.35.44,1.29.85,2.6,1.34,3.88.21.55.57,1.19,1.33.82.56-.28.48-.86.27-1.37-.13-.32-.26-.64-.4-1-1.11-2.41-.77-4,1.87-5.39,3.53-1.82,6.33-4.71,9.32-8.09-.13,3.6,1.31,3.33,3.63,2.63,4.37-1.31,8.84-2.27,13.08-4.81-.16,1.92-.73,3.42-.51,5,.08.52.12,1.11.8,1.13.51,0,.68-.45.81-.87l.87-3c1.85-6.17,6.63-9,13-7.66,3.27.68,6.1,2.4,9.11,3.7,6.32,2.73,12.77,4.43,19.68,2.7,5.68-1.42,10-6.13,9.06-11.79-.24-1.44.66-1.07,1.36-1a16.36,16.36,0,0,0,8.11-1.31C209.1,79.2,209.07,79.19,208.08,79.41Z"/><path class="cls-3" d="M107.34,205.53c3.37-4.85,2.14-9.42-.7-13.86-.43-.68-1-1.74-2-1.08s-.33,1.63.16,2.3c2.17,2.94,3.42,6,1.89,9.68-.42,1-.76,2.12-1.91,2.6-.14-.13-.32-.22-.36-.34-.27-1,.28-2.86-1-2.84-1.75,0-.92,1.86-1,2.93-.34,8.79-8.6,14.65-16.5,11.54,1.72-1.22,3.44-2.35,5-3.62a16,16,0,0,0,5.54-8.57c.22-.82.68-2-.34-2.3s-1.17.93-1.45,1.67C92.05,210.76,86.92,215,79.44,216c-7.28,1-14.06-6-12.68-12.79A7.21,7.21,0,0,1,70.38,198c.1.59.17,1,.23,1.41.61,3.78,2.17,5.6,5.1,6,4,.51,6.89-1.11,8.34-4.65a23.53,23.53,0,0,0,1.29-8.94,12.74,12.74,0,0,1,5.64-11c6.42-4.7,12.7-9.6,19-14.51a16.87,16.87,0,0,1,9.84-3.51c11.24-.56,22.48-1,33.69-2.09a74.42,74.42,0,0,0,15.64-2.87c.84,5.56-1.12,10.56-2.25,15.67a1.29,1.29,0,0,1-1.1,1c-3.29.71-5.73,2.82-8,5-4.39,4.21-9.13,7.72-15.38,8.53a2.46,2.46,0,0,0-1.72,1,65.88,65.88,0,0,0-5.08,7.21,5,5,0,0,0,.13,5.61,39.44,39.44,0,0,0,8.73,9.9c3.26,2.53,7.29,2.6,11.15,1.27,2.2-.76,2.71-2.71,2-6.11a5.23,5.23,0,0,1,3.8,3.81c1.89,5.57-2,11.11-8.34,11.71a21.93,21.93,0,0,1-3.88-.13c-.77-.06-1.69-.44-1.86.68s.87,1.18,1.59,1.34c.92.2,1.88.25,3.14.41-1.94,3.88-5.21,6.2-9.07,6-5.77-.36-10,2.16-14.51,5.08-5.17,3.37-10.4,6.47-13.55,12.13a6.48,6.48,0,0,1-6.42,3.2,17.64,17.64,0,0,0-7.13,1.08,7.91,7.91,0,0,1-6.31-.09,1.78,1.78,0,0,0-2.45.61c-1.47,1.75-3.47,1.94-5.47,1.42-1.57-.41-2.8-1.34-2.58-3.33a8.93,8.93,0,0,0-1.64-6.37c-1.35-1.93-.07-4.41,2.37-4.85a9.66,9.66,0,0,1,5.59.76c3.86,1.66,7.88.62,11.82.83.31,0,.72,0,.85-.4s-.19-.82-.6-1a7.72,7.72,0,0,0-3.55-.59,23.27,23.27,0,0,1-10.18-1.54c-3.34-1.32-6.08-.39-8.36,2.86-.46-1.62-2.18-2.3-1-4,1.31-1.91,3-2.87,5.32-2.36,3.54.78,6.92,2.23,10.57,2.59,1.48.15,4,1,4.18-.28.22-1.57-2.36-1.13-3.75-1.51-2.75-.75-5.55-1.35-8.24-2.27-3.7-1.28-7-1.22-9.75,2.4-.65-1.48-1.53-2.52-.47-3.95,1.4-1.88,3.15-3.09,5.54-2.57,3.21.7,6.36,1.64,9.54,2.44,2.44.61,4.88,1.16,7.32,1.74a3.58,3.58,0,0,0,4-1.22,72.53,72.53,0,0,1,6.77-6.81c3.19-3,3.1-6.34-.39-8.87-1-.75-1.15-1.25-.42-2.23a12.9,12.9,0,0,0,2.52-6.72,2.73,2.73,0,0,1,.87-1.79c3.35-3.42,3.86-7.59,3-12.06a4,4,0,0,1,.32-3.19c2.3-3.73,1.69-9.67-1.2-13.16-.43-.52-.89-1.29-1.66-.91-1,.49-.5,1.45-.15,2,1.42,2.31,2.77,4.62,2.55,7.48-.1,1.19-.06,2.43-1.34,3.22-1.62-2.05-2.6-4.53-4.46-6.37-.54-.53-1.23-1.47-1.92-.94-.93.72,0,1.58.47,2.22a40.44,40.44,0,0,1,4.65,7.48c2.75,6.19.68,12.42-4.84,14.71A1.48,1.48,0,0,1,107.34,205.53Z"/><path class="cls-3" d="M170,49.29c.49-1.61,2.69-3.29,1.29-4.21-1.68-1.1-1.62,1.79-2.66,2.62a10.47,10.47,0,0,1-2.22,1.74c-2.81,1.25-10.64,0-12.69-2.37-1.65-1.87-3.34-2.27-5.49-1.1-.68.37-1.41.65-2.12,1-3,1.34-5.44.51-6.88-2.32-1.1-2.15,0-5,2.55-6.47,1,4.2,2.23,5.21,6.62,5,2.59-.11,5.17-.49,7.75-.72a18.68,18.68,0,0,1,5.68.36c3.07.65,3.09.66,2.79-2.39a10.64,10.64,0,0,0-.35-2,74.21,74.21,0,0,1-3.1-13.91,27.86,27.86,0,0,0-2.76-9.68c-.71-1.39-.3-1.74,1.14-1.85,9.78-.8,19.53-1.19,29.11,1.62,3.2.94,6.39.93,9.23-1.05,1.71-1.18,1.81-.12,2,1.11.72,5-3.93,11.39-9,12.4a10.89,10.89,0,0,1-6.11-.39c-.85-.32-2.13-1.33-2.72.06-.47,1.12.94,1.41,1.69,1.9,3.55,2.31,4.18,6.42,1.38,9.14-.11-.1-.27-.18-.33-.3-.36-.81-.23-2.24-1.53-2-1.11.21-.58,1.45-.56,2.24.06,3-.58,5.59-3.81,7.23a11.29,11.29,0,0,0,.1-4.07c-.11-.37-.46-.91-.75-.94-.66-.08-.75.56-.8,1.08s0,1-.06,1.56C177.09,46.81,174.52,49.21,170,49.29Z"/><path class="cls-3" d="M172.32,250.09c2,4.08.41,7.89-3.75,9.56-6.8,2.74-16.56-2.09-16.08-10.16,0-.65.25-1.68-.58-1.78-1-.12-1,1-1.16,1.71-.56,3.45.77,6.27,3.15,8.65a20.9,20.9,0,0,0,4.92,3.33c5.39,3,9.26,7,8.83,13.75-.26,4.1-3,6.62-7,6.48,1.07-2.05,2.45-4,1.34-6.43a13.65,13.65,0,0,0-4.46-5c-1.49-1.17-3-2.39-4.5-3.51a15.24,15.24,0,0,1-6.59-13.37c0-.73.24-1.55-.49-2.14-2,2.33-1.45,8,1.07,12,2.3,3.67,6,5.93,9.25,8.69-6.75,1.29-16.9-6.14-17.18-15.11-.26-8.67,3.48-15.55,9.71-21.21,5.21-4.73,11.5-7.61,18-10.11,1.15-.44,1.59-.31,2,1,1.25,3.93,1.32,3.9-2.22,5.89-4.29,2.43-7.58,5.71-9,10.59s0,9.26,3.59,11.1C165.06,256.05,169,254.7,172.32,250.09Z"/><path class="cls-3" d="M93.46,80.43c-4.32-4.92-8.55-9.72-12.75-14.53-2.21-2.52-2.44-2.58-5-.48-2.21,1.85-4.48,3.5-7.47,3.91-1.51.2-2.58,1.28-3.69,2.29-2.65,2.43-4.65,2-6.18-1.15A14.36,14.36,0,0,0,56.17,67c-1.86-2.06-1.69-3.69.64-5.26A11.76,11.76,0,0,1,64,59.85c2.16.1,3-.69,3.36-2.87,1-6.73,8.06-14.31,14.55-15.82a2.84,2.84,0,0,1,2.58.19c-1.57,2.38-2.69,4.79-5.89,5.95s-5,4.33-5.37,8c-.06.68,0,1.61.73,1.78,1,.24.91-.86,1-1.42,1-4.56,3.48-7.47,8.35-7.84,1-.07,1-.61,1-1.37.27-3,1-3.64,4-3.82.62,0,1.63.41,1.75-.53.14-1.11-1-1.38-1.78-1.46A5.06,5.06,0,0,1,84,38.18c-1.3-2.27-.48-4.29,2-4.74A6.74,6.74,0,0,0,91.25,30c.89-1.71,1.91-1.2,2.84-.25a6.66,6.66,0,0,1,1.63,6c-.62,3.74-1.85,7.35-2.23,11.17-.25,2.53-2.47,3.84-4.44,5.12-3.88,2.51-3.91,2.5-2.61,6.87.31,1-.31,1.62-.82,2.31-.39.53-1.16,1.14-.43,1.75s1.41-.15,2-.67a12.44,12.44,0,0,0,1.1-1.39c1.85,1.14,2.61,2.4.85,4.14-.44.44-.92,1-.24,1.53s1.24-.15,1.77-.58.7-2.24,2.2-.76c1.18,1.17,1,2,0,3.06-.52.56-1.8,1.1-.78,2,.77.68,1.52-.29,2.2-.8.51-.38.52-1.54,1.43-1.21s.46,1.44.81,2c2,3.25.52,5.63-1.67,8A13.29,13.29,0,0,0,93.46,80.43Z"/><path class="cls-1" d="M239.83,190.16c.34-5-.41-9.53-5.13-12.44-.83-.5-.83-1.46-1.12-2.25a12.31,12.31,0,0,0-17-6.92c.31.8,1.11,1,1.74,1.43a3.63,3.63,0,0,1,1.62,4.89,14.3,14.3,0,0,0-1.38,5.49,1.35,1.35,0,0,1-.66,1.29c-4.31,2.59-7.22,6.67-10.83,10a19.56,19.56,0,0,1-2.58,2.16c-1.38.88-2.51.61-3.37-.93-3.57-6.45-6.63-13-7.58-20.5-.29-2.26-1.29-4.43-2-6.83,7.19,1.05,14-.85,20.85-2.09a38.4,38.4,0,0,1,16.22.52c12.32,3.11,17.56,15.17,11.75,26.73C239.89,190.8,239.59,190.73,239.83,190.16Z"/><path class="cls-3" d="M250.15,61.65c-5.24,4-10.56,7.88-16.66,10.5-1.9.82-3.88,1.45-5.84,2.13a4.43,4.43,0,0,1-1.17,0,29,29,0,0,0,3.78-6.92,13.36,13.36,0,0,1,7-7c2.45-1.09,4.92-2.15,7.41-3.13,4.74-1.87,9.67-3.33,13.87-7.21,1.62,9.38-3.79,15.11-9.85,21.2,4,0,4.91-3.07,7.23-4.41.55,2.74-.46,5-1.87,7-4.19,6-10.1,9.56-17.12,11.41a3,3,0,0,1-3.2-1.08c-2.46-2.41-4.51-5.27-8-7.08C235.34,73.88,244.33,70.19,250.15,61.65Z"/><path class="cls-3" d="M248.16,92.46c-8.27,3.69-17,4.24-25.94,3.34,4.36-1,7.21-4.21,10.56-6.71,3.8-2.83,8.14-2.42,12.46-1.67,3.9.69,7.75.9,11.42-1,.85,5.11-2.55,10.49-8.05,12.83-1.11.48-2.3.77-3.43,1.2-.46.18-1.12.37-1,1s.9.76,1.46.69c1.09-.12,2.17-.4,3.6-.68-3.42,4.92-8.19,7-13.5,8.19a19.74,19.74,0,0,1-9.5-.46,3,3,0,0,1-2.49-2.84c-.27-2.66-.75-5.29-1.16-8.06,9,0,18.22.49,26.12-5.28C248.93,92.38,248.68,92.28,248.16,92.46Z"/><path class="cls-3" d="M230.41,122.24c-8.72-1.6-16.09-5.46-22-13a40.32,40.32,0,0,0,11.51.61c4.55-.33,7.53,2.67,10.23,5.76,2,2.31,3.91,4.65,7.06,5.4,1.5.36.56,1.1.25,1.66-3.2,5.58-11.14,7.7-16.81,4.58-1-.53-2.29-2.16-3-.89s1.26,1.91,2.31,2.57c.64.4,1.33.7,2.26,1.18a11.61,11.61,0,0,1-9.47.63c-4.65-1.47-8-4.6-11.13-8.19-.79-.92-.41-1.48.15-2.22a27.65,27.65,0,0,0,5.09-9.54c5.54,6.6,12.08,10.94,20.5,12C229.68,123.06,229.81,123,230.41,122.24Z"/><path class="cls-3" d="M143.7,63.36a74.29,74.29,0,0,0-14,9.4.38.38,0,0,0,.08.6.31.31,0,0,0,.43-.09c5.09-2.84,9.7-6.53,15.74-9.12a36.24,36.24,0,0,0-3.53,8.93,2.73,2.73,0,0,1-.78,1.29c-6.09,5.47-13.32,7.82-21.42,7.78-1.16,0-1.45-.41-1.43-1.52.14-7.61,7.52-17.28,14.72-19.09,1.92-.48,3.64.89,5.54.89,1.14.4,2.31.08,3.45.2C143,62.69,143.77,62.35,143.7,63.36Z"/><path class="cls-3" d="M188,116.41c1.39,6.74,2.76,12.7,7.16,17.42a95.72,95.72,0,0,1-4.78-18.06c2.76,1.74,5.14,3.22,7.5,4.72a2.5,2.5,0,0,1,1,2,51.38,51.38,0,0,1,.39,8,10.58,10.58,0,0,0,1.52,6.21c1,1.49.17,1.75-1,1.89-4.3.5-11.06-.18-13.73-5.65-.24-.48-.44-1.37-1.19-1.05s-.47,1.19-.23,1.81c.36.95.8,1.87,1.28,2.95-2,.35-3.22-.79-4.22-2.09-2.26-2.93-2.69-6.49-3.29-10-.2-1.17.76-1.47,1.49-1.85C182.78,121.22,185.67,119.68,188,116.41Z"/><path class="cls-3" d="M153.85,77.07c-3.92,4.19-8.39,7.41-12.85,10.68,6.92-2.43,12.52-6.94,18.15-11.82-.22,2.93-.58,5.76-.53,8.61,0,.68-.6.74-1.12.79-3.5.37-6.13,2.24-8.89,4.33-4.44,3.37-9.76,5.1-15.24,6.23-1,.22-1.2-.24-1.35-1a8.59,8.59,0,0,1,.08-3.35,24.53,24.53,0,0,1,8.66-14c.57-.49,1.16-1.18,2-1A35,35,0,0,0,153.85,77.07Z"/><path class="cls-3" d="M105.66,92.47c6.06-13.66,9.35-18.88,14.15-22a36,36,0,0,0-3.23,11.91c0,.41-.62.8-1,1.16a20.5,20.5,0,0,0-5.24,9.4c-1.15,4.52-4.2,7.64-7.68,10.47-1.09.88-1.45.28-1.85-.63-1.56-3.53-1.59-7.26-1.17-11A59.62,59.62,0,0,1,101.13,85c1.36-5.84,4.41-9.73,11-9.19-3,4.92-5.88,10.1-6.92,16.08a17,17,0,0,0-.26,2,5.43,5.43,0,0,0-.63,1.88A5.48,5.48,0,0,1,105,94,1.71,1.71,0,0,1,105.66,92.47Z"/><path class="cls-4" d="M155,35.55c-7.19-1.95-13.91-.09-20.59,2.16-4.75,1.6-9.39,3.57-14.3,4.6-3.79.8-7.59.89-11.16-1-2.94-1.54-4.08-4-3.7-7.6.33-3.2,1.79-4.93,5.26-5.93a6.69,6.69,0,0,0,2.9,6.94c2.52,1.76,5.34,1.65,8.24,1.33,6.9-.75,13.45-3.25,20.32-4.08A16.46,16.46,0,0,1,155,35.55Z"/><path class="cls-3" d="M129,83.21c-4.39,4.09-8.33,8.1-10.91,13.23,4.89-4.69,9.32-9.86,14.68-13.62-1.51,12.25-10.47,18.09-20.53,23.22-1.64-7.51-.84-14.28,4.06-20.25a4,4,0,0,1,3.56-1.66A48.48,48.48,0,0,0,129,83.21Z"/><path class="cls-3" d="M174,60.85c3.39-2.61,5.73-6.11,8-9.85.93,3.18,1.33,5.89-.66,8.76-2.93,4.24-6.18,7.93-11.33,9.33s-5.55.9-4.77-4.3c.61-4,1.41-8,3.75-11.46.43-.64.95-1.62,1.51-1.68,4.39-.5,7.17-4,11.28-5.79-1.53,5.94-5.14,10.38-8.62,14.91C173.34,61.45,173.68,60.86,174,60.85Z"/><path class="cls-3" d="M163.4,56.67,152.25,67.3A25.08,25.08,0,0,0,158.77,63c1.86-1.49,3.62-3.1,5.73-4.93A47,47,0,0,0,163,69.5a2.06,2.06,0,0,1-1.09,1.88c-4.87,3.36-10.27,4.28-16,3.66-1.29-.13-1.74-.51-1.41-2,1.47-6.44,4.81-11.14,11.32-13.33a74.46,74.46,0,0,0,7.44-3.44Z"/><path class="cls-3" d="M168.73,128.3c-.23-4.93-.32-9.83,1.21-15.1a17.23,17.23,0,0,0,5.29,9.5,1.78,1.78,0,0,1,.39,2.51c-.63,1.14-1.2,2.3-1.84,3.43-1.4,2.41-2.66,4.87-2.58,7.76.05,1.44-.56,1.4-1.53.77a12.43,12.43,0,0,1-4.16-4.54c-.45-.83-.8-1.72-1.24-2.57s-.56-2.15-1.67-2-.2,1.56-1.11,2.48c-2.64-1.77-3.6-4.54-4.18-7.45-.71-3.55-.59-3.69,2.86-4.49a30.17,30.17,0,0,0,6.83-2.88c-.46,4.77-.38,9.31,1.21,13.7C169.25,129.43,168.92,128.83,168.73,128.3Z"/><path class="cls-3" d="M129.38,54.78a2,2,0,0,1,2,.19,11.07,11.07,0,0,0,7.12.37,24.54,24.54,0,0,0,4-1.19c7.31-3.13,14.74-4.58,22.48-1.63A41.86,41.86,0,0,1,146,60.32a22.33,22.33,0,0,1-11-.89A9.91,9.91,0,0,1,129.38,54.78Z"/><path class="cls-3" d="M157,30.11c-3.12-1.94-6.5-.75-8.9-3.76-2.25-2.81-5.72-2.67-8.52-.26-1.18,1-1.47.54-2-.47-2.49-4.81-.57-10,4.59-11.41,7.49-2,8.5-1.34,11.33,5.38C154.78,22.74,155.63,26.09,157,30.11Z"/><path class="cls-3" d="M98.59,70.27c4.75,1.41,8.45-.84,12.08-3.27,3-2,6-4.15,9-6.19A33.06,33.06,0,0,1,123,58.87c4.48-2.28,4.53-2.26,8.5,1.23-6.75,3.35-12.12,8.55-18.39,12.44A14.51,14.51,0,0,1,104,74.83C101,74.54,99.32,73.2,98.59,70.27Z"/><path class="cls-3" d="M55.68,40.41a3.62,3.62,0,0,1,3,1.91,6.15,6.15,0,0,0,5,2.85,5.08,5.08,0,0,1,1.52.32c1.26.56,2.9.9,3.62,1.89s-1,2-1.39,3.17a36,36,0,0,0-1.58,4.1c-.37,1.69-1.07,2.34-2.6,1.4a9.54,9.54,0,0,0-9-.95,2.52,2.52,0,0,1-3.05-.79c-1-1.24,0-2.08.5-3a10.45,10.45,0,0,0,1.23-7.74C52.4,41.49,53.48,40.33,55.68,40.41Z"/><path class="cls-3" d="M188.49,37.77c1.45,4.63,0,9.42.61,14.22,2.28-7.59,2.18-14.9-1.57-21.93,2.22-.72,2.24-.73,3.09.93a26.29,26.29,0,0,1,1.7,20.15c-.87,3-2,5.89-2.4,9-.21,1.72-1,.91-1.69.36-2.61-2.22-3.62-5.22-3.91-8.49-.15-1.72,0-3.47-.11-5.19C184,43.1,184.46,39.73,188.49,37.77Z"/><path class="cls-3" d="M73.46,30.65a4.12,4.12,0,0,0,1.65,4.69,7,7,0,0,1,1.51,1.77c1.64,2.61,1.5,3.18-1,4.9-.5.34-1,.71-1.46,1.08-2.75,2.13-4.38,1.94-5.74-1.37-1.06-2.59-2.38-4.13-5.28-4.44-1.55-.16-2.45-1.54-2.55-3.19-.11-1.92,1.57-1.52,2.57-1.84a9.57,9.57,0,0,0,5.77-4.51c.51-.91.64-2.33,2.27-1.95,1.41.34,1.86,1.46,2.09,2.69A20.17,20.17,0,0,1,73.46,30.65Z"/><path class="cls-5" d="M88.18,104.48c4.24-3.73,3.82-8.92,4.57-13.68.69-4.32,1.6-8.51,4.15-12.15a15.15,15.15,0,0,1,2.24-2.49c1-.91,2,0,2.88.36,1.14.58,0,1.34-.26,1.89a38.88,38.88,0,0,0-4.31,18.23C97.51,100.87,92.56,105.1,88.18,104.48Z"/><path class="cls-5" d="M116.89,143.1c.24-3.47-1.34-5.68-3.3-7.72a59.07,59.07,0,0,1-5.69-7c-.91-1.28-.61-1.83.65-2.56,6.45-3.72,6.43-3.75,9.39,3.08a22.58,22.58,0,0,1,2.33,8.15A6,6,0,0,1,116.89,143.1Z"/><path class="cls-5" d="M180.06,71.69a36.28,36.28,0,0,0,6.47-9.77c1.26.71.78,1.57.47,2.41a33.55,33.55,0,0,1-4.17,7.44c-2.43,3.53-5.51,6.72-5.66,11.77-3.51-2.94-3.86-6.34-3.15-9.91a10.69,10.69,0,0,1,3.9-6.79c2.69-2,4.38-5,6.19-8,1.48,1.55.63,2.94.13,4.24-1.11,2.93-3.34,5.23-4.7,8-.19.32-.09.72-.24,1C179.61,72.1,179.78,71.82,180.06,71.69Z"/><path class="cls-5" d="M170.93,71.13c-2.43,3.11-4.76,5.55-6.31,8.54l.47.46L171.62,73c.16,2.4.3,4.39.41,6.39,0,.7-.54,1-1,1.41a21.75,21.75,0,0,1-9,3.82c-1.18.25-1.58-.29-1.52-1.39A24.82,24.82,0,0,1,162,75.39C163.53,71.39,167.09,71.65,170.93,71.13Z"/><path class="cls-6" d="M39.5,52.58c-1.52-3.51-.27-6.11,1.89-8.45s4.87-2.64,7.83-1.85a2.38,2.38,0,0,1,1.87,2.17A8.56,8.56,0,0,1,50.61,49C50,50.6,49.4,51.55,47.3,50.42,44.35,48.83,41.64,49.88,39.5,52.58Z"/><path class="cls-6" d="M54.2,24.15c3.48-4.81,8.71-5,12.4-.8a2.84,2.84,0,0,1,.21,4.09,8.66,8.66,0,0,1-3.67,2.74c-1.56.66-2.38.48-3-1.32C59.2,26.3,58,25.57,54.2,24.15Z"/><path class="cls-6" d="M45.58,166.63c-3.16-1.23-4.38-3-4.45-6.31-.06-3.13,1.67-6.28,4.17-7.19,2.31-.83,3.5.93,4.55,2.48,1.76,2.61,1.43,3.73-1.35,4.86S45.11,163.87,45.58,166.63Z"/><path class="cls-5" d="M98.25,101.93c1.82,2.6,2.41,6.08,3.25,9.47a1.35,1.35,0,0,1-.69,1.73c-.53.29-1,.62-1.56.93-4.13,2.54-4.14,2.54-5.44-2.3-.26-1-.38-2-.57-3.05-.33-1.74-.14-3.17,1.66-4.16A23.34,23.34,0,0,0,98.25,101.93Z"/><path class="cls-7" d="M72.81,169.61c1.8-2.39,2.44-4.71,1.06-7.21-.48-.86.09-1.28.54-1.78,1.69-1.86,5-2.73,6.6-1.44,2,1.59,1.68,3.87,1,6C81,168.51,77.3,170.3,72.81,169.61Z"/><path class="cls-6" d="M52,75.55c-4.3,0-7.57-3.24-7.25-6.93.11-1.2.25-2.1,1.77-1a5.29,5.29,0,0,0,6.28.32c.92-.58,1.42-.19,2,.44a4.47,4.47,0,0,1,.32.41c1,1.49,2.69,3.19,2,4.73C56.24,75.31,53.83,75.48,52,75.55Z"/><path class="cls-7" d="M77,257.21c-3.29-1.4-4.27-3.39-3.51-6.69s3.66-6,6.16-5.75,2.67,2.34,3.06,4.22c.35,1.7-.52,2.17-2,2.5C77.76,252.11,77.14,253.2,77,257.21Z"/><path class="cls-7" d="M36.13,131.94a8.7,8.7,0,0,1,8.82-8.6c1.12,0,2,.16,1.1,1.58a2.29,2.29,0,0,0-.1.23c-1.2,2-.68,5.21-2.24,6.38s-4.4.77-6.37,2.25C36.46,134.44,36.12,133.94,36.13,131.94Z"/><path class="cls-8" d="M97.22,217.56c3.3-2.41,5.48-5,6.5-8.4a1,1,0,0,1,1.17-.77c1.85.12,3.53-.61,5.25-1.14C110.22,213.05,104.18,218.16,97.22,217.56Z"/><path class="cls-9" d="M71.27,250.89c-2.45-2.42-2-4.91-1-7.37a7.91,7.91,0,0,1,6.24-4.86c1.69-.3,1.95,1.57,2.48,2.8s-.54,1.43-1.27,1.68C74.15,244.4,72.11,247,71.27,250.89Z"/><path class="cls-10" d="M79.2,26.76c3.34-3.08,7.19-3,9.91.08a1.82,1.82,0,0,1,.13,2.71,6.38,6.38,0,0,1-3.24,2c-1.83.63-2.12-.77-2.76-1.85S81.81,28,79.2,26.76Z"/><path class="cls-11" d="M158.44,40.23c-3.53.37-6.75.7-10,1.05a5.81,5.81,0,0,1-3-.38,2.17,2.17,0,0,1-1.36-2.28A1.61,1.61,0,0,1,145.47,37C150.08,36.52,154.48,37,158.44,40.23Z"/><path class="cls-7" d="M219.87,258.65c-3.28-.26-5.61-3.52-5.15-7.43.15-1.25-.15-3.14,1.61-3.35,2-.23,3.28,1.22,4.13,2.95a1.6,1.6,0,0,1,0,1.46C218.87,255.83,218.88,255.84,219.87,258.65Z"/><path class="cls-12" d="M159.92,30.28A22.39,22.39,0,0,1,156.7,23c-1.14-3.62-2.2-7.27-4.93-10.11-.28-.28-.77-.62-.35-1a1.7,1.7,0,0,1,1.14-.42,3.17,3.17,0,0,1,2.68,1.73c2.43,3.5,3.35,7.51,4,11.6C159.56,26.61,159.71,28.45,159.92,30.28Z"/><path class="cls-13" d="M68.15,243.24a5.11,5.11,0,0,1,0-6.6,8,8,0,0,1,6.41-3.38c1.3-.08,1.07,1.35,1.43,2.15s-.09,1.27-.87,1.54A11.23,11.23,0,0,0,68.15,243.24Z"/><path class="cls-14" d="M213.24,256.08c-3.05-1.24-4.68-7.69-2.65-10,.66-.75,1.29-.29,1.84,0s1.47.64,1,1.72a9.83,9.83,0,0,0-.72,4.29C212.86,253.36,213.07,254.69,213.24,256.08Z"/><path class="cls-15" d="M208.29,253.58a4.29,4.29,0,0,1-3.22-4.23,7.06,7.06,0,0,1,1.83-5.71c.38-.39.79-.08,1.17.1a1.08,1.08,0,0,1,.67,1.47C207.72,247.86,207.86,250.6,208.29,253.58Z"/><path class="cls-16" d="M139.22,30.28c1-2.27,1.91-3.91,4.17-3.92,2.41,0,3.88,1.44,5.27,3.78A48,48,0,0,0,139.22,30.28Z"/><path class="cls-17" d="M103.73,136.12a17,17,0,0,0-.84-6.33c-.45-1.12.64-1.2,1.22-1.6.75-.54,1.17-.17,1.68.46C108.06,131.47,107.35,134.35,103.73,136.12Z"/><path class="cls-18" d="M109.3,100.13a40.22,40.22,0,0,0,.76,5.24c.49,1.78-.31,2.88-1.75,3s-.81-1.51-1-2.36C106.64,103.74,106.76,101.63,109.3,100.13Z"/><path class="cls-19" d="M105,104.48c.28,1.64.54,3.13.78,4.63.21,1.3-.85,1.68-1.7,1.89-1.05.25-.8-.87-1-1.43C102.29,107.46,102.24,105.56,105,104.48Z"/><path class="cls-20" d="M171.32,84.27c-.31.4-.62.81-.95,1.19-2.26,2.69-2.26,2.69-5.49.63l5.76-2.49C171.22,83.46,171.45,83.68,171.32,84.27Z"/><path class="cls-21" d="M160.62,37.8c-2.94-3.3-5.82-5.64-10-6.81C154.44,30.28,160,34,160.62,37.8Z"/><path class="cls-22" d="M143.7,63.36c-1.39-1.1-3.26.17-4.66-.93h5.83C144.67,63.18,144.18,63.27,143.7,63.36Z"/><path class="cls-23" d="M230.41,122.24c.44-.06.94-.08,1.12.39s-.29.53-.62.52c-1.18,0-2.42.32-3.53-.4C228.36,122.42,229.5,123,230.41,122.24Z"/><path class="cls-24" d="M171.32,84.27l-.68-.67a5.5,5.5,0,0,1,2.61-1.6A4.37,4.37,0,0,1,171.32,84.27Z"/><path class="cls-25" d="M180.06,71.69l-1.65,2.43a3.7,3.7,0,0,1,1.13-3Z"/><path class="cls-26" d="M130.2,73.27a2.87,2.87,0,0,1-1.73,1c0-1,.63-1.23,1.22-1.5Z"/><path class="cls-27" d="M174,60.85a2.85,2.85,0,0,1-1.69,1.38c-.27-.84.43-1.08.86-1.46Z"/><path class="cls-28" d="M208.08,79.41c.57-.43,1.3-.69,1.8-.21.27.26-.37.58-.77.69Z"/><path class="cls-29" d="M105.66,92.47,105.21,94c-.14.26-.32.28-.52.06a3.38,3.38,0,0,1,.53-2.15Z"/><path class="cls-30" d="M248.16,92.46c.42-.43,1-1,1.45-.4.31.44-.45.75-.92.92Z"/><path class="cls-31" d="M168.73,128.3c.36.62.77,1.34.12,1.89-.27.23-.58-.39-.64-.8Z"/><path class="cls-32" d="M239.83,190.16l.53.56-.67,1.36A1.59,1.59,0,0,1,239.83,190.16Z"/><path class="cls-33" d="M180.68,196.55a11.15,11.15,0,0,1,7.25,1.91c.82.56,1.56,1.45.83,2.38s-1.52,0-2-.46C185.12,198.7,182.24,199.1,180.68,196.55Z"/><path class="cls-34" d="M180.22,185.7c1.72.37,3.33.75,4.53,2,.54.55,1.17,1.26.49,2s-1.35.19-1.84-.27a6.61,6.61,0,0,0-3.6-1.87c-.56-.08-1.36-.34-1.2-1.07S179.68,185.82,180.22,185.7Z"/><path class="cls-35" d="M186.78,194.25c0,.85-.61.86-1,.55a20.27,20.27,0,0,0-5.56-2.59c-.82-.31-.66-.9,0-1.3C182,189.92,186.71,192.35,186.78,194.25Z"/><path class="cls-35" d="M184.32,184c.11,1-.48,1.24-1.07.85a20.93,20.93,0,0,0-4.7-2c-.59-.21-1.14-.89-.3-1.31a4.37,4.37,0,0,1,3.72.31A3.53,3.53,0,0,1,184.32,184Z"/><path class="cls-35" d="M182.81,179.54a1.91,1.91,0,0,1-.38.56c-.64.47-4.81-1.41-4.84-2.16,0-.16,0-.4.11-.48a2.59,2.59,0,0,1,2.67,0C181.37,177.86,182.49,178.2,182.81,179.54Z"/><path class="cls-36" d="M137.48,108.65a13.62,13.62,0,0,1-1,4.63c-.29.66-.8,1.31-1.55,1.08-1-.31-.33-1.1-.19-1.68a14.47,14.47,0,0,0,.62-5.1c-.2-1.72-.78-3.09-3-2.41-.75.24-1.44.25-1.61-.65s.48-1.24,1.13-1.53C134.86,101.65,137.52,104.18,137.48,108.65Z"/><path class="cls-37" d="M214.75,86.34c-1.57,2.27-3.71,2.66-6,2.63-.55,0-1.06-.19-1.1-.84,0-.5.32-.77.8-.84Z"/><path class="cls-37" d="M216.09,80.44a8.26,8.26,0,0,1-5.81,3.77c-.61.11-1.29.06-1.44-.71s.45-.85.95-1Z"/><path class="cls-38" d="M211.53,91.94c-1.69,1.75-3.6,1.75-5.55,1.42-.53-.09-1-.41-.93-1s.59-.8,1.13-.77C208,91.66,209.75,91.81,211.53,91.94Z"/><path class="cls-38" d="M204.91,97.79c-1.33-.17-2.73-.28-3.73-1.39a.69.69,0,0,1,.07-.68c1.28-.84,2.44.12,3.64.33.78.14,2,.08,1.84,1.23C206.62,98.09,205.58,97.7,204.91,97.79Z"/><path class="cls-39" d="M179.64,101.7c-.13.66.27,1.66-.56,1.57-1.26-.14-1.33-1.43-1.43-2.43-.06-.65.13-1.66,1-1.44C179.83,99.68,179.32,101,179.64,101.7Z"/><path class="cls-40" d="M193.29,103.68c-2.26-.24-3.12-1.25-3.35-2.84-.07-.44.25-1,.67-.82C192,100.7,192.39,102.13,193.29,103.68Z"/><path class="cls-29" d="M181.62,101.38c0-.7-.06-1.77.83-1.56,1.39.32.77,1.87,1.15,2.83.18.44,0,1.29-.56,1.15C181.86,103.52,181.8,102.34,181.62,101.38Z"/><path class="cls-41" d="M194.44,99.29a5.87,5.87,0,0,1,2.69,2.46c.17.33-.2.64-.58.58a3.22,3.22,0,0,1-2.86-2.16C193.54,99.7,193.85,99.39,194.44,99.29Z"/><path class="cls-35" d="M200.07,100.32c-1.07-.41-2.51-.48-2.78-2.06-.09-.56.51-.7.9-.52,1.12.51,2.59.67,3.08,2C201.52,100.35,200.64,100.27,200.07,100.32Z"/><path class="cls-42" d="M188.11,104.27c-1.82-1-2.45-2-2.2-3.46.07-.36.45-.68.75-.49C187.92,101.12,187.84,102.43,188.11,104.27Z"/><path class="cls-38" d="M119.12,180.06c-.56-2.25-1-4.14-1.48-6-.12-.5-.24-1.05.33-1.36s.78.1,1.07.43C120.27,174.5,120.42,177.88,119.12,180.06Z"/><path class="cls-42" d="M123.12,177.33c-1.05-1.7-.49-3.4-.75-5a.6.6,0,0,1,.48-.77.89.89,0,0,1,1,.61A4.93,4.93,0,0,1,123.12,177.33Z"/><path class="cls-42" d="M128.34,173.7c-.15.72.09,1.82-.86,1.92-1.18.12-.79-1-.89-1.7a1.48,1.48,0,0,1,0-.51c.17-.92-1.43-2.49.38-2.64C128.16,170.67,128.22,172.51,128.34,173.7Z"/><path class="cls-43" d="M132.41,172.63a9.83,9.83,0,0,1-.24,1.44c-.1.29-.37.68-.62.74a.6.6,0,0,1-.71-.76c.56-1.3-1.55-2.82.22-3.84.59-.34,1,.7,1.21,1.34A6.6,6.6,0,0,1,132.41,172.63Z"/><path class="cls-39" d="M135.73,173.87a1.29,1.29,0,0,1-.77-1.47c.07-.88-.44-1.89.46-2.6a.66.66,0,0,1,.66.06c.86.86.48,1.89.27,2.86A5.71,5.71,0,0,1,135.73,173.87Z"/><path class="cls-44" d="M139.82,169.41a1.57,1.57,0,0,1,1.08,1.81c-.06.69,0,1.91-1,1.77-1.3-.19-.28-1.43-.54-2.16C139.18,170.32,138.88,169.63,139.82,169.41Z"/><path class="cls-45" d="M162,24.33c0-.48.19-.85.72-.91.83-.1,1.46-.27,1.41-1.39s-.51-1.3-1.36-1.51a2.78,2.78,0,0,1-2.2-3.1,2.66,2.66,0,0,1,2.53-2.52c.48-.08,1.06-.41,1.36.24s-.14.95-.64,1.2c-.7.35-1.54.69-1.14,1.69s1.27.78,2,.83c3.12.23,6.22.48,8.88,2.37a10.76,10.76,0,0,1,1.17,1.21c-3.35-.14-5.76,1.73-8.61,2C164.69,25.44,163.34,24.66,162,24.33Z"/><path class="cls-46" d="M198,14.84c-1.74,4.79-8.9,7.38-12.65,5.1a22.19,22.19,0,0,0-4.95-2.75c-.62-.19-1.21-.54-1-1.25a1.27,1.27,0,0,1,1.5-.77,5.94,5.94,0,0,1,3,1.33c3.63,3,7.24,2.59,10.93.13C195.71,16.08,196.62,15.63,198,14.84Z"/><path class="cls-47" d="M166.13,24.83c.3.18.73.59.52.75-3.15,2.33.06,2.26,1.1,3a9.06,9.06,0,0,1,.75.81,4.07,4.07,0,0,1-4.28-1c-1.18-1-1-2.26-.15-3.45A2.4,2.4,0,0,1,166.13,24.83Z"/><path class="cls-48" d="M166.13,24.83l-2.06.12c-.75-.05-1.59.25-2.1-.62l4.14.15C166.12,24.6,166.13,24.71,166.13,24.83Z"/><path class="cls-49" d="M104.69,94.08l.52-.06c-.19.52-.37,1-.57,1.63C103.93,95,104.23,94.54,104.69,94.08Z"/><path class="cls-34" d="M148.59,19.84a3.9,3.9,0,0,1,1.07.1c.67.2,1.38.61,1.18,1.42s-1,.41-1.51.37c-1.37-.09-2.73-.22-4.08-.44a1.72,1.72,0,0,1-1.55-1.77,1.84,1.84,0,0,1,1-1.9,1.39,1.39,0,0,1,1.46,0c.6.41.21.71,0,1.22C145.82,19.89,146,20,148.59,19.84Z"/><path class="cls-50" d="M170.47,21.54c-1.1.77-2.18,1.56-3.49,1-.44-.18-.47-1.15-.16-1.38C168,20.31,169.24,21.23,170.47,21.54Z"/></svg>