<svg id="Layer_1" data-name="Layer 1" xmlns="http://www.w3.org/2000/svg" viewBox="0 0 300 300"><defs><style>.cls-1{fill:#1c1c1b;}.cls-2{fill:#c5d9d9;}.cls-3{fill:#006b42;}.cls-4{fill:#1e1e1d;}.cls-5{fill:#1d2320;}.cls-6{fill:#055e3b;}.cls-7{fill:#f4cf94;}.cls-8{fill:#1c1f1d;}.cls-9{fill:#1d1f1d;}.cls-10{fill:#1d1e1d;}.cls-11{fill:#1d201e;}.cls-12{fill:#1e211f;}.cls-13{fill:#1d211f;}.cls-14{fill:#272623;}.cls-15{fill:#262522;}.cls-16{fill:#1e2220;}.cls-17{fill:#1e2320;}.cls-18{fill:#1f2321;}.cls-19{fill:#1f2622;}.cls-20{fill:#202623;}.cls-21{fill:#292926;}.cls-22{fill:#2e2e2b;}.cls-23{fill:#2f2e2a;}.cls-24{fill:#272724;}.cls-25{fill:#292927;}.cls-26{fill:#35322d;}.cls-27{fill:#2a2926;}.cls-28{fill:#2a2a27;}.cls-29{fill:#34332f;}.cls-30{fill:#202422;}.cls-31{fill:#3c3932;}.cls-32{fill:#383731;}.cls-33{fill:#aabbba;}.cls-34{fill:#2f2f2c;}.cls-35{fill:#b0c1c1;}.cls-36{fill:#1f1f1e;}.cls-37{fill:#1c2a24;}.cls-38{fill:#f3ce94;}.cls-39{fill:#bed1d1;}.cls-40{fill:#2b2a27;}.cls-41{fill:#302f2b;}.cls-42{fill:#adbebd;}.cls-43{fill:#33322e;}.cls-44{fill:#b7caca;}.cls-45{fill:#8b9898;}.cls-46{fill:#3a3730;}.cls-47{fill:#3b3a34;}.cls-48{fill:#34322d;}.cls-49{fill:#2a2823;}.cls-50{fill:#d6b683;}.cls-51{fill:#d4b582;}.cls-52{fill:#c7aa7b;}.cls-53{fill:#d7b784;}.cls-54{fill:#37322a;}.cls-55{fill:#564c3c;}.cls-56{fill:#423c31;}.cls-57{fill:#2a2824;}.cls-58{fill:#302c26;}.cls-59{fill:#292722;}.cls-60{fill:#353129;}.cls-61{fill:#3a352c;}.cls-62{fill:#4c4436;}.cls-63{fill:#514839;}.cls-64{fill:#433d31;}.cls-65{fill:#eeca91;}.cls-66{fill:#e3c18b;}.cls-67{fill:#262420;}.cls-68{fill:#d2b381;}.cls-69{fill:#3d3931;}.cls-70{fill:#262521;}.cls-71{fill:#b9cccc;}.cls-72{fill:#998461;}.cls-73{fill:#72634b;}.cls-74{fill:#d0b180;}.cls-75{fill:#4e4537;}.cls-76{fill:#353735;}.cls-77{fill:#bfa376;}.cls-78{fill:#3a3833;}.cls-79{fill:#685b46;}.cls-80{fill:#322e27;}.cls-81{fill:#c4d8d8;}.cls-82{fill:#e1c08a;}.cls-83{fill:#403a30;}.cls-84{fill:#292622;}</style></defs><path class="cls-1" d="M139.42,299c-13.19-.73-25.72-4.17-37.89-9.16a123.65,123.65,0,0,1-46.85-34.09C39.45,238.18,30,217.65,25.94,194.72a62.63,62.63,0,0,1-1.46-12.13c-.66-1.09-.2-2.29-.34-3.42-.18-1.9.39-3.84-.35-5.71V.22H275.4c.63,1.09.34,2.29.34,3.43q0,85.31,0,170.6c0,1.15.27,2.34-.31,3.44-1.31,27.53-10.16,52.27-27.27,74-18.26,23.15-41.93,37.77-70.43,44.74A88.22,88.22,0,0,1,161.18,299c-1.32.65-2.72.18-4.07.32-1.92.18-3.88-.38-5.76.35h-2.81c-1.86-.74-3.8-.17-5.69-.35C141.71,299.22,140.51,299.69,139.42,299Z"/><path class="cls-2" d="M80.61,272.23A2.67,2.67,0,0,0,78.24,271c-4.08.6-6.41-2.24-9-4.5C44,244,30.2,215.82,27.16,182.21c-.52-5.72-.56-11.43-.56-17.16q0-79.07-.08-158.14c0-3.18.78-4,4-4q119.31.13,238.61,0c3.29,0,4,.94,4,4.05q-.14,80.47-.05,161c.05,31.71-8.83,60.28-29.27,84.87-5.09,6.13-10.56,12-17.1,16.51-2.9,2-6.64,2.62-10.76,2-4.74-.68-9.73-.08-14.61-.15-1,0-1.69,1.25-2.85,1.13a2.22,2.22,0,0,1-1.73-2.52,32.55,32.55,0,0,1,1.8-4.89c.84-3.24,2.49-6.16,3.59-9.3,1-2.84.48-5.19-2.14-6.9-3.27-2.29-5.6-6-10-6.59a4.15,4.15,0,0,1-2.39-4.76,16.65,16.65,0,0,0,.62-5.06,24.79,24.79,0,0,1,.54-6.59c.84-3.21.39-6.45,0-9.68s.7-4,3.8-3.23c1.91.49,3.76,1.2,5.66,1.76a13.45,13.45,0,0,0,8.9-.18c1.28-.5,2.85-1.12,2.45-2.9-.36-1.58-1.75-1.92-3.3-1.94a58.8,58.8,0,0,1-8.69-.28,35.64,35.64,0,0,1-8.62-2.67,48.56,48.56,0,0,0-26-3.56c-.46.06-.91.17-1.38.21-5.65.47-6.45-.12-6.29-5.73.34-11.57-.63-23.1-.73-34.65,0-.94,0-1.87,0-2.81.08-1.23-.33-2.82,1.21-3.33,1.35-.45,1.89,1.05,2.73,1.76,2.21,3,4.07,6.31,7.4,8.29.89.53,1.9,1.92,3,.52.82-1-.15-2-.89-2.71a24.76,24.76,0,0,1-3-3.87,53.05,53.05,0,0,1-7.86-23.91c-.48-5.71-.32-11.37-.5-17.06A5.45,5.45,0,0,1,157,117a2.2,2.2,0,0,1,2.29-1.28c.93.11,1.34.82,1.47,1.7s.06,1.86.21,2.78c.33,2.08,1.24,3,3.59,2.51,3.09-.7,4.09.55,2.91,3.48-.62,1.54-1,2.89.69,3.94a3.13,3.13,0,0,1,2.52,3.6,34.77,34.77,0,0,0-.11,3.81c.09,1.87.92,2.82,3,1.76,3.89-2,4.9-1.47,5.53,2.86.24,1.62.85,3.08,2.58,1.78,2.08-1.57,3-.73,4.1,1,.44.73.82,1.82,2.07,1.14.48-.87,0-1.6-.33-2.32a16.25,16.25,0,0,1-.91-2.62c-.33-1.07-.15-2.92.52-2.69,3.52,1.2,3.8-4.56,7.17-3.13a2.17,2.17,0,0,1,1.27,2.6c-.28,1.48-.62,2.94-1,4.39-.48,1.67-.33,3,1.87,3.22,1.67.14,2.05,1.64,2.85,2.76,1.33,1.86,3.12,1.74,3.5-.34.43-2.35,1.25-3.24,3.68-2.65,1.2.3,1.83-.74,2.17-1.82a2.16,2.16,0,0,1,1.4-1.46,2.56,2.56,0,0,1,1,0,9.11,9.11,0,0,1,3.82,6,17.33,17.33,0,0,0,.59,2.36c.4,1.12,1.06,1.82,2.33,1.63s1.62-1,1.77-2.19c.38-3.24,1-3.52,3.93-2.09a5.86,5.86,0,0,0,2.25.87,2.68,2.68,0,0,0,2.55-1.52c.59-1.09-.08-1.74-.86-2.34-1.33-1-2.23-2.07-2-4.07s-1.35-2.81-3.12-3.13a25.37,25.37,0,0,0-4.18-.15,3.55,3.55,0,0,1-3.39-2.54,2.28,2.28,0,0,1,.2-2.61,1.78,1.78,0,0,1,2.52-.22c1.1.71,2.14,1,3.1-.18,1.46-1.75,2.91-1.42,4.53-.15a16.56,16.56,0,0,0,3.85,2.37c1,.42,2.16.59,2.62-.76s-.86-1.36-1.64-1.73a14.79,14.79,0,0,1-1.89-.89c-.85-1-1.8-2-.66-3.34a3,3,0,0,1,3.5-.87,14.93,14.93,0,0,0,7.18,1c.7-.11,1.46-.26,1.7-1s-.43-1.26-1-1.62c-1.29-.79-2.78-1.44-2.3-3.42,1.43-1.9,3.56-3,5.33-4.45.9-.75,1.89-1.73.8-2.94-.92-1-2-.36-2.76.37-1.72,1.55-3.46,2.2-5.7,1-1.17-.65-2.49-.1-3.75.26-15.73,4.53-31.26,4.3-46.55-2-4.48-1.83-8.34-4.65-12.35-7.24-3-2.72-6-5.32-8.49-8.59a30.93,30.93,0,0,1-4.12-6.8c-.44-1-.56-2.12.6-2.75a2,2,0,0,1,2.91,1c.93,2,2.79,2.66,4.5,3.79,2.48,1.63,4.51-.91,6.64.16,1.44,1.61,1.43,3.59,1.49,5.59.08,2.26.83,3.95,3.62,3.42,1.54-.3,2.64.53,3.76,1.44s2,.94,2.45-.84c.76-2.94,5.59-4,7.87-1.87a7.81,7.81,0,0,1,.81,1.14c.55.75,1.1,1.77,2.18,1.34,1.28-.5.57-1.59.29-2.41-.5-1.47-.65-2.85,1-3.56,1.41-.6,2,.48,2.7,1.53,1.08,1.66,2.41,2.25,4.45,1.19,2.48-1.3,3.57-.52,3.73,2.37.11,2.09.06,4.2,0,6.3s1,3.06,2.77,2,3.15-.67,4.73.46c1.15.81,2.79.83,2.77-1.07,0-2.12,3.61-2.74,2-5.06-1-1.51-3-2.13-4.42-3.35a9.29,9.29,0,0,1-1.87-2c-.67-1-2-2-.86-3.37s2.1-.26,3.16.13c1.61.58,3,.76,3.24-1.61s2.05-2.53,3.9-2.29c1.24.16,2.7.91,3.49-.52.95-1.69-.83-2-1.76-2.79-1.7-1.42-1-2.63.58-3.56,1.91-1.12,4-2,5.9-3.06.86-.48,1.69-1,1.17-2.18-.45-1-1.39-.71-2.16-.48-1.12.33-2.22.72-3.33,1.08-1.82.57-3.47.94-5-1-1.2-1.56-3-1.65-4.64-.26-2.27,1.94-4.93,2.18-7.82,2.22-8.89.12-17.67-.32-26.3-2.76A43.07,43.07,0,0,1,162.73,66.7c-1.18-1.29-2.19-2.72-.43-4.18,1.53-1.27,3-.93,4.14.78,1.88,2.79,5.63,2.89,7.93,5.32.52.55,3.76-.87,5.49-1.92,2.91-1.77,3.44-1.57,4.1,2,.43,2.3,1.08,4.43,4.18,3.95a1.39,1.39,0,0,1,.68.14c1.24.47,2.44,2,3.81.85s1.23-2.88,2.14-4.26c.64-1-.54-1.92-1.33-2.57-1.14-.93-1.84-2-.69-3.24a2.54,2.54,0,0,1,3.76-.26c1.28,1,2.48,2.15,4.18,2.44.81.14,1.68.34,2.19-.55.4-.68,0-1.31-.27-2-1.49-3.16-1.47-3.23,2.06-3.72a11.81,11.81,0,0,0,4.75-2.08,1.37,1.37,0,0,0,.7-1.49,1.45,1.45,0,0,0-1.61-1.06c-1.28,0-2.5.5-3.81.45-2.16-.08-4.39.44-5.34-2.59a2.45,2.45,0,0,0-3.6-1.15c-7.23,4.76-14.25,1.2-21.15-.7a27.23,27.23,0,0,1-14.3-9c-1.24-1.53-3.1-3-1-5,1.49-1.42,3.51-.63,5.09,1.73.76,1.13,1.34,2.78,3.14,1.91s4.89-.25,4.44-3.77a2,2,0,0,1,1.88-2.45c.57-.12,1.24-.32,1.22-1,0-.9-.88-.92-1.54-1.12a23.28,23.28,0,0,0-4.47-.72c-3.58-.32-6.59-2.23-9.73-3.73a18.64,18.64,0,0,1-7.86-14c-.09-1.12-.07-2.95-1.69-3s-2,1.61-2.27,3a8.83,8.83,0,0,1-.16,1c-1.41,3.77-4.25,7.06-3.82,11.46-2.43,1.75-4.79,3.63-7.66,4.67a8.59,8.59,0,0,1-4.3.71c-1.93,0-3.87-.06-5.79.07-.68.12-1.38.2-1.63,1,.27,1.45,2,.85,2.58,1.89a3.32,3.32,0,0,1,.65,1.61c0,1.45-.62,3.13,1.51,3.74a5,5,0,0,0,4.91-1c.45-.37.74-.92,1.27-1.19a2.32,2.32,0,0,1,2.91.3c.92.92.59,1.85-.11,2.81a24.62,24.62,0,0,1-7.39,6.81c-6.61,3.89-13.63,6.57-21.48,6.4a13,13,0,0,1-3.45-.45c-2.72-.83-5.34-2.1-7.63,1.34-.86,1.3-3.38,1.24-5.28,1.3-.92,0-2,.18-2.1,1.4-.1,1.37,1,1.72,2,1.92.46.08.93.06,1.4.1,3.63.32,4.09,1,3,4.71-.69,1.69-.13,2.26,1.5,1.5.9-.43,1.68-1.16,2.56-1.69,1-.62,2.07-1.16,3.15-.32s.78,2,.18,3.07c-1.63,3,1.63,3.59,2.67,5.2.44.68,5-2.12,5.55-3.4a11.89,11.89,0,0,0,.53-2.38c.49-2.33,3.81-4.19,6-3.39a1.48,1.48,0,0,1,1,1.93c-1.18,3.33,1.72,3.65,3.45,4.85.44.3,1.11.36,1.27,0,1.4-3.08,6.54-3.15,6.11-7.78-.12-1.36,1.16-2.26,2.62-2.31s1.49,1.06,2,2c1.61,2.88.68,4.8-1.54,7a52.53,52.53,0,0,1-10.66,8.38c-8.67,4-17.95,5.76-27.33,6.91-4.85.59-9.82,1.13-13.88-2.78a2.59,2.59,0,0,0-3.81-.18c-1.65,1.74-3.32,1.32-5.1.53-1.17-.52-2.41-.88-3.59-1.37s-2.15-.54-2.6.81a2,2,0,0,0,1.29,2.54c1.27.59,2.65.9,3.94,1.46,2.85,1.26,3.05,2.42.66,4.35-1.07.87-2,1.8-1.57,3.23.56,1.85,2.06.92,3.25.86,2.12-.09,4.24-.41,4.83,2.63.43,2.25,1.93,1.43,3.18.63.86-.56,1.5-1.65,2.68-1.44,1.91.32,2.63,1.55,1.78,3.3a10.53,10.53,0,0,1-5.8,5.26c-3.55,1.44-3.75,2.55-1.5,5.69a6.61,6.61,0,0,1,.91,2.93c.4,2.14,2.07,2.64,3.41.94,1-1.33,2-2,3.76-1.81,2,.24,3.28-.95,3.4-3.1,0-.58,0-1.16,0-1.75.11-5.68.11-5.68,5.66-5.17,1,.1,2-.58,3.11-.26a2.46,2.46,0,0,1,1.22.83c.68,1.23.68,3.65,3.14,1.8,1.53-3,4.87-2.88,7.35-4.17,1.57-.82,2.78.45,2.72,2.45-.08,2.51,1.18,2.82,3.07,1.62.79-.5,1.53-1.2,2.51-1.07,3.49.46,4.18-1.64,4.16-4.45,0-.93,0-1.86,0-2.79s.46-2.16,1-2c2.86.93,4.88-1.54,7.35-1.55a3.25,3.25,0,0,0,3.57-2.53c.58-1.7,1.82-2.49,3.54-1.73,1.91.85,1.53,2.39.76,3.84a20.66,20.66,0,0,1-3.48,4.76c-4.68,4.86-9.35,9.72-14.89,13.65-6.06,3.73-12.15,7.46-19.11,9.27-11.17,2.9-22.15,1.27-33-1.94-2.11-.63-4.06-1.46-6.35-.15-1.64.93-3-.86-4.42-1.48s-3.09-2.39-4.38-.79c-1.59,2,.89,3.26,1.83,4.71.61.92,1.81.91,2.82,1.18,2.84.76,3.56,2.92,1.77,5.21-.41.53-1.3.85-.86,1.66s1.37.82,2.18.67c2-.37,3.77-1.21,5.68-1.73,1.31-.35,2.84-1,3.78.62s-.1,2.88-1.39,3.81c-1,.78-2.4,1.48-1.59,3,.89,1.69,2.35,1,3.67.42,1.89-.84,3.63-2.08,5.59.25.93,1.11,2.16,0,2.75-1.09s.76-2.21,1.26-3.26a3.2,3.2,0,0,1,4.11-1.74c1.87.53,1.84,1.91,1.52,3.65-.46,2.43-.93,4.62-2.94,6.41s-4.08,2.77-6.94,2c-3.78-1-4-.73-4.11,3.11a2.67,2.67,0,0,1-1,2.15c-.7.57-1.09,1.29-.54,2.13a1.88,1.88,0,0,0,2.49.64c2.57-1.1,4.34-1,4.44,2.43A1.64,1.64,0,0,0,81,152.63a2.81,2.81,0,0,0,2.63-1.38c2.19-2.68,2.94-6.07,4.56-9,1.09-1,2.11-2.41,3.88-1.52,1.55.79.94,2.16.73,3.42-.14.85,0,1.81.82,2.13,1.69.65,3.5.78,4.24,3,.26.82,1.79.17,2.39-.51,1.37-1.55,2.58-3.15,4.52-4.19,1.29-.69,1.33-2.38.59-3.79-.43-.83-.88-1.64-1.38-2.44a2.86,2.86,0,0,1,.73-4,2.18,2.18,0,0,1,3.59.36c.37,1.28.25,2.82,2.43,2.63,2.58-.23,3,1.64,3,3.68a13.61,13.61,0,0,1-.6,2.36c-.16,1.07-1.47,2.33-.17,3.18s2-.71,2.73-1.46a3.1,3.1,0,0,1,2.23-.78c3.49-.12,3.78-.62,2.25-3.88A6,6,0,0,1,120,135c.41-.87.91-1.69,2-1.72s1.49.89,1.67,1.85a3.44,3.44,0,0,0,.28,1c1.75,3.27,4.42,3.4,6.31.18,1.41-2.39,1.71-5.3,3.31-7.62.36-1.35-.34-2.18-1.3-3a2.22,2.22,0,0,1-.51-3.11c.7-1.21,1.63-2.2,3.08-1.54,2.6,1.17,3.3-.46,3.94-2.37a16.58,16.58,0,0,0,.4-1.69,2.24,2.24,0,0,1,2.51-1.92,2.27,2.27,0,0,1,2.27,2.56c0,3.92-1.44,7.49-3,11a73.89,73.89,0,0,1-5.62,10,53.89,53.89,0,0,1-9.31,9.36c-4,2.95-8.63,4-13.36,4.62-2.93.39-4.68,2.8-7.35,3.68-1.35.44-.5,2.14.85,2.45a10.47,10.47,0,0,1,5,2c1,.85,2.81.38,3.87-.68,1.81-1.82,3.4-2.39,5,.17.24.38.83.35,1.31.3,1.78-.64,3.33-3.28,5.46-1s-.36,3.65-1.37,5.32c-.55.93-1.85,2-.93,3.06s2.15,0,3.07-.6c1.89-1.26,4.86.33,6.19-2.36.61-.71,1.13-1.7,2.11-1.74,3.7-.15,4-2.54,3.62-5.35-.29-2.18.89-3,2.79-3.09s2.34,1.26,2.31,2.76c-.26,14.32.81,28.66-.67,42.95-.14,1.34-.25,2.63-2,2.68-4.51-2.55-9.11-4.81-14.39-5.34-2.07-.21-3.33-1.93-4.74-3.28A20.48,20.48,0,0,0,112,184.24a3,3,0,0,1-.91-1.16c-1.46-2.65-1.92-6.31-6.15-6.16-1,.86-1,2.08-.91,3.19a3.64,3.64,0,0,1-2.46,4c-2.39.76-5,1.18-5.57,4.36-1,1.31-2.51,2.1-3.67,3.27-2,1.37-2.69,2.93-1,5.11a2.54,2.54,0,0,1,.19,3.14.52.52,0,0,1-.07.13.89.89,0,0,0,.5.13c3.12,2.43,6,5.27,10.57,4.06a1.26,1.26,0,0,1,1.48.72c.78,3.47,4.07,3.51,6.41,4.87s2.39,4.12,3.49,6.24a39.34,39.34,0,0,1,1.78,7.48,29.78,29.78,0,0,0,5.61,13.41c0,4-2.52,7.1-3.78,10.64-.23.64-.76,1.18-1.05,1.81-4.21,4.83-6.13,10.22-4.11,16.6.67,1.59,2.37,2.7,2.16,4.7-1.83,1.83-3.81,3.07-6.48,1.68a1.18,1.18,0,0,0-.67-.19c-5,.78-10.06-.77-15,.52-.56.14-1.14.54-1.68.3a12.75,12.75,0,0,0-8.88-.26C81.31,273,80.91,272.6,80.61,272.23Z"/><path class="cls-3" d="M197.62,273c.56.84,1.17,1.52,2.27.74.57-.4,1.17-1.14,1.73-1.11,4.61.19,9.27-.07,13.81.22,2.25.15,4.34.61,6.6-.38a105.17,105.17,0,0,1-27.93,15.88,117.09,117.09,0,0,1-48.63,8.42c-23.62-1.07-45.38-8.09-64.87-21.69a1.49,1.49,0,0,1,.66-1.85c2.8-1.87,5.7-2.42,8.75-.58a1.83,1.83,0,0,0,2.23-.11c2.78-1.92,5.48,0,8.22,0s5.45-2,8.22-.13c1.08.72,1.82.46,2.84-.06,2.21-1.12,4.53-1.71,7-.5,1.56,1.16,3.57.33,5.22,1.12A43.56,43.56,0,0,0,133,274c3.83.16,8.43-4.17,9.43-8,1.06-4.14.81-8.34.86-12.53s-.45-8.17,2.21-11.75c.72-1,.11-2-.47-2.91a2,2,0,0,1,.38-2.55,2,2,0,0,1,2.56-.43,56.94,56.94,0,0,0,6.45,2.69c1.84.67,2.2,2.17,2.19,4,0,6.07,0,12.14,0,18.21a25.54,25.54,0,0,0,.13,3.5c.64,4.55,1.67,6,6.14,6.81,3.13.58,6.34,1.36,9.62.47s6.55,1.3,9.88,1c4.8-.47,9.56,1.69,14.36.18C197,272.45,197.37,272.78,197.62,273Z"/><path class="cls-4" d="M197.62,273c-2.9,1.51-6,2.16-9,.6-1.36-.69-2.08.75-3.29.39-2.74-.8-5.85.59-8.46-1.48a2.84,2.84,0,0,0-2.68-.14c-3.4,2.47-6.71.27-10,0-6.52-.54-8.51-2.72-8.63-9.37-.12-6.42-.19-12.84,0-19.25,0-2.71-.61-4.4-3.48-5.07a20.24,20.24,0,0,1-4.41-2c-.73-.37-1.35-.41-1.84.28s-.22,1.33.57,1.62c2.27.81,1.26,2.27.46,3.3-2.16,2.75-2.39,6-2.52,9.22-.21,5,.35,10-.67,15-1,4.7-6.09,9.35-10.87,9-3.37-.21-6.86.94-10.13-.69-.18-1.21-1.54-1.62-1.86-2.74.38-1.48.75-3,2.23-3.8,1-.34,1.94.05,2.92.1,1.4.37,2.87.32,3.94,1.77,2.46,3.31,3.88,3.28,6.77.25a5.11,5.11,0,0,1,.8-.66,6.28,6.28,0,0,1,1.78-.67c2.14-1,1.85-3.14,2.26-4.94.75-3.29.29-6.61.4-9.92.11-1.46-.56-2.8-.69-4.23.42-2.75-1.13-5.75,1.16-8.32.63-.71-.53-1.38-1-2-1.3-1.75-2.31-3.5.58-4.68,1-.42.85-1.18,1-2,.54-3.38,2.46-6.54,1.49-10.18a1.41,1.41,0,0,1,1.09-1.59,1.64,1.64,0,0,1,1.85.63c2,2.46,3.09,5.09,2.1,8.38s-.52,4.27,2.68,5.63c1.07.45,2.22.71,3.29,1.15,2.65,1.11,4.39.76,5-2.47.27-1.49,1.1-2.86,3-2.93a1.88,1.88,0,0,1,1.23.9c0,3.22.39,6.42.62,9.64a2,2,0,0,1-1.14,1c-5.57-.34-5.58-.34-5.57,5.59,0,4.85-.07,9.71,0,14.57,0,1.72,0,3.68,2.59,3.59a15.59,15.59,0,0,1,2.8.93c.63.44,1,1.32,1.95,1.27a5.23,5.23,0,0,0,2.49-.53,3.1,3.1,0,0,1,1-.05c1.85.76,3.88.38,5.76.89a8.54,8.54,0,0,0,1.85.48c1.94,0,2-1.72,2.46-2.89,1.13-2.58,2.64-4.59,5.69-4.88a1.92,1.92,0,0,0,1.9-2.58c-1.79,1.73-3.28,4.05-6.35,2.9-.28-2.1-.28-2.1,1.83-5.21-2.21-1-4.79-.39-6.83-1.7a4.73,4.73,0,0,1-1.83-1.08,2.19,2.19,0,0,1-.53-1.55,1.8,1.8,0,0,1,.51-1,3.34,3.34,0,0,1,3-.52c3.31.83,6.7.77,10.07.91,3.57.14,5,1.81,4.91,5.34,0,.46-.13.92-.13,1.39.09,6.06-.2,6.44-5.83,7.65a1.25,1.25,0,0,0,.25.63c.58.59,1.44.27,2,.71a2.21,2.21,0,0,1,.69.67c.39.73,1.2,1,1.71,1.67,1.46,1.77,2.86,1.68,4.18-.16.67-.93,1.25-2,2.64-1.91a1.13,1.13,0,0,1,.36,1.73,2.83,2.83,0,0,0,.73,2.64Z"/><path class="cls-5" d="M118.35,273.11c-2.37-1.05-4.74-1.42-6.93.32a1.91,1.91,0,0,1-2.77,0c-2.85-2.2-5.46.25-8.09.3s-5.22-2.48-8.11-.35c-.66.48-1.36,1.19-2.17.5-3.07-2.66-6-1.52-9,.1-.56.08-.74-.22-.72-.72l.09-1c3.27-1.18,6.54-2.64,9.86-.13.47.35.86,0,1.27-.19,4.9-2.52,10.09.16,15.21-.69,2.2-.36,4.85.61,7.17-.85-.29-1,.41-1.27,1.14-1.53,1.23-.17,2.1.55,3,1.22.64.65,1.37,1.25,1.25,2.32C119.31,272.92,119,273.34,118.35,273.11Z"/><path class="cls-6" d="M80.52,273.23l.72.71c-.22.39-.43.78-.64,1.17L77.37,273C78.79,272,79.58,273.12,80.52,273.23Z"/><path class="cls-7" d="M164.74,241.37a7.08,7.08,0,0,1-.71-8.86c.29-.79.09-1.11-.77-.83a8.31,8.31,0,0,0-1.68,7.6A31.24,31.24,0,0,1,151,236.77c-4.21-1.86-4.65-2.89-3.13-7.24,1.25-3.58.56-5.87-2.63-8.09-.11,1.78,1.62,2.7,1.58,4.13,0,.44,1.91,3.09-1.11,1.46-.12-.06-.38.13-.57.2,1.21,2-.87,3.72-.55,5.48.26,1.48.62,2.79-.58,3.84-1.37,1.2-1.7-1.29-3.09-.94-.15,2,1.39,2.73,2.75,3.31,2.94,1.26,2.6,2.38.16,3.81-1.62,1-1.41.92-.5,2.39s-.82,2.7-1.05,4.12c-.45,5.64-.25,11.35-2.12,16.81-.45,1.32-.62,2.76-2,3.52-.71,2.31-1.58,4.18-4.6,4.32a5,5,0,0,1-4.72-2c-.77-1-.1-1.62.11-2.81-1.4,2.36-2.58-.84-3.91.26-.16-1.5.82-1.89,2-2.32,3.38-1.22,4.09-2.51,3.4-6.07a56.66,56.66,0,0,0-1.68-6.39c-.1-4.05-1.06-8-1-12.11,0-.74.34-2.3-1.65-1.37-1.25.58-2.29-.83-3.3-1.58s-1.43-1.94-2.23-2.83c-3.39-4.08-4.7-9-5.62-14.06a53.07,53.07,0,0,0-1.88-7.37,5.14,5.14,0,0,1-1-2.89,6.58,6.58,0,0,1,.33-2.45c0-4.4,1.77-8.84-.35-13.18a2.23,2.23,0,0,1,.4-.92c.46-.33.92-.63,1.47-.15-.24-.46-.79-.46-1.12-.79a1.73,1.73,0,0,1-.5-1.52,4.12,4.12,0,0,1,.28-.86c.55-1.94-1.8-1.77-2.19-3a4.35,4.35,0,0,1-.32-2.14c-.09-.76-.75-1.2-1-1.85-.39-1.24-1.33-2.31-1.09-3.74a1.74,1.74,0,0,1,.58-.86c1.82-.78,2.47.85,3.5,1.71l.72.75c.59.67,1,1.45,1.65,2.1a3,3,0,0,0,.76.43c3,.61,4.55,3,6.14,5.29a17.9,17.9,0,0,0,2.41,3.38,9.64,9.64,0,0,0,6.89,3.56,21,21,0,0,1,11,4.78c1.71.8,3.45,0,5.16.12,9.84.4,19.64-1.56,29.54-.25a56.15,56.15,0,0,1,12.44,3.13,30.21,30.21,0,0,0,14.64,3.49,1.53,1.53,0,0,1,1,1.72,11.56,11.56,0,0,0-.08,1.56c0,.34,0,.69.1,1a1.57,1.57,0,0,1-.9,1.73c-3,.58-5.75-.31-8.48-1.33a20.47,20.47,0,0,0-4.31-1.33c-1.82-.23-2.78.25-2,2.3A20.3,20.3,0,0,1,189,227.4c-.68,2.65-.4,5.33-.51,8-.36,1.55-1.2,3.08-.31,4.72a5.73,5.73,0,0,0,2.36,1.64,9.15,9.15,0,0,1,6.54,4,8.37,8.37,0,0,0,3.26,2.46c2.69,1.91,3.48,4.31,2.26,7.48-1,2.68-2.3,5.26-3.06,8-.74,1.55-.87,3.44-2.53,4.47-.75,1.83-.71,4.27-3.2,4.84a3.87,3.87,0,0,1-4.29-1.51c-.58-.82-1.1-1.7-1.65-2.55.22-.38.38-.76-.11-1.07-1.12.95-2.22,1.73-2.87-.45-.19-.25-.39-.27-.59,0-.59.31-1.23,1-1.85.32s-.22-1.52.34-2.18c1.18-1.4,2.8-.86,4.26-.94,2.3-.11,4.12-.77,3.25-3.55-.75-2.37,1.48-5.14-.57-7s-4.66-.13-7-.37a71,71,0,0,1-8.86-1.81c-2.32.38-3.42-1.72-5.15-2.55C166.15,247.27,165.3,244.39,164.74,241.37Z"/><path class="cls-8" d="M160,26.79a30,30,0,0,0,14.33,4c2,0,3.07.32,3.09,2.58,0,2.47-1.81,1.52-3,1.82a9,9,0,0,1-1.39.17c1.15,4,.7,4.63-3.93,5.62s-4.56,1-6.25-2.89c-.45-1-.45-1-4.05-.16a23.45,23.45,0,0,0,11.09,9.81A59.12,59.12,0,0,0,187,52.62a9.21,9.21,0,0,0,7.79-2.18c1.6-1.44,6.38.28,6,2.29-.4,2.44.89,1.59,1.81,1.53,2.21-.16,4.42-.37,6.61-.72,1.88-.31,2.45,1,3,2.23.67,1.49-.74,1.71-1.51,2.28-2.49,1.82-5.09,3.35-8.28,2.41-.6,1.38.55,1.59.91,2.22.62,1.06,3.2,1.38,1.25,3.45-1.55,1.66-3.34,2.15-5.31,1.1a9.69,9.69,0,0,1-2.55-2.37c-1.19-1.38-2.43-1.67-3.91-.4.13,1,1.16,1.25,1.8,1.86,1.63,1.52,5.19,3,.12,4.63-.6.2-.63.62-.28,1,1.94,2.34-.61,2.49-1.64,3.37-1.63,1.39-2.41,0-3.38-1-.49-.52-.64-1.66-2.08-.69-2.05,1.36-4.44-.27-4.51-2.74,0-.7.06-1.41,0-2.1-.06-1,.47-2.43-1-2.56-1.78-.16.57,1.54-.63,1.84a.41.41,0,0,0-.26.22c-.73,2.68-4.79-1.73-4.88,2.29-2.47-.23-4.87-.54-5.53-3.6-.11-.5-.27-.92-1.18-.65-1.89.56-3.09-.84-3.58-2.31-.62-1.88-1.59-1.82-2.86-1-1.91,1.17-.07,2,.49,2.65,6.82,7.83,15.74,11.79,25.72,13.74A95.58,95.58,0,0,0,211.07,81a7.61,7.61,0,0,0,5.62-2.22c2.32-2.35,5.23-1.82,6.67,1.27.64,1.37,1.19.68,1.82.46,2.86-1,5.7-2,8.53-3.06,1.53,3.6.38,5.72-3.17,7a58.52,58.52,0,0,0-6.5,3.18c1.11.55,1.94.94,2.75,1.37,1.1.59,2.87.51,1.91,2.8-.77,1.84-1.4,3.09-3.7,2.41a9.63,9.63,0,0,0-4.74-.65c-.73,1.51,2.06,2.78.41,4-2.62,2-5,.45-7.32-1.12,1,3.31,3.46,5.12,6.26,6.65,1,.54,3,.43,2.37,2.3-.42,1.24.67,3.68-2.16,3.51-.31,0-.9.06-.65.47,1.74,2.84-.78,3.39-2.36,4-2.1.8-2.23-1.85-3.53-2.58-.2-.11-.37-.27-.73-.52-1,1.06-.76,3.73-3.67,2.44-2-.89-3.07-1.28-2.36-3.8a13.47,13.47,0,0,0,.24-6.94c-.35-1.36-.7-2.19-2.25-.82a3.77,3.77,0,0,1-6.2-2c-.21-.7.09-1.91-1.29-1.28-1,.46-.69,1.25-.31,2.05.55,1.15,1.39,2.36,1.38,3.54s-1.66,1.4-2.65,1.91c-1.15.58-1.63-.45-2.21-1.17-1.15-1.44-1.1-4.7-4.5-2.79-.59.33-1.87-.56-2.73-.85-1.53,1.56,2.1,3.63-1,5.05-1.7.78-2.51,1-3.59-.69-.59-.92-1-3.4-3.14-.91-1,1.12-4.58-1.48-4.5-3.28a27.23,27.23,0,0,0-.8-6.92c-.18-.92-1.67-.51-1.66-1.63,1.37-2.52,2.66-1,3.63.24a8.14,8.14,0,0,1,1.67,5.25c0,2.18,1.52,2.29,3.05,2.53,1.35.2,2.85,1.5,3.63-.95a2.55,2.55,0,0,1,3.16-1.59,6,6,0,0,0,4-.62c1.81-.93,2.88-.12,3.12,1.93,0-2.43,1.45-3.63,3.39-4.34s3.13.39,3.91,2c.51,1,1,1.63,2.39,1.28,3.95-1,5.34.06,6.34,4,.45,1.77,0,3.48.1,5.32,1.07.16,2-1.34,2.83-.63,2.2,1.87,3.17.07,4.59-1.43a26.43,26.43,0,0,1-5.49-5.17,13,13,0,0,1-2.44-5.38c-.24-1.18-.24-2.44.83-3.21s2.23-.13,3.2.56,1.72,1.59,2.91,1.87c1.27-3.93,1.88-4.23,6.72-3.25-.39-.26.28,0,.16,0-3.47-1.85-3.56-3.8-.21-5.83,1.6-1,3.43-1.48,4.81-2.27-2.54,1.15-5.33,3-7.72-.83-.68-1.08-1.65-.58-2.41.06a7.37,7.37,0,0,1-4.39,2c-11.72.5-23.32.06-34.47-4.14a42,42,0,0,1-16.81-11c-1.53-1.69-3.3-3.41-2.86-6.09a2.67,2.67,0,0,1,.85-1.26,6.14,6.14,0,0,1,8,.67c1.63,1.41,3.71,2.1,5.36,3.69,1,1,3.4-.43,5-1.29,2.89-1.59,5.86-.73,7.07,2.21,1.42,3.47,1.42,3.47,5.17,4.63,1-1.66,1.65-3.17-.18-4.85a2.24,2.24,0,0,1,.1-3.44,5.34,5.34,0,0,1,6.09-1.27c1.4.58,2.13,2.12,3.75,2.58-.42-1.5-2.2-2.39-1.52-4.16,1.84-1.9,4.6-1.22,6.7-2.39a2.11,2.11,0,0,0,.6-.3c.08-.06.7-.34.14-.33A31,31,0,0,1,200,57a4.39,4.39,0,0,1-2.19-1.27c-.77-2-1.84-3.17-4.08-1.61a4.9,4.9,0,0,1-3,.74c-1.63-.33-3.19.21-4.79.38-10.36-1.13-19.87-4.21-27.22-12.12-1.45-1.56-2.69-3.21-2.59-5.49a2.76,2.76,0,0,1,.67-1.47c4.32-2.82,5.16-2.75,8.72,1.14.88,1,1.88.62,2.87.65,1.33,0,1.42-.89,1.49-1.87a3.4,3.4,0,0,1,1.47-2.94.41.41,0,0,0-.48-.18c-5.31.56-10.5-1.74-12.11-5.34C158.92,27,159.2,26.52,160,26.79Z"/><path class="cls-9" d="M89,142.77c-1.24,2.75-2.29,5.62-3.78,8.23-1,1.72-2.18,3.86-4.78,3.34-3.2-.65-2.14-3.26-2.1-5.4a2.6,2.6,0,0,0-2.54.71c-2.8,2-3.93-.26-5.18-2-1.58-2.18,1.14-1.89,1.77-2.81.37-.54,1.86-.83.57-1.64-1.46-.91-1.58-1.59-.6-3s1.87-2.25,3.69-1.49c3.52,1.45,6.68,1.24,9.36-1.94.89-1.05,1.82-1.76.91-3.23a1.38,1.38,0,0,1,0-1.64c.66-.83,2.32-1.88.56-2.65-1.4-.62-3.17,0-3.69,2.14-.44,1.76-.71,3.59-2.69,4.65-1.27.68-2.59.75-3-.28-1.47-3.24-2.91-.77-4.42-.25C71.8,136,70.79,138,69,136c-2.78-3.15-2.87-3,.52-5.62.91-.7,2.94-1.11,2.2-2.63-.87-1.79-2.43-.22-3.64.08a50.87,50.87,0,0,0-5.69,1.68c-1.59.59-2.74.95-3.5-1.19-.69-1.93-.65-3.06,1.69-3.3.76-.08,1.35-.6,1-1.45s-.57-2.07-2.06-1.93c-3.83.37-4.84-3.19-6.75-5.26-1-1.06,1-2.32,1.62-3.51s1.56-.52,2.33-.12c1.44.76,2.84,1.62,4.29,2.37,1.23.63,2.38,2,3.69-.23.75-1.24,2.1,0,3.15.3,11.25,3.61,22.62,5.74,34.41,2.91,7.14-1.72,13.3-5.51,19.5-9.2.63-.35.92,0,1.17.53.11,1.82-1.2,2.69-2.46,3.53-10.85,7.25-22.57,10.77-35.75,8.94a105.24,105.24,0,0,1-15.38-3.09,6.82,6.82,0,0,0-4.42-.08c-2.7.95-4.88-1-7.77-2,1.57,2.41,4.23,1.75,5.65,3.35s2.32,3.46,1.63,5.62c3.24-.3,6.49-3.64,9.39,0,2,2.51.22,4.79-1.61,6.85,2.22-1.12,4.28-2.54,6.93-1.4,1.28.55,1.45-.81,1.88-1.54a6.63,6.63,0,0,1,4.73-3.29,3.63,3.63,0,0,1,4,1.61c.87,1.36,1,2.93,3.3,3.44,1.61.36.73,2.66-.39,3.42-4.55,3.1-7.67,8.77-14.56,7.78-2-.3-.79,2.51-2.44,3.59,4.58-.8,4.62-.77,6.39,3.68,1.6-1.26,2-3.1,2.79-4.7s1.3-3.64,3.76-3.52C89,141.83,89.36,142.15,89,142.77Z"/><path class="cls-10" d="M188.91,206.55c-8.22-3.53-16.86-3.8-25.61-3.3-6.14.36-12.29.63-18.43,1-1.54.09-3,.22-4.05-1.29-.1-.69,0-1.13.86-.8,2,1,1.49-.64,1.51-1.47.13-4,.2-7.95.24-11.92.1-10.17.2-20.34.22-30.51,0-1,.91-2.75-1.55-2.57-2.12.16-1.63,1.49-1.55,2.73.19,2.71,1,6.84-2.83,6.23-2.69-.44-2.57,1.35-3.83,1.85-.76.22-1.07-.26-1.31-.84.22-2.89.76-5.59,4-6.71.33-.12.73-.36.68-.71-.47-3.16,1.84-5.68,1.62-9.08s-.36-8.1,4-10.38c1.41-.73.91-2,.56-3.11a14.9,14.9,0,0,1-.39-6.92c.24-1.59,1.12-3.14,2.87-3s1.67,1.91,1.53,3.32a19.23,19.23,0,0,0,.7,6.22c.8,3.33,1.1,6.67-.8,9.83-1,1.58-.69,3.41-.71,5.14-.12,15.88.23,31.76-.21,47.63,0,1.77.45,2.73,2.26,2.72s3.92.36,4.45-2.24a21.42,21.42,0,0,0,.16-3.49c.5-11.91-1-23.78-.71-35.68,0-1.4,0-2.8.13-4.2s.53-2.61,2-2.95a2.76,2.76,0,0,1,3,1.45c1.11,1.75,2.47,3.45,2,5.77-.26.58-.59,1.07-1.35.88l-2.23-2.75c-.85,1.08-.39,2.26-.38,3.33.14,12.72.42,25.44.46,38.16,0,2.59.57,3.41,3.28,3.2,7.55-.57,15.14-.93,22.63.78a26.53,26.53,0,0,1,7.79,2.94C189.92,206.53,189.67,206.88,188.91,206.55Z"/><path class="cls-9" d="M105.14,104.85c-.73,1.28-1.54,1.77-3,.85-1.25-.78-1.86-1.53-1.15-3a.88.88,0,0,0-.07-1.1c-.28-.27-.51.12-.74.26-1.78.09-3.65,2.37-5.42-.37-.26-.42-2.18.25-2.18,1.87,0,1.86-.07,3.73-.14,5.6-.1,2.45-2.5,4.73-4.42,3.6-2.19-1.29-2.2.08-2.65,1.23-.63,1.61-1.38,2.35-3.38,1.85s-2.6-1.56-2.58-3.38c0-.78,1.28-2-.31-2.25-3-.44-1.84-2.69-2.08-4.29-.31-2,1.53-2,2.68-2.6,2.46-1.25,5.33-2,6.38-5,.23-.67,1.28-1.22.29-2.1s-1.57-.16-2.37.39c-1.23.86-1.65,3.1-3.78,2.45-2.3-.69-2.32-2.46-1.6-4.63a35.06,35.06,0,0,1-4.42.2c-1.3-.11-3.26,1.34-3.77-1.06-.45-2.14-.9-4.49,2.21-5.3a1.85,1.85,0,0,0,1.6-1.4l-5.79-2c-3.05-1.06-4-3.91-2.17-6.51.61-.89,1.14-.46,1.74-.23,2,.75,3.87,1.63,5.87,2.24,1.2.36,3,2.69,3.56-1,.12-.8,3.24-1.22,4.58.16,3.92,4.06,8.76,3.86,13.7,3.28,9.39-1.09,18.6-3,27.32-6.85.57-.31.93,0,1.21.45,0,2.24-1.76,2.93-3.33,3.55a89.71,89.71,0,0,1-29.26,6,17.1,17.1,0,0,1-9.37-2.36c-.6-.34-1.34-1.12-1.86-.67-3.49,3-6.57.26-9.79-.55,1.78.75,3.62,1.3,5.41,2,1.25.5,2.48,1,2.57,2.5s-1,2-2,2.65c-.62.46-1.56.54-1.88,1.65,2.6.34,5.42-.07,7.28,2.49.47.66,1.46-.34,2.22-.52a4.38,4.38,0,0,1,4.69,1.59c1.13,1.35.82,2.78.13,4.26a11.12,11.12,0,0,1-5.49,5.65c-2.32,1.06-3.23,2.17-.81,4.1.44.36.44,1.06.61,2.09C84.57,109,85.71,107.41,88,108c1.44.37,1.41-.76,1.55-1.69.93-6.33.93-6.35,6.86-7.8.74-.18,1.32-.4,1.59-1.14.76-2,2.14-2.8,4.11-1.79s3.57,2.42,2.87,5c-.28,1-.78,2,.18,2.9A1.43,1.43,0,0,1,105.14,104.85Z"/><path class="cls-11" d="M105.14,104.85l-.71-.82c-.89-1.08-.1-2,.37-2.88,1.89-3.61,8.8-4.77,11.5-1.92.59.62.8,1.87,2,.84s4.2-.08,4.13-2.91c-.11-4.09,1.45-5.88,5.77-6.62,2.71-.47,6.52-.77,7.9-4.63.48-1.34,2.46-1,3.82-1.1.18-1.63-1.27-2-1.78-3a5.17,5.17,0,0,1,.24-5.92,4.51,4.51,0,0,1,4.88-2c2.41.64,3,2.66,3.2,4.89.35,4.9-1.5,9.19-4,13.18-4.17,6.71-9.87,12.05-16.08,16.86-1.07.83-2.31,1.71-3.8.71l-.89-.71c6.64-5.33,13.24-10.7,17.94-18,.48-.74,2.06-1.66,0-2.65-1.83-.88-1.94.44-2.25,1.53-.76,2.65-1.39,5.29-5,2.66-1.08-.78-1,.7-1.41,1.23-1.59,2.06-3.6,2.06-5-.23-1.14,2.31-.57,4.63-.76,6.82-.13,1.53-.38,2.64-2.09,3.14-2.18.64-4.75.14-6.43,2.48-.58.81-1.93.18-2.7-.72s-1.63-1.33-.82-2.65c.31-.5,1.37-1.28.21-2-.87-.56-1.5,0-2.17.53C109.33,102.43,106.32,102.18,105.14,104.85Z"/><path class="cls-11" d="M131.71,30.51l4.15-.86c.73-.49,1.31-.39,1.69.45-1.79,2.75-3.12,3.21-9.18,3.15.2.79.47,1.55.68,2.34.6,2.32,1.74,2.62,3.82,1.27,2.84-1.84,6.5-2.44,8.27-5.88a1.79,1.79,0,0,1,2.49-.6,2.44,2.44,0,0,1,.61,3.18,28.91,28.91,0,0,1-4.76,8.1C130,52.18,118.33,57.3,104,54.93c-1-.18-2-.55-2.92.36-1.57,1.62-3.69,1.86-6,2.34,2.57.15,4.21,1.17,4.36,3.6.12,2-.25,3.81-2.84,3.9-.51-.24-.89-.55-.61-1.19,1.5-3.33,1.37-3.45-2.15-3.42-2,0-4.94,1.66-4.61-2.7.14-1.9.68-2.76,2.58-2.85,1.39-.07,2.76-.38,4.15-.54s2.16-.18,2.55-2A2.48,2.48,0,0,1,102.51,51a11.74,11.74,0,0,0,7.67,1.82c9-.73,17.24-3.66,24.16-9.68a10.31,10.31,0,0,0,3.49-4.67c-1.47-.67-2.26-.11-3.22,1.06-2.49,3-7,2.66-8.69-.33-.93-1.69,1.15-3,.17-4.52-1.22-1.05-5,.68-3.54-3.28,0-2.1,1.4-.72,2.18-.9A21.79,21.79,0,0,0,131.71,30.51Z"/><path class="cls-11" d="M124,76.57l-1-.72c3.79-2.47,7.72-4.75,10.65-8.32,1.17-1.42,3.35-2.7.86-4.89-.34-.3,0-1.32,0-2-2.59.5-2.62.5-2.14,2.88.13.6.35,1.31-.2,1.59-3.47,1.74-5.14,5.89-9.28,7.13l-.38-3c-2.89,1.72-4.41.91-3.83-1.93.23-1.13.55-2.25.9-3.64-3.3.21-6.09.55-5.69,4.91.16,1.81-.55,3.21-2.72,3.15a2.27,2.27,0,0,0-2.4,1.6c-.21.55-.56,1.32-1.13,1.1a4.63,4.63,0,0,1-2.76-1.88c-1.12-2-4.75-3.48-1.22-6.37a1.23,1.23,0,0,1,1.39.28A9.38,9.38,0,0,0,106.84,68c2.24,1.51,3.87,1.07,4.27-1.62.52-3.57,2.7-4.85,5.8-5.52,4.19-.92,5.21-.31,5.38,4,.06,1.42.71,1.76,1.65,1.45,2.15-.72,4.36-1.28,4.79-4.28a5.25,5.25,0,0,1,7.78-4c1.35.71,1.58.18,2-.7s.91-1.89,1.39-2.82c.69-1.33,1.34-3.19,3.21-2.38s1.33,2.7.75,4.28a41.2,41.2,0,0,1-3.48,6.85,37.11,37.11,0,0,1-12,12.5C127.15,76.63,125.75,77.88,124,76.57Z"/><path class="cls-11" d="M228.62,129.9a7.67,7.67,0,0,0,2.3.73c3.43,0,2.12,2.29,1.93,3.9-.28,2.51-2.12,1.24-3.22,1a14.35,14.35,0,0,1-5.41-3.1c-1.13-.91-2.37-2.51-2.84.79-.35,2.45-2.45,1.2-3.74.55-.77-.39-.76-2.14-2.27-1.4a.94.94,0,0,0-.28.87c.62,1.19.72,2.88,2.35,3.2a7.69,7.69,0,0,0,3.13-.1c2.81-.63,4.66.79,6.33,2.71.3.35.89,1,.81,1.06-3.32,4.46,2.59,3.76,3.29,5.93a.7.7,0,0,1,.05.2c-3.08,4.21-6.58,5.17-10.42,1.08a2.08,2.08,0,0,0,0,2.36c1.43,3.69-1.65,3.2-3.51,3.89-2.68,1-2.53-1-2.78-2.59a15.17,15.17,0,0,0-3.46-8.21c-.33-.61,0-.92.5-1.2,4.2.48,4.54,4,5.59,7.11.46-.94-.1-1.8,0-2.66.23-2.22,1.42-2.71,3.4-2.07,1.74.55,3,2.1,5.64,2.42-2-2-3.26-3.61-3.47-6-.13-1.48-1.83-1.09-2.93-1.12-4.25-.1-8.91-4.57-9.06-8.74-.05-1.41.6-2.41,2-2.25,1.82.21,3.75-.6,5.46.57a1.47,1.47,0,0,0,1.3.39c3.48-1.37,6.06.15,8.42,3.13a11.47,11.47,0,0,1-.23-1.93C227.71,129.93,228,129.56,228.62,129.9Z"/><path class="cls-11" d="M171.85,105.35c12.82,9.6,27.33,13.1,43.13,12A57.46,57.46,0,0,0,231,114c.83-.3,1.91-1.32,2.58-.57,2.8,3.17,4.56.55,6.55-1,1.17-.91,2.19-2.17,3.54,0,1,1.64,2.31,2.86-.2,4.4a79.86,79.86,0,0,0-6.43,4.78c-.63.31-1-.05-1.24-.54-.4-2.4,2.19-2.66,2.67-3.91-1.67,1.44-3.48,3.89-6.28.58-.92-1.1-2.39-.11-3.61.19-17.27,4.23-34.06,3.5-50.11-4.91a55.16,55.16,0,0,1-5.88-3.74c-1.13-.8-2.26-1.73-2-3.41C170.88,105.41,171.22,105.05,171.85,105.35Z"/><path class="cls-12" d="M168.18,131.24c-.8.06-1.9,1.38-2.32-.05-.47-1.6-1-3.38.07-5,.51-.8,2.4-1.14.8-2.65-1.41-1.33-1.67.41-2.42.8-1.9,1-4.13-.24-4.48-2.64-.16-1,0-2.1,0-3.14-.07-.8.55-2.08-1-2.1-1.35,0-1.3,1.06-1.32,2-.09,5.27.09,10.51.47,15.76a56.56,56.56,0,0,0,8.23,26.45c.27.72-.14,1-.74,1.21-3.55-.77-4.27-4-5.56-6.64-3.34-6.68-4.45-14-5-21.3-.53-7.09-.24-14.22-.1-21.33,0-1.33.25-2.73,1.72-3.14,1.66-.46,1.93,1.09,2.68,2.11,1.69,2.31,3.83,4.26,3.9,7.49,0,1.11,1.5.77,2.37,1,3.82.78,5.09,2.42,4.47,6.35-.21,1.33.6,2.2.73,3.33C170.67,131.48,169.1,130.84,168.18,131.24Z"/><path class="cls-13" d="M211.58,141.91l-.72.83a4,4,0,0,1-.59-.17c-1.65-.17-1,.89-.86,1.64-.56,2.89-2.41,3.49-5.46,1.62a5.35,5.35,0,0,1-.08,1.37c-.43,1.22,1.55,3.33-1,3.66-2,.26-4.61.82-5.19-2.47-.24-1.4-.39-2.69-2.59-1.4-.71.42-2.8-1.36-2.27-3.44.43-1.69.77-3.42,1.35-5.07.64-1.84-.08-2.6-1.76-2.84-1.1,1,1.61,2.8-.72,3.49-1.49.45-3.21,1.82-4.32-1.21-.19,3.26,1.09,5.45,2.23,7.7.29.57,1.77,1.54-.19,2a1.52,1.52,0,0,1-1.43-.16c-2.31-2.75-3.23-6.16-4.14-9.49-.7-2.6.85-4.15,3.62-4,.71,0,1.24.33,1.71-.52,1.06-1.9,2.7-1.5,4.28-.83,2,.86,4.29,2.31,3.66,4.53-1.15,4.06.88,6.47,3.32,8.95.22-1-.16-2,.12-3,.18-.68.6-1.84,1-1.71,3.21,1.14,4.17-1.89,6.17-3S211.47,139.16,211.58,141.91Z"/><path class="cls-13" d="M134.6,129.46a23.2,23.2,0,0,0-2.52,5.65,7.59,7.59,0,0,1-4.24,5.27c-.93.43-2.48,1.79-2.44-.88,0-.31-.26-.88-.41-.89-3.58-.09-2.29-2.9-2.59-5.06-2.59,2.51-2.36,5-.44,7.28,1.64,1.9.44,2.88-.72,4-.91.86-1.46,2.95-3.38.82-1.36-1.51-1.64.6-2,1.2-.92,1.54-1.6,2.51-3.77,1.61-2.5-1-1-2.38-.69-3.64s1-2.6,1.31-4c.33-1.74,0-3.32-2.31-2.15-1.39.71-2.12.24-3-.61-1.34-1.24.08-2,.43-3-.36-.61,0-.92.48-1.19a11.84,11.84,0,0,1,5.32,2.29c2.54,1.63,2.48,4.21,1.35,6.83.21-.12.35-.36.57-.41,2.31-.59,3.53-1.62,2.38-4.28a5,5,0,0,1,.43-4.06c1.1-2.19,2.62-3.66,5.27-2.47,1.8.82,5.11-1,5,3.2a5.88,5.88,0,0,0,.88-3.62c.27-3.94.74-4.26,4.77-3.19C134.67,128.53,135,128.9,134.6,129.46Z"/><path class="cls-14" d="M188.91,206.55l1-.74A31.34,31.34,0,0,0,207.6,208c1-.15,2.94-1.18,2.83,1.12-.1,2.06,1.81,4.85-1.45,6.05a18.87,18.87,0,0,1-12.67.07c-2.26-.73-4.42-1.93-7.4-1.92,3,6.54.66,12.77.18,19-.62,1.72.14,3.58-.56,5.29a4,4,0,0,0,2.16,3.76c-.08.44-.51.45-.79.64a3.49,3.49,0,0,1-2.1-1.46,8.78,8.78,0,0,1-.05-5.15,26.42,26.42,0,0,1,.82-9.59,16.63,16.63,0,0,0-2.72-14.42c6.54-.5,11.8,4.25,18,3.26.59-1,1.94-.92,2.54-1.88.15-.36.34-.69.49-1a4.22,4.22,0,0,0,.1-1,2.28,2.28,0,0,1,0-.64c-.86-.28-1.57.55-2.41.3a2.06,2.06,0,0,1-.76-.5C198.64,209.83,193.46,209.58,188.91,206.55Z"/><path class="cls-15" d="M112.78,212.06l.74,2.74c.41.77.61,1.44-.66,1.44a9.91,9.91,0,0,1-1.12-2.1c-.69-2.69-1.78-4.49-4.77-2.62-.83-1.08.49-1.91-.13-2.85-1.46,0-2.44,1.72-4.1,1.21-.2-1.49,1-2.81.49-4.6-2.66.89-5.2,2-7.36-1.38-1.13-1.77-2.37.34-3.1,1.53-1.61-1.27,2.12-4.16-1.61-4.58a.48.48,0,0,1-.77,0,3.25,3.25,0,0,0-.35-4.09c-2-2.64-1.62-4.62,1.62-5.8.58-.3.9,0,1.18.49.19,1.56.36,3.1,2,4a1.68,1.68,0,0,1,.67,2.08,2.38,2.38,0,0,0-.25,1.69,2,2,0,0,0,.89.79c2.13.25,4.51.09,4.61,3.85,1.28-2.47.34-4.62,1.33-6.39.59-1,1.18-2.17,2.61-1.83a2,2,0,0,1,1.49,2.47c-1.39,5.07,2.3,7,5.48,9.36a2.55,2.55,0,0,1,.72,1.3A26.83,26.83,0,0,1,112.78,212.06Z"/><path class="cls-16" d="M121.91,162.13c-2.12.28-4.17.47-3.9-2.71-2.23.61-3.12,4.12-6.19,2.87-2.33-1-4.34-2.65-7.13-2.62a1.85,1.85,0,0,1-1.75-2.48c.39-1.34.5-2.85,2.51-2.67,1.62.13,3-.17,3.6-2a1.51,1.51,0,0,1,1.65-1c10.39,0,17.74-5.47,23.74-13.33a1.49,1.49,0,0,1,1.16.9c.34,2.25-1.15,3.7-2.43,5.15a29.26,29.26,0,0,1-16.59,9.59c-2.73.55-5.51.94-7.53,3.18.17.14.41-.19.64-.13,2.88.73,5.58,1,8.25-1.06,1.3-1,2.69.12,3.09,1.7a8.76,8.76,0,0,0,1.28,3.18A1.59,1.59,0,0,1,121.91,162.13Z"/><path class="cls-13" d="M171.85,105.35l-.87.72c-1.26.83-2.23.07-3.13-.66-8.86-7.09-13.38-16.56-14.91-27.6-.27-2,.24-3.81,2.75-4s4.9,1.57,5.18,3.74a3.41,3.41,0,0,1-.36,2.39c-2,2.85-1.22,4.35,1.64,6.37,3.08,2.18,6.32,4,9.53,5.89.44.55.88,1.11,1.31,1.67-2.42.85-4.93,2.88-7.06-.49-4.35,2.85-2.57-2.41-4.2-3.24-.68-.34-.68-2.08-1.92-1.43-1.52.79-.12,1.86.22,2.58C162.72,97,167.25,101.2,171.85,105.35Z"/><path class="cls-16" d="M135.17,139.09l-.73-.88c3.48-5.63,6.82-11.33,8.14-17.94.19-.91.29-1.84.42-2.76s-.08-1.56-1.22-1.58-1.79,0-1.79,1.42a8.9,8.9,0,0,1-1.25,4.65c-.84,1.38-1.72,2.71-3.29.66-.64-.84-1.25-1.72-2.38-.33s-.83,2,.38,3.11,4,1.78,1.15,4l-.71-.88c-.85-.21-1.23-1.1-2-1.41-2-.85-3-2.35-2.31-4.42.78-2.22,2-4.48,4.84-4.26,1.85.14,2.57-.45,2.83-2.11a3.87,3.87,0,0,1,2.51-3.13,3.9,3.9,0,0,0,2.47-2.7c.36-1.15,1-2.26,2.5-1.84,1.3.37,1.67,1.57,1.68,2.79A37.58,37.58,0,0,1,145,123.22a48.15,48.15,0,0,1-6.18,13.6C137.9,138.11,136.94,139.24,135.17,139.09Z"/><path class="cls-16" d="M108.61,134.18l-.81.9c-.83-.61-1.51-1.35-2.62-.18s-.84,2-.08,3c1.63,2.23,3.51,5.14,1.12,7.15s-4.41,4.28-6.76,6.23c-1.07.9-3.35-.23-3.25-.78.52-2.79-1.42-2.16-2.85-2.72-3.55-1.41-1.85-4-.93-6.41-1.69-.56-2.33.9-3.39,1.36l-.7-.86c.3-2.55,2.07-4.1,4.47-3.84s2.74,1.77,2.5,3.77c-.12,1.06-.79,2.52,1.17,2.58,1.53.05,2.39,2.62,4.79.25s2.51-3.39,1-5.92a4.79,4.79,0,0,1,2.81-7C107.09,131.1,108.9,131.27,108.61,134.18Z"/><path class="cls-17" d="M188.44,146.72l1,.9c-1.46,1.47-2.67,1.58-3.73-.49a47.83,47.83,0,0,0-2.58-4L182,146.67c-2.47-1.22-5.3-1.91-4.1-5.74.43-1.39-.73-1.39-1.6-1.64s-1.81-.35-2,1a10.92,10.92,0,0,1-.65,2c-3.58-1.26-5.19-3.47-4.29-7.41.24-1.07,1.38-3.11-1.11-3.63l2.1-1.34c3.36.72,1.57,3.56,2.36,5.6,1.14-1.15,2.34-.52,3.72-.33,2.68.37,3.37,3.37,5.91,3.8,3.26.54,3,4,4.58,6C187.34,145.59,187.64,146.37,188.44,146.72Z"/><path class="cls-18" d="M160,26.79l-.89.72c-1.79.94-2.81-.4-3.9-1.39-3.39-3.07-4.35-7.31-5.71-12.33-.86,4-3.39,6.57-3.47,10.17,0,1.49-.72,2.74-2.6,2.56-.48-.28-.83-.61-.51-1.21-1-3.27.78-5.77,2.3-8.37a7.6,7.6,0,0,0,1.19-3.24c.18-3.44,1.72-5.37,5.54-5.36C152.64,15.15,153.51,22.22,160,26.79Z"/><path class="cls-17" d="M121.91,162.13v-1.35c-.82-2.53.61-4.07,2.55-5.08s2.61.81,3.7,1.82c2.7,2.5,1.42,4.78-.23,7.1,2.22-3.48,4-3.79,4.72-.85.17.65-.12,1.41.48,2l.77.74c-2.65,2.7-6.85,1.5-9.74,3.89-.67.55-2.2-2.91-1.31-4.06s2.16-2.41,3.13-3.7c.53-.7,1.77-1.5.27-2.5a1.57,1.57,0,0,0-2.56.56C123.28,161.3,122.89,162.13,121.91,162.13Z"/><path class="cls-19" d="M236.15,120.86l.89.79c-.16,1.83,1.61,1.62,2.48,2.39s3.12-.22,2.53,1.73c-.46,1.5-1.49,3.11-3.73,3a20.36,20.36,0,0,1-7.8-1.39,2.33,2.33,0,0,0-2.86.57c-.67.86.8,1.17,1,1.92l-.88.72c-2,.69-2.74-.66-3.17-2.15s.4-2.46,1.57-3.16a7.29,7.29,0,0,1,5.69-.61c1.23.32,2.44.71,3.84,1C235.3,124,231.86,121.9,236.15,120.86Z"/><path class="cls-20" d="M165.42,161.54l.75-.92c1.31,1.6,2.51,3.3,4,4.77,1.27,1.28.77,2.09-.19,3.18s-1.68,1.69-3.08.54c-3.22-2.64-6.41-5.28-8.54-9l.76-.76c3.72-.18,4.23,3.74,6.45,4.77A2.21,2.21,0,0,1,165.42,161.54Z"/><path class="cls-21" d="M112.86,216.24l.66-1.44c1.61,2.91,1.88,6.19,2.51,9.35a30.37,30.37,0,0,0,5.2,12.39c.21.72-.1.92-.77.77-3.33-3-4.47-7.15-5.5-11.28C114.15,222.79,113.55,219.5,112.86,216.24Z"/><path class="cls-22" d="M111.4,266.75c-2.55-6.82-.48-12.56,4.12-17.72a1.76,1.76,0,0,1,.78.77,2.39,2.39,0,0,1,.12,2c-2.48,4.46-2.89,9.42-3.59,14.31A1.23,1.23,0,0,1,111.4,266.75Z"/><path class="cls-23" d="M141.68,202.14l-.86.8a25.9,25.9,0,0,0-11.09-4.22,8.27,8.27,0,0,1-6.49-4,.68.68,0,0,1,.15-1.07,11,11,0,0,0,7.82,3.84A19.93,19.93,0,0,1,141.68,202.14Z"/><path class="cls-24" d="M112,182.58c-1.51.21-2.12-1.34-3.34-1.71-2.7.12-3-2.23-4-3.88-.2-.77-.74-1.49-.4-2.36.13-1.22.69-1.79,1.6-.65a14.93,14.93,0,0,1,1.5,3c1.25-.53.86-2.21,2.45-2.73A20,20,0,0,0,112,182.58Z"/><path class="cls-20" d="M104.41,66.89l-.77-.76c0-.65,1-1.18.36-1.86-.47-.48-1.07-.2-1.58.16-1.33.94-2.74,1.79-4,2.83-1.64,1.37-2.59.07-3.5-.84-1.38-1.39.24-1.82,1-2.48l.74.81c1.72.59,2.12-1,3-1.81,2-1.93,4.59-2.19,6.27-.6a2.72,2.72,0,0,1,1,2.81C106.55,66.36,105.93,67.3,104.41,66.89Z"/><path class="cls-25" d="M199,263.8c.91-2.58,1.68-5.23,2.76-7.74,1.36-3.14.7-5.58-2-7.57-.06-.72.09-1.2,1-.79,3.14,1.94,4,4.63,2.63,8-1.23,3.19-2.43,6.39-3.65,9.59C198.34,265.32,198.63,264.57,199,263.8Z"/><path class="cls-26" d="M123.39,193.61l-.15,1.07c-1.76-1.36-2.48-3.5-3.84-5.16-2.67-3.27-3.41-3.27-5.2,0-.75-1.05-.09-2.29-.45-3.39-.31-.94-1.14-1.7-1-2.8C117.52,185.5,121.54,188.44,123.39,193.61Z"/><path class="cls-23" d="M115.69,250.1l-.17-1.07c1.7-3.88,3.81-7.6,4.94-11.72l.77-.77a4.57,4.57,0,0,1,2.11,2.08,1.45,1.45,0,0,1-.12,1.46c-1.58,2.13-2.27,4.71-3.54,7C118.81,248.67,118.06,250.48,115.69,250.1Z"/><path class="cls-27" d="M104.28,174.63l1.43,1.83c-.59,1.93-.11,3.83.2,5.71.2,1.2,1.11,2.47-.25,3.45s-2.61.31-3.84-.39c-.55-.51-1.19-1-.92-1.88a2.64,2.64,0,0,0,2.1-3.24A6.75,6.75,0,0,1,104.28,174.63Z"/><path class="cls-28" d="M200.67,247.7l-1,.79a4.53,4.53,0,0,1-2.85-1.79c-1.54-2.78-4.17-3.78-7-4.61l.79-.64c2.09-.25,3.64.68,5.14,2.05S198.69,246.74,200.67,247.7Z"/><path class="cls-29" d="M100.9,183.35l1.49.68c.09.47.07,1.09-.33,1.24-2.36.91-4.16,2.73-6.37,3.87-.53-.26-.86-.62-.54-1.26C95.33,184.17,98.4,184.12,100.9,183.35Z"/><path class="cls-30" d="M142.87,25.31l.74.86c-.4,3.45-2.74,5-6.28,4.11l-1.47-.63Z"/><path class="cls-31" d="M111.4,266.75l.82-.92c1.09-.45,1.8.41,2.66.79a2.45,2.45,0,0,1,1.15,2.07,1.25,1.25,0,0,1-.47.81l-1.44.87Q112.76,268.57,111.4,266.75Z"/><path class="cls-32" d="M95.15,187.88l.8,1c.19,2.64-1,3.5-3.49,2.72l-.8-.68Z"/><path class="cls-33" d="M100.16,101.91c.47-1.1-.2-2.59,1.1-3.35.19-.11,1,.33,1.07.63.45,1.49-.58,2.5-1.36,3.56Z"/><path class="cls-34" d="M199,263.8l.7,1.53c-.78,1.4-.72,3.18-2,4.35l-.68-1.5Z"/><path class="cls-30" d="M131.71,30.51a9.31,9.31,0,0,1-7,0Z"/><path class="cls-30" d="M122.55,31.39c-.33,2.73,2.39,2.15,3.54,3.28C124.25,34.29,120.81,35.64,122.55,31.39Z"/><path class="cls-28" d="M188.53,237.69c.08-1.77-.45-3.61.56-5.29A14.34,14.34,0,0,1,188.53,237.69Z"/><path class="cls-35" d="M209.41,144.21c-.19-.41-.55-.81-.54-1.22,0-.62-1.09-1.31-.25-1.71s1.3.58,1.65,1.29Z"/><path class="cls-36" d="M90.39,200.82l.77,0c-.26.87-.43,1.81-1.83,2.14C89.15,201.93,89.84,201.4,90.39,200.82Z"/><path class="cls-37" d="M118.35,273.11l.77-.78c.54-.72,1.15-1.22,2.09-.6a3.25,3.25,0,0,1,1.42,2.69C121.66,272.5,119.18,275.47,118.35,273.11Z"/><path class="cls-2" d="M161.17,267.45c-1.13.57-.33,2-1.21,2.74-2.4-1.29-2.84-3.67-2.91-6-.21-7.34-.18-14.68-.33-22,0-1.78.54-2.34,2.23-1.77s3.83-.22,5,1.76c2.64,1.5,2.37,5.24,5.1,6.67,1.47,1.4,3.47,2.17,4.7,3.86l.73.69c1.41,2.25-.78,3.58-1.36,5.32-1.26,1.21-2.32,2.67-4,3.34a10.85,10.85,0,0,0-3.37.71,3.48,3.48,0,0,0-2.54,2.55A2.84,2.84,0,0,1,161.17,267.45Z"/><path class="cls-38" d="M176,254.16l9.35,1.19c.09,3.24-3.81,3.71-4.51,6.39a2.1,2.1,0,0,1-.33,1.38,8.34,8.34,0,0,0-2.34,3c-1,1.37-.77,3.71-3.11,4.06-2.15-.09-4.67,1.59-6.26-1.28-.56-.37-1-.78-.76-1.54a3.29,3.29,0,0,1,.91-.72l-.3.12a7.2,7.2,0,0,1-.88.6,2,2,0,0,1-1.89.11,2,2,0,0,1-1-1.19c.06-2.54,1.91-3.45,3.87-4.24a8.43,8.43,0,0,0,3.46-3.13C173.67,257.49,174.34,255.45,176,254.16Z"/><path class="cls-39" d="M180,262.5l.78-.76c3.13-.65,4.78-2.95,6.09-5.58.31-.61.38-1.48,1.31-1.28,1.12.23.92,1.13.76,1.95a3.1,3.1,0,0,0-.15,1c.69,3.79,0,5.87-4.72,5.59-3.46-.2-3.67,3.85-4.6,6.2-.77,2-1.39,1.87-2.8,1.25-.76-1.76.55-3.19.77-4.8C178.4,265,178.94,263.55,180,262.5Z"/><path class="cls-27" d="M138.12,269.57c1.07-5.7,2.87-11.25,3-17.13a4,4,0,0,1,1.14-3.2,12.08,12.08,0,0,1,.62,4.34c-.49,2.32-.27,4.71-.63,7-.32,3.37-.87,6.68-2.79,9.58C138.7,270.63,138.56,269.79,138.12,269.57Z"/><path class="cls-40" d="M129.71,253.92a33.15,33.15,0,0,1,2.11,9.75c.32,2.84-.89,4.11-3.44,4.35a10.83,10.83,0,0,0-3.38,1.32l-1.51-1.23-.27-.43c.36-1.62,1.62-2.13,3-2.4,2.26-.42,2.62-1.91,2.3-3.85s-1.05-4-.44-6.12A2.52,2.52,0,0,1,129.71,253.92Z"/><path class="cls-41" d="M165.31,266.13l.76.74a1.35,1.35,0,0,1,.25,1.78c-.86.69-1.5.17-2.12-.41l-3-.79c.46-1.29.94-2.58,1.37-3.88s1-2.11,2.47-1.81c1.24-.52,2.59,0,3.84-.45l3.42-3.22a.75.75,0,0,1,.18,1.12c0,2-1.78,2.32-2.93,3.25-.87.78-2.13.36-3.08,1.06S164.45,264.71,165.31,266.13Z"/><path class="cls-42" d="M139.45,270.2c.72-3.24,1.45-6.47,2.18-9.71,1.91,1.17.65,2.88.75,4.36C142.19,267.07,141.88,269.22,139.45,270.2Z"/><path class="cls-43" d="M168.73,249.27c-2.54-1.71-3.49-4.5-4.76-7.07l.77-.83c2.26,2,2.21,5.48,4.82,7.22C169.59,249.18,169.46,249.59,168.73,249.27Z"/><path class="cls-44" d="M121.21,271.73l-2.09.6c-.13-.78-1.46-.36-1.38-1.36.31-2.34,2.14-2.89,4-3.42a1.58,1.58,0,0,1,1.34.65.32.32,0,0,1,.41-.09C122.37,269.09,123,271.15,121.21,271.73Z"/><path class="cls-45" d="M142.38,264.85c-.44-1.42.38-3.06-.75-4.36.48-2.29.17-4.73,1.24-6.91C142.8,257.34,143.37,261.13,142.38,264.85Z"/><path class="cls-46" d="M172.45,259.21l-.18-1.12c.34-1.75,2.15-2.8,2.23-4.67l1.45.74A9.08,9.08,0,0,1,172.45,259.21Z"/><path class="cls-47" d="M178.18,266.13l-1.5,4.77-1.67-.76c.76-1.58,1.52-3.17,2.29-4.75A.93.93,0,0,1,178.18,266.13Z"/><path class="cls-48" d="M168.73,249.27l.83-.68a16.77,16.77,0,0,1,4.25,3.29l0,.85A12.3,12.3,0,0,1,168.73,249.27Z"/><path class="cls-49" d="M166.07,268.83v-2l2-.44a.8.8,0,0,1,.15,1.14l.53,1.29-.75.05a1.23,1.23,0,0,1-1.62.25Z"/><path class="cls-50" d="M185.1,270.48c-.54.46-.48,1.57-1.46,1.62-.55,0-.7-.55-.69-1,0-.9.45-1.53,1.45-1.54C185,269.56,185.18,269.89,185.1,270.48Z"/><path class="cls-51" d="M187,270.15l.93,1a9,9,0,0,1-1.53,1.05c-.49.21-.81-.13-.79-.69C185.66,270.64,186.41,270.6,187,270.15Z"/><path class="cls-52" d="M164.2,268.24l1.87.59a.37.37,0,0,1-.06.35l.23.26-.24.24C164.63,270.16,163.17,270.75,164.2,268.24Z"/><path class="cls-53" d="M166,269.68a.94.94,0,0,0,0-.5,2.48,2.48,0,0,1,2-.27c.33,1-.3,1.51-1.15,1.77S166.05,270.22,166,269.68Z"/><path class="cls-54" d="M163.26,231.68c.37-.8.84-2.1,1.79-1.27s-.38,1.5-1,2.1Z"/><path class="cls-55" d="M184.28,267.44a1.75,1.75,0,0,1,1.42-1.73c.51-.14.69.21.64.51-.11.81-.85,1-1.47,1.22l-.29.08Z"/><path class="cls-38" d="M182,269c.23,1.15.21,2-.83,2.45-.1.05-.45-.17-.49-.33C180.36,270.06,180.88,269.47,182,269Z"/><path class="cls-56" d="M187.74,267.89c.53-.65,1.54-1.24,1.85-.44.4,1.06-1.2.9-1.74,1.51Z"/><path class="cls-14" d="M122.05,268.14c-.89,1.78-2.8,2-4.31,2.83-1-.11-1.52-.88-2.18-1.47,0-.18.1-.37.14-.55.11-1.85,2-2.75,2.37-4.46,2.52-1.52,2.23-4,2.33-6.44.1-2.19,0-4.52,3-5a1.92,1.92,0,0,1,1.36,1.1,60.15,60.15,0,0,1,0,9.3C124.68,265.48,122.86,266.52,122.05,268.14Z"/><path class="cls-38" d="M92.46,191.61A5.71,5.71,0,0,0,96,188.89c.77-3.45,4.12-3.47,6.44-4.86,1.44-.68,1.65,1.54,3.15,1.25-.18-2.95-2.93-6,.17-8.82.35,1.91,1.92,3,3,4.41l-.09.94c-.84,1.58.61,2.55,1,3.8.57,1,1.8,1.11,2.5,1.92l-1.41,1.2c.23,2,3.33,1.9,3,4.25l-1.11.17c-1.38,1.07.54,2,.16,3l0,.35c0,2.59,1.38,5,.67,7.7-.37,1.4-.31,3-2.13,3.56l-2.62,1.34-.29-3.42c-1.53-.18-1.84,1.49-3.36,1.65.06-3.64-1.13-7.27.43-11.8a5.11,5.11,0,0,0-2.28,5.76c.6,3.45-2.3,2.83-3.93,3.58-.58.27-1.32-.72-1.33-1.32,0-1.44,2.07.27,2.13-1.63-1.27-.77-2.73-.44-4.12-.13-.87.19-1.34.11-1.36-.86.4-.67-.18-1.31-.07-2a9.51,9.51,0,0,1,.13-1.6c0-.81.31-2-1.1-.77-.48.41-1.65,1.09-1.55.48C92.33,195.23,89.09,193.08,92.46,191.61Z"/><path class="cls-57" d="M124,254.12l-.76-.72c-.57-1.15.1-2,.72-2.82,2.86-3.82,2.82-4.7-.5-8.44-.7-.78-1.44-1.55-.9-2.73l.77-.79,3.19,2c.9-1.58-.36-3.34,1.18-5.16,1.5,6.32,1.57,12.41,2,18.44-.23.53-.47,1.07-.71,1.6A27.22,27.22,0,0,0,124,254.12Z"/><path class="cls-58" d="M120.85,213.14c4,6.56-1.31,14.64,4.85,21.38-2.92-1.37-3.57-2.09-4.24-4.55a17.9,17.9,0,0,1-.45-7.61A30.65,30.65,0,0,0,120.85,213.14Z"/><path class="cls-58" d="M111.37,207.74c1.78-3.07,2.35-6.22.68-9.54-.42-.85-1-1.82.78-1.72a9,9,0,0,1,1.43,7.62,11,11,0,0,0,0,7c-1.37.13-2-.89-2.78-1.73Z"/><path class="cls-59" d="M160,225.72l3.73-10.32c1.08,4.38-1.08,7.53-2.9,10.8Z"/><path class="cls-60" d="M113.75,193c-1.29-.88-2.07-2.45-3.81-2.74-.54-.09-1.23-.44-.8-1.09.23-.34,1-.29,1.56-.42a45.41,45.41,0,0,1,3.86,2.87C116,192.94,114.73,192.92,113.75,193Z"/><path class="cls-61" d="M165,224.76c-1.62,1.81-2.08,4.34-3.61,6.18C161.32,228.12,161.77,225.59,165,224.76Z"/><path class="cls-54" d="M112.8,196.13a16.62,16.62,0,0,0-4.48-4.24c2.14-.78,3.1.61,4.32,1.26a3.92,3.92,0,0,0,.69,1.12c.5.39,1.38.6,1,1.39C114.19,196,113.33,196,112.8,196.13Z"/><path class="cls-60" d="M109.26,186.1l-3.56-5.29c1.48-.58,2,.7,2.91,1l1.47,3.41C110.31,186,110,186.21,109.26,186.1Z"/><path class="cls-62" d="M147.19,219.44c2.23,1,3,2.72,2.71,5.51C148,223.31,147.8,221.29,147.19,219.44Z"/><path class="cls-63" d="M123.47,209.43c.33,0,.49-.05.55,0a4.57,4.57,0,0,1,1.08,4.4c0,.16-.78.36-.81.3A5.66,5.66,0,0,1,123.47,209.43Z"/><path class="cls-64" d="M125.78,204.87c1.2,2.38,2.2,3.73,1,6C125.78,209,125.12,207.6,125.78,204.87Z"/><path class="cls-65" d="M207.41,210.63l1.2,1-1.14.44a3.92,3.92,0,0,1-2.22,1.47,2.66,2.66,0,0,1-2-.72l.05-1.7C204.63,210.61,206,210.06,207.41,210.63Z"/><path class="cls-66" d="M208.14,213.39c-1.08,1.53-2.71,1.3-4.25,1.34l-.65-1.36a17.84,17.84,0,0,1,3.32-.55A4.06,4.06,0,0,1,208.14,213.39Z"/><path class="cls-67" d="M129.15,207.74l-1.08-4.87c2.26,1.76,2.23,3.22,2.14,4.69Z"/><path class="cls-61" d="M109.26,186.1l.82-.88c.71.74,2.15.84,2,2.31A2.4,2.4,0,0,1,109.26,186.1Z"/><path class="cls-68" d="M111.44,209.33c1.38-.16,1.46,1.78,2.78,1.73l-1.44,1A4.88,4.88,0,0,1,111.44,209.33Z"/><path class="cls-28" d="M187.75,235.48l.05,5.15C186.87,238.92,187.26,237.2,187.75,235.48Z"/><path class="cls-58" d="M207.41,210.63c-1.22,1.3-2.68.77-4.1.53l.54-1.2c.22,0,.45,0,.67,0,1,.08,2.13-.23,2.92.73Z"/><path class="cls-69" d="M113.75,186.13c.68,1.06.39,2.25.45,3.39C112.76,188.57,114.21,187.22,113.75,186.13Z"/><path class="cls-70" d="M206.64,213.34l-3.4,0a2.9,2.9,0,0,0,0-.51l1.91-.28C205.83,212.5,206.72,212,206.64,213.34Z"/><path class="cls-3" d="M137.33,30.28a15.51,15.51,0,0,0,6.28-4.11c.34-.32,1-.72,1-.93-1.25-4.94,3.33-8.22,3.59-12.73.05-.89.49-2,1.6-2,1.27.06,1,1.41,1.18,2.22,1.11,5.81,2.58,11.4,8.12,14.76a20.89,20.89,0,0,0,13.23,4.3c1.09.79,2.51-.18,3.59.69a1.47,1.47,0,0,1-1.46,1.26c-2.86,0-4.2.67-2.74,3.88a1.58,1.58,0,0,1-2.18,2,3.46,3.46,0,0,0-2.9.25,1.57,1.57,0,0,1-2.39-1.21c-.22-3.59-2.07-3.78-4.78-2.61a15.24,15.24,0,0,1-1.63.48,4.38,4.38,0,0,1-1.13-.5,2.65,2.65,0,0,0,.26,1.33A20.19,20.19,0,0,0,165.71,47a42.4,42.4,0,0,0,19.9,6.54,11.3,11.3,0,0,0,5.83,0A20.35,20.35,0,0,0,194.39,52c1.11-.83,2-1.22,3.29-.27s1.2,2,.61,3.2c.21,1.82,1.32,1,2.23.76a30.48,30.48,0,0,0,7.19-.6c.84-.16,2-.45,2.47.61.49,1.25-1,1.31-1.57,1.89a18.06,18.06,0,0,1-1.9,1.46c-2,.95-4.09.22-6.12.47-.67.08-1.82-.44-1.59,1,1,.94,2.08,1.85,3.07,2.82.77.76,1.55,1.61.37,2.63a2,2,0,0,1-2.84.23,14.42,14.42,0,0,1-2.51-2.42c-2-2.87-4.16-1.08-6.11-.18-1.39.64-.32,1.59.38,2.12a13.31,13.31,0,0,1,3.78,3.41c-1.69.46-4.57.27-2.27,3.23.54.7,0,1.26-.73,1.64a1.36,1.36,0,0,1-1.88-.31c-1.19-1.52-1.9-3.44-4.4-1.06-.93.89-2.3-.78-2.1-2.52.52-4.52.19-4.92-4.32-5.81-.46.56-.05,1.09.11,1.6s.47,1.13-.09,1.6-1.06,0-1.44-.43c-1.32-1.36-2.47-2.08-2.92.62-.14.87-.73,1.13-1.52,1a1.9,1.9,0,0,1-1.79-1.41c-.53-1.78-.91-3.76-3.61-2.79a1,1,0,0,1-.9-.37c-1.19-4-4.12-2.77-6.8-2.28-1.89-.58-2.25-2.53-3.29-3.65.82,1.38,2.08,2.7,2.49,4.5C164,70.59,171.09,74.94,179,78c11,4.26,22.52,4.73,34.15,4.26,2-.08,3-1.55,4.39-2.59,2.05-1.56,3.77-1,4,1.59.18,2.1,1.22,1.58,2.34,1.19,2.21-.76,4.39-1.59,6.6-2.36.62-.22,1.44-.69,1.88.11s-.18,1.56-.94,2c-1.86,1-3.77,1.86-5.62,2.87-1.5.82-3.26,1.22-4.52,2.63,1.19,1.57,3.13,1.56,4.59,2.43.6.36,1.35.64,1.15,1.52s-1,1.19-1.92,1c-1.72-.32-3.43-.71-5.14-1.08-2-.42-2.67.12-1.69,2.15.44.92,1.69,2.1.15,3-1.24.74-2.14-.42-3-1.12-1.54-1.21-3.06-2.43-5.06-4,.34,5.67,3.13,9.09,7.08,11.86,1.05.74,3,.61,2.9,2.55,0,.8-.63.94-3.63,1a1.9,1.9,0,0,0-.26.59c-.08,1.29,2.4,2.48.62,3.61-1.54,1-2.23-1.14-3.21-2a14.34,14.34,0,0,1-1.53-1.79,4.38,4.38,0,0,0-.74.35c-1.09.87,0,3.76-2.33,3.16-2.12-.56-1-2.8-1-4.3s.33-3,0-4.52c-.86-3.7-1.55-4-4.78-2.19-2,1.12-3.29.54-3.78-1.81-.23-1.06.11-3.19-1.85-2.42-1.41.56-3.83,1.21-2.78,4,.45,1.18,2.11,3,.4,3.59-2.05.64-1.92-2-2.56-3.39a11.68,11.68,0,0,1-.49-2.36c-2.09,1.49-3.84,2.85-6.61,1.55-2-.92-1.33,1.42-1.54,2.48-.16.87.51,2.06-.49,2.57-1.19.59-1.42-.84-2.05-1.42-1-.91-2.14-1.76-3.43-1.13-2.7,1.33-3.09-.2-3.06-2.28a12.79,12.79,0,0,0-1.28-6.1c-.43-.84-.79-2.25-2.24-1-3.35,2.07-3.36,2.07-5.39-2.45-1.82,3-2.65,1.43-3.54-.59-.43-1-.66-2.13-2.23-2.33-3.11-.39-4.2-3.64-2.2-6.18,1.25-1.61,2.78-3.29-.08-4.72-1.08-.54-2.48-1.46-3.59-.6s-.19,2.17,0,3.29c1.77,11.36,7,20.67,16.35,27.5,9.39,7.82,20.37,11.73,32.39,12.62,9.47.7,18.88.09,28-3.18,2.72-1,3.31-.24,2.61,3.14,2.76-.91,4.33-3.25,6.55-4.59.71-.43,1.37-1.09,2.12-.18s.12,1.55-.52,2.09c-2,1.65-4,3.26-5.94,4.89-1.64.87-1.47,1.82-.17,2.9,1.13.95,2.78,1.12,3.83,2.61-2.2,1.5-4.42.79-6.59.38-1.24-.24-2.45-.9-3.67-.91-1.46,0-3.38.15-3.93,1.61s.91,2.43,2.12,3.17a7.26,7.26,0,0,1,1.13.82c.72.79,3,.45,2.3,1.93-.85,1.74-2.42.17-3.55-.35a11.07,11.07,0,0,1-2.53-1.84c-.93-.83-2.33-1.72-3.1-1.09-2.34,1.9-4.13,2.71-5.52-.82,0,0-.5,0-.57.16-1.49,2.61-2.7.81-4.35-1,.27,3.31,2.25,5,3,7.1,1.16,3.37,3.8,2.23,6.09,2.23,1.29,0,2.58-.1,3.62.89.49.46,1.45,1.08.9,1.64-3,3,.67,3.15,1.74,4.4.58.68,2.38.89,1.2,2.24-.82.95-1.8,2.36-3.52,1.27-2-1.23-3.94-2.41-6.74-4.12.53,2.28.84,3.78,1.22,5.26s0,2.22-1.47,2.58-1.78-.7-2-1.74c-.5-3.17-1.43-6.12-4-8.24-.59-.72-1.14-1.48-1.79-2.13a1.94,1.94,0,0,0-2.26-.46c-1,.47-.59,1.35-.43,2.13a10.65,10.65,0,0,1,.3,1.36c.09.77.64,1.69-.32,2.21s-1.45-.4-2.06-.9c-.88-.73-1.42-1.85-2.84-2.3-.78,1.74.15,3.38.23,5,.05,1,.38,2.25-1.1,2.54-1.27.25-1.93-.55-2.3-1.66-.29-.89-.56-1.78-.91-2.65-.2-.5-.32-1.12-1.08-1.19-2.67-.26-2.8-.31-2-3,1-3.09,1.77-5.94-2.52-7.09-.74-.2-1.44-1.11-2.21-.39-.59.55,0,1.3.09,2,.1.85,1,2-.23,2.47s-1.4-.93-2-1.58-1-2.09-2.4-1.26c-1.13.68-.83,1.82-.61,2.85a38.76,38.76,0,0,0,3.22,8.85c-3.42-1-3.41-5-5.93-6.78-1.73.67-.18,4-2.23,3.58-1.87-.38-.69-2.81-.85-4.32-.12-1.1-.34-1.84-1.63-1.55-1.77.4-2.35-1.12-3.27-2-.25.11-.51.14-.61.28-.77,1.11,0,3.68-2.07,3.31s-.79-2.53-.94-3.92c-.18-1.8.56-3.71-.62-5.4-.91-1-2.71.92-3.29-1-.41-1.34.47-2.2,1.35-3,1.07-1,1.4-2,.08-2.85s-2.11-3-4-1.35c-2.77,2.4-2.92.29-3.2-1.74-.29-2.23,1.31-5.27-3-5.63-1.22-.1.18-2.85-1.06-4-.22.12-.57.21-.58.32-.61,14.67-1.34,29.35,4.57,43.33a40.43,40.43,0,0,0,4.33,7.56l2.57,3.69c.42.62,1.5,1.16.75,2s-1.72.07-2.4-.44c-2.79-2.1-4.9-4.89-7.26-7.42-.81-1.55-1.59-3.12-2.45-4.65-.42-.74-.56-2.12-1.75-1.77s-.69,1.61-.68,2.48c.19,14.12.3,28.24.71,42.35.1,3.57-1,4.62-4.49,4.55-6-.11-5.67.12-5.58-6,.24-15.41.18-30.82.28-46.23,0-2.5-.33-4.95,1.57-7.25,1.21-1.47.85-3.92.27-5.79-1.06-3.48-1.94-6.9-.78-10.58-2.6,2.2-2,4.94-1.51,7.59.32,1.59,1.16,3.06,1.12,4.74,0,1.52.39,3.39-2.32,1.83-1.65-1-2.44.37-2.19,1.85a6.52,6.52,0,0,1-1,4.66,2.08,2.08,0,0,0-.35,2c1,2.23,2.91,4.45-.85,6.26-.88.42.07,2.4.12,3.67s.77,2.94-.69,3.45-1.08-1.77-2.48-2.45l-2.95,5.65c-5.43,2-.27-2.42-2.21-2.88-1.72.95-2.24,3.51-4.14,4.71-.68.42-1.39,1.24-2.15.6-1.05-.89,0-1.65.51-2.34s1-1,1.39-1.57c1.47-2,3.9-3.94,0-6-.46-.25-.54-1.2-.91-2.08-1.87,1.17-2.5,3.14-3.72,4.59-4.31.63-1.1-3.08-2.48-4.23-1.82.26-2.89,1.7-4.17,2.85-2.07,1.88-2.12,1.89-3.13-.61-.31-.75-.81-.75-1.37-.68-.8.11-1.59.37-2.4.45-1.35.13-3.25.64-3.56-1.13-.36-2,1.94-1,2.75-1.61,6-4.8,14.68-3.13,20.41-8.71a48.15,48.15,0,0,0,7.22-8c6.86-8.33,11.12-21.91,9.17-29.58-1.19.69-.63,1.86-.81,2.78s-.38,2.14-1.48,2c-3.55-.3-3.27,2.27-3.75,4.49-.38,1.7-.72,4.41-3.22,1.34-1-1.27-1.89-.77-2.36.33-.67,1.57-3.67,2.58-1.39,4.92,1,1,2.35,1.58,2.56,3.16-.41.33-.76,1.2-1.37.66-1.79-1.6-1.82-.58-1.59,1a8.81,8.81,0,0,1-1.12,6.38c-.56.86-1.08,2.21-2.2,1.91-1.28-.35-.63-1.75-.61-2.72s.67-2-.19-3.09c-1.87.67-.76,2.79-1.88,3.73-.59,0-.83-.35-.85-.84-.06-1.43,0-3.1-1.88-3.2s-2.34,1.68-2.82,3.08c-.71,2,0,3.89,1,5.66a1.91,1.91,0,0,1,0,2.54c-.87,1-1.46.5-2.34-.1-2.26-1.56-2.17,1.11-3.11,1.92-.62.54-.71,2.06-2,1.4-.88-.47-.23-1.48,0-2.22a15.79,15.79,0,0,1,.9-2.64,4.06,4.06,0,0,0-.72-4.81c-1.36-1.58-2.55.23-3.84.08-1-.88.66-2.34-.67-3.12-1-1.12-1.79-2.83-3.53-1.06-1.37,1.38-3.67,2.53-1.54,5.09a14.46,14.46,0,0,1,1.94,3.29c.52,1.15.09,3.14-.64,3.07-3.47-.29-3.52,2.64-4.79,4.44-.4.57-.89,1.17-1.71.81s-.67-1.13-.49-1.81c.62-2.45-.47-2.5-2.39-1.89s-2.77-.18-2.38-2.33c.27-1.46,2.33-3.38.53-4.27s-3.92.63-5.28,2.39c-2,1.86-2.06,4.67-3.42,6.83-.69,1.08-1.38,2.16-2.16,3.17a1.69,1.69,0,0,1-1.81.8c-.94-.29-1-1.12-1.12-2-.5-4.1-.52-4.1-4.08-2.61-1.07.45-2.23,1.21-3-.35-.68-1.4.69-1.75,1.46-2.35,1-.83,2.85-1.47.56-3-.59-.38-1.22-.84-.78-1.68s1.38-.8,2.15-.5c8.55,3.31,11.27-5.12,17.3-7.72-1.47-1.2-1.91-.4-2.46-.08-.86.49-1.68,1.83-2.68,1-1.16-1,.51-1.46.82-2.21a2.71,2.71,0,0,0-1.37-3.55,4.59,4.59,0,0,0-5.19,1.83,8.63,8.63,0,0,0-.87,2.28c-.42,1-.47,2.49-1.86,2.74-1.78.31-1.16-1.32-1.46-2.16s-1-.81-1.68-.48c-1.14.59-2.21,1.33-3.37,1.87s-2.53,2.31-3.85.22c-1.22-1.93.85-2.31,1.74-3.14s2.5-1.46,2.08-3.27c-.38-1.63-.86-2.88-3-2.08-2.63,1-5.34,1.66-8,2.45-.64.18-1.44.55-1.72-.45-.2-.7.42-1,.93-1.28.9-.54,2.66-.52,1.93-2.25s-.94-3.92-3.45-3.81-3.66-1.71-4.95-3.35a1.51,1.51,0,0,1-.06-2.19c.72-.79,1.43-.53,2.19-.1,1.12.63,2.24,1.26,3.38,1.85,1.69.88,3.28,2.35,5.15,0,.73-.91,2,.15,2.92.45,13.19,4,26.39,6,39.75.68a61.91,61.91,0,0,0,14.32-8c9.28-6.67,17.79-14,21.69-25.27a13,13,0,0,0,.75-5.16c-.12-1.77-.21-3.91-2.32-4.15A3.59,3.59,0,0,0,139,77.55c-.48,1.81-.63,3.74,1.72,4.7.81.34,1.82.57,2.06,1.69a2.3,2.3,0,0,1-3.08,2.68c-2.06-.77-2.9-.31-3.39,1.83-.4,1.73-.37,5.06-3.62,2-2.42,1.92-5.6,1.63-8.19,2.8-1.11.51-.36,3-.5,4.66-.16,1.95.55,4.66-3.2,2.85-1.57-.75-2.4.89-3.15,2.1-.46.73-.8,2-2,1.25-.86-.49-.67-1.4-.33-2.2,1.34-3.14-1.57-3.53-2.81-3.05-2.93,1.15-6.93,1-8,5.15-3.15.79-1.73-1.08-1.27-2.26.52-1.35,1.78-2.63-.19-3.91-1.68-1.09-3.46-3.48-3.71,1-.1,1.75-.85,2.68-3,1.44-2.37-1.33-4.89.47-5.09,3.2-.08,1,0,2.11-.08,3.15-.14,1.43.56,3.22-1.21,4.07s-2-1.55-3.54-2L84.09,113c-.49.94-1.14,1.54-2.23.91a1.52,1.52,0,0,1-.63-2.37c1.2-1.72,1.08-2.68-1.24-2.88a1.66,1.66,0,0,1-1.47-1.7c-.12-1.44.78-2.13,1.92-2.59,3.22-1.3,6-3,7.46-6.43.53-1.22,1-2.07-.43-2.9-1.19-.7-2.27-1.87-3.65-.33a19.06,19.06,0,0,1-1.5,1.48c-.5.44-.94,1.18-1.75.82s-.7-1.18-.47-1.83c.76-2.11-.42-2.45-2.09-2.37-1.28.05-2.57.07-3.84.19-1.09.1-2.17.32-2.49-1.15-.28-1.3.54-1.92,1.54-2.42l5.46-2.74c-3.77-1.28-6.7-2.27-9.62-3.28-1.28-.44-2.51-1-1.84-2.71s2-.65,2.9-.38c1.45.43,2.81,1.16,4.24,1.64,1.71.57,3.84,2.71,4.54-1.19C79,80,80.42,80,81,80.6c5.54,5.14,12.1,4,18.58,3,8.45-1.23,16.79-2.89,24.4-7.06,9.25-3.86,18.55-16.66,19-24.73-1.71,3.43-3,6.08-4.36,8.68-.41.77-.83,1.91-2,1.6S136,60.76,136,60c0-1.92-.91-1.83-2.21-1.18-2,1-5.23,1.19-3.1,4.87.3.52-.21,1.12-.71,1.46s-1.13.46-1.49.87c-2.21,2.58-5,2.81-8.19,1.78a1.65,1.65,0,0,0,0-.57c-.32-1.79,2.69-4.22-.26-5.26s-6.86,1.88-7.26,4.81c-.25,1.78-.47,3.58-2.88,3.63-1.18,0-1.6,1.29-2.83,1.65-.73-1.11.12-3.67-2.76-3.15-.8.15,0-1.3.17-2,.92-1,2.52-1.78,1.1-3.38s-2.79-1.38-4.3-.11a23.66,23.66,0,0,1-3.14,2.21c-.87.52-1.26,0-1.4-.86,1.85-1.19,1.79-3,1.15-4.65s-2.19-.88-3.4-1c-.69-.06-1.39,0-2.09,0s-1.47-.18-1.57-1,.53-1.49,1.44-1.64c1.72-.28,3.44-.53,5.17-.79.79-.12,2,.05,2.12-.83.53-4.18,2.81-2.07,4.73-1.46,7.18,2.28,13.77-.17,20.36-2.58,9-3.3,14.65-10,18.69-18.36a1.08,1.08,0,0,0,0-1.35c-1.34,0-1.49,1.2-2,2-1.18,2.06-2.23,4.16-5.23,3.67-1-.17-1.7.56-2.24,1.39-1.25,2-2.78,1.63-4.8,1.11-2.35-.6-1.55-2.16-1.39-3.25.46-3.1-2.17-2.62-3.79-3.71C128.42,31.77,133.06,32.14,137.33,30.28Z"/><path class="cls-8" d="M159.68,62.77a25.7,25.7,0,0,1-5.18-8.34l.78-.54,5.2,8Z"/><path class="cls-8" d="M156.93,37.43c-1.18-1.46-2.45-2.87-2.78-5.45,2.23,1.31,2.55,3.27,3.65,4.62Z"/><path class="cls-8" d="M199,60.55c-.64-1.36.43-1.29,1.18-1.32,2.17-.11,4.35-.14,6.53-.2C204.4,60.89,201.33,58.84,199,60.55Z"/><path class="cls-8" d="M191.44,53.57a6.57,6.57,0,0,1-5.83,0Z"/><path class="cls-8" d="M200.52,55.67c-1,.35-2.2,1.58-2.23-.76A3.13,3.13,0,0,0,200.52,55.67Z"/><path class="cls-8" d="M175.88,32.5c-1.21-.19-2.5.09-3.59-.69C173.52,31.83,174.82,31.55,175.88,32.5Z"/><path class="cls-39" d="M143.59,142.5v10.43C139.81,149.42,143.18,146,143.59,142.5Z"/><path class="cls-71" d="M143.74,79.45c-.31.74.48,2.2-1.06,2-1.33-.16-2.66-.66-2.53-2.59.09-1.44,1-2.3,2.07-2.28C144,76.62,143.46,78.35,143.74,79.45Z"/><path class="cls-72" d="M207.44,210.66c-.94-.39-2.14.27-2.92-.73,1.27-.76,2.66-.59,4-.74C208.81,210.32,207.28,209.77,207.44,210.66Z"/><path class="cls-73" d="M206.64,213.34l-1.47-.76a2.67,2.67,0,0,1,2.3-.47l.67,1.28Z"/><path class="cls-74" d="M94.7,197.34A1.9,1.9,0,0,1,96,198.75c-.7.44-1.34,1-2.07,1.37C92.1,198.59,93.63,198,94.7,197.34Z"/><path class="cls-75" d="M93.88,200.12c.56-.66.74-1.89,2.07-1.37l-1.31,2.16Z"/><path class="cls-35" d="M156.57,80.54c-.2-1.71-1.5-2.7-.24-3.69.3-.23,1.53.17,1.8.61C158.94,78.74,157.58,79.15,156.57,80.54Z"/><path class="cls-38" d="M122.57,239.41a16.36,16.36,0,0,0,1.49,1.4c5.17,3.78,5.27,7.22.32,11.32a11.39,11.39,0,0,0-1.13,1.27c-2.5,2.4-1.16,5.43-1.26,8.18-.1,2.46-.7,4.11-3.6,3.71-.8,2.09-2.78,1.69-4.39,2.06l-1.78-1.52A18,18,0,0,1,114.93,252c.38-.58.88-1.08.76-1.86,2.64-1.63,2.75-4.73,4.12-7.1C120.57,241.67,120.68,239.86,122.57,239.41Z"/><path class="cls-64" d="M114,267.35c.68-.61.11-3.38,2.38-1.3.77.69,1.2-.83,2-.76.33,2.12-1,3-2.69,3.66Z"/><path class="cls-76" d="M168.85,261.31c-1.2.81-2.53.52-3.84.45Z"/><path class="cls-77" d="M165.31,266.13c-.65.06-1.62,1.35-1.83-.07-.17-1.08,0-2.64,1.64-2.95,1.46-.26,2.93-.44,4.4-.65Z"/><path class="cls-78" d="M178.18,266.13l-.88-.74c.54-1.3.92-2.76,2.71-2.89C180.3,264.16,178.94,265,178.18,266.13Z"/><path class="cls-79" d="M168.79,266l5-1.33c-.74,1.71-1.62,2.11-2.84,2C170.29,266.11,169.32,266.77,168.79,266Z"/><path class="cls-80" d="M168.79,266l2.11.64a4.47,4.47,0,0,0-2.68.94l-.15-1.14Z"/><path class="cls-81" d="M124,254.12l3.78-2.61c.44,1.47.82,2.74,1.21,4,.43,2.61.82,5.23,1.31,7.83.44,2.28-.71,3.13-2.74,3.37-1.58.2-3.27.15-4.49,1.48l-1-.06C124,263.65,122.62,258.69,124,254.12Z"/><path class="cls-54" d="M99.19,191.61a3.88,3.88,0,0,0-.71-3.92c2.15-.09,3.88,0,5.24,1.05s1.12,1.79-.74,1.57c-1,0-1.32.87-2,1.29C100.39,191.7,99.79,192.3,99.19,191.61Z"/><path class="cls-82" d="M100.88,191c-.09-.55-.35-1.24.41-1.44a1.25,1.25,0,0,1,1.69.75l-.66,1.28a.59.59,0,0,1-.67.38A1.16,1.16,0,0,1,100.88,191Z"/><path class="cls-83" d="M101.66,191.56l.66,0c-.06.73.68,1.63-.38,2.15-.48.23-1.22.7-1.52.1-.48-1,.88-.77,1.14-1.34A.59.59,0,0,1,101.66,191.56Z"/><path class="cls-84" d="M101.66,191.56l-.1.94c-.65-.66-2.13.86-2.37-.89l1.69-.61Z"/></svg>