<svg id="Layer_1" data-name="Layer 1" xmlns="http://www.w3.org/2000/svg" viewBox="0 0 300 300"><defs><style>.cls-1{fill:#181716;}.cls-2{fill:#00529f;}.cls-3{fill:#babbbb;}.cls-4{fill:#b9baba;}.cls-5{fill:#bababa;}.cls-6{fill:#b8b9b9;}.cls-7{fill:#b7b8b8;}.cls-8{fill:#b6b7b7;}.cls-9{fill:#b5b6b6;}.cls-10{fill:#b1b1b1;}.cls-11{fill:#b3b4b4;}.cls-12{fill:#b4b5b4;}.cls-13{fill:#b3b3b3;}.cls-14{fill:#adadad;}.cls-15{fill:#a9aaaa;}.cls-16{fill:#323130;}.cls-17{fill:#2e2e2d;}.cls-18{fill:#939494;}.cls-19{fill:#616160;}.cls-20{fill:#535352;}.cls-21{fill:#717271;}.cls-22{fill:#3b3b3a;}.cls-23{fill:#af895b;}.cls-24{fill:#1e1d1c;}.cls-25{fill:#403f3f;}.cls-26{fill:#858685;}.cls-27{fill:#3f3f3e;}</style></defs><path class="cls-1" d="M139.24,299.57a121.32,121.32,0,0,1-38.12-9.13A126.57,126.57,0,0,1,63.34,266a131,131,0,0,1-35.47-55.65,99,99,0,0,1-5.39-28c-.69-1.66.21-3.48-.5-5.14q0-87.15,0-174.3c0-1.78.19-2.43,2.27-2.43Q150,.54,275.79.43c2.09,0,2.27.65,2.27,2.43q-.07,88.7,0,177.37c-.65,1,.13,2.13-.49,3.09a118.66,118.66,0,0,1-9.42,37.77,128.48,128.48,0,0,1-21.83,35c-14.17,16.16-31.17,28.44-51.45,36a123.25,123.25,0,0,1-34.07,7.53c-1.48.64-3.13-.18-4.61.49h-12.3C142.37,299.39,140.72,300.21,139.24,299.57Z"/><path class="cls-2" d="M149.88,3.05H272c3.47,0,3.47,0,3.47,3.42q0,83.33,0,166.66a122.66,122.66,0,0,1-2.11,22.38c-.19,1-.38,2-1.49,2.49-5.11,2.37-9.19,6.16-13.4,9.77A35.48,35.48,0,0,1,247,214.84a14.46,14.46,0,0,1-9.54.22c-2.66-.9-3.84-2.76-3.55-5.23.26-2.2,1.65-3.09,3.71-3s3,1.16,2.65,3.17c-.24,1.28.47,1.42,1.37,1.61a5.06,5.06,0,0,0,6.15-4,8.28,8.28,0,0,0-3.95-9.23A15,15,0,0,0,231.49,197c-5.31,1.51-9.57,4.8-13.64,8.35a59.2,59.2,0,0,1-10.4,7.84c-4.06,2.21-8.3,3.65-13,2.32a5.4,5.4,0,0,1-4.11-3.48,3.69,3.69,0,0,1,.78-4,3.46,3.46,0,0,1,3.78-.85c1.56.56,2,1.78,1.64,3.3-.25,1.19.68,1.22,1.37,1.39a5.18,5.18,0,0,0,6.31-4.46,8.7,8.7,0,0,0-5.59-9.61,16.75,16.75,0,0,0-13.9.55,45.75,45.75,0,0,0-11.1,7.7c-3.9,3.47-7.91,6.78-12.81,8.8a14.91,14.91,0,0,1-10.73.67c-2.19-.74-3.66-2.21-3.66-4.7a3.28,3.28,0,0,1,3.52-3.54c2.21,0,3.42,1,2.93,3.37-.21,1,.29,1.16,1,1.35a5.1,5.1,0,0,0,6.42-3.58c1.24-4-.71-8.19-4.83-10.15-4.8-2.29-9.6-1.91-14.34.25a46.86,46.86,0,0,0-11.51,8,47.88,47.88,0,0,1-11.24,8A16.35,16.35,0,0,1,107.49,216c-3.18-.73-4.89-2.74-4.65-5.47a3.32,3.32,0,0,1,3.84-3.18c1.94.21,3,1.28,2.53,3.3-.26,1.15.43,1.28,1.19,1.5a5.08,5.08,0,0,0,6.24-3.49,8.35,8.35,0,0,0-4.29-10c-4.69-2.51-9.53-2.28-14.33-.28s-8.61,5.17-12.38,8.52a46,46,0,0,1-11.06,7.76c-3.67,1.7-7.44,2.51-11.43,1.3-2.62-.79-4.16-2.69-4.08-4.93a3.43,3.43,0,0,1,3.59-3.55c2,.06,3.23,1.09,2.86,3.28-.21,1.25.52,1.45,1.43,1.62a5.1,5.1,0,0,0,6.19-4.29,8.47,8.47,0,0,0-4.92-9.48c-4.78-2.34-9.59-2-14.34.16-4.57,2.06-8.4,5.2-12.1,8.49a71.31,71.31,0,0,1-7.7,5.93c-1.54,1-2.28.84-2.91-1-4-11.62-6.53-23.54-6.56-35.84q-.16-70.4-.07-140.8c0-9.9.08-19.8-.06-29.69,0-2.43.77-2.94,3-2.94Q88.71,3.09,149.88,3.05Z"/><path class="cls-3" d="M272.47,199.48a119.72,119.72,0,0,1-13.53,34.32c-18.25,30.89-44.21,52.26-79.49,60.06-50,11.06-92.29-3.19-125.91-42.07-8.6-9.93-15-21.29-20.08-33.4-.75-1.79-.67-2.76,1.19-3.77,3.84-2.09,7-5.16,10.29-8,4.06-3.44,8.29-6.6,13.66-7.71A13.42,13.42,0,0,1,68,200.3a6.91,6.91,0,0,1,3.63,7.53A3.44,3.44,0,0,1,69,210.9c-.84.19-1.7.34-1.8-1a3.87,3.87,0,0,0-3.79-3.79,4.85,4.85,0,0,0-4.94,2.05,5.63,5.63,0,0,0,0,6.3c1.63,2.66,4.36,3.39,7.24,3.66,4.35.41,8.22-1.08,11.92-3.16,4-2.23,7.33-5.26,10.74-8.23a40,40,0,0,1,10-6.68,15,15,0,0,1,12.63-.3c3.6,1.6,5.22,4.89,4.33,8.3a3.53,3.53,0,0,1-2.72,2.74c-.84.22-1.44.19-1.58-1a4.07,4.07,0,0,0-4-3.92c-2.1-.18-4,.43-5,2.38a5.62,5.62,0,0,0,.53,6.49c2.47,3.06,6,3.42,9.56,3.12,5.57-.46,10.11-3.35,14.41-6.66,3.58-2.76,6.73-6.05,10.52-8.56,4.66-3.09,9.51-5.37,15.34-4,4.42,1.07,7.21,4.26,6.84,8-.16,1.7-.73,3.22-2.55,3.76-1,.29-1.83.46-2.09-1.2-.4-2.59-2.15-3.7-4.77-3.55a4.83,4.83,0,0,0-4.78,4.17c-.53,3.17,1.35,6.09,4.82,7.18,4.37,1.39,8.59.67,12.68-1.22a47.74,47.74,0,0,0,11.5-8c3.58-3.18,7.27-6.2,11.69-8.18a15,15,0,0,1,12.4-.41c3.53,1.48,5.26,4.51,4.68,7.92a3.63,3.63,0,0,1-2.6,3.17c-.92.27-1.68.41-2-1.09a4.24,4.24,0,0,0-5.34-3.73,5.05,5.05,0,0,0-4.26,5.75c.31,2.85,2.42,5,5.66,5.86,4.18,1.07,8.11.25,11.93-1.51A48.72,48.72,0,0,0,218,207.21a45.29,45.29,0,0,1,11.08-7.73c4.32-2,8.71-2.35,13.09-.27a6.94,6.94,0,0,1,4.11,8,3.37,3.37,0,0,1-2.57,2.86c-.91.23-1.48.27-1.83-1-1-3.5-3.43-4.7-6.57-3.47-2.84,1.1-4,4.54-2.46,7.55,1.34,2.63,3.75,3.58,6.47,4,4.61.66,8.77-.66,12.72-2.9a60.14,60.14,0,0,0,10-7.52A42.47,42.47,0,0,1,272.47,199.48Z"/><path class="cls-1" d="M270.11,116.8c-1.74,4-4.85,5.65-8.67,6-2.42.23-4.73.39-6.52,2.33-.49.53-14.83,4.43-15.54,4.27a12.26,12.26,0,0,0-8.63.74,1.72,1.72,0,0,1-1,.2c-4.87-.71-9.72-.2-14.6,0-2.39.07-4.8-.71-7.2.28a2.72,2.72,0,0,1-1.75.24c-4.42-1.5-9,.57-13.38-.52a2,2,0,0,0-2,.51c1.13,1.77,3,2.35,4.75,3.2,3.32,1.65,4.16,3.73,2.92,7.31-.89.07-1.23-.8-1.88-1.14a3,3,0,0,0-2.39-.73,8.76,8.76,0,0,1,1.66,4.84c-1,.1-1.7-.6-2.44-1-6.51-3.82-13.17-4.33-20-1-1,.49-2.05.86-3,1.43-12.37,7.48-25.26,7.32-38.38,2.46a4.45,4.45,0,0,0-5.07.91,25.3,25.3,0,0,0-5.21,6.26c-2.23,3.8-3.35,4-6.73,1.43-.81-.63-1.44,0-2.13.12-1.76.43-3.47.53-4.55-1.24-.58-.95-1.23-.89-2.14-.72-2.21.4-4.13,0-5-2.43a1.56,1.56,0,0,0-1.77-1.09,8.1,8.1,0,0,1-2-.21c-1.53-.4-3-1-3.2-2.86s1.25-2.7,2.73-3.27c6.94-2.66,14.18-4.31,21.26-6.52,1.07-.33,3.12-.2,2.92-1.61-.22-1.65-2.08-.85-3.28-.83s-2.67.11-3.37-.82c-1.42-1.89-3.09-1.59-5-1.26-1.25.23-2.78.47-3.75-.34-2.29-1.92-4.57-1.46-7.09-.73a5.22,5.22,0,0,1-4.48-.44c-1.83-1.33-3.51-1-5.46-.42-3.89,1.24-7.83,2-11.49-.8-.71-.53-1.46-.15-2.21,0q-2.62.54-5.27,1c-1.3.22-2.9.29-3.71-.53-2.44-2.49-5.17-1.69-8-1.36a8,8,0,0,1-6.49-1.72,2.52,2.52,0,0,0-2.61-.33,30.43,30.43,0,0,1-7.83,1.08,11.24,11.24,0,0,1-4.72-1c-1.48-.7-3.44-1.64-3.27-3.2s2.29-.73,3.54-.92A85,85,0,0,0,60,114.8c12.73-6,25.42-12.1,39.11-15.7,8.29-2.17,16.62-3.76,25.26-2,7,1.45,11.8,5.32,14.25,12.13,1.38,3.84,2.55,7.79,4.83,11.26,1,1.57,2,2.19,4.15,1.61a34.54,34.54,0,0,1,20.15.83,10.13,10.13,0,0,0,7.87-.41c8.15-3.71,15.75-8.35,21.93-14.81,7.26-7.59,15.46-8.85,25-5.47,7.17,2.54,14,5.86,20.9,9A70.67,70.67,0,0,0,263.24,117C265.47,117.31,267.64,116.87,270.11,116.8Z"/><path class="cls-1" d="M135.71,64.35c.62-4.24,1.16-8.29,1.83-12.32a3.53,3.53,0,0,0-1.06-3.43c-2.67-2.63-5.27-5.34-7.85-8.07-.54-.57-1.65-1.08-1.27-2,.27-.66,1.35-.56,2.1-.69,3.69-.64,7.37-1.37,11.08-1.9a3.45,3.45,0,0,0,2.87-2.13c1.72-3.43,3.54-6.8,5.35-10.19.3-.57.44-1.46,1.21-1.49s.94.87,1.24,1.44c1.69,3.16,3.47,6.27,5,9.52a4.85,4.85,0,0,0,4.23,3c3.55.47,7.06,1.19,10.59,1.74,1.79.28,2.31.76.81,2.25-2.67,2.63-5.18,5.43-7.87,8a4.22,4.22,0,0,0-1.41,4.28c.73,3.76,1.15,7.58,1.73,11.37.24,1.56-.07,2.09-1.68,1.25-3.57-1.83-7.21-3.5-10.76-5.35a3.4,3.4,0,0,0-3.56,0c-3.63,1.88-7.34,3.62-11,5.45C136.05,65.78,135.46,65.66,135.71,64.35Z"/><path class="cls-1" d="M231.42,66c-4.38-2.16-8.32-4-12.13-6a4.5,4.5,0,0,0-4.74,0c-3.83,2-7.75,3.84-12.11,6,.69-5,1.25-9.57,2-14.07a3.5,3.5,0,0,0-1.11-3.4c-3.19-3.18-6.31-6.43-9.87-10.08,4.16-.75,7.78-1.65,11.45-2a7.18,7.18,0,0,0,6.64-4.84c1.44-3.36,3.36-6.51,5.34-10.28,1.59,3,3.31,5.43,4.25,8.15,1.77,5.13,5.27,7.17,10.47,7.45a28.62,28.62,0,0,1,8.5,1.67c-3.13,3.26-6,6.41-9,9.35a5.09,5.09,0,0,0-1.58,5C230.18,57.07,230.71,61.21,231.42,66Z"/><path class="cls-1" d="M106.18,38.83c-3.09,3.16-6.14,6.36-9.27,9.45a3.81,3.81,0,0,0-1.32,3.81c.66,3.43,1.06,6.91,1.53,10.37.12.91.62,2.09-.07,2.7s-1.72-.3-2.51-.68C91.3,63,88.07,61.41,84.9,59.75a3.47,3.47,0,0,0-3.57,0c-3.33,1.73-6.71,3.35-10.08,5a4.46,4.46,0,0,1-2.59.82c.59-4.09,1.08-8.13,1.79-12.13a5.62,5.62,0,0,0-1.72-5.7c-3-2.83-5.78-6-9-9.32,4.58-.8,8.65-1.63,12.76-2.18a5.34,5.34,0,0,0,4.59-3.35c1.78-3.75,3.84-7.37,6-11.55,2.23,4.24,4.31,8,6.2,11.86a4.67,4.67,0,0,0,4,3c3.47.42,6.89,1.13,10.33,1.73A3.83,3.83,0,0,1,106.18,38.83Z"/><path class="cls-3" d="M127.5,143.8c.78.71.07,1-.4,1.31a24,24,0,0,0-6.82,7.8c-.69,1.18-1.47,3-3.2,1.91-1.54-1-.68-2.54.12-3.83.32-.53,1.11-.86.86-1.74-.9-.34-1.1.54-1.53.93-1,.84-1.78,1.84-2.79,2.6-1.19.9-2.75,1.58-3.9.28s.15-2.47,1-3.47c.45-.49,1.13-.79,1.26-1.54a2.55,2.55,0,0,1,1-.85s-.06,0-.09,0a1.24,1.24,0,0,1-1,.17c-1.43,1.08-2.85,2.16-4.3,3.21s-3.36,1.86-4.57.24c-1.44-1.92.64-3.12,1.83-4.3a9.26,9.26,0,0,1,1.92-1.16c.83-1.23,2.33-1.21,3.42-1.89l-.09,0a21,21,0,0,1-3.83,1.41,9.48,9.48,0,0,0-3.39,1.54,8.94,8.94,0,0,1-4.56,1.43c-1.09,0-2.45-.27-2.66-1.54s1.11-1.56,2-1.91c6.54-2.46,13.37-4,20-6.11,3.8-1.21,7.43-2.28,11.61-1.4,3.45.72,6.91-.69,10-2.38,3.35-1.83,6.69-3.4,10.65-2.13a2.84,2.84,0,0,0,1.26,0c.22,0,.41-.23.78-.46-2.27-.6-4.34-1.23-6.46-1.69-7.44-1.6-12-6.4-14.69-13.23-.69-1.74-1.28-3.51-1.94-5.27-2.12-5.65-6.28-8.54-12.23-8.82a118.7,118.7,0,0,0-26.21,1.81c-.84.14-1.68.24-2.52.36-.58.21-.7-.07-.61-.57A95.45,95.45,0,0,1,114,98a33.38,33.38,0,0,1,12.64,1.36,14.53,14.53,0,0,1,9.75,8.71c1.18,2.92,2.21,5.9,3.42,8.8,2.17,5.2,5.47,9.42,10.72,11.82a5,5,0,0,0,3.75.73c-2.82-1.65-5.75-2.69-7.83-5.37a31.7,31.7,0,0,1,18-.35c5.06,1.31,10.07,2.45,15.34,2.41a9.56,9.56,0,0,1,8.51,4.31,13.27,13.27,0,0,0,6.39,4.91c1.35.53,2.65,1.26,2.85,3.34-3.08-1.3-6.1-2.34-9.52-1.26,1.25,1.33,3.19,1.55,4.43,3-.8.51-1.38,0-1.88-.23-5.58-2.46-11.11-2.09-16.61.25a36.64,36.64,0,0,0-4.61,2.18c-12.32,7.34-25,6.69-37.87,1.79-1.11-.42-2.25-.75-3.38-1.12C127.6,143.13,127.29,143.18,127.5,143.8Z"/><path class="cls-3" d="M228.82,107.6c-3-.3-6-.47-8.9-.93a18.25,18.25,0,0,0-16.14,5.16,59.61,59.61,0,0,1-14.27,10.25c-4.21,2.13-8.47,3.42-13.35,2a93.93,93.93,0,0,0,12.1-6.85A64,64,0,0,0,199.54,108c5.92-6.26,12.93-7.31,20.83-4.83,3.42,1.07,6.73,2.4,10,3.8C230.27,108.28,229.43,107.64,228.82,107.6Z"/><path class="cls-3" d="M84.26,111.76a5.26,5.26,0,0,0,3.6,4.33,190.58,190.58,0,0,1-19,8.27,45.94,45.94,0,0,1-9.65,2.42c-2.35.31-4.72.44-6.94-1.58C63.44,121.7,73.62,116.63,84.26,111.76Z"/><path class="cls-3" d="M35.5,124c12.22-1.56,22.69-6.64,33.21-11.59,2-.93,4.11-3,5.62.66.16.38.83.55,1.26.82-.07.14-.1.37-.22.42-10,4.76-20,9.41-31,11.33C41.45,126.19,38.52,126.21,35.5,124Z"/><path class="cls-3" d="M64.87,127.05c10.69-3.31,20.34-8.35,30.21-12.88.83-.38,1.39-.52,1.54.67s1.38,1.79,2.88,2.56C90.2,121,82.14,126,72.92,128.28,68.8,129.3,67.31,129.05,64.87,127.05Z"/><path class="cls-3" d="M108.64,120.61c-7,2.78-13.6,5.92-20.55,8.17-4.43,1.44-7,1.19-9.59-.68l19.56-8.79c.93-.42,1.89-.76,2.8-1.22,1.82-.92,3.49-1.83,4.89.75C106.16,119.6,107.42,119.9,108.64,120.61Z"/><path class="cls-3" d="M118.25,104.76c-9,1.83-17.43,5.28-25.66,9.16a6.54,6.54,0,0,1-4.68.71,2.59,2.59,0,0,1-2.09-2.31c-.1-1,.57-1.51,1.4-1.89,9.14-4.19,18.52-7.31,28.8-6.41A2.81,2.81,0,0,1,118.25,104.76Z"/><path class="cls-3" d="M125.62,108.31c-7.86,1.67-15,4.6-22.27,7.13a8.81,8.81,0,0,1-3.53.37c-.89-.07-1.78-.3-2-1.3-.24-1.22.57-1.91,1.59-2.3,3.73-1.41,7.45-2.88,11.24-4.16a94,94,0,0,1,9.39-2.34C122.62,105.13,124,106.33,125.62,108.31Z"/><path class="cls-3" d="M229,118.45c1.1-.86,2.37-1.19,2.75-2.46.21-.69.7-.55,1.22-.34a146.68,146.68,0,0,0,22.5,7.31,12.84,12.84,0,0,1-10.81,2.1C239.15,123.71,234.25,120.92,229,118.45Z"/><path class="cls-4" d="M110.59,119.29a24.15,24.15,0,0,1-2.65-.58c-1-.33-2-.8-2.1-2s1.25-1.21,2-1.51a144.07,144.07,0,0,1,16.75-5.42c1.79-.46,2.4.19,3,1.64.85,2-.9,1.72-1.68,2.06-3.67,1.57-7.39,3-11.13,4.48C113.45,118.54,112,118.88,110.59,119.29Z"/><path class="cls-4" d="M244.65,126.57c-4.19,2.18-7.93,1.39-11.47,0-4.7-1.91-9.25-4.21-14.15-6.47,1.26-1.09,2.25-2.08,2.3-3.62C229.13,119.69,236.34,123.85,244.65,126.57Z"/><path class="cls-5" d="M266.5,119.11c-8.79,5.1-16.88.9-25.75-1.75,2.08-1,2.92-2.31,2.76-4.31A76.12,76.12,0,0,0,266.5,119.11Z"/><path class="cls-4" d="M219.16,107.94c5,.42,10,1.1,15,1.24,2.63.07,5,1.67,7.16,3.12a2,2,0,0,1,.73,2.29,2,2,0,0,1-1.78,1.26c-2.39.44-4.54-.49-6.67-1.3-5.16-2-10.29-4-15.43-6.08C218.12,107.56,218.64,107.75,219.16,107.94Z"/><path class="cls-4" d="M232.54,127.85c-3.4,1.82-6.57,1.07-9.59,0-4.9-1.73-9.21-4.64-14.18-7.16.81-.28,1.42-.29,1.61-.58,1.74-2.58,3.69-1,5.43-.2C221.34,122.44,226.81,125.11,232.54,127.85Z"/><path class="cls-4" d="M207.81,110.47c2.67-2,5-3,8.15-1.59,4.16,1.9,8.51,3.39,12.76,5.11.73.29,1.85.49,1.63,1.61s-1.32,1.18-2.25,1.27c-2.22.2-4.14-.8-6.07-1.65C217.54,113.23,213,111.31,207.81,110.47Z"/><path class="cls-4" d="M93.51,128.25c5.93-2.46,11.63-4.88,17.37-7.19,2-.81,1.43,1.85,3.19,2.09-4.95,2.13-9.36,4.13-13.86,5.91C98.06,129.92,95.76,130.19,93.51,128.25Z"/><path class="cls-4" d="M115.84,122.23c-1-.18-1.93-.14-2.23-1.18s.59-1.42,1.38-1.73c3.94-1.58,7.91-3.06,11.8-4.75,1.59-.7,2.07-.16,2.49,1.24.35,1.18.94,2.09-.95,2.61-3.19.87-6.27,2.09-9.42,3.11C117.87,121.87,116.77,122,115.84,122.23Z"/><path class="cls-4" d="M202.85,123.59c.62-.94,1.78-1,2-2.06s.92-.87,1.59-.52l14.12,7.38C213.24,130.12,208.17,126.65,202.85,123.59Z"/><path class="cls-4" d="M203.3,114.32a4.9,4.9,0,0,1,5.25-2.36,39,39,0,0,1,9.69,3c1,.42,1.82,1.12,1.47,2.34s-1.51,1.3-2.52,1.16a15.25,15.25,0,0,1-3.17-.89A60.43,60.43,0,0,0,203.3,114.32Z"/><path class="cls-4" d="M104.37,128.6c3.76-1.51,7.22-2.87,10.65-4.3,1.27-.53,2.3-1,3,.86.25.7,1.15,1.17,1.75,1.74C114,130.84,107,131.73,104.37,128.6Z"/><path class="cls-6" d="M95.12,105.87A136,136,0,0,0,82,111.4a10,10,0,0,1-5.63,1.25c-1-.14-1.82-.65-1.89-1.73s.85-1.14,1.58-1.35a114.81,114.81,0,0,1,18.61-4.16C95.19,105.18,95.25,105.43,95.12,105.87Z"/><path class="cls-4" d="M122.4,125.88a4.55,4.55,0,0,1-2.67-.68,1.9,1.9,0,0,1-1-1.65c0-.81.78-.84,1.29-1,3-1.05,6.11-2,9.12-3.1,1.41-.52,1.73.34,2.28,1.24.67,1.11,0,1.5-.81,1.92A25.82,25.82,0,0,1,122.4,125.88Z"/><path class="cls-6" d="M125.68,130.19c-2.82,1.1-5.5,2.35-8.52,2.42-1.06,0-2.27-.22-2.43-1.36s1.15-1,1.86-1.31c1.08-.49,2.22-.84,3.28-1.36C122.2,127.43,124.38,126.74,125.68,130.19Z"/><path class="cls-6" d="M197.72,126.51c1.61-4.4,3.8-2.24,5.95-1,1.7,1,3.44,2,5.51,3.16C204.51,130.19,201.06,128.31,197.72,126.51Z"/><path class="cls-7" d="M134.8,126c-1.94.9-3.94,1.81-5.92,2.74a2.69,2.69,0,0,1-2.69-.28c-1.12-.73-1.56-1.63.12-2.35a18.5,18.5,0,0,0,3.45-1.63C132.05,122.78,133.68,123.07,134.8,126Z"/><path class="cls-8" d="M199.8,117.32a3,3,0,0,1,3.58-1.62c2.07.49,4.12,1,6.18,1.59.46.13,1.08.29,1.05.89s-.65.76-1.13.9a8.2,8.2,0,0,1-4.52-.29Z"/><path class="cls-9" d="M143.18,131.24c-2.52,1.16-4.64,2.95-7.51,2.89-.78,0-1.7-.1-1.88-.95s.85-.86,1.38-1.17c.8-.47,1.65-.87,2.47-1.32C140.16,129.33,140.16,129.33,143.18,131.24Z"/><path class="cls-7" d="M138.34,128.85c-2.08,1.05-3.82,2.5-6.08,2.75-.92.11-2,.17-2.35-1s.82-1.28,1.5-1.65a21.79,21.79,0,0,0,2.28-1.1C135.51,126.6,137,126.94,138.34,128.85Z"/><path class="cls-7" d="M195.6,120.23a6.66,6.66,0,0,1,7.5-.56c.51.32.76.67.61,1.22-.21.79-.86,1-1.57,1C199.85,122.09,197.88,121.07,195.6,120.23Z"/><path class="cls-10" d="M191.08,123c1.91-2.06,3.84-1.71,5.81-.93.74.28,1.48.6,1.18,1.61a1.55,1.55,0,0,1-1.82,1A19.91,19.91,0,0,1,191.08,123Z"/><path class="cls-11" d="M121.77,133.1a28,28,0,0,0,4.16-1.66c1.95-1.22,3-.67,3.7,1.49C127.14,133.48,124.78,135.63,121.77,133.1Z"/><path class="cls-12" d="M198.8,128.89a9.39,9.39,0,0,1-6.1-.42C195,125.77,195,125.77,198.8,128.89Z"/><path class="cls-13" d="M127.5,135.6c3.35-2.48,4.51-2.52,6-.24C131.53,135.92,129.68,135.68,127.5,135.6Z"/><path class="cls-14" d="M187.49,124.3c2.24-.77,3.54.2,4.92.65a.8.8,0,0,1,.54,1.19,1,1,0,0,1-1.3.45C190.4,126,189.21,125.26,187.49,124.3Z"/><path class="cls-15" d="M190.93,128.45c-2.45.17-3.19-1.36-4.69-2.3C188.52,125.61,189.43,126.92,190.93,128.45Z"/><path class="cls-16" d="M111.58,143.31l-4.62,2-.5-.45a13.58,13.58,0,0,1,4.5-2.12C111.56,142.5,111.62,142.84,111.58,143.31Z"/><path class="cls-17" d="M115.16,146.38c-1.07.44-1.74,1.6-3,1.67l-.07-.7,2.49-1.49C115.18,145.56,115.2,145.94,115.16,146.38Z"/><path class="cls-18" d="M87.54,104.48l.61.57-3.68,1.08A4.5,4.5,0,0,1,87.54,104.48Z"/><path class="cls-19" d="M228.82,107.6c.49-.29,1.24.12,1.57-.59l1.35.5A2.89,2.89,0,0,1,228.82,107.6Z"/><path class="cls-20" d="M219.16,107.94l-.95.53a1.51,1.51,0,0,1-1.39-.79A2.61,2.61,0,0,1,219.16,107.94Z"/><path class="cls-21" d="M95.12,105.87l-.46-.46a2.38,2.38,0,0,1,1.91-.41C96.35,105.81,95.68,105.74,95.12,105.87Z"/><path class="cls-22" d="M127.5,143.8c-.48-.16-1.4-.27-1.08-.82s1.15-.19,1.66.3Z"/><path class="cls-23" d="M137.61,63.13c.51-3.61.84-6.82,1.45-10,.5-2.54.23-4.58-1.94-6.32-2.52-2-4.85-4.27-7.27-6.42l.53-1c3.7-.67,7.39-1.42,11.1-2a3.61,3.61,0,0,0,3.07-2.24c1.41-2.91,3-5.73,4.49-8.61.74-1.46,1.27-1.3,1.94,0,1.43,2.81,3,5.56,4.37,8.39a3.79,3.79,0,0,0,3.21,2.42c3.7.48,7.36,1.27,11.51,2-2.71,2.79-5,5.39-7.58,7.71a5.11,5.11,0,0,0-1.67,5.22c.6,3.35,1,6.72,1.6,10.65-3.48-1.7-6.65-3.05-9.61-4.76a5.18,5.18,0,0,0-5.68.05C144.16,60,141.07,61.43,137.61,63.13Z"/><path class="cls-23" d="M204.53,63.1c.57-4.05,1-7.59,1.6-11.09a4.29,4.29,0,0,0-1.3-4.32c-2.63-2.51-5.09-5.21-8-8.17,4.18-.75,7.9-1.5,11.65-2a3.44,3.44,0,0,0,2.87-2.11c1.72-3.4,3.53-6.74,5.5-10.48,2,3.74,3.8,7.1,5.52,10.51a3.39,3.39,0,0,0,2.89,2.06c3.71.53,7.38,1.28,11.68,2.06-2.84,2.92-5.3,5.57-7.91,8.07a4.11,4.11,0,0,0-1.41,4.24c.69,3.57,1,7.21,1.59,11.24-3.41-1.67-6.53-3-9.46-4.69a5.36,5.36,0,0,0-5.91.06C211,60.06,208,61.4,204.53,63.1Z"/><path class="cls-23" d="M63.62,39.41c3.51-.62,7-1.38,10.55-1.82a4.37,4.37,0,0,0,3.76-2.85c1.55-3.21,3.31-6.31,5.17-9.83,1.92,3.63,3.72,6.87,5.36,10.19a3.79,3.79,0,0,0,3.23,2.4c3.68.49,7.32,1.27,11.45,2-2.83,2.94-5.29,5.62-7.91,8.15A4.26,4.26,0,0,0,93.85,52c.65,3.49,1,7,1.61,11.1-3.67-1.79-6.92-3.22-10-4.92a4.39,4.39,0,0,0-4.75,0c-2.53,1.4-5.18,2.57-7.77,3.87-.63.31-1.3.65-1.92.25s0-1.07,0-1.6c.45-3.29.87-6.59,1.44-9.86a2.64,2.64,0,0,0-1-2.66l-8.58-7.61Z"/><path class="cls-24" d="M176.66,129.82c4.52-1.67,7.08-1,9.53,2.14-.37.56-1,.12-1.53.48-2.93,1.93-4,1.67-5.59-1.53C178.54,129.87,177.63,130.31,176.66,129.82Z"/><path class="cls-25" d="M111.58,143.31l-.62-.54a3,3,0,0,1,2.11-.63C113,143.19,112.07,143,111.58,143.31Z"/><path class="cls-26" d="M155.14,129.87c.45-.16.66-.32.83-.28a1,1,0,0,1,.61.4c.19.34-.1.48-.36.42A7.06,7.06,0,0,1,155.14,129.87Z"/><path class="cls-27" d="M115.16,146.38l-.59-.52c.47-.39,1.12-1.11,1.55-.53S115.62,146.12,115.16,146.38Z"/><path class="cls-15" d="M181.42,132.46a1.6,1.6,0,0,1-1.21-1.45c-.08-.67.31-.89.91-.84s1.26.05,1.2.92A1.36,1.36,0,0,1,181.42,132.46Z"/></svg>