<svg id="Layer_1" data-name="Layer 1" xmlns="http://www.w3.org/2000/svg" viewBox="0 0 300 300"><defs><style>.cls-1{fill:#e5e5e5;}.cls-2{fill:#017951;}.cls-3{fill:#c39938;}.cls-4{fill:#017850;}.cls-5{fill:#017750;}.cls-6{fill:#01744e;}.cls-7{fill:#01774f;}.cls-8{fill:#01754e;}.cls-9{fill:#01754f;}.cls-10{fill:#01764f;}.cls-11{fill:#01714c;}.cls-12{fill:#01724d;}.cls-13{fill:#01724c;}.cls-14{fill:#01734d;}.cls-15{fill:#01704b;}.cls-16{fill:#016f4a;}.cls-17{fill:#016241;}.cls-18{fill:#016443;}.cls-19{fill:#016040;}.cls-20{fill:#002317;}.cls-21{fill:#015b3d;}.cls-22{fill:#003b28;}.cls-23{fill:#014c33;}.cls-24{fill:#01442d;}</style></defs><path d="M20.47-.6H279.53a1,1,0,0,1,1,1V176.61A123.39,123.39,0,0,1,157.13,300h-14A123.62,123.62,0,0,1,19.47,176.38V.4a1,1,0,0,1,1-1Z"/><path class="cls-1" d="M150,2.65q62,0,124.09-.06c2.35,0,2.91.58,2.9,2.92q-.11,80.18-.05,160.36c0,28.44-7,54.82-23.81,78.06-19.53,26.95-46,43.51-78.39,50.45C112.35,307.73,43.05,268.49,27,200.46a138.57,138.57,0,0,1-3.91-31.78Q23,86.81,23,5c0-2,.56-2.35,2.43-2.35Q87.72,2.69,150,2.65Z"/><path d="M136.1,188.48a28.6,28.6,0,0,1-5.94-4.14,14,14,0,0,0-7.71-3.31,3.43,3.43,0,0,0-3.23,1.29c-.53.84.58,1.48,1,2.16,3.54,6,2.91,12.19-1.83,18.54-2,2.66-4.14,4.8-7.84,4.41a3.18,3.18,0,0,0-3.13,1.79,40.45,40.45,0,0,1-9.65,10.72c-4.57,3.36-9.32,3.81-14.2.73-.93-.59-1.64-1-2.74-.26-1.34.87-2.65.35-3.78-.65a3.06,3.06,0,0,1-.94-3.95c.81-1.38.22-2.18-.39-3.21-2.67-4.49-2.33-8.9.57-13.12s7.09-7.5,11.43-10.37c.79-.53,1.67-.94,1.63-2.11-.24-7.58,5.55-9.8,11-12.1a9.21,9.21,0,0,1,7.83.16c3.14,1.65,5.51.11,8.29-1a31.83,31.83,0,0,0-17.69-7c-1-.1-1.39.27-1.63,1.19-2.65,10.09-13.06,11.9-19.65,11.66C76,179.86,75,178.45,74,177.5a4.55,4.55,0,0,0-4.48-1.06,36.9,36.9,0,0,1-15.41.43,11.35,11.35,0,0,1-9.17-8.8c-.34-1.35-.64-2.3-2.18-2.74s-2-1.79-2-3.29a3.25,3.25,0,0,1,2.1-3.27c.93-.35,1.74-.57,1.92-1.75,1-6.43,6.06-10,13.27-10.29a49.14,49.14,0,0,1,12.34,1.13c1.11.24,2,.34,2.79-.58,3.88-4.55,8.64-3.2,13.3-1.82,5,1.49,8.73,4.72,10,9.86.67,2.61,1.72,3.43,4.27,3.39a38,38,0,0,1,6.16.89c0-.93-.87-1.21-1.39-1.67Q81.3,136.81,57.08,115.72c-1.5-1.31-3-2.37-5.26-2.17-2.09.18-3.58-1.54-4.89-3-4.14-4.7-6-10.36-6.81-16.47a83.7,83.7,0,0,1-.25-13.71c.27-7.41-1.8-13.62-8.47-17.69-1-.62-2.23-1.44-1.46-2.89.67-1.25,2-1.17,3.23-1C40.46,59.87,45.7,65.31,46.83,73a6.27,6.27,0,0,0,.68,2.46c4,6.59,8.11,13.06,13.86,18.3,22.52,20.55,45.75,40.27,69.09,59.88a5.15,5.15,0,0,0,2.54,1.53c-3.55-8.51-7.2-16.62-16.34-20.43-2.94-1.23-5.79-2.65-8.68-4a11.54,11.54,0,0,1-6.16-7c-1.86-5.19-.69-7,4.81-7.3-.51-1.74-2-2-3.38-2.36a31.42,31.42,0,0,0-4.34-.71,23.71,23.71,0,0,1-17.43-10.82,54.29,54.29,0,0,1-6.12-10.76c-1.88-4.79.58-8.35,5.65-8.36.88,0,2,.56,2.5-.68a3.1,3.1,0,0,0-.8-3.1,7.06,7.06,0,0,0-2.88-2.16C71.42,74.3,68.29,67.39,67.2,59.2c-.59-4.36-.82-8.76-1-13.16-.16-3.43,5-9.52,8.38-10.28,2-.44,3.25.63,4.56,1.83.65.59,1.31,1.6,2.4.95a2.56,2.56,0,0,0,1-2.52c-.12-1.89-.31-3.78-.48-5.67a11.1,11.1,0,0,1,5.67-11.1,43.19,43.19,0,0,0,9-6.91c2.82-3,6.67-3.93,10.68-3.73,4.91.25,9.82.68,14.71,1.19,6,.63,9.63,4.73,9.71,10.73a38.48,38.48,0,0,1-.37,4.9A4.76,4.76,0,0,0,133,29.6c1,.93,2,1.13,2.79-.17,1.63-2.64,4.59-2.32,6.88-1.05a14.12,14.12,0,0,1,5.55,5.29c.87,1.5,1.58,3.16.84,4.92-1.35,3.22-1.32,6.59-1.08,9.94a17.84,17.84,0,0,1-5.29,14.58,14.8,14.8,0,0,0-3.14,4.4c-.28.62-.74,1.29-.12,1.91.46.46,1.07.29,1.7.17,5.76-1.15,9,1.42,9.4,7.33a17.44,17.44,0,0,1-2.5,10.13c-2.29,4-4.69,7.84-7,11.77a14.81,14.81,0,0,0-2.48,6.45c-.12,1.66.21,2.94,2.22,3a2.94,2.94,0,0,1,2.8,2.6c1.07,4.31,1.23,8.51-1.26,12.49-2.16,3.47-3.25,7.34-4.29,11.29-2.2,8.31,1.36,15.12,5.34,22.44,1-3.42,2-6.42,2.13-9.69.21-5.67-1-11.15-1.92-16.68-.79-4.92.42-7.14,4.89-9.33,3.17-1.55,4-3.18,3.4-6.64-.75-4.24-2.05-8.36-2.6-12.66a35.62,35.62,0,0,1,2.29-18.27c1.63-4,3.38-4.88,7.68-4.12,3.3.58,4,0,3.84-3.46-.16-4.35-2.09-8.35-2.46-12.68a29.53,29.53,0,0,1,.26-8.24c.7-3.55,2.49-6.27,6.06-7.4,2.26-.71,3.25-2.22,3.84-4.39,2.41-8.8,14-14.4,22.55-11a5,5,0,0,1,3.49,5.15c0,.78-.15,1.55-.18,2.32-.13,3.16,1.85,4.48,4.65,3a35.77,35.77,0,0,0,4.25-2.94c1.59-1.18,3.1-2.48,4.73-3.61,4.21-2.9,8.58-3.4,13.06-.56a9.65,9.65,0,0,0,6.12,1.58c3.28-.24,5.74,1.6,7.94,3.74a34.79,34.79,0,0,1,6.15,8,20.9,20.9,0,0,0,3.32,4.89c1.45,1.46,1.57,3.42,1.16,5.34a29.93,29.93,0,0,0-.6,6.94c.07,2.91-1.68,5-3.64,6.87s-3.89,3.43-5.64,5.33c-2.17,2.36-1.93,3.36.77,5a8.22,8.22,0,0,1,.45,13.83,46.49,46.49,0,0,0-6.21,5.85,19.73,19.73,0,0,1-15.83,6.25c-2.42-.12-4.84-.07-7.25-.2-1.57-.08-2.05.37-1.39,1.91,2.66,6.27,2.16,5.83-2.43,10.73-6.07,6.5-13.43,8.26-21.72,8.28a27.74,27.74,0,0,0-4.89.47c-1.58.29-2.43,1-1.62,2.91,1.46,3.4.39,6.15-3,8a54.07,54.07,0,0,1-8.21,3.09c-5.88,2-10.84,5.22-13.79,11-2,4-1.83,8.07-1.5,12.34,1.63-.39,1.6-1.71,2-2.67A32,32,0,0,1,166.18,150c2.36-1.46,4.86-2.33,7.51-.6,1.29.84,1.94-.19,2.54-1,2.07-2.65,4.08-5.35,6.09-8a23,23,0,0,1,12.83-8.66q5-1.34,10.06-2.37c4.18-.86,5.35-.15,6.61,3.89.36,1.16.85,1.53,2.05,1.18a11.33,11.33,0,0,0,3.78-2.18c2.64-2.09,5-4.49,7.89-6.29,3.23-2,6.56-2.94,10.29-1.29a7.29,7.29,0,0,0,5.56-.11,30.77,30.77,0,0,1,5-1.44c6.53-1.17,14,4.85,14.44,11.48.12,2.14-1.35,3.43-2.63,4.84-.75.82-1.58,1.75-1.13,3s1.77,1.52,3,1.67c8,1,11.92,5,12.78,13.27.93,9-1.93,17-6.58,24.5-1.75,2.82-4.44,3.32-7.48,2.62-1.37-.31-2.84-.69-3.82.64s.11,2.41.79,3.49a4,4,0,0,1-.15,4.41,17.73,17.73,0,0,1-7.53,6.9,5.35,5.35,0,0,1-4.53.24,33.74,33.74,0,0,0-11.58-2.36,13.65,13.65,0,0,1-8.79-3.94c-2.36-2.15-4.66-4.37-7-6.53a11.27,11.27,0,0,0-3.43-2.27c-.54-.21-1.12-.58-1.69,0s-.14.93,0,1.42c1.1,5.3-1.67,8.44-7.35,8.36-9.16-.14-16.75-3.55-22.54-10.77-1.29-1.61-2.61-3.22-4.05-4.7-.91-.94-1.93-1.43-2.87.24-1.61,2.88-4.31,3.37-7.07,1.44a14,14,0,0,1-3.82-4.51,5.31,5.31,0,0,0-4-2.91c-.66-.08-1.47-.43-1.92.26a2,2,0,0,0,.3,2.18,18.3,18.3,0,0,0,3.62,4c4.91,4.23,9.9,8.35,14.78,12.61,8.39,7.33,16.72,14.72,25.07,22.09a13.47,13.47,0,0,0,7.79,3.65c3.82.38,5,2.29,4.8,6.84a54.09,54.09,0,0,1-8.38,26.33c-7.14,11.38-16.9,19.53-30.17,22.79a21.16,21.16,0,0,1-16.84-3.12c-5.84-3.75-7.25-11.39-3.16-16.45.65-.8,1.33-1.83,2.53-1.26s.33,1.64.11,2.46a4.78,4.78,0,0,0,.85,4.16,12.62,12.62,0,0,0,11.82,5.6c8.57-.54,14.83-6.27,16.35-14.71a45.76,45.76,0,0,0-.6-17.76c-.95-4.43-3.83-7.86-6.93-11-6.22-6.38-13.49-11.58-20-17.64-3.79-3.53-7.72-6.91-11.61-10.33a11.09,11.09,0,0,0-2.12-1.46,1.1,1.1,0,0,0-1.69.59c-.3.75-.5,1.48.54,1.92,6.94,2.92,8.85,8.79,9.45,15.63.22,2.54-1.1,4-2.49,5.64a3.62,3.62,0,0,0-.93,3.46c1,4.66,1.58,9.36.71,14.14-.9,5-3.56,8.32-8.52,9.65-1.17.31-2.21.44-2.59,2-.32,1.34-1.58,1.93-3,2s-2.86-.55-3.27-2-1.2-1.57-2.34-1.87c-5.19-1.37-8.14-4.92-8.83-10.26a41.89,41.89,0,0,1,.79-13.63c.21-1.07.47-2.06-.48-2.85-3.94-3.3-3.13-7.45-2.06-11.61,1.19-4.68,3.73-8.45,8.4-10.11,2.57-.9,4.87-1.6,5.4-4.73C134.69,190,135.49,189.35,136.1,188.48Z"/><path class="cls-2" d="M153,150.08c11.93-35.4,34.57-62.94,61.82-87.27-30.76,19.23-52.76,45.9-67.16,79.48-.77-4.44-1.59-8.58-2.19-12.76-.43-3,.6-4.63,3.36-6,5.05-2.55,5.91-4.29,4.86-9.94-1.08-5.83-3-11.53-2.67-17.59a33.56,33.56,0,0,1,2.57-11.54c1.16-2.76,2.27-3.29,5.27-2.71,4.61.88,6.27-.52,6.26-5.2s-2-8.71-2.45-13.19a24.62,24.62,0,0,1,.39-8.22,6.72,6.72,0,0,1,4.56-5.22c2.87-.88,4.3-2.88,5.13-5.64,2.3-7.7,12-12.55,19.54-9.86a3.26,3.26,0,0,1,2.38,3.78c-.26,2.72-.48,5.51,2.53,7s5.33-.26,7.59-1.88c2.45-1.76,4.75-3.73,7.23-5.44a8.36,8.36,0,0,1,9.71-.42,12.7,12.7,0,0,0,7.85,2.11c2.29-.19,4.12,1.12,5.74,2.59,2.63,2.41,4.5,5.41,6.58,8.26,3.07,4.2,4.64,8.29,3.64,13.73-.59,3.25-1.21,5.92-3.68,8.13-2.12,1.88-4.52,3.49-6.09,6-1.82,2.85-1.41,4.88,1.42,6.79,4.77,3.21,4.93,7.79.33,11.22a34.35,34.35,0,0,0-5.08,4.78,18.09,18.09,0,0,1-15.65,6.43c-2.41-.18-4.84-.14-7.25-.1-2.93.05-4,1.75-2.87,4.47,2.1,5.07,1.65,4.67-2,8.77-5.53,6.17-12.41,7.6-20.07,7.59a29.73,29.73,0,0,0-5.14.5c-3.29.55-4.49,2.78-3.24,5.79,1,2.35.17,4.32-2.57,5.55-2.28,1-4.66,1.81-7,2.61a28.37,28.37,0,0,0-11.9,7.05C154.38,150,154.08,150.29,153,150.08Z"/><path class="cls-2" d="M135.2,139.36c-14-31.53-22.58-64.58-28.41-98.48-.72,5.33,0,10.64.43,15.92s1.13,10.79,1.89,16.15S110.8,83.68,111.75,89s1.91,10.69,3.11,16,2.6,10.55,4.16,15.75,3.41,10.2,4.86,15.53a95.18,95.18,0,0,0-11.55-5.8,41.84,41.84,0,0,1-4.41-2.16c-2.76-1.56-4-4.13-4.64-7.12-.38-1.79.15-2.66,2.07-2.52,1.43.11,2.94,0,3.41-1.63s-.77-2.85-2.11-3.73c-2.63-1.75-5.75-1.78-8.69-2.2-6-.88-10.51-4-14.06-8.8a49.49,49.49,0,0,1-6.38-10.63c-1.69-4.11-.31-6.1,4.1-6.1,3.42,0,4.95-2.27,3.7-5.47a5.86,5.86,0,0,0-2.15-2.85A12.18,12.18,0,0,0,81,75.85C71,72.06,69.6,63.36,68.72,54.39c-.25-2.48-.07-5-.46-7.48-.44-2.8,3.9-8.47,6.65-9,1.19-.24,2,.46,2.75,1.13,1.31,1.09,2.57,2.59,4.52,1.53s2.57-3.13,2.43-5.33c-.12-1.89-.34-3.77-.47-5.66a8.5,8.5,0,0,1,4.3-8.28,50.51,50.51,0,0,0,10.2-7.87c2.28-2.38,5.54-2.9,8.65-2.77,4.9.19,9.79.72,14.67,1.27s7.69,3.82,7.78,8.69a26.36,26.36,0,0,1-.34,3.86,7.14,7.14,0,0,0,1.78,6.24c2.22,2.35,4.2,2.4,6.29-.06a2.79,2.79,0,0,1,3.46-.81c4.69,1.63,6.87,5.87,5.42,10.54-.9,2.88-.56,5.84-.41,8.74a15.52,15.52,0,0,1-4.47,12.23,17.19,17.19,0,0,0-4.05,6c-.94,2.57.53,4.74,3.17,4.46,2.24-.24,4.58-1.63,6.36.92,2,2.87,1.94,6,1,9.19-1.42,4.88-4.51,8.9-7.09,13.18-1.61,2.66-3.33,5.27-4.13,8.31-1,3.84-.11,5.63,3.5,7,.72.26,1.22.57,1.39,1.33.81,3.62,1.07,7.16-1,10.52C137.35,127.42,135.87,133.22,135.2,139.36Z"/><path class="cls-2" d="M260.78,163.22c-8.48-3.88-16.68-8.4-26-9.72a168.29,168.29,0,0,0-21.36-2c-13-.15-25.48,2.84-38,5.83a62.56,62.56,0,0,0-17.84,6.75,7.17,7.17,0,0,1-1.45.36c3.32-6,7.07-10.83,13-13.59a3.14,3.14,0,0,1,3.19.25c2.12,1.35,3.82.65,5.21-1.09,2-2.42,3.85-4.88,5.66-7.4a22.09,22.09,0,0,1,13.14-9c3.27-.77,6.53-1.59,9.82-2.3,1.93-.42,3.24,0,3.7,2.36.57,2.94,2.11,3.64,4.93,2.67,3-1.05,5.23-3.32,7.58-5.33a32.21,32.21,0,0,1,5.21-3.81c2-1.13,4.18-1.75,6.46-.86a12.41,12.41,0,0,0,9.07-.15c7.32-2.64,12.21-.31,15.07,6.9.6,1.52.68,2.84-.69,4a1.8,1.8,0,0,0-.35.38c-1.37,1.76-3.17,3.44-2,6,1.09,2.38,3.34,2.7,5.66,2.87,5.74.4,9.44,4.92,10,11.87.57,7.61-1.71,14.5-5.29,21-1.9,3.48-3,3.86-7,3.24a7.57,7.57,0,0,0-1-.21c-1.71,0-3.32.3-4.32,1.83a3.81,3.81,0,0,0,.09,4.61c1.4,1.85.87,3.39-.5,4.85a40.85,40.85,0,0,1-3.36,3.22,5.87,5.87,0,0,1-6.7,1.11,22.52,22.52,0,0,0-9.07-1.86,14.08,14.08,0,0,1-10.14-4.45,72.25,72.25,0,0,0-7-6.52,10.54,10.54,0,0,0-3.85-2.05c-2.67-.67-4.38,1-3.79,3.73.92,4.24-1,6.28-5.54,6.16a26.74,26.74,0,0,1-21.52-11.1,22.9,22.9,0,0,0-4-4.37c-2-1.53-3.92-1.12-5.26,1s-2.51,2.24-4.39.88a9,9,0,0,1-2.53-2.92,9.49,9.49,0,0,0-5.32-4.69c5.26-5.25,34.18-13.51,49.44-13.89C226.93,157.26,244.15,157.51,260.78,163.22Z"/><path class="cls-2" d="M228.68,155.58c-7.5.08-15-.22-22.51.3-9.56.66-18.72,2.92-27.81,5.66-6.45,1.94-12.85,4-18.69,7.49a19.86,19.86,0,0,0-1.73,1.14c-3.55,2.76-3.81,5.34-.84,8.72a64.1,64.1,0,0,0,8,7.37c10.39,8.43,20.28,17.44,30.29,26.31,1.88,1.66,3.81,3.25,5.72,4.87a11.54,11.54,0,0,0,7,2.93c2.38.12,3.62,1.39,3.49,3.85a53.54,53.54,0,0,1-16.46,36.62c-.16.16-.44.2-1,.44.59-3,1.73-5.54,2.1-8.31.69-5.15,0-10.35.88-15.49a14.23,14.23,0,0,1,3.51-7.36c1.92-2.1,4.2-3.34,7.15-2.11.56.23,1.17.51,1.59-.21a1.3,1.3,0,0,0-.37-1.64,5.41,5.41,0,0,0-5.71-1.41c-4.84,1.46-7.21,5.07-8.19,9.77-.93,4.53-.39,9.13-.58,13.69s-.83,9.07-3.1,13.22c-5.8,10.61-22,14.71-32.13,8.05A9.27,9.27,0,0,1,155.34,259a36.79,36.79,0,0,0,2.77,3.89,14.57,14.57,0,0,0,13.81,4.76c10.94-1.93,17-9.15,17.45-20.53.17-3.82-.35-7.58-.51-11.37-.14-3.28-.28-6.57,1-9.7.2-.48.45-1.07-.16-1.37s-1.11.3-1.33.83c-.5,1.18-.9,2.39-1.34,3.6-2-1.74-.86-3.82-.63-5.79.11-1,1-2.36-.09-2.73s-1.24,1.28-1.67,2.13c-.23.45-.39.92-.69,1.65-1.41-1.73-.71-3.43-.67-5,0-.8.9-2-.21-2.25-1.35-.31-.93,1.31-1.32,2.05a7.31,7.31,0,0,0-.37,1.83c-1.73-.65-1.78-1.83-1.55-3.35.18-1.2.89-3.28-.24-3.52-1.67-.37-.94,1.94-1.65,2.89a3.43,3.43,0,0,0-.27.48c-2.38-.84-1.64-2.88-1.85-4.59-.13-1.06.77-2.92-.81-3-1.21,0-.55,1.87-.76,2.9a12.47,12.47,0,0,0-.11,1.37c-2.31-.7-3-2.24-2.83-4.36.08-.85.24-1.7.31-2.56,0-.54-.1-1.1-.74-1.14-.49,0-.72.44-.81.87-.22,1.15-.41,2.32-.62,3.52-1.48-.4-1.53-1.64-1.68-2.7s-.05-2.24-.11-3.36c0-.62.32-1.6-.72-1.6-.67,0-.76.83-.82,1.44-.09,1-.15,2-.23,3.16a2.49,2.49,0,0,1-1.85-2.65c0-.77.18-1.54.2-2.31,0-1,.82-2.75-.51-2.92s-.92,1.7-1.23,2.68a10.86,10.86,0,0,0-.26,1.79,2.1,2.1,0,0,1-1.86-2.47c.08-1.28.27-2.56.4-3.84.07-.61.17-1.35-.64-1.45-.6-.08-.76.55-.87,1.08-.22,1.09-.46,2.18-.72,3.4-2.71-1.12-1.71-3.37-1.72-5.27,0-.7.85-1.73-.25-2-1.25-.29-.93,1.15-1.31,1.81s.2,2-.81,1.87c-1.16-.1-1.48-1.29-1.35-2.43.09-.77.22-1.53.31-2.3s.44-1.58-.43-1.8c-1.1-.27-1,.92-1.32,1.54s.06,1.39-.68,2c-1.12-.84-2.24-1.74-3.41-2.57-2.94-2.07-5.33-1.13-6.07,2.39-.13.58-.15,1.19-.26,1.78-.37,1.94-1.34,2.32-3,1.2-3.41-2.27-3.55-4.05-.57-6.9,2.18-2.07,2.11-2.55-.59-3.58-2.24-.86-3.89-2.54-5.75-3.93a18.4,18.4,0,0,0-7.39-3.56c-2.09-.43-4.19-.19-5.59,1.26-1.67,1.74-3.4,1.18-5.21,1a1.53,1.53,0,0,1-1.53-1.46,1.8,1.8,0,0,1,1.14-2.06c6.34-2.84,12.56-3.73,18.54.89.6.47,1.3,1.73,2.08.8s-.38-1.7-1-2.29a15.32,15.32,0,0,0-11.51-3.68,3.62,3.62,0,0,1-2.79-.91,34,34,0,0,0-20.21-7.66c-1.29-.08-3.12.09-2.95-1.57a3.07,3.07,0,0,1,3.43-2.77c7,.21,13.23,2.18,18.62,6.69,1.13.94,2.29,1.84,3.46,2.72.39.29.92.72,1.39.32s.16-1.11-.14-1.62a9.81,9.81,0,0,0-2.85-2.6c-12-9.22-23-19.61-34.45-29.42-8.66-7.4-16.67-15.67-25.91-22.25C50.51,108.79,49.15,101,48,92.79a55.27,55.27,0,0,1-.55-12.41c.88-.28,1,.56,1.22,1,5.14,8.57,12.35,15.25,19.8,21.72q22.5,19.5,45,39,8.15,7,16.47,13.8c1.29,1,2.83,3.1,4.67,1.66s.3-3.59-.51-5.13a190.37,190.37,0,0,1-16.46-44.56,264.13,264.13,0,0,1-5-26.92.34.34,0,0,1,.52,0c2.64,9.64,5,19.35,8.24,28.83a407.53,407.53,0,0,0,19.38,47.11,1.67,1.67,0,0,0,.12.23c.72,1.11.93,3,2.61,2.85s1.94-2.08,2.25-3.44c3.75-16.32,11.53-30.77,20.62-44.62,4.27-6.52,9.69-12.11,14.77-18,.45-.08.71,0,.52.55A206.22,206.22,0,0,0,158,131.68c-5,10.43-8.29,21.32-8.82,33a1.77,1.77,0,0,0,0,.51c.45,1.78-.26,4.17,1.67,5.18s3-1.2,4.29-2.14c6.31-4.66,13.51-7.18,21-8.93a252.13,252.13,0,0,1,25.57-5,92.18,92.18,0,0,1,21.13-.07c2.65.28,5.3.6,7.95.9C230.35,156.37,229.45,155.69,228.68,155.58Z"/><path class="cls-3" d="M60.16,168.94c-.74,1.9-.28,3.36-.38,4.77-.05.8,0,1.58-1.14,1.62s-1.29-.69-1.32-1.66c-.06-1.54.34-3.23-1.29-4.85-.6,1.85-.2,3.38-.33,4.86,0,.51.26,1.38-.76,1.26-.72-.09-1.7-.12-1.56-1.27a14.26,14.26,0,0,0-.24-3.86c-.09-.6-.14-1.42-.85-1.4s-.65.85-.68,1.43c-.06,1.18.3,2.38-.2,3.72-3.17-1.59-4.25-4.41-4.83-7.5-.25-1.31-.22-2.57-2.17-2.37a1.59,1.59,0,1,1,.07-3.17c1.65.07,1.83-.89,2.07-2.22,1.11-6,4.34-8.91,10.55-9.44a46.39,46.39,0,0,1,12.6,1c1.2.22,1.52.8,1.52,1.93,0,6.91,0,13.81,0,20.71,0,.75.17,1.71-1,1.69s-.68-1-.82-1.56c0-.08,0-.17,0-.26-.24-1,.12-2.72-1-2.64-1.51.12-.46,1.81-.69,2.79a3.23,3.23,0,0,0,0,1c.11,1.07-.56,1.32-1.42,1.37s-.76-.69-.82-1.25c-.13-1.33-.09-3.74-1-3.6-1.68.24-.47,2.25-.61,3.49-.1.9,0,1.72-1.31,1.76-1.51.06-1-1-1.08-1.78C61.33,172.07,61.46,170.6,60.16,168.94Z"/><path class="cls-3" d="M93.08,220c-4,1.4-6.78.15-9.34-1.7-1.13-.82-2-1.53-3.23-.09a1.29,1.29,0,0,1-2.05.07,1.4,1.4,0,0,1-.07-2.26c1.49-1.2.69-2.09-.08-3.21-3.29-4.71-3.15-8.73.46-13.24a44.69,44.69,0,0,1,9.9-8.65,1.57,1.57,0,0,1,2.4.29c4.76,4.87,9.58,9.69,14.36,14.54.51.51,1.37,1,.52,1.89s-1.12-.28-1.64-.55c-1-.49-1.91-2.31-2.87-1.23-.76.85,1.09,1.62,1.75,2.44s1.76,1.31.6,2.51c-1.31,1.34-1.4-.56-2.12-.76-.15,0-.24-.24-.39-.33-.77-.43-1.65-1.74-2.34-1-.87.95.7,1.44,1.22,2.12a12.8,12.8,0,0,0,1.28,1.27c.69.67.29,1.2-.19,1.77-.71.86-1.1.26-1.6-.24-1.12-1.12-2.17-2.37-4.15-2.78.27,1.85,1.74,2.36,2.5,3.4.47.66,1.82,1.05.66,2.25s-1.54.05-2.21-.53c-1.12-.95-2-2.28-3.94-2.32.27,1.57,1.56,2,2.22,3,.46.65,1.94,1,1,2.17s-1.75.32-2.53-.5a21.23,21.23,0,0,0-2.58-2.14c-.32-.24-.76-.57-1.15-.2-.54.53-.06,1,.31,1.29C90.71,218.08,91.71,218.87,93.08,220Z"/><path class="cls-3" d="M143.66,222c1.37.62,2.57.27,3.72.3.89,0,1.52.22,1.54,1.27s-.83.85-1.44.9c-1.16.08-2.36,0-3.5,1.21,1.47.66,2.74.3,4,.34.82,0,1.31.29,1.39,1.16.1,1.07-.61,1.05-1.33,1a9.84,9.84,0,0,0-4.46.87c1.4,1.37,2.81.52,4,.69.82.12,1.84-.16,1.82,1.21s-1,1-1.84,1.12c-1.33.12-2.79-.25-4,.87.56,1.26,1.65.53,2.46.74,1,.25,2.61-.87,2.78.78.21,1.95-1.59,1.23-2.66,1.35s-2.43-.1-3.49,1.08c1.51,1,3.19.17,4.91.67-1.24,2.84-3.64,3.92-6.35,4.47-1.56.31-3.12.32-3,2.55,0,.81-.64,1.18-1.45,1.14s-1.38-.52-1.29-1.3c.21-1.89-1-2.05-2.37-2.29-5.31-.95-7.93-3.85-8.58-9.16-.5-4.09.07-8.09.67-12.1.21-1.38.9-1.81,2.28-1.8,6.3.06,12.6,0,18.9,0,.76,0,1.83-.13,1.84.9,0,1.21-1.18.57-1.82.72C145.5,220.94,144.45,220.67,143.66,222Z"/><path class="cls-4" d="M50.88,111.06c-5.6-4.46-7.83-10.54-8.7-17.3-.7-5.42-.29-10.85-.38-16.28-.11-6.74-2.73-12.15-8.41-16,2.5-.34,6.24,1.68,8.35,4.35,3.08,3.92,3.38,8.6,3.49,13.24.16,7.51.38,15,2.14,22.32C48.17,104.78,49.66,107.85,50.88,111.06Z"/><path class="cls-5" d="M111.35,205.13c-1.9.72-3.58.33-5.29-1.55-4.07-4.46-8.32-8.76-12.66-13-1.68-1.62-2.44-3.24-1.92-5Z"/><path class="cls-4" d="M76.18,176.34c-2.41-.9-3-2.52-3-4.87q.22-9.57,0-19.13c0-2.23.84-3.51,3-4.57Z"/><path class="cls-6" d="M150.16,214.29c-.77,2.26-2.21,2.91-4.4,2.86-5.85-.12-11.72-.13-17.57,0-2.25.05-3.83-.51-4.71-2.87Z"/><path class="cls-4" d="M87.06,171.31c-1.1,1.48-2.35,3.22-3.64,4.93-.25.33-.62.18-.87-.14a3.19,3.19,0,0,0-.33-.4c-3.63-3.55-3.61-5.47.09-9,.23-.22.35-.59.81-.47S87,170.44,87.06,171.31Z"/><path class="cls-4" d="M92.27,164c-1.18,1.61-2.44,3.34-3.72,5.06a.58.58,0,0,1-.45.22c-1.36-.06-3.86-5-3.12-6.11a8,8,0,0,1,.74-1.06c.87-1,1.5-3.15,2.58-2.85,1.75.49,2.6,2.59,3.81,4C92.2,163.36,92.19,163.57,92.27,164Z"/><path class="cls-5" d="M82.93,163.22c-.49-.6-.82-1-1.14-1.37-3.17-3.82-3.14-4.57.36-8.15.24-.24.57-.69.76-.64,1.75.44,2.17,2.31,3.41,3.32.58.46.88,1,.31,1.76C85.4,159.77,84.23,161.43,82.93,163.22Z"/><path class="cls-5" d="M97.88,180.4c4,.21,5.88,2.42,5.35,6.25a1.08,1.08,0,0,1-.28.66c-1.21.92-6-1.1-6.31-2.61-.13-.75-.24-1.51-.4-2.26C95.91,180.94,96.25,180.05,97.88,180.4Z"/><path class="cls-5" d="M112.21,184.3c-.18-1.17.5-1.34,1.53-1.34,2.92,0,6.11,3.12,6.18,6.1,0,.77-.23,1.14-1,1s-1.35-.25-2-.34C112.79,189.2,112.18,188.51,112.21,184.3Z"/><path class="cls-5" d="M111.11,187.29c.16,1.11-.36,1.41-1.49,1.31-4.33-.39-5.39-1.56-5.46-6,0-.78.12-1.05.92-1.09C109.12,181.29,111.19,183.24,111.11,187.29Z"/><path class="cls-5" d="M117.44,197.63c-3.19-.34-4.4-2.09-4.15-5.79.06-1.05.75-1.28,1.35-.92,1.82,1.12,5.43-1,5.6,2.69C120.3,195.11,120.46,197.85,117.44,197.63Z"/><path class="cls-4" d="M107,189.72c3.77,0,5.77,2.29,5.36,6.07,0,.36,0,.66-.4.84-.58.28-5.5-.68-5.66-1.24a14.71,14.71,0,0,1-.76-5C105.6,189.5,106.43,189.76,107,189.72Z"/><path class="cls-5" d="M137.84,198.94c-.15,1.37-4.6,3.54-5.62,2.88a21.9,21.9,0,0,1-2.07-1.51c-.68-.57-2-.84-1.74-1.94.23-.94,1.5-1,2.35-1.34a5.16,5.16,0,0,1,6.32,1.14C137.36,198.46,137.86,198.58,137.84,198.94Z"/><path class="cls-5" d="M144.09,203.63c0,.85-4.42,3.48-5.18,3-1.17-.71-2.23-1.59-3.33-2.39a.78.78,0,0,1-.4-.85c.11-.48,4-3.21,4.56-3.17S144.11,203.26,144.09,203.63Z"/><path class="cls-5" d="M146,204.67c1.39,1,2.77,2.05,4.12,3.11a.73.73,0,0,1,.1.66c-1.34,1.19-2.63,2.93-4.39,2.89s-2.94-1.64-4.23-2.78a.71.71,0,0,1-.1-.65A20.77,20.77,0,0,1,146,204.67Z"/><path class="cls-5" d="M131.55,203.67c-.06.48-3.93,3.5-4.44,3.3-1.41-.58-3.18-1.29-3.39-2.77-.25-1.69,1-3.78,2.47-4.11,1.92-.43,3.18,1.9,4.87,2.79C131.33,203,131.66,203.24,131.55,203.67Z"/><path class="cls-5" d="M133.47,204.7c1.4,1,2.78,2,4.15,3.05a.62.62,0,0,1,.21.44c0,1-4.57,3.46-5.45,2.9s-1.95-1.41-2.92-2.13c-.33-.25-.85-.61-.44-1A17.49,17.49,0,0,1,133.47,204.7Z"/><path class="cls-5" d="M88,155.74c-.5-.05-4-4.4-3.71-4.76.79-1.13,1.18-3.21,2.78-2.93a5.84,5.84,0,0,1,4.49,3.13C91.77,151.61,88.39,155.77,88,155.74Z"/><path class="cls-5" d="M95.11,158.66a3.27,3.27,0,0,1-.74,2.32c-.56.88-1.12,1.3-1.87.16a8.47,8.47,0,0,0-.85-1c-2.42-2.68-2.22-4.81.58-7.11.8-.66,1-.08,1.31.41A13.06,13.06,0,0,1,95.11,158.66Z"/><path class="cls-7" d="M95.09,168a10.45,10.45,0,0,1-1.86,3.94c-.47.62-.9,2.08-2,1.14-.94-.78-2.39-1.73-1.06-3.4.74-.94,1.39-2,2.13-2.92.44-.56.69-1.76,1.56-1.36A2.3,2.3,0,0,1,95.09,168Z"/><path class="cls-8" d="M105.18,176.34c1.66.69,4.18.15,4.76,2.88.23,1.05.08,1.67-1.26,1.34s-2.7-.4-4-.71-1.22-1.5-1.25-2.5C103.37,176.17,104.3,176.35,105.18,176.34Z"/><path class="cls-8" d="M148.08,200.6c-.06.76-.78.88-1.17,1.28s-1.1.82-1.81.24a25.23,25.23,0,0,1-2.25-1.72c-.51-.52-2-.68-1.22-1.8a2.27,2.27,0,0,1,3-.92A8.72,8.72,0,0,1,148.08,200.6Z"/><path class="cls-9" d="M78.62,161c3.83,4,4.2,3,0,7.75Z"/><path class="cls-10" d="M78.63,147.57c3.84,3.94,3.84,4.27,0,7.69Z"/><path class="cls-11" d="M103.35,193.36,99,188.77c4.32-.26,4.75,0,5,3.47C104.13,192.82,104.34,193.42,103.35,193.36Z"/><path class="cls-12" d="M113,203.14l-4.08-4.91C112.37,197.52,113.39,198.43,113,203.14Z"/><path class="cls-6" d="M136.17,211.88c3.53-3.15,3.53-3.15,6.75,0Z"/><path class="cls-6" d="M123.66,211.9c3.59-3.15,3.59-3.15,6.72,0Z"/><path class="cls-13" d="M85.53,176.73c.16-1.45,1.26-2.17,1.84-3.18.28-.49.67-1.21,1.38-.7a3.87,3.87,0,0,1,1.3,1.55c.21.54-.46.86-.89,1.1A8.3,8.3,0,0,1,85.53,176.73Z"/><path class="cls-14" d="M114.77,200.79c-.29-1.19-.25-2,1.08-1.77.72.14,2.11-.33,1.86,1s-1,2.74-2.23,2.84S115.07,201.33,114.77,200.79Z"/><path class="cls-15" d="M122.32,210.53c-.26-1.5-.28-2.95.82-4,.16-.15,1.87.71,2,1.24C125.38,209.66,123.21,209.47,122.32,210.53Z"/><path class="cls-11" d="M82.17,146.64c.82.13,1.86-.17,2.28.8.13.31-.35.92-.62,1.35-.48.79-1,1.15-1.77.22-.47-.61-1-1.19-1.49-1.78C80.69,145.92,81.55,146.6,82.17,146.64Z"/><path class="cls-14" d="M97.53,178.67c.81-1,2-1.24,2.94-1.69.4-.18,1-.28,1.14.18a3.33,3.33,0,0,1,.27,1.75c-.12.69-.82.46-1.29.39C99.6,179.14,98.62,178.9,97.53,178.67Z"/><path class="cls-6" d="M78.91,174.27c.59.65,1.08,1.12,1.49,1.66s1.17,1,.66,1.69c-.19.27-1,.16-1.45.19-.92.06-1.18-.51-1.13-1.29A3.3,3.3,0,0,1,78.91,174.27Z"/><path class="cls-16" d="M150.27,205.87c-1.06-1-2.61-1.12-2.45-2.63.05-.48,1-1.07,1.41-.79A2.89,2.89,0,0,1,150.27,205.87Z"/><path class="cls-14" d="M95.15,184.56c-1.28-.78-2.31-1.27-2.3-2.53,0-.33.91-1,1.07-.91C95.15,181.82,94.64,183.14,95.15,184.56Z"/><path class="cls-17" d="M228.68,155.58c.7-.16,1.51.14,2.1-.5l4.17.48c.14.49,0,.71-.52.56C232.52,155.89,230.53,156.43,228.68,155.58Z"/><path class="cls-18" d="M181.65,94.43l-.52-.55a15.35,15.35,0,0,1,3.13-3.5.51.51,0,0,1,.37.33A13.58,13.58,0,0,1,181.65,94.43Z"/><path class="cls-11" d="M149,211.9c.7-.82,1.18-1.86,2.36-1.62.13,0,.26.64.17.92C151.11,212.76,149.86,211.61,149,211.9Z"/><path class="cls-19" d="M184.63,90.71a.67.67,0,0,1-.37-.33,5.26,5.26,0,0,1,3.34-2.87Z"/><path class="cls-20" d="M111.65,75.72c-.63-.61-.67-1.31-.2-2.34l.69,2.37C112,76,111.8,76,111.65,75.72Z"/><path class="cls-21" d="M111.65,75.72a2,2,0,0,1,.49,0c.16.86.31,1.72.46,2.58-.16.25-.31.25-.45,0C111.42,77.55,111.71,76.6,111.65,75.72Z"/><path class="cls-22" d="M234.43,156.12l.52-.56c.5.08,1.49-.2,1.2.64C235.92,156.86,235,156.53,234.43,156.12Z"/><path class="cls-14" d="M112.15,78.31l.45,0,.54,2.57h-.52C112,80.13,112.19,79.2,112.15,78.31Z"/><path class="cls-23" d="M103.35,193.36c.21-.37.41-.74.61-1.12.4.5.7,1.15.27,1.62S103.56,193.71,103.35,193.36Z"/><path class="cls-24" d="M82.17,146.64c-.56.13-1.22,0-1.6.59-.28-.22-.52-.6-.22-.81A1.46,1.46,0,0,1,82.17,146.64Z"/></svg>