<svg id="Layer_1" data-name="Layer 1" xmlns="http://www.w3.org/2000/svg" viewBox="0 0 300 300"><defs><style>.cls-1{fill:#d0d1d3;}.cls-2{fill:#010101;}.cls-3{fill:#1e8141;}.cls-4{fill:#020804;}.cls-5{fill:#06180c;}.cls-6{fill:#020904;}.cls-7{fill:#041108;}.cls-8{fill:#05140a;}.cls-9{fill:#020704;}.cls-10{fill:#05170b;}.cls-11{fill:#010502;}.cls-12{fill:#030d07;}</style></defs><path d="M20.47-.6H279.53a1,1,0,0,1,1,1V176.61A123.39,123.39,0,0,1,157.13,300h-14A123.62,123.62,0,0,1,19.47,176.38V.4a1,1,0,0,1,1-1Z"/><path class="cls-1" d="M149.91,3.64c40.16,0,80.32.06,120.48-.09,3.63,0,4.42.91,4.42,4.47-.13,54.84.65,109.7-.32,164.53-.82,45.85-20.24,82.45-60.31,106.34-23.23,13.85-49.06,17.39-75.72,15.48-23.73-1.7-45.69-8.67-64.8-23.22-26.2-19.94-41-46.8-46.85-78.87a126.91,126.91,0,0,1-1.73-23.21Q25.16,88.54,25,8c0-3.57.83-4.45,4.43-4.44C69.6,3.7,109.76,3.64,149.91,3.64Z"/><path class="cls-2" d="M150.44,9.58c6.33-.18,12.61,1.24,17.44,6.62,6.65,7.42,4.75,16.33-4.36,20.36a42.73,42.73,0,0,0-4.3,1.94,2.39,2.39,0,0,0-.94,3.67c.94,1.52,2.33,1.6,3.75.86,1.58-.82,2.49-2.34,3.53-3.72,4.16-5.53,10.47-6.29,15.76-1.83a16.53,16.53,0,0,1,6,14.58c-.77,9.32-5.7,16.28-13.86,20.51C165,76.94,156.05,70.45,156.89,61a14.08,14.08,0,0,0,.2-2.14c-.06-1.42,0-3.17-1.94-3.26-2.34-.12-1.7,1.75-1.72,3.1-.06,4.24-.74,8.32-3.13,11.93-.83,1.25-1.63,3.13-3.5,1.22-1.24-1.27-4.64-1.4-2.52-4.66a16.84,16.84,0,0,0,2.48-9c0-1.22-.15-2.37-1.66-2.57-1.79-.24-2.24,1-2.36,2.39a22.2,22.2,0,0,0,.2,3.44,11.4,11.4,0,0,1-15.06,11.93c-10.3-3.34-17.7-17.24-14.7-27.6a16,16,0,0,1,6.31-9c5-3.5,10.77-2.59,14.5,2.26,1.14,1.48,2.07,3.17,3.77,4.08,1.4.75,2.82.67,3.76-.85a2.41,2.41,0,0,0-.93-3.68c-1.49-.84-3.15-1.37-4.71-2.09-8.37-3.87-10.34-12.44-4.51-19.53C135.68,11.65,140.91,9.58,150.44,9.58Z"/><path class="cls-2" d="M150,216.24c7.23.17,14,1.59,18.72,7.83,5.35,7,3.46,15.09-4.51,19-1.54.75-3.19,1.29-4.72,2.07s-2.31,2.22-1.22,3.9,2.71,1.65,4.1.54a19.53,19.53,0,0,0,3.17-3.49c4.18-5.39,10.11-6.25,15.46-2,4.35,3.44,6.26,8.16,6.38,13.59.19,8.52-6.49,18.66-14.33,22-8.58,3.65-17-2.55-16.19-11.87.07-.72.21-1.43.21-2.15,0-1.49-.16-3.19-2-3.25-2.22-.08-1.66,1.78-1.67,3.18a21.76,21.76,0,0,1-3.38,12.29c-.94,1.4-2,2.3-3.33.7-1.08-1.25-4.51-1.13-2.56-4.28a18.26,18.26,0,0,0,2.59-8.58c.09-1.45.26-3.19-1.76-3.29-2.23-.11-2.29,1.73-2.28,3.35,0,1,.25,2,.29,3a11.33,11.33,0,0,1-14.78,11.42c-10.55-3.2-18.15-17.22-15-27.75a15.72,15.72,0,0,1,6.36-8.95c5.22-3.47,10.59-2.56,14.47,2.37a23.08,23.08,0,0,0,3.11,3.56c1.5,1.25,3.24,1.43,4.41-.49,1.05-1.73.18-3.06-1.41-3.89-1.15-.59-2.4-.94-3.59-1.45-9.27-4-11.31-13.14-4.59-20.63C136.8,217.54,143.2,216.37,150,216.24Z"/><path class="cls-2" d="M157,130a19,19,0,0,0,.11-3c-.14-1.31-.48-2.65-2.31-2.43s-1.34,1.51-1.34,2.63c0,4.39-.64,8.61-3.11,12.35-.81,1.22-1.59,3.19-3.47,1.24-1.23-1.27-4.66-1.37-2.56-4.64a17,17,0,0,0,2.49-9c0-1.21-.1-2.35-1.65-2.54-1.79-.21-2.29,1-2.37,2.38a33.66,33.66,0,0,0,.26,3.86,11.44,11.44,0,0,1-14.74,11.58c-10.66-3.21-18.35-17.62-15-28.17a15.63,15.63,0,0,1,6.95-9,10.17,10.17,0,0,1,13.53,2.43,32.33,32.33,0,0,0,3,3.66c1.5,1.36,3.35,2.09,4.75-.12,1.25-2,.1-3.26-1.66-4.11-1.15-.57-2.39-1-3.57-1.48-8.82-3.87-10.87-12.7-4.66-20.06,8.29-9.81,28.72-9.63,36.82.33,5.81,7.13,3.85,15.71-4.5,19.56-1.3.6-2.69,1-4,1.63-1.73.85-2.94,2.14-1.7,4.11,1.38,2.17,3.2,1.53,4.76.17a19.87,19.87,0,0,0,2.47-3c4.31-5.62,10.81-6.36,16.12-1.65a16.82,16.82,0,0,1,5.69,15.15c-1.05,8.72-5.8,15.2-13.37,19.5a10.75,10.75,0,0,1-11.86-.27A11,11,0,0,1,157,130Z"/><path class="cls-2" d="M149.73,147.34c7.12.13,13.51,1.36,18.27,6.83,6.46,7.44,4.43,16.43-4.59,20.37-1.31.58-2.66,1.06-3.94,1.7-1.71.87-2.23,2.29-1.15,3.92s2.69,1.63,4.1.46a19.24,19.24,0,0,0,2.89-3.15c4.82-6.25,12-6.72,17.33-.89,4.9,5.35,5.92,11.73,3.79,18.51A26.12,26.12,0,0,1,175,209.7c-4.06,2.53-8.39,3.15-12.61.44A11.08,11.08,0,0,1,157,198.36a8.65,8.65,0,0,0,.14-2.15c-.11-1.31-.3-2.73-2.06-2.73-2,0-1.63,1.48-1.62,2.78,0,4.07-.48,8.09-2.8,11.55-.74,1.11-1,4-3.55,2-1.66-1.28-4.94-1.83-2.55-5.33,1.73-2.53,2.18-5.58,2.26-8.65,0-1.31-.35-2.3-1.82-2.4s-2.09.91-2.17,2.14a29.44,29.44,0,0,0,.19,3.86,11.34,11.34,0,0,1-15.27,11.59c-10.48-3.68-17.62-17.3-14.47-27.69a15.62,15.62,0,0,1,6.79-9.14,10.13,10.13,0,0,1,13.84,2.43c1.25,1.55,2.18,3.38,4.1,4.34a2.48,2.48,0,0,0,3.64-1.08,2.25,2.25,0,0,0-.82-3.36,37.74,37.74,0,0,0-4.28-2c-9.11-3.94-11.19-12.8-4.77-20.32C136.56,148.6,143.12,147.46,149.73,147.34Z"/><path class="cls-3" d="M147,68.82c.67-3,1.41-5.95,2-8.94.45-2.33.54-4.67-1.91-6.11-1.43-.83-3-1.21-4.48-.2-2.17,1.47-2.67,3.72-2.24,6.09.86,4.65-.53,8.36-4.6,10.68s-8.17.91-11.56-1.89c-5.91-4.87-9.86-10.86-9.29-19a13.9,13.9,0,0,1,5.46-10.36c4-3.13,8.64-2.57,11.72,1.46,1.41,1.84,2.7,3.74,4.89,4.75,2.83,1.3,5.13.52,6.65-2.06a4.58,4.58,0,0,0-1.33-6.49A16.09,16.09,0,0,0,138.92,35c-10.24-4.36-11.4-12.54-2.75-19.4,7.36-5.82,23.84-4.53,30,2.35,5.32,6,4,12.72-3.26,16.2a43.22,43.22,0,0,0-5.05,2.38c-2.53,1.66-3.2,4.12-1.66,6.75s4.12,3.39,7,1.85c1.86-1,3-2.64,4.2-4.25,3.48-4.57,8.43-5,12.68-1.2,4.52,4.06,5.68,9.3,4.5,15-1.32,6.33-5.07,11.21-10.42,14.8-3.49,2.34-7.28,3-10.92.5a8.88,8.88,0,0,1-3.87-9.79,7.25,7.25,0,0,0-.51-4.63,3.84,3.84,0,0,0-5-2.27c-1.91.58-3.19,1.59-2.93,4.05C151.4,61.59,150.68,65.66,147,68.82Z"/><path class="cls-3" d="M146.94,275.93c.79-3.34,1.55-6.16,2.1-9,.44-2.29.71-4.73-1.67-6.21a4.39,4.39,0,0,0-4.93-.07c-2.09,1.46-2.55,3.76-2.05,6.17.92,4.51-.62,8-4.45,10.33-4,2.38-7.85,1.18-11.21-1.52-6.09-4.91-10.28-10.87-9.8-19.17a14.37,14.37,0,0,1,4.37-9.61c4.35-4.26,9.11-3.9,13,.76a20.24,20.24,0,0,0,3.89,4c2.6,1.75,5.29,1.5,7.19-1.19s1.23-5.27-1.47-7a59,59,0,0,0-5.44-2.59c-6.53-3.35-7.9-9.72-3.35-15.44,7.06-8.89,26.11-9,33.37-.25,4.92,5.95,3.41,12.58-3.64,15.93-1.56.74-3.25,1.23-4.73,2.09-2.84,1.65-3.47,4.13-2,7a5,5,0,0,0,7.48,1.49,16.42,16.42,0,0,0,3.32-3.34c4.86-6.1,11.27-5.78,15.43.9a16.32,16.32,0,0,1,1.1,15.7,23.42,23.42,0,0,1-11,12.31c-6.72,3.43-13.84-1.54-13.34-9.1a17.26,17.26,0,0,0,.25-3.84c-.43-2.74-2-4.44-5-4.15s-3.59,2-3.4,4.77C151.36,270.22,150.11,273.41,146.94,275.93Z"/><path class="cls-3" d="M147,137.78c.71-3.14,1.52-6.26,2.1-9.42.36-2,.48-4.09-1.55-5.45a4.33,4.33,0,0,0-4.89-.37,5.07,5.07,0,0,0-2.36,5.61c1,5-.33,9-4.91,11.27s-8.65.22-12.23-2.84c-7-6-9.93-14.71-7.41-22A13.42,13.42,0,0,1,120.4,108c4.12-3,8.61-2.49,11.76,1.52,1.25,1.58,2.28,3.34,4.07,4.4,2.79,1.65,5.33,1.35,7.17-1.35s1.25-5.26-1.46-7.09a26.08,26.08,0,0,0-4.27-2c-7.95-3.46-9.54-10.62-3.76-17,7.28-8,25.54-7.6,32.48.72,5,6,3.56,12.51-3.5,15.91a46.53,46.53,0,0,0-4.7,2.14c-2.88,1.8-3.81,4.44-1.8,7.34s4.77,3.08,7.52,1a17.26,17.26,0,0,0,3.2-3.45c4.21-5.44,10.16-5.5,14.46-.09a15.27,15.27,0,0,1,3.15,12.6A23,23,0,0,1,173.06,139c-3,1.75-6.39,2-9.44.06a8.92,8.92,0,0,1-4.37-9.2,10.14,10.14,0,0,0-.13-4.68c-.79-2.44-2.43-3.52-4.93-3.09-2.35.4-3.31,1.84-3.16,4.3C151.26,130.59,150.74,134.63,147,137.78Z"/><path class="cls-3" d="M147,206.76c.67-2.84,1.41-5.67,2-8.53.45-2.26.9-4.64-1.38-6.31a4.27,4.27,0,0,0-4.88-.39c-2.36,1.47-2.82,3.85-2.29,6.45a8.94,8.94,0,0,1-4.21,10c-3.72,2.37-7.45,1.46-10.9-.88-8.47-5.75-12.43-15.79-9.43-23.88,1.19-3.2,3.05-5.87,6.25-7.38,3.75-1.77,7-1.08,9.63,2.12,1.28,1.54,2.21,3.36,4,4.51,3.13,2,6.22,1.64,7.85-1.2,1.8-3.15.61-5.54-2.24-7.25a45.45,45.45,0,0,0-4.32-1.94c-6.92-3.2-8.5-9.47-4-15.54,3.16-4.26,7.62-6,12.63-6.54,7.78-.78,15.4-.43,20.89,6.29,4.95,6.05,3.27,12.56-3.84,15.82a42.52,42.52,0,0,0-4.69,2.17c-2.77,1.72-3.45,4.24-1.73,7s4.28,3.06,7.11,1.58a12,12,0,0,0,3.62-3.62c4.8-6.06,11.27-5.65,15.42.93,4.83,7.67,2.25,18.74-5.95,25.39-2.14,1.73-4.39,3.28-7.23,3.62-5.81.69-10.47-3.94-10.09-10.08.11-1.71.52-3.39-.09-5.11a4,4,0,0,0-5.05-2.89c-2.3.44-3.25,1.66-3.07,4.25C151.25,199.52,150.77,203.62,147,206.76Z"/><path class="cls-4" d="M159.67,49.57c-2.86-.52-5.69-.89-8.3.93-.32.22-.91.45-1.18.31-5.85-3.07-11.25-1.42-16.62,1.5,3.15-4.12,7.45-5.42,12.21-4.55,2.9.52,3.69,0,3.7-2.95,0-4.35,1.87-8.62.71-13.1,4.31,5-.26,10.84,1.35,16.26,3.17-.82,6.27-1.36,9.12.69C160.77,49.45,160.67,50,159.67,49.57Z"/><path class="cls-5" d="M159.67,49.57l1-.91a3.72,3.72,0,0,1,2.56,2.67C161.55,51.25,160.67,50.29,159.67,49.57Z"/><path class="cls-6" d="M147.08,255c1-.07,2.29.18,2.2-1.32-.3-5.18,2.9-10.34-.67-16.17,3.37,1.31,3.71,3.34,3.56,5.49-.23,3.14-.68,6.26-1,9.4-.18,1.8.32,2.56,2.44,2.05,3.14-.76,6.15-.36,8.31,2.68-3.78-1.31-7.33-1.79-11.09.27-1.8,1-3.64-1.33-5.63-1.55C145.22,254.17,146.18,254.62,147.08,255Z"/><path class="cls-7" d="M147.08,255l-1.86.85c-3-.16-5.74.89-8.46,2-.93.27-1.22-.16-1.1-1C139.18,254.32,142.91,253.24,147.08,255Z"/><path class="cls-8" d="M135.66,256.74l1.1,1L132,261.23A6.69,6.69,0,0,1,135.66,256.74Z"/><path class="cls-9" d="M134.83,119.44c3.47-2.71,7.36-3.83,11.66-2.69,2.35.62,3-.06,2.94-2.39-.15-4.75,2.56-9.53-.6-14.48,3.08,1.55,3.44,1.83,3.32,4.81s-.65,6.25-1,9.37c-.21,2-.06,3.36,2.71,2.4,3.71-1.29,6.54.64,9,3.39-4-1.71-8-3.14-12-.15-.31.23-1.15,0-1.58-.24-4.72-2.95-9.08-1.18-13.42,1C135,120.68,134.72,120.25,134.83,119.44Z"/><path class="cls-10" d="M134.83,119.44l1,1a9.85,9.85,0,0,1-4.45,2.69C132.52,121.08,133.46,120.07,134.83,119.44Z"/><path class="cls-4" d="M147.72,186.09c.51-.16,1.47-.34,1.46-.47-.29-5.46,2.95-10.91-.13-16.51,2.87,1.31,3.22,1.59,3.1,4.6s-.66,6.24-1,9.36c-.18,1.92.19,2.93,2.62,2.29a7.48,7.48,0,0,1,8.8,3.44c-3.9-1.93-7.66-2.74-11.72-.37-1.35.79-2.93-.66-4.27-1.46C146.69,186.31,147.32,186.34,147.72,186.09Z"/><path class="cls-11" d="M147.72,186.09l-1.1.88a19.17,19.17,0,0,0-8.1.84c-1,.41-1.18-.11-1.09-.95C140.74,185.05,144.15,184.54,147.72,186.09Z"/><path class="cls-12" d="M137.43,186.86c.36.32.72.64,1.09.95l-5.23,3.37C133.72,188.66,135.4,187.58,137.43,186.86Z"/></svg>