<svg id="Layer_1" data-name="Layer 1" xmlns="http://www.w3.org/2000/svg" viewBox="0 0 300 300"><defs><style>.cls-1{fill:#0058a2;}.cls-2{fill:#00080f;}.cls-3{fill:#00172b;}.cls-4{fill:#000c17;}.cls-5{fill:#000911;}.cls-6{fill:#000912;}.cls-7{fill:#00294b;}.cls-8{fill:#000b15;}.cls-9{fill:#001424;}.cls-10{fill:#00203b;}.cls-11{fill:#000f1c;}.cls-12{fill:#003867;}.cls-13{fill:#002d54;}.cls-14{fill:#003d72;}.cls-15{fill:#003460;}.cls-16{fill:#001a30;}.cls-17{fill:#003766;}.cls-18{fill:#b2a06e;}.cls-19{fill:#b2a06d;}.cls-20{fill:#93845a;}.cls-21{fill:#5e553a;}.cls-22{fill:#a39365;}.cls-23{fill:#8a7c55;}.cls-24{fill:#383222;}.cls-25{fill:#6d6243;}.cls-26{fill:#887a53;}.cls-27{fill:#b09e6c;}.cls-28{fill:#96875c;}.cls-29{fill:#81744f;}.cls-30{fill:#8d7e56;}.cls-31{fill:#3c3625;}.cls-32{fill:#232016;}</style></defs><path d="M21.13-.61H278.87a1,1,0,0,1,1,1V176.59A123.39,123.39,0,0,1,156.47,300H143.76A123.62,123.62,0,0,1,20.13,176.37V.38a1,1,0,0,1,1-1Z"/><path class="cls-1" d="M150.15,2.69h124.1c3.51,0,3.51,0,3.51,3.49q0,81.88,0,163.75c0,49-22.51,85-64.13,109.45-20,11.79-41.88,18.26-65.3,17.82-25.61-.49-48.9-8.77-70.13-22.86C55,258.94,38,238.48,28.76,212a114.57,114.57,0,0,1-6.43-37.85q-.1-84.36-.1-168.71c0-2.5,1-2.76,3-2.75Q87.72,2.72,150.15,2.69Z"/><path d="M231.93,190.4c-4.85-6.22-9.75-12.41-14.52-18.7-1.11-1.47-2.23-2-3.94-1.37-.24.09-.51.11-.75.19a25.61,25.61,0,0,1-19.41-.87,49.8,49.8,0,0,0-5.53-1.61c3.05,6.13,5.81,11.69,8.58,17.24.42.84,1.35,1.07,2.1,1.46q8.1,4.17,16.21,8.29a3.1,3.1,0,0,1,2.09,2.39c1.91,12.6,3.89,25.19,5.84,37.77.22.56-.06.64-.52.54-4-9.79-8.1-19.56-12.05-29.38a4.76,4.76,0,0,0-3.64-3.19c-5.89-1.49-11.71-3.23-17.59-4.75a6.41,6.41,0,0,1-3.59-2.33c-2.77-3.46-5.59-6.87-8.41-10.29a5.35,5.35,0,0,0-2.29-2c.74,4.27,1.44,8.27,2.1,12.27.18,1.08,1,1.55,1.69,2.22,2.29,2.35,6.26,3.87,6.78,6.85.5,2.8-1.59,6.07-2.58,9.12Q179,225,175.45,235.72c-1.17-.25-.52-1-.44-1.61.94-7.83,1.84-15.67,2.88-23.49.2-1.44-.07-2.36-1.36-2.94-7.65-3.42-12.27-9.55-15.36-17.07a5.21,5.21,0,0,0-1.81-2.59c-1.42,4.19-2.55,8.38-4.24,12.32a14.48,14.48,0,0,0-.11,11.95c1.8,4.4,3,9.06,4.47,13.59a3,3,0,0,1-.38,3.12Q148,244.09,137,259.25c-.5.11-.76,0-.55-.57,3.9-9.46,7.75-18.94,11.74-28.36a4.53,4.53,0,0,0-.26-4.57c-3.15-5.3-6.14-10.69-9.23-16a6.05,6.05,0,0,1-.85-3.94c.55-4.74.91-9.5,1.34-14.25,0-.6.75-1.48-.57-1.61-1.87,2.62-3.62,5.32-5.62,7.82a7.35,7.35,0,0,0-1.52,5.78c.82,8.37.77,8.39-6.74,12.19-6.8,3.45-13.63,6.83-20.45,10.24-.63.25-.72-.09-.65-.6,6.15-4.81,12.26-9.67,18.48-14.39,1.39-1.05,1.94-2.05,1.33-3.69-2.75-7.37-2-14.58,1-21.69.46-1.1.7-2.29,1.15-3.81-2.83.81-4.9,2.47-7.29,3.25a23.71,23.71,0,0,0-15.76,15.5c-1,2.84-2.73,5.42-4.08,8.13a2.6,2.6,0,0,1-2.08,1.69Q78.13,213.14,59.89,216c-.59.12-1.31.67-1.56-.44,9.79-4,19.57-8.11,29.39-12.07a4.1,4.1,0,0,0,2.71-3.1c1.54-5.88,3.24-11.72,4.75-17.61a7.36,7.36,0,0,1,2.75-4.22c3.93-3.1,7.77-6.33,12.06-9.85-2.82-.51-4.92.59-7.08.62A11.32,11.32,0,0,0,92.76,175c-2.38,3.91-5.24,4.05-9.32,2.53C75,174.38,66.33,171.81,57.75,169c-.11-.5,0-.75.58-.57,8,1,16,1.94,24,3.05,1.88.26,3.16,0,4-1.79a27.26,27.26,0,0,1,15.45-14.19,11.18,11.18,0,0,0,4-2.48l-17.73-5.94a3.87,3.87,0,0,0-2.52.34c-5.87,1.88-11.75,3.73-17.6,5.67a3.36,3.36,0,0,1-3.38-.46Q49.74,141.77,34.87,131a1.24,1.24,0,0,1-.69-1.38c2.48,1,4.86,1.95,7.22,2.93C48.93,135.68,56.47,138.8,64,142a3.69,3.69,0,0,0,3.65-.3c5-2.93,10.15-5.69,15.1-8.73a10.11,10.11,0,0,1,6.92-1.41c4.14.51,8.29.91,12.43,1.33.65.07,1.31,0,2.77,0-4.07-2.84-7.37-5.53-11-7.54-2-1.09-4.71-.49-6.92,0-4.28,1-6.08-1-7.74-4.57-3.51-7.55-7.47-14.9-11.24-22.33a5.55,5.55,0,0,1-.76-2.86c1.56,1.95,3.14,3.88,4.67,5.86,3.73,4.8,7.46,9.6,11.1,14.47.92,1.22,1.84,1.71,3.3,1.16,7.45-2.8,14.73-2.09,21.93,1a6.08,6.08,0,0,0,3.86.7c-2.15-4.36-4.39-8.53-6.27-12.85a12,12,0,0,0-6.46-6.63c-4.75-2.14-9.31-4.68-13.94-7.06-.94-.47-1.81-.9-2-2.16q-2.89-18.92-5.88-37.82c-.15-.54.08-.68.58-.55,4.06,9.86,8.14,19.72,12.14,29.6A4.09,4.09,0,0,0,93.26,84c5.79,1.49,11.54,3.18,17.34,4.65a8.05,8.05,0,0,1,4.64,3c3.22,4.08,6.57,8.06,10.33,12-.77-4.34-1-8.88-2.52-12.94-.87-2.32-3.7-4-5.91-5.69s-2.54-3.28-1.62-5.9c3.17-9.08,6.06-18.26,9.06-27.41,1,0,.58.68.5,1.17-1,7.93-1.87,15.86-2.91,23.78-.19,1.42,0,2.36,1.33,2.95C131.06,83,135.7,89,138.77,96.48a4.3,4.3,0,0,0,2,2.65c2-6,4.05-11.85,5.94-17.77a4.74,4.74,0,0,0-.48-2.5c-1.85-5.79-3.7-11.57-5.6-17.34a3,3,0,0,1,.31-3.13c7.4-10.09,14.73-20.21,22.08-30.33a10.36,10.36,0,0,0,.5-.93l.62.4c-.92,2.35-1.79,4.71-2.76,7-3.21,7.69-6.42,15.37-9.72,23a3.58,3.58,0,0,0,.34,3.62c3.19,5.48,6.29,11,9.46,16.5a5.7,5.7,0,0,1,.8,3.69c-.62,5.43-1.09,10.88-1.66,16.76,1.89-1.74,2.77-3.8,4.21-5.38,3.18-3.48,4.69-7.35,3.56-12.09-.92-3.92.54-6.15,4.4-7.88,7.91-3.54,15.52-7.76,23.26-11.69a4.16,4.16,0,0,1,2.32-.56c-2,1.64-4,3.3-6.11,4.9-4.81,3.72-9.61,7.44-14.48,11.08-1.22.91-1.71,1.81-1.15,3.28,3,7.74,1.85,15.27-1.22,22.7a4.39,4.39,0,0,0-.45,3.13c2.65-1.31,5.07-2.86,7.72-3.75A22,22,0,0,0,197,87.77c1.16-3.15,3.05-6,4.55-9.07A2.67,2.67,0,0,1,203.63,77q18-2.74,36-5.54c.62-.11,1.37-.71,1.62.47-9.46,3.91-18.9,7.87-28.39,11.69a5,5,0,0,0-3.38,3.77C208,93.27,206.32,99.1,204.77,105a6.14,6.14,0,0,1-2.19,3.4c-4.18,3.36-8.3,6.79-13,10.68,5.07-.52,9.48-.94,13.55-2.41,1.81-.66,3.28-2.83,4.44-4.62,2.28-3.51,4.82-3.86,8.69-2.39,7.53,2.86,15.28,5.13,23,7.57,1.23.39,2.23,1.37,3.61,1.31.15.08.21.18.17.28s-.07.17-.12.17c-7.91-1-15.85-1.83-23.74-3-2.79-.4-4.81-.24-6.1,2.69-2.66,6.11-7.42,10-13.53,12.51a61.13,61.13,0,0,0-5.54,3c6.56,2.2,12.44,4.18,18.34,6.13a3.73,3.73,0,0,0,2.27-.39c5.7-1.84,11.41-3.62,17.08-5.53a4.1,4.1,0,0,1,4.29.6c9.79,7.21,19.65,14.31,29.49,21.45a3.58,3.58,0,0,1,1.34,1.65L251,151.52c-4.8-2-9.64-3.94-14.4-6a4.25,4.25,0,0,0-4.35.23c-5.14,3.06-10.42,5.9-15.56,9a8.4,8.4,0,0,1-5.68,1.09,112.85,112.85,0,0,0-15.17-1c3.37,2.37,6.63,4.89,10.13,7,1.81,1.11,4.09.35,6.14.23,6.23-.36,6.25-.41,9,5.14q5.69,11.27,11.33,22.56C232.74,190.39,232.42,190.48,231.93,190.4Z"/><path class="cls-2" d="M103.62,225.36l.65.6a7,7,0,0,1-3,1.45A5.32,5.32,0,0,1,103.62,225.36Z"/><path class="cls-3" d="M58.33,168.42l-.58.57-2.37-.7A3.25,3.25,0,0,1,58.33,168.42Z"/><path class="cls-4" d="M175,234.11l.44,1.61-.5,2c-.12.1-.25.18-.35.14-.26-.1-.2-.31-.14-.52A7.93,7.93,0,0,1,175,234.11Z"/><path class="cls-5" d="M125.08,52.9l-.5-1.17.51-2c.46-.22.64-.1.49.41A6.4,6.4,0,0,1,125.08,52.9Z"/><path class="cls-6" d="M241.25,71.92l-1.62-.47a6.25,6.25,0,0,1,2.66-.55c.53-.16.65,0,.48.53Z"/><path class="cls-7" d="M242.85,119a2.3,2.3,0,0,1,0-.45l2,.47C244,119.85,243.43,119.37,242.85,119Z"/><path class="cls-8" d="M231.93,190.4l.57-.61a3.14,3.14,0,0,1,.88,2.77Z"/><path class="cls-9" d="M58.33,215.58l1.56.44a5.73,5.73,0,0,1-2.67.56c-.49.09-.68-.05-.41-.54Z"/><path class="cls-10" d="M78,51.71l-.58.55a2.24,2.24,0,0,1-.34-1.92C78,50.44,77.9,51.14,78,51.71Z"/><path class="cls-11" d="M136.43,258.68l.55.57a3.23,3.23,0,0,1-1.37,1.71A3,3,0,0,1,136.43,258.68Z"/><path class="cls-12" d="M138.6,189.93l.64-.59c.69.76.21,1.47-.07,2.2Z"/><path class="cls-13" d="M242.77,71.43l-.48-.53c.48-.21.93-.75,1.46-.11Z"/><path class="cls-14" d="M56.81,216l.41.54c-.44.23-1,.71-1.32.13C55.71,216.35,56.41,216.17,56.81,216Z"/><path class="cls-15" d="M125.58,50.13l-.49-.41c.13-.41.15-1.16.74-.86C126.23,49.07,125.83,49.72,125.58,50.13Z"/><path class="cls-16" d="M222.08,235.73l.52-.54c.31.52.72,1.26.2,1.58S222.17,236.21,222.08,235.73Z"/><path class="cls-17" d="M174.46,237.33l.49.38c-.15.4-.13,1.18-.73.89C173.8,238.4,174.19,237.74,174.46,237.33Z"/><path class="cls-1" d="M193.44,143.69a43.42,43.42,0,1,1-43.32-43.5A43.46,43.46,0,0,1,193.44,143.69Z"/><path class="cls-18" d="M113.26,117.23c-2.6-5.24-5.08-10.1-7.43-15a6.12,6.12,0,0,0-3-3c-5.28-2.63-10.52-5.35-15.77-8-1-.52-1.94-1-2.15-2.35-1.16-7.8-2.4-15.6-3.27-23.52,1.72,4.11,3.81,8.12,5.07,12.37,1.62,5.42,4.5,8.6,10.4,9.33,4.08.51,8,2.24,12.06,3.18a8.73,8.73,0,0,1,5.29,3.35c2.86,3.72,5.86,7.33,8.91,10.9,1,1.23,1.27,1.91-.27,3A42.78,42.78,0,0,0,113.26,117.23Z"/><path class="cls-18" d="M142.77,98.84c1.83-5.46,3.52-10.65,5.32-15.79a5.85,5.85,0,0,0,0-4c-1.92-5.76-3.72-11.56-5.59-17.33a2.61,2.61,0,0,1,.13-2.68q6.31-8.61,12.58-17.26c.21-.29.46-.48,1.17-.3-1.35,3.28-2.28,6.77-4.09,9.72-3.57,5.83-3,10.91,1.06,16.26,2.46,3.2,4.06,7.06,6.16,10.55a6.07,6.07,0,0,1,.87,4q-.83,7.77-1.55,15.54c-.1,1.13-.3,1.81-1.69,1.55C152.55,98.15,147.87,98.45,142.77,98.84Z"/><path class="cls-18" d="M143.5,246.06c2.24-5.4,4.41-10.83,6.77-16.17a4,4,0,0,0-.29-4.07c-3.21-5.46-6.27-11-9.48-16.48a6.19,6.19,0,0,1-.87-4c.55-5.18,1.08-10.37,1.54-15.56.11-1.24.53-1.7,1.77-1.49a46.1,46.1,0,0,0,14.41,0c-1.77,5.23-3.37,10.21-5.15,15.12a8.16,8.16,0,0,0,0,5.78c1.86,5.41,3.53,10.89,5.33,16.32a2.83,2.83,0,0,1-.22,2.91c-4.13,5.6-8.19,11.23-12.29,16.84C144.65,245.77,144.37,246.43,143.5,246.06Z"/><path class="cls-18" d="M218,221.08c-2.31-5.61-4.66-11.2-6.9-16.83a3.59,3.59,0,0,0-2.73-2.39c-6.12-1.59-12.19-3.35-18.31-4.94a6.67,6.67,0,0,1-3.83-2.42q-4.69-5.91-9.58-11.67c-1-1.13-1.25-1.78.22-2.79a43.28,43.28,0,0,0,9.95-9.95c2.41,4.86,4.81,9.41,6.94,14.09a8.61,8.61,0,0,0,4.41,4.42c5.07,2.46,10,5.11,15.06,7.67,1,.48,1.76,1,1.94,2.2,1.06,7.21,2.18,14.4,3.28,21.6C218.55,220.54,218.89,221.09,218,221.08Z"/><path class="cls-18" d="M73.41,211.36c5.2-2.16,10.38-4.35,15.61-6.44a4.26,4.26,0,0,0,2.91-3.23c1.53-6.13,3.3-12.21,4.92-18.32A6,6,0,0,1,99,180c4.08-3.24,8.08-6.57,12.09-9.89.78-.65,1.37-1.26,2.24,0a46.68,46.68,0,0,0,10.23,10.36c-5,2.51-9.79,5-14.63,7.24a7.1,7.1,0,0,0-3.57,3.51c-2.56,5.21-5.3,10.33-7.89,15.53a3.38,3.38,0,0,1-2.89,2.11c-6.7.93-13.37,2-20,3C74,212,73.41,212.35,73.41,211.36Z"/><path class="cls-18" d="M46.74,137.42c1.38-.47,2.24.3,3.16.67,4.66,1.91,9.31,3.81,13.92,5.82a4,4,0,0,0,4.09-.31c5.52-3.28,11.15-6.37,16.7-9.6a5.62,5.62,0,0,1,3.69-.73c4.92.55,9.85,1,14.78,1.42,1.72.15,2.58.49,2.2,2.62a32.63,32.63,0,0,0-.16,11.41c.34,1.94-.27,2.17-2,1.55-4.56-1.65-9.2-3.11-13.78-4.72a5.4,5.4,0,0,0-3.76-.06C80,147.37,74.34,149.08,68.76,151a4.06,4.06,0,0,1-4.27-.58C58.68,146,52.76,141.79,46.74,137.42Z"/><path class="cls-18" d="M252.12,149.53c-1,.5-1.69-.2-2.44-.51-4.41-1.79-8.84-3.56-13.18-5.51a4.39,4.39,0,0,0-4.56.35c-5.14,3.06-10.39,5.93-15.55,8.95a7.63,7.63,0,0,1-5.14,1.18c-4.9-.63-9.82-1.09-14.75-1.51-1.46-.12-2.07-.3-1.77-2.09a34.32,34.32,0,0,0,.22-11.66c-.38-2.14.34-2.29,2.18-1.62,4.47,1.64,9,3.06,13.51,4.65a5.85,5.85,0,0,0,4,.06c5.66-1.9,11.37-3.69,17-5.58a3.68,3.68,0,0,1,3.79.59c5,3.76,10.08,7.38,15.11,11.08C251.16,148.34,252,148.58,252.12,149.53Z"/><path class="cls-18" d="M226.15,76.11c-4.94,2.09-9.84,4.3-14.86,6.22A4.83,4.83,0,0,0,208,86.14c-1.51,6-3.2,11.89-4.78,17.84a5.7,5.7,0,0,1-2,3.22c-4.07,3.25-8.07,6.59-12.09,9.9-.81.68-1.5,1.47-2.47.06a45,45,0,0,0-10.17-10.28c3.41-1.69,6.44-3.53,9.7-4.72a17.73,17.73,0,0,0,11-10.83c1.49-3.77,3.66-7.28,5.51-10.91.44-.86.8-1.62,2-1.79,6.78-1,13.5-2.34,20.33-3C225.51,75.43,226.1,75.14,226.15,76.11Z"/><path class="cls-19" d="M224,114.86a45.69,45.69,0,0,1-6.44-.79c-2.52-.66-4.09-.08-5.18,2.31-3.08,6.8-8.37,11.18-15.18,14.05-3.41,1.44-3.24,1.67-4.5-1.68-.93-2.51-2.07-4.94-3.2-7.62,3.85-.68,7.64-1.53,11.47-2a6.55,6.55,0,0,0,5.36-3.12c3.24-5.56,7.51-6.48,13-3.44a28.49,28.49,0,0,0,5.17,1.71C224.7,114.8,224.57,115,224,114.86Z"/><path class="cls-19" d="M222.31,175.18c-1.37-1.76-2.81-3.47-4.07-5.3-1.05-1.54-2.18-2.44-4.07-1.49-.07,0-.17,0-.25.05-7.85,3-15.41,1.66-22.92-1.34-1.29-.52-1.94-.72-1-2.22a31.17,31.17,0,0,0,3.21-7.65c.45-1.59,1-1.47,2.11-.66,2.88,2.1,5.84,4.06,8.68,6.2a5.57,5.57,0,0,0,4.56,1.29c1.44-.25,3,0,4.4-.3,3.6-.87,5.35.78,6.56,4a76.61,76.61,0,0,0,3.54,7.08Z"/><path class="cls-19" d="M76.6,172.6a48.18,48.18,0,0,1,6.71.76c2.14.53,3.25-.24,4.09-2a27.32,27.32,0,0,1,15.75-14.52,8.76,8.76,0,0,0,1.83-1c.92-.61,1.41-.33,1.68.66a39.72,39.72,0,0,0,3.43,8.41c.67,1.26,0,1.4-1,1.57-3.76.62-7.5,1.41-11.27,1.94a5.26,5.26,0,0,0-3.26,1.83c-2.14,2.25-3.64,5.95-6.46,6.45-2.65.47-5.73-1.52-8.62-2.44L76,173.12C75.94,172.65,76,172.33,76.6,172.6Z"/><path class="cls-19" d="M179.16,215.8c.2-2,.3-4,.63-5.93a2.7,2.7,0,0,0-1.7-3.31c-7.44-3.42-12.36-9.16-15.3-16.72-.28-.72-.69-1.38-1.15-2.28a64.37,64.37,0,0,0,9.75-4c1.47-.82,1.36.43,1.49,1.17a88.6,88.6,0,0,1,1.5,9c.24,2.89,1.21,5.26,3.7,6.71,5.09,3,6,6.87,3.23,12a30.37,30.37,0,0,0-1.64,4.64C178.67,216.94,179,216.33,179.16,215.8Z"/><path class="cls-19" d="M181.31,71.49a8.64,8.64,0,0,1-1.61,1.31c-5,2.4-6.2,6.13-4.06,11.14,3,7-.83,13.14-2.48,19.56-.36,1.41-1.14.6-1.73.28a53.62,53.62,0,0,0-9.51-3.85c2-2.83,3.74-5.68,5.86-8.24s3.37-5.33,2.5-8.58c-1.45-5.39.73-8.38,5.8-9.92A32.87,32.87,0,0,0,180.76,71C181.32,70.75,181.44,71,181.31,71.49Z"/><path class="cls-19" d="M119.28,215.48c1.76-1.41,3.47-2.87,5.29-4.19a2.13,2.13,0,0,0,1-2.65c-.09-.24-.05-.53-.14-.76-3.11-7.89-2-15.54,1.14-23.15.58-1.43.92-2,2.44-1.06a30.69,30.69,0,0,0,7.67,3.18c1.33.36,1.39.86.59,1.92-1.67,2.21-3.07,4.65-4.87,6.74-2.32,2.69-3.45,5.67-2.57,9.06,1.31,5.08-.63,7.94-5.45,9.39a31,31,0,0,0-4.45,2.09C119.28,216.31,119.21,216,119.28,215.48Z"/><path class="cls-19" d="M120.91,71.64a7.85,7.85,0,0,1-.14,2.07c-1.72,4.72.39,7.52,4.61,9.22,7.21,2.91,9.2,9.93,12.58,15.86.62,1.07-.09,1.26-.94,1.52a37.08,37.08,0,0,0-7.93,3.26c-1.4.81-1.75.31-2-1-.46-3-1.22-6-1.47-9s-1.26-5.2-3.75-6.69c-4.85-2.91-6.08-6.69-3.21-11.75a27.24,27.24,0,0,0,1.65-4.65C121.35,70.47,121.06,71.09,120.91,71.64Z"/><path class="cls-19" d="M78.08,112.69c.18.19.42.34.52.57,2.67,5.59,6.84,7.09,12.49,4.61,5.2-2.27,10-.07,14.82,1.42s4.79,1.48,2.76,6c-.36.79-.68,1.59-1,2.4-1.5,4-1.5,4-4.9,1.58a6.55,6.55,0,0,1-.85-.61c-4.73-4.45-10.15-6.63-16.72-5.06-1.93.46-3-.46-3.71-2.24-1.19-2.77-2.66-5.43-4-8.14C77.32,112.7,77.58,112.57,78.08,112.69Z"/><path class="cls-20" d="M120.91,71.64l-.56-1.17.59-2.47c.47-.25.62-.1.49.4A7.8,7.8,0,0,1,120.91,71.64Z"/><path class="cls-21" d="M224,114.86l.53-.55,1.87.52A2,2,0,0,1,224,114.86Z"/><path class="cls-22" d="M179.16,215.8l.51,1.18-.48,2.06c-.48.18-.68,0-.54-.48A6.87,6.87,0,0,1,179.16,215.8Z"/><path class="cls-23" d="M73.41,211.36l1.14.53a4,4,0,0,1-3.42.17Z"/><path class="cls-24" d="M178.65,218.56l.54.48a1.81,1.81,0,0,1-.72,1.52C177.94,219.74,178.34,219.15,178.65,218.56Z"/><path class="cls-25" d="M218,221.08l.45-1a2.75,2.75,0,0,1,.13,2.84Z"/><path class="cls-26" d="M76.6,172.6l-.58.52-2.1-.46c-.15-.1-.2-.21-.16-.32s.09-.18.13-.18A4.77,4.77,0,0,1,76.6,172.6Z"/><path class="cls-27" d="M226.15,76.11,225,75.62a3.59,3.59,0,0,1,2.52-.4C227.35,76,226.72,76,226.15,76.11Z"/><path class="cls-28" d="M119.28,215.48l.62.57a4.08,4.08,0,0,1-2.2,1.1A2.43,2.43,0,0,1,119.28,215.48Z"/><path class="cls-29" d="M181.31,71.49l-.55-.54c.4-.41,1.05-1,1.4-.55C182.69,71.09,181.76,71.22,181.31,71.49Z"/><path class="cls-30" d="M78.08,112.69l-.57.58c-.44-.41-1-1.08-.56-1.44C77.66,111.27,77.8,112.24,78.08,112.69Z"/><path class="cls-31" d="M121.43,68.4l-.49-.4c.13-.43.15-1.19.74-.9C122.1,67.3,121.74,68,121.43,68.4Z"/><path class="cls-32" d="M73.89,172.16a.67.67,0,0,0,0,.5c-.44-.09-1,0-.88-.76Z"/><path d="M149.93,183.65a40,40,0,1,1,40.14-39.83A40.09,40.09,0,0,1,149.93,183.65Z"/><path class="cls-18" d="M188.21,143.63a38.18,38.18,0,1,1-38.28-38.21A38.24,38.24,0,0,1,188.21,143.63Z"/></svg>