<svg id="Layer_1" data-name="Layer 1" xmlns="http://www.w3.org/2000/svg" viewBox="0 0 300 300"><defs><style>.cls-1{fill:#bebebe;}.cls-2{fill:#16599b;}.cls-3{fill:#e7ab30;}</style></defs><path d="M26.21-.61H273.79a1,1,0,0,1,1,1V176.59A123.39,123.39,0,0,1,151.39,300h-2.56A123.62,123.62,0,0,1,25.21,176.37V.38a1,1,0,0,1,1-1Z"/><path class="cls-1" d="M271.46,93.47q0,40,0,80A121.35,121.35,0,0,1,198,285.3a118,118,0,0,1-26.92,8.07c-1.55.27-1.79,0-1.68-1.5a35.51,35.51,0,0,0-2.3-16.41,16.59,16.59,0,0,0-3.11-5.08c-3.52-3.77-8-3.68-11.47.22a36.84,36.84,0,0,0-3.07,4.83c-3.13,5-7.45,5.15-10.17-.05-5.13-9.78-5.14-19.88,0-29.65,2.67-5,7-4.87,10.06,0a33.52,33.52,0,0,0,3.23,5c3.61,4,8.12,3.93,11.61-.14a21.66,21.66,0,0,0,4.44-9.91,37.25,37.25,0,0,0-1.13-20.18,19.28,19.28,0,0,0-2.2-4.46c-4-6-9.89-6-13.9,0-1,1.51-1.81,3.19-2.93,4.62-2.6,3.33-5.63,3.33-8.32.08a19.9,19.9,0,0,1-3.82-9.1,34.62,34.62,0,0,1,1.12-18.22,15.45,15.45,0,0,1,2.7-5c2.63-3.13,5.6-3.19,8.18-.06a31,31,0,0,1,2.54,4c4.21,7,11,7.23,14.76.07,5.5-10.47,5.53-21.36-.06-31.82-3.76-7-10.48-6.8-14.62.05a23.47,23.47,0,0,1-3,4.58c-2.42,2.45-5,2.45-7.37-.06A16,16,0,0,1,137,158.3a35.11,35.11,0,0,1,0-19.7,18.91,18.91,0,0,1,1.25-3.26c1.28-2.56,2.71-5.32,5.95-5.43s4.59,2.59,6,5c1.88,3.35,4,6.61,8.41,6.42s6.68-3.54,8.17-7.13a35.62,35.62,0,0,0,.13-27.48A12.38,12.38,0,0,0,166,105c-1.73-3-3.89-5.59-7.66-5.61s-5.79,2.53-7.54,5.41c-.69,1.13-1.28,2.35-2.07,3.4-2.74,3.63-6.08,3.63-8.82,0a20.59,20.59,0,0,1-3.6-8.94A33.28,33.28,0,0,1,138,79.87c1.17-2.78,2.6-5.75,6-6s4.86,2.71,6.31,5.24c1.88,3.28,4,6.37,8.31,6.15s6.42-3.3,7.91-6.74a35.24,35.24,0,0,0,.09-28.37,15.05,15.05,0,0,0-.79-1.55c-4.17-7.12-10.73-7.15-15-.09-.68,1.14-1.28,2.34-2.06,3.42-2.74,3.79-6.14,3.83-8.95.12a20.79,20.79,0,0,1-3.59-8.95,34.66,34.66,0,0,1,1.16-18,11.32,11.32,0,0,1,.63-1.62c1.36-2.58,2.6-5.5,6-5.7s4.71,2.63,6.16,5.06c0,.08.09.14.13.22,1.8,3.24,4,6.22,8.09,6.13s6.37-3.21,8-6.6a31.78,31.78,0,0,0,2.93-15.78c-.07-1.62.33-2.08,2-2.08q49,.07,97.95,0c2.23,0,2.08,1,2.07,2.53Q271.45,50.36,271.46,93.47Z"/><path class="cls-2" d="M28.57,93.51q0-43-.05-86c0-2.1.4-2.82,2.7-2.82q66.47.12,132.94,0c2.4,0,2.93.79,2.89,3a36.05,36.05,0,0,1-2,12,17,17,0,0,1-2.05,4c-2.89,4.05-6.31,4.1-9.27.07-.79-1.06-1.36-2.29-2-3.42-4.18-6.84-10.89-7.06-14.64,0-5.62,10.56-5.59,21.53.11,32.05,3.66,6.76,10.26,6.56,14.38,0,.76-1.19,1.36-2.49,2.18-3.64,2.91-4,6.42-4,9.27,0,2.31,3.29,3.24,7.08,3.73,11a33.75,33.75,0,0,1-1.58,15.76,16.25,16.25,0,0,1-1.22,2.73c-1.28,2.17-2.61,4.45-5.52,4.49s-4.27-2.22-5.61-4.37a35.11,35.11,0,0,0-2.57-4c-3.45-4.17-8.23-4.17-11.77-.09A17.88,17.88,0,0,0,135,80.63,36.77,36.77,0,0,0,135,104a22,22,0,0,0,2,4.3c4.09,6.85,10.49,6.84,14.7,0a25.81,25.81,0,0,1,2.84-4.4c2.62-2.8,5.37-2.75,7.86.19a16.83,16.83,0,0,1,3.17,6.18,34.66,34.66,0,0,1-.14,20.66,19.24,19.24,0,0,1-2,4.3c-3.06,5-7.18,4.92-10.25-.08a32.9,32.9,0,0,0-2.94-4.63c-3.5-4.07-8-4.17-11.62-.25a16.52,16.52,0,0,0-3.46,6,36.63,36.63,0,0,0,.27,25,14.71,14.71,0,0,0,4.23,6.38,6.83,6.83,0,0,0,9.51-.18,13.68,13.68,0,0,0,2.77-3.51c.45-.8.87-1.62,1.37-2.38,3.1-4.82,7-4.81,10.11.05a24.38,24.38,0,0,1,3.34,10.63,32.17,32.17,0,0,1-2.29,17.12c-1.21,2.69-2.72,5.52-6.08,5.61-3.17.09-4.59-2.62-6-5-1.89-3.36-4-6.61-8.46-6.35s-6.63,3.59-8.12,7.22a35.52,35.52,0,0,0,0,27.49,14.24,14.24,0,0,0,3,4.59c3.52,3.69,7.86,3.59,11.29-.21a37.46,37.46,0,0,0,3.24-5c3-4.72,6.94-4.76,10-.12,4.93,7.46,4.91,22.73-.05,30.17-3.05,4.58-6.76,4.59-9.82,0-.56-.83-1-1.74-1.51-2.59-1.81-2.92-3.88-5.54-7.75-5.46s-5.9,2.7-7.61,5.68a25.83,25.83,0,0,0-2.79,8.24A37.37,37.37,0,0,0,135,272.3,17.75,17.75,0,0,0,138.8,279c3.36,3.57,7.79,3.54,11.13-.07a31.24,31.24,0,0,0,3.27-5c3.12-5,7.19-5.13,10.22-.09,3.51,5.81,3.94,12.26,3.4,18.85-.1,1.31-1,1.47-2.07,1.61-18.24,2.23-36.17.75-53.43-5.51C67.9,273,41.06,242.41,30.9,197.31a108.15,108.15,0,0,1-2.34-23.82Q28.58,133.5,28.57,93.51Z"/><path d="M116.24,37.34,103.81,59.42c-2.23,4-2.24,4,2.21,5.22l24.45,6.8c-.64,1.09-1.6,1.07-2.39,1.29-8,2.26-16,4.55-24.05,6.68-2.1.56-2.21,1.25-1.19,3C107,89.56,111,96.77,115,104a4.94,4.94,0,0,1,1,2.81L98.71,97.05c-2.25-1.27-4.55-2.45-6.72-3.84-1.72-1.1-2.42-.86-3,1.18-2.21,8.28-4.58,16.51-6.9,24.76-.17.64-.38,1.26-.78,2.57-1.2-4.18-2.23-7.75-3.24-11.33C76.59,105,75,99.67,73.64,94.27c-.5-2-1.14-2-2.81-1.09-7.27,4.2-14.62,8.29-22,12.38-.76.42-1.43,1.16-2.61,1,4.57-8.11,9-16.17,13.64-24.11,1.19-2,.62-2.55-1.35-3.08C50.68,77.25,42.84,75,35,72.81c-.87-.24-1.72-.52-2.92-.89a11.89,11.89,0,0,1,4.3-1.61C43.89,68.17,51.41,66,59,64c1.85-.49,2-1.07,1.06-2.66C55.4,53.3,50.88,45.18,46.21,36.87a6,6,0,0,1,2.86,1.2c7.19,4,14.42,8,21.51,12.17,2.22,1.31,2.64.6,3.19-1.45,2.38-8.83,4.9-17.62,7.55-27.08.85,2.89,1.53,5.16,2.17,7.44,1.89,6.73,3.79,13.45,5.6,20.2.46,1.75,1,2,2.66,1.09,7.13-4.12,14.34-8.12,21.53-12.15A4.44,4.44,0,0,1,116.24,37.34Z"/><path class="cls-3" d="M74.51,88.29,53.59,100l-.41-.39c.25-.53.47-1.08.76-1.6,3.29-5.87,6.54-11.78,9.93-17.6.93-1.58.58-2-1.06-2.46-6.26-1.67-12.5-3.46-18.74-5.21a6.07,6.07,0,0,1-2.53-1.28l14.93-4.21c2.16-.61,4.3-1.3,6.49-1.78,1.64-.36,1.75-1,1-2.33-3.76-6.54-7.43-13.12-11.5-20.34L74.5,55.23c2.25-8,4.46-15.83,6.86-24.3,2.36,8.4,4.57,16.23,6.84,24.3l20.9-11.69c.65,1-.06,1.45-.33,1.94-3.27,5.89-6.54,11.78-9.92,17.61-.86,1.49-.75,2,1,2.43,7.15,1.89,14.24,3.94,21.57,6-.68,1-1.64,1-2.42,1.17-6.32,1.79-12.62,3.62-19,5.25-2.09.54-1.91,1.24-1,2.79,3.22,5.53,6.33,11.13,9.45,16.73a4.67,4.67,0,0,1,1.07,2.78L88.22,88.29c-2.27,8-4.48,15.85-6.87,24.31Z"/></svg>