<svg id="Layer_1" data-name="Layer 1" xmlns="http://www.w3.org/2000/svg" viewBox="0 0 300 300"><defs><style>.cls-1{fill:#e9a900;}.cls-2{fill:#851f40;}.cls-3{fill:#babbbb;}.cls-4{fill:#c3c2c2;}.cls-5{fill:#c1c0c0;}.cls-6{fill:#e5a600;}.cls-7{fill:#232323;}.cls-8{fill:#4f5050;}.cls-9{fill:#313030;}.cls-10{fill:#828383;}.cls-11{fill:#282727;}.cls-12{fill:#555;}.cls-13{fill:#9a9b9b;}.cls-14{fill:#2a2a2a;}.cls-15{fill:#8a8b8b;}.cls-16{fill:#424242;}.cls-17{fill:#626161;}.cls-18{fill:#7d7c7c;}.cls-19{fill:#851f41;}</style></defs><path d="M23.23-.6H276.77a1,1,0,0,1,1,1V176.61A123.39,123.39,0,0,1,154.37,300h-8.52A123.62,123.62,0,0,1,22.23,176.38V.4a1,1,0,0,1,1-1Z"/><path class="cls-1" d="M150,4.45q61.23,0,122.47,0c1.59,0,2,.35,2,2q-.07,82.43-.05,164.84c0,47.36-25.4,89.4-67.24,111.07a121.52,121.52,0,0,1-72,12.9c-45.68-5.56-83.35-34.5-100.65-77.12a117.61,117.61,0,0,1-8.82-44.26Q25.49,89.88,25.55,6c0-1.56.69-1.52,1.8-1.52Q88.67,4.46,150,4.45Z"/><path d="M150,12.44q57.22,0,114.47,0c1.59,0,2,.36,2,2q-.06,78.5-.05,157c0,46.35-26.26,87.32-68.17,106.38A116.73,116.73,0,0,1,40,210.17a112.47,112.47,0,0,1-6.41-37q-.07-79.62-.07-159.24c0-1.56.71-1.5,1.82-1.5Z"/><path class="cls-2" d="M149.94,15h111.6c2.35,0,2.35,0,2.35,2.29q0,77,0,154c0,23.08-6.1,44.37-18.94,63.53-16.11,24.05-38.23,40-66.3,47.2-28.77,7.35-56.6,4.23-82.73-10-29.13-15.81-47.88-40.09-56.36-72.18a109.48,109.48,0,0,1-3.47-28.15q0-77.31,0-154.62c0-2.08,0-2.08,2.08-2.08Z"/><path d="M187.45,71.37c-2.18,1.22-4.17,2.13-5.59,3.88a16.58,16.58,0,0,0-3.07,6.26c-.46,1.76-.9,3.51-1.41,5.25a15.53,15.53,0,0,1-7.93,9.58c-1.1.6-1.65,1-.71,2.3a3.4,3.4,0,0,1-.38,4.29,3.3,3.3,0,0,1-4.16,1,1.43,1.43,0,0,0-2.08.67q-4.68,7.34-9.47,14.62a1.53,1.53,0,0,0,.07,2q7.16,9.63,14.27,19.27c.41.55.75.78,1.42.3a3.68,3.68,0,0,1,2.57-.69,2.77,2.77,0,0,1,1.79,4.51c-.52.75-1.94,1.12-1.54,2.2a6.21,6.21,0,0,0,3.35,3.69,19.25,19.25,0,0,0,4.7.9c3.95.6,7.91,1.12,11.86,1.7,1,.16,1.61,0,2-1.17,1-3.21,3.69-4.61,7.19-3.92,2.87.57,4.8,3.27,4.69,6.55a6,6,0,0,1-5.53,5.83c-1.56.06-1.93.69-2.12,2q-1.14,8.14-2.45,16.27c-.18,1.08,0,1.6,1.11,2a6,6,0,0,1,4,7.23c-.68,3.17-3.11,5-6.53,4.89a6.09,6.09,0,0,1-5.8-5.58c-.12-.93-.48-1.3-1.34-1.42q-8.61-1.29-17.21-2.61a1.46,1.46,0,0,0-1.83,1.08,5.4,5.4,0,0,1-4.09,3.45,5.92,5.92,0,0,1-7.46-4.67,6.13,6.13,0,0,1,4.94-7.48c1.47-.19,1.83-.85,2-2.07.79-5.16,1.58-10.31,2.45-15.46.37-2.19-.83-3.64-2.08-5.12-.37-.43-.76-.19-1.16-.06a3.08,3.08,0,0,1-3.74-.95c-.94-1.19-.62-2.42.11-3.56a1.21,1.21,0,0,0-.1-1.58q-5.79-8-11.53-15.93c-.95-1.33-1.32-.34-1.77.36q-9.54,14.69-19.06,29.38c-7.47,11.54-14.9,23.1-22.42,34.62-.83,1.27-.74,1.87.52,2.76,15.3,10.76,32.34,15.87,51,14.49,28.44-2.11,50-15.83,64.27-40.47,9.45-16.33,12-34.08,9.25-52.66a3.86,3.86,0,0,1,.09-.73A90.83,90.83,0,0,1,240.78,155a93.62,93.62,0,0,1-3.2,38,91.29,91.29,0,0,1-146.07,44.4c-39.63-33.49-39.83-86.86-19.88-118.7-.25,2.36-.5,4.37-.68,6.39-1.84,21.39,3.72,40.62,16.92,57.59,1.84,2.36,3.88,4.53,5.94,6.7.93,1,1.37.87,2.08-.23Q107.4,171.26,119,153.42q9.78-15.09,19.61-30.15a2.59,2.59,0,0,0-.1-3.51q-19.08-25.54-38.07-51.17c-.89-1.2-1.78-2.39-2.65-3.61-.45-.63-.84-.76-1.56-.27-3.19,2.11-3.21,2.09-1,5.17,1.63,2.24,3.25,4.49,5,6.68.67.86.68,1.41-.23,2.07-1.72,1.26-3.4,2.58-5,3.93-.78.64-1.25.53-1.78-.27-.71-1.06-1.54-2.05-2.27-3.1-.51-.73-.94-1-1.8-.36-2.48,1.69-2.51,1.65-.8,4.11,2,3,2,3-.74,5.13S82,92.38,79.26,94.61c-.83.68-1.29.63-1.89-.23-1.22-1.75-2.47-3.48-3.8-5.15-.68-.86-.47-1.32.32-1.91,1.08-.78,2-1.7,3.11-2.51.54-.42.64-.81.2-1.33a.64.64,0,0,1-.1-.13c-2.48-3.23-1.38-3-4.58-.89-2.68,1.78-2.66,1.81-4.63-.83-3.35-4.48-6.67-9-10.1-13.41-.86-1.11-.7-1.68.4-2.35.91-.56,1.68-1.32,2.58-1.88s1.08-1.19.4-2.18c-1.61-2.37-1.57-2.4-3.88-.7-3,2.24-3,2.24-5.19-.79-.77-1.08-1.52-2.19-2.33-3.24-.49-.64-.5-1.06.19-1.57q5.31-4,10.57-8c.77-.6,1.28-.51,1.83.27.75,1.1,1.61,2.12,2.37,3.22.47.68.88.7,1.56.24,2.46-1.68,2.47-1.65.81-4.06-2-2.88-2-2.88.74-5,1.08-.86,2.19-1.7,3.24-2.61.75-.65,1.22-.7,1.87.22,2,2.86,4.23,5.62,6.28,8.48.65.9,1.08,1,2,.32,2.92-2.2,2.94-2.15.74-5.15S77.38,37.11,75.09,34A5.3,5.3,0,0,1,75.92,27a5,5,0,0,1,7,.41C85.8,31,88.41,34.66,91.11,38.3l51.45,69.32c.83,1.11,1.71,2.18,2.53,3.3.5.68.91.8,1.42,0q3.81-6.1,7.67-12.17c.43-.68.19-1.14-.33-1.67-1.47-1.51-1.76-2.93-1-4.46s2.17-2.31,4.3-2c1.12.18,1.4-.15,1.46-1.18a14.88,14.88,0,0,1,6.32-11.34c1.27-1,2.5-2,3.76-3,3.27-2.57,4.5-6.08,4.64-10.1a3.8,3.8,0,0,1,.19-1.88c.73,0,.93.67,1.28,1.08,1.18,1.38,1.15,1.38,2.16-.16,4.68-7.12,9.07-14.44,14-21.43a29.25,29.25,0,0,1,22.58-12.81c11.9-.94,22.5,2.42,31,11.09,9.78,10,11.74,21.94,8,34.93C249.37,87,242.19,94.57,231,98.06c-6.37,2-12.82,1.64-19.27.2-5.51-1.23-10.9-3-16.5-3.8a12.1,12.1,0,0,0-6.45.54c-2.07.85-2.7,2.6-2.72,4.65a4.14,4.14,0,0,0,2.56,4.21c2.76,1.12,5.08-.43,5.23-3.4,0-.67-.62-1.75.25-2s1.47.7,2,1.38c2.77,3.57,1.08,9.31-3.27,11.12a10.72,10.72,0,0,1-13.35-4.13c-3-4.58-3.8-9.59-1.25-14.57s6.8-7.46,12.42-7.65A39.28,39.28,0,0,1,201.58,86a2.64,2.64,0,0,0,1.71.16c-1.94-1.73-4-3.2-5.45-5.23-4.75-6.53-6.36-13.4-2.27-20.89a21.86,21.86,0,0,0,1.82-4.22c.53.13.58.54.74.87.8,1.71.94,1.73,2.06.23a12.4,12.4,0,0,0,2.29-7.13.62.62,0,0,1,.87.33c.81,1.65,1.89,1.67,3.44.9,2.07-1,4.42-1.12,6.68-1.44a8.37,8.37,0,0,0,4-1.58,4.37,4.37,0,0,0,1.83-4.46,4.6,4.6,0,0,1,1.8,4.91c-.6,2.39.27,3.59,2.25,4.59s3.36,2.92,5,4.49c2.42,2.4,4,2.26,5.82-.64.61-1,.94-.51,1.37.08,2.86,3.94.06,10.52-4.76,11a4.09,4.09,0,0,0-3.65,2.41,2.86,2.86,0,0,0,2.44,4.35c.31,0,.71-.1.87.23s-.2.68-.42,1a5.32,5.32,0,0,1-8,.35c-.81-.88-1.3-.89-2.22-.27a7,7,0,0,1-5.07,1,5.85,5.85,0,0,1-4.84-6.91c.17-1,.35-1.61,1.55-.67a3.68,3.68,0,0,0,5.46-.75c1.12-2,.26-4.24-2-5.28a5.84,5.84,0,0,0-7.73,2.46,9.48,9.48,0,0,0-.48,8.61c1.68,4.16,4.89,6.44,9.05,7.62,12.56,3.57,22.19-6.05,23.59-16.11.95-6.83-.19-13-5.3-18.1-9.63-9.67-25-8.62-32.47-2.19a28.53,28.53,0,0,0-5.52,6.58q-5.16,8.18-10.36,16.33c-1.12,1.76-1.13,1.75.84,2.32C186.64,71,186.87,71.14,187.45,71.37Z"/><path class="cls-3" d="M234.71,139.12a79.52,79.52,0,0,1,3.68,17.25c5,46.95-25.66,89-70.75,98.08a88.84,88.84,0,0,1-105.33-73,92,92,0,0,1,2.28-40.35,6.22,6.22,0,0,1,.68-2.27c.09-.16.18-.16.25,0,.29,1.72-.21,3.39-.38,5.07a85.21,85.21,0,0,0,49.06,85.53c48.59,22.28,105.6-4.9,118.43-56.45a88.54,88.54,0,0,0,1.74-33.15C234.28,139.47,234.1,139.1,234.71,139.12Z"/><path class="cls-3" d="M68.45,141.34c1.24,10.46,3.88,20.57,9,29.78,16.64,29.67,42,44.84,76.09,43.92,38.15-1,70.66-30.06,77-67.7.34-2,.61-4,.92-6,.89.1.2.95.61,1.28,2.05,19.28-1.76,37.32-12.31,53.59-15,23.17-36.51,36.16-64.11,38.21a82.37,82.37,0,0,1-87.18-67.93,81.08,81.08,0,0,1-.69-24.19C68.2,142.06,67.59,141.26,68.45,141.34Z"/><path class="cls-4" d="M214.33,56a8.92,8.92,0,0,0,4-1.95,1.51,1.51,0,0,1,1.87-.15,19,19,0,0,1,5.16,4c.81.84,1.6,1.71,2.48,2.48,1.93,1.67,4,1.35,6.09.28a4.43,4.43,0,0,1-2.33,5,9.08,9.08,0,0,1-5.73.86c-.38-.09-.81-.29-.73.41l1.14,1c-2.09,2.6-2.53,5.28-.2,8-2.4-.23-3.24-1.13-4.59-5.12-1.14,2.91-3,4.56-6.09,4.21a3.72,3.72,0,0,1-3.22-2.72,15.42,15.42,0,0,0,2.41.2,5.42,5.42,0,0,0,4.33-7.85,7.26,7.26,0,0,0-8.66-3.67c-4.95,1.41-7.73,6.62-6.37,12,1.86,7.35,7.79,12,15.67,12.18a21.4,21.4,0,0,0,21.93-19.27c.87-7.61-.55-14.43-6.26-19.94-8.34-8.05-22.36-9.67-32.36-3.82-3,1.77-5.18,4.39-7.19,7.16-3.41,4.7-6.32,9.74-9.53,14.57-1,1.56-2.14,3.07-3.06,4.68a3.49,3.49,0,0,1-3.72,2c-.59-.07-1.34.35-1.65-.51s-.85-1.62-.22-2.56c1-1.47,1.88-3,2.83-4.45,3.78-5.87,7.47-11.8,11.38-17.58,7.89-11.67,19.13-15.16,32.51-12.67,9.18,1.71,16.74,6.3,22,14.11,6.61,9.77,7.19,20.35,3.06,31.13-5.62,14.68-19.48,21.88-34.9,18.71-6.42-1.32-12.69-3.3-19.21-4.13a15.17,15.17,0,0,0-6.5.24,7.23,7.23,0,0,0-5,7.65,6.33,6.33,0,0,0,5.39,5.89c1.95.36,3.44-.2,6-2.25a4.67,4.67,0,0,1-3.18,4.92,8.12,8.12,0,0,1-9-1.89,11.17,11.17,0,0,1-3.06-12c1.47-4.74,4.87-7.36,9.72-8.12,3.49-.55,6.9.15,10.3.83,5.53,1.11,10.89,3,16.45,4a25.56,25.56,0,0,0,29-16.08,29.69,29.69,0,0,0,2-16.6,11.11,11.11,0,0,0-.34-1.22.28.28,0,0,0-.28-.11c-.17.12-.16.3-.18.48a7.43,7.43,0,0,0,.12,1.94,31.53,31.53,0,0,1-5.16,19c-9,13.51-26.29,14-37.6,4.87-5.46-4.41-8.88-9.89-8.38-17.23a10.45,10.45,0,0,1,1-3.84c.15-.32.24-.81.68-.8s.47.51.57.84a15.37,15.37,0,0,0,1.22,3.15,4.64,4.64,0,0,0,.27-1.6c-.71-3.66,2.62-5.29,3.93-7.93a6.88,6.88,0,0,1,.06,3.19.38.38,0,0,0-.06.29c-.1.33-.43.77.34.66a9.33,9.33,0,0,0,1.47-4.8,2.55,2.55,0,0,1,1.39-2.12,10.46,10.46,0,0,1,4.34-1.43c2.55-.31,5.15-.44,7.45-1.92-.86,2.46-2.8,3.81-4.74,5.15a1.74,1.74,0,0,0-.24.36c.08.14.24.09.36.11A1.54,1.54,0,0,0,214.33,56Z"/><path class="cls-1" d="M79.26,28a3.82,3.82,0,0,1,2.81,1.81q17.5,23.73,35,47.45,23.72,32.05,47.49,64.07c.92,1.24.67,1.78-.43,2.59-3.29,2.43-3.22,2.43-5.61-.8q-33-44.74-66.1-89.46-7.61-10.29-15.2-20.57a3.08,3.08,0,0,1,1.34-5A5.41,5.41,0,0,1,79.26,28Z"/><path class="cls-1" d="M95.6,62c-.1.48-.47.64-.75.86-1.22,1-2.4,2-3.7,2.79-1.14.73-1,1.31-.26,2.24C93,70.65,95,73.5,97.08,76.25c.7.91.75,1.38-.25,2.12-2.49,1.81-2.42,1.85-4.34-.58-.78-1-1.31-2.69-2.46-2.71-1,0-2,1.27-2.93,2.06-1.2,1-3.33,1.67-3.39,3.06,0,1.21,1.51,2.57,2.52,3.73s1.07,1.86-.35,2.79c-2.22,1.46-4.29,3.15-6.38,4.8-.67.52-1,.44-1.51-.22-2.11-2.69-2.14-2.67.55-4.64s2.59-1.9.68-4.52c-.88-1.21-1.81-2.38-2.63-3.63-.52-.8-1-1-1.74-.3-1.07.88-2.25,1.62-3.34,2.48-.61.48-1,.55-1.53-.16-3.09-4.21-6.22-8.4-9.35-12.57-.42-.55-.39-.88.17-1.28,1.22-.87,2.37-1.82,3.59-2.68.62-.44.69-.8.23-1.42-1.39-1.82-2.76-3.66-4.07-5.54-.51-.74-.89-.68-1.51-.16-1,.89-2.19,1.69-3.26,2.58-.58.48-.92.43-1.4-.19-2.1-2.64-2.12-2.62.53-4.6,1.8-1.34,3.62-2.64,5.38-4,.73-.58,1.14-.48,1.65.25.79,1.13,1.71,2.18,2.51,3.31.49.69.87.91,1.62.28,1.6-1.33,3.24-2.61,4.93-3.82.78-.57.67-1,.16-1.67-.89-1.13-1.71-2.31-2.54-3.49-.2-.28-.63-.61-.21-.95a39,39,0,0,1,3.17-2.42c.62-.42.79.34,1,.66,2.12,2.81,4.23,5.62,6.27,8.49.6.83,1,1,1.86.29,1.26-1.06,2.64-2,3.94-3,.54-.43.88-.38,1.29.18l9.34,12.77A4.74,4.74,0,0,1,95.6,62Z"/><path class="cls-1" d="M167.46,157c.1-2.13-.93-3.46-2-4.75-.77-1-.75-1.6.38-2.22s2-1.69,3-1.73,1.39,1.54,2.09,2.37A6.22,6.22,0,0,0,175,152.9q9,1.23,18,2.68c1.27.21,1.74.13,1.75-1.36,0-2.8,1.82-4.45,4.29-4.25a4.05,4.05,0,0,1,4,4.47,4.16,4.16,0,0,1-4.9,3.86c-2.2-.22-2.23-.23-2.58,2-1.1,6.89-2.17,13.79-3.29,20.67-.14.91,0,1.26,1,1.22a4.82,4.82,0,0,1,3.4,1.16,4.39,4.39,0,0,1,1,5.24,4.58,4.58,0,0,1-4.92,2.12,4,4,0,0,1-3-4.48c.38-1.78-.35-2-1.76-2.18q-10.37-1.51-20.68-3.24c-1.16-.19-1.31.31-1.53,1.19-.7,2.91-2.11,4-4.62,3.8-2.28-.2-3.72-2.14-3.48-4.69a3.82,3.82,0,0,1,4.18-3.5,5.66,5.66,0,0,1,1.41.26c.7.26,1,0,1.05-.68C165.39,170.34,166.45,163.49,167.46,157Z"/><path class="cls-4" d="M100.48,195.32c-.51-.41-1-.84-1.58-1.28-2.27-1.92-2.27-1.92-.7-4.34q21-32.3,42-64.59c1.08-1.67,1.08-1.67,2.26,0,2,2.78,2,2.78.09,5.68Q122,162.48,101.57,194.16C101.29,194.58,101.14,195.14,100.48,195.32Z"/><path class="cls-4" d="M174.93,68.83a4.9,4.9,0,0,1,1.21,2.84c0,1.29.64,1.29,1.63,1.12a10.61,10.61,0,0,1,2.93,0C177,76.2,176.62,81,175.36,85.36c-1.44,4.94-4.82,8-9.26,10.16a1.18,1.18,0,0,1-1.33-.1c-1.18-.82-2.36-1.63-3.56-2.41a1.42,1.42,0,0,1-.65-1.49c.34-4.48,1.78-8.4,5.51-11.23,1.14-.87,2.21-1.83,3.33-2.73C172.12,75.34,174.65,73,174.93,68.83Z"/><path class="cls-4" d="M156.89,99.54a12,12,0,0,1,3.72,2.34c.12.36-.11.6-.27.87q-4.62,7.29-9.22,14.58c-.44.7-.79.77-1.25.08l-.11-.12c-2.71-3-2.71-3-.52-6.37l6.69-10.32C156.21,100.16,156.48,99.69,156.89,99.54Z"/><path class="cls-5" d="M156.37,93.43a9,9,0,0,1,1.26.62c2.78,1.86,5.54,3.75,8.32,5.62.6.41,1.19.84.67,1.66s-1.11.32-1.67,0c-3.26-1.7-6-4.15-9.18-6a1.13,1.13,0,0,1-.62-1.34C155.3,93.53,155.72,93.42,156.37,93.43Z"/><path class="cls-6" d="M171.17,142.8c-.06.62-.46.83-.79,1.09-2.92,2.33-5.86,4.62-9,6.68-.43.3-1,1-1.48.22s.24-1,.63-1.27q4.5-3.44,9-6.84c.37-.28.79-.64,1.3-.3C171.05,142.49,171.11,142.72,171.17,142.8Z"/><path class="cls-7" d="M246.53,60.19l-.33-2.3c0-.37-.42-.89.36-1,.13.31.4.58.31,1C246.34,58.58,246.82,59.44,246.53,60.19Z"/><path class="cls-8" d="M234.06,138.5a9.87,9.87,0,0,1-.53-2.64,2.36,2.36,0,0,1,.85,1.68C234.13,137.81,234.48,138.29,234.06,138.5Z"/><path class="cls-9" d="M203.12,59.79l-.06-3.19A3.17,3.17,0,0,1,203.12,59.79Z"/><path class="cls-10" d="M234.06,138.5c.08-.33,0-.71.32-1,.07.53.49,1,.33,1.58l-.34.67A2.51,2.51,0,0,1,234.06,138.5Z"/><path class="cls-11" d="M214.33,56a1.48,1.48,0,0,1-1,.35c-.36,0-.87.43-1-.33l.91-.38C213.57,56,214,55.87,214.33,56Z"/><path class="cls-12" d="M65.58,137.5l.33-1.26c.61-.06.46.3.36.64l-.33,1.3C65.62,138.06,65.82,137.67,65.58,137.5Z"/><path class="cls-13" d="M232.16,142.62l-.61-1.28a1,1,0,0,1,.19-1A3.65,3.65,0,0,1,232.16,142.62Z"/><path class="cls-14" d="M66.27,136.88l-.36-.64c0-.31.17-.83.44-.63S66.51,136.46,66.27,136.88Z"/><path class="cls-13" d="M68.45,141.34l-.58,1a2.39,2.39,0,0,1,.41-1.85A.85.85,0,0,1,68.45,141.34Z"/><path class="cls-9" d="M203.4,60.74a.69.69,0,0,1-.56.83,1.56,1.56,0,0,1,.22-1.49Z"/><path class="cls-15" d="M65.58,137.5c.3.14.27.44.36.68l-.42.61h-.25Z"/><path class="cls-16" d="M225.11,66.86c-.26-.06-.56-.31-.42-.48.35-.45.77-.14,1.15.07Z"/><path class="cls-17" d="M212.4,56c.24.36.64.23,1,.33a9.06,9.06,0,0,1-1,.28c-.2,0-.58.14-.55-.25C211.81,56.22,212.19,56.12,212.4,56Z"/><path class="cls-18" d="M246.56,56.92c-.45.2-.22.66-.36,1-.15-.44-.56-.91,0-1.33C246.32,56.46,246.52,56.71,246.56,56.92Z"/><path d="M71.8,75.09c-.47,0-.62-.27-.8-.52-1.47-1.89-2.91-3.81-4.4-5.68-.52-.64-.32-1,.24-1.4,1.28-.95,2.5-2,3.79-2.93.66-.47.77-.86.25-1.53-.84-1.1-1.57-2.28-2.4-3.39-.46-.62-.53-1,.18-1.56,1.77-1.28,3.49-2.62,5.2-4,.59-.48,1-.46,1.39.19.71,1.07,1.55,2,2.23,3.12s1.18,1.27,2.18.39,2.4-1.76,3.58-2.68c.54-.41.86-.4,1.28.18,1.39,1.94,2.82,3.87,4.27,5.77.42.55.39.88-.18,1.28-1.3.93-2.53,1.95-3.85,2.84-.79.53-.77,1-.22,1.65.82,1,1.54,2.17,2.37,3.21.55.67.57,1.11-.19,1.67-1.71,1.26-3.39,2.58-5,3.93-.68.56-1.11.61-1.63-.18-.71-1.07-1.57-2-2.27-3.09-.53-.81-1-.94-1.76-.3-1.11.9-2.32,1.68-3.5,2.51C72.27,74.78,72,75,71.8,75.09Z"/><path d="M185.12,180.4c-2.36,0-4.09-.64-5.2-2.47-.43-.72-.78-.86-1.6-.37a6.57,6.57,0,0,1-8.4-1.28,6.5,6.5,0,0,1,.5-8.83c.75-.75,1-1.21.35-2.23a6.73,6.73,0,0,1,1.31-7.91,6.29,6.29,0,0,1,8.34.24c1.14,1,1.84,1.2,3.26.43a6.56,6.56,0,0,1,8,2.14,6.32,6.32,0,0,1-1,8.38c-.46.42-1.2.64-.45,1.58,1.79,2.27,1.56,4.79.36,7.22S187.21,180.29,185.12,180.4Z"/><path class="cls-19" d="M72.23,71.94c-.78,0-1-.67-1.34-1.11-1.79-2.38-2.2-1.88.45-3.94.34-.26.66-.54,1-.8,2.33-1.83,2.33-1.83.61-4.14a9.46,9.46,0,0,0-1-1.27c-1.12-1.08-1-1.84.33-2.71,2.1-1.4,1.6-1.51,3.22.57.78,1,1.3,2.63,2.41,2.82s2-1.27,3-2c3.13-2.1,2-2.34,4.76,1.17.48.61.35,1-.24,1.44-1.07.78-2.06,1.68-3.17,2.41s-1.49,1.45-.43,2.59c.79.85,1.36,1.9,2.07,2.83.49.62.52,1-.19,1.55-3.1,2.2-2.14,2.18-4.26-.5s-2-2.66-4.79-.67C73.83,70.82,73,71.4,72.23,71.94Z"/><path class="cls-19" d="M184.89,178.13c-2.2,0-3.2-.78-4-3.12-.22-.63-.19-1.49-1-1.67s-1.1.67-1.51,1.18a4.3,4.3,0,0,1-4.87,1.45,4.16,4.16,0,0,1-2.87-3.68,4.75,4.75,0,0,1,2.81-4.14c.24-.1.5-.16.75-.27,1.27-.53,1.32-1,.22-1.82-2.74-2.15-2.85-5.6-.22-7.2a4.22,4.22,0,0,1,6.27,2.22c.21.58.2,1.34,1.06,1.41s.95-.57,1.27-1a4.24,4.24,0,0,1,5-1.88,3.87,3.87,0,0,1,2.88,4,4.17,4.17,0,0,1-3,4.37,7.7,7.7,0,0,0-1.2.41c-.67.37-.74.89-.13,1.4a8.86,8.86,0,0,0,.94.6,3.9,3.9,0,0,1,1.81,4.94A3.82,3.82,0,0,1,184.89,178.13Z"/></svg>