<svg id="Layer_1" data-name="Layer 1" xmlns="http://www.w3.org/2000/svg" viewBox="0 0 300 300"><defs><style>.cls-1{fill:#231f20;}.cls-2{fill:#1b1818;}.cls-3{fill:#1a1718;}.cls-4{fill:#0c0b0b;}.cls-5{fill:#0f0d0e;}.cls-6{fill:#1a67ba;}.cls-7{fill:#e6e5e6;}.cls-8{fill:#1a66ba;}.cls-9{fill:#e5e4e5;}.cls-10{fill:#1a66b9;}.cls-11{fill:#e1e0e1;}.cls-12{fill:#e2e1e2;}.cls-13{fill:#e3e2e3;}.cls-14{fill:#e4e3e4;}.cls-15{fill:#dedcdd;}.cls-16{fill:#e0dfe0;}.cls-17{fill:#dddcdd;}.cls-18{fill:#eeedee;}.cls-19{fill:#d8d7d8;}.cls-20{fill:#1b5fa9;}.cls-21{fill:#d4d3d4;}.cls-22{fill:#dbdadb;}.cls-23{fill:#c9c8c9;}.cls-24{fill:#cdcccd;}.cls-25{fill:#bdbbbc;}.cls-26{fill:#c0bebf;}.cls-27{fill:#abaaaa;}.cls-28{fill:#1b5faa;}.cls-29{fill:#adabac;}.cls-30{fill:#1c589c;}.cls-31{fill:#928f90;}.cls-32{fill:#252122;}.cls-33{fill:#dcdbdc;}</style></defs><path class="cls-1" d="M275.5,182.52a129.21,129.21,0,0,1-8.93,38.5,123.59,123.59,0,0,1-32.16,46.55A121.1,121.1,0,0,1,172,298a96,96,0,0,1-11.93,1.48c-.94.47-1.94.12-2.9.23-1.22.12-2.48-.28-3.67.25H146c-1.35-.53-2.76-.12-4.14-.25-1-.1-2,.23-2.93-.23a117.18,117.18,0,0,1-35.59-8.3A123.12,123.12,0,0,1,56,257.46a127,127,0,0,1-30-62.74,92.69,92.69,0,0,1-1.52-12.19c-.63-1.29.19-2.76-.48-4.05q0-88,0-176.08C24,.64,24.14,0,26.19,0Q150,.11,273.81,0c2.05,0,2.23.64,2.23,2.4Q276,89.18,276,176c-.53,1.34-.12,2.73-.25,4.09C275.65,180.87,276,181.74,275.5,182.52Z"/><path class="cls-2" d="M141.92,299.46c1.35.15,2.79-.43,4.05.49h-4C141.61,299.79,141.61,299.63,141.92,299.46Z"/><path class="cls-3" d="M153.53,300c1.08-.87,2.35-.37,3.53-.49.32.17.32.33,0,.49Z"/><path class="cls-4" d="M141.92,299.46c0,.16,0,.33,0,.49h-3c0-.16,0-.32,0-.48Z"/><path class="cls-5" d="M157.06,300v-.5l3,0c0,.16,0,.32,0,.48Z"/><path class="cls-6" d="M150.1,3.6H270c3.28,0,3.28,0,3.28,3.28q0,80.88,0,161.76c0,25.91-6.11,50.1-20.48,71.82-20,30.21-47.71,49-83.7,54.45-36.2,5.49-68.92-3.21-97.19-26.67-23-19.09-37.06-43.69-42.91-73a137,137,0,0,1-2.33-26.8q-.08-80.62,0-161.26c0-3.59,0-3.59,3.47-3.59Z"/><path class="cls-1" d="M197.3,211.27c-3.35.89-6.1,1.94-9,2.17-1.25.1-1.56,1.07-2,2-2.59,6.31-2.6,6.31-9.53,6.36l-4,0c-2.8,0-2.79,0-1.74-2.72a28.94,28.94,0,0,0,1.14-3.06c.33-1.31,1.63-2.48.81-4-.37-.65-5.79-1.55-6.56-1.31s-.72.82-.82,1.39c-.5,3-2,5.68-3,8.52a2.13,2.13,0,0,1-2.33,1.48c-3.6,0-7.21-.42-10.82,0-1.35.16-1.59-.52-1.08-1.69.64-1.46,1.15-3,1.8-4.43.53-1.22.22-1.71-1.1-1.7a19.24,19.24,0,0,1-5.51-.45c-1-.3-1.54.19-1.89,1.1-.61,1.65-1.42,3.25-1.89,4.93s-1.41,2.55-3.37,2.46c-3.27-.14-6.55,0-9.82.08-1.39,0-1.82-.34-1.24-1.74,1.17-2.79,2.12-5.66,3.37-8.41.61-1.34.28-1.56-1-1.6a19.44,19.44,0,0,0-6.4,1.23c-.83.26-1,1-1.3,1.69-.75,2.22-1.66,4.4-2.34,6.64a3,3,0,0,1-3.46,2.49c-3.18-.11-6.38,0-9.57.06-1.46,0-1.78-.51-1.27-1.81.72-1.79,1.34-3.62,2.08-5.4.49-1.21.45-1.85-1-2.45-7-2.9-14-3.88-21.21-.67a18.26,18.26,0,0,1-14.72.17c-6.36-2.65-12.27-1.95-18.06,1.44-.21.12-.46.2-.67.33-.9.53-1.42,0-1.84-.68s0-1.24.67-1.61c2.76-1.63,5.61-3.15,8.84-3.45,2.54-.24,2.61-1.16,1.77-3.31-3.59-9.23-6.88-18.57-10.5-27.78a12.61,12.61,0,0,1,.22-10.23C53.09,158,57.79,148.91,62.81,140c2.14-3.81,4.33-7.59,6.68-11.27,1.13-1.78,1-2.52-1.14-3.06-4.63-1.17-9.2-2.62-13.84-3.76-1.88-.46-2.37-1.37-2.22-3.17.27-3,.37-6,.46-9,0-1.07.29-1.71,1.44-2q14.52-3.09,29-6.27c1.17-.26,1.68.34,2.13,1.25a47.2,47.2,0,0,0,3.31,5.83,115.68,115.68,0,0,1,1.87-17.24,83.35,83.35,0,0,1,18.76-40.65c7.48-8.78,17.08-14.24,28.1-17.27a6.91,6.91,0,0,0,4.51-3.22c1.4-2.29,3-4.46,4.53-6.66,1.09-1.57,1.43-2.8-.49-4.23-1.58-1.18-1.87-3.42-2.24-5.26-.25-1.25,1-2.27,2.45-2.35,2.77-.14,5.54-.28,8.3-.3,1.43,0,2.84,1.05,2.53,2.24-.51,2,.25,4.44-1.78,6-1.71,1.36,0,1.78.79,2.23,5.81,3.2,11.65,6.34,17.48,9.51,3.76,2.05,7.52,4.09,11.27,6.15A7.5,7.5,0,0,0,189,38.88a2,2,0,0,1,2.19,2,2.14,2.14,0,0,1-1.48,2.37,4.89,4.89,0,0,1-1.68.52c-3.47.07-5.63,2.15-7.55,4.73a113.78,113.78,0,0,0-12.66,22.28,5,5,0,0,0,.31,4.75q24.85,46.38,49.58,92.85c1,1.8,1.76,1.93,3.45.85,6.75-4.36,10.48-10.71,12.43-18.28.35-1.34.43-2.68-1.24-3.36-.35-.15-.86-.63-.82-.88.37-2.52-1.24-4.62-1.43-7-.12-1.61,1.1-2.29,2.53-2.65a24.8,24.8,0,0,1,6-.24c5.12,0,10.25.08,15.36.24,3.24.09,4.42,2.38,2.69,5.13a2.43,2.43,0,0,0-.39,2.08c.22.89.46,2.12-.36,2.61-2.71,1.6-2.08,4.1-2,6.44.51,10.34.19,20.62-2.18,30.76a27.47,27.47,0,0,1-1.25,4.08,11.9,11.9,0,0,0,.57,10.65c1.69,3.19,3.4,6.42,3.15,10.22-.07,1,.59,1.24,1.39,1.41a8.54,8.54,0,0,0,4-.09,1.52,1.52,0,0,1,2.08,1.24c.32,1.44-.9,1.15-1.62,1.21a20.84,20.84,0,0,1-7.25-.47c-2.42-.66-4.87-1.27-7.29-2a15.38,15.38,0,0,0-10.62.43,27.23,27.23,0,0,1-21.76.46c-1.72-.67-2.25-.2-2.69,1.56-.62,2.51-1.77,4.88-2.63,7.33-.4,1.13-1.23,1.17-2.2,1.19-3.44.07-6.88.13-10.32.31-1.68.09-1.9-.6-1.37-1.94C195,217.07,196.05,214.43,197.3,211.27Z"/><path class="cls-7" d="M102.7,148.37a62.9,62.9,0,0,1-9.88-24.31c-4.7-24.31.23-46.61,14-67.06a33.82,33.82,0,0,1,5.91-6.84c4.09-3.51,8.69-4.06,13.64-2.16a2.52,2.52,0,0,1,1.91,1.82c-1.3.22-2.58.37-3.84.66-1.43.33-2.86.82-2.72,2.7s1.61,2.54,3.24,2.3c4.31-.65,8.59-1.47,12.88-2.23,2.78-.49,5.56-1,8.9-1.62C131.74,84,117.9,116.17,102.7,148.37Z"/><path class="cls-7" d="M163.43,185.41c-15.2,0-30.4,0-45.6,0s-27-6.47-35.72-18.72c-2.86-4-5.5-8.24-6.94-13.05-.57-1.9,1.93-5.72,3.88-5.91,1.12-.1,1,.95,1.32,1.53a53.61,53.61,0,0,0,17.51,21.06c7.54,5.38,16.15,7.47,25.18,7.39,27.72-.26,55.43-.72,83.13-1.22,13.15-.23,24.93-9.59,28.93-22.69.39-1.28.71-2.58,1-3.89.15-.65.08-1.58.95-1.52,1.11.09.71,1.16.67,1.8a44,44,0,0,1-4.66,17.62,49.73,49.73,0,0,1-3,5.5c-5,7.32-12.11,10.69-20.8,10.74-15.28.09-30.57,0-45.85,0Z"/><path class="cls-7" d="M73.74,211.39c-4.18-.43-7.39-2-10.77-3-.64-.19-.63-.94-.84-1.47C58.07,196.42,54,186,50.47,175.31a8,8,0,0,1,.19-6.07c6.2-14.62,13.94-28.42,22.28-41.89,1.17-1.89.9-2.33-1.09-2.85-5-1.31-10-2.79-15-4.25-.86-.25-2.06-.1-2.07-1.66s1-1.76,2-2.3,2-.66,2.62.41c1,1.76,2.39,1.53,3.86.75,1.22-.66,2.23-1,3.11.6.62,1.09,1.63.39,2.46.06,1.42-.56,2.8-1.27,3.9.58.46.79,1.13.47,1.72,0,.74-.57.51-1.1,0-1.67-1.57-1.61-3-3.59-5.61-1.59a1.28,1.28,0,0,1-2.1-.46c-.9-1.79-2.07-1.2-3.26-.45-1.46.93-2.72,1.12-3.74-.63-.62-1.09-1.5-1.11-2.55-.5-.55.32-1.12.79-1.86.57-.48-4.1-.44-4.2,3.35-5,7.7-1.63,15.42-3.17,23.12-4.85,1.31-.29,2.09-.15,2.52,1.16a.65.65,0,0,0,.11.22c3.69,5,4,10.22,1.8,16.18C83.59,128.58,82,135.82,80,142.93a4.88,4.88,0,0,1-1.88,2.84c-24.68,18.25-21.26,47.35-6,63.91Z"/><path class="cls-7" d="M214,194a1.88,1.88,0,0,1,0-.59c.4-1.65,1-3.51-1.23-4.21s-3.57.69-4.26,2.58-2,2.46-4,2.39c-4.19-.14-8.39,0-12.59,0-1.25,0-2-.15-1.34-1.65.42-1,.57-2.06-.52-2.69a3.14,3.14,0,0,0-3.55.18c-.33.24-.76.56-.84.91-.82,3.72-3.65,3.35-6.42,3.27s-5.71,0-8.56,0c-1,0-1.66,0-1.16-1.36.44-1.17.39-2.44-1-3s-3.47-.56-4,.95c-1.52,4.21-4.88,3.5-8,3.53-2.85,0-5.7,0-8.56.08-1,0-1.73-.09-1.36-1.36.44-1.51.48-2.9-1.37-3.45s-3.51,0-4,1.68c-.92,3.26-3.17,3.28-5.81,3.21-3.18-.09-6.38,0-9.57.08-1.09,0-1.81-.07-1.45-1.47s0-2.79-1.49-3.32a2.84,2.84,0,0,0-3.75,1.72c-1.09,3.31-3.47,3.06-6.18,3.11-12.47.22-22.94-4.13-31.41-13.28-.68-.74-1.25-1.58-2-2.29s-.82-1.48-.22-2.57a5.8,5.8,0,0,0-5.17-8.62,1.91,1.91,0,0,1-2.08-1.26,32.2,32.2,0,0,1-2.67-7c-.68-2.76,2-4,3-6,1.09.69.94,1.72,1.29,2.51,6.79,15.33,17.07,26.79,34.12,30.69a47.75,47.75,0,0,0,11.26.87q43.94-.54,87.89-1.07c8.2-.09,15.93-1.58,21.77-8a42.25,42.25,0,0,0,10.51-21.38c.45-2.47.8-5,1.22-7.44.11-.63.15-1.43,1.13-1.35s.73.77.73,1.32c-.1,12.69-2.49,24.69-10.72,34.86C227.05,190.18,221.28,193.53,214,194Z"/><path class="cls-7" d="M182.26,153.37c-8-1.59-15.74-2.78-23.57-2.61-3.62.07-3.61,0-3.63-3.63l-.45-74.51c0-.81,0-1.61,0-2.54.73.4.79,1,1,1.51.8,2.47,1.56,5,2.44,7.39a49.66,49.66,0,0,1,3.13,18.1,57.06,57.06,0,0,0,12.38,37C178,139.79,180.11,146.31,182.26,153.37Z"/><path class="cls-7" d="M130.72,174.32A11.87,11.87,0,0,1,127,172.5c-1.38-.78-.59-1.94-.4-2.91,2.77-13.54,5.6-27.07,8.35-40.62q5.81-28.56,11.54-57.15c0-.22.14-.44.42-1.31.08,1.32.16,2,.16,2.68-.08,25.43-.2,50.86-.22,76.29,0,2-.59,2.81-2.47,3.26a21.68,21.68,0,0,0-7.65,3.68c-5.47,4-7.4,9.31-6.13,15.88A3.29,3.29,0,0,1,130.72,174.32Z"/><path class="cls-6" d="M215.33,168.62a84.55,84.55,0,0,1-17.46-11.94,6.12,6.12,0,0,1-1.43-2.34q-15.39-36-30.8-72c-.94-2.2-.38-4,.69-6.44C182.7,107.12,199,137.83,215.33,168.62Z"/><path class="cls-7" d="M144,72.69q-3,15.41-6.08,30.82c-4.38,22.11-8.82,44.21-13.63,66.23a4.89,4.89,0,0,1-.22.65,52.76,52.76,0,0,1-9.48-7.36c-1-.93-.26-1.86,0-2.77q8.5-26.28,17-52.56,5.92-18.27,11.86-36.55C144.69,71.35,144.12,72.09,144,72.69Z"/><path class="cls-6" d="M171.84,174.78c-4.86,0-9.73-.08-14.59,0-1.8,0-2.28-.56-2.25-2.29q.15-8.55,0-17.11c0-1.76.56-2.2,2.29-2.31A81.72,81.72,0,0,1,181,155.26c1.32.31,2.28.74,2.71,2.19q2.25,7.45,4.71,14.86c.53,1.59.16,2.11-1.49,2.09-5-.05-10.07,0-15.1,0Z"/><path class="cls-7" d="M146.39,17.3a25.33,25.33,0,0,1,8.46-.09c-2.95,1.56-2.44,3.88-2.43,6.05.11,49.64.91,99.27.5,148.91,0,1.27.43,2.67-1.79,2.78s-2.69-.43-2.65-2.58c.88-49.8.33-99.61.75-149.41C149.24,20.82,149.43,18.72,146.39,17.3Z"/><path class="cls-7" d="M142.63,65.57c-9.78,31.69-19.44,63.29-30.31,95a75.51,75.51,0,0,1-8-9.53c-.52-.72,0-1.44.31-2.12,12.89-27.25,25-54.84,37.38-82.34A8.11,8.11,0,0,1,142.63,65.57Z"/><path class="cls-6" d="M89.51,118.43c.46,2.18.95,4.36,1.37,6.55a70.11,70.11,0,0,0,9.64,23.86,3.3,3.3,0,0,1,.24,3.67c-1.8,3.59-3.48,7.25-5.12,10.92-.55,1.22-1,1.21-2,.36a49.11,49.11,0,0,1-11.86-16.68,2.74,2.74,0,0,1-.25-1.94q3.74-13.39,7.48-26.78Z"/><path class="cls-7" d="M67.31,161.43c.79,1.91,1.37,3.56,2.14,5.12s1.37,3.11.57,5.13c-1,2.54,1.61,6.16,4.6,6.72A4.15,4.15,0,0,1,77.28,180c9,10.8,20.15,17.22,34.61,16.91a11.72,11.72,0,0,1,4.67.44c-.81,2.14-1.64,4.23-2.4,6.35-.52,1.42-1.74,1.12-2.75,1.16A40.36,40.36,0,0,1,86,197c-9-6.32-15-14.87-20-24.46C63.87,168.4,64.68,165,67.31,161.43Z"/><path class="cls-7" d="M251.82,160.9c.14,9.11-.54,18.16-3.6,26.79-3.75,10.58-10.56,18.53-21.28,22.71a10.21,10.21,0,0,1-7.59.12,37.06,37.06,0,0,0-7.76-2c-1-.13-1.92-.55-1.72-1.7s1.25-.53,1.9-.55c18.71-.42,31.43-11.29,35-30,1.56-8.26,1.85-16.66,2.44-25,0-.33,0-.68,0-1,.13-.74-.36-1.82,1-1.88s1.1.92,1.21,1.73A90.43,90.43,0,0,1,251.82,160.9Z"/><path class="cls-7" d="M209.91,203.71c.84-2.18,1.65-4.19,2.36-6.22.39-1.14,1.32-1.2,2.21-1.28,11-1,18.12-7.53,23.34-16.63,5-8.68,6.23-18.3,6.9-28.05,0-.5,0-1,.06-1.5,0-.77,0-1.6,1.11-1.62,1.25,0,.89,1,.91,1.65a115.77,115.77,0,0,1-.61,14.06c-.62,6.52-1.56,13-3.92,19.13a35.36,35.36,0,0,1-10.65,14.67C225.33,203.19,217.94,204.11,209.91,203.71Z"/><path class="cls-6" d="M164.48,84.39c9.77,23,19.32,45.43,28.88,67.91-6.33-5.46-13.11-10.3-15.72-18.9-4.26-14-9-27.94-13.58-41.88A9.57,9.57,0,0,1,164.48,84.39Z"/><path class="cls-7" d="M63.14,171.68c10.2,20.66,24.1,35.3,48.45,35.63-3.36,4.22-4,4.6-8.58,2.85-5.12-2-10.27-3-15.71-1.79a2.75,2.75,0,0,1-2.29-.75C75.76,201.4,68.92,193,63.37,183.49,61.37,180.07,62.68,176,63.14,171.68Z"/><path class="cls-7" d="M180.28,45.29c-6.21,7.94-10.47,16.25-14.67,25.19-1.14-2.08-2.1-3.78-3-5.5-2.37-4.42-4.7-8.88-7.1-13.29-.62-1.15-.68-1.68.86-1.95C164.09,48.36,171.82,46.87,180.28,45.29Z"/><path class="cls-6" d="M146.34,164.51c0,2.85,0,5.7,0,8.55,0,1.37-.51,1.93-1.94,1.9-2.93-.05-5.87-.05-8.8.09-1.57.07-2.23-.66-2.69-2-1.82-5.34.1-11.18,5-14.93a11.61,11.61,0,0,1,1.45-1c2.13-1.18,4.66-3.18,6.64-2.21,1.61.78.33,4,.49,6.08.1,1.16,0,2.34,0,3.52Z"/><path class="cls-8" d="M185.25,156.12c4,1.52,7.46,2.79,10.86,4.08a2.11,2.11,0,0,1,1.2,1.23c1.56,3.7,3.09,7.42,4.69,11.11.5,1.16.12,1.47-1,1.5-2.68.07-5.36.21-8,.32-.84,0-1.72.09-2.07-1C189.07,167.85,187.27,162.3,185.25,156.12Z"/><path class="cls-8" d="M103,152.81a88.55,88.55,0,0,0,7.49,9.09c.48.49,1,1,.73,1.76-.84,2.72-1.7,5.44-2.62,8.14-.3.88-1,.67-1.69.42a37.94,37.94,0,0,1-9.23-5.08,1.49,1.49,0,0,1-.4-2.17C99.11,161,101,157.1,103,152.81Z"/><path class="cls-7" d="M179.49,37.2c-2.25,2.18-4.12,2.93-6.91,1.76a6.75,6.75,0,0,0-7.44,1.7,1.7,1.7,0,0,1-1.74.65c-4.84-1.11-4.85-1.08-9,.73,0-2.59,0-5.09,0-7.59,0-.65.09-1.17.92-1.17A71.47,71.47,0,0,1,179.49,37.2Z"/><path class="cls-7" d="M194.79,204.15c-2.35,0-4.7,0-7,0-1.22,0-1.82-.24-1.16-1.54a1.63,1.63,0,0,0,.11-.23c1.94-5.79,1.94-5.79,8-5.8,3.18,0,6.37.07,9.55,0,1.79-.06,1.87.46,1.31,2-2.06,5.55-2,5.57-7.78,5.62-1,0-2,0-3,0Z"/><path class="cls-9" d="M142.49,204.43a41.12,41.12,0,0,1,2.24-6.61c.37-1,1.11-1.09,2-1.08,4.26,0,8.52.08,12.79,0,1.61,0,1.72.51,1.2,1.94-2,5.59-2,5.63-7.89,5.78-3.17.07-6.35.06-9.53.08A5,5,0,0,1,142.49,204.43Z"/><path class="cls-9" d="M144,191.54c.42,1.35-.22,2.39-.57,3.43-.83,2.46-1.65,4.93-2.71,7.3a11.79,11.79,0,0,0-.83,7.53c.74,3.57-1.43,6.6-2.55,9.8-.22.61-1,.58-1.56.58-2.42,0-4.84,0-7.48,0,1.33-4.05,2.3-8,6.09-10.48,2.19-1.43,3.15-3.83,4.06-6.21,1.28-3.36,2.64-6.7,4-10C142.78,192.78,142.92,191.87,144,191.54Z"/><path class="cls-9" d="M127.79,204.75c-2.09,0-4.18,0-6.28,0-1.19,0-1.54-.37-1-1.46a3.9,3.9,0,0,0,.2-.47c2.11-6,2.11-6,8.36-6.06,2.51,0,5,.06,7.53-.06,1.64-.07,1.88.56,1.3,1.89,0,.07,0,.16-.06.24C136.08,204.63,136.08,204.63,127.79,204.75Z"/><path class="cls-9" d="M167.15,191.53c-.19,2.4-1.29,4.12-2,6-.8,2.2-1.59,4.41-2.49,6.57a6.44,6.44,0,0,0,0,5.11c1.56,3.89-1.1,6.9-2.25,10.21-.18.53-.86.4-1.35.4-2.51,0-5,0-7.76,0,1.17-3.72,2.1-7.32,5.41-9.72a13.63,13.63,0,0,0,4.81-6.61c1.15-3.14,2.4-6.25,3.64-9.36C165.51,193.22,165.7,192.16,167.15,191.53Z"/><path class="cls-9" d="M122.19,192.09c-1.37,3.64-2.6,7.22-4.07,10.7a9.92,9.92,0,0,0-.53,7.25c1.14,3.7-1.49,6.69-2.5,10-.15.51-.85.39-1.34.41-2.09.07-4.19.11-6.28.2-1,.05-1.61-.12-1.16-1.39,1.23-3.49,2.43-6.91,5.73-9.16a11.74,11.74,0,0,0,4.28-6c1.26-3.54,2.75-7,4.2-10.47C120.77,193,120.75,192,122.19,192.09Z"/><path class="cls-9" d="M211.39,191.35c-.37,3.47-1.81,6.58-3.13,9.69a11,11,0,0,0-.37,8.51c1.25,3.48-1.1,6.24-2.17,9.24-.23.65-1,.45-1.58.47-1.93.05-3.87,0-5.79.14-1.54.1-1.64-.4-1.14-1.72,1.26-3.38,2.44-6.69,5.57-9,2.13-1.58,2.93-4.22,3.76-6.7A45.27,45.27,0,0,1,211.39,191.35Z"/><path class="cls-9" d="M188.8,191.22c-1.63,4.18-3,7.84-4.49,11.42a7.48,7.48,0,0,0,0,6.5c1.67,3.59-.59,6.64-1.72,9.81-.23.64-.95.6-1.54.61-2,0-4,0-6.05.1-1.15,0-1.52-.33-1.07-1.48,1.19-3.13,2.2-6.34,4.94-8.6a12.14,12.14,0,0,0,3.55-5.39c1.36-3.7,2.91-7.32,4.41-11A2.63,2.63,0,0,1,188.8,191.22Z"/><path class="cls-7" d="M172.9,204.25c-2,0-4,0-6,0-1.15,0-1.58-.32-1-1.44a.91.91,0,0,0,.11-.22c2-6,2-6,8.35-5.94,2.34,0,4.68,0,7,0,1.21,0,1.83.23,1.14,1.53a2.4,2.4,0,0,0-.11.23C180.39,204.23,180.39,204.23,172.9,204.25Z"/><path class="cls-9" d="M64.07,189.26c5.46,7.67,11.47,14.71,19.51,20.08-.88.45-1.43.78-2,1-3.37,1.4-4.52,1.14-7-1.51C69.24,203.29,65.37,197,64.07,189.26Z"/><path class="cls-10" d="M163.56,95.92q5.88,18.09,11.77,36.17l-.69.23A58.62,58.62,0,0,1,163.56,95.92Z"/><path class="cls-7" d="M134.1,44.63c2.32-3.39,4.3-6.68,6.71-9.63,1.37-1.68,3.83-1.28,5.85-1.55.45-.07.47.58.49,1,0,1,0,2,.09,3,.13,2.89.44,5.47-3.55,6.62-2,.56-3.44,1.62-5.53.57C137.06,44.09,135.73,44.46,134.1,44.63Z"/><path class="cls-9" d="M138.32,35.29c-2.81,4.12-5.36,7.82-7.88,11.54-.33.47-.65.75-1.21.37C126,45,122.36,44.46,118,45.1A51.27,51.27,0,0,1,138.32,35.29Z"/><path class="cls-9" d="M247.35,195.74a40.55,40.55,0,0,0,3,7.16,17.27,17.27,0,0,1,1.33,3.77c.49,2.65,0,3-2.54,2.2a26.22,26.22,0,0,0-11.54-1.59A55.55,55.55,0,0,0,247.35,195.74Z"/><path class="cls-10" d="M200.32,163.35c5.54,2,10.07,5.33,15.28,8.38-3.21,1.29-6,2.25-9.09,2.29a2,2,0,0,1-2.18-1.25C203,169.61,201.66,166.49,200.32,163.35Z"/><path class="cls-10" d="M120.47,175.31a48.33,48.33,0,0,1-8.46-1.38c-1.16-.26-1.57-.85-1.11-2,.07-.15.12-.31.18-.47.72-2,.76-5.27,2.29-5.81s3.21,2.35,4.94,3.57c1.09.78,2.12,1.63,3.18,2.45.89.7,2.22,1.16,1.73,2.69S121.35,175,120.47,175.31Z"/><path class="cls-10" d="M169.58,32.38a91.15,91.15,0,0,0-13.5-1.2c-1.14,0-1.74-.47-1.64-1.65.16-1.88-.92-4.42.54-5.45,1.22-.85,3.09,1.1,4.61,1.91,3.56,1.88,7,3.89,10.56,5.84C170.24,32.3,170.14,32.58,169.58,32.38Z"/><path class="cls-9" d="M156.77,206.65c-3.15,5.34-7.7,6.09-13,4.87-2.31-.54-1.42-2.57-1.7-3.9-.31-1.49,1.21-.94,2-1C148.22,206.61,152.39,206.65,156.77,206.65Z"/><path class="cls-11" d="M243.84,139.14c3,0,6,0,9,0,1,0,2,0,2,1.26s-1,1.13-1.87,1.13c-6.12,0-12.24,0-18.36,0-.9,0-2.11.13-2.16-1.13-.07-1.62,1.37-1.14,2.25-1.16,3-.06,6,0,9.06,0Z"/><path class="cls-12" d="M201.62,206.32a2.61,2.61,0,0,1-2.08,1.89c-3.37,1-6.76,1.88-10.16,2.78-3.2.85-2.54-2-2.94-3.42-.56-2,1.37-1.18,2.15-1.2C192.87,206.27,197.14,206.32,201.62,206.32Z"/><path class="cls-13" d="M163.28,77.05l-9.13-21.69.65-.3a46.29,46.29,0,0,1,4,6.85c1.67,3,3.27,6,4.89,9C165.06,73.54,165.05,73.74,163.28,77.05Z"/><path class="cls-14" d="M181.67,145.44c4.32,3.86,8.52,7.65,13.14,11.9-3.47-1.07-6.31-2-9.16-2.82a1.83,1.83,0,0,1-1.37-1.29C183.44,150.62,182.54,148,181.67,145.44Z"/><path class="cls-15" d="M189.32,41.49l-34.65,6.56-.2-1,34.64-6.53Z"/><path class="cls-7" d="M243.85,145.93c-2.86,0-5.71,0-8.56,0-.65,0-1.51,0-1.57-.88-.07-1.16.93-1,1.64-1q8.55,0,17.12.1c.66,0,1.52-.09,1.49.85s-.91.81-1.56.81h-8.56Z"/><path class="cls-14" d="M178.4,206.54c-1.87,3.05-4,3.84-7,2.68a10.62,10.62,0,0,0-5.17-.81c-1,.13-1.47-.32-1.5-1.18s.8-.68,1.31-.68C170.05,206.53,174.05,206.54,178.4,206.54Z"/><path class="cls-16" d="M156.93,67.14c1.59,3.65,3.08,7.34,4.81,10.92a7,7,0,0,1,0,6.53c-1.83-5.73-3.52-11.06-5.22-16.39C156.33,67.72,156,67.18,156.93,67.14Z"/><path class="cls-17" d="M124,52.71l23-4.47.2,1c-7.55,1.94-15.3,2.88-22.91,4.48Z"/><path class="cls-18" d="M133.91,207.05c-.82,1.33-1.77,1.91-3.18,1.62a19.33,19.33,0,0,0-9.16.53c-.85.23-1.61.46-1.87-.82s.57-1.33,1.44-1.33C125.3,207,129.47,207.05,133.91,207.05Z"/><path class="cls-13" d="M77.79,173.92a2.08,2.08,0,0,1-2.17,2.24c-1.44,0-3.29-2-3.22-3.66.06-1.34.58-2.51,2.17-2.57C76,169.89,77.84,172.3,77.79,173.92Z"/><path class="cls-19" d="M150.58,15.25c-1.32-.07-2.65-.13-4-.22a.81.81,0,0,1-.83-.75c0-.53.41-.7.84-.71,2.48-.11,5-.21,7.45-.25.49,0,1,.21,1,.86a.94.94,0,0,1-1,.91c-1.16.05-2.32,0-3.48,0Z"/><path class="cls-20" d="M147,25.64c.88,5.44.71,5.69-3.52,5.7C144.09,29.25,145.68,27.89,147,25.64Z"/><path class="cls-19" d="M132.35,49c2.05-2.76,4.24-3.24,7.47-1.62A35,35,0,0,1,132.35,49Z"/><path class="cls-21" d="M166.55,42.57c1.95-2.29,4-2.68,7.22-1.32A34,34,0,0,1,166.55,42.57Z"/><path class="cls-22" d="M162.56,43.2c-2.07.93-4.23.92-6.49,1.44C157.6,42.15,159.59,41.76,162.56,43.2Z"/><path class="cls-23" d="M178.74,40.25c2.46-1.76,2.65-1.79,4.9-1A9.71,9.71,0,0,1,178.74,40.25Z"/><path class="cls-24" d="M143.54,47a3.85,3.85,0,0,1,3.35-2c.32,0,.48.53.27.8C146.3,46.9,145,46.7,143.54,47Z"/><path class="cls-25" d="M144,72.69c-.21-.5,0-1.14-.48-1.54l.54-2c1,0,.57.66.48,1.14A4,4,0,0,1,144,72.69Z"/><path class="cls-26" d="M156.93,67.14l-.43,1.06a7.2,7.2,0,0,1-1.05-3.1.39.39,0,0,1,.58,0Z"/><path class="cls-27" d="M156,65.08l-.58,0c-.55-.47-.53-1.12-.61-2A2.47,2.47,0,0,1,156,65.08Z"/><path class="cls-28" d="M126.27,175.5c-.41-.1-.79-.18-.68-.62a.65.65,0,0,1,.59-.22,3,3,0,0,1,.69.61Z"/><path class="cls-29" d="M144.53,70.29l-.48-1.14.45-1.54a.34.34,0,0,1,.57,0A5.4,5.4,0,0,1,144.53,70.29Z"/><path class="cls-30" d="M169.58,32.38l.57-.55c.45.13,1.23.45,1.06.71C170.76,33.17,170.12,32.69,169.58,32.38Z"/><path class="cls-31" d="M145.07,67.61h-.57l.66-1.93A1.46,1.46,0,0,1,145.07,67.61Z"/><path class="cls-32" d="M80.24,108.33c2.39,0,3.92,1.38,3.88,3.54a3.46,3.46,0,0,1-3.56,3.65c-2.39,0-4.19-1.6-4.14-3.71A3.79,3.79,0,0,1,80.24,108.33Z"/><path class="cls-33" d="M81.94,111.91c0,1-.68,1.46-1.6,1.53S79,113,78.88,112.12s.29-1.63,1.33-1.66A1.61,1.61,0,0,1,81.94,111.91Z"/></svg>