<svg id="Layer_1" data-name="Layer 1" xmlns="http://www.w3.org/2000/svg" viewBox="0 0 300 300"><defs><style>.cls-1{fill:#ce1227;}.cls-2{fill:#030202;}.cls-3{fill:#040203;}.cls-4{fill:#150f0f;}.cls-5{fill:#080606;}.cls-6{fill:#0c0203;}.cls-7{fill:#190e0e;}.cls-8{fill:#141010;}.cls-9{fill:#190809;}.cls-10{fill:#170b0c;}.cls-11{fill:#1a1212;}.cls-12{fill:#190c0d;}.cls-13{fill:#130305;}.cls-14{fill:#1c1011;}.cls-15{fill:#1a0c0d;}.cls-16{fill:#0d0a0a;}.cls-17{fill:#171212;}.cls-18{fill:#1d1616;}.cls-19{fill:#0c0a0a;}.cls-20{fill:#1c0e0f;}.cls-21{fill:#040404;}.cls-22{fill:#130809;}.cls-23{fill:#181111;}.cls-24{fill:#160709;}.cls-25{fill:#191313;}.cls-26{fill:#170f0f;}.cls-27{fill:#110a0a;}.cls-28{fill:#130608;}.cls-29{fill:#1c0709;}.cls-30{fill:#190608;}.cls-31{fill:#100607;}.cls-32{fill:#0c0c0b;}.cls-33{fill:#0e0405;}.cls-34{fill:#140809;}.cls-35{fill:#190507;}.cls-36{fill:#120708;}.cls-37{fill:#180607;}.cls-38{fill:#1f0609;}.cls-39{fill:#0b0606;}.cls-40{fill:#090909;}.cls-41{fill:#10100f;}.cls-42{fill:#1b1716;}.cls-43{fill:#080203;}.cls-44{fill:#adaba4;}.cls-45{fill:#a5a39d;}.cls-46{fill:#9b9a93;}.cls-47{fill:#1b0d0e;}.cls-48{fill:#1b0709;}.cls-49{fill:#130f0f;}.cls-50{fill:#210306;}.cls-51{fill:#160e0e;}.cls-52{fill:#c3c1b9;}.cls-53{fill:#c2c0b8;}.cls-54{fill:#cd1227;}.cls-55{fill:#c1bfb7;}.cls-56{fill:#c0beb6;}.cls-57{fill:#bdbbb3;}.cls-58{fill:#bebcb5;}.cls-59{fill:#bbbab2;}.cls-60{fill:#bbb9b1;}.cls-61{fill:#bfbdb6;}.cls-62{fill:#bcbab2;}.cls-63{fill:#bfbdb5;}.cls-64{fill:#bab8b1;}.cls-65{fill:#b6b4ad;}.cls-66{fill:#b7b6ae;}.cls-67{fill:#b3b1aa;}.cls-68{fill:#bcbab3;}.cls-69{fill:#bebcb4;}.cls-70{fill:#acaba4;}.cls-71{fill:#b2b0a9;}.cls-72{fill:#a09e98;}.cls-73{fill:#b9b7b0;}.cls-74{fill:#7c7b76;}.cls-75{fill:#a7a59f;}.cls-76{fill:#898882;}.cls-77{fill:#a6a49d;}.cls-78{fill:#0f0f0e;}.cls-79{fill:#9c9a94;}.cls-80{fill:#918f89;}.cls-81{fill:#a7a69f;}.cls-82{fill:#8c8a85;}.cls-83{fill:#1b1b1a;}.cls-84{fill:#a5a39c;}.cls-85{fill:#a5a29c;}.cls-86{fill:#aaa8a1;}.cls-87{fill:#a4a29b;}.cls-88{fill:#b0aea7;}.cls-89{fill:#bab8b0;}.cls-90{fill:#b51022;}.cls-91{fill:#a9a7a0;}.cls-92{fill:#b4b2ab;}.cls-93{fill:#b7b5ad;}.cls-94{fill:#a3a19a;}.cls-95{fill:#afada6;}.cls-96{fill:#b8b6ae;}.cls-97{fill:#1a1717;}.cls-98{fill:#aeaca5;}.cls-99{fill:#b6b4ac;}.cls-100{fill:#1c1515;}.cls-101{fill:#a4a29c;}.cls-102{fill:#161615;}.cls-103{fill:#b8b7af;}.cls-104{fill:#b7b5ae;}.cls-105{fill:#b5b3ab;}.cls-106{fill:#272725;}.cls-107{fill:#9e9c96;}.cls-108{fill:#aba9a2;}.cls-109{fill:#b1afa8;}.cls-110{fill:#bab9b1;}.cls-111{fill:#94938d;}.cls-112{fill:#a19e98;}.cls-113{fill:#261112;}.cls-114{fill:#9c9a93;}.cls-115{fill:#242423;}.cls-116{fill:#9a9892;}.cls-117{fill:#b4b2aa;}.cls-118{fill:#88847e;}.cls-119{fill:#353432;}.cls-120{fill:#181716;}.cls-121{fill:#0c0808;}.cls-122{fill:#c41125;}</style></defs><path d="M23.23-.61H276.77a1,1,0,0,1,1,1V176.59A123.39,123.39,0,0,1,154.37,300h-8.52A123.62,123.62,0,0,1,22.23,176.37V.38a1,1,0,0,1,1-1Z"/><path class="cls-1" d="M150,2.51q60.63,0,121.26-.06c2.91,0,4,.46,4,3.75-.15,55.63,1.32,111.32-.62,166.89-1.88,53.74-27.79,94.19-78.34,114.87-62.92,25.73-136.84-2.25-163.35-72.67a134.52,134.52,0,0,1-8.5-47.93q0-80.55,0-161.09c0-2.64.46-3.66,3.43-3.65q61.1.17,122.19.07Z"/><path d="M72.21,128.8c1.72-2,4.11-2.64,6.5-3.09a6.36,6.36,0,0,0,4.07-2.45c4.84-6.19,9.57-12.48,15.25-18,1.47-1.42.4-2-.64-2.73-4.09-3-4.09-3,.26-5.47a22.43,22.43,0,0,1,8.22-3.19,3.68,3.68,0,0,0,3.44-2.46,9.73,9.73,0,0,1,1-1.88c4.22-6.44,9.23-12.31,12.75-19.26,2.09-4.12,6.09-6.89,10.33-8.82,2.37-1.08,2.91-2.18,2.26-4.81-1.87-7.48-1.73-15,1.45-22.17a5.62,5.62,0,0,1,1.17-2.13c4.74-3.9,2.66-8.35,1.11-12.75-.5-1.43-1.15-2.8-1.8-4.38,2-.64,4.44,1.87,5.64-1.13.53-.21.84.08,1.12.47.51.82.3,1.78.51,2.66.73,3,.48,3.24-2.75,2.92.81,1.46,2.1,1.36,3.41,1.09a43.79,43.79,0,0,1,19.33,0,4,4,0,0,0,1.81.06c.66-.15,1.24-1.13,1.13-1.17-1.82-.68-1.76-2.86-3.09-3.77-.53-.36-.83.6-1,1.19-.92,3.15-2.73,1.82-4.46.87a3,3,0,0,1-.89-1.1,5.65,5.65,0,0,1-.32-3.84c.27-.45.6-.78,1.19-.6,1.27,1.5,2.74,1.49,4.22.39s2.77-1.13,3.58.72c1.26,2.89,3.45.86,5.51,1-1.19,3.59-2.85,6.85-3.53,10.41-.21,1.07-.59,2.07.38,3.13,7.26,7.93,8,17.41,5.73,27.25-.78,3.41.07,4.73,3,6.22a25.75,25.75,0,0,1,13,14.77,10.12,10.12,0,0,0,2.44,3.83,43.2,43.2,0,0,1,7.83,10.9,3.87,3.87,0,0,0,3.17,2.4c3.88.61,7.29,2.5,10.62,4.53,1.67,1,2,1.65.07,2.88-4,2.58-3.93,2.69-.63,6.08A121.46,121.46,0,0,1,226,121c2.22,3.07,4.91,5.31,8.91,5.84,6.63.88,9.16,4.91,7.37,11.53a42.68,42.68,0,0,1-2.06,5.09c-.16.37-.41,1-.62,1-4.95,0-2,4.15-3.17,6.13-.69,1.17.23,1.78,1.6,1.46,3.39-.81,2.75,2.32,3.42,3.84.89,2.05-1.33,2-2.35,2.18-3,.55-4.78,1.37-5.39,5.11-3.8,23.55-8,47.05-12.1,70.55a48,48,0,0,1-7.65,19.5c-.38.55-.58,1.33-1.67,1.44A39.78,39.78,0,0,1,211,236.34c3.45-22.07,8.49-43.84,12.77-65.76.7-3.6,1.36-7.21,2.2-10.78.44-1.87.16-3.14-1.75-3.84a2.9,2.9,0,0,1-1.27-.83c-.76-.92-3.35-1-1.86-2.94,1.12-1.46,1.93-4.69,5-2.19,1.25,1,1.95.62,2.22-.93.55-3.11,1.11-6.23,1.75-9.32a1.78,1.78,0,0,0-1.19-2.4c-2.85-1-4.86-2.8-5.57-5.95-.27-1.19-1.6-1.81-2.63-2.45-6.51-4-13.1-8-18.64-13.33-1.05-1-1.64-.78-2.35.3-.83,1.27-1.77,2.46-2.85,3.93A26.86,26.86,0,0,1,192.29,108a7.09,7.09,0,0,0-2.29-4.49A69.6,69.6,0,0,1,180.25,92c-1.62,2-3,4-5,5.25-1.1.7-.86,1.74-.79,2.74a19.15,19.15,0,0,1-2.11,10.67c-1.22,2.21-.39,3.36,1.33,4.49a9.13,9.13,0,0,0,7.65,1c1.76-.46,2.26,0,2,1.72-.21,1.41-.18,3-1.15,4.06-1.84,2-.9,3.45.19,5.32C189,138.6,192.14,151,192.8,164c.8,15.7,1.52,31.41,1.83,47.12.32,15.52,4.06,29.82,13.16,42.58,2,2.74,1.83,3-1.61,3.13a11,11,0,0,0-6.37,2.46c-10.1,7.62-21.88,10.83-34.2,12-12.78,1.21-25.48.5-37.82-3.58a57.53,57.53,0,0,1-16.85-8.52c-1.81-1.37-3.43-2.42-6-2.21-3.38.27-3.74-.69-1.83-3.56,6.14-9.19,10.77-19,11.93-30.13,1.2-11.58,1.36-23.22,1.84-34.85.5-12.12.21-24.29,2.43-36.3,1.66-9,4.46-17.6,9.31-25.41,1.06-1.71,1.3-3-.06-4.61a6.31,6.31,0,0,1-1-2.52c-.79-3.1-.34-3.54,2.82-3.23a9.74,9.74,0,0,0,5.12-.41c3.31-1.47,3.86-2.72,2.44-6a18,18,0,0,1-1.62-8.94,4.66,4.66,0,0,0-1.94-4.7,39.17,39.17,0,0,1-4-4.21,92.86,92.86,0,0,1-11,13c-1,1-.81,2.49-1,3.77a34.65,34.65,0,0,1-3.16,9.23c-.72,1.45-1.26,1.9-2.47.29-2.87-3.8-2.94-3.75-6.62-.65-4.85,4.09-10,7.77-15.17,11.4-1.64,1.15-2.25,2.24-.74,3.87a1.51,1.51,0,0,1-.62.58,3.18,3.18,0,0,1-2.54-.26,2.06,2.06,0,0,1-.74-1.09c-.35-2.74,1.34-4.33,3.31-5.75,4.37-3.17,8.79-6.27,13-9.69,4.39-3.58,4.19-6.22-.81-8.94-1.67-.92-2.52.33-3.32,1.28C94.86,113.19,91,117,88,121.52c-2.52,3.8-5.63,6.66-10.3,7.54-1.58.3-3.16.95-3.11,3.08,1.53-1.81,6.24-3.15,8.3-2.39.71.27,1.29.66,1.31,1.5A2.05,2.05,0,0,1,83.12,133c-1,.67-2.15.57-3.22.87a2.56,2.56,0,0,0-2.17,2.58c0,1.55,1.18,1.4,2.11,1.64l.6.15c7.19,2.18,8,4.18,4.14,10.48a33.69,33.69,0,0,1-3.41,4.82c1.94-2.07,3.64-4.77,6-6.95,2.52-2.36,4.19-2.35,6.47.26a25.13,25.13,0,0,1,6.5,15.51c.13,2.41-.87,3.56-3.43,3.69a53.27,53.27,0,0,1-10.21-.28,62.55,62.55,0,0,1,9.64,1.59c2.73.57,3.63,2,2.89,4.69A25.47,25.47,0,0,1,88.71,186.1c-2.39,1.72-4.3,1.15-5.86-1.48A52.39,52.39,0,0,1,79.18,177,46,46,0,0,1,82,185.46c.68,2.88-.15,4.41-3.1,4.82-5.61.78-11.21.73-16.44-2-3.15-1.62-3.6-3-1.9-6.14a38.73,38.73,0,0,1,5-7.67c-2.06,2.27-3.66,4.94-6,7-2.65,2.32-4.13,2.26-6.37-.53a27.49,27.49,0,0,1-5.95-14.52c-.34-3.21.9-4.59,4.1-4.69s6,.9,8.33.72a58.5,58.5,0,0,1-9-1.87c-2.11-.59-2.77-2-2.22-4a24.07,24.07,0,0,1,10.47-14.2c2.47-1.59,4-1.11,5.54,1.54a46,46,0,0,1,4,7.83c-1.08-2.65-2.27-5.58-3.22-8.59-.58-1.85-.42-3.91,1.67-4.27,3.91-.67,3.79-3.18,3.47-6,0-.59-.21-1.15-.28-1.74a2.27,2.27,0,0,1,.22-1.33C70.69,129.05,71.54,129.09,72.21,128.8Z"/><path class="cls-2" d="M78.48,210.19a5.78,5.78,0,0,1-.4.83c-.59.81-2.63.12-2.19,1.91.37,1.5,2.1.31,2.9,1.3a6.57,6.57,0,0,1-.12.78c-.35,1.55-1.89,3.38-.93,4.51s2.79-.36,4.19-.82,1.8,0,1.77,1.36c0,2.14-.09,4.29,0,6.43.09,1.85-.62,2.06-2.16,1.43-1.2-.5-2.49-.79-3.9-1.22-.42,1.82.39,3.19.87,4.55s0,1.85-1.34,1.82c-1.12,0-2.24,0-3.36,0-4.62,0-4.65,0-3.67-4.3.33-1.43.3-2.27-1.53-1.61-1.33.48-2.7.83-4.21,1.28a14.35,14.35,0,0,1-.18-1.61c0-2.74,0-5.49,0-8.28,1.67-.17,2.91.65,4.23,1.06,2,.61,2.17-.14,1.64-1.75-.42-1.23-.8-2.48-1.25-3.92l2.33-.24a1,1,0,0,0,.94-1c0-.71-.18-1.23-1-1.19A1.84,1.84,0,0,1,69,210.18a1.48,1.48,0,0,1,.54-.57c1.14-.1,1.23-1.32,2-1.85a3.4,3.4,0,0,1,.81-.4,4.46,4.46,0,0,1,2.75-.06,5.92,5.92,0,0,1,.81.37c.78.54,1.06,1.64,2.11,1.88A1.92,1.92,0,0,1,78.48,210.19Z"/><path class="cls-3" d="M58.7,201.08c-.88-1-2.11-1.72-2.49-3.11l.17-.16c.06-.05,0,0-.1.21-2.3-.68-3.2-2.68-4.27-4.52a1.7,1.7,0,0,1,.13-1.66,2.91,2.91,0,0,1,1-.92,2.83,2.83,0,0,1,1.84-.4c4.35,1.93,8.51,4.26,13.34,5a30.53,30.53,0,0,0,18.16-2.34c1.56-.71,3-1.78,4.87-1.57a2.07,2.07,0,0,1,1.16.6c.51.67.51,1.72,1.52,2a2.16,2.16,0,0,1,.41.62l-3.28,3.49a1.49,1.49,0,0,1-.62-.36c-.28-.62-.87-.73-1.44-.87s-.63-.93-1.23-.31a9.79,9.79,0,0,1-2.38,1.33c-7.28,2.93-14.66,2.84-22.09.64-.65-.19-1.22-.84-1.92-.15a3.18,3.18,0,0,1-.53.51,2.5,2.5,0,0,0-1.61,1.48A2.06,2.06,0,0,1,58.7,201.08Z"/><path class="cls-4" d="M48.3,189.39a47.9,47.9,0,0,0-4.57-5.51c-1.18-1.08-.51-2.83-1.86-3.64a4.28,4.28,0,0,1,.4-.69,7.41,7.41,0,0,1,1.28-1,2,2,0,0,1,2-.37c2.45,2.23,4,5.1,5.52,7.95a1.59,1.59,0,0,1-.32,1.21c-.61.53-1.39.88-1.76,1.68A2,2,0,0,1,48.3,189.39Z"/><path class="cls-5" d="M146.52,13.41c3.83,2.1,5.33-1.52,7.38-3.26,1.25-1.06,1.64-1.25,2.29.22a1.34,1.34,0,0,1-.1,1.26,13.73,13.73,0,0,1-2.18,2.13c-1,.77-1.72,1.66-1.19,3.13.4,1.12.4,2.6-1.15,2.55s-4.07,1.39-4.84-1c-.48-1.46-1.47-2.92-1.26-4.62C145.71,13.42,146,13.13,146.52,13.41Z"/><path class="cls-6" d="M58.7,201.08l0-.78c.6-.56,1.18-1.14,1.73-1.74l.77-.05a6.63,6.63,0,0,1,6,5.35,1.54,1.54,0,0,1-.69,1,4.9,4.9,0,0,0-2,.89l-.36.12Z"/><path class="cls-7" d="M103.44,183.72l-4.35,5.42a1.29,1.29,0,0,1-1.16-.38,3.49,3.49,0,0,0-1.64-1.3,1.65,1.65,0,0,1-.46-.73A2.85,2.85,0,0,1,98.45,184c.34,0,.43-.16.36-.49a2.6,2.6,0,0,1,1.69-2.34,1.46,1.46,0,0,1,.8.08c.54.88,1.76.61,2.37,1.37A1.05,1.05,0,0,1,103.44,183.72Z"/><path class="cls-8" d="M39.79,174c-1.69-1.33-.64-3.32-1.21-4.92a2.42,2.42,0,0,1,.51-1.07,4.77,4.77,0,0,0,1.54-1.25,1.92,1.92,0,0,1,1.23-.34c1.71.9,1.37,2.37,1.09,3.84a5.08,5.08,0,0,1-.51.95,1,1,0,0,0,0,.55c.2.26.4.5.58.77a2.3,2.3,0,0,1,.32,1.49,2,2,0,0,1-.37.76,2.55,2.55,0,0,1-2.45.22C40.14,174.81,40,174.39,39.79,174Z"/><path class="cls-9" d="M105.27,147.83c1.07,2.31,2.63,4.44,2.54,7.17a1.52,1.52,0,0,1-.67,1.13,2.23,2.23,0,0,1-1.34.27,3.09,3.09,0,0,1-1.6-.83,2.36,2.36,0,0,1-.63-1.49,1.78,1.78,0,0,1,.26-.9.37.37,0,0,0-.17-.4,3.81,3.81,0,0,1-.93-.95,2.11,2.11,0,0,1-.21-.77,1.43,1.43,0,0,1,.28-.75c.6-.5,1.43-.77,1.63-1.66A2.28,2.28,0,0,1,105.27,147.83Z"/><path class="cls-10" d="M45.92,141.57l5.46-5.43c.19.16.37.32.55.5.32.39.46.88.79,1.27.48.64,1,1.25.7,2.15a2.23,2.23,0,0,1-2.13,1.36c-.48-.11-.26.24-.26.47a3.29,3.29,0,0,1-1.88,2.38,1.71,1.71,0,0,1-.84,0c-.78-.36-1.11-1.28-2-1.56A1.58,1.58,0,0,1,45.92,141.57Z"/><path class="cls-11" d="M48.3,189.39l0-.72a2.87,2.87,0,0,0,1.74-1.75l.68-.57c2.67.52,3.72,2.25,3.65,4.83l-1.1.62a.67.67,0,0,0-.7.68l-.6,1C49.55,193.24,50.59,189.81,48.3,189.39Z"/><path class="cls-12" d="M109,159.33c.07,2,1,4.09,0,6.13a.73.73,0,0,1-.53.3,1.67,1.67,0,0,0-.83.41,2.24,2.24,0,0,1-1.28.79,1.49,1.49,0,0,1-.83-.31c-1.34-1.54-1.18-3.19-.39-4.9a3.91,3.91,0,0,1,.89-1.05c.55-.45,1.38-.44,1.83-1.08A1.82,1.82,0,0,1,109,159.33Z"/><path class="cls-13" d="M51.4,136.73c0-.19,0-.39,0-.59,2.18-.72,3.49-3.15,6.08-3,.95.56,2.26.59,2.72,1.86-1,2.38-3.19,3.29-5.43,4.06a2.27,2.27,0,0,1-.86-.08C53,138.31,52.28,137.41,51.4,136.73Z"/><path class="cls-14" d="M39.82,152.58c1.75-1.13.41-3.79,2.39-4.81a6,6,0,0,1,1,.31,6.33,6.33,0,0,0,1.29.52,2,2,0,0,1,1.19,1.49c-.35,1.9-.43,4-2.67,4.8a1.76,1.76,0,0,1-.78-.16c-.67-.48-.78-1.61-1.86-1.63A3.85,3.85,0,0,1,39.82,152.58Z"/><path class="cls-11" d="M39.79,174l.6.7a2.11,2.11,0,0,0,2.37,0l.09-.83c2.14.75,2.75,2.3,2.3,4.4L44,179.52c-.62-.33-.87,0-1.05.55l-1.07.17C40.85,178.28,39.65,176.38,39.79,174Z"/><path class="cls-15" d="M38.4,161.23c-.71-2,.68-3.73.7-5.63a2.2,2.2,0,0,1,1.17.3c.44.61,1.19.65,1.8,1a2.32,2.32,0,0,1,.62.63c.57,1.62,1,3.22-.73,4.46a2.15,2.15,0,0,1-1.2-.14,2.48,2.48,0,0,0-1.71-.27A1.57,1.57,0,0,1,38.4,161.23Z"/><path class="cls-16" d="M71,131.25l.58,1.12c-1.24,1.43-2.83,1.45-4.51,1.15a1.73,1.73,0,0,1-.74-.51c-.57-.92-.22-2.28-1.41-2.91,2.24-1.49,4.75-1.43,7.28-1.3l-1.21,1C70.41,130.31,70.42,130.78,71,131.25Z"/><path class="cls-17" d="M96.35,136.58c.39,1.45,2.11,1.4,2.83,2.48.34.44,0,.73-.22,1a3,3,0,0,0-1.78,1.43A1.75,1.75,0,0,1,96,142a3.88,3.88,0,0,1-3.24-3.29,1.6,1.6,0,0,1,.43-.73,11.92,11.92,0,0,0,2.36-1.56A3.17,3.17,0,0,1,96.35,136.58Z"/><path class="cls-18" d="M48.12,143.93l.74.07c.58,2-.56,3.09-2.11,4a1.76,1.76,0,0,1-1.24-.45c-.53-.5-.6-1.32-1.23-1.75a2.32,2.32,0,0,1-.34-1.2c1.58-.39.85-2.31,2-3l.56.6A21.07,21.07,0,0,1,48.12,143.93Z"/><path class="cls-19" d="M92.41,192.92l-.81-.62c-.17-1.78.84-2.54,2.42-2.82a1.75,1.75,0,0,1,1.18.55,6.33,6.33,0,0,0,1.39,1.44c.24.33.44.67.2,1.09-.62.94-1.93,1.19-2.33,2.34l-.68,0A2.48,2.48,0,0,1,92.41,192.92Z"/><path class="cls-20" d="M103.44,183.72l0-1.21c-.79-.46-1.89-.26-2.46-1.16l.06.05c-1.1-1.94-.15-3.29,1.29-4.5a1.41,1.41,0,0,1,1.26.29,10.35,10.35,0,0,0,2,2.46c0,.26-.1.52-.17.78C104.08,181.15,104.92,183.12,103.44,183.72Z"/><path class="cls-21" d="M86.9,132.36l.44.61c.68.06,1.35.73,2,0l.71,0c.61.82,2,.22,2.45,1.27A14.81,14.81,0,0,1,91,136.68a2.18,2.18,0,0,1-1.25.49,4.19,4.19,0,0,1-3.28-1.38C85.54,134.61,84.48,133.22,86.9,132.36Z"/><path class="cls-22" d="M89.41,200.49l-3.74,3.41a5.5,5.5,0,0,1-.54-.54c-.14-.92-1-1.07-1.61-1.45a1.66,1.66,0,0,1-.58-1.11c.25-1.41,1.29-1.92,2.52-2.22a2.91,2.91,0,0,1,1.69.32c.59.45,1.38.17,2,.54C89.45,199.73,89.73,200,89.41,200.49Z"/><path class="cls-23" d="M96.25,141.53l.43-.51c.63-.47,1.12-1.16,2-1.3l.54-.66c.38,1.17,1.68,1.79,1.82,3.09l-.09.41c-.47.55-.48,1.3-.82,1.91a1.51,1.51,0,0,1-1.18.58C97.29,144.43,95.74,143.76,96.25,141.53Z"/><path class="cls-24" d="M109,159.33l-.57.6a7.7,7.7,0,0,1-2,.46,1.82,1.82,0,0,1-1.1-.67,2.15,2.15,0,0,1-.38-1.7,2.31,2.31,0,0,1,.71-1.1c.57-.36,1.38-.46,1.52-1.32l.7-.6C109.79,156,107.75,158.1,109,159.33Z"/><path class="cls-25" d="M99.09,144.64l.67-.51a3.27,3.27,0,0,1,1.22-1.95l0,0c1.87-.26.9,2.4,2.49,2.43a2.24,2.24,0,0,1-.33,1.1,3.64,3.64,0,0,0-1.12,1.56,2.16,2.16,0,0,1-.65.52C99.11,147.84,98.82,146.45,99.09,144.64Z"/><path class="cls-26" d="M45.83,147.06l.63.41c.15,1.19,0,2.24-1.36,2.66l-.92-1.23a1.3,1.3,0,0,1-1.34-.59l-.63-.54c1.06-.81.35-2.58,1.73-3.21l.69.58A3.41,3.41,0,0,0,45.83,147.06Z"/><path class="cls-27" d="M42.33,157.54l-.77-.06a3.17,3.17,0,0,0-1.92-1.22l-.54-.66c.73-.89.59-2,.72-3l.78.08A1.72,1.72,0,0,1,42,154.31l1,.17C43.83,155.73,44.06,156.84,42.33,157.54Z"/><path class="cls-28" d="M102.84,145.1l.65-.52c1.38.65.55,2.51,1.78,3.25l0,1.15a6.46,6.46,0,0,0-2.46,1.8h0c-2.33-.67-2-2.14-1.15-3.77l-.06.09C102,146.45,102.72,146,102.84,145.1Z"/><path class="cls-29" d="M83.87,205.27l-3.71,3.6a3.87,3.87,0,0,1-.53-.61,2.25,2.25,0,0,0-1.3-1.91,1.58,1.58,0,0,1-.32-.78,2.62,2.62,0,0,1,2.66-2.42,1.65,1.65,0,0,1,.72.4,2.09,2.09,0,0,0,1.91,1.19A1.27,1.27,0,0,1,83.87,205.27Z"/><path class="cls-30" d="M105.36,180.43l-.1-.94a3.51,3.51,0,0,1-1.73-1.75l-.7-.57a4.09,4.09,0,0,0,0-.78,7.82,7.82,0,0,1,.74-2.67,1.28,1.28,0,0,1,1.07-.51,1.49,1.49,0,0,1,.65.46c.38.78.36,1.83,1.45,2.14a1.49,1.49,0,0,1,.39.65C105.66,177.42,106.86,179.52,105.36,180.43Z"/><path class="cls-31" d="M66.67,132.32l0,.65a3.13,3.13,0,0,1-3.5,1.55,1.6,1.6,0,0,1-.66-.55c-.32-.86-.24-1.92-1.23-2.45,0-.13-.09-.26-.14-.38.86-2.06,2.51-.23,3.69-.75C65.86,130.66,66.23,131.53,66.67,132.32Z"/><path class="cls-32" d="M108.37,169.23c-.17,1.22.58,2.61-.59,3.67a1.49,1.49,0,0,1-.71-.35c-.32-.66-1-.79-1.58-1.18a2.72,2.72,0,0,1-.8-1c-.35-1.32-.63-2.64,1-3.37a4.3,4.3,0,0,1,2.88,1.47A1,1,0,0,1,108.37,169.23Z"/><path class="cls-33" d="M80.8,204.07l0-.69c-.22-2,1.12-2.3,2.63-2.4l.45.61a3.67,3.67,0,0,1,1.74,1.54l.09.77c-.9.07-1.14,1-1.8,1.37a2.7,2.7,0,0,0-.49,0A13.93,13.93,0,0,1,80.8,204.07Z"/><path class="cls-34" d="M69.62,210.18H69c-.56-.45-.88-1.2-1.7-1.3a.9.9,0,0,1-.22-.77c.44-.73,1-1.37,1.44-2.11a1.85,1.85,0,0,1,.76-.46c1.72.12,3,.73,3,2.74l-.91.14C70.87,209.08,70.64,210,69.62,210.18Z"/><path class="cls-35" d="M67.35,208.17l0,.71c-1.42-.6-1.86-2.22-3.13-3l.07-.05c.57-.53,1-1.33,1.94-1.19l.56-.74c1.41-.19,2.31.31,2.43,1.83l-.09.83A2.91,2.91,0,0,0,67.35,208.17Z"/><path class="cls-36" d="M107.7,172.11c0,.26,0,.53.08.79a1.16,1.16,0,0,1-.21.54c-.2.64-.17,1.44-1.09,1.59s-1.28-.48-1.8-.95l0-.68c-.89-1.28-1.36-2.46.73-3a3.67,3.67,0,0,1,.48.26A5.76,5.76,0,0,0,107.7,172.11Z"/><path class="cls-37" d="M89.41,200.49l-.49-.74a2.06,2.06,0,0,1-1.81-2.4,4.29,4.29,0,0,1,1-1.3c.67-.32.74.43,1.11.63a2.65,2.65,0,0,1,2,1.21,1.67,1.67,0,0,1,0,.5Z"/><path class="cls-38" d="M96.79,192.56l-.54-.77a1.52,1.52,0,0,1-1.37-1.3l-.78-.63a1.4,1.4,0,0,1,.89-1.38,4.92,4.92,0,0,1,1.69-.45c.75,0,1.28.61,2,.68a1.49,1.49,0,0,1,.4.43A7.05,7.05,0,0,0,96.79,192.56Z"/><path class="cls-39" d="M80.12,208.19l0,.68c-.84.1-1.15.85-1.68,1.32h-.63a4,4,0,0,1-1.75-1.76l-1-.2a2.85,2.85,0,0,1,3.12-2.51l.17.22A7.13,7.13,0,0,1,80.12,208.19Z"/><path class="cls-40" d="M63,133.49l0,.62a1.77,1.77,0,0,1-2.09.85,5.08,5.08,0,0,1-2.76-2.4c-.59-.65-.15-.83.43-.83a4.47,4.47,0,0,0,2.56-.59l.06.07A7,7,0,0,1,63,133.49Z"/><path class="cls-41" d="M90.11,136.64l.45-.56c.8-.51,1.63-1,2.41-1.48l.71.72c.3.47.95.66,1.06,1.29.14.84-.44,1.31-.94,1.82l-.77.07C91.47,138.82,90,139,90.11,136.64Z"/><path class="cls-42" d="M38.4,161.23l.77-.08a1.32,1.32,0,0,1,1.84,0l.53.38,0,.4a1.73,1.73,0,0,1-.75,1.75,3.11,3.11,0,0,0-1.68,1.51,1.53,1.53,0,0,1-.7.31C36.84,164.11,38.86,162.65,38.4,161.23Z"/><path class="cls-43" d="M108.37,169.23l-.05-.78a5.23,5.23,0,0,1-1.82-1.77l.71-1.29a.62.62,0,0,1,.91-.07l.79.14C108.55,166.69,110.5,168.25,108.37,169.23Z"/><path class="cls-44" d="M58.17,132.56c1.58-.39,1.59,1.25,2.39,1.86a.38.38,0,0,1-.47.37c-1.16-.13-2.58.14-2.63-1.7Z"/><path class="cls-45" d="M93,134.6c-.25,1.39-.51,2.77-2.41,1.48-.15-1.47.83-1.75,2-1.86A5.2,5.2,0,0,0,93,134.6Z"/><path class="cls-46" d="M66.67,132.32c-1.43.14-1.6-.92-1.82-1.93l.08-.29C66.52,130.05,68.06,130,66.67,132.32Z"/><path class="cls-47" d="M155.4,11.15l.79-.78,3,2.52-.69.72C156.44,14.12,155.41,13.28,155.4,11.15Z"/><path class="cls-48" d="M146.52,13.41l-.83.7a1.25,1.25,0,0,1-1.78.72l-.68-.7C144,12.25,145,11.79,146.52,13.41Z"/><path class="cls-49" d="M38.44,165.52l.21-1a2.34,2.34,0,0,1,2,.12,2,2,0,0,1,1.17,1.59,1,1,0,0,1-.25.74l-.33.25c-.68.45-1.37.8-2.16.26a1.06,1.06,0,0,1-.25-.72Z"/><path class="cls-50" d="M106.62,174.65l.95-1.21c-.07,1,.69,2.18-.49,3l-.69-.05A1.15,1.15,0,0,1,106.62,174.65Z"/><path d="M38.8,166.79a.69.69,0,0,0,.32.29,1.07,1.07,0,0,1,0,1.51l-.52.53C38,168.28,37.53,167.46,38.8,166.79Z"/><path class="cls-51" d="M94.25,136.64l-.57-1.32c.91.37,2.08.19,2.67,1.26l-.95.11A.75.75,0,0,1,94.25,136.64Z"/><path class="cls-52" d="M160,128.29c3.95.28,6.62-.49,8.85-2.53a2,2,0,0,1,2.22-.38c1.44.47,3.06,1,4.5.53,3.13-1.1,4.49.44,5.88,2.94a76.47,76.47,0,0,1,9.5,33.23c1.06,18.34,1.67,36.71,2.45,55.06a65.66,65.66,0,0,0,8.1,29.51c.48.87,2.18,2.07.57,3-1.79,1.1-2.33-.82-3.06-2-.11-.17-.2-.36-.3-.54-2.89-5-2.9-5.08-8.67-4.2-1.61.24-2.31,0-2.07-1.74a2.49,2.49,0,0,0,0-.61c-.14-2.11.87-4.74-.43-6.21s-3.85-.5-5.86-.62c-1.47-.09-2.07-.57-1.65-2.05a5.79,5.79,0,0,0,.12-.6c1-5.38,1.05-5.41-4.23-7-1.44-.45-2.48-.93-1.57-2.68a2.91,2.91,0,0,0,.13-.6c1.15-4.67,1.18-4.75-3.24-6.44-1.71-.65-2.3-1.46-1.45-3.13a3.88,3.88,0,0,0,.23-.56c1.58-4.87,1.62-5-2.91-7.05-1.85-.85-2.42-1.5-1.36-3.54,2.13-4.1,2.08-4.3-1.64-6.87-1.9-1.31-1.84-2.3-.37-3.7a3.59,3.59,0,0,0,.37-.48c2.76-3.62,2.8-3.67-.57-6.49-1.14-1-1.7-1.68-.35-2.84.45-.39.73-1,1.2-1.38,2.44-2,2.4-3.63-.44-5.12-2.13-1.11-2-2.47-.42-4,.37-.35.57-.86.94-1.21,2-1.87,2-3.52-.5-4.94-2.2-1.25-2.44-2.67-.36-4.32.55-.44.89-1.14,1.42-1.6,1.61-1.41,1.62-2.63-.28-3.74a1.5,1.5,0,0,1-.24-.2c-3-2.61-3.17-2.78-.32-5.43,2.32-2.17,2.58-3.79-.18-5.58-2.17-1.41-2.1-2.91-.18-4.52.38-.32.6-.84,1-1.17,1.83-1.57,1.6-2.86-.33-4.23A59.19,59.19,0,0,1,160,128.29Z"/><path class="cls-52" d="M150.57,128.31c-1.95,1.69-3.32,3.07-4.88,4.18s-1.59,2.15-.26,3.39a3.6,3.6,0,0,1,.39.47c2.89,3.56,3,3.65-.27,6.64-1.46,1.35-1.37,2.26,0,3.43a5.92,5.92,0,0,1,.41.45c3.06,3.53,3.11,3.59-.41,6.63-1.15,1-1.59,1.77-.35,2.92a5.81,5.81,0,0,1,.6.7c3,3.59,3,3.64-.29,6.76-1,1-1.28,1.7-.24,2.74a10,10,0,0,1,.93,1.21c2.56,3.39,2.62,3.47-.64,6.13-1.4,1.15-1.46,2-.17,3.09a7.91,7.91,0,0,1,.79.93c2.54,3,2.6,3.12-.51,5.52-1.51,1.16-2,2.11-.49,3.54a7.76,7.76,0,0,1,.74,1c2.58,3.48,2.7,3.66-.84,6-2.32,1.54-1.88,3-.72,4.77,1.73,2.62,1.21,4.36-1.87,5.19s-3.44,2.5-2.31,5.37c1.53,3.85,1.36,4.07-2.48,5.43-2.22.78-2.95,1.83-2,4,.32.73.34,1.59.6,2.36.57,1.61.07,2.28-1.62,2.78-5.23,1.55-5.33,1.67-4.17,7.07.44,2.07.06,2.55-2,2.59-6,.11-6.15.21-5.65,6.06.22,2.59-.44,3.79-3,2.94-4.07-1.32-6.27.48-7.64,4.08a18.29,18.29,0,0,1-1.34,2.4c-.65,1.14-1.59.78-2.38.33-1-.59-.08-1.28.2-1.74,6.78-11.42,8.56-24,9-37,.48-15.4,1-30.8,1.84-46.19.69-13,3.7-25.36,10.37-36.7,1.06-1.8,2.12-2.2,4.32-2.14,4.24.13,8.43-.49,12.19,2.33C147.14,128.57,148.68,128.19,150.57,128.31Z"/><path class="cls-52" d="M60.09,134.79l.47-.37,2.46-.31A6.25,6.25,0,0,1,66.69,133c1.53-1,3.28-.25,4.9-.6,0,2-.14,4.12,1.38,5.57-.39.94-1,.54-1.42.67-6,1.77-6,1.77-3.82,7.77.89,2.49,1.82,5,2.59,7.5.22.71,1.42,1.78,0,2.3-1.2.45-1.33-1-1.72-1.72-1.9-3.48-3.79-7-5.54-10.54-.74-1.5-1.33-1.93-2.9-.89a26.07,26.07,0,0,0-10.66,14.11c-.52,1.58-.18,2.06,1.47,2.34,4.21.73,8.39,1.67,12.57,2.59.57.13,1.64.05,1.38,1.14-.19.79-1,.53-1.56.5-4.18-.2-8.37-.34-12.54-.68-1.94-.15-2.51.5-2.38,2.38a26.59,26.59,0,0,0,6.68,16.06c1.1,1.26,1.8,1.24,2.84,0,2.68-3.22,5.42-6.37,8.19-9.51.46-.52.82-1.73,1.83-1s0,1.47-.39,2.06c-2.16,3.58-4.34,7.14-6.6,10.66-.78,1.21-1.06,1.92.54,2.76a26,26,0,0,0,18.09,2.39c1.61-.34,2-.89,1.38-2.49-1.44-4-2.67-8.12-4-12.2-.19-.62-.78-1.4.21-1.83s1.16.59,1.44,1.14c1.92,3.71,3.87,7.4,5.63,11.19.84,1.82,1.65,1.89,3.19.81a26.87,26.87,0,0,0,10.42-13.94c.7-2.08,0-2.66-1.89-3-4-.66-8-1.42-12-2.2-.61-.12-1.67,0-1.54-1.06s1.13-.67,1.76-.66c4.18.07,8.36.13,12.54.32,1.67.07,2.4-.24,2.19-2.15a26.68,26.68,0,0,0-7-15.91c-1.28-1.37-2-1.78-3.42-.06-2.49,3.1-5.22,6-7.92,8.93-.53.57-1,2-2.06,1.12s.31-1.62.72-2.29c2-3.28,4.12-6.56,6.36-9.71,1.23-1.74.9-2.58-1-3.31-1.69-.65-3.22-1.91-4.95-2.24-4-.76-4.47-1.43-3-5.25a1.91,1.91,0,0,1,2-1.43,22.31,22.31,0,0,0,3-.28c.78-.1,1.94-.16,1.79-1.14-.17-1.17-1.28-.54-2-.45-.4,0-.8.19-1.2.23-4.94.56-4.94.56-5.94,5.33-2.32-3-1.42-7.63,2-8.21,5.43-.9,8.45-4.4,11.3-8.48,3.28-4.7,7.27-8.8,11.17-13,1.39-1.48,2.33-1.52,3.64,0a47.82,47.82,0,0,0,4.34,4.32c1.67,1.45,1.79,2.37-.11,3.94q-8,6.65-16.57,12.58a6.73,6.73,0,0,0-3.3,4.87c-1.2,1.87-.57,3,1.48,3.33a2.64,2.64,0,0,1,1.73.95c.54,1.31,2.33.65,2.92,1.86.57,1.54,2.8,1.32,3.22,3,1.43.59,1.64,2.3,2.84,3.11.45.57,1.3.78,1.25,1.8s.49,1.24,1.3.58c.21,1.31.22,2.68,1.15,3.77a.56.56,0,0,0,.59.58c.75.74.25,1.76.61,2.59l.83,1.08a5.85,5.85,0,0,1,.62,3l.3,1c-.12.91.32,1.77.24,2.68a9.11,9.11,0,0,0-.1,4.94c.23.12.31.24.23.35s-.15.18-.23.18c-1.1.9.09,2.17-.5,3.15-1.42.73-.29,2.07-.73,3a.56.56,0,0,0-.61.58c-.78.89.29,2.23-.74,3.05a.71.71,0,0,0-.47.14q-.9,2.12-1.82,4.23L99.11,184c.21.08.29.17.23.28s-.12.17-.19.17c-1.47.24-1.77,1.91-3,2.47a2.42,2.42,0,0,1-.83,2.4c-.49,0-1-.05-1.25.56l-2.5,2.44c-9.69,5.48-19.74,6.87-30.29,2.66a35.57,35.57,0,0,1-6.9-3.78l-3.65-4.83a19.16,19.16,0,0,1-5.61-8c-1.47-1.1-1.47-3-2.3-4.4l-.54-.82c.23-.83-.3-1.55-.3-2.35-1-1.14,1.12-2.68-.47-3.74l.06-.17-.13-.12a6.87,6.87,0,0,1,0-5l0-.19c1.65-1.07-.57-2.89.79-4,1-.86-.14-2.16.65-3.06,1.45-1.09.54-3.33,2.12-4.35a3.45,3.45,0,0,1,1.36-2.66l2.4-3.47c-.68-1.83,2.28-1.24,1.91-2.87l0,.09c1.24.1,1.24-1.69,2.47-1.6a2.6,2.6,0,0,1,1.18-1.14Z"/><path class="cls-52" d="M177.71,235.45c2.36,0,4.49,0,6.61,0,1.57,0,2.28.64,2,2.24a1.48,1.48,0,0,0,0,.3c0,6.87,0,6.92,6.73,6.13a2.36,2.36,0,0,1,2.76,1.25c.67,1.26,1.5,2.44,2.1,3.73.91,1.95,1.94,3.07,4.44,2.3,2.9-.9,2.92,2,4.34,3.78a18,18,0,0,1-6.9-.61c-11.88-2.66-20.45-10-26.86-19.86-8.24-12.66-14.27-26.31-16.47-41.42a20.79,20.79,0,0,1-.26-3q0-30.63-.05-61.26c0-.37,0-.75.09-1.73,2.61,2.31,4.83,4.33,7.11,6.28.8.69.87,1.27.14,2a10,10,0,0,0-.78.94c-3,3.7-3,3.75.28,6.91,1.12,1.07,1.43,1.87.18,3a7.93,7.93,0,0,0-.82.91c-3.17,3.56-3.25,3.65.43,6.56,1.57,1.23,1.59,2.08.19,3.28-.46.39-.76,1-1.22,1.37-2.5,2-2,3.8.53,5.31,1.8,1.07,2.07,2.26.53,3.8-.57.57-.91,1.37-1.5,1.93-1.78,1.7-1.45,3.06.59,4.18,2.42,1.33,2.53,2.81.42,4.57-.46.39-.74,1-1.19,1.39-1.55,1.34-1.32,2.28.33,3.47,3.28,2.36,3.36,2.58.8,5.68-1.94,2.35-2.24,4,.73,5.59,2.25,1.18,2.77,2.65,1.39,5.12-2,3.57-1.9,4,1.77,5.36s3.56,3.28,2.14,5.95c-1.51,2.83-.81,4.42,2.37,5,2.72.5,3.16,2,2.33,4.6-1.31,4.14-1.18,4.41,3,5.3,2.84.61,3.74,1.71,2.79,4.48A42,42,0,0,0,177.71,235.45Z"/><path class="cls-52" d="M154.23,127.51c0,21.93.44,43.26-.18,64.56-.35,12.08-5.67,23-11.13,33.67-4.17,8.15-9.25,15.61-16.59,21.29a42.61,42.61,0,0,1-22.22,8.56c1.24-2.9,2.18-5.53,5.89-4.17,1,.36,1.52-.17,1.94-1a10.82,10.82,0,0,0,.73-1.33c1.54-4.33,4.22-6.36,9-4.7,2.36.84,2.85-.35,2.8-2.59-.14-6.22,0-6.29,6.36-6.61,1.79-.09,2.47-.57,1.8-2.34a5.19,5.19,0,0,1-.24-.88c-1.1-5.28-1.14-5.41,4-6.8,2-.55,2.42-1.46,1.83-3.22-.07-.19-.14-.39-.19-.58-1.13-4.49-1.16-4.57,3.15-6.19,1.74-.65,2.67-1.34,1.62-3.23a4.16,4.16,0,0,1-.24-.89c-1.44-4.64-1.51-4.79,3-6.75,2.3-1,2.36-2,1.34-4-2.06-4-2.05-4.2,1.73-6.76,1.94-1.31,2.22-2.35.53-3.93a4.89,4.89,0,0,1-.55-.72c-2.59-3.44-2.67-3.55.75-6.11,1.63-1.23,1.55-2.12.22-3.34-.38-.34-.63-.82-1-1.15-2.19-1.82-2.44-3.43.36-4.91,2.09-1.1,2-2.5.43-4.05-.36-.35-.55-.88-.92-1.22-2-1.91-1.84-3.57.51-5,2.11-1.3,2.45-2.7.37-4.38-.54-.44-.86-1.15-1.39-1.61-1.66-1.44-1.45-2.62.34-3.75.68-.43,1.22-1.09,1.89-1.55,1.06-.74,1.28-1.49.25-2.42a3.57,3.57,0,0,1-.4-.46c-1.18-1.38-3.15-2.68-3.29-4.16-.1-1.12,2.06-2.55,3.36-3.66s.55-1.6-.12-2.45c-3.6-4.57-3.59-4.58.85-8.32Z"/><path class="cls-52" d="M159.94,112.42a18.45,18.45,0,0,1,1.67-1.79c1.68-1.32,1.11-2.09-.45-3.09-3.09-2-3.17-2.23-.36-4.45,2.36-1.86,2.1-2.93-.26-4.5-3-2-3.09-2.33-.23-4.78,2.26-1.93,2-3.13-.25-4.75-1.44-1-3.9-2.13-3.58-3.79s3-.83,4.54-1.2a20,20,0,0,0,10.79-6.5,32.17,32.17,0,0,0,5.54-9.44c1.71-4.26,1.7-4.28,5-1.23a25.56,25.56,0,0,1,7.55,11.27c1,3.14,3.84,5,5.87,7.34s2,3.89-.54,5.78a62.56,62.56,0,0,0-6.54,6c-1.1,1.1-1.81,1-2.62-.24A20.59,20.59,0,0,0,184,94.37c-2.44-2.57-3.44-5.41-1.92-8.83a2.19,2.19,0,0,0,.24-.88c-.07-1,.91-2.7-.34-2.94s-1.13,1.6-1.28,2.56c-1,6-3.64,10.74-9.54,13.16-.62.25-1.58.38-1.33,1.32.2.75,1,.56,1.56.35,1.3-.51,1.3.32,1.36,1.2a19.74,19.74,0,0,1-2.4,10.88,2,2,0,0,1-1.9,1.24C165.85,112.4,163.23,112.42,159.94,112.42Z"/><path class="cls-52" d="M150.82,112.43c-1.72,0-2.44.07-3.13,0-2.36-.32-5.36,1-7-.86-2.12-2.43-2.91-5.82-2.91-9.14,0-1.38-1.26-4.2,2.32-3.2.17.05.54-.25.63-.47.22-.47-.18-.78-.52-1a35.54,35.54,0,0,1-3.79-1.94c-4.25-3-5.89-7.36-6.66-12.24-.12-.8.21-2.19-1.16-2-1.08.19-.46,1.34-.42,2.09a1.7,1.7,0,0,0,.14.59c2.77,5.4-.73,8.91-3.72,12.62-.88,1.09-1.47,1.4-2.61.28-2.61-2.58-5.31-5.07-8-7.5-1-.88-1.07-1.6-.22-2.53a63,63,0,0,0,10.19-15.34c1.29-2.64,3.72-4.54,6-6.41,1.46-1.18,2.13-1,2.69.79A31.66,31.66,0,0,0,138.34,77,20.11,20.11,0,0,0,152.5,84.5c.63.06,1.56-.37,1.82.61.21.81-.52,1.25-1,1.74-.29.29-.63.52-.93.8-1.31,1.26-3.62,2.08-3.8,3.73s2,2.56,3.23,3.74c1,1,.88,1.67-.22,2.37-.25.17-.47.38-.71.58-3.32,2.69-3.3,2.67-.3,5.67.78.79,2.67,1.65.4,2.83C148.21,108,147,109.6,150.82,112.43Z"/><path class="cls-52" d="M110.57,256.35c2.71-1,5.42-1.78,8-2.86,1.32-.56,2.12.17,3.09.63,13.18,6.16,27,9,41.53,7.53a72.43,72.43,0,0,0,24-6.76c2.57-1.23,4.8-1.67,7.43-.25a30.5,30.5,0,0,0,5.5,1.77C182,274.19,130.63,275.24,110.57,256.35Z"/><path class="cls-52" d="M148.61,217.91c1.64,2.11,3,4,4.5,5.74a1.35,1.35,0,0,1-.16,2.1,3.47,3.47,0,0,0-.41.45c-1.48,1.91-4.54,3.28-4.38,5.53s2.26,4.22,3.75,6.13,1.19,3-.34,4.67c-5.12,5.48-5,5.54-1.1,11.87,1.12,1.8,2.23,3.6,3.7,6-11.73-.18-22.18-3.11-32.72-8.17a51.77,51.77,0,0,0,16.32-14.82C142.09,231.47,145.33,224.93,148.61,217.91Z"/><path class="cls-52" d="M162,218.32c13.85,24.51,13.85,24.51,26.8,34.09a74.61,74.61,0,0,1-32.2,8c2.3-3.7,4.31-7.08,6.46-10.36.83-1.26,1.05-2.11-.1-3.39-1.88-2.08-5.22-3.84-5.1-6.46.1-2.36,2.62-4.68,4.22-6.91.89-1.24.76-2-.26-3.1C156.54,224.47,156.58,224.43,162,218.32Z"/><path class="cls-52" d="M213.13,251.39a48.38,48.38,0,0,1,.15-19.39q7-35.52,14.16-71c.27-1.31-.22-3.32,2.74-2.68,2.67.58,2.57,1.68,2.2,3.77-4,23.18-7.95,46.37-12,69.54C219.19,238.37,217.35,244.92,213.13,251.39Z"/><path class="cls-52" d="M131.43,118.22a8.9,8.9,0,0,0,7.12-2.35,6.41,6.41,0,0,1,5.16-1.89c8.06.15,16.13.17,24.19.2a4.64,4.64,0,0,1,3.6,1.23,9.37,9.37,0,0,0,8.41,2.7c2.23-.36,1.85.65,1.38,2-1.33,3.7-5.36,5.33-9.69,3.66a3,3,0,0,0-3.71.61c-3.42,3.09-6.59,3.3-10.59.74a3.25,3.25,0,0,0-4,0c-4,2.46-7.16,2.21-10.57-1-1.34-1.26-2.24-1-3.68-.43-3.68,1.56-7.51.46-9.19-2.45-.51-.88-1.14-1.93-.61-2.86S130.73,118.37,131.43,118.22Z"/><path class="cls-52" d="M159.28,38c1.57.73,2.89,2.81,4.86.17.7-.93,2.36-.2,2.18,1.6-.56,5.68-2,11-6,15.32a6.67,6.67,0,0,1-10,0,23.54,23.54,0,0,1-5.83-15.36c-.06-2.32,2-2.17,2.5-1.49,2.34,3.14,3.35.1,5.28-.86a8.44,8.44,0,0,0-5.51-.82c-.54.07-1.37.46-1.52-.39s.71-1.15,1.41-1.17c1.7-.07,3.4,0,5.48,0-1.77-1.94-3.85-1-6-1.55,1.89-2.44,2.5-5.7,6.29-5.95,7.85-.53,9.31.21,12.1,6.29-.94,0-1.83.06-2.71.15-4.21.44-6.06,2.56-5.41,6.75.43,2.74.8,5-3,5,0,.08,0,.17,0,.21a1.1,1.1,0,0,0,.26.15,4.18,4.18,0,0,0,3.2,0c2-.93,1-2.59.89-4-.08-1.77-.85-3.55.36-5.22C159.16,36.49,158.65,37.86,159.28,38Z"/><path class="cls-52" d="M240.08,136.63c-.38-.83-.74-1.67-1.14-2.49s-.49-2.51-2.13-.81c-.92,1-1.8-.19-2.59-.76-.44-.32-.88-1.09-1.45-.28-.44.61,0,1.21.47,1.58a10.6,10.6,0,0,0,2.33,1.38,4.2,4.2,0,0,1,2.88,2.27c-4.24-.52-8.19-.72-11.62-3.09a2.58,2.58,0,0,1-1.09-1.39c-.68-3.52-3.41-5.08-6.13-6.73a98.38,98.38,0,0,1-16.13-11.52c-1.16-1.07-1.46-1.73-.25-3.12,6.44-7.4,6.44-7.48,12.91-.23a100.3,100.3,0,0,1,7.88,9.73c3.1,4.49,7,7.31,12.55,7.52,2.71.09,4.06,1.51,4.15,4.2C240.71,134.17,241.81,135.64,240.08,136.63Z"/><path class="cls-52" d="M163,55.47c0,1.92,0,3.85,0,5.78,0,.53.22,1.07.79,1.1.26,0,.73-.43.79-.74.55-2.72,2.44-1.11,3.61-1,1.89.21.85,1.79.68,2.67-1.38,7.43-6.65,11.8-13.83,11.61s-12.49-5.18-13.46-12.58c-.13-1-.27-2,1-2s2.64-1.13,3.45.7c.19.45.23,1,1.11,1.16,1.07-2.19,0-4.66.73-7.32,2,2.39,4.17,4,7.28,4A10.89,10.89,0,0,0,163,55.47Z"/><path class="cls-53" d="M143.91,14.83l1.78-.72c1.95,1.18,3.9,2.35.6,5.21a21.63,21.63,0,0,1,6.42-.52c-.48-1.34-2.55-1.79-1.93-3.41.83-2.13,2.9-3,4.62-4.24a8.55,8.55,0,0,0,3.13,2.46,3.79,3.79,0,0,1,.61,3.51c-.29.72,0,.93.67.71,1.56-1.36,1.41,1.9,2.95.84-.26-1.15-1.48-2.69.38-3.72.74-.41,1.52-1.31,2.48-.52a3.16,3.16,0,0,1,.79,4.6c1.86-.1,2.3-1.8,3.77-2.1-.16,1.93-1.14,3.51-1.63,5.23-.41,1.4-1.25.92-2.15.69a45.26,45.26,0,0,0-22.39,0c-1.47.38-2.24.31-2.65-1.31s-1.07-3-1.68-4.72c2.06.4,2.58,3.07,5.52,2.74C142.88,18.14,142.71,16.56,143.91,14.83Z"/><path class="cls-1" d="M73.79,188a27.12,27.12,0,0,1-9.88-2.21c-1.38-.59-1.65-1.16-.8-2.46,2.07-3.13,4-6.37,6-9.51,1.19-1.79,5.33-1.57,6.06.39,1.42,3.8,2.55,7.7,3.87,11.54.44,1.27-.07,1.66-1.21,1.77C76.37,187.69,74.86,187.89,73.79,188Z"/><path class="cls-1" d="M89.77,162.94a43.7,43.7,0,0,0-4.58,0c-2.22.24-3.11-.91-4-2.75-1-2,.33-2.82,1.26-3.9,2.06-2.39,4.26-4.66,6.3-7.07,1.07-1.26,1.82-1.6,3-.11a26,26,0,0,1,5.46,12.43c.22,1.36-.26,1.87-1.63,1.76-1.92-.16-3.86-.22-5.79-.32Z"/><path class="cls-1" d="M83.22,167.89c3.79.7,7.68,1.44,11.58,2.12,1.33.24,1.66.87,1.2,2.11a25.57,25.57,0,0,1-8.47,11.32c-1.11.87-1.7.64-2.29-.57-1.67-3.47-3.46-6.89-5.12-10.38A3.42,3.42,0,0,1,83.22,167.89Z"/><path class="cls-1" d="M64.16,160.54l-11.67-2.48c-1.08-.22-1.3-.86-1-1.79a24.54,24.54,0,0,1,8.38-11c1.17-.89,1.76-.4,2.32.7,1.73,3.34,3.54,6.64,5.22,10C68.42,157.87,66.54,160.62,64.16,160.54Z"/><path class="cls-1" d="M54,164.9c3.18.2,6.13.36,9.07.59,2.51.19,3.87,2.78,2.34,4.7-2.46,3.1-5.14,6-7.67,9.09-.93,1.12-1.55.91-2.36-.11A23.41,23.41,0,0,1,50.26,167C49.81,163,53,165.69,54,164.9Z"/><path class="cls-53" d="M135.75,62.27c.44,1.53.82,3.1,1.32,4.63,2.86,8.68,9.27,13.33,18.29,13.32,9.18,0,15.3-4.47,18.22-13.33.31-1,.56-2,.82-2.94.19-.75.11-1.78,1.41-1.38a1.43,1.43,0,0,1,1.09,2.08c-2.7,7.83-6.27,15.27-15.09,17.41-10.75,2.62-18.73.16-24.47-9.3a44.54,44.54,0,0,1-3.3-7.19C133.33,63.77,133.59,62.66,135.75,62.27Z"/><path class="cls-54" d="M75,155.75c-1.38,0-2.4-.15-2.9-1.69-1.17-3.68-2.54-7.31-3.81-11-.19-.54-.65-1.13.09-1.61a1.12,1.12,0,0,1,1.42,0c3.68,3.24,8,1.62,12.09,1.56.69,0,1.41-.45,2,.23s-.16,1.31-.51,1.85q-3,4.62-6,9.21C76.78,155.15,76.27,156.12,75,155.75Z"/><path class="cls-53" d="M73.6,157.38a6.92,6.92,0,0,1,7.13,6.85,7,7,0,1,1-14,.23A7,7,0,0,1,73.6,157.38Z"/><path class="cls-55" d="M155.27,78.52c-9.23,0-15.7-5.44-17.43-14.69-.18-.94-1-2.42.87-2.67,1.6-.22,1.24,1.29,1.44,2.14,2.29,10,9.47,14.84,19,12.74,6-1.32,9.31-5.4,10.91-11.11q.38-1.32.63-2.67c.15-.74.23-1.41,1.29-1.22s1.21.78,1,1.75C171.4,71.85,165.22,79.25,155.27,78.52Z"/><path class="cls-56" d="M155.19,22.8A37,37,0,0,1,166.06,24c1.06.23,1.93.56,1.58,2s-1,1.57-2.42,1.23a43.27,43.27,0,0,0-20.27,0c-.92.22-1.93.95-2.33-.78-.38-1.57.17-2.21,1.66-2.49C147.88,23.33,151.46,22.51,155.19,22.8Z"/><path class="cls-55" d="M122.36,100.21c-1.1.89-2.24,1.89-3.47,2.77s-1.51-.52-2-1c-1.83-1.76-3.37-3.84-5.34-5.39-2.21-1.75-1.58-3.29-.4-5.14.57-.9,1.15-1.1,1.93-.38q4.24,3.92,8.45,7.87A9.5,9.5,0,0,1,122.36,100.21Z"/><path class="cls-55" d="M201,94.2c-.15.4-.17.74-.35.93-2.52,2.64-4.83,5.56-7.68,7.76-1.47,1.13-2.37-1.47-3.6-2.26-1-.63-.6-1.24.13-1.9,2.33-2.1,4.57-4.3,6.94-6.36.75-.65,1.41-2.28,2.56-1.45C200,91.62,200.36,93.1,201,94.2Z"/><path class="cls-55" d="M156.24,222.77V202.26c1.71,4.78,3.21,8.92,4.68,13.08.51,1.45-.7,2.23-1.37,3.18C158.67,219.76,157.69,220.93,156.24,222.77Z"/><path class="cls-57" d="M168.59,31c7.21,5,7.27,23.57,2.9,29,.54-5.53,1.56-10.34,1.14-15.23A39.09,39.09,0,0,0,168.59,31Z"/><path class="cls-55" d="M156.26,256.77V241.83c2.06,2.25,3.64,4,5.28,5.75.77.82.26,1.47-.17,2.14q-2.28,3.6-4.58,7.19Z"/><path class="cls-55" d="M154.19,202.7v19.49c-1.61-2-2.84-3.55-4.08-5.08a2,2,0,0,1-.34-2.21C151.22,211.14,152.53,207.32,154.19,202.7Z"/><path class="cls-58" d="M234.34,157.3a18.6,18.6,0,0,1-10.43-3.45c-.63-.45-1.5-.82-.68-1.87a1.45,1.45,0,0,1,2.28-.41c3.62,2.42,7.5,3.53,11.84,2.26a1.53,1.53,0,0,1,2.17,1.42c.22,1.45-1,1.37-1.74,1.55C236.49,157.09,235.17,157.19,234.34,157.3Z"/><path class="cls-59" d="M145.31,31.35a31.06,31.06,0,0,0-3.79,13.35,78.67,78.67,0,0,0,.38,14c-1.81-1.4-1.69-3.47-1.94-5.31-1-7.09-.44-14,3.11-20.4.49-.9.72-2.3,2.34-1.67Z"/><path class="cls-60" d="M140.88,33.27c-3.65,8.43-3.5,17.15-1.46,26.58-4.82-4.73-4-20.27.78-27.32C140.79,32.45,141.19,32.53,140.88,33.27Z"/><path class="cls-56" d="M114.93,103a36.19,36.19,0,0,1-3.48,9.12c-.39.63-.79.47-1.22.12-.24-.2-.43-.44-.65-.65-3.3-3.17-3.29-3.17,0-6.3,1.11-1,2.2-2.12,3.31-3.18.37-.35.77-.71,1.31-.32A1.38,1.38,0,0,1,114.93,103Z"/><path class="cls-61" d="M196,104.16c-.13-1.28-.12-1.91.49-2.27.89-.54,1.26.32,1.73.77,1.47,1.4,2.83,2.92,4.37,4.24,1.17,1,1.32,1.85.16,2.91s-1.73,2.87-3,2.66-1.61-2.15-2.1-3.47C197,107.21,196.37,105.37,196,104.16Z"/><path class="cls-53" d="M153.85,242.4c.81.92.49,1.76.5,2.52a69.21,69.21,0,0,1-.6,11.6c-1.52-2.45-3-4.92-4.58-7.34a1.34,1.34,0,0,1,.16-1.89C150.83,245.68,152.32,244.06,153.85,242.4Z"/><path class="cls-56" d="M105.27,106.86c-1.19-1-2.63-1.86-3.33-3.09s1-1.46,1.73-1.93c1.76-1.16,3.65-2.12,5.51-3.14a1.86,1.86,0,0,1,2.66.45c.86,1.1-.09,1.66-.69,2.26-1.49,1.5-3,3-4.57,4.41C106.22,106.16,105.82,106.43,105.27,106.86Z"/><path class="cls-62" d="M167.12,32.53c5.07,8.42,4.46,17.27,2,26.27.56-8.66.69-17.27-2.69-25.5C166.12,32.56,166.54,32.47,167.12,32.53Z"/><path class="cls-55" d="M200.59,98.58a25.34,25.34,0,0,1,7.84,4.53c1,.81-.34,1.46-.87,1.79-1,.61-1.49,2.77-3.07,1.48-2-1.65-3.76-3.65-5.63-5.51-.38-.37-.66-.83-.3-1.32A2,2,0,0,1,200.59,98.58Z"/><path class="cls-58" d="M214,99.63c-2.13,2.6-4.08,3-6.48.82-1.17-1.07-2.8-1.61-4.15-2.48-.62-.4-2-.32-1.68-1.36s1.41-1.33,2.5-1.16a24.74,24.74,0,0,1,7.34,2.74C212.37,98.6,213.13,99.1,214,99.63Z"/><path class="cls-63" d="M106.67,95.45c1.22-.19,2,.09,2.24,1,.18.75-.68.8-1.18,1.1-2.17,1.3-4.32,2.64-6.5,3.93-.55.33-1,1.12-1.84.48s-2.28-1-2.37-2.15c-.08-.9,1.24-1.16,2-1.57A20.25,20.25,0,0,1,106.67,95.45Z"/><path class="cls-55" d="M156.21,238.79V227.68C161.49,230.36,161.55,231.83,156.21,238.79Z"/><path class="cls-64" d="M167.48,46c.59,4.42-.2,7.93-.46,11.47a1.15,1.15,0,0,1-1.42,1.2c-.77-.1-.86-.71-.91-1.36A17.33,17.33,0,0,1,167.48,46Z"/><path class="cls-55" d="M154.34,238.47c-5.39-8-5.9-5.79,0-11.29v11.29Z"/><path class="cls-56" d="M143.14,45.25c2,4.2,3.25,7.68,2.76,11.54-.09.71,0,1.46-1,1.54s-1.13-.63-1.24-1.35A53.6,53.6,0,0,1,143.14,45.25Z"/><path class="cls-64" d="M113.9,116.63c-1.55-1.19-2.16-2.22-1-3.88,1.73-2.47,2.3-5.5,3.78-8.15A22.34,22.34,0,0,1,113.9,116.63Z"/><path class="cls-65" d="M196.81,116.71a28,28,0,0,1-3.23-12.1C196.57,108.1,198.41,114.71,196.81,116.71Z"/><path class="cls-66" d="M156.16,104.78V97.94C161.37,100.52,161.38,100.68,156.16,104.78Z"/><path class="cls-65" d="M156,106.08c1.89,1.53,4.21,1.69,4.05,3.54-.1,1.08-2.14,3.23-3.15,2.6C155.13,111.16,156.54,108.77,156,106.08Z"/><path class="cls-57" d="M154.22,104.49c-4.92-3.61-4.92-3.79,0-6.47Z"/><path class="cls-67" d="M156.28,95.16V88.6c1.61.65,3.39,1.56,3.46,2.75C159.82,93,157.8,93.75,156.28,95.16Z"/><path class="cls-68" d="M154.35,106.39a19.28,19.28,0,0,1,.15,3c-.13,1,.68,2.63-.61,2.89-1.47.3-2.25-1.4-3.17-2.41-.59-.66.09-1.06.55-1.39C152.15,107.83,153.05,107.26,154.35,106.39Z"/><path class="cls-69" d="M154.31,88.35v6.39C149.79,91.74,149.79,91.74,154.31,88.35Z"/><path class="cls-70" d="M231,150c-1.81,0-1.2-1.07-.87-1.59,1-1.61,2.87-1.84,4.46-1.95,1.25-.09.73,1.36.25,1.68A29.83,29.83,0,0,1,231,150Z"/><path class="cls-60" d="M231.76,145.49c-.92.24-1.11-.25-1-.77.42-2.46,2.76-1.87,4.27-2.58.49-.23,1.08,0,.91.71C235.36,145.13,233.1,144.76,231.76,145.49Z"/><path class="cls-71" d="M231.6,141.66c.19-3.61.77-3.85,4.68-2.35C235.14,140.87,233.28,140.69,231.6,141.66Z"/><path class="cls-72" d="M159.28,38c-.72,0-.78-.78-1.21-1.12,2-2.56,4.7-1.42,7.2-1.2-.32,1.48-1.38.58-2.14.66C161.77,36.7,159.94,36,159.28,38Z"/><path class="cls-73" d="M230.7,151.82c1.42-.61,2.37-1.46,3.59-.86.42.21.27.83,0,1C233.18,153,232.14,152.35,230.7,151.82Z"/><path class="cls-74" d="M71,131.25c-.72.44-1.47.91-2-.13a1.34,1.34,0,0,1,0-1.11c.56-1,1.34-.55,2.06-.17Z"/><path class="cls-75" d="M89.37,133c.11.84.12,1.77-1,1.76s-1.16-.9-1-1.77A1.46,1.46,0,0,1,89.37,133Z"/><path class="cls-76" d="M240.08,136.63c1.06-1.1.25-2.53.64-3.74,1.07,2,.5,3.9-.33,5.85A2.75,2.75,0,0,1,240.08,136.63Z"/><path class="cls-77" d="M75.43,141c-.1.59-.12,1.29-1,1.16-.57-.08-.77-.61-.78-1.12s.2-1.28.91-1.33S75.39,140.42,75.43,141Z"/><path class="cls-78" d="M159.81,17.83c-.49.87-1.6,1.61-2.1.88-.85-1.24,1.07-.9,1.43-1.59Z"/><path class="cls-79" d="M167.12,32.53l-.7.77c-.4-.71-1.61-1.47-.39-2.18C166.65,30.76,166.89,31.92,167.12,32.53Z"/><path class="cls-74" d="M72.47,140.76c0,.45,0,.85-.58.85s-.83-.28-.75-.73.36-.82.64-.88S72.38,140.36,72.47,140.76Z"/><path class="cls-80" d="M145.41,31.29c-.47.16-.77,0-.8-.49a1.31,1.31,0,0,1,1.1-1.49c.72.87-.25,1.38-.4,2Z"/><path class="cls-81" d="M140.88,33.27l-.68-.74c.32-.65.62-1.76,1.47-1.13C142.18,31.78,141.39,32.72,140.88,33.27Z"/><path class="cls-82" d="M163.13,36.33c.72-.18,1.55,0,2.14-.66.47.16.61.64.29.84A2.57,2.57,0,0,1,163.13,36.33Z"/><path class="cls-83" d="M156.82,46.05a2.36,2.36,0,0,1-3.2,0Z"/><path class="cls-84" d="M80,140.68c.76.24,1.2.5,1.24,1.07,0,.12-.39.41-.59.4a.9.9,0,0,1-1-.93C79.66,140.93,79.79,140.61,80,140.68Z"/><path class="cls-54" d="M78.2,205.71a6.86,6.86,0,0,1-3.12,2.51l-2.79.06-3.11-2.53c-.82-.59-1.94-.8-2.43-1.83-1.39-2.26-3.72-3.56-5.5-5.41-.25-1.15-1.88-.76-2.35-2.65a37,37,0,0,0,26.59,1.31c.55-.24.87,0,1.1.49a1.3,1.3,0,0,1-.83,1.5c-.55.92-2,.7-2.37,1.82-.34,1.38-2,1.29-2.63,2.4S79,204.83,78.2,205.71Z"/><path class="cls-55" d="M82,226c-.69,0-.9,0-1.09-.07-1.77-.34-3.93-1.87-5.18-.86s.35,3.14.63,4.79c.09.59.39,1.39-.46,1.47a17.91,17.91,0,0,1-3.94-.08c-.64-.07-.39-.77-.38-1.26,0-1.75,2.14-4,.29-5-1.27-.71-3.64.58-5.59,1a11.3,11.3,0,0,1,0-5.14c2.16.14,4.08,1.3,6.59,1.14-.41-1.58-.84-3-1.11-4.47-.11-.6-.82-1.53.14-1.87a6.46,6.46,0,0,1,4.21,0c.92.33.21,1.22.06,1.85-1.11,4.8-1.09,4.88,3.65,3.67,1.72-.43,2.42-.22,2.21,1.68A29.84,29.84,0,0,0,82,226Z"/><path class="cls-52" d="M74.11,213.54c-.76-1.89-.76-1.89-.3-4.17C75,210.86,74.4,212.21,74.11,213.54Z"/><path class="cls-85" d="M69.62,210.18c0-1.17.47-1.88,1.76-1.76C71.93,210.14,71.92,211.29,69.62,210.18Z"/><path class="cls-86" d="M76.1,208.42c1.26-.08,1.75.6,1.75,1.76-.58.33-1.16.8-1.79.11S75.83,209,76.1,208.42Z"/><path class="cls-87" d="M54.61,195.39c-.67-.12-1.17-.48-1.1-1.19a1.08,1.08,0,0,1,2.16,0A1,1,0,0,1,54.61,195.39Z"/><path class="cls-44" d="M56.28,198c-.58-.9-.71-1.71.56-2.05a.88.88,0,0,1,1.12.72c.15,1.34-.79,1.36-1.75,1.27Z"/><path class="cls-88" d="M92.41,192.92c1.3.07,1.43,1,1.37,2-.65.21-1.37.54-1.87-.19S91.8,193.39,92.41,192.92Z"/><path class="cls-89" d="M91.19,197.89c-1,.16-1.82,0-2-1.21a1.14,1.14,0,0,1,1.68-.62C91.72,196.5,91.29,197.25,91.19,197.89Z"/><path class="cls-89" d="M52.61,192.48c-.74-.06-1.44-.2-1.34-1.19a.82.82,0,0,1,.78-.77c1-.1,1.2.5,1.26,1.28Z"/><path class="cls-73" d="M60.48,198.56c.37,1.52-.24,2.06-1.73,1.74C58.41,198.8,59,198.27,60.48,198.56Z"/><path class="cls-90" d="M86.28,197.89l-.79-.72,2.64-1.12a1.23,1.23,0,0,1-.57,1.42C87.24,197.91,86.9,198.34,86.28,197.89Z"/><path class="cls-91" d="M50.08,186.92c.52.51,1,1.09.45,1.8s-1.46.14-2.19-.05C48.13,187.31,49.15,187.16,50.08,186.92Z"/><path class="cls-92" d="M42.94,180.07c-.55-.59-1-1.24-.58-2.06.11-.19.74-.24,1-.14.82.28.93.91.58,1.65Z"/><path class="cls-93" d="M44.68,183.11a.84.84,0,0,1-.6-1c0-.63.51-.75,1-.74a.75.75,0,0,1,.81.94C45.86,182.9,45.53,183.23,44.68,183.11Z"/><path class="cls-65" d="M48.24,185.32a.87.87,0,0,1-.82.88c-.78.12-1.06-.37-1.08-1a.81.81,0,0,1,.93-.87A.93.93,0,0,1,48.24,185.32Z"/><path class="cls-94" d="M62.4,201c.6.14,1.1.51,1.07,1.17a1,1,0,0,1-1.23.94,1.23,1.23,0,0,1-.92-1.36C61.34,201,61.85,201,62.4,201Z"/><path class="cls-88" d="M66.19,204.66a2.06,2.06,0,0,1-1.94,1.19c.07-.82-.5-1.87.65-2.3C65.84,203.2,66.05,203.94,66.19,204.66Z"/><path class="cls-70" d="M98.69,188.71a1.37,1.37,0,0,1-2.08,0c-.36-.69-.58-1.35.37-1.77C98.36,186.76,98.72,187.54,98.69,188.71Z"/><path class="cls-95" d="M101,181.35c1,0,2.46-1,2.46,1.16C101.73,183.93,101.25,182.82,101,181.35Z"/><path class="cls-96" d="M99.15,184.43a1.15,1.15,0,0,1,0-.45c.64.46,1.94.11,1.86,1.48a.72.72,0,0,1-.78.75C99,186.16,99.13,185.24,99.15,184.43Z"/><path class="cls-97" d="M97,187c-.13.59-.25,1.18-.37,1.77l-1.26.54c.28-.8-.15-1.84.83-2.4Z"/><path class="cls-65" d="M42.76,174.74a1.21,1.21,0,0,1-1,1.58,1.26,1.26,0,0,1-1.36-1.58A1.76,1.76,0,0,1,42.76,174.74Z"/><path class="cls-98" d="M41.71,172.21c-.86.68-1.87.93-1.94-.46-.07-1.63,1.4-.89,2.27-1A1.83,1.83,0,0,1,41.71,172.21Z"/><path class="cls-99" d="M39.1,168.59c0-.5,0-1,0-1.51a2.22,2.22,0,0,1,2.09.17C41,168.48,40.75,169.64,39.1,168.59Z"/><path class="cls-100" d="M41.71,172.21l.33-1.47h0c1.31.63.82,1.49.29,2.35Z"/><path class="cls-101" d="M102.79,150.78c.6-.9-.08-3.55,2.46-1.8C105.46,151,103.74,150.35,102.79,150.78Z"/><path class="cls-102" d="M105.44,158.06c-1.35-.77-.69-2-.62-3l1.17.65a1.35,1.35,0,0,1-.11,1.85Z"/><path class="cls-103" d="M104.59,152.56c.51-.56,1.1-.89,1.73-.27a.82.82,0,0,1,0,1.29,1.16,1.16,0,0,1-1.75-.36A.45.45,0,0,1,104.59,152.56Z"/><path class="cls-104" d="M105.88,157.54c0-.62.07-1.24.11-1.85l1.12-.09C108.35,157.29,107.56,157.7,105.88,157.54Z"/><path class="cls-102" d="M104.59,152.56l0,.66L104,154c-.87-.71-.13-1.79-.61-2.59Z"/><path class="cls-88" d="M50.73,141.22l0-.09c-1.08.53-2.05.42-2.35-.84-.16-.62.63-1.06,1.22-1.06C51.07,139.24,50.76,140.34,50.73,141.22Z"/><path class="cls-88" d="M51.4,136.73c1.32-.19,2.41-.09,2.23,1.68-.76.5-1.51.74-2.18-.14Z"/><path class="cls-105" d="M48.12,143.93c-1.63.43-2-.32-1.64-1.76C47.76,142.07,48.57,142.41,48.12,143.93Z"/><path class="cls-8" d="M51.45,138.27a2,2,0,0,0,2.18.14l.75.07a1.22,1.22,0,0,1-1.18,1.14Z"/><path class="cls-88" d="M105.88,167.22a1.57,1.57,0,0,1,0-.53h.62c1,.15,2,.35,1.82,1.77C106.61,169.81,106.44,168.14,105.88,167.22Z"/><path class="cls-98" d="M108.12,165.32l-.91.07c-.43-.62-1.18-1.23-.3-2a1.1,1.1,0,0,1,1-.18C108.74,163.81,108.47,164.58,108.12,165.32Z"/><path class="cls-93" d="M106.32,159.87c.72-.86,1.4-.64,2.06.06,0,1.37-.8,1.53-1.88,1.27A1.09,1.09,0,0,1,106.32,159.87Z"/><path class="cls-106" d="M106.32,159.87l.18,1.33-.52.55c-1.07-.8-1-1.71-.24-2.68C105.94,159.33,106.13,159.6,106.32,159.87Z"/><path class="cls-107" d="M56.78,135.6c-.29.58-.63,1.06-1.35,1s-1-.31-.85-.95.49-1.39,1.37-1.2A1.15,1.15,0,0,1,56.78,135.6Z"/><path class="cls-108" d="M42,154.31a1.68,1.68,0,0,1-1.41-1.65c.58-.58,1.23-1.1,1.94-.3S42.46,153.73,42,154.31Z"/><path class="cls-109" d="M42.84,148.31l1.34.59c0,.93,0,2-1.32,1.52S42.23,149,42.84,148.31Z"/><path class="cls-110" d="M39.64,156.26a1.2,1.2,0,0,1,1.51-.52c.83.35.55,1.09.41,1.74C40.52,157.71,39.65,157.66,39.64,156.26Z"/><path class="cls-96" d="M41,161.17l-1.84,0c-.16-.83-.2-1.74.91-1.74S41.07,160.38,41,161.17Z"/><path class="cls-95" d="M98.64,139.72c0,1.47-.67,1.82-2,1.3C96.6,139.47,96.88,138.48,98.64,139.72Z"/><path class="cls-65" d="M94.25,136.64l1.15.05c.9,1.89.08,2.22-1.6,1.74A1.67,1.67,0,0,1,94.25,136.64Z"/><path class="cls-73" d="M45.83,147.06c-1.79.23-2.38-.3-1.2-1.92C46,145.18,46.1,146,45.83,147.06Z"/><path class="cls-89" d="M94.88,190.49c.86,0,1.39.37,1.37,1.3-.45.66-1.1.93-1.7.35S94.14,190.91,94.88,190.49Z"/><path class="cls-111" d="M103.53,177.74c1.3-.13,1.92.41,1.73,1.75-.66.3-1.32.67-1.93-.07S103.32,178.28,103.53,177.74Z"/><path class="cls-112" d="M85.58,203.13c-1.16.14-1.64-.49-1.74-1.54.62-.54,1.23-1.06,2-.24S86,202.59,85.58,203.13Z"/><path class="cls-73" d="M88.12,198.41a1.6,1.6,0,0,1,.8,1.34c-.73.95-1.46,1-2.18,0C86.49,198.55,86.89,198.05,88.12,198.41Z"/><path class="cls-113" d="M88.12,198.41a1.33,1.33,0,0,0-1.38,1.33l-1-.58c.17-.43.35-.85.52-1.27l1.28-.42C87.75,197.78,87.94,198.09,88.12,198.41Z"/><path class="cls-89" d="M101,142.18c.26,1.06.17,1.91-1.22,1.95C98.47,142.42,99.24,142,101,142.18Z"/><path class="cls-109" d="M102.84,145.1c1.26,1.72.38,2.1-1.26,2C101,145.83,101.41,145.14,102.84,145.1Z"/><path class="cls-88" d="M80.8,204.07c1.38-.78,2.55-1.08,2.58,1.16C81.89,206.23,81,206,80.8,204.07Z"/><path class="cls-87" d="M80.12,208.19c-1.7.12-1.83-1-1.75-2.26C80,205.86,81.31,206.06,80.12,208.19Z"/><path class="cls-114" d="M106.62,174.65c-.08.59-.16,1.17-.23,1.76-2,.25-1.86-1-1.71-2.33A2.29,2.29,0,0,1,106.62,174.65Z"/><path class="cls-115" d="M103.3,177c.56-.94-.16-2.19.74-3.05C104.05,175.06,104.45,176.23,103.3,177Z"/><path class="cls-116" d="M63,133.49c-1.48-.07-1.75-1.08-1.77-2.28C62.89,131.14,64.59,131,63,133.49Z"/><path class="cls-117" d="M107.7,172.11c-2.08,1.32-2,0-1.84-1.48C106.91,170.58,107.82,170.7,107.7,172.11Z"/><path class="cls-94" d="M67.35,208.17c-.34-.61-.93-1.32-.39-1.92.71-.8,1.46-.09,2.13.33C69.13,207.78,68.54,208.31,67.35,208.17Z"/><path class="cls-118" d="M40.26,165.35c-.74.14-1.13-.42-1.61-.8.1-1,.49-1.68,1.66-1.51C41.63,163.84,41.73,164.61,40.26,165.35Z"/><path class="cls-119" d="M40.26,165.35a1.4,1.4,0,0,0,.05-2.31l1.18-1.3a8.5,8.5,0,0,1,0,5Z"/><path class="cls-120" d="M159.68,49.7c-3.11,1.8-5.6,1.93-8.69-.06A16.74,16.74,0,0,1,159.68,49.7Z"/><path class="cls-121" d="M73.73,160.92c2.12.23,3.38,1.45,3.29,3.6a3.07,3.07,0,0,1-3.38,3.18,3.12,3.12,0,0,1-3.31-3.55C70.41,162.07,71.7,161.1,73.73,160.92Z"/><path class="cls-122" d="M75.28,164.37A1.59,1.59,0,0,1,73.59,166c-1.12,0-1.57-.81-1.51-1.85a1.52,1.52,0,0,1,1.52-1.57C74.64,162.58,75.28,163.17,75.28,164.37Z"/></svg>