<svg id="Layer_1" data-name="Layer 1" xmlns="http://www.w3.org/2000/svg" viewBox="0 0 300 300"><defs><style>.cls-1{fill:#dbd1cd;}.cls-2{fill:#d6182a;}.cls-3{fill:#dad0cc;}.cls-4{fill:#d7ceca;}.cls-5{fill:#d9d0cc;}.cls-6{fill:#d9cfcb;}.cls-7{fill:#d7cdc9;}</style></defs><path d="M22.34-.61H277.66a1,1,0,0,1,1,1V176.59A123.39,123.39,0,0,1,155.26,300H145A123.62,123.62,0,0,1,21.35,176.37V.38a1,1,0,0,1,1-1Z"/><path class="cls-1" d="M150.28,84.58q61.58,0,123.16,0c2.42,0,2.91.67,2.91,3-.08,28-.22,56.06,0,84.09.42,58.87-40.91,109.4-97.93,121.64-46.76,10-87.62-2.33-121.13-36.63C38.67,237.55,28,214.3,24.66,187.8a130.28,130.28,0,0,1-1-16.51q0-42,0-84.09c0-2.18.56-2.67,2.7-2.67Q88.32,84.64,150.28,84.58Z"/><path class="cls-2" d="M150,82.34q-61.57,0-123.16.06c-2.64,0-3.24-.67-3.23-3.26q.16-36.73,0-73.48c0-2.38.41-3.17,3-3.17q123.3.12,246.59,0c2.51,0,3.11.61,3.09,3.1q-.15,36.87,0,73.74c0,2.59-.76,3-3.17,3Q211.61,82.27,150,82.34Z"/><path d="M198.72,151.46c-.47.43-.85.76-1.21,1.11q-13.55,13.55-27.1,27.05c-1,1-.78,1.57.12,2.45q13.5,13.38,26.92,26.86c1,1,1.58,1,2.61,0,4.82-4.94,9.76-9.75,14.58-14.7,1.16-1.19,1.8-1.24,3,0q8.12,8.34,16.46,16.47c1.14,1.11,1.17,1.68,0,2.8-5,4.81-9.75,9.76-14.69,14.58-1.1,1.08-1.23,1.65,0,2.81,4.89,4.75,9.62,9.65,14.49,14.42,1.18,1.16,1.5,1.82.1,3.17q-8.26,8-16.28,16.28c-1.31,1.36-2,1.16-3.19-.07-4.69-4.83-9.54-9.49-14.2-14.34-1.31-1.36-2-1.19-3.17,0-4.75,4.89-9.66,9.62-14.41,14.49-1.11,1.13-1.69,1.18-2.81,0q-8.14-8.32-16.47-16.46c-1.19-1.17-1.27-1.81,0-3,4.89-4.74,9.62-9.65,14.5-14.41,1.19-1.16,1.25-1.8,0-3q-13.33-13.19-26.52-26.53c-1.09-1.11-1.65-1.23-2.81-.05Q135.44,214.77,122.09,228c-1.38,1.36-1.09,2,.12,3.2,4.76,4.63,9.37,9.42,14.13,14,1.32,1.28,1.57,2,.09,3.41-5.47,5.26-10.82,10.65-16.11,16.08-1.22,1.26-1.88,1.42-3.18.07-4.74-4.9-9.66-9.61-14.4-14.5-1.23-1.27-1.86-1.1-3,.06-4.75,4.88-9.65,9.62-14.39,14.51-1.21,1.25-1.85,1.15-3,0q-8.14-8.32-16.47-16.46c-1.17-1.15-1.09-1.72,0-2.81,4.87-4.76,9.61-9.66,14.49-14.41,1.27-1.23,1.4-1.9.06-3.19-4.91-4.73-9.65-9.63-14.52-14.39-1.07-1.05-1.29-1.63-.07-2.81q8.34-8.11,16.46-16.47c1.34-1.38,2-1.11,3.19.12,4.69,4.82,9.52,9.51,14.22,14.32,1.1,1.12,1.71,1.4,3,.11q13.19-13.35,26.55-26.5c1.21-1.19,1.21-1.82,0-3q-13.35-13.18-26.52-26.54c-1.3-1.32-1.92-1-3,.12-4.76,4.87-9.63,9.64-14.4,14.5-1,1-1.55,1.43-2.78.16Q74.28,159,65.74,150.69c-1.15-1.12-.83-1.65.13-2.6,4.69-4.58,9.23-9.31,14-13.81,1.73-1.64,2-2.55.1-4.34-4.8-4.46-9.31-9.23-14-13.82-1-1-1.47-1.5-.17-2.76q8.45-8.19,16.64-16.65c1.29-1.34,1.92-1,3,.14,4.58,4.69,9.34,9.21,13.8,14,1.72,1.85,2.61,1.48,4.13-.1,4.53-4.73,9.26-9.28,13.82-14,1.14-1.18,1.77-1.3,3,0q8.12,8.36,16.44,16.48c1.24,1.21,1.16,1.83,0,3-4.89,4.75-9.63,9.64-14.52,14.39-1.21,1.17-1.26,1.78,0,3q13.26,13.08,26.35,26.34c1.23,1.25,1.88,1.4,3.2.06q13-13.18,26.15-26.17c1.32-1.3,1.55-2,.07-3.4-4.86-4.64-9.51-9.51-14.36-14.17-1.35-1.3-1.18-2,.06-3.17q8.16-7.94,16.09-16.11c1.3-1.35,2-1.53,3.37-.06,4.7,4.93,9.62,9.65,14.37,14.53,1.09,1.13,1.67,1.19,2.81,0,4.79-5,9.73-9.77,14.54-14.72,1.08-1.12,1.67-1.23,2.82,0q8.22,8.43,16.64,16.65c1.2,1.17,1,1.73-.06,2.77-4.94,4.82-9.75,9.76-14.7,14.57-1.16,1.12-1.15,1.7,0,2.82,5,4.81,9.75,9.76,14.71,14.56,1.13,1.11,1.17,1.68,0,2.8q-8.42,8.24-16.65,16.65c-1.17,1.2-1.73,1-2.78-.08-4.75-4.88-9.6-9.67-14.41-14.49C199.8,152.45,199.3,152,198.72,151.46Z"/><path d="M33,42.18c6.81-5.12,14.38-7.82,22.35-9.58a83.91,83.91,0,0,1,18.24-1.71q63.63,0,127.27,0c3.36,0,3.2.13,2.61-3a77.07,77.07,0,0,0-3.27-12.74c-.53-1.42-.16-2.11,1.1-2.57a23,23,0,0,1,15.93-.08c1.6.55,1.72,1.46,1.16,3A77.27,77.27,0,0,0,215,28.7c-.28,1.54-.16,2.17,1.62,2.16,7.39-.05,14.79,0,22.19,0,2.66,0,5.34-.14,8,0,1.94.09,2.77-.38,2.66-2.54-.16-3.32,0-3.33,3.24-3,8.4.86,14.65,8.75,14.27,18-.34,8.5-7.54,15.78-15.73,16-1.3,0-1.82-.28-1.87-1.69-.13-3.71-.2-3.86-3.71-3.89-9.7-.08-19.39,0-29.09,0-1.46,0-1.9.29-1.62,1.9a82,82,0,0,0,3.46,13.76c.51,1.4.19,2.08-1.1,2.57a22.07,22.07,0,0,1-16.15,0c-1.35-.51-1.5-1.26-1-2.59a93.8,93.8,0,0,0,3.39-13.24c.45-2.2-.29-2.41-2.14-2.4-9.83.07-19.66,0-29.49,0q-48.24,0-96.49,0c-11.57,0-22.87-1.37-33.54-6.16A33.9,33.9,0,0,1,33,42.18Z"/><path class="cls-2" d="M83.91,196.06c.59.54,1.11,1,1.59,1.47,4.76,4.75,9.55,9.47,14.24,14.29,1.17,1.2,1.82,1.27,3,0q14.67-14.79,29.5-29.42c1.3-1.28,1.27-2,0-3.26q-14.81-14.66-29.46-29.46c-1.19-1.2-1.86-1.23-3,0-4.68,4.84-9.54,9.5-14.18,14.36-1.4,1.47-2.1,1.28-3.4-.06q-6.36-6.62-13-13c-1.35-1.29-1.21-2,.06-3.21,4.77-4.61,9.39-9.4,14.16-14,1.35-1.3,1.53-2,.07-3.44-4.86-4.65-9.52-9.51-14.35-14.19-1.21-1.17-1.24-1.81,0-3q6.7-6.48,13.16-13.18c1.31-1.36,2-1.18,3.26.07,4.62,4.78,9.4,9.4,14,14.19,1.31,1.36,2,1.5,3.41,0,4.65-4.86,9.52-9.51,14.19-14.36,1.33-1.39,2.07-1.12,3.25.11q6.41,6.58,13,13c1.27,1.23,1.36,1.95,0,3.23-4.84,4.67-9.52,9.51-14.35,14.19-1.26,1.23-1.38,1.91,0,3.22q14.82,14.64,29.47,29.45c1.15,1.17,1.79,1.3,3,.05q14.66-14.81,29.47-29.45c1.27-1.26,1.35-1.95,0-3.23-4.9-4.74-9.65-9.63-14.53-14.39-1.1-1.07-1.24-1.68-.05-2.84q6.79-6.57,13.36-13.36c1.17-1.21,1.87-1.24,3.06,0,4.75,4.89,9.63,9.65,14.38,14.53,1.15,1.18,1.81,1.31,3,0,4.73-4.91,9.63-9.65,14.37-14.54,1.19-1.24,1.89-1.2,3.07,0,4.31,4.46,8.68,8.88,13.16,13.17,1.41,1.35,1.09,2-.12,3.2-4.82,4.69-9.51,9.52-14.34,14.2-1.2,1.17-1.27,1.85,0,3,4.84,4.68,9.52,9.51,14.34,14.2,1.21,1.17,1.56,1.87.14,3.22-4.54,4.36-9,8.83-13.36,13.35-1.16,1.2-1.76,1-2.83-.07-4.75-4.88-9.63-9.64-14.39-14.51-1.12-1.15-1.79-1.36-3.05-.08q-14.73,14.91-29.64,29.64c-1.29,1.28-1,2,.12,3.07q14.79,14.66,29.48,29.44c1.37,1.39,2,1.06,3.22-.15,4.69-4.82,9.53-9.5,14.22-14.32,1.19-1.23,1.87-1.21,3,0,4.32,4.46,8.69,8.88,13.18,13.17,1.41,1.35,1.07,2.05-.12,3.22-4.82,4.7-9.5,9.53-14.32,14.22-1.2,1.17-1.25,1.86,0,3.05,4.88,4.75,9.61,9.66,14.49,14.41,1.23,1.19,1.2,1.86,0,3q-6.6,6.38-13,13c-1.31,1.36-2,1.51-3.43.06-4.6-4.8-9.43-9.36-14-14.16-1.39-1.46-2.1-1.32-3.41,0-4.63,4.77-9.42,9.37-14.06,14.12-1.19,1.23-1.88,1.5-3.22.11-4.3-4.48-8.71-8.86-13.17-13.17-1.25-1.21-1.17-1.91,0-3.08,4.88-4.76,9.63-9.65,14.49-14.42,1.09-1.07,1.26-1.67.07-2.85q-15-14.83-29.81-29.83c-1-1-1.61-1.11-2.67,0q-14.94,15.06-30,30c-1.16,1.15-.76,1.72.18,2.64,4.78,4.73,9.48,9.55,14.3,14.25,1.29,1.26,1.63,2,.12,3.46-4.49,4.28-8.86,8.7-13.18,13.16-1.14,1.18-1.76,1.08-2.85,0-4.77-4.87-9.69-9.59-14.43-14.48-1.31-1.36-2-1.18-3.22.08-4.68,4.82-9.52,9.5-14.21,14.32-1.17,1.2-1.85,1.28-3.05,0Q75.78,254.9,69,248.33c-1.24-1.2-1-1.81.1-2.85,4.74-4.65,9.35-9.44,14.13-14,1.5-1.44,1.7-2.27.07-3.82-4.81-4.58-9.4-9.39-14.16-14-1.2-1.16-1.25-1.83,0-3,4.47-4.31,8.81-8.75,13.21-13.13C82.81,197,83.35,196.55,83.91,196.06Z"/><path class="cls-1" d="M36.76,42.16c8-5,16.73-7.38,25.86-8.54a94.33,94.33,0,0,1,11.88-.57q63.39,0,126.79-.06c2.52,0,3.14.68,3.22,3.09.18,5.07.33,5.07-4.64,5.07q-65,0-129.89,0a20.81,20.81,0,0,0-6.74,1,14.77,14.77,0,0,0,6.23,1.23q66.12,0,132.23,0c3.19,0,3.19,0,2.91,3.23-.42,4.82-.42,4.82-5.18,4.82q-62.49,0-125,0c-11,0-21.64-1.41-31.74-6-1.64-.74-3.21-1.64-4.8-2.5A8.81,8.81,0,0,1,36.76,42.16Z"/><path class="cls-1" d="M209.92,71.22c-7.36,0-7.68-.38-6-6.62a84.6,84.6,0,0,0-1-48.15c-.56-1.8-.15-2.38,1.62-2.68a26.33,26.33,0,0,1,10,.11c1.43.3,1.68.81,1.24,2.26a84.64,84.64,0,0,0-3.67,34.45A81.48,81.48,0,0,0,215.7,68c.62,1.81.05,2.49-1.6,2.71S210.85,71.11,209.92,71.22Z"/><path class="cls-1" d="M251.67,42.09c0-4.3.05-8.61,0-12.91,0-1.57.41-1.85,1.94-1.49a15,15,0,0,1,.33,29c-1.58.39-2.35.26-2.28-1.72C251.77,50.71,251.67,46.4,251.67,42.09Z"/><path class="cls-3" d="M219.9,41.93c0-2.4.12-4.82,0-7.22-.14-2,1.13-1.59,2.29-1.7,1.41-.14,1.93.27,1.9,1.8-.09,5-.1,10,0,15,0,1.65-.71,1.77-2,1.76s-2.31,0-2.19-1.86C220,47.1,219.9,44.51,219.9,41.93Z"/><path class="cls-4" d="M230.27,42.25c0,2.59-.08,5.17,0,7.75.07,1.63-.89,1.56-2,1.51s-2.13.3-2.12-1.41c0-5.25,0-10.5,0-15.74,0-2,1.47-1.17,2.4-1.33,1.12-.18,1.74.12,1.68,1.48C230.2,37.09,230.27,39.67,230.27,42.25Z"/><path class="cls-5" d="M239,41.9c0-2.32.12-4.65,0-7-.12-1.68.53-2,2-1.94,1.34,0,2.23,0,2.17,1.85-.14,5-.11,10,0,15,0,1.71-.84,1.74-2.07,1.71s-2.22.2-2.13-1.62C239.1,47.24,239,44.57,239,41.9Z"/><path class="cls-6" d="M249.39,42.24c0,2.58-.09,5.16,0,7.73.07,1.59-.82,1.6-1.93,1.54s-2.26.33-2.23-1.54q.13-7.72,0-15.45c0-1.93,1.21-1.44,2.23-1.49s2-.24,1.94,1.49C249.27,37.08,249.39,39.66,249.39,42.24Z"/><path class="cls-7" d="M217.7,42.17c0,2.58-.06,5.16,0,7.73,0,1.27-.46,1.66-1.66,1.63s-1.76-.15-1.87-1.49a99.27,99.27,0,0,1,0-15.71c.11-1.46,1-1.27,2-1.32s1.58.24,1.55,1.42C217.65,37,217.7,39.59,217.7,42.17Z"/><path class="cls-1" d="M236.63,42.43c0,2.42-.09,4.83,0,7.24.07,1.55-.56,1.9-2,1.86-1.26,0-2.09-.08-2.06-1.75q.15-7.5,0-15c0-1.59.62-1.78,2-1.81,1.49,0,2.19.25,2.08,2C236.51,37.43,236.63,39.94,236.63,42.43Z"/></svg>