<svg id="Layer_1" data-name="Layer 1" xmlns="http://www.w3.org/2000/svg" viewBox="0 0 300 300"><defs><style>.cls-1{fill:#c8c8c8;}.cls-2{fill:#007560;}.cls-3{fill:#cf2927;}.cls-4{fill:#007460;}.cls-5{fill:#00745f;}.cls-6{fill:#c7c7c7;}.cls-7{fill:#ce2927;}.cls-8{fill:#cd2826;}.cls-9{fill:#c6c6c6;}.cls-10{fill:#cc2826;}.cls-11{fill:#cb2826;}.cls-12{fill:#c5c5c5;}.cls-13{fill:#c3c3c3;}.cls-14{fill:#ca2826;}.cls-15{fill:#c92826;}.cls-16{fill:#c2c2c2;}.cls-17{fill:silver;}.cls-18{fill:#c82726;}.cls-19{fill:#c82725;}.cls-20{fill:#c4c4c4;}.cls-21{fill:#bfbfbf;}.cls-22{fill:#bb2523;}.cls-23{fill:#bdbdbd;}.cls-24{fill:#c02624;}.cls-25{fill:#c22624;}.cls-26{fill:#b92423;}.cls-27{fill:#000d0b;}.cls-28{fill:#b3b3b3;}.cls-29{fill:#bcbcbc;}.cls-30{fill:#bc2523;}.cls-31{fill:#b8b8b8;}.cls-32{fill:#000a08;}.cls-33{fill:#ba2523;}.cls-34{fill:#c72725;}.cls-35{fill:#b7b7b7;}.cls-36{fill:#b9b9b9;}.cls-37{fill:#707070;}.cls-38{fill:#1b0505;}.cls-39{fill:#a6a6a6;}.cls-40{fill:#2e2e2e;}.cls-41{fill:#979797;}.cls-42{fill:#090404;}.cls-43{fill:#001915;}.cls-44{fill:#003a30;}.cls-45{fill:#a4a4a4;}.cls-46{fill:#b1b1b1;}.cls-47{fill:#b52422;}.cls-48{fill:#000705;}.cls-49{fill:#020706;}.cls-50{fill:#929292;}.cls-51{fill:#666;}.cls-52{fill:#a0a0a0;}.cls-53{fill:#000f0d;}.cls-54{fill:#140404;}.cls-55{fill:#00120f;}.cls-56{fill:#851a19;}.cls-57{fill:#001813;}.cls-58{fill:#001410;}.cls-59{fill:#a2a2a2;}.cls-60{fill:#acacac;}.cls-61{fill:#c1c1c1;}.cls-62{fill:#030706;}.cls-63{fill:#0a0505;}.cls-64{fill:#737373;}.cls-65{fill:#b2b2b2;}.cls-66{fill:#001511;}.cls-67{fill:#005b4b;}.cls-68{fill:#9c9c9c;}.cls-69{fill:#838383;}.cls-70{fill:#5d1212;}.cls-71{fill:#001b16;}.cls-72{fill:#390b0a;}.cls-73{fill:#170404;}.cls-74{fill:#000101;}.cls-75{fill:#444;}.cls-76{fill:#545454;}.cls-77{fill:#002a22;}.cls-78{fill:#003d32;}.cls-79{fill:#761716;}.cls-80{fill:#585858;}.cls-81{fill:#be2524;}.cls-82{fill:#00130f;}.cls-83{fill:#767676;}.cls-84{fill:#006553;}.cls-85{fill:#911d1b;}.cls-86{fill:#000b09;}.cls-87{fill:#000806;}.cls-88{fill:#000908;}.cls-89{fill:#000605;}.cls-90{fill:#000c0a;}.cls-91{fill:#000f0c;}.cls-92{fill:#000504;}.cls-93{fill:#00100d;}.cls-94{fill:#001713;}.cls-95{fill:#002d25;}.cls-96{fill:#001512;}.cls-97{fill:#001d17;}.cls-98{fill:#001814;}.cls-99{fill:#002922;}.cls-100{fill:#004136;}.cls-101{fill:#004236;}.cls-102{fill:#00352c;}.cls-103{fill:#003027;}.cls-104{fill:#001c17;}.cls-105{fill:#003128;}.cls-106{fill:#002a23;}.cls-107{fill:#004337;}.cls-108{fill:#0f0303;}.cls-109{fill:#250707;}.cls-110{fill:#2b0808;}.cls-111{fill:#210606;}.cls-112{fill:#240707;}.cls-113{fill:#100303;}.cls-114{fill:#290808;}.cls-115{fill:#090202;}.cls-116{fill:#130403;}.cls-117{fill:#000d0a;}.cls-118{fill:#000907;}.cls-119{fill:#00392f;}.cls-120{fill:#002720;}.cls-121{fill:#001411;}.cls-122{fill:#070101;}.cls-123{fill:#160404;}.cls-124{fill:#110303;}.cls-125{fill:#00372d;}.cls-126{fill:#000c09;}.cls-127{fill:#000e0b;}.cls-128{fill:#001914;}.cls-129{fill:#001d18;}.cls-130{fill:#004d3f;}.cls-131{fill:#001310;}.cls-132{fill:#00110e;}.cls-133{fill:#00483b;}.cls-134{fill:#002f27;}.cls-135{fill:#001e19;}.cls-136{fill:#00342b;}.cls-137{fill:#000202;}.cls-138{fill:#000201;}.cls-139{fill:#00201a;}.cls-140{fill:#000706;}.cls-141{fill:#002b24;}.cls-142{fill:#003229;}</style></defs><path d="M24,.43H276a1,1,0,0,1,1,1V176.67A123.39,123.39,0,0,1,153.6,300.06h-7A123.62,123.62,0,0,1,23,176.44V1.42a1,1,0,0,1,1-1Z"/><path class="cls-1" d="M180,89.54c-.59.07-1.19.1-1.78.2-4.82.83-4.85.83-5.16-4.22-.13-2.21-.16-4.42-1.73-6.5a13.66,13.66,0,0,0,11.15-7.94,5.34,5.34,0,0,1,3.16-2.39c2.27-.91,2.6-2.24.73-3.65S183.9,61.9,183.2,60c-1.73-4.74-3.94-9.08-9.56-10.64,3.65-2.94,4.71-6.83,5.36-10.89.36-2.29.57-4.59,3.08-5.73a1.41,1.41,0,0,0,.8-1.7A1.87,1.87,0,0,0,181,29.55c-2.28,0-4-1.25-5.66-2.57-5.87-4.58-12-6.11-19-1.32-.32-5.09-3.2-8.31-6.77-11.1a6.66,6.66,0,0,1-1.86-3.25c-.69-1.88-2.42-2.36-3.49-.81C142,13.85,137.69,14,135,16.55c-.6.57-.89,0-1.16-.41-2.14-3-5.29-3.81-8.7-3.91-3.14-.1-6.11-.42-8.06-3.36a2,2,0,0,0-2.28-.74,1.78,1.78,0,0,0-1.29,2c.15,2.66-1.54,4.3-3.28,6.35C108,11,103.47,9.77,98.39,9.52a8.82,8.82,0,0,1-6-2.31,2.24,2.24,0,0,0-2.57-.58c-1.08.44-1.12,1.41-1,2.37.32,2.1-.61,3.78-1.76,5.41-1.91,2.71-3.8,5.43-3.75,9.22a14.85,14.85,0,0,0-9.79-1.4c-2.55.38-5.07.28-7.31-1.34a2.18,2.18,0,0,0-2.83,0,2.24,2.24,0,0,0-.7,2.53A7.37,7.37,0,0,1,61.81,29c-.36.67-.94,1.4-.91,2.08.16,3.77-2,4.48-5.18,4.42a13.82,13.82,0,0,0-5.58,1.61,9.52,9.52,0,0,1-5.43.94,2.14,2.14,0,0,0-2.48.82c-.58,1-.08,1.83.47,2.58a5.77,5.77,0,0,1,.81,5.05c-1.16,5-.82,9.79,3,13.84a13.59,13.59,0,0,0-4.83,3,11.53,11.53,0,0,1-5.31,2.83c-2,.4-2.56,2-1,3.25,1.9,1.61,2.58,3.68,3.24,5.89.76,2.52,1.63,5,4,6.87C40.12,83.85,38,85.56,35,85.47a1.92,1.92,0,0,0-2,1.21,2,2,0,0,0,.64,2.3c1.85,1.56,2.27,3.6,2.47,5.89.37,4.13,1.17,8.55,5,10.61,3.06,1.64,3.66,3.37,3.72,6.55.06,3.77,2.23,7,4.47,10.08,1.24,1.69,2.51,3.28,2.57,5.64A1.86,1.86,0,0,0,55,129.23c2.14-1.72,4.68-1.27,6.9-2,3.28-1.14,5.78-.44,8.47,1.33,1.22.81,2.86,1,4.29,1.5,1.26.45,2.6.76,3.17,2.27a1.51,1.51,0,0,0,1.91.87c.8-.2,1.48-.68,1.48-1.53,0-2,1.36-3,2.63-4.11,2.81-2.54,6-4.83,6.84-9.18,2,2.82,2.58,5.92,3.11,9,.87,4.92,1.43,9.9,2.13,14.86a3.6,3.6,0,0,1-1.35,3.72c-2.77,2.3-2.84,5.62-2.49,8.91.16,1.49.51,3,.77,4.39-2.6.87-4.89.25-7.36-.65-5.23-1.92-10.32-1.73-14.57,2.7-2.1-8.11-7.26-11.11-15.33-9.1-1.31.33-2.62.71-3.91,1.12a12.51,12.51,0,0,1-7,.59c-2.37-.58-3.67.9-2.57,3,1.4,2.63,1,5,0,7.53a17.58,17.58,0,0,0-.92,6.77c.13,6.43,4.71,11.78,12,11.3-3.85,5-2.72,10.32-1.47,15.62a8.12,8.12,0,0,1,0,4.95c-.76,2.06.67,3.51,2.72,2.73a7.69,7.69,0,0,1,5.19.13,20.37,20.37,0,0,0,10.31.46c5.86-1.32,9.3-6.7,7.7-11.95-.9-3-2.93-4.54-6.11-5,2-1.79,3.78-1.16,5.44.1a27.91,27.91,0,0,1,9.45,13.28c2.54,7.18,3.64,14.48,1.22,21.93-.77,2.38.17,4.22,1.66,5.79,4.58,4.86,1.24,13.75-3.42,16.38a5,5,0,0,1-3.64.76A2.79,2.79,0,0,1,80.22,245a3.34,3.34,0,0,1,1.77-3.4c.52-.35,1.79,0,1.45-1.21a2.28,2.28,0,0,0-2.15-1.52,5.61,5.61,0,0,0-5.56,3.65c-.36.85-.55,1.77-.85,2.73-1.16-.24-2.34-.85-3.3.67-.54.86-.86-.31-1.18-.6-3.25-2.87-6.5-3-9.92-.15,1.13,1,3.21,1.24,3,3.71-2-1.83-4.13-3.63-6.43-2.69-2,.84-4,.28-5.88.81a2.26,2.26,0,0,1-2.73-1.16,123.63,123.63,0,0,1-21.76-54.74,145.35,145.35,0,0,1-1.18-20.32q0-82.14-.06-164.29c0-2.55.58-3.2,3.17-3.2q121.38.12,242.75,0c2.43,0,3.26.39,3.26,3.1q-.15,82.92,0,165.83c0,25.47-6.67,48.87-20.65,70.17-.74,1.13-1.56,2.22-2.32,3.34a.83.83,0,0,1-1.29.26c-.64-.4-.44-.85,0-1.19,2.16-1.58,1.76-3.5,1-5.68-1.25-3.58-.67-7.4-1.13-11.1-.05-.36,0-.78.44-.72,1.28.18,2.62-.77,3.88.08-.19,1-1.25.92-1.78,1.65a3.58,3.58,0,0,0,4.1.42,3.72,3.72,0,0,0,2-3.83,4.06,4.06,0,0,1,0-1.48c1.32-4.94,0-7.23-5-9,1.72-4.47,1.14-6.26-2.84-8.12-.22,1.31-.07,3-2.12,2.9s-2.48-1.49-3-2.93a24.72,24.72,0,0,0-1.06-2.84c-1.55-2.89-3.81-3.65-6.82-2.39s-5.85,3.4-8.72,5.21c-1.86,1.18-3.85,2.12-5.82,3.11-1.54.76-2.1.18-2.51-1.21a33.19,33.19,0,0,1-1-6.79c-.33-4-.54-7.94-.8-12a29.75,29.75,0,0,0,6.67,3c12.15,3,26.1-6.75,27.64-19.26,1.06-8.69-.73-16.86-4.37-24.71-.28-.61-.5-1.24-.75-1.86s0-.6.45-.49a9.26,9.26,0,0,0,7.7,2.51c4.06-.5,5.7-2.73,5-6.91-.23.08-.52.09-.65.24-.95,1-1.94,2-3.49,1.41a3.94,3.94,0,0,1-2.32-3.42c-.35-2.34-.64-4.7-.92-7.06a24.66,24.66,0,0,0-3.76-11c1.11-.54,1.56.52,2.26.83,2.87,1.3,6.27.43,7.29-2,.35-.82.65-1.46-.81-1.68-2.64-.39-3.33-1.74-2.43-4.32.83-2.36,2.47-4.23,4-6.16,3-3.75,4.91-7.87,4.59-12.84-.58-8.92-7.63-14.34-16.36-12.52-10.91,2.29-18.18,10.6-19.38,22a44.33,44.33,0,0,0,.23,11.68,2.26,2.26,0,0,1-1.08,2.49c-8.72,6.85-10.18,20.22-3.24,29,3.14,3.94,7.23,6.92,10.66,10.57,2.82,3,5.2,6.22,6,10.43,1.94,10.59-7.09,19.09-17,15.95a9.89,9.89,0,0,1-4.7-2.92c-5.51-6.55-11.24-13-14.94-20.8a28.34,28.34,0,0,1-2.25-6.3c3.61.1,6.78-.64,8-4.5a4.65,4.65,0,0,0-2.24-5.68c-.75.87-.63,2.18-1.69,2.82-1.69,1-3.88-.05-4.44-2.35-1-4.11.52-7.66,2.71-11,.68-1,1.07-.17,1.59.13,2.16,1.24,4.16,1.26,6-1-1.12-.83-2.67-1.32-2.75-2.94s1-3,2-4.26c.57-.74,1.26-1.39,1.82-2.13.82-1.1,1.42-2.18,3.2-1.26a2.32,2.32,0,0,0,3-1.17c.35-.61.66-1.17-.33-1.6-2.13-.92-1.86-2.74-.76-4,2.33-2.6,3.35-6,5.84-8.53,1.85-1.86,1.69-4.57,1.49-7-.29-3.63-.83-7.24-1.22-10.87-.11-1-.32-2,.56-2.85a1.81,1.81,0,0,1,1.52-1.59c1.76-2.89,1.56-3.65-1-5.1-2.19-1.23-3.68-3.47-6.26-4.21-.91-.26.08-1,.24-1.41.84-2.36.05-4.78-1.88-5.31-.81-.22-2.06-.68-1.54,1.14.45,1.59-.62,2.14-1.87,2.41a4.88,4.88,0,0,1-2,.06c-5.86-1.36-11.77-.28-17.66-.42-1.58,0-2.86.27-3.56,1.8a1.84,1.84,0,0,1-1.57,1c-1.65.33-3.27.8-4.9,1.25-1.42.39-3.43.06-4,1.7-.83,2.39-2.17,4.78-1.37,7.5A2.71,2.71,0,0,0,182,88.68C181.82,90,180.57,89,180,89.54Z"/><path class="cls-2" d="M101.16,107.88a12.78,12.78,0,0,1-1-1.47.92.92,0,0,1,.34-1.12c.46-.37.75.07,1,.36a23.17,23.17,0,0,1,3.19,4.82c.25.22.55.4.62.75,0,0,.09-.14.09-.14l-.1-.14c-.1-.36,0-.72-.1-1a11.33,11.33,0,0,0-5.51-7.46c-.35,3.34-1.85,5.37-4.85,6.15a8,8,0,0,1-8.12-2.34c-3-3-3.84-6.9-4-10.95-.1-2.29,0-4.59-1-6.72-.61-1.2,0-1.54,1.11-1.45a12.76,12.76,0,0,0,6.79-1.75,15.35,15.35,0,0,1,9.13-1.53c5.56.81,8.39,3.86,8.88,9.44.29,3.3-.89,4.73-5.8,6.77,2.6,2.16,3.94,5.06,5.38,7.9,1.13.14.66-.54.54-1-.13-1.07-.21-2.16-.42-3.22-.59-3,.26-5.74,1.45-8.43.14-.36.32-.38.53-.06.45,2.24,2.61,3.76,2.47,6.27a29.37,29.37,0,0,0,.36,6.58c1.54-2.6,2.53-5.38,4.91-7.18-.21-.31-.29-.53-.39-.54-3.39-.53-5.66-2.24-6.07-5.82s.47-6.74,3.42-9.06c3.16-2.5,6.87-3.24,10.77-3.1a13.62,13.62,0,0,0,6.72-1c1.37-.69,2-.08,1.94,1.21-.15,3,1,5.62,2.36,8.2a13.37,13.37,0,0,1,1.47,6.9,7.5,7.5,0,0,1-2.2,5c-.47.48-1,1.12-1.72.87s-.52-1-.58-1.59a21.21,21.21,0,0,0-.23-2.54c-.48-2.11-1.06-4-3.85-4.36-1.26-.18-3.12-1.12-2.55-3.31A5.64,5.64,0,0,1,127,90c.21-.24.33.12.15-.17a2,2,0,0,0-.32.39,3.59,3.59,0,0,1-1.22,1.45c-.7,1.23-1.91.83-3,.92-3.42.31-5.23,2.92-4.16,6.05.27.8.48,1.84,1.62.68.42-.43,1-.91,1.56-.58.73.42,0,1,0,1.56a5.44,5.44,0,0,1-2.19,4.35,2.5,2.5,0,0,0-.94,2.82c.77-.87,1.52-1.75,2.3-2.6.29-.32.69-.59,1.11-.27s.25.85-.09,1.29c-.56.72-1.09,1.48-1.72,2.35,1.61.26,1.8-1.65,3.07-1.63.62.37.33.86.12,1.3-1.72,3.66-1.73,7.54-1.51,11.46.13,2.28.1,4.56.14,6.85,0,.48-.17.87-.67.89-2,.11-3.55,1.75-5.73,1.79a4.43,4.43,0,0,0-4.31,4.5c0,2.35.45,2.72,2.6,1.92.65-.25,1.33-.31,1.23.57-.17,1.44,1.23,2.92-.85,4.43-1.36,1-2.25,2.95-3.58,4.35s-.59,4.22,1.31,5.17c.37.19.91.54,1.13.14,1.49-2.64,2.09-.49,2.87.5,1.19,1.53,2.7,1.52,4.37,1.07.54-.14,1.55-.8,1.48.4,0,.73.81,2.14-.7,2.29-2.66.28-1.81,1.9-1.07,3a6.91,6.91,0,0,1,.86,4.38q-1,25.57-2,51.14c-.4,10-.92,20-1.33,30-.06,1.39-.45,3.51,1.14,3.79,1.87.34,4.12,1,5.94-.35,1.51-1.14,2.4-1.67,3.13.79s2,2.53,3.85.91c.7-.61,1.38-1,2.25-.33,1.52,1.09,3.14.7,4.87.58,4.41-.32,8.94-1.93,13.22-.48a15.52,15.52,0,0,0,11-.08,5.84,5.84,0,0,1,3.51.22c3.72,1.05,3.73,1,5.1-2,.84.11.86.95,1.28,1.44s.73.95,1.48,1c1.39-2.94,2.29-6.41,6.84-7.22-1.88,2.6-2.84,4.94-1.41,7.78,1.34-.78,1.69-2.55,3.13-3.1.17.14.39.22.41.34.52,3.45.51,3.45,3.53,1.23,1.78-1.31,4.31-1.92,4.17-5,2.24,2.2,2.23,2.89,0,6.1a28.38,28.38,0,0,1,3.83,1.79,3.89,3.89,0,0,0,4.15.31c2.67-1.84,3.09-.1,4.06,1.78,1.57,3.06,5,4.23,8.81,3.41a6.35,6.35,0,0,0,5.41-5.92,3.57,3.57,0,0,1,5.72-2.39c1.39.94,3.23.63,4.66,1.81.78.64,1.16-.9,1.72-1.44,1.13-1.1,2.09-2,2.81.37a5.34,5.34,0,0,0,1.42,2.07c.87.87,1.75,1.37,2.34-.4a2.64,2.64,0,0,1,2.37-1.69c3.49-.38,7.11.22,10.47-1.35.25-.12.86.16,1.1.43.54.62-.07,1.11-.41,1.53-2.6,3.14-5.07,6.39-7.85,9.36-18.92,20.24-41.93,33.23-69.25,38.11a122.45,122.45,0,0,1-72.69-8.61,124.2,124.2,0,0,1-47.11-36.37c-.53-.67-1-1.34-1.54-2a6.06,6.06,0,0,1-.46-.89c3-.58,5.67-.4,8,1.68.58-1.41-1-1.71-.91-2.78,2.35,0,4,1.3,5.29,3,1,1.28,1.35.72,1.75-.46.66-2-.57-3.36-1.62-4.79,4.55-1.65,7.43.59,8.76,6.8,1-1.27.54-2.65.68-3.9.08-.66,0-1.48.91-1.61s1.21.51,1.51,1.14c.39.82.47,1.81,1.76,2.62-.4-2.36-.87-4.46,0-6.5S78.81,240,81.3,240c0,.81-.52,1-.86,1.36a4.33,4.33,0,0,0-.59,5.81c1.32,2.08,3.48,2.06,5.46,1.22,4-1.7,6-5.06,7.09-9.09a9.66,9.66,0,0,0-2-9.31c-1.79-2-1.67-4.1-1.18-6.62,2.58-13.28-.67-24.89-10.72-34.23-3.55-3.31-6.54-2.81-9,1.07.24.49.72.37,1.09.35,5.73-.27,7.6,6.07,5.5,9.86a9.29,9.29,0,0,1-7.57,4.92,22.13,22.13,0,0,1-9.08-.73c-1.63-.52-3.24-1-4.93-.08-.9.47-2.08.16-1.63-1,1.6-4-.71-7.47-1.09-11.19-.56-5.59,1.37-9.51,6-11s7.88.36,9,5.06c.13.55.22,1.12.41,2.07a20.21,20.21,0,0,1,2.49-2.77A18.48,18.48,0,0,1,73,184.18c-3.79-4.64-8.37-8.23-13.41-11.93-.14,2.86-.45,5.26-2.59,6.94-2.54,2-5.28,2.72-8.33,1.44a9.61,9.61,0,0,1-6.1-8.41,16.74,16.74,0,0,1,1-8.26c1-2.41,1.23-4.7-.08-7.08-.84-1.51-.38-2.37,1.44-1.86a10.8,10.8,0,0,0,6.48-.49c3.15-1,6.31-2,9.71-1.74a9.14,9.14,0,0,1,8.28,11.37c-.72,2.9-2.89,4.27-5.58,5-1.32.34-1.56.82-.45,1.78,3.52,3,7.28,5.76,10.45,9.44a7.28,7.28,0,0,0,.42-1c.64-2.92.11-4.39-2.06-6.47s-2.48-4.52-1.73-7.27c.94-3.45,2.85-6,6.55-6.67a15,15,0,0,1,8.74.83,16.69,16.69,0,0,0,2.86,1.06c2.93.61,2.92.57,2.85,3.73,0,2.24.94,4.29,1.28,6.47a12.52,12.52,0,0,1-.73,7c-1.29,3.05-4.91,5.44-7.8,5.24-3.11-.21-4.48-1.69-5.69-6.14-2.07,1.22-2.5,3.17-1.12,5.47a20.93,20.93,0,0,0,4,4.28,40.76,40.76,0,0,1,13.57,32.73c0,1.19-.32,2.48.81,3.81.65-1.78.29-3.29.31-4.74.21-14.86.33-29.71.57-44.56a41.32,41.32,0,0,0-1.82-12.79c-1-3.4-2.06-6.85-1.45-10.48a6.89,6.89,0,0,1,7-6.14c2.85-.13,4.67,1.56,5.78,5.38.12.4.19.81.32,1.33,1.61-3.12-1.27-7.31-5.05-7.82-1.41-.19-3.15,1.13-4-.12-.71-1-.35-2.78-.55-4.21-.59-4.11-1.27-8.21-1.82-12.33-.74-5.51-3.55-10.22-5.95-15a7.21,7.21,0,0,0-8.15-3.86c-1.72.44-3.22,1.23-2.23,4.09.82-1.83,1.92-2.69,3.57-2.7A6.88,6.88,0,0,1,86.91,111a8.1,8.1,0,0,1,1,10.65,44.29,44.29,0,0,1-5.22,5.21c-1.22,1.09-2.43,2.06-2.6,3.88-.1,1.16-.78,1.65-1.54.44-.91-1.45-2.34-1.88-3.79-2.36a29.09,29.09,0,0,1-5.69-2.19A10.14,10.14,0,0,1,66,112.43c2.31-3.31,4.84-3.78,9.41-1.64.3-2.39.45-5,3.87-5-3.92-3.62-13.06-1.87-14.13,3s-3.78,9.89-.56,15c.65,1,0,1.63-.9,1.87a14.45,14.45,0,0,1-3.25.55A8.32,8.32,0,0,0,55,127.87c-.75.62-1.73.85-1.84-.49-.25-2.93-2.23-4.88-3.7-7.13-2.33-3.54-4.14-7.22-3.36-11.67.6-3.45,2.32-6,5.7-7.19,4.93-1.78,7.93-.13,10.28,5.8a24.15,24.15,0,0,1,5.4-4.48,7.41,7.41,0,0,0-.93-.32A53.1,53.1,0,0,1,57.26,100c-4-1.53-8.77.63-10.95,4.4-1,1.73-2,1.77-3.49,1-3.4-1.85-4.73-5-5.31-8.55-.51-3.08-.35-6.29-3-8.64-.71-.63-.52-1.6.6-1.56,3.81.13,6.38-2.54,9.46-4,3.45-1.68,7-2.66,10.8-1.65a9.45,9.45,0,0,1,7,10.23c-.28,2.26-1.66,3.63-3.76,4.61a3,3,0,0,0,2.8,1.58c2.27-.22,4,.74,5.8,2,5,3.4,8.92,3.11,14.49-.72.83.86.64,2.07,1,3.08,1,2.7,2.33,5.27,4.88,6.63,2.91,1.55,4.54,4,5.92,6.74.59.28.71,0,.53-.5-.23-1.56-1.22-2.84-1.53-4.45,2.21,1.67,3.39,4.09,4.67,6.43.11.16.26.21.39.1s.16-.39.07-.61c-.38-2.23-2-3.92-2.8-6.1,1.42-.14,1.5,1.14,2.24,1.58s.66-.18.76-.58.29-.59.71-.4l2.64,4c.86.46,1,1.34,1.28,2.12,0,0,0,0,0,0s-.09-.24-.09-.26a18.4,18.4,0,0,1-.71-2.45,17.57,17.57,0,0,0-2.36-4.42c-.32-.52-1.12-1.06-.38-1.71s1.1.42,1.67.59C101.31,108.8,101.31,108.42,101.16,107.88Z"/><path class="cls-3" d="M183.57,140.16a17.32,17.32,0,0,1-.51,3.26c-.25.74,0,2.64-1.92,1.3-.65-.45-.51.37-.64.67-1.6,3.77-2.62,4.35-6.58,3.69,0-.93.82-1.43,1.07-2.22s.74-1.42-.21-2c-4.24,7-10.18,8.53-15.07,3.86,1.26-1.17,3.49.34,4.51-1.74-1.83-.35-3.89.67-5.38-1-.05-1.21,1.84-.48,1.72-2l-11.9,1.79c-4.28.64-8.54,1.36-12.83,1.89-2.24.28-3.5,1.11-3.81,3.56a5,5,0,0,1-7,4.06c-2.19-.8-2.64-2.64-1.11-4.39.36-.41,1.15-.49,1-1.45a14.82,14.82,0,0,0-5.06,1,3,3,0,0,1-2.21.13c-2.2-1-4.27-6.52-3.27-8.77a2.76,2.76,0,0,1,2.65-1.65,16.49,16.49,0,0,1,5.25.81c1.15.33,2.41.84,3.88-.45-2.6-.53-4.85-1.05-7.13-1.42-2.48-.41-3.28-1.48-2.53-3.85a26.51,26.51,0,0,1,1.94-4.95c1.46-2.62,3.87-2.64,5.28,0,1.94,3.59,5.87,5,8.33,8.08.89,1.09,2.6.47,3.83-.16,7-3.58,14.53-5.66,21.61-8.93a5.39,5.39,0,0,1,5.39.13c4.87,2.57,10,1.93,15.08.27,1.37-.45,2.21-.72,2.82,1.07A7.84,7.84,0,0,0,185,135a1.89,1.89,0,0,1,1.28,2.31c-.59,4.18.32,7.79,4.42,9.92a2.66,2.66,0,0,1,1.09,1.36,9.26,9.26,0,0,0,6.4,5,5.15,5.15,0,0,1,4.16,3.89A40.62,40.62,0,0,0,209.19,171c2.64,3.53,5.34,7,8.12,10.45,5.56,6.84,13.46,8.2,20.28,3.58,5.74-3.88,7.6-13.11,4-20a33,33,0,0,0-6.7-8.27c-2.62-2.53-5.41-4.92-7.82-7.65-6.55-7.42-6.43-19.32.16-26.27.76-.81,2-2.67,2.79-1.59s1.84,3.12.27,4.88a13.21,13.21,0,0,0-3.49,8c-.45,6,2.38,10.39,6.66,14.14a3.12,3.12,0,0,1,2.61,2.54c2.48,2.77,5.46,5.06,7.53,8.24,3.21,4.93,4.58,10.16,3.35,16a5.68,5.68,0,0,0-.11,1,3.13,3.13,0,0,0,.19.63c1.36-2.1,1.47-4.4,1.75-6.62.78-6.27-.68-12.11-3.3-17.77s-6-10.86-8.74-16.39c-5.06-10.09-7.74-20.69-5.7-32,1.72-9.47,7-16,16.6-18.62C252.31,84,256.91,84,260.36,88a13.69,13.69,0,0,1,2.82,14.47,23.7,23.7,0,0,1-4.21,6.92,17,17,0,0,0-3.66,6.34c-.58,2.18-.13,4,2.05,4.84,1.73.69,1,1.18,0,1.74-1.89,1.16-4.7.37-6.32-1.72a9.68,9.68,0,0,1,2.07-13.34,4.66,4.66,0,0,0,2-2.2c-3.68,1.65-7,2.45-9.21-1.45-1.43-2.52-.71-6.1,1.5-8.36.44.1.34.49.43.78.87,3,2.34,4.37,4.61,4.18A6.06,6.06,0,0,0,258,95c.21-2.51-1.39-4.59-4.13-5.37-5.09-1.46-11.27.82-14.76,5.7-4.93,6.89-5.76,14.73-4.68,22.86.87,6.56,3.44,12.55,6.61,18.32,3,5.42,6.21,10.73,8.44,16.53,2.8,7.27,4,14.76,2.39,22.46-2.46,11.77-16.73,19.86-27.61,15.74-2.87-1.09-5.55-2.47-6.87-5.61a8.64,8.64,0,0,0-2.53-3.35,1,1,0,0,0-.11,1.32c3.76,4.47,3.39,10,3.85,15.26a84.08,84.08,0,0,0,1.16,10.79c-1.77-1.41-4.08-.78-4.59-3.58-.4-2.13-3.77-3-6.09-2a12,12,0,0,1,2.52.63c.85.44,2.66.31,1.55,2.28-.41.72.71,1,1.15,1.43,1,1,2.55,2.17,1.72,3.57-.75,1.25-2.61,1.44-4.18,1.2-.66-.11-1.28-.45-2-.11.39,1.1,1.74,1,2.29,1.77s2.45,1.38.57,2.75c-.57.42,0,.91.19,1.31a5.6,5.6,0,0,1,.85,2.89c0,1,0,2.26-1,2.7s-1.18-.94-1.77-1.45-1.08-1.1-2.12-.84c1.33,1.3,2.42,2.92,2.14,4.56a28.09,28.09,0,0,1-2.4,7c-.62,1.32-1.38-1-2.6-.09,2.95,2.68,2.67,6.21,2.45,9.76a7.83,7.83,0,0,0,.64,3.48c1.38,3.38,3.9,3.84,6.48,1a4.29,4.29,0,0,1-1.42,5.4A6.9,6.9,0,0,1,203.19,250a54,54,0,0,1-1.05-6.25,5.69,5.69,0,0,0-1.21-3.28c-.84.05-.84.05-.51,1,.22,1.16.41,2.33.68,3.48.39,1.76.07,3.26-1.62,4.13a4,4,0,0,1-4.91-.52c3.62-2.55,4.16-4.64,2.34-8.67a3.5,3.5,0,0,0-.47-.9c-4.31-5.17-5-11-3.67-17.45,1-4.66.6-9.46.63-14.2a18.84,18.84,0,0,1,3.14-10.79c2.74-4,3.87-8.83,5.25-13.42,1-3.47-.81-6.19-3.84-8.52.45,2.15,2.21,3.3,2.54,5.13.08.59.72,1.37-.5,1.53-3.84-7.57-9.83-11.9-18.47-12.2-1.78-.06-3.56-.09-5.34,0-4.44.13-6.74-3.56-10-5.56-.67-.41-.06-.87.25-1.22,2.2-2.49,2.36-5.37,1.39-8.35-.38-1.16-.23-1.42,1-1.84,2.42-.84,4.61-2.18,7.42-1.54a4,4,0,0,0,3.63-1.51,39,39,0,0,1,2.95-2.69c2.08-2,2.28-4.59,1.26-7.26C183.05,139,183.39,139.64,183.57,140.16Z"/><path class="cls-1" d="M120.36,202.68q.78-21,1.56-42c0-1.2.14-1.87,1.64-1.66a4.25,4.25,0,0,0,3.84-1.61,3,3,0,0,1,1.66-1.07,4.88,4.88,0,0,0,4.09-4.85c.11-2,1.18-2.6,2.92-2.76,2.11-.2,4.21-.48,6.31-.71.64-.07,1.44-.64,1.87.09s-.05,1.43-.4,2.14-2.14.82-1.3,1.94a2.71,2.71,0,0,0,3.68.72c1.61-1,2.17-.48,2.83,1.06a29.29,29.29,0,0,0,2.54,4.1,5.56,5.56,0,0,1,.92,4.11,1.84,1.84,0,0,1-2,1.55c-.76,0-1.57-.19-1.63-1.22-.07-1.19.77-1.09,1.6-1.41,1.72-.66.69-1.79,0-2.52-1.27-1.26-3.83-.83-5.24.75-2.61,2.91-1.46,8.26,2.18,9.67a11.72,11.72,0,0,1,3.79,1.93,3.29,3.29,0,0,0,1.16.5c4,1.28,11.24-2.23,12.68-6.16a7.56,7.56,0,0,1,.43-.78,9.26,9.26,0,0,1,1.87,1.26c3.5,3.87,7.93,4.79,12.93,4.45,6.49-.44,11.63,2.43,15.92,7.09a15.53,15.53,0,0,1,2.94,5c.74,1.9,0,2.1-1.65,2-7.1-.62-14.26-.79-21.3-1.8-9.81-1.4-18,1.44-25.24,7.92-2.77,2.49-5.55,5-8.39,7.4a6.65,6.65,0,0,1-4.83,1.94c-.6,0-1.24-.08-1.48-.75s.46-.77.72-1.14c1-1.48-.14-2.06-1.27-2.41-2.26-.72-5,1.24-5.3,4.19-.2,1.87-.71,2.23-2.53,2.24a7.63,7.63,0,0,0-7,4.36C119.42,205.23,120.42,203.88,120.36,202.68Z"/><path class="cls-3" d="M140.31,236.41c2.78-1.86,5.54-3.74,8.34-5.57,1.31-.86,2.55-1.28,4.12-.18a7.32,7.32,0,0,0,5.32,1.05c.36-.58-.18-.67-.49-.88a8.77,8.77,0,0,1-4.48-1.38c2.22-.88,4.8-.21,6.74-2.71-2.6.69-4.75,1.29-7,1.06-.65-.07-1.41.14-1.9-.48-2-2.55-4-5.11-6.09-7.69.36-.25.51-.44.61-.42,5.7,1.41,9.52-2.78,14.18-4.57,2.76-1.06,4.69-2.21,5.29-5.14a2.63,2.63,0,0,0,.16-1.24c-1.06-3.2.85-3.12,3.06-2.95,1.35.1,2.74-.25,4.07-.07,1.81.24,2.51-.62,2.13-2.11-.57-2.24,0-4.66-1.15-6.76s-2.46-3.62-5.77-3c1.9.91,3.35,1.5,4.28,2.82s1.54,2.41-1.1,2c.59,1.5,1.94,2.18,2.35,3.52s.44,2-1.42,2.28c-4,.58-7.62.42-10.06-3.45-.15-.23-.52-.32-.83-.49-1.52,6.14-4.1,8.6-9.13,8.66.53-1.5,1.54-2.9.71-4.74-1,1.33-1,3.12-2.21,4.2a7,7,0,0,1-4.1,2c.55-1.53.39-2.33-1.37-1.39a1,1,0,0,1-.24.09c-1.29.2-2.81,1.06-3.79-.22s1.12-1.83,1.3-3.35c-3,1-6,2.53-8.79,0a6,6,0,0,1-1.66-4.42c-.15-2.71,1.47-4.26,4.09-4.12-1.15,3.11.12,4.62,3.47,4.06,2.74-.46,4.73-2.24,6.62-4.07a77.79,77.79,0,0,1,13.59-10.66,16.34,16.34,0,0,1,9.9-2.66q14.61,1,29.21,2c1.28.08,1.32.55,1,1.58-1.57,5.6-3.88,10.45-9.38,13.56-5.24,3-10.29,6.25-15.86,8.59a54.38,54.38,0,0,0-5.07,2.37c-2.78,1.53-3.13,2.71-1.85,5.59,1.63,3.64,3.24,7.29,4.9,10.91,2.09,4.55,3.18,5.23,7.89,5-.33,1.6-1.61,2-2.88,2.49-1,.44-3-.62-3.07,1.78,0,.45-1.44.26-2.07-.14-1-.63-1.91-1.15-2.88,0s-1.46,2.31-.82,3.74a16.05,16.05,0,0,0,1,1.72c-3.57,1.49-5.25-.39-5-5.77-1.51,1-1.34,2.19-1.18,3.57.59,5.06-3.11,8.33-8.1,6.87,3.1-1.73,4.14-4.29,3.55-7.68-1.46.91-.72,2.5-1.28,3.61-.29.58-.36,1.5-1.23,1.33-.7-.14-.62-1-.49-1.52.72-2.76-.9-2.19-2.46-1.81-2.68.65-5.27,1.4-6.6,4.2a2.24,2.24,0,0,1-2.35,1.21,28.93,28.93,0,0,0-7.07.53c-1.89.33-3.18-.28-2.91-2.6a3.86,3.86,0,0,0-1.33-3.19c-.71-.71-1.68-1.28-.85-2.53a2.55,2.55,0,0,1,2.88-1.12c1.82.39,3.61.9,5.43,1.32a5.74,5.74,0,0,0,1.3-.15l-3.77-1.61C138.28,235.92,139.61,237.07,140.31,236.41Z"/><path class="cls-2" d="M108.79,92.68c-1.07-3.3-2.06-6.63-3.23-9.89A12.52,12.52,0,0,0,102,77.62c-.57-.51-1.09-.93-1.43.24C99.63,81,97,81.39,94.43,81.29a7.23,7.23,0,0,1-6.62-4.43c-1.44-3.16-1.18-6.49-.78-9.77s.7-6.75-.35-10.07c-.21-.65-.55-1.34.15-1.86a1.51,1.51,0,0,1,1.7.06c2.81,1.75,5.86,1.3,8.91,1.06a26.81,26.81,0,0,1,4.82-.13c4.93.47,8.21,3.94,8.76,9.06.45,4.26-1.4,6.62-6.83,8.51,2.4,3.1,4.8,6.16,5.86,10.7,2-4,3.65-7.58,7.22-9.48-.38-1.23-1.39-1.18-2.06-1.58-2.29-1.38-3.44-3.06-3.13-6s.19-5.95,3-7.9a17.23,17.23,0,0,1,10.66-2.69c3,.1,5.9.56,8.85-.18,1-.26,2.31-.25,1.88,1.39-.73,2.85,0,5.55.48,8.3.85,4.87.18,9.21-3.93,12.65-2.95,2.46-6.21,2.4-9.61,1.9a2.85,2.85,0,0,1-2.34-2.13c-.43-1.57-1.27-1.27-2.27-.68a1.81,1.81,0,0,0-.42.28c-3.64,4.45-8.56,8.07-9.24,14.41C109.05,93,108.92,93,108.79,92.68Z"/><path class="cls-3" d="M237.68,236.9l3-.15s.09-.11.26-.32a15.36,15.36,0,0,1-4.86-11.9c-1.74,0-3.06,1.51-4.46,2.77-2.33,2.1-4.52,4.37-7.43,5.69-.63.29-1.46,1-2,.2s-1.06-2.14-.73-2.56c2.1-2.69-.26-4.32-1.26-6.25a8.65,8.65,0,0,0-1.25-1.51,1,1,0,0,1,1.13-.56c2.59.3,3.3-1.08,2.43-3.15-.74-1.76,1.62-3,.34-4.75-1.57-2.1-.26-2.88,1.67-3.6a43.3,43.3,0,0,0,8.15-4.65c1.43-.92,2.85-1.86,4.35-2.64,4.09-2.13,5.94-1.34,7.44,3a13.79,13.79,0,0,0,1,2.58,3.57,3.57,0,0,0,5.95.72c1-1.14,1.29-.51,1.73.23,1.11,1.9.3,3.59-2.33,5-.46.31-.39.62,0,.94,1.16.2,2.35.32,3.49.62,2.49.68,3.88,2.71,3.86,5.79-1.82-2.1-3.51-4.18-6.6-3.72.4,1.15,1.53,1,2.28,1.47,2.43,1.45,4.08,4.31,3.63,6.51-.15.69-.38,1.35-1.16,1.49-1.17.23-.48-.74-.66-1.14a2,2,0,0,0-2.51-1.2c-1.6.45-3,.25-4.9-1.27,1.65,5.73.25,11.07,2.25,16.08.79,2-2.37,5.83-4.83,6a35.88,35.88,0,0,0-5.57.38c-.79.16-1.49.12-1.64-1-.3-2.24-1.54-3.52-3.9-3.52-.54,0-1,0-1.05-.76a2.19,2.19,0,0,1,.93-2.22,5,5,0,0,1,3.94-.41,8.79,8.79,0,0,0,3.61.3,10.08,10.08,0,0,0-4.31-1.55C237.3,237.54,237.32,237.23,237.68,236.9Z"/><path class="cls-3" d="M225.3,87c-1.21.57-2.29,1.47-3.7,1.59-.66.06-1.15.24-1,1.1.56,3-1.4,2.34-3.12,2.16-1.12-.12-1.67-1.54-3.22-1.11.69.84,1.34,1.54,1.89,2.31,1.49,2.11,2.34,4.35,1.16,6.9-.4.85-.92,1.89-1.82,2s-.81-1.33-1.63-1.87c-.91,0-.66,1.7-1.92,1.54-.86-1.05.39-2.89-1.4-3.84.08,2.79-.27,5.35-2.36,7.26-.94.87-2.05,1.9-3.32,1.54-1.6-.46.29-2-.66-3a8.27,8.27,0,0,1-4.52,3.63c-1.89.51-3.79.76-5.71-.35.84-1,2.38-.77,2.82-2.37a15.76,15.76,0,0,1-5.64,1.06,2.87,2.87,0,0,1-2.67-1.16c-.33-.51-.71-1.07-.36-1.63.57-.9,1,0,1.4.25a4.27,4.27,0,0,0,4.76-.55,2.6,2.6,0,0,0,.36-4c-1.83-2.15-7.21-1.49-8.43,1-.49,1-.94,2-2.15,2.3a2.38,2.38,0,0,1-1.7-.17c-.58-.42.16-.85.37-1.24.58-1.06-.17-1.73-.64-2.52-.87-1.45-1.15-2.85,1.05-3.2,1.51-.23.79-2,2.15-2.45.56,2.2,2.33,2.15,4.18,2.21,3.27.12,6.17,1.15,8.15,4,.88,1.28,1.36.84,1.79-.34,1.18-3.22-.95-7.31-4.77-9.06-3.27-1.5-6.77-1.35-10.25-1.35-2.82,0-3.59-.94-3.34-3.71.1-1.1.44-1.37,1.59-1.27a26.06,26.06,0,0,0,4.29-.29c-.83-1.56-1.94-.84-2.86-.88-.7,0-1.68.39-1.86-.72s.46-1.68,1.56-1.92c1.49-.32,2.94-.84,4.43-1.16,2.07-.45,4.43-.25,5.38-2.86.17-.49.86-.5,1.37-.46,5.3.46,10.62-1.19,15.94.25a9.59,9.59,0,0,0,5.28-.09c1.48-.45,2-1.65,2.3-3.07,1.74,2.07,1.61,2.9-.7,5a2.66,2.66,0,0,1-1.54,1.14,5.45,5.45,0,0,1,3,.19c3.29.45,4.9,3.62,7.78,4.84,1.05.45-.14,1.79-.21,2.73A1.73,1.73,0,0,1,225.3,87Z"/><path class="cls-1" d="M180.21,246.09c.08-1.82.64-3.12,2-3.88,1.64-.92.54-1.41-.26-1.83-1.89-1-3.45-.09-4.89,1.06s-2.36,3.06-3.28,4.8c-2.21-3-2.33-3.05-3.95.44-.46,1-.94.67-1.59.48-.81-.24-1.62-.48-2.45-.65s-1.65-.24-2.42-.35c-.32-.65.22-1,.29-1.48.23-1.35.62-1.64,1.94-.79a3.83,3.83,0,0,0,4.92-.54c.59-.54,1.32-1.27-.11-1.84s-1.44-1.79-.92-3c.62-1.4,1.52-.26,2.34-.16,1.52.21,3.49,1.63,4-1.33,0-.22.92-.26,1.4-.41,3.29-1,4.25-2.39,4.11-6-.65-.24-1,.29-1.5.55-2.49,1.37-4.22,1.1-5.52-1.46-2.34-4.6-4.39-9.34-6.53-14a1.89,1.89,0,0,1,.88-2.61,17.09,17.09,0,0,1,2.22-1.22c7.72-3.3,15.24-7,22.19-12.29-1.59,9.2-.36,18.28-2.15,27.17-.72,3.56.58,6.85,2.54,9.85,1.3,2,2.75,3.89,3.1,6.34.31,2.25-.4,3.79-3,4.22.42-2.27.3-4.3-1.6-5.78a2.07,2.07,0,0,0-2.13-.46c-.84.36-.14,1-.11,1.55a2.7,2.7,0,0,1-1.6,2.64c-1.09.63-2.13,1.35-3.19,2C184,243.49,183.61,243.4,180.21,246.09Z"/><path class="cls-1" d="M120.4,210.94a3.46,3.46,0,0,0,2.94,2.47c1,.17,1.89.33,1.71-1.43a1.91,1.91,0,0,1,3.34-1.66c2.45,2.34,5.82,3.36,7.94,6.07a3.79,3.79,0,0,0,2.46,1.7c4.25.32,6.17,3.63,8.52,6.41,3.15,3.73,2.77,3.3-.7,6.33-4.09,3.56-7.84,4.09-12.45,1.49a11.19,11.19,0,0,0-5.68-1.12c-1.23,0-2.58.19-3.24,1.15-1.68,2.43-4,4.19-5.9,6.4-1.25-.35-.55-1.21-.5-1.89L120,211l.21-.37Z"/><path class="cls-4" d="M79.23,65c2.41,3,6.45,4.63,6.47,9.3A35.6,35.6,0,0,1,77.16,69c-.66-.52-1.48-1.51-2,.27a7.86,7.86,0,0,1-15.1-.09,14.24,14.24,0,0,1-.06-9,8.8,8.8,0,0,0,.1-6.9c-.6-1.36,0-2,1.45-1.52A6.67,6.67,0,0,0,66,51.2a27,27,0,0,1,9.56-2.37c4.34-.06,7.73,2.28,8.63,6C85.43,59.83,84.06,62.72,79.23,65Z"/><path class="cls-4" d="M116.46,38.74c1.7-1.25,3.41-2.49,5.08-3.78a4.16,4.16,0,0,0,1.55-3.08c0-.5.2-1.07.77-1.19s.91.41,1.09.87c1,2.51,3.1,3.68,5.36,4.73a21.9,21.9,0,0,1,7.12,4.77,8.89,8.89,0,0,1,1,11,9.23,9.23,0,0,1-10.28,3.53c-.21-.07-.35-.34-.53-.51.16-.49.11-.78-.51-.54-.32.25-.68.75-1,.7-.86-.13-.55-.92-.48-1.42a49.14,49.14,0,0,0,.43-8,12.73,12.73,0,0,0-.26-1.44c-1,3.43-.69,6.57-1.19,9.6-.15.92-.08,2-1.26.59-.32-.15-.48-.5-.79-.66.25.34.14.79.37,1.14-2.87,1.81-6.57,1.84-8.71.07-2.45-2-3.42-6.74-2.16-10.32a22.59,22.59,0,0,1,2.26-3.94A2.24,2.24,0,0,1,116.46,38.74Z"/><path class="cls-4" d="M79.17,88.62c-1.23.93-3,.66-4.31,1.9,1.43.37,2.55-.32,3.65-.62,1.76-.47,2.61-.21,2.92,1.81.82,5.27-1.88,8.63-7.21,8.69A10.24,10.24,0,0,1,63.6,91.49a53.62,53.62,0,0,1-.7-5.78A10.67,10.67,0,0,0,61.16,80c-.46-.68-1-2,.33-2,5.45.07,9.72-3.34,14.69-4.66a9.18,9.18,0,0,1,11.3,7.07c.35,1.87.12,3.68-1.33,4.91-1.61,1.36-3.78.66-5.66.76-.87,0-.95-1.63-1.36-2.53-.3-.2-.34-.59-.58-.83.2.61-.42,1.26.09,1.86l.52,2.49c-.8.9-1.56.21-2.28-.12-1.55-.69-2.92-1.69-4.44-2.44-.18-.09-.4-.14-.52-.31,0,0,0,.1,0,.12a.65.65,0,0,1,.39.13C74.54,86,77.27,86.6,79.17,88.62Z"/><path class="cls-4" d="M137.56,61.14c-.3-4.57-.23-4.63,7-7.21-.09-.2-.11-.49-.26-.59-2.57-1.75-3.75-4.1-3-7.2a8.1,8.1,0,0,1,5.76-6.2c6.1-1.93,9.83-.53,13,5,1.21,2.08,2.31,4.15,4.89,4.84,1.07.29,1.06,1.08.31,1.7-2.5,2.05-2.95,5-3.68,7.87-1.74,6.81-8,8.25-13.47,6.2a4.64,4.64,0,0,1-3.1-5.72c.44-2-.55-2-1.87-1.68A15.17,15.17,0,0,0,137.56,61.14Z"/><path class="cls-4" d="M79.83,41.48a19,19,0,0,1,6.53,11c.15.7.52,1.31-.41,1.65s-.85-.59-1.11-1c-2.21-3.43-5.15-6.2-8.22-9.72-.46,4-3.13,4.56-5.91,5-1.47.22-2,0-1.9-1.79.23-4-1.07-7.74-4.82-9.69-2.7-1.4-2.75-3.37-1.9-5.45,1.13-2.78,2.32-5.42,1.81-8.55-.21-1.24.87-1.47,1.68-.91,3.17,2.21,6.68,1.46,10.12,1.35,7-.22,12,5.25,11,12.24C86.21,39.12,83.92,41,79.83,41.48Z"/><path class="cls-4" d="M109.16,35.75c1.06,1.94,2.15,3.88,2,6.2-.29,3.81-2.23,5.58-7.54,6.65A28,28,0,0,1,112,57.91c.73,1.36,1,2.47-.53,3.52-2.28-4.25-6.64-6.33-9.68-10-1.6,3.26-5.07,4.55-9.5,3.84-3.33-.55-5-2.42-5.55-6a17.79,17.79,0,0,1,.6-7.78c.6-2.21,1.22-4.39.68-6.75-.31-1.36.18-2.72,1.85-1.77,2.42,1.38,4.74.73,7.16.33,3.6-.59,7.23-1.34,10.62.83A1.66,1.66,0,0,1,109.16,35.75Z"/><path class="cls-4" d="M159.91,64.85c1.31-1.31,1.65-3.13,4.12-2.46,1.3.36.54-1.22.27-1.83-1-2.23-1.27-4.35.21-6.5a8.83,8.83,0,0,1,10-3.17,9.58,9.58,0,0,1,5.31,4.53,47,47,0,0,1,2.42,5.31c.71,1.85,1.41,3.64,3.08,4.87,1.18.86,1.15,1.64-.33,2.09-2.23.68-3.36,2.45-4.43,4.32a11,11,0,0,1-7.59,5.49,5.55,5.55,0,0,1-4.59-.74,9.71,9.71,0,0,0-2.56-1.1c-3.36-1-4.68-3.6-3.5-6.9C163.36,65.75,163.36,65.75,159.91,64.85Z"/><path class="cls-4" d="M121.87,30.13c.14,3.34-.8,4.51-4,5-6.76,1-11.35-5-9.38-12.19a19.93,19.93,0,0,1,3.87-7.1,9,9,0,0,0,2.38-5.23c.07-1.42.81-1.78,1.66-.65,2.14,2.84,5.11,3.21,8.36,3.43,7.34.48,11,5,9.46,11.27a7.66,7.66,0,0,1-6.74,5.72c-1.8.13-2.82-.54-2.31-2.54l1-3.88c-2,1.54-1.32,3.84-2.69,5.09-1.64-2-1.9-4.68-3-6.9,0,.05,0,.17,0,.21.47,2.11,2.29,3.8,1.67,6.16-1,.75-1.5,0-2-.66l-.13-.18.08.09c.34.92,1.53,1.07,1.76,2.06Z"/><path class="cls-4" d="M143,34.84a43.65,43.65,0,0,0-1.41,4.23,42.57,42.57,0,0,0-.58,4.32c-2.94-3.06-2.94-3.06-.82-8.93-1-.21-1.73.49-2.53.76a5.14,5.14,0,0,1-5.67-1c-1.88-1.79-1.81-3,.22-4.54a8.3,8.3,0,0,0,3.27-9c-.58-2.46.35-3.69,2.31-4.64,2.58-1.24,5.39-2.09,7.18-4.61.63-.9,1.46-.52,1.7.38.63,2.39,2.38,3.85,4.12,5.34a11.78,11.78,0,0,1,4.12,12.09,3.15,3.15,0,0,0-.15,1c.29,2.7-.44,5-3,6.12a7,7,0,0,1-8-1.23A3.27,3.27,0,0,0,143,34.84Z"/><path class="cls-4" d="M56.82,53.5c1.92-.41,2.58.72,2.84,2.33.35,2.1-.9,4.6-2.64,5.28C52.25,63,45.94,59.78,44.6,54.87a15.49,15.49,0,0,1,.06-8.3,5.91,5.91,0,0,0-.75-5.32C43,39.93,43,39,45,39.23a12.54,12.54,0,0,0,6.39-1.32c3.46-1.44,7-2,10.66-.76a8.93,8.93,0,0,1,5.37,10.6,4.9,4.9,0,0,1-4.81,3.08c-2.68-.35-2.52-2.55-2.83-4.43a1.16,1.16,0,0,1-.36-.86c-.19.13-.13.35-.17.53a4.56,4.56,0,0,0,0,2.83c0,.56.58,1.25,0,1.66s-1.06-.29-1.55-.56c-1.87-1-3.2-3-6.28-3.29L58.67,52a6.74,6.74,0,0,1-2.86,1.08c-.1.13-.3.34-.3.34A1,1,0,0,0,56.82,53.5Z"/><path class="cls-4" d="M155.46,38.3,159,36.56c-.63-.69-1.16-1.2-1.62-1.78A6.23,6.23,0,0,1,159.76,25a12.33,12.33,0,0,1,11.69.76c3.06,1.71,5.39,4.72,9.27,5,1,.07.91.87.11,1.36-2.13,1.29-2.57,3.4-2.91,5.64-.46,3-1.11,6-2.94,8.57-3.73,5.29-11.74,3.11-13.35-1a6.14,6.14,0,0,1-.17-4.44c.43-1.21.31-1.82-1.21-1.38C157.93,40.11,157.92,40.07,155.46,38.3Z"/><path class="cls-4" d="M84.7,22.86c-.23-2.61,1.16-4.58,2.49-6.54,1.52-2.27,3.08-4.44,2.78-7.43-.16-1.57.84-1.45,1.74-.67,2.11,1.83,4.59,2.33,7.29,2.52,3.79.26,7.42,1,9.47,4.86a3.51,3.51,0,0,1,.16,3.8,12.3,12.3,0,0,0-1.78,6.3c0,2.21-1,2.88-2.91,2.77-1.55-.08-2.86-.1-1.83,2.07a.6.6,0,0,1-.46.95,1.08,1.08,0,0,1-1.24-.64c-.89-1.77-1.58-1.77-3-.16-2.77,3.25-8.73,2.36-10.57-1.48C85.91,27.19,84.36,25.31,84.7,22.86Z"/><path class="cls-4" d="M138.94,78.77c-.36-1.26-2.6-.6-2.08-2.13s1.95-.32,3-.55c-.08-1.49-.27-3-.21-4.47a5.45,5.45,0,0,1,7.49-5.09c.56.19,1.1.44,1.67.6,5.41,1.54,7.55,4.39,7.75,10.18.09,2.58-.5,5.27,1.15,7.66.67,1-.2,1.22-.91,1.1-2.65-.43-4.45,1-6.39,2.5-3.14,2.36-6.59,4-10.66,2.57a7.87,7.87,0,0,1-5.07-9C135.2,79.9,137.22,79.46,138.94,78.77Z"/><path class="cls-3" d="M127.31,109.9c-1.21-2-2.58-3.54-3.82-5.25s-1.45-3.41-.16-5.14a6.88,6.88,0,0,1,6-3.12c1.13.06,1.5,1.22,1.79,2.23a26.85,26.85,0,0,1,.62,6.32,4.9,4.9,0,0,0,3.37,4.78c5.12,2.25,10.09,4.82,15.17,7.15,1.62.74,1.72,1.39.54,2.67a20.59,20.59,0,0,0-4.34,6.82c-.6,1.63-1.24,1.59-2.55.77-5-3.17-10.1-6.22-15.13-9.37-1.51-.94-2.92-1.68-4.67-.48-1.1.76-1.28-.08-1.26-.94a21.79,21.79,0,0,1,.54-5.8c.48-1.7,1.07-2.67,2.79-1.1A3.78,3.78,0,0,0,127.31,109.9Z"/><path class="cls-4" d="M65.72,76a8.15,8.15,0,0,1-3.77.73c-1.23,0-2.31.39-2.48,1.67-.24,1.74-1.39,1.85-2.57,1.55a17.8,17.8,0,0,0-12.37,1.24c-1.15.54-1.73-.28-2.34-1a14.87,14.87,0,0,1-2.64-5.72c-.63-2-1.22-4.05-3-5.48-.73-.59-1.26-1.55.19-1.78,2.79-.45,4.69-2.27,6.72-3.92S47.72,61,50.3,62.1a7.69,7.69,0,0,0,2,.49c4.31.64,5.35,1.47,6.29,5.68C59.44,72.16,61.78,74.65,65.72,76Z"/><path class="cls-1" d="M181.06,94.2a3.2,3.2,0,0,0-.34,3.78c.51.91,1.84,1.58-.37,2.46-1,.4.56,1.69,1.23,2.45-.18,1.42-1.46.37-2,.91a44.82,44.82,0,0,0-14.82,5,40.12,40.12,0,0,1-4.37,2c-1,.39-2.16.76-3.18,0-1.2-.86.38-1.82,0-2.77-2-.41-3.76,0-4.81,1.91a4.1,4.1,0,0,0,.66,5.14c.31.32,1,.59.47,1.22s-1.05.29-1.59,0l-9.49-4.62c2-1.28,3.68-2.73,6.28-1.79,1.23.45,2.52-.66,2.06-1.78-1.44-3.57,1.45-6.09,1.71-9.43,5.37,3.72,10.46,2.54,15.3-.5A18,18,0,0,1,174,95.7a61.41,61.41,0,0,0,6.52-2C181.06,93.45,181.16,93.72,181.06,94.2Z"/><path class="cls-1" d="M249,93.18c-3.38,1-4.89,3.33-4.89,7.44,0,3.95,1.69,5.93,6.23,7.2a12.54,12.54,0,0,0-1,12.5c-.59.46-.86,0-1.12-.21a13.13,13.13,0,0,0-10.79-3.39c-1.48.16-2.16-.07-2.21-1.71-.2-6.2.61-12.18,3.89-17.58,3.17-5.19,8.28-7.67,13.7-6.79,2.46.4,4.17,2.12,4.08,4.11a4.78,4.78,0,0,1-4.42,4.17C250,99.09,248.82,97.26,249,93.18Z"/><path class="cls-5" d="M168,96.45c-5.81,5.42-14,4.39-16.94-2-1.67-3.61.76-7.26,4.82-7.25.34,0,.67.1,1,.11,2.26.07,2.94-1,1.84-3a10.65,10.65,0,0,1-1.07-3.86c-.29-2.55,1.1-3.55,3.26-4a9,9,0,0,1,11,8.84c0,.93.15,1.86.17,2.79s1.09,2.16-.54,2.48-3.26.22-4.31-1.4c-.74-1.15-.3-2.07.63-2.89.45-.41,1.42-.52,1-1.47a2.31,2.31,0,0,0-2-1.35c-3.41-.51-6.41,3.33-5.48,7C162.27,94,164.68,95.69,168,96.45Z"/><path class="cls-3" d="M247.81,135.47c-2.5,1.53-4.72,1.51-5.92-.1-.61-.81-1.12-1.51.58-1.84,3-.59,4-2.34,3.18-5.4a7.32,7.32,0,0,0-7.2-5.39c-2.75,0-2.4-2-2.59-3.47-.25-2,1.58-1.4,2.53-1.44,5.47-.23,9.4,2.29,12,7.06,2.1,3.91,2.53,8.22,3,12.52.11.92.18,1.85.35,2.77.82,4.34,2.33,5.45,6.59,4.85-1.09,2.83-4.92,4-8.31,2.48-4-1.76-5.83-7.53-3.67-11.5C248.6,135.4,248.35,135.28,247.81,135.47Z"/><path class="cls-1" d="M123,121.56c.05-1.21-.23-2.34,1.42-3.09a3.33,3.33,0,0,1,3.67.17c5.23,3.31,10.52,6.53,15.82,9.73,1,.63,1.61,1.2,1.39,2.58s-.49,2.07-1.85,2.59c-2.69,1-5.29,2.28-7.89,3.51-1.58.75-2.65.5-4-.79a10.6,10.6,0,0,1-3.79-7.1A5.28,5.28,0,0,0,124,124.4C122.91,124,122.94,123.92,123,121.56Z"/><path class="cls-4" d="M138.74,98.36l-.91-6.49a12.57,12.57,0,0,0,9.93-.28c.93-.45,1,.1,1.37.8,1.84,3.9,3,7.77.27,11.77-1,1.44.78,3.34-.2,4.33s-2.92-.62-4.26.47c-3.84,3.12-7.18.7-10.53-1-1.72-.87-1.75-2.25-.14-3.26a9.06,9.06,0,0,0,4-5.36c1.42-.74,2,.6,2.89,1.12,0,0,0,0,0,0C140.36,99.67,139.35,99.26,138.74,98.36Z"/><path class="cls-1" d="M246.82,162.47a32.42,32.42,0,0,0-10.06-12.27,3.56,3.56,0,0,1-2.65-2.59c-1.44-1.87-3.22-3.46-4.39-5.55a12.55,12.55,0,0,1,1.91-15.47C235,137.91,242.87,146.9,246.41,158c.41,1.29.67,2.62,1,3.92C247.54,162.44,247.32,162.6,246.82,162.47Z"/><path class="cls-1" d="M80.33,183.3c5.74,3.4,13.13-1.35,13.63-8.4a26.68,26.68,0,0,0-1.22-8.76,3.83,3.83,0,0,1,.91-4.06,26.4,26.4,0,0,1,1.75,8.81c-.1,10.94-.29,21.89-.46,32.83a6.22,6.22,0,0,1-.1.85c-.76.29-.87-.17-1-.56a41.9,41.9,0,0,0-13.31-19.46,9.07,9.07,0,0,1-1-1.14A.55.55,0,0,1,80.33,183.3Z"/><path class="cls-3" d="M139.88,212.21c-3.84,2.33-6.6.93-9.13-1.6a6.55,6.55,0,0,0-2.46-1.76c-2-.68-3.47-.21-4.41,1.77-.24.51.09,1.61-1,1.35a2,2,0,0,1-1.39-1.68,5.62,5.62,0,0,1,2.15-5.64,7.11,7.11,0,0,1,6.46-1.4c.6.14.71.7.92,1.13,1.3,2.63,3.53,3.54,6.29,3.4,1.05-.05,2.07-.31,2.07,1.31,0,.51.41,1.15.9,1.07,2.59-.4,4.83,1.59,7.41,1a8.37,8.37,0,0,1-8.95,5.31A2,2,0,0,1,137,215.2c-.22-1,.95-.64,1.45-1A2.67,2.67,0,0,0,139.88,212.21Z"/><path class="cls-6" d="M214.82,244.46c-.11.91-.14,1.33-.22,1.73-.28,1.25-.45,2.7-2.24,2.47s-2.07-1.78-2.49-3.15c-.16-.51.07-.8.57-.9.17,0,.34,0,.5-.08,2.3-.46,3.29-2.22,4.58-4,1.08-1.47,4.31-.08,5.28-2.14,2.57-5.48,9.16-6.21,12.37-10.88.76-1.11,1.56-1,2,.51.71,2.42,1.23,4.93,3.22,7.42-2.51-.57-4.52-1.05-6.53-1.48-3.18-.68-4.71.1-6.1,3-.61,1.27-1,2.68-2.44,3.41a1.67,1.67,0,0,0-.83,1.21c.13,3.17-1.51,4-4.45,4.52C216.4,246.4,215.87,245.88,214.82,244.46Z"/><path class="cls-7" d="M190.36,117.81c6.92,3.12,12.78,2,18.58-1.14,6.05-3.29,7.17-9.4,8.85-15.26A12.2,12.2,0,0,1,216.31,112c-1.19,2-2.36,3.93-2.5,6.3a2.82,2.82,0,0,1-1.07,1.93c-4.44,4.14-16.06,4.12-20.41-.07C191.79,119.67,191.37,119,190.36,117.81Z"/><path class="cls-7" d="M205.13,132.39c0,1.6-.89,2.34-1.42,3.24a15,15,0,0,0-2.33,9.68c.25,2.05.94,3.79,3.1,4.5s3.62-.11,4.9-2a3.58,3.58,0,0,1,0,4.5,5.17,5.17,0,0,1-5.31,2.25,7,7,0,0,1-5.57-3.95c-2.18-4.42-2-9-.73-13.6a1.87,1.87,0,0,1,1.29-1.42A22,22,0,0,0,205.13,132.39Z"/><path class="cls-7" d="M196.23,111.37c-3.44-.61-7.21-.5-8.63-5.28,2.26.77,4.18.92,6,2,2.51,1.5,5.24,1,7.79-.26a2.75,2.75,0,0,1,2.9-.14c1.87.91,3.46-.72,4.86-1.92a19.84,19.84,0,0,0,1.74-2,12.26,12.26,0,0,1-10.66,10.71c-5.74.91-9.89-.4-11.55-3.85,1.41.44,2.6.93,3.85,1.19A4.44,4.44,0,0,0,196.23,111.37Z"/><path class="cls-7" d="M159.83,121.17c5.62,6.12,10,5.75,20.24-1.72,1.15,2.26.48,4.58.31,6.87a2.09,2.09,0,0,1-1.57,1.78c-4.29,1.57-8.65,2.33-13.17,1.13A8.18,8.18,0,0,1,160,125C159.38,123.76,158.76,122.48,159.83,121.17Z"/><path class="cls-7" d="M155.28,109.26c.85,3.11,2.08,3.91,5,2.81s5.69-2.6,8.54-3.89a32.32,32.32,0,0,1,16-3.25c.66,0,1.82-.3,1.71.87-.08.94-1.1.54-1.69.51-5.21-.3-9.54,1.89-13.64,4.76a35,35,0,0,1-6.42,4.07c-1.35.56-2.73,1.08-3.84-.52-.81-1.16-1.53-.48-2.29.17a3.4,3.4,0,0,1-5.13-.93C152.4,112.21,153,110.59,155.28,109.26Z"/><path class="cls-7" d="M164.29,120.38c-2.65,0-4.58-1.17-5-3.07a1.44,1.44,0,0,1,.22-1.43c.58-.55.86.17,1.24.38,2,1.07,3.83.48,5.52-.54,2.53-1.53,4.94-3.26,7.42-4.88a18,18,0,0,1,11-3.37c.87,0,2.19-.3,2.3.92s-1.26.81-1.95,1a20.68,20.68,0,0,0-8.11,4c-2.24,1.66-4.42,3.41-6.71,5A10.27,10.27,0,0,1,164.29,120.38Z"/><path class="cls-7" d="M149.84,159.68c-1.6.79-2.74,1.76-2,3.62a2.65,2.65,0,0,0,3.11,1.63,3.13,3.13,0,0,0,2.81-3.37c.09-2.26-1-4.05-2.27-5.79-1.67-2.32-2.95-4.74-2.07-7.76.16-.55,0-1.22.87-1.28s1,.49,1.14,1.09c.52,2.56,2,4.65,3.37,6.79a11.66,11.66,0,0,1,2,6.45c0,4.62-3.32,7.64-7.89,7.13a4.23,4.23,0,0,1-3.71-3.35,4.64,4.64,0,0,1,1.15-4.93A2.46,2.46,0,0,1,149.84,159.68Z"/><path class="cls-7" d="M207.83,124.16a18.08,18.08,0,0,0-2.87,6.28c-.11.56-.78,1.09-1.32,1.47a18.21,18.21,0,0,1-16.42,2.76,9.24,9.24,0,0,1-6-5.68c.34,0,.75-.13.92,0,6.26,5.43,15.69,3.14,21.61-2.77C205.61,124.41,205.64,124.44,207.83,124.16Z"/><path class="cls-7" d="M161.83,121.68c5.76.31,9.52-2.41,13.19-5.34a32.62,32.62,0,0,1,7.37-4.93,10.61,10.61,0,0,1,3.91-1,1.16,1.16,0,0,1,1.25,1,.76.76,0,0,1-.57,1c-4.23,1.45-6.75,5-9.79,7.91a13.4,13.4,0,0,1-8.64,3.82A8.21,8.21,0,0,1,161.83,121.68Z"/><path class="cls-7" d="M189.66,114.48A21,21,0,0,0,200,115.72c6.2-.92,10.61-4.76,12-10.81.26-1.1.42-2.55,1.77-2.24,1.11.25,1.66,1.54,1.43,2.92a14,14,0,0,1-1.38,4.34c-3.41,6.53-13.35,10.41-20.23,7.87A6,6,0,0,1,189.66,114.48Z"/><path class="cls-7" d="M217.78,93.5c2.51-.8,3.49-.13,3.82,2.11a60.83,60.83,0,0,1,1.13,8.81c0,3.8-.68,7.37-3.36,10.37-1.84,2-3.23,4.33-.64,6.88.16.16.41.31.17.6a1.07,1.07,0,0,1-1.14.37c-1.62-.42-2.25-1.71-2.56-3.15a7.08,7.08,0,0,1,1.36-5.53,17.23,17.23,0,0,0,2.67-14C218.75,97.81,219.23,95.51,217.78,93.5Z"/><path class="cls-8" d="M184.29,90.86c-4.49,1.62-8.59,3.6-13.13,4.25s-7.95-1.36-8.62-5.08c-.57-3.21,1.47-5.53,4.76-5.18-1.16,1.55-2.37,3.09-1,5s3.54,2.2,5.68,2c3.12-.33,6.21-.86,9.31-1.24A5.12,5.12,0,0,1,184.29,90.86Z"/><path class="cls-8" d="M181.73,124.47c5.32,4.09,9.79,4.22,15.08.59,1.36-.93,1.36-.93,6.29-.29-3.11,4.51-10.09,7.1-15.38,5.72C183.77,129.46,182,127.75,181.73,124.47Z"/><path class="cls-8" d="M158.12,147.94c-.22,1.44.93,2,1.8,2.7a9.08,9.08,0,0,0,3.72,1.55c2.78.61,3.78,2.05,3.58,5.22s-2.08,5.3-4.65,5.47a2.83,2.83,0,0,1-2.31-.8,1.76,1.76,0,0,1-.47-1.11c0-.62.59-.39,1-.47,2.51-.56,3.23-2.12,2-4.42a15.47,15.47,0,0,0-3.37-3.76,14,14,0,0,1-3.55-4.25c-.27-.61-1.13-1.28-.33-2a1.49,1.49,0,0,1,1.4-.21C157.62,146.31,158.46,146.83,158.12,147.94Z"/><path class="cls-7" d="M156,208.92c.52,4.54-.66,7.29-3.68,8.54-.73.31-2,1.75-2.45-.5-.09-.46-.7.07-1,.23a9.61,9.61,0,0,1-6.45.49,12.39,12.39,0,0,0,7.26-7c.27-.64.93-.66,1.54-.63A11.28,11.28,0,0,0,156,208.92Z"/><path class="cls-7" d="M213.16,228.73a32.27,32.27,0,0,1,2.06,3.49c.36.81,1.93,2.06-.54,2.53-.91.18-.12,1.16-.06,1.74.35,3.12-.85,5.71-3.08,6.64-1.36.57-2.1.43-1.94-1.28.29-3.27-.86-6.63.93-9.82.66-1.18,1.88-2.18,1.71-3.76C212.79,227.94,212.9,228.47,213.16,228.73Z"/><path class="cls-7" d="M219.17,236.32a4.74,4.74,0,0,0-1.55-3.72c-1-.94-1.72-2.08-2.62-3.07-2.13-2.31-.87-4.52-.11-6.78.31-.9.89-.52,1.41-.22a9.83,9.83,0,0,1,4.54,5.25c.09.24.28.65.21.71-2.35,1.9.1,3.85-.05,5.78a6.93,6.93,0,0,1-.26,2.23c-.27.6-.61,1.45-1.35,1.31C218.18,237.59,219.25,236.76,219.17,236.32Z"/><path class="cls-7" d="M216.88,209.64a7.93,7.93,0,0,1,4.56,4.39c.31.71.94,1.53-.5,1.95-1.19.35-.22,1.09-.05,1.58,1.21,3.37,1,3.75-2.64,3.55a19.53,19.53,0,0,1-2.73-.49c-.82-.16-1.3-1.05-1.05-1.48.84-1.41.28-2.55-.31-3.74-.75-1.49.63-1.21,1.24-1.47C218,212.83,218.05,212.66,216.88,209.64Z"/><path class="cls-8" d="M197.58,151.87a6.57,6.57,0,0,1-5-4.42,16.57,16.57,0,0,1-.48-9.26,1.68,1.68,0,0,1,1.58-1.62c2.49-.37,2.74-.14,2.34,2.34A21.76,21.76,0,0,0,197.58,151.87Z"/><path class="cls-8" d="M196.13,123.93c-3.89,3.07-9,3.33-12.26.7a5.88,5.88,0,0,1-1.62-7.28c1,.5.74,1.59,1.12,2.36,1.32,2.64,4.52,4.34,7.21,3.22C192.85,122,194.38,122.82,196.13,123.93Z"/><path class="cls-9" d="M157.8,76.14a17.21,17.21,0,0,0-3-7.51c-.31-.4-.71-.9,0-1.18a18.52,18.52,0,0,1,4-1.26c2.46-.32,2.84.23,2.1,2.6a4.3,4.3,0,0,0-.21,3C162.37,75,160.56,75.83,157.8,76.14Z"/><path class="cls-10" d="M157.07,214.39c.18-3.11,0-6,2.82-8.06,1.09-.78,1.19-2.33,1.62-3.62,2.57,2.38,3.19,6.47,1.31,8.83-.32.39-.77,2-1.6.18-.4-.86-.59.15-.73.32A6.2,6.2,0,0,1,157.07,214.39Z"/><path class="cls-9" d="M238.42,123.79a6.57,6.57,0,0,1,6.25,5.34c.21,1.48-.06,2.82-1.72,3.2-1.45.34-2.86.35-3.49-1.52s-1.47-3.6-2.1-5.44C236.83,123.83,236.94,123.74,238.42,123.79Z"/><path class="cls-10" d="M210.64,134.68c-3.21.49-5-1.48-4.25-4.87.92-4,3.52-6.8,7.13-8.68.34-.17.6-.3.87,0a1,1,0,0,1,0,1.39c-.93,1.21-1.87,2.41-2.85,3.58C208.63,129.67,208.49,130.91,210.64,134.68Z"/><path class="cls-10" d="M157.43,117.38a19.56,19.56,0,0,0-7.7,12.72c-.32,1.85-1.9,1.57-3.06,2.15-.68-1.67,0-3,.48-4.32,1.39-4.1,4.18-7.29,7-10.45C155.14,116.36,156.2,116.61,157.43,117.38Z"/><path class="cls-11" d="M158,159.8a17.7,17.7,0,0,0-3.19-7.32,14.39,14.39,0,0,1-2.24-4.79c-.1-.48-.22-1.07.38-1.32s.94.12,1.12.67c1,3.11,3.46,5.14,5.75,7.27a7.11,7.11,0,0,1,2.13,2.8c.43,1.34.18,2.62-1.55,2C159.3,158.75,159,159.72,158,159.8Z"/><path class="cls-12" d="M57.91,180c1.66-1.84,2.52-3.33,2.68-5.41a62.15,62.15,0,0,1,10.3,8.92l-3,2C66.38,181,63.28,179.11,57.91,180Z"/><path class="cls-9" d="M110.4,81a37,37,0,0,0-4.14-6.5c1.78-1,3.6-1.85,4.81-3.72.88,1.88,3.52,2.76,3.57,4.07s-2,2.86-3.17,4.32A17.93,17.93,0,0,0,110.4,81Z"/><path class="cls-8" d="M189.3,122.09a5.24,5.24,0,0,1-5.19-3.94c-.49-2.16.25-3.57,2.36-4.3.87-.3,1.31-.44,1.91.67,1.08,2,1.45,4.23,2.57,6.23C191.79,122.25,189.58,121.43,189.3,122.09Z"/><path class="cls-12" d="M138.36,68.17c0-.59-.05-1.18-.13-1.77-.57-4.3.88-6.16,5.54-7,0,1.84,0,3.69,1.24,5.41-2.56.6-4.75,1.39-5.81,3.81C138.63,69,138.54,68.51,138.36,68.17Z"/><path class="cls-10" d="M150.91,130.46a17.56,17.56,0,0,1,6.51-11.5c.34-.27.74-.48,1.12-.13a1,1,0,0,1,.24,1.14,10.25,10.25,0,0,1-1.3,2.71,6.92,6.92,0,0,0-1.84,3.82C155.43,129.37,153.41,129.84,150.91,130.46Z"/><path class="cls-13" d="M189.8,89c3.56.29,6.63,1.37,8.26,4.92a5.76,5.76,0,0,1,.32,3.37c-2.87-3.25-6.37-4.17-10.21-4.11-.72,0-1.21-.27-1.25-.94-.08-1.06.82-.55,1.27-.61,2-.23,4,.45,6,.79a15,15,0,0,0-7.92-2.91C187.25,88.12,188.6,89.09,189.8,89Z"/><path class="cls-14" d="M223.75,107.83c.52-5.59-.6-10.61-1.74-15.64a7.85,7.85,0,0,1-.1-1.75c0-.84.74-.78,1.26-1,.7-.24,1,.21,1,.75.39,5,1.79,9.83,1.15,14.85A3.45,3.45,0,0,1,223.75,107.83Z"/><path class="cls-8" d="M135.22,236.38c-2.35-.06-4,.74-4.83,3.18-.68,2-1.69,2.06-2.79.24-.57-1-2.85-1-1.55-3.05a4.39,4.39,0,0,1,4.78-2,15.75,15.75,0,0,1,4.38,1.16c.19.11.25.21.19.32S135.28,236.38,135.22,236.38Z"/><path class="cls-11" d="M158.27,161.62c2.49,3,2.56,4.67.37,7a5.13,5.13,0,0,1-7.15.84C156.21,167.49,156.79,166.83,158.27,161.62Z"/><path class="cls-15" d="M190.69,145.64a7.89,7.89,0,0,1-3.31-8.34c.48-1.66,1.56-.78,2.43-.79s1.5.15,1.21,1.31C190.39,140.29,190.74,142.83,190.69,145.64Z"/><path class="cls-16" d="M73.38,178.23a94.1,94.1,0,0,0-8.88-7.8l4.33-2.49a7.86,7.86,0,0,0,4.46,7.14C75.08,176,73.13,176.72,73.38,178.23Z"/><path class="cls-13" d="M65.87,110.34c1.65-4.09,5.28-5.81,10-5.18.29.48-.17.73-.29,1.09-.66,2-1.6,2.7-3.89,2C69.79,107.63,68,108.94,65.87,110.34Z"/><path class="cls-11" d="M127.28,242.66c0,.35-3.69,3.16-4.09,3-1.18-.41-1.24-1.46-1.26-2.48,0-1.87,1.53-3.84,3-3.68C126.77,239.72,127,241.23,127.28,242.66Z"/><path class="cls-17" d="M186.5,101.8c1.31-3,2.51-3.75,5.25-3.38,1,.13,2.06.37,2.42,1.52.31,1-.28,1.61-1.1,2-1,.49-2.32,1-3,0-1.15-1.76-2-.91-3-.05A.36.36,0,0,1,186.5,101.8Z"/><path class="cls-17" d="M86.26,60.13c.36,3-.48,6-.57,9.18L82.08,65a7.07,7.07,0,0,0,3.24-4.38C85.56,60.32,85.68,59.77,86.26,60.13Z"/><path class="cls-18" d="M130.86,241.47a3.09,3.09,0,0,1,2.14,3.18c-.1,1.93-2.08,2.31-3.3,3-.59.35-1.19-1.34-1.17-2.39A3.86,3.86,0,0,1,130.86,241.47Z"/><path class="cls-11" d="M126.53,95.49c-1.86,1.15-3.35,2.61-5.59,2-.46-.14-1.11.77-1.48-.1a2.24,2.24,0,0,1,.22-1.94C120.93,93.14,124.45,93.15,126.53,95.49Z"/><path class="cls-19" d="M234.23,238.14c-2.47,1.38-1.48,3.65-2.33,5.58-.08-2.24-4.61-1.14-3-4.48C230,236.93,231.83,237.16,234.23,238.14Z"/><path class="cls-20" d="M152.36,246.53c-.91-.15-1.82-.27-2.73-.45-.53-.11-1.32.26-1.56-.41s.46-1.19,1-1.61a7.31,7.31,0,0,1,2.95-1.33c.7-.19,1.73-.77,2.08-.1a5.33,5.33,0,0,1,.57,3.28C154.48,246.61,153.24,246.67,152.36,246.53Z"/><path class="cls-21" d="M113.73,40.17l-1.22,1.06c-.67-2.19-.93-4.53-2.75-6.12l-.19-.21.14-.25c2.45.39,4.48,2.18,7.07,1.78,0,1-.8,1.11-1,1.68A2.73,2.73,0,0,1,113.73,40.17Z"/><path class="cls-18" d="M232.94,246.62c0-1.72.2-3,1.91-3a2.15,2.15,0,0,1,2.37,2.35c-.06,1.77-1.72,2.74-2.85,3S233,247.44,232.94,246.62Z"/><path class="cls-17" d="M104.4,84.49a15.92,15.92,0,0,0-7.09-2.07,23.58,23.58,0,0,0,2.25-1.17c2.77-1.86,3.37-1.67,4.77,1.57C104.56,83.36,104.92,83.87,104.4,84.49Z"/><path class="cls-22" d="M235.37,236.06c-.74,1-1.52.58-2.2.43-2.58-.56-4.51.17-5.58,2.71-.22.51-.25,1.3-1.15.88s-.33-1-.14-1.49c1.21-3.48,2.32-4.12,5.89-3.32C233.22,235.5,234.24,235.78,235.37,236.06Z"/><path class="cls-15" d="M226.32,245.28c.05-1.38.39-2.64,2-2.71a2,2,0,0,1,2.28,2.14c-.28,1.44-1.93,2.42-3.13,2.89C226.51,248,226.47,246.22,226.32,245.28Z"/><path class="cls-15" d="M113.18,134.25c-1,.29-.94-.49-.89-1,.2-2.1,1.67-2.94,3.51-3.33.45-.09,1-.17,1.06.63C117,132.29,115.1,134.22,113.18,134.25Z"/><path class="cls-23" d="M111.06,54.09c-.73-.81-1.41-1.66-2.18-2.43s-1.48-1.31-2.44-2.15a11,11,0,0,0,3.74-2.34A19.69,19.69,0,0,0,111.73,54,.41.41,0,0,1,111.06,54.09Z"/><path class="cls-21" d="M108.25,33.52A5.12,5.12,0,0,0,105,31.85a1.75,1.75,0,0,1-1.64-2.06c4.17-.61,5,0,6.38,4.86l.06-.06C108.72,35,108.53,34.2,108.25,33.52Z"/><path class="cls-24" d="M127.08,132.31c-2.1-1.65-2.84-3.54-3.88-5.19a1,1,0,0,1,.12-1.4c.44-.29,1,0,1.39.3C126.51,127.48,126.8,129.54,127.08,132.31Z"/><path class="cls-25" d="M144.32,152.07a11,11,0,0,0,1.22-3.78c0-1.18,1.17-1.11,2-1,1,.09.78.94.63,1.59C147.7,150.7,146.76,152,144.32,152.07Z"/><path class="cls-26" d="M132.18,233.71c-3.26-.75-6-.09-7.75,3.67-.23-3.07,1.5-4.95,4-5.06a9,9,0,0,1,4.38.88C132.8,233.6,132.43,233.57,132.18,233.71Z"/><path class="cls-27" d="M120.38,19.93,123.47,29c-.49.44-.89,1-1.6,1.11l0,0a1.37,1.37,0,0,1,0-1.64c-.1-2.53-1.86-4.57-2.1-7.07C119.86,20.84,119.09,20,120.38,19.93Z"/><path class="cls-28" d="M246.8,144.15c-1.59-1.83-2.32-4.13-3.7-6.19,2.31-.55,3.54-.32,3.27,2.31-.12,1.25.52,2.59.81,3.89C247,144.45,246.92,144.45,246.8,144.15Z"/><path class="cls-15" d="M225.19,241c.32.17,1,.46,1,.54q-.67,2.35-1.52,4.65a.49.49,0,0,1-.84.12c-.85-1.11-.61-2.4-.42-3.64A2,2,0,0,1,225.19,241Z"/><path class="cls-24" d="M126,156.9a2.78,2.78,0,0,1-2.26,1,3,3,0,0,1-3-1.49c-.16-.29-.29-.7.1-.87A3.08,3.08,0,0,1,124,156,12,12,0,0,0,126,156.9Z"/><path class="cls-23" d="M86.31,40.35,85.2,45.57C82.31,42.35,82.31,42.35,86.31,40.35Z"/><path class="cls-23" d="M89,80.34c1.39,1.22,3,1.54,4.51,2.34l-5,1.79C88.6,83.22,88.75,82,89,80.34Z"/><path class="cls-29" d="M142.48,41.39c-.21-1.81.24-3.59,1.17-4.18s2.38,1.15,3.91,1.09A15.63,15.63,0,0,0,142.48,41.39Z"/><path class="cls-14" d="M160.11,168.66a6.88,6.88,0,0,0,1.4-3.37c.13-1.35,1-1.56,1.92-1.22s.33,1.33.1,1.92A3.54,3.54,0,0,1,160.11,168.66Z"/><path class="cls-30" d="M120.42,243.26c-.77-3.23,0-5.11,1.72-5.73.51-.18,1-.24,1.35.24s0,.91-.44,1.17C121.68,239.77,121,241.11,120.42,243.26Z"/><path class="cls-31" d="M121.08,81.23l-5.44,1.47c1.54-1.6,2.34-3.22,4-3.63C120.13,79,120.79,80.33,121.08,81.23Z"/><path class="cls-32" d="M79.17,88.62a51.45,51.45,0,0,1-7.61-4.15c0-.46,0-.78.6-.52,2.54.57,4.26,3,7,3.12C79.82,87.58,79.86,88.1,79.17,88.62Z"/><path class="cls-33" d="M156.68,128.13c-.21-1.65.53-2.69,1.11-4a2.92,2.92,0,0,1,1.61,2.71C159.21,127.83,157.8,127.84,156.68,128.13Z"/><path class="cls-34" d="M113.43,146.59a1.41,1.41,0,0,1-1.14,1.74c-1,.18-1.12-.83-1.2-1.54-.1-1,.26-2.14,1.28-2.16S113.06,145.94,113.43,146.59Z"/><path class="cls-35" d="M151.25,37.91c1.7-.82,3-1.48,3.68-2.77.27-.49.62-.92,1.08-.26.32.47,1.27,1.18.33,1.63C154.88,37.19,153.61,38.64,151.25,37.91Z"/><path class="cls-31" d="M186.5,101.8l.58,0c-.17,1.52-.78,2.26-2.53,2a34.73,34.73,0,0,0-5,0l2-.91A5.22,5.22,0,0,0,186.5,101.8Z"/><path class="cls-29" d="M130.44,34.76c-1.69-.51-3.31-1.13-4-3C129.66,30.26,129.46,33.31,130.44,34.76Z"/><path class="cls-36" d="M137.61,55.17,140.54,51l1.71,2.27Z"/><path class="cls-37" d="M189.8,89c-1.15.39-2.45-.23-3.56.51H180l2-.86C184.62,88.84,187.24,88.3,189.8,89Z"/><path class="cls-38" d="M219.28,77.84c-2-.26-3.63.91-5.44,1.59.53-2,2.28-2.4,3.94-2.92C217.87,77.42,218.83,77.34,219.28,77.84Z"/><path class="cls-39" d="M134.65,36.88c1.08.38,2.36-1.11,3.16.25.18.32-.23,1.46-.51,1.52C136,38.92,135.48,37.65,134.65,36.88Z"/><path class="cls-24" d="M217.88,234.63a17.14,17.14,0,0,1,0,1.94,1.87,1.87,0,0,1-1.38,1.6c-.39.14-.65-.09-.65-.48,0-.73-.54-1.76.85-1.87C217.35,235.77,217.05,234.94,217.88,234.63Z"/><path class="cls-35" d="M113.41,56l2.37,1.37c-1.47,1.79-2.47,1.52-3.07-.65C112.58,56.07,112.81,55.83,113.41,56Z"/><path class="cls-40" d="M118.84,236.86c.28.6-.21,1.4.5,1.89a7,7,0,0,0,0,4.84c-.47.57.3,1.45-.48,2C117.91,242.66,118.25,239.76,118.84,236.86Z"/><path class="cls-41" d="M112.9,103.72c.09-1.41-.67-2.39.47-3.06a1.26,1.26,0,0,1,1.13.35C114.84,102.19,113.85,102.63,112.9,103.72Z"/><path class="cls-42" d="M234.11,147.61a11.23,11.23,0,0,1,2.65,2.59l-.68.61a9.42,9.42,0,0,1-2.61-2.54Z"/><path class="cls-43" d="M138.74,98.36c1.32.7,2.91,1.12,3.08,3l0,0c-1.21-.62-2.12-1.76-3.55-2Z"/><path class="cls-29" d="M62.63,94.08a3.47,3.47,0,0,1,1,2,4.82,4.82,0,0,1-2.76,0Z"/><path class="cls-44" d="M59.26,48.9a4.15,4.15,0,0,1,.08-4.22c.68.56.44,1.16.42,1.72C59,47.11,59.44,48.07,59.26,48.9Z"/><path class="cls-45" d="M61.9,103.06a3.27,3.27,0,0,1,2.18.1,1.69,1.69,0,0,1-1.45,1.49C62,104.63,61.82,103.77,61.9,103.06Z"/><path class="cls-46" d="M78.76,71.8c-1.12-.24-2,.76-2.66-.21a1.24,1.24,0,0,1,.22-1.13C77.39,70,77.84,71,78.76,71.8Z"/><path class="cls-47" d="M135.22,236.38c0-.16,0-.32,0-.48a15.68,15.68,0,0,0,5.1.51l-2.49.87Z"/><path class="cls-48" d="M123,55a7.11,7.11,0,0,1-1.5-3.34,6.51,6.51,0,0,1,1.92,2.86Z"/><path class="cls-49" d="M113.73,40.17a5.33,5.33,0,0,1,2.1-2.06l.63.63-2.08,2.06Z"/><path class="cls-50" d="M61.29,82.74c-1.21-.27-1.85-.66-2.07-1.52,0-.08.33-.38.52-.39C60.9,80.73,60.82,81.72,61.29,82.74Z"/><path class="cls-51" d="M120.36,202.68c.49,1.14-.38,2.47.51,3.54l-.51,1.58-.17.35-.18-.35A12.64,12.64,0,0,1,120.36,202.68Z"/><path class="cls-52" d="M113.41,56l-.7.72-1.65-2.58.67-.11Z"/><path class="cls-53" d="M98,111.07c.14,1,1.09,1.67.8,2.81A4.3,4.3,0,0,1,97,111.53l.53-.57C97.77,110.75,97.91,110.79,98,111.07Z"/><path class="cls-54" d="M250.88,216l-2.77.26a2.37,2.37,0,0,1,2.77-1.2Z"/><path class="cls-55" d="M102.18,117.09l-1-2.52.51-.55a4.7,4.7,0,0,1,1.06,2.52C102.93,117.11,102.63,117.18,102.18,117.09Z"/><path class="cls-56" d="M200,181.29c.54-.38.38-1,.5-1.53a3.48,3.48,0,0,1,.33,3.07A1.58,1.58,0,0,1,200,181.29Z"/><path class="cls-16" d="M246.8,144.15a1,1,0,0,0,.38,0c.53.85,1.06,1.71,1.6,2.56l-.45.49A7.88,7.88,0,0,1,246.8,144.15Z"/><path class="cls-57" d="M78.64,84.58a3.58,3.58,0,0,1-.3-3.12,2.94,2.94,0,0,1,.79,2.09Z"/><path class="cls-58" d="M101.16,107.88a1.9,1.9,0,0,1,.81,2.23c-.73-.34-1-1-1.39-1.63Z"/><path class="cls-59" d="M105,100.24c.58-.55,1.13-.61,1.1.34,0,.69.63,1.6-.42,2.07a7.85,7.85,0,0,1-.49-.81C105.43,101.27,105,100.78,105,100.24Z"/><path class="cls-60" d="M103.42,54.74c-.68.21-1.41.64-1.75-.23-.06-.15.14-.52.32-.63C103,53.28,102.9,54.47,103.42,54.74Z"/><path class="cls-61" d="M118.89,245.55c.1-.67-.48-1.51.48-2a2.06,2.06,0,0,0,1.9,1.62C120.18,245.67,119.55,245.82,118.89,245.55Z"/><path class="cls-62" d="M108.25,33.52l1.52,1.07v.52l-.6.64-1.54-1.59Z"/><path class="cls-63" d="M225.3,87l1.55-1.62.62.68A2.68,2.68,0,0,1,226,87.68Z"/><path class="cls-52" d="M58.33,62.83c-.12.22.12.79-.4.67a1.48,1.48,0,0,1-.86-.77c-.16-.36.21-.54.56-.62C58.23,62,58.34,62.33,58.33,62.83Z"/><path class="cls-45" d="M80.33,183.3l-.8.11a2.59,2.59,0,0,1-1.32-2.07c.14-.22.26-.2.34,0Z"/><path class="cls-64" d="M246.82,162.47l.6-.57c.56.61.4,1.34.46,2.62A3.29,3.29,0,0,1,246.82,162.47Z"/><path class="cls-65" d="M76.64,47.34c.3-.81.35-2.31,1.58-.58C78.09,48,77.33,47.58,76.64,47.34Z"/><path class="cls-58" d="M56.82,53.5a3,3,0,0,1-2.59.37c.33-.71,1-.62,1.58-.8Z"/><path class="cls-66" d="M127.12,54.52c.32-.65.62-1.31,1.56-1.52a2.68,2.68,0,0,1-1.05,2.06Z"/><path class="cls-67" d="M98,111.07l-.43-.11c0-.63-.84-1-.52-1.78.89.06,1.14.75,1.46,1.37Z"/><path class="cls-68" d="M181.06,94.2l-.57-.54a1.82,1.82,0,0,1,2.29-.31Z"/><path class="cls-69" d="M76.64,47.34c.58-.05,1.24.11,1.58-.58.38.19.82.68.5.87A1.49,1.49,0,0,1,76.64,47.34Z"/><path class="cls-70" d="M157.6,230.83c.55-.06,1.32-.37,1.52.24s-.53.65-1,.64Z"/><path class="cls-16" d="M105,100.24c.62.46.81,1,.19,1.6C105.3,101.29,103.16,101,105,100.24Z"/><path class="cls-71" d="M97.59,116.05c.52.47.52,1.1.67,1.93-.94-.23-.93-.91-1.13-1.42Z"/><path class="cls-72" d="M237.68,236.9l.06.91H235Z"/><path class="cls-73" d="M200.42,241.49c-.34-.6-1.13-1.2-.52-1.88.23-.26.85.32,1,.84Z"/><path class="cls-74" d="M127.23,90.16l-1.08,1.54-.57,0c.32-.51.64-1,1-1.54A.42.42,0,0,1,127.23,90.16Z"/><path class="cls-75" d="M120,207.8h.35c0,1,0,2.1,0,3.14l-.21,0-.21,0Z"/><path class="cls-76" d="M86.26,60.13l-.94.49c-.06-.66-.22-1.48.7-1.56C86.39,59,86.38,59.71,86.26,60.13Z"/><path class="cls-77" d="M107.76,106.9c.45.63.76,1.44.24,2-.31.3-.63-.48-.78-.91Z"/><path class="cls-78" d="M94,114.58c.35.4.7,1.09.31,1.32-.61.38-.63-.44-.84-.82Z"/><path class="cls-79" d="M247.81,135.47c.05-.42.26-.93.7-.66s.2.83-.15,1.2Z"/><path class="cls-80" d="M138.36,68.17l.84.47c-.08.47-.27,1.17-.7,1S138.21,68.69,138.36,68.17Z"/><path class="cls-81" d="M132.18,233.71l.67-.51c.45.09,1.36.09,1.19.48C133.61,234.64,132.83,233.63,132.18,233.71Z"/><path class="cls-38" d="M183.57,140.16c-.27-.61-.77-1.29-.14-1.85.24-.21.58.36.65.77Z"/><path class="cls-82" d="M105.21,112c-.16-.5-.31-1-.46-1.5l.51-.58.48,1.11C106,111.54,106.12,112,105.21,112Z"/><path class="cls-83" d="M78.55,181.39l-.18,0-.16-.08c-.76-.38-.7-1-.37-1.64A2.31,2.31,0,0,1,78.55,181.39Z"/><path class="cls-84" d="M108.79,92.68h.39c0,.84.09,1.68.14,2.51l-.53.06Z"/><path class="cls-85" d="M213.16,228.73l-.92-.46.06-.9C213,227.57,213.06,228.15,213.16,228.73Z"/><path class="cls-86" d="M101.58,155.34c-.13-.33.81-1-.22-1-.52,0-1.19.31-.84-.45.54-1.21.51-2-.86-2.25A3.22,3.22,0,0,0,96,153.26c-.49.86-.21,1.79-.31,3.08a2.84,2.84,0,0,1-.79-3.73,4.39,4.39,0,0,1,4.73-2.27c2.71.34,3.28,2.66,3.77,4.83.38,1.71.46,3.43-1.92,4.2-.23-.89.45-1.39.71-2C103,156.39,101.16,156.2,101.58,155.34Z"/><path class="cls-87" d="M95,100.38l3.63-.68-7.79-6.5c2.79.19,3.9,2.24,5.59,3.32.76.48,1.34,1.76,2.22,1.38s.24-1.66.34-2.53a8.58,8.58,0,0,1,.44-2.53c.5,2.26,1,4.52,1.51,6.78.22.93-.2,1.22-1,1.23l-4.3.08C95,101.16,94.91,100.87,95,100.38Z"/><path class="cls-88" d="M46.1,91.6c2.78.68,4.94,2.84,8,3.6-.39-2.12-1.48-3.91-.79-5.92.66,1.77,1.21,3.53,2,5.2,1.38,3.07,1.43,3-2,3.37-.48.13-1.07.51-1.08-.46.41-.12.83-.2,1.22-.35.12-.05.18-.27.29-.45l-8.17-4.43C45.44,91.69,45.57,91.46,46.1,91.6Z"/><path class="cls-89" d="M56.29,111.59a13.18,13.18,0,0,1,6.92-2.08L57.3,120.46c0-3.45,2-6,3.53-9-1.57-.29-2.73.59-4,.73C56.28,112.3,56.16,112.06,56.29,111.59Z"/><path class="cls-27" d="M77.2,121.69l-.66-6.89c-1.3.77-1.72,2.15-2.93,2.58a.55.55,0,0,1-.07-.79c.42-.53.85-1,1.26-1.59,2.41-3.2,3-3.12,5.2.71-1,.1-1.22-1.11-2.31-1.14v2C77.74,118.26,78.63,120.09,77.2,121.69Z"/><path class="cls-32" d="M66,195.6l-.19-2.12c-2.29.91-2.92,3.6-5.27,4.26a20.05,20.05,0,0,1,4.72-5.21c.52-.34,0-1.15.66-1.45,1.1-.24,1.58.08,1.34,1.29-.2,1.06-.28,2.15-.41,3.23A.5.5,0,0,1,66,195.6Z"/><path class="cls-90" d="M58.77,168.59c-.19-1.8-.89-3.62.23-5.49a4.39,4.39,0,0,1,.32,2.57c0,1.64,1.13,3.17.54,4.85-.12.32-4.61.28-6.63,0a5.5,5.5,0,0,1,2.86-.42A3.9,3.9,0,0,0,58.77,168.59Z"/><path class="cls-91" d="M58.77,168.59c0,2.06-1.51,1.48-2.68,1.49,1-.36,2-.65.45-1.78a28.87,28.87,0,0,1-5.28-5.17C54.74,164.41,56.06,167.46,58.77,168.59Z"/><path class="cls-91" d="M79.17,172.68c2.44-1,3.33-3.73,5.8-4.74a17.44,17.44,0,0,1-4.71,5.27,1.16,1.16,0,0,1-.69.36c-.43,0-.87-.11-.93-.61C78.61,172.67,78.92,172.63,79.17,172.68Z"/><path class="cls-92" d="M79.17,172.68c-.22.54.22.45.49.52.06.94,1.61.33,1.51,1.44l-1.93.17c-1.08.29-1.49-.06-1.16-1.17l.16-1.46c.64-1.26-.61-2.92.86-4Z"/><path class="cls-86" d="M65.93,191.08a1.44,1.44,0,0,1-.66,1.45c-1.59-1.18-3.66.23-5.26-1.25C62,191.84,63.94,190.93,65.93,191.08Z"/><path class="cls-93" d="M81.17,174.64c-.3-.69-2,.07-1.51-1.44h.6c1.44,1.18,3.52,0,5,1.43Z"/><path class="cls-94" d="M77.2,121.69c.91-1.65.19-3.46.49-5.17a11.23,11.23,0,0,1,.35,5.27C78,122.81,77.4,122.62,77.2,121.69Z"/><path class="cls-95" d="M79.1,168.18c-.92,1.2.07,2.8-.86,4v-5C79,167.19,79,167.74,79.1,168.18Z"/><path class="cls-93" d="M101.58,155.34c1,.44,1.43,1,.61,2-.4-1.65-1.34.65-1.91-.4Z"/><path class="cls-96" d="M52.23,97.39l1.08.46-3.1,1.05c-.54.18-.65-.07-.53-.54Z"/><path class="cls-82" d="M66,195.6h.85c0,.82.08,1.64.13,2.86A3.05,3.05,0,0,1,66,195.6Z"/><path class="cls-66" d="M102.56,164.68c-.36,1.34-1,1.54-2,1.26C100.94,165.15,101.65,165,102.56,164.68Z"/><path class="cls-27" d="M100.33,163.38a1.5,1.5,0,0,1,1.26-1.22.35.35,0,0,1,.37.5C101.72,163.28,101.27,163.58,100.33,163.38Z"/><path class="cls-97" d="M127.23,90.16l-.68,0a3.26,3.26,0,0,1,2.19-1.85A3.6,3.6,0,0,1,127.23,90.16Z"/><path class="cls-98" d="M95,100.38l.6.55a3.09,3.09,0,0,1-2.69.24A3.28,3.28,0,0,1,95,100.38Z"/><path class="cls-99" d="M102.18,117.09l.53-.55a3.07,3.07,0,0,1,.6,2.38C102.32,118.63,102.51,117.7,102.18,117.09Z"/><path class="cls-98" d="M102.37,168c0,.62-.46.73-.83.82a.72.72,0,0,1-.52-.21c0-.48.44-.65.81-.78C102,167.76,102.2,167.92,102.37,168Z"/><path class="cls-100" d="M105.21,112l.52-1c.44.62.78,1.43.22,1.94C105.64,113.22,105.37,112.4,105.21,112Z"/><path class="cls-101" d="M103.21,120.33c1.25.52.73,1.17,1.05,1.76C103.2,121.69,103.77,121,103.21,120.33Z"/><path class="cls-102" d="M46.1,91.6l-.53.56-1.67-.67A1.82,1.82,0,0,1,46.1,91.6Z"/><path class="cls-103" d="M49.68,98.36l.53.54c-.39.32-1,.81-1.28.41C48.5,98.72,49.29,98.59,49.68,98.36Z"/><path class="cls-104" d="M73.54,116.59c0,.26,0,.52.07.78-.33.32-.93.9-1.1.53C72.22,117.24,73.1,117,73.54,116.59Z"/><path class="cls-105" d="M78.08,173.64a1.39,1.39,0,0,0,1.16,1.17c-.41.27-.87.54-1.29.12S77.8,174.05,78.08,173.64Z"/><path class="cls-106" d="M56.29,111.59l.53.55c-.42.32-1,.89-1.38.33C55.16,112.06,55.87,111.78,56.29,111.59Z"/><path class="cls-107" d="M98.87,120.85a3.31,3.31,0,0,1-.4-.75,2,2,0,0,1,.12-.62c.14.17.35.32.4.51A2.74,2.74,0,0,1,98.87,120.85Z"/><path class="cls-108" d="M168.63,141.28c1-.56,1.71-2.4,3.23-.53.74.9,1.71-.14,2.48-.55a8.12,8.12,0,0,0,2.85-3.2c.48,2.18-.45,3.15-2.79,4.8S170.55,141.37,168.63,141.28Z"/><path class="cls-109" d="M208.92,193.36c.17-.25.2-.35.26-.38a2.61,2.61,0,0,1,2.9.78.43.43,0,0,1-.14.77C210.69,194.74,209.88,193.9,208.92,193.36Z"/><path class="cls-110" d="M212.36,199.43c-1.65.9-2.49.12-3.36-.49a.73.73,0,0,1,.19-.58C210.41,197.9,211.18,198.73,212.36,199.43Z"/><path class="cls-111" d="M212.14,202.22c-1.85.77-2.54-.3-4.13-.86C210.13,200.4,210.82,201.48,212.14,202.22Z"/><path class="cls-112" d="M212.26,196.94c-1.47.61-2.2,0-3.22-.66C210.45,195.29,211.2,196,212.26,196.94Z"/><path class="cls-113" d="M165.7,141.47c.18-.83.26-1.75,1.34-2.23C167.4,140.5,166.74,141.08,165.7,141.47Z"/><path class="cls-114" d="M174.55,190.13c1.2,1.11,2.5,1.84,1.86,4.11C175.48,192.8,174.27,192,174.55,190.13Z"/><path class="cls-115" d="M179.53,194.08l-2.65-3C179,191.07,179.74,191.9,179.53,194.08Z"/><path class="cls-114" d="M180.78,190.57c1.33.59,2.05,1.27,1.7,2.82A3.3,3.3,0,0,1,180.78,190.57Z"/><path class="cls-116" d="M172.39,190.93c1.3.87,1.83,1.6,1.4,2.93C172.71,193.24,172.47,192.36,172.39,190.93Z"/><path class="cls-117" d="M121,71.86c.93.94,1.49,0,2.12-.44a52.57,52.57,0,0,1,5.59-3.9c-1.28,2.66-4.28,3.65-6.13,6.06,1.82.55,3.6.3,5,1.61-2.35-.13-4.69-.46-7,0-.88.19-.86-.53-.72-1.18.26-1.24.48-2.49.71-3.74C121.71,70.52,121.12,71.26,121,71.86Z"/><path class="cls-118" d="M95,66.19,100.37,72l.79-4.22c1-.07.64.53.5,1-.26,1.9.82,4.49-.51,5.51-1,.76-3.47-.38-5.28-.68-.63-.11-1.26-.24-2.31-.44,2-.85,3.59-.18,5.42-.58-1.07-2.4-3.35-3.76-4.54-5.89C94.25,66.19,94.49,66.07,95,66.19Z"/><path class="cls-94" d="M121,71.86a2.14,2.14,0,0,0-.46-1.54c0-.35,0-.71,0-1.06.63-.27-.46-1.59.87-1.44C121.4,69.18,121.81,70.58,121,71.86Z"/><path class="cls-119" d="M121.37,67.82l-.87,1.44c0-.56-.07-1.12,0-1.69,0-.34-.1-.93.52-.79C121.4,66.89,121.38,67.41,121.37,67.82Z"/><path class="cls-120" d="M101.66,68.82c-.17-.34-.34-.68-.5-1,.15-.53.17-1.13.75-1.53A2.77,2.77,0,0,1,101.66,68.82Z"/><path class="cls-121" d="M95,66.19l-.54.55A2.45,2.45,0,0,1,93.52,65C94.44,65,94.62,65.7,95,66.19Z"/><path class="cls-122" d="M198.37,83.43a4.16,4.16,0,0,1-2.42.64c-.79-.07-1.92.13-.82-1.33.5-.67-.08-1.51-.71-2.22a3.67,3.67,0,0,1,.58-4.76,1.52,1.52,0,0,1,1.66-.22c.27.13.63.47.61.7-.06,1.13-.87.24-1.27.43a2.25,2.25,0,0,0-1.08,2.16c0,1,.88,1.09,1.65,1.11,1.27,0,2.55,0,3.82,0,1.73.07,1.92.2,3.54,2.26-2.41-1.53-4.41-1.12-6.38-1-.5,0-1.06,0-1.13.71-.1,1,.6,1,1.31,1C198.27,82.68,198.41,82.94,198.37,83.43Z"/><path class="cls-123" d="M213,83.87c2.69.54,4.16-1.88,6.32-2.39,2.48-.59,4.12,1.42,6.6,2.12a2.91,2.91,0,0,1-3.39-.26c-1.64-1.15-3.09-.92-4.63.23S214.78,85.59,213,83.87Z"/><path class="cls-124" d="M198.37,83.43l-.64-.5a3.07,3.07,0,0,1,3.41-.14Z"/><path class="cls-32" d="M68.63,65.78a17.88,17.88,0,0,1,5.42-.53c-2.12-2.63-4.82-4.16-6.67-7.22,2.63,1.08,3.74,3.06,5.39,4.39.44.36.82,1,1.46.83s.38-1,.41-1.55a5.06,5.06,0,0,1,.85-3.34,33.43,33.43,0,0,0,.92,6.86c.3,1-.22,1.11-1.06,1.08-1.94,0-3.88,0-5.83,0C69,66.48,68.54,66.65,68.63,65.78Z"/><path class="cls-107" d="M68.63,65.78l.89.5c-.48.32-1.1.7-1.51.2S68.26,65.89,68.63,65.78Z"/><path class="cls-121" d="M72.16,84l-.6.52-1.43-.55c0-.88.45-.68.94-.46Z"/><path class="cls-125" d="M71.07,83.46l-.94.46c-.35-.14-1-.31-.59-.72S70.59,83.14,71.07,83.46Z"/><path class="cls-126" d="M148.1,54.41a1.32,1.32,0,0,1,.39.15c.33.2.74.35.47.87.37,1.81,2.92,1.08,3.36,3-1.89-.66-3.71-1.21-5.47-1.93s-.12-1.37.11-2.06A.92.92,0,0,1,148.1,54.41Z"/><path class="cls-127" d="M149,55.43l-.48-.87,7.11-2.22.26.69C153.77,54.33,151.21,54.51,149,55.43Z"/><path class="cls-128" d="M148.1,54.41l-1.14.07A6.84,6.84,0,0,1,148.52,52c.14-.18.28-.19.43,0C148.67,52.76,148.39,53.59,148.1,54.41Z"/><path class="cls-129" d="M149,51.93l-.43,0a2.09,2.09,0,0,1,.75-1.68A1.14,1.14,0,0,1,149,51.93Z"/><path class="cls-32" d="M76.05,37.69l1.34,1.23,1.07-4.48.57.07c-.12,2.15-.18,4.31-.4,6.45-.09,1-.88.46-1.39.36l-6.51-1.4a11.84,11.84,0,0,1,5.45.08c.45-.85-.52-1.13-.63-1.73S75.62,37.66,76.05,37.69Z"/><path class="cls-27" d="M76.05,37.69l-.5.58a18.57,18.57,0,0,1-3.08-4.56c-.17-.53.09-.68.57-.62A19.41,19.41,0,0,1,76.05,37.69Z"/><path class="cls-96" d="M73,33.09l-.57.62a3.67,3.67,0,0,1-1.23-2C72.28,31.7,72.65,32.42,73,33.09Z"/><path class="cls-88" d="M101.55,43.18c0-.09,0-.21.06-.24a1.15,1.15,0,0,1,.34-.13c.22,2.09.45,4.17.67,6.26.08.79-.34,1-1.08,1-1.9-.13-3.8-.2-6.17-.31,1.65-1.4,3.26-.58,4.79-1.1-1.7-2.61-4.79-3.75-6.4-6.32a.53.53,0,0,1,.78-.08,50,50,0,0,1,6.06,5.1c1.49-.21.43-1.36.74-2A4.9,4.9,0,0,1,101.55,43.18Z"/><path class="cls-130" d="M101.54,45.91c-.15.65.37,1.42-.31,2,0,0-.41-.36-.63-.56.5-.4.43-1,.55-1.55C101.37,45.58,101.5,45.64,101.54,45.91Z"/><path class="cls-131" d="M101.54,45.91l-.39-.15c0-.88-.19-1.8.4-2.58C101.55,44.09,101.55,45,101.54,45.91Z"/><path class="cls-57" d="M94.54,42.21l-.78.08-.85-1.23C93.92,41.11,94.16,41.75,94.54,42.21Z"/><path class="cls-86" d="M167.3,63.6c2.45,1.35,5.27.77,7.85,1.51a4.5,4.5,0,0,1,1.43.46c-3.07,1.12-6.12-.59-9.36-.23.67,1.67,2.81,2.42,2.69,3.73-1-.77-2.3-1.84-3.68-2.75-2.31-1.53-1.54-2.45.51-3.22C167.26,62.9,167.35,63.17,167.3,63.6Z"/><path class="cls-132" d="M167.3,63.6l-.56-.5L169.3,61A3.23,3.23,0,0,1,167.3,63.6Z"/><path d="M122,28.45c0,.55,0,1.09,0,1.64-.88-.72-2.08-1.2-2-2.65l0,0C120.61,27.79,121.06,28.58,122,28.45Z"/><path class="cls-128" d="M120,27.44c-1.13.78-1.56-.29-2.47-.78,1.27-.4,1.83.28,2.45.82Z"/><path class="cls-133" d="M120.38,19.93c-.49.37-.42.94-.52,1.45a2,2,0,0,1-.37-1.67c.06-.35.23-.68.64-.44C120.29,19.37,120.31,19.7,120.38,19.93Z"/><path class="cls-126" d="M142.33,30.94a18.94,18.94,0,0,1,2.59-6.85c.18,2.65-1.56,4.83-1.74,7.45L146.89,30c.54-.17.65.07.53.55a40.69,40.69,0,0,0-4.24,2.64c-1.57,1.24-1.79.34-2-1C140.84,31.11,142.14,31.52,142.33,30.94Z"/><path class="cls-74" d="M140.43,30.47l-1.13-2.15c1.19.13,1.33.93,1.58,1.63S140.85,30.53,140.43,30.47Z"/><path class="cls-121" d="M140.43,30.47l.45-.52c.49.32.58,1.23,1.45,1l-1.1,1.25C141,31.62,140.7,31,140.43,30.47Z"/><path class="cls-134" d="M147.42,30.51l-.53-.55c.49-.34,1.19-.76,1.52-.23S147.86,30.35,147.42,30.51Z"/><path class="cls-86" d="M163.2,35.75c2.25-.77,4.2-2.27,6.57-2.75.58-.25.63.07.56.52-2.26,1.47-5.09,1.84-7.15,3.71,0,1-.52.67-1,.48-2.91-.44-.82-1.63-.39-2.57C162.52,34.68,162.49,36.09,163.2,35.75Z"/><path class="cls-126" d="M163.2,35.75c-.81.56-1-.37-1.44-.61l1.51-3.55c1-.07.74.48.53,1C163.9,33.72,162.37,34.51,163.2,35.75Z"/><path class="cls-135" d="M162.15,37.71l1-.48,2.13.92a.79.79,0,0,1-.51.48Z"/><path class="cls-136" d="M163.8,32.61l-.53-1A2.34,2.34,0,0,1,164,30,2.44,2.44,0,0,1,163.8,32.61Z"/><path class="cls-129" d="M170.33,33.52l-.56-.52a2.16,2.16,0,0,1,2.09-.31C171.56,33.4,170.85,33.28,170.33,33.52Z"/><path class="cls-137" d="M164.8,38.63l.51-.48c.38.1.95.3.71.67C165.69,39.34,165.22,38.73,164.8,38.63Z"/><path class="cls-86" d="M100.46,25.4c0,2.17-.68,2.87-2.78,1.59a15.46,15.46,0,0,0-5.21-1.74c2-.87,3.54.11,5.5.47-.39-2.68-2.57-4.41-3.09-6.81-.24-.56.06-.62.5-.55,1.18,2.11,2.42,4.18,3.49,6.34.45.9.67.68,1.1.11C100.34,24.83,100.33,25.17,100.46,25.4Z"/><path class="cls-138" d="M100.46,25.4c-.16-.2-.32-.4-.49-.59.09-.55-.06-1.18.69-1.67C101.11,24,100.52,24.69,100.46,25.4Z"/><path class="cls-139" d="M95.38,18.36c-.16.19-.33.37-.5.55-.38-.49-.78-1.23-.26-1.54S95.19,18,95.38,18.36Z"/><path class="cls-93" d="M148.89,82.09c-2.53-.59-4.39-2.67-7-3.12-.35.14-.63.11-.63-.33s.38-.63.76-.75h.35l7,3.71C149.5,82,149.44,82.31,148.89,82.09Z"/><path class="cls-121" d="M140.35,77.41c1.45-.87,3.14-.73,5-1.46-.72,1.65-2.24,1.12-3,1.94l-.12.08A2,2,0,0,1,140.35,77.41Z"/><path class="cls-58" d="M141.92,79.34a4.6,4.6,0,0,1,.7,4.25l-1.22-3.66C141.5,79.66,141.57,79.38,141.92,79.34Z"/><path class="cls-140" d="M141.92,79.34l-.52.59c-.38-.83-1.1-1.51-1.05-2.52a2.93,2.93,0,0,1,1.92.56c-.08.35-.78.47-.36,1A2.26,2.26,0,0,1,141.92,79.34Z"/><path class="cls-141" d="M148.89,82.09l.5-.49c.41.18,1.27.26,1,.71S149.38,82.45,148.89,82.09Z"/><path class="cls-32" d="M53.22,77l2.16-.64-8.49-5.17c3.33,0,5.46,2.67,8.54,3.69.26-1.81-1.37-3.27-.43-5.12.83,2,1.59,4,2.46,5.92.47,1.05,0,1.41-.9,1.56s-1.52.18-2.28.26C53.75,77.66,53.2,77.91,53.22,77Z"/><path class="cls-129" d="M53.22,77l1.06.5a7.85,7.85,0,0,1-3.4.88C51.4,77.16,52.34,77.11,53.22,77Z"/><path class="cls-142" d="M141.82,101.36a1.17,1.17,0,0,1,1.36.87c-.92.36-1-.45-1.34-.9Z"/></svg>