<svg id="Layer_1" data-name="Layer 1" xmlns="http://www.w3.org/2000/svg" viewBox="0 0 300 300"><defs><style>.cls-1{fill:#006f51;}.cls-2{fill:#e8b23a;}.cls-3{fill:#c1bfc3;}</style></defs><path d="M24.66-.61H275.34a1,1,0,0,1,1,1V176.59A123.39,123.39,0,0,1,152.94,300h-5.65A123.62,123.62,0,0,1,23.67,176.37V.38a1,1,0,0,1,1-1Z"/><path class="cls-1" d="M149.92,37.46c2.89,4.92,5.33,9.24,7.93,13.46,1.66,2.68,1.2,3.93-2.08,3.67s-3.76.68-2,3.51c3.42,5.58,6.52,11.35,9.89,17,1.68,2.79,1.46,4.2-2.15,3.85-3.83-.37-4.48.79-2.46,4.15,5,8.27,9.69,16.68,14.89,25.67,4.17-7.17,8-13.76,11.84-20.36.57-1,1.13-2,1.66-3,1-1.87,3.31-3.75,2.6-5.57-.76-2-3.57-.67-5.46-.89-2.78-.32-1.55-1.7-.87-2.89,3.41-5.92,6.77-11.87,10.31-17.71,1.67-2.76,1.58-4.16-2.09-3.74-3.51.39-3.5-1-2-3.55,2.58-4.24,5-8.57,8-13.67,3.11,5.43,6.07,10.18,8.57,15.15,1.17,2.32-1.25,2.11-2.46,2-4.28-.35-3.63,1.44-2.05,4.08,3.36,5.62,6.52,11.36,9.88,17,1.41,2.35,1.52,3.4-1.8,3.39-5.28,0-5.31.18-2.57,4.93,4.67,8.11,9.38,16.2,14.4,24.88,5.5-9.55,10.66-18.53,15.83-27.52,1-1.72.18-2.31-1.5-2.33-1,0-2-.08-3,0-2.79.17-2.76-.94-1.56-3,3.41-5.76,6.74-11.56,10-17.38.6-1.07,1.58-2.07,1.3-3.49-6.6-1.26-6.61-1.27-3.09-7.45,1.82-3.2,3.68-6.37,5.93-10.26,3.07,5.32,5.84,10.06,8.53,14.84,1.54,2.74-.69,2.47-2.15,2.33-4.17-.39-4.14,1.09-2.29,4.16,3.88,6.41,7.52,13,11.42,19.75l-2.23.44c-1.88.39-4.68-1-5.47.93-.68,1.7,1.78,3.32,2.92,4.9q6.75,9.35,13.71,18.54a11,11,0,0,1,2.35,7.08c-.09,20.65,0,41.29-.09,61.94,0,5-.53,9.94-.83,14.91-.16,2.73-1.28,3.7-4.16,2.84a65.71,65.71,0,0,1-12.5-5.42c-6-3.22-11.86-6.87-18.85-7.69a30.94,30.94,0,0,0-18.18,3.4c-4.8,2.49-9.58,5-14.43,7.41-8.67,4.27-17.3,4-25.84-.46-4-2.1-8.13-4.11-12.13-6.3-11.14-6.1-22.06-5.41-32.92.75-3.34,1.9-6.77,3.63-10.18,5.41-9,4.66-18,4.87-27,.27-4.56-2.33-9.06-4.79-13.63-7.09-9.56-4.8-19.1-4.78-28.73,0-6.62,3.27-12.85,7.32-20,9.57-3.49,1.1-4.72.44-4.95-3.43-1.59-25.89-.28-51.81-.75-77.7a7.86,7.86,0,0,1,1.95-5q7.9-10.6,15.72-21.3c.62-.84,2-1.65,1.27-2.89-.54-1-1.81-.52-2.77-.56-5.29-.23-5.27-.2-2.52-5,3.56-6.14,7.07-12.3,10.55-18.37-.39-.45-.54-.81-.73-.83-6.39-.68-6.41-.69-3.14-6.45,1.95-3.42,3.95-6.8,6.33-10.89,3.07,5.32,5.76,9.95,8.41,14.59,1.44,2.53-.39,2.66-2.06,2.52C56,54.21,56.53,56,58.3,58.85c3.27,5.34,6.23,10.86,9.47,16.22,1.63,2.68,1.77,4-2,3.92-4.78,0-4.81.21-2.4,4.37,4.76,8.22,9.53,16.45,14.7,25.39,3.62-6.22,6.87-11.81,10.11-17.4,1.21-2.09,2.44-4.17,3.6-6.3.95-1.73,2.9-3.9,2.45-5.18-.72-2-3.51-.69-5.39-.92-3.27-.41-1.42-2.1-.8-3.21,3.28-5.83,6.59-11.65,10-17.37,1.56-2.57,2-4.18-1.9-3.77s-3.52-1.19-1.94-3.76c2.58-4.2,5-8.53,7.78-13.4,3,5.1,5.46,9.54,8.11,13.89,1.42,2.35,1,3.48-1.81,3.24-4.54-.38-3.78,1.51-2.09,4.29,3.25,5.35,6.21,10.87,9.48,16.22,1.69,2.78,1.58,3.93-2.08,3.91-4.68,0-4.7.16-2.3,4.34,4.73,8.25,9.49,16.48,14.66,25.43,4.45-7.69,8.56-14.76,12.65-21.82.5-.87,1-1.74,1.47-2.61,2.78-4.87,2.79-5-2.95-5.36-2.54-.17-2.52-1-1.44-2.87,3.47-5.89,6.82-11.84,10.33-17.71,1.52-2.54,2-4.19-2-3.8-2.88.29-4.11-.31-2.15-3.39C144.65,46.92,147.05,42.43,149.92,37.46Z"/><path class="cls-2" d="M34.5,81.18h8.8C38,88.39,33.14,95,28.2,101.74c-1.19-1.26-.71-2.44-.71-3.49,0-30.19,0-60.37-.1-90.56,0-3.19.59-4.28,4.1-4.28q118.32.18,236.63,0c3.47,0,4.52.77,4.5,4.4-.15,31.17-.09,62.35-.09,95L256.66,81.3h8.8c-4.86-8.47-9.35-16.3-14.12-24.6l7.91-.35L245.82,33.12C241.29,41,237,48.41,232.37,56.41h8.08L226.33,81h9l-13.49,23.51L208.5,81.37h9.05l-14.2-24.81h8.05L197.91,33.11C193.33,41,189,48.5,184.42,56.44h8.09l-14.2,24.72h9.07L174,104.55,160.61,81.47h9.06L155.46,56.63h8c-4.65-8.06-9-15.55-13.55-23.52L136.5,56.42h8.07L130.38,81.19h9.05c-4.58,8-8.86,15.42-13.42,23.34L112.58,81.26h9.07L107.5,56.64h8.11L102,33.11,88.58,56.39h8L82.47,81.2h9L78.08,104.52l-13.32-23h9L59.59,56.6h8.06L54.1,33.1,40.65,56.4h8.08Z"/><path class="cls-1" d="M149.76,296.69c-29.68-.95-55.65-11.59-78.5-30.27a123.37,123.37,0,0,1-29.05-34.91c-1.63-2.86-1.46-4.39,1.75-5.7a78.16,78.16,0,0,0,8.68-4.57c10.24-5.76,20.37-5.25,30.48.35q5.79,3.19,11.7,6.18c9.28,4.68,18.59,4.62,27.86-.06q7-3.56,14-7.21c8.88-4.61,17.76-4.49,26.6.06,3.8,1.95,7.58,3.93,11.32,6,10.65,5.88,21.34,6.3,32.14.43,3.5-1.9,7.08-3.67,10.54-5.63,10.21-5.78,20.35-5.46,30.48.14,1.49.83,3,1.63,4.49,2.46,8.39,4.61,8.6,2.65,3,11.46q-33.14,52.07-94.44,60.53A93.18,93.18,0,0,1,149.76,296.69Z"/><path class="cls-3" d="M70.4,178.75c2.76.08,7.51,1.92,12.1,4.26,4,2.06,8,4.27,12.07,6.33q14.1,7.2,28.24,0c3.92-2,7.85-4,11.68-6.17,10.45-5.89,20.8-5.81,31.2.17,3.69,2.12,7.51,4,11.31,6,9.39,4.82,18.83,4.83,28.24.07,4.31-2.17,8.61-4.38,12.84-6.7,9.67-5.3,19.22-5.06,28.9.06,6.14,3.24,11.92,7.55,18.83,8.81,5,.92,5,3.18,4.05,7.14a145.27,145.27,0,0,1-8.09,24.64c-.95,2.14-1.85,2.32-3.72,1.29-3.72-2.07-7.53-4-11.3-6-9.69-5.08-19.36-4.89-29,.12-4,2.09-8.07,4.18-12.07,6.35-9.63,5.21-19.23,5.32-28.88,0-4.24-2.32-8.55-4.49-12.86-6.68a29.43,29.43,0,0,0-27.85-.08c-4.58,2.29-9,4.77-13.59,7.12q-13.9,7.22-27.77-.12c-4.26-2.27-8.55-4.49-12.84-6.71-9.51-4.93-19-5-28.6-.09-3.66,1.9-7.38,3.67-10.93,5.75-2.15,1.25-3.26,1.32-4.38-1.28a131.87,131.87,0,0,1-8.52-27.63c-.24-1.26-.72-2.62,1.25-2.94,7.92-1.28,14.42-5.8,21.37-9.32A35.41,35.41,0,0,1,70.4,178.75Z"/></svg>