<svg id="Layer_1" data-name="Layer 1" xmlns="http://www.w3.org/2000/svg" viewBox="0 0 300 300"><defs><style>.cls-1{fill:#cbcbcb;}.cls-2{fill:#b4161b;}.cls-3{fill:#977b4d;}.cls-4{fill:#b0151a;}.cls-5{fill:#b3161b;}.cls-6{fill:#c9c9c9;}.cls-7{fill:#b1161a;}.cls-8{fill:#b2161a;}.cls-9{fill:#b2161b;}.cls-10{fill:#967a4c;}.cls-11{fill:#94794b;}.cls-12{fill:#a41418;}.cls-13{fill:#ab151a;}.cls-14{fill:#ac151a;}.cls-15{fill:#ad151a;}.cls-16{fill:#c7c7c7;}.cls-17{fill:#0d0b07;}.cls-18{fill:#0b0906;}.cls-19{fill:#92774a;}.cls-20{fill:#93784a;}.cls-21{fill:#af151a;}.cls-22{fill:#ae151a;}.cls-23{fill:#91774a;}.cls-24{fill:#907649;}.cls-25{fill:#91764a;}.cls-26{fill:#100d08;}.cls-27{fill:#95794b;}.cls-28{fill:#4e3f27;}.cls-29{fill:#17130b;}.cls-30{fill:#917649;}.cls-31{fill:#886f45;}.cls-32{fill:#8f7549;}.cls-33{fill:#9e1318;}.cls-34{fill:#9f1318;}.cls-35{fill:#79633d;}.cls-36{fill:#a31418;}.cls-37{fill:#a01318;}.cls-38{fill:#971216;}.cls-39{fill:#120f09;}.cls-40{fill:#981317;}.cls-41{fill:#a21418;}.cls-42{fill:#a41419;}.cls-43{fill:#991317;}.cls-44{fill:#9d1317;}.cls-45{fill:#93784b;}.cls-46{fill:#14110a;}.cls-47{fill:#7c653f;}.cls-48{fill:#770e12;}.cls-49{fill:#705b39;}.cls-50{fill:#4f4128;}.cls-51{fill:#5e4d30;}.cls-52{fill:#080604;}.cls-53{fill:#090705;}.cls-54{fill:#090704;}.cls-55{fill:#070604;}.cls-56{fill:#14100a;}.cls-57{fill:#18130c;}.cls-58{fill:#15110b;}.cls-59{fill:#1b160d;}.cls-60{fill:#15110a;}.cls-61{fill:#1d180f;}.cls-62{fill:#13100a;}.cls-63{fill:#b7b7b7;}.cls-64{fill:#866e44;}.cls-65{fill:#8c7247;}.cls-66{fill:#8d7348;}.cls-67{fill:#957a4b;}.cls-68{fill:#7c663f;}.cls-69{fill:#6b5836;}</style></defs><path d="M24.66-.61H275.34a1,1,0,0,1,1,1V176.59A123.39,123.39,0,0,1,152.94,300h-5.65A123.62,123.62,0,0,1,23.67,176.37V.38a1,1,0,0,1,1-1Z"/><path class="cls-1" d="M250.5,244.75v-3.12q0-42.18-.05-84.36c0-2.1.38-3.81,2-5.11,1.9-1.52,2.28-3.47,2.2-5.8-.14-4.54-.1-9.09,0-13.64,0-1.55-.4-2.05-2-2-2.52.12-5.06,0-7.58.06-1.33,0-1.71-.42-1.7-1.73q.06-18.57,0-37.13a3.8,3.8,0,0,1,1.31-2.87,6.66,6.66,0,0,0,1.93-5.46c-.15-3.87-.14-7.75,0-11.61.07-1.85-.38-2.7-2.34-2.37-1.32.22-1.89-.22-1.92-1.74-.21-9.14-3.44-17.2-8.93-24.45-2.74-3.61-5.71-7.1-7.65-11.24-1.1-2.33-2.61-4.63-.29-7.37a2.85,2.85,0,0,0-1-4.21c-1.94-.94-1.74-2.34-1.78-3.91,0-.77.35-1.68-.48-2.32-.88.13-.75.82-.75,1.35,0,2.07.21,3.93-2.15,5.34-1.61,1-1.46,3.24,0,4.69,1,1,.81,1.84.51,2.94a25,25,0,0,1-4.08,8.05c-2.06,2.87-4.17,5.7-6.23,8.58A38.66,38.66,0,0,0,202,67.42c0,1.74-.52,2.52-2.29,2.23s-2.14.5-2.11,2.12c.11,4.21.09,8.42,0,12.63A4.72,4.72,0,0,0,199,88.28c1.67,1.54,2,3.44,2,5.68q-.15,17.17,0,34.35c0,2-.52,2.58-2.52,2.52-4-.13-4,0-4,4.08,0,2.36,0,4.71,0,7.07,0,1.09-.14,1.61-1.47,1.67-5,.24-5,.3-5-4.71,0-.84,0-1.68,0-2.52,0-1.76.5-3.91-.31-5.17s-3.11-.38-4.75-.44c-1.3,0-1.52-.7-1.55-1.75a34.54,34.54,0,0,0-1.23-8.22,27.07,27.07,0,0,0-9-13.67c-3.29-2.76-6.68-5.39-10.11-8a20.66,20.66,0,0,1-8.65-15.32,3.14,3.14,0,0,1,.44-2.33c1.63-2.36,1.29-4.26-1.08-5.74a2.19,2.19,0,0,1-1.1-2.23c0-1.93-.08-3.86-.15-5.79,0-.11-.21-.21-.5-.48-1.09,1.82-.4,3.74-.52,5.54-.09,1.34,0,2.43-1.57,3.25a3.33,3.33,0,0,0-.9,5.05,4.07,4.07,0,0,1,.63,3.26,19.89,19.89,0,0,1-7.82,14.16c-3.45,2.68-6.91,5.36-10.31,8.12a27.92,27.92,0,0,0-10.76,21.64c-.06,2-.69,2.56-2.66,2.5-4-.13-4,0-4,4.1v4.29c0,4.49-1.09,5.3-5.57,4.42-1.24-.24-.88-1-.89-1.69,0-3.11-.08-6.23,0-9.34,0-1.39-.32-1.85-1.79-1.87-4.72-.05-4.72-.12-4.72-4.73,0-10.86,0-21.72,0-32.58a5.88,5.88,0,0,1,1.69-4.77,5.79,5.79,0,0,0,1.68-4.79q-.16-6.06,0-12.12c0-1.67-.47-2.34-2.13-2.11-1.5.22-2.25-.18-2.27-2-.12-8.89-3.3-16.71-8.57-23.78A104,104,0,0,1,82,33.35a21.46,21.46,0,0,1-1.91-4.65,2.6,2.6,0,0,1,.53-2.94c1.45-1.57,1.51-3.84-.24-4.88-2.11-1.25-2-2.83-2-4.65,0-.64.17-1.35-.51-1.83-.89.09-.72.79-.73,1.33,0,2,.31,3.92-2.13,5.3-1.6.9-1.45,3.21-.13,4.72A2.92,2.92,0,0,1,75.47,29a23,23,0,0,1-3.31,6.76c-2.29,3.23-4.65,6.39-7,9.61a39.23,39.23,0,0,0-7.59,22.33c0,1.82-.74,2.21-2.23,2-1.75-.27-2.08.58-2,2.14.09,4.29.08,8.59,0,12.88a4.45,4.45,0,0,0,1.32,3.64c1.61,1.48,1.93,3.31,1.92,5.44q-.14,17.43,0,34.86c0,1.79-.5,2.33-2.25,2.22-2.35-.15-4.72.06-7.07-.07-1.61-.1-2,.49-1.93,2,.09,5.13.07,10.27,0,15.41a3.32,3.32,0,0,0,1.2,2.87c2.51,2,3,4.63,3,7.78-.11,27.62-.07,55.23-.07,82.85V245A79.87,79.87,0,0,1,42,233.51,112.62,112.62,0,0,1,27.65,178q.09-86.38,0-172.77c0-2,.33-2.67,2.54-2.66q119.84.09,239.69,0c1.89,0,2.52.37,2.51,2.43q-.09,86.76-.05,173.53c0,23.68-7,45.14-20.36,64.63-.23.34-.48.68-.75,1A5.29,5.29,0,0,1,250.5,244.75Z"/><path class="cls-1" d="M66.07,262.91H234c-6.2,11.17-44.71,28.84-66.85,31.32C128.8,298.54,95,288.64,65.83,263.55Z"/><path class="cls-2" d="M149.88,153.56H53.65a6.75,6.75,0,0,1-7.07-7c0-4.13.05-8.25,0-12.38,0-1.6.46-2.24,2.17-2.19,4,.11,8.08.12,12.12,0,1.85-.06,2.29.65,2.23,2.34-.12,3,0,5.9,0,8.84,0,1.29.43,1.9,1.74,1.78H65c7.08.32,7.08.32,7.08-6.84,0-6.09,0-6.09,6-6.09,5.58,0,5.58,0,5.58,5.49,0,.42,0,.85,0,1.26.22,2-1,4.71.56,5.74,1.91,1.28,4.73.35,7.16.41,1.37,0,1.31-1,1.31-2,0-2.86.12-5.73,0-8.58-.1-2,.65-2.5,2.48-2.39a51.44,51.44,0,0,0,6.57,0c1.83-.11,2.58.43,2.47,2.38-.15,2.77,0,5.56-.06,8.34-.05,1.55.37,2.23,2.1,2.29,7,.21,7,.27,7-6.7,0-6.27,0-6.27,6.33-6.27,5.25,0,5.25,0,5.26,5.3,0,1.93,0,3.87,0,5.81,0,1.28.44,1.9,1.75,1.81a4.13,4.13,0,0,1,.5,0c6.83.22,6.83.22,6.83-6.53,0-6.4,0-6.4,6.42-6.4,5.17,0,5.17,0,5.17,5.12,0,2,.06,4,0,6.06-.05,1.32.49,1.69,1.77,1.77,7.32.45,7.32.48,7.32-6.8,0-6.15,0-6.15,6.16-6.15,5.44,0,5.44,0,5.44,5.36,0,1.94.05,3.88,0,5.81-.05,1.32.48,1.7,1.76,1.78,7.32.46,7.32.5,7.32-6.87,0-6.08,0-6.08,6-6.08,5.59,0,5.59,0,5.59,5.48a10.76,10.76,0,0,0,0,1.27c.21,2-1,4.71.54,5.74,1.91,1.29,4.73.35,7.16.41,1.36,0,1.34-1,1.34-1.95,0-2.94.08-5.89,0-8.84-.06-1.67.55-2.22,2.19-2.14a66.69,66.69,0,0,0,7.07,0c1.84-.1,2.3.67,2.25,2.36-.11,2.86,0,5.73-.05,8.59-.05,1.55.56,2,2.07,2,7,.24,7,.29,7-6.69,0-6.27,0-6.27,6.32-6.27,5.26,0,5.26,0,5.26,5.31,0,1.93,0,3.87,0,5.81,0,1.28.46,1.89,1.76,1.8a4.13,4.13,0,0,1,.5,0c6.81.21,6.81.21,6.81-6.56,0-6.37,0-6.37,6.46-6.37,2.7,0,5.39.06,8.08,0,1.43,0,1.95.5,1.93,1.91,0,4.63.05,9.26,0,13.89,0,2.79-3.49,5.73-6.5,5.73Z"/><path class="cls-2" d="M243.45,255.22c-2.24,1.89-4.35,3.56-6.33,5.39-1.08,1-2.29.9-3.53.9H180.81q-56.31,0-112.63.06c-3.12,0-5.53-.6-7.44-3.13a45.61,45.61,0,0,0-3.45-3.66c.71-.85,1.52-.5,2.21-.5,14,0,28.11,0,42.17-.08,2,0,3,.46,2.69,2.63-.24,1.58.6,1.92,2.06,2,3.6.15,6.7-1.48,10-2.52,6.68-2.13,6.66-2.19,6.66-9.09q0-27.66,0-55.31c0-1.43-.1-2.86-.14-4.29,0-.7.27-1.12,1-1.07s.78.52.79,1,0,1.18,0,1.77c0,20.62,0,41.25,0,61.87,0,2.18.38,3,2.84,3q22.47-.19,45,0c2.25,0,2.8-.6,2.8-2.82-.09-20.62-.05-41.25,0-61.87,0-.59,0-1.18,0-1.77s0-1.23.85-1.24,1,.69,1,1.39c0,1.18-.14,2.35-.14,3.53,0,19.95,0,39.9-.06,59.85,0,2.14.63,3.14,2.71,3.71,3.23.89,6.39,2.09,9.57,3.17a13.89,13.89,0,0,0,3.45.62c2.14.16,3.43-.31,3-2.82-.16-1,.13-1.77,1.46-1.77q22.59.08,45.19.09A9.69,9.69,0,0,1,243.45,255.22Z"/><path class="cls-3" d="M130.27,217.89c2-2.13,4.55-3.56,6.74-5.5-2.65,0-4.08,3.28-7,2.39,0-.17,0-.42,0-.48,2-1.49,3-3.1,1.74-5.78-.44-.94-1.39-3,.67-3.91s4.16-1.31,5.94.82c.57.67,1.93,3.34,2-.33,0-1.29,1-.74,1.68-.84,1.41-.22,3.2,1.23,4.1-1.38.39-1.14,4.48.23,5.25,1.78.22.44.24,1,.87,1.08s.55-.46.67-.86c.21-.7-.52-2.1.76-2,1.57.19,3.92,0,4.34,1.89.71,3.2,2.09,1.54,3.44.85s2.76-1.52,4.48-1.43c1.55.08,2.8.67,2,2.19-1.45,2.72,0,4.51,1.39,6.44-1.27,1.49-2.85.14-4.06.49,1.17.29,2.79-.43,3.85,1a5.67,5.67,0,0,1,1,3.12c-1.32-.14-1.07-1.85-2.8-2.12,1.73,4,6.61,6.91,3.55,11.9-.95-.49-.59-1.7-1.28-2.3-1.2-.79-1.54-2.15-2.22-3.3-.29-.5-.37-1.45-1.4-.86-.3-.07-.11.51-.15.18,2.63.45,2.41,2.9,3.23,4.62.1,1.15.81,2.23.41,3.72a33.58,33.58,0,0,1-2.25-2.66c-1.21-1.77-1.9-1-2.56.4a9.06,9.06,0,0,0-.38,5.68c.18,1,.43,1.95.73,3.28-1.69-1.51-2.29-1.22-2,.76.28,2.25,0,4.37-2,5.84a.49.49,0,0,1-.68-.22,21.12,21.12,0,0,1,.48-7.9c1-3.79.37-6.85-2.56-8-1.39-.89-1.7-2.58-2.73-3.72a1.07,1.07,0,0,1-.17-.48s.2-.08.2-.08h-.22c-.1.32.11.51.27.72,1,1.11,1.31,2.75,2.68,3.58,2.88,1.12,3.41,4.32,2.54,8.06a20.34,20.34,0,0,0-.7,4.9c0,5.42-.78,6.4-6.12,7.67a5.8,5.8,0,0,1-6.57-.21,8.06,8.06,0,0,0-4.45-1.36c-.85-.14-1.14-.74-1.24-1.5-.2-1.84.24-3.73-.4-5.54-1.15-2.75-2.8-5.39-1.44-8.59.26-.62.35-1.41.92-1.72,2.75-1.48,3.14-4.74,5.21-6.7-.2-.24.06.14-.13-.14s-.14-.19,0,0a.76.76,0,0,1,.16.4c-1.13,1.21-2.46,2.26-2.75,4a1.2,1.2,0,0,1-.58.79c-2.82,1.45-3.11,4.23-3.65,6.88a.53.53,0,0,1-.67,0c-1.74.77-2.22,2.81-3.8,3.74a.37.37,0,0,1-.4-.49c1.29-4,.77-8.34,2.55-12.23a4.28,4.28,0,0,0-.55-5c.72,2.63-.26,4.82-1.42,7a.53.53,0,0,1-.66-.06c-.58-1.09-.12-2.28-.29-3.09-.13,2.7.66,6.07-3.15,7.64-1.6-1-1.44-2.41-.86-4,.45-1.2,1.5-2.19,1.49-3.93-1.61,1.09-1.89,3.52-4.32,3.24.51-.93,1.34-1.67,1.33-2.76C128.53,221.52,128,219.21,130.27,217.89Z"/><path class="cls-1" d="M173.33,216.85c-1.41-2.28-2.73-4.6-4.24-6.8-.64-.93-.13-1.56,0-2.34.92-3.92-.6-5.74-4.49-4.65-2.84.8-5.21,2.17-7.68-.76-.79-.93-2.79-.37-3.91-1.45-.11-.1-.41-.18-.46-.12-2.38,2.61-4.83,0-7.24.08-.55,0-1.21,0-1.09.58.5,2.42-1.11,1.48-2.22,1.56s-2.73-1.6-3.45.7l-1.08-.58c-2.41-1.21-4.59.13-6.83.64-.63.14-.58.74-.51,1.25.26,1.81-.28,3.73.62,5.47.39.76.12,1.21-.45,1.71-1.37,1.2-2.7,2.45-4.23,3.85V205.77q0-6.18,0-12.37c0-1,0-1.85,1.39-1.76,1.07.06,2.06-.07,1.87,1.51-.06.51-.26,1.36.61,1.39,1.12.05.76-.94.73-1.5-.13-1.95,1.35-1.49,2.22-1.31,1,.21,2.89-1.2,3.08,1.23.05.6-.29,1.58.71,1.58s.64-1,.61-1.56c-.08-1.24.58-1.47,1.54-1.3,1.58.27,4.23-1.21,3.91,2.32a.53.53,0,0,0,.66.56c.58-.09.57-.6.51-1-.35-2.17,1.09-2.05,2.46-1.91s3.34-.83,3,1.92c0,.38,0,.92.54.94.76,0,.69-.63.65-1.09-.21-2.83,1.93-1.57,3.14-1.75s2.66-.29,2.31,1.78c-.07.45-.11,1.14.65,1.06s.59-.71.59-1.19c0-3,2.27-1.29,3.5-1.65s2.09.12,1.88,1.67c-.06.42-.23,1.13.51,1.19.9.07.83-.67.81-1.24-.12-2.88,2.06-1.36,3.22-1.61s2.31-.35,2.08,1.48c-.06.51-.25,1.36.63,1.36,1.07,0,.75-1,.71-1.54-.12-1.47.8-1.32,1.76-1.36s1.52.23,1.52,1.39c0,7.4,0,14.81,0,22.22,0,.49,0,1-.08,1.45Z"/><path class="cls-2" d="M222.18,85.68c-7,0-14-.05-20.93,0-1.74,0-2.36-.5-2.3-2.28.12-3.45.1-6.9,0-10.34,0-1.57.32-2.32,2.07-2.22a59.81,59.81,0,0,0,6.56,0c1.51-.07,2.12.4,2,2-.11,2.18.08,4.37-.05,6.55-.11,1.72.58,2.23,2.17,2.08a15.34,15.34,0,0,1,3,0c1.51.13,2.13-.41,2-2-.11-2.18,0-4.37,0-6.56-.05-1.46.35-2.16,2-2.08,2.26.11,4.54.09,6.81,0,1.45,0,1.92.53,1.87,1.92-.07,2.35,0,4.71,0,7.06,0,1.18.43,1.56,1.62,1.65,5.77.4,5.77.43,5.77-5.3,0-5.31,0-5.31,5.25-5.31s5.36,0,5.36,5.45c0,2.35-.1,4.71,0,7.06.1,1.78-.56,2.31-2.31,2.29C236.14,85.64,229.16,85.68,222.18,85.68Z"/><path class="cls-2" d="M77.8,85.68c-7,0-13.95,0-20.93,0-1.75,0-2.37-.52-2.31-2.29.12-3.53.08-7.07,0-10.6,0-1.37.39-2,1.86-1.93,2.35.09,4.71.08,7.06,0,1.35,0,1.76.53,1.73,1.79-.06,2.35,0,4.71,0,7.06,0,1.32.46,1.7,1.75,1.77,5.65.28,5.65.32,5.65-5.18s0-5.43,5.39-5.43c5.22,0,5.22,0,5.22,5.35,0,5.62,0,5.56,5.56,5.26,1.4-.07,1.68-.63,1.65-1.84-.06-2.27.07-4.54,0-6.81-.08-1.59.54-2.05,2-2,2.27.1,4.54.07,6.81,0,1.25,0,1.83.32,1.8,1.7-.06,3.78-.09,7.56,0,11.35,0,1.84-1.06,1.74-2.29,1.74Z"/><path class="cls-2" d="M190.35,214.61c0,6.4-.06,12.8,0,19.19,0,1.77-.5,2.38-2.28,2.29-2.6-.13-5.22-.12-7.82,0-1.58.07-2-.52-2-2q.08-19.32,0-38.64c0-1.39.42-2,1.87-1.93,2.69.08,5.39.1,8.07,0,1.69-.07,2.17.59,2.15,2.2C190.31,202,190.35,208.3,190.35,214.61Z"/><path class="cls-2" d="M121.68,214.61c0,6.4-.05,12.8,0,19.19,0,1.75-.48,2.38-2.27,2.29-2.68-.14-5.38-.09-8.07,0-1.33,0-1.76-.48-1.75-1.77q0-19.44,0-38.89c0-1.4.45-2,1.88-1.93,2.69.08,5.39.11,8.08,0,1.7-.07,2.14.59,2.12,2.2C121.64,202,121.68,208.3,121.68,214.61Z"/><path class="cls-4" d="M105.56,212.5q0-21.09,0-42.16c0-.92-.66-2.37,1.2-2.47.95-.05,1.7.11,1.65,1.31,0,.59,0,1.18,0,1.77v83.31a18.9,18.9,0,0,1-.08,2.26c-.11.94-.89.84-1.56.85s-1.18-.17-1.21-.95,0-1.34,0-2Z"/><path class="cls-4" d="M191.54,212.6V171.19c0-.59,0-1.18,0-1.77,0-1,.26-1.57,1.41-1.57s1.55.41,1.48,1.48c0,.5,0,1,0,1.52v83.56c0,.67,0,1.35,0,2s-.58.95-1.22.94-1.44.09-1.55-.85a19.06,19.06,0,0,1-.08-2.27Z"/><path class="cls-5" d="M79.71,216.77c-3,0-6,0-9.08,0-1.39,0-1.87-.49-1.94-1.91-.36-7.46-.4-7.46,7-7.46,4.37,0,8.75.06,13.12,0,1.66,0,2.12.53,2.14,2.18.08,7.2.14,7.2-6.92,7.2Z"/><path class="cls-5" d="M220.19,216.77c-3.11,0-6.22,0-9.33,0-1.3,0-1.7-.47-1.77-1.76-.43-7.61-.46-7.61,7-7.61,4.37,0,8.74,0,13.12,0,1.48,0,2,.45,2.08,2,.26,7.35.31,7.35-7.07,7.35Z"/><path class="cls-2" d="M137.88,164c-3.28,0-6.55,0-9.82,0-1.38,0-1.88-.44-2-1.87-.38-7.34-.42-7.33,6.77-7.33,4.7,0,9.4.07,14.1,0,1.83-.05,2.47.42,2.47,2.36,0,6.86.07,6.86-6.79,6.86Z"/><path class="cls-2" d="M113.33,154.78c3.11,0,6.23.08,9.34,0,1.68-.06,2.1.56,2.12,2.17.08,7.05.13,7.05-6.83,7.05-4.71,0-9.42-.09-14.13,0-1.94.05-2.38-.63-2.37-2.46,0-6.77,0-6.77,6.82-6.77Z"/><path class="cls-2" d="M187.13,154.78c3.11,0,6.23.06,9.34,0,1.48,0,2.16.35,2.05,2a40.75,40.75,0,0,0,0,5.3c.1,1.61-.59,2-2.06,2q-9.6-.09-19.18,0c-1.49,0-2.16-.4-2.06-2a40.75,40.75,0,0,0,0-5.3c-.11-1.62.6-2,2.07-1.95C180.57,154.83,183.85,154.78,187.13,154.78Z"/><path class="cls-2" d="M162.12,154.78c3.27,0,6.55,0,9.82,0,1.38,0,1.88.41,1.95,1.85.36,7.35.4,7.35-7,7.35-4.7,0-9.4-.05-14.1,0-1.62,0-2.17-.47-2.2-2.14-.15-7.08-.2-7.07,6.77-7.07Z"/><path class="cls-2" d="M220.3,228.53c3,0,6.06.06,9.09,0,1.41,0,1.85.45,1.91,1.88.31,7.33.35,7.33-6.82,7.33-4.46,0-8.92-.05-13.37,0-1.55,0-2-.51-2-2-.18-7.18-.22-7.18,6.93-7.18Z"/><path class="cls-2" d="M220,195.65c-2.94,0-5.89-.09-8.83,0-1.7.07-2.21-.56-2.11-2.18a46.85,46.85,0,0,0,0-5.3c0-1.32.48-1.76,1.77-1.75q9.34.06,18.68,0c1.33,0,1.67.54,1.74,1.8.41,7.4.44,7.39-7,7.39Z"/><path class="cls-2" d="M68.41,197c2.77,0,5.55.08,8.32,0,1.78-.07,2.52.37,2.53,2.35,0,6.89.1,6.89-6.75,6.89-4.38,0-8.75-.1-13.12,0-2,.06-2.52-.61-2.36-2.45a40.51,40.51,0,0,0,0-5.05c-.06-1.32.5-1.78,1.77-1.76C62,197.05,65.21,197,68.41,197Z"/><path class="cls-2" d="M68.12,164c-3,0-6.05-.06-9.08,0-1.55,0-2-.54-2-2.05-.18-7.17-.23-7.16,6.93-7.16,4.38,0,8.75.06,13.12,0,1.66,0,2.14.51,2.17,2.15.11,7.07.16,7.07-6.84,7.07Z"/><path class="cls-5" d="M231.68,227.18c-2.94,0-5.89-.05-8.83,0-1.48,0-2.18-.41-2.09-2a44.63,44.63,0,0,0,0-5.3c-.1-1.62.63-2,2.09-2q9,.09,17.91,0c1.59,0,2.19.38,2.22,2.09.12,7.15.18,7.15-7,7.15Z"/><path class="cls-2" d="M79.76,195.65c-3,0-6.06,0-9.09,0-1.34,0-1.91-.31-2-1.81-.35-7.39-.39-7.39,7-7.39,4.29,0,8.59.07,12.87,0,1.7,0,2.49.39,2.33,2.23a32.74,32.74,0,0,0,0,5.05c.12,1.61-.58,2-2.06,2C85.82,195.59,82.79,195.65,79.76,195.65Z"/><path class="cls-2" d="M231.93,175.92c3,0,6.06.05,9.08,0,1.36,0,1.9.33,2,1.82.31,7.36.36,7.36-7,7.36-4.21,0-8.42-.12-12.62,0-2.19.09-2.82-.69-2.6-2.73a18.72,18.72,0,0,0,0-4c-.25-2.1.68-2.58,2.59-2.49C226.2,176,229.07,175.92,231.93,175.92Z"/><path class="cls-2" d="M231.91,248.27c-3,0-6.06-.06-9.08,0-1.49,0-2-.4-2.08-2-.22-7.21-.27-7.2,6.91-7.2,4.46,0,8.92,0,13.38,0,1.38,0,1.87.38,1.93,1.84.29,7.35.33,7.35-7,7.35Z"/><path class="cls-2" d="M220.47,165.35c2.95,0,5.89.07,8.84,0,1.58-.06,2,.55,2,2.05.17,7.15.21,7.14-7,7.14-4.21,0-8.42-.12-12.62.05-2.18.09-2.8-.68-2.6-2.72a31.91,31.91,0,0,0,0-4.79c-.07-1.36.51-1.74,1.78-1.72C214.07,165.39,217.27,165.35,220.47,165.35Z"/><path class="cls-2" d="M68,248.27c-3,0-6.06-.06-9.09,0-1.44,0-1.83-.5-1.88-1.9-.27-7.29-.31-7.28,7.06-7.28,4.37,0,8.75,0,13.12,0,1.54,0,2,.47,2,2,.19,7.18.23,7.18-6.95,7.18Z"/><path class="cls-2" d="M68.08,175.92c3,0,6.06.06,9.09,0,1.48,0,2,.4,2.08,2,.21,7.21.26,7.21-6.92,7.21-4.45,0-8.91,0-13.37,0-1.38,0-1.88-.37-1.94-1.84-.29-7.34-.33-7.34,7-7.34Z"/><path class="cls-2" d="M79.83,228.53c3,0,6.06.08,9.09,0,1.58-.05,2,.55,2,2.05.16,7.17.2,7.17-7,7.17-4.29,0-8.58-.09-12.87,0-1.93.06-2.53-.62-2.38-2.47a40.36,40.36,0,0,0,0-5c-.06-1.34.51-1.76,1.79-1.73C73.61,228.57,76.72,228.53,79.83,228.53Z"/><path class="cls-2" d="M79.78,174.51c-3,0-5.9-.06-8.84,0-1.54,0-2.22-.31-2.26-2.07-.14-7.12-.2-7.12,7-7.12,4.29,0,8.59.1,12.88,0,2-.06,2.5.61,2.34,2.45a38.68,38.68,0,0,0,0,5.05c.07,1.34-.5,1.75-1.77,1.73C86,174.47,82.89,174.51,79.78,174.51Z"/><path class="cls-2" d="M231.83,197c3.11,0,6.22,0,9.34,0,1.27,0,1.83.43,1.78,1.76-.07,1.93-.08,3.87,0,5.8.06,1.4-.62,1.68-1.83,1.67-6.14,0-12.28,0-18.42,0-1.38,0-1.88-.4-1.95-1.85-.34-7.38-.38-7.38,7-7.38Z"/><path class="cls-5" d="M231.84,164c-3,0-5.89-.06-8.83,0-1.55,0-2.23-.33-2.27-2.08-.16-7.14-.22-7.14,7-7.14,4.29,0,8.58.1,12.87,0,1.94-.06,2.51.6,2.35,2.45a38.53,38.53,0,0,0,0,5c.06,1.33-.49,1.78-1.77,1.76C238.06,163.92,235,164,231.84,164Z"/><path class="cls-5" d="M67.9,227.18c-3,0-6.05,0-9.08,0-1.28,0-1.9-.45-1.76-1.77a2.08,2.08,0,0,0,0-.25c-.3-7.2-.3-7.2,6.87-7.2,4.37,0,8.75.05,13.12,0,1.61,0,2.17.44,2.2,2.12.13,7.12.18,7.12-6.81,7.12Z"/><path class="cls-2" d="M190.35,168.57c0,6.29,0,12.33,0,18.38,0,1.13-.33,1.69-1.57,1.67-3-.06-6,0-9.07,0-.91,0-1.31-.29-1.39-1.29C177.82,180.37,183.39,171.42,190.35,168.57Z"/><path class="cls-2" d="M88,100.09c-2.61,0-5.21,0-7.81,0-1.28,0-1.72-.49-1.82-1.76-.57-7.26-.6-7.26,6.58-7.26,3.61,0,7.22.06,10.83,0,1.47,0,2,.37,2.09,2,.22,7.07.27,7.07-6.85,7.07Z"/><path class="cls-2" d="M109.65,168.52c7,3.09,12.12,11.21,12,18.59,0,1.06-.33,1.51-1.42,1.5-3,0-6,0-9.07,0-1.05,0-1.52-.37-1.51-1.46C109.66,181,109.65,174.92,109.65,168.52Z"/><path class="cls-2" d="M211.82,91.1c2.52,0,5,.07,7.55,0,1.58-.07,2.2.35,2.24,2.06.16,7,.21,7-6.7,7-3.61,0-7.22,0-10.83,0-1.38,0-1.89-.44-2-1.87-.42-7.15-.45-7.15,6.69-7.15Z"/><path class="cls-2" d="M174.8,165.35c3,0,6,0,9,0,.82,0,2.08-.54,2.31.79s.56,2.61-.54,3.56a26.3,26.3,0,0,0-4,4.14,2,2,0,0,1-1.8.65h-3.52c-7.12,0-7.39-.11-12.5-4.66-1.24-1.11-.81-2.5-.63-3.75s1.34-.72,2.1-.73C168.42,165.32,171.61,165.35,174.8,165.35Z"/><path class="cls-2" d="M125.52,165.35c3,0,6,0,9.06,0,.81,0,2.11-.53,2.29.79s.7,2.79-.72,3.7a31.32,31.32,0,0,0-5.32,4.2c-.61.61-1.41.44-2.15.45a18.48,18.48,0,0,0-4,.05c-4.83,1.17-7.52-2-10.35-4.87-1-1-.71-2.42-.46-3.59s1.53-.71,2.35-.73C119.31,165.31,122.42,165.35,125.52,165.35Z"/><path class="cls-2" d="M109.64,248.9c0-2.1,0-4.21,0-6.31,0-1.28.45-1.83,1.75-1.82,3,0,5.89,0,8.84,0,1.07,0,1.48.46,1.47,1.52,0,3.2,0,6.4,0,9.6a1.66,1.66,0,0,1-1.39,1.77c-3,1-6.07,2-9.09,3-1.25.44-1.64,0-1.6-1.25C109.7,253.28,109.64,251.09,109.64,248.9Z"/><path class="cls-2" d="M190.34,249c0,2.1,0,4.19,0,6.29,0,1.41-.5,1.77-1.83,1.32q-4.4-1.52-8.82-2.92a1.77,1.77,0,0,1-1.42-2q.09-4.65,0-9.3c0-1.22.5-1.62,1.65-1.61q4.4.06,8.8,0c1.16,0,1.64.5,1.62,1.67C190.31,244.63,190.34,246.81,190.34,249Z"/><path class="cls-2" d="M67.61,100.09c-2.52,0-5-.08-7.56,0-1.69.08-2.12-.58-2.16-2.19-.12-6.84-.17-6.83,6.52-6.83,3.61,0,7.23.06,10.84,0,1.57,0,2.08.51,2,2a40.36,40.36,0,0,0,0,5c.11,1.6-.58,2-2.06,2C72.65,100,70.13,100.09,67.61,100.09Z"/><path class="cls-2" d="M232.34,91.1c2.61,0,5.21.05,7.82,0,1.38,0,1.87.42,1.93,1.85.34,7.18.38,7.17-6.72,7.17-3.52,0-7.05,0-10.58,0-1.53,0-2-.47-2-2-.19-7-.24-7,6.82-7Z"/><path class="cls-5" d="M59,216.77c-2,0-4-.06-6.06,0-1.48.07-2-.41-2.09-2-.26-7.4-.31-7.39,7-7.39,2.52,0,5,.05,7.57,0,1.45,0,2.07.39,2.14,2,.32,7.39.37,7.39-7.06,7.39Z"/><path class="cls-5" d="M241.43,216.77c-2.69,0-4.79-.06-6.89,0-1.49.06-2-.45-2.11-2-.3-7.37-.35-7.36,7.08-7.36,2.61,0,5.22,0,7.82,0,1.28,0,1.9.45,1.77,1.76a2.09,2.09,0,0,1,0,.25c-.15,2.33,1,5.49-.45,6.8C246.75,217.87,243.49,216.46,241.43,216.77Z"/><path class="cls-2" d="M59.06,237.72c-2.11,0-4.21-.07-6.31,0-1.45,0-1.83-.55-1.89-1.93-.32-7.28-.36-7.28,6.85-7.28,2.69,0,5.38.05,8.08,0,1.32,0,1.69.49,1.77,1.77.43,7.44.46,7.44-7,7.44Z"/><path class="cls-2" d="M59.15,174.51c-1.94,0-3.88-.1-5.81,0s-2.5-.35-2.5-2.34c0-6.85-.09-6.85,6.77-6.85,2.61,0,5.23.09,7.83,0,1.72-.09,2.22.59,2.11,2.19a35,35,0,0,0,0,4.8c.15,1.83-.64,2.33-2.34,2.23C63.2,174.43,61.17,174.51,59.15,174.51Z"/><path class="cls-2" d="M240.71,165.35c2.19,0,4.38,0,6.57,0,1.21,0,1.9.27,1.84,1.67q-.12,2.9,0,5.81c0,1.35-.55,1.73-1.81,1.72q-6.57-.08-13.13,0c-1.35,0-1.67-.57-1.74-1.81-.42-7.37-.45-7.37,6.75-7.37Z"/><path class="cls-2" d="M59.23,195.65c-2.19,0-4.38-.05-6.57,0-1.28,0-1.72-.41-1.8-1.73-.47-7.47-.5-7.47,6.93-7.47,2.61,0,5.22.06,7.83,0,1.4,0,1.87.46,1.94,1.89.35,7.32.39,7.31-6.82,7.31Z"/><path class="cls-2" d="M240.68,195.65c-2.19,0-4.38,0-6.57,0-1.18,0-1.57-.42-1.67-1.61-.64-7.59-.67-7.59,6.82-7.59,2.69,0,5.39.05,8.08,0,1.29,0,1.71.46,1.79,1.76.46,7.44.49,7.43-6.94,7.43Z"/><path class="cls-2" d="M240.71,237.72H239c-6.91,0-7.62-.9-6.49-7.91.15-1,.57-1.28,1.46-1.28,4.55,0,9.09,0,13.64,0,1.27,0,1.57.59,1.55,1.7,0,1.94-.06,3.88,0,5.81,0,1.37-.62,1.73-1.84,1.7C245.09,237.68,242.9,237.71,240.71,237.72Z"/><path class="cls-5" d="M88,218c1.93,0,3.86.05,5.79,0,1.31,0,1.69.49,1.76,1.76.45,7.6.48,7.6-7,7.6-2.1,0-4.2,0-6.3,0-1.26,0-1.91-.46-1.79-1.77a2.08,2.08,0,0,0,0-.25C80.06,218,80.06,218,88,218Z"/><path class="cls-5" d="M211.85,227.31h-.25c-7.78,0-7.75,0-7.12-7.74.1-1.18.49-1.63,1.66-1.61q5.91,0,11.84,0c1.21,0,1.66.56,1.6,1.69a2.09,2.09,0,0,0,0,.25C220,227.31,220,227.31,211.85,227.31Z"/><path class="cls-2" d="M150.11,249.72h21.42c1.15,0,2.41-.29,2.34,1.65s-1.31,1.41-2.32,1.41q-21.54,0-43.08,0c-1.16,0-2.41.27-2.35-1.65s1.33-1.41,2.32-1.41C135.67,249.71,142.89,249.72,150.11,249.72Z"/><path class="cls-2" d="M160.7,100.56H139.89a2.15,2.15,0,0,1,.36-.65,21.85,21.85,0,0,0,8.65-15.1c.1-.75-.16-1.87,1.17-1.82,1.13.05.92,1,1,1.71A22,22,0,0,0,160.7,100.56Z"/><path class="cls-2" d="M88.3,154.78h.25c7.37,0,7.35,0,7,7.38-.07,1.23-.35,1.84-1.72,1.82-3.86-.06-7.73,0-11.59,0-1.27,0-1.84-.44-1.8-1.75.06-1.94.06-3.87,0-5.8-.05-1.39.63-1.7,1.85-1.67C84.26,154.82,86.28,154.78,88.3,154.78Z"/><path class="cls-2" d="M211.87,164h-.51c-7.72,0-7.7,0-6.87-7.73.11-1.08.48-1.47,1.54-1.46q6,0,12.1,0c1.1,0,1.51.5,1.45,1.53v.26C220.06,164,220.06,164,211.87,164Z"/><path class="cls-2" d="M212.06,185.08c-1.94,0-3.87-.06-5.8,0-1.3.05-1.71-.42-1.78-1.73-.41-7.45-.45-7.45,6.9-7.45,2.19,0,4.37,0,6.56,0,1.17,0,1.74.41,1.64,1.61a2.09,2.09,0,0,0,0,.25C220,185.08,220,185.08,212.06,185.08Z"/><path class="cls-2" d="M211.88,248.27h-.5c-7.69,0-7.66,0-6.89-7.71.11-1.07.46-1.47,1.52-1.46q6,0,12.1,0c1.1,0,1.54.47,1.47,1.51a2.26,2.26,0,0,0,0,.26C220.06,248.27,220.06,248.27,211.88,248.27Z"/><path class="cls-2" d="M88.11,239.1h.5c7.69,0,7.67,0,6.89,7.7-.1,1.06-.45,1.48-1.51,1.47q-6.06,0-12.11,0c-1.09,0-1.53-.49-1.47-1.53a1,1,0,0,0,0-.25C79.92,239.11,79.92,239.11,88.11,239.1Z"/><path class="cls-2" d="M87.93,185.08c-1.93,0-3.87-.06-5.8,0-1.34.05-1.68-.53-1.75-1.79-.42-7.39-.44-7.39,7-7.39,2,0,4,.06,6,0,1.44-.06,2.06.29,2.11,1.92C95.76,185.08,95.81,185.08,87.93,185.08Z"/><path class="cls-2" d="M212.13,206.22h-.75c-7.71,0-7.71,0-6.89-7.7.11-1,.46-1.51,1.51-1.5q6,0,12.09,0c1.07,0,1.53.5,1.49,1.53a4.34,4.34,0,0,0,0,.51C219.91,206.22,219.91,206.22,212.13,206.22Z"/><path class="cls-2" d="M87.91,206.22c-1.6,0-3.2-.12-4.78,0-2,.18-2.79-.44-2.77-2.61,0-6.63,0-6.63,6.54-6.63,2.18,0,4.36.07,6.54,0,1.48-.05,2.16.41,2.07,2a42.44,42.44,0,0,0,0,5.29c.1,1.59-.58,2-2.06,2C91.6,206.15,89.75,206.22,87.91,206.22Z"/><path class="cls-6" d="M149.39,179.23c0,3.19,0,6.38,0,9.58,0,2.45-1.75,1.49-2.85,1.54s-2.64.75-2.61-1.52c.08-6.39-.07-12.78.08-19.16.06-2.64,2.46-1.48,3.86-1.83,1.55-.4,1.53.72,1.52,1.81C149.37,172.84,149.39,176,149.39,179.23Z"/><path class="cls-6" d="M156,179.5c0,3.11,0,6.22,0,9.33,0,2.67-2,1.32-3.1,1.53-1.27.23-2.41.23-2.37-1.81.13-6.3.06-12.6,0-18.91,0-1.08,0-2.2,1.52-1.8,1.4.35,3.72-.81,3.86,1.83C156.15,172.94,156,176.23,156,179.5Z"/><path class="cls-2" d="M246.67,249.67a4.57,4.57,0,0,1-4.89,3.16c-11.68-.12-23.36-.05-35-.07-.89,0-2.08.48-2.25-1.2-.2-2,1-1.9,2.35-1.9q16.13,0,32.26,0Z"/><path class="cls-2" d="M53.31,249.67H76.25c5.46,0,10.93,0,16.39,0,1.12,0,2.91-.82,2.85,1.59s-1.89,1.47-3,1.47c-11.43.07-22.86,0-34.29.1A4.66,4.66,0,0,1,53.31,249.67Z"/><path class="cls-2" d="M91.08,111.66c1.68,0,3.36,0,5,0,1.32-.05,1.68.55,1.76,1.8.44,7,.47,7-6.59,7-1.77,0-3.53-.06-5.29,0-1.35.06-1.67-.52-1.73-1.78C83.92,111.66,83.89,111.66,91.08,111.66Z"/><path class="cls-2" d="M208.87,120.46a40.69,40.69,0,0,0-4.28,0c-2.09.24-2.51-.7-2.49-2.6,0-6.24,0-6.24,6.14-6.24.42,0,.85,0,1.26,0,2,.19,4.74-1,5.75.51,1.31,1.87.33,4.7.43,7.12,0,1.07-.7,1.17-1.52,1.17Z"/><path class="cls-6" d="M157.28,179.33c0-3,0-6.05,0-9.07,0-1.34.44-1.54,1.66-1.18,3.53,1.06,3.72,1.25,3.72,5,0,4.79-.12,9.58.05,14.36.08,2.13-1,2.09-2.46,2s-3.15.67-3-2C157.42,185.39,157.28,182.35,157.28,179.33Z"/><path class="cls-6" d="M142.71,179.69c0,3,0,6.05,0,9.07.05,2.63-1.91,1.46-3.07,1.6s-2.37.51-2.33-1.53c.11-5.54,0-11.09,0-16.63,0-1.39,3.47-3.76,4.81-3.32.8.26.53,1,.53,1.49C142.73,173.47,142.71,176.58,142.71,179.69Z"/><path class="cls-2" d="M64.53,120.47h-.26c-7.16,0-7.13,0-6.36-7.28.13-1.24.67-1.54,1.76-1.53,3.29,0,6.57,0,9.85,0,1.26,0,1.92.42,1.8,1.75a2.09,2.09,0,0,0,0,.25C71.66,120.47,71.66,120.47,64.53,120.47Z"/><path class="cls-2" d="M235.32,120.47h-.25c-7.17,0-7.14,0-6.42-7.22.12-1.2.58-1.6,1.71-1.59q5.05,0,10.1,0c1.21,0,1.68.54,1.6,1.68a1,1,0,0,0,0,.25C242.43,120.47,242.43,120.47,235.32,120.47Z"/><path class="cls-5" d="M222.17,101.29c2.6,0,5.2,0,7.8,0,1.42,0,1.95.46,1.88,1.89-.09,1.75,0,3.52,0,5.28,0,.93.12,1.93-1.33,1.85-1-.06-1.85.15-2.26-1.3-1-3.72-3-5.2-6.1-5.18s-4.94,1.41-6,5c-.42,1.43-1.23,1.55-2.41,1.5-1.52-.08-1.13-1.19-1.16-2,0-1.59.09-3.19,0-4.78-.15-1.83.66-2.3,2.34-2.22C217.3,101.37,219.74,101.29,222.17,101.29Z"/><path class="cls-5" d="M87.43,105.88a16.84,16.84,0,0,1,0,2c-.12.94.58,2.27-1.28,2.42-1.5.11-2-.54-2.37-1.89-1.09-3.84-4.49-5.48-8.26-4.21a5.27,5.27,0,0,0-3.69,4.39c-.26,1.66-1.17,1.73-2.45,1.69-1.51,0-1.17-1.12-1.2-2-.24-7-.23-7,6.76-7,3.19,0,6.38.12,9.56-.05,2.22-.11,3.36.46,3,2.88A10.32,10.32,0,0,0,87.43,105.88Z"/><path class="cls-2" d="M244.11,87.28a3.27,3.27,0,0,1-3.56,2.48q-18.41-.09-36.79,0a3.41,3.41,0,0,1-3.58-2.48Z"/><path class="cls-2" d="M99.8,87.21c-.69,2-1.93,2.56-3.75,2.55q-18.27-.09-36.54,0a3.37,3.37,0,0,1-3.66-2.55Z"/><path class="cls-1" d="M164,171.61c3.43,2.17,5.87,4.19,5.34,8.38a46.17,46.17,0,0,0,0,8.56c.13,2-1,2-2.33,1.82s-3,1-3-1.67C164,183.17,164,177.63,164,171.61Z"/><path class="cls-1" d="M136,172.08c0,5.62,0,11.24,0,16.86,0,2.6-2.07,1.16-3.21,1.42s-2.13.21-2.08-1.54c.11-3.78-.07-7.56.07-11.34C130.88,174.44,133.69,173.55,136,172.08Z"/><path class="cls-5" d="M211.16,105.83c0,4.46,0,4.46-4.51,4.46s-4.54,0-4.51-4.49c0-5.2-.66-4.46,4.55-4.51C211.16,101.26,211.16,101.29,211.16,105.83Z"/><path class="cls-5" d="M97.86,105.82c0,4.47,0,4.47-4.53,4.47s-4.5,0-4.5-4.48,0-4.55,4.49-4.52C98.52,101.34,97.79,100.6,97.86,105.82Z"/><path class="cls-5" d="M126,129c1.41,2,3,3.29,5.49,3,1.1-.12,1.18.67,1.18,1.47,0,2.85,0,5.69,0,8.53,0,1.19-.47,1.55-1.64,1.62-4.83.31-4.69.35-4.88-4.42-.12-3,.92-6.12-.77-9C125.27,130,125.71,129.51,126,129Z"/><path class="cls-5" d="M174,129c.27.41.68.78.61.95-1.58,3.69-.61,7.55-.72,11.32-.06,1.94-.65,2.6-2.48,2.34a4.1,4.1,0,0,0-1.26,0c-2.2.36-3-.48-2.83-2.75s0-4.88.05-7.32c0-.78,0-1.65,1.13-1.54C171,132.27,172.59,131,174,129Z"/><path class="cls-5" d="M187.66,167.93c-.49-1.69-.31-2.68,1.86-2.62,3.94.12,7.89.08,11.84,0,1.3,0,1.82.41,1.77,1.73a53.88,53.88,0,0,0,0,5.54c.11,1.64-.66,2-2.09,1.94-6.45-.14-5.29.72-5.38-4.43-.07-3.64-1.54-4.6-5.21-3.33C189.51,167.11,188.78,167.94,187.66,167.93Z"/><path class="cls-5" d="M112.29,168.11c-1.9-.89-3.56-1.76-5.61-1.67-1.68.08-2.51.46-2.35,2.29.12,1.41,0,2.85,0,4.28,0,.68,0,1.44-1,1.46-1.85,0-3.69,0-5.54,0-.61,0-.87-.42-.9-1,0-.25,0-.5,0-.76-.45-7.37-.45-7.37,6.91-7.37,2.18,0,4.37.1,6.55,0C112.37,165.2,112.92,166,112.29,168.11Z"/><path class="cls-5" d="M206.63,130.58c-4.49,0-4.52,0-4.49-4.52.05-4.9-.64-4.14,4.31-4.18,4.71,0,4.71,0,4.71,4.75C211.16,130.63,211.16,130.63,206.63,130.58Z"/><path class="cls-5" d="M93.15,130.58c-4.32.07-4.32.07-4.32-4.41,0-4.3,0-4.3,4.42-4.3,4.61,0,4.61,0,4.61,4.65v.25c0,4.27.44,3.77-3.7,3.81Z"/><path class="cls-2" d="M242.06,105.84c0,4.45,0,4.45-4.33,4.45-4.54,0-4.57,0-4.53-4.51,0-5.21-.68-4.47,4.59-4.48C242.75,101.3,242,100.63,242.06,105.84Z"/><path class="cls-2" d="M66.8,105.79c0,4.5,0,4.5-4.55,4.5-4.32,0-4.32,0-4.32-4.21,0-4.79,0-4.82,4.79-4.79S66.73,100.72,66.8,105.79Z"/><path class="cls-5" d="M235.75,137.84v2.52c0,3.26,0,3.26-3.25,3.26s-3.22,0-3.22-3.27c0-2.19.05-4.37,0-6.55,0-1.29.4-1.73,1.72-1.79C235.75,131.79,235.75,131.74,235.75,137.84Z"/><path class="cls-5" d="M84.88,137.62v-2c.05-4-.44-3.37,3.47-3.61,2.42-.15,3.32.53,3.07,3a55.4,55.4,0,0,0,0,6.82c0,1.26-.34,1.74-1.7,1.81C84.88,143.88,84.88,143.94,84.88,137.62Z"/><path class="cls-5" d="M215.11,137.75a16.1,16.1,0,0,0,0,2.78c.45,2.65-.72,3.29-3.2,3.14-3.75-.24-3.29.32-3.32-3.48,0-2.11.07-4.21,0-6.32-.07-1.46.53-1.82,1.91-1.86C215.11,131.89,215.11,131.84,215.11,137.75Z"/><path class="cls-5" d="M70.71,138a16.29,16.29,0,0,0,0,2.52c.39,2.51-.51,3.39-3.12,3.2-3.35-.25-3.37-.06-3.37-3.45v-4c0-4.19,1.16-5.05,5.4-4.15a1.17,1.17,0,0,1,1.06,1.38C70.7,134.94,70.7,136.45,70.71,138Z"/><path class="cls-2" d="M237.44,130.58c-4.25.06-4.25.06-4.25-4.31s0-4.4,4.39-4.4,4.48,0,4.48,4.54C242.06,130.52,242.06,130.52,237.44,130.58Z"/><path class="cls-2" d="M66.8,126.19c0,4.43,0,4.43-4.42,4.39s-4.48,0-4.44-4.59c0-4.78-.6-4,4.14-4.12a4.34,4.34,0,0,1,.51,0C67.42,122,66.72,121.18,66.8,126.19Z"/><path class="cls-7" d="M203.11,212.28c-.1,5.19.79,4.32-4.51,4.54-2.25.09-3.33-.51-3-2.9a17,17,0,0,0,0-2.26c0-4.85-.49-4.06,4.32-4.3,2.51-.13,3.62.56,3.17,3.16A10.32,10.32,0,0,0,203.11,212.28Z"/><path class="cls-7" d="M96.89,212c0-4.65,0-4.54,4.64-4.66,2.16-.06,3.18.51,2.84,2.78a9.38,9.38,0,0,0,0,1.5c0,5.37-.85,6-6.22,5.13a1.26,1.26,0,0,1-1.25-1.48C96.9,214.21,96.89,213.12,96.89,212Z"/><path class="cls-2" d="M153.14,137.38c0,.92,0,1.85,0,2.77,0,3.48,0,3.34-3.52,3.51-2.18.11-3.12-.49-2.81-2.76a25.67,25.67,0,0,0,0-3.51c0-5.76,0-5.73,5.42-5.88,1,0,.85.57.86,1.1C153.16,134.2,153.14,135.79,153.14,137.38Z"/><path class="cls-5" d="M227.87,42.26A6.41,6.41,0,0,0,232.12,46a.81.81,0,0,1,.68.91c-.13,2.06-.5,4.07-2.32,5.35a4.44,4.44,0,0,1-5.22,0c-1.92-1.22-2.11-3.32-2.38-5.33a.8.8,0,0,1,.67-.92C225.44,45.59,226.73,44.31,227.87,42.26Z"/><path class="cls-5" d="M72.2,42.46A6.71,6.71,0,0,0,76.27,46a1,1,0,0,1,.84.8c.49,1.86-1.41,5.29-3.35,6a4.46,4.46,0,0,1-5.85-2.48c-1.2-2.69-1-3.41,1.65-5A11.1,11.1,0,0,0,72.2,42.46Z"/><path class="cls-5" d="M222.11,50.59c1.13,1.9,2.28,3.2,4.13,3.61.55.12,1,.39.9,1-.24,2-.49,4.07-2.35,5.32a4.54,4.54,0,0,1-5.22,0c-1.9-1.21-2.15-3.27-2.35-5.29a.92.92,0,0,1,.8-1.08C219.86,53.76,221.05,52.51,222.11,50.59Z"/><path class="cls-5" d="M77.83,50.72a9,9,0,0,0,2.51,2.82c1.11.63,3,.53,2.38,2.74s-1,4.18-3.44,4.82a4.5,4.5,0,0,1-5-1.43,8.39,8.39,0,0,1-1.43-4.22,1,1,0,0,1,.9-1.26C75.61,53.8,76.72,52.45,77.83,50.72Z"/><path class="cls-5" d="M83.5,42.32a9.22,9.22,0,0,0,2.56,3c.83.52,2.37.25,2.35,1.84a6.86,6.86,0,0,1-1.47,4.45,4.77,4.77,0,0,1-5.77.87c-1.55-.84-3-4.13-2.5-5.7a1.36,1.36,0,0,1,1.08-.92A6.46,6.46,0,0,0,83.5,42.32Z"/><path class="cls-5" d="M210.79,50.53a6.28,6.28,0,0,0,4.18,3.7.86.86,0,0,1,.7.92c0,2.08-.43,4.1-2.25,5.36a4.46,4.46,0,0,1-5.23.05c-1.89-1.22-2.23-3.26-2.3-5.33a1,1,0,0,1,.89-1C208.61,53.72,209.76,52.4,210.79,50.53Z"/><path class="cls-5" d="M216.39,42.34a10.29,10.29,0,0,0,2.59,3c.83.51,2.35.28,2.34,1.85a6,6,0,0,1-1.81,4.8,4.54,4.54,0,0,1-5.62.36c-1.41-.82-2.69-4.14-2.3-5.55a1.31,1.31,0,0,1,1.07-.91A6.26,6.26,0,0,0,216.39,42.34Z"/><path class="cls-5" d="M72.08,58.69c1.06,2,2.28,3.31,4.21,3.74a1,1,0,0,1,.81,1.1c-.29,2-.48,4.1-2.41,5.28a4.82,4.82,0,0,1-5,0c-2-1.13-2.25-3.2-2.48-5.22a1.08,1.08,0,0,1,1-1.25C70,62,71.12,60.67,72.08,58.69Z"/><path class="cls-5" d="M227.83,58.8a10,10,0,0,0,2.51,3c.82.56,2.42.17,2.45,1.72a7.06,7.06,0,0,1-1.28,4.26,4.93,4.93,0,0,1-6.14,1.1c-1.41-.83-2.94-4.42-2.45-5.74a1.14,1.14,0,0,1,.92-.75C225.68,62,226.82,60.65,227.83,58.8Z"/><path class="cls-5" d="M104.34,191.14c-.06,5.37.57,4.28-4.51,4.57-2.5.14-3.35-.72-3-3.08a6.81,6.81,0,0,0,0-1c0-5.51.57-6,6.12-5.16,1,.14,1.35.51,1.34,1.42C104.33,189,104.34,190.05,104.34,191.14Z"/><path class="cls-5" d="M203.11,191.29c0,4.37,0,4.19-4.36,4.43-2.67.15-3.48-.8-3.11-3.24a6.68,6.68,0,0,0,0-1c0-5.08,0-5,5-5.06,2.08,0,2.67.73,2.45,2.61A18.92,18.92,0,0,0,203.11,191.29Z"/><path class="cls-5" d="M96.89,233.05c0-4.55,0-4.42,4.71-4.58,2.26-.07,3.08.66,2.76,2.84a10.72,10.72,0,0,0,0,1.5c0,4.91-1.52,6.05-6.39,4.9a1.2,1.2,0,0,1-1.06-1.4C96.89,235.23,96.89,234.14,96.89,233.05Z"/><path class="cls-2" d="M66.44,50.63c1,1.75,2.13,3.07,4,3.55a1,1,0,0,1,.88,1c0,2.08-.4,4.09-2.27,5.32a4.47,4.47,0,0,1-5.23,0c-1.81-1.26-2.25-3.25-2.21-5.36,0-.58.37-.87.92-1C64.32,53.69,65.41,52.33,66.44,50.63Z"/><path class="cls-5" d="M89.32,50.7a6.23,6.23,0,0,0,3.87,3.49A1.11,1.11,0,0,1,94,55c.6,1.85-1,5.11-2.91,5.92A4.58,4.58,0,0,1,85.23,59c-1.47-2.67-1.16-3.9,1.42-5.45C87.75,52.91,88.36,51.81,89.32,50.7Z"/><path class="cls-5" d="M203.1,233.21c0,4.52,0,4.38-4.49,4.57-2.48.1-3.35-.75-3-3.12a5.56,5.56,0,0,0,0-1c0-5.51.55-5.94,6.18-5.14,1,.13,1.3.52,1.29,1.42C203.09,231,203.1,232.12,203.1,233.21Z"/><path class="cls-2" d="M216.41,58.86c.94,1.38,1.67,2.79,3.1,3.14,1.94.48,2,1.66,1.68,3.19-.63,3.16-2.61,4.61-5.73,4.19-2.29-.31-4.11-3-3.9-5.66.06-.64.17-1.17.87-1.33C214.29,62,215.39,60.62,216.41,58.86Z"/><path class="cls-2" d="M233.55,50.64c1,1.69,2.12,3,3.94,3.52.55.15.92.43.92,1,0,2.09-.4,4.09-2.22,5.35a4.49,4.49,0,0,1-5.23,0c-1.88-1.23-2.22-3.26-2.26-5.33a1,1,0,0,1,.88-1C231.42,53.71,232.52,52.34,233.55,50.64Z"/><path class="cls-2" d="M83.57,58.9c1,1.7,2.11,3.09,4.06,3.52.7.15.75.75.79,1.38.19,3.11-1.86,5.56-4.72,5.61-3.1,0-5.16-2.24-5-5.53,0-.75.15-1.33,1-1.52C81.49,61.92,82.48,60.45,83.57,58.9Z"/><path class="cls-7" d="M77.93,37.7a3.71,3.71,0,0,1,1,0c1.27.35,3-.93,3.8.86.63,1.44-1,5-2.56,5.67a4.87,4.87,0,0,1-5.26-.37c-1.67-1.29-1.88-3.31-2-5.25,0-.78.65-.89,1.26-.9,1.26,0,2.53,0,3.79,0Z"/><path class="cls-8" d="M222.17,37.7a8.51,8.51,0,0,1,1,0c1.28.18,3.17-.68,3.72.6.68,1.6-.14,3.46-1.2,4.93s-4.16,2-6,1c-1.43-.83-2.93-4.4-2.49-5.77.25-.77.85-.71,1.42-.73,1.17,0,2.35,0,3.53,0Z"/><path class="cls-5" d="M125.57,112.81c1,1.87,1.85,3.6,4,4.35,1.19.41.43,1.6.3,2.45-.28,1.78-1.09,3.2-3,3.63a3.24,3.24,0,0,1-3.59-1.25c-1-1.42-1.55-3-.69-4.72A13.43,13.43,0,0,1,125.57,112.81Z"/><path class="cls-5" d="M174.32,112.89c3.1,2.89,4.1,5.74,2.94,8.18a3.55,3.55,0,0,1-4.78,2c-1.57-.67-3.16-3.91-2.57-5.32a1.24,1.24,0,0,1,.67-.68C172.66,116.43,173.52,114.69,174.32,112.89Z"/><path class="cls-5" d="M145.22,114.69c.61.51,1.29,1.47,2.17,1.73,2.26.65,2,2.12,1.52,3.73s-1.48,3-3.43,3.17a3.46,3.46,0,0,1-3.78-2.68c-.51-1.66-1.25-3.37,1.32-4.21C143.91,116.14,144.58,115.21,145.22,114.69Z"/><path class="cls-5" d="M154.74,114.1a10.8,10.8,0,0,0,2.21,2.4c1.94,1.22,2.24,2.66,1.06,4.85a3.58,3.58,0,0,1-4.72,1.66c-1.89-.84-2.11-2.61-2.51-4.35s1-1.65,1.85-2.18A7.83,7.83,0,0,0,154.74,114.1Z"/><path class="cls-9" d="M136,114.53c.48.6,1,1.64,1.92,2,1.73.57,2.09,1.53,1.6,3.22s-1.29,3.32-3.34,3.59a3.31,3.31,0,0,1-3.8-2.21c-.7-1.79-1.54-3.64,1.19-4.69A11,11,0,0,0,136,114.53Z"/><path class="cls-9" d="M164,114.53a10.38,10.38,0,0,0,2.43,1.85c2,.74,2.06,2.12,1.57,3.78-.54,1.83-1.59,3.17-3.68,3.17a3.61,3.61,0,0,1-3.63-2.91c-.47-1.59-1.12-3.27,1.39-3.94C163.1,116.22,163.56,115.13,164,114.53Z"/><path class="cls-9" d="M95.17,58.06c1.11,3.2,1.23,6.23,1.65,9.22.24,1.7-.47,2.22-2.1,2.15a5.28,5.28,0,0,1-4.78-5.94,1.11,1.11,0,0,1,.87-1.07C93,61.92,94.16,60.34,95.17,58.06Z"/><path class="cls-5" d="M159.51,115.86c-2.27,0-3.89-2-3.95-4.66,0-.39,3.85-4.32,4.05-4.13,1.36,1.3,3.45,2.47,3.82,4A3.93,3.93,0,0,1,159.51,115.86Z"/><path class="cls-5" d="M140.6,107.1a16.73,16.73,0,0,0,2,2c2,1.39,2.29,3.16.73,5.33a3.74,3.74,0,1,1-5-5.4C139.09,108.49,139.75,107.83,140.6,107.1Z"/><path class="cls-5" d="M204.84,58c.87,2.3,2.11,3.91,4.36,4.44a1,1,0,0,1,.83,1.09c-.21,1.93-.49,3.87-2.18,5.16a4,4,0,0,1-4.07.52c-1.26-.54-.53-1.92-.45-2.94A32.27,32.27,0,0,1,204.84,58Z"/><path class="cls-9" d="M210.67,66.88c.83,1.28,1.23,2.55,2.28,2.85,2.79.78,2.87,2.78,2.67,5.06a15.08,15.08,0,0,0,0,2.77c.14,1.67-.16,2.61-2.24,2.63s-2.55-.89-2.45-2.71,0-3.86,0-5.79c0-.57.22-1.38-.34-1.65C208.09,68.8,210.7,68.17,210.67,66.88Z"/><path class="cls-5" d="M150,115.86a3.9,3.9,0,0,1-3.89-4.76c.38-1.57,2.46-3.75,3.8-3.76s3.45,2.1,3.9,3.67C154.58,113.51,152.34,115.83,150,115.86Z"/><path class="cls-9" d="M89.25,67c.34,1.14,2.44,1.93.07,3.1-.3.15-.26,1.08-.27,1.65a42.49,42.49,0,0,0,0,5.53c.29,2.51-.92,3-3,2.82-1.14-.1-1.69-.45-1.64-1.65a35.94,35.94,0,0,0,0-4c-.16-2.11-.06-3.92,2.5-4.65C88,69.5,88.46,68.19,89.25,67Z"/><path class="cls-5" d="M159.55,121.55a17,17,0,0,0,3.4,3c1.69,1.4.25,3.24-.54,4.7s-2.59,1.46-4.06,1.14c-2-.44-2.3-2.22-2.74-3.86-.38-1.46.32-2.12,1.59-2.6C158.23,123.59,158.76,122.55,159.55,121.55Z"/><path class="cls-2" d="M66.15,66.6c1.25,2.15,2.34,3.51,4.18,4a1.08,1.08,0,0,1,.85,1.1c0,2.44.13,4.89-.05,7.32-.12,1.73-1.67.91-2.62,1s-1.92.13-1.9-1.3c0-2.1.07-4.21,0-6.31-.06-1,.57-2.15-1.09-3C64.48,69,66.27,68.12,66.15,66.6Z"/><path class="cls-2" d="M233.66,67c.38,1.15,2,2.07,0,3.09-.28.14-.21,1.09-.22,1.67a40.94,40.94,0,0,0,0,5.54c.31,2.56-.93,3-3.05,2.8-1.19-.09-1.66-.49-1.61-1.67s.06-2.52,0-3.78c-.1-2.13-.33-4.2,2.51-4.92C232.35,69.51,232.73,68.2,233.66,67Z"/><path class="cls-5" d="M130.82,121.46a8.55,8.55,0,0,0,3.25,3c1.43.7.71,4.42-1.08,5.58a3.55,3.55,0,0,1-4.46-.17c-1.42-1.23-2.24-3.24-1.52-4.76S130,123.46,130.82,121.46Z"/><path class="cls-5" d="M169.17,121.52a6.93,6.93,0,0,0,3.24,3c1.29.56.62,4.14-.94,5.43a3.83,3.83,0,0,1-5.35-.78c-1.45-2.1-1.21-4,.71-5.14A10,10,0,0,0,169.17,121.52Z"/><path class="cls-5" d="M239.55,58.56a28.16,28.16,0,0,1,1.48,9.6c0,.84-.43,1.12-1.22,1.25-3.11.5-6.37-3.12-5.44-6.13.09-.29.32-.7.55-.75C237.05,62.1,238.2,60.45,239.55,58.56Z"/><path class="cls-5" d="M60.32,58.77C61.9,60.43,63,62.13,65,62.5c.46.08.54.54.62,1a5.2,5.2,0,0,1-4.92,6c-1.22,0-1.86-.35-1.8-1.71A32.85,32.85,0,0,1,60.32,58.77Z"/><path class="cls-5" d="M140.49,130.56c-2.44,0-4.11-1.89-4.1-4.72a23.43,23.43,0,0,1,4.09-3.87,23,23,0,0,1,4,4C144.4,128.72,142.84,130.54,140.49,130.56Z"/><path class="cls-5" d="M150,130.64c-2.32,0-4.06-2.14-4-4.83A24.07,24.07,0,0,1,150,122c1.36,1.27,3.45,2.41,3.82,4A3.86,3.86,0,0,1,150,130.64Z"/><path class="cls-5" d="M134.85,111.19c0,2.81-1.76,4.75-4.14,4.67a4.16,4.16,0,0,1-3.81-4.22c0-.82,3.17-4.24,3.95-4.28C131.42,107.33,134.85,110.62,134.85,111.19Z"/><path class="cls-5" d="M169.19,115.86c-2.34,0-4.09-2-4.05-4.76a18.66,18.66,0,0,1,3.85-3.78c.81-.08,4.1,3.47,4.08,4.41A4.08,4.08,0,0,1,169.19,115.86Z"/><path class="cls-9" d="M249.11,222.46v2c0,2.91-.25,3.08-3.16,2.87-1.13-.08-1.69-.44-1.67-1.64.05-2,.07-4,0-6s1.37-1.66,2.57-1.71,2.42-.07,2.27,1.74C249,220.61,249.1,221.54,249.11,222.46Z"/><path class="cls-9" d="M50.88,222.59v-1.75c0-3,.16-3,3.13-2.9,1.34.06,1.74.62,1.7,1.84a42,42,0,0,0,0,5c.18,2-.61,2.61-2.56,2.56-1.68,0-2.53-.44-2.31-2.26A21,21,0,0,0,50.88,222.59Z"/><path class="cls-5" d="M154.93,102.06a1.67,1.67,0,0,1,.5,0c1.11.41,3.08-1,3.29,1s-.26,4.2-2.5,5a3.44,3.44,0,0,1-4.58-1.49,5.89,5.89,0,0,1-.5-1.15c-1-3-.7-3.43,2.53-3.43Z"/><path class="cls-5" d="M145.29,102.06a2.09,2.09,0,0,1,.5,0c1.15.35,2.86-.91,3.45.94s-1.15,4.79-2.73,5.2c-1.86.49-3.53.21-4.51-1.7a6.85,6.85,0,0,1-.54-1.41c-.71-2.77-.51-3,2.32-3Z"/><path class="cls-5" d="M161.35,168.57A29.69,29.69,0,0,0,145,166.84c-1.65.32-3.26.81-4.88,1.22-.53.13-1.23.77-1.55.14a4.05,4.05,0,0,1-.12-2.2c.11-.82.88-.63,1.42-.64,2.27,0,4.54,0,6.81,0,4.13,0,8.25.14,12.37,0C161.7,165.17,162,166.28,161.35,168.57Z"/><path class="cls-7" d="M82.19,36.42H73.4a32,32,0,0,0,3.69-8.32c.11-.43.41-.8.88-.67a1,1,0,0,1,.64.68C79.21,31,80.66,33.52,82.19,36.42Z"/><path class="cls-7" d="M226.57,36.43h-8.75c1.42-2.83,3-5.39,3.55-8.34a.74.74,0,0,1,.9-.66c.5.08.63.53.72.92A31.68,31.68,0,0,0,226.57,36.43Z"/><path class="cls-2" d="M249.1,159.33c0,.58,0,1.17,0,1.75,0,3-.18,3-3.11,2.91-1.33-.07-1.74-.62-1.7-1.85,0-1.5,0-3,0-4.51,0-2.71,1.28-3.6,3.9-2.83a1.13,1.13,0,0,1,.9,1.27c0,1.09,0,2.17,0,3.26Z"/><path class="cls-2" d="M249.1,180.57c0,.59,0,1.17,0,1.76,0,2.57-1.49,3.54-4,2.71-.89-.3-.81-.95-.82-1.6,0-1.67.09-3.35-.05-5-.16-2,.52-2.59,2.52-2.58s2.57.65,2.34,2.47A18.75,18.75,0,0,0,249.1,180.57Z"/><path class="cls-2" d="M55.7,180.66v1.51c0,2.82-1.06,3.57-3.84,2.91-.91-.22-1-.79-1-1.47,0-2.09,0-4.18,0-6.27,0-1.8,1.3-1.42,2.3-1.4s2.53-.5,2.5,1.46c0,1.09,0,2.17,0,3.26Z"/><path class="cls-2" d="M50.89,159.13v-1.5c0-2.72,1.26-3.59,3.87-2.83.88.26.92.85.93,1.53,0,1.58,0,3.17,0,4.75.09,1.76,0,3-2.41,3s-2.6-1.12-2.43-2.92C50.94,160.47,50.89,159.8,50.89,159.13Z"/><path class="cls-2" d="M50.89,201.5c0-.59,0-1.17,0-1.76-.11-1.65,0-2.82,2.28-2.8s2.73.88,2.57,2.82a24.24,24.24,0,0,0,0,4.26c.15,1.81-.65,2.21-2.33,2.26-2,.06-2.8-.53-2.53-2.53A16.88,16.88,0,0,0,50.89,201.5Z"/><path class="cls-2" d="M249.1,201.83c0,.5,0,1,0,1.5,0,3-.34,3.21-3.34,2.91-1.07-.11-1.47-.54-1.46-1.56,0-2,0-4,0-6s1.45-1.58,2.63-1.66,2.35.07,2.2,1.81C249,199.82,249.1,200.83,249.1,201.83Z"/><path class="cls-2" d="M244.29,243.73V242c0-2.7,1.32-3.62,3.93-2.83a1,1,0,0,1,.85,1.05c0,2.1.08,4.21,0,6.3-.1,1.94-1.62,1.73-3,1.81-1.58.09-1.83-.77-1.76-2C244.33,245.42,244.29,244.57,244.29,243.73Z"/><path class="cls-2" d="M55.7,243.75c0,.67,0,1.34,0,2,.07,1.45,0,2.61-2,2.55-1.9,0-2.87-.62-2.8-2.6,0-1.26,0-2.53,0-3.79,0-2.67,1.38-3.61,3.93-2.79.75.24.85.72.86,1.32,0,1.1,0,2.19,0,3.29Z"/><path class="cls-10" d="M171.72,229c2.15,1.91,2.25,4.28,2.15,6.73a14.58,14.58,0,0,1,0,1.75c-.18,1.17.71,2.79-.55,3.43-1.54.79-2.7-.92-4.09-1.37-.54-.17-.57-.6-.32-1,1.71-2.63,1.49-5.79,2.35-8.65A5.38,5.38,0,0,1,171.72,229Z"/><path class="cls-11" d="M138.41,233.55h.35a10.62,10.62,0,0,1,3.18,7.59c0,1.71-.48,3.56,1,5,1.11.83,2.83.4,3.93,2.1h-5.13c-1,0-1.19-.7-1.31-1.51-.15-1-.06-2.21-.61-2.91C137.29,240.63,137.61,237.14,138.41,233.55Z"/><path class="cls-10" d="M166.28,240c.33-2.78-.6-5.32-1.07-7.93-.3-1.63-.67-4.28.69-4.59,1.54-.35,2.54,2.08,3.13,3.68C170.31,234.68,168.63,237.44,166.28,240Z"/><path class="cls-9" d="M178.88,121.7A22.81,22.81,0,0,1,180,128c.07.82.79,2-.45,2.39a3.12,3.12,0,0,1-3.1-.48,3.68,3.68,0,0,1,.11-6.06A23.91,23.91,0,0,0,178.88,121.7Z"/><path class="cls-5" d="M121.24,121.44a15.23,15.23,0,0,0,3.39,3.15c1.57,1.28.4,3.08-.35,4.51-.84,1.6-2.39,1.67-4,1.31-.5-.12-.55-.61-.48-1C120.23,126.85,120.12,124.22,121.24,121.44Z"/><path class="cls-12" d="M115.68,239.59h-4.8c-.64,0-1.17-.15-1.22-.94s.27-1.35,1.11-1.35c3.28,0,6.56,0,9.84,0a1,1,0,0,1,1.08,1.1c0,.86-.39,1.22-1.22,1.22Z"/><path class="cls-12" d="M184.2,239.6c-1.43,0-2.86,0-4.29,0-.76,0-1.56.06-1.6-1.08s.59-1.27,1.44-1.27h9.09c.83,0,1.51.2,1.5,1.26s-.84,1.08-1.6,1.08C187.23,239.61,185.71,239.6,184.2,239.6Z"/><path class="cls-5" d="M164.66,108.4c-2.68,0-5.14-3.2-4.35-5.53.47-1.37,1.74-.93,2.51-.46a49.54,49.54,0,0,1,4.26,3.13.87.87,0,0,1,.29,1.3A3.06,3.06,0,0,1,164.66,108.4Z"/><path class="cls-5" d="M139.67,103.59c-.23,3.55-2.53,5.57-5.31,4.66a2.76,2.76,0,0,1-1.82-1.62c-.37-1,.63-1.24,1.17-1.67a27.22,27.22,0,0,1,3.43-2.55C138.65,101.53,139.76,102.13,139.67,103.59Z"/><path class="cls-9" d="M203.11,222.71c0,1-.05,2,0,3,.07,1.2-.48,1.61-1.63,1.61s-1.66-.46-1.63-1.64c0-2.08,0-4.17,0-6.25,0-1.29.72-1.47,1.77-1.47s1.5.46,1.47,1.5S203.11,221.62,203.11,222.71Z"/><path class="cls-9" d="M96.88,222.67c0-1,0-2,0-3s.24-1.71,1.51-1.73,1.78.51,1.75,1.78q-.09,3,0,6c0,1.21-.54,1.59-1.67,1.6s-1.65-.49-1.59-1.65C96.93,224.67,96.88,223.67,96.88,222.67Z"/><path class="cls-8" d="M204.51,212c0-1,0-2,0-3-.06-1.2.5-1.62,1.65-1.58,1,0,1.61.29,1.6,1.41,0,2.17,0,4.33,0,6.5,0,1.3-.78,1.45-1.81,1.46s-1.48-.5-1.45-1.53S204.51,213.08,204.51,212Z"/><path class="cls-8" d="M95.48,212.26c0,1,0,2,0,3s-.38,1.52-1.46,1.51-1.81-.19-1.79-1.47q0-3.26,0-6.51c0-1.13.66-1.38,1.62-1.38s1.65.18,1.63,1.34S95.48,211.1,95.48,212.26Z"/><path class="cls-5" d="M120,176.15a7.19,7.19,0,0,1,.83-.21c3.91-.16,3.91-.16,3.91,3.82,0,1.26,0,2.52,0,3.78,0,.64.16,1.41-.87,1.5s-1.19-.39-1.31-1.15A32.81,32.81,0,0,0,120,176.15Z"/><path class="cls-13" d="M198.5,222.54c0,1.09,0,2.18,0,3.26,0,.84-.13,1.5-1.19,1.51s-1.68-.18-1.68-1.33c0-2.25,0-4.51,0-6.77,0-1,.6-1.24,1.49-1.26s1.38.37,1.35,1.33S198.5,221.46,198.5,222.54Z"/><path class="cls-2" d="M179.92,176.24a33,33,0,0,0-2.49,7.64c-.12.74-.4,1.24-1.29,1.17s-.87-.85-.89-1.49c0-1.26,0-2.52,0-3.78C175.24,175.42,175.32,175.36,179.92,176.24Z"/><path class="cls-14" d="M101.49,222.64c0-1.09,0-2.18,0-3.26,0-.89.24-1.42,1.26-1.43s1.6.33,1.6,1.42c0,2.17,0,4.35,0,6.52,0,1.1-.6,1.44-1.6,1.43s-1.3-.51-1.28-1.42C101.52,224.81,101.49,223.72,101.49,222.64Z"/><path class="cls-2" d="M100.11,243.85c0,.92,0,1.85,0,2.77.06,1.16-.39,1.66-1.61,1.67s-1.67-.42-1.63-1.62c.05-2,0-4,0-6.06,0-1.05.35-1.53,1.46-1.52s1.84.14,1.78,1.47C100.07,241.65,100.11,242.75,100.11,243.85Z"/><path class="cls-2" d="M203.1,159.39c0,1,0,2,0,3s-.34,1.55-1.45,1.54-1.81-.18-1.79-1.48c0-2.11,0-4.21,0-6.31,0-1.14.61-1.41,1.6-1.4s1.67.15,1.63,1.34S203.1,158.3,203.1,159.39Z"/><path class="cls-5" d="M96.89,201.47c0-.93,0-1.85,0-2.78,0-1.13.36-1.69,1.59-1.68s1.68.46,1.65,1.63c0,2,0,4,0,6.06,0,1.25-.62,1.54-1.73,1.53s-1.54-.41-1.51-1.49S96.89,202.56,96.89,201.47Z"/><path class="cls-2" d="M207.75,170c0,1,0,2,0,3,.06,1.29-.7,1.48-1.76,1.48s-1.5-.4-1.48-1.47c0-2.08,0-4.17,0-6.25,0-1.07.42-1.48,1.48-1.46s1.83.13,1.78,1.45C207.71,167.87,207.75,169,207.75,170Z"/><path class="cls-2" d="M204.52,233c0-1,0-2,0-3s.39-1.49,1.47-1.48,1.8.15,1.78,1.46q-.06,3.12,0,6.24c0,1.27-.69,1.5-1.76,1.5s-1.53-.41-1.49-1.47S204.52,234.08,204.52,233Z"/><path class="cls-5" d="M199.88,201.5c0-.92,0-1.85,0-2.77,0-1.11.34-1.71,1.57-1.72s1.71.39,1.68,1.6q-.08,3,0,6c0,1.24-.54,1.57-1.69,1.58s-1.61-.6-1.56-1.71S199.87,202.51,199.88,201.5Z"/><path class="cls-2" d="M204.52,190.86c0-.91,0-1.83,0-2.75-.06-1.14.36-1.66,1.57-1.65s1.7.38,1.68,1.59q-.06,3,0,6c0,1.16-.42,1.63-1.61,1.63s-1.71-.34-1.65-1.56S204.52,191.94,204.52,190.86Z"/><path class="cls-2" d="M203.1,243.82c0,.92,0,1.84,0,2.75,0,1.08-.23,1.7-1.5,1.72s-1.79-.48-1.75-1.76c.06-2,0-4,0-6,0-1.32.75-1.42,1.78-1.43s1.5.42,1.46,1.47S203.1,242.74,203.1,243.82Z"/><path class="cls-14" d="M198.5,243.82c0,1,0,2,0,3s-.21,1.43-1.24,1.44-1.63-.2-1.62-1.35c0-2.18,0-4.36,0-6.53,0-1,.48-1.29,1.4-1.31,1.09,0,1.52.4,1.47,1.47S198.5,242.73,198.5,243.82Z"/><path class="cls-14" d="M198.5,180.62c0,.92,0,1.84,0,2.76s-.14,1.76-1.47,1.72c-1.15,0-1.42-.59-1.41-1.57,0-2,0-4,0-6,0-1,.23-1.57,1.39-1.6,1.31,0,1.54.63,1.49,1.71S198.5,179.61,198.5,180.62Z"/><path class="cls-2" d="M95.48,169.92c0,1,0,2,0,3,.06,1.18-.43,1.62-1.61,1.61s-1.67-.43-1.65-1.61c0-2,0-4,0-6,0-1.19.5-1.58,1.65-1.59s1.68.4,1.61,1.59C95.43,167.92,95.48,168.92,95.48,169.92Z"/><path class="cls-2" d="M96.89,180.39c0-.92,0-1.85,0-2.78,0-1.1.25-1.73,1.53-1.71,1.12,0,1.75.3,1.72,1.56q-.07,3,0,6.06c0,1.23-.54,1.56-1.69,1.58s-1.62-.54-1.56-1.68S96.89,181.4,96.89,180.39Z"/><path class="cls-2" d="M95.48,190.91c0,1,0,2,0,3s-.1,1.77-1.44,1.76-1.87-.32-1.82-1.68c.06-1.91,0-3.83,0-5.74,0-1.26.41-1.81,1.73-1.79s1.58.61,1.53,1.7C95.45,189.08,95.48,190,95.48,190.91Z"/><path class="cls-2" d="M95.48,233.31c0,.92,0,1.85,0,2.77.06,1.18-.41,1.66-1.61,1.65s-1.67-.49-1.65-1.66c0-1.93.06-3.87,0-5.81,0-1.3.48-1.76,1.78-1.75s1.51.71,1.48,1.76S95.48,232.29,95.48,233.31Z"/><path class="cls-15" d="M101.49,243.71c0-1.09,0-2.18,0-3.26s.34-1.35,1.32-1.36,1.57.31,1.55,1.42q0,3.13,0,6.28c0,1-.4,1.49-1.49,1.5s-1.42-.57-1.39-1.56S101.49,244.72,101.49,243.71Z"/><path class="cls-15" d="M101.49,180.28c0-1,0-2,0-3s.34-1.36,1.32-1.37,1.56.34,1.55,1.43q0,3.15,0,6.28c0,1-.41,1.49-1.5,1.49s-1.42-.56-1.39-1.55S101.49,181.37,101.49,180.28Z"/><path class="cls-2" d="M203.1,180.68c0,.93,0,1.85,0,2.78.07,1.17-.38,1.65-1.59,1.64s-1.68-.42-1.66-1.62c0-2,0-4,0-6.06,0-1.29.65-1.51,1.74-1.51s1.54.4,1.5,1.49S203.1,179.58,203.1,180.68Z"/><path class="cls-2" d="M100.11,159.47c0,1,0,2,0,3,0,1.32-.77,1.45-1.81,1.46s-1.44-.56-1.43-1.57c0-2,.05-4,0-6,0-1.23.51-1.58,1.67-1.58s1.62.55,1.58,1.69S100.12,158.46,100.11,159.47Z"/><path class="cls-14" d="M104.35,201.57c0,1.09,0,2.17,0,3.26s-.59,1.41-1.6,1.4-1.27-.54-1.26-1.42q0-3.26,0-6.51c0-1,.51-1.28,1.41-1.28s1.42.36,1.43,1.3S104.35,200.49,104.35,201.57Z"/><path class="cls-9" d="M68.17,126c0-.92,0-1.84,0-2.76-.06-1.13.52-1.43,1.54-1.41s1.63.19,1.62,1.35c0,2,0,4,0,6,0,1.24-.68,1.55-1.75,1.59s-1.46-.5-1.42-1.53S68.17,127.12,68.17,126Z"/><path class="cls-14" d="M198.5,201.66c0,1.08,0,2.17,0,3.25s-.41,1.34-1.36,1.32-1.47-.29-1.48-1.26c0-2.25,0-4.5,0-6.76,0-1,.68-1.19,1.53-1.19s1.33.46,1.31,1.38C198.48,199.49,198.5,200.57,198.5,201.66Z"/><path class="cls-9" d="M231.83,126.38c0,.93,0,1.85,0,2.77.06,1.11-.26,1.75-1.53,1.68s-1.68-.53-1.65-1.7c0-1.93.05-3.85,0-5.77,0-1.29.66-1.5,1.74-1.51s1.48.48,1.44,1.52S231.83,125.38,231.83,126.38Z"/><path class="cls-16" d="M129.36,179.16c0,3.18-.05,6.36,0,9.53,0,1.28-.33,1.77-1.69,1.76s-1.52-.57-1.47-1.68A17.18,17.18,0,0,1,129.36,179.16Z"/><path class="cls-2" d="M87.43,126.68c0,.83,0,1.67,0,2.5s-.14,1.68-1.33,1.62c-1-.05-1.83-.16-1.81-1.49,0-2,0-4,0-6,0-1.09.46-1.43,1.5-1.45s1.71.37,1.65,1.58S87.42,125.6,87.43,126.68Z"/><path class="cls-2" d="M212.57,126c0-.92,0-1.84,0-2.76,0-1.14.59-1.38,1.58-1.38s1.58.23,1.56,1.38c0,2,0,4,0,6,0,1.29-.73,1.5-1.74,1.56s-1.43-.56-1.4-1.55S212.57,127.08,212.57,126Z"/><path class="cls-16" d="M170.64,179.17a17.38,17.38,0,0,1,3.14,9.62c.05,1.13-.21,1.69-1.5,1.65-1.11,0-1.69-.23-1.67-1.52C170.69,185.67,170.64,182.42,170.64,179.17Z"/><path class="cls-17" d="M142.93,246.15a2.21,2.21,0,0,1-1.61-2.48,15.45,15.45,0,0,0-2.56-10.11c.36-2.74.71-5.27,3.35-7.18,1.58-1.15,1.71-3.93,3.84-5l0,0c1.6.39.64.87.05,1.37-2.22,1.88-3.39,4.59-5.24,6.8-2.24,2.66.13,5.66,1.23,8.4.54,2-.08,4.11.34,6.14l.65,1.45Z"/><path class="cls-18" d="M158.17,225.93c3.25,1.86,4.4,4.9,3.08,9a19,19,0,0,0-.64,7.7c-1,3.87-1.83,4.59-6.08,5l-.56-.5a3.87,3.87,0,0,1,2.2-1.58c2.65-.77,3.47-2.56,3.29-5.14a14.92,14.92,0,0,1,.78-5.67c1.19-3.66.32-6.05-2.69-8.23C157.44,226,157.63,225.79,158.17,225.93Z"/><path class="cls-5" d="M115.65,192.12c-1.51,0-3,0-4.52,0-.66,0-1.39.06-1.44-.94s.47-1.17,1.24-1.17h9.53c.82,0,1.24.35,1.19,1.22s-.62.89-1.23.89Z"/><path class="cls-5" d="M184.23,192.12h-4.77c-.66,0-1.11-.21-1.12-1s.36-1.09,1-1.09c3.26,0,6.53,0,9.79,0,.66,0,1.1.27,1.13,1,0,1-.59,1.07-1.31,1.07Z"/><path class="cls-9" d="M100.62,252.8c-.84,0-1.68,0-2.52,0-1,0-1.23-.63-1.21-1.48s-.06-1.61,1.06-1.62c1.76,0,3.53,0,5.29,0,1.1,0,1.09.82,1.1,1.59s-.15,1.53-1.2,1.51Z"/><path class="cls-9" d="M199.37,252.8c-.67,0-1.34,0-2,0-1.1.07-1.74-.24-1.73-1.52s.44-1.67,1.63-1.62c1.42.06,2.85.06,4.28,0,1.21,0,1.61.48,1.58,1.65s-.42,1.53-1.49,1.47c-.75,0-1.51,0-2.26,0Z"/><path class="cls-19" d="M134.4,226.49h.39c.12,3.87-1.28,7.49-1.8,11.25-2.34-1.42-2.67-2.67-1.62-6.08C132.25,229.85,132.8,227.86,134.4,226.49Z"/><path class="cls-20" d="M171.16,245.27c-2.56-.91-2.86-.92-5.13-.11-.41-2.88.37-4.52,2.2-4.62C170.24,240.44,171.27,242,171.16,245.27Z"/><path class="cls-20" d="M134.74,243.3c-.23.75-.15,2.19-1.36,1.34s-3.5,1.79-3.62-1.28c-.07-1.64.49-3.15,2.44-3.2S134.45,241.81,134.74,243.3Z"/><path class="cls-21" d="M222.29,25.91c-1.55-.23-2.52-1-2.53-2.44A2.26,2.26,0,0,1,222.29,21a2.3,2.3,0,0,1,2.31,2.5A2.51,2.51,0,0,1,222.29,25.91Z"/><path class="cls-22" d="M78.05,25.91c-1.61-.18-2.61-.95-2.65-2.38A2.3,2.3,0,0,1,77.9,21a2.26,2.26,0,0,1,2.34,2.43A2.49,2.49,0,0,1,78.05,25.91Z"/><path class="cls-22" d="M152.48,79.21c-.28,1.36-1,2.32-2.52,2.27a2.4,2.4,0,1,1,.2-4.8A2.42,2.42,0,0,1,152.48,79.21Z"/><path class="cls-23" d="M127.84,222.48l-1.1,2.7c-1.21-2.86-.63-6.81,1.09-8.55a1.86,1.86,0,0,1,2.27-.55c.56.32-.29.79-.36,1.24C129.18,219.07,129,220.94,127.84,222.48Z"/><path class="cls-24" d="M127.86,237a6.43,6.43,0,0,1,.09-4.84c.21-.48.27-1.38,1-1.16a1.32,1.32,0,0,1,1.07,1.68,9.12,9.12,0,0,0-.15,3.45c.06.16.17.34.13.48-.17.72.61,1.88-.65,2.06C128.33,238.79,128,237.83,127.86,237Z"/><path class="cls-25" d="M154.53,247.66c2.14-1.52,5.32-1.8,6.08-5a2.32,2.32,0,0,1,.37,0,6.09,6.09,0,0,0-.45,3.39c.11,1.73-.62,2.49-2.33,2.23C157,248.08,155.58,248.87,154.53,247.66Z"/><path class="cls-19" d="M172.13,217.46c2.08,3.19,2.25,4.44,1.58,11.68a2,2,0,0,1-1.31-2.1c.87-2.82,0-5.4-.76-8C171.62,218.44,171,217.66,172.13,217.46Z"/><path class="cls-17" d="M134.4,226.49a15.21,15.21,0,0,1-3,5.16l-.68-.68c1.07-1.5,2.29-2.94,2.57-4.84.24-1.7-.47-3.57,1.14-5Z"/><path class="cls-26" d="M169.1,225.63l-2.58-4.2c-.73.52-.11,1.65-.88,2.07-.92-1.85-.69-2.59,1.55-4.58.33,2.31,1.63,4.08,2.45,6.07Z"/><path class="cls-11" d="M132.07,248.34c-.75-.4-2.22.63-2.21-1.12,0-1.22.91-1.67,2-1.69,1.35,0,2.43.54,2.36,1.94S132.8,248,132.07,248.34Z"/><path class="cls-19" d="M168.31,248.34c-.69-.36-2.09.56-2-1,.07-1.22,1-1.83,2.26-1.79s1.93.69,1.87,1.84C170.35,248.9,169,248,168.31,248.34Z"/><path class="cls-19" d="M126.69,236.16l.65,1.41a3.51,3.51,0,0,1,2,2c.32.47.42.87-.29,1.09-.93.28-1.84.59-2.76.89C126.09,239.74,125.29,237.86,126.69,236.16Z"/><path class="cls-27" d="M137.61,248.32c-.72-.33-2.06.55-2.15-.92a1.68,1.68,0,0,1,2-1.78,1.86,1.86,0,0,1,2,1.77C139.52,248.9,138.25,248,137.61,248.32Z"/><path class="cls-28" d="M126.69,236.16c-.85,1.74-.18,3.61-.43,5.4-.94-1-.47-2.28-.41-3.39.15-3.39-.61-6.82.4-10.17.89.62.76,1.48.64,2.4s-.54,1.7-.18,2.6Z"/><path class="cls-29" d="M169.18,214.39c-2.1-.53-4.5,0-6.71-2,2.63,0,4.74,1.12,6.92.46C170.43,213.53,170,214,169.18,214.39Z"/><path class="cls-20" d="M163,244.74c-.71.1-1.49.67-1.41-.45a2,2,0,0,1,2-2.18c.62,0,1.37-.19,1.38.91C165,244.61,164.26,245.11,163,244.74Z"/><path class="cls-30" d="M163.35,248.36c-.77-.28-1.91.36-1.9-.76a1.85,1.85,0,0,1,2-1.86A1.68,1.68,0,0,1,165,247.4C165.15,249,163.71,247.78,163.35,248.36Z"/><path class="cls-15" d="M173.66,181.05c-1-1.92-1.81-3.33-2.6-4.77C174.06,175.63,174.14,175.76,173.66,181.05Z"/><path class="cls-14" d="M128.94,176.24l-2.37,4.38C125.45,176.59,125.94,175.68,128.94,176.24Z"/><path class="cls-19" d="M126.71,233c-.85-1.6-.21-3.34-.46-5l1.48-.57c1.24.16.73,1,.59,1.62Z"/><path class="cls-31" d="M136.88,236.62c0,1.55,0,2.55,0,3.55a1,1,0,0,1-1.17,1c-.72,0-1-.66-.85-1.28A5.13,5.13,0,0,1,136.88,236.62Z"/><path class="cls-32" d="M135.8,242.6c2.3-1.8,2.41.4,3.3,1.84l-3.26.37A2.63,2.63,0,0,1,135.8,242.6Z"/><path class="cls-33" d="M71.15,40c-.27,2.28-1,3.8-3.37,4.77A10.38,10.38,0,0,1,71.15,40Z"/><path class="cls-34" d="M232.07,44.28c-2.26-.44-3-2-3.19-4.29A12.07,12.07,0,0,1,232.07,44.28Z"/><path class="cls-35" d="M129,241.86c-.51,1.19.57,2.51-.92,3-.44.15-1.59.18-1.59-.75C126.47,242.84,127.1,241.88,129,241.86Z"/><path class="cls-19" d="M127.22,245.74c.92.13,1.56.54,1.55,1.6,0,.83-.53.91-1.17.93-.86,0-1.51-.12-1.47-1.2C126.16,246.35,126.25,245.7,127.22,245.74Z"/><path class="cls-36" d="M88.11,44.76a5.07,5.07,0,0,1-3.63-4.22C86.29,41.56,86.58,41.91,88.11,44.76Z"/><path class="cls-37" d="M220.71,69.67a3.3,3.3,0,0,1,.16-.71c.35-.56.72-1.12,1.11-1.73.91.45,1.16,1.31,1.55,2.15C222.66,70,221.76,69.69,220.71,69.67Z"/><path class="cls-38" d="M65.44,47.87c-.14,2.28-.69,3.75-2.67,4.77A8.47,8.47,0,0,1,65.44,47.87Z"/><path class="cls-39" d="M127.84,222.48c.33-1.84.54-3.71,1.9-5.16l.53.57q-1,2.84-1.94,5.67Z"/><path class="cls-40" d="M209.82,47.69c-.14,1.92-.49,3.77-2.76,4.93A10.8,10.8,0,0,1,209.82,47.69Z"/><path class="cls-41" d="M212.18,44.43a10.83,10.83,0,0,1,2.86-4C215.23,42.87,214,43.87,212.18,44.43Z"/><path class="cls-42" d="M76.27,69.51l1.62-2.57c.36,1.06,1.48,1.64,1,2.47S77.43,69.74,76.27,69.51Z"/><path class="cls-43" d="M89.93,47.05a20.25,20.25,0,0,1,3.2,5.72C90.67,51.39,90.26,49.58,89.93,47.05Z"/><path class="cls-44" d="M235.38,48.64a11.86,11.86,0,0,1,1.93,4,3.77,3.77,0,0,1-2.48-2.9C234.57,49.13,234.44,48.61,235.38,48.64Z"/><path class="cls-45" d="M173.84,247.3c0,1-.68,1-1.38.95s-1-.53-.94-1.17.47-1.28,1.28-1.21S173.85,246.56,173.84,247.3Z"/><path class="cls-46" d="M129.31,239.58a3.47,3.47,0,0,1-2-2l.53-.61,1.81,1.67.21-2.54A2.53,2.53,0,0,1,129.31,239.58Z"/><path class="cls-19" d="M173.87,243.7c-.08.45.12,1.11-.63,1.1-1.27,0-.83-1.17-1.14-1.83s.08-.83.63-.82C173.78,242.17,173.83,242.94,173.87,243.7Z"/><path class="cls-47" d="M163.74,241.32l.33-3.8C165.64,238.26,165.64,238.78,163.74,241.32Z"/><path class="cls-36" d="M155.58,130.09c.22.63-.15.77-.62.76s-.92.18-1-.39a1.15,1.15,0,0,1,.7-1.22C155.3,129,155.31,129.78,155.58,130.09Z"/><path class="cls-41" d="M135.43,129.14a1.24,1.24,0,0,1,1,1.06c.17.63-.31.67-.73.65s-1,.18-.92-.46A3.69,3.69,0,0,1,135.43,129.14Z"/><path class="cls-36" d="M145.17,130.87c-.43,0-.93,0-.79-.64.11-.47.38-1.1.86-1s.73.7.8,1.13C146.14,131,145.52,130.8,145.17,130.87Z"/><path class="cls-41" d="M164.34,130.87c-.44,0-.93,0-.8-.64.1-.48.38-1.1.86-1s.73.7.8,1.14C165.3,131,164.68,130.8,164.34,130.87Z"/><path class="cls-48" d="M235.38,48.64l-.55,1.07c-.44-.63-.83-1.44-.28-2C234.85,47.41,235.19,48.22,235.38,48.64Z"/><path class="cls-49" d="M172.13,217.46c-.16.52-.33,1-.49,1.56-.15-.54-.32-1.08-.42-1.63-.05-.28-.09-.76.37-.68C171.81,216.75,172,217.2,172.13,217.46Z"/><path class="cls-50" d="M128.32,229.05c-.14-.56,0-1.23-.59-1.62C129,227.26,129,227.39,128.32,229.05Z"/><path class="cls-51" d="M135.8,242.6c0,.73,0,1.47,0,2.21C134.91,244.09,135.44,243.34,135.8,242.6Z"/><path d="M184.42,38.05c-1.27,1.57-2.82,2.83-2.64,5.34.13,1.88-2.08,2.87-4.23,2.09a2.17,2.17,0,0,0-2.28.17c-6.22,4.28-12.47,8.53-18.9,12.91L179.87,75c3.86,2.7,7.73,5.38,11.57,8.11,2.2,1.56,2.73,3.55,1.53,5.37s-3.37,2.16-5.73.51q-17.69-12.33-35.32-24.76a2.86,2.86,0,0,0-3.93,0c-11.77,8.11-23.6,16.12-35.43,24.15a9.27,9.27,0,0,1-2.41,1.31,2.86,2.86,0,0,1-2.92-4.61,11.16,11.16,0,0,1,2-1.57l35-24.65c-2.11-1.48-4.1-2.82-6-4.23-.62-.45-1-.13-1.58.07-2.85,1-5-.63-4.52-3.54a1.52,1.52,0,0,0-.7-1.84c-3.8-2.63-7.6-5.27-11.36-8-.87-.62-1.31-.61-1.93.33-1.77,2.66-3.62,5.27-5.49,7.85a2,2,0,0,0-.32,2.11,2.33,2.33,0,0,1-.3,2.17c-.26.4-.85,1-1.1.91-2.59-.84-3.66,2.67-6.1,2.08A2.49,2.49,0,0,1,103.11,53a2.25,2.25,0,0,0,.13-2.57A2.36,2.36,0,0,1,105.33,47a2.91,2.91,0,0,0,2.34-1.51c1.65-2.44,3.32-4.86,5.08-7.22.71-1,.7-1.48-.33-2.18q-6-4.05-11.78-8.24a2.87,2.87,0,0,0-2.36-.31c-2,.25-3.39-.92-3.1-2.87.16-1.08-.18-1.38-.92-1.93a2.43,2.43,0,0,1-.51-3.58,2.32,2.32,0,0,1,3.52-.66,1.66,1.66,0,0,0,2.11.19c1.83-.93,3.48-.1,3.73,1.89a3,3,0,0,0,1.5,2.37c3.75,2.57,7.48,5.15,11.16,7.81,1.11.81,1.73.87,2.53-.41,1.33-2.14,2.88-4.15,4.32-6.22.84-1.2,1.84-2.24,1.16-4-.42-1.1.76-2.72,1.53-2.45,2.81,1,4.22-4.09,7.17-1.48.59.52,1.23,1.53.79,2-2.1,2,1.51,5.72-1.44,6.73-4.85,1.67-5.66,6.47-8.65,9.51-.72.72-.49,1.24.31,1.79,3.88,2.66,7.76,5.34,11.58,8.09.84.61,1.3.18,2-.15,2.43-1.16,4.79.16,4.73,2.81a2.39,2.39,0,0,0,1.3,2.38c2.46,1.61,4.79,4.44,7.31,4.62s4.86-2.92,7.27-4.58c4.3-3,8.53-6,12.81-9,1.06-.74,1.83-1.37,1.76-3-.1-2.21,1.77-3.54,4-2.78,1.45.49,2-.12,2.6-1a19.2,19.2,0,0,0,2.93-7.18c.2-.91.35-1.82.55-2.72,2.11-9.15,8.83-13.19,17.48-10.5a14.26,14.26,0,0,1,9,19.06c-2.14,5.55-5,7.49-10.9,7.39a29.7,29.7,0,0,0-3.53,0c-1.65.16-3.22.73-3.8,2.45s.62,2.63,2.09,3.46a4,4,0,0,1-4.91.92,6.41,6.41,0,0,1-3.27-5.84c.09-.66.3-1.3.45-2,.64-2.94,2.9-4.1,5.46-4.94-2.39-2.52-2.36-5.38.18-7.52a7.33,7.33,0,0,0,2-2.54c1.38-2.88,2.45-3.42,5.81-3.14,1.68.78,2.86,1.88,2.65,3.91.27-1.91-.9-2.94-2.38-3.79-4.06-.67-7.24,1.06-8.59,4.79a28.67,28.67,0,0,0-1.52,5.29A11.87,11.87,0,0,1,184.42,38.05Z"/><path class="cls-6" d="M184.42,38.05c2.28-3.88,3.36-8.18,4.49-12.49,1.28-4.91,5.62-7,10.08-5.16.07.44,0,.75-.55.49-3.27-.06-4.68.91-5.36,4.05a2,2,0,0,1-1.44,1.69,3.44,3.44,0,0,0-2.25,4.26c.35,1.54,1,2.77,2.91,1,.21,1.79-.26,2.59-2.05,2.85-2.36.34-4,2-5.35,3.87Z"/><path class="cls-52" d="M152.66,233.5c.82.17,1.63.39,2.46.5a3.45,3.45,0,0,1,3.24,3.53c0,.5,0,1,0,1.51.07,4.32.07,4.34-4.22,3.58a18.39,18.39,0,0,0-7.94.7c-2.6.68-3.27.2-3.25-2.42,0-1.81-.35-3.72,1-5.3.45-.14.69.11.9.44.48,1.15,0,2.31.09,3.71,1.24-1.57,2.56-1.37,3.81-.24,1.57,1.42,3,1.58,4.53-.11,1-1.07,2.06-.85,3.34-.37-2.18-1.22-4.48-2.3-4.8-5.12C152,233.54,152.2,233.26,152.66,233.5Z"/><path class="cls-53" d="M144.48,236.17l-.52-.57c.61-1.2,1.85-1.32,2.92-1.76s3-1.15,2.26-2.38,0-4.65-3.46-3.67c1.6-1.72,2.57-1.52,3.45.49.33.77,0,2.14,1.3,2.14s1.46-1.31,1.81-2.34c.42-1.25,1-2.54,2.66-1.35.34.24.7,1-.21,1-2.6.22-1.73,3-3.1,4.19-.37.32.71,1,1.07,1.54l-.64.5c-1,.47-2.27.29-3,1.78C147.73,238.73,146.62,238.73,144.48,236.17Z"/><path class="cls-54" d="M162,218.4c-1.6-1.71-3.16-2.92-5-.43-.55.76-1,.2-1.41-.22-.82-.83-2.29-1.07-2.52-3,2.41,1.91,4.43,1.13,6.46-.07.89-.52,2-.88,2.82-.1.62.56,2.28,1.41,0,2.19C162.09,216.83,162.1,217.73,162,218.4Z"/><path class="cls-55" d="M148.14,214.54c-.57,2.31-2.18,2.52-3,3.53a.62.62,0,0,1-1.06-.07c-1.77-2.45-3.33-1.49-4.78.28-1-.18.45-1.56-1.2-1.88-1-.2.17-1.61,1-2.06a2.59,2.59,0,0,1,2.61.39C143.67,215.86,145.63,216.61,148.14,214.54Z"/><path class="cls-56" d="M161,209.05c1.9-.8,2.68-3.51,5.32-2.94C164.23,206.66,163.54,209.43,161,209.05Z"/><path class="cls-39" d="M139.05,209c-2.55.61-3.26-2.26-5.18-3C136.22,205.73,137.16,208.23,139.05,209Z"/><path class="cls-57" d="M158.17,225.93l-.62.61c-1.41-.78-1.42-2.59-2.62-3.52a.66.66,0,0,1,.62-.57C156.93,223.23,157.17,224.87,158.17,225.93Z"/><path class="cls-58" d="M142.3,244.14c-.79-2-.25-4.09-.34-6.14C142.7,240,142.17,242.09,142.3,244.14Z"/><path class="cls-59" d="M155.61,222c-.45-.72-.92-1.43-.41-2.32,1.28,1.24,1.28,1.24.38,2.28Z"/><path class="cls-60" d="M142.7,218c0,.56-.29.91-.88.91a.79.79,0,0,1-.83-.71.75.75,0,0,1,.63-.89A.84.84,0,0,1,142.7,218Z"/><path class="cls-61" d="M146,221.39c-2.29-.47-.14-1.4-.92-2.53,1.89,1,.8,1.86.89,2.57Z"/><path class="cls-17" d="M159.15,217.3c.64,0,.91.35.91.81a.74.74,0,0,1-.75.8.81.81,0,0,1-.16-1.61Z"/><path class="cls-62" d="M150.2,216.2c-.47-.74-.56-1.33-.06-1.89a.45.45,0,0,1,.41.11C151,215,151,215.57,150.2,216.2Z"/><path class="cls-26" d="M155.55,222.45l-.62.57c-.45-.2-1.11-.41-.85-1,.35-.77,1,.17,1.53-.08l0,0Z"/><path class="cls-3" d="M189.88,45.55c-4-.94-5.31-4.75-2.79-7.5A6.88,6.88,0,0,1,193,35.82c1.67.14,3.33.39,5,.56a7,7,0,0,0,7.6-6.72c0-.54.25-1.27-.46-1.53s-.79.43-1.1.81c-2.66,3.27-4.33,3.71-8.32,2.08a5.37,5.37,0,0,0-3.41-.49c-.58.14-1.27.89-1.7-.12-.3-.69,0-1.65.53-1.8,2.57-.75,3.51-2.52,3.86-5a2,2,0,0,1,2.18-1.42c.88.06,2.1.17,1,1.62a2,2,0,0,0,.2,2.94,2.84,2.84,0,0,0,3.28.53,2.65,2.65,0,0,0,1.57-2.89c-.22-4-4.67-6.93-9-5.86-3.83.95-6,3.57-6.87,7.29a44.78,44.78,0,0,1-2.39,8A19.59,19.59,0,0,1,183,37.51c-.61.79-.92,2.54-2.42,1.86-1.68-.77-2-3.27-.93-4.73a21.48,21.48,0,0,0,3.62-9c.19-.91.35-1.82.6-2.71,1.64-5.76,5.1-8.89,10-9.13,6.4-.31,11.47,2.67,13.6,8,2,5.07.62,11.56-3.17,14.88-1.8,1.57-3.94,1.74-6.15,1.71a28.37,28.37,0,0,0-4,0C189.79,39,188.4,41.25,189.88,45.55Z"/><path class="cls-3" d="M109.51,88.5a1.47,1.47,0,0,1-1.41-.88,1.46,1.46,0,0,1,.15-1.66A10.57,10.57,0,0,1,110,84.52l61-43a2.6,2.6,0,0,1,4.35,1.82c.19,1.17-.92,1.29-1.52,1.7q-19.26,13.17-38.55,26.27-11.77,8-23.56,16A5,5,0,0,1,109.51,88.5Z"/><path class="cls-3" d="M102.76,23.3c.53.34,1.1.68,1.65,1.06,3.85,2.7,7.74,5.36,11.54,8.13,1.22.88,1.88.9,2.75-.45,1.78-2.75,3.79-5.35,5.59-8.09.82-1.26,1.48-1.17,2.61-.4s1.38,1.35.48,2.54c-2,2.62-3.71,5.41-5.68,8-.94,1.24-.85,1.85.46,2.72,3.92,2.61,7.72,5.4,11.61,8,1.1.75,1.49,1.31.59,2.56s-1.5,1.45-2.79.5c-3.72-2.73-7.59-5.28-11.32-8-1.31-1-2-1-3,.47-1.78,2.75-3.78,5.35-5.58,8.1-.77,1.17-1.36,1.1-2.39.35s-1.64-1.25-.66-2.56c1.91-2.55,3.57-5.31,5.55-7.8,1.29-1.62.74-2.32-.7-3.29-4-2.67-7.87-5.46-11.78-8.24-.54-.38-1.6-.65-.86-1.68C101.37,24.56,101.64,23.58,102.76,23.3Z"/><path class="cls-3" d="M192.27,86.45a2.2,2.2,0,0,1-3,2.13,9.48,9.48,0,0,1-2.36-1.4q-16.74-11.7-33.44-23.44c-.69-.48-2.2-.65-1.68-2s3.53-2.27,4.65-1.5Q164,65.5,171.56,70.8,181,77.38,190.36,84C191.27,84.59,192.16,85.22,192.27,86.45Z"/><path class="cls-10" d="M148.85,55.23c-.18,1.14-3.68,2.66-4.61,2.05-1.68-1.12-3.3-2.32-5-3.45-.76-.52-1.12-1.12-.35-1.81s1-3,2.55-2.16a64.06,64.06,0,0,1,7.06,4.85C148.7,54.83,148.77,55.1,148.85,55.23Z"/><path class="cls-11" d="M180.71,42.73a1.91,1.91,0,0,1-1,1.53,1.51,1.51,0,0,1-2.06-.27c-1.42-1.86-2.74-3.8-4-5.76a1.56,1.56,0,0,1,.4-2,1.7,1.7,0,0,1,1.85-.45C176.74,36,180.71,41.67,180.71,42.73Z"/><path class="cls-10" d="M138.36,45c1.61-.07,2.65,1.26,1.91,2.56a52.09,52.09,0,0,1-3.88,5.59,1.65,1.65,0,0,1-2.29.28,1.53,1.53,0,0,1-.76-2,26.81,26.81,0,0,1,4.26-6.2C137.79,45.07,138.22,45.05,138.36,45Z"/><path class="cls-45" d="M102,21.14a22.5,22.5,0,0,1-3.65,5A1,1,0,0,1,97,26a1.27,1.27,0,0,1-.26-1.81c.87-1.33,1.79-2.64,2.73-3.92a1.31,1.31,0,0,1,1.78-.45A1.59,1.59,0,0,1,102,21.14Z"/><path class="cls-11" d="M105.71,48.2c.68,0,5,3.08,5.24,3.73a1.21,1.21,0,0,1-.34,1.36,1.1,1.1,0,0,1-1.38.27c-1.53-1-3-2.05-4.5-3.16a1.15,1.15,0,0,1-.19-1.4A1.25,1.25,0,0,1,105.71,48.2Z"/><path class="cls-11" d="M131.76,22.72c-.2,1-.81,1.66-1.75,1.24a15.43,15.43,0,0,1-4.66-3.26,1.16,1.16,0,0,1,0-1.41,1.08,1.08,0,0,1,1.51-.47c1.6,1,3.13,2.15,4.67,3.26C131.65,22.2,131.67,22.52,131.76,22.72Z"/><path class="cls-32" d="M203.63,31.79c-2,3.21-6.51,4.27-9.39,2.66-.49-.28-.8-.66-.54-1.21a1.53,1.53,0,0,1,2.13-.71A8.85,8.85,0,0,0,203.63,31.79Z"/><path class="cls-63" d="M198.44,20.89l.55-.49c1.76.65,2.5,2.13,3,3.77a1.58,1.58,0,0,1-1,2,1.36,1.36,0,0,1-1.78-.5c-.62-.95.42-1.16.79-1.74C201.15,22.23,199.17,21.83,198.44,20.89Z"/><path class="cls-64" d="M106.64,54.21a1.22,1.22,0,0,1-1.17,1.36,1.32,1.32,0,1,1-.09-2.63A1.18,1.18,0,0,1,106.64,54.21Z"/><path class="cls-65" d="M95.8,21.92a1.21,1.21,0,0,1-1.26-1.26A1.23,1.23,0,0,1,96,19.36a1.17,1.17,0,0,1,1.11,1.38A1.16,1.16,0,0,1,95.8,21.92Z"/><path class="cls-66" d="M130.53,16.8c.86,0,1.33.38,1.39,1.15a1.15,1.15,0,0,1-1.07,1.38,1.22,1.22,0,0,1-1.47-1.26A1.19,1.19,0,0,1,130.53,16.8Z"/><path class="cls-67" d="M144.48,236.17c.34-.13.68-.53,1,0,1.63,2.64,2.2.81,2.79-.69,1.11-2.79,1.77-3.07,3.72-1.51.46.55,1.36.56,1.58,1.48.54,2.31,1.61,2.79,3.21.46.89,2.11.6,4,.46,6-.89-.39-.88-1.13-1.18-1.65s-.43-1.14-1.13-1.2-.86.62-1.14,1.12c-.83,1.42-3.9,1.85-5.1.72-2.34-2.21-2.33-2.21-3.6.83a7.67,7.67,0,0,1-.72,1.05A12.28,12.28,0,0,1,144.48,236.17Z"/><path class="cls-68" d="M147.73,241c.06.95-.31,1.08-.73,1.13s-.86,0-.71-.6c.1-.39,0-1.11.7-1A1.81,1.81,0,0,1,147.73,241Z"/><path class="cls-69" d="M154.86,240.36a4.16,4.16,0,0,1,.58.86.61.61,0,0,1-.29.49.49.49,0,0,1-.58-.56A3.14,3.14,0,0,1,154.86,240.36Z"/></svg>