<svg id="Layer_1" data-name="Layer 1" xmlns="http://www.w3.org/2000/svg" viewBox="0 0 300 300"><defs><style>.cls-1{fill:#006cb7;}.cls-2{fill:#dbd1cd;}.cls-3{fill:#020f19;}.cls-4{fill:#dad1cd;}.cls-5{fill:#dad0cd;}.cls-6{fill:#dad0cc;}.cls-7{fill:#d4cbc7;}.cls-8{fill:#d6ccc8;}.cls-9{fill:#d5ccc8;}.cls-10{fill:#d6cdc9;}.cls-11{fill:#d2c9c5;}.cls-12{fill:#d3c9c5;}.cls-13{fill:#d4cac6;}.cls-14{fill:#cec5c1;}.cls-15{fill:#cbc2be;}.cls-16{fill:#37393a;}.cls-17{fill:#112736;}.cls-18{fill:#10171c;}.cls-19{fill:#3d4043;}.cls-20{fill:#153146;}.cls-21{fill:#2e3031;}.cls-22{fill:#283743;}.cls-23{fill:#223542;}.cls-24{fill:#272f36;}.cls-25{fill:#152835;}.cls-26{fill:#162c3b;}.cls-27{fill:#03365a;}.cls-28{fill:#304b5e;}.cls-29{fill:#1a2d3b;}.cls-30{fill:#21323e;}.cls-31{fill:#183142;}.cls-32{fill:#303133;}.cls-33{fill:#142a39;}.cls-34{fill:#1f1d1d;}.cls-35{fill:#03385e;}.cls-36{fill:#0b1b26;}.cls-37{fill:#0d151b;}.cls-38{fill:#404245;}.cls-39{fill:#172229;}.cls-40{fill:#1d272f;}.cls-41{fill:#0b151d;}.cls-42{fill:#003c67;}.cls-43{fill:#212f3a;}.cls-44{fill:#05385c;}.cls-45{fill:#31414d;}.cls-46{fill:#262524;}.cls-47{fill:#0e1113;}.cls-48{fill:#3c3f42;}.cls-49{fill:#0e3856;}.cls-50{fill:#10202b;}.cls-51{fill:#05375b;}.cls-52{fill:#454749;}.cls-53{fill:#0c293d;}.cls-54{fill:#182631;}.cls-55{fill:#212427;}.cls-56{fill:#303337;}.cls-57{fill:#34393c;}.cls-58{fill:#23465f;}.cls-59{fill:#0c283c;}.cls-60{fill:#0d1923;}.cls-61{fill:#2a333b;}.cls-62{fill:#15191d;}.cls-63{fill:#182127;}.cls-64{fill:#3d4044;}.cls-65{fill:#161c20;}.cls-66{fill:#253e50;}.cls-67{fill:#33373b;}.cls-68{fill:#35424c;}.cls-69{fill:#16191c;}.cls-70{fill:#302f2e;}.cls-71{fill:#14191c;}.cls-72{fill:#303d48;}.cls-73{fill:#0a1a26;}.cls-74{fill:#11354e;}.cls-75{fill:#08121a;}.cls-76{fill:#18232c;}.cls-77{fill:#08131a;}.cls-78{fill:#0b0e10;}.cls-79{fill:#182833;}.cls-80{fill:#3a3736;}.cls-81{fill:#1d1c1b;}.cls-82{fill:#3d3b39;}.cls-83{fill:#464342;}.cls-84{fill:#4b4746;}.cls-85{fill:#53504e;}.cls-86{fill:#272524;}.cls-87{fill:#4a4645;}.cls-88{fill:#5d5957;}.cls-89{fill:#454241;}.cls-90{fill:#605c5a;}.cls-91{fill:#54504e;}.cls-92{fill:#716c69;}.cls-93{fill:#524e4d;}.cls-94{fill:#222120;}.cls-95{fill:#4a4745;}.cls-96{fill:#807a77;}.cls-97{fill:#141312;}.cls-98{fill:#3c3938;}.cls-99{fill:#2f2d2c;}.cls-100{fill:#686361;}.cls-101{fill:#4d4948;}.cls-102{fill:#0e0d0d;}.cls-103{fill:#4a4746;}.cls-104{fill:#1b1a19;}.cls-105{fill:#181716;}.cls-106{fill:#a39b98;}.cls-107{fill:#9c9492;}.cls-108{fill:#292827;}.cls-109{fill:#262626;}.cls-110{fill:#383534;}.cls-111{fill:#6c6765;}.cls-112{fill:#5b5755;}.cls-113{fill:#4c4847;}.cls-114{fill:#514d4c;}.cls-115{fill:#222;}.cls-116{fill:#4d4a48;}.cls-117{fill:#585453;}.cls-118{fill:#4f4c4a;}.cls-119{fill:#534f4d;}.cls-120{fill:#42403e;}.cls-121{fill:#413e3d;}.cls-122{fill:#474342;}.cls-123{fill:#141313;}.cls-124{fill:#4f4b49;}.cls-125{fill:#504c4b;}.cls-126{fill:#42403f;}.cls-127{fill:#3e3b3a;}.cls-128{fill:#1b2024;}</style></defs><path d="M24.66-.61H275.34a1,1,0,0,1,1,1V176.59A123.39,123.39,0,0,1,152.94,300h-5.65A123.62,123.62,0,0,1,23.67,176.37V.38a1,1,0,0,1,1-1Z"/><path class="cls-1" d="M150.08,3.36c39.57,0,79.14.08,118.71-.11,4.37,0,5.19,1.36,5.18,5.37q-.21,60.51,0,121c0,4.37-1.37,5.23-5.41,5.22q-118.71-.15-237.42,0c-3.88,0-5.17-.78-5.15-5q.25-61,0-121.94c0-4,1.21-4.7,4.88-4.68C70.63,3.41,110.35,3.36,150.08,3.36Z"/><path class="cls-2" d="M174,184.07c-.1,1.67-.28,3.34-.28,5,0,33.6-.08,67.2.08,100.8,0,3.53-1.15,4.65-4.4,5.21a112.6,112.6,0,0,1-38.67,0c-3.31-.58-4.41-1.77-4.4-5.27.15-33.6.1-67.2.07-100.8,0-1.65.38-3.36-.4-5-1.67,0-3.3.46-5,.46q-44.37,0-88.74,0c-2.61,0-5.37.19-6.05-3.34,0-13.6,0-27.19-.15-40.78,0-3,.47-4.14,3.87-4.13q120,.15,240.08,0c2.8,0,3.95.45,3.9,3.64-.24,14.36-.19,28.72-.25,43.07-1.36,1.6-3.23,1.5-5.06,1.51q-45,0-90.08,0C177,184.51,175.49,184.13,174,184.07Z"/><path class="cls-1" d="M272.93,189.54c-9.23,53.93-41.9,86.74-92.88,103-5,1.59-5.14,1.38-5.15-3.79q0-51.75-.05-103.5c1.07-1.52,2.71-1.18,4.18-1.19q44.81,0,89.59,0C273.38,184.07,273.5,184.3,272.93,189.54Z"/><path class="cls-1" d="M125.07,185.11c0,34.95,0,69.91.11,104.86,0,3.26-.88,3.83-3.86,3-44.54-12.19-86.39-48.14-94-103-.23-1.65-.16-3.34-.23-5,1.58-1.34,3.49-.91,5.28-.92q43.77,0,87.54,0C121.64,184.07,123.57,183.58,125.07,185.11Z"/><path class="cls-3" d="M272.93,189.54c0-2.34.7-4.69-3.39-4.67-30.81.17-61.62.1-92.42.12a19.48,19.48,0,0,0-2.27.26c-.29-.39-.59-.78-.88-1.18,1.33-1.58,3.12-.7,4.65-.71q44.79-.09,89.57-.06c1.82,0,3.64-.21,5.46-.32C273.6,185.19,274.38,187.48,272.93,189.54Z"/><path class="cls-3" d="M125.07,185.11,27,185a5.37,5.37,0,0,1-.85-3.83c.65,2.78,2.87,2.16,4.77,2.16q45.15,0,90.3.05c1.55,0,3.34-.83,4.71.69Z"/><path class="cls-2" d="M212.35,35.33c1.44.41,3.11-.17,4.36,1,.77.73.52,1.55.21,2.38-1.85,2.47-4.43,3-7.32,2.79a23.06,23.06,0,0,0-5.63.07c-1.46.23-2.76.65-2.92,2.44A4.21,4.21,0,0,1,199,46.35a14.12,14.12,0,0,1-2.68.91.59.59,0,0,0,0,.72,5.43,5.43,0,0,1,.81,1.39,2.72,2.72,0,0,1-1.67,3.75,10.74,10.74,0,0,1-2.29.48c-1.26.79.21,1.31.22,2A2.23,2.23,0,0,1,193,58c-1.43,1.24-3.19,1-4.87,1.11-1.07.4-1.11,1.29-1.06,2.24a2.52,2.52,0,0,1-1.91,2.82c-1.05.35-2.84-.23-2.44,1.95a2.81,2.81,0,0,1-.43,1.7c-1.62,1.69-3.81.55-5.65,1.12-.89.69-1.42,1.82-2.59,2.17-.89.29-1.83.19-2.72.43-1.15.43-1.56,1.79-2.72,2.17a21.32,21.32,0,0,1-2.87.3c-1.35.36-2.2,1.61-3.52,2a5.91,5.91,0,0,0-.86.8c-1.81,3.16-3.13,6.42-2.25,10.17A234.47,234.47,0,0,0,172.28,108c.51,1.53,1.88,3.07-.09,4.54l-1.9,1.11c-1.65,1.27-4,.07-5.6,1.69l-.65.92c-1.76.9-3.55,1.68-5.61,1.23-1.56-.79-3-1.65-2.59-3.78a13.38,13.38,0,0,1-.93-5.56,11.9,11.9,0,0,1-.79-6.13,11.79,11.79,0,0,0,.78,6.13,14,14,0,0,0,.94,5.61c-.25,1.08.75,2.45-.74,3.24l-2.28,1.87c-2.86-.4-6,.57-8.37-2-.79-1.24-1.19,0-1.74.28a7,7,0,0,1-5,.11l-3.29-2.74a13.62,13.62,0,0,1-5.76-.83l-1.3-1.17c-1.94-1.5-.54-2.64.42-3.83l12.93-21.75a14.28,14.28,0,0,0,.44-5c-1.57-1.8-1.3-4.46-2.93-6.23a11,11,0,0,0-1.08-.43c-1.42-.47-2.09-2.4-3.94-2-2,.27-3.19-1.22-4.63-2.14a5.88,5.88,0,0,0-1.11,0,2.89,2.89,0,0,1-3-1.18,9.15,9.15,0,0,1-.67-1.42,1.16,1.16,0,0,0-1.25-.38,7.08,7.08,0,0,1-2.22.41A2.5,2.5,0,0,1,118,66.75a7.5,7.5,0,0,1-.29-1.13c-.86-2.27-3.7-.66-4.81-2.43a2.74,2.74,0,0,1-.44-1.76c0-1,2-2.85-1.09-2.63-1.69,0-3.06-.58-3.71-2.28a8.57,8.57,0,0,1-.33-1.85c-.25-1.27-1.3-1.23-2.25-1.36a3.42,3.42,0,0,1-2.61-1.94,3.69,3.69,0,0,1,1-3.61c-.45-1.91-2.52-1.23-3.53-2.2a2.9,2.9,0,0,1-.81-.93,4.18,4.18,0,0,1,.43-2.75s-.06-.38-.1-.35a2,2,0,0,0-.84-.14l-3.29,0a27.37,27.37,0,0,0-5.28.25,7.36,7.36,0,0,1-6.89-3C81.79,34.81,85,36,86.69,35.42a1,1,0,0,0,.84-.14c3-1.5,6.35-1.08,9.43-2.1,1.5.09,3-.28,4.5.3l9.88.12a7.29,7.29,0,0,1,5.7,1.67c2.23.33,2.8,2.36,3.92,3.83,2.05,1.3.22,3.64,1.38,5.18a9.73,9.73,0,0,0,7.3,2.12,12.16,12.16,0,0,1,6.66,0A5.34,5.34,0,0,0,141.65,44c.08-1.3,1.17-2.62-.08-3.89l-3.28-2.88c-.29-1.94,1.27-1.57,2.3-1.86,1.14.33,2.3.13,2.6-1s-1-1.53-1.9-2c-2.26-1.13-4.61-.56-6.94-.31-.67-.13-1.59-.12-.7-1.18.63-1.51,2.2-1.62,3.39-2.3.71-1.43,2-.83,3.12-.88,1.33-.06,2.69.13,3.26-1.51.59-.61,1.18-1.23,1.78-1.84a10.43,10.43,0,0,1,5.65,0A12.54,12.54,0,0,1,159.33,29c1,1.58,1.1,3.43,1.42,5.21a54.65,54.65,0,0,1,.17,6.65v1.32a3.6,3.6,0,0,0,3.45,3.31c2.11,1.18,4.54-.15,6.68.83l1.78-.12c1.34-1,3.23-.78,4.46-2,1-1.9.65-4.19,1.79-6,1.77-1.44,2.79-4,5.67-3.77a15.68,15.68,0,0,1,7.56-1.22c1.81.15,3.66-.34,5.43.34l4.33.07c1.48-.92,2.72.24,4.07.47A12.05,12.05,0,0,1,212.35,35.33Z"/><path class="cls-2" d="M195.1,46.46a5.48,5.48,0,0,1,3.47-.93A19.5,19.5,0,0,1,203.69,44c4-.19,7.71.91,11.46,1.94,1.69.65,3.11,2.23,5.21,1.52a4.9,4.9,0,0,1,1.2.13c1.09.3,2,1.22,3.27.93a6.46,6.46,0,0,1,2.32.08c1.1.33,2.07,1.14,3.32.9a5.42,5.42,0,0,1,2.47-.06,12.48,12.48,0,0,0,5.71,1.16,25.38,25.38,0,0,1,8.54,1c1.41,0,2,1.38,3.24,1.73,1.45.34,4-.85,3.29,2.43-1.5,3.25-4.44,4.81-7.39,6.35-3.36.47-6.75.69-10.09,1.3-3-.39-6-1.28-9-1.51A115.93,115.93,0,0,1,202,54.25c-1.21-.84-2.7-1.2-3.79-2.25-.71-.94-1.09-2.2-2.36-2.66l-1.07-1.08C194.38,47.56,194.28,46.93,195.1,46.46Z"/><path class="cls-4" d="M105.09,48.26A3.43,3.43,0,0,0,103,51c-2.57,4-7.1,4-10.89,5.5a22.73,22.73,0,0,0-5.28,1.27,12.71,12.71,0,0,0-4.92,1.73A6,6,0,0,1,79,60a56.89,56.89,0,0,0-6,1.55c-.45.07-.89.13-1.34.22-2.49.9-5.21.69-7.71,1.58-3.35-.45-6.71-.76-10-1.24a41.63,41.63,0,0,1-5.16-3.2c-3-2.47-2.66-4.22.83-5.95a4.75,4.75,0,0,1,2.72-1.38,33.25,33.25,0,0,1,9.63-1c1.89.16,3.54-.7,5.27-1.28a5.89,5.89,0,0,1,1.33-.13c2.42.64,4.7-.65,7.08-.5,2.62-1.06,5.75-.34,8.12-2.3a13.76,13.76,0,0,1,5.26-1,10.12,10.12,0,0,0,6.75-1.15c1.32-.56,2.63-.88,3.78.35v0A14.55,14.55,0,0,0,104,46.06C105.34,46.2,105.69,47,105.09,48.26Z"/><path class="cls-5" d="M227,49.23l-1.88.9c-1-1-2.56-.87-3.59-1.8l-.89,0a6,6,0,0,1-4.72-.9l-12.06-1.89c-1.07-.74-2.62-.5-3.47-1.69-3.39-4.44,1.2-3,2.76-3.74a7.87,7.87,0,0,0,7.28,0A5,5,0,0,0,216,38.12c1.82-1.11,3.65-.43,5.47,0a1.13,1.13,0,0,0,.88.12c1.66-.43,3.09.45,4.62.76l1.82.15c1.64-.4,3.08.45,4.6.77l20.15,2.79c3.8-.6,3.4,1.55,2.58,4-1.76,1.52-3.11,3.52-5.34,4.49a7.79,7.79,0,0,1-4.6.8,36.47,36.47,0,0,0-7.74-.44,14.89,14.89,0,0,1-5.87-1.34l-1.89.9C229.73,49.87,228,50.25,227,49.23Z"/><path class="cls-2" d="M89.37,46.46l-5.49.93c-2.49,1.9-5.75.9-8.41,2.21-2.43-.48-4.69,1.38-7.15.54h-1a17.86,17.86,0,0,1-5,1.35c-2.79.06-5.6-.2-8.37.44-1.81.06-3.65.19-4.91-1.53-3.73-.7-4.71-3.53-5.25-6.72,1.88-2.63,5.17-.56,7.33-2.21,2.45.34,4.8-.78,7.24-.52l2.55-.18c3.21-1.74,6.94-.79,10.24-2,2.5.44,4.81-1.33,7.33-.64a1,1,0,0,0,.83,0,5.07,5.07,0,0,1,4.8.14c1.8.58,3,2.9,5.35,1.86,2.15,1.22,4.41.88,6.67.44,1.45-.21,3,.46,4.35-.5l-.16,0c1.66.16,1.79.82.62,1.9l-1.51,2.61-3.47,1C93.71,45.47,91.67,46.89,89.37,46.46Z"/><path class="cls-2" d="M72,60.23l.88,0a8.91,8.91,0,0,0,6.47-1.82c.58.17,1.11.73,1.78.23,1.57-1,3.4-1.13,5.13-1.6,1.8-.25,3.41-1.18,5.22-1.38L103,51A3.57,3.57,0,0,0,106,52c.81.88,3,.15,2.71,2.33l-.13,1.38c-.74,1-.49,2.39-1.4,3.3a15.26,15.26,0,0,1-2,1.54,100.65,100.65,0,0,1-19,7.91,13.08,13.08,0,0,0-4.63,1.44c-2.29,1.29-4.62,2.46-7.39,2.08-1.86.09-3.69-.55-5.56-.19a9.16,9.16,0,0,1-5-.55,9.34,9.34,0,0,1-6.22-3.77c-1.11-1.39,0-2,1-2.59L60,64.58c1.41-2.19,4-1.61,5.95-2.49C67.92,61.4,70.32,62.07,72,60.23Z"/><path class="cls-6" d="M202.36,52.88c8.09,2.86,16.08,6,24.64,7.36,2.86,1.41,6,1.67,9.05,2.36,2.09.21,3.75,1.48,5.62,2.23l-.1,0c.71.6,2,.93,1,2.27-1.52,3-4.15,4.27-7.21,5-1.53-.75-3.2.36-4.73-.35-1.83-.13-3.66.41-5.49,0-1.6,0-3-.88-4.53-1.09a22.35,22.35,0,0,0-4.87-1.51,6.81,6.81,0,0,1-1.81-.57,26.63,26.63,0,0,0-5-2.43c-1.47-.76-3.13-1.09-4.61-1.84a34.67,34.67,0,0,0-5.43-1.83c-2.37-1.19-5.34-1.71-5.86-5l-.38-1.69c-1.69-1.06-1.39-2.36-.45-3.73l2.69,0c1.35,1.35,2.41-.84,3.69-.3C199.68,52.51,201.07,52.53,202.36,52.88Z"/><path class="cls-6" d="M74.63,70.35c2.63,1,4.33-1.09,6.41-1.89,1.75,0,3.55.05,4.61-1.78,7-1.21,13-4.89,19.46-7.42a12.31,12.31,0,0,1,7.07-.71c1.17.47,1.83,1.16,1.1,2.47l0,1.88a4.25,4.25,0,0,1-1.06,2.89,9.84,9.84,0,0,1-3.68,2.37,18.71,18.71,0,0,0-5.16,3.31,3.77,3.77,0,0,1-1.18.37c-1.41-1.2-2.56-.08-3.63.53A41.16,41.16,0,0,1,85,77.61c-1.63,0-3.25-.65-4.89-.07a22.52,22.52,0,0,1-6.39-3.33C72.83,72.64,73,71.32,74.63,70.35Z"/><path class="cls-6" d="M214,67.52l2,0c1.43,1.31,3.41,1.41,5,2.27,1.52.07,2.8,1.22,4.38,1,.76.56,2.32.7,1.18,2.25-1.85,2.15-3.9,4-6.85,4.47-1.9-.09-3.85.16-5.66-.68-4.13-.53-7.85-2.26-11.56-4-1.31-.61-2.37-1.79-4-1.57-2.11.61-3.27-1.65-5.16-1.71a18.52,18.52,0,0,1-5.61-4.29c-.95-1.21-.48-2.93-1.45-4.14a8.53,8.53,0,0,1,.19-3.66l6.5-.15,6.44,3.77c1.6,1.41,3.78,1.48,5.56,2.45,1.41.89,3.11,1,4.56,1.82C210.92,66.37,212.79,66.27,214,67.52Z"/><path class="cls-7" d="M107.63,66.7l3.71-1.53c1.68-1.82,3.9-1.83,6.1-1.69,1.46.1,2.21.81,1.26,2.33l.08-.14c-1,1.29-.15,3-.9,4.32-2.27,3.25-4.42,6.66-8.89,7.2-2.23-.53-4.79,1-6.78-1.07-1.8-1.41,0-2.85,0-4.28v-.28C103.9,69.84,106.52,69.12,107.63,66.7Z"/><path class="cls-8" d="M188.4,64.8,194,68.49c1.5,1.49,3.06,2.92,4.44,4.53,1,1.37,1.57,2.63-.77,3.19-1,1.76-2.63.67-3.94,1a20.64,20.64,0,0,1-3.6-.18c-3.67-2.36-7.82-4.33-8.22-9.53l0-2c-.49-.29-1.16-.67-.83-1.27.81-1.49,2.28-.59,3.46-.77C185.81,64,187.39,63.57,188.4,64.8Z"/><path class="cls-9" d="M108.75,76.73c3.26-1.71,5.56-4.51,8.1-7,.69-1.63,2.44-1.41,3.67-2.1l2-.93c1,.06,2.1-.18,2.69,1l0,1.83c-.83,1-.32,2.34-.83,3.43-1.84,3.45-3.77,6.8-7.82,8.14-1.36-.6-2.91.13-4.26-.56-1.72-.28-4.71,1.09-3.66-2.8A.55.55,0,0,1,108.75,76.73Z"/><path class="cls-10" d="M181.88,67.48a44.78,44.78,0,0,0,8.52,8.38,5.74,5.74,0,0,1,1.67,3.24l0-.14c-2.8,3.11-6.08,1.73-9.3,1a15.12,15.12,0,0,1-7.74-7.57c.14-1.72.41-3.42.57-5.14C177.77,66,179.77,68.18,181.88,67.48Z"/><path class="cls-11" d="M176.09,72.19c2.33,2.15,4.07,4.94,7,6.47a4.79,4.79,0,0,1,.85,3.13v0c-1.45,2.36-3.65,1.54-5.7,1.36l-1-.12c-1.83-.67-2.92-2.32-4.45-3.39-1.51-2-3.65-3.72-3.24-6.67.95-1-1.44-3.86,1.93-3.56l2.45.92C175,70.54,175.31,71.63,176.09,72.19Z"/><path class="cls-12" d="M116.47,80.39A35.32,35.32,0,0,0,123.4,72c1-1.76,3.67-.49,4.48-2.55a4.92,4.92,0,0,1,.77,0c2,.78,1.53,2.76,2.12,4.24-1,4.14-3.15,7.35-7.47,8.65l-1.59.83c-1.94-.07-4,.49-5.68-.94l0,.06C115.53,81.47,115.24,80.76,116.47,80.39Z"/><path class="cls-11" d="M170.53,74c.74,2.08,3.1,3.19,3.3,5.58,1.75.91,2.71,2.23,2.2,4.29-2.28.56-4.3-.21-6.26-1.25-4-.31-5.14-3.34-6.1-6.51.79-1.25-.49-3.39,1.73-4l2.79.93C168.89,73.57,169.89,73.37,170.53,74Z"/><path class="cls-13" d="M123.3,82.28c2-2.86,4.84-5.13,6.45-8.32,1-1,2.52-1,3.78-1.5,3.93-.81,2.05,2.59,2.91,4-1,3-2.13,5.9-5.79,6.56l-2.54,1.06a8.23,8.23,0,0,1-4-.77Z"/><path class="cls-14" d="M164.87,76.8l4.91,5.86c0,.14-.07.29-.12.44-2,1.28-4,1.82-6.06.31l-2.67-2.6c-1.38-2-.86-4,0-6l-.11.1C162.73,74.38,163.71,75.79,164.87,76.8Z"/><path class="cls-15" d="M130.65,83c1.54-2.14,3.09-4.27,4.64-6.41a7.66,7.66,0,0,1,2.46-2.51l1.14-.14c2,2.66,1.79,5.27-.17,7.84l-3.3,1.58c-1.62,1.62-3.22.46-4.83,0Z"/><path class="cls-16" d="M161,74.84l0,6c-3.07,1.31.09,4.45-1.79,6.11C157.53,82.56,158.35,78.56,161,74.84Z"/><path class="cls-17" d="M241.67,64.83a12.62,12.62,0,0,1-5.57-1.73c-.6-.36-.58-.68.07-1l10.16-.06c-1.31,1.29-3,.79-4.56,1.06C239.78,63.5,242,64.28,241.67,64.83Z"/><path class="cls-18" d="M66.35,62.77,60,64.58c-1.08-3.26-4.69-.24-6.17-2.48l10.65-.17C65.33,61.7,66.36,61.06,66.35,62.77Z"/><path class="cls-19" d="M138.72,81.81c.27-2.61,1.07-5.2.17-7.84,2.45-.41,1.51,1.54,1.75,2.6.36,1.57.57,3.19.85,4.78-.3.48-.56.46-.79,0Z"/><path class="cls-20" d="M183.91,81.79c-.76-.91-1.5-1.83-.85-3.13a8.27,8.27,0,0,0,9,.3C190.5,83.17,186.46,80.34,183.91,81.79Z"/><path class="cls-21" d="M84.11,38.21l-4.8-.14c2-2,4.07-4.13,7.38-2.65C86.15,36.65,82.45,35,84.11,38.21Z"/><path class="cls-22" d="M71.23,39.22c-3.33,1.22-6.86,1.16-10.32,1.56,2.3-2.69,5.68-1.26,8.44-2.22C70,38.79,70.81,38.4,71.23,39.22Z"/><path class="cls-23" d="M96.72,33.67c-3,1.17-6.09,1.31-9.19,1.61,2.58-2.66,6.11-1.68,9.2-2.4.36.18.47.36.35.53S96.84,33.67,96.72,33.67Z"/><path class="cls-24" d="M198.41,73A5.36,5.36,0,0,1,194,68.49c2.3-.32,3.33,1.41,4.56,2.83Z"/><path class="cls-25" d="M144.45,116.81c2.53,1.77,5.74.71,8.37,2C149.59,120,146.62,120,144.45,116.81Z"/><path class="cls-26" d="M71.23,39.22l-1.88-.66c3.05,0,6-2,9.13-.44A18.63,18.63,0,0,1,71.23,39.22Z"/><path class="cls-27" d="M164.69,115.32c1-3.33,3.81-.87,5.6-1.69C169.1,116.44,166.55,114.73,164.69,115.32Z"/><path class="cls-28" d="M116,82.17c1.86.47,3.93-.23,5.68.94C119.53,84.47,117.54,84.77,116,82.17Z"/><path class="cls-29" d="M58.36,41c-2.27,1.16-4.74,1-7.18,1.06-.65.26-1.14.25-1.07-.66C52.86,41.17,55.54,39.58,58.36,41Z"/><path class="cls-30" d="M50.11,41.36l1.07.66c-2.24,1.54-5.14.18-7.39,1.67C44.91,40.23,48.12,42.45,50.11,41.36Z"/><path class="cls-31" d="M179.08,38.16c-.47,2.17.54,4.75-1.76,6.42-.42.46-.8.43-1.12-.11C178.26,42.87,176.53,39.54,179.08,38.16Z"/><path class="cls-32" d="M74.63,70.35c0,1.34-1.68,2.32-.9,3.85a5.37,5.37,0,0,0-4.58-2c-.29-.22-.38-.41-.26-.59s.23-.25.34-.25Z"/><path class="cls-33" d="M256.11,46.66c-.48-1.58.48-4.08-2.58-4a2.07,2.07,0,0,1,3.37.07C257.92,44.11,257.14,45.51,256.11,46.66Z"/><path class="cls-34" d="M221.46,38.1l-5.47,0,.72-1.76C219,35,219.8,37.72,221.46,38.1Z"/><path class="cls-35" d="M128.71,113.63a11.14,11.14,0,0,1,5.76.83C132.32,115.76,130.38,115.67,128.71,113.63Z"/><path class="cls-36" d="M143.42,26.18c.21,1.26.42,2.36-1.57,2.19a35.32,35.32,0,0,0-4.81.2C138.45,25.84,141.77,28.24,143.42,26.18Z"/><path class="cls-37" d="M246.24,51.19l4.53,0-.85,1.64c.59.31.58.58-.06.8l-2.73-.85C246.45,52.45,246,52,246.24,51.19Z"/><path class="cls-38" d="M214.09,76.87c1.89.17,3.93-.88,5.66.68C217.71,78.57,215.78,78.75,214.09,76.87Z"/><path class="cls-39" d="M108.75,76.73l-.18.94c-2.13-.48-4.83,1.41-6.36-1.55C104.31,77.14,106.59,76.28,108.75,76.73Z"/><path class="cls-40" d="M192.09,33.5l-7.34.89c2.11-2.16,4.8-1.78,7.42-1.7q.51.31.3.57A.51.51,0,0,1,192.09,33.5Z"/><path class="cls-41" d="M49,50.41l4.55.78c.49,1-.32,1.2-.89,1.57L49.49,53Z"/><path class="cls-42" d="M161.07,33.5c1,2.93,1.42,5.84-.15,8.72a.27.27,0,0,1-.14-.41c-.66-2.29-.16-4.64-.3-7A1.52,1.52,0,0,1,161.07,33.5Z"/><path class="cls-43" d="M212.35,35.33l-6.51-1a.58.58,0,0,1-.17-.6c.07-.19.13-.29.2-.29C208.12,33.75,210.72,32.88,212.35,35.33Z"/><path class="cls-44" d="M178.2,83.17c1.71-1.23,4.07.22,5.7-1.36C182.64,85,180.52,84.5,178.2,83.17Z"/><path class="cls-45" d="M117,35.27l-5.7-1.67C113.78,32.31,115.68,32.86,117,35.27Z"/><path class="cls-46" d="M176,83.9c.2-1.91-1.25-3-2.2-4.29,2.8-.49,2.34,2.2,3.36,3.44C176.81,83.34,176.42,83.62,176,83.9Z"/><path class="cls-47" d="M226.6,73.08c.41-1.31-.75-1.46-1.44-2-.4-.15-.52-.3-.39-.43a.57.57,0,0,1,.4-.2l5.4.89c.35.12.48.27.39.44s-.2.28-.3.28Z"/><path class="cls-48" d="M69.23,71.35c0,.28,0,.56-.08.84a4.73,4.73,0,0,1-5.59-1Z"/><path class="cls-49" d="M130.59,83.36l4.83,0C133.79,86.17,132.19,85,130.59,83.36Z"/><path class="cls-50" d="M158.21,117.06l5.83-.82c-2,1.94-4.25,2.68-6.8,1C157.51,116.72,157.83,116.67,158.21,117.06Z"/><path class="cls-51" d="M163.6,83.41l6.06-.31C167.74,85.22,165.75,86,163.6,83.41Z"/><path class="cls-52" d="M80.12,77.54a3.6,3.6,0,0,1,4.89.07C83.37,78.61,81.75,78.12,80.12,77.54Z"/><path class="cls-53" d="M116.47,80.39l-.41,1.84-3.83-1.76C113.64,80.52,115,78.63,116.47,80.39Z"/><path class="cls-54" d="M161.07,33.5l-.27.93c-.14.59-.35.58-.62.07-.28-1.82-.57-3.64-.85-5.46C160.9,30.14,161.09,31.78,161.07,33.5Z"/><path class="cls-55" d="M140.7,81.3a4.14,4.14,0,0,0,.79,0c.27,1.91.65,3.84-.73,5.53Z"/><path class="cls-56" d="M227,39a7.13,7.13,0,0,1-4.62-.76C224.18,36.67,225.57,37.83,227,39Z"/><path class="cls-57" d="M233.38,39.9a7.63,7.63,0,0,1-4.6-.77C230.61,37.58,232,38.76,233.38,39.9Z"/><path class="cls-58" d="M124.14,83.32c1.38,0,2.86-.61,4,.77C126.48,85.43,125.21,84.86,124.14,83.32Z"/><path class="cls-59" d="M136.3,46.41a12.25,12.25,0,0,1-6.66,0A6.13,6.13,0,0,1,136.3,46.41Z"/><path class="cls-60" d="M171.05,46.36c-2.27.12-4.64,1-6.68-.83C166.62,45.62,169,44.92,171.05,46.36Z"/><path class="cls-61" d="M172.19,112.52c.89-1.49.18-3,.09-4.53C174,109.53,175.11,111.07,172.19,112.52Z"/><path class="cls-62" d="M140.59,35.34c-.83.53-1.94.74-2.3,1.86-.83.08-1.89-.6-1.64-1C137.57,34.84,139.07,34.76,140.59,35.34Z"/><path class="cls-63" d="M249.86,53.59a4.25,4.25,0,0,1,.06-.8c1.36.86,5.71-2.12,3.8,3C253.57,53,251.24,54.14,249.86,53.59Z"/><path class="cls-64" d="M230.66,72.11a2.9,2.9,0,0,1-.09-.72c1.6.13,3.37-.87,4.77.66C233.79,72.57,232.23,73.12,230.66,72.11Z"/><path class="cls-65" d="M122.34,44.28c-1.86-1.35-.29-3.62-1.38-5.18C123.45,40.28,122.21,42.47,122.34,44.28Z"/><path class="cls-66" d="M205.87,33.44a6.56,6.56,0,0,1,0,.89l-3.77-.75C203.29,32.21,204.57,32.59,205.87,33.44Z"/><path class="cls-67" d="M192.09,33.5c0-.27,0-.54.08-.81,1.89,0,3.93-.9,5.57.82Z"/><path class="cls-68" d="M176.2,44.47l1.12.11a5.27,5.27,0,0,1-4.49,1.66C173.54,44.87,174.8,44.54,176.2,44.47Z"/><path class="cls-69" d="M192.07,79.1c-1-.87-1.85-1.78-1.67-3.24l2.62,1c.37.15.49.31.37.46a.46.46,0,0,1-.37.23Z"/><path class="cls-70" d="M158.21,117.06l-1,.13L155.1,117c.09-1.19.19-2.37.28-3.55.27-.29.51-.26.75,0A4.09,4.09,0,0,0,158.21,117.06Z"/><path class="cls-71" d="M150.85,24.32l-5.65,0C147.08,23.1,149,22.89,150.85,24.32Z"/><path class="cls-72" d="M242.55,67.08c.2-1-.55-1.55-1-2.27.85,0,2-.44,2.39.46S243.31,66.69,242.55,67.08Z"/><path class="cls-73" d="M96.72,33.67a3.49,3.49,0,0,0,0-.79c1.61-.05,3.32-.92,4.73.6Z"/><path class="cls-74" d="M127.83,108.63l-.42,3.83C125.32,110.94,125.54,109.68,127.83,108.63Z"/><path class="cls-75" d="M193,77.52v-.7l4.62-.61C196.59,78.37,194.7,77.59,193,77.52Z"/><path class="cls-76" d="M133.65,30.87a.84.84,0,0,0,.7,1.18c-.32.77-.65,2.06-1.65,1.1C132,32.43,132.25,31.2,133.65,30.87Z"/><path class="cls-77" d="M137.76,117.2l5-.11C141.09,118.56,139.44,118.37,137.76,117.2Z"/><path class="cls-78" d="M58.3,64.87a2.52,2.52,0,0,0-1,2.59,1.61,1.61,0,0,1-1.06-2.15C56.38,65,57.59,65,58.3,64.87Z"/><path class="cls-79" d="M141.57,40.08c2.22,1.25.93,2.57.08,3.89C140.8,42.69,142,41.37,141.57,40.08Z"/><path class="cls-80" d="M137.75,74.11c.37,2-1.58,1.74-2.46,2.51-.9-1.14,1.9-4.07-1.86-3.82v-.6c1.25-1.28,2.57-2.84,2.92.56A1.29,1.29,0,0,0,137.75,74.11Z"/><path class="cls-81" d="M118.7,65.81c.23-2.15-1.23-2.05-2.58-1.82-1.61.29-3.19.78-4.78,1.18,0-1.31.93-1.79,1.9-2.27,1.5,0,3,0,4.5.05.82,0,2.07-.59,2.37.41A2.14,2.14,0,0,1,118.7,65.81Z"/><path class="cls-82" d="M105.09,48.26c-.61-3.21-4.83-.81-5.67-3.66,2.6,0,5,1.42,7.62.86C107.39,47.4,106,47.65,105.09,48.26Z"/><path class="cls-83" d="M133.43,72.2a2,2,0,0,1,0,.6A6.38,6.38,0,0,1,129.75,74c-.24-1.56.48-3.34-1.1-4.57,1.55-1.24,2.13.11,2.27,1.13C131.14,72.25,132.24,72.18,133.43,72.2Z"/><path class="cls-84" d="M210.43,40.05c-2.42,2.45-4.85,2.26-7.28,0Z"/><path class="cls-85" d="M188.4,64.8a4.62,4.62,0,0,1-3.63-.89c-.37-.16-.5-.33-.39-.52s.22-.28.34-.28c1.41-.07,1.82-.73,1.18-2q.54-.72,1.14,0C187.49,62.31,188,63.55,188.4,64.8Z"/><path class="cls-86" d="M164.87,76.8l-4-1.86c1.23-.94,3.24-1,3.21-3.37,0-.73,1.07-.23,1.34.55C164,73.54,164.84,75.21,164.87,76.8Z"/><path class="cls-87" d="M95.82,41c-2.27.78-4.53,1.46-6.36-.88l6.4.14c.32.18.43.35.31.51A.5.5,0,0,1,95.82,41Z"/><path class="cls-88" d="M113.28,61c0-.8-.16-1.52-1-1.84a1.18,1.18,0,0,1-.39-1,1.05,1.05,0,0,1,.78-.65c.93.27,2.47-.68,2.72.51A2.47,2.47,0,0,1,113.28,61Z"/><path class="cls-89" d="M127.88,69.41c-.63,2.37-2.46,2.62-4.48,2.55.11-1.16-.15-2.57,1.74-2.5C126.08,71.14,127,69.11,127.88,69.41Z"/><path class="cls-90" d="M146.19,103.34c.14,2.38.49,4.79-1.6,6.84l.94-6.69C145.66,103,145.87,103,146.19,103.34Z"/><path class="cls-91" d="M192.17,52l.45,3.73A3.08,3.08,0,0,1,189.73,53C189.67,51.67,191.28,52.19,192.17,52Z"/><path class="cls-6" d="M112.64,57.58a4.41,4.41,0,0,0-.32.78c-1.89.46-3.82,1.39-5.51-.47a2.84,2.84,0,0,1,1.72-2.19C109.2,57.86,111.09,57.36,112.64,57.58Z"/><path class="cls-92" d="M154.41,107.93c-1.37-1.76-.8-3.67-.21-5.63.36,1.89.73,3.77,1.09,5.66C155,108.43,154.69,108.44,154.41,107.93Z"/><path class="cls-93" d="M176.09,72.19c-1.15-.11-2-.55-2.21-1.84,1.64-.43.06-2.69,1.75-3.1A5.91,5.91,0,0,1,176.09,72.19Z"/><path class="cls-94" d="M184.72,63.11a7.31,7.31,0,0,0,.05.8c-.89.65-3.25-1.29-2.85,1.62a1.71,1.71,0,0,1-2-1.87c.08-1.33,1.35-.69,2.12-.72A21.75,21.75,0,0,1,184.72,63.11Z"/><path class="cls-95" d="M198.46,52.19c-1.22.24-2.51,1.74-3.6-.22,1.83-.32,1.88-1.3,1-2.63,1.53-.5,2.09.63,2.73,1.63A.73.73,0,0,1,198.46,52.19Z"/><path class="cls-96" d="M146.22,30.9c-.91-1.14-1.1-2.25.61-2.64.95-.22,2.38-.76,2.62,1.07,0,.09-.14.23-.25.29a2.11,2.11,0,0,1-.43.12C147.7,29.64,147,30.4,146.22,30.9Z"/><path class="cls-97" d="M200.39,43.8a3.81,3.81,0,0,1,3.47,1.69l-5.29,0C198.44,44.19,200.32,44.94,200.39,43.8Z"/><path class="cls-98" d="M187,61.07l-1.14,0c.17-1.2-3.34-3,.6-3.58C189.59,58.26,186.21,60,187,61.07Z"/><path class="cls-99" d="M120.52,67.58c-.66,1.69-2.62,1.1-3.67,2.1.25-1.53.48-3.07,1.93-4C118.87,66.75,119.12,67.69,120.52,67.58Z"/><path class="cls-100" d="M125.16,67.63c-1-.15-2-.12-2.69-1a2.22,2.22,0,0,1,2.7-.78C126.17,66.33,125.53,67,125.16,67.63Z"/><path class="cls-101" d="M154.41,107.93a8.63,8.63,0,0,0,.88,0l.84,5.5-.38,0-.37-.06C154,111.79,154.5,109.81,154.41,107.93Z"/><path class="cls-102" d="M170.53,74c-.94.06-1.89.15-2.34-1,1.39-.76.81-2.11,1-3.24.35-2.58,1.38-1.07,2.27-.38C169.13,70.57,170.25,72.39,170.53,74Z"/><path class="cls-48" d="M160.18,34.5a6.2,6.2,0,0,0,.62-.06c0,2.45,0,4.91,0,7.37C159.66,39.45,160.15,37,160.18,34.5Z"/><path class="cls-103" d="M108.66,54.32c-.5-1.25-2.51-.74-2.71-2.33C106.7,52.94,111.07,49.71,108.66,54.32Z"/><path class="cls-104" d="M100.94,42c-.21-.63-.41-1.27-.62-1.9.73-1,2-1.5,2.55-.42C103.56,41,102.23,41.69,100.94,42Z"/><path class="cls-105" d="M146.22,30.9c.07-2.08.9-2.51,2.55-1.16C147.85,30,147.72,31.94,146.22,30.9Z"/><path class="cls-80" d="M195.1,46.46l-.34,1.8c-.88-.61-2.5-.93-1.76-2.37C193.34,45.21,194.61,45.42,195.1,46.46Z"/><path class="cls-34" d="M95.82,41a2.63,2.63,0,0,0,0-.74l4.62-.2C99.18,41.58,97.42,40.88,95.82,41Z"/><path class="cls-106" d="M139.37,50.56c.67-.12,1.12,0,1,.56-.07.3-.56.58-.92.71-.19.06-.5-.23-.75-.35Z"/><path class="cls-107" d="M146.19,103.34a1.28,1.28,0,0,1-.66.15l.9-3C147.65,101.76,147.16,102.59,146.19,103.34Z"/><path class="cls-108" d="M236.17,62.15c0,.31,0,.63-.07,1-3.1-.75-6.55-.36-9.1-2.86Z"/><path class="cls-109" d="M246.24,51.19l.89,1.55L238,51.85c-.37-.16-.5-.33-.38-.51a.5.5,0,0,1,.37-.26Z"/><path class="cls-110" d="M238,51.08c0,.26,0,.52,0,.77-1.94-.1-4.06.36-5.41-1.68Z"/><path class="cls-111" d="M215.92,47.38a7.74,7.74,0,0,1,4.72.9C218.66,50.08,217.16,49.41,215.92,47.38Z"/><path class="cls-112" d="M227,49.23c1.44.18,3.39-.68,3.67,1.84C229.25,50.85,227.52,51.24,227,49.23Z"/><path class="cls-113" d="M198.46,52.19l.1-1.22,3.8,1.91C200.77,54.26,199.71,52.69,198.46,52.19Z"/><path class="cls-114" d="M221.53,48.33c1.43.15,3.23-.46,3.59,1.8C223.71,50,222.06,50.26,221.53,48.33Z"/><path class="cls-115" d="M52.7,52.76l.89-1.57,9.2-.1c.33.17.44.33.32.48a.45.45,0,0,1-.34.22Z"/><path class="cls-116" d="M75.59,49.06c2.63-1.23,5.5-1.23,8.29-1.67-2,3.19-5.6,1.43-8.26,2.59C75,49.7,75,49.39,75.59,49.06Z"/><path class="cls-117" d="M79.3,58.39c-1.57,2.69-3.77,3.17-6.47,1.82Z"/><path class="cls-118" d="M66.35,62.77l-1.88-.84L72,60.23C71.12,63.36,68.1,61.67,66.35,62.77Z"/><path class="cls-119" d="M89.37,46.46c2.15-.66,4.19-2.09,6.59-.91C93.85,46.45,91.83,48.05,89.37,46.46Z"/><path class="cls-120" d="M75.59,49.06l0,.92c-2.44-.32-4.82,2.15-7.3.16A19.52,19.52,0,0,1,75.59,49.06Z"/><path class="cls-121" d="M86.64,57.36a11.8,11.8,0,0,1-5.56,1.26c1.35-2,3.58-1.69,5.56-2,.33.18.43.36.32.53S86.75,57.36,86.64,57.36Z"/><path class="cls-122" d="M86.64,57.36v-.79a4.91,4.91,0,0,1,4.79-.93C90.14,57.05,88.3,57,86.64,57.36Z"/><path class="cls-98" d="M62.77,51.79a2.35,2.35,0,0,1,0-.7,8.25,8.25,0,0,1,4.55-.94C66.33,52.13,64.46,51.73,62.77,51.79Z"/><path class="cls-123" d="M106.81,57.89l5.51.47c0,.27,0,.55-.07.82l-7.14.08C105.16,58.16,106.21,58.3,106.81,57.89Z"/><path class="cls-124" d="M85.65,66.68c-.77,2.58-2.31,3.15-4.61,1.78Z"/><path class="cls-118" d="M204.94,63.92c-2.13-.35-4.26-.68-5.5-2.78,2.14-.18,3.71,1.21,5.5,2,.28.18.37.36.28.54S205,63.92,204.94,63.92Z"/><path class="cls-125" d="M204.94,63.92v-.81l4.59,1.83c.27.19.36.38.27.56s-.19.27-.28.27A7.12,7.12,0,0,1,204.94,63.92Z"/><path class="cls-118" d="M209.52,65.77c0-.28,0-.55,0-.83,1.66.57,3.69.49,4.48,2.58A6.76,6.76,0,0,1,209.52,65.77Z"/><path class="cls-126" d="M220.54,70.16c-1.59-.73-3.74-.48-4.55-2.59,1.62.32,3.28.52,4.59,1.69C221.15,69.58,221.14,69.88,220.54,70.16Z"/><path class="cls-127" d="M220.54,70.16c0-.3,0-.6,0-.9,1.69-.19,3.09.73,4.59,1.24a1.22,1.22,0,0,1,0,.63C223.45,71.61,222.08,70.45,220.54,70.16Z"/><path class="cls-128" d="M107.63,66.7c-.24,3.39-2.67,4.33-5.46,4.86C102.93,68.75,105.76,68.26,107.63,66.7Z"/></svg>