<svg id="Layer_1" data-name="Layer 1" xmlns="http://www.w3.org/2000/svg" viewBox="0 0 300 300"><defs><style>.cls-1{fill:#007caf;}.cls-2{fill:#f2c627;}.cls-3{fill:#c6c6cc;}.cls-4{fill:#010100;}.cls-5{fill:#0a0c0e;}.cls-6{fill:#080d0f;}.cls-7{fill:#060a0b;}.cls-8{fill:#060b0d;}.cls-9{fill:#06090b;}.cls-10{fill:#070c0e;}.cls-11{fill:#060a0c;}.cls-12{fill:#b4b4b9;}.cls-13{fill:#b2b2b8;}.cls-14{fill:#040706;}.cls-15{fill:#081013;}.cls-16{fill:#090d10;}.cls-17{fill:#0b1013;}.cls-18{fill:#050a0d;}.cls-19{fill:#070d10;}.cls-20{fill:#050b0d;}.cls-21{fill:#080601;}.cls-22{fill:#0a0906;}.cls-23{fill:#0d0a02;}.cls-24{fill:#0e0b02;}.cls-25{fill:#110e03;}.cls-26{fill:#130f03;}.cls-27{fill:#181404;}.cls-28{fill:#131003;}.cls-29{fill:#0e0c02;}.cls-30{fill:#141003;}.cls-31{fill:#1b1604;}.cls-32{fill:#1f1905;}.cls-33{fill:#100d03;}.cls-34{fill:#201a05;}.cls-35{fill:#221c05;}.cls-36{fill:#231d06;}.cls-37{fill:#251e06;}.cls-38{fill:#392f09;}.cls-39{fill:#181304;}.cls-40{fill:#0f0c03;}.cls-41{fill:#9b7f19;}.cls-42{fill:#917717;}.cls-43{fill:#c7a320;}.cls-44{fill:#060b0e;}.cls-45{fill:#0c1113;}.cls-46{fill:#080d10;}.cls-47{fill:#f1c627;}.cls-48{fill:#0074a3;}.cls-49{fill:#00384f;}.cls-50{fill:#005b7f;}.cls-51{fill:#003d56;}.cls-52{fill:#00151e;}.cls-53{fill:#f7f7f7;}.cls-54{fill:#be9c1f;}</style></defs><path d="M24.66-.61H275.34a1,1,0,0,1,1,1V176.59A123.39,123.39,0,0,1,152.94,300h-5.65A123.62,123.62,0,0,1,23.67,176.37V.38a1,1,0,0,1,1-1Z"/><path class="cls-1" d="M79.44,82.46a106.36,106.36,0,0,0-14,14c-12.07,14.87-11.78,31.06-4.95,47.91.33.8.73,1.58,1.11,2.37s.64,1.32.93,1.91c-.45,1.11-1.33.75-2,.75-9.61,0-19.23-.06-28.84.08-2.64,0-3.37-.79-3.37-3.4q.11-68.71,0-137.44c0-3,1-3.45,3.68-3.45q118,.09,235.94,0c3,0,3.74.85,3.74,3.77q-.14,68.34,0,136.69c0,2.82-.6,3.9-3.68,3.86-13.11-.17-26.21-.08-40-.08,6-6.46,11-12.84,14.06-20.51.64-1.61,2.15-1.52,3.35-2,1.72-.71,3.58-1.12,5-2.44,1.43-2.74,4.32-4,6.27-6.3a41.22,41.22,0,0,0,6.89-11.5,34,34,0,0,1-20.1,4.7,41.43,41.43,0,0,1-7.71-1.32c-3.27-.9-3.58-2.22-1-4.55,3.37-3,7.42-5,11.26-7.34,1-.61,2.4-.76,2.95-2.48-11.9-.19-23-4.11-34.56-5.75a151.57,151.57,0,0,0-34.22-1.32c-17,1.42-33.69,5-50.58,7.22-5.36.7-7.68-1.08-8.47-6.22-1.05-6.85,1.16-12.74,4.68-18.37,3-4.86,6.67-9.33,9.68-14.21,2.43-3.94,4.59-8,5.13-12.73.85-7.37-3-12.67-8.2-17.12a150.67,150.67,0,0,0-13.84-10.8c-8.07-5.4-15.45-4.84-22.83,1.58-5.39,4.68-10,9.75-10,17.53,0,.89-.25,2-1,2.32-3.42,1.51-4.78,5-7.22,7.41-5,4.93-11.49,6.26-17.73,8.35-6.62,2.22-13.31,4.33-18.31,9.64a6.71,6.71,0,0,0-1.84,2.33c-.39,1.24-.12,2,1.41,1.59a22.06,22.06,0,0,0,3.07-1.36,7.53,7.53,0,0,1,6.17-.42c9,3.57,17.84,2.1,26.6-1a144,144,0,0,0,15.69-7c1.36-.69,3-2.07,4.42-.57s.78,3.29.09,5a35,35,0,0,1-4.68,8.05A87.42,87.42,0,0,1,82.79,80.3,6.92,6.92,0,0,1,79.44,82.46Z"/><path class="cls-2" d="M249.4,123.62c-2.23.77-4.42,1.7-6.7,2.24-1.35.32-1.73,1-2.16,2.16-2.91,7.59-7.86,13.81-13.3,19.71a5.32,5.32,0,0,1-4.33,1.68q-77.49,0-155,0a4.33,4.33,0,0,1-4.38-2.62c-7.47-14-10.28-35.77,5.3-51.73q5.75-5.86,11.52-11.71c.45-1.82,1.94-2.84,3.17-4a73.18,73.18,0,0,0,8.68-9.68A34.21,34.21,0,0,0,96.6,62.3a10.11,10.11,0,0,0-1.53-11.16,28.61,28.61,0,0,0-5.27-4.73,9.78,9.78,0,0,1-4.36-9.61c1.12-11.58,9.39-21.58,20.66-24.31,3.79-.93,7.29.4,10.28,2.24a104.48,104.48,0,0,1,18.19,14.2c7.14,7,8.24,14.11,3.88,23.1-3.34,6.87-8.34,12.68-12.34,19.14-3.69,5.94-6.29,12.12-4.67,19.4.88,3.92,3.21,6,7.07,5.34,8.16-1.43,16.33-2.9,24.52-4.09,15.72-2.28,31.39-4.71,47.48-3.51a193.13,193.13,0,0,1,32.24,5.42,2.91,2.91,0,0,1,1.34.63,1.77,1.77,0,0,1,0,1.74c-4.73,2.31-10.06,1.07-15,2.51-.93,1.25,1.74,2.39.25,3.6-1.16.94-2.64.53-4,.52-2.87,0-5.78.41-8.59-.23s-5.43-.47-8.38-.84c-.1,1.76,1.12,2.52,1.94,3.5.69.82,2,1.55,1.18,2.81-.64,1-1.91,1-3.05,1A58.3,58.3,0,0,1,182.39,106c-1.59-.47-3.18-1-4.74-1.54,6.62,2.15,13.22,4.38,20.31,4.44a12.67,12.67,0,0,0,2.22,0c1.95-.32,3-.93,1.15-2.78a11.32,11.32,0,0,1-1.51-1.66c-.84-1.3-.41-2.19,1.07-2.38a11.78,11.78,0,0,1,4.47.09c4.19,1.12,8.45.37,12.67.55,1.15.06,2.78-.21,2.13-1.7-1.37-3.14,1.13-2.87,2.55-3,5.33-.45,10.61-1,15.71-2.78,2.57-.89,5.2.18,7.81,0,.76,0,1.65.1,1.87.92s-.56,1.37-1.21,1.67c-1.82.86-3.41,2.08-5.16,3-2,1.08-4.15,2-5.64,3.63-7.17,7.61-17,8.29-26.27,10.11-1.67.32-3.46.54-5.1.92-7.3,1.68-13.56-2.35-20.34-3.41-.95-.14-1.94-.4-2.9-.62q8.47,1.86,16.75,4.45c1.15.36,2.78.66,2.62,2.17s-1.72,1.78-3,1.74c-9.7-.27-19.29,1.59-29.1.76a106.51,106.51,0,0,0-28.9,1.8c-8.74,1.68-16.81.56-23.75-5.66-3.48-3.12-4.87-6.49-3.68-10.45.28-.92,1.1-1.46,1.6-2.24-.44.67-1.15,1.14-1.49,1.9-2.13,4.35.26,7.45,3.05,10.24,6.56,6.58,14.73,7.86,23.46,6.44,8.08-1.31,16.14-2.35,24.36-2,3.21.13,6.43-.1,9.65.15,10.52.81,19.62,4.94,27.66,11.62.67.55,1.5.88,2.13,1.49s1.4,1.32,2.29,2.33c-.73-.88-1.3-1.37-1.82-1.92-5.76-4.63-11.69-8.95-18.86-11.21-.73-.22-1.85-.27-1.58-1.58,2.6-2.27,5.87-.49,8.68-1.43,2.47-.39,5,.19,7.46-.36,1.64-.37,4,.15,3.43-3-.21-1.08,1.08-1.12,1.94-1.23,8.76-1.11,17.41-2.69,25.64-6.05a5.82,5.82,0,0,1,4,0,46,46,0,0,0,14.4,1.54c1.21,0,3.2-.73,3.38,1.21.17,1.78-1.86,1.71-3.07,2.13-2.9,1-5.92.68-8.8.71,1.22.12,2.57-.06,3.9.12,1.07.14,2.58.05,2.66,1.45.06,1.15-1.36,1.25-2.28,1.52a23.15,23.15,0,0,1-6.79.71c2.8.12,2.8.12,5,1.59-3.2,2.47-6.87,2-10.39,2.15.31,0,.62,0,.92,0,1.41.19,3.69-.3,3.72,1.45s-2.29,1.3-3.67,1.62-2.67.45-3.72.66c1.64.27,4.43-1.88,5.26.9.59,2-2.18,2.53-3.31,3.11a6.63,6.63,0,0,0,4.4-3.13c2.35-4.06,6.73-5.81,9.75-9.07,2.49-2.7,6-4.19,8.43-7a1.89,1.89,0,0,1,.56-.5c2.3-1.07,5.12-3.54,7.06-1.71s-.74,4.23-2.15,6C256.55,118.45,254.11,122.36,249.4,123.62Z"/><path class="cls-1" d="M181.65,290.65a124.75,124.75,0,0,1-62.68.2c.09-1.42,1.28-1.56,2-2.12a24.32,24.32,0,0,0,9.6-18.66,34.94,34.94,0,0,1,1.4-9.21c3-9.13,10.86-14.81,19.67-14.16,7.91.59,15.43,7.87,17.05,16.59a31.44,31.44,0,0,1,.63,5.19C169.42,277.76,173.1,285.09,181.65,290.65Z"/><path class="cls-3" d="M78.05,200.19l-2.63-1.69h68.07c-.27,1.16-1.51,1.08-2.29,1.53-8.3,4.72-11.78,12.18-12.14,21.34-.23,5.77-1.53,11.08-5.59,15.42-7.58,8.11-15,9-25,3-3.59-1.12-5.26-4.12-7-7.07a58.78,58.78,0,0,1-2.59-14.82,16.07,16.07,0,0,0-1.8-6.35,18,18,0,0,0-6.51-8.77C79.58,202.1,78.46,201.49,78.05,200.19Z"/><path class="cls-3" d="M205.44,235.38c-5.91,8.13-14.05,9.3-23.17,7.41l-.5-.17A33.49,33.49,0,0,1,172,232.34a27.09,27.09,0,0,1-2.1-11.11c.15-3.13-1-6-1.9-8.92a15,15,0,0,0-3.79-6.63,7.74,7.74,0,0,1-2.19-3.33c-1.46-1.78-3.7-2.39-6.23-3.88h68.07c-.67,1.48-2.66,1.16-3.43,2.44-1.47,2.62-4.16,4.14-5.77,6.7a28.09,28.09,0,0,0-4.35,15.13,25.68,25.68,0,0,1-2.26,9.68A4.48,4.48,0,0,1,205.44,235.38Z"/><path class="cls-3" d="M84.9,158.76c-1.92-3.35-5.26-5-9-7.17h67.22c-2.13,1.73-4.57,2.27-5.94,4.26a7.42,7.42,0,0,1-2,3.35c-3.57,4.61-4.83,9.94-5.2,15.65-.24,3.65,0,7.56-3.21,10.34-4.16,6.71-9.44,11.55-18,11.26-3.92-.14-7.16-1.87-10.34-3.85-5.45-2.81-8-7.49-8.7-13.39a10.17,10.17,0,0,0-.5-3.87A30.67,30.67,0,0,0,86.5,164,39.52,39.52,0,0,1,84.9,158.76Z"/><path class="cls-3" d="M162.8,155.84c-1.42-1.91-3.7-2.66-6.26-4.26h67.22c-3.79,2.27-7.47,4.11-9.41,7.9-.88,4.13-3.49,7.68-3.72,12.08a56.28,56.28,0,0,1-.42,5.94c-.89,5.72-2.2,11.26-7.9,14.35-11.12,7.64-19.54,6.11-28.34-5.16-3.64-2.54-3.73-6.59-3.93-10.31a37.58,37.58,0,0,0-2-11.26C167.47,161.36,164,159.23,162.8,155.84Z"/><path class="cls-3" d="M144.9,245.41c-11.5,5.11-15.63,13.6-16,24.63a21.89,21.89,0,0,1-9.85,18,6.44,6.44,0,0,1-6.65.91c-4.25-1.75-8.51-3.51-12.88-4.91-5.85-1.87-7.94-6.35-8.82-11.77-.5-3.07-.45-6.24-1.12-9.26-1.81-8.14-6.53-14.05-15.34-17.57Z"/><path class="cls-3" d="M155.2,245.42h70.15c-7.4,3.1-11.86,7.64-14.24,14.18a32.8,32.8,0,0,0-1.79,10.65c-.15,6.64-2.24,11.83-9.36,13.94A133.18,133.18,0,0,0,187.41,289a6.47,6.47,0,0,1-6.67-.92c-6-4.24-9.46-10.06-9.66-17.33C170.77,259.46,166.88,250.6,155.2,245.42Z"/><path class="cls-1" d="M182.27,242.79c-.42,1.11-1.41.85-2.23.85-20.42,0-40.85,0-61.42,0,.75-2,2.81-2.33,4-3.56a25.22,25.22,0,0,0,8-18.22,25.21,25.21,0,0,1,2.7-11.53c5-9.68,16.53-14.86,27.78-7.1,4.34,2,6,5.93,7.57,10,2,4.79,1,10.05,2.29,15,.45,1.66.74,3.39,1.85,4.79,2.13,4.27,5.64,7.21,9.47,9.84Z"/><path class="cls-1" d="M173.12,187.64c1.63,3.7,4.69,6,8.59,8.56H118.77c3.49-3,7.4-5.53,8.87-10.06,1.87-5.25,2-10.82,2.8-16.26a22.74,22.74,0,0,1,4.49-10.77,6.42,6.42,0,0,1,3.18-2.34c8.55-5.85,15.33-5.85,23.78,0,4.07,1.8,5.37,5.61,6.79,9.34,2,4.64,1.11,9.72,2.18,14.52C171.41,183.07,172.89,185.15,173.12,187.64Z"/><path class="cls-1" d="M198.91,195.72a8.89,8.89,0,0,0,4.33-3c2.31-3.93,5.38-7.44,6.25-12.14.67-3.54.68-7.15,1.23-10.69s1.45-7,4.48-9.45c3.05-3.53,6.37-6.66,11.19-7.6,12.2-2.37,22.82,6.93,23.25,20.5.19,6,1.35,11.59,5.25,16.35,2.86.91,4.37,3.65,6.85,5.09a1.23,1.23,0,0,1,.61,1.26c-.15.85-.89.67-1.46.73s-1,0-1.5,0c-19.21,0-38.43,0-57.65,0C200.83,196.74,199.21,197.78,198.91,195.72Z"/><path class="cls-1" d="M44.38,190.46c4.38-5,5.55-11,5.78-17.33A22.32,22.32,0,0,1,54.77,160c7.23-9.42,19.27-10.2,27.65-1.78.52.52,1.07,1,1.6,1.55,2.2.89,2.29,3.25,3.41,4.89a32.59,32.59,0,0,1,1.87,7.78,12.28,12.28,0,0,0,.61,5c-.13,5.32,2.43,9.49,5.73,13.33a6.92,6.92,0,0,1,1.87,2.72,6.56,6.56,0,0,0,3.52,2.26c.38,1.34-.7,1-1.28,1-20.38,0-40.77.07-61.15,0-.4,0-.69-.22-1.32-.78A22.11,22.11,0,0,1,44.38,190.46Z"/><path class="cls-4" d="M183.15,122.14c8.18,1.86,14.85,6.35,20.85,12,.16.8-.13,1.13-.95.92-16.84-15.28-37.05-15-57.73-12.5-3.82.46-7.63,1.14-11.47,1.42-8.34.63-15-2.85-20.4-9-3.15-3.57-3.28-6.36-1-10.06.78-.13,1.13.14.9,1-1.55,2.94-.83,5.53,1.26,7.89,5.57,6.3,12.51,9.91,20.92,8.32,19.55-3.68,39.32-1.67,58.95-3,2-.13,3.95-.33,6.35-.53-1.48-1.68-3.19-1.92-4.69-2.34-5.63-1.6-11.31-3-17-4.54-.86-.23-2.47.09-2.07-1.4s1.72-.25,2.52-.12a28.82,28.82,0,0,1,7.27,1.66c10.49,4.66,21,2.72,31.48.33,6.11-1.38,11.92-3.16,16.6-7.84,3.44-3.43,8.2-5.15,12.95-8.14-9.87-1.51-18.42,3.6-27.84,2.47,2.64,3.63,2.34,4.39-1.6,4.83A60.08,60.08,0,0,1,204,103c-1.31-.17-2.64-.21-4.08-.32.22,1.51,1.44,1.93,2,2.82.78,1.17,3,1.8,2.29,3.4-.63,1.4-2.71.92-4.13,1-8.77.23-16.93-2.52-25.06-5.37-.55-.19-1.37-.33-1.14-1.16.32-1.15,1.21-.56,1.81-.35a116.81,116.81,0,0,0,16.53,4.63,36.88,36.88,0,0,0,9.77.4c-1.81-1.83-3.28-3.21-4.61-4.72-.67-.76-2.31-1.26-1.56-2.58s2.07-.22,3.07-.08c5.93.84,11.85,1.69,17.87,1.49.83,0,1.66-.12,2.47-.18-.16-2.16-3.5-2.46-2.54-4.22s3.21-.3,4.89-.45a107.17,107.17,0,0,0,12.26-1.37c.69-.39.66-.79,0-1.2-8.09-1.4-16-3.84-24.18-4.77-17.39-2-34.61-.8-51.78,2.06q-14.21,2.35-28.41,4.6c-5.56.87-8.15-1.08-9.07-6.67a22.5,22.5,0,0,1,3.08-15.81c3.51-5.73,7.38-11.24,11-16.9a56.54,56.54,0,0,0,3.82-6.84c3.16-6.92,2.39-13.48-2.83-19.06a89.82,89.82,0,0,0-20.46-16.2c-4.82-2.81-9.77-2.51-14.54.4a42.65,42.65,0,0,0-11.16,9.87c-5.06,6.34-3.72,16.47,2.63,21.3,7.43,5.64,8.53,11.37,3.64,19.43-1,1.58-2.17,3-3.27,4.51-.77.14-1.12-.13-.89-1,2-4,5.66-7.38,5.27-13-3,1.43-5.72,2.77-8.47,4-9.44,4.31-18.89,8.58-29.7,7.73C56.3,68.18,54,68.1,52,67.07c-3.43-1.82-6.41-1.11-9.51.63-1.2.67-2.66,2.1-4,.4s-.13-3.12.89-4.38A27.33,27.33,0,0,1,48.29,57,81.5,81.5,0,0,1,64,51.13c6.92-2,12-5.93,17-11.41,3.25-3.62,3.74-7.14,4.79-11,3.77-14,22.29-20.9,34.05-12.7a120.8,120.8,0,0,1,14.6,11.69c8.26,7.89,9.68,16,4.08,26-3.41,6.08-7.62,11.7-11.43,17.56-2.59,4-5,8.12-5.12,13.07-.23,10.82,1.11,11.68,11.63,9.95,12.8-2.09,25.56-4.37,38.44-5.92a148.47,148.47,0,0,1,54.6,3.08,101.66,101.66,0,0,0,22.57,3.09c.9,0,2.23-.42,2.44,1,.16,1.08-1,1.27-1.75,1.68-3.55,2.09-7.14,4.11-10.66,6.23a21.76,21.76,0,0,0-6,4.9c11.45,3.3,22,3.11,32-3.74-2.92,8.19-6.78,15.57-14.84,19.88l-1-.82a36.76,36.76,0,0,0,12.79-15.3c-3.25,1.52-5.7,1.84-7.94,3.93-4.9,4.57-10.49,8.4-15.37,13-2.91,2.74-5.26,6-9.62,6.38-.91.08-2.31.8-2.54-.48s1.35-1.07,2.2-1.2c2.12-.32,4.13-.77,5.68-2.72-2.19-1-4.14.42-6.1.23-1.13-.11-3,.75-3.16-.9s1.76-1.19,2.93-1.32a43.4,43.4,0,0,0,8.27-1.5h-6.29c-.75,0-1.67.08-1.78-.89-.13-1.16.79-1.3,1.73-1.36,3.49-.19,7-.41,10.45-.64a1.16,1.16,0,0,0,1.23-.85c-1.84,0-3.69.07-5.53,0-1,0-2.69.62-2.6-1.08.07-1.38,1.7-1.15,2.79-1.13a20.22,20.22,0,0,0,9.2-1.55c-1.85,0-3.71.1-5.56,0-1.34-.1-3.66.8-3.68-1.22,0-1.71,2.25-.87,3.48-.92,3.92-.13,7.86,0,11.61-1.71-4.85-.35-9.76.05-14.43-1.32a15.86,15.86,0,0,0-10.43.58c-7.51,2.74-15.42,4-23.38,4.9-.17,1.61,2.86,1.33,1.93,3-.63,1.14-2.28.63-3.45.74-3.23.31-6.47.41-9.71.59-3,.71-6-.14-9,.47-.09,0-.16.16-.22.26S182.9,122,183.15,122.14Z"/><path class="cls-1" d="M97.53,240.66l3.71,3H97.1q-21.69,0-43.38,0c-4.81,0-8.53-6-6.39-10.34,2.26-4.59,2.61-9.54,3-14.53.76-11.27,9.77-19.73,20.29-19.25,2.29.1,4.35,1,6.52,1.53,5.46,1.71,8.2,6.06,10.55,10.8,1.83,3.9,1.52,8.16,2.06,12.28a39.91,39.91,0,0,0,2.47,9.21C93.39,236.19,96.2,237.89,97.53,240.66Z"/><path class="cls-1" d="M221.36,201.76c15.64-7.57,27.77,5.3,28.23,18.17a32.59,32.59,0,0,0,3.76,15c1.17,2.11-2.94,8.64-5.53,8.66-15.45.08-30.9,0-46.34,0-.68,0-1.46.33-2.21-.45,2.56-2.1,5.6-3.7,7-6.87,3.14-6.23,3.43-13.07,4.59-19.78C212,210.3,214.57,204.34,221.36,201.76Z"/><path class="cls-3" d="M255.75,188.76a28.42,28.42,0,0,1-4.42-13.32c-.82-12.53-3.64-17.3-14.66-24.23h14c6.11,0,12.23,0,18.35,0,1.45,0,2.68-.09,2.64,2-.28,13.22.42,26.43-1.39,39.63-.67,4.9-3.16,3-5.58,2.79A11.8,11.8,0,0,1,255.75,188.76Z"/><path class="cls-3" d="M35.3,195.66c-5,.92-5,.92-5.8-4.62-1.68-12.52-1-25.11-1.16-37.68,0-1.59.49-2.18,2.13-2.17,10.58.05,21.16,0,31.73,0,0,.38.13.75.07.78-9.25,4.3-13.36,12-13.83,21.76A29.2,29.2,0,0,1,43.5,189.5C42.07,193.29,38.9,194.76,35.3,195.66Z"/><path class="cls-1" d="M209.16,279.1c1.82-4.84,1.73-9.72,2.31-14.51,1.47-12.26,13-20.42,24.12-17.19a16.83,16.83,0,0,1,5.58,2.95c1.39,1.07,1.55,1.91.29,3.3a122.37,122.37,0,0,1-31,25.12A6.19,6.19,0,0,1,209.16,279.1Z"/><path class="cls-3" d="M255.23,234.43a17.12,17.12,0,0,1-3.73-10.63c-.18-11.14-3.93-20.06-14.41-25.54h30.08c1.32,0,2,.26,1.62,2A117.73,117.73,0,0,1,255.23,234.43Z"/><path class="cls-1" d="M91.52,279.88a125.23,125.23,0,0,1-32.87-26.07c-1.89-2.06-1.19-2.95.68-4.23,9-6.18,21.24-2.53,26.8,8.07a18.81,18.81,0,0,1,2.27,7.45C88.69,269.82,89.07,274.48,91.52,279.88Z"/><path class="cls-3" d="M44.75,234.4a117.6,117.6,0,0,1-13.5-34.05c-.67-2.95,1.41-2.06,2.6-2.07,9.6-.07,19.2,0,28.82,0,0,.29,0,.69-.08.73-9.74,4.46-13.78,12.52-14.25,22.74C48.14,226.14,47.44,230.36,44.75,234.4Z"/><path class="cls-5" d="M255.75,188.76a31.06,31.06,0,0,0,8.95,6.9,11.4,11.4,0,0,1-6.32,1.57c-19-.09-37.92,0-56.88-.13-.79,0-3.13,1.59-2.59-1.38.53,1,1.49.74,2.32.74h60.88c-2.85-2.33-5.69-3.9-7.22-6.77Z"/><path class="cls-6" d="M35.3,195.66a32.49,32.49,0,0,0,8.2-6.16l.88,1c-1.39,2.47-3.78,3.85-6.06,5.51.7.89,1.63.48,2.39.48q28.42,0,56.86,0c1.16,0,2.52.57,3.46-.7.65.38,1,1,.08,1.24a13.23,13.23,0,0,1-3.34.2c-18.72,0-37.44,0-56.16,0A11.37,11.37,0,0,1,35.3,195.66Z"/><path class="cls-7" d="M221.36,201.76a24,24,0,0,0-10.25,19.65c-.14,5.37-1.15,10.6-4.8,14.91l-.87-.94a31.65,31.65,0,0,0,4-14.53c.45-8.28,3.3-15.52,11-19.94Z"/><path class="cls-8" d="M215.2,160.45c-3.57,5.28-3.8,11.38-4.45,17.43-.63,5.81-2.85,11-7.51,14.85l-.93-.88a26.18,26.18,0,0,0,7.14-18.25,21.37,21.37,0,0,1,4.9-14.12Z"/><path class="cls-9" d="M135.85,159.13c-3.78,5.09-5.23,10.88-5.29,17.15a18.07,18.07,0,0,1-2.92,9.86l-.83-.95a43.47,43.47,0,0,0,2.34-12.62,21.85,21.85,0,0,1,5.79-14.4C135.73,158,136.07,158.31,135.85,159.13Z"/><path class="cls-10" d="M97.51,193.48A20.7,20.7,0,0,1,89.21,178c-.68-1.79.12-3.72-.54-5.51l-1.74-7.95a1.06,1.06,0,0,1,.29-1.41A19.28,19.28,0,0,1,90.1,175c.63,1.32,0,2.82.6,4.15.51,5.67,4.25,9.47,7.75,13.42Z"/><path class="cls-11" d="M173.12,187.64a18.86,18.86,0,0,1-3.63-10.42A70,70,0,0,0,168,165.76c-.39-.81-.67-1.57.72-1.55a17.7,17.7,0,0,1,2.2,8.9A31.64,31.64,0,0,0,174,186.69Z"/><path class="cls-12" d="M235.59,245.37h11.84c0,.38.09.68,0,.84-2.86,4.13-2.86,4.11-7.22,1.56C238.94,247,237.61,246.42,235.59,245.37Z"/><path class="cls-13" d="M55.91,250.42c-.89-1.07-1.72-2-2.43-2.95-.4-.56-1.18-1-.89-2.06H63.8C60.82,247.14,58,248.07,55.91,250.42Z"/><path class="cls-14" d="M91.46,69.61l.89,1a62.07,62.07,0,0,1-12,12.82l-.92-.92Z"/><path class="cls-15" d="M86.89,211.68a28.64,28.64,0,0,0-9.8-10.62l1-.87a18,18,0,0,1,9.72,10.48C87.53,211.05,87.46,211.59,86.89,211.68Z"/><path class="cls-16" d="M168,213a33,33,0,0,0-6.86-9.7l.92-.9a17,17,0,0,1,6.67,9.07C168.31,211.86,168.61,212.63,168,213Z"/><path class="cls-17" d="M168.68,164.21l-.72,1.55a36.22,36.22,0,0,0-6.07-9l.91-.94A16.29,16.29,0,0,1,168.68,164.21Z"/><path class="cls-18" d="M97.53,240.66c-2.32-1.71-4.55-3.5-5.34-6.47a1,1,0,0,1,.26-1.35l6,7Z"/><path class="cls-19" d="M87.22,163.12c-.1.47-.2.94-.29,1.41L84,159.73l.88-1C86.14,160,87.34,161.19,87.22,163.12Z"/><path class="cls-20" d="M135.85,159.13l-.91-1a4.66,4.66,0,0,1,2.27-2.32l.9.92Z"/><path class="cls-21" d="M153.09,95.86c-.13-1.31.61-1.53,1.61-1.16a13.91,13.91,0,0,1,5.75,4.06c.57.67,1.29,1.47.72,2.3s-1.57.21-2.32-.14c-1.9-.89-3.71-2.07-6.2-2-.47,1.09,1.58,1.87.68,2.74s-2.11-.36-3.12-.31c-1.43.07-4.11-3.24-4.19,1.34,0,.5-1,.67-1.64.5q-3.78-1-7.55-2.14c-.57-.17-1.28-.46-1.05-1.26.35-1.24,1.15-.38,1.78-.3,1.22.15,2.24,1.14,3.84.75-.6-1.12-2.77-1.58-1.85-3s2.23-.1,3.33.24c1.31.4,2.58.92,3.89,1.29a1.7,1.7,0,0,0,1.42-.13c2.05-2.19,2-2.22,4.81-1.93a.58.58,0,0,1,.89.08C153.89,96.28,153.15,96.35,153.09,95.86Z"/><path class="cls-21" d="M166.51,108c-2.64-2.21-5.8-2.14-8.34-3.86,2.36-1,4.56,0,6.63.92s5.7,1.29,5.59,3.43c-.09,1.88-3.77,1.22-5.83,1.72-4.35,1-8.73,2-13.13,2.73s-8.93.68-13.11-1.43c-.49-.25-1.3-.43-1.08-1.26s.83-.73,1.45-.41c5.49,2.87,11.09,1.83,16.72.49C159,109.47,162.65,108.79,166.51,108Z"/><path class="cls-22" d="M108.08,28.68l2,2.21c-3.17,2.13-5.5,7.65-10.29,3.08-2.12-2-2.94-5.12,0-7.67a2.45,2.45,0,0,1,1-.74,9.92,9.92,0,0,1,4.27-.1C106.54,26.09,108.42,26.35,108.08,28.68Z"/><path class="cls-23" d="M108.08,28.68c-.51-1.39-1.87-1.7-3-2.34a3.74,3.74,0,0,0-4.55,0h-.74c-2.85.68-3.25,3.1-3.72,5.38-.31,1.52-.29,3.12-1.43,4.67-.72-7.11,1.16-11.79,5.16-13.28,3.75-1.39,6.55-.26,9.74,3.92.44.87-.22,1.14-.79,1.46A4.21,4.21,0,0,1,108.08,28.68Z"/><path class="cls-24" d="M100,50.92c6.58,5.3,11.78,4.06,15.82-3.43-.55,4.77-4,8.69-7.46,9.31C105.31,57.35,101.88,55.18,100,50.92Z"/><path class="cls-25" d="M126.62,58.14c-2.44,3.55-5.24,6.57-9.64,7.54A1.59,1.59,0,0,1,115,65c-.39-1,.63-1.18,1.23-1.47C119.77,61.86,123.22,60.12,126.62,58.14Z"/><path class="cls-26" d="M97.45,140.77c5.25,1.84,8.08,0,9.16-5.12,1.54,3,1.94,5.34-.78,6.93S100.27,144.08,97.45,140.77Z"/><path class="cls-24" d="M121,70.62c-2.36,2.57-4.88,4.95-8.42,6-.78.24-1.82.57-2.22-.55-.33-.93.57-1.3,1.19-1.62,2.91-1.56,5.86-3,8.8-4.57Z"/><path class="cls-27" d="M119.13,142.54c5,.05,6.53-2.57,7.18-6.1,1.58,2.28,1.68,4.14.25,5.84C124.58,144.63,122.31,144.34,119.13,142.54Z"/><path class="cls-28" d="M72.38,115.41c2.28,3.35,2.61,3.48,6.94,2.63-1.1,2.55-2.48,4.17-5.34,3C71.43,120,70.69,118.15,72.38,115.41Z"/><path class="cls-29" d="M126.47,50.44c-2.79,5.26-6.09,6.51-9.62,3.72C120.14,52.8,123.74,52.74,126.47,50.44Z"/><path class="cls-28" d="M135.46,138.87c3.93-.18,6.25-1.64,6-5.78,2,2.65,2.22,4.19,1,5.72S139.9,140.48,135.46,138.87Z"/><path class="cls-27" d="M100.86,128.56c4,1.69,6-.46,7.51-3.92,1.14,2.33,1,4.19-.93,5.48C104.91,131.77,102.76,130.76,100.86,128.56Z"/><path class="cls-30" d="M123.3,32.45c3.44.66,4.64,3.06,5.17,6,.13.71.19,1.62-.64,1.91-1,.34-1.27-.63-1.42-1.29A17.65,17.65,0,0,0,123.3,32.45Z"/><path class="cls-31" d="M127.48,130.75c3.22-.4,5.52-1.75,6.35-5,1.24,1.83,1.59,3.61-.12,5A4.39,4.39,0,0,1,127.48,130.75Z"/><path class="cls-32" d="M59.81,121.79c2.65,3.45,5,3.25,7.94.85C67,125.38,66.24,127,64,127,61.43,126.93,60.56,125.17,59.81,121.79Z"/><path class="cls-33" d="M110.89,135.08c3.67,0,5.92-1.61,7.14-4.82,1.48,2.13.79,3.77-.69,5.12C115.38,137.17,113.31,136.83,110.89,135.08Z"/><path class="cls-34" d="M63.6,135.61c3.21,1.15,5.22.11,6.53-2.8,1.53,2,1.08,3.76-.54,4.85C67.31,139.2,65.4,138.15,63.6,135.61Z"/><path class="cls-30" d="M75,130.14c2.61.22,4.88.8,7.07-1.44,0,2.8-1,4.22-3.16,4.55S75.89,132.3,75,130.14Z"/><path class="cls-32" d="M85.23,137.26c1.37,2.32,1.21,4.05-.21,5.25-2,1.7-3.55-.2-5.28-1.13C82.18,141,84.54,140.65,85.23,137.26Z"/><path class="cls-33" d="M123.45,43c-2.42-3.12-2.19-6.19-3-8.88C123.34,36,124.21,38.73,123.45,43Z"/><path class="cls-31" d="M95.79,120.05c3.59.66,5.92,0,7.38-3,.53,2.86.33,3.8-1.12,4.65C99.88,123,98,122.33,95.79,120.05Z"/><path class="cls-35" d="M89.52,117.07c-2.33,3.58-4.32,3.63-6.86,0,2.09-.29,4.62,1.28,6-1.44C90.12,115.4,89.52,116.41,89.52,117.07Z"/><path class="cls-26" d="M93.08,123.53c-.29,3-1,4.32-2.74,4.76s-3.17,0-4-2.16A7.59,7.59,0,0,0,93.08,123.53Z"/><path class="cls-26" d="M74,104.82c1.32,2.36,3.51,2.84,5.7,3.5a3.6,3.6,0,0,1-4.9.57C73.44,108.07,72.8,107,74,104.82Z"/><path class="cls-36" d="M70.22,113.9c-2.09,1.77-3.64,2.31-5.21,1.49-1.26-.66-1.3-2-.55-3.57C65.94,113.05,67.38,114.36,70.22,113.9Z"/><path class="cls-37" d="M95.65,132.11c.63,1.92.16,3.4-1.26,4.14s-3.12.58-4.59-1.37C92.65,135.57,94.05,133.71,95.65,132.11Z"/><path class="cls-38" d="M183.15,122.14c-.63.11-1.34.13-1.59-.53-.41-1.07.57-.84,1.05-.84,3.17,0,6.34,0,9.51.07C189.25,122.1,186,120.52,183.15,122.14Z"/><path class="cls-39" d="M112.54,32.11c4.06.36,4.86,2.9,6.44,4.51C116.42,36.2,115,34.35,112.54,32.11Z"/><path class="cls-26" d="M94.15,110.3c1.76,1.11,3.59.54,5.65.07C97.71,113.51,96.69,113.48,94.15,110.3Z"/><path class="cls-29" d="M203.05,135.06l.95-.92c1.47,1.18,4.25,3.48,3.54,3.88C205.37,139.24,204.53,136.24,203.05,135.06Z"/><path class="cls-40" d="M113.37,105.93l-.9-1c1-1.45,1.9-3.14,5-2.93C115.79,103.6,114.58,104.77,113.37,105.93Z"/><path class="cls-35" d="M108.79,28.45l.79-1.46a4.21,4.21,0,0,0,3.13,1C111.48,30.06,110.11,28.89,108.79,28.45Z"/><path class="cls-41" d="M89.52,117.07c-.17-.56-.15-1.22-.87-1.44.15-.62.57-1.38,1.13-.86S90.19,116.36,89.52,117.07Z"/><path class="cls-42" d="M233.86,94.64c.61-.16,1.61-.2,1.63.26,0,.87-.83,1.07-1.65.94Z"/><path class="cls-43" d="M153.09,95.86l3,1.17a2.61,2.61,0,0,1-3.1-.29Z"/><path class="cls-44" d="M92.45,232.84l-.26,1.35a20.6,20.6,0,0,1-3.49-11.56,44.85,44.85,0,0,0-1.81-10.95l.88-1A13,13,0,0,1,90,217.25,76.67,76.67,0,0,0,92.45,232.84Z"/><path class="cls-8" d="M168,213l.73-1.53A21,21,0,0,1,171,221.5a31.72,31.72,0,0,0,2.26,11.14c.58.87.39,1.31-.69,1.25a19.69,19.69,0,0,1-3.1-10.24A62,62,0,0,0,168,213Z"/><path class="cls-45" d="M172.53,233.89l.69-1.25c2.47,3.43,5,6.84,8.82,8.9.58.31.32.85.25,1.33C177.33,241.73,174.73,238,172.53,233.89Z"/><path class="cls-46" d="M90.7,179.18c-1.11-1.26-.49-2.75-.6-4.15A9.45,9.45,0,0,1,90.7,179.18Z"/><path class="cls-19" d="M88.67,172.48c1.19,1.74.44,3.66.54,5.51C88.27,176.23,88.63,174.34,88.67,172.48Z"/><path class="cls-47" d="M40,66.25c1.17-2.85,3.67-4.48,6.13-6,5.53-3.51,11.68-5.55,17.93-7.3,7.41-2.08,14-5.29,18-12.37.82-1.47,2-1.74,2.43.18.85,3.59,3.42,5.62,6.23,7.52.41.28.81.58,1.2.89,5.33,4.2,5.24,5.36-.77,8.24C83.31,61.08,75.61,64.93,67,66.3a32.65,32.65,0,0,1-13.89-.55c2-1.46,4.35-1.2,6.47-1.49,9.72-1.31,18.58-5.54,27.9-8.18,2.49-.71,2.51-2.54,1.67-4.46-.66-1.49-1.75-2.6-3.49-1.29-9,6.81-19.64,8.88-30.32,10.79-5,.89-9.31,3.35-13.86,5.3C41,66.61,40.57,66.86,40,66.25Z"/><path class="cls-48" d="M83.34,54.1a3.55,3.55,0,0,1,.6-.44c1.16-.52,1.82-2.25,3.45-1.5a1.45,1.45,0,0,1,.37,1.33c-.63,1.64-2.26,1.14-3.5,1.49C83.42,55.24,83.23,54.84,83.34,54.1Z"/><path class="cls-49" d="M65.24,61.55c1.66-1.9,3-1.42,4.27-1.12Z"/><path class="cls-50" d="M83.34,54.1l.92.88-3.9,1.78C81.11,54.74,82.36,54.58,83.34,54.1Z"/><path class="cls-51" d="M60.28,61.6l3.61-.27C62.33,62.61,61.19,62.41,60.28,61.6Z"/><path class="cls-52" d="M53.23,63.46c.56-.55,1.55-1,1.81-.44.38.75-.61.69-1.14.71C53.69,63.74,53.48,63.57,53.23,63.46Z"/><path class="cls-53" d="M105.74,31.6c-.2.78-.6,1.4-1.45,1.37s-.56-.9-.61-1.4-.32-1.37.63-1.33A1.42,1.42,0,0,1,105.74,31.6Z"/><path class="cls-54" d="M100.57,26.3c1.53-2,3.05-2.27,4.55,0Z"/><path class="cls-33" d="M75.24,51.44c3-1.39,5.2-3.34,5.82-6.69a1.19,1.19,0,0,1,1.34-1,1.61,1.61,0,0,1,1.29,1.22A3.68,3.68,0,0,1,82,49.43C80,50.74,78,51.87,75.24,51.44Z"/></svg>