<svg id="Layer_1" data-name="Layer 1" xmlns="http://www.w3.org/2000/svg" viewBox="0 0 300 300"><defs><style>.cls-1{fill:#d4d3d5;}.cls-2{fill:#c00d0b;}.cls-3{fill:#bd0d0b;}.cls-4{fill:#be0d0b;}.cls-5{fill:#950a09;}.cls-6{fill:#fefefe;}.cls-7{fill:#c3932f;}.cls-8{fill:#040404;}.cls-9{fill:#d3d2d4;}.cls-10{fill:#c2932f;}.cls-11{fill:#c0912e;}.cls-12{fill:#d2d1d3;}.cls-13{fill:#be8f2d;}</style></defs><path d="M21.24-.61H278.76a1,1,0,0,1,1,1V176.59A123.39,123.39,0,0,1,156.36,300h-12.5A123.62,123.62,0,0,1,20.25,176.37V.38a1,1,0,0,1,1-1Z"/><path class="cls-1" d="M150,2.09q61.58,0,123.16-.06c2.68,0,3.35.59,3.34,3.31q-.14,67.1,0,134.19c0,2.72-.65,3.4-3.34,3.32-7.34-.2-14.69,0-22-.12-2.11,0-2.7.53-2.68,2.66.12,9.51,0,19,.1,28.52,0,2-.38,2.82-2.62,2.77-7-.15-14.05-.16-21.07,0-2.29.05-2.65-.81-2.63-2.8.08-9.4-.07-18.8.1-28.2,0-2.52-.72-3-3.06-3-8.43.14-16.86.12-25.28,0-2,0-2.53.52-2.5,2.52.11,9.5,0,19,.1,28.52,0,2.17-.38,3-2.77,2.92-6.91-.18-13.83-.15-20.74,0-2.11,0-2.72-.55-2.69-2.68.11-9.51,0-19,.09-28.53,0-2-.42-2.78-2.64-2.74q-12.8.2-25.6,0c-2.16,0-2.71.59-2.69,2.7.11,9.51,0,19,.09,28.53,0,2.06-.46,2.76-2.64,2.72q-10.53-.21-21.07,0c-2.05,0-2.5-.59-2.48-2.54.1-9.62,0-19.24.09-28.85,0-1.92-.37-2.59-2.45-2.56q-13,.2-25.93,0c-2.13,0-2.44.73-2.43,2.59.08,9.4-.06,18.81.11,28.2,0,2.65-.81,3.22-3.27,3.16-6.81-.16-13.62-.14-20.42,0-2.18,0-2.69-.64-2.67-2.73.11-9.5,0-19,.1-28.52,0-2.05-.44-2.75-2.63-2.7-7.45.14-14.91-.1-22.36.13-2.78.09-3-1-3-3.29q.09-61.74,0-123.49c0-3.89.09-7.79,0-11.67-.06-1.8.42-2.4,2.3-2.36,6.16.12,12.32,0,18.47,0Z"/><path class="cls-2" d="M219.68,218.18c-6.48,0-13-.08-19.43,0-2.12,0-2.86-.62-2.79-2.76.13-4.43.11-8.86,0-13.28-.05-2,.47-2.91,2.7-2.89q19.59.12,39.19,0c2,0,2.65.69,2.61,2.64-.11,4.53-.14,9.07,0,13.6.08,2.26-.87,2.7-2.87,2.67C232.63,218.12,226.16,218.18,219.68,218.18Z"/><path class="cls-2" d="M80.3,199.33c6.48,0,13,.07,19.44,0,2.15,0,2.83.73,2.77,2.82-.11,4.42-.1,8.85,0,13.28,0,2-.47,2.85-2.71,2.83-13.06-.1-26.13-.08-39.19,0-2,0-2.65-.62-2.6-2.6.11-4.53.13-9.07,0-13.6-.07-2.21.84-2.75,2.87-2.72C67.35,199.38,73.82,199.33,80.3,199.33Z"/><path class="cls-2" d="M80.33,241.81c6.48,0,13,.05,19.44,0,1.82,0,2.8.31,2.74,2.45-.12,4.64-.11,9.29,0,13.93,0,2.08-.88,2.53-2.74,2.52-11.88-.06-23.76,0-35.64-.05a6.34,6.34,0,0,1-6.08-6.19c0-3.24.11-6.48,0-9.71-.11-2.23.58-3,2.89-3C67.37,241.9,73.85,241.81,80.33,241.81Z"/><path class="cls-2" d="M219.9,241.81c6.48,0,13,.06,19.44,0,1.95,0,2.72.55,2.63,2.57-.14,3,0,6.05,0,9.07,0,4.79-2.47,7.24-7.31,7.24-11.34,0-22.68-.06-34,0-2.42,0-3.24-.69-3.15-3.12q.26-6.48,0-13c-.09-2.36.84-2.9,3-2.86C206.94,241.89,213.42,241.81,219.9,241.81Z"/><path class="cls-2" d="M173.33,260.66c-6.49,0-13-.08-19.45,0-2.16,0-2.79-.67-2.72-2.79.14-4.42.12-8.86,0-13.28-.06-2,.39-2.88,2.64-2.86q19.45.14,38.9,0c2.19,0,2.74.74,2.69,2.79-.13,4.54-.14,9.08,0,13.61.07,2.07-.71,2.55-2.63,2.53C186.29,260.6,179.81,260.66,173.33,260.66Z"/><path class="cls-2" d="M127,241.81c6.38,0,12.75.09,19.13,0,2.17,0,2.78.71,2.71,2.79-.13,4.43-.12,8.86,0,13.29.05,2-.39,2.87-2.65,2.86q-19.44-.15-38.89,0c-2.17,0-2.77-.69-2.7-2.78.15-4.43.17-8.87,0-13.29-.09-2.34.76-2.9,3-2.86C114,241.89,120.49,241.81,127,241.81Z"/><path class="cls-2" d="M173,199.33c6.59,0,13.18,0,19.77,0,1.91,0,2.69.46,2.63,2.52-.14,4.64-.1,9.29,0,13.94,0,1.77-.48,2.47-2.36,2.46q-19.77-.11-39.54,0c-1.94,0-2.34-.82-2.31-2.53.07-4.53.12-9.07,0-13.61-.07-2.11.57-2.83,2.72-2.79C160.25,199.4,166.63,199.33,173,199.33Z"/><path class="cls-2" d="M196.51,239.4c-6.36,0-12.72-.07-19.08,0-2.15,0-3.1-.42-3-2.81.18-4.53.1-9.06,0-13.59,0-1.7.32-2.52,2.29-2.51q19.89.11,39.79,0c1.79,0,2.17.72,2.15,2.31-.07,4.74-.1,9.49,0,14.23,0,1.9-.67,2.38-2.44,2.36C209.67,239.35,203.09,239.4,196.51,239.4Z"/><path class="cls-2" d="M126.65,199.33c6.48,0,13,.07,19.44-.05,2.15,0,2.8.68,2.73,2.79-.15,4.43-.12,8.86,0,13.29.05,2-.4,2.88-2.65,2.86q-19.44-.14-38.89,0c-2.19,0-2.75-.75-2.69-2.8.12-4.53.13-9.07,0-13.61-.06-2.06.72-2.55,2.63-2.52C113.68,199.39,120.17,199.33,126.65,199.33Z"/><path class="cls-2" d="M150.09,220.58c6.47,0,12.94.06,19.41,0,1.93,0,2.67.44,2.61,2.51-.15,4.63-.11,9.27,0,13.91,0,1.73-.35,2.49-2.3,2.48q-19.74-.1-39.48,0c-1.78,0-2.48-.45-2.43-2.34.11-4.75.12-9.5,0-14.24,0-1.94.73-2.33,2.47-2.31C136.93,220.62,143.51,220.58,150.09,220.58Z"/><path class="cls-2" d="M103.35,239.4c-6.36,0-12.72-.07-19.08,0-2.13,0-3.1-.39-3-2.8.19-4.52.1-9.06,0-13.58,0-1.68.26-2.54,2.25-2.53q19.9.11,39.79,0c1.75,0,2.2.67,2.18,2.28-.07,4.75-.1,9.5,0,14.24,0,1.87-.66,2.39-2.44,2.36C116.51,239.35,109.93,239.4,103.35,239.4Z"/><path class="cls-2" d="M149.64,281.61c-6.25,0-12.51-.12-18.75.06-2.49.07-3.12-.74-3-3.11.18-4.52.11-9.06,0-13.58,0-1.69.54-2.24,2.23-2.23q19.89.08,39.78,0c1.73,0,2.21.64,2.19,2.27-.08,4.74-.1,9.49,0,14.23,0,1.83-.57,2.42-2.4,2.39C163,281.56,156.33,281.61,149.64,281.61Z"/><path class="cls-2" d="M243,197.2c-6.58,0-13.16-.06-19.74,0-2,0-2.63-.59-2.57-2.57.13-4.42.11-8.85,0-13.27,0-1.83.57-2.42,2.41-2.41q19.74.09,39.47,0c1.93,0,2.68.51,2.62,2.54-.12,4.31-.11,8.63,0,12.94.05,2.07-.62,2.83-2.79,2.78C256,197.12,249.51,197.2,243,197.2Z"/><path class="cls-2" d="M56.83,197.2c-6.47,0-12.94,0-19.41,0-1.91,0-2.72-.53-2.68-2.55.1-4.53.07-9.06,0-13.59,0-1.5.5-2.1,2.06-2.1q20.22.06,40.44,0c1.63,0,2,.75,2,2.18,0,4.53-.11,9.06,0,13.59.06,2.11-.83,2.49-2.68,2.47C70,197.15,63.41,197.2,56.83,197.2Z"/><path class="cls-2" d="M80,160.67c0-4.32.09-8.64,0-13-.06-2,.63-2.6,2.59-2.57,7,.1,14,.08,21.06,0,1.75,0,2.51.47,2.5,2.37q-.11,13.44,0,26.89c0,1.74-.67,2.22-2.3,2.21-7.24-.06-14.48-.08-21.71,0-1.82,0-2.15-.78-2.12-2.34C80,169.75,80,165.21,80,160.67Z"/><path class="cls-2" d="M137,160.93c0-4.31.08-8.64,0-13-.06-2,.42-2.89,2.66-2.85,7,.13,14,.1,21,0,1.85,0,2.42.62,2.4,2.43q-.09,13.29,0,26.57c0,1.74-.41,2.5-2.33,2.48q-10.68-.13-21.38,0c-1.83,0-2.44-.58-2.4-2.41C137,169.79,137,165.36,137,160.93Z"/><path class="cls-2" d="M250.6,160.6c0-4.2.08-8.41,0-12.61,0-2,.43-2.9,2.67-2.86,6.9.13,13.8.12,20.69,0,2.06,0,2.53.74,2.51,2.64-.08,8.72-.1,17.46,0,26.18,0,2.2-.75,2.71-2.79,2.67-6.79-.1-13.58-.12-20.37,0-2.19.05-2.78-.71-2.72-2.78C250.69,169.44,250.6,165,250.6,160.6Z"/><path class="cls-2" d="M220,160.94c0,4.43-.07,8.86,0,13.29.05,1.84-.57,2.42-2.4,2.4q-10.69-.13-21.38,0c-1.91,0-2.37-.73-2.36-2.49q.09-13.27,0-26.57c0-1.83.63-2.44,2.44-2.42,7.13.07,14.26.08,21.38,0,1.95,0,2.35.8,2.31,2.52C219.94,152.08,220,156.51,220,160.94Z"/><path class="cls-2" d="M23.57,160.91c0-4.31.08-8.63,0-12.94-.05-2,.36-2.89,2.63-2.84,6.89.13,13.79.11,20.69,0,2,0,2.56.75,2.54,2.66q-.1,13.09,0,26.19c0,1.9-.48,2.67-2.53,2.64q-10.5-.15-21,0c-1.91,0-2.37-.72-2.33-2.47C23.63,169.75,23.57,165.33,23.57,160.91Z"/><path class="cls-2" d="M103.44,179c6.36,0,12.72.12,19.08-.06,2.49-.06,3.13.77,3,3.14-.18,4.19-.1,8.4,0,12.6,0,1.68-.29,2.55-2.28,2.54-13.26-.07-26.51-.05-39.77,0-1.42,0-2.19-.31-2.17-1.95.07-4.74.09-9.49,0-14.23,0-1.9,1-2,2.43-2C90.29,179,96.87,179,103.44,179Z"/><path class="cls-2" d="M150.33,179c6.36,0,12.72.09,19.08,0,2.17,0,2.76.69,2.69,2.76-.13,4.42-.1,8.84,0,13.26,0,1.68-.53,2.24-2.22,2.23q-19.91-.07-39.79,0c-1.73,0-2.22-.61-2.19-2.26.08-4.42.13-8.84,0-13.26-.07-2.11.6-2.77,2.73-2.73C137.17,179.1,143.75,179,150.33,179Z"/><path class="cls-2" d="M196.55,179c6.46,0,12.93.08,19.4,0,2.11,0,2.82.58,2.75,2.72-.15,4.42-.1,8.84,0,13.26,0,1.63-.45,2.28-2.19,2.27q-19.87-.07-39.77,0c-1.65,0-2.3-.51-2.27-2.22.08-4.52.13-9,0-13.57-.07-2.15.9-2.47,2.71-2.45C183.61,179.07,190.08,179,196.55,179Z"/><path class="cls-2" d="M103.49,262.78c6.48,0,13,.06,19.44,0,2,0,2.66.57,2.6,2.57-.12,4.64-.1,9.29,0,13.93,0,1.85-.63,2.41-2.43,2.4-9.4-.07-18.81.22-28.19-.14-5-.18-8.81-3.77-12.93-6.25-1.28-.77-.64-2.41-.62-3.65,0-2.78-1.19-6.39.46-8.15,1.83-1.94,5.52-.56,8.38-.64C94.63,262.68,99.06,262.78,103.49,262.78Z"/><path class="cls-2" d="M196.84,262.78c6.37,0,12.75.08,19.12,0,2.13,0,2.72.63,2.74,2.74.12,9.86.17,9.83-8.5,14.43a14.26,14.26,0,0,1-7.1,1.75q-13-.16-25.92,0c-2.13,0-2.81-.65-2.74-2.76.13-4.53.13-9.08,0-13.61-.06-2,.7-2.57,2.63-2.54C183.66,262.84,190.25,262.78,196.84,262.78Z"/><path class="cls-2" d="M33,220.57H73c6.19,0,6.19,0,6.19,6.32,0,3.34-.07,6.69,0,10,0,1.69-.32,2.53-2.28,2.52-10.57-.08-21.14-.05-31.71,0a2.82,2.82,0,0,1-2.69-1.32A105.7,105.7,0,0,1,33,220.57Z"/><path class="cls-2" d="M238.63,239.4c-5.07,0-10.14-.06-15.21,0-1.82,0-2.76-.3-2.69-2.44.14-4.74.1-9.49,0-14.23,0-1.72.61-2.22,2.26-2.21q20.87.07,41.73,0c1.57,0,2.2.25,1.4,2a125.6,125.6,0,0,1-8.65,15.5c-.88,1.36-2,1.38-3.33,1.37C249,239.39,243.8,239.4,238.63,239.4Z"/><path class="cls-2" d="M259.17,199.33c4.11,0,8.21.06,12.31,0,1.95-.05,2.37.46,1.87,2.43-1.24,4.81-2.73,9.52-4.39,14.2a3,3,0,0,1-3.34,2.28q-9.39-.14-18.79,0c-2,0-2.9-.47-2.83-2.69.15-4.53.17-9.07,0-13.6-.09-2.3.89-2.68,2.87-2.63C251,199.41,255.07,199.33,259.17,199.33Z"/><path class="cls-2" d="M43.78,218.17c-3.13,0-6.26-.08-9.39,0A3,3,0,0,1,31,216a147.24,147.24,0,0,1-4.46-14.51c-.4-1.6-.11-2.15,1.57-2.14q13,.06,25.91,0c1.4,0,1.91.55,1.9,1.92,0,5,0,9.94,0,14.91,0,1.56-.63,2.08-2.12,2.05C50.48,218.13,47.13,218.17,43.78,218.17Z"/><path class="cls-2" d="M173.42,284c6.47,0,12.93,0,19.4,0,.92,0,2.3-.61,2.5,1.15.18,1.52-1,1.7-2,2a135,135,0,0,1-39.1,7.86c-2.43.13-3.1-.58-3.08-3,.07-8.08,0-8.08,8.05-8.08Z"/><path class="cls-2" d="M126.62,284c6.58,0,13.16,0,19.73,0,1.77,0,2.63.45,2.44,2.35-.11,1.18,0,2.37,0,3.56,0,5.47,0,5.5-5.34,5.1a133.58,133.58,0,0,1-36.21-7.59c-1.13-.41-2.85-.4-2.53-2.28s2.11-1,3.18-1.06C114.12,284,120.37,284,126.62,284Z"/><path class="cls-2" d="M32.63,188.28c0,2.26-.09,4.52,0,6.77.09,1.73-.62,2.15-2.25,2.19-4.93.15-5,.16-5.57-4.93-.4-3.63-.76-7.25-1.19-10.87-.22-1.78.37-2.41,2.26-2.47,6.73-.19,6.72-.27,6.72,6.41Z"/><path class="cls-2" d="M267.34,187.89c0-1-.06-1.94,0-2.9.15-1.9-.91-4.55.53-5.51,2-1.3,4.78-.38,7.22-.41,1.51,0,1.29,1.21,1.2,2.12-.5,4.68-.73,9.4-1.67,14-.76,3.73-3.62,1.47-5.48,1.91s-1.81-1.2-1.81-2.49Z"/><path class="cls-3" d="M235.32,262.77a108.38,108.38,0,0,1-14.55,10.9c0-3.4,0-6.26,0-9.11,0-1.46.71-1.82,2-1.8C226.62,262.8,230.49,262.77,235.32,262.77Z"/><path class="cls-3" d="M79.21,273.54a96.65,96.65,0,0,1-14.53-10.75c4.91,0,9,0,13.14,0,1.43,0,1.39,1.06,1.39,2Z"/><path class="cls-4" d="M45.31,241.82c3.39,0,6.14,0,8.89,0,1.22,0,1.74.53,1.73,1.75,0,3.39,0,6.79,0,11A83.73,83.73,0,0,1,45.31,241.82Z"/><path class="cls-4" d="M254.71,241.82a91.32,91.32,0,0,1-10.66,12.75c0-4.17,0-7.56,0-10.94,0-1.16.4-1.82,1.66-1.81C248.46,241.84,251.23,241.82,254.71,241.82Z"/><path class="cls-5" d="M102.67,285c-1.56.71-2.12-.13-3.17-.56C100.86,283.86,101.77,283.76,102.67,285Z"/><path class="cls-5" d="M200.31,284.34c-.92.68-1.57,1.24-2.46.85-.13-.06-.23-.67-.11-.77C198.43,283.79,199.23,283.89,200.31,284.34Z"/><path d="M85.28,93.81,137.47,66c-14.24-8.07-28.14-15.91-42-23.85-1.75-1-2.19-.12-2.87,1.1-3.43,6.11-7,12.16-10.31,18.32-1,1.79-1.77,1.93-3.37.85a44.43,44.43,0,0,0-5.9-3.33c-1.62-.77-1.76-1.6-.78-3s1.73-2.46-.5-3.45-.27-2.12.13-3.12,1-2.19,2.31-1c.81.76,3.27.46,2,2.74s1.13,2,2,2.77c1.23,1.14,1.82.17,2.39-.86,1.3-2.36,2.6-4.73,4-7,.73-1.21,1-2.16-.61-2.74-1.11-.39-2.3-2.29-3.29.09s-2.1.81-3.28.28c-1.43-.63-1.83-1.5-.71-2.67.83-.88.68-3.52,3-2,2.54,1.7,2.47-.91,3.35-1.89,1.4-1.56.13-2.15-1.06-2.8-2.17-1.2-4.26-2.57-6.5-3.62-1-.47-2.12-2.52-3.34-.53-.87,1.42-3.23,3,.1,4.76,1.91,1-.39,2.31-.73,3.46C71,40.08,70,39.89,69,39.08c-.84-.69-3-.78-1.6-2.66,1.57-2.14-.39-2.36-1.46-3.19-1.68-1.3-2.18,0-2.82,1.15-1.15,2.08-2.4,4.1-3.46,6.22-.43.86-2.11,2-.22,2.86,1.13.53,2.25,2.79,3.91.21,1.18-1.86,2.39.26,3.47.73,1.74.75.32,1.83-.12,2.59s-.7,2.71-2.42,1.45-2.47-.62-3.08,1c-.66,1.77-1.56,2.29-3.33,1.09-2.4-1.62-6.3-2.51-7.09-4.63s2.26-5,3.64-7.46Q57.9,32,61.58,25.76c.84-1.42,1.23-2.56-.74-3.15-1.59-.48-2.37-3.75-4.83-1.4-.29.28-.91-.42-.83-.73.81-3-1.34-2.51-3.11-2.95s-2.17-2.26-2-4c.34-2.83,1.8-4.91,4.64-5.55,2.47-.55,3.39,1.3,4,3.24,1.35,0,3.89-4.67,3.64,1,0,.55,0,.87.61.58,1.65-.85,2.64.56,3.76,1.19Q105.91,36.09,145,58.36c2.61,1.5,4.52,1.37,7,0,23.17-12.45,46.43-24.71,69.59-37.17,8.52-4.58,17.39-5.31,26.68-3.49,2,.38,2.6,1.06,1.69,3.18-3.75,8.69-9.16,15.77-17.68,20.34-19,10.18-37.93,20.49-56.89,30.75l-3.18,1.74c8.15,4.62,16,9,23.83,13.52a2.9,2.9,0,0,0,2.46.12,8.79,8.79,0,0,1,9.24,2.27,2.67,2.67,0,0,0,3.13.68c3.72-1.09,7.44-2.18,11.21-3.09a3,3,0,0,0,2.49-2.48A8.93,8.93,0,0,1,232.8,78a9.13,9.13,0,0,1,9,5.18,8.83,8.83,0,0,1-1.66,10.48,2.9,2.9,0,0,0-.74,3.39c.8,2.46,1.42,5,2.06,7.48.78,3.1,1.59,5.6,5.33,7,5,1.86,6.31,8.52,3.39,13a9.18,9.18,0,0,1-13.57,2.14,4.24,4.24,0,0,0-4.88-1c-1.91.71-4,1.06-5.92,1.61-3.32.92-6.28,1.53-7.85,5.74-1.87,5-8.56,6-13,3a9,9,0,0,1-2-13.34,4.48,4.48,0,0,0,1-5.19c-.67-1.81-1-3.73-1.53-5.61-.89-3.34-1.27-6.84-5.78-7.78-2.06-.43-3.53-2.58-4-4.77s-1.84-3.14-3.61-4.12c-8.56-4.78-17.08-9.66-25.6-14.52-1.15-.65-2.11-1.15-3.56-.36-21,11.41-42.07,22.75-63.27,34.19,2.18,2.3,4.78,3.62,7.26,5.1,2.83,1.69,3.42,3.81,1.91,6.84-1.36,2.73-3.36,3.24-6.17,2.11a49.57,49.57,0,0,1-13.19-7.43A4.49,4.49,0,0,0,82.59,120c-7.73,1-14,5.45-20.69,8.84-.64.32-1,.8-.63,1.56,1.27,2.56.91,4.79-1.9,5.82-3.07,1.13-4.51-1.06-5.6-3.49-4.18,5.28-4.77,5.49-11,2.68-1.25-.57-1.47.21-2.06.71a4.4,4.4,0,0,1-5.39.6,4.55,4.55,0,0,1,1.09-8.29c.87-.26,1.71-.18,1.9-1.65.8-6.15,1.57-6.78,8-7.55-.28-.72-.53-1.41-.8-2.09-.83-2.07,0-3.62,1.71-4.68s3.79-.8,4.83,1,2.11,1.52,3.58.68c5.9-3.34,12.2-6,17-11.09a5.06,5.06,0,0,0,1.63-4.29A49,49,0,0,1,75.41,83c.64-2.67,2.16-3.87,4.84-3.61,3.16.29,5,2,4.9,4.87A57.55,57.55,0,0,0,85.28,93.81Z"/><path class="cls-6" d="M106.27,95.34C100.84,98.18,95.38,101,90,103.89c-1.64.89-2.29.72-3-1.08-2.22-5.8-2.12-6.27,3.28-9.14Q156.6,58.39,222.88,23.1a35.59,35.59,0,0,1,23.2-3.54c1.73.28,1.68.84.84,2a31.56,31.56,0,0,1-3.07,1.28,13.32,13.32,0,0,0-3.64,1.5c-18.15,9.5-36.14,19.29-54.18,29q-17.67,9.5-35.34,19c-13.52,7.19-26.92,14.58-40.5,21.64A10.87,10.87,0,0,1,106.27,95.34Z"/><path class="cls-6" d="M244,22.2c.89-.62,1.77-1.31,3-.66A32.73,32.73,0,0,1,231.52,39l-122.12,66c-4.16,2.25-8.46,4.29-12.47,6.8-2.11,1.31-3.18.66-4.57-.82-4.24-4.52-4.26-4.47,1-7.34,4.62-2.52,9.21-5.08,13.82-7.62.35-1,1.3-1.4,2.16-1.84,13.6-7,27-14.4,40.49-21.58q22.83-12.14,45.57-24.43c15-8.07,30-16.06,45-24.18C241.51,23.33,242.83,23,244,22.2Z"/><path class="cls-7" d="M82.58,88.13c-.78,14.44,5.55,24.93,17.82,32.14.74.43,1.46.93,2.24,1.29,1.86.87,1.67,2.31,1.1,3.82-.67,1.76-1.91,1.61-3.43,1.09-18.72-6.33-27.74-23-22.86-42.39.43-1.72,1.1-2.72,3.08-2.33,1.79.36,2.66,1.22,2.3,3.15A28.71,28.71,0,0,0,82.58,88.13Z"/><path class="cls-7" d="M75.09,104.05A31.74,31.74,0,0,0,80.9,115.8c.54.67,2.1,1.82-.13,2.21-7,1.22-12.79,5-18.85,8.25-1.68.9-2.6,1-3.39-1-1.07-2.68-4.19-5.26-3.5-7.68s4.63-3,7.09-4.49c2.21-1.33,4.53-2.51,6.64-4S72.78,105.93,75.09,104.05Z"/><path class="cls-8" d="M241,24.24c-5.35,3.62-11.21,6.31-16.88,9.36Q166.71,64.47,109.24,95.2c-.65.35-1.36.59-2,.88l-.92-.74c12.85-7,25.67-14,38.54-20.88q45.9-24.66,91.83-49.25c1.13-.6,2.32-1.1,3.47-1.64C240.44,23.74,240.86,23.78,241,24.24Z"/><path class="cls-9" d="M226.79,99c-.94,5.65.31,9.85,4.07,14.2-5.84-1.49-9.9,0-14,3.4a15.49,15.49,0,0,0-3.72-13.5C218.38,103.67,222.62,102.72,226.79,99Z"/><path class="cls-10" d="M44.64,121.83c2.35.18,4,1.78,5.22,3.94,1.32,2.34,2.13,4.78.7,7.34a3.37,3.37,0,0,1-4.14,1.69c-3.74-1-6.87-6.35-5.78-10A3.65,3.65,0,0,1,44.64,121.83Z"/><path class="cls-11" d="M49.11,114.21c1.18.14,1.46,1,1.86,1.76L59.09,131c.58,1.09,1.2,2.22-.37,3s-1.91-.48-2.42-1.41c-2.76-5.12-5.48-10.26-8.24-15.38C47.25,115.73,47.18,114.58,49.11,114.21Z"/><path class="cls-12" d="M213,113.9a11.48,11.48,0,0,1-.4,2.3c-.43,1.15-.54,2.76-2.22,2.81-1.94,0-1.56-1.8-1.9-2.87-1-3.17-1.84-6.41-2.68-9.64-.19-.74-.82-1.6.24-2.3s1.86-.14,2.64.45C211.61,106.9,212.75,110.05,213,113.9Z"/><path class="cls-12" d="M215.9,98.92a11.05,11.05,0,0,1-1.29-.13c-1.63-.37-3.88-.34-4-2.5s2.27-1.54,3.53-2c2.84-1,5.79-1.66,8.69-2.45.91-.24,1.87-.79,2.62.3s-.11,2-.74,2.83C222.48,97.78,219.4,98.84,215.9,98.92Z"/><path class="cls-12" d="M227.72,116.75a8.28,8.28,0,0,1,2.11.28c1.22.48,3,.4,3.14,2.26.09,2.14-2,1.64-3.1,2-3.06,1-6.2,1.79-9.33,2.6-.76.2-1.69.79-2.34-.2s-.23-1.81.4-2.65C220.85,118,224,116.91,227.72,116.75Z"/><path class="cls-12" d="M230.71,101.79a12.51,12.51,0,0,1,.32-2c.39-1.28.44-3,2.26-3.08s1.54,1.78,1.87,2.87c1,3.07,1.75,6.19,2.61,9.3.25.9.9,1.88-.19,2.61s-2.07,0-2.9-.66C231.87,108.57,230.88,105.47,230.71,101.79Z"/><path class="cls-13" d="M37.41,130.47a2.26,2.26,0,0,1,2.35,2.2,1.94,1.94,0,0,1-2,2.33,2.13,2.13,0,0,1-2.37-2.11C35.23,131.51,36.13,130.76,37.41,130.47Z"/><path d="M241,24.24l-.85-.67c1.16-.8,2.27-1.73,3.85-1.37C243.34,23.44,242.15,23.83,241,24.24Z"/></svg>