<svg id="Layer_1" data-name="Layer 1" xmlns="http://www.w3.org/2000/svg" viewBox="0 0 300 300"><defs><style>.cls-1{fill:#ec1c24;}.cls-2{fill:#fdbd10;}.cls-3{fill:#fbbc10;}.cls-4{fill:#161101;}.cls-5{fill:#5d4606;}.cls-6{fill:#906c09;}.cls-7{fill:#150f01;}.cls-8{fill:#543e05;}.cls-9{fill:#ce9a0d;}.cls-10{fill:#5f4706;}.cls-11{fill:#010100;}.cls-12{fill:#7c5d08;}.cls-13{fill:#9b750a;}.cls-14{fill:#f7b910;}</style></defs><path d="M21.24-.61H278.76a1,1,0,0,1,1,1V176.59A123.39,123.39,0,0,1,156.36,300h-12.5A123.62,123.62,0,0,1,20.25,176.37V.38a1,1,0,0,1,1-1Z"/><path class="cls-1" d="M150.11,3.19q61.21,0,122.43-.06c2.35,0,3.09.47,3.09,3-.08,54.56.42,109.12-.2,163.67-.59,51.15-23.92,89.62-69.27,113.12C143,315.66,64.56,287.4,35.43,222.54A123.5,123.5,0,0,1,24.32,171.4q0-82.84-.07-165.68c0-2.16.65-2.58,2.68-2.58Q88.52,3.23,150.11,3.19Z"/><path d="M110,181.25a40.09,40.09,0,0,1-5.94-2.88c-6.18-4.15-8.71-11.14-7-19.28,1.32-6.35,4.27-11.94,7.85-17.25a5.15,5.15,0,0,0,1.3-2.44c-5.6,1.28-11,2.85-17,3.3,6.31-9.77,15.43-15.82,24.71-21.85-3.08-.61-10.3.54-15.43,2.34a49.53,49.53,0,0,0-10.67,5.52c-5.71,3.75-11.73,6.78-18.66,7.59-13.83,1.61-25.92-12.38-21.57-25,1.89-5.46,6.31-9.14,10.84-9,2,0,3.69.26,2.73,3.12a11.76,11.76,0,0,0-.21,4.24c.38,6.77,4.54,10,11.18,8.57A67.36,67.36,0,0,0,80,115.71c2.84-1,5.62-2.18,8.46-3.17,8.29-2.87,16.56-4.32,24.71.69a21.75,21.75,0,0,0-10.86-7.9,21,21,0,0,0-13.34.06,34.48,34.48,0,0,0-12.13,6.76c-1.58-5.09-2.44-9.94-1-14.85,2-7.23,7.69-10.2,14.46-11.55,5.2-1,10.51-.86,15.78-1.11,2.92-.14,3-.17,1.88-2.79-.9-2.21-1.16-4.25,1.23-5.68-.3-.33-.38-.49-.51-.54-12.37-5.17-18.34-16.21-15.84-29.3A17.65,17.65,0,0,1,109.65,31.8c1.55,0,1.86.32,1.46,1.83-.91,3.49-1.69,7-1,10.66.64,3.3,2.08,4.18,5.36,3.5a10.09,10.09,0,0,0,6.45-4.46c1.77-2.64,3.47-5.33,5.22-8a37.25,37.25,0,0,1,5.45-6.56c6.78-6.42,13.62-7.42,22.23-3.1-1.83,1.52-3.63,2.95-5.34,4.48A16.44,16.44,0,0,0,145,36.09a3.42,3.42,0,0,0,.48,4c1.21,1.25,2.61,2.12,4.48,1.61a14.77,14.77,0,0,0,5.55-3.35c4.64-4,9.18-8.08,13.91-12a33.35,33.35,0,0,1,13.69-7.11c5.67-1.29,10.43,0,14.24,4.88-1.78.94-3.54,1.78-5.21,2.79a15.55,15.55,0,0,0-6.3,6.33c-2.5,5.07-.05,9.69,5.55,10.19A22.69,22.69,0,0,0,211,36c3.91-4.28,6.68-9.25,6.76-15.28,0-1.4.83-1.39,1.79-1.43a16.78,16.78,0,0,1,14.81,7c3,3.93,4.19,8.53,4.66,13.35,1.78,18.52-5.76,32.52-21,42.7a64.18,64.18,0,0,1-27.27,10.15c-.15.91.64,1,1.07,1.21,27.43,16.56,43.23,41.1,49.14,72.23,2.65,14,2.43,28-1.63,41.79a2.9,2.9,0,0,0,.74,2.73,11.45,11.45,0,0,0,3,3c1.1.75,2.23,1.45,3.39,2.2a9.76,9.76,0,0,1-10.49,4c-1.67-.34-2.39.12-2.82,1.76-1.29,4.82-.95,9.62-.06,14.44.25,1.3.49,2.61.74,4-8.19-1.32-13.1-8.78-11.84-17.81,0-.16.08-.33.1-.49.34-2.84,2.07-5.62,1.89-8.22s-2.6-4.93-3.25-7.73c-.84-.18-1,.54-1.31.94a23.22,23.22,0,0,1-15.23,8.9c-1.57.22-2,.91-2,2.26,0,3.61,3.34,5.86,7.12,4.72a13.1,13.1,0,0,0,5.21-3.41c.94-.91,1.31-.78,1.9.42,3.63,7.33-2.16,15.82-11.11,16.22-11.58.51-19.88-6.33-22.19-18.26-.12-.63-.27-1.26-.48-2.28-4.19,5.14-7.75,10.1-7.89,16.69-.09,3.82,1.68,6.73,4.51,9.12,3.13,2.62,6.86,4,10.78,5.15-6,8.15-18.61,9.19-26.14,2.3-7-6.39-8.63-14.43-7.21-23.4.19-1.22.47-2.43.72-3.72-1.24,0-2,.77-2.77,1.25-13,7.56-26.42,8.35-40.18,2.24a2.8,2.8,0,0,0-2.79.15c-4.32,2.38-5.64,6.4-6,10.94a29,29,0,0,0,1.47,10.1c-6-.74-10.49-3.24-13-8.51S92.88,226.9,95,221.7c-4.49,2.44-7.93,5.77-9.14,10.78-1.71,7.11,1.66,11.91,8,15.29-5.46,2.65-10.59,3.18-15.55,0-5.48-3.54-7.68-8.86-7.51-15.26a7.84,7.84,0,0,1,.22-2c2.25-7.9,3.79-16,5.65-23.95,1.72-7.39,7.5-12.07,13.89-15.81,4.72-2.76,9.9-4.49,14.78-6.91A20.92,20.92,0,0,0,110,181.25Z"/><path class="cls-2" d="M232.64,184.39a40,40,0,0,0,3.11,25.2,17.83,17.83,0,0,0,4.92,6.18,5.31,5.31,0,0,1-4.64.38c-9.61-2.61-13.57-10.48-12.39-19.86.66-5.2,1.17-10.3.26-15.48-.62-.49-.6.1-.65.42-.13.85.16,1.73-.2,2.57-.55,5.91-1.13,11.79-4,17.17-3.78,7-11.16,11.61-18,11a10.41,10.41,0,0,1-9.55-8.56c2.43.29,4.83.86,7.22.33,6.6-1.47,11.61-4.94,14.14-11.46a45.89,45.89,0,0,0,.49-33.07c-.6-.25-.59.06-.47.49.57,6.75,1.3,13.5.59,20.28-.61,5.79-1.72,11.43-5.75,16a4.63,4.63,0,0,1-2.6,1.94,42.18,42.18,0,0,0,2.24-23.16c-.65-.81-.54-1.84-.82-2.76a3.61,3.61,0,0,1-.12-.67c.05.58.3,1.12.3,1.72a60.45,60.45,0,0,1-.21,6.73A58.54,58.54,0,0,1,202.4,198a4.53,4.53,0,0,1-4.24,3.21c-.75.05-1.51.11-2.26.09-5.83-.12-6.39-.85-5.14-6.38,2-9,3.87-18,4.29-27.25.23-5,.12-10-2.25-14.69,0,.86,0,1.71,0,2.56.32,18.42-2.74,36.16-10.55,53a53.51,53.51,0,0,1-5.47,8.68A27,27,0,0,0,172,227.34c-1.55,6.94.41,12.58,6.17,16.78,1.61,1.17,3.37,2.13,5.08,3.2a13.39,13.39,0,0,1-16.47-1.27c-6.4-5.61-7.8-12.81-6.44-20.8a28.19,28.19,0,0,1,4.14-10.95c.28-.42.51-.87.75-1.31,2.85-5.27,5.8-10.44,9.13-15.47,7-10.55,8.77-22.45,6.33-34.9a5.26,5.26,0,0,0-.74-1.82c-.24,5.52-.47,11-1.19,16.44a44.41,44.41,0,0,1-4.6,15.55c-1.18-.22-.55-1-.52-1.62,0-2.7.34-5.45-1.15-8.46-.35,12-5.23,21.77-11.83,30.75-3.64,4.95-9.33,7.26-14.85,9.44-9,3.55-18,2.86-27-.08-4.19-1.37-6.37-4.32-7-8.59a30.19,30.19,0,0,1-.23-6.24c9,7.41,18.86,7.95,28.7,3.77,8.92-3.8,13.39-11.85,16.4-20.79-1.16-.36-1.14.52-1.39.9a62.84,62.84,0,0,1-11,13.64c-6.2,5.56-13.59,6-21.51,5.38.58-1.25,1.56-1.13,2.27-1.39a58.35,58.35,0,0,0,14.91-7.62c4.25-3.09,7.3-7.08,8.29-12.4.17-.41,0-.8,0-1.17,0,0-.11,0-.12,0a1.62,1.62,0,0,1-.39.49c-6,11.88-17.05,16.36-28.8,19.87-1.05.32-1.77-.27-2.59-.63a18.72,18.72,0,0,1-6.36-4.88,17.21,17.21,0,0,0-1,6.3c.08,1.5-.36,2.09-1.89,2.57-6.24,2-12.2,4.63-17.29,8.87-6.57,5.48-9.16,12.84-7,19.58a18.58,18.58,0,0,0,3.43,5.9,11.24,11.24,0,0,1-11.44-9.75c-1.36-9.31,2.24-16.94,9-23.09,6.09-5.57,13.49-8.92,21.37-11.21,6.91-2,13.73-4.28,20-7.89,4.9-2.81,9.08-6.37,11.64-11.63-1.43,1.22-2.83,2.48-4.3,3.65a65,65,0,0,1-24,12.21c-11,2.93-21.13,7.35-29.4,15.52-.56-3.14.78-7.81,3.26-11.52,3.22-4.82,7.82-8,12.9-10.49s10.72-4.32,15.66-7.33a51.18,51.18,0,0,1,11.78-5.17c12.68-3.94,20.73-15.08,21.41-28.92a36.8,36.8,0,0,0-2.49-16.24c-.58-1.4-.61-1.4-2.13-2.67a87.22,87.22,0,0,1,2.44,11.75c1.85,14.45-5.93,28.41-18.72,33.38-3.63,1.41-7.31,2.21-11.27,1.17-9.11-2.4-13.71-9.46-11.26-18.69,3.29-12.43,9.81-22.66,21.79-28.59.06-1-.57-.61-1-.51a24.91,24.91,0,0,0-8.76,2.88c-4.07,2.06-8.46,3.12-12.83,4.22a2.09,2.09,0,0,1-1.84-.19A78.68,78.68,0,0,1,110.74,127a93,93,0,0,1,9-5.45c1.87-1,1.54-1.93.9-3.34C114.85,105.44,100,95,81.76,104.71c-3.08,1.65-3.09,1.63-3.14-1.78-.13-8.37,4.65-13.24,14.26-14.17,5.5-.53,11-.66,16.55-1,1.89-.13,3.77-.47,6.08-.77-1.44-2.06-3-3.53-4-5.45-.74-1.46-.76-2.55.56-3.74,1.49-1.34,2.76-2.92,4.21-4.48-1.45-.17-3.06-.27-4.63-.55a17.05,17.05,0,0,1-12.67-9c-3.2-6-4.27-12.32-2.18-18.91a13.69,13.69,0,0,1,8.58-8.9c1.17-.45,1.7-.23,1.47,1.17a21.67,21.67,0,0,0-.09,8c1,4.71,4,6.76,8.71,6.08,4.51-.66,7.58-3.24,10-6.87,2.69-4,5-8.36,8.35-11.91s7.37-6.34,12.69-6c.39,0,.85-.11,1.24.5-2.08,2.27-4.44,4.41-5.75,7.34-2.05,4.56-.28,8.9,4.41,10.53,2.74,1,5.27.25,7.67-1.21,3.32-2,6.07-4.73,9-7.27,4-3.54,7.91-7.26,12.5-10.08,3.37-2.08,6.87-3.86,11-4a7.69,7.69,0,0,1,4.39.86c-.11,1.16-1.23,1.25-1.89,1.75-3.44,2.55-6.38,5.44-7.28,9.85C180.31,41.49,184.58,46.56,192,47a28.12,28.12,0,0,0,28.75-22.1c.52-2.35,1.47-2.37,3.22-1.86a14,14,0,0,1,10,10c4.36,15.29,1.34,29-10.17,40.14C210.75,85.8,194.8,90.85,176.67,88.93c-4.74-.51-9.43-1.33-14.17-2a26.2,26.2,0,0,0,13.07,5c10.38.83,18.44,6.31,26,12.56,21.79,18,34,41.34,37.07,69.45a82.61,82.61,0,0,1-2,30.18c-2.28-5.51-2.88-11.34-3.19-17.22A8.94,8.94,0,0,0,232.64,184.39Z"/><path class="cls-2" d="M112.2,117.12A58.36,58.36,0,0,0,97.38,120,50.45,50.45,0,0,0,86,125.77c-4.91,3.25-10.06,6-16,7-11.39,2-22.11-8.4-19.59-19.1a11.09,11.09,0,0,1,4.76-7.11c.54-.35,1.15-.92,1.82-.62s.28,1.17.33,1.77c.12,1.5,0,3,.26,4.5,1.27,6.88,7,10.71,14.11,9.51,4.49-.76,8.63-2.56,12.85-4.15,5.56-2.09,11.08-4.32,17.18-4.2A17.15,17.15,0,0,1,112.2,117.12Z"/><path class="cls-2" d="M188.62,203.33c1,5.39,4.24,8.81,9.28,10.57.82.29,1.47.38,1.32,1.63-.95,8.16,5.32,12.7,12.88,9.4.58-.25,1.15-.53,1.78-.82,0,4.46-3.29,7.65-8,8-10,.66-17-4.86-19-15C185.55,210.86,186,207.35,188.62,203.33Z"/><path class="cls-2" d="M102.37,240.87a10.57,10.57,0,0,1-6-9.33c-.41-6.18,4.79-14.3,10.48-16.7,1.61-.68,2.2-.59,3,1.3,1.41,3.44,1.35,5.45-2.28,7.73-4.05,2.53-4.87,7.36-5.16,12C102.29,237.42,102.37,239,102.37,240.87Z"/><path class="cls-3" d="M229.11,233.84c-3.49-3.58-3.87-7.38-3.54-11.35a21.11,21.11,0,0,1,1.31-5.85c.24-.62.21-1.93,1.14-1.47s3.26,1.14,2.79,2.37C228.88,222.65,228.85,227.92,229.11,233.84Z"/><path class="cls-4" d="M206.47,179.75q-.1-3.75-.19-7.48c-.13-.52.08-.67.56-.53l.48,3C206.35,176.29,207.45,178.19,206.47,179.75Z"/><path class="cls-5" d="M223.05,183.8v-5.38a3.12,3.12,0,0,1,.85,2.39C223.11,181.66,223.69,182.9,223.05,183.8Z"/><path class="cls-6" d="M232.64,184.39c-.09-.42-.1-.89.35-1s.52.24.52.57c0,1,0,2,0,2.94C233.18,186,232.91,185.21,232.64,184.39Z"/><path class="cls-7" d="M147.59,188.81l.54-1.93c.46-.18.64,0,.51.45-.13.72.06,1.52-.5,2.15Z"/><path class="cls-8" d="M121.3,130.37a2.9,2.9,0,0,1,2.28-.34,1.39,1.39,0,0,1-1.23.85Z"/><path class="cls-9" d="M173.61,191.17l.52,1.62c0,.4-.21.88-.61.88-.62,0-.36-.59-.31-.91A13.21,13.21,0,0,1,173.61,191.17Z"/><path class="cls-10" d="M212.84,159.69a1.54,1.54,0,0,1-.26-1.61,1.22,1.22,0,0,1,.73,1.12Z"/><path class="cls-11" d="M122.3,84.87c7.8,1.63,14.31-2.21,21.31-3.43,4.31-.75,6.7,1.55,6.4,5.89-3.23-3.6-7.12-3.62-16,.16,1.38,2.54,1.68,5.07-.34,7.43a5.87,5.87,0,0,1-6.15,1.87,5.79,5.79,0,0,1-4.27-7.13C124,87.1,124,87.1,122.3,84.87Z"/><path class="cls-12" d="M206.84,171.74l-.56.53a4.46,4.46,0,0,1-.12-3.48Z"/><path class="cls-13" d="M148.64,187.33l-.51-.45c0-.51.37-1.24.68-1C149.36,186.17,149,186.85,148.64,187.33Z"/><path class="cls-14" d="M129.19,93.69c-1.55-.2-2.64-1-2.65-2.52a2.31,2.31,0,0,1,2.5-2.5,2.28,2.28,0,0,1,2.57,2.41C131.66,92.7,130.6,93.41,129.19,93.69Z"/></svg>