<svg id="Layer_1" data-name="Layer 1" xmlns="http://www.w3.org/2000/svg" viewBox="0 0 300 300"><defs><style>.cls-1{fill:#cbcbcb;}.cls-2{fill:#c7c7c7;}.cls-3{fill:#c9c9c9;}.cls-4{fill:#cacaca;}.cls-5{fill:#282828;}.cls-6{fill:#050505;}.cls-7{fill:#2a2a2a;}.cls-8{fill:#2b2b2b;}.cls-9{fill:#1e1e1e;}.cls-10{fill:#1c1c1c;}.cls-11{fill:#b6b6b6;}.cls-12{fill:#c4c4c4;}.cls-13{fill:#161616;}.cls-14{fill:#191919;}.cls-15{fill:#010101;}.cls-16{fill:#070707;}.cls-17{fill:#090909;}.cls-18{fill:#121212;}.cls-19{fill:#c3c3c3;}.cls-20{fill:#c8c8c8;}.cls-21{fill:#272727;}.cls-22{fill:#222;}.cls-23{fill:#1d1d1d;}.cls-24{fill:#b5b5b5;}.cls-25{fill:#313131;}</style></defs><path d="M21.24-.61H278.76a1,1,0,0,1,1,1V176.59A123.39,123.39,0,0,1,156.36,300h-12.5A123.62,123.62,0,0,1,20.25,176.37V.38a1,1,0,0,1,1-1Z"/><path class="cls-1" d="M108.28,125.91q0-58.89-.09-117.77c0-1.67.45-2.12,2.11-2.11q39.74.08,79.46,0c2.8,0,2.07,1.67,2.07,3.08q0,44.47,0,89c0,9.29,0,18.57-.06,27.86l-.36.44a4.86,4.86,0,0,1-3.31.77c-4.75,0-9.49,0-14.24,0A5,5,0,0,1,169,124.4c-1.23-2.17-3-2.13-4.3.08a5.12,5.12,0,0,1-5,2.65q-9.65,0-19.29,0a5.14,5.14,0,0,1-5-2.65c-1.26-2.21-3-2.22-4.3-.08-1,1.59-2.1,2.62-4,2.67q-8.22.18-16.45,0a3.34,3.34,0,0,1-2-.72Z"/><path class="cls-1" d="M189.92,232.15c-3.24,5.41-7.51,9-14.32,8.35-4.51-.46-8-3.79-7.82-7.59.14-3,2.41-5.54,5.07-5.5,3,0,4.25,1.84,3.87,4.82,3.75-1.59,4.47-5.6,1.77-8.8-2.84-3.35-8.4-4.38-12.77-2.33a18.18,18.18,0,0,0-7.13,6.54c-2.33,3.38-4.43,6.93-7.5,9.74-3.84,3.53-10.22,4.29-14.38,1.73-3.15-1.94-4.45-5.37-3.07-8.38,1.07-2.33,2.84-3.68,5.52-3.2s3.29,2.22,2.78,4.69c3.11-1.18,4.13-3.27,3.25-6.21-1.34-4.5-7.35-7.15-12.58-5.5a15.86,15.86,0,0,0-8.07,6.29c-2.22,3.08-4.35,6.22-6.74,9.15s-5.58,4.77-9.63,4.45l-.42-.32c-1.28-2.34-.89-4.79-.49-7.25a4.29,4.29,0,0,1,.36-1c2.95-2.29,1.33-5.52,1.68-8.35.43-10.07,0-20.15.21-30.22,0-2.06-.52-4.22.79-6.13.22-.22.42-.53.73-.59,5.94-1.21,11.91-.87,17.87-.19.94.11,1.52,1,2.14,1.79,1.41,1.73,3,2,4.4,0a5.51,5.51,0,0,1,4.91-2.3q9.66,0,19.31,0a5.44,5.44,0,0,1,4.93,2.26c1.36,1.95,3.06,1.81,4.4,0a5.62,5.62,0,0,1,4.91-2.29c4,0,8,0,12,0,1.39,0,2.76.08,3.81,1.2s.83,2.57.84,4q0,18.21,0,36.42A13.57,13.57,0,0,1,189.92,232.15Z"/><path class="cls-1" d="M189.92,232.15a17,17,0,0,1-.63-5q0-20,0-40a1.62,1.62,0,0,1,2.19-.34l.33.36v42.32c2.13-2.85,3.7-5.15,5.92-6.84,4.71-3.58,11-3.56,14.82.1,3.24,3.08,2.89,7.36-1,9.47,0-2.26-.33-4.26-2.95-4.75a4.67,4.67,0,0,0-5.12,2.3,6,6,0,0,0,.07,6.86c3.09,4.73,11.5,5.32,16.43,1.14,3-2.56,5.08-5.9,7.25-9.14a21.91,21.91,0,0,1,6.46-6.85c4.37-2.7,10.07-2.31,13.53.91s2.93,7.81-.94,9.38c-.15-3.34-1.62-4.94-4.3-4.73-2.88.23-5.14,3.23-4.81,6.38.36,3.49,3.62,6.35,7.73,6.69a24.32,24.32,0,0,0,7.07-.38c-15.07,21.46-35.11,36.15-60.1,44.92V229.8Z"/><path class="cls-1" d="M110.76,187.21c0,10.8,0,21.61,0,32.41a16.93,16.93,0,0,1-.63,5c-1,.57-.79,1.48-.72,2.41a8,8,0,0,1-1.23,5.28l.06-.07c-1.3.86-1.67-.19-2-1.06-.55-1.6-1.54-2.64-3.26-2.17a3.92,3.92,0,0,0-3,3.62c-.29,2.79,1.25,5,4.32,6.14,1.34.51,2.94.47,3.93,1.78l-.1-.11v44.49a119,119,0,0,1-25.51-12,125.33,125.33,0,0,1-35.92-33.74c-.64-1.12-.54-2,.81-2.45,3.27-2.78,5.12-6.64,7.66-10,3.3-4.34,7.26-7.38,13.13-6.58,4.72.65,8,4.14,7.69,8.1a4.18,4.18,0,0,1-3.25,4.06c.18-2.44-.34-4.35-3-4.83a4.6,4.6,0,0,0-4.9,2.13,6,6,0,0,0,0,7.11C68,241.36,76.22,242,81.1,238a27.59,27.59,0,0,0,5-5.7c1.16-1.64,2.24-3.33,3.4-5,5.21-7.32,10.4-8.85,18.77-5.32V187.23l.32-.36A1.64,1.64,0,0,1,110.76,187.21Z"/><path class="cls-1" d="M96.52,34.94c-3.65,4.12-6.92,7.94-10.34,11.61a5.2,5.2,0,0,0-1.47,4.53c.57,5,1,10,1.49,15.48-5.13-2.25-9.85-4.26-14.5-6.39a4.49,4.49,0,0,0-4.14,0c-4.65,2.16-9.38,4.15-14.53,6.4.51-5.56.89-10.67,1.51-15.75a4.8,4.8,0,0,0-1.42-4.22C49.71,42.91,46.42,39.1,42.77,35c5.48-1.22,10.54-2.43,15.63-3.45a4.19,4.19,0,0,0,3.12-2.27c2.53-4.48,5.18-8.89,8.09-13.85,2.67,4.55,5.21,8.71,7.56,13a5.77,5.77,0,0,0,4.5,3.35C86.44,32.53,91.13,33.74,96.52,34.94Z"/><path class="cls-1" d="M230.45,15.41c2.77,4.72,5.34,9,7.81,13.38a5,5,0,0,0,3.8,2.81c4.95.88,9.83,2.13,15.28,3.35-3.48,3.93-6.65,7.67-10,11.23a6,6,0,0,0-1.74,5.35c.62,4.79,1,9.62,1.47,15-4.54-2-8.78-3.64-12.86-5.63a7.33,7.33,0,0,0-7.33-.06c-4.06,2.11-8.38,3.72-13,5.72.53-5.61.95-10.75,1.52-15.86a4.59,4.59,0,0,0-1.33-4C210.59,43,207.26,39.09,203.62,35c5.47-1.22,10.45-2.42,15.47-3.4a4.46,4.46,0,0,0,3.35-2.46C225,24.65,227.6,20.27,230.45,15.41Z"/><path class="cls-1" d="M191.78,125.91c2.14-.81,4.37-.29,6.55-.36,1.46,0,2.58-.22,2.25-2-.46-2.61,1.31-2.48,2.87-2.22s4.25-1.42,4,2.15c-.15,1.74.65,2.26,2.22,2.09a4.46,4.46,0,0,1,3.14,1.23Q232.62,141,252.5,155.29a6.73,6.73,0,0,1,.88.89,9.07,9.07,0,0,1,.16,7.86c-1.59,1.14-3.42.66-5.15.69-3.64.08-7.29,0-10.93,0H207.11c-4,0-7.89,0-11.83,0-1.23,0-2.5.16-3.61-.61a2.37,2.37,0,0,1-.93-1.59c-.1-4.45-.47-8.9.29-13.33,1.7-2,3.13-.44,4.67.33,1.08.54,2,2.17,3.22,1.44s.44-2.35.47-3.57c.07-2.94,0-5.89,0-8.83,0-3.62-.16-3.74-3.67-3.9-1.68-.07-3.4,0-4.56-1.61-.84-2.54-1.34-5.05.71-7.31Z"/><path class="cls-1" d="M46.69,156.17C58.78,147.42,70.83,138.61,83,130c2.64-1.89,4.85-4.84,8.72-4.5.57,0,.79-.49.93-1.06.25-1-.73-2.65.83-3a24.07,24.07,0,0,1,5-.11c.42,0,.94.13.88.65-.61,5.38,3.42,3.17,5.83,3.58,1,.17,2.11-.28,3.06.4l-.1-.14c2,2.23,1.54,4.72.75,7.24-1.28,1.85-3.26,1.72-5.13,1.66-2.28-.07-3.23.86-3.17,3.17.09,3.46,0,6.92.05,10.39,0,1-.53,2.32.58,2.86.92.45,1.65-.68,2.46-1.12a22.42,22.42,0,0,1,2.15-1.31c1.11-.43,2.22-.79,3.1.47.35,5,1.55,10.06-.54,15-1.23.85-2.64.62-4,.63H50.66c-1.35,0-2.76.21-4-.61A8.63,8.63,0,0,1,46.69,156.17Z"/><path class="cls-2" d="M253.28,181.58c.2,5.47.2,5.47-5.31,5.47q-26.35,0-52.69,0c-1.15,0-2.3.11-3.45.17l0,.08a4.26,4.26,0,0,1-.21-6c1.19-.91,2.61-.69,4-.69,13.17,0,26.34-.4,39.48.16C241.15,181,247.25,180.68,253.28,181.58Z"/><path class="cls-2" d="M108.24,187.23c-8.94-.06-17.87-.15-26.8-.18-10.31,0-20.62-.16-30.92.09-3.3.08-4.35-.91-3.81-4a11.71,11.71,0,0,0,.08-1.57,2,2,0,0,1,1.18-.35c19-.75,38-.67,57-.62a5.17,5.17,0,0,1,3.35.66,4.22,4.22,0,0,1-.17,6Z"/><path class="cls-3" d="M274.18,163.84c0,3.58,0,7.16,0,10.74-6.15.7-12.32.14-18.47.3a1.67,1.67,0,0,1-1.94-1.63c-.09-3.21-.76-6.46.5-9.6a3.45,3.45,0,0,1,2.63-.77c4.8,0,9.6,0,14.39,0A3.62,3.62,0,0,1,274.18,163.84Z"/><path class="cls-3" d="M25.87,174.58l0-10.74a2.83,2.83,0,0,1,2-.91c5.48-.1,11-.16,16.45,0a2.35,2.35,0,0,1,1.43.6c1.37,3.13.61,6.4.57,9.61a1.68,1.68,0,0,1-1.89,1.7C38.23,174.72,32,175.28,25.87,174.58Z"/><path class="cls-4" d="M273,190.42l-1.44,8.12c-2,2.16-4.72.92-7.07,1.53s-5.23.16-7.87.14c-2,0-2.85-1-3-2.9a30.74,30.74,0,0,1,.57-7.83c.2-1.16.87-1.28,1.77-1.28,5.17,0,10.33,0,15.5,0C273.2,188.18,273.48,189,273,190.42Z"/><path class="cls-4" d="M28.46,198.54,27,190.43c-.42-1.39-.17-2.25,1.54-2.24,5.17,0,10.33,0,15.5,0,.89,0,1.58.12,1.78,1.27a30.74,30.74,0,0,1,.57,7.83c-.15,1.67-.83,2.76-2.68,2.89-4.85.34-9.65-.29-14.46-.74C28.88,199.42,28.62,199,28.46,198.54Z"/><path class="cls-3" d="M33.55,151.18H45.41c.52,3.83,1.25,7.65.25,11.51a34.86,34.86,0,0,1-12.35.06C32.16,158.87,31.84,155,33.55,151.18Z"/><path class="cls-4" d="M45.48,211.94H33.53a14.41,14.41,0,0,1,0-11.36l0,0c3.66-1.26,7.43-.44,11.14-.5A1.36,1.36,0,0,1,46,201.45C45.93,205,46.86,208.51,45.48,211.94Z"/><path class="cls-3" d="M254.66,151.18h11.85c1.92,3.57.93,7.32.7,11a1.9,1.9,0,0,1-.88.8c-4,.05-8,.7-12-.37C253.45,158.79,254.15,155,254.66,151.18Z"/><path class="cls-4" d="M266.53,211.93H254.59c-1.38-3.43-.45-7-.55-10.49a1.37,1.37,0,0,1,1.41-1.41c3.72.06,7.48-.76,11.15.5l0,0A14.37,14.37,0,0,1,266.53,211.93Z"/><path class="cls-4" d="M33.53,175.87c3.35,0,6.71.08,10.06,0,1.68-.06,2.19.5,2.12,2.14-.12,2.51-.1,5,0,7.55,0,1.4-.48,1.79-1.82,1.76-3.46-.08-6.92,0-10.38,0A14.48,14.48,0,0,1,33.53,175.87Z"/><path class="cls-4" d="M266.56,187.24c-3.46,0-6.92,0-10.38,0-1.33,0-2-.37-1.79-1.76,0-.11,0-.21,0-.32.17-3-1.25-6.87.54-8.79s5.56-.39,8.46-.54c1.05-.05,2.1,0,3.15,0A14.48,14.48,0,0,1,266.56,187.24Z"/><path class="cls-3" d="M37.88,224.08c-1.38-3-2.74-6.09-4.16-9.11-.76-1.65-.32-2.21,1.5-2.18,3.34.07,6.69,0,10-.08,1.77,3.48.71,7.16.65,10.74,0,1.08-1.19,1.37-2.18,1.42C41.74,225,39.72,225.18,37.88,224.08Z"/><path class="cls-3" d="M254.8,212.71c3.35,0,6.69.15,10,.09,1.8,0,2.28.5,1.5,2.17-1.42,3-2.78,6.07-4.16,9.1a9.12,9.12,0,0,1-2.06.78c-5.13.86-6.3,0-6.15-5.16C254,217.36,253.11,214.86,254.8,212.71Z"/><path class="cls-3" d="M46.68,191c3.87-4.83,9.23-2.5,14.31-2.52L46.87,198.55l-.42-.38C46.06,195.77,45.74,193.37,46.68,191Z"/><path class="cls-3" d="M253.19,198.53l-14-10c5-.15,10.27-2.39,14.23,2.47.93,2.35.62,4.75.22,7.14Z"/><path class="cls-1" d="M25.92,162.45c0-2.85.12-5.71-.09-8.54-.17-2.24.55-3.06,2.78-2.75a26.9,26.9,0,0,0,3.48,0c1.34,3.77.87,7.6.33,11.43A7.63,7.63,0,0,1,25.92,162.45Z"/><path class="cls-1" d="M268,151.2c6.21,0,6.21,0,6.21,6.19,0,1.69,0,3.37,0,5.06-2.12,1.17-4.29.93-6.48.21C267.13,158.82,266.6,155,268,151.2Z"/><path class="cls-4" d="M268,175.89c6.64-.09,6.64-.09,5.9,6.46-.56,5-.56,5-5.93,4.86A18.85,18.85,0,0,1,268,175.89Z"/><path class="cls-4" d="M32.13,187.21c-5.39.11-5.39.11-6-5.17-.69-6.23-.69-6.23,6-6.15A18.85,18.85,0,0,1,32.13,187.21Z"/><path class="cls-5" d="M66.42,176.49c-2.06-1.16-4.3-.41-6.46-.57-4.46-.33-9,.61-13.41-.55a2,2,0,0,1,.82-.92c1.14-.73,2.44-.57,3.69-.57q26.41-.06,52.83,0a8,8,0,0,1,3.42.4,3.22,3.22,0,0,1,1,.73,1,1,0,0,1-.08,1.1c-2.7,2-5.9.57-8.78,1.32a12.63,12.63,0,0,1-6.05,0c-.54-.07-1.07-.21-1.61-.24-4.89.06-9.8-.41-14.65.58-2.36-.59-4.71.27-7.07,0C68.69,177.68,67.31,177.79,66.42,176.49Z"/><path class="cls-6" d="M266.6,200.54c-3.35,0-6.7.07-10,0-1.53,0-2.3.26-2.19,2,.18,3.12.16,6.26.22,9.39l-.67.63c.72,3,.19,6,.29,9,0,1.29.07,2.5,1.06,3.47,1.43,3.86.22,7.7-.1,11.54-.41.83-.6,1.82-2,2.38V198.53l0,0c1.76,1.37,3.84,1,5.85,1.14,2.53.17,5.14-.62,7.6.5C266.61,200.27,266.61,200.41,266.6,200.54Z"/><path class="cls-7" d="M108.23,181.53l-61.44.05c3.68-1.47,7.52-.4,11.27-.66,1.46-.11,2.89,0,3.95-1.26,3.38-.55,6.77-1.12,10.21-.42,1.69,1,3.5.34,5.25.33,4.83-.06,9.67.19,14.5-.19l1.12-.1a13.61,13.61,0,0,1,6.09,0c2.79.66,5.75-.29,8.49.87a1.78,1.78,0,0,1,.7.81C108.33,181.18,108.28,181.35,108.23,181.53Z"/><path class="cls-5" d="M253.52,175.37c-5.17,1.21-10.42.2-15.61.55-1.43.1-2.95-.45-4.26.56-1.89,2.13-4.4,1.18-6.67,1.25-1.32,0-2.65-.33-4,0-4.85-1-9.76-.48-14.64-.59-.54,0-1.07.18-1.61.26a12.51,12.51,0,0,1-6,0c-2.84-.73-5.94.52-8.65-1.17a1.33,1.33,0,0,1-.39-1.08,2.39,2.39,0,0,1,.88-.82,6.71,6.71,0,0,1,3.4-.48q26.66-.06,53.32,0a5.87,5.87,0,0,1,3.37.56A2.11,2.11,0,0,1,253.52,175.37Z"/><path class="cls-6" d="M45.48,211.94c.06-3.23.07-6.47.21-9.7.06-1.47-.6-1.73-1.87-1.71-3.45.06-6.9,0-10.35,0,0-.13,0-.27,0-.41,2.78-1.21,5.69-.31,8.54-.48,1.74-.1,3.43-.09,4.91-1.14l0,0-.09,35.57a3.1,3.1,0,0,0,.77,2.62,3.28,3.28,0,0,0-.81,2.45,4.51,4.51,0,0,1-1.84-2.58c-.45-3.84-1.46-7.66-.12-11.52,1-1,1-2.17,1.07-3.46.12-3-.43-6.06.3-9.06Z"/><path class="cls-8" d="M253.28,181.58l-61.44-.05c-.05-.19-.09-.37-.14-.56a2.16,2.16,0,0,1,.77-.82c2.78-1,5.59-.58,8.41-.25a61.09,61.09,0,0,0,6.9-.05,134.88,134.88,0,0,1,16.58-.16,6.79,6.79,0,0,0,3.35-.42c3.49-.75,6.93-.16,10.37.38,1.06,1.32,2.54,1.14,4,1.27C245.82,181.23,249.63,180,253.28,181.58Z"/><path class="cls-3" d="M45.51,225.26c.05,3.31.11,6.61.14,9.92,0,.57.13,1.29-.75,1.43-2-3.81-4.63-7.26-6.31-11.25A7.86,7.86,0,0,1,45.51,225.26Z"/><path class="cls-4" d="M255.17,236.61c-1.55-1.64-.59-3.64-.73-5.47a57.81,57.81,0,0,1,.12-5.88,7.84,7.84,0,0,1,6.91.1Z"/><path class="cls-3" d="M238.08,179.65c-3.3,1.42-6.8.16-10.17.73-2.32-.1-4.29-.71-4.92-3.32,3.5-1.28,7.12-.25,10.66-.58Z"/><path class="cls-4" d="M72.16,180.38c-3.36-.58-6.85.7-10.15-.72l4.41-3.17c3.55.3,7.17-.72,10.67.58C76.44,179.66,74.48,180.28,72.16,180.38Z"/><path class="cls-9" d="M46.9,198.51A4,4,0,0,1,43.38,200c-3.3,0-6.62.05-9.93.09-1.6-.71-4.06,1.24-5-1.59.61.94,1.54.94,2.51.94,4.11,0,8.21-.08,12.31,0,1.73.05,2.32-.43,2.37-2.26.25-8.93.31-8.93-8.62-8.93-2.63,0-5.26.09-7.89,0-1.67-.08-2.3.55-2.12,2.15-1-1.68-.53-2.62,1.4-2.64,5.23,0,10.47.06,15.7,0,2.52-.05,1.77,2.13,2.56,3.26Z"/><path class="cls-9" d="M266.61,200.13c-3.31,0-6.63-.14-9.94-.09a4,4,0,0,1-3.51-1.55q.1-3.74.23-7.47c.32-2.66,1.79-3.45,4.43-3.32,4.49.24,9,.06,13.5.08,1.89,0,2.95.59,1.72,2.64,0-1.24-.08-2.18-1.81-2.14-4.94.1-9.89.08-14.83,0-1.53,0-1.9.55-2,2-.51,9.17-.55,9.28,8.68,9.11,2.82,0,5.84,1.07,8.5-.87C270.67,201.37,268.22,199.42,266.61,200.13Z"/><path class="cls-10" d="M267.89,162.46h6.26l0,1.39-19.67-.05a.89.89,0,0,1-.64.37,1,1,0,0,1-.65-.38c.05-2.54.11-5.07.16-7.6,1.18-1.48-.43-3.66,1.28-5a76.65,76.65,0,0,0-.07,11.34,51.41,51.41,0,0,0,12,.1l.06,0A1.15,1.15,0,0,1,267.89,162.46Z"/><path class="cls-10" d="M25.92,162.45l6.25,0a3.38,3.38,0,0,1,1.43.34c4-.1,7.93.44,11.87-.29a76.65,76.65,0,0,0-.06-11.34c1.7,1.34.1,3.52,1.28,5l.1,7.58a.48.48,0,0,1,0,.68c-.67.3-.93-.18-1.21-.63l-19.67,0Z"/><path class="cls-9" d="M45.56,163.8l1.27.53.28.36a2.46,2.46,0,0,1,.12.89,11.24,11.24,0,0,0,.38,5.34c.06.33.11.65.15,1a3.14,3.14,0,0,1-.95,3.29,1.15,1.15,0,0,0-.26.19c-5.84,0-11.68,0-17.52-.05-1.08,0-2.33.45-3.16-.74,6,.64,12,.1,18,.3,1.44.05,1.79-.62,1.76-1.91C45.55,169.92,45.57,166.86,45.56,163.8Z"/><path class="cls-9" d="M253.85,163.84l.66-.05c0,3.06,0,6.12-.07,9.18,0,1.29.32,2,1.76,1.91,6-.2,12,.34,18-.3-.82,1.19-2.08.73-3.16.74-5.84.06-11.68,0-17.51.05a1.31,1.31,0,0,0-.27-.19,3.32,3.32,0,0,1-.88-3.45c.08-.51.26-1,.38-1.5.31-1.68.14-3.38.33-5.07A3,3,0,0,1,253.85,163.84Z"/><path class="cls-11" d="M96,190.87c-.74,0-1.48,0-2.21,0A1.23,1.23,0,0,1,92.66,189c1-2.38,3.08-.73,4.64-1.09.86-.2,2.24-.52,2.21,1.27,0,.94-.14,1.69-1.33,1.66H96Z"/><path class="cls-11" d="M203.87,187.9c1,0,1.69,0,2.43,0,.57,0,1,.21,1.11.85s.23,1.8-.56,1.93a11.38,11.38,0,0,1-5.88-.13c-.71-.26-.63-1.43-.29-2C201.5,187.23,203,188.19,203.87,187.9Z"/><path class="cls-12" d="M267.92,200.58H271c-.91,3.25-1.74,6.24-2.57,9.22-.47.14-.93,0-.95-.46C267.32,206.41,266.57,203.44,267.92,200.58Z"/><path class="cls-12" d="M31.67,209.82C30.84,206.89,30,204,29.18,201c.91-.82,2-.34,3-.41,1.36,2.86.6,5.83.47,8.77C32.6,209.79,32.13,210,31.67,209.82Z"/><path class="cls-13" d="M45.51,225.26l-6.92.1-.71-1.28c7.75.22,7.76.22,7.74-7.35,0-1.35.25-2.72-.36-4l.89-.14C45.9,216.8,46.93,221.09,45.51,225.26Z"/><path class="cls-13" d="M261.47,225.36l-6.91-.1c-1.43-4.17-.4-8.46-.64-12.69l.88.14c-.79,3.3-.16,6.65-.36,10-.09,1.38.76,1.48,1.79,1.46,2,0,4,0,5.95-.07Z"/><path class="cls-14" d="M267.89,162.46c-.35.55-.8.24-1.22.13-.05-3.8-.1-7.61-.16-11.41l1.47,0Z"/><path class="cls-14" d="M32.94,163.06l-.77-.59-.08-11.27,1.46,0a75.57,75.57,0,0,0-.06,11.36A.84.84,0,0,1,32.94,163.06Z"/><path class="cls-14" d="M267.92,200.58c.14,3.08-.67,6.2.48,9.22-.2,1.08-.59,2-1.87,2.13a81.27,81.27,0,0,0,0-11.36Z"/><path class="cls-14" d="M31.67,209.82c1.15-3,.34-6.16.47-9.24h1.35a81.27,81.27,0,0,0,0,11.36C32.26,211.8,31.87,210.89,31.67,209.82Z"/><path class="cls-14" d="M268,175.89l0,11.32-1.37,0a79.9,79.9,0,0,0,0-11.37Z"/><path class="cls-14" d="M32.13,187.21l0-11.32,1.42,0a79.9,79.9,0,0,0,0,11.37Z"/><path d="M108.18,187.31c0-1.93,0-3.85,0-5.78l0,.06c1-1.28,2.51-1.36,4-1.38,4.3,0,8.61,0,12.92,0,1.33,0,3.05.06,2.93-1.95-.11-1.72-1.7-1.6-2.93-1.63-4.31-.09-8.62,0-12.92-.05-1.51,0-3-.09-4-1.38l.07.07a3.39,3.39,0,0,1-1.1-3.5,10.39,10.39,0,0,0,0-1.58,8.9,8.9,0,0,1,.05-4.61,3.27,3.27,0,0,1,.33-1,6.1,6.1,0,0,1,.61-.83q0-7.56,0-15.13a1.86,1.86,0,0,1,.34-1.32c3.26-3.63,7.56-5.91,11.36-8.85,1.58-1.22,3.25-2.3,5.23-3.79-4.39,0-8.39,0-12.39,0-1.45,0-3,.17-4.23-.8l-.25-.38-.09-7.68c6.31-.56,12.64-.15,19-.21,1.87,0,3.14-.22,2.72-2.53-.25-1.4.49-2,1.8-1.76,2.08.41,5.77-1.75,5.13,3.19-.16,1.27,1.06,1.05,1.84,1.05,7.6,0,15.2,0,22.8,0,1.25,0,2.12-.24,1.89-1.72-.57-3.62,2.11-2.42,3.82-2.56s3.55-.36,3.09,2.41c-.34,2,1.06,1.84,2.38,1.86,6.42.14,12.86-.33,19.28.24l-.09,7.68-.26.37c-1.59,1.15-3.44.79-5.2.82-3.68.06-7.37,0-11.4,0,4.19,3.05,8.21,5.85,12.17,8.72,1.62,1.16,3.37,2.17,4.58,3.84a2.21,2.21,0,0,1,.16,1.39l0,15.13a6.89,6.89,0,0,1,.6.82,3.37,3.37,0,0,1,.33,1,8.86,8.86,0,0,1,.06,4.6,10.55,10.55,0,0,0,0,1.59,3.34,3.34,0,0,1-1.09,3.51l.07-.07c-.92,1.15-2.22,1-3.46,1-3.74,0-7.49,0-11.24,0a7.65,7.65,0,0,0-4.73,1.24c-1.26,2.46.46,2.72,2.15,2.77,4.42.13,8.84,0,13.26.05,1.5,0,3,.09,4,1.37l0-.06c0,1.93,0,3.85,0,5.78a3.56,3.56,0,0,0-2.57-.1c-5.79-.06-11.57-.1-17.36-.18-1.1,0-1.83.18-1.74,1.53.25,3.75-2.63,1.92-4.2,2.23s-3.07.22-2.69-2.12c.25-1.54-.73-1.65-1.91-1.64q-11.39,0-22.75,0c-1.18,0-2.16.1-1.91,1.64.37,2.34-1.18,2.42-2.69,2.12s-4.46,1.52-4.2-2.23c.09-1.35-.64-1.55-1.75-1.53-5.78.08-11.57.12-17.35.18A3.59,3.59,0,0,0,108.18,187.31Z"/><path d="M133.44,105.76c.52-5.64.94-10.79,1.52-15.91a4.6,4.6,0,0,0-1.32-4c-3.42-3.72-6.74-7.54-10.45-11.73,5.29-1.19,10.2-2.41,15.17-3.35A5.12,5.12,0,0,0,142.2,68c2.45-4.38,5-8.68,7.83-13.45,2.78,4.75,5.36,9,7.83,13.41a5,5,0,0,0,3.82,2.82c4.95.9,9.85,2.12,15.26,3.32-3.57,4-6.86,7.82-10.27,11.51a5.14,5.14,0,0,0-1.55,4.51c.61,5,1,10.06,1.51,15.58-5-2.2-9.74-4.17-14.36-6.32a4.77,4.77,0,0,0-4.44,0C143.26,101.52,138.62,103.48,133.44,105.76Z"/><path class="cls-15" d="M108.27,240.51a9.6,9.6,0,0,1-7.79-2.64,6.29,6.29,0,0,1,0-9.24,4.44,4.44,0,0,1,4.69-.93,3.07,3.07,0,0,1,2.25,3.63c-.12.78.24.89.84.87C108.26,235,108.26,237.74,108.27,240.51Z"/><path class="cls-16" d="M108.19,232.27v-9.16c1.22,0,1.27,1.15,2,1.47C111.08,227.54,111.27,230.32,108.19,232.27Z"/><path d="M207.42,133.11l32.25,23.14h-6.34c-7.81,0-15.62,0-23.43,0-1,0-2.49.65-2.48-1.38C207.44,147.82,207.42,140.78,207.42,133.11Z"/><path class="cls-15" d="M191.85,148.61l-.66-.57c-1-3.74-.66-7.56-.66-11.36a4.11,4.11,0,0,1,1.36-3.32l-.09.09c2.82,0,6.41-1.21,8.25.44s.46,5.18.52,7.89c.09,3.8,0,7.6,0,11.4,0,.21,0,.42-.08.92C197.19,152.83,195,150,191.85,148.61Z"/><path class="cls-9" d="M207,163.91h30.44a.73.73,0,0,1-.21.93c-2.43,1.05-5,.4-7.48.52-1.7.08-3.38,0-4.86,1-1.11,1-.63,2.63-1.31,3.82a1.93,1.93,0,0,1-.66.7,1.23,1.23,0,0,1-1.25-.55c-.64-1.34-.21-3.13-1.77-4.06-2.14-1.28-4.5-.78-6.79-.92-2-.13-4,.46-5.89-.51A.77.77,0,0,1,207,163.91Z"/><path class="cls-17" d="M207,163.91c0,.18,0,.35,0,.52a8.35,8.35,0,0,1,.66.81,5.47,5.47,0,0,1,.23,4.64,2.45,2.45,0,0,1-.53.91,1.23,1.23,0,0,1-1.86-.25,2.26,2.26,0,0,1-.24-1c-.31-3.3-1-4-4.13-4.14-2.07-.09-4.15,0-6.23,0-1.15,0-2.32.05-3.11-1,0-.21,0-.41.06-.62Z"/><path class="cls-17" d="M237.49,164.42c0-.17,0-.33,0-.5l15.75-.14.63.06,0,1.1a2.06,2.06,0,0,1-.93.41c-4.41.24-8.85-.33-13.25.39a10.31,10.31,0,0,1-1.47,0,1.7,1.7,0,0,1-.81-.47A.63.63,0,0,1,237.49,164.42Z"/><path d="M61.28,155.65,92,133.57c1,.8.6,1.82.61,2.66,0,5.9,0,11.81,0,17.71,0,1.08.4,2.35-1.56,2.34-9.88-.06-19.76,0-29.65,0Z"/><path class="cls-15" d="M108.86,148.06l-.65.55-8.73,5.83c0-6.84,0-13.27,0-19.69,0-1.45.93-1.38,1.89-1.37l6.92.07-.09-.09a3.72,3.72,0,0,1,1.32,2.76C109.47,140.11,110,144.13,108.86,148.06Z"/><path class="cls-17" d="M108.2,163.74a4.32,4.32,0,0,1,0,.62c-.79,1.08-2,1-3.12,1-2.08,0-4.17-.07-6.25,0-3.16.14-3.81.86-4,4.2,0,.18,0,.35-.06.52a1.53,1.53,0,0,1-.57.86,1.46,1.46,0,0,1-1.79-.62c-.8-1.21-.36-2.85-1.42-4-4.28-1.89-8.69-1-13.08-.6a4.19,4.19,0,0,1-1.06,0,52.38,52.38,0,0,0-14.15.07,6.45,6.45,0,0,1-1.7,0,69.4,69.4,0,0,0-10.69-.47c-1.23,0-2.56.23-3.49-.95v-.1a3.77,3.77,0,0,0,0-.58Z"/><path class="cls-18" d="M32.94,163.06l.55-.52,12,0C41.34,163.86,37.12,162.86,32.94,163.06Z"/><path class="cls-18" d="M266.61,162.62a26.52,26.52,0,0,1-12-.1Z"/><path class="cls-19" d="M108.21,171.44l.06,3.79-61.46,0-.06-3.84c1.1-1.14,2.53-.86,3.87-.86,9.24,0,18.48,0,27.71,0,5.32.17,10.66-.44,15.94.54C98.94,170.38,103.62,169.61,108.21,171.44Z"/><path class="cls-20" d="M108.2,175.16c6.4.07,12.8.28,19.2.13,2.66-.06,2.49,1.32,2.49,3.11s.19,3.18-2.48,3.11c-6.4-.16-12.81,0-19.21.08l-.06-.7a3.4,3.4,0,0,1,0-5Z"/><path d="M72.16,180.38l4.93-3.31a4.55,4.55,0,0,1,3.44-1.19c3.9.07,7.81,0,11.71,0,1.21,1.44,1.43,2.9.07,4.38-1.28,1.11-2.82.63-4.22.58C82.78,180.65,77.44,181.49,72.16,180.38Z"/><path class="cls-15" d="M108.13,175.87v5c-2.92-.3-5.94.66-8.79-.62a2.49,2.49,0,0,1,0-3.78C102.2,175.26,105.21,176.22,108.13,175.87Z"/><path class="cls-2" d="M99.35,176.49v3.78l-6.41,0a5.85,5.85,0,0,1,.08-3.83Z"/><path class="cls-21" d="M93,176.47a7.76,7.76,0,0,0-.08,3.83q-.31,0-.63,0c0-1.46,0-2.92-.07-4.38Z"/><path class="cls-19" d="M191.8,175.23l.06-3.79a3.54,3.54,0,0,1,2.9-1c4.09.05,8.19-.33,12.25.53a52.84,52.84,0,0,1,15.93-.09,8.52,8.52,0,0,1,3.71-.45c7.62,0,15.25,0,22.88,0,1.32,0,2.76-.32,3.81.91l-.09,3.79Z"/><path d="M223,177.06l4.92,3.32c-3.46,1.07-7,.34-10.5.48-3.22.13-6.45,0-9.67,0a4.71,4.71,0,0,1-.69-.87,3.8,3.8,0,0,1,.78-4.13c3.9,0,7.81.06,11.71,0A4.62,4.62,0,0,1,223,177.06Z"/><path class="cls-15" d="M200.58,180.85l-8.65,0c-1.69-1.41-1.53-3-.48-4.69l.49-.31c2.92.31,5.92-.62,8.78.6a2.79,2.79,0,0,1,.62,3.56A3.84,3.84,0,0,1,200.58,180.85Z"/><path class="cls-2" d="M200.72,180.27v-3.78l6.33,0a5.46,5.46,0,0,1,0,3.94A16.25,16.25,0,0,1,200.72,180.27Z"/><path class="cls-19" d="M170.44,175.85c2.16-1.07,4.46-.39,6.69-.47,4.91-.17,9.82-.16,14.74-.22l.07.73-.17.07-.08-.16a3.73,3.73,0,0,1-3.36,1.36c-4.83.07-9.67.06-14.51,0A3.86,3.86,0,0,1,170.44,175.85Z"/><path class="cls-21" d="M207.06,180.28a6.68,6.68,0,0,0,0-3.81l.78-.58c0,1.46-.07,2.93-.11,4.39Q207.39,180.7,207.06,180.28Z"/><path class="cls-20" d="M170.44,175.85l21.25,0,.24,5.09-.06.7c-6-.05-12-.31-18-.06-3.13.12-4.22-.83-3.68-3.82C170.31,177.09,170.36,176.47,170.44,175.85Z"/><path class="cls-21" d="M207.06,180.28h.66a1.4,1.4,0,0,0,0,.61l-7.16,0c0-.2.09-.39.14-.58Z"/><path class="cls-9" d="M78.41,171.17l-31.66.17c0-.18,0-.35,0-.53s.13-.36.19-.54a3.35,3.35,0,0,1,3-1.39,76.69,76.69,0,0,1,10.72.18,6.59,6.59,0,0,0,2.69,0,56.08,56.08,0,0,1,13.33.16,2.64,2.64,0,0,1,1.42.89A1.61,1.61,0,0,1,78.41,171.17Z"/><path class="cls-22" d="M46.83,164.43c4.86.08,9.74-.54,14.58.34a1.64,1.64,0,0,1-.64.95c-4.59,1-9.17,1.31-13.73-.17l-.34-.48Z"/><path class="cls-23" d="M46.7,170.81a6.78,6.78,0,0,1,0-5.74l0,0c2,1.92,1.32,3.84,0,5.75Z"/><path class="cls-9" d="M253.34,171.39l-30.46-.22-.06-.42.09-.68a3.93,3.93,0,0,1,3.07-1.23,100.53,100.53,0,0,1,10.56.16,6.57,6.57,0,0,0,2.65.12c4.54-.31,9.09-.82,13.59.43a2,2,0,0,1,1,1.15Z"/><path class="cls-23" d="M253.81,170.7l-.53-.58c-1.49-1.31-1.38-2.85-.65-4.48a2,2,0,0,1,.83-.67.73.73,0,0,0,.36,0C253.82,166.86,253.81,168.78,253.81,170.7Z"/><path class="cls-1" d="M150.35,139c3.59,0,7.18,0,10.76,0,1.49,0,2.31.15,2.26,2-.13,4.43-.1,8.87,0,13.3,0,1.47-.36,2-1.92,2q-11.4-.12-22.79,0c-1.56,0-2-.52-1.93-2,.08-4.43.12-8.87,0-13.3-.06-1.83.76-2,2.25-2C142.75,139.07,146.55,139,150.35,139Z"/><path class="cls-20" d="M150.05,175.36c3.8,0,7.6.11,11.39,0,2.32-.09,2,1.41,1.84,2.69s1.21,3.44-1.71,3.43c-7.7,0-15.41,0-23.11,0-2.91,0-1.46-2.2-1.68-3.46s-.4-2.75,1.88-2.66C142.45,175.47,146.25,175.36,150.05,175.36Z"/><path class="cls-1" d="M190.81,156.25c-6.3,0-12.59,0-18.89,0-1.45,0-1.74-.57-1.73-1.86.06-4.33,0-8.65,0-13.62L191,155.63Z"/><path class="cls-1" d="M109.14,155.65l20.7-14.85c0,5.09,0,9.66,0,14.24,0,1-.51,1.22-1.38,1.22-6.39,0-12.78,0-19.18,0Z"/><path class="cls-1" d="M108.86,148.06c-1.34-2-.47-4.17-.6-6.26-.16-2.81-.06-5.63-.08-8.44h20.73Z"/><path class="cls-1" d="M191.89,133.36c0,4,0,7.92-.08,11.88,0,.93.6,2.1-.62,2.8l-20-14.68Z"/><path class="cls-4" d="M191.88,170.07c0-1.65,0-3.31,0-5,4.27-.78,8.58-.15,12.87-.34,1.14-.05,1.42.7,1.35,1.65-.08,1.24.3,2.52-.29,3.73h0A30.13,30.13,0,0,1,191.88,170.07Z"/><path class="cls-4" d="M108.2,165.11l0,5a30.09,30.09,0,0,1-13.9.09h0a1.85,1.85,0,0,1-.13-.29c-.59-5.1-.59-5.17,4.36-5.08C101.73,164.85,105,164.35,108.2,165.11Z"/><path class="cls-9" d="M191.88,170.07l13.91.09,1.17.51c.16.09.22.19.19.31s-.06.19-.11.19l-15.18.27Z"/><path class="cls-9" d="M94.28,170.16l13.9-.09,0,1.37-13.92-.27c-.46-.1-.49-.28-.1-.54A3.55,3.55,0,0,1,94.28,170.16Z"/><path class="cls-22" d="M205.79,170.15c.37-5.19.37-5.2-4.84-5.18-3,0-6.06.09-9.09.14,0-.25,0-.5-.05-.75h10.44C206.81,164.36,207.59,165.65,205.79,170.15Z"/><path class="cls-22" d="M108.2,165.11c-3.55-.05-7.11.07-10.65-.2-2.69-.2-4,.5-3.43,3.37a14.58,14.58,0,0,1,.15,1.87c-1.8-4.5-1-5.79,3.54-5.8h10.44C108.24,164.61,108.22,164.86,108.2,165.11Z"/><path class="cls-24" d="M179.68,167.64c0,.63,0,1.26,0,1.89s-.27,1.23-1.09,1.2-.89-.73-.9-1.35c0-1-.05-2.1,0-3.15,0-.76-.32-1.9,1.05-1.81s.88,1.19.95,2c0,.42,0,.84,0,1.26Z"/><path class="cls-2" d="M160.79,167.58c0-.87,0-1.5,0-2.14s.15-1,.84-1c.86,0,1.07.44,1.06,1.17a9.16,9.16,0,0,1,0,1.89c-.27,1.08.83,3.11-.86,3.11C159.64,170.59,161.37,168.39,160.79,167.58Z"/><path class="cls-2" d="M139.29,167.79c-.5.78.94,2.82-1,2.82s-.58-2-.94-3.06a2.92,2.92,0,0,1,0-1.25c.11-.73-.43-1.89,1-1.88s.81,1.17.93,1.89A10.08,10.08,0,0,1,139.29,167.79Z"/><path class="cls-24" d="M122.38,167.5c0,.88,0,1.51,0,2.14s-.15,1.05-.84,1.09-1.12-.43-1.14-1.15a7.39,7.39,0,0,1,0-1.88c.25-1.11-.82-3.12.88-3.15C123.43,164.5,121.87,166.69,122.38,167.5Z"/><path class="cls-1" d="M237.43,170.08H222.91c0-1.65,0-3.3,0-4.94a65.72,65.72,0,0,1,14.57-.08l0,0C238.69,166.75,238.85,168.42,237.43,170.08Z"/><path class="cls-9" d="M207,171.17a2.74,2.74,0,0,0-.08-.5q.07-.3.12-.6a3.18,3.18,0,0,1,2.15-1.15c4,0,8.05-.68,12,.48a5.41,5.41,0,0,1,.94.78l.63.57a2.83,2.83,0,0,1,.06.42Z"/><path class="cls-22" d="M237.47,165.05l-14.57.08c2.55-1.47,5.32-.46,8-.67,2.19-.17,4.4,0,6.6,0A1.9,1.9,0,0,1,237.47,165.05Z"/><path class="cls-22" d="M207.06,165.11c0-.22,0-.45,0-.68,4.88.34,9.82-.7,14.67.6l-.37.5C216.53,166.78,211.76,167.38,207.06,165.11Z"/><path class="cls-22" d="M222.19,170.18l-.54,0c-1.6-1.69-1.6-3.39,0-5.1l.06,0C222.72,166.66,222.13,168.45,222.19,170.18Z"/><path class="cls-4" d="M221.63,165.06c0,1.7,0,3.4,0,5.1l-14.57-.09c0-1.65,0-3.3,0-5Z"/><path class="cls-22" d="M238.66,164.77c4.94-.57,9.88-.94,14.8.2l-.2.13a2.91,2.91,0,0,1-1.83,1.12c-4.05.08-8.12.81-12.11-.47A1.8,1.8,0,0,1,238.66,164.77Z"/><path class="cls-25" d="M237.43,170.08l0-5,1.21-.31a1.3,1.3,0,0,1,.08.34c1.53,1.66,1.56,3.31,0,5C238.3,170.69,237.87,170.69,237.43,170.08Z"/><path class="cls-4" d="M93,165.12l0,4.95c-1.56,1.25-3.41.71-5.11.66-3.2-.1-6.44.63-9.58-.48-1.65-4.05-.8-5.56,3.25-5.47C85.36,164.88,89.2,164.31,93,165.12Z"/><path class="cls-9" d="M78.48,170.13l14.5-.06,1.21.56a5.12,5.12,0,0,1,.1.54H78.41l-.59-.47a.44.44,0,0,1-.2-.45c0-.16.08-.24.14-.24A.56.56,0,0,1,78.48,170.13Z"/><path class="cls-22" d="M78.48,170.13l-.65,0a3.92,3.92,0,0,1-.06-5.15c5.09-1,10.17-1.26,15.23.11-4-.05-7.92,0-11.87-.2-2.14-.11-3.14.45-2.78,2.72A22.94,22.94,0,0,1,78.48,170.13Z"/><path class="cls-22" d="M62.55,164.77a45.22,45.22,0,0,1,14.82.16,2.36,2.36,0,0,1-.75.85,29.2,29.2,0,0,1-13.47-.07A1.52,1.52,0,0,1,62.55,164.77Z"/><path class="cls-25" d="M62.63,170.08c-.43.6-.87.6-1.3,0-1.57-1.66-1.53-3.31,0-5a1.89,1.89,0,0,1,.09-.34h1.14a1.89,1.89,0,0,1,.09.34C64.16,166.77,64.2,168.42,62.63,170.08Z"/><path class="cls-9" d="M77.77,165l.06,5.15c0,.18,0,.36,0,.54l-.66-.63c-1.57-1.65-1.51-3.31,0-5l.22-.17A.92.92,0,0,0,77.77,165Z"/><path class="cls-1" d="M61.32,165.11v5c-3.66,0-7.32.07-11,0a6.75,6.75,0,0,0-3.6.67v-5.75Z"/><path class="cls-1" d="M77.15,165.1v5H62.63v-5Z"/><path class="cls-1" d="M238.74,170.08v-5h14.52c0,1.67,0,3.34,0,5-1.3,1.56-2.61-.15-3.95-.06C245.81,170.29,242.27,170.1,238.74,170.08Z"/></svg>