<svg id="Layer_1" data-name="Layer 1" xmlns="http://www.w3.org/2000/svg" viewBox="0 0 300 300"><defs><style>.cls-1{fill:#006cb6;}.cls-2{fill:#d5d4dc;}.cls-3{fill:#006bb6;}.cls-4{fill:#006bb5;}.cls-5{fill:#006ab4;}.cls-6{fill:#0069b1;}.cls-7{fill:#0069b2;}.cls-8{fill:#0067ae;}.cls-9{fill:#0068b1;}.cls-10{fill:#0068af;}.cls-11{fill:#0062a5;}.cls-12{fill:#0065ab;}.cls-13{fill:#0062a7;}.cls-14{fill:#0061a5;}.cls-15{fill:#005e9f;}.cls-16{fill:#0061a4;}.cls-17{fill:#0067af;}.cls-18{fill:#00548f;}.cls-19{fill:#005a98;}.cls-20{fill:#005693;}.cls-21{fill:#0064a9;}.cls-22{fill:#00548e;}.cls-23{fill:#002e4f;}.cls-24{fill:#005793;}.cls-25{fill:#004d82;}</style></defs><path d="M24,.36H276a1,1,0,0,1,1,1V176.61A123.39,123.39,0,0,1,153.6,300h-7A123.62,123.62,0,0,1,23,176.38V1.36a1,1,0,0,1,1-1Z"/><path class="cls-1" d="M107.85,76.8c-2.32-2.92-5.44-4.11-9.74-4.14A21.21,21.21,0,0,0,103.32,68a10.58,10.58,0,0,0,1.86-3.28c.94-3.38-.07-5.08-3.53-5.23A10.2,10.2,0,0,1,93.31,55c.47-.71,1.4-.64,2.12-1a8.91,8.91,0,0,0,5.14-5.27c1-2.84.35-3.83-2.67-4a4.49,4.49,0,0,1-3.42-1.37c-1.48-1.65-3-3.15-5.38-3.53-.45-.07-.75-.18-.61-.8.65-2.73-1.39-3.47-3.3-4.23A7.94,7.94,0,0,0,83,34.4c-2.66-.28-5.24.64-7.56-2.41-2-2.59-9.39-1.8-12.17.31-1.77,1.33-2.71,3.15-2,5.29.48,1.44-.25,1.46-1.18,1.68-4.07,1-6.26,2.92-6.3,5.57s2.43,5.29,6,6.36a24.1,24.1,0,0,0,3,.54,1.61,1.61,0,0,1,0,.43c-1,2.52-2.39,3.59-5.53,3.18-4-.52-6.25,1.73-6.83,5.52-.1.64-.33.65-.75.65-3.46,0-5,2.34-6.3,5a10.93,10.93,0,0,1-3.4,4.63,6.23,6.23,0,0,1-3,1.08c-2.07.18-2.54,1.25-1.21,3,2.19,2.86,5.43,4,8.81,4.45a13.11,13.11,0,0,0,8.39-1.23c1.84-1,3.65.33,5.59-.45-.13,1.34-1.19,1.69-1.54,2.49-.45,1.07-1,1.12-2.1.61-3.32-1.48-6.46-.59-9.29,1.44a4.54,4.54,0,0,0-2,4.84c.38,1.76-.4,1.87-1.73,1.56a4.6,4.6,0,0,1-.72-.22c-1.38-.59-2.64-2.21-4.29-.55s-1.67,3.58-1,5.64c.25.79.53,1.58.83,2.49l-1.28.17c-3.45.59-4.6,3.24-2.53,6.1,2.47,3.4,6.18,4.55,10.12,5a23.26,23.26,0,0,0,11.82-1.94c.71.6.29,1.34.5,1.93.62,1.78.48,2.93-1.86,2.94a2.57,2.57,0,0,0-2.42,2c-.45,1.58-1.09,1.11-2.11.56-4.38-2.34-8.73-1.53-11.87,2.12-2.42,2.81-2.58,4.46-.76,7.78-.44.57-1.16.57-1.77.77a6,6,0,0,0-4.5,5.24,6.35,6.35,0,0,0,2.88,6.33A11.58,11.58,0,0,0,43,137c2.74-.81,5.55-1.56,7.74-3.58a2.33,2.33,0,0,1,1.62-.63c7,0,12.82-3.2,18.24-7.28.45-.34.94-.65,1.73-1.2a64.84,64.84,0,0,1-.08,7.93c-.23,1.72-2,2.66-3.37,3.58-2.13,1.42-4.39,2.65-6.47,4.21,3.83.28,6.45-2.36,9.68-4.16,0,2,0,3.82,0,5.62q-.34,22.34-.72,44.68c-.08,4.63-.27,9.25-.32,13.88,0,1.36-.32,2.12-1.79,2.5-8.42,2.19-16.8,4.52-25.58,4.77a81.35,81.35,0,0,1-10.11-.55,2.78,2.78,0,0,1-2.84-2.49,116.57,116.57,0,0,1-3.88-28.69Q26.7,90.74,26.71,5.91c0-1.85.43-2.41,2.36-2.4q121,.08,241.93,0c1.72,0,2.29.39,2.29,2.21q-.09,85.47-.11,170.94a111.41,111.41,0,0,1-3.88,27.67,2.71,2.71,0,0,1-2.63,2.4c-9.81,1.48-19.36.07-28.83-2.36-2.13-.54-4.22-1.26-6.37-1.67-1.78-.34-2.45-1.08-2.52-3-.59-14.88-1.37-29.76-1.43-44.66,0-4.76,0-9.52,0-14.47,2.49,1.7,3.92,4.61,6.81,5.77-2.18-3.31-5.62-5.75-6.76-9.57s-.2-7.66-.42-11.49c1-.27,1.31.5,1.79.88a37.08,37.08,0,0,0,16,7.73,5.34,5.34,0,0,1,3,1.72,13.45,13.45,0,0,0,20.61-1c.92-1.16,1.71-2.47,1.07-3.94s-2.05-.88-3.18-.92a7,7,0,0,1-4.08-1.15c.1-.14.16-.32.26-.35,2.16-.58,4-1.53,4.28-4s-1.12-4.52-3.18-5.93A14.44,14.44,0,0,0,255.3,116H250a6.79,6.79,0,0,0,1-5.15c4.74,2.08,9,1.11,13.12-1a9.25,9.25,0,0,0,2.84-2.09c3.34-3.74,2.12-7.23-3-8.71-.16-.66.45-.84.77-1.17a3.1,3.1,0,0,0,.84-3.67c-.63-1.44-1.89-1.48-3.21-1.41-1.93.09-3.88.42-5.74-.47,0-.16,0-.38,0-.41,2-1,3.6-2.27,3.55-4.74s-1.89-3.62-3.75-4.67a16,16,0,0,0-12-1.69c-.57.14-1.06.63-1.72-.24a10.2,10.2,0,0,0-14.19-2.46c-.83.54-1.59,1.17-2.83,2.09v-14a8.62,8.62,0,0,1,3.06,2.25c4.6,4.28,9.61,7.72,16.19,8a3.21,3.21,0,0,1,1.62.62c5.67,3.73,14.7.29,16.38-6.25.37-1.44.42-2.81-1.66-2.81a4.63,4.63,0,0,1-4.24-2.7c-1.45-2.61-3.29-4.52-6.66-3.79-.85.19-1.1-.26-1.35-1-.93-3-2.65-4.17-5.83-3.86-1.32.13-2.46.52-2.45-1.52,0-1.05-1.39-1.35-1.94-2.45a12.42,12.42,0,0,0,5.65-1.35c1.94-1,3.56-2.45,3.39-4.88s-2-3.18-3.83-3.91c-.86-.33-1.78-.53-2.68-.79.07-.13.1-.33.2-.38,2.48-1.3,4.32-3,4-6.12s-2.61-4.2-5.08-5a26.51,26.51,0,0,0-14.23-.95c-2.14.48-4,1.48-4.62,3.81-.31,1.23-.86,1.06-1.81.85a14.29,14.29,0,0,0-9.84,1.29c-1.36.71-2.78,1.47-2.72,3.3s1.6,2.14,3,2.54a7.4,7.4,0,0,1,1.11.66,16.69,16.69,0,0,0-9.37,3.49c-2.68,2.18-3.75,4.88-2.78,7,1.1,2.36,3.76,3.47,7.15,3,.41-.06.82-.09,1.26-.14-.48,2.73-2.11,4.09-4.76,4.05-4.76-.07-6.84,2.6-5.78,7.26a10.15,10.15,0,0,0,7.42,7.85c1.11.35,2.26.55,3.52.85-1.14,1.66-2.19,2.12-4.25,1.24-3.73-1.6-10.26,1.94-11.39,5.8a3.81,3.81,0,0,0,3.39,4.69,24,24,0,0,0,3.61,0c-1.3,2-3.13,2.53-5.66,1.82-.8-.23-1.66-.82-2.33,0s-.35,1.92.09,2.85a7.09,7.09,0,0,0,4.91,3.64c-.12,1.09-1,1.64-1.41,2.42-2,3.6-.84,7.35,3,9,.72.31,1.29.45,1.39,1.47.28,2.83.36,2.83,2.79,5.1a13.65,13.65,0,0,0-4.87.66c-2.6.86-4.79,2.23-5.07,5.3-.08.86-.42,1.14-1.25,1.16-2.71.06-3.89,1.88-4.31,4.18-.55,3-1.32,5.27-5.18,5.15-1.88-.06-2.23,1.8-1.72,3.46a8.8,8.8,0,0,0,3.82,4.89,20.88,20.88,0,0,0,18.2,2.29c2.37-.75,3.56-3.44,5.54-4.1s4.38.64,6.65-.13a11,11,0,0,0,4.36-2.48c2.54-2.49,2.13-4.77-1.13-6.27l-1.59-.71a10.23,10.23,0,0,0,5.17-4.12c.73.75.47,1.45.47,2.07q-.23,36.48-.44,73c0,1.88-.32,2.52-2.37,2-12.34-2.89-24.48-1.5-36.54,1.82-7.89,2.16-15.76,4.44-23.9,5.57-1.53.21-2.27.16-2.31-1.74q-.81-35.84-1.75-71.67a1.88,1.88,0,0,1,.14-.38c2,1.07,3.92,2.17,5.92,3.15.51.25,1.4.86,1.8.09s-.63-1-1.14-1.3c-.78-.5-1.64-.87-2.42-1.37-3-1.92-4.93-4.2-4.62-8.22.38-5.06.09-10.18.09-15.47a71.82,71.82,0,0,0,5,6c5.71,5.84,12.77,7.15,20.51,6.08a10,10,0,0,0,4.62-2c3.74-2.83,3.75-6.85,0-9.69-.47-.36-.95-.69-1.44-1,.45-.88,1.31-.64,2-.81,5.72-1.45,9.1-6,8.4-11.22-.39-2.87-1.49-4-4.36-4.52-3.94-.7-5-3.34-2.58-6.33,2.59-3.17,1.8-7-1.94-9a16.82,16.82,0,0,0-7.84-1.74c1-2.23,1-2.22,3-1.41,3.28,1.3,6.62,2,10.14,1.1,5.23-1.42,7.8-5.94,6.33-11.11C193,56,182.83,49.22,174.18,50.36c-1.57.2-2.48.21-2.67-1.74-.17-1.77-1.56-2.86-3.65-3.63,2.19-.71,3.92-1.19,5.59-1.85a15.1,15.1,0,0,0,5.46-3.59c3.52-3.69,2.45-7.19-2.73-9,1-2.77.2-3.87-3.26-4.68-1.13-.26-3.21.38-1.78-2.23.59-1.07-.76-2.08-1.69-2.82a8.54,8.54,0,0,0-3.17-1.52c-1.06-.29-2.14-.48-3.23-.72,2-3,1.68-4.78-1.32-6.69a18.56,18.56,0,0,0-13.62-2.54c-4,.73-4.91,2.9-2.92,6.7-1.57.32-3.14.61-3.94,2.25-.36.72-1,.33-1.55.15-6.13-2-11.1.26-15.46,4.38-2,1.86-3.44,4.22-2.48,7S125.22,33,128,33c-.63,2.2-2.3,2.43-4,2.39a22.81,22.81,0,0,1-3.74-.55c-.83-.16-1.73-.52-2.37.24a2.36,2.36,0,0,0,0,2.84c1.92,3.24,4.55,5.77,8.41,6.3,4.8.66,9.47.37,13.07-3.61,1.06-1.17,2.27-.75,3.39,0,1.27.83,2.49,1.74,3.79,2.52a2.61,2.61,0,0,1,1.42,2.43c.06,2.09-.29,3.31-2.89,2.92a7.56,7.56,0,0,0-5.69,1.73,3,3,0,0,1-3.22.35,16,16,0,0,0-16.35,3.11c-3.36,2.8-3.21,5.51.37,7.94,1.23.84,1,1.36.13,2.09a6.65,6.65,0,0,1-4.68,1.58c-1.47,0-3.36-.43-4,1.33-.73,1.94.39,3.57,1.83,4.9.61.56,1.3,1,2.13,1.68-2.27.64-4.45,1.12-5.71,3.15C109.22,76.67,108.74,77.5,107.85,76.8Z"/><path class="cls-2" d="M268.08,208.59a124.13,124.13,0,0,1-23.17,43.29,2.34,2.34,0,0,1-2.83.82c-7.5-1.95-15-3.87-22.55-5.69-12.82-3.1-25.46-1.83-38,1.67A192.62,192.62,0,0,1,159.14,254c-10.57,1.62-20.84,0-31-2.73-8.71-2.33-17.35-4.94-26.39-5.82-11-1.08-21.48,1.39-31.94,4.2-4,1.08-8,2-12,3.08a2.15,2.15,0,0,1-2.61-.78,123,123,0,0,1-23-42.53c-.06-.21-.06-.44-.13-.92,14.41,2.69,28-1.15,41.4-5.1a79.27,79.27,0,0,1,46.36.34A128.56,128.56,0,0,0,144,209.08c10.44,1.06,20.49-1.05,30.47-3.73,8.63-2.31,17.21-4.86,26.22-5.38,10.65-.62,20.75,2.06,30.86,4.81,8.15,2.22,16.31,4.33,24.83,4.55A76.82,76.82,0,0,0,268.08,208.59Z"/><path class="cls-1" d="M58,254.76c8.42-2.09,16.57-4.26,24.79-6.12,12.19-2.77,24.15-1.09,36,2.21a180.46,180.46,0,0,0,22.16,5.2c10.66,1.57,21,0,31.3-2.77,7.33-1.95,14.61-4.1,22.13-5.31,11-1.77,21.69-.05,32.28,2.84,5,1.38,10.11,2.67,15.68,4.13-21.81,23.81-48.42,37.74-80.43,40.92C115.62,300.46,77.48,278.19,58,254.76Z"/><path class="cls-1" d="M78.94,121a15.17,15.17,0,0,0,6.44,5.17c-2.1,1.08-3.9,2.13-3.32,4.48.65,2.62,2.69,4,5,5,2.54,1.12,5.45-.48,7.65.45s3.92,3.17,6.51,3.62c5.62,1,10.78.12,14.94-4.15,1.6-1.63,3.4-3.35,2.68-5.9s-3.25-2.58-5.45-3.14a20.16,20.16,0,0,0,2.92-2.39c1.67-2,.93-4.14-1.59-4.41a9.86,9.86,0,0,1-7-3.93c-1.53-1.94-3.77-2.74-6.35-3.22,1.77-2.3,1.7-4.34-.63-6.3a16.66,16.66,0,0,0,6.08-2.33,26.85,26.85,0,0,0-.9,3.59c-.61,6.18,5.94,10.49,12.58,8.32.64-.21,1.24-.55,1.87-.79.47-.18,1-1,1.45,0,.25.56-.21,1.08-.64,1.52-.7.72-2.51.37-2.19,2a4.75,4.75,0,0,0,2.78,3.12c5.91,3,11.61,2.15,17.09-1.16,3-1.8,5.12-4.5,7.62-7.6,0,4.37.12,8.2-.06,12-.08,1.72-1.57,2.91-2.56,4.26-.44.61-1.65,1.1-.78,2.05s1.51-.07,2.23-.42c.28-.14.56-.26.82-.38,0,4.72.21,9.33-.1,13.9-.13,2-2.22,3.27-3.52,4.78-.56.65-1.53,1-1.73,2.48,2.37-.76,3.35-2.77,5.09-4.08,0,5.37.08,10.47,0,15.56-.27,13.8-.68,27.59-.87,41.39,0,2.43-.8,2.68-3,2.37-10.07-1.41-19.68-4.71-29.55-7a68.15,68.15,0,0,0-30.14-.52c-1.86.41-2.32-.09-2.29-1.92.32-20.29-.58-40.55-1-60.83C78.85,131.48,78.94,126.35,78.94,121Z"/><path class="cls-3" d="M107.85,76.8l2-.53a6.36,6.36,0,0,0,1.71,7.17c4.66,4.47,10.4,5.53,16.46,4.12s10.62-5,12.85-11c1-2.77.39-5.47-.81-8.22,2.41-.64,4.85-.89,7.31-2V79.16c0,1.06-.64,1.19-1.52,1.14a10.88,10.88,0,0,0-4.5.35c-2.25.83-3.58,2.3-3.09,4.78.29,1.45-.12,1.61-1.49,1.59-3.69,0-5.14,1.12-6.27,4.64a18.58,18.58,0,0,0-5.61-1.16c-3.69.1-5.55,1.76-5.55,5.4,0,2.3-.86,3.35-3.09,3.74a19.9,19.9,0,0,0-7.74,2.94c-.51.1-.76,0-.61-.6.43-2-.06-3.26-2.33-3.55A6.27,6.27,0,0,1,102,96.34c3.25-1,7-1.33,7.31-5.52.22-3.34-2.74-4.18-5.45-5.28C107.39,83.47,109.57,81,107.85,76.8Z"/><path class="cls-4" d="M226.22,86.39c1.84,2,3.64,3.45,6,3.92.95.18,1,.72.87,1.44a3.58,3.58,0,0,0,2.27,4.07c2.07.84.74,2.06.43,3-.49,1.45-1.4.19-2,0a9.63,9.63,0,0,0-5.92-.67c-1.54.38-1.72-.21-1.71-1.44C226.23,93.4,226.22,90.14,226.22,86.39Z"/><path class="cls-4" d="M77.62,67.48c3.33,4.31,7.45,6.89,13.07,6.84-.6,2-1.11,3.24-3.66,2.49a4.47,4.47,0,0,0-5.91,2.9c-.58,1.47-1.16.81-1.81.39a3.57,3.57,0,0,1-1.48-2.54A53.61,53.61,0,0,1,77.62,67.48Z"/><path class="cls-5" d="M67.93,72.24A16.15,16.15,0,0,1,55.46,76.5a11,11,0,0,0,5-6.82c.17-.72.75-.46,1.17-.09A12.4,12.4,0,0,0,67.93,72.24Z"/><path class="cls-4" d="M164.3,66c-4.14.66-7.82.69-11.13,2.39-.5.26-1.09.29-1.08-.46,0-1.44-.85-3.11.57-4.25s2.61-2.15,4.68-.74C159.23,64.26,161.59,64.88,164.3,66Z"/><path class="cls-5" d="M64.64,76.49a28.43,28.43,0,0,0,8.68-6c0,2.35.9,4.27-.93,5.91C70.12,78.47,70.14,78.49,64.64,76.49Z"/><path class="cls-6" d="M57.68,125.29c6.1.13,10.51-3,14.46-7.15C71.77,123.06,65.42,128.65,57.68,125.29Z"/><path class="cls-7" d="M235.41,128.35c1.55-.09,2.94-.14,4.32-.26,4.8-.43,4.8-.44,6,4.33C242.9,132.58,238.22,130.76,235.41,128.35Z"/><path class="cls-8" d="M227.34,117.72c2.15,4.53,5.78,7.1,10.31,8.92-3,1-5.66,0-8.53-2.68C226.49,121.45,226.39,121.15,227.34,117.72Z"/><path class="cls-9" d="M62.08,99c.41-2.14,1.48-2.63,3.3-2.47,2.68.24,5-1.18,7.5-2.6a16.42,16.42,0,0,1-.07,5C69.24,97.41,65.74,97.84,62.08,99Z"/><path class="cls-6" d="M84.11,96.28a15.37,15.37,0,0,0-5.84,3v-9A15.56,15.56,0,0,0,84.11,96.28Z"/><path class="cls-10" d="M164,62.64a12.12,12.12,0,0,1-6.3-1.38c-.8-.41-1.15-.83-.52-1.72s.85-1.41,1.9-.59a9.63,9.63,0,0,0,7,2.23c.54,0,1.34-.27,1.4.58.07,1-.86.81-1.47.86S164.71,62.64,164,62.64Z"/><path class="cls-7" d="M63.33,128c-3,2.16-6.07,2.84-9.33,3.33C56.15,126.78,56.15,126.78,63.33,128Z"/><path class="cls-7" d="M160.05,44.53a11.7,11.7,0,0,0-5.28,3c-1,1.16-2.1,0-2.8-.64-1.06-1,.28-1.38.79-1.86C154.92,43,157.24,42.11,160.05,44.53Z"/><path class="cls-11" d="M236.22,72.54c3.2-.24,5.72-.54,8,1.08.48.34.79.67.72,1.19-.11.75-.78.5-1.2.45A21.73,21.73,0,0,1,236.22,72.54Z"/><path class="cls-12" d="M230.21,48.47a3.56,3.56,0,0,1-1.88,2.22c-1,.75-2,2.21-3.12,1.63s-.45-2.39-.69-4A6.29,6.29,0,0,0,230.21,48.47Z"/><path class="cls-13" d="M215.25,53.63A13,13,0,0,0,220.91,50c.26,1.7,1.1,3.29-.08,4.12C219.35,55.1,217.47,54.58,215.25,53.63Z"/><path class="cls-14" d="M216.49,93.26,221,90C222.12,94.7,222.11,94.71,216.49,93.26Z"/><path class="cls-9" d="M151.35,41.23c.26-.68-.3-2.08.52-1.85,1.13.33,2.57,1.29,2.75,2.52.11.74-1.53,1.34-2.39,1.36C150.77,43.29,151.75,41.87,151.35,41.23Z"/><path class="cls-15" d="M72.94,51.59c-1.37.38-2.18-.42-3.13-.59s-1.94-.48-2.89-.72C68.79,48.51,68.79,48.51,72.94,51.59Z"/><path class="cls-16" d="M144.14,39.94c1.18-.53,2.39-1.32,3.49-.82.66.29.4,1.62.11,2.5A5.92,5.92,0,0,1,144.14,39.94Z"/><path class="cls-12" d="M68.38,69.27l3.3-.58c-1.42,2.35-2.88,2.63-6.82,1.48C65.68,68.48,67.34,70.08,68.38,69.27Z"/><path class="cls-17" d="M77.26,49.84c.28,2,1.92,2.93,3.59,4.07C76.77,54.26,76.51,54,77.26,49.84Z"/><path class="cls-18" d="M221.22,76c-.66.18-1.13-.27-1.66-.45l-1.86-.61c1.34-.6,2.34-1.63,3.54-1.24C221.72,73.85,221.55,75.21,221.22,76Z"/><path class="cls-19" d="M168.76,65.53a5.66,5.66,0,0,1-4.58-1.2C165.65,64.67,167.74,62.62,168.76,65.53Z"/><path class="cls-20" d="M232.8,51.39a4.68,4.68,0,0,1-3.42.43C230.61,50.13,230.61,50.13,232.8,51.39Z"/><path class="cls-21" d="M237.74,70.3a7.73,7.73,0,0,1,4,.27,8.82,8.82,0,0,1-5,.56C236.52,70.19,237.47,70.64,237.74,70.3Z"/><path class="cls-19" d="M151.48,48.17c1,.3,2.05.18,2.5,1.27.11.27,0,.8-.44.7C152.63,49.91,151.55,49.76,151.48,48.17Z"/><path class="cls-16" d="M73.15,78.44c.79,3-1,1.88-2.6,1.79Z"/><path class="cls-22" d="M70.81,48.61a3.45,3.45,0,0,1,3.08,1.23C72.35,50.36,71.61,49.41,70.81,48.61Z"/><path class="cls-23" d="M68.38,69.27c-1,.89-2.51-.06-3.52.9-.75-.3-1.09-.75,0-.9A23.11,23.11,0,0,1,68.38,69.27Z"/><path class="cls-24" d="M237.74,70.3l-1,.83-2.54-.51,0-.32Z"/><path class="cls-25" d="M107.86,102l.61.6c-.27.42-.7,1.1-1.07.79C106.82,102.88,107.54,102.41,107.86,102Z"/></svg>