<svg id="Layer_1" data-name="Layer 1" xmlns="http://www.w3.org/2000/svg" viewBox="0 0 300 300"><defs><style>.cls-1{fill:#cbcbcb;}.cls-2{fill:#007859;}.cls-3{fill:#010101;}.cls-4{fill:#001812;}.cls-5{fill:#004634;}.cls-6{fill:#db2c34;}.cls-7{fill:#9b0d56;}.cls-8{fill:#005c44;}.cls-9{fill:#004f3a;}.cls-10{fill:#232323;}.cls-11{fill:#006f52;}</style></defs><path d="M25.44-.61H274.56a1,1,0,0,1,1,1V176.59A123.39,123.39,0,0,1,152.16,300h-4.1A123.62,123.62,0,0,1,24.44,176.37V.38a1,1,0,0,1,1-1Z"/><path class="cls-1" d="M269.45,3.68,233,44.24,54.61,242.69c-3,3.39-3,3.4-5.49-.38A118.15,118.15,0,0,1,29.49,177c-.16-56.74,0-113.49-.15-170.23,0-3,1.09-3.17,3.5-3.17q99.53.09,199.06.05Z"/><path class="cls-2" d="M270.36,7.33c.1,1.4.19,2.11.19,2.82,0,56.26.33,112.52-.15,168.77-.48,57-42.34,106-98.5,115.6-42.93,7.34-79.73-5.09-110.2-36.17-2.85-2.91-6.8-6-7.41-9.48s4.26-6.13,6.84-9q34.5-38.55,69.12-77l92.5-103Q245.63,34.39,268.55,9C268.93,8.53,269.4,8.18,270.36,7.33Z"/><path class="cls-3" d="M99.52,159.77c0,13.27-6.73,23.47-17.51,26.43-16.31,4.48-30.84-5.58-32.33-22.47a36.71,36.71,0,0,1,7-25.81c6.23-8.42,11.9-17.15,15.13-27.24.42-1.32,1.09-2.62,2.55-2.72,1.7-.11,2.43,1.3,2.88,2.73,3.23,10.09,8.92,18.8,15.13,27.24A36,36,0,0,1,99.52,159.77Z"/><path class="cls-3" d="M99.52,66.54c0,12.78-6.43,22.63-16.77,25.89-16.57,5.22-32-5.44-33.13-22.88a37.46,37.46,0,0,1,7.43-25.7c6.13-8.19,11.57-16.78,14.74-26.62.46-1.42,1.11-2.83,2.86-2.77,1.53.06,2.18,1.35,2.59,2.64,3.2,10.1,8.91,18.82,15.11,27.25A36.11,36.11,0,0,1,99.52,66.54Z"/><path class="cls-3" d="M128.79,66.6c.06-8.24,2.19-15.38,6.8-21.69,6.31-8.65,12.23-17.5,15.5-27.84.41-1.28,1.07-2.55,2.62-2.62s2.31,1.17,2.72,2.46c3.34,10.58,9.56,19.52,15.86,28.47a35,35,0,0,1,5.47,29.5c-3,12.4-13.53,19.86-25.86,18.75C139,92.46,130.14,83.51,129,70.47,128.87,69,128.84,67.59,128.79,66.6Z"/><path d="M259.59,143.63a29.6,29.6,0,0,0-7.71-8c-2.25-1.68-2.87-.67-3,1.52a2.79,2.79,0,0,0,.08,1.42c2.34,4.18-.72,5.65-3.56,7.34-16.92,10.06-37.82.33-41.38-19.16-1.68-9.19.66-17.35,5.57-25l2.2-3.39c-8.07-1-13.91,2.46-18.64,7.8A59.12,59.12,0,0,0,178,143.84c-.14,3.12,0,6.25,0,9.38.07,3.76.7,7.21,3.3,10.34a19.93,19.93,0,0,1,4.39,12.75c0,4.58,2.29,7.68,5,10.76a29.13,29.13,0,0,0,9.31,7.36c.88-1.41-.19-2.53-.43-3.71-2-9.64-2-19.1,4.67-27s16-10.42,26.11-8.28c8.87,1.88,14.89,7.38,17.74,16.18.9,2.79.43,3.31-2.5,2.51-9.74-2.68-18.9-1.88-26.27,5.93a18.14,18.14,0,0,0-4.8,16.64c.42,2.21,1.27,3.16,3.66,3.47,12.87,1.67,22-4.25,29.18-14.09,5.65-7.71,8.84-16.47,10.72-25.76.19-.91,0-2,1.45-2.9,1,4.14,3.82,7.11,5.78,10.62a3.38,3.38,0,0,1,.3,3.09c-5.26,12.75-8.28,26.39-15.44,38.39C242.7,222,232.6,231.06,218,234.09a35.94,35.94,0,0,1-17.83-.76c-2.31-.7-3.27-.15-3.65,2.22-.81,5,1.91,8.23,5.54,10.89,2.42,1.78,5.06,3.28,6.77,5.85,3.76,5.65,4.23,11.86,3,18.34-.29,1.59-1.08,2-2.52,1.18-3.85-2.13-8-1.53-12-.92a18.51,18.51,0,0,1-21.45-17.13c-.65-10.79,3.31-19.23,13.5-24.7-12.83-6.9-23.17-16.79-35.18-24.29-10.79-6.73-21.8-7.69-33.06-1.25-5.37,3.06-8.42,7.6-8.69,14.44a48.09,48.09,0,0,1,17.42-3.74c25.39-.61,34.78,23.35,28,41.2a34,34,0,0,1-4.3,7.9c-2.9,4-3.08,4-7.3,1.89-1.16-.59-2.53-1.56-3.71-.77s-.07,2.21.14,3.3a26.83,26.83,0,0,1-1.14,14.44,27.61,27.61,0,0,0-5.41-12.7c-1.21-1.6-2.11-1.69-3.12.16a10.84,10.84,0,0,0-1.66,5.09c0,1.88-1,2.51-2.52,2.87-18.29,4.23-34.8-5.15-38.28-23.71-1.8-9.59,1.74-17.69,7.66-25a12,12,0,0,1,2-2.08c5.32-4,9.52-8.34,10-15.7.24-3.77,3.41-6.83,6.67-9.06C127.65,194.72,139,193.31,151,199c8.88,4.23,16.31,10.58,24.13,16.35a155.8,155.8,0,0,0,15.63,10.33,10.94,10.94,0,0,0,7.93,1.39C204,226,209,226.7,213.4,230c1.45,1.08,2.84.91,4.42.54,12.86-3,22-10.89,28.66-21.92a51.87,51.87,0,0,0,7.41-20.16c.28-.75.64-1.55-.75-1.42a40.07,40.07,0,0,1-18.63,14.78,11.84,11.84,0,0,0-3,1.85c-7.88,6.25-17.55,5.94-24.86-.92a20.41,20.41,0,0,0-5.94-3.91c-8.14-3.54-13.95-9.59-18.28-17.23a15.19,15.19,0,0,0-19.69-6.54c-7.47,3.17-11.71,9.27-14.62,16.53-.39,1-.24,2.21-1.35,2.83-7.14-10.36-7.34-22.78-.51-31.15,5.67-7,16.3-10.41,24.72-7.55,3.6,1.23,3.65-.09,3.46-2.92-1.07-16.13,2.6-31,12.14-44.23a38.25,38.25,0,0,1,10.75-10.5c4.66-2.91,9.73-4.26,15.14-3.26a5.32,5.32,0,0,0,4.8-1.39c8.78-6.81,18.41-10.36,29.57-6.85a28.49,28.49,0,0,1,17.28,39.33c-.79,1.71-1.55,2.95-3.69,1.81a5.58,5.58,0,0,0-2.08-.51c-1.08-.11-2.38-.21-3,.73s.67,1.6,1.12,2.35c2,3.44,3.87,6.93,4,11.05C260.47,142.22,261.37,143.38,259.59,143.63Z"/><path class="cls-4" d="M259.59,143.63c.72-.61.65-1.49.79-2.3a5.54,5.54,0,0,1,.42,4.38C259.91,145.21,259.87,144.35,259.59,143.63Z"/><path class="cls-5" d="M253.14,187c.23-.5.57-1.31,1.11-.77s.15,1.51-.36,2.19Z"/><path class="cls-6" d="M74.5,110.49c4,11.87,11.34,21.54,18,31.67,5,7.66,6,16.38,4,25.32-2.5,11-10.72,17.48-22,17.46S55,178.41,52.53,167.34c-1.86-8.29-1.14-16.5,3.25-23.73C62.35,132.8,70.57,123,74.5,110.49Z"/><path class="cls-6" d="M74.54,17c3.91,11.42,10.84,20.9,17.37,30.69C98.12,57,99.24,67.42,95.13,78c-3.4,8.74-11,13.55-20.59,13.55S57.32,86.72,53.94,78a31.81,31.81,0,0,1,3.41-30.59C63.87,37.75,70.64,28.31,74.54,17Z"/><path class="cls-6" d="M153.83,16c3.89,12.85,11.33,22.57,18,32.79,5,7.65,6,16.37,3.93,25.3-2.6,11.23-11.94,18.19-23.19,17.44-12-.8-20.34-9.12-21.41-21.27-.81-9.22,1.28-17.6,6.91-25.07C144.57,36.51,150.14,27.32,153.83,16Z"/><path class="cls-7" d="M130,216.38c11.27,0,20.28,4.06,25,14.79,5,11.29,3.4,22-4,31.89-1,1.36-1.79,1.29-3.26.57a12.52,12.52,0,0,0-18,8.35c-.73,2.88-2,3.76-4.73,4.17-12.2,1.88-23.51-3.39-29.31-13.85s-4.24-22.53,4.2-32.05C107.88,221.26,117.85,216.4,130,216.38Z"/><path class="cls-7" d="M238.56,87.39c18.35,0,31.27,19.46,24.11,36.2-.6,1.43-1.19,2.15-2.91,1.71-7.72-2-14,6.87-12.85,13.79.44,2.57-.34,3.71-2.34,4.83-8.84,4.93-17.76,6.19-26.45,0-9.09-6.5-13.86-15.37-12.15-26.71C208.49,100.43,223,87.36,238.56,87.39Z"/><path class="cls-1" d="M216.06,168.77c-9.9,6.27-12.83,18.75-7.55,32.24-6.78-4.5-9.77-17.06-6.72-28.22,2.51-9.19,10.94-15.41,21.65-15.95,10.09-.52,18.62,5,22.35,14.87-9.52-2-18.52-1.72-26.11,4.93-7.86,6.89-9.32,15.52-5.93,25.68-8.61-7.52-6.77-23.09,3.25-32.69C217.47,168.48,216.74,168.66,216.06,168.77Z"/><path class="cls-1" d="M192,258.12c-6.22-11.11-5.2-20.29,2.66-25.05-1.92,8.24,2.43,12.94,8.64,16.9,5.4,3.45,8.26,11.75,6.77,17.85-.31,1.25-.65,1.57-1.88,1.13-3.64-1.31-7.37-.81-11-.27-8.67,1.3-15.95-3.24-18.47-11.66-2.8-9.36,1.81-20.87,10.11-25.07.71-.36,1.62-1.58,2.46-.35.65,1-.63,1.35-1.09,1.91-4.71,5.78-7,12-3.64,19.27A9.4,9.4,0,0,0,192,258.12Z"/><path class="cls-1" d="M146.31,189.48c-3.62-8.68-4.81-16.84,1.18-24.24,5.65-7,13.24-9.82,22.17-7.74C176,159,181.28,165,182,170.89c-12.53-7-19.67-7.72-26.35-1.81,10-3,18.64-3.39,25.4,5.42C164.12,166.79,154.09,174.89,146.31,189.48Z"/><path class="cls-8" d="M201.26,229.76c2.53-1.45,4.78-.4,7.73.86C205.83,231.5,203.57,230.55,201.26,229.76Z"/><path class="cls-9" d="M218.55,204.86c-1.14-.41-1.55-1.05,0-1.22a56.36,56.36,0,0,1,6.27-.06c-.58,1-1.42,1.07-2.17,1.25A7.88,7.88,0,0,0,218.55,204.86Z"/><path class="cls-10" d="M216.06,168.77c.95-1.14,2.29-1.48,4-2.2-.41,2.11-2,2.33-3,3.06Z"/><path class="cls-11" d="M218.55,204.86a3.73,3.73,0,0,1,4.09,0Z"/></svg>