<svg id="Layer_1" data-name="Layer 1" xmlns="http://www.w3.org/2000/svg" viewBox="0 0 300 300"><defs><style>.cls-1{fill:#e2e3e4;}.cls-2{fill:#e11a1e;}.cls-3{fill:#e1e2e3;}.cls-4{fill:#dfe0e1;}.cls-5{fill:#dcddde;}.cls-6{fill:#d9191d;}.cls-7{fill:#140203;}.cls-8{fill:#010000;}.cls-9{fill:#010101;}.cls-10{fill:#020101;}.cls-11{fill:#040102;}.cls-12{fill:#040101;}.cls-13{fill:#050202;}.cls-14{fill:#060303;}.cls-15{fill:#030101;}.cls-16{fill:#060202;}.cls-17{fill:#070202;}.cls-18{fill:#050101;}.cls-19{fill:#130203;}.cls-20{fill:#1f0304;}.cls-21{fill:#350607;}.cls-22{fill:#190303;}.cls-23{fill:#180303;}.cls-24{fill:#2a0506;}.cls-25{fill:#0a0101;}.cls-26{fill:#090101;}.cls-27{fill:#280505;}.cls-28{fill:#120202;}.cls-29{fill:#1a0303;}.cls-30{fill:#1d0304;}.cls-31{fill:#1c0304;}.cls-32{fill:#2d0506;}.cls-33{fill:#fecb00;}.cls-34{fill:#fbc900;}.cls-35{fill:#fcca00;}.cls-36{fill:#f4c300;}.cls-37{fill:#231c00;}.cls-38{fill:#fdca00;}.cls-39{fill:#423500;}.cls-40{fill:#261e00;}.cls-41{fill:#d0a700;}.cls-42{fill:#d0a600;}.cls-43{fill:#dfdfe0;}.cls-44{fill:#d9dadb;}.cls-45{fill:#dddedf;}.cls-46{fill:#d0d1d2;}.cls-47{fill:#adaeaf;}.cls-48{fill:#c5c5c6;}.cls-49{fill:#d7d8d9;}.cls-50{fill:#d6d7d8;}.cls-51{fill:#909191;}.cls-52{fill:#a88700;}.cls-53{fill:#4a3b00;}.cls-54{fill:#846a00;}.cls-55{fill:#6b5600;}.cls-56{fill:#e0b300;}.cls-57{fill:#caa100;}.cls-58{fill:#be9800;}.cls-59{fill:#daae00;}</style></defs><path d="M25.44-.61H274.56a1,1,0,0,1,1,1V176.59A123.39,123.39,0,0,1,152.16,300h-4.1A123.62,123.62,0,0,1,24.44,176.37V.38a1,1,0,0,1,1-1Z"/><path class="cls-1" d="M115.3,105.6c-8-2.21-13.42.49-14.18,7-3.62-.84-7.17-.88-10.52,1s-5.24,4.51-5.27,8.38a3.89,3.89,0,0,1-.75,2.25c-1.52,2.31-.77,4.13,1.9,4.85.4.11.86.34,1.2.23,3.91-1.19,4.75,1.18,5.62,4.27.93,3.33,3.47,5.77,6.08,8,1.13,1,2.41,1.76,3.49,2.78s3.07,1.22,2.86,3.09c-.1.9-5.52,2-6.57,1.52-.84-.36-.33-1-.35-1.49-.25-6.57-7.91-14.42-14.27-14.61-1.94,0-3.58.35-4.59,2.24-.77,1.43-1.87,1-2.84.22a12,12,0,0,0-17.41,3.86c-1.39,2.65-.25,5.12.76,7.69-3.58-.13-6.13,1.53-8.19,4.12-.72.92-1.64,2.1-1.22,3.13,1,2.48-.66,3.45-2,4.8a7.27,7.27,0,0,0-2.42,5.76c.22,4.23,0,8.32-1.61,12.4-1.37,3.36.44,5.76,3.55,5.69A2.34,2.34,0,0,0,51,181.49c.68-2,1.9-1.66,3.33-1.07a10.83,10.83,0,0,0,2.32.81c3.48.6,5.16-1,5.92-5.66,2,.73,3.72,2.08,5.85,2.39,1.07.15,2.37.16,2.51-.92.3-2.3,1.57-1.52,2.68-1.09,5,2,9.33,1,13.3-2.58,2.22-2,4.31-4.12,6.33-6.3a55.6,55.6,0,0,1,11.73-9.49c6.72-4.14,13.59-4.11,20.64-1.11,2.18.93,2.33,1.94.35,3.28-2.86,1.94-6,3.44-8.23,6.28-.91,1.18-1.4-.08-1.93-.48a20.92,20.92,0,0,0-12-4.73c1,1.8,3.12,2.94,3,4.77-.19,4.17,2.79,6.67,4.46,9.86a8.86,8.86,0,0,1,.53,7.44,40.17,40.17,0,0,0-2.61,10.55c-.24,2.91-2.68,3.35-4.63,4.16a6.63,6.63,0,0,1-7.4-1.25,18.68,18.68,0,0,1-2.82-3.14c-1.9-2.78-4.59-3.82-8-3.93-.1,2.51,1.18,4.49,2.68,6.68-4.81-.26-9.29-.62-13.53-2.32a2.7,2.7,0,0,0-2.93.31c-1.42,1-3.19,1.31-4.83,1.87-.65.22-1.87.07-1.69,1.35.15,1.05,1.11.84,1.79.92,4.51.54,8.8,2.09,13.58,2.89-3.14,3.67-8.28,4.77-10.34,9.55,5.46-.56,10.65-1.41,14.86-4.85a8.14,8.14,0,0,1,9.14-1.36,27.45,27.45,0,0,0,9.32,2.39,13.6,13.6,0,0,0,5.59-1.1c-.52,9.78,4,17.55,8.85,25.22,2.86,4.55,5.7,9.11,8.69,13.58,1,1.45,1.23,2.58-.2,3.81a31.61,31.61,0,0,0-8-5.32c-7.1-3-12.48-.82-14.9,6.48-.75,2.24-1.81,3.18-4,3.36a15.33,15.33,0,0,0-2.66.55c-6,1.57-8.35,4.26-8.87,10.37-.14,1.61-.62,2.08-2.2,2.08a13.33,13.33,0,0,0-8.7,3.14,1.77,1.77,0,0,1-2.71.06q-35.89-28.62-44.57-73.69a127.44,127.44,0,0,1-2-24.21q.07-42.36,0-84.72c0-2,.45-2.56,2.54-2.56q118.74.09,237.5,0c2,0,2.57.44,2.56,2.53-.08,28.91.09,57.81-.09,86.71-.21,35.14-13.2,64.84-38.54,89.19-1.65,1.58-2.59,1.67-4.4.18a17.38,17.38,0,0,0-14.39-3.86c-.72.12-1.37.46-1.89-.5-2.12-4-5.81-6-9.75-7.64a2.39,2.39,0,0,1-1.71-2.55c-.16-4.55-.47-9.09-.8-13.63a11.08,11.08,0,0,0-7.1-9.92c-7.72-3.42-15.78-4.07-24.06-3.09-.9.1-1.8.27-2.7.36-3.4.36-6.77.79-9.23,3.56a3.34,3.34,0,0,1-.61.43c-4.13,2.77-8.56,1.1-9.27-3.84a10.71,10.71,0,0,0-4.62-7.59c-5.67-3.93-7.7-9.24-7-15.89.25-2.22.26-4.46.48-6.68.42-4.06,1.59-7.64,5.12-10.29a84.89,84.89,0,0,0,7.88-7.19,10.89,10.89,0,0,1,7.59-3.1c6.33-.2,12.44.05,18.26,3.31a46.13,46.13,0,0,0,25.17,6.25c4-.19,7.71-.69,11.12-2.81a17.23,17.23,0,0,1,9.4-2.63c4.56,0,9-1,13.51-1.78,5.66-1,8.85-5.18,12.23-9.12a11.53,11.53,0,0,1,4.39-3.41c4.67-1.93,5.64-4.66,3.62-9.32a15.72,15.72,0,0,0-1.15-2.19c-1.88-2.92-1.88-2.91-5.12-1.46a5.36,5.36,0,0,1-3.27.69c.26-1.81,1.13-3.56.61-5.47-.33-1.24-.75-1.81-2.19-1.58-2.44.4-4.94-.06-7.42.36-1.57.26-1.17-1.39-1.53-2.23-.6-1.39.64-.93,1.19-1.08,1.2-.3,2.42-.55,3.63-.81.66-.15,1.52-.35,1.68-.93.69-2.53,2.75-3.4,4.74-4.6,1.74-1,2-6.36.7-7.87-.47-.54-1.06-.29-1.62-.29-2,0-4,0-6-.06-1.82-.08-3.55.07-4.08-2.64-.42-2.12-3.85-2.82-6.72-1.89-2.07.68-3.76,2-5.75,3.24a22,22,0,0,0-3.14-8.82,2.06,2.06,0,0,0-2.62-1.09c-1.19.34-2.43.51-3.64.75a2.31,2.31,0,0,1-2.59-1c-2.41-3.3-5.28-4.8-9.35-2.69-1,.51-2.93,1.68-3.41.45-.57-1.47,1.42-2.36,2.7-3.06,2.54-1.42,5.39-2,8.12-3a18.37,18.37,0,0,0,5.58-2.61c3.11-2.42,2.92-5.67.73-8.86s-4.43-3.73-7.94-2.48c-3.72,1.32-7.77-.42-11.59.49-2,.48-3.15,0-4.25-1.87C188.71,86.19,186,85.44,183,86c-2.54.5-4.8,1.75-7.16,2.74-3.93,1.67-7.66,2.11-11.92.28-5.19-2.23-10.39-.78-15.08,2.22-2.9,1.86-2.93,1.93-5.13-.68a6.24,6.24,0,0,0-7.06-2.27c-3.13.91-6.08,2.06-8.26,4.7a12,12,0,0,1-6.62,4.12c-.24.06-.49.1-.73.17C115.71,99,115,100,115.3,105.6Z"/><path class="cls-2" d="M149.75,81.83q-59,0-118,0c-2.29,0-3.06-.4-3-2.91q.16-35.78,0-71.56c0-2,.4-2.63,2.54-2.63q118.76.09,237.51,0c2.14,0,2.54.64,2.53,2.64q-.1,35.89,0,71.8c0,2.35-.76,2.65-2.8,2.65Q209.13,81.78,149.75,81.83Z"/><path class="cls-2" d="M142.59,96.79c5-2.85,9.41-6.85,15.58-7.11,1.84-.08,3.72-.16,5.34.75,4.3,2.41,8.47,1.54,12.66-.19a41.91,41.91,0,0,1,6.92-2.71,5.54,5.54,0,0,1,6.38,2.66,2.75,2.75,0,0,1,.28,3.2,4.3,4.3,0,0,0,.06,4.57c1.16-5.4,1.63-5.95,7.13-5.95,4.3,0,8.6.61,12.75-1.08.2-.08.63-.09.69,0,1.13,2,3.58,3,3.92,5.45.3,2.1-.92,3.6-2.71,4.62a36.6,36.6,0,0,1-7.18,2.72,25.06,25.06,0,0,0-6.17,2.56c-2,1.32-3.46,2.75-2.74,5.69.48,2-.68,4.23.51,6.37,1.18-.65.34-1.57.3-2.32-.13-2.16.08-4,2.83-4.27a7.11,7.11,0,0,0,2.61-.73c2.4-1.3,4.52-.75,5.81,1.38,1.83,3,4.35,3,7.08,2.15,2-.61,3,0,3.59,1.73.39,1.09.93,2.12,1.3,3.21,1,3,.81,5.7-2.42,7.37a4,4,0,0,0-.92.82c-.07.08,0,.29,0,.73a10.72,10.72,0,0,0,3.43-2.28,47.77,47.77,0,0,1,6.94-4.78,6.32,6.32,0,0,1,4.56-.7c2,.48,2.16,2,2.11,3.69,0,.83.55.86,1.18.88,2.64.1,5.29.19,7.93.35.95.06,2.35-.63,2.53,1.1s.7,3.55-1.18,4.71a3.48,3.48,0,0,1-1.87.58c-1.58-.12-2,.55-1.85,2a2.16,2.16,0,0,1-2.06,2.37c-2.42.46-4.79,1.1-7.34.72-3.47-.51-5.92,1.15-6.74,4.32,1.07-.24,1.29-1.24,1.86-1.82a5.19,5.19,0,0,1,5-1.49c1.77.37,1.92,2.09,2.06,3.34.24,2.21,1.11,2.49,3,1.89,2.16-.68,4.45-.17,6.67-.31,1.28-.08,1.22.87,1.21,1.69a7.66,7.66,0,0,1-2.41,5,9.38,9.38,0,0,0,7.36-.74c1.22-.69,1.94-.4,2.65.69a14.18,14.18,0,0,1,2,4.26c.53,2.11,0,4.08-2.08,4.74-3.83,1.21-6.21,4-8.38,7-3.5,4.77-8.52,6.25-13.94,7.1a64.26,64.26,0,0,1-9.88.92,13.83,13.83,0,0,0-7.33,1.94c-8.18,5-16.84,3.88-25.46,1.86-4.58-1.08-8.81-3.29-13-5.45-6.77-3.46-13.94-3-21.11-1.89-1.83.28-3.16,1.78-4.5,3-3.45,3.1-6.8,6.31-10.21,9.45-2.13,1.95-2.45,4.61-2.84,7.22a51.88,51.88,0,0,0-.53,15.08,12.75,12.75,0,0,0,4.71,8.2c1.46,1.21,2.91,2.46,4.25,3.81a6.45,6.45,0,0,1,2.22,4.57,2.88,2.88,0,0,0,.26,1.2c3.23,6.17,6.4,8.38,11.39,4.07,5.18-4.46,11.41-4,17.38-4.4a37.15,37.15,0,0,1,17.66,3.22,10.17,10.17,0,0,1,6.47,8.93c.47,4.69.55,9.37.8,14.2-2.71-.6-4.28-1.6-4-4.65a33.29,33.29,0,0,0-.45-7.17c-.65-5.34-4.18-8.54-10-9.29-6.15-.79-6.17-.77-4.4,5a30.06,30.06,0,0,1,1.66,8.75c0,1.08.3,2.12-1.46,2.15-1.47,0-2.29-.21-2.43-1.88a22.91,22.91,0,0,0-2.71-9c-2.5-4.62-6-5.85-10.78-3.71a39.43,39.43,0,0,0-4.13,2.26c-.77.46-1.46,1-2.59,1.84a40,40,0,0,1,17.91,11.13,59.33,59.33,0,0,0-10.94,7.65,1.13,1.13,0,0,1-1.73,0c-.12-.11-.28-.18-.39-.29-4.56-4.39-10.16-5.48-16.23-5.17a11.78,11.78,0,0,1-3.71-.15c-4.21-1.19-6.91.78-9.18,4-1.77,2.49-3.67,4.9-5.42,7.41-.67,1-1.14,1.28-2.37.72-4.62-2.13-9.43-1.83-14.43-.93,1,1.75,1.89,3.3,2.73,4.89.29.55.69,1.18-.19,1.69-1,.6-1.23-.18-1.63-.82-3.82-6.11-2.45-6.05-10.87-4.56a16.58,16.58,0,0,0-3.09.9c-3.33,1.31-4,2.35-4.65,7.06-3.65-.75-3.65-.88-3-4.31.74-4.09,3.19-6.37,7.07-7.38a50.08,50.08,0,0,1,13.52-1.53c3.06,0,6.12,0,9.39,0a11,11,0,0,0-4.22-5.43,4.36,4.36,0,0,0-6.44,1.44c-.36.55-.58,1.19-.9,1.77-.75,1.35-2.13,1-3.09.71-1.29-.33-.31-1.39-.09-2,2.28-6.3,6.5-8.13,12.74-5.59a25.46,25.46,0,0,1,8,5.39c1,1,1.41.78,2.2-.32,1.49-2.09,1.45-3.73-.06-5.94-3.68-5.39-7.06-11-10.51-16.55-4.39-7.08-7.71-14.48-6.38-23.09-.76-.43-1.2.06-1.68.28a12.5,12.5,0,0,1-9.19.63c-2.21-.71-4.48-1.24-6.62-2.11A7.74,7.74,0,0,0,86,203.88a22.4,22.4,0,0,1-11.75,4.68c3.51-3.18,7.79-4.67,10.09-8.77-4.81-.42-9.19-1.84-13.92-2.85,2-1.35,3.69-2.31,6.27-1.38,5.25,1.88,10.83,1.87,17,2.2-2.52-2-4.75-3.5-5.39-6.36a3,3,0,0,1,3.3,1.11l3.66,4.05c3.72,4.14,11.12,4,14.64-.26a4.69,4.69,0,0,0,.7-2.58,44.2,44.2,0,0,1,2.53-10.08c1.08-2.83,1.21-5.85-.41-8.41-2.37-3.76-4.53-7.54-4.86-12.19a18.64,18.64,0,0,1,12,10.5,4.29,4.29,0,0,0-1-3.8c-1-1.29-.59-2.21.37-3.24a20,20,0,0,1,4.83-3.85,21.33,21.33,0,0,0,3.12-2c2.41-2,2.17-4-.67-5.33-7.48-3.38-14.85-3.5-22.08.84A55.16,55.16,0,0,0,91.6,166.61a53.25,53.25,0,0,1-7,6.65,9.41,9.41,0,0,1-9.09,1.68c-2-.63-4.12-1.17-6.13-1.73-.17.26-.32.39-.32.51,0,.88,1.12,1.83.32,2.53s-1.86-.06-2.75-.42a32.26,32.26,0,0,1-6.5-3.93c.28,1.52.55,2.65.68,3.8.35,3.23-1.64,4.82-4.76,3.83-.71-.22-1.39-.53-2.09-.78-1.68-.62-3.13-.47-3.91,1.39a1.85,1.85,0,0,1-2.43,1.1c-1.2-.26-1.5-1.2-1.45-2.27A4.77,4.77,0,0,1,46.5,177c1.83-3.63,1.74-7.49,1.61-11.4-.18-5.5,4.23-9.49,9.5-8,4.94,1.35,9.7,3.2,15,2.85a8.41,8.41,0,0,1,2.52.86,2.49,2.49,0,0,0-2.74-1.89,31.82,31.82,0,0,1-13.74-2.65,14.7,14.7,0,0,0-3.91-.47c-2-.2-2.7-1.38-1.93-3.25a7.69,7.69,0,0,1,8.12-4.37c.65.12,1.27.49,1.77-.26s-.12-1.06-.37-1.55c-2.65-5-2.36-6.77,1.54-9.83s9.63-4.22,12.47-.29c.84,1.16,2,.44,3,.78,1.51.55,1.71-.39,2-1.5a2.37,2.37,0,0,1,2.53-1.6,9.45,9.45,0,0,1,7.45,2.73c2.39,2.44,4.63,5,5.69,8.32.9,2.87-.1,4.49-3.07,4.88s-5.12-1-7.24-3c-1.38,2.95-4,3.76-6.9,4,2.38,1,4,.66,6.22-1.37.76-.68,1.17-.82,2-.18a8.18,8.18,0,0,0,8,1.06,7.54,7.54,0,0,1,2.44-.31,21.63,21.63,0,0,0,4-.2c2-.42,4.56-.53,5.07-2.88.46-2.09-1.92-2.84-3.29-3.92-2.68-2.09-5.43-4.07-7.5-6.83a15.69,15.69,0,0,1-2.87-6c-.32-1.47-.31-2.65,1.08-3.71a4,4,0,0,0,1.38-4.07c-.92,3.81-3.72,4.67-6.9,5a6.83,6.83,0,0,1-2.7-.27c-1.33-.42-1.87-1.39-.9-2.41s1-2.29,1.08-3.62c.18-4.14,4-7.58,8.71-8,3-.27,5.66.69,8.53,1.62-2.15-5.26-.27-8.31,5.3-8.94a8.91,8.91,0,0,1,8.73,4c.83.36,1.77.4,2.52.8-.61-.42-1.67-.3-2-1.33-1.94-2.14-1.86-4.83-2-7.45a2.59,2.59,0,0,1,1.87-2.39,24.5,24.5,0,0,1,4-1.42,13.73,13.73,0,0,0,7.15-4.65c2.32-2.67,5.43-3.67,8.71-4.25,1.8-.32,5.69,2.54,5.79,4.3.09,1.32-1.71,1.34-2.15,2.41-1.67,2.73-4.13,4.91-5.24,7.34C138.41,101.54,139.56,98.39,142.59,96.79Z"/><path class="cls-2" d="M190.49,262.32c10.58-1.54,17.84,4.28,24.6,11.22,1,1,1,1.58-.31,2.38A121.83,121.83,0,0,1,169.69,293c-1.18.2-1.77,0-2-1.37-.53-3.41-.86-6.89-2.77-9.94-.46-.74,0-1.6.35-2.37a36.73,36.73,0,0,1,11.92-14.93c2.18-1.68,4.91-1.89,7.55-2.05C186.66,262.22,188.56,262.32,190.49,262.32Z"/><path class="cls-2" d="M145.66,270.69a12,12,0,0,0-1.73,0c-2.73.57-4.52,0-6-2.83-1.69-3.11-5.37-4.28-8.33-6-1.4-.83-1.76-1.33-.76-2.75a87.82,87.82,0,0,1,8-10.39,3.49,3.49,0,0,1,3.05-1.22c4.21.31,8.42.6,12.64.69a9.58,9.58,0,0,1,5.27,1.76,75.48,75.48,0,0,1,15,13.27c.81.93,1.39,1.63.13,2.84-3.9,3.76-7.29,7.93-9.2,13.09-.37,1-.84.95-1.64.46a17.7,17.7,0,0,1-5-4C154,271.47,150,269.82,145.66,270.69Z"/><path class="cls-2" d="M125.57,262.17a5.11,5.11,0,0,1,1.28.09c3.77,1.7,7.48,3.54,10.21,6.78,1,1.18,1.58,2.48-.87,2.81a3.64,3.64,0,0,0-2,1c-4.64,4.79-9.78,9.28-11.3,16.21-.44,2-1.21,2.25-3.07,1.76a122.42,122.42,0,0,1-24.09-9c-3.23-1.63-3.75-4.72-1.26-7.45a9.15,9.15,0,0,1,3.6-2.59c8.39-3,16.36-7.08,25-9.22A22.48,22.48,0,0,1,125.57,262.17Z"/><path class="cls-2" d="M151.14,294.58a135.8,135.8,0,0,1-25.51-2.43c-1.56-.3-1.81-.81-1.47-2.28,1.56-6.75,6.47-11.17,11-15.84.93-1,2.39-1,3.68-1.32a46.24,46.24,0,0,1,10.38-.51,6.19,6.19,0,0,1,4.75,2.3,29.9,29.9,0,0,0,7.93,6.67c2.8,1.57,3.22,4.43,3.79,7.18,1.12,5.35,1.11,5.36-4.28,5.68C157.61,294.27,153.83,294.71,151.14,294.58Z"/><path class="cls-2" d="M181,244.86c2.86.29,5.86.44,8.67,1.51a170.89,170.89,0,0,1,16,7.36,13.12,13.12,0,0,1,2.41,1.73c1,.86,2.26,1.79,2.42,3.06.21,1.56-1.92,1.16-2.55,2.14-2,3.11-4.26,1.72-7,1.14-8.29-1.74-16.7-2.41-24.71,1.51-.82.4-1.15.16-1.63-.41a91.66,91.66,0,0,0-8.33-8.51c-.46-.43-1.22-.9-.35-1.56,4-3.12,7.7-6.87,13-7.82C179.54,244.9,180.21,244.91,181,244.86Z"/><path class="cls-2" d="M216.51,259.73a18.25,18.25,0,0,1,11.64,4.33c1,.79,1,1.35,0,2.09q-4.66,3.5-9.27,7.06c-.88.68-1.52.76-2.28-.18a41.22,41.22,0,0,0-8.72-7.69c-1.28-.9-1.16-1.53-.22-2.48C210.25,260.21,213.66,260,216.51,259.73Z"/><path class="cls-1" d="M193.63,246.26a28.26,28.26,0,0,0-8.78-2.43,1.33,1.33,0,0,1-1.44-1.57,33.94,33.94,0,0,0-2.34-11.82c-.41-1.18-.3-1.63,1.07-1.58,5.61.2,10.91,2,11.24,9.72C193.48,241,193.76,243.5,193.63,246.26Z"/><path class="cls-2" d="M78,271.05c4.68-5,12.52-5.17,19.07-.56-3,1.83-5.55,4-5.63,7.83,0,1.11-.68.86-1.34.47-1.28-.76-2.61-1.43-3.86-2.24C83.51,274.76,80.79,272.9,78,271.05Z"/><path class="cls-3" d="M176.64,242.86c-4.7-4.47-9.37-8.06-15.07-10.12,3.76-4.79,9.82-4.34,12.56.89A24.22,24.22,0,0,1,176.64,242.86Z"/><path class="cls-3" d="M103.7,263.8a3,3,0,0,1,0,.74c-.33,1.21,1.06,2.79-.9,3.66-2.41,1.06-4.74,1.8-7-.36-1-.94-.73-4.28.48-5.45,1.83-1.76,4.22-2.16,6.58-2.61.91-.17.87.43.86,1,0,1,0,2,0,3Z"/><path class="cls-4" d="M113.77,258.35c4.42-.11,8.53-.54,12.71,2.11-3.62.62-6.76,1-9.69,2.24-.72.3-1-.11-1.27-.71C115,260.87,114.47,259.79,113.77,258.35Z"/><path class="cls-5" d="M118,251.79h-7.47c.32-1.87,1.26-3.19,3.1-3.21C115.65,248.55,116.84,250,118,251.79Z"/><path class="cls-6" d="M106.8,262.91c0,1.06,0,2.13,0,3.19,0,.55-.24,1-.81,1-.73.06-.71-.55-.71-1,0-1.88,0-3.76,0-5.64,0-.78.3-1.31,1.17-1.15s.36.9.38,1.38c0,.73-.06,1.47-.1,2.2Z"/><path class="cls-7" d="M142.59,96.79a87.17,87.17,0,0,0-6.88,8.87A20.87,20.87,0,0,1,142,96.25Z"/><path class="cls-5" d="M108.87,260.49l2,3.38c.37.6.7,1.19-.3,1.53-.69.24-1.35,1-2,.63s-.3-1.19-.33-1.82c-.06-1.2,0-2.41,0-3.61Z"/><path class="cls-7" d="M118.69,109.7c1.5.87,3.22.92,4.83,1.51-1.92.58-3.77.61-5.4-1Z"/><path class="cls-8" d="M230.82,28.38c1.46-.68,2.39-1.21,3.38-1.58a8.46,8.46,0,0,1,11.44,9.47,16.14,16.14,0,0,1-3.42,7.33c-1.5,2-2.94,4-4.55,6.15-1.11-2.11-1.08-4.23-1.75-6.14a4.45,4.45,0,0,0-7.23-1.91c-.68.62-1,1-.1,1.92,2.33,2.39,1.94,4.89-1,6.4-1.28.66-1.1,1.12-.41,2,1.9,2.38,5.47,2.72,8.28.69a28.34,28.34,0,0,0,2.19-1.92,7.64,7.64,0,0,1,.36,8A7,7,0,0,1,231.25,63c-1.65-.07-2.34.21-2.26,2.06.11,2.64-1.27,4.75-3.09,6.55-2,2-4.35,3.52-6,6-1.52-2.32-3.58-3.76-5.41-5.42-2.31-2.1-3.89-4.56-3.78-7.77.07-1.9-1.17-1.35-2.14-1.38a7.89,7.89,0,0,1-7.35-10.43c.48-1.42.85-1.9,2.24-.59,2.92,2.74,6.61,2.75,8.85.31.81-.89,1.38-1.49-.3-2.33-2.8-1.39-3.16-4.08-.88-6.27,1.08-1,.55-1.43-.17-2a4.32,4.32,0,0,0-7,1.89c-.63,1.92-1,3.94-1.64,6.6-2.94-4.74-7-8-8-13.23-.64-3.47-.08-6.66,3-8.89a8.57,8.57,0,0,1,9.8-.54l1.86,1C208,24,208.54,20.15,211.37,17c2.59-2.9,6.06-4.89,8.44-8.25,2.15,2.73,4.89,4.71,7.35,7C230.71,19,232.06,23.09,230.82,28.38Z"/><path class="cls-8" d="M91.12,28.08c.79.27,1.21-.25,1.69-.52a8.66,8.66,0,0,1,10.21.62c2.81,2.14,3.71,5.91,2.46,10-1.39,4.48-4.9,7.57-7.51,11.65-1.15-2.09-1.1-4.19-1.74-6.07a4.39,4.39,0,0,0-7.17-2.06c-.72.62-1.22,1-.14,2.05C91.2,45.85,90.81,48.56,88,50c-1.7.85-1.06,1.47-.27,2.33C90,54.73,93.66,54.7,96.59,52c1.42-1.32,1.77-.77,2.23.62A7.82,7.82,0,0,1,91.46,63c-1.5,0-2.19.15-2.16,1.93,0,2.79-1.4,5-3.39,6.93s-4.15,3.29-5.72,5.68c-1.82-2.32-4.06-4-6.08-5.93a8.9,8.9,0,0,1-3.13-7c.07-1.39-.47-1.56-1.71-1.58-6.66-.09-10-5.87-7-12,.93.07,1.22,1,1.86,1.46,2.15,1.58,4.44,2.22,7,1s2.51-2.32.49-3.81a3.64,3.64,0,0,1-.34-5.8c1.33-1.22.66-1.71-.26-2.39a4.37,4.37,0,0,0-6.85,2.16c-.68,1.92-.68,4-1.77,6.25-2.7-4.34-6.59-7.57-7.75-12.54-.89-3.8-.16-7.14,3.16-9.47s6.84-2,10.24.06a8,8,0,0,1,.78.61c.51-.68.19-1.31.09-1.9-.69-4.4.9-7.95,4-10.9,2.41-2.25,5.14-4.17,7.25-7A28.07,28.07,0,0,0,86,14.43C90.43,18,92.51,22.4,91.12,28.08Z"/><path class="cls-8" d="M132.3,50.76a9.48,9.48,0,0,0,4.11,3,5.56,5.56,0,0,0,6-1.38c.81-.8,1.71-1.55-.28-2.41-2.63-1.13-3.06-4.06-1-6.12,1.09-1.08.74-1.55-.16-2.27a4.29,4.29,0,0,0-6.88,1.89c-.68,2-1.08,4.11-1.72,6.6-2.42-3.56-5.21-6.43-7-10-3.06-6.24-.62-12.23,5.41-13.64,3-.7,5.51.46,8.29,2.23-1.82-6.77,1.24-11.23,6-15,1.77-1.43,3.36-3.08,5-4.64a30.71,30.71,0,0,0,4.77,4.63c3.77,3.08,6.91,6.51,6.54,11.86-.07.9-.22,1.79-.37,2.95.63-.32,1.17-.56,1.68-.84,3.54-2,7-1.87,10.19.66s3.41,5.83,2.55,9.47c-.63,2.67-2.25,4.76-3.83,6.88l-4,5.41c-.62-2.42-1-4.51-1.69-6.5a4.33,4.33,0,0,0-7.06-1.8c-.63.58-1.11,1-.2,1.94,2.4,2.55,2,4.79-1.18,6.49-1,.55-.85.95-.38,1.66a5.81,5.81,0,0,0,6.66,1.89,9.75,9.75,0,0,0,4-3,7.89,7.89,0,0,1,.64,7.57c-1.21,2.91-3.49,4.76-6.7,4.65-2.09-.08-2.57.53-2.61,2.48-.06,3-1.88,5.2-4,7.13-1.71,1.52-3.34,4.35-5,4.36s-3.3-2.84-5-4.34c-2.57-2.21-4.34-4.83-4.19-8.32.07-1.61-.85-1.22-1.71-1.24C132.5,62.87,129,56.71,132.3,50.76Z"/><path class="cls-9" d="M204.29,153.19c-2.25,1.09-4.33,2.11-5.85,3.93-1,1.19-2.13,2.9-1,4a18.11,18.11,0,0,0,3.87,3.07c1.2.65,2.59.16,3.84-.36l1.13-.48c2.21,6.43-.71,10.68-7.34,11-6.06.27-11-2.69-16-5.42-1.51-.83-1.52-2.2-.13-3.21,3-2.24,4.47-5.4,5.55-8.87.66-2.13,1.29-4.22,4.12-4.93,2.12-.53,3.21-2.77,4.16-4.72a30.11,30.11,0,0,0,2.48-5.94c.54-2.24,3.44-2.8,3.39-5.31,0-.11.71-.42.83-.32,1.75,1.43,3.73.74,5.89.46-.85,2.08-1.64,3.89-.66,5.91a.88.88,0,0,1-1,1.23c-1.59-.28-3-.27-3.76,1.47-.1.2-.56.33-.85.34-1.78.09-3,.76-3.29,2.69a4.18,4.18,0,0,0,2.46,4.46C202.74,152.51,203.43,152.78,204.29,153.19Z"/><path class="cls-10" d="M121.31,136.42c3.48,1.92,6,.35,8.37-2.36a5,5,0,0,1-2.42,3.54c-2.06,1.55-2.23,3.63-.31,5.33a5.5,5.5,0,0,0,6,1.13,9.85,9.85,0,0,0,6.27-6.26c3.39,2.62,4.92,2.52,9-.55,1.33,3.58-.54,11.85-3.23,14.34a4,4,0,0,1-2.31.73,13.83,13.83,0,0,0-8.33,4.35c-4.19-6.77-11.33-6.11-17.78-7.2-1.3-.22-2.62-.4-3.89-.74-1-.25-2.11-.74-2.29-1.73-.79-4.43-3.57-8.39-3.14-13.1a4.23,4.23,0,0,1,.18-.7l.48.05c-.09,2.93,1.71,4.3,4.14,5.28a8.27,8.27,0,0,1,3,2.56,2.36,2.36,0,0,0,2.64.93c1.36-.54-.29-1.53.13-2.32.9-.59,3,.79,2.81-1.63C120.45,137.35,120,136.52,121.31,136.42Z"/><path class="cls-10" d="M155.94,161.43a13.39,13.39,0,0,1,8.6-5.54c.7-.17,1.44-.11,2-.86,2.72-4,2.74-4,6.75-5.48-1.92,0-3.33-.11-4.72,0a33.32,33.32,0,0,0-4.63.84c-1.42.36-2.79.91-4.87,1.61,3.91-5.18,7.67-9.38,13.88-10.26a6.75,6.75,0,0,1,5.29,1.68,13.14,13.14,0,0,0,2.61,1.84c2,.9,2.93.27,3.06-1.95a5.09,5.09,0,0,1,1.31-3.59c-1.2,3.94,1.1,7.53.92,11.34-.3,6-4.1,9.9-8.55,13.29a2.72,2.72,0,0,1-2.85.25A35.29,35.29,0,0,0,155.94,161.43Z"/><path class="cls-11" d="M85.83,154a33,33,0,0,0,13.79-.69A12.77,12.77,0,0,1,95,158.84a19,19,0,0,0-4.43,4.24c-1.87,2.35-6.22,2.84-8.5,1-.39-.3-.85-.8-.31-1.21,1.17-.88,1.59-2.31,2.57-3.29C86.63,157.29,86.66,157.32,85.83,154Z"/><path class="cls-12" d="M158.45,128.57c-3.81,3.82-3,8.11,1.92,10.2.75.32,1.58.48,2.35.76s2.05-.1,2.17,1.15-1.08,1.07-1.74,1.42a28.66,28.66,0,0,0-7.05,5.44c-.43.44-.8,1.18-1.62.7s-.49-1.14-.4-1.78c.63-4.39,1.78-8.71,1-13.26-.35-2.14.83-4,2.74-5.21C158.36,127.85,158.52,128.09,158.45,128.57Z"/><path class="cls-13" d="M69,169.36c2.6-.33,4.89-.61,7.17-.91.56-.08,1.5-.09,1.39-.72-.44-2.64,1.35-1.41,2.33-1.39,2.6.07,5.27-.16,7.76,1.08C81,175.36,76,175.94,69,169.36Z"/><path class="cls-14" d="M187.84,144.25c.11-1.4.13-2.81.36-4.18.29-1.66,1.11-2.22,2.48-.82s2.6,2.53,4.49.5c.72-.78,1.57-.07,1.45,1a11.33,11.33,0,0,1-4.37,8.26,3.34,3.34,0,0,1-3.53.27c-1.19-.56-1-1.77-1-2.84,0-.74.08-1.48.11-2.22Z"/><path class="cls-15" d="M105.22,133.16c.23,2,.48,3.81.64,5.6.13,1.41-.58,2-2,1.73-3.17-.6-8.59-7.77-8.47-11.4,1.24,1,2.49,1.92,3.14-.55C100.85,133.84,101.25,134.12,105.22,133.16Z"/><path class="cls-13" d="M209.7,166.55c-.18-.89-.44-1.77-.53-2.66-.06-.64-1-1.39,0-1.94a2,2,0,0,1,2.14.07c1.61,1.41,3.08,2.83,5.34,3.36.86.2.91,2,.73,3.15a2.79,2.79,0,0,1-2.09,2.51,22.78,22.78,0,0,0-5.09,1.82c-1.6.85-1.63-.67-1.64-1.74C208.59,169.53,209.87,168.22,209.7,166.55Z"/><path class="cls-16" d="M219.27,164.26c1.36.71,2.52,1.31,3.14-.47a1.21,1.21,0,0,1,1.11-.29c2.68,1.11,4.79-.36,7-1.5a8.84,8.84,0,0,1-7.3,8.19c-2.41.36-3.25-.31-3.53-2.8C219.58,166.49,219.45,165.6,219.27,164.26Z"/><path class="cls-17" d="M235.64,160.46c2,0,2.64.92,2,2.66-1,2.83-2.15,5.61-5.7,6.09-.82.12-1.68.29-2.23-.58s0-1.43.4-2a7.83,7.83,0,0,0,1.5-3.08C232,161.11,234,160.87,235.64,160.46Z"/><path class="cls-18" d="M238.62,167.76c-.51-2.15.34-3.8,1.09-5.52.92-2.13,3.19-1,4.75-2.65A10.73,10.73,0,0,1,238.62,167.76Z"/><path class="cls-7" d="M134.12,211.73c.28,3.22,2.58,4.71,4.79,6.36a9.42,9.42,0,0,1,4,7.23c-.59.13-.84,0-.92-.41a11.7,11.7,0,0,0-5.44-7.35C134.51,216.26,133.33,214.38,134.12,211.73Z"/><path class="cls-19" d="M139.08,224a6.7,6.7,0,0,1,1.08,1.33,10.47,10.47,0,0,0,9.26,6.71c.17,0,.32.29.52.47-2.9.82-6.88-.76-8.72-3.49-1-1.43-1.81-2.94-2.7-4.41C138.35,224.05,138.59,223.9,139.08,224Z"/><path class="cls-20" d="M157,126.33c-.93.45-1.91.83-2.79,1.36a6.31,6.31,0,0,0-3,5.39c0,.38.06.89-.57.89-.41,0-.48-.33-.55-.68C149.45,129.92,153.23,125.81,157,126.33Z"/><path class="cls-21" d="M141.72,175.6c-.81-2.92-.35-5.8.23-8.68A16.4,16.4,0,0,1,141.72,175.6Z"/><path class="cls-22" d="M143.5,100.66c3-3.81,5.83-5.67,8.51-5.24-3.28,1.14-5.64,3.44-7.93,5.84C143.57,101.37,143.35,101.19,143.5,100.66Z"/><path class="cls-23" d="M154,98.28c-2.42,2.17-4.73,4.45-7,6.78a19.48,19.48,0,0,1,6.4-7.35C153.91,97.54,154.07,97.78,154,98.28Z"/><path class="cls-7" d="M160,98.74a18.86,18.86,0,0,0-7.61,7C152.53,102.37,156.28,99.11,160,98.74Z"/><path class="cls-24" d="M121.31,136.42c-.63.39-.57,1.05-.66,1.65-.87-2.11-3.06-3.5-3.21-6,0-.71-.49-1.79.4-1.9s.68,1.08.73,1.7C118.73,133.87,120.05,135.12,121.31,136.42Z"/><path class="cls-22" d="M193.14,109.3a26.26,26.26,0,0,0-.06,9.68C191.13,116.62,191.11,111.51,193.14,109.3Z"/><path class="cls-25" d="M138.69,178.1v-8.57h.64a31.53,31.53,0,0,1,0,8.57Z"/><path class="cls-26" d="M144.71,173.57v-8.16l.68,0a44.49,44.49,0,0,1,0,8.16Z"/><path class="cls-27" d="M147.2,171.12c.1-2.05.2-4.11.31-6.16h.72a13.07,13.07,0,0,1-.19,6.21Z"/><path class="cls-22" d="M154,98.28l-.62-.57a15,15,0,0,1,5.85-3.59l.37.52Z"/><path class="cls-28" d="M135.91,181.47l.35-7.13A7,7,0,0,1,135.91,181.47Z"/><path class="cls-29" d="M143.5,100.66l.58.6c-1,1.42-1.94,2.84-2.93,4.25,0,0-.15,0-.69,0A12.3,12.3,0,0,1,143.5,100.66Z"/><path class="cls-30" d="M144.39,225.58l4.1,4.12C145.92,229.41,145,228.06,144.39,225.58Z"/><path class="cls-31" d="M139.08,224l-.56.61c-.07-.05-.18-.07-.21-.13-.51-.94-2.53-1.7-1.72-2.42S138.35,223.11,139.08,224Z"/><path d="M150.65,166.12a4.47,4.47,0,0,1,0,3.93C149.91,168.74,150,167.78,150.65,166.12Z"/><path class="cls-32" d="M158.45,128.57l-.61-.58a2.29,2.29,0,0,1,2.27-1C160.08,128.25,159.09,128.21,158.45,128.57Z"/><path class="cls-33" d="M219.17,28c0,4.28,0,8.57,0,12.86,0,.69.43,1.75-1,1.78-1,0-1.7-.14-2-1.28a52.46,52.46,0,0,0-4.45-10.2c-3.1-6-2.22-10.62,2.79-15.09,1.78-1.59,3.61-4.37,5.41-4.36s3.63,2.78,5.43,4.37c4.94,4.37,5.85,8.94,2.85,14.87a56.39,56.39,0,0,0-4.56,10.42c-.33,1.21-1,1.26-2,1.27-1.45,0-1-1-1-1.74,0-4.28,0-8.57,0-12.85Z"/><path class="cls-33" d="M220.08,61.26c.15-3,.27-6,.47-9,0-.62-.45-1.57.78-1.74,1-.13,1.2.57,1.44,1.31a57.86,57.86,0,0,0,3.64,8.12c2.16,4.41,1.45,7.8-2.17,11.16-4.36,4-4.36,4-8.65.1-3.76-3.46-4.45-6.8-2.21-11.34A58,58,0,0,0,217,51.68c.21-.69.4-1.23,1.27-1.2,1.23,0,.86,1,.9,1.64.19,3,.33,6.09.48,9.13Z"/><path class="cls-33" d="M201.49,46.47c-2.4-3.52-5.42-6.26-5.9-10.48-.3-2.72.18-5.14,2.53-6.82a7.14,7.14,0,0,1,7.93-.52c4.17,2.11,6,6,7.54,10,.47,1.23,1.83,3,.85,3.72s-1.7-1.3-2.62-2A5.89,5.89,0,0,0,202.49,43C202.13,44,201.9,45,201.49,46.47Z"/><path class="cls-33" d="M238.13,46.14c-.25-1-.45-1.92-.74-2.84A5.88,5.88,0,0,0,227.32,41a11.5,11.5,0,0,0-.94,1.15.94.94,0,0,1-1.07.42c-.55-.21-.35-.71-.23-1.05,1.7-4.54,3.08-9.29,7.46-12.2,3-2,6.09-2.15,8.8-.35,2.52,1.67,3.43,4.51,2.61,8.13C243.35,39.72,241,43.42,238.13,46.14Z"/><path class="cls-34" d="M219.59,49c-1.9,0-3.8,0-5.69,0-1.46-.05-2.66-.72-2.7-2.31s1.15-2.48,2.75-2.49q5.94-.06,11.88,0c1.47,0,2.63.66,2.68,2.29.06,1.79-1.18,2.45-2.74,2.51C223.71,49,221.65,49,219.59,49Z"/><path class="cls-35" d="M223.93,50.05c4.67,6.22,6.81,6.73,13.12,3.65a6,6,0,0,1-3.51,7.36c-2.85,1.18-4.65.51-6-2.21A36.58,36.58,0,0,1,223.93,50.05Z"/><path class="cls-35" d="M215.38,51.14a33,33,0,0,1-4.23,9.57c-.75,1.31-2.58.92-3.93.68a6.13,6.13,0,0,1-4.6-7.65C209,56.53,210.58,56.26,215.38,51.14Z"/><path class="cls-33" d="M80,27.21c-.18,4.54-.33,9.08-.55,13.62,0,.67.52,1.76-.94,1.82-1.09,0-1.77-.12-2.14-1.41a49.75,49.75,0,0,0-4.25-9.73c-3.36-6.33-2.48-11,2.85-15.65l.75-.66c1.5-1.28,3-3.57,4.49-3.54s3,2.31,4.48,3.63c6.23,5.58,7,9.69,3,17a45.76,45.76,0,0,0-3.8,8.85,1.74,1.74,0,0,1-2.1,1.49c-1.42-.1-1-1.13-1-1.82-.2-4.54-.34-9.09-.5-13.63-.34-.7,0-1.46-.23-2.14A4,4,0,0,1,80,27.21Z"/><path class="cls-33" d="M80.35,61.25c.15-3,.27-5.93.48-8.89,0-.68-.48-1.79.91-1.88,1.06-.07,1.1.76,1.33,1.45a55.32,55.32,0,0,0,3.34,7.46c2.5,5,1.87,8.24-2.2,12s-4,3.71-8.1,0-4.75-7-2.27-11.94A52.32,52.32,0,0,0,77.16,52c.24-.75.34-1.69,1.55-1.5s.7,1.14.74,1.76c.19,3,.3,5.92.44,8.88Z"/><path class="cls-33" d="M98.51,46.54c-.35-1.35-.56-2.32-.86-3.25A5.88,5.88,0,0,0,87.57,41c-.4.42-.7.94-1.12,1.33a1.14,1.14,0,0,1-.88.22c-.67-.14-.32-.65-.2-1,1.6-4.51,3-9.15,7.2-12.1,3.19-2.24,6.39-2.37,9.21-.39,2.53,1.77,3.37,5.05,2.25,8.71C103,41.06,100.6,43.38,98.51,46.54Z"/><path class="cls-33" d="M61.77,46.51c-2.45-3.57-5.33-6.28-5.92-10.37-.38-2.63.11-5,2.22-6.71a6.85,6.85,0,0,1,7.43-1.15,12.34,12.34,0,0,1,6.13,5.54,41.73,41.73,0,0,1,3.05,7c.18.55.84,1.26,0,1.69-.65.31-1-.38-1.33-.84a6.43,6.43,0,0,0-3.59-2.5,5.8,5.8,0,0,0-7.06,3.92C62.35,44.06,62.16,45,61.77,46.51Z"/><path class="cls-34" d="M80.16,44.13h5.69c1.58,0,2.86.6,3,2.31s-1.18,2.48-2.75,2.5c-4,.06-7.91.07-11.87,0-1.56,0-2.78-.76-2.69-2.54.09-1.63,1.26-2.23,2.73-2.26C76.2,44.1,78.18,44.13,80.16,44.13Z"/><path class="cls-35" d="M62.72,53.63c6.7,3.11,8.87,2.59,13.13-3.35a9.57,9.57,0,0,1-1.1,3.86c-.46,1.14-1,2.24-1.62,3.33-2.08,4.05-3.19,4.72-6.16,3.79S62.36,57.58,62.72,53.63Z"/><path class="cls-35" d="M85.86,52.56c3.38,3.4,6.06,3.88,10.36,1.58,1.33-.71,1.5-.33,1.53.89a6.41,6.41,0,0,1-7.58,6.39c-.66-.13-1.34-.3-1.61-1-.93-2.36-2.56-4.4-3.15-6.92C85.07,53,85,52.53,85.86,52.56Z"/><path class="cls-36" d="M85.86,52.56l-.45,1a4.63,4.63,0,0,1-1-3C85.36,51,85.54,51.84,85.86,52.56Z"/><path class="cls-37" d="M80,27.21V24.5a4.19,4.19,0,0,1,.36,2.71Z"/><path class="cls-33" d="M149.58,34.17c-.06,2.23-.11,4.46-.21,6.68,0,.76.27,1.77-1.07,1.79-.94,0-1.67,0-2-1.21a60,60,0,0,0-4.66-10.62c-2.91-5.72-2-10.36,2.85-14.65,1.83-1.63,3.72-4.31,5.65-4.38,1.75-.06,3.62,2.77,5.39,4.38,4.87,4.41,5.76,9,2.74,14.87a56.46,56.46,0,0,0-4.55,10.4c-.34,1.23-1.07,1.23-2,1.21-1.34,0-1-1-1.07-1.79-.1-2.22-.14-4.45-.21-6.68a4,4,0,0,1-.42-2.42v0A4.07,4.07,0,0,1,149.58,34.17Z"/><path class="cls-33" d="M150.42,57.48c.06-1.9.12-3.8.19-5.7,0-.56,0-1.18.79-1.29a1.18,1.18,0,0,1,1.43,1c.91,3.21,2.64,6,4,9,1.73,3.79,1,7.28-2,10.17-4.79,4.62-4.79,4.62-9.6,0-3-2.89-3.77-6.39-2-10.16,1.38-3,3.09-5.84,4-9,.2-.71.6-1.14,1.42-1,1,.16.77.93.8,1.54.09,1.82.13,3.64.19,5.45a1.72,1.72,0,0,1,.38.82C150.16,58.05,150.19,57.71,150.42,57.48Z"/><path class="cls-33" d="M131.42,46.18c-2.52-3.61-5.83-6.64-5.8-11.46a6.81,6.81,0,0,1,9.23-6.6,11.79,11.79,0,0,1,6.51,5.46,33.87,33.87,0,0,1,3.24,7.49c.15.47.82,1.09,0,1.49-.6.31-1-.2-1.38-.72a6.14,6.14,0,0,0-3.76-2.66c-3.19-.72-5.85.89-7,4C132.18,44.12,132.32,45.19,131.42,46.18Z"/><path class="cls-33" d="M168.6,46.17c-.9-.85-.74-1.77-1-2.53-.64-2.25-1.88-3.89-4.22-4.4A6,6,0,0,0,157,41.47a4.84,4.84,0,0,1-.77,1,1.13,1.13,0,0,1-.93.13c-.36-.13-.28-.52-.16-.84,1.68-4.48,3-9.16,7.19-12.16,3.16-2.27,6.39-2.46,9.23-.52,2.63,1.81,3.45,4.91,2.36,8.67C173,41,170.54,43.32,168.6,46.17Z"/><path class="cls-34" d="M150,49c-2,0-4,0-5.94,0-1.46-.05-2.63-.71-2.65-2.34s1.14-2.46,2.75-2.47c3.87,0,7.75,0,11.63,0,1.58,0,2.86.58,2.9,2.33,0,1.91-1.34,2.48-3,2.5-1.89,0-3.79,0-5.69,0Z"/><path class="cls-38" d="M155.45,52.05c3.36,4.1,6.17,4.5,11.68,1.65a6,6,0,0,1-3.9,7.54c-2.7.88-4.26.23-5.51-2.33-1-2.06-2.28-4-2.82-6.27C154.67,52.07,155,52,155.45,52.05Z"/><path class="cls-38" d="M145.1,52.64c-.71,2.83-2.44,5.19-3.55,7.83-.35.8-1.13.87-1.85,1-4.45.67-7.63-2.81-7-7.84,2.06,1,4,2.2,6.43,1.89a7.63,7.63,0,0,0,5.44-3.45C145,52,145.33,52.06,145.1,52.64Z"/><path class="cls-39" d="M150.42,57.48c0,1,.53,2.07-.71,2.81a5.84,5.84,0,0,1-.13-2.81Z"/><path class="cls-40" d="M150.42,31.68v2.49h-.84V31.68A.5.5,0,0,1,150.42,31.68Z"/><path class="cls-41" d="M155.45,52.05l-.55.59a2.86,2.86,0,0,1-.68-2C155.27,50.64,155.16,51.52,155.45,52.05Z"/><path class="cls-42" d="M145.1,52.64l-.55-.59c.18-.58.27-1.22,1.13-1.56A2.36,2.36,0,0,1,145.1,52.64Z"/><path class="cls-1" d="M198,148.17a6.39,6.39,0,0,0,2.78,5c-1.75,1.4-3.55,2.61-4.55,4.6-1.28,2.54-.53,3.94,1.66,5.7s4,3.13,6.79,2.1c.54-.19.66.22.78.66A5.37,5.37,0,0,1,202,172.3a15.33,15.33,0,0,1-9-.29,66.93,66.93,0,0,1-8.52-3.92c-1-.47-1.24-1-.19-1.71,3-2.2,4.42-5.43,5.47-8.88.57-1.9,1.22-3.53,3.52-4.27C195.28,152.57,196.39,150.46,198,148.17Z"/><path class="cls-43" d="M199.66,144.21c.37-2.57,2.32-4.18,3.84-6.09.82-1,1.6.16,2.41-.07.64-.18.88.32.72.89-.24.83.48,2.35-.31,2.43C203.71,141.63,202.22,144.31,199.66,144.21Z"/><path class="cls-1" d="M147.37,140a20.53,20.53,0,0,1-2.83,9.66,2.4,2.4,0,0,1-2,1.23,16.32,16.32,0,0,0-6.88,2.64c-.54.35-1,.86-1.68.11-3.68-3.92-8.66-4.49-13.59-5.17-2.21-.3-4.43-.59-6.63-1-1.47-.23-2.5-1-2.36-2.65.18-2.12-1.7-3.54-1.84-5.79a7.84,7.84,0,0,1,4.18,2.82,4.83,4.83,0,0,0,4.15,1.81c.68,0,1.65-.17,1.65-.82,0-2,2.59-2,2.65-3.84,0-.59.59-.37,1-.31.67.09.85.44,1,1.14.82,4.91,4.9,7.33,9.4,5.6,2.52-1,4.15-3.42,6.28-4.56C141.6,139.92,144.68,141.6,147.37,140Z"/><path class="cls-1" d="M159.74,159.73c2.39-1.92,4.65-2.28,6.89-2.73.54-.1,1.48.32,1.43-.79-.16-3.31,2.18-4.19,4.7-4.71,1.25-.27,2.12-.3,2-2s-1.28-1.53-2.41-1.55a42.84,42.84,0,0,0-8.68.93c2.93-3.12,5.79-5.26,9.68-5.61a5.42,5.42,0,0,1,4.27,1.66c1.5,1.41,3.17,2.42,5.32,2.18,1.15-.13,1.34.42,1.49,1.39a11.32,11.32,0,0,1-1.32,7.89,30,30,0,0,1-3,3.93c-2.22,2.56-4.3,3.66-7.84,1.79S164.49,159.78,159.74,159.73Z"/><path class="cls-4" d="M96.42,155.9A33,33,0,0,0,88.51,163c-1.06,1.39-2.75.81-3.84.1s.18-2,.63-2.28c1.56-1.16,3.16-2,2.79-4.44-.12-.78.86-.47,1.36-.48C91.5,155.88,93.55,155.9,96.42,155.9Z"/><path class="cls-44" d="M156.82,138.58a18.44,18.44,0,0,0,5.14,2.26,43,43,0,0,0-6.19,5C156.16,143.1,156.48,140.92,156.82,138.58Z"/><path class="cls-45" d="M84.91,167.88c-3.62,5.24-6.52,5.82-11.74,2.62,2.33-.66,4.79-.28,6.6-2.49C80.42,167.21,82.86,167.88,84.91,167.88Z"/><path class="cls-45" d="M189.63,140.65c1.7,1.26,3.18,2.07,5.14,1.62a9.35,9.35,0,0,1-2.89,5.2,2,2,0,0,1-2.25.52c-.75-.36-.36-1.17-.34-1.78C189.35,144.5,189.49,142.8,189.63,140.65Z"/><path class="cls-46" d="M100.22,134.55c.27.13.55.39.8.37,3-.29,3.56,1.37,3.19,4.05a13.87,13.87,0,0,1-4.45-3.84C99.52,134.62,99.82,134.56,100.22,134.55Z"/><path class="cls-47" d="M98.79,134.09a2.89,2.89,0,0,1-.64-.67c-.23-.44-1-.93-.45-1.37.81-.62,1,.4,1.34.84a2.84,2.84,0,0,1,.31.63A.63.63,0,0,1,98.79,134.09Z"/><path class="cls-48" d="M98.79,134.09l.56-.57c.38.27.82.49.87,1l-.46.58Z"/><path class="cls-5" d="M210,171.12c.81-2.42,1.65-4.48.48-7.05,2.09.83,3.43,2,5.07,2.7,1.1.44.35,2.66-1.09,3A27,27,0,0,0,210,171.12Z"/><path class="cls-49" d="M227.52,165.39c-.88,2.68-3,3.15-5.2,3.39-.55.06-1-.13-1.07-.74a1.52,1.52,0,0,1,.54-1.45C223.45,164.92,225.41,165.37,227.52,165.39Z"/><path class="cls-50" d="M231.27,167.24c2-1.7,1.1-5.47,4.79-5.22C235.7,165.57,234.32,167.24,231.27,167.24Z"/><path class="cls-51" d="M241.47,162.7c.08.17.29.41.23.53-.17.43-.43.84-1,.83a1,1,0,0,1,0-.6C240.87,163.18,240.81,162.62,241.47,162.7Z"/><path class="cls-52" d="M149.56,25.23l0-2.48a.56.56,0,0,1,.92,0l0,2.48A.58.58,0,0,1,149.56,25.23Z"/><path class="cls-53" d="M150.42,31.68h-.84V29.2a.5.5,0,0,1,.84,0Z"/><path class="cls-54" d="M149.56,25.23h.88c0,.66,0,1.32,0,2a.55.55,0,0,1-.85,0Z"/><path class="cls-55" d="M149.58,27.21h.85c0,.67,0,1.33,0,2h-.84Z"/><path class="cls-56" d="M149.52,20.75c.09-.57-.28-1.27.48-1.68.76.41.39,1.11.48,1.68A.65.65,0,0,1,149.52,20.75Z"/><path class="cls-57" d="M149.52,20.75h1c0,.67,0,1.33,0,2h-.92C149.54,22.08,149.53,21.42,149.52,20.75Z"/><path class="cls-58" d="M149.54,66.43c.05-.61-.23-1.56.67-1.51.52,0,.2,1,.25,1.51A.56.56,0,0,1,149.54,66.43Z"/><path class="cls-59" d="M149.54,66.43h.92c0,.45.21,1.17-.46,1.17S149.59,66.88,149.54,66.43Z"/></svg>