<svg id="Layer_1" data-name="Layer 1" xmlns="http://www.w3.org/2000/svg" viewBox="0 0 300 300"><defs><style>.cls-1{fill:#e21a1e;}.cls-2{fill:#dfe0e1;}.cls-3{fill:#e11a1e;}.cls-4{fill:#190c0c;}.cls-5{fill:#180e0e;}.cls-6{fill:#190d0d;}.cls-7{fill:#190e0e;}.cls-8{fill:#220405;}.cls-9{fill:#1a0d0d;}.cls-10{fill:#140606;}.cls-11{fill:#100707;}.cls-12{fill:#150b0b;}.cls-13{fill:#0d0808;}.cls-14{fill:#140b0b;}.cls-15{fill:#0e0808;}.cls-16{fill:#0f0909;}.cls-17{fill:#0e0606;}.cls-18{fill:#0e0601;}.cls-19{fill:#120a0a;}.cls-20{fill:#0e0a0a;}.cls-21{fill:#0e0505;}.cls-22{fill:#170c0d;}.cls-23{fill:#140a0b;}.cls-24{fill:#120b0b;}.cls-25{fill:#100701;}.cls-26{fill:#1b0e0e;}.cls-27{fill:#100808;}.cls-28{fill:#100809;}.cls-29{fill:#180a0b;}.cls-30{fill:#0d0505;}.cls-31{fill:#170c0c;}.cls-32{fill:#170d0d;}.cls-33{fill:#170a0a;}.cls-34{fill:#16090a;}.cls-35{fill:#130b01;}.cls-36{fill:#150b0c;}.cls-37{fill:#1a0f0f;}.cls-38{fill:#160b0b;}.cls-39{fill:#110a0a;}.cls-40{fill:#210d0d;}.cls-41{fill:#1c0c03;}.cls-42{fill:#0c0b0b;}.cls-43{fill:#170b0c;}.cls-44{fill:#180c02;}.cls-45{fill:#150c0c;}.cls-46{fill:#130a0a;}.cls-47{fill:#0b0b0b;}.cls-48{fill:#160c0c;}.cls-49{fill:#160d0d;}.cls-50{fill:#18090a;}.cls-51{fill:#190404;}.cls-52{fill:#190909;}.cls-53{fill:#1b0f10;}.cls-54{fill:#1b0f0f;}.cls-55{fill:#110909;}.cls-56{fill:#1f0c0d;}.cls-57{fill:#110303;}.cls-58{fill:#1d0f0f;}.cls-59{fill:#180b0b;}.cls-60{fill:#150a0b;}.cls-61{fill:#1c1010;}.cls-62{fill:#1b0d03;}.cls-63{fill:#1b0d02;}.cls-64{fill:#170b0b;}.cls-65{fill:#1b0d0d;}.cls-66{fill:#1b0f02;}.cls-67{fill:#1c1111;}.cls-68{fill:#121111;}.cls-69{fill:#2e1717;}.cls-70{fill:#040202;}.cls-71{fill:#0a0707;}.cls-72{fill:#0a0505;}.cls-73{fill:#180c0c;}.cls-74{fill:#1a0e0e;}.cls-75{fill:#140708;}.cls-76{fill:#190c0d;}.cls-77{fill:#130707;}.cls-78{fill:#140c0d;}.cls-79{fill:#191010;}.cls-80{fill:#120e0e;}.cls-81{fill:#dddedf;}.cls-82{fill:#1f1f1f;}.cls-83{fill:#171515;}.cls-84{fill:#dadbdc;}.cls-85{fill:#171717;}.cls-86{fill:#f5c10e;}.cls-87{fill:#181818;}.cls-88{fill:#212121;}.cls-89{fill:#1b1b1c;}.cls-90{fill:#de191d;}.cls-91{fill:#100202;}.cls-92{fill:#c8171a;}.cls-93{fill:#e01a1e;}.cls-94{fill:#161616;}.cls-95{fill:#1c1d1d;}.cls-96{fill:#1b1b1b;}.cls-97{fill:#222;}.cls-98{fill:#151515;}.cls-99{fill:#030000;}.cls-100{fill:#190303;}.cls-101{fill:#020000;}</style></defs><path d="M22-.61H278a1,1,0,0,1,1,1v171A128.64,128.64,0,0,1,150.36,300h0A129.36,129.36,0,0,1,21,170.63V.38a1,1,0,0,1,1-1Z"/><path class="cls-1" d="M150,121.76q-60.94,0-121.9.07c-2.95,0-3.65-.79-3.64-3.68q.15-55,0-110.07c0-2.68.47-3.56,3.42-3.56q122.07.14,244.12,0c2.85,0,3.49.71,3.49,3.5q-.15,54.88,0,109.75c0,3.09-.55,4.08-3.92,4.07C231,121.71,190.51,121.76,150,121.76Z"/><path class="cls-2" d="M65.45,234.38l-1.83,2.09c.27.21.42.43.58.44,4.44.16,4.44.15,4.44,4.58v22.08c-1.29.45-1.76-.67-2.36-1.23-27-25.42-41.84-56.23-41.78-93.7,0-14.08.06-28.15-.05-42.23,0-2.27.6-2.78,2.82-2.78q122.69.09,245.38,0c2.22,0,2.83.51,2.82,2.78-.12,15.78.37,31.58-.18,47.35-1.24,35.89-16.4,65.34-42.6,89.44a4.71,4.71,0,0,1-.78.54c-.07,0-.19,0-.63-.1,0-8.41,0-16.89,0-25.36,0-1.23.62-1.38,1.59-1.34s2.11,0,3.76,0c-.9-1.08-1.51-1.83-2.13-2.58-2-.46-2.49-2.53-3.94-3.57-.71-1.11-1.61-2.09-2.38-3.16a7.48,7.48,0,0,1-1.07-4.27c0-11.94,0-23.88,0-35.83,0-2.37.58-4.15,2.76-5.21-.57-3.63-2.75-6.5-4.5-9.57-1.7-3.24-3.09-6.66-5.18-9.7-1.59-3.12-3.06-6.29-4.73-9.36a3.7,3.7,0,0,1-.14-3.59c1.7-3.91,1.25-5.29-2.21-7.72-2.08-1.39-2-3.5-1.39-5.43s2.64-1.39,4.18-1.43c2.66-.07,5.32-.11,8,0s3.33-1.1,3.31-3.49c0-2.23-.42-3.72-3.14-3.63-3.3.12-6.6.13-9.9,0-1.84-.08-2.52.63-2.39,2.4.18,2.66-.22,5.3-.29,8,0,1.33-.14,2.56-1.46,3.29-3.89,2.22-4.56,3.95-2.77,8a4.88,4.88,0,0,1-.27,4.76q-6.21,11.64-12.42,23.29A11,11,0,0,0,193,182c2.52,1.77,2.83,4.26,2.8,7.15-.14,11.23-.07,22.46-.05,33.7a8.07,8.07,0,0,1-1.08,4.86c-2.06,2.28-3.37,5.26-6.3,6.72l-1.83,2.08c.27.22.42.44.57.45,4.45.16,4.45.16,4.45,4.55,0,14.27-.06,28.54.07,42.8,0,2.38-.74,3.39-2.94,3.89-3.31.75-6.6,1.62-9.84,2.63-2.08.65-2.67.22-2.64-2,.11-9.68,0-19.37,0-29.06,0-6.39.14-12.78-.07-19.16-.09-2.8.54-4.16,3.55-3.59a11.69,11.69,0,0,0,1.8,0,3.06,3.06,0,0,0-2.71-2c-3.66-1.58-6.12-4.6-8.83-7.33-.71-1.51-.48-3.13-.48-4.7,0-11.34,0-22.68,0-34,0-2.08-.36-4.26,1.36-6,.52-.52.17-1.19-.09-1.77-1.88-3.16-3.94-6.21-6.07-9.2-3.56-5.75-6.75-11.71-10.41-17.39a4.18,4.18,0,0,1-.45-4.43c1.74-3.8,1.24-5.25-2.24-7.71-2.08-1.4-2-3.51-1.37-5.43s2.66-1.37,4.19-1.41c2.66-.07,5.32-.11,8,0s3.31-1.13,3.29-3.5-.43-3.71-3.14-3.62c-3.3.12-6.6.13-9.89,0-1.84-.08-2.52.62-2.4,2.39.18,2.66-.21,5.31-.29,8,0,1.33-.13,2.56-1.45,3.29-3.8,2.17-4.46,3.71-2.93,7.78a5.69,5.69,0,0,1-.6,5.41c-2.21,3.64-4.68,7.11-6.58,10.93-3.2,4.55-5.93,9.39-8.79,14.16-.45.82-1.34,1.71-.51,2.6,1.67,1.81,1.3,4,1.3,6.06,0,11.3,0,22.59,0,33.89,0,1.58.24,3.2-.47,4.72-2.78,3-5.63,5.85-9.52,7.39l-2,1.48c.26.21.41.43.57.44,4.71.19,4.71.18,4.71,5v49.39a135.92,135.92,0,0,1-13.81-3.56c-1.39-.42-1.51-1.18-1.51-2.33,0-15.47,0-30.93,0-46.4,0-1.83.69-2.17,2.22-2,.84.08,1.7,0,2.82,0-.53-1.31-1-2.38-2.4-2.73-2.86-1.37-3.65-4.53-5.72-6.59a7.55,7.55,0,0,1-1.06-4.27c0-11.94,0-23.88,0-35.83,0-2.38.6-4.14,2.76-5.21-.59-3.66-2.79-6.56-4.56-9.65-3.79-6-6.31-12.77-10-18.88a3.71,3.71,0,0,1,0-3.64c1.72-3.94,1.28-5.32-2.19-7.76-2.08-1.38-2-3.48-1.4-5.41s2.63-1.41,4.16-1.45c2.75-.07,5.52-.09,8.28,0s3-1.58,3-3.73-.6-3.44-3.06-3.37c-3.4.09-6.8.1-10.19,0-1.75-.06-2.26.74-2.17,2.3.17,2.76-.24,5.5-.3,8.26,0,1.23-.18,2.33-1.36,3-4.07,2.36-4.71,4-2.79,8.28a4.81,4.81,0,0,1-.34,4.51c-4.1,7.93-8.41,15.75-12.55,23.66a10.2,10.2,0,0,0-1.4,3.53c2.64,1.86,2.82,4.52,2.79,7.47-.12,11.13-.06,22.26,0,33.39a8.07,8.07,0,0,1-1.08,4.86C69.69,229.94,68.38,232.92,65.45,234.38Z"/><path class="cls-1" d="M192.82,286.4v-17c0-9.8.05-19.6,0-29.39,0-2.2.28-3.17,2.88-3.13,10.54.16,21.08.14,31.62,0,2.33,0,2.8.76,2.77,2.91-.12,7.77-.06,15.54,0,23.31a4,4,0,0,1-1.42,3.63,123.31,123.31,0,0,1-34.27,19.43A9,9,0,0,1,192.82,286.4Z"/><path class="cls-1" d="M107.1,261.74c0,7.36,0,14.71,0,22.06,0,2.15-.33,2.84-2.64,2a123.2,123.2,0,0,1-33.35-19.21,3.1,3.1,0,0,1-1.24-2.73c0-8.21.07-16.41,0-24.62,0-1.89.67-2.3,2.41-2.29,10.76.07,21.53.1,32.29,0,2.26,0,2.58.86,2.56,2.79C107.05,247,107.1,254.39,107.1,261.74Z"/><path class="cls-1" d="M136.34,264.79c0-8.32.06-16.64,0-25,0-2.12.43-3,2.78-2.94,7.25.15,14.5.11,21.75,0,2,0,2.81.37,2.79,2.6q-.12,25.59,0,51.19c0,2.17-.81,2.61-2.75,2.76-5.67.43-5.67.52-5.67-5q0-17.28,0-34.56c0-2.65-1.1-4.61-3.67-5.35a5.07,5.07,0,0,0-6.1,2.28c-.88,1.36-.71,2.87-.71,4.35,0,11.83-.1,23.68.06,35.51,0,2.88-.91,3.4-3.51,3-4.91-.67-4.93-.56-4.93-5.56Z"/><path class="cls-1" d="M164.86,265c0-8.31.1-16.62-.07-24.92,0-2.61.82-3.18,3.25-3.14,6.91.11,6.91,0,6.91,7,0,14.91,0,29.82.05,44.73,0,2.24-.57,3.12-2.9,3.46-7.26,1.07-7.24,1.19-7.24-6.08Z"/><path class="cls-1" d="M135.06,265c0,8.3-.07,16.61.05,24.91,0,2.27-.3,3.17-2.94,2.84-7.19-.87-7.2-.73-7.2-8,0-14.91.06-29.82-.06-44.72,0-2.56.72-3.19,3.19-3.15,7,.13,7,0,7,7Z"/><path class="cls-1" d="M110.86,235.12c-.84,1-2,.52-3,.52-12.93,0-25.85.06-38.77,0-.93,0-2.76,1.17-2.87-1.18,1.1-2.81,3.62-4.52,5.34-6.86.7-1.45,2-1.79,3.43-1.79q13.52,0,27,0a3.37,3.37,0,0,1,3.42,1.8C107.41,230,109.5,232.29,110.86,235.12Z"/><path class="cls-1" d="M233.77,235.08c-.8,1.07-2,.56-2.94.56-12.94,0-25.88.06-38.82,0-.92,0-2.76,1.18-2.86-1.18,1.09-2.81,3.61-4.52,5.33-6.86.7-1.45,2-1.79,3.43-1.79q13.51,0,27,0a3.36,3.36,0,0,1,3.41,1.8,18.52,18.52,0,0,1,2.47,3.12A10.89,10.89,0,0,1,233.77,235.08Z"/><path class="cls-1" d="M163.33,231.3l2.46,4.09H134.43c-.25-.9.76-1.38.88-2.18.47-2.08,1.08-4.1,2.9-5.48a6.11,6.11,0,0,1,3.06-.68q8.55,0,17.11,0a5.45,5.45,0,0,1,2.78.52C162.61,228.39,163,229.8,163.33,231.3Z"/><path class="cls-3" d="M134.58,232.46c-1.34,2.91-3.72,3.55-6.69,3.24-2-.2-4-.06-6-.08.16-2.68,2.81-3.33,4.22-5a15.12,15.12,0,0,1,3.15-2.56,7.61,7.61,0,0,1,7.9-.16A5.08,5.08,0,0,1,134.58,232.46Z"/><path class="cls-3" d="M178,235.63a23.72,23.72,0,0,0-3.48.06c-4.75.78-8.44-.48-10.5-5.14-1.25-.68-2-1.52-1.06-3a9.3,9.3,0,0,1,7.21.24c2,1.87,4.15,3.6,6.22,5.41C177.15,233.86,178.39,234.23,178,235.63Z"/><path class="cls-4" d="M178,235.63l-7.66-6.95a.79.79,0,0,1,.73-.7,39.12,39.12,0,0,1,7.71,6.94Z"/><path class="cls-5" d="M128.87,228.74l-7,6.88-1.47-.64a69.43,69.43,0,0,1,8.4-7,.47.47,0,0,1,.2.49C129,228.65,128.93,228.74,128.87,228.74Z"/><path class="cls-6" d="M110.86,235.12a38.78,38.78,0,0,1-5.09-6.47.83.83,0,0,1,.71-.76,24.15,24.15,0,0,1,4.5,6.33Z"/><path class="cls-7" d="M71.26,228.65l-5,5.77-.8,0a38.44,38.44,0,0,1,5.1-6.47A.79.79,0,0,1,71.26,228.65Z"/><path class="cls-7" d="M194.15,228.65l-5,5.77-.81,0a38.44,38.44,0,0,1,5.1-6.47A.79.79,0,0,1,194.15,228.65Z"/><path class="cls-8" d="M134.58,232.46l2.44-3.87a.66.66,0,0,1,.94.13,10.07,10.07,0,0,1-2.65,4.49Z"/><path class="cls-9" d="M233.77,235.08a16.41,16.41,0,0,1-3.14-3.9.88.88,0,0,1,.69-.82,15.51,15.51,0,0,1,3.16,4C234.24,234.61,234,234.84,233.77,235.08Z"/><path class="cls-8" d="M162.86,228l1.18,2.52-.71.75a6.07,6.07,0,0,1-1.84-2.68C161.77,228,162.14,227.63,162.86,228Z"/><path class="cls-3" d="M73.15,28.94l0,.69c-1.92.42-2.76-1.36-4.07-2.11-4.21-2.44-8.3-2.9-12.65-.33-5.25,3.09-6.17,10.41-3,14.13a9.79,9.79,0,0,0,6.64,3.94c.91.16,2.17.14,2.1,1.37S60.76,47.9,59.9,48a13.68,13.68,0,0,1-11-3.82c-4.69-4.48-3.39-15,.44-19.55.42-.49,1-1.23,1.48-1.08,3.47,1,4.4-2,6.16-3.73a5.07,5.07,0,0,1,1.51-1.17c4.39-1.2,8.75-1.57,13,.39a14.75,14.75,0,0,1,3.32,2.15c2.9,2.41,2.9,2.42.4,5C74.43,27,74.08,28.18,73.15,28.94Z"/><path class="cls-3" d="M226.79,29.63l0-.74c-1.23-1.14-2.08-2.58-3.28-3.78-1.93-1.92.42-2.79,1.52-3.89a19.34,19.34,0,0,1,3.13-2.08c3-1.6,6.32-1.65,9.58-1.3,2.91.32,5.55,1.38,6.87,4.35.51,1.16,1.17,1.75,2.41.94,1.75-.66,2.82.25,3.67,1.62a19.92,19.92,0,0,1,3.28,8.8c0,1.54.05,3.08-.05,4.62-.12,1-.61,1.93-.82,2.92a10.79,10.79,0,0,1-2.3,3.25,14.68,14.68,0,0,1-8.56,3.78,6.63,6.63,0,0,1-3.1-.37c-.61-.2-1.35-.38-1.4-1.09-.08-1,.78-1.19,1.5-1.29,3-.41,5.5-1.51,7.24-4.07a9.29,9.29,0,0,0,.13-11.18c-4.33-5.27-9.89-6.12-15.76-2.58C229.54,28.31,228.71,30.07,226.79,29.63Z"/><path class="cls-10" d="M52.61,41.88C49.72,38,49.88,34,52.1,30s7.41-6.11,12.05-5.37a16.28,16.28,0,0,1,9,5c1,2.23,2.69,4.19,2.7,6.82a11.4,11.4,0,0,1,0,4.76l-.81,3c-.88.13-1.09-.52-1.35-1.13a11.23,11.23,0,0,1,.13-3.47A11.74,11.74,0,0,0,58.59,27.57a8.38,8.38,0,0,0-5.73,5.89,5.17,5.17,0,0,0,0,4.35,6.68,6.68,0,0,1,.39,3.31A1.52,1.52,0,0,1,52.61,41.88Z"/><path class="cls-11" d="M226.79,29.63c4-3.91,8.5-6.19,14.25-4.6a9.82,9.82,0,0,1,6.27,4.43c.28.62-.09.89-.59,1.08a3.64,3.64,0,0,1-2.8-1.24c-3.52-2.89-7.38-3.09-11.27-1.08-4.09,2.12-6.74,5.37-6.75,10.29,0,1.68.65,3.35.15,5-.23.47-.54.82-1.13.72-.88-.86-.78-2-.81-3.06a11.19,11.19,0,0,1,0-4.75C224.05,33.81,225.61,31.8,226.79,29.63Z"/><path class="cls-12" d="M118.6,86c3.2-2.1,6.84-3.3,10.27-5s6.89-3.26,10.61-5l-10.64-4.87a.56.56,0,0,1,.1-.85,3,3,0,0,1,3,.12c3,1.49,6.26,2.48,9.18,4.17a1.88,1.88,0,0,1,.74,1.78c-2.76,3.12-6.68,4.31-10.26,6-3,1.44-6.25,2.53-9.26,4.08-1.13.57-2.32,1.11-3.62.4A.57.57,0,0,1,118.6,86Z"/><path class="cls-13" d="M114.56,64.88l-7.64-3.12C105,61,103.4,60.05,101,61a3.65,3.65,0,0,1-4.71-2.65,4.82,4.82,0,0,0-2-2.65c-.2-.52.11-.79.51-1a10.49,10.49,0,0,1,3-.45,1.46,1.46,0,0,1,.92.88,4.27,4.27,0,0,1,.2,1.22c0,.72-.07,1.53.78,1.86s1.29-.41,1.74-1c.58-.71,1-1.6,2.1-1.68A1.51,1.51,0,0,1,104.56,57c-.17,1.36.74,1.74,1.8,2.11,2.17.77,4.24,1.78,6.35,2.69,1.23.52,2.59,1,2.89,2.59C115.44,64.88,115.14,65.16,114.56,64.88Z"/><path class="cls-14" d="M85.07,101.77c9.9-4.91,19.86-9.69,30-14.07a1.28,1.28,0,0,1,1,0c.22,1.85-1.37,2.18-2.48,2.8-7.88,4.39-16.28,7.66-24.4,11.55a4.25,4.25,0,0,1-3.38.43A1.44,1.44,0,0,1,85.07,101.77Z"/><path class="cls-15" d="M184.33,95,157,83.25a.57.57,0,0,1,.15-.85c1.18-.66,2.27-.15,3.37.25,7.42,2.68,14.57,6,21.83,9.08,1.26.53,2.61,1,3,2.61C185.24,94.91,185,95.26,184.33,95Z"/><path class="cls-16" d="M206.26,55.09a9.62,9.62,0,0,0-2.75,3.61,3.84,3.84,0,0,1-5.25,2.19,4.05,4.05,0,0,0-3.56.16c-3.09,1.29-6.2,2.56-9.3,3.84-.52.24-.85,0-1.06-.46.2-1.67,1.63-2.08,2.84-2.62,1.83-.82,3.64-1.69,5.51-2.37a3.21,3.21,0,0,0,2.4-3,1.66,1.66,0,0,1,1-.9c1.23-.07,1.79.84,2.4,1.66,1.27,1.7,2.28,1.44,3.1-.4a3.81,3.81,0,0,1,1-1.55,4.35,4.35,0,0,1,3-1.16C206,54.26,206.39,54.49,206.26,55.09Z"/><path class="cls-17" d="M39.94,43a55.81,55.81,0,0,1-1.24-6.84c-.12-1.73-.73-2.15-2.31-2-1.26.11-2.92.08-3.24-1.33s1.5-1.47,2.4-2c2.18-1.3,3.27-3.51,4.87-5.3a1.5,1.5,0,0,1,.59.68c.33,2.46-1.51,3.79-2.8,5.37,1.57,0,2.59-2.25,4.5-1.24A2.05,2.05,0,0,1,43,31.68c-2.46,2.86-1.62,6.27-1.55,9.54C41.22,42.05,41.15,43,39.94,43Z"/><path class="cls-18" d="M137.16,17.4a20,20,0,0,1,25.61,0c.14.65-.26.9-.78,1.06a6.49,6.49,0,0,1-3.6-1.1,17.88,17.88,0,0,0-16.83,0,6.78,6.78,0,0,1-3.6,1.11C137.43,18.3,137,18.05,137.16,17.4Z"/><path class="cls-17" d="M259.5,26.15c2,1.79,3.51,4.23,6.16,5.34.54.22,1.35.45,1.21,1.2A1.57,1.57,0,0,1,265.24,34c-4.07-.66-4,2.17-4.36,4.84-.16,1.31-.07,2.81-1.43,3.68a2,2,0,0,1-.88-1.22c-.4-2.76.75-5.55-.21-8.29a1.55,1.55,0,0,1,.69-1.2c.77-.46,1.63-.16,2.51-.25-1.12-1.47-3.06-2.43-2.65-4.69A1.4,1.4,0,0,1,259.5,26.15Z"/><path class="cls-19" d="M143.67,82.74c-7.66,3.88-15.6,7.12-23.55,10.33-.61.25-.92,0-1.08-.59.23-1.35,1.32-1.9,2.38-2.36q9.38-4.07,18.77-8.06a4.37,4.37,0,0,1,2.5-.37A1.43,1.43,0,0,1,143.67,82.74Z"/><path class="cls-16" d="M225.47,21.84,223,24.14c2.2,1.05,4,2.16,3.77,4.75a10,10,0,0,0-5.07.79,1.18,1.18,0,0,1-.39-.78c0-.68.58-1.07.81-1.64-2.88-.57-4.35,2.5-6.94,2.66a1.28,1.28,0,0,1-.93-1,2.25,2.25,0,0,1,.78-2c3-2.43,6-4.85,9.7-6.14C225.22,21,225.6,21.22,225.47,21.84Z"/><path class="cls-20" d="M73.15,28.94c-.31-2.57,1.32-3.74,3.42-4.57C76.36,23,75,22.79,74.45,21.84c-.14-.61.23-.85.72-1,3.67.91,9.5,5.36,10.52,8a1.26,1.26,0,0,1-.83,1c-1.82.2-2.74-1.46-4.19-2.06a9.44,9.44,0,0,0-3.8-.79c.76.86,1.77,1.33,1.77,2.38a1.26,1.26,0,0,1-.38.79A8.09,8.09,0,0,0,73.15,28.94Z"/><path class="cls-21" d="M52.67,12.31c4.19-2.54,8.8-2.84,13.51-2.52,1.52.1,3,.87,4.3-.85.47-.64,1.07.21,1.44.71A1.57,1.57,0,0,1,72,10.87c-.56,1.26.79,2.48.11,3.75a1.26,1.26,0,0,1-1.23.51c-3.92-4-8.59-3.42-13.38-2.27-1.33.31-2.62.93-4.06.58C53,13.23,52.56,12.94,52.67,12.31Z"/><path class="cls-22" d="M259.5,26.15l-.19,1c-1.31.08-1.89-.88-2.39-1.81a25.12,25.12,0,0,0-13.13-12.06,3.48,3.48,0,0,1-1.95-1.57,1.24,1.24,0,0,1,.29-1.31C250.33,13,256.58,17.73,259.5,26.15Z"/><path class="cls-23" d="M85.07,101.77l1,.16c.07,1.34-1,1.81-1.91,2.28-5.67,2.91-11.36,5.79-17.13,8.5a4.88,4.88,0,0,1-3.39.57c-.48-.22-.86-.51-.7-1.13C70.25,108.58,77.47,104.78,85.07,101.77Z"/><path class="cls-24" d="M140.4,67.19c2.68.29,4.78,2,7.11,3.07a4.32,4.32,0,0,0,4.14.08c3-1.51,6.13-2.85,9.2-4.26a1,1,0,0,1,.81,1,27.86,27.86,0,0,1-13.38,6.56,2.37,2.37,0,0,1-1.21-.66c-1-1.42-2.68-1.9-4.13-2.7-1.08-.6-2.31-1-2.82-2.31A1.05,1.05,0,0,1,140.4,67.19Z"/><path class="cls-25" d="M166,20.59c5.31,6.74,6.08,14,2.51,21.76-.64.1-.94-.29-1.17-.79a3.65,3.65,0,0,1,0-2.17c1.42-5.31,1.11-10.4-1.67-15.25a4.5,4.5,0,0,1-.7-2.71C165.05,20.89,165.3,20.47,166,20.59Z"/><path class="cls-25" d="M131.43,42.35c-3.54-7.76-2.8-15,2.52-21.76.66-.12.91.29,1.06.83a5.24,5.24,0,0,1-.89,3,19.29,19.29,0,0,0-1.6,14.38,4.82,4.82,0,0,1,.1,2.79C132.38,42.07,132.07,42.46,131.43,42.35Z"/><path class="cls-23" d="M193.09,91.54,214,101.28c.14.62-.24.9-.72,1.11-7.6-1.72-14.27-5.52-20.88-9.42-.26-.15-.3-.55-.35-.87C192.17,91.55,192.48,91.25,193.09,91.54Z"/><path class="cls-12" d="M161.58,66.73l-.73-.65c6.82-3.56,13.85-6.66,20.89-9.74.62-.3.91,0,1.07.57-.25,1.33-1.37,1.81-2.37,2.39-5.15,3-10.89,4.69-16.17,7.4A2.3,2.3,0,0,1,161.58,66.73Z"/><path class="cls-26" d="M241.39,114.71c.52.75,1.47,1.47.52,2.44a3.07,3.07,0,0,1-3.31,1.13,68.05,68.05,0,0,1-8.4-3.41c-3.37-1.48-6.72-3-10.08-4.5a1.51,1.51,0,0,1,.77-1.12c1.6-.59,2.87.32,4.17,1a95.12,95.12,0,0,0,11.37,4.88c1.18.44,2.52,1.46,3.74,0A1.18,1.18,0,0,1,241.39,114.71Z"/><path class="cls-27" d="M91,25.72a30.09,30.09,0,0,1,3.8,9.35,110.31,110.31,0,0,0,4,11,.64.64,0,0,1,0,.9,2.26,2.26,0,0,1-2.48-1.59A85.14,85.14,0,0,1,89.92,26.5C90.12,26,90.41,25.61,91,25.72Z"/><path class="cls-28" d="M201.1,45.41c2.36-4.07,3.35-8.65,4.79-13.06a24.43,24.43,0,0,1,3-6.63c.63-.12.91.27,1.12.77a79.12,79.12,0,0,1-6,17.78c-.51,1.11-1.32,2.26-2.93,2A.59.59,0,0,1,201.1,45.41Z"/><path class="cls-29" d="M241.39,114.71l-.57.68c-.19.1-.43.25-.6.18-5.9-2.29-12-4.22-16.95-8.42a1.27,1.27,0,0,1,.29-1.36q8,3.67,16,7.38C240.28,113.51,241.18,113.72,241.39,114.71Z"/><path class="cls-12" d="M193.09,91.54l-.89.7c-1.15.75-2.28.28-3.3-.22-4.53-2.24-9.15-4.31-13.72-6.48-1-.49-2.1-1.05-2.39-2.35.26-.89.8-1,1.52-.52C180.4,86,187.11,88,193.09,91.54Z"/><path class="cls-14" d="M109.94,52.48,128.18,61c.12.61-.25.91-.73,1.14-3.49,0-17-6.63-18.65-9.08C109,52.49,109.34,52.23,109.94,52.48Z"/><path class="cls-30" d="M66.73,53.16c-6.28,3.12-12.46,2.65-18.55-.57-.11-.66.31-1,.82-1.16a2.59,2.59,0,0,1,1.58,0c4.87,1.82,9.8,1.34,14.76.44C66,52,66.77,52.2,66.73,53.16Z"/><path class="cls-30" d="M251.84,52c-3.93,3.76-12.44,4.29-18.65,1.17,0-1,.69-1.13,1.39-1.32,5.52,1.47,11,.5,16.41-.46A1.68,1.68,0,0,1,251.84,52Z"/><path class="cls-30" d="M242.13,10.44v1.14c-.92,1.09-2.14.73-3.26.62-3.6-.37-7-.17-9.61,2.8a1.23,1.23,0,0,1-1.25-.42c-.88-1.22.5-2.5-.11-3.73a1.52,1.52,0,0,1,.1-1.2c.21-.23.53-.7.6-.66,4.15,2.13,8.74-.35,12.93,1.25C241.72,10.32,241.93,10.37,242.13,10.44Z"/><path class="cls-31" d="M176.32,68.66c-5,2.58-10.22,4.87-15.49,7-.7,0-1.29-.11-1.44-.93a3.06,3.06,0,0,1,2.12-1.78c4.61-1.78,8.81-4.64,13.86-5.29A1.41,1.41,0,0,1,176.32,68.66Z"/><path class="cls-32" d="M52.67,12.31l.73.65c.13,1.19-.8,1.67-1.58,2.13-3.84,2.28-6.36,5.7-8.44,9.54-.58,1.06-1.06,2.43-2.77,1.92-.06-.35-.13-.7-.19-1.05C43.13,19.83,46.77,15,52.67,12.31Z"/><path class="cls-33" d="M207.57,105c-6.12-2.23-12-5-17.93-7.7a.58.58,0,0,1,.14-.85c1.93-.92,3.44.43,5.09,1,3.73,1.17,7.08,3.25,10.71,4.65a3.46,3.46,0,0,1,2.28,2A1,1,0,0,1,207.57,105Z"/><path class="cls-34" d="M88.41,50.09c-2.11-2.5-2.54-5.7-3.58-8.65-.81-2.28-1.77-4.51-2.66-6.76a1.13,1.13,0,0,1,.9-.34,4,4,0,0,1,2.7,2.86,105,105,0,0,1,3.77,12.25C89.33,50,89,50.33,88.41,50.09Z"/><path class="cls-35" d="M157.62,52.55a19.25,19.25,0,0,1-15.34,0,.72.72,0,0,1,.23-1,4.53,4.53,0,0,1,3.34-.41c3.45.57,6.88,0,10.32-.06C156.9,51.35,157.69,51.51,157.62,52.55Z"/><path class="cls-34" d="M216.6,36.16C215.28,41,214.14,45.8,211.32,50c-.63.06-.89-.34-1.07-.85.85-4.56,2.64-8.81,4.32-13.09.31-.81.82-1.8,2.09-1.37A1.5,1.5,0,0,1,216.6,36.16Z"/><path class="cls-36" d="M127.29,61.7l.89-.72c4.17,1.87,8.55,3.34,12.22,6.21l0,.74a2,2,0,0,1-2.12.07C134.45,66.16,130,65.41,127.29,61.7Z"/><path class="cls-37" d="M49.05,51.84l-.87.75A17,17,0,0,1,39.94,43c.66-.55.52-1.34.64-2.06.22,0,.52,0,.6.13C43.24,45.06,46.52,48.18,49.05,51.84Z"/><path class="cls-38" d="M111.16,96.91c-4.59,1.74-8.78,4.42-13.57,5.68-.68.32-.86-.1-1-.64a3.12,3.12,0,0,1,2.21-2c3.8-1.35,7.11-4.08,11.38-4.1A1.49,1.49,0,0,1,111.16,96.91Z"/><path class="cls-39" d="M201.1,45.41l.13.94c-.46,3.37,1.93,6.13,2,9.39a1.57,1.57,0,0,0-.76,1.35c-1.58.12-1.7-1.29-2.19-2.2-1.29-2.37-2.18-5-3.71-7.19-.28-1.22.88-1,1.41-1.46C199.36,47.33,200.22,46.35,201.1,45.41Z"/><path class="cls-5" d="M66.73,53.16l-1.25-.56c0-.1-.12-.26-.09-.29,3.27-2.9,6-6.3,9-9.47.22.47.44.95.65,1.42A14.93,14.93,0,0,1,66.73,53.16Z"/><path class="cls-26" d="M114.56,64.88l.84-.72c2.67-.56,12.09,3.81,13.48,6.25,0,.24,0,.47,0,.7A130.11,130.11,0,0,1,114.56,64.88Z"/><path class="cls-40" d="M68.14,115.37a27.16,27.16,0,0,1-7.32,2.93,2.62,2.62,0,0,1-2.87-.87,1.81,1.81,0,0,1,.44-2.76,1.05,1.05,0,0,1,1.21.24c.85,1.3,2,.71,3,.38,1.36-.42,2.63-1.18,4.14-1A1.85,1.85,0,0,1,68.14,115.37Z"/><path class="cls-32" d="M234.43,52.61l-1.24.56a14.92,14.92,0,0,1-8.27-8.9l.64-.78a1.62,1.62,0,0,1,1.56.9,18.25,18.25,0,0,0,6.39,6.44C234.09,51.19,234.79,51.67,234.43,52.61Z"/><path class="cls-41" d="M142.31,51.85l0,.7a18.32,18.32,0,0,1-10.85-10.2l.73-.86C135.45,45,139,48.36,142.31,51.85Z"/><path class="cls-12" d="M223.56,105.79V107a1.48,1.48,0,0,1-1.77.35c-3-1.56-6.76-2-8.7-5.34l.85-.72Z"/><path class="cls-42" d="M198,46.24l-1.27,1c-1.2,1.78-1.64,3.58-.45,5.6a2.19,2.19,0,0,1-.07,2.68l-.67.88c-1.67-.78-1.91-2.7-3.1-3.86a1.14,1.14,0,0,1-.17-1.2C193,48.34,193.81,45.47,198,46.24Z"/><path class="cls-43" d="M160.84,76.29l10.47,5a1.44,1.44,0,0,1-.89,1.08,16.14,16.14,0,0,1-10.42-5A1,1,0,0,1,160.84,76.29Z"/><path class="cls-44" d="M167.75,41.48l.72.87A16.9,16.9,0,0,1,161,50.77c-.56.31-.87,0-1.09-.47A2.14,2.14,0,0,1,161,48.17C163.59,46.3,164.75,43,167.75,41.48Z"/><path class="cls-45" d="M192.22,51.38l.86.72c-1.86,2.8-7.63,5.53-10.48,4.95l-.86-.71A81.53,81.53,0,0,1,192.22,51.38Z"/><path class="cls-12" d="M207.57,105l0-.69a1.58,1.58,0,0,1,1.71-.57c4,1.66,8.44,2.62,11.69,5.85l-.88.75A95,95,0,0,1,207.57,105Z"/><path class="cls-37" d="M251.84,52l-1-.16a1.62,1.62,0,0,1,.53-1.43,23.43,23.43,0,0,0,6.67-8.7,1.28,1.28,0,0,1,1.27-.78l.12,1.55C258.17,46.66,256.49,50.52,251.84,52Z"/><path class="cls-46" d="M143.67,82.74l-.75-.65c1.66-3,4.75-3.26,7.6-4a2.49,2.49,0,0,1,1.8.87,1.78,1.78,0,0,1,.27,1.91,1,1,0,0,1-1,0C148.65,80.14,146.32,82.11,143.67,82.74Z"/><path class="cls-47" d="M102,46.24c3.57-.14,5.15,1.95,5.74,5.14a1,1,0,0,1,.24,1.18,12.26,12.26,0,0,1-3.08,2.15,1.49,1.49,0,0,1-1.05-1.3c-.29-1.77,1.81-3.93-.86-5.32C102.41,47.59,101.67,47.19,102,46.24Z"/><path class="cls-31" d="M176.32,68.66l-.76-.66c1.79-2.62,6.09-4.47,9-3.85l.88.74C182.58,66.65,179.38,67.5,176.32,68.66Z"/><path class="cls-48" d="M78.9,110.82A40,40,0,0,1,70,114.19a1,1,0,0,1-.23-.94,10.36,10.36,0,0,1,8.43-3.6C78.67,109.89,79,110.2,78.9,110.82Z"/><path class="cls-49" d="M93.12,104.5c-2.78,1.33-5.42,3-8.4,3.81-.77.46-1.31.36-1.53-.59,2.15-2.92,5.29-3.7,8.63-4.08A1.85,1.85,0,0,1,93.12,104.5Z"/><path class="cls-50" d="M88.41,50.09l.8-.83a11.08,11.08,0,0,1,5.9,5.8l-.81.68A15.51,15.51,0,0,1,88.41,50.09Z"/><path class="cls-4" d="M80.87,16c2.76.67,4.6,2.59,6.35,4.64.15.61-.22.83-.71,1a9.15,9.15,0,0,1-6-4.77A1.32,1.32,0,0,1,80.87,16Z"/><path class="cls-51" d="M216.6,36.16l-.12-1.59c.3-3.06,2-4.94,5.11-5.77l.1.88Z"/><path class="cls-52" d="M210.68,49.24l.64.78a9.93,9.93,0,0,1-5.06,5.07l-.67-.59A8.39,8.39,0,0,1,210.68,49.24Z"/><path class="cls-5" d="M213.34,20.6c1.12-2.6,3.42-3.89,5.73-5.15a1.42,1.42,0,0,1,.4.82,6.32,6.32,0,0,1-5.76,4.62Z"/><path class="cls-53" d="M209.58,26.55c-.24-.28-.47-.56-.71-.83,1.15-2,1.94-4.32,4.47-5.12l0,0C213.59,23.46,212.41,25.31,209.58,26.55Z"/><path class="cls-49" d="M71.12,10.42l.8-.77c1.88,1.58,4.41,2.31,5.82,4.5a1.43,1.43,0,0,1-.78.56C74.23,14.35,72,13.36,71.12,10.42Z"/><path class="cls-49" d="M228,9.65l.81.77c-.86,3-3.24,3.86-6,4.15-.49-.23-.84-.52-.6-1.13Z"/><path class="cls-54" d="M86.48,21.28l.74-.65A13.23,13.23,0,0,1,91,25.72l-.71.84C87.72,25.77,86.68,23.83,86.48,21.28Z"/><path class="cls-55" d="M102,46.24l1.27,1a4.55,4.55,0,0,1-2.46,3,1.32,1.32,0,0,1-1.19-.45A3.31,3.31,0,0,1,98.7,47l.12-1A2.72,2.72,0,0,0,102,46.24Z"/><path class="cls-56" d="M83.39,107.72l1.33.59a25.22,25.22,0,0,1-5.82,2.51l-.9-.75A4.17,4.17,0,0,1,83.39,107.72Z"/><path class="cls-57" d="M83,34.6l-.81.08-3.91-4.47.06-.77C81.6,29.44,83.32,31.34,83,34.6Z"/><path class="cls-58" d="M189.68,96.65c0,.23,0,.46,0,.68A21.42,21.42,0,0,1,184.33,95l.83-.73C187.59,93.33,189.09,94.14,189.68,96.65Z"/><path class="cls-59" d="M59.09,115.4l-.7-.73c1.13-1.53,2.9-1.89,4.53-2.52l.85.73C62.91,115,61.28,115.73,59.09,115.4Z"/><path class="cls-60" d="M111.16,96.91l-.88-.75c.91-2,2.39-2.77,4.54-2.11a1.05,1.05,0,0,1-.06,1.38Z"/><path class="cls-61" d="M114.76,95.43v-1.2c.94-1.92,2.3-2.87,4.48-1.91l.88.75Z"/><path class="cls-62" d="M134.66,21.38l-.71-.79a8.55,8.55,0,0,1,3.21-3.19l.78.7A3.09,3.09,0,0,1,134.66,21.38Z"/><path class="cls-32" d="M93.12,104.5l-1.68-.19a4.19,4.19,0,0,1,5.4-2.36l.75.64Z"/><path class="cls-63" d="M166,20.59l-.7.78A3.09,3.09,0,0,1,162,18.1l.8-.71A8.67,8.67,0,0,1,166,20.59Z"/><path class="cls-64" d="M151.62,80.86l1-.13c2.18-1.08,3.64-.42,4.41,1.85l0,.67A15,15,0,0,1,151.62,80.86Z"/><path class="cls-65" d="M222.22,13.44l.85.82c-.57,2.13-1.85,2.85-3.94,2l-.06-.79Z"/><path class="cls-27" d="M160.84,76.29,160,77a1.49,1.49,0,0,1-.88.17c-.88-.29-1.86-.5-1.54-1.81.55-.67,1.16-1.07,2-.4l1.29.63Z"/><path class="cls-66" d="M160.16,49.92l.84.85a7.42,7.42,0,0,1-3.38,1.78l-1.34-.62C156.85,49.87,158.38,49.65,160.16,49.92Z"/><path class="cls-67" d="M70,113.45l0,.74-1.85,1.18-1.4-.64C67.38,113.21,68.33,112.5,70,113.45Z"/><path class="cls-68" d="M76.85,14.26l.89-.11c1.45-.08,2,1.36,3.13,1.84,0,.29-.05.59-.07.88C78.75,17.11,77.36,16.35,76.85,14.26Z"/><path class="cls-12" d="M170.44,82l.87-.73,3,1.4-1.31.56C171.65,83.85,170.89,83.25,170.44,82Z"/><path class="cls-38" d="M116.13,87.85l-1-.15A10.27,10.27,0,0,1,118.6,86l0,.68C118.33,88.14,117.47,88.49,116.13,87.85Z"/><path class="cls-69" d="M224.1,36.46c0,1.58,0,3.16,0,4.75A5.53,5.53,0,0,1,224.1,36.46Z"/><path class="cls-69" d="M75.81,41.21c0-1.59,0-3.17,0-4.76A5.62,5.62,0,0,1,75.81,41.21Z"/><path class="cls-38" d="M107.72,52.58v-1.2l2.23,1.1-1,.68C108.3,53.56,108,53.17,107.72,52.58Z"/><path class="cls-70" d="M162.86,228l-1.37.59c-.89-.81-2-.62-3-.62-5.72,0-11.44,0-17.16,0a6.44,6.44,0,0,0-3.35.74l-.94-.13c-2.74-1.25-5.45-.63-8.15.15l0-.76c.92-.92.85-2.09.85-3.26,0-12.74-.07-25.47,0-38.21,0-2.27-.71-3.08-3.12-2.62a15.5,15.5,0,0,1,2.79-4.76,1.71,1.71,0,0,1,.8,1.08c.92,2.44,2.66,1.16,4.09.82.86-.2,1.43-1.17,2.41-1.27a2,2,0,0,1,1.18.73c.67.91,1.68.87,2.62.88q9.44.06,18.87,0c.95,0,2,0,2.62-.87a2.1,2.1,0,0,1,1.15-.74c1.42.13,2.21,1.64,3.69,1.71,1.21.06,2.36.14,3.09-1.09.31-.33.63-.62,1.14-.39.75,1.12,1.5,2.24,2.62,3.89-3.6-.68-3.49,1.19-3.48,3.39.08,12.27,0,24.53.05,36.8,0,1.35-.3,2.79.84,3.91l-.73.7C168,227.35,165.36,228.24,162.86,228Z"/><path class="cls-71" d="M194.15,228.65c-.23-.25-.47-.5-.71-.74a7.45,7.45,0,0,0,1.54-5.3q-.09-17.21,0-34.4c0-2.85.47-5.78-4-4.12a3.46,3.46,0,0,1,1.13-3.09,10.23,10.23,0,0,0,2.13.38c11.58-.08,23.15-.37,34.72.14a9.71,9.71,0,0,1,2.27.38c1,1.12,1.47,2.21-.74,1.92-2.53-.34-2.66,1-2.65,2.94q.12,18.06,0,36.14a7.59,7.59,0,0,0,1.55,5c.21.67-.08.86-.7.75a5.1,5.1,0,0,0-4.64-2.08q-12.61.19-25.25,0A5.08,5.08,0,0,0,194.15,228.65Z"/><path class="cls-71" d="M71.26,228.65c-.24-.25-.47-.5-.71-.74a7.45,7.45,0,0,0,1.54-5.3c-.07-11.47-.09-22.93,0-34.39,0-2.92.27-5.6-4-4.23a3.42,3.42,0,0,1,1.14-3,10.12,10.12,0,0,0,2.13.38c11.58-.08,23.15-.37,34.73.14a9.63,9.63,0,0,1,2.26.38c1,1.12,1.48,2.21-.74,1.92-2.51-.33-2.66.93-2.65,2.93q.12,18.08,0,36.14a7.54,7.54,0,0,0,1.56,5l-.71.75a5.08,5.08,0,0,0-4.63-2.07q-12.61.19-25.25,0A5.08,5.08,0,0,0,71.26,228.65Z"/><path class="cls-72" d="M208.84,141.6a2.61,2.61,0,0,0,2-3c-.18-4-.06-8-.06-12,4.62,1.41,9.21.77,13.7.64,3.13-.08,3.92.79,3.75,3.83-.27,5.25-.07,5.26-5.44,5.26-2.76,0-5.53-.06-8.29,0-.8,0-2.3-.7-2.3.76s-1.24,3.24,1.06,4.08c.33.12.53.6.78.91a.65.65,0,0,1-.07.92,5.89,5.89,0,0,1-5-.51A.66.66,0,0,1,208.84,141.6Z"/><path class="cls-72" d="M86,141.6a2.61,2.61,0,0,0,2-3c-.18-4-.06-8-.06-12,4.62,1.4,9.21.76,13.7.63,3.13-.08,3.91.79,3.75,3.83-.27,5.25-.07,5.26-5.45,5.26-2.76,0-5.52-.06-8.28,0-.8,0-2.31-.7-2.3.77s-1.24,3.23,1.06,4.07c.33.12.52.6.78.91a.65.65,0,0,1-.07.92,5.92,5.92,0,0,1-5-.51A.66.66,0,0,1,86,141.6Z"/><path class="cls-72" d="M147.4,141.59a2.61,2.61,0,0,0,2-3c-.18-3.82,0-7.65,0-11.48a2.64,2.64,0,0,1,.15-.6c3.89,1.58,8,.67,11.95.79,5.23.16,5.24,0,5.23,5.4a6,6,0,0,0,0,1c.3,2-.36,2.85-2.57,2.73-3.5-.19-7-.12-10.52,0-1,0-2.67-.81-2.88.84-.19,1.42-1.06,3.47,1.41,4.19.22.06.33.51.49.78a1.94,1.94,0,0,1-.79.71,5,5,0,0,1-3.7,0C147.65,142.58,147.23,142.26,147.4,141.59Z"/><path class="cls-38" d="M208.84,141.6l0,.74a2.33,2.33,0,0,1-.48,2.09,4.43,4.43,0,0,0,.16,5.35,4.34,4.34,0,0,1,0,4.81c-4.41,8.46-9.19,16.73-13.42,25.29a7.94,7.94,0,0,1-2.26,2.63,1.92,1.92,0,0,1-.81-1.51c4.09-9,9.21-17.47,13.81-26.2.89-1.69,1.21-2.93.17-4.77C204.05,146.48,205.25,143.33,208.84,141.6Z"/><path class="cls-73" d="M91.08,142.85l0-.74c3.22,1.33,4.52,4.54,2.65,7.52-1.14,1.82-.88,3.12,0,4.82,3.21,5.91,6.28,11.9,9.4,17.85-.17.47-.43.83-1,.83-1.64-.64-2.27-2.2-3-3.57-2.44-4.81-5.11-9.5-7.58-14.29-1-2-1.53-3.93-.24-6C92.83,147.05,91.21,145,91.08,142.85Z"/><path class="cls-38" d="M70,182.51A1.92,1.92,0,0,1,69.2,181q7-13.33,14.09-26.67c.6-.25.89.11,1.11.58a5.17,5.17,0,0,1-.84,3.31c-3.35,7.08-7.27,13.87-10.8,20.85A9.69,9.69,0,0,1,70,182.51Z"/><path class="cls-65" d="M151.67,142.35l1-.17c3.25,1.3,4.65,4.93,2.49,7.73-1.47,1.91-.71,2.79.29,4.4,3.48,5.62,6.69,11.4,10,17.12a1,1,0,0,1,.06.88c-1.54.4-2.08-.87-2.66-1.77-3.43-5.38-6.81-10.79-10-16.29-.6-1-1.2-2.28-.53-3.32C154.22,147.86,153.26,145.11,151.67,142.35Z"/><path class="cls-65" d="M147.4,141.59l.84.75a2.87,2.87,0,0,1-1,1.94,3.75,3.75,0,0,0-.44,4.95c1.35,2,1,3.69-.09,5.61-1.89,3.31-3.82,6.6-6,9.73-.66.93-1.21,2-2.58,2.15-.48-.23-.75-.56-.46-1.11,1.63-3.9,4.36-7.14,6.43-10.77,1-1.68,1.55-3,.32-5.11C142.51,146.46,143.94,143.25,147.4,141.59Z"/><path class="cls-74" d="M214,142.85c0-.24,0-.49,0-.74a5.16,5.16,0,0,1,2.47,8,2.92,2.92,0,0,0-.1,3.61c1.62,2.94,3.08,6,4.61,9a1.05,1.05,0,0,1-1,.84c-3.56-2.82-4.7-7.08-6.45-11a1.69,1.69,0,0,1,.08-1.55C215.42,148.35,214.75,145.61,214,142.85Z"/><path class="cls-26" d="M137.69,165.61l.68.93c.54.88.07,1.65-.32,2.37-2,3.63-4.27,7.05-6.48,10.53a2.16,2.16,0,0,1-2,1.31l-.16-1.62A93.11,93.11,0,0,1,137.69,165.61Z"/><path class="cls-32" d="M84.1,155.2l-.81-.87c1-1.41.8-2.65-.05-4.19-2.06-3.74-1-6.79,2.71-8.54l0,.74a1.45,1.45,0,0,1-.07,1.24c-1.54,2.28-1.44,4.4,0,6.81C87.07,152.36,86.56,154.29,84.1,155.2Z"/><path class="cls-38" d="M231.21,181.9l-1.3.61c-2.6-2.68-4.64-5.65-4.91-9.54.22-.47.5-.83,1.1-.67A74.81,74.81,0,0,1,231.21,181.9Z"/><path class="cls-73" d="M226.1,172.3l-.71.83c-3.27-2.36-5.2-5.45-5.12-9.6l.72-.83A76.78,76.78,0,0,1,226.1,172.3Z"/><path class="cls-38" d="M102.5,173.14l.71-.84a73.59,73.59,0,0,1,5.11,9.6l-1.3.61C104.65,179.81,102.12,177.17,102.5,173.14Z"/><path class="cls-45" d="M165.24,172.45l.16-1a41,41,0,0,1,5.66,8.56l-.69.75A9.28,9.28,0,0,1,165.24,172.45Z"/><path class="cls-6" d="M228.67,228.65l.7-.75a5.93,5.93,0,0,1,1.95,2.46l-.69.82Z"/><path class="cls-27" d="M58.48,19.43c-.92,1.74-2.9,2.7-3.33,4.86-.26,1.35-1.82,1.05-2.29.51-1.62-1.87-2.28-.51-3,.69-3.44,6-4.79,12-.41,18.13.12.7-.31.9-.88,1-3-1-3.6-3.72-3.93-6.35a18.89,18.89,0,0,1,2.89-13.41c1.47-2.15,2.34-4.78,4.66-6.32a.91.91,0,0,1,.84.37c.57.64.32,1.62.91,2.34,1.37-1.18,2.14-3.39,4.58-2.61A.66.66,0,0,1,58.48,19.43Z"/><path class="cls-15" d="M48.79,44.29l.69-.67c3.59,2.76,7.46,4.35,12.87,2.92-4.25-.61-7.67-1.37-9.74-4.66l.14-1a1.32,1.32,0,0,1,1.49,0c3.87,3.17,8.12,3.39,12.64,1.73a1.49,1.49,0,0,1,1,1.08c-.8,4.13-4.21,5.05-7.49,5.72-3.7.76-7.1-.65-10.24-2.55A2.3,2.3,0,0,1,48.79,44.29Z"/><path class="cls-75" d="M58.48,19.43l-.09-.87c0-.31,0-.63.31-.86C61.79,15,70,15.84,72.77,19.11c-.06.63-.2,1.16-1,.92C67.4,18.08,63,18.23,58.48,19.43Z"/><path class="cls-76" d="M71.73,20l.78-.71c1.64-.47,2.55.16,2.74,1.84l-.8.68Z"/><path class="cls-15" d="M247.32,41.85c-2.11,3.3-5.45,4.15-9,4.69,4.59,1.43,8.48-.12,12.09-2.93.69-.12.91.31,1,.87-2.82,5.87-13.43,6.92-18.27,1.81a2.92,2.92,0,0,1-1-1.94A1.49,1.49,0,0,1,233.57,43c4.83,1.82,9-.16,13.17-2.28C247.25,41,247.63,41.22,247.32,41.85Z"/><path class="cls-47" d="M253.1,33.42a26.5,26.5,0,0,0-3.37-8.33c-.6-.91-1.11-1.85-2.44-1.17a1.84,1.84,0,0,1-.7-.71,5.34,5.34,0,0,1-.29-4,1.54,1.54,0,0,1,1.3-.76c5.42,5.64,8.74,12.08,7.6,20.18A3.65,3.65,0,0,1,253,41.91c-.61-.06-1.08-.22-.77-1a3.41,3.41,0,0,1,.79-2.41A10.81,10.81,0,0,0,253.1,33.42Z"/><path class="cls-77" d="M247.14,23l.15,1c-1.37,1.41-2.56,2.42-3.34-.56s-3.35-4.18-6.17-4.65a17.49,17.49,0,0,0-9.6,1.32c-.68.29-.92-.12-1.06-.67.11-1.15,1-1.54,1.87-1.95a13.82,13.82,0,0,1,16.45,3.67C246,21.73,246.31,22.57,247.14,23Z"/><path class="cls-78" d="M247.32,41.85l-.7-.77c0-3.61,0-7.23-.11-10.84l.8-.78C250.1,33.59,250.1,37.75,247.32,41.85Z"/><path class="cls-79" d="M252.27,40.92l.72.8c.42,1.63-.06,2.61-1.89,2.61l-.68-.72C251,42.72,251.65,41.82,252.27,40.92Z"/><path class="cls-4" d="M227.4,19.31l.78.72-2.71,1.81-.81-.68C224.86,19.48,225.77,18.86,227.4,19.31Z"/><path class="cls-27" d="M253.1,33.42a5.19,5.19,0,0,1,0,5.09Z"/><path class="cls-2" d="M75.25,21.16a5,5,0,0,0-2.74-1.84,14.58,14.58,0,0,0-14.12-.76,6.14,6.14,0,0,0-3.78,3.86c-.2.6-.12,1.3-1,1.22s-.76-.86-.81-1.41c-.09-.94-.05-1.88-.07-2.82.18-.33.43-.66-.11-.9-2,4.42-5.81,7.93-6.66,13-.78,4.66-1.14,9.22,2.86,12.82,5.82,5.92,14.57,5.66,18.65-.55.28-1.14,1-2.07,1.4-3.17A6,6,0,0,0,67,33.48c-2.54-1.9-4.6-1.84-7.43.2a2.83,2.83,0,0,0-.17,4.22c.72.86,1.52,1.52,2.73,1s2.34-1.06,1.73-3.25c0,.1-.65.48-.23.41.06,0,.07.05.11.12.76,1.31-.08,1.89-1.08,2.45a2.07,2.07,0,0,1-2.63-.1,3.32,3.32,0,0,1-1.4-3.31,5.25,5.25,0,0,1,1.22-1.83c3.52-2,6.64-1.4,8.51,1.63A5.59,5.59,0,0,1,66.65,43,9.18,9.18,0,0,1,55,42.67l-2.21-1.78-.8-3a9.18,9.18,0,0,1,0-4.48c1.52-6.09,6.45-7.73,11.22-7.49,5.21.27,10.25,4.95,11.3,9.73.55,2.47,0,4.8-.12,7.2a18.19,18.19,0,0,1-8.87,9.76,21.57,21.57,0,0,1-16.43-.76c-4.24-2.53-6.79-6.38-8.47-10.91a14.66,14.66,0,0,0-.26-2.21c-.79-2.84-.7-5.39,2.18-7.09.74-2.18,1.84-4.24,2.15-6.25-.56,1.44-.43,3.51-2.27,4.68-1.86,1.81-3.8,3.38-7,2.52,2.35-1.66,4.51-3.28,5.25-6,1.52-.67,2-2.22,2.55-3.51,2.17-4.66,6-7.54,10.24-10.08a35.67,35.67,0,0,1,10-2c3.32,0,6.3.35,7.77,3.89A9.72,9.72,0,0,1,74,16.52c1,.56,2.06,1,3,1.64.18.37-.13-.18.08.19,0,.08,0,0-.08-.2-1-.74-2.19-1.16-3.24-1.8-.75-.63-1.63-1.16-1.84-2.24-.46-1.19-1.94-2.15-.8-3.69a18.37,18.37,0,0,0,5.73,3.84l4,2.61,5.68,4.41,3.85,5.28c2.21,4.77,3.38,9.9,5.18,14.82.74,2,1.32,4.2,3.19,5.61.24.8,1.31,1.14,1.2,2.15a6.17,6.17,0,0,1-2.39,5.39c-.54,1.35-1.49.85-2.4.53a36.79,36.79,0,0,1-5.9-5.8A26.15,26.15,0,0,1,86,40.66a12.31,12.31,0,0,0-3-6.06c-.71-2.48-2-4.47-4.66-5.16-.79-1.4-2.3-1.57-3.59-2.11,2.65-2.39,5.7-1.69,9.88,2.26,1.28.32,1.56,1.56,2.27,2.41.27.5.47,1,.7,1.53a5.63,5.63,0,0,1,.47,1c0-.35-.27-.62-.37-.94a17,17,0,0,0-.93-1.86,7.65,7.65,0,0,1-1.37-3,4.56,4.56,0,0,0-2.61-2.61C79.65,25.33,77.74,22.83,75.25,21.16Z"/><path class="cls-24" d="M52,33.4v4.48A4.25,4.25,0,0,1,52,33.4Z"/><path class="cls-2" d="M227.4,19.31a5.13,5.13,0,0,0-2.74,1.85c-2.76,3.35-7.63,3.92-10.13,7.62a7.33,7.33,0,0,1-1.35,3c-.48.78-.77,1.65-1.23,2.39,0,0,0,.14,0,.14l.09-.16c.39-.71.72-1.41,1-2.11.71-.85,1-2.09,2.27-2.42C219.14,26,222,25.16,225,27c-1,1-2.68.52-3.37,1.76a14.32,14.32,0,0,0-5.11,5.77c-1.74,2.18-2.09,4.93-3,7.44s-1.84,4.82-2.77,7.23l-5.09,5.26-2.39,1.24c-.62-1.16-1.21-2.34-1.85-3.48-1.1-2-1.38-3.91-.12-5.91,2.12-1.61,3-4,3.69-6.39a124.32,124.32,0,0,1,4.66-13.41c1.18-2,3.22-3.5,3.78-5.92,2.49-.72,4.19-2.47,5.77-4.39,1.65,0,2.79-1,3.94-2,2-1.14,4.17-2,5.74-3.84,1.11,1.58-.37,2.55-.88,3.74-.2.92-1.05,1.25-1.65,1.8-1.22.7-2.36,1.53-3.49,2.26,0,0,0,0,0,0l.15-.14c1-.58,1.92-1.31,2.91-1.88,1-.42,1.59-1.61,2.85-1.58,2.7-4.76,7.08-3.86,11.29-3.28a10.4,10.4,0,0,0,2.16.2c8.14,2.54,13.2,8.48,17.18,15.61.81,2.53,3.21,3.62,5.07,5.34-1.84.8-3.34-.14-4.9-.45-3.29-1.1-3.23-4.4-4.45-6.84.1.25.24.47.34.7.43,2.63,2.11,4.65,3.38,6.86,1.81,1.12,1.22,2.85,1.09,4.44-.09,1.23-.33,2.46-.51,3.69a20.42,20.42,0,0,1-8.47,10.91,21.57,21.57,0,0,1-16.43.77,20.84,20.84,0,0,1-8.87-9.12c-1.82-9.46,1.79-15.74,9.93-17.42,4.59-.94,8,1,11,4.17,2.13,3.59,1.93,7.21.11,10.84-4.29,4.15-7.66,4.83-12.87,2.58-3.42-2.36-4-4.62-2.29-8.51,2.83-3.45,5.21-3.89,8.79-1.64a3.08,3.08,0,0,1,.58,3.51A2.8,2.8,0,0,1,237.91,39c-1.11-.09-1.57-.82-1.9-2.71.08,1.75.52,2.52,1.74,2.75,1.47.27,2.35-.58,3-1.76a2.92,2.92,0,0,0-.3-3.51c-3.48-2.5-5.93-2.16-8.91,1.26a6.14,6.14,0,0,0,.05,7,7.32,7.32,0,0,1,1,2.23c5.22,5.8,13,5.85,18.53.13A4.16,4.16,0,0,0,253,41.72c2.95-5.84,1.34-11.29-1.62-16.51-1.27-2.26-3-4.27-4.06-6.66-.55,0-.49.45-.63.76.15,1.21.31,2.42.46,3.64-.62.16-.95,1.37-1.89-.07C241.1,16.5,234.5,15.27,227.4,19.31Z"/><path class="cls-2" d="M116.13,87.85a2.85,2.85,0,0,0,2.5-1.21c3.9-.6,7-3.1,10.61-4.47,4.27-1.62,8.27-3.94,12.39-6a9.18,9.18,0,0,1,6.64-3c4.52-2,9.16-3.72,13.31-6.45,7-3.16,14.23-6,21-9.68a80.15,80.15,0,0,0,10.48-4.95c1.4,1.12,1.7,2.85,2.41,4.34,1.16,1.74.93,2.68-1.27,3.45-3.32,1.18-6.47,2.82-9.7,4.26a49.29,49.29,0,0,0-9,3.85l-16,7-1.88.73c-1.8,2.33-4.42,2.78-7.09,3.11a33.13,33.13,0,0,0-7.65,3.26L119.24,92.32c-1.73.09-3,1.13-4.48,1.91-1.7.18-3,1.26-4.48,1.93A108.63,108.63,0,0,0,96.84,102a16.11,16.11,0,0,0-5.4,2.36c-2.89.66-5.41,2.18-8,3.41L78,110.07a34.09,34.09,0,0,0-8,3.38c-1.3-.16-2.2.7-3.21,1.28-1.94.71-3.86,1.46-5.82,2.1-1.19.39-2.16.25-1.83-1.43l4.68-2.52a194.83,194.83,0,0,0,22.28-10.95c3.73-.48,6.63-2.92,10-4.25A145.73,145.73,0,0,0,116.13,87.85Z"/><path class="cls-2" d="M107.72,52.58l1.27.58c5.91,3.26,12.13,5.85,18.3,8.54l13.07,6.23c2.2,1.09,4.38,2.23,6.62,3.25.78.35,1,.63.42,1.31-1.88,1.47-3.72,3.07-6.4,2.6-3.25-.82-6.1-2.62-9.19-3.83-.95-.37-2-.57-2.93-.85a137.12,137.12,0,0,0-13.48-6.25C112,62.62,108.53,61,105,59.59c-1.35-.55-1.72-1.24-1.17-2.51.66-.74-.2-2.18,1.19-2.58C105.51,53.26,105.8,51.79,107.72,52.58Z"/><path class="cls-80" d="M141,75.09l6.4-2.6.87.69a24.94,24.94,0,0,1-6.64,3Z"/><path class="cls-81" d="M100.64,50c.87-.91.67-2.83,2.6-2.75,4.44,1.12,1.47,3.81,1.26,5.92-.57.79.09,2.15-1.19,2.62-.25.46-.51.92-.74,1.4-.71,1.44-.91,3.37-3.5,2.32S98,56.88,98.24,55.4A8,8,0,0,1,100.64,50Z"/><path class="cls-82" d="M100.64,50a19.79,19.79,0,0,1-2.4,5.37l-.73-.87a19.29,19.29,0,0,1,2.39-5.39Z"/><path class="cls-83" d="M103.31,55.82a5.24,5.24,0,0,1,1.19-2.62l.56,1.3-1.19,2.58Z"/><path class="cls-2" d="M170.44,82,173,83.23c6.19,3.44,12.77,6.08,19.2,9C199,95.9,206,99,213.1,102a76.63,76.63,0,0,0,10.47,5l17.25,8.4c-.12,2-1.38,1.68-2.67,1.29a86.57,86.57,0,0,1-12.81-5.25,21.4,21.4,0,0,0-4.34-1.81c-3.23-1.48-6.69-2.46-9.76-4.33a6.57,6.57,0,0,0-3.64-1,105.84,105.84,0,0,0-17.92-7.69c-1-1.77-2.94-1.74-4.52-2.41-9.28-4.1-18.4-8.61-28.13-11.66a6.6,6.6,0,0,0-4.41-1.85l-.65-1c2.05-2.24,4.44-3.54,7.59-2.78A.32.32,0,0,0,160,77,74.12,74.12,0,0,0,170.44,82Z"/><path class="cls-84" d="M196.16,55.56c.22-1.36-.72-2.31-1.24-3.38-1.12-2.29-1.34-4.17,1.76-4.9,1.76-.07,1.94,1.44,2.34,2.53a50.85,50.85,0,0,0,3.42,7.28c.35,2.16-1.41,2.38-2.74,2.74s-1.56-1.07-2-1.93S197.13,56,196.16,55.56Z"/><path class="cls-85" d="M42.38,30.06l2.67-6.95c.13,3.21-.27,6.2-2.55,8.52Z"/><path class="cls-86" d="M160.16,49.92l-3.88,2c-4.66,1.36-9.31.66-14-.08-4.44-2.41-8.14-5.56-10.15-10.36-2.6-7.13-1.89-13.85,2.5-20.11l3.28-3.28q12-8,24,0l3.29,3.27c4.36,6.27,5.1,13,2.49,20.11A23.5,23.5,0,0,1,160.16,49.92Z"/><path class="cls-87" d="M255,24.36c2,2.32,1.82,5.85,4.52,7.72l-.73.72c-2.65-1.47-3.35-4.06-3.88-6.75A1.53,1.53,0,0,1,255,24.36Z"/><path class="cls-88" d="M215.3,29.58l-1.86,2.74c-.47-.08-.53-.52-.73-.84a5.64,5.64,0,0,1,1.82-2.7Z"/><path class="cls-88" d="M85.38,28.78a5.18,5.18,0,0,1,1.8,2.72c-.17.31-.23.73-.69.79l-1.88-2.7Z"/><path class="cls-88" d="M73.74,16.89c-.84-.68-2.22-.7-2.53-2l.71-.74A4.1,4.1,0,0,1,73.84,16,.62.62,0,0,1,73.74,16.89Z"/><path class="cls-88" d="M226.07,15.33l1.86-1.17.75.5c-1,.5-1.26,1.91-2.56,2A1,1,0,0,1,226.07,15.33Z"/><path class="cls-89" d="M159.56,76.9c-2.84.06-5.13,1.66-7.59,2.78a1.68,1.68,0,0,0-1.4-.85,38.91,38.91,0,0,1,7.09-3.11Z"/><path class="cls-1" d="M139.24,203.35c0-5.54.09-11.08,0-16.62-.06-2.15.46-3,2.8-2.93,5.43.16,10.87.11,16.3,0,1.78,0,2.42.48,2.41,2.33q-.11,16.95,0,33.88c0,1.93-.78,2.31-2.47,2.29-5.43-.08-10.87-.12-16.3,0-2.08,0-2.79-.56-2.74-2.69C139.33,214.22,139.24,208.79,139.24,203.35Z"/><path class="cls-1" d="M162.64,180.85c.35,1.09.3,1.74-1.2,1.73q-11.48-.09-23,0c-1.5,0-1.54-.64-1.21-1.73a8.54,8.54,0,0,1,1.13-4.23c3-6.44,6.3-12.77,9-19.37,2.23-3.49,2.92-3.49,5.13,0,2.68,6.6,6,12.93,9,19.36A8.49,8.49,0,0,1,162.64,180.85Z"/><path class="cls-1" d="M165.24,172.45a42.6,42.6,0,0,0,5.13,8.29c-.18.58,1.18,1.29-.15,1.77a6,6,0,0,1-6.89-2.51c-2.29-2.2-3-5.28-4.32-8-2.33-4.85-4.72-9.68-6.86-14.63-.85-1-.64-3.14-2.18-3.15s-1.34,2.14-2.2,3.14c-3.13,6.93-6.5,13.76-9.66,20.67a3.68,3.68,0,0,1-1.52,2,6,6,0,0,1-6.89,2.51c-1.34-.48,0-1.18-.14-1.76q4.41-7.09,8.81-14.21c2.78-4.52,5.53-9,8.35-13.55.47-.76.89-1.25.23-2.22-2.94-4.27-2.71-5.48,1.29-8.43h3.43c3.53,2.72,3.94,4.45,1.47,8.21a2,2,0,0,0,0,2.55Q159.15,162.79,165.24,172.45Z"/><path class="cls-3" d="M162,202.85c0-5.43.17-10.87-.06-16.29-.12-2.81,1.32-2.89,3.3-2.71,1.71.15,3.87-.85,3.82,2.51q-.22,16.77,0,33.53c0,3.45-2.31,2.2-3.94,2.39-1.83.21-3.26.15-3.16-2.51C162.11,214.13,162,208.49,162,202.85Z"/><path class="cls-3" d="M137.94,203.3c0,5.22-.2,10.45.08,15.65.17,3-1.05,3.36-3.64,3.44-2.89.09-3.55-.83-3.5-3.59q.24-15.66,0-31.3c0-2.87.67-3.7,3.64-3.79,3.33-.09,3.53,1.38,3.46,3.94C137.85,192.87,137.94,198.09,137.94,203.3Z"/><path class="cls-90" d="M149.64,226.71H138.48c-1.08,0-2.16.11-2.14-1.54s1-1.59,2.15-1.59h22.95c1.12,0,2.12,0,2.13,1.6s-1.07,1.53-2.14,1.53Z"/><path class="cls-91" d="M136.59,180Q142,168.48,147.44,157c.66-.06,1,.14.72.87-3.37,7.8-7,15.5-10.89,23Z"/><path class="cls-91" d="M152.48,157q5.43,11.52,10.85,23.05l-.69.85c-3.92-7.54-7.51-15.23-10.89-23C151.47,157.09,151.82,156.89,152.48,157Z"/><path class="cls-92" d="M133,226.72c-1.21.08-2.18,0-2.16-1.58s1-1.6,2.14-1.6,2.09.08,2.09,1.63S134.09,226.77,133,226.72Z"/><path class="cls-92" d="M167.23,226.74c-1.24,0-2.39.2-2.42-1.47,0-1.49.76-1.78,2-1.73,1.07.05,2.16-.12,2.22,1.51S168.26,226.84,167.23,226.74Z"/><path class="cls-1" d="M196.25,204.39c0-6,.07-11.94-.05-17.9,0-2.12.66-2.7,2.74-2.68q12.47.18,24.93,0c2.08,0,2.75.56,2.74,2.67q-.13,18.06,0,36.13c0,2.07-.62,2.76-2.73,2.74q-12.47-.16-24.93,0c-2.11,0-2.77-.67-2.73-2.74C196.31,216.53,196.25,210.46,196.25,204.39Z"/><path class="cls-1" d="M220.27,163.53a69,69,0,0,0,5.12,9.6l4.52,9.38h-37c4.16-9,9.14-17.67,13.84-26.44,1.26-2.36,2.79-4.3.27-7.16-2.09-2.37.4-4.59,1.87-6.57,1.72-.07,3.46-.34,5.09.51,2.5,2.3,2.79,4.94.76,7.57a2.14,2.14,0,0,0-.16,2.81C216.49,156.65,218.37,160.1,220.27,163.53Z"/><path class="cls-1" d="M103.67,204.61c0,5.86-.08,11.73,0,17.58,0,2.26-.44,3.22-3,3.17q-12.3-.23-24.61,0c-2.34,0-2.84-.84-2.83-3q.12-17.91,0-35.8c0-2,.42-2.81,2.64-2.77,8.41.13,16.83.11,25.25,0,2,0,2.53.67,2.5,2.57C103.61,192.47,103.67,198.54,103.67,204.61Z"/><path class="cls-1" d="M102.5,173.14q2.27,4.68,4.52,9.37H70c1.91-4.72,4.64-9,6.95-13.54s4.76-9.18,7.14-13.78c1.44-1.87,2.45-3.36.21-5.81s-.11-4.95,1.67-7c1.73-.08,3.47-.33,5.1.51,2.48,2.27,2.78,4.89.81,7.53a2.13,2.13,0,0,0-.25,2.78C95.4,159.74,98.39,166.74,102.5,173.14Z"/><path class="cls-93" d="M219.34,135a33.61,33.61,0,0,0-4.14,0c-2.51.31-3.22-.61-3.24-3.14,0-2.69.77-3.53,3.4-3.31a54.62,54.62,0,0,0,8.29,0c2.46-.18,3.27.56,3.27,3.14s-.8,3.64-3.43,3.3A31.89,31.89,0,0,0,219.34,135Z"/><path class="cls-93" d="M96.36,135H93.17c-4,0-4.84-1.14-4-5.13.24-1.21.94-1.23,1.81-1.23,3.72,0,7.45,0,11.17,0,2.62,0,1.73,1.93,1.74,3.18s.83,3.24-1.76,3.19C100.19,135,98.28,135,96.36,135Z"/><path class="cls-93" d="M158.24,135a39,39,0,0,0-4.46,0c-2.45.28-3.27-.53-3.27-3.12s.71-3.54,3.38-3.33a73.2,73.2,0,0,0,9.25,0c3-.16,2.13,1.89,2.22,3.42s.26,3.31-2.33,3A42.5,42.5,0,0,0,158.24,135Z"/><path d="M52.59,18.51c.18-.58.62-1.45,1.11-.86.67.8-.18,1.42-1,1.76Z"/><path class="cls-94" d="M59.16,33.4c2.08-2.57,4.68-2.37,7.27-1.13a5.87,5.87,0,0,1,3.44,6.78c-.33,1.62-.34,3.81-2.43,4.69L66.65,43c2.42-3.18,2.68-6,.76-8.22s-4.44-2.45-7.67-.62C59.33,34.05,59.29,33.69,59.16,33.4Z"/><path class="cls-87" d="M231.86,35.31c-1.38,3.24-.51,6,1.89,8.35l-1.18.54c-3.14-3.42-3.53-6.12-1.44-9.75A.91.91,0,0,1,231.86,35.31Z"/><path d="M246.68,19.31l-1.3-1.76c1.1-.36,1.73-.07,1.93,1Z"/><path class="cls-95" d="M59.16,33.4l.58.71c-.55,1.53-1,3.08.95,4a2.09,2.09,0,0,0,2.57-.72c.94-1.37-.92-1.12-1.35-1.79a1.63,1.63,0,0,1,2.72.26,1.7,1.7,0,0,1-.24,2.34c-1.11.89-2.21,2-3.9,1.47C58,38.84,57.31,35.57,59.16,33.4Z"/><path class="cls-96" d="M73.74,16.89l.1-.91A7.74,7.74,0,0,1,77.64,18c.11.61,0,1-.74.69Z"/><path d="M88,33.36c.74,1.12,1.57,2.22.87,4l-1.71-4A.54.54,0,0,1,88,33.36Z"/><path class="cls-97" d="M76.9,18.72l.74-.69a3.16,3.16,0,0,1,2.11,2.34A5.4,5.4,0,0,1,76.9,18.72Z"/><path d="M88,33.36l-.84.07-.65-1.14.69-.79A2.71,2.71,0,0,1,88,33.36Z"/><path class="cls-88" d="M240.93,33.37c1.67,1.86,1.22,3.7-.28,5.3a3.21,3.21,0,0,1-4.34.34,2.27,2.27,0,0,1-1.23-2.67c.44-1.46,1.49-1.6,2.85-1,0,1-2,.44-1.45,1.75a1.8,1.8,0,0,0,1.79,1.06,2.09,2.09,0,0,0,2.09-1.6,5.17,5.17,0,0,0-.18-2.48C240,33.44,240.25,33.19,240.93,33.37Z"/><path class="cls-94" d="M240.93,33.37l-.75.74c-3.54-2-5-1.79-8.32,1.2l-.73-.86C234.16,30.82,237.57,30.44,240.93,33.37Z"/><path class="cls-96" d="M226.07,15.33l.05,1.36c-1,.71-1.83,1.72-3.11,2-.72.28-.85-.08-.73-.69Z"/><path class="cls-98" d="M212.71,31.48l.73.84a4.86,4.86,0,0,1-1.33,2.48c-.43-.06-.48-.42-.59-.74C211.92,33.2,212.32,32.34,212.71,31.48Z"/><path class="cls-97" d="M222.28,18l.73.69-2.75,2C220.27,18.91,221.38,18.55,222.28,18Z"/><path d="M211.52,34.06l.59.74a1.88,1.88,0,0,1-2,1.85C210.69,35.62,211.11,34.84,211.52,34.06Z"/><path d="M255,24.36l-.09,1.69a6.38,6.38,0,0,1-1.15-3.45C254.82,22.86,254.92,23.6,255,24.36Z"/><path class="cls-99" d="M154.26,197.87a40.82,40.82,0,0,1,0,4.14c-.14,1.5.87,3.82-.76,4.33-2.12.67-4.6.32-6.91.16-1.11-.08-.89-1.29-.89-2.1,0-4.35-.08-8.7,0-13.05.08-3.06,1.86-4.91,4.34-4.86s4.09,1.91,4.21,5C154.32,193.62,154.25,195.75,154.26,197.87Z"/><path class="cls-100" d="M152.48,157l-.73.87c-.52-.85-1.05-1.71-1.61-2.6-1.28.46-1.09,1.94-2,2.6l-.72-.87a18,18,0,0,1,2.51-5.14A17.65,17.65,0,0,1,152.48,157Z"/><path class="cls-101" d="M215.71,202.33c0,1.38.07,2.76,0,4.14-.11,1.77.86,4.27-.52,5.15-1.88,1.22-4.54.39-6.86.39-1.2,0-1.2-1-1.2-1.83,0-5.43-.08-10.85.06-16.27.06-2.5,1.4-4.29,4.13-4.33,2.91-.05,4.22,1.8,4.36,4.45s0,5.53,0,8.3Z"/><path class="cls-101" d="M92.81,202.23c0,2.55-.07,5.11,0,7.66.06,1.66-.58,2.14-2.22,2.21-6.41.29-6.41.34-6.41-6,0-3.83,0-7.66,0-11.49.06-3.34,1.71-5.17,4.41-5.09,2.54.07,4,1.85,4.17,5,0,.11,0,.22,0,.32Z"/></svg>