<svg id="Layer_1" data-name="Layer 1" xmlns="http://www.w3.org/2000/svg" viewBox="0 0 300 300"><defs><style>.cls-1{fill:#fdbd10;}.cls-2{fill:#916c09;}.cls-3{fill:#f7b910;}.cls-4{fill:#f5b70f;}.cls-5{fill:#0a0801;}</style></defs><path d="M20.39-.61H279.61a1,1,0,0,1,1,1v171A128.64,128.64,0,0,1,152,300h-3.21A129.36,129.36,0,0,1,19.4,170.63V.38a1,1,0,0,1,1-1Z"/><path class="cls-1" d="M150,4.27q61.47,0,122.94-.06c2.42,0,3,.6,3,3-.09,54.73,0,109.46-.16,164.18-.08,24.66-6.13,47.82-19.81,68.55-19.09,28.92-46.27,46.19-79.81,53.41-34.28,7.37-66.4.87-95.87-17.71-28.93-18.22-46.54-44.58-53.49-78a147,147,0,0,1-2.8-30q0-80.21-.06-160.43c0-2.54.81-2.93,3.1-2.93Q88.57,4.33,150,4.27Z"/><path d="M143.79,242a7.33,7.33,0,0,1-11.22-.94c-1.59-2.06-.48-7.13,2-8.31,3.45-1.65,7-3.08,10.5-4.6,1.25-.54,2.77-1.13,2.17-2.79-.53-1.48-2.09-1.32-3.46-1.1-1.68.26-3.29,1.26-5.09.32-.94-.49-1.1.38-1.19,1.05-.14,1.06.67,1.79,1.07,2.78-2,.82-3.33-.12-4.12-1.68a5.76,5.76,0,0,1,4.92-8.13,43.84,43.84,0,0,1,6.44.68,12.28,12.28,0,0,0,3.73.05c4.14-.69,5.12-1.53,5.44-5.7.53-6.8.8-13.63,1.24-20.44.15-2.24-1.61-3.16-2.83-4.41-.72-.73-1,.12-1,.68-.07,3.79-2.82,4.92-5.75,5.95q-10.12,3.54-20.2,7.17c-.9.33-2,.37-3,1.8,2.77,0,5.2,0,7.62,0,3.06,0,4.85,1.5,5.75,4.77.73,2.65-.4,6.56-2.44,7.53-1.41.66-3,.33-4.49.2-.25-.94.35-1.15.74-1.29,1.65-.58,1.74-1.5,1.21-3.07-.6-1.78-1.56-1.58-2.85-1.08a3.66,3.66,0,0,1-3.49-.69c-3.14-2-5.19-1.32-6.91,2.05-1.2,2.33-.91,5.22-3,7.25-.86.84.42,1.45,1.08,1.77a30,30,0,0,0,3.32,1.1c-2.51,2.23-6.9,2.45-9,.61-2.31-2-2.54-5.42-.49-8.35,1.39-2,2.88-3.88,4.3-5.83.27-.36.78-.77.27-1.26a1,1,0,0,0-1.17,0c-3.19,2-7.35,2.4-9.5,6-.46.78-1.39.9-2.16,1.15-2,.68-2.33,1.87-1.28,3.63a7.37,7.37,0,0,1,1.44,2.86A7.91,7.91,0,0,1,94,214c-.16-3.48,3.35-6.91,7.32-7.06,3.18-.13,6.35-.16,9.11-2.06.46-.31,1.28-.35,1.3-1s-.87-.89-1.38-1.26-10.63-.11-11.13.08c-1.6.64-1.22,2.63-2.41,3.59-2-5,3.09-11.76,8.3-11.26,1.63.16,2.63,1.34,3.75,2.31,2.31,2,8.74,2.95,11.45,1.59,5.86-3,11.66-6,17.56-8.93,2.22-1.08,2.2-2.14.74-3.88a41.36,41.36,0,0,0-7.5-7.28c-7.63-5.51-15.47-10.7-22.71-16.74-7.68-6.42-13.54-14-15.38-24.09-.39-2.14-1.35-4.54,2-5.28.82-.18.74-1,.77-1.67.34-10.19,3-19.85,6.75-29.26.25-.63.77-1.32.1-2.14-1.22.37-1.41,1.54-1.83,2.46-3.95,8.63-6.6,17.57-6.54,27.17,0,2.15-1.42,2.89-3.35,1.62-3.56-2.33-5.36-5.91-6-10a20.47,20.47,0,0,1,.84-9.62c.42-1.31.92-1.83,2.46-1.44,2.41.62,4.91,1,7.44-.15-.25-.55-.45-1.08-.72-1.58-2-3.78-1.55-7.38.78-10.83s4.81-7,7.14-10.53a17.94,17.94,0,0,0,1.69-3.6,4.38,4.38,0,0,0,0-3.3c-.36.11-.62.13-.63.21-1.37,5.9-5.46,10.2-8.83,14.9-2.69,3.74-4.09,7.59-2.43,12.12.41,1.15-.08,1.45-1.17,1.42a7.13,7.13,0,0,1-6.28-3.87c-2.27-3.9-2.39-8-1.24-12.32a53.37,53.37,0,0,1,5.26-11.81c2.13-3.85,4.32-7.68,6.3-11.62,2.56-5.09.61-9.46-4.85-11.09a90.6,90.6,0,0,0-13-2.47c-.89-.13-2.46.15-2.53-1s1.5-1.44,2.48-1.67c3.47-.8,7-.37,10.43.06s7.08,1.08,10.62,1.6c.79.11,1.6.09,2.44.14,0-1.29-1-1.29-1.6-1.43a136.91,136.91,0,0,0-16.5-2.65,16.71,16.71,0,0,0-12,3.87,16.65,16.65,0,0,1-1.58,1.22c-1.55.91-2.75.38-2.69-1.36C67,49.33,68.47,45,72.53,42c5.17-3.84,11.3-4.25,17.38-4.41,2.83-.07,5-.54,6.84-2.92,2.75-3.54,6.63-5,11.13-5.25a68.18,68.18,0,0,1,16.39,1,10.46,10.46,0,0,1,7.94,6.49,42.08,42.08,0,0,1,3,10,15.24,15.24,0,0,0,5.51,9.43,37.73,37.73,0,0,1,8.23,9c2.95,4.78,3.67,9.83,1.23,15a10.65,10.65,0,0,1-9.58,6.54,6.23,6.23,0,0,1-6-3.66c-.47-1.19-.56-2,1.14-1.58a4.06,4.06,0,0,0,4.64-2.12c1-1.64.35-3.22-.62-4.64a10.58,10.58,0,0,0-2-2.26c-3.63-2.93-7.28-5.81-8.9-11.08a4.85,4.85,0,0,0,.45,5.39c1.12,1.8,2.86,3,4.45,4.33,1.21,1,2.45,2,3.6,3.08s1.94,2.7,1.16,4.28-2.58,1.79-4.16,1.25c-1.92-.66-1.71.64-1.7,1.67,0,4.5,4.88,7.94,9.6,6.89,3.45-.76,5.89-2.82,8-5.6,2.69-3.61,2.76-3.54,4.92.21a23.38,23.38,0,0,0,2.18,3.34c5.89,7,6.91,14.47,1.82,22.87,3-1.31,3.89-3.72,5.16-6.23,3.45,3.31,6.06,7,8.87,10.53,8.39,10.56,12.74,23,17,35.57,5.87,17.13,2.31,12,15.84,25.51,9.3,9.31,18.93,18.28,28.48,27.34,1.37,1.3,1.64,2.16.53,3.88-6.56,10.12-13,20.33-19.63,30.85-4.32-8.48-8.4-16.77-12.71-24.93a236.75,236.75,0,0,0-14.6-23.58c.77,4,1.52,8,2.32,11.93,1.66,8.33,2.69,16.75,3.74,25.17.1.87.71,2.24-.48,2.63-1,.3-1.39-1-1.86-1.74-7.39-11.37-14.53-22.92-22.16-34.13-10.91-16-23-31.22-34.5-46.84-5.67-7.71-11.51-15.31-16.63-23.4-3.86-6.11-6.07-12.71-4.93-20.13,1-6.77,8.7-13.79,17.49-10.09.65.28,1.32.78,2.16.29-.18-1.32-1.35-1.53-2.28-1.93-7.81-3.35-17.07,2-18.69,10.79a28.67,28.67,0,0,0,4.52,21.22c10,15.38,21.25,29.82,32.14,44.54q7.82,10.53,15.75,21a5.68,5.68,0,0,1,1.17,5c-1.56,8.17-2.9,16.38-4.29,24.58-.19,1.15-1.16,2.65.13,3.4,1.53.9,3.37,1.52,5.23.51,1.31-.71,2.62-1.42,3.95-2.11,1.82-.92,3.2-.36,4.24,1.29,2.88,4.55,1.38,9.72-2.8,10.31-.41-1.57,1.44-3.43-.16-4.67-1.4-1.1-3,.5-4.52.48-2.41,0-4.82-.29-7.21-.56a2.13,2.13,0,0,0-2.46,1.14c-1.27,2.24-2.79,4.34-2.37,7.16.25,1.65-.78,2.85-1.79,4-1.49,1.63-.87,2.4,1,2.8a16,16,0,0,1,3.68,1.15,11,11,0,0,1-7.71,1.93c-2.4-.38-3.64-2.49-4.44-4.66a3.54,3.54,0,0,1,.74-3.28q2.35-3.39,4.67-6.79c.26-.39.73-.82.26-1.32s-1-.11-1.33.17A76.46,76.46,0,0,0,140,237.69c-1.4,1.51-.32,3.12,2.21,3.7C142.84,241.35,143.68,240.72,143.79,242Z"/><path class="cls-2" d="M143.79,242c-.3-.76-1.07-.31-1.55-.59.55-.33,1.15-.64,1.74-.19C144.24,241.4,144.09,241.77,143.79,242Z"/><path class="cls-3" d="M116.4,44.26c-.28-.59-.54-1.19-.85-1.77-.63-1.2-1.84-1.34-3-1.49-1.3-.16-1,1-1.35,1.71a2.93,2.93,0,0,1-3,1.86c-1.44-.06-2.67-.47-3.14-2s-.79-3.08-2.66-3.54a.74.74,0,0,1-.59-.94c.17-.61.73-.66,1.22-.56,3.9.8,7.82,1.52,11.68,2.49C116.81,40.55,117.21,42.22,116.4,44.26Z"/><path class="cls-4" d="M100.07,45.3c3.15,5.45,8.62,9.21,8.05,16a2.82,2.82,0,0,1-1.77-2.48,13.85,13.85,0,0,0-4.64-8A5,5,0,0,1,100.07,45.3Z"/><path class="cls-5" d="M107.94,42.67a1.22,1.22,0,0,1-1.33-1.37c0-.91.5-1.12,1.26-.93s1.64-.08,1.57,1.05A1.3,1.3,0,0,1,107.94,42.67Z"/></svg>