<svg id="Layer_1" data-name="Layer 1" xmlns="http://www.w3.org/2000/svg" viewBox="0 0 300 300"><defs><style>.cls-1{fill:#bd0000;}.cls-2{fill:#e4e4e4;}.cls-3{fill:#e1e1e1;}.cls-4{fill:#e3e3e3;}.cls-5{fill:#e2e2e2;}.cls-6{fill:#dcdcdc;}.cls-7{fill:#dfdfdf;}.cls-8{fill:#d7d7d7;}.cls-9{fill:#535353;}.cls-10{fill:#464646;}.cls-11{fill:#111;}.cls-12{fill:#010101;}</style></defs><path d="M22-.61H278a1,1,0,0,1,1,1v171A128.64,128.64,0,0,1,150.36,300h0A129.36,129.36,0,0,1,21,170.63V.38a1,1,0,0,1,1-1Z"/><path class="cls-1" d="M238.51,121c3.18-2.94,6.23-5.87,9.43-8.64a5.11,5.11,0,0,0,2-4.28c-.08-17,0-34-.1-51,0-2.47.72-3.27,3.1-3a44.74,44.74,0,0,0,4.81,0A6.75,6.75,0,0,0,255.05,52q-13.05-8-26.15-16c-1.52-.92-2.41-1.88-2.16-3.75.41-3.16-1.66-5.53-2.82-8.17-.54-1.23-1-2.23-.31-3.71a3.85,3.85,0,0,0-1.38-4.92,4.25,4.25,0,0,0-5.17-.12,3.8,3.8,0,0,0-1.59,4.85c.73,1.66.29,2.81-.4,4.17-1.47,2.89-3.27,5.69-2.71,9.2.2,1.29-.91,1.66-1.74,2.17L184.7,51.62a11.61,11.61,0,0,0-3,2.44c1.7,0,3.41.12,5.1,0,2-.18,2.55.54,2.54,2.53-.08,13.65,0,27.3,0,41V109c-26.29-12-52.32-12-78.57,0v-2.74c0-16.42,0-32.83-.06-49.25,0-2.49.75-3.25,3.12-3a38.26,38.26,0,0,0,4.55,0c-.14-1.08-1-1.18-1.6-1.53q-13.47-8.3-27-16.49c-1.52-.92-2.41-1.89-2.14-3.76.46-3.18-1.68-5.5-2.83-8.15-.53-1.23-1-2.23-.3-3.71a3.92,3.92,0,0,0-1.6-5.07,4.22,4.22,0,0,0-5,0,3.88,3.88,0,0,0-1.52,5.08c.72,1.51.22,2.52-.36,3.7-1.47,3-3.33,5.85-2.82,9.44.2,1.41-1.09,1.75-2,2.3q-12.95,8-25.92,15.86a10.61,10.61,0,0,0-2.81,2.29c1.71,0,3.42.13,5.11,0,2-.18,2.54.58,2.53,2.55-.08,13.31,0,26.63,0,39.94,0,4,0,8,0,12.06a3.86,3.86,0,0,0,1.47,3.24c3.32,2.93,6.54,6,9.77,9-.32.93-1,.61-1.52.61-9.88,0-19.76,0-29.64.07-2,0-2.3-.74-2.3-2.49q.06-55.9,0-111.8c0-2.26.8-2.53,2.73-2.53q59.41.08,118.84,0,59.91,0,119.84,0c2.18,0,3,.41,3,2.82q-.14,55.53,0,111.05c0,2.23-.47,3-2.85,3-9.38-.14-18.76,0-28.14-.07A3.75,3.75,0,0,1,238.51,121Z"/><path class="cls-1" d="M149.77,243.34c-12.31,0-24.61-.05-36.92,0-2,0-2.7-.5-2.69-2.63.1-14.74,0-29.47.07-44.21.09-20.33,15.31-37.51,34.93-39.54,21-2.18,39.44,11.07,43.81,31.47a38.46,38.46,0,0,1,.77,8.23c0,14.65-.06,29.3,0,43.95,0,2.32-.73,2.74-2.85,2.73C174.55,243.29,162.16,243.34,149.77,243.34Z"/><path class="cls-2" d="M69.89,220.63c0,.37,0,.58-.06.68-3.49,3.87-3.53,8.56-3.37,13.39.17,5.27,0,10.55.07,15.83,0,1.37-.32,1.84-1.8,1.88-9,.27-9,.32-14.21-7a120.6,120.6,0,0,1-22.66-70.45c-.07-12.14,0-24.28-.05-36.42,0-1.77.27-2.41,2.26-2.39,11.39.12,22.77.1,34.16.06,1.75,0,2.59.4,2.31,2.35-.17,1.12-.49,2.45,1.57,2.58.77,0,.38,1.47.38,2.26q0,29.26,0,58.52c0,1-.28,2.07.31,3,1.66,2.51.93,4.71-.85,6.72-2.16,2.44-1.33,5.37-1.47,8.14,0,.8.49.95,1.16.92S69.14,220.63,69.89,220.63Z"/><path class="cls-2" d="M229.91,220.91c3.54-.58,3.32-.59,3.61-4.17.23-2.92-1.4-4.89-2.75-7-.69-1.09-1-2-.33-3.2a9.55,9.55,0,0,0,1-5.08q0-28.87,0-57.76c0-1.1-.84-2.7,1.55-2.91.88-.08.42-1.77.39-2.7,0-1.35.26-1.82,1.77-1.82,11.8,0,23.6,0,35.4-.09,1.23,0,1.56.35,1.54,1.56-.28,16.23.85,32.51-.64,48.7C269.25,210.5,260.31,232,245.24,251a3.23,3.23,0,0,1-2.94,1.45,63.89,63.89,0,0,0-6.78,0c-1.64.09-2.14-.41-2.11-2.09.1-6.36-.08-12.72.09-19.08.08-3.05-.36-5.77-2.31-8.18A15.85,15.85,0,0,1,229.91,220.91Z"/><path class="cls-1" d="M229.16,267.17c-44.08,39.55-115.07,39-158.14.2C73.37,266.94,220.42,266.74,229.16,267.17Z"/><path class="cls-2" d="M80.24,108.72c-8.45,0-16.91,0-25.36,0-1.61,0-2.32-.2-2.31-2.11q.12-25.23,0-50.46c0-1.65.46-2.12,2.11-2.12q25.73.09,51.46,0c1.73,0,2,.61,2,2.18q-.07,25.23,0,50.46c0,1.68-.49,2.07-2.11,2.06C97.48,108.68,88.86,108.72,80.24,108.72Z"/><path class="cls-2" d="M219.43,108.72c-8.53,0-17.07,0-25.6,0-1.66,0-2.08-.45-2.08-2.09q.09-25.23,0-50.46c0-1.61.38-2.15,2.07-2.15q25.73.09,51.46,0c1.69,0,2.09.53,2.08,2.15q-.08,25.23,0,50.46c0,1.62-.4,2.11-2.07,2.09C236.67,108.67,228.05,108.72,219.43,108.72Z"/><path class="cls-2" d="M58.63,255H241.75a96.85,96.85,0,0,1-8.85,9.17c-.64.6-1.42.38-2.15.38q-80.76,0-161.53,0a4.15,4.15,0,0,1-3.1-1.23c-2.68-2.53-5.44-5-8.17-7.43Z"/><path class="cls-2" d="M202,127.62H98.19C123.93,104,171.18,100.86,202,127.62Z"/><path class="cls-2" d="M228.93,172.8q0,14.32,0,28.64a13.47,13.47,0,0,1,0,2c-.41,2.81-1.22,3.51-4,3.51-3.52,0-7.05-.24-10.54.07-2.89.26-3.61-1.35-4.06-3.52a9.5,9.5,0,0,1-.06-2c0-19.35,0-38.69-.06-58,0-2.09.5-2.68,2.61-2.59,4.51.17,9.05.21,13.56,0,2.36-.12,2.67.73,2.65,2.8C228.87,153.37,228.93,163.09,228.93,172.8Z"/><path class="cls-2" d="M89.74,172.8v28.65a9.91,9.91,0,0,1-.09,2.25c-.48,2.06-1.22,3.58-4,3.33a58.79,58.79,0,0,0-10.53,0c-2.91.27-3.59-1.38-4.07-3.52a8.88,8.88,0,0,1-.06-2c0-19.35,0-38.69,0-58,0-2.09.49-2.68,2.6-2.59,4.51.17,9.05.21,13.56,0,2.36-.12,2.68.72,2.66,2.8C89.68,153.37,89.74,163.09,89.74,172.8Z"/><path class="cls-2" d="M91.75,239.62c0,3.69,0,7.37,0,11,0,1.28-.32,1.74-1.68,1.73-6.44-.06-12.89-.08-19.33,0-1.51,0-1.79-.54-1.77-1.89.05-7.2-.06-14.4.06-21.6,0-3.29,2.66-5.44,4.22-8,.19-.3,1.09-.23,1.67-.23,3.59,0,7.2,0,10.79-.05a3.05,3.05,0,0,1,2.82,1.56,15,15,0,0,1,3.24,11.19A54.62,54.62,0,0,0,91.75,239.62Z"/><path class="cls-2" d="M230.94,239.61c0,3.68-.05,7.37,0,11,0,1.25-.28,1.76-1.66,1.74q-9.8-.1-19.58,0c-1.26,0-1.55-.46-1.54-1.61,0-7.45-.17-14.91.11-22.35.11-2.95,2.54-5.14,4.14-7.54.19-.28.93-.25,1.42-.25,3.77,0,7.53,0,11.3,0a2.63,2.63,0,0,1,2.43,1.33c2.44,3.34,3.95,6.85,3.4,11.14A52.49,52.49,0,0,0,230.94,239.61Z"/><path class="cls-2" d="M205.66,136.48c0,1,0,2,0,3,0,.4.05,1.13.17,1.15,3.29.56,1.74,3.13,1.76,4.71.14,10.28.07,20.57.07,31.5-8.78-22.34-24.33-35.83-47.56-40.06-.07-.83.58-.66,1-.66q21.83,0,43.64,0A1.12,1.12,0,0,1,205.66,136.48Z"/><path class="cls-2" d="M139.83,136.8c-19.13,3.32-33.47,13.46-43.12,30.27-1.69,3-2.84,6.15-4.46,9.22q0-17,0-34c0-.39.1-1.11.24-1.14,3.35-.56,1.12-3.18,1.77-4.71.71-.68,1.59-.35,2.39-.35q20.46,0,40.9,0C138.3,136.15,139.4,135.49,139.83,136.8Z"/><path class="cls-2" d="M149.82,252.37c-12.38,0-24.76,0-37.14,0-1.87,0-2.62-.32-2.53-2.41.16-4.16,0-4.16,4.21-4.16,24.26,0,48.52,0,72.78-.07,2.31,0,3,.68,2.62,2.77a4.78,4.78,0,0,0,0,1.51c.3,1.84-.36,2.39-2.29,2.37C174.92,252.33,162.37,252.37,149.82,252.37Z"/><path class="cls-2" d="M110.07,51.4H50.7c8-4.87,15.49-9.44,23-14.07,1.48-.92,3.07-.54,4.62-.72,5.22-.62,9.72.83,14.06,3.82C97.9,44.24,103.78,47.54,110.07,51.4Z"/><path class="cls-2" d="M248.26,51.44H189.9l7.91-4.89c4.42-2.71,8.88-5.35,13.24-8.14a12.94,12.94,0,0,1,6.32-1.87,20.89,20.89,0,0,1,14.29,4c5.4,3.74,11.18,6.94,16.79,10.38Z"/><path class="cls-2" d="M210.49,127.54c-2.88.64-4.88-.25-7-2-30.76-26.21-77.88-25.77-108.2,1-1.83,1.61-3.7,1-5.77,1.28C118.23,97,174.28,91.49,210.49,127.54Z"/><path class="cls-3" d="M150,133.66c-17.17,0-34.33,0-51.5,0-1.71,0-2.42-.4-2.25-2.21.09-1,.46-1.32,1.37-1.26.41,0,.83,0,1.25,0q51.12,0,102.23,0c.87,0,2.31-.87,2.59.95s-.15,2.49-2.2,2.48C184.3,133.62,167.14,133.66,150,133.66Z"/><path class="cls-4" d="M68.54,127.75l-.53,0c-3.49.06-3.62.07-3.47,3.54.08,1.9-.49,2.38-2.36,2.36q-16.08-.13-32.15,0c-1.73,0-2.36-.42-2.22-2.21.2-2.4-.76-5.57.45-7s4.55-.45,7-.46c8.54-.06,17.08,0,25.61,0C65.26,124,65.26,124,68.54,127.75Z"/><path class="cls-4" d="M231.46,127.75c2-3.06,4.59-4,8-3.87,10,.23,20.08.12,30.12.05,1.82,0,2.82.24,2.53,2.39-.32,2.37,1,5.56-.54,6.93-1.36,1.18-4.46.39-6.79.4-9,0-17.9,0-26.86,0-1.89,0-2.88-.36-2.49-2.44,0-.16,0-.34,0-.5.43-2.32-.34-3.46-2.85-2.95A5.51,5.51,0,0,1,231.46,127.75Z"/><path class="cls-2" d="M245.16,111.4l-17.24,15.84c0-3.62-.06-6.67,0-9.72,0-1.34-.25-1.9-1.76-1.86-4.43.1-8.87.08-13.31,0-1.29,0-1.76.31-1.7,1.66.11,2.17,0,4.34,0,7.17a129.83,129.83,0,0,0-17.57-13.1Z"/><path class="cls-2" d="M88.73,124.54c0-2.83,0-5.07,0-7.29,0-1.17-.28-1.6-1.53-1.58-4.52.06-9,.07-13.56,0-1.34,0-1.71.4-1.67,1.7.09,3.07,0,6.15,0,9.86L54.85,111.45h51.24A139.43,139.43,0,0,0,88.73,124.54Z"/><path class="cls-4" d="M150,138.44c4.78-.05,4.82-.05,4.46,4.64-.24,3.25-.6,6.5-.91,9.74,0,.25.07.6-.07.74-1.71,1.78-3.88.16-5.78.75-1,.32-1.21-.39-1.28-1.27-.36-4.33-.71-8.67-1.18-13-.15-1.34.39-1.63,1.5-1.61Z"/><path class="cls-2" d="M202.17,170.54c-.08.68-.71.67-1.11.84-4,1.71-8,3.35-12,5.07-1.09.48-1.66.42-2.34-.74-2.52-4.26-2.58-4.23,1.53-7.09,2.61-1.82,5.23-3.61,7.82-5.45.78-.56,1.36-.88,2,.21,1.23,2.18,2.52,4.33,3.79,6.49C202,170.08,202.06,170.32,202.17,170.54Z"/><path class="cls-2" d="M115.64,171.65a30.11,30.11,0,0,1-3.12,4.9c-.76.83-2-.34-2.91-.71-3.57-1.41-7.07-3-10.63-4.4-1.09-.43-1.42-.87-.74-1.95,1.25-2,2.43-4,3.59-6,.54-.94,1-1,2-.38,3.67,2.62,7.39,5.18,11.09,7.76C115.21,171.07,115.61,171.26,115.64,171.65Z"/><path class="cls-2" d="M195.74,160.35c-4.11,2.86-8.15,5.66-12.15,8.5-.78.55-1.19.45-1.86-.21C178,165,178,165,181.5,161.27c2.11-2.25,4.27-4.46,6.32-6.76.88-1,1.49-1.28,2.54-.17A63.83,63.83,0,0,1,195.74,160.35Z"/><path class="cls-2" d="M121.73,164.74c-4.12,4.92-4.12,4.93-9.29,1.33l-8.21-5.72a52.69,52.69,0,0,1,5.41-6c.9-.94,1.46-.93,2.36.06C115.19,157.87,118.48,161.29,121.73,164.74Z"/><path class="cls-2" d="M175.89,163c-1.49-1-3.08-2.09-4.62-3.22-.09-.07.17-.73.36-1.06,2.23-3.83,4.5-7.62,6.69-11.47.62-1.1,1.15-1.1,2.14-.45,2.16,1.42,5.44,2.48,6,4.58s-2.78,3.61-4.33,5.45-3.28,3.57-5,5.32C176.85,162.52,176.61,163,175.89,163Z"/><path class="cls-2" d="M128.77,159.59c-.25.78-1.07.93-1.65,1.32-3.42,2.28-3.43,2.27-6.2-.68-2.35-2.49-4.65-5-7.06-7.46-1-1-.93-1.52.19-2.24,1.89-1.21,3.75-2.48,5.58-3.79.92-.65,1.42-.47,2,.48,2.2,3.83,4.46,7.63,6.69,11.44C128.45,159,128.59,159.25,128.77,159.59Z"/><path class="cls-2" d="M191.47,184.77c-.64.23-.92-.41-1.24-1.18-1.76-4.2-1.77-4.19,2.49-6,3.07-1.3,6.16-2.55,9.21-3.88,1.06-.46,1.66-.39,2,.85.59,2.08,1.26,4.14,2,6.18.31.89.28,1.31-.8,1.5C200.69,183,196.27,183.88,191.47,184.77Z"/><path class="cls-2" d="M93.71,182A61.87,61.87,0,0,1,96,174.43c.39-1.05.84-1.24,1.82-.82,4.07,1.74,8.14,3.47,12.24,5.14,1,.41,1.06.86.72,1.84-1.51,4.26-1.47,4.29-6,3.48C101.12,183.41,97.43,182.7,93.71,182Z"/><path class="cls-4" d="M200.54,205.63c2.09,0,4.18,0,6.27,0s2.79,1.62,1.95,3.39c-1.37,2.9-3.13,4.8-6.84,4.22a42,42,0,0,0-8-.05c-1.35,0-1.65-.47-1.69-1.74-.19-5.83-.23-5.83,5.57-5.83Z"/><path class="cls-4" d="M99.69,205.63c2.18,0,4.35,0,6.52,0,.54,0,1.38-.19,1.42.6.09,2.08.07,4.17,0,6.26,0,.85-.83.66-1.37.66-3.76,0-7.53.05-11.28,0-1.71,0-4.42-4.35-3.94-6a1.85,1.85,0,0,1,2.15-1.55C95.35,205.69,97.52,205.63,99.69,205.63Z"/><path class="cls-4" d="M158.24,138.83c2.77.61,5,1.12,7.16,1.57,1.11.23,1.28.68.86,1.75-1.58,4-3.12,8.07-4.56,12.16-.41,1.18-1,1.27-2,1.08-3.85-.69-3.8-.66-3.37-4.73.37-3.41.59-6.82.89-10.23C157.25,139.46,157.32,138.4,158.24,138.83Z"/><path class="cls-4" d="M143.85,152.88c.33,1.32-.1,2.19-1.42,2s-3.18,2.13-4.19-.64c-1.46-4-2.9-8-4.49-11.92-.56-1.38-.17-1.76,1.11-2,2-.37,4.08-.8,6.1-1.31,1.38-.35,1.75.23,1.85,1.47C143.12,144.65,143.5,148.81,143.85,152.88Z"/><path class="cls-4" d="M200,203.12c-2.09,0-4.25.34-6.25-.08-3.25-.69-.79-3.42-1.38-5.13-.29-.84-.71-2.41,1.39-2.36,4.17.09,8.35,0,12.52,0,.55,0,1.37-.17,1.4.64.08,2.08.06,4.17,0,6.25,0,.83-.86.63-1.4.64C204.13,203.13,202,203.12,200,203.12Z"/><path class="cls-4" d="M99.79,203.12h-2c-6,0-6,0-5.56-6.1.07-1.06.34-1.47,1.43-1.46q6.39.06,12.78,0c1,0,1.38.37,1.26,1.33a2.08,2.08,0,0,0,0,.25c.32,6,.32,6-5.65,6Z"/><path class="cls-4" d="M100,193.07a45.94,45.94,0,0,0-5.25,0c-2.17.24-2.44-.68-2.28-2.57.51-6,.44-6,6.33-5,2.7.47,5.4,1.08,8.12,1.43,1.51.19,1.61.76,1.41,2.09-.62,4-.55,4-4.57,4Z"/><path class="cls-4" d="M199.63,193.07c-1.83,0-3.68-.11-5.51,0-1.46.11-2-.35-2.21-1.84-.61-4-.69-4,3.36-4.65,3.28-.56,6.57-1.14,9.83-1.83,1.28-.28,1.7,0,2,1.31,1.38,6.66,1.17,7-5.43,7Z"/><path class="cls-4" d="M136.13,155.79c.35.75-.36.82-.73,1-3.86,2.18-4.08,2.11-6.33-1.74-1.64-2.81-3.21-5.67-5-8.42-.87-1.36-.88-2,.74-2.75,5.83-2.7,5.8-2.76,8,3.22Z"/><path class="cls-2" d="M168.42,158.42c-1.5-.64-3-1.25-4.41-1.9-.59-.28-.17-.71,0-1.05,1.56-4.23,3.15-8.45,4.68-12.68.39-1.07,1-1.18,1.92-.76.15.07.29.16.45.22,6.06,2.23,6.06,2.23,2.84,7.72-1.43,2.46-2.86,4.91-4.32,7.35C169.27,157.78,169.17,158.49,168.42,158.42Z"/><path class="cls-4" d="M90.84,220.76a5,5,0,0,1,1.24-.12c1.76.28,2.5-.44,2.18-2.19-.44-2.36.6-3,2.84-2.82,3,.19,6,.09,9,0,1.17,0,1.54.32,1.6,1.55.28,6,.32,6-5.68,6H94.27C91.93,223.22,91.93,223.21,90.84,220.76Z"/><path class="cls-4" d="M209.16,220.54c-.52,2.25-1.68,2.79-3.56,2.72-3.84-.14-7.7-.1-11.55,0-1.44,0-1.8-.44-1.83-1.85-.11-5.72-.16-5.72,5.44-5.72,2.09,0,4.18,0,6.27,0,1.21,0,2,.19,1.75,1.62C205.24,219.86,206,221.34,209.16,220.54Z"/><path class="cls-4" d="M101,225.73h1.25c6,0,6,0,5.52,6.12-.08,1.08-.39,1.46-1.47,1.44-3.5,0-7-.06-10.52,0-1.3,0-1.54-.57-1.48-1.67a11,11,0,0,0,0-3.49c-.74-2.58.71-2.53,2.48-2.43C98.1,225.8,99.53,225.73,101,225.73Z"/><path class="cls-4" d="M199.32,225.73c.25,0,.5,0,.75,0,2,.17,4-.35,5.93.29-.62,1.86-.27,3.79-.29,5.68,0,1.18-.35,1.62-1.57,1.6-3.42-.07-6.85-.1-10.27,0-2.45.07-1.82-1.83-1.52-2.74.52-1.6-1.94-4.27,1.46-4.78A37.49,37.49,0,0,1,199.32,225.73Z"/><path class="cls-4" d="M101,243.33H99.75c-6,0-6,0-5.52-6.15.08-1.09.42-1.42,1.47-1.41,3.5,0,7,0,10.51,0,.55,0,1.38-.19,1.42.6.09,2.09.07,4.17,0,6.26,0,.85-.83.66-1.37.67C104.5,243.34,102.75,243.33,101,243.33Z"/><path class="cls-4" d="M199.21,235.78h1c6,0,6,0,5.51,6.14-.09,1.09-.43,1.44-1.49,1.42-3.5,0-7,0-10.52,0-.53,0-1.35.2-1.38-.65-.08-2.08-.1-4.17,0-6.25,0-.81.85-.62,1.39-.63C195.54,235.77,197.38,235.78,199.21,235.78Z"/><path class="cls-3" d="M219.58,130.33c3.93,0,7.87,0,11.8,0,1.12,0,1.74.13,1.6,1.46-.11,1,.14,1.74-1.5,1.77q-11.92.24-23.83,0c-1.65,0-1.39-.78-1.5-1.79-.14-1.36.54-1.46,1.62-1.44C211.71,130.36,215.64,130.33,219.58,130.33Z"/><path class="cls-3" d="M80.32,133.48c-4,0-8-.1-12,.05-1.6.06-1.25-.83-1.3-1.7s0-1.54,1.26-1.53q12.18.09,24.36,0c1.39,0,1.17.84,1.15,1.64s.33,1.63-1.15,1.58C88.52,133.4,84.42,133.48,80.32,133.48Z"/><path class="cls-5" d="M101.18,252.38c-1.75,0-3.51-.08-5.26,0-1.34.08-1.66-.45-1.69-1.72-.14-4.85-.19-4.85,4.54-4.85,2.5,0,5,0,7.51,0,1.08,0,1.37.37,1.44,1.44.33,5.12.37,5.12-4.79,5.12Z"/><path class="cls-5" d="M199.18,245.83h3c3.51,0,3.34,0,3.56,3.6.15,2.41-.52,3.2-3,3a82.55,82.55,0,0,0-8.76,0c-1.22,0-1.74-.24-1.78-1.63-.18-4.94-.24-4.94,4.71-4.94Z"/><path class="cls-5" d="M219.46,118.2c5.95,0,5.95,0,5.95,5.5,0,.75-.06,1.51,0,2.25.13,1.29-.11,1.94-1.68,1.93s-1.83-.66-1.72-1.95c.07-.91-.11-1.86,0-2.76.33-2.06-.61-2.37-2.48-2.45-2.19-.09-2.81.66-2.53,2.68.13.9,0,1.85,0,2.76.13,1.31-.35,1.72-1.67,1.7s-1.89-.27-1.7-1.65a16.84,16.84,0,0,0,0-2c.05-1.91-.62-4.46.35-5.56C215.23,117.33,217.85,118.4,219.46,118.2Z"/><path class="cls-5" d="M80.24,118.2c6,0,6,0,6,5.71a18.9,18.9,0,0,0,0,2.26c.16,1.33-.35,1.71-1.67,1.69s-1.85-.31-1.7-1.67c.1-1-.1-2,0-3,.3-2.05-.62-2.38-2.49-2.46-2.2-.09-2.81.65-2.53,2.67.13.9,0,1.85,0,2.76.13,1.32-.37,1.73-1.69,1.71s-1.92-.2-1.72-1.62a16.83,16.83,0,0,0,0-2c0-1.91-.64-4.44.33-5.57C76,117.31,78.63,118.42,80.24,118.2Z"/><path class="cls-6" d="M70.31,213c.79-3,2.63-3.82,5.46-3.6a58,58,0,0,0,9.5,0c2.85-.26,4.39.87,5.19,3.61Z"/><path class="cls-6" d="M229.59,213.09H209.44c.83-2.45,2-4,4.95-3.7a63.47,63.47,0,0,0,9.75,0C226.91,209.22,228.89,209.88,229.59,213.09Z"/><path class="cls-7" d="M80.42,215.68c3.18,0,6.36,0,9.54,0,.86,0,1.89-.31,1.83,1.25-.06,1.31-.84,1.2-1.69,1.2H70.58c-.93,0-1.59,0-1.61-1.28s.84-1.17,1.66-1.17Z"/><path class="cls-7" d="M219.64,215.68c3.26,0,6.53,0,9.79,0,.71,0,1.53-.22,1.54,1,0,1.09-.37,1.44-1.46,1.43q-9.88,0-19.77,0c-1,0-1.58-.1-1.58-1.32,0-1.39.89-1.14,1.69-1.14C213.11,215.67,216.37,215.68,219.64,215.68Z"/><path class="cls-5" d="M84.18,28.72H76.59c1-2,1.87-3.87,2.78-5.71.45-.9,1-1.56-.4-2.34s-1.32-2.28-.2-3.39a2.14,2.14,0,0,1,3.32.08c1,1.08,1.06,2.52-.19,3.26-1.41.83-1,1.51-.44,2.51C82.38,24.89,83.2,26.69,84.18,28.72Z"/><path class="cls-5" d="M223.35,28.71h-7.58c1-2,1.86-3.88,2.79-5.71.45-.91.93-1.56-.42-2.34s-1.3-2.29-.18-3.39a2.14,2.14,0,0,1,3.32.1c1,1.09,1.05,2.51-.21,3.25-1.42.84-.94,1.53-.43,2.52C221.56,24.9,222.38,26.7,223.35,28.71Z"/><path class="cls-2" d="M219.63,136.17c3.25,0,6.51,0,9.76,0,.9,0,1.62,0,1.57,1.27s-.91.94-1.58.94c-6.59,0-13.17,0-19.76,0-.78,0-1.47.1-1.45-1.09s.66-1.14,1.46-1.13C213,136.18,216.3,136.17,219.63,136.17Z"/><path class="cls-2" d="M80.1,138.38c-3.25,0-6.5,0-9.75,0-.89,0-1.4-.12-1.36-1.19s.55-1,1.29-1q10.13,0,20.25,0c.8,0,1.2.19,1.24,1.1,0,1.15-.61,1.12-1.42,1.12C86.93,138.37,83.52,138.38,80.1,138.38Z"/><path class="cls-8" d="M219.44,34.13c-1.08,0-2.17,0-3.25,0s-1.3-.62-1.33-1.58.36-1.3,1.3-1.28c2.25,0,4.5,0,6.75,0,.91,0,1.39.22,1.34,1.25s-.09,1.66-1.31,1.61S220.61,34.13,219.44,34.13Z"/><path class="cls-8" d="M80.59,31.29c1,0,2,0,3,0s1.56.12,1.5,1.34c0,1-.25,1.55-1.39,1.53-2.17,0-4.34-.07-6.5,0-1.28,0-1.49-.57-1.52-1.67,0-1.35.83-1.19,1.65-1.19Z"/><path class="cls-9" d="M205.66,136.48l-43.91-.14c-.58,0-1.19-.07-1.62.45-1.3.33-2.33-.65-3.56-.84.61,0,1.22-.12,1.83-.12,14.52,0,29,0,43.56,0C203.19,135.87,204.59,135.36,205.66,136.48Z"/><path class="cls-10" d="M139.83,136.8a1.39,1.39,0,0,0-1.35-.48l-44.21.16c.16-.67.7-.59,1.19-.59,15.94,0,31.87,0,47.86.24C142.1,136.14,141.14,137.16,139.83,136.8Z"/><path class="cls-11" d="M148.07,136c-.85.51-1.46.27-2.32.24A2.47,2.47,0,0,1,148.07,136Z"/><path class="cls-12" d="M98.86,70.05a4.52,4.52,0,0,1-4.45-4.5,4.55,4.55,0,1,1,9.09,0A4.49,4.49,0,0,1,98.86,70.05Z"/><path class="cls-12" d="M66.37,65.44A4.55,4.55,0,0,1,62,70.05a4.47,4.47,0,0,1-4.73-4.43A4.52,4.52,0,0,1,61.6,61,4.59,4.59,0,0,1,66.37,65.44Z"/><path class="cls-12" d="M80.42,70.05a4.49,4.49,0,0,1-4.57-4.36,4.55,4.55,0,1,1,4.57,4.36Z"/><path class="cls-12" d="M238.08,61a4.51,4.51,0,0,1,4.57,4.37,4.47,4.47,0,0,1-4.46,4.7,4.56,4.56,0,0,1-4.62-4.59A4.63,4.63,0,0,1,238.08,61Z"/><path class="cls-12" d="M205.53,65.62a4.55,4.55,0,0,1-9.09-.18,4.55,4.55,0,0,1,9.09.18Z"/><path class="cls-12" d="M219.5,70.05A4.54,4.54,0,0,1,215,65.6a4.55,4.55,0,1,1,9.09.11A4.48,4.48,0,0,1,219.5,70.05Z"/></svg>