<svg id="Layer_1" data-name="Layer 1" xmlns="http://www.w3.org/2000/svg" viewBox="0 0 300 300"><defs><style>.cls-1{fill:#00339f;}.cls-2{fill:#00329c;}.cls-3{fill:#001b54;}.cls-4{fill:#001134;}.cls-5{fill:#00287d;}.cls-6{fill:#002677;}.cls-7{fill:#001e5e;}.cls-8{fill:#e9a900;}.cls-9{fill:#9c2235;}.cls-10{fill:#fefefe;}.cls-11{fill:#e8a900;}.cls-12{fill:#e8a800;}.cls-13{fill:#e7a800;}.cls-14{fill:#e6a700;}.cls-15{fill:#e5a700;}.cls-16{fill:#e4a600;}.cls-17{fill:#e5a600;}.cls-18{fill:#e3a500;}.cls-19{fill:#e2a400;}.cls-20{fill:#e4a500;}.cls-21{fill:#e1a400;}.cls-22{fill:#e2a500;}.cls-23{fill:#e1a300;}.cls-24{fill:#dfa200;}.cls-25{fill:#e0a300;}.cls-26{fill:#d79c00;}.cls-27{fill:#dca000;}.cls-28{fill:#d99d00;}.cls-29{fill:#ca9300;}.cls-30{fill:#d59a00;}.cls-31{fill:#d89d00;}.cls-32{fill:#ce9500;}.cls-33{fill:#a87a00;}.cls-34{fill:#c69000;}.cls-35{fill:#c48e00;}.cls-36{fill:#d29800;}.cls-37{fill:#c18c00;}.cls-38{fill:#ce9600;}.cls-39{fill:#d09700;}.cls-40{fill:#2e2200;}.cls-41{fill:#9b7100;}.cls-42{fill:#b58400;}.cls-43{fill:#bf8b00;}.cls-44{fill:#b80;}.cls-45{fill:#c89200;}.cls-46{fill:#b78500;}.cls-47{fill:#cb9300;}.cls-48{fill:#d69b00;}.cls-49{fill:#7f5d00;}.cls-50{fill:#b38200;}.cls-51{fill:#d39900;}.cls-52{fill:#d29900;}.cls-53{fill:#996f00;}.cls-54{fill:#140e00;}.cls-55{fill:#8f6800;}.cls-56{fill:#201700;}.cls-57{fill:#a37700;}.cls-58{fill:#956c00;}.cls-59{fill:#815e00;}.cls-60{fill:#896300;}.cls-61{fill:#b08000;}.cls-62{fill:#a67900;}.cls-63{fill:#725300;}.cls-64{fill:#9f7400;}.cls-65{fill:#b68400;}.cls-66{fill:#d69c00;}.cls-67{fill:#926a00;}.cls-68{fill:#aa7b00;}.cls-69{fill:#a57800;}.cls-70{fill:#322500;}.cls-71{fill:#4c3700;}.cls-72{fill:#cd9500;}.cls-73{fill:#8b6500;}.cls-74{fill:#b18100;}.cls-75{fill:#7e5c00;}.cls-76{fill:#6c4e00;}.cls-77{fill:#0a0700;}.cls-78{fill:#140f00;}.cls-79{fill:#130e00;}.cls-80{fill:#120d00;}.cls-81{fill:#0e0a00;}.cls-82{fill:#0b0800;}.cls-83{fill:#0f0b00;}.cls-84{fill:#0c0900;}.cls-85{fill:#1a1300;}.cls-86{fill:#191200;}.cls-87{fill:#100c00;}.cls-88{fill:#1b1400;}.cls-89{fill:#050400;}.cls-90{fill:#070500;}.cls-91{fill:#0e0b00;}.cls-92{fill:#513b00;}.cls-93{fill:#dda000;}.cls-94{fill:#9b7000;}</style></defs><path d="M24,.36H276a1,1,0,0,1,1,1V176.61A123.39,123.39,0,0,1,153.6,300h-7A123.62,123.62,0,0,1,23,176.38V1.36a1,1,0,0,1,1-1Z"/><path class="cls-1" d="M150.19,4.45q58.76,0,117.5,0c2.46,0,3.19.5,3.19,3.1-.09,55.06,0,110.11-.12,165.16-.06,24.29-6.08,47.07-19.36,67.55q-27,41.67-75.6,52.84a116.25,116.25,0,0,1-34.15,2.8c-25.18-1.79-48-10-67.6-26.23a123,123,0,0,1-40.78-62.74,101.59,101.59,0,0,1-4-27.75q0-85.95,0-171.9c0-2.41.78-2.83,3-2.82Q91.19,4.5,150.19,4.45Z"/><path d="M212.89,121.27c1.78,3.56,4.36,6.61,6.43,10,1.75,2.86,1.37,3.75-1.86,4.76a21.18,21.18,0,0,1-8.59.68,8.35,8.35,0,0,1-6.23-3.64c-1.16-1.71-2.2-3.49-3.3-5.24-.19-.1-.39-.46-.54-.31s-.08.54.07.81q1.6,5,3.23,9.92a7.55,7.55,0,0,1,.4,3.65c-.11.66,0,1.44-.81,1.66a2,2,0,0,1-1.8-.66,14.15,14.15,0,0,1-3-4.82c-1.55-3.39-3-6.8-4.58-10.21-1.11.22-.54.91-.43,1.48.44,3.39,1.87,6.51,2.72,9.78.8,3.08.2,4-2.91,4.18-7.51.49-11.83-3.28-13.76-12-.34-.67-.64-.68-.9.05-.12,3.32-.22,6.65-1.52,9.79-.37.89-.68,2.1-1.89,2s-1.52-1.29-1.76-2.37c-.72-3.13-.2-6.3-.33-9.44,0-1.07,0-2.15,0-3.68-1.35,2.12-.93,4.07-1.09,5.91-.19,2.11.12,4.39-1.88,5.93-.81.62-.09,1,.25,1.37,1.62,1.78,3.27,3.54,4.91,5.3,2.72,2.89,6,3.51,9.93,3.35,8.14-.33,15.57,2.08,21,8.45,6.34,7.47,5.62,20.06-1.09,27.31-1,1.09-1.94,2.25-2.82,3.28,2.25,1.12,4.4.25,6.56-1.4,3-2.31,6.52-4,9.48-6.45a6.41,6.41,0,0,0,2.68-4.31c.11-1.09.14-2.24-1-2.87a2.81,2.81,0,0,0-3.27.16c-.32.24-.55.65-1,.55-.44-3.17.55-5,3.33-6.05,3.56-1.38,6.92-.51,8.66,2.69,1.3,2.4,2,5.11,3.77,7.32a3.18,3.18,0,0,1,.3,3.13c-.65,1.48-.5,2,1.27,2.46a6,6,0,0,1,4.86,5.1c.18,1.25,1,1.84,1.74,2.6A9.52,9.52,0,0,1,239.44,202c-.59,1.09-1.05,1.84-2.22.38a3.46,3.46,0,0,0-3.78-1,15,15,0,0,1,4.12,4.86c1.37,2.93,1,3.52-2.2,3.65,2.48,2.09,2.22,4.71,1.82,7.4-.37,2.51.41,4.9,1,7.27.52,1.93,1.18,3.81,1.73,5.72a4.84,4.84,0,0,1-2,5.68c-1.46,1-.87,1.56-.13,2.26,1.53,1.43,1.35,2.61-.65,3.37a5.16,5.16,0,0,1-5-.43c-2.91-2.25-4.68-.46-6.46,1.43a7.18,7.18,0,0,1-6.17,2.63,8.17,8.17,0,0,1-1.47-.23c-.72-.2-1.39-1.11-2.17-.08a2.08,2.08,0,0,0-.3,2.55c1.28,1.69-.44,1.4-1,1.45-2.5.2-4.45-1.78-5.06-4.89-.12-.61.36-1.82-.79-1.65-.93.13-.84,1.24-.89,2.09s1,1.48.16,2-1.78-.1-2.58-.53a4.76,4.76,0,0,1-1.47-7.56c.58-.6,1.77-.81,1.43-2.07a.81.81,0,0,0-.91-.65,2.73,2.73,0,0,0-2.32,2,11.6,11.6,0,0,0-.38,1.18,5.2,5.2,0,0,1,.18-8.93,5.81,5.81,0,0,0,2.35-2.41,6.69,6.69,0,0,1,8.26-3.3,9.67,9.67,0,0,0,6.61-.19c-2.11-3.63-4.93-6.63-7.42-9.87-.5-.65-1.4-.51-2.11-.34-.92.21-.66,1.05-.64,1.66a7.58,7.58,0,0,1-3.09,6.49,5.29,5.29,0,0,0-1.52,2.2c-2,4.63-5.74,8.14-8.63,12.18-2.17,3.05-6.73,3.15-10.32,1.35-2.9-1.46-4.19-4.05-3.78-7.85,2.61,2.19,5.35,4.25,8.67,2,1.68-1.16,2.07-3.11.88-5.47-.38,2.66-1.26,4.69-3.94,4.79-1.06,0-3.27.5-2-2.16.48-1-.4-1.91-1.47-2.19a10.3,10.3,0,0,0-3.19-.49c-3.94.2-6.57-1.79-8.73-4.8-2.38-3.31-3.46-7.17-4.7-10.94-.69-2.09-1.43-2.43-3.5-1.46-5.64,2.63-11.52,4.76-17.13,7.44-8.84,4.23-15.22,10.83-17.15,20.7-1.24,6.34-.48,12.49,5,17a10.2,10.2,0,0,0,12.87.62A6.61,6.61,0,0,0,150,248c-.25-2.18-2-3.63-3.65-3.18s-2.25,2-1.53,4.32c.12.36.27.72.42,1.14a5.66,5.66,0,0,1-5.59-4.17c-.89-3-.29-6.57,2.1-7.61,3.69-1.6,3.85-3.6,3-7.18-.92-3.74.56-7.35,3.69-10,4.75-4.06,12.81-2,14.85,3.79-.73.32-1.21-.36-1.84-.45-1.47-.2-3-.63-4.16.78a3.74,3.74,0,0,0-.4,4.23c1.31,2.77,2.78,5.46,4.22,8.25a28.8,28.8,0,0,1,2.82-3c4.45-3.5,11.19-1.2,12,4.05.12.8.37,1.81-.24,2.4-.79.77-1.18-.47-1.8-.71-2.26-.89-4.7.11-6.18,2.85-2.2,4.09-3.94,8.42-6.66,12.25a21.62,21.62,0,0,1-18.4,9.71c-10.36.08-18.19-6-21.11-16-2.65-9.1-.68-17.38,3.86-25.32.33-.57.67-1.13,1.23-2.06-1.87.68-2.94,1.44-3.38,3.18-.74,2.91-2.8,4.83-5.28,6.36-.49.3-1.06.7-1.59.29s-.14-.92,0-1.39a8.43,8.43,0,0,0,.09-3.63c-2.17,3.92-4.45,7-9.19,7.17.68-1.43,1.79-2.59,1.11-4.5-2.09,1.53-4.12,3-6.11,4.51a1.87,1.87,0,0,0-.62,2.05c.76,2.77-1,4.3-2.75,5.91-.6.57-2,.37-1.75,1.74s1.62.4,2.26,1.08c-.29,2.18-2,2.75-3.74,3a4.78,4.78,0,0,1-4.8-2c-1.65-2.36-3-2.74-5.53-1.37-2.14,1.13-4.2,1.49-6.35.09-1-.67-2.07-1.62-3.37-.61s-.8,2.14-.22,3.41c-3.36-.41-4.78-2.4-5.53-5.2-.19-.71.38-2.22-1.08-2-1.26.15-1.13,1.44-1.15,2.43,0,.33,0,.66,0,1-2.86-.62-4.51-3.52-3.91-6.92a3.45,3.45,0,0,0-.18-2.57,6.67,6.67,0,0,1,4.34-10,3.72,3.72,0,0,0,2.21-1c1.77-2.06,4-2.09,6-.79,1.66,1,3.5.31,5,.88,5.15,1.87,8.15-.14,10.84-4.55,1.49-2.46,4.11-4.3,5.71-6.85.22-.34.56-.63.37-1.21-1.69-.06-3.36.71-5.12.42-3.72-.62-6.58-2.39-7.78-6.11-.45-1.41-1-1.64-2.3-1.16-6.25,2.39-11.13.23-15.3-4.53A16.39,16.39,0,0,0,59.87,194a4.55,4.55,0,0,0-2.45-.18c-1.05.29-2.15.56-2.48,1.8s.4,2,1.22,2.79c.43.39.92.7,1.51,1.14-1.84,1.68-3.69,1.29-5.53.35a6.69,6.69,0,0,1-3.76-6.5c.74-7.47,7.16-10.19,13-9.5A18.35,18.35,0,0,1,67,185.74c.18-1.9-.56-3.56.23-5.26,1.72-3.71,6.81-4.48,9.22-1.26.75,1,1.3,2-.76,2a2,2,0,0,0-2,1.59,1.66,1.66,0,0,0,.71,2,2.47,2.47,0,0,0,2.82,0,4.57,4.57,0,0,0,2.14-3c1.38-6.83,6.08-10.78,11.77-14a116.54,116.54,0,0,0,11.4-7.15c5-3.68,10.73-4.58,16.7-4.82q13.08-.51,26.14-1.12c3.43-.17,6.58-1.45,10-2.62a20.19,20.19,0,0,0-13.59-7.87c-5.86-.88-11.8.06-17.65-.89a13.59,13.59,0,0,1-7.63-3.34c-1.09-1.06-1.81-1.2-3.08-.2-3.21,2.52-8.54,2.54-10.7-.75,4.38-2.75,4.77-5,1.75-9-1.19-1.57-2.26-1.94-4.17-1-4.26,2.06-8.64,3.88-13,5.66-1.84.75-2.25,1.54-1,3.24s2.86,3.19,2.83,5.43a26.6,26.6,0,0,1-1.79,8.36c-.7,2-2.66,2.89-4.79,3-1.5.09-3.14.25-1.61-2.12.49-.77.54-1.67-1-1.89-3.68-.55-5.13-3-4.3-6.85.31-1.46,1.55-3.55-.37-4.11-1.68-.5-1.87,1.86-2.36,3.21a9.3,9.3,0,0,1-2.07,3.38c-1.54,1.56-3.37,2.8-4.11,5.12-.54,1.7-2.44,2-4,2-1.38,0-2.7-.17-3.5,1.22s.08,2.66,1.19,3.72c-4.92,1.36-10.83-3.31-8.9-8.84a4.94,4.94,0,0,0-.18-2.92c-.89-3.52,1-6.08,4.56-6.37,2.05-.16,4.75-1.61,8.06-4.37-1.62-1.17-2.9-.51-4.21.52-2.76,2.19-5.75,1.71-7.61-1.3-.8-1.3-1.48-2.38-3.24-2S46.8,135,46.8,136.54a6.53,6.53,0,0,1-4-6.46,7.52,7.52,0,0,1,6.73-6.66,8.43,8.43,0,0,0,5.11-1.89c1.86-1.51,5.1-1.14,5.91.89,1.42,3.58,4.49,3.31,7.34,4.15,0-1.49-.73-1.69-1.84-1.82a4.75,4.75,0,0,1-4.21-4.51c-.12-2.17-.76-2.6-2.59-1.35-1.37.93-1.49.3-1.64-.81a5.63,5.63,0,0,1,7.5-6.37,6,6,0,0,0,3.35.31,5.55,5.55,0,0,1,6.7,5.54c-.06,3.18,2.74,4.8,3.61,7.44.2.6,1,.33,1.57.09L93.75,119c.45-.21,1-.41.81-1s-.65-.26-1-.2c-.82.15-1.15-.33-.93-1,1.32-4-.3-8.1.43-12.11.24-1.35-.26-1.87-1.58-1.7-1.63.21-1.81-.51-1.21-1.82.95-2.08,1-4.37,1.3-6.57A12.5,12.5,0,0,1,93.74,89c1-1.34,1.5-2.37-.25-3.6-1.22-.86-2-2.17.53-2.82-4-4.21-7.94-8.12-12.11-11.81-.64-.57-1.08-.82-1.88-.18a13.53,13.53,0,0,1-8.15,3.33c-1,0-1.35.88-2,1.41-2.26,2-4,2-6.09-.06a3.84,3.84,0,0,0-1.92-1,6.88,6.88,0,0,1-5.53-6.8c0-1.16-.13-2.45,1.85-1.39,1.44.77,2.74.8,3-1.62.33-3.16,3.62-4.57,7.24-3.38.84.28,1.63.72,2.6,1.15,0-.46.08-1,0-1.05-3.65-1.1-5.76-5.62-10.51-4.49a5.09,5.09,0,0,1-5.87-4.15c-.4-3.25-.4-3.25-3.25-1.45a5.48,5.48,0,0,1,4.91-7.74,15.73,15.73,0,0,0,3.91-.47,4.61,4.61,0,0,1,5.18,1.59c1.92,2.69,5.3,2.31,7.72,4.83,0-2.27-.9-3-2.3-3.46-3.09-1.12-4.48-3.36-4.18-6.28a3.71,3.71,0,0,1,1-2.23c.57-.61,1.79-.87,1.3-2.11a2.41,2.41,0,0,0-2.67-1.4,4.51,4.51,0,0,1-.7-.13c1.39-3.55,4.7-4.78,8.06-2.89A7.34,7.34,0,0,0,77.57,32c2.21-.05,3.54,1.43,4,3.44.25,1.18.39,1.4,1.66,1.12,2.69-.6,4.32.33,5.26,2.92a3.11,3.11,0,0,0,1.79,1.89c2.55,1.16,3.41,3.24,3.34,5.88a30.19,30.19,0,0,1-2.26,10.16c-1.15,3-.89,5.06,1.86,7.05,3.9,2.83,7.55,6,11.23,9.1a2,2,0,0,0,3,0c1.49-1.19,3.16-2.14,4.76-3.19.81-.53,2.24-.71,1.08-2.27-.4-.53.2-.89.71-1,4.85-1,9.16-3.44,13.66-5.29,4.9-2,10.33-1.41,15.06-3.79,1.81-.92,3.75-1.6,6.07-2.57a12.3,12.3,0,0,0-8.93-1.52c-1.13.23-1.28,1.17-1.59,2a4.59,4.59,0,0,1-6.43,2.66c-.55-.25-1.31-.62-1.11-1.17.93-2.68-1.37-4.71-1.25-7.48-1.88.77-3.58,1.52-5.32,2.16-4.6,1.7-9.19,2.29-13.72-.23A8.45,8.45,0,0,1,113.48,36a5.45,5.45,0,0,1,3.81.88c1.19.81,2.52,1.48.21,2.86s-1.81,4,.63,5.12a9.43,9.43,0,0,0,6.82.16l9.58-2.71a9.38,9.38,0,0,1,8.32,1.14c.77.49,1.64,1.1,1.3,2.17s-1.33.89-2.14.88a14.51,14.51,0,0,0-7,1.63c3.76-.23,7.34-2.12,11.26-1.4-2.6-3.25-5.54-5.64-10-4.85-.62.11-1.35.33-1.68-.56-.9-2.26-3-2.21-4.81-2.16s-3.68.72-4.25,2.83c-.63,2.35-1.55,1.84-2.61.38a12.15,12.15,0,0,1-1.47-10.7c1.07-3.63,5.21-5.13,8.54-5,6.32.25,12.06-2,18.1-2.87a39.89,39.89,0,0,1,11.9-.05c1.32.22,1.69-.19,2.1-1.34,2.32-6.51,7.52-9.6,15-8.7-4.58,5.1-2.16,9.89.34,14.72,1.1,2.13,2.2,4.31,2.09,6.82,0,.87.53,1.35,1.06,1.88a15.7,15.7,0,0,1,4.41,11.3c.07,4.2-.54,8.51,1.58,12.46.11.23.2.64.07.7-2.28.91-2.67,3.1-3.11,5-1.07,4.69-4.11,7.87-7.64,10.73-2.58,2.09-5.23,4.06-6.77,7.18-2.2,4.48,0,8.06,5,8.13a8,8,0,0,0,2.7-.41c3-1,6-2,8.85-3.35,2.26-1,4.14-2.53,4.52-5.22.3-2.16-.51-2.91-2.59-2.52-2.83.53-4.4-.29-4.93-3.11A22.77,22.77,0,0,1,184.55,64,3.45,3.45,0,0,1,187,62c5.12-4,10.59-7.47,15.54-11.66,4.42-3.75,6.29-8.4,5-14.23a6,6,0,0,1,4.63,2.46c1.06,1.4,1.69,1.21,2.86.13,5.1-4.71,9.14-10.33,13.69-15.5,1.26-1.43,2.52-2.88,3.85-4.25,3.06-3.12,5.47-2.89,6.86,1.3,4.08,12.24,3.73,17.77-6.3,26-5,4.05-9.92,8.07-14.88,12.11a1.58,1.58,0,0,0-.79,1.42,18.09,18.09,0,0,0,4.73-3c7-5.14,13.85-10.63,21.49-14.9a13.13,13.13,0,0,1,5.07-2c.65-.07,1.45-.27,1.84.38a2,2,0,0,1-.38,2.33,33.31,33.31,0,0,1-5.29,5.26c-5.61,4.68-11.77,8.61-17.92,12.76,1.3.52,2.11-.21,3-.63,6-3,12.06-6,18.09-9a13.93,13.93,0,0,1,4.66-1.67c3.11-.32,4.1.56,4.17,3.68.13,6.15-5.44,14.8-11.07,17.23-4,1.74-8.16,3.28-12.35,4.65-.44.4-.84.93-1.21.67a8.5,8.5,0,0,0,1.66-.21c6.4-.91,12.8-1.79,19.19-2.77a10.54,10.54,0,0,1,4.19.17c.71.17,1.64.21,1.76,1.08s-.54,1.38-1.12,1.84c-2.49,2-5.56,2.56-8.57,3.08-4.58.78-9.18,1.38-13.77,2.08a11.05,11.05,0,0,0-2.58.77c7-.19,14,.08,21-1.23,4.58-.86,6.24.89,4.82,5.33a23.93,23.93,0,0,1-6.21,9.79c-2.25,2.2-5.38,1.94-8.25,2.17-4.49.36-9-.22-13.43-.47a22.61,22.61,0,0,1-2.28-.19,2.62,2.62,0,0,1,1.79.72c6.11,1.81,12.31,3.35,18.3,5.57,1.3.48,3.46.62,2.91,2.65s-2.58,2-4.23,1.61c-5.27-1.08-10.52-2.3-15.77-3.48a4.53,4.53,0,0,0-3.18,0c4.93,2.43,9.56,4.79,14.26,7,2.88,1.37,3.38,2.84,1,5-5.9,5.47-11.64,7.09-19.31,3.44-2.11-1-3.82-2.82-6.71-3.49A101.78,101.78,0,0,1,226.41,127c.19.28.43.52.6.8.68,1.15,1.62,2.54.55,3.63s-2.47.19-3.57-.61a66.79,66.79,0,0,1-10.69-10c-.16-.09-.33-.3-.51-.09S212.73,121.11,212.89,121.27Z"/><path class="cls-1" d="M187,62c-4.7,4.56-4.2,10.36-3.61,16.06.28,2.65,1.76,3.24,4.31,2.4,2.33-.78,3.17-.2,3.26,2.29.12,3.07-1.65,5-4.12,6.28a61.47,61.47,0,0,1-10.91,4.16c-2.87.83-7-1-8.56-3.4a2.27,2.27,0,0,1-.15-1.9,14.1,14.1,0,0,1,5.4-8.7C178.47,75,183.1,70,184,62.5c.21-1.83,2.22-.23,2.54-1.57C186.67,61.3,186.82,61.66,187,62Z"/><path class="cls-2" d="M134.56,41.36c.31.1.64.33.92.28,5.32-.92,9.68,1.13,12.84,6.71-5.45-2.56-10.16,1.27-15.11.09a16.16,16.16,0,0,1,10.49-2.53c-.92-2.64-3.25-3.52-9.17-3.56Z"/><path class="cls-3" d="M230.38,97.8l-2-.54a2.25,2.25,0,0,1,2.52,0Z"/><path class="cls-4" d="M177,131.36v-1.73c1.08.27.91,1,.9,1.68Z"/><path class="cls-5" d="M191.87,129.34c-.68-.82-.43-1.73-.43-2.75.72.33.74.83.86,1.27C191.79,128.25,192,128.84,191.87,129.34Z"/><path class="cls-6" d="M198.87,128.32a2.29,2.29,0,0,1-.61-1.84c.85.11.86.82,1.08,1.34Z"/><path class="cls-7" d="M233.87,75.43c-.61.63-1.34.41-2.21.43a2.86,2.86,0,0,1,1.76-.89Z"/><path class="cls-2" d="M212.89,121.27a2.26,2.26,0,0,1-.87-1.73c.8.1,1,.72,1.28,1.27Z"/><path class="cls-8" d="M199.56,228c-.41-1.79-.75-3.41-1.16-5-.13-.5-.27-1.27-1.08-1-.58.2-.49.84-.4,1.31a19.78,19.78,0,0,1,.4,5.94c-.68,5.91-6.84,9.41-11.47,6.5-.55-.34-1.18-.64-1.3-1.39.34-.4.75-.24,1.12-.15,3.45.8,5.8-.07,7.27-2.69a7.26,7.26,0,0,0-1.26-8.3,20.59,20.59,0,0,0-4.28-3,17.69,17.69,0,0,1-4.73-3.61c-.32-.39-.75-1.08-1.41-.48s-.18,1.07.1,1.57a8.76,8.76,0,0,0,3,2.88,16.65,16.65,0,0,1,3.93,3.05c1.56,1.9,1.39,3.61-.83,5.66-.1-4.55-3.17-5-6.49-5-3.57-.06-6.48-1.6-7.84-4.82-3.86-9.18-8.53-18-12.84-26.93-3.75-7.79-2.8-16-1.59-24.23,1.08-7.36.82-14.58-2.22-21.52a12.25,12.25,0,0,0-3.25-4.72c-.76,2.18,1.41,3.35,1.17,5-.45.31-.68,0-.89-.2-4.21-3.84-9.25-5.38-14.85-5.43-3.83,0-7.65-.09-11.48-.13a14.67,14.67,0,0,1-6.29-1.3c-4.43-2.12-4.71-2.71-3.6-7.81a61.66,61.66,0,0,0,10.23,5.08,8.78,8.78,0,0,0,6.53,0,40.12,40.12,0,0,0,14.37-8.73c.39-.38.62-1.24,1.53-.61,4.33,3,4.34,3,7.83.11-1.1,6-.61,6.68,4.8,10.24,2.84,1.87,4.75,4.84,7.08,7.31,1.25,1.34,2.4,2.77,3.75,4a9,9,0,0,0,6.71,2.12c4.47-.13,9-.57,13.31,1.15C199,155,204,157.92,206,164c2.73,8.53.37,16.62-6.43,22.23-.67.55-1.61,2.15-2.54.81-.8-1.16-2.67-2.69-.35-4.38,5.43-3.94,7.23-13,3.57-19.12-2.77-4.61-9.73-8.2-16.22-7.11-3.25.55-5.2-.37-6.92-2.8a2.91,2.91,0,0,0-2-1.58c-.46,1.57.7,2.52,1.5,3.37a15.3,15.3,0,0,1,4.12,8.61,12.2,12.2,0,0,0,3.32,6.56,54.64,54.64,0,0,1,9.48,14.85,4.26,4.26,0,0,1,.76,2.6c-1.34.11-1.57-1-2.14-1.74-.26-.31-.55-.69-1-.45s-.55.74-.33,1.27a4.38,4.38,0,0,0,3.38,3,46.18,46.18,0,0,0,4.71.33,10,10,0,0,1,3.91.56c1,.45,2,1.17,1.61,2.2s-1.38.05-2.09-.07c-1.31-.24-2.6-.61-3.92-.08-.4.16-.85.35-.8.81s.48.65.91.69c.74.05,1.5,0,2.24.1,4.07.49,6.34,4.61,4.36,7.86-2.17-3.52-3.68-4.44-6.35-3.76-.67.17-1.78.18-1.75,1.07s1.12.72,1.8.77c4,.31,4.84,1.54,3.44,5.58,2.35-.37,5.8-2.38,5,2.6-1.3,0-2.15-2.5-3.21-1.27-.87,1,1.18,1.87,1.85,2.83,2,2.79,1.83,7-.43,9.17-.59-2-.8-4.13-1.87-5.94a5.73,5.73,0,0,0-1.68-2.13c-.36-.23-.71-.49-1.11-.13a.83.83,0,0,0-.09,1.13c.38.65.8,1.27,1.17,1.92C204.46,219.08,203.68,224.13,199.56,228Z"/><path class="cls-8" d="M120.08,192.17c1.14-2.8,3-5.57,2.26-8.68-.67-2.75.41-4.85,1.42-7.07a13,13,0,0,1,1.78-2.39,5.93,5.93,0,0,0,.89-5.32c-1.88.91-1,3.08-2.42,4.13-.51-.86-1-1.76-1.56-2.57-.32-.45-.84-1-1.46-.48s0,.92.21,1.31c1.34,2.41,1.1,4.73-.32,7.18-1.17-1.25-2.19-2.42-3.31-3.51-.45-.43-1.16-1-1.76-.35s0,1.24.42,1.7a17.1,17.1,0,0,1,3,4.24c1.47,2.8,1.78,5.64,0,8.5-.92-.34-.71-1.31-1.2-1.85s-.81-1.58-1.65-1.16-.16,1.26.09,1.91c1.22,3.14-.32,6-3.73,6.71,1.09-3.38.58-6.39-2-8.92-.21-.21-.23-.61-.4-.9-.46-.78-.42-2.45-1.63-2-1,.35-.29,1.82-.07,2.71.79,3.16-.42,5.62-2.49,8.1-.35-1.6-.6-3-1-4.31-.14-.55-.51-1.18-1.22-1s-.56,1-.4,1.46a12.47,12.47,0,0,1-.4,8.28c-1.7,4.88.62,7.8,5.68,7.43-2.07,3.61-6.92,3.85-9.73.43a7.7,7.7,0,0,1-1.55-7.47c.15-.51.62-1.23-.11-1.55s-1.14.54-1.36,1.08a7.77,7.77,0,0,0,.31,7.41c.64,1,1.44,2,2.26,3.12a4.85,4.85,0,0,1-5.53-1.62c-1.91-2.08-2.15-4.54-1.44-7.22.24-.88,1.86-2.07.38-2.63-1.1-.42-1.64,1.35-2.07,2.39-1.21,2.91-.4,6.12,2.43,9.52a4.86,4.86,0,0,1-4.43-2.21c-2.21-2.94-2.13-6.83.16-10.19.34-.5,1.19-1.06.52-1.67s-1.22.22-1.68.63a6.6,6.6,0,0,0-2.47,4.47,2.13,2.13,0,0,1-1.24,1.95,10.32,10.32,0,0,1-11.6-1.55c2.42-.16,4.64.18,6.76-.53a12.47,12.47,0,0,0,4.62-2.34c.39-.34.75-.81.47-1.3s-.9-.25-1.3,0c-6.42,3.9-12.24,2.14-17.83-1.84A10.75,10.75,0,0,0,59,192.05c-4.7-.38-6.53,1.63-5.52,6.22-2.88-1.06-3.91-4.18-2.46-7.46,1.68-3.78,6.22-5.85,10.7-4.9,2.65.56,4.92,2,7.29,3.14a13,13,0,0,0,10.12,1.14c.59-.19,1.52-.31,1.37-1.13s-1.1-.52-1.68-.42a12.59,12.59,0,0,1-5.43,0,5.9,5.9,0,0,1-4.56-4.14c-1-3.37,1.36-5.82,4.88-5.19,0,.15,0,.34-.15.44-2.3,2.21-2.63,4.33-.91,6a5,5,0,0,0,7.12-.58,15.27,15.27,0,0,0,2.4-4.89,14.17,14.17,0,0,1,5.86-7.47c5.62-3.7,11.21-7.43,17-10.93a27.06,27.06,0,0,1,13-3.68c8.88-.48,17.76-1,26.64-1.42a27,27,0,0,0,10.08-2.51c1.59-.73,2-.14,2.12,1.31a59.39,59.39,0,0,1-.05,9.71c-.08.8-.1,1.63-1,2.12-4.85,2.6-7.88,7.05-11.25,11.15-2.43,2.95-4.83,5.93-7.37,8.78A18.2,18.2,0,0,1,126.89,193c-2.43.49-4.58-.49-6.85-.85Z"/><path class="cls-8" d="M209.94,39.26c3.06,2.57,3,5.51,2.18,8.46-1.24,4.66-4.76,7.48-8.63,9.88-2.18,1.35-4.5,2.49-6.73,3.78a6.69,6.69,0,0,0-1.73,1.4c-.63.73-1.5,1.84-.61,2.57s1.22-.7,1.73-1.25c1.52-1.64,3.62-2.32,5.53-3.28,1.36-.68,1.66.69,2,1.53,1.1,2.77-.11,6.18-2.92,8.36-1,.76-2.07,1.38-3.07,2.12-.29.22-.72.54-.48,1s.8.45,1.28.22a13.63,13.63,0,0,0,4.55-3c1.11-1.22,1.78-.75,2.5.34,1.67,2.53,1.05,5.79-1.59,7.92-.83.67-1.78,1.21-2.64,1.86a1.17,1.17,0,0,0-.45,1.54c.45.79,1,.13,1.49,0a4.33,4.33,0,0,0,.84-.52c2-1.25,3.93-.45,4.33,1.94A5.5,5.5,0,0,1,204.7,90c-1.92,1.22-4.12,1.73-6.17,2.64-.61.27-1.43.55-1.1,1.35.25.61,1,.28,1.56.15.32-.08.63-.23.94-.33,2.46-.82,4-.31,4.77,1.54.66,1.67-.32,3.64-2.37,4.63-2.64,1.26-5.31,1-8,.1-1.14-.37-2.22-1.23-3.92-.53a12.11,12.11,0,0,0,8.69,3.11,8.35,8.35,0,0,0,5.56-1.86,2,2,0,0,1,2.65-.23,12.46,12.46,0,0,0,3,1.22c3.15.83,3.54,1.3,3.6,5.38-.78-.93-1.23-1.55-1.77-2.09s-.59-1.49-1.44-.83c-.61.48-.23,1.24.12,1.81.49.78,1.08,1.48,1.55,2.26,1.41,2.37,1.07,4.67-1.18,7.19-.1-1.67.17-3.23-.5-4.62-.26-.56-.54-1.43-1.38-1.11s-.31,1-.18,1.54a2.39,2.39,0,0,1,0,1.87c-1.2-1-2.71-1-4.14-1.2a6.59,6.59,0,0,1-4.36-2.13c-.43-.5-.89-1.16-1.63-.72s-.4,1.17-.31,1.82a9.62,9.62,0,0,1,0,4.4.54.54,0,0,1-.81-.33c-.2-.48-.49-1-1.07-.81-.81.23-.49,1-.38,1.47a5.62,5.62,0,0,1-1.33,5.57,6,6,0,0,0-3.34-5.07c-.91,1.28.17,2.31-.18,3.53-2.79-1.63-6.62-1.9-6.87-6.26a.8.8,0,0,0-.8-.8c-.64.06-.71.62-.69,1.13.06,1.91.36,3.89-.47,5.66-.34.72-.55,3.41-2.46.7-.8-1.13-1.05.56-1.22,1.15-1,3.21-2.51,4.41-6,4.29,1.56-2.36,1.09-4.57-.27-6.75a10,10,0,0,1-1.38-5c0-.4-.11-.91-.62-1s-.81.48-.86,1c-.06.66,0,1.33,0,2-.34,4.89-6.08,8.56-11.34,6.67,3.35-1.08,3.54-4.44,5.75-6.19.33-.27.8-.73.27-1.26s-.94-.15-1.35.11c-1.56,1-2.09,2.94-3.64,4.34-.24-2.44-.65-4.65-.08-7.07-2.16.38-1.9,3.14-4.21,3.39.87-5.2.58-10.39.55-15.56,0-1.67-.09-3.33,0-5,.26-4.76,4.49-7,8.48-4.45A21.86,21.86,0,0,1,167.2,93a9.9,9.9,0,0,0,11.34,1.72c3.41-1.5,7.07-2.44,10.27-4.44,3.54-2.21,4.86-5.19,4.13-9.1-.47-2.51-1.91-3.46-4.45-2.93-2.93.61-3.09.49-3.11-2.56,0-1.49.07-3,0-4.49a10.1,10.1,0,0,1,4.64-8.86c4.67-3.33,9.27-6.74,13.72-10.36A15.36,15.36,0,0,0,209.94,39.26Z"/><path class="cls-8" d="M219.88,229.17c.72-.26,2,0,1.87-1.12s-1.38-.63-2.13-.58c-3.36.24-6.58,1.6-10.06,1.11a2.92,2.92,0,0,0-2.93,2c-.85,2.89-3.35,3.53-5.57,4.69a3.18,3.18,0,0,1-.12-.73,3,3,0,0,1,1.57-2.69c3.19-1.09,3.18-5.68,6.86-6.09.5,0,1.09-.27,1.47-.08,3.28,1.65,6.68.46,10,.52.58,0,1.28.23,1.65-.25.5-.65-.07-1.28-.42-1.8a54.84,54.84,0,0,0-4.78-6.37,36.05,36.05,0,0,1-2.58-3.73c1.07-1,2.44-.74,3.48-1.33.64-.37,1.65-.71,1.43-1.46-.3-1-1.26-.33-1.92-.18-1.34.3-2.66.68-4.34,1.12,1.34-2.11,3.1-3.56,3.09-6.12-2,.66-2.19,2.67-3.49,3.65a8,8,0,0,1-4.68,2c.86-2.83,1.28-5.5-.95-7.75-.05-.05-.11-.16-.09-.22,1.52-4.38-1.14-8.31-1.28-12.51,0-1,.9-1.35,1.55-1.8,2.88-2,5.8-3.87,8.71-5.79a14.13,14.13,0,0,0,4-3.67c2.69-4,.9-8.07-3.8-8.72,1.87-2.88,6.61-2.63,8.36.47a7.82,7.82,0,0,1,.43,6.74c-.22.62-.38,1.26-.56,1.9-.12.4-.27.86.24,1.07a.82.82,0,0,0,1-.51c.43-.79.77-1.63,1.27-2.73a4.86,4.86,0,0,1,0,5.21c-.86,1.38-2.27,1.38-3.69.58a1.91,1.91,0,0,0-1.92,0,1.26,1.26,0,0,0-.6.67c-.12.42.3.61.6.64,2.09.21,3.67,1.39,5.26,2.62.52.4,1.25,1.27,1.89.42.52-.67-.42-1.09-.84-1.56a4.92,4.92,0,0,1-.37-.59c3.09-1.27,5.16-.6,6.61,2.12-.82.46-1.58-.19-2.38-.11s-1.61,0-1.7.69c-.13.92.86,1.05,1.58,1.2.41.09.83.06,1.24.15,3.78.87,6.56,5,5.8,8.68-.23,1.11-.48,1.82-1.9,1.08a6.05,6.05,0,0,0-5.08-.26c-.61.23-1.31.53-1.4,1.27s.61.91,1.09,1.21a10.27,10.27,0,0,1,3.75,3.57c.66,1.15,1.16,2.09-1,2.08a3.91,3.91,0,0,0-3.23,1.57c.5.88,1.44.8,2.18,1.09a4.71,4.71,0,0,1,2.65,4.56c-.08.42-.07.84-.71.6-2.59-.94-1.3.73-.94,1.51,2,4.3,2.4,9.07,4.13,13.46.84,2.13-.22,2.89-2.46,2.6a5.11,5.11,0,0,0-5.52,2.95c-.31.55-.16,1.7-1.34,1.39a2.14,2.14,0,0,1-1.55-1.78,5.36,5.36,0,0,1,1.58-5.45,13,13,0,0,0,1.28-1.17.83.83,0,0,0,0-1.14c-.35-.44-.73-.2-1.1,0a7.09,7.09,0,0,0-3,9.78c.56.94.56,1.33-.35,1.91a21.76,21.76,0,0,0-2,1.81c-2.93,2.43-4,2.38-6.62-.26a7.21,7.21,0,0,0-3.58-2.16c-1.14-.22-1.79-.64-1.78-1.92s0-2.4,1.41-2.85c3.09-1,5.77-3.49,9.41-2.54.5.13,1.18-.06,1.43-1l-3.71-.78C220,229.84,219.73,229.62,219.88,229.17Z"/><path class="cls-8" d="M173.37,60.88c2.36-6.72,1-12.9-2.78-18.7A4.43,4.43,0,0,0,169.37,41c-.35-.25-.85-.71-1.28-.14-.29.38,0,.75.24,1.12,3.11,6,.39,11.81-6.2,13.51-4.14,1.07-8,.92-11.7-1.48-3-1.95-6.32-2.31-9.79-2.1-2,.11-3.32.79-3.72,2.91-.16.87-.41,1.88-1.43,2.18s-2.4,1.13-2.52-1.2c-.06-1.25-1-2.42-1.34-3.69s-.2-2.38,1.58-1.49a4.4,4.4,0,0,0,3.62.07,18.67,18.67,0,0,1,14.09.16c.6.25,1.51.94,2,.21s-.23-1.51-.81-2.11c-1.9-2-3.76-4-5.73-5.88-2.61-2.51-5.61-4.18-9.41-3.59-.95.14-1.53-.41-2.23-.83a8.1,8.1,0,0,0-10.38,1.23c-2.91-3.93-1.47-9.1,3-10.52,5.08-1.61,9.83-1.43,13.44,3.24L152,46.94a2.1,2.1,0,0,1,1.21.89,4.43,4.43,0,0,1-.62-1.51c-4-6.3-7.9-12.64-13.43-18.11A42,42,0,0,1,160,25.61a1.6,1.6,0,0,1,1.61,1.75,31,31,0,0,0,.84,4.64c.17.78.32,2,1.2,1.91,1.08-.17.49-1.35.43-2.12-.14-2-.47-4-.44-6,.06-4.77,2.15-7.75,6.41-9.18-1.24,1.88-2.52,3.52-2.91,5.56a12.1,12.1,0,0,0,1.14,8c1.26,2.44,2.51,4.9,1.69,7.81-.1.36-.17.9.35,1a1,1,0,0,0,1.05-.51,4.76,4.76,0,0,0,.33-4.32c-.6-1.72-1.37-3.38-2.06-5.07-1.77-4.36-.72-8.82,2.84-11.2-.44,4.73,1.58,8.63,3.58,12.52s2.21,7.77-1.49,11c-.36.32-.85.71-.39,1.22a1,1,0,0,0,1.36-.07c1.93-1.62,2.53-.1,3,1.34.74,2.11,1.34,4.27,2,6.4a1.68,1.68,0,0,1,.64,1.44s0,.12.08.1a2.5,2.5,0,0,1-.09-.43c-.21-1.06.26-2.15-.18-3.18.14-2.69-.91-5-2.16-7.29-.39-.7-.79-1.48-.06-2,1-.71,1.2.5,1.56,1a14.48,14.48,0,0,1,2.92,8.83c.12,3.13-.2,6.27.27,9.59-2.4-.69-2.91-2.57-3.49-4.34-.63-2-.9-4-1.86-5.91-.22-.41-.47-1-1.08-.81s-.34.81-.26,1.26a8.85,8.85,0,0,0,.31,1.72c2.09,5.4.3,10.21-2.27,14.9-1,1.81-2,3.6-3.16,5.58-6.17-7.57-4.34-15,.11-22.46,1.6,3.5,1,7.24,1,10.92C172.56,60.75,172.63,61,173.37,60.88Z"/><path class="cls-8" d="M120,192.14c.23,1.78.23,1.78,2.35,3,0,.63-.56.42-.89.53-.9.3-2.41.08-2.38,1.29s1.44.54,2.23.71A3.31,3.31,0,0,1,124,200c.39,1.27.66,2.57.93,3.87,1,4.94,3,6,7.77,4.35a4.57,4.57,0,0,1-5.62,4.52c-2.44-.44-2.38.16-1.4,2,1.16,2.21.5,4.4-1.49,6.19-.14-.05-.36-.06-.42-.16-.38-.67-.08-2.08-1.11-1.95-1.24.17-.66,1.51-.63,2.3a8.44,8.44,0,0,1-3.63,7.75c-.18-2.46-.47-4.74-3.18-6a10.48,10.48,0,0,1-4.5,8.23c-.16-.26-.32-.38-.31-.5,0-1.38.6-3.16-1-3.8-1.36-.57-2.23,1.07-3.26,1.83a28.06,28.06,0,0,1-2.59,1.93c-2.49,1.44-4.4,2.92-3.9,6.42.36,2.55-1.48,3.44-3.91,2.36s-4.58.16-5.86,3c-2.12-1.77-1.92-4.82.49-6.83a10,10,0,0,1,1.47-.91c.44-.26,1-.51.67-1.11s-.84-.39-1.32-.28c-2.6.59-4.68,3.48-4.77,6.62-.07,2.52-3.6,4.44-5.79,3.19-.63-.37-.6-.91-.64-1.49-.22-3.14-1.42-5.63-4.57-6.78-1.47-.54-.79-1.19,0-1.7a4,4,0,0,1,3.6-.23c3.1,1,5.82-.89,8.75-1.11a1,1,0,0,0,.66-.64c.14-.51-.36-.75-.71-.84a6.65,6.65,0,0,0-4.16.19,7.19,7.19,0,0,1-5.07.24c-2.73-.82-4.53.24-6.21,3.34-.61-1.44-3.37-1.64-2.09-4,1.14-2.08,3-1.13,4.66-.82a4.86,4.86,0,0,0,1.72.16c2.61-.56,5.2-1,7.88-.36.61.15,1.54.17,1.6-.69.05-.68-.78-.68-1.35-.77-2.46-.35-4.89-.83-7.39-.06-2,.6-3.81-1-5.86-.67-.52.09-.63-.62-.59-1.16.16-2,2.12-2.91,4.13-1.79,1.09.61,2.07,1.38,3.42,1.28a19.42,19.42,0,0,1,7.37.86,3.59,3.59,0,0,0,4.31-1.64c3.28-4.71,7.88-8.35,10.82-13.33.71-1.2,1.71-1,2.8-1,3.8.15,6.39-1.49,7.44-4.58a4.21,4.21,0,0,0-.23-3.83c-.17,0-.4,0-.47,0-1.26,1.54-2.76,2.67-4.67,1.28s-1.23-3.4-.29-5.14c1.6-3,4.44-5.19,5.4-9,1.27,2.51.53,4.38-.74,6.06-1.14,1.5-.49,1.75,1,1.82a9.48,9.48,0,0,0,6.77-2.65c.74-.63,1.15-1.63,2.19-1.93Z"/><path class="cls-8" d="M142.6,247.66c-2.23-2.9-1.87-6.35.61-8.09,3.2-2.23,7.82-1.71,9.59,1.09a12.81,12.81,0,0,1,.66,1.34c.24.48.57.9,1.14.63s.45-.86.32-1.32a5.61,5.61,0,0,0-4.24-4.18c-2.76-.62-3.35-2.55-3.88-4.78-1.27-5.39,1.42-9.88,6.59-11a7.19,7.19,0,0,1,5,.82c-1.62,1.66-3.43,3.12-3.46,5.66a11.91,11.91,0,0,0,2,6.33c3.25,5.33,4.78,10.94,3,17.13a17.28,17.28,0,0,1-15.55,12.23c-13.86.77-20.74-7.73-21.74-20-1-11.8,4.48-21,13.34-28.35a36.5,36.5,0,0,1,8.6-5.47c.58-.26,1.4-.53,1.3-1.31-.08-.62-.87-.65-1.41-.86-2.15-.87-3.78-2.28-3.75-4.76a4.16,4.16,0,0,1,3.06-4.11c.26,6,3.1,8.17,9,7.15a37.75,37.75,0,0,0,7.76-2.63c2.75-1.13,2.88-1,4.08,1.86,1,2.5-1.39,2.06-2.32,2.48-4.82,2.2-9.79,4.11-14.64,6.26-9.38,4.17-16.36,10.73-19.66,20.64a22.54,22.54,0,0,0,.12,14.71,13.8,13.8,0,0,0,17.6,8.91,9.68,9.68,0,0,0,6.26-10.46c-.46-2.67-2.46-4.7-4.71-4.77S143.34,244.27,142.6,247.66Z"/><path class="cls-9" d="M131,112.9c6.56,0,13.13.14,19.68-.06,2.57-.08,2.73.94,2.23,2.9-1.94,7.57-7,12.49-13.38,16.57C133,136.5,127,136,121,131.58c-5.59-4-10.13-8.81-12.06-15.63-.79-2.77-.6-3,2.19-3Z"/><path class="cls-8" d="M83,152.6a6.34,6.34,0,0,0-.29-3.15c-.28-.64-.54-1-1.45-.95-3.51.3-4.9-1.61-3.57-5,.7-1.78.88-3.31-.34-4.89s-2.6-1.84-4.18-.47a8.17,8.17,0,0,0-1.94,3.15c-.72,1.68-1.44,3.38-3,4.46s-3.13,1.82-3,4.13c0,1-1.06,1.35-2,1.5-1.16.18-1.26-.62-1.58-1.44a5.61,5.61,0,0,0-6.32-3.72c-.63.09-1.42,1-1.9-.09a2.56,2.56,0,0,1,.37-2.81,2.24,2.24,0,0,1,1.94-1c2.4.39,4.11-.94,5.89-2.17a58.33,58.33,0,0,1,9.72-5.54,7.33,7.33,0,0,0,1.72-1c.44-.37,1.4-.66.88-1.47-.39-.62-1.11-.22-1.58.06a11.21,11.21,0,0,1-10.41.83c-1.38-.55-2.11.34-2.92,1.26a3,3,0,0,1-5.31-.89,10,10,0,0,1,.66-8.88,3.34,3.34,0,0,1,3.23-1.94c1.64.09,1.9,1.35,2.2,2.59.2.82.49,1.54,1.49,1.76a102.08,102.08,0,0,0,11.21,2.27c.57.07,1.46.52,1.66-.45.15-.68-.59-.91-1.12-1.13a7.15,7.15,0,0,1-3.81-3.76,1.67,1.67,0,0,0-2.28-1.11c-2,.44-3.74-1.15-3-2.69,1.27-2.65-.52-2.89-2.18-3.55-.66-.27-2,.48-1.92-.85a2.36,2.36,0,0,1,2-2.27c3.26,0,6.44.93,9.77.81,1.4,0,2.43,2.18,1.92,3.82s.17,2.5.92,3.6c.88,1.3,1.8,2.6,2.56,4,1.87,3.34,6.68,4.5,10.1,2.77A90.6,90.6,0,0,1,97.63,124c2.82-1,5.23-2.79,8-3.74.63-.22,1.19-1.4,1.83-.64a6.38,6.38,0,0,1,1.4,3.12c.1.74-1.08.78-1.73,1.06-7,3-14,6-21,9.07-3.91,1.75-4,2.32-1.58,5.83a13.79,13.79,0,0,1,2,3.7c.38,1.24-.71,7.95-1.5,9A2.51,2.51,0,0,1,83,152.6Z"/><path class="cls-9" d="M130.78,97.86c-6.82,0-13.64,0-20.45,0-1.6,0-2.24-.39-2.19-2.07.1-3.82.09-7.65,0-11.47,0-1.57.66-2,2.11-2q20.7.06,41.41,0c1.35,0,1.94.37,1.91,1.83-.09,3.91-.12,7.82,0,11.72,0,1.66-.69,1.9-2.09,1.89-6.9,0-13.8,0-20.7,0Z"/><path class="cls-1" d="M133.37,203.8a13.9,13.9,0,0,1-.67,1.28c-.8,1.22-1.71,2.36-3.4,2s-2-1.66-2.22-3c-.22-1-.38-2.12-.53-3.18a5.08,5.08,0,0,0-1.34-3.16c-2.29-2.07,0-2.29,1.09-2.44a22.47,22.47,0,0,0,5.79-1.34c4.57-1.89,7.51-5.6,10.48-9.3,3.57-4.46,6.57-9.41,11.18-13a4.18,4.18,0,0,1,2.52-1.34c-.26,2.34-.6,4.6-.74,6.87a36.75,36.75,0,0,0,5.21,21c1,1.77.74,2.65-1.05,3.38-2.76,1.13-5.46,2.51-8.52,2.57-2,0-4.06-.13-5.2-2.19s0-3.6,1.39-5.06a6.5,6.5,0,0,0-7.32,2.22c-1.66,2.4-1.64,5.89.45,7.78,1.82,1.64,1.24,2.14-.53,3.14a40.52,40.52,0,0,0-10.24,8.25c-.47.51-.75,1.33-1.64,1.33-.12-.18-.28-.31-.29-.43-.08-2.8.79-4.55,3.78-5.75C134.85,212.08,135.43,207.69,133.37,203.8Z"/><path class="cls-8" d="M74.62,45.45c1.39.73,2.46-1.64,3.54-.62s-.34,2.46.29,3.74a7,7,0,0,0,1.42,2.31c2,1.78,1.76,3.82-.62,5.1a5.34,5.34,0,0,0-3,4.78c0,.67,0,1.44.85,1.59s1.15-.57,1.2-1.25c.16-2.36,1.12-3.94,3.71-4.12.87-.06.66-.78.68-1.34a4.69,4.69,0,0,1,2.6-4.47c.49-.24,1.21-.54.87-1.27s-1-.23-1.49-.08a3.2,3.2,0,0,1-3.82-1,3,3,0,0,1,0-3.91c1-1.23.14-1.67-.82-1.85a28.19,28.19,0,0,0-3.55-.26,2.68,2.68,0,0,1,1.86-2.85c1.93-.63,4.12.19,6-1.47.72-.65,1.84.56,2.12,1.55a5.43,5.43,0,0,0,3.21,3.53c2.58,1.26,2.41,3.65,1.94,5.86-.7,3.32-1.73,6.58-2.59,9.87a41,41,0,0,0-1,4.36,5.69,5.69,0,0,0,2.56,5.81,10.21,10.21,0,0,1,1.09.59c3,2.84,6,5.82,9.76,7.74.33.16.86.56.52.93a13,13,0,0,1-4.14,3.13c-1.19.55-1.67-.78-2.35-1.42-4.28-4.06-8.52-8.17-13-12-1.2-1-1.88-1-3,.2a10.62,10.62,0,0,1-5.8,3.22c-2,.39-4,.27-5.35,2.35-.78,1.16-2.41.56-3.19-.57a3,3,0,0,0-2.42-1.34,4.3,4.3,0,0,1-4-3.66c1.14,0,2.19.48,3.22.06.77-.32,1.73-.52,1.29-1.69-.61-1.66-.23-3,1.33-3.8a4.59,4.59,0,0,1,5.35.63,18.51,18.51,0,0,1,2,2.5c.41.51.81,1.24,1.58.82.62-.32.37-1,.22-1.58-1.36-5-.7-9.36,3.42-12.88.94-.81.91-1.62-.07-2.5a6.27,6.27,0,0,1-2.28-4.76Z"/><path class="cls-10" d="M131.06,99.74c6.81,0,13.62,0,20.43,0,1.51,0,2.22.25,2.1,2-.18,2.64-.11,5.31-.05,8,0,1.17-.34,1.56-1.55,1.55q-21.06,0-42.11,0c-1.42,0-1.85-.44-1.8-1.84.11-2.57.13-5.16,0-7.72-.09-1.63.39-2.1,2-2.08,7,.1,14,0,20.94,0Z"/><path class="cls-8" d="M219.65,39l-2.44,1.4c-.39-.67,0-.92.3-1.19,5.17-5.5,9.94-11.35,14.72-17.19,1-1.25,2-3.18,3.8-2.83s2.1,2.62,2.54,4.24a30.49,30.49,0,0,1,.77,11.1A6.85,6.85,0,0,1,238,38c-4.25,5.88-10.13,10-15.67,14.44-.14.11-.45,0-.85,0,.74-1.22,2.41-1.62,2.44-3.5l-2.4,1.6c-.53.15-.69-.09-.61-.58,1.5-1.61,3.54-2.71,4.51-4.9-2.4.69-3.83,2.85-5.94,3.95-.52.15-.68-.07-.57-.56,4.15-4.24,9-7.76,12.53-12.69-5,3.07-8.86,7.42-13.75,10.55,1.61-3.1,5-4.68,6.86-7.84-1.76-.34-2.43,1.13-3.54,1.57S220.31,39,219.65,39Z"/><path class="cls-8" d="M231.33,93.91c.39-.18.89-.47.72-.87s-.79-.55-1.3-.44c-2.1.42-4.14-.24-6.21-.26a1.52,1.52,0,0,1-1.62-.85c4.13-.42,8.21.47,12.14-.81-4.74-1.52-9.86,0-14.54-1.85,6.52.21,13,.09,19.52,0a21.11,21.11,0,0,0,3-.33,1,1,0,0,0,.69-.58c.16-.55-.38-.73-.74-.76a24.54,24.54,0,0,0-3-.05,108,108,0,0,1-19.93-.57c4.06-1.19,8.46.3,12.49-1.37-3.4-1.37-7.17,0-10.5-1.64,3.53,0,7.08-.19,10.59,0a90.65,90.65,0,0,0,20.62-1c1.18-.19,2.74-.84,3.54.16,1,1.22-.12,2.66-.61,4a.91.91,0,0,1-.11.22c-2.82,6.46-7.32,10-14.79,9-4.44-.61-8.93-.77-13.4-1.13C228.75,93.33,230.28,94.61,231.33,93.91Z"/><path class="cls-8" d="M227.37,65.45l.55-.54c.35-.51-.48-1-.07-1.49,7.53-3.67,15-7.37,22.6-11,1.12-.54,2.47-1.58,3.68-.45s.63,2.5.22,3.78c-1.91,6-5,11-11.33,13.28-5.21,1.9-10.36,4-15.53,6a3.42,3.42,0,0,1-2.35.15l11.08-5.67-.34-.7c-4.34,1.24-8.22,3.85-12.73,4.64,7-4.1,14.66-6.8,21.36-11.42-8.17,2.39-15.34,7.17-23.53,9.52,4.5-3.24,9.81-5.07,14.37-8.21-2.85-.18-4.89,1.94-7.46,2.55C227.35,66.17,227.29,65.9,227.37,65.45Z"/><path class="cls-1" d="M186,158.22c7.42,0,12.65,3.74,14.06,10.44,1,4.86-.73,8.94-4.3,12.29-1,.93-1.65.75-2.2-.52a38.4,38.4,0,0,0-7.43-10.79c-2.7-2.91-3.21-6.63-4.34-10.14-.25-.81.35-.74.77-.9A10.49,10.49,0,0,1,186,158.22Z"/><path class="cls-8" d="M221.46,106.75c1.87.79,3.75,1.58,5.63,2.35.69.28,1.76.6,2,0,.45-1-.78-.94-1.35-1.26s-1.28-.7-1.93-1a.38.38,0,0,1-.11-.42c0-.13.1-.19.15-.19.91-.84,1.69-.6,2.71,0a108.36,108.36,0,0,0,12,6.11c3,1.32,3,1.89.37,3.93-5.17,4-10.86,4.37-16.46,1-1.57-.93-3.06-2-4.58-3-.28-.54.21-.69.48-1l-.49-1c-.11-.45,0-.69.51-.48,1.33.06,2.39,1.45,4.3.76l-3.8-2.3c-.06-.49.09-.75.64-.54,3.57,1.55,6.9,3.74,11,4.09-3.66-2.56-7.94-4-11.61-6.51C220.8,106.82,220.89,106.53,221.46,106.75Z"/><path class="cls-8" d="M225.82,79.26c-3.65,0-5.67,2.73-8.66,3.31,1.79,2.19,1.75,2.49-.85,3.66a13.33,13.33,0,0,1-3.33,1c-2.76.46-3.1.12-3-2.72,0-1.79-.46-3.33-2.11-4.21-.94-.5-1-.85-.51-1.85,2.5-5,9.54-6.94,14.09-3.8A16.06,16.06,0,0,1,225.82,79.26Z"/><path class="cls-11" d="M133.16,79.47c-2.4-7.08,3.54-14.67,15.15-15.39-2.64,3.32-6.48,4.79-9.05,7.75a38.82,38.82,0,0,0,10.66-6.58,7.87,7.87,0,0,0,.74,3.83c1.1,1.74.48,2.75-1,3.82a14.37,14.37,0,0,1-7.32,2.83C138.93,76,135.78,76.77,133.16,79.47Z"/><path class="cls-11" d="M200.32,123.8l1,.92c.8-.12-.15-1.53,1-1.38.69.78.89,1.94,1.91,2.56.84-.84-.19-1.36-.1-2.22,2.63,1.08,2.49,4.57,5.23,5.78-.29-2.47-1.87-4.05-2.8-6.13,1.18,0,1.3,1.36,2.43,1.35.39-2.11-1.65-3.22-2.06-4.94-.16-.45,0-.57.44-.43,5.21,2.37,6.16,8.12,9.47,12,1.62,1.9,1.13,2.68-1.35,3.32-5.92,1.54-9.06.37-12.57-4.69a26.6,26.6,0,0,1-3.21-6.14A.42.42,0,0,1,200.32,123.8Z"/><path class="cls-8" d="M213.5,50c1.67,4.15.93,7.46-2.06,10.16-.43.39-.88.76-1.27,1.18s-.8.71-.34,1.25a1.05,1.05,0,0,0,1.37.12A11.17,11.17,0,0,0,215,59.17a6,6,0,0,1-1.41,6.39c-1.25,1.42-1.24,1.44.39,2,.73.24.41.8.34,1.2-.19,1-4.3,4.8-5.34,5s-.84-.63-.95-1.08A8,8,0,0,0,206.11,69c-.32-.36-.79-.66-.63-1.26a9.76,9.76,0,0,0-.83-7.91c-.44-.75.61-1.06,1.08-1.39A24.61,24.61,0,0,0,213.5,50Z"/><path class="cls-11" d="M135.92,44.84c-4.71,1.59-8.94,4.28-13.66,5.89-4,1.38-7.82,1.31-11.43-1a6.31,6.31,0,0,1-2.63-7.42,5.92,5.92,0,0,1,5.41-4.4c.56,0,1.35,0,1.64.3.52.57-.33.95-.59,1.42-1.49,2.64,0,6,3.17,7.17,2.86,1.08,5.7.6,8.53-.23s5.27-2,8.12-2.27C135,44.33,135.78,43.7,135.92,44.84Z"/><path class="cls-11" d="M220.88,99.85c-1.87-1.67-4-1.91-5.89-2.76-.81-.38-1.91-.9-2.42.15s.78,1.23,1.38,1.71a10.62,10.62,0,0,0,1.24.67c-3.2,1.14-5.45.15-7.68-1a1.08,1.08,0,0,1-.61-1.23,5,5,0,0,0-2.08-5c5.75-5.35,13.63-4.48,17,1.78-.76.59-1.17-.21-1.73-.41s-1.1-1.38-1.84-.43.27,1.33.7,1.88C220.56,97.26,220.57,97.25,220.88,99.85Z"/><path class="cls-11" d="M166.1,56c.14,7.85-5.28,11.63-10.69,15.44-.85.59-1.28.3-1.81-.4-2.25-2.93-1.82-9.84.89-12.32,1.37-1.26,3.18-.14,5.08-.94l-3.64,7.78C160.3,63.3,160.32,56.74,166.1,56Z"/><path class="cls-11" d="M187.87,128.31c.84.35.84.35,1.06-1,.15-.24.28-.23.4,0,.5,3.9,1.92,7.55,3.13,11.25.81,2.51.57,2.86-2.12,2.88-4.31,0-7.54-1.72-9.24-5.84a19.9,19.9,0,0,1-1.74-6.2c-.21-.62.12-.73.64-.68h0c.81.37.63-.29.74-.69s-.4-1.27.66-1.22c.26.83.14,1.84,1.51,2.52v-2.49c-.19-.51,0-.62.5-.51.6,3.08,1.19,6.15,1.79,9.23l.77-.08c.42-1.33-.19-2.73-.08-4.09-.22-.55,0-.66.52-.59.19.26.33.67.57.73.66.17.5-.43.51-.75,0-.64-.06-1.29-.09-1.93C187.16,128.32,187.41,128.21,187.87,128.31Z"/><path class="cls-12" d="M125.6,68.47c3.37-.34,6.44-2.12,10-2.1-4.63,7-14.62,8.11-19.33,2.26,10.43-5.37,15.67-6.64,18.57-4.47L124.63,68C124.47,69.05,125.17,68.51,125.6,68.47Z"/><path class="cls-13" d="M74.79,51.86c-1.17,1.73-2.68,3.32-3.21,5.48-.14.6-.14,1.45-1,1.46A3,3,0,0,1,68,57.45a1.47,1.47,0,0,1,0-2A16.26,16.26,0,0,0,69.63,53c.25-.47.43-1.23-.24-1.53s-1,.33-1.25.86c-.84,1.7-1.84,3.16-4.31,3,.93-1.51,2.3-2.61,2.39-4.34,0-.64.21-1.48-.66-1.64s-.79.63-1,1.18A7.32,7.32,0,0,1,62.33,54a3.57,3.57,0,0,1-4.39.35,2.33,2.33,0,0,1-1.3-2c0-1.16,1.09-.76,1.71-1A4.64,4.64,0,0,0,61.71,47c.06-.65-.56-1.64.44-1.93a2.31,2.31,0,0,1,2.37,1.1C67.08,49.55,71.17,50,74.79,51.86Z"/><path class="cls-12" d="M99.76,88.15,96.2,94.6l.48.46c3-3.25,5.32-7.26,9-10.29A6.09,6.09,0,0,1,105,90.1c-2,2.94-3.48,6.25-6.53,8.37-1.73,1.2-3.91,2.89-5.56,2-1.25-.65.14-3.32.42-5.07a17.51,17.51,0,0,1,1.73-5.17C96,88.4,97.19,87,99.76,88.15Z"/><path class="cls-11" d="M161.37,77.3c1.91-3.08,4.7-5.61,5.72-9.26,3.28,2.75,3.39,3.62.67,6.69-2.45,2.76-5.5,5-7,8.57-4.17-4.16-4-10.34.29-13.93a20,20,0,0,0,4.41-4.83c-.05,5-3.06,8.09-4.49,11.81C160.6,77.4,160.61,77.41,161.37,77.3Z"/><path class="cls-13" d="M162.82,128.07c1.14-.51,1.05-1.58,1.21-2.53.07-.45.28-.82.79-.75s.43.57.38.95a10.86,10.86,0,0,0,0,4.73c2.19-2.39.51-6.22,3.75-8.48-1.1,4.84.12,9.23-.83,13.58-.38,1.73-1,2.32-2.67,1.66A27.21,27.21,0,0,1,162,135.7c-2.81-1.63-3.34-3-2.57-6.22a5.94,5.94,0,0,1,.44-1.41c.5-.94.14-2.68,1.74-2.62C163.44,125.52,161.63,127.37,162.82,128.07Z"/><path class="cls-12" d="M118.71,73.24c-3.4,1.61-5.84,4.72-8.78,5.81-3.23,1.2-4.25,4-6.64,5.53-2.69,1.77-5,1.87-7.81-.11,4.36-.75,7.1-3.63,9.89-6.45a35.2,35.2,0,0,1,6.29-5.26C115.13,70.6,115.13,70.59,118.71,73.24Z"/><path class="cls-13" d="M105.69,92.77c-.61,6.67,2.25,14-4,19.74-1.9-4.14-3-8.35-1.44-12.4C101.26,97.38,104.13,95.5,105.69,92.77Z"/><path class="cls-13" d="M110.49,129.3c.28.4.52,1,1.07.87.82-.21.49-1,.33-1.44-.28-.92-.71-1.79-1.12-2.77,4.57,3.32,5.52,6.06,3.47,9.86-1.72,3.18-4.52,4.42-7.76,3.23,3.28-3.62,2-7-.59-10.23-.33-.41-1.64-.91-.49-1.69.95-.64,1.53.25,1.95.94s.76,1.65,1.23,2.43c.57,1,1.16,1.3,1.48-.18C109.82,129.82,109.6,129.32,110.49,129.3Z"/><path class="cls-14" d="M216.81,64.82a2.73,2.73,0,0,1,1.3-2.7c8.27-5.4,15.77-11.88,24.25-17A18.18,18.18,0,0,1,246.57,43C244.65,46.26,227.39,58.91,216.81,64.82Z"/><path class="cls-13" d="M162.54,243c-.52-3.77,1-6.48,4.33-7.65,2.65-.93,4.82,0,6.79,3.08-5.23-.55-7.45,2.71-9,6.81-.36.93-.82,1.81-1.23,2.72-1.35-.29-.51-1.33-.65-2C162.56,245,162.92,244,162.54,243Z"/><path class="cls-15" d="M164.9,83.83l2.68-2.91c-.51,2.31-1.79,4.27-2.19,6.55-.12.67-.66.63-1.17.46-2.89-1-5.51-.17-8.06,1.44-.7-3.27.63-6.48-.76-9.46a.85.85,0,0,1,.64-.65c1,2.16,1.58,4.53,3.56,6.12,1.05.84,1.71,1.27,2.43-.49,1.67-4.09,5.15-6.77,8.35-9.67-1.06,3.35-4.89,4.72-6,8C164.34,83.64,164,84.28,164.9,83.83Z"/><path class="cls-13" d="M135.06,61.83c5.62-.73,10.1-3.12,14.83-4.8.89-.32,1.91-.56,2.55.24s-.31,1.7-.78,2.3C149,63.05,139.32,64.54,135.06,61.83Z"/><path class="cls-16" d="M181,66.41a16.36,16.36,0,0,1-8.26,9.86c.46-6.86,5.93-11.68,6.82-18.37,1.73,2.21.32,6.92-4,13.77,2.82-1.55,3.8-4,5-6.26C181.41,65.38,181.22,65.88,181,66.41Z"/><path class="cls-17" d="M74.66,45.41c-1.13-.44-2.24-1-3.41-1.31a3.5,3.5,0,0,1-2.51-2.82c-.3-1.44-.21-2.65,2-2.29,3.13.53,5.07-.71,6.3-3.57.22-.52-.08-1.56,1-1.36.91.17,1.29,1,1.51,1.82s0,1.26-.88,1.7c-4.06,2-4.8,3.51-4,7.87Z"/><path class="cls-13" d="M156,79.26l-.64.65c-1.89.06-3.78,0-5.67.18s-1.87-.65-1.4-2.08a8.48,8.48,0,0,1,2.55-3.85c.85-.75,1.67-1.45,2.66-.16.78,1,1.41,0,2.44-.34A21.35,21.35,0,0,0,156,79.26Z"/><path class="cls-15" d="M126.21,74.21c-4.14,3.32-7.65,7.62-13.7,5.42A16.68,16.68,0,0,1,126.21,74.21Z"/><path class="cls-18" d="M248.75,105.87c-4.56-.5-8.6-2.09-12.8-3-3.73-.76-7.4-1.79-11.13-2.56-1.26-.26-1.9-1-1.62-2s1.32-.32,2-.13q10.73,3.12,21.44,6.28A2.69,2.69,0,0,1,248.75,105.87Z"/><path class="cls-19" d="M254.76,75.35c-7.32,2.31-15,2.84-22.5,4-1.27.19-3.63,1.27-3.74,0-.15-1.63,2.33-1,3.6-1.25,6.84-1.32,13.69-2.56,20.63-3.27C253.49,74.75,254.39,74,254.76,75.35Z"/><path class="cls-14" d="M57,156.29c-2.94-.95-4.29-2.91-3.75-5.44a3.42,3.42,0,0,1,5.42-2c1.07.9,1.9,1.88.15,3.15C57.26,153.05,57.24,153.47,57,156.29Z"/><path class="cls-14" d="M94.92,115.11c0-3.65,0-6.83,0-10,0-2,.65-3.57,3.08-3.83-.55,2.59.1,5.17.26,7.78A6,6,0,0,1,94.92,115.11Z"/><path class="cls-16" d="M225.13,129c-4.76-3-8.39-7.15-11.83-11.47-.5-.63-.24-1.09.15-1.53s.87-.15,1.25.21A66.53,66.53,0,0,1,225.13,129Z"/><path class="cls-14" d="M73.14,244.62a4.43,4.43,0,0,1-1.36-4.86c.47-1.78,1.63-3.42,3.59-3.1s2.52,2.2,2.94,3.94c.18.73-.13,1.08-.91,1.05A3.81,3.81,0,0,0,73.14,244.62Z"/><path class="cls-16" d="M45.7,132.77c-1.48-3.84,1.16-7.58,4.84-7.33.25,0,.64,0,.71.12.82,1.51-.33,3-.16,4.49.12,1-.65,1.14-1.48,1.09A4.36,4.36,0,0,0,45.7,132.77Z"/><path class="cls-20" d="M155.56,127.41c-.87,1.51-2,1.66-3.2.47-1-1-2.08-1.92-.75-3.55a11.13,11.13,0,0,0,2-3.64,4.47,4.47,0,0,1,3.72-3.24c.14,1.64.49,2.88-1.44,4.16-1.28.84-1.79,3.24-2.09,5-.24,1.44.74.22,1.18.15S155.76,126.87,155.56,127.41Z"/><path class="cls-14" d="M122.07,80a43.94,43.94,0,0,1,8.78-6.7c.08,2.08-.58,3.91.05,5.74.37,1-.66.93-1.24.94C127.37,80,125.08,80,122.07,80Z"/><path class="cls-21" d="M200.24,139.56a92.83,92.83,0,0,1-6.69-14c-.26-.65-.05-1.06.64-1.34.53-.21.83,0,1,.37C197.14,129.46,199.44,134.24,200.24,139.56Z"/><path class="cls-22" d="M215.33,231c-2.48,1.18-5.45,1.84-5.66,5.41,0,.49-.34.79-.82.56s-1.35-.36-1.56-1.33a4.47,4.47,0,0,1,4.56-5.37l2.94.22C215.33,230.3,215.42,230.56,215.33,231Z"/><path class="cls-20" d="M66,240c-1.22-2.07-.64-3.67.39-5.16a2.53,2.53,0,0,1,2.5-1.34,3.16,3.16,0,0,1,2.37,2.33c.34,1.12-.42,1.79-1.61,1.9A4.6,4.6,0,0,0,66,240Z"/><path class="cls-19" d="M64.29,230.9a5.28,5.28,0,0,1,3.12-4.67c1-.47,2-.2,1.7,1.06-.47,1.73-.91,3.62-2.45,4.82-.47.37-1,1.17-1.66.81S64.43,231.62,64.29,230.9Z"/><path class="cls-17" d="M146.59,76.66c.3,3-.92,3.66-3.32,3.46s-4.71-.05-7.09-.33C139.22,77.26,143.16,78.26,146.59,76.66Z"/><path class="cls-16" d="M173.67,140.48c-.86-4.18-.2-7.73-.17-11.28,0-.85.28-1.46,1.26-1.43,1.13,0,.75.91.74,1.48A34,34,0,0,1,173.67,140.48Z"/><path class="cls-15" d="M53.2,47.81a4.26,4.26,0,0,1,5.94-2c1.12.74.93,1.71.33,2.56S58,50.06,57,49.08A5.14,5.14,0,0,0,53.2,47.81Z"/><path class="cls-23" d="M236.38,239.81a4.48,4.48,0,0,1-3.52-.3,2,2,0,0,1-1.09-2.7,2.76,2.76,0,0,1,2.76-1.74c.5,0,.83.23.72.74C234.93,237.3,235.91,238.46,236.38,239.81Z"/><path class="cls-24" d="M69.6,32.52a3.87,3.87,0,0,1,4,.71c.66.53,1.68,1,1.22,2.18a2.87,2.87,0,0,1-2.47,1.85c-.74.07-1.54,0-1.42-1.2A5,5,0,0,0,69.6,32.52Z"/><path class="cls-19" d="M95.94,246c-2.84.18-4.36-1-4.14-3.09a2.13,2.13,0,0,1,2.33-2c1.4,0,1.18,1,1,1.94C95,243.88,95.56,244.84,95.94,246Z"/><path class="cls-25" d="M213.29,246.76a3.72,3.72,0,0,1-1.87-3.87c.07-.79.13-1.8,1.1-2a3.21,3.21,0,0,1,2.51.79c.65.5.42.94-.11,1.38A4.7,4.7,0,0,0,213.29,246.76Z"/><path class="cls-24" d="M205.86,243.67c-1.75-1.67-1.44-4.06.51-4.95a1.7,1.7,0,0,1,2.25.27c.8,1.06-.48,1.16-.94,1.52A6.7,6.7,0,0,0,205.86,243.67Z"/><path class="cls-26" d="M86.93,124.48c2.1-1.14,3.74-2.71,5.69-.34C90.94,125.42,89.19,125.54,86.93,124.48Z"/><path class="cls-27" d="M104.69,119a5.64,5.64,0,0,1-5.83.26C100.72,117.71,102.49,117.24,104.69,119Z"/><path class="cls-23" d="M93.31,122c1.86-1.76,3.48-2.49,5.36-.41A4.94,4.94,0,0,1,93.31,122Z"/><path class="cls-27" d="M171.21,119.65c1.12,1.62,1.37,3.07.5,4.6a1,1,0,0,1-1.25.53c-.49-.2-.4-.7-.29-1.07C170.52,122.45,170.24,121,171.21,119.65Z"/><path class="cls-28" d="M93.2,67c1.25,1.22,2.73,1.51,2.79,3.1,0,.44.16,1.09-.46,1.24A1.52,1.52,0,0,1,94.46,71C93.35,70.09,93,68.89,93.2,67Z"/><path class="cls-29" d="M81.7,127c1.6-1,3-2.46,4.76-.37A3.93,3.93,0,0,1,81.7,127Z"/><path class="cls-30" d="M97,117.18c.2-1.79,1.75-2.42,2.09-3.83C101.2,115.84,101.2,115.84,97,117.18Z"/><path class="cls-31" d="M97.69,71.08c.14,0,.24,0,.29,0,1.1.82,2.86,1.16,2.3,3.18-.12.45-.36.82-.82.52A3.53,3.53,0,0,1,97.69,71.08Z"/><path class="cls-32" d="M221.52,109.72l-.64.54a14,14,0,0,1-5-3.12A13.41,13.41,0,0,1,221.52,109.72Z"/><path class="cls-33" d="M189.33,127.31h-.2l-.2,0c-.79-1.93-.49-3.82-.27-5.72l.67,0Z"/><path class="cls-34" d="M221.88,66.48a13.53,13.53,0,0,1-5.44,2.42c1.4-1.72,3.43-2.32,5.43-3C222.15,66.1,222.16,66.29,221.88,66.48Z"/><path class="cls-35" d="M91.18,68a3.1,3.1,0,0,1-1.45-3.52C91.73,65,91.7,66.23,91.18,68Z"/><path class="cls-31" d="M231.33,93.91c-1,1-2.47-.12-3.45.85-1,0-2,.23-2.89-.85Z"/><path class="cls-36" d="M110.49,129.3l-.43,1c-.66-1-1.32-2.08-2-3.12-.2-.32-.67-.61-.23-1s.88,0,1.2.34A5,5,0,0,1,110.49,129.3Z"/><path class="cls-37" d="M186.37,130.79l-.52.59a8.22,8.22,0,0,1-.18-5Z"/><path class="cls-23" d="M181.36,126.8c-.58.48-.3,1.17-.46,1.76s-.53.7-.94.15c1.51-1.37-.25-3.12.64-4.7C181.57,124.75,181.38,125.81,181.36,126.8Z"/><path class="cls-38" d="M218.86,48.41l.57.56a13.21,13.21,0,0,1-3.59,2.72C216.28,49.58,218,49.37,218.86,48.41Z"/><path class="cls-39" d="M155.56,127.41l-.53-.61c.36-.81.7-1.63,1.09-2.43.18-.37.48-.7.94-.39s.36.65.09,1C156.61,125.81,156.09,126.61,155.56,127.41Z"/><path class="cls-40" d="M152.57,46.32a7.59,7.59,0,0,1,2.09,3.59,7.73,7.73,0,0,1-2.68-3Z"/><path class="cls-41" d="M162.54,243c1.13,1.51-.2,3.44.87,5l-.47,1.09h-.4Z"/><path class="cls-42" d="M207,114.55c1.42.43,1.34,1.58,1.74,3.08A3.62,3.62,0,0,1,207,114.55Z"/><path class="cls-43" d="M220.86,49.92l.61.58a8.55,8.55,0,0,1-2.63,1.86.86.86,0,0,1-.51-.46A8.55,8.55,0,0,1,220.86,49.92Z"/><path class="cls-44" d="M181,66.41c-.08-.37-.06-.79-.47-1a4.75,4.75,0,0,1,1.2-2.76A4.92,4.92,0,0,1,181,66.41Z"/><path class="cls-45" d="M205.84,117.89a8,8,0,0,1-1.65-3.55,6.15,6.15,0,0,1,2.05,3A.74.74,0,0,1,205.84,117.89Z"/><path class="cls-46" d="M225.9,66.93a6.94,6.94,0,0,1-3.17,1.39c.71-1.3,1.76-1.46,2.66-1.84A.79.79,0,0,1,225.9,66.93Z"/><path class="cls-31" d="M103.42,113.86l2-2.59C106,113,105.6,113.85,103.42,113.86Z"/><path class="cls-37" d="M221.46,106.75l-.59.55a5.37,5.37,0,0,1-2.51-1.46c-.14-.09-.19-.19-.15-.29s.09-.16.13-.16A6.41,6.41,0,0,1,221.46,106.75Z"/><path class="cls-24" d="M227.85,63.42c.16.49.78,1,.07,1.49-.88-1.45-1.71,0-2.56,0a.32.32,0,0,1-.12-.35c0-.12.08-.17.12-.17Z"/><path class="cls-47" d="M220.36,113.3l-.48,1a3.76,3.76,0,0,1-2.43-1.75C218.63,112.17,219.29,113.58,220.36,113.3Z"/><path class="cls-48" d="M184.82,120.63c.17,1.11.35,2.21.52,3.31A2.78,2.78,0,0,1,184.82,120.63Z"/><path class="cls-17" d="M218.34,105.39a1,1,0,0,0,0,.45,8.23,8.23,0,0,1-2.93-1.34A2.6,2.6,0,0,1,218.34,105.39Z"/><path class="cls-49" d="M187,121.74a3.24,3.24,0,0,1,.11,3c-1.17-.89-.41-1.75-.18-2.57-.14-.11-.17-.22-.11-.3A.26.26,0,0,1,187,121.74Z"/><path class="cls-50" d="M217.33,102.83c1.54-.54,2.38.28,3,1.53l0,0a5.41,5.41,0,0,1-3-1.52Z"/><path class="cls-51" d="M102.8,74.94c.5.36,1.14.62,1.23,1.34a.44.44,0,0,1-.61.49,1.86,1.86,0,0,1-1.26-1.33C102.09,75,102.47,75,102.8,74.94Z"/><path class="cls-52" d="M219.88,229.17l.48.82-3,.17a.34.34,0,0,1-.12-.36q.06-.18.12-.18A5.13,5.13,0,0,1,219.88,229.17Z"/><path class="cls-24" d="M225.89,106.17l0,.61-3.14-1.21C224.12,105,225,105.68,225.89,106.17Z"/><path class="cls-53" d="M183.37,126.32l-.5.51c-.08-.13-.22-.25-.24-.4-.11-.64-.63-1.62.43-1.68C183.62,124.71,183.4,125.74,183.37,126.32Z"/><path class="cls-8" d="M201.76,119.35a3.71,3.71,0,0,1-1.22-2.08c1.34.17,1.44,1.17,1.73,2C202.12,119.54,202,119.57,201.76,119.35Z"/><path class="cls-23" d="M205.84,117.89l.4-.55,1.11,2-.44.43A3.45,3.45,0,0,1,205.84,117.89Z"/><path class="cls-54" d="M173.37,60.88c-.12.61-.17,1.28-1.25,1.59.28-1.19.53-2.21.77-3.23C173,59.79,172.83,60.45,173.37,60.88Z"/><path class="cls-55" d="M182.07,59.87a2.06,2.06,0,0,1,.13,2.25C181,61.57,181.53,60.92,182.07,59.87Z"/><path class="cls-56" d="M181,51.91l-.42-1.54c.57-.6.21-1.4.45-2.07a10.82,10.82,0,0,1,.45,3.62A.29.29,0,0,1,181,51.91Z"/><path class="cls-57" d="M217.38,229.62v.54a4.2,4.2,0,0,1-2,.86l-.54-.51A6.16,6.16,0,0,1,217.38,229.62Z"/><path class="cls-17" d="M225.9,66.93l-.51-.45,2-1,.52.47A4.29,4.29,0,0,1,225.9,66.93Z"/><path class="cls-58" d="M220.34,104.36c.68-.21,1.36-.45,1.91.45-.84.55-1.39.12-1.89-.49Z"/><path class="cls-59" d="M254.76,75.35c-.51-.79-1.37-.23-2-.53a2.41,2.41,0,0,1,2.33-.35C256.15,75,255.24,75.17,254.76,75.35Z"/><path class="cls-14" d="M220.38,111.8l-.51.48-2.1-1.3A2.67,2.67,0,0,1,220.38,111.8Z"/><path class="cls-60" d="M198.89,122.31a1.9,1.9,0,0,1-.72-1.75c1-.06.91.74,1.17,1.27A.79.79,0,0,1,198.89,122.31Z"/><path class="cls-61" d="M202.3,123.34c-.57.3-.07,1.38-1,1.38.49-.8,0-1.59-.25-2.39C202,122.24,202.1,122.86,202.3,123.34Z"/><path class="cls-17" d="M201.76,119.35l.51,0,1.14,2a.56.56,0,0,1-.08.81Z"/><path class="cls-62" d="M220.87,69.39a2.33,2.33,0,0,1-2,.81l0-.31c.26-.71.95-.72,1.52-.94A.78.78,0,0,1,220.87,69.39Z"/><path class="cls-63" d="M135.92,44.84c-.33-.58-1-.28-1.44-.51a3,3,0,0,1,2.59-.27C136.89,44.67,136.41,44.76,135.92,44.84Z"/><path class="cls-64" d="M225.36,64.43V65a2.38,2.38,0,0,1-1.55.86.8.8,0,0,1-.51-.46A3.28,3.28,0,0,1,225.36,64.43Z"/><path class="cls-65" d="M219.4,41.57a2.93,2.93,0,0,1-2,1.44,5.06,5.06,0,0,1,1.88-2.14A.43.43,0,0,1,219.4,41.57Z"/><path class="cls-31" d="M219.4,41.57l-.07-.7c.25-.59.71-1.15.32-1.85L221,40Z"/><path class="cls-66" d="M104.58,116.66c.76-.47,1.19-1,1.88-.58a.48.48,0,0,1,.07.44C106.06,117.22,105.45,117,104.58,116.66Z"/><path class="cls-67" d="M203,116.64c-.77-.08-.83-.64-.86-1.16,0-.1.49-.33.5-.32A1.46,1.46,0,0,1,203,116.64Z"/><path class="cls-68" d="M217.37,102.8c-.63-.1-1.29-.15-1.63-1,.88-.13,1.74-.41,1.59,1Z"/><path class="cls-69" d="M187.87,128.31l-.51.53a2,2,0,0,1-.3-1.8C188,127.08,187.8,127.77,187.87,128.31Z"/><path class="cls-70" d="M164.9,83.83c-.24.57-.41,1.22-1.23,1.34a2,2,0,0,1,.72-1.91Z"/><path class="cls-27" d="M218.33,51.9l.51.46c-.54.4-.89,1.18-2,.93C217.12,52.5,217.77,52.25,218.33,51.9Z"/><path class="cls-71" d="M161.37,77.3l-.58,1.51a1.91,1.91,0,0,1,.16-2.46Z"/><path class="cls-72" d="M198.89,122.31l.45-.48,1,2-.63,0C199.43,123.31,199.16,122.81,198.89,122.31Z"/><path class="cls-19" d="M223.3,65.35l.51.46-1.93.67v-.55Z"/><path class="cls-73" d="M203.76,118c.52,0,.64.31.76.61s.29.49-.05.62c-.56.21-.68-.3-.82-.65C203.59,118.43,203.72,118.19,203.76,118Z"/><path class="cls-74" d="M218.87,69.89c0,.11,0,.21,0,.31a1.18,1.18,0,0,1-1.81.59C217.43,70,218.15,70,218.87,69.89Z"/><path class="cls-26" d="M220.87,69.39l-.48-.44L222.5,68C222.15,69.13,221.42,69.14,220.87,69.39Z"/><path class="cls-45" d="M180,128.72l-.64.68c-.54-.58-.4-1.34-.54-2-.12-.51.08-.68.57-.55C179.59,127.45,179.79,128.08,180,128.72Z"/><path class="cls-17" d="M205,120.37c.8.22,1,.73,1.08,1.51A1.45,1.45,0,0,1,205,120.37Z"/><path class="cls-33" d="M203.33,122.07l.08-.81c.48.41.92.84.73,1.54a.45.45,0,0,1-.38.22C203.31,122.86,203.31,122.46,203.33,122.07Z"/><path class="cls-14" d="M187,121.74a.38.38,0,0,0-.07.41c-.9-.65-.42-1.46-.4-2.41C187.14,120.45,186.9,121.12,187,121.74Z"/><path class="cls-75" d="M179.39,126.82l-.57.55c-.37-.47-.63-1.13,0-1.4S179.4,126.36,179.39,126.82Z"/><path class="cls-76" d="M125.6,68.47c-.59.44-1.28.75-1.79.07-.2-.26.39-.56.82-.57Z"/><path class="cls-77" d="M177.27,218.35a7.52,7.52,0,0,1,.93.83c1.34,1.66,3.46,1.86,5.2,2.77.41.21,1,.44.77,1.05a.9.9,0,0,1-.79.4c-2.5-.57-5.1-1-6.67-3.39-.27-.43-.51-.89-.13-1.36C176.7,218.49,177,218.46,177.27,218.35Z"/><path class="cls-78" d="M190.72,196a5.69,5.69,0,0,1,3.47,2.36c.22.39-.1,1-.46.95-1.6-.24-2.72-1.38-3.8-2.45C189.6,196.54,189.85,195.91,190.72,196Z"/><path class="cls-79" d="M190.69,200.14a6,6,0,0,1,3.57,2.84,1,1,0,0,1-.18.88c-.26.29-.62.12-.83-.16a8.18,8.18,0,0,0-3-2.18.82.82,0,0,1-.43-1A.61.61,0,0,1,190.69,200.14Z"/><path class="cls-80" d="M188.43,218.25c0,.69-.35.94-.92.55a37.14,37.14,0,0,1-3.32-2.52c-.43-.38-.62-1.08.35-1.22S188.34,217.4,188.43,218.25Z"/><path class="cls-80" d="M187.5,212.85c.61,0,3,2.51,3,3.65,0,.78-.62.84-1,.48a36.83,36.83,0,0,1-2.95-3.29C186.28,213.39,186.43,212.89,187.5,212.85Z"/><path class="cls-79" d="M190.18,204.86c2-.12,4.29,1.58,4.33,3,0,.63-.35,1.05-.86.58C192.48,207.37,191.44,206.18,190.18,204.86Z"/><path class="cls-81" d="M192.23,214.4c-.17.21-.3.49-.48.52a.74.74,0,0,1-.59-.27c-1-1.11-1.92-2.25-2.86-3.38-.24-.28-.32-.63,0-.84s.68-.27.88-.15C190.82,211.2,191.41,212.86,192.23,214.4Z"/><path class="cls-81" d="M193.31,212c-1.16-.12-1.28-1.21-1.85-1.85s-1.73-1.27-1-1.85c1-.83,1.62.57,2.15,1.3S193.83,210.93,193.31,212Z"/><path class="cls-82" d="M130.13,167.4a4.86,4.86,0,0,1-.17,1.22c-.31.8-.43,2.22-1.42,2-1.19-.27-.33-1.44-.19-2.23.07-.4.17-.8.22-1.2.09-.59.18-1.35.84-1.33C130.38,165.88,130,166.81,130.13,167.4Z"/><path class="cls-83" d="M131.5,169.32a1.82,1.82,0,0,1-.17-2.28c.39-.89,0-2.06.95-2.72.13-.08.57,0,.6.13a4.4,4.4,0,0,1-.3,3.6A9.41,9.41,0,0,1,131.5,169.32Z"/><path class="cls-82" d="M187.57,102c2.23.64,3.91,1.6,5.87,1.38.66-.08,1,.47,1,1.14s-.46.76-1,.85C191.65,105.64,188.78,104.16,187.57,102Z"/><path class="cls-84" d="M183.79,102.83a10,10,0,0,0,5.12,2.5c.52.07,1,.35.94.94s-.65.64-1.12.69C186.8,107.15,184.78,105.67,183.79,102.83Z"/><path class="cls-78" d="M179.74,103.62c1.64.85,2.85,1.48,4,2.12a.86.86,0,0,1,.54,1c-.17.66-.73.64-1.2.51A4.37,4.37,0,0,1,179.74,103.62Z"/><path class="cls-85" d="M179.77,106.66c-.13.69-.58.74-1,.6-1-.38-2-.76-2.26-2-.06-.39.39-.48.71-.32A5.16,5.16,0,0,1,179.77,106.66Z"/><path class="cls-86" d="M172.53,104.62c.61-.21,1,.24,1.24.57.51.58,1.7.44,1.67,1.52,0,.18-.47.52-.71.5a2.79,2.79,0,0,1-2.13-1.47A.92.92,0,0,1,172.53,104.62Z"/><path class="cls-87" d="M223.88,188.08c1.3.88,3,2,4.68,3.2.31.21.24.59,0,.86a.66.66,0,0,1-.88.13,27.29,27.29,0,0,1-4.9-3.33.72.72,0,0,1-.19-.64C222.7,188,223,187.86,223.88,188.08Z"/><path class="cls-82" d="M229.54,195.94a6.07,6.07,0,0,1-5.81-4.26C226.06,192.83,228,193.86,229.54,195.94Z"/><path class="cls-78" d="M229.19,199.67c-2,0-2.84-1.49-4.1-2.27-.16-.1-.2-.65-.08-.87.24-.46.72-.35,1.06-.09C227.19,197.32,228.52,198,229.19,199.67Z"/><path class="cls-88" d="M228.82,202.83c-.07.35-.21.64-.6.68-.59.07-3.06-2.21-3-2.76s.33-.51.7-.49C226.62,200.3,228.82,202.25,228.82,202.83Z"/><path class="cls-89" d="M148,34.5a1.28,1.28,0,0,1-.56-1.31c.44-1.53.12-2.44-1.47-3.21-1.35-.66-1.33-1.81.3-2.47,1.37-.56,2.5-.59,4.71.07l-4.06,1.17c2.65,1.28,5.24,1.74,7.35,3.19.06,0,.16,0,.23.09,1,.59,2.94.56,2.76,1.64-.24,1.47-2.13.49-3.22.89C152,35.32,150,36.61,148,34.5Z"/><path class="cls-90" d="M153.53,35.39c.53.15,1.17.13,1.37,1l-4.69.62c.88,2,2.39,2.12,4.12,1.75.56-.12,1.31-.38,1.51.33.26.9-.68,1-1.25,1.18a5.18,5.18,0,0,1-6.56-4.8A12.45,12.45,0,0,1,153.53,35.39Z"/><path class="cls-91" d="M132.59,33.76c-1.29-.51-1.28-1.55-.88-2.59s1.35-.87,2.15-.74a2.82,2.82,0,0,1,2.62,3c-1.4-.34-1.73-2.39-3.4-1.83C131.89,32,133.45,33.12,132.59,33.76Z"/><path class="cls-62" d="M153.53,35.39l-5.5.1-.05-1c2,1.23,4-.2,6,.06Z"/><path class="cls-92" d="M181,51.91a2.57,2.57,0,0,0,.48,0,1.52,1.52,0,0,1,.32,1.91A3.2,3.2,0,0,1,181,51.91Z"/><path class="cls-77" d="M123.57,211c-.34,1-1.26,1.27-2,1.63-1,.48-2.07,1.05-3.24.45-.14-.07-.23-.42-.2-.61.09-.54,4.55-2.3,5-2A2.14,2.14,0,0,1,123.57,211Z"/><path class="cls-82" d="M117,217.25a9.08,9.08,0,0,1-1.54-.14,1.12,1.12,0,0,1-.71-.57c-.13-.52.39-.66.75-.75,1-.25,2.07-.49,3.13-.64.58-.09,1.44-.49,1.67.4s-.56,1.12-1.19,1.31A21,21,0,0,1,117,217.25Z"/><path class="cls-77" d="M111.5,220a7.28,7.28,0,0,1,4.69-1.38c.42,0,.83.13.9.62a.81.81,0,0,1-.62.92C114.86,220.7,113.24,221.19,111.5,220Z"/><path class="cls-87" d="M108.59,223.51c1.49-1.32,3.14-1,4.42-1.77a.69.69,0,0,1,1,.39.82.82,0,0,1-.39,1.05A4.54,4.54,0,0,1,108.59,223.51Z"/><path class="cls-93" d="M153.32,33.31c-.8.16-1.54.58-2.17-.18-.06-.08.13-.51.28-.58C152.24,32.22,152.75,32.74,153.32,33.31Z"/><path class="cls-94" d="M150,32.45c0,.46,0,.81-.4.89s-.54-.3-.52-.61.18-.68.58-.65C149.78,32.09,149.9,32.37,150,32.45Z"/></svg>