<svg id="Layer_1" data-name="Layer 1" xmlns="http://www.w3.org/2000/svg" viewBox="0 0 300 300"><defs><style>.cls-1{fill:#be1e2d;}.cls-2{fill:#fac825;}.cls-3{fill:#f9c725;}.cls-4{fill:#f8c725;}.cls-5{fill:#f8c624;}.cls-6{fill:#f7c624;}.cls-7{fill:#f3c224;}.cls-8{fill:#f1c124;}.cls-9{fill:#f4c324;}.cls-10{fill:#eebe23;}.cls-11{fill:#eebf23;}.cls-12{fill:#0d0403;}.cls-13{fill:#331e09;}.cls-14{fill:#0b0802;}.cls-15{fill:#1c0b06;}.cls-16{fill:#3f250b;}.cls-17{fill:#261108;}.cls-18{fill:#190c05;}.cls-19{fill:#38150b;}.cls-20{fill:#261c06;}.cls-21{fill:#060501;}.cls-22{fill:#0f0903;}.cls-23{fill:#291f06;}.cls-24{fill:#250e08;}.cls-25{fill:#211406;}.cls-26{fill:#160a04;}.cls-27{fill:#2f1f08;}.cls-28{fill:#211a05;}.cls-29{fill:#180e04;}.cls-30{fill:#391f0a;}.cls-31{fill:#1c1005;}.cls-32{fill:#260709;}.cls-33{fill:#1e1405;}.cls-34{fill:#221106;}.cls-35{fill:#38190b;}.cls-36{fill:#201406;}.cls-37{fill:#150b04;}.cls-38{fill:#080401;}.cls-39{fill:#220b07;}.cls-40{fill:#3a1e0b;}.cls-41{fill:#210807;}.cls-42{fill:#3f140e;}.cls-43{fill:#010000;}.cls-44{fill:#060201;}.cls-45{fill:#391e0a;}.cls-46{fill:#50400c;}.cls-47{fill:#0b0402;}.cls-48{fill:#971823;}.cls-49{fill:#1e1305;}.cls-50{fill:#0b0702;}.cls-51{fill:#0e0802;}.cls-52{fill:#170505;}.cls-53{fill:#3e200c;}.cls-54{fill:#a48418;}.cls-55{fill:#100c03;}.cls-56{fill:#3a1b0b;}.cls-57{fill:#3a1a0c;}.cls-58{fill:#33180a;}.cls-59{fill:#40210c;}.cls-60{fill:#311b09;}.cls-61{fill:#020100;}.cls-62{fill:#2e1d08;}.cls-63{fill:#2d1309;}.cls-64{fill:#0c0303;}.cls-65{fill:#3f240b;}.cls-66{fill:#372709;}.cls-67{fill:#261307;}.cls-68{fill:#382c08;}.cls-69{fill:#80171e;}.cls-70{fill:#1e0b06;}.cls-71{fill:#1f1106;}.cls-72{fill:#120d03;}.cls-73{fill:#0f0a03;}.cls-74{fill:#391f0b;}.cls-75{fill:#3e210b;}.cls-76{fill:#030200;}.cls-77{fill:#130a04;}.cls-78{fill:#3e230b;}.cls-79{fill:#39210a;}.cls-80{fill:#301809;}.cls-81{fill:#3d210b;}.cls-82{fill:#090402;}.cls-83{fill:#37200a;}.cls-84{fill:#050101;}.cls-85{fill:#361f09;}.cls-86{fill:#2b0b0a;}.cls-87{fill:#3d1c0c;}.cls-88{fill:#3a1f0b;}.cls-89{fill:#312008;}.cls-90{fill:#170a04;}.cls-91{fill:#0a0702;}.cls-92{fill:#231c05;}.cls-93{fill:#0c0902;}.cls-94{fill:#260809;}.cls-95{fill:#1d0f05;}.cls-96{fill:#2f1509;}.cls-97{fill:#2c1309;}.cls-98{fill:#090501;}.cls-99{fill:#371a0a;}.cls-100{fill:#311709;}.cls-101{fill:#37180b;}.cls-102{fill:#37190b;}.cls-103{fill:#050301;}.cls-104{fill:#0f0503;}.cls-105{fill:#34160a;}.cls-106{fill:#33150a;}.cls-107{fill:#410b0f;}.cls-108{fill:#200a07;}.cls-109{fill:#281e07;}.cls-110{fill:#3c1e0b;}.cls-111{fill:#3d240b;}.cls-112{fill:#641018;}.cls-113{fill:#200e07;}.cls-114{fill:#2e1b08;}.cls-115{fill:#090202;}.cls-116{fill:#3c1a0c;}.cls-117{fill:#2d090a;}.cls-118{fill:#3d220b;}.cls-119{fill:#3a160c;}.cls-120{fill:#070201;}.cls-121{fill:#1d0807;}.cls-122{fill:#271207;}.cls-123{fill:#251207;}.cls-124{fill:#231007;}.cls-125{fill:#34180a;}.cls-126{fill:#080202;}.cls-127{fill:#1b0506;}.cls-128{fill:#3d260a;}.cls-129{fill:#3a200a;}.cls-130{fill:#2a1208;}.cls-131{fill:#020101;}.cls-132{fill:#3e270b;}.cls-133{fill:#1d0806;}.cls-134{fill:#110504;}.cls-135{fill:#37170b;}.cls-136{fill:#1d0907;}.cls-137{fill:#080302;}.cls-138{fill:#381d0a;}.cls-139{fill:#3a220a;}.cls-140{fill:#070601;}.cls-141{fill:#38170b;}.cls-142{fill:#050201;}.cls-143{fill:#070301;}.cls-144{fill:#2c1908;}.cls-145{fill:#030101;}.cls-146{fill:#090302;}.cls-147{fill:#060401;}.cls-148{fill:#010100;}.cls-149{fill:#055297;}.cls-150{fill:#050604;}.cls-151{fill:#040607;}.cls-152{fill:#080b0a;}.cls-153{fill:#030505;}.cls-154{fill:#0e110d;}.cls-155{fill:#030404;}.cls-156{fill:#090905;}.cls-157{fill:#0a0c08;}.cls-158{fill:#020304;}.cls-159{fill:#020404;}.cls-160{fill:#161204;}.cls-161{fill:#010c16;}.cls-162{fill:#14150c;}.cls-163{fill:#090b09;}.cls-164{fill:#05090a;}.cls-165{fill:#050503;}.cls-166{fill:#060602;}.cls-167{fill:#050707;}.cls-168{fill:#231f0b;}.cls-169{fill:#151a14;}.cls-170{fill:#010a11;}.cls-171{fill:#060b0d;}.cls-172{fill:#171406;}.cls-173{fill:#04090b;}.cls-174{fill:#040b10;}.cls-175{fill:#010406;}.cls-176{fill:#010509;}.cls-177{fill:#010101;}.cls-178{fill:#292b19;}.cls-179{fill:#12150f;}.cls-180{fill:#1e2013;}.cls-181{fill:#020203;}.cls-182{fill:#0a0f0f;}.cls-183{fill:#18180e;}.cls-184{fill:#13150d;}.cls-185{fill:#040605;}.cls-186{fill:#021320;}.cls-187{fill:#020200;}.cls-188{fill:#2d2509;}.cls-189{fill:#0d0f0a;}.cls-190{fill:#1e2114;}.cls-191{fill:#000101;}.cls-192{fill:#040c11;}.cls-193{fill:#040402;}.cls-194{fill:#0b1111;}.cls-195{fill:#171911;}.cls-196{fill:#22261a;}.cls-197{fill:#12140d;}.cls-198{fill:#030201;}.cls-199{fill:#222519;}.cls-200{fill:#040b0f;}.cls-201{fill:#1a1a0e;}.cls-202{fill:#0e120f;}.cls-203{fill:#141207;}.cls-204{fill:#171509;}.cls-205{fill:#090b08;}.cls-206{fill:#202215;}.cls-207{fill:#050401;}.cls-208{fill:#262614;}.cls-209{fill:#232313;}.cls-210{fill:#131814;}.cls-211{fill:#0d0e09;}.cls-212{fill:#1e2117;}.cls-213{fill:#1f2013;}.cls-214{fill:#181d16;}.cls-215{fill:#1a1d13;}.cls-216{fill:#101716;}.cls-217{fill:#121108;}.cls-218{fill:#0f191c;}.cls-219{fill:#111a1b;}.cls-220{fill:#141a16;}.cls-221{fill:#121a19;}.cls-222{fill:#161b16;}.cls-223{fill:#131a19;}.cls-224{fill:#020202;}.cls-225{fill:#282208;}.cls-226{fill:#04101a;}.cls-227{fill:#050f16;}.cls-228{fill:#232312;}.cls-229{fill:#1e1a0a;}.cls-230{fill:#b41d2a;}.cls-231{fill:#d9ae20;}.cls-232{fill:#0c0a02;}.cls-233{fill:#181004;}.cls-234{fill:#0e0b02;}.cls-235{fill:#e2b521;}.cls-236{fill:#c69f1d;}.cls-237{fill:#110c02;}.cls-238{fill:#e5b722;}.cls-239{fill:#d8ad20;}.cls-240{fill:#1e1805;}.cls-241{fill:#c09a1c;}.cls-242{fill:#be981c;}.cls-243{fill:#e0b421;}.cls-244{fill:#bf991c;}.cls-245{fill:#daae20;}.cls-246{fill:#b38f1a;}.cls-247{fill:#211705;}.cls-248{fill:#c39c1d;}.cls-249{fill:#cea51e;}.cls-250{fill:#c9a11e;}.cls-251{fill:#efbf23;}.cls-252{fill:#d7ac20;}.cls-253{fill:#c8a01e;}.cls-254{fill:#2d2407;}.cls-255{fill:#957716;}.cls-256{fill:#eabc23;}.cls-257{fill:#b08d1a;}.cls-258{fill:#e7b922;}.cls-259{fill:#e8ba22;}.cls-260{fill:#131003;}.cls-261{fill:#e3b621;}.cls-262{fill:#b8931b;}.cls-263{fill:#d3a91f;}.cls-264{fill:#0f0c02;}.cls-265{fill:#d5ab1f;}.cls-266{fill:#ebbc23;}.cls-267{fill:#dfb221;}.cls-268{fill:#dcb020;}.cls-269{fill:#d1a71f;}.cls-270{fill:#141003;}.cls-271{fill:#ddb121;}.cls-272{fill:#3c3009;}.cls-273{fill:#896e14;}.cls-274{fill:#201a05;}.cls-275{fill:#241d05;}.cls-276{fill:#312707;}.cls-277{fill:#cfa61f;}.cls-278{fill:#7c6412;}.cls-279{fill:#b7931b;}.cls-280{fill:#745d11;}.cls-281{fill:#151003;}.cls-282{fill:#2b2206;}.cls-283{fill:#351e0a;}.cls-284{fill:#221007;}.cls-285{fill:#46380a;}.cls-286{fill:#58460d;}.cls-287{fill:#2f2607;}.cls-288{fill:#705a10;}.cls-289{fill:#1f1905;}.cls-290{fill:#42350a;}.cls-291{fill:#7b6212;}.cls-292{fill:#241d06;}.cls-293{fill:#201405;}.cls-294{fill:#431f0d;}.cls-295{fill:#3c250a;}.cls-296{fill:#372c08;}.cls-297{fill:#110e02;}.cls-298{fill:#181403;}.cls-299{fill:#5f4c0e;}.cls-300{fill:#614d0e;}.cls-301{fill:#171203;}.cls-302{fill:#997b17;}.cls-303{fill:#705a11;}.cls-304{fill:#040301;}.cls-305{fill:#6e5910;}.cls-306{fill:#4c270e;}.cls-307{fill:#311a09;}.cls-308{fill:#1e1804;}.cls-309{fill:#3f3209;}.cls-310{fill:#57460d;}.cls-311{fill:#705910;}.cls-312{fill:#64500f;}.cls-313{fill:#2e2507;}.cls-314{fill:#45370a;}.cls-315{fill:#1d1704;}.cls-316{fill:#886c14;}.cls-317{fill:#1b1504;}.cls-318{fill:#55440d;}.cls-319{fill:#352a08;}.cls-320{fill:#5c4a0e;}.cls-321{fill:#4d3e0b;}.cls-322{fill:#4b3c0b;}.cls-323{fill:#51410c;}.cls-324{fill:#624f0f;}.cls-325{fill:#3d3109;}.cls-326{fill:#54430c;}.cls-327{fill:#8c7015;}.cls-328{fill:#1b1604;}.cls-329{fill:#1f1805;}.cls-330{fill:#7a6212;}.cls-331{fill:#151103;}.cls-332{fill:#45380a;}.cls-333{fill:#6b5610;}.cls-334{fill:#ac8919;}.cls-335{fill:#090701;}.cls-336{fill:#4f3f0c;}.cls-337{fill:#6d5710;}.cls-338{fill:#040201;}.cls-339{fill:#392e09;}.cls-340{fill:#3e3209;}.cls-341{fill:#48390a;}.cls-342{fill:#120e03;}.cls-343{fill:#181303;}.cls-344{fill:#2e2407;}.cls-345{fill:#100d02;}.cls-346{fill:#eabb22;}.cls-347{fill:#43360a;}.cls-348{fill:#0d0a02;}.cls-349{fill:#52420c;}.cls-350{fill:#352b08;}.cls-351{fill:#64510f;}.cls-352{fill:#3a2e08;}.cls-353{fill:#876c14;}.cls-354{fill:#9d7d17;}.cls-355{fill:#0b0901;}.cls-356{fill:#46370a;}.cls-357{fill:#493a0b;}.cls-358{fill:#8e7215;}.cls-359{fill:#302707;}.cls-360{fill:#65510f;}.cls-361{fill:#6a5510;}.cls-362{fill:#191404;}.cls-363{fill:#53420c;}.cls-364{fill:#bd971c;}.cls-365{fill:#caa21e;}.cls-366{fill:#181304;}.cls-367{fill:#120f02;}.cls-368{fill:#44360a;}.cls-369{fill:#a98719;}.cls-370{fill:#4f3f0b;}.cls-371{fill:#f0c023;}.cls-372{fill:#292106;}.cls-373{fill:#1e1605;}.cls-374{fill:#1f1804;}.cls-375{fill:#d4aa1f;}.cls-376{fill:#e5b822;}.cls-377{fill:#1a1504;}.cls-378{fill:#55440c;}.cls-379{fill:#c7a01d;}.cls-380{fill:#a88619;}.cls-381{fill:#56450d;}.cls-382{fill:#261f05;}.cls-383{fill:#161103;}.cls-384{fill:#cca31e;}.cls-385{fill:#53430c;}.cls-386{fill:#261f06;}.cls-387{fill:#2c2306;}.cls-388{fill:#634f0f;}.cls-389{fill:#cca41e;}.cls-390{fill:#e4b621;}.cls-391{fill:#ebbc22;}.cls-392{fill:#69540f;}.cls-393{fill:#f8c625;}.cls-394{fill:#d8b835;}.cls-395{fill:#d9b834;}.cls-396{fill:#d9b835;}.cls-397{fill:#e2bd30;}.cls-398{fill:#010c15;}.cls-399{fill:#000102;}.cls-400{fill:#010c17;}.cls-401{fill:#011629;}.cls-402{fill:#01162a;}.cls-403{fill:#c7af3d;}.cls-404{fill:#d5b636;}.cls-405{fill:#d6b735;}.cls-406{fill:#000c15;}.cls-407{fill:#01101d;}.cls-408{fill:#000001;}.cls-409{fill:#01101e;}.cls-410{fill:#d7b735;}.cls-411{fill:#e4be2f;}.cls-412{fill:#ecc12c;}.cls-413{fill:#000a13;}.cls-414{fill:#01182c;}.cls-415{fill:#02192e;}.cls-416{fill:#010d18;}.cls-417{fill:#e1b421;}.cls-418{fill:#1c1604;}.cls-419{fill:#2a2206;}.cls-420{fill:#271f06;}.cls-421{fill:#181404;}.cls-422{fill:#1d1805;}.cls-423{fill:#deb221;}.cls-424{fill:#080601;}.cls-425{fill:#c19b1d;}.cls-426{fill:#332808;}</style></defs><path d="M18.92-.61H281.08a1,1,0,0,1,1,1v171A128.64,128.64,0,0,1,153.44,300h-6.15A129.36,129.36,0,0,1,17.93,170.63V.38a1,1,0,0,1,1-1Z"/><path class="cls-1" d="M150,84.57c41,0,82,.07,123-.1,4.34,0,5.29,1.25,5.26,5.4-.18,26.22-.35,52.44,0,78.65C279.15,242.77,222,289.68,165,296.46c-61.37,7.31-120.93-31.16-138.35-89.91A112.88,112.88,0,0,1,21.84,175c-.14-28.7,0-57.41-.17-86.11,0-3.57,1.11-4.35,4.47-4.35Q88.09,84.67,150,84.57Z"/><path class="cls-2" d="M149.89,82.82q-61.95,0-123.89.07c-3.4,0-4.36-.79-4.33-4.28q.24-36,0-72c0-3,.63-3.91,3.79-3.91q124.34.15,248.66,0c3.74,0,4.18,1.31,4.16,4.49-.11,23.72-.14,47.45,0,71.17,0,3.62-.87,4.61-4.54,4.6C232.48,82.77,191.18,82.82,149.89,82.82Z"/><path class="cls-2" d="M208.1,126.7l2.14-.88a23.18,23.18,0,0,1,3.22-2.62.9.9,0,0,0,.51-.15,28.76,28.76,0,0,1,5.74-2.08,24.38,24.38,0,0,0,3.52-.22,6.16,6.16,0,0,1,3.63.14c1.15.55,4-1.23,3,2.26l-.69.65c-.46.49-.25,1,0,1.45,1.26,1.17-.23,2.34,0,3.51-.5,1-1.62,1.56-2,2.66-.74,1.37-2.1,2.14-3.1,3.25L223,136c-.56,1.33-2.41,2.63,0,4l-6.56,6.76c-1.37.45-2.39,1.59-3.82,1.92l-1.22.81c-1.17,1.46-4.38,1.85-2.59,4.89-2,0-2.77,1.63-3.79,2.92-1.34,0-2.13,1.07-3.12,1.73a3.19,3.19,0,0,0-2.41.94c-2.34.44-4,2.26-6.21,3-1.37.3-2.33,1.36-3.57,1.92-1.53,1.25-2.82,2.76-4.35,4a1.33,1.33,0,0,0-.19.69c-.59,1.15-1.48,2.09-2.06,3.25-.81,1.22-1.41,2.57-2.13,3.85l-.25.86a22.34,22.34,0,0,0-1.47,4,15.19,15.19,0,0,0-1.22,5.06,24.54,24.54,0,0,0,0,8.59c.19,2.22.07,4.45.09,6.67a80.08,80.08,0,0,1-1.3,9.12,16.93,16.93,0,0,1-.87,3.19c-.31,1-.75,2-1,3a20.47,20.47,0,0,0-1.3,4.34c-.31,1.65-.77,3.2-2.63,3.76a31.07,31.07,0,0,1-5,.21c-1.4,0-2.8,0-4.21,0-1.67.16-3-.74-4.42-1.4-3.71-1.25-6.11-4.35-9.16-6.53-.54-.41-1.08-.81-1.81-.47-1.07,1.17.37,2.06.32,3.1a12.31,12.31,0,0,1-.87,4.14,3.36,3.36,0,0,1-.87,1.27c-5.24,1.39-10.53.9-15.81.36-2.23-1.7-1.51-4.29-2-6.52l.09-.23-.16-.19a7.2,7.2,0,0,1-1.68-4.95l0-.31a7,7,0,0,1-1.69-5l.09-.21-.15-.17c-1.58-2.19-1.54-4.86-2.16-7.33-.32-2.57-.36-5.17-.83-7.73-.19-1.19,0-2.4-.23-3.58a77.11,77.11,0,0,1-1.06-10.06,1.8,1.8,0,0,1,1.26-1.49c2.33.55,2.41,2.5,2.7,4.31.06.15.13.31.19.47a4.44,4.44,0,0,1-.29-1.7c.3-4.93.55-9.86.42-14.79-.21-2,.37-4,0-6.06l-.1-1.31c-1.13-1.2-.87-3-1.93-4.25a8.37,8.37,0,0,0-1.5-3.75c0-.83,0-1.66-.83-2.14a30.17,30.17,0,0,1-2.23-3.65c-.52-1.09-2-1.65-1.84-3.14a1.93,1.93,0,0,1,1.93-1.39,4.16,4.16,0,0,1,2.67,1.29,2.17,2.17,0,0,0,1.72.68,2.46,2.46,0,0,0,1-.87,5.11,5.11,0,0,1,.74-.73c.72-.57,1.11-1.52,2.09-1.78a2.09,2.09,0,0,1,1.1.18c.87,0,.58,2.63,2.21,1a3.73,3.73,0,0,1,1.39-.91,4.36,4.36,0,0,1,1.13-.17,5.55,5.55,0,0,1,2.13.39,2.62,2.62,0,0,0,1.49-.15,3.14,3.14,0,0,0,1.71-2c.62-1.33,1.56-2.61.6-4.16a3.32,3.32,0,0,1-.46-1.71,7.54,7.54,0,0,0-.24-5.17,8.14,8.14,0,0,1,0-1.78c.14-1.51.6-3,0-4.53-.08-.79-.08-1.58-.09-2.37.35-1.6.33-3.09-1.25-4.1-1-1.29-.3-3.48-2.22-4.31a4.61,4.61,0,0,1-1.64-.75,3.28,3.28,0,0,1-.76-1,6.59,6.59,0,0,1-.26-1.92c-.37-2.11.51-3.8,1.73-5.4.43-1.64,1-3.24,1.6-4.83a1.42,1.42,0,0,1,1.42-.93c1.5,2,1.88,4.64,3.76,6.41,1,2.64,1.06,5.59,2.75,8,.09,3.12,1.34,6.12,1,9.28.06,1.26-.14,2.61,1.09,3.52a4.54,4.54,0,0,1,.83.69,3.81,3.81,0,0,1,.66.89,4,4,0,0,1,.63,1.58,3.59,3.59,0,0,1,0,1.18c-.73,1.68.14,3.1.71,4.57.49,1.06.83,2.19,1.39,3.23a6.12,6.12,0,0,1,.8,2.72c.11.42-.26,1.1.62,1.1.58-.43.73-1.14,1.24-1.57a5.27,5.27,0,0,0,.85-3.21,5.35,5.35,0,0,1,.64-3.63,4.12,4.12,0,0,1,1.35-1.34c1.3-.29,1.8.53,2.14,1.5a.39.39,0,0,1,.1.33c0-.09,0-.09,0-.16a13.52,13.52,0,0,1-.7-5c0-1.33,0-2.64,0-4a12.21,12.21,0,0,1,.07-1.35,14.39,14.39,0,0,0,.78-4.64,24.43,24.43,0,0,1,.77-7.47,11.49,11.49,0,0,1,.46-2.67,9.42,9.42,0,0,1,.66-1.1,1.86,1.86,0,0,1,2.1-.25c1.28-.1.42-1.35,1-1.85a11.65,11.65,0,0,1,1.54-3.94l1-1.59c1.82-1.39,2.86-.45,3.64,1.23.39,1,.67,2.06,1.07,3.06a7.2,7.2,0,0,1,.47,2.29c0-.06.18-.06.19-.11a3.88,3.88,0,0,1,1.75-1.63c.78.05,1.09.58,1.24,1.26a45.19,45.19,0,0,1,1.63,8c-.13,1.56,1.1,2.85.92,4.42.08.56-.17,0,0,.43.27.94.25.17.33,0a27.83,27.83,0,0,0,.87-2.82,7.34,7.34,0,0,0,.72-2.91c2.29-.54,2.91-2.41,3.44-4.34a23.7,23.7,0,0,1,1.87-3.82c1.16-1.07,2-2.52,3.67-3a2.27,2.27,0,0,1,1.41.31s.39,0,.38-.1a3.82,3.82,0,0,1,.69-.7c1.19-.91,1.8-2.83,3.85-2.12a2.23,2.23,0,0,1,.72,1c.15,1.37.19,2.76.46,4.14.83-.37,1.71-.7,2.6-1,1-.5,1.79-.47,1.85.78a18.1,18.1,0,0,1-.32,6.05,23.67,23.67,0,0,1-1.24,6.24c-1.17,1.73.25,3.33.26,5a3.51,3.51,0,0,1-.77,2.2c-.18.68.33.94.75,1.26-.91,1.51-1.34,3.23-2.12,4.8-.7,1.85-2,3.33-2.91,5.1l-1.9,2.55c-2.38,1.56-.28,3.45-.39,5.17-.41,1.12-1.2,2.07-1.35,3.3.15,1.43-.77,2.23-1.77,3-.44.39-.84.83-1.31,1.18a13.78,13.78,0,0,0-4.6,4,13.42,13.42,0,0,0-1.87,3.4c-1,1.33-.94,2.87-.9,4.41a3.93,3.93,0,0,1-.37,1.16,8.12,8.12,0,0,0-.86,6.72,29.63,29.63,0,0,1,.18,11.36c-.06-1.19.61-2.58.47-4.05a7.75,7.75,0,0,1,.21-1.86,25.37,25.37,0,0,0,2.25-6.38c.14-1,.15-2.07.25-3.1a14.93,14.93,0,0,0,.8-4.24,10.22,10.22,0,0,1,.11-1.23,26.13,26.13,0,0,0,1.44-4.68,7.35,7.35,0,0,1,1.2-2.13c1.05-1.17,1.93-2.51,3.4-3.23a4.29,4.29,0,0,0,2-2.55,3.5,3.5,0,0,1,1.3-1c.76-.76,1.57-1.48,2.28-2.3a.67.67,0,0,0,.12-.54c.25-1.12,1.26-1.8,1.67-2.83l8-7.91a9,9,0,0,1,3.45-2.16C205.69,127,207,128.14,208.1,126.7Z"/><path class="cls-2" d="M171.17,247.72l.82.67a15.59,15.59,0,0,0,1.76,7c-.8,2.94.84,5.34,1.75,7.9a15.38,15.38,0,0,0,1.76,7l0,0c-.28,2.53.88,4.7,1.77,6.93v.09c-.08,2.34.88,4.47,1.32,6.7a1.91,1.91,0,0,1-.9,2.17c-1.38.83-2.73,1.14-4-.26-.44-1-1.17-1.9-1.56-2.9-.68-.53-1,.61-1.61.41-1.45-.17-2.81.64-4.25.32-1-1.2-1.41-1.19-2.56.1l-.58.79a11,11,0,0,1-5.29-.3,2.51,2.51,0,0,1-.65-1.05c-.19-1.2,0-2.42-.15-3.56,0,1.92.11,3.77.08,5.63a2.81,2.81,0,0,1-1.71,2.67,5.13,5.13,0,0,1-2.72,0c-2.94-2-.86-4.79-1.21-6.46.06-1.33-.88-.78-.3-.86.25,2,.77,4.26-2.61,3.76-.94-.31-2.28,0-2.45-1.52,0-1,.5-1.86.4-2.84a6.06,6.06,0,0,1-.23,1.7c-.37.77.08,1.82-.82,2.41-1.57.78-3.22.49-4.86.38-1-.3-1.64-.85-1.54-2-.1-1.36,1-2.44.92-3.8a9.87,9.87,0,0,0,.84-4.4,8.18,8.18,0,0,1-.58,3.58c-.24,1.49-.86,2.87-1.2,4.33a2.72,2.72,0,0,1-.47,1.27c-1.14,1.3-2.4,1.23-3.73.33l-.21-.21c-.71,0-1.12-1.21-2-.49-1.23.6-2.5.12-3.73.19a2.73,2.73,0,0,1-1-.21,1.61,1.61,0,0,0-1.39-.07,3.22,3.22,0,0,1-2.12.13,19.16,19.16,0,0,1-4.47-2.08l-.21-.15-.26,0a3.23,3.23,0,0,1-1.13-2.88,14.22,14.22,0,0,0,1.22-3c0,.05,0,0,0,0a10.85,10.85,0,0,1-.58,1.72c-.74,1-1.25,2.34-2.84,2.34-1.42-.31-2-1.08-1.38-2.51l1.11-2.39c.46-1.07.57-2.29,1.38-3.21a38.45,38.45,0,0,1,2.13-3.53l0,0c.46-2,.77-4,2-5.76a.57.57,0,0,0,.63-.46c0-2.11,1.19-4,.95-6.17v0a13.52,13.52,0,0,0,1.44-3.39c.49-2.11.91-4.23,1.35-6.35a26.59,26.59,0,0,1,1.09-6.25c-.14-2.3.23-4.19,3.2-4,8.52,1.33,17.1.4,25.65.69a23.79,23.79,0,0,1,3.48.17,33.11,33.11,0,0,1,4.86,2.89c.81.84,1.34,2,2.6,2.35a5.79,5.79,0,0,1,1,.7C171.29,243.55,171.11,245.68,171.17,247.72Z"/><path class="cls-3" d="M174.64,224.72c-.15.76.33,1.23.8,1.69-1.08,1.07-2.94,1.94-.95,3.78-.23,1.06-1.84,2-.37,3.23-.42,1.91-1.73,2.59-3.53,2.61a33.47,33.47,0,0,0-4.2.81c-3.35.29-6.66-.64-10-.36-.94,0-1.84.26-2.77.29a19,19,0,0,0-4.76-.3c-5.07,0-10.15-.11-15.2.4a12.66,12.66,0,0,0-4.66-1c-1-1.12-2.4-2.23,0-3.35a7,7,0,0,1,1.92.36c.39.08.52.13.39,0-.42-.41-.47.56-.38,0s-1-.17-.42-.08c-1-.64-2.37.2-3.26-.83l0,.1c-1.08-2,0-4,.17-6a2,2,0,0,1,2-.65c11.84.54,23.63-1.79,35.47-.43,2,.2,3.95-.47,5.95-.47C172.09,224.56,173.43,223,174.64,224.72Z"/><path class="cls-4" d="M86.87,148.71c-4-1.41-5.72-5.77-9.62-7.27-2-1.42,1.23-3.78-.92-5.17l-2-2.35c-.85-1.27-2.49-1.87-2.95-3.47-.65-1.18-1.6-2.15-2.17-3.38l0-1c-1.13-1.83,0-4.14-1.28-6,.4-1,1.16-1.06,2-.88,1.79.66,3.44,1.77,5.44,1.79a51.39,51.39,0,0,1,7,1.3c1.91.44,3.52,1.54,5.26,2.35L91.27,128c1.3,1,3,1.6,3.82,3.18a2.69,2.69,0,0,1,0,2.54,2.8,2.8,0,0,1-1.63,1,12.25,12.25,0,0,1-4.27-.27c-1.69.66.58,1.26,0,1.87a3.76,3.76,0,0,1,0,1.11,3,3,0,0,0,.11,2,7.64,7.64,0,0,0,1.13,1.74,16.21,16.21,0,0,1,1.61,1.6c.48,1.57,1.9,2.49,2.72,3.83.47.7,1.16,1.26,1.28,2.17a2.44,2.44,0,0,1-.29,1.32,3.33,3.33,0,0,1-3,1.47C90.3,151.8,88.55,150.31,86.87,148.71Z"/><path class="cls-5" d="M123.64,113.78l.09.32c1.64,3.53,1.39,7.42,2.15,11.12a9.78,9.78,0,0,0,.78,4.37,5.09,5.09,0,0,1,.54,3.21,3.57,3.57,0,0,1-1.53,2.17,2.56,2.56,0,0,1-1.31.22c-3-.61-3-3.5-4.17-5.5a4.54,4.54,0,0,1-.38-1.2,34,34,0,0,0-1-5.38,16.41,16.41,0,0,1-.69-1.62c-.26-1.46,0-3-.76-4.38-.17-.3-.34-.61-.53-.9a15.32,15.32,0,0,0-1.61-1.28,17.76,17.76,0,0,1-1.37-1.62,2.43,2.43,0,0,0-1.11-.79s-.36.13-.33.18a6.45,6.45,0,0,0-.26,2.41,10.61,10.61,0,0,0-.47,2.69,4.06,4.06,0,0,1-.66,2.34,2.85,2.85,0,0,1-3,1c-1.56-.65-2-2.2-2.78-3.48-.45-1.13,0-2.49-.9-3.51l0-2.41c-2-3.44-1.57-7.21-1.46-10.93a1.55,1.55,0,0,1,1-.89c.44-1.81,1,3,1.78-.06.35-1.35-1.4-3.76,1.56-4.15l.93.91c.8,1.19,2.37,1.5,3.14,2.71-.52-.31.56,0,.11.38s0,.94.07.38c.05-1.09-.24-2.26,1.06-2.88.64-.06,1.24,0,1.48.72.11,1.42,1.19,2.23,2,3.2,1.15,1.87,2.15,3.84,3.23,5.76C122.13,108.23,122.43,111.3,123.64,113.78Z"/><path class="cls-6" d="M120.9,178.48l-.83,1.1a1,1,0,0,1-1.07-.32,13.78,13.78,0,0,0-.46-2.37c-.28-1.81-1.36-3.33-1.89-5l0-.15c-.7-1.22-1.78-2.14-2.56-3.28a1.68,1.68,0,0,0-1.67-1.46c-1.24-1.54-3.21-2.08-4.6-3.4l.1,0a15.15,15.15,0,0,1-4.41-1.31c-1.12-.3-1.91-1.37-3.15-1.39-.78-2.85-3.5-4-5.21-6.08-1.55,0-2.87-1-4.41-1.07-.71-.52-2.44.22-2.21-1.24.28-1.77,2-1.64,3.41-1.64a4.91,4.91,0,0,0,3.55-.35c1.73-.43,3.1.41,4.47,1.27.6.51,1.19,1,1.78,1.57a9.2,9.2,0,0,0,4.1,3.08,2.81,2.81,0,0,0,1.85-.14,5.68,5.68,0,0,0,.69-.61c.62-.69.35-1.6.6-2.38.71-1.43.42-3,.44-4.46.61-1.46,1.26-2.84,3.2-1.62a50.35,50.35,0,0,1,3.47,6.63c.59,1.92,1,3.91,2.27,5.55v.3c-.19,2.2.9,4.22,1,6.39l0,1.63c1.59,2.8.84,6.25,2.51,9l0,.09a.85.85,0,0,1,.33.94A1.37,1.37,0,0,1,120.9,178.48Z"/><path class="cls-7" d="M143.72,123.13h-.56c-1.82-1.53-.53-3.85-1.42-5.61-.13-3.21-.67-6.4-.55-9.62,1.14-2,1-4.48,2.15-6.51a1.3,1.3,0,0,1,1.53-.36,1.11,1.11,0,0,0,1.27-.52c.61-1.2.27-2.5.44-3.73s.25-2.34,1.95-1.94l1.53,1.65c1,2.11,1.84,4.32,4.62,4.63.63,1.6,1.62,3,2.31,4.57a16.89,16.89,0,0,1,.08,2c-.12,2-.62,4-.45,6.1a21.65,21.65,0,0,0-.41,6,3.53,3.53,0,0,1,0,.65c-.77.77-.25,1.83-.58,2.7a1.85,1.85,0,0,1-1.86,1.21,2.33,2.33,0,0,1-1-.64,15.54,15.54,0,0,1-1.61-4,4,4,0,0,1,.28-2.38c.86-1.84,0-3.17-1.31-4.39-.42-.64-.51-1.48-1.18-1.93a1,1,0,0,0-.66.34,14.45,14.45,0,0,1-2,2.59c-.74,1.06-.26,2.14,0,3.22a3.13,3.13,0,0,1,.09,1.84C145.4,120.35,145.59,122.41,143.72,123.13Z"/><path class="cls-8" d="M126.35,132.64l-.91-2.41A24.27,24.27,0,0,0,125,124c-1.3-5.47.06-10.79.91-16.13.47-2.15.8-4.34,2.2-6.16v-.21a.71.71,0,0,1,1-.53c1.77,1.1,1.66,2.87,1.61,4.61,0,1-.05,2,.91,2.63l.09.14a3.89,3.89,0,0,1,1.07,3.66c-.11,1.29-1.31,2-1.68,3.14a10,10,0,0,0-.05,2.68c.08,1.3-.13,2.6.06,3.89a18,18,0,0,1,0,2.32,13.29,13.29,0,0,0-.86,2.75c-.5,1.47.47,2.59.93,3.83a4.68,4.68,0,0,1,.52,2.46c-1,2.45.14,5.15-.89,7.6l-1.1,1.11a2.21,2.21,0,0,1-2.46-1.73c-.29-1.26-.84-2.44-1.18-3.69C126.32,135.12,125.81,133.84,126.35,132.64Z"/><path class="cls-9" d="M94.67,133.41l-.9-1.52a5.64,5.64,0,0,1-.64-2,1.83,1.83,0,0,1,.64-2.27c1-.58,1.56.24,2.18.77a25,25,0,0,1,2.34,2.48l1.57.66c1.86,2,4.24,3.45,5.44,6,.5,1,.6,2.21,1.74,2.81,1,1.41,1.34,3.11,2.18,4.59,1.15,1.2,1.12,2.65.85,4.14a2.58,2.58,0,0,1-.15,1.23c-1.92,1.41-3-.58-4.39-1.13a7.21,7.21,0,0,1-1.06-.57c-1.62-.89-2.35-2.63-3.69-3.79-.71-1.42-2.32-2.09-3-3.56-.55-1.87-2.62-2.48-3.46-4.11A3.45,3.45,0,0,1,94.67,133.41Z"/><path class="cls-10" d="M108.33,120.53l1.73-.94c1-.42,1.36.32,1.8.94a7.38,7.38,0,0,1,.52,2.71,3.08,3.08,0,0,0,1,2.86,4.62,4.62,0,0,1,.74,2.19c-.51,1.62.14,3.12.53,4.66a2.63,2.63,0,0,1-.43,1.21,3,3,0,0,1-4.24.21c-1.59-2.51-2.1-5.54-3.84-8,.35-1-.35-1.59-.93-2.21-1-2-2.77-3.76-2.07-6.33a2,2,0,0,1,1.87-.59C106.54,117.9,106.92,119.74,108.33,120.53Z"/><path class="cls-11" d="M110.43,133.63c1.17.64,2.36.22,3.54,0a2.43,2.43,0,0,1,1.11.44c2.08,1.67,2.12,4.26,2.93,6.5a1.5,1.5,0,0,1-.59,1l-1.61.69c-2.32.5-2.85-1.91-4.37-2.7l-1-1.76a15.51,15.51,0,0,1-2.43-3.31,3.22,3.22,0,0,0-.27-.83C108.54,131.38,109.47,132.24,110.43,133.63Z"/><path class="cls-12" d="M126.41,107.42a109.23,109.23,0,0,0-.8,17.15c.4.93,0,1.21-.9,1.16-.56-3.86-2.38-7.6-1-11.63,1.57-2.32.88-5.19,1.82-7.66C126.34,106.33,126.84,106.47,126.41,107.42Z"/><path class="cls-13" d="M154.18,101.25c-1.46.42-1.14,2.23-2.58,3.16l-1.54-7.92c1.1,2.27,4.7,1.74,5.22,4.66C155,101.73,154.59,101.76,154.18,101.25Z"/><path class="cls-14" d="M142.24,107.43l.06,10.19c.19.86.76,1.91-.89,1.92l-1.11-10.29c-.75-1.34,0-2.24.9-3.1a.73.73,0,0,1,.13-.59C143,105.53,142.59,106.49,142.24,107.43Z"/><path class="cls-15" d="M76.33,136.27c4.51,1,2.59,3.09.92,5.17-1.67-.35-2.6-1.72-3.93-2.57C74,137.34,76.61,138.51,76.33,136.27Z"/><path class="cls-16" d="M171.17,247.72l-2.65-5.12c0-.21,0-.42,0-.63a2.26,2.26,0,0,1,1.38-2,2.77,2.77,0,0,1,3.1.59,1,1,0,0,1,0,1.23Z"/><path class="cls-17" d="M123.64,113.78l-5-6.52a1.15,1.15,0,0,1,.72-.86C124.24,106.82,122.79,111,123.64,113.78Z"/><path class="cls-18" d="M98.29,130.86c-1.7-.24-2.32-2-4-2.8l-.51,3.83a7,7,0,0,1-2.5-3.86C94.05,124.88,95.65,125.53,98.29,130.86Z"/><path class="cls-19" d="M103.4,100.12c-.56,3.94.5,7.75.9,11.62-3.21-2.49-2.48-5.78-1.84-9a3.46,3.46,0,0,1-.2-2.54C102.44,99.48,103,98.71,103.4,100.12Z"/><path class="cls-20" d="M148.53,94.84c-2.61,1.86.06,5.18-2,7.19a1.08,1.08,0,0,1-1.66,0l-.69-.71c-.89.28-1.24,0-1.11-1,3.84-.3,2.45-3.33,2.83-5.42.37-1.1,1-1.71,2.13-.94Z"/><path class="cls-21" d="M107.13,95.71c-1.88,2.86-.27,6.16-1.43,9.7l-1.58-5c.14-.59.73-.8,1.06-1.23-.17-1.09-.29-2.19-.54-3.26-.17-.74-.34-1.41.58-1.66C106.44,93.91,107.07,94.48,107.13,95.71Z"/><path class="cls-22" d="M92.94,151.27a15.93,15.93,0,0,0-2.52.31c-.4.11-1.3.33-.83,1,.24.35,1,.35,1.55.51.13.8-.06,1.25-1,.89-1.24-.48-4.71,1.05-2.37-2.67.7-1.12-1-1.61-.91-2.65l6,1.7c.25.17.35.36.29.55S93,151.27,92.94,151.27Z"/><path class="cls-23" d="M177.45,202.24q0-3.57,0-7.14c.23-.36.21-1,.87-.93a18.85,18.85,0,0,1,0,10C177.39,203.82,177.94,202.78,177.45,202.24Z"/><path class="cls-24" d="M173.94,230.34c-1.35-3.43-4.21.37-6.33-1.67l7.83-2.26c-.93,1.52.56,3.4-.73,4.87A1.31,1.31,0,0,1,173.94,230.34Z"/><path class="cls-25" d="M137.75,101.14c-.1.54,0,1.37-.34,1.57-1,.63-1.2-.36-1.16-1,.17-2.34-.68-4.44-1.38-6.59a.56.56,0,0,1,.93-.18c.86,1.33,1.71,2.67,2.57,4A1.78,1.78,0,0,1,137.75,101.14Z"/><path class="cls-26" d="M150,284.05c4.36.09,1.43-3.94,3.12-5.45,1.34,2.88-.49,6.21,1.33,9,.06.79-.14,1.27-1.06.89-1.11-1.21-1.33-3.27-3.42-3.51C149.39,284.62,149.4,284.32,150,284.05Z"/><path class="cls-27" d="M194.93,100l-4.06,4.78.74-8c1.41-.2.83,1.17,1.33,1.69.35.74,1,.79,1.69.71.31.09.46.23.45.44S195,100,194.93,100Z"/><path class="cls-28" d="M208.8,154.41a5.05,5.05,0,0,0-4.75-1.46,21.54,21.54,0,0,1,7.34-3.43C211,151.39,208.83,152.33,208.8,154.41Z"/><path class="cls-29" d="M137.75,101.14c.2-.72.41-1.45.62-2.16,2.43,1.8,1.06,5.11,2.83,7.17l-.9,3.1C138.81,106.75,139.59,103.53,137.75,101.14Z"/><path class="cls-30" d="M121.87,176.68c-3-2.39-1.86-6-2.51-9C122.47,170,121.12,173.65,121.87,176.68Z"/><path class="cls-31" d="M180.1,104.7,178.85,111c-1-.51-1-1.94-2.31-1.68-.6-.09-.6-.68-.87-1-.3-2.66,3.67-1,3.54-3.51A.56.56,0,0,1,180.1,104.7Z"/><path d="M174.46,282.2l1.18,3.44c-.26.36-.51.35-.76,0-2.34-3.29-5.4-.46-8.07-1-.72-1.1-.65-1.78.89-1.69l5.1,0C173.3,282.64,173.56,281.76,174.46,282.2Z"/><path class="cls-32" d="M121.15,193.29c1,2.48.75,5.11.94,7.7.13.86.81,2-.89,2q-.45-4.4-.91-8.79C120.57,193.91,120.58,193.35,121.15,193.29Z"/><path class="cls-33" d="M130,106.27a12.26,12.26,0,0,0-1.18-5,.71.71,0,0,1,1.12-.12,1.88,1.88,0,0,0,1.76-1.69c.82-.09,1.35.06.89,1.06-.92,1.84-.83,3.88-1.13,5.84C131,106.94,130.48,107,130,106.27Z"/><path class="cls-34" d="M187.78,138.83c-1.94-2.18-2.64-4.13,1-5.28-1,2.06,2.17,4.22-.16,6.25C187.85,139.88,187.3,139.8,187.78,138.83Z"/><path class="cls-35" d="M123.73,160.44c1.13,1.82.76,3.82.67,5.78-.62,1.39,0,2.91-.47,4.31a.62.62,0,0,1-1-.12C123.08,167.08,122.3,163.67,123.73,160.44Z"/><path class="cls-36" d="M68.13,120.49l3.68,4c-.54,1.27-3.22-1.33-2.63,1.6-3.5-.49-1.07-3.16-1.72-4.7C66.9,120.46,67.48,120.45,68.13,120.49Z"/><path class="cls-37" d="M109.8,149.42l-1.08-4.31c-.37-.92.07-1.05.83-.88,1.6.35,3.16.74,3.55,2.69.5.81,0,.82-.6.76-2.55-1.49-1.46,1.06-2,1.8C110.24,149.75,110,149.74,109.8,149.42Z"/><path class="cls-38" d="M119.38,179.16l.69.42q.42,5.16.85,10.32-.39,1-.84,0c-1-2.48-.83-5.09-.86-7.68A2.8,2.8,0,0,1,119.38,179.16Z"/><path class="cls-39" d="M105.1,117.9h-1.52a1.19,1.19,0,0,1-1.74-.06c-1.39-2.73,2.33-2,2.5-3.69a2.93,2.93,0,0,1,1.87,2.6C106.61,117.89,106,118.07,105.1,117.9Z"/><path class="cls-40" d="M172.77,110.11l-1.49-8.1c.27-.56.55-.56.83,0a11.54,11.54,0,0,1,1.51,6.26C173.14,108.79,173.64,109.77,172.77,110.11Z"/><path class="cls-41" d="M112.5,147.68l.6-.76a16.37,16.37,0,0,1,3.53,7c-.31.52-.65.55-1,.07A22,22,0,0,1,112.5,147.68Z"/><path class="cls-42" d="M116.49,276.81c.06,1.24.29,2.29,1.93,1.9,1.07.09,2.24.08,1.73,1.73-1,0-2,.06-3,0s-2.19-.21-2.49-1.24C114.34,277.93,115.28,277.16,116.49,276.81Z"/><path class="cls-43" d="M110.43,133.63c-.91-.15-1.88-1.95-2.7.1l-1.62-7.33C107.89,128.61,109.79,130.74,110.43,133.63Z"/><path class="cls-44" d="M194.93,100a1.08,1.08,0,0,0-.3-.8c1.33-1.26,2.74-2.52,2.88.71.09,2.18-.09,4.37-.15,6.56a.81.81,0,0,1-1.38,0C195.86,104.22,198.27,101.62,194.93,100Z"/><path class="cls-45" d="M82.42,123l-7.34-1.43c.36-.94,1.39-.41,2-.87,2.18.14,4.36.29,6.3,1.46C83.34,122.72,82.78,122.72,82.42,123Z"/><path class="cls-46" d="M167.7,283c-.29.57-.59,1.13-.89,1.69l-1.34-.78c1.22-2.49-.47-5,.15-8.06C167.44,278.22,166.73,280.86,167.7,283Z"/><path class="cls-47" d="M177.45,202.24c.3.63.6,1.27.91,1.9a23,23,0,0,1-1.17,7.71.61.61,0,0,1-.95,0Z"/><path class="cls-48" d="M122.93,170.41c.19.11.39.21.59.31,1.31,3.3.36,6.7.51,10.05-1.87.08-2.11-.3-2.17-3.41a.59.59,0,0,1,0-.59C123.41,174.84,122.41,172.5,122.93,170.41Z"/><path class="cls-49" d="M208.1,126.7c-.1,2-1.78,2.82-3,4.16-1.13-1.1,1.46-2.69-.49-3.51-.58-.22-.62-.51-.13-.89C205.76,124.8,206.86,126.88,208.1,126.7Z"/><path class="cls-50" d="M159.8,104.62a1.52,1.52,0,0,0-1.75-.58,1.08,1.08,0,0,1,0-1.76c3-.08,2-3.82,4.2-4.65-.31,1.46-.62,2.91-.92,4.37C160.4,102.63,162.1,104.78,159.8,104.62Z"/><path class="cls-51" d="M196,106.41h1.38c0,2.77-.92,5.3-1.86,7.84-.8.06-1.18-.18-.75-1Z"/><path class="cls-52" d="M68.13,120.49l-.67.86c-.85-.9-2.32-2.17-1.3-3.09,1.38-1.25,3.17.09,4.71.73.07.77-.12,1.18-1,.69C69.24,119.79,68.43,119.58,68.13,120.49Z"/><path class="cls-53" d="M121.2,203l.89-2q.8,3.7,1.6,7.41C121.07,207.44,121.74,205,121.2,203Z"/><path class="cls-54" d="M134.2,282.1a6,6,0,0,1,1.28-5c.37,2.66.64,4.64.92,6.63l-1.2.11C134.37,283.58,134.72,282.59,134.2,282.1Z"/><path class="cls-55" d="M170.31,234.87c1.27-.44,3,0,3.5-1.93a.91.91,0,0,1,.86-.88l.73,4.45c-.24.56-.46,1.13-1.16,1.29-1.31,0-2.24-.89-3.37-1.31A1.41,1.41,0,0,1,170.31,234.87Z"/><path class="cls-56" d="M173.75,255.41c-2.53-1.85-2.9-4.25-1.76-7C173.31,250.55,173.51,253,173.75,255.41Z"/><path class="cls-57" d="M177.26,270.3c-2.48-1.85-3-4.19-1.76-7C176.76,265.47,177,267.88,177.26,270.3Z"/><path class="cls-58" d="M193.12,162.68c1.84-1.55,3.65-3.19,6.36-2.68-1.94,1.57-3.86,3.17-6.54,3.25Z"/><path class="cls-59" d="M143.08,100.38l1.11,1-1.95,6.1-.91-1.87C141.82,103.8,141.58,101.79,143.08,100.38Z"/><path class="cls-38" d="M119.31,106.4l-.72.86c-1-2-2.56-3.74-2.65-6.13C118,102.3,118.64,104.36,119.31,106.4Z"/><path class="cls-60" d="M179.79,284.12c-.72-2.2-2.45-4.28-.81-6.77a16,16,0,0,1,1.64,5.77C180.4,283.5,180.42,284.08,179.79,284.12Z"/><path class="cls-61" d="M174.61,237.44l.79-.93c.23,2.24.17,4.35-2.45,5.27a4.16,4.16,0,0,0,0-.79c-.46-1.07-2.31-1.09-2.06-2.7a2.12,2.12,0,0,1,.82-.86C172.67,236.87,173.64,237.79,174.61,237.44Z"/><path class="cls-62" d="M179,277.26c-2.45-1.83-3.08-4.14-1.77-6.93A19,19,0,0,1,179,277.26Z"/><path class="cls-63" d="M101.84,117.84l1.74.06c-.6,2.38,1.78,4,1.6,6.28C102.6,122.85,102.51,120.19,101.84,117.84Z"/><path class="cls-64" d="M105.18,99.16l-1.06,1.23a.61.61,0,0,1-.72-.27c-1.65.37-.69,1.69-.93,2.57-1.57-1.55-.35-3.38-.91-5C103.43,97.28,103.9,99.05,105.18,99.16Z"/><path class="cls-65" d="M119.34,166c-1.23-2-2.18-4-1-6.39C119.51,161.65,120.51,163.68,119.34,166Z"/><path class="cls-66" d="M111.44,139.63c2,0,2.69,2.16,4.37,2.7l1.67,2.76a.73.73,0,0,1-1.23.15C114.7,143.33,112.22,142.21,111.44,139.63Z"/><path class="cls-67" d="M128.12,226.06l-.8.79c-.29.41-.57.42-.83,0,1.81-2.3-.73-5.05.75-7.39,1.68,1.48.14,4.06,1.9,5.52C129,225.5,128.39,225.62,128.12,226.06Z"/><path class="cls-68" d="M159.75,283.79c1.72.26,3.56-.18,5.14.89-1.46,1.74-3.42.62-5.13.89a1.25,1.25,0,0,1-.5-.88A1.28,1.28,0,0,1,159.75,283.79Z"/><path d="M192.94,98.44l-1.33-1.69a1.61,1.61,0,0,1-.32-.76c-.36-.55-1.33-.84-.78-1.79,1.19-.84,2.39-1.62,2.51.8C193.08,96.14,193,97.29,192.94,98.44Z"/><path class="cls-69" d="M189.66,143l-1,1.25a3.51,3.51,0,0,1-3.91.92,5,5,0,0,1-1.12-.87c.89-.92,1.77-1.85,2.65-2.77a1,1,0,0,1,1.57,0l1.21.93A.54.54,0,0,1,189.66,143Z"/><path class="cls-70" d="M105.3,137.52c-1.92-1.91-4.49-3.22-5.44-6C102.39,132.87,104.93,134.21,105.3,137.52Z"/><path class="cls-71" d="M69.91,119.68l1-.69,6.18,1.67-2,.87A8.32,8.32,0,0,1,69.91,119.68Z"/><path class="cls-72" d="M187.84,98.49l-1.09,3.44c-1.62,0-1-1-.77-1.82-.09-.64.05-1.39-.77-1.71-.63-.28-.68-.65-.15-1.09a1.72,1.72,0,0,1,1.91-.44C187.61,97.23,188.42,97.49,187.84,98.49Z"/><path class="cls-73" d="M170.31,101.25l-1,3.36a.88.88,0,0,1-1.51,0l-.41-4.27a.82.82,0,0,1,1.13-.06l1.15.09C170.28,100.33,170.63,100.53,170.31,101.25Z"/><path class="cls-74" d="M127.92,246.1a17.42,17.42,0,0,1-1.51,6.34c-.79-.39-.36-1.29-.77-1.84l1.38-5.46C127.7,245.11,127.68,245.73,127.92,246.1Z"/><path class="cls-75" d="M124.63,255.31c1.81,2.38-.22,4.17-.95,6.17C122.12,259.13,123.87,257.3,124.63,255.31Z"/><path class="cls-76" d="M178.34,194.17l-.87.93a27.86,27.86,0,0,1,0-9.51c1.44,0,1.14.86.77,1.71Z"/><path class="cls-77" d="M120.15,280.44l-1.73-1.73,1.81-2.67c1.69,0,1.24,1,.93,2,0,1,0,2.08,0,3.13Z"/><path class="cls-76" d="M129.21,235.49c1.31.36,3-.73,3.94,1a1.39,1.39,0,0,1-1.73.12c-3-.49-2.14,1.94-2.62,3.37a.5.5,0,0,1-.81,0c0-1.43-.09-2.87-.13-4.31A.84.84,0,0,1,129.21,235.49Z"/><path class="cls-78" d="M132.6,100.47l-.9-1.06a10.78,10.78,0,0,1,1.53-4.47c.61,0,.73.5.93.92Z"/><path class="cls-79" d="M126.41,107.42c-.28-.33-.57-.65-.86-1,.36-1.85.15-4,2.55-4.75Q127.26,104.56,126.41,107.42Z"/><path class="cls-80" d="M158,102.28c0,.59,0,1.17,0,1.76a.48.48,0,0,1-.08.62c-.54.53-1,1.14-1.91,1.07q-.94-2.24-1.88-4.48l1.1-.1C156,101.91,156.25,104,158,102.28Z"/><path class="cls-81" d="M219.66,121.52c-1.83.74-3.57,1.84-5.68,1.53,1-1.86,2.83-2.17,4.68-2.42C219,120.89,219.64,120.88,219.66,121.52Z"/><path class="cls-82" d="M229.85,123.15c.16-2.85-2.28-1.19-3.34-1.93a.54.54,0,0,1-.19-.59c.07-.19.14-.28.21-.28a21.7,21.7,0,0,1,3,0c.89.13,2.38-.44,2.45,1C232.05,122.35,231,123,229.85,123.15Z"/><path class="cls-83" d="M193.3,125.84c.29-1.84.15-3.89,2.39-4.74-.21,1.69-.1,3.5-1.76,4.63C193.81,126.29,193.59,126.3,193.3,125.84Z"/><path class="cls-61" d="M193.3,125.84a1.14,1.14,0,0,0,.63-.11,7.27,7.27,0,0,1-3.27,5.27C190.6,128.79,192.06,127.37,193.3,125.84Z"/><path class="cls-84" d="M223,140c-3.43-1.38-2.59-2.7,0-4C222.48,137.36,225.51,138.73,223,140Z"/><path class="cls-85" d="M115.6,154l1-.07a12.37,12.37,0,0,1,1.75,5.45C115.85,158.37,116.23,155.9,115.6,154Z"/><path class="cls-86" d="M107.84,163.55c1.89.65,4.23.7,4.6,3.4C110.6,166.23,108.57,165.77,107.84,163.55Z"/><path class="cls-87" d="M116.65,171.84c1.86,1.12,2.15,3,2.49,4.92-.25.36-.24,1-.89,1C117.35,175.86,116.43,174,116.65,171.84Z"/><path class="cls-88" d="M178.27,187.3c-.26-.57-.52-1.14-.77-1.71a8.85,8.85,0,0,1,1.4-4.69c.64,0,.62.67.87,1Z"/><path class="cls-89" d="M174.64,224.72l-3.51.23c-.65-.3-.66-.63,0-1a4.58,4.58,0,0,0,2.09-3.24c1.54.15.94,1.11.73,1.93C174.14,223.34,174.39,224,174.64,224.72Z"/><path class="cls-90" d="M126.49,226.81a7.56,7.56,0,0,0,.83,0c2.86,1.77-.9,3.49,0,5.25C125.09,230.63,126.65,228.59,126.49,226.81Z"/><path class="cls-91" d="M174.67,232.06l-.86.88-3.38-.16c.72-1.76,2.82-1.05,3.51-2.44l.77.94A2.28,2.28,0,0,1,174.67,232.06Z"/><path class="cls-92" d="M194.75,113.24l.75,1c.09.32.19.63.28.95.52.94.73,1.75-.81,1.74C190.18,116,194.74,114.48,194.75,113.24Z"/><path class="cls-93" d="M129.21,235.49l-1.35.16c-1.26-1-1-2.33-.63-3.65l4.29.2c0,1.65-.94,1.15-1.83.88C126.58,233.29,128.66,234.54,129.21,235.49Z"/><path class="cls-94" d="M113.92,97.93l-1.21-.11c-.69.07-1,.78-1.57,1-.67-.23-1.14-.55-.68-1.35.07-.68,0-1.69.78-1.72C112.62,95.67,113.47,96.65,113.92,97.93Z"/><path class="cls-95" d="M185.35,168.9c.67-2.2,2.51-3.32,4.2-4.59a.75.75,0,0,1,.1,1.17C188.38,166.83,187.56,168.74,185.35,168.9Z"/><path class="cls-96" d="M187.84,98.49,187,96.87l3.54-2.67.78,1.79C189.38,95.76,189,97.66,187.84,98.49Z"/><path class="cls-97" d="M142.14,283.94c1.71-.05,3.46.63,5.14-.23a.62.62,0,0,1,.16,1.06c-.76,1-1.89.37-2.81.67C144,284.69,141.9,286.23,142.14,283.94Z"/><path class="cls-97" d="M136.61,284c1.32-.07,2.74.14,3.71-1.11a1.85,1.85,0,0,1,.17,2.28C138.89,285.8,137.41,286,136.61,284Z"/><path class="cls-98" d="M134.2,282.1c1.08.18.81,1.12,1,1.79-1.81,1.13-3.58.15-5.36-.13-.19-.19-.25-.36-.18-.54s.14-.26.21-.26C131.31,282.66,133,283.77,134.2,282.1Z"/><path class="cls-99" d="M122.07,154.72a5.56,5.56,0,0,1,1.56,4.41c-2.37-.62-1.78-2.86-2.43-4.42C121.5,154.12,121.79,154.12,122.07,154.72Z"/><path class="cls-100" d="M123.05,261.94c-.17,2.08-.38,4.16-2,5.76C120.05,265.2,121.34,263.5,123.05,261.94Z"/><path class="cls-101" d="M125.49,214.05a9.45,9.45,0,0,1,1.68,4.95C124.77,218,124.59,216.2,125.49,214.05Z"/><path class="cls-102" d="M123.75,208.78a10.47,10.47,0,0,1,1.69,5C123,212.72,122.65,211,123.75,208.78Z"/><path class="cls-103" d="M128,240l.81,0q-.44,3.06-.88,6.12l-.9-1C127.3,243.4,127,241.56,128,240Z"/><path class="cls-104" d="M82.42,123l.93-.84c1.73.33,3.36.84,4.26,2.55C85.65,124.8,84.21,123.37,82.42,123Z"/><path class="cls-70" d="M185.06,97.31l.15,1.09-3.28,2.9a.6.6,0,0,1-1-.16A6.83,6.83,0,0,1,185.06,97.31Z"/><path class="cls-105" d="M109.55,144.23l-.83.88a8.8,8.8,0,0,1-1.68-4.78C108.75,141.06,109.17,142.64,109.55,144.23Z"/><path class="cls-73" d="M226.53,120.35c0,.29,0,.58,0,.87H223c-.65-.26-.66-.55,0-.86A3.68,3.68,0,0,1,226.53,120.35Z"/><path class="cls-106" d="M166.56,98c-.76-1.2-1.41-2.59-3.27-1.91,2-2.8,3.18-1.76,4.11.8C167.19,97.26,167.27,97.9,166.56,98Z"/><path class="cls-107" d="M153.43,288.45l1.06-.89,2.57.06c.48.11,1,.21,1,.82A3.73,3.73,0,0,1,153.43,288.45Z"/><path class="cls-108" d="M148,94l-2.13.94c-.06-1-.94-2.3.5-2.71C147.31,92,148.23,92.75,148,94Z"/><path class="cls-109" d="M195,117l.81-1.74c1,1.78,1.46,3.45-.84,4.63Z"/><path class="cls-110" d="M173.9,222.65c-.25-.65-.49-1.29-.73-1.93l1.35-3.79c.61.09.61.7.91,1.06Z"/><path class="cls-111" d="M116.25,145.24l1.23-.15a4.47,4.47,0,0,1,1.89,3.89A7.4,7.4,0,0,1,116.25,145.24Z"/><path class="cls-112" d="M173.94,111.58l1.44-.87c.71.48.57,1.22.57,1.91a8.22,8.22,0,0,1-.86,2.73c-.81,1.36-1.4,1-1.73-.35C173.53,113.86,172.85,112.57,173.94,111.58Z"/><path class="cls-91" d="M158.1,288.44l-1-.82c1.41-.52.93-1.75,1-2.76a1,1,0,0,1,1.6-.05,2.76,2.76,0,0,0,.07.76C159.55,286.73,159.57,288,158.1,288.44Z"/><path class="cls-113" d="M174.88,285.63a1.94,1.94,0,0,1,.76,0c1.1.86,2.27.5,3.45.21a1.07,1.07,0,0,1,.83.71C178,287.73,176.05,288.7,174.88,285.63Z"/><path class="cls-114" d="M90.15,154l1-.89a5.89,5.89,0,0,1,4,1.61C93.28,156,91.79,154.52,90.15,154Z"/><path class="cls-115" d="M173.94,111.58c-.07,1.21-.13,2.42-.2,3.63-.25.44-.48.43-.71,0-.09-1.69-.18-3.38-.26-5.08.28-.61.57-1.23.85-1.85C173.73,109.37,173.83,110.48,173.94,111.58Z"/><path class="cls-116" d="M181,101.14l1,.16-1.83,3.4h-.89A4.36,4.36,0,0,1,181,101.14Z"/><path class="cls-117" d="M140.49,285.16c-.05-.76-.11-1.52-.17-2.28a.69.69,0,0,1,.2-.65c.2-.48.41-.49.64,0s.65,1.15,1,1.72l2.49,1.5C143.22,285.88,141.86,285.4,140.49,285.16Z"/><path class="cls-118" d="M103.44,161.94a6.9,6.9,0,0,1,4.5,1.59c-1.78.78-3.32.67-4.42-1.15Z"/><path class="cls-119" d="M204.43,126.46c0,.3.09.59.13.89-1.19.61-1.84,2.22-3.53,1.89C201.46,127.45,202.86,126.85,204.43,126.46Z"/><path class="cls-120" d="M189.65,165.48l-.1-1.17c.9-1.18,2.24-1.39,3.57-1.63a.6.6,0,0,0-.17.57A7.61,7.61,0,0,1,189.65,165.48Z"/><path d="M181,176.69c-.27-1.8,1-2.95,1.8-4.32.63-.09,1.12,0,.64.79A5.65,5.65,0,0,1,181,176.69Z"/><path class="cls-121" d="M179.77,182l-.87-1c.07-1.41.14-2.82,1.82-3.35C181.18,179.19,180.09,180.49,179.77,182Z"/><path class="cls-122" d="M125.64,250.6c.25.61.51,1.23.77,1.84-.06,1.29,0,2.69-1.78,2.91C125,253.77,125.3,252.18,125.64,250.6Z"/><path class="cls-123" d="M71.74,130.17c1,1.16,2.29,2.12,2.61,3.75-2.35-.17-2.84-2.31-4-3.78A1,1,0,0,1,71.74,130.17Z"/><path class="cls-124" d="M224,134.67c.32-1.6,1.62-2.49,2.63-3.6.63-.19,1-.11.62.66C226.65,133.22,226,134.65,224,134.67Z"/><path class="cls-125" d="M121.68,281.25c1.86-.19,3.28.95,4.85,1.63,0,.67-.59.62-1,.82C124.05,283.22,122.44,282.9,121.68,281.25Z"/><path class="cls-126" d="M125.55,283.7c.32-.28.65-.55,1-.82l1.56-.71a.91.91,0,0,1,1.54.05,1.66,1.66,0,0,1,.24.74c0,.27,0,.53,0,.8Z"/><path class="cls-61" d="M108,134.56c1.56.55,2,2,2.43,3.31C108.64,137.48,108,136.22,108,134.56Z"/><path class="cls-127" d="M170.31,101.25l-.68-.89c.09-.77.57-1.7,1.21-1.37,1.06.54,1.25,1.82,1.27,3l-.42,0-.41,0Z"/><path class="cls-111" d="M121.11,267.68a6.79,6.79,0,0,1-1.76,4,1.34,1.34,0,0,1-.78-.92C118.94,269.36,119.43,268,121.11,267.68Z"/><path class="cls-128" d="M71.74,130.17l-1.36,0a3.47,3.47,0,0,1-1.15-3.07A4.52,4.52,0,0,1,71.74,130.17Z"/><path class="cls-129" d="M212.61,148.71a3.8,3.8,0,0,1,3.82-1.92C215.49,148.1,214.62,149.52,212.61,148.71Z"/><path class="cls-130" d="M166.56,98l.84-1.11,1.08,3.43-1.13.06C166.61,99.7,166.66,98.8,166.56,98Z"/><path class="cls-131" d="M110.46,97.46l.66,1.13c.56,1,0,1.07-.81.94l-2.25-2.91Z"/><path class="cls-132" d="M213.46,123.2a3.9,3.9,0,0,1-3.22,2.62C210.58,124,211.56,123.05,213.46,123.2Z"/><path class="cls-133" d="M176.24,211.82l.95,0-.93,3.49c-.78.06-1.31-.07-.82-1A3,3,0,0,1,176.24,211.82Z"/><path class="cls-134" d="M134.16,95.86l-.93-.92c.18-.65.11-1.57,1-1.63s1.34.82,1.56,1.66l-.93.18Z"/><path class="cls-135" d="M114.11,168.41c2,.22,2.5,1.56,2.56,3.27A3.8,3.8,0,0,1,114.11,168.41Z"/><path class="cls-136" d="M183.41,173.16c-.21-.27-.43-.53-.64-.79a3.69,3.69,0,0,1,2.39-2.78C185.32,171.15,184.34,172.14,183.41,173.16Z"/><path class="cls-137" d="M118.25,177.72l.89-1,.24,2.4c0,1-.11,2.06-.16,3.09C118.35,180.86,118.46,179.25,118.25,177.72Z"/><path d="M130,101.1l-1.12.12a1.94,1.94,0,0,0-.73.26c-1-1.07-.36-2.06.59-2.23S129.84,100.25,130,101.1Z"/><path class="cls-138" d="M201.89,159.06c.31-1.9,1.25-2.65,3.12-1.73A3.92,3.92,0,0,1,201.89,159.06Z"/><path class="cls-139" d="M103.44,161.94a3.11,3.11,0,0,0,.08.44,2.91,2.91,0,0,1-3.14-1.55C101.9,159.8,102.68,160.85,103.44,161.94Z"/><path class="cls-140" d="M147.44,284.77c-.05-.35-.1-.71-.16-1.06.09-.79.17-1.58.26-2.38.8-.12,1.3,0,.86,1a1.76,1.76,0,0,0,1.64,1.74l0,.89Z"/><path class="cls-141" d="M227.27,131.73l-.62-.66a2.71,2.71,0,0,1,2.5-2.31A3.89,3.89,0,0,1,227.27,131.73Z"/><path class="cls-79" d="M187.81,141.52l-1.57,0,1.54-2.72.82,1Z"/><path class="cls-61" d="M193,137.15a2.49,2.49,0,0,1-1.67,2.83C190.81,138.39,191.9,137.77,193,137.15Z"/><path class="cls-142" d="M120.08,189.93l.84,0,.23,3.39-.86,1Z"/><path class="cls-143" d="M118.57,270.78l.78.92c-.7.83-.61,2.17-1.75,2.72C117,273,118.15,272,118.57,270.78Z"/><path class="cls-144" d="M175.44,214.31c.27.35.55.69.82,1-.28.88-.55,1.77-.83,2.65l-.91-1.06A3.6,3.6,0,0,1,175.44,214.31Z"/><path class="cls-129" d="M189.66,143l-.64-.57a2,2,0,0,1,2.21-1.93A2.78,2.78,0,0,1,189.66,143Z"/><path class="cls-145" d="M223,120.36l0,.86-3.32.3-1-.89Z"/><path d="M122.07,154.72l-.43,0-.44,0c-.33-1.2-.67-2.39-1-3.58C121.94,151.74,121.91,153.28,122.07,154.72Z"/><path class="cls-146" d="M179.92,286.56l-.83-.71c.23-.58.46-1.16.7-1.73.27-.34.55-.67.83-1C180.76,284.34,181.65,285.72,179.92,286.56Z"/><path class="cls-147" d="M175.62,112.56l-.24-1.85c.09-.83.19-1.66.29-2.49l.87,1c-.09,1.09-.17,2.19-.26,3.29C176.06,113,175.84,113,175.62,112.56Z"/><path class="cls-148" d="M229.17,125.25c-.78-.48-1-1,0-1.45C229.16,124.28,229.16,124.76,229.17,125.25Z"/><path class="cls-149" d="M56.79,20.83c.46-1.44,1.9-1.93,2.83-2.91,2.14-.82,4-2.26,6.41-2.48a8.23,8.23,0,0,1,7.19,1.38l-.1-.06a4.64,4.64,0,0,1,2.68,4.61c-.09,2.95.11,5.91,0,7.52,0-1.74.13-4.83-.06-7.9a4.32,4.32,0,0,1,1.78-4.14,7.56,7.56,0,0,1,3.14-1.44c2.55-.71,5,.09,7.39.67a15.91,15.91,0,0,1,3.36,2.07,11.55,11.55,0,0,1,4.65,4.49c1.09,2.11,1.55,4.27.4,6.52l.05-.08c-1.78,3.61,2.19,1.31,2.67,2.59a2.17,2.17,0,0,1,.78.22,7.43,7.43,0,0,1,3.16,2.82,19.57,19.57,0,0,1,1.65,5.39c0,1.7,0,3.4,0,5.11-.2,1.87-1.08,3.59-1.3,5.46-1.08.82-1.71,2.31-3.37,2.26-1.36,1.2-4.55,1-3.21,4.26a7.73,7.73,0,0,1-1.23,6.22C94,66,91.36,67.22,88.8,68.57c-4,2.3-7.94,2.53-11.72-.5-2.38-2.13-1-4.93-1.25-7.42a32.33,32.33,0,0,1,0-5.38c0-.44-1,.18-.42.08.12,0,.2,0,.19.18-.28,4.06,1.55,8.37-1.44,12.11a8.34,8.34,0,0,1-3.35,2.26c-1.5.66-3,.33-4.54,0a11.41,11.41,0,0,1-4-1.57c-1.25-.44-2.34-1.3-3.69-1.52l.08,0c-.87-1.45-2.27-2.45-3.19-3.86a7.47,7.47,0,0,1-1.2-5.38c1.76-3.91-1.61-3.74-3.67-4.6a10.43,10.43,0,0,1-3.08-3.92,20,20,0,0,1-1.18-5.06c0-.87,0-1.74,0-2.62,0-1.08.52-2.09.45-3.19a9,9,0,0,1,2.72-4.91,8,8,0,0,1,3.07-2c.68-.14,1.32-.47,2-.6a.46.46,0,0,0,.17-.56,10.32,10.32,0,0,1,0-6.1C55,22.72,56.13,21.93,56.79,20.83Z"/><path class="cls-149" d="M198.51,52.68l-1-1.32a12.08,12.08,0,0,1-2.14-5.07,14.38,14.38,0,0,1,0-6.84,10.78,10.78,0,0,1,2.64-6,8,8,0,0,1,3.14-2.11c1.77-.34,2.91-1,2-3.15a5,5,0,0,1,.45-4.49,1.27,1.27,0,0,1,.12-.51c.74-2.16,2.78-3.2,4.13-4.83.79-.54,1.7-.86,2.51-1.35a25.61,25.61,0,0,0,3.33-2l.16,0c2.68.46,5.63-.35,7.94,1.77l-.11-.07c2.11.72,2.78,2.26,2.69,4.38-.12,2.87.09,5.75,0,7.37,0-1.51.07-4.27,0-7a5.32,5.32,0,0,1,1.79-4.63,7.44,7.44,0,0,1,3.09-1.41c2.46-.74,4.8.07,7.16.58,1.37.34,2.32,1.67,3.85,1.65l-.07,0c1.59,1.74,3.62,3.11,4.55,5.4.88,3.14,2.12,6.36-1.67,8.59a12.77,12.77,0,0,1-3,2.06,8,8,0,0,0-2.3,1.31c.07,0,0-.06.1-.1a5.57,5.57,0,0,1,1.91-1c1.45-.7,2.66-1.76,4-2.57a4.08,4.08,0,0,1,3.65,0A8.09,8.09,0,0,1,251.75,35a12.06,12.06,0,0,1,1.54,4.3c0,2.18,0,4.35,0,6.53A22.54,22.54,0,0,1,251.66,51l-1.34,1.13a14.24,14.24,0,0,1-3.73,2c-1.06.08-2.15.4-3-.45.08.32.39.38.52.63,1.6,2.43,1.57,5,.95,7.69-1.38,3.64-4.73,5-7.79,6.66-3.17,1.52-6.36,2.57-9.74.6a11.9,11.9,0,0,1-2.71-2.29c-1.11-3.77-.2-7.64-.51-11-.73,3.65,1.45,8.06-1.27,12l.05-.1c-2.47,1.66-5,3.18-8.17,2.17a17.4,17.4,0,0,1-4.67-1.73,13.9,13.9,0,0,0-3.1-1.38l.08,0c-1.08-1.58-2.56-2.83-3.63-4.42l.07.06a8.85,8.85,0,0,1-.85-4.72c.22-1.83.84-3.42,2.61-4.32,1.17-.37,2-1.34,3.08-1.86.84-.68,2-.91,2.76-1.57a.33.33,0,0,1,.53-.09s-.16-.24-.18-.22a6.88,6.88,0,0,1-1,.76,9.36,9.36,0,0,0-2.36,1.25c-.89.39-1.52,1.19-2.44,1.53-1.24.72-2.45,1.52-4,.77C200.84,53.44,199.43,53.66,198.51,52.68Z"/><path class="cls-149" d="M135.56,16.72l.93-.06a13.53,13.53,0,0,1,9.43-1.16c1.82,1.05,3.51,2.22,4.09,4.42.08,1.84,0,3.7,0,5.19,0-1.6-.05-3.56,0-5.53.05-.95.83-1.45,1.3-2.14a7.26,7.26,0,0,1,2.65-1.93c2-.64,3.95-.15,5.93,0a10.45,10.45,0,0,1,4.14,1.7c1.22.41,1.95,1.53,3,2.14,1.17,0,1.74.84,2.27,1.71,1,1.5,1.5,3.25,2.5,4.75V27c-.83,1.75-.94,4-3.09,4.88a24.27,24.27,0,0,0-3.56,1.89,19.57,19.57,0,0,1-2.41,1.58,1.72,1.72,0,0,0-.31,0,1.94,1.94,0,0,0,.34,0c.65-.54,1.5-.74,2.09-1.35A14,14,0,0,1,168.58,32c2.93-2.42,5.24-.08,7.7,1l1.89,2.48c.36,2,1.11,4,.88,6v1.9c.19,2.17-.7,4.2-.85,6.33l-1.61,1.44c-1.21,1.25-2.36,2.59-4.26,2.74a9.12,9.12,0,0,0-1.45.48,1.17,1.17,0,0,0-.36.92c-.15,1.63,1.8,3,.54,4.78.37,3.77-2.86,4.85-5,6.73a24.87,24.87,0,0,1-5.4,2.6,7.66,7.66,0,0,1-5.95.47c-1.95-.75-3.59-1.83-4.27-4-.82-3.41-.1-6.88-.37-9.7.17,2.8-.28,6.22.23,9.63.28,1.61-1.63,1.13-2,2.11l-.71.62c-2.64,2-5.5,2-8.48,1a32.88,32.88,0,0,1-4.54-2.22c-1-.66-1.93-1.4-2.93-2l-1.07-1.09c-.52-1.33-1.67-2.33-2-3.77a22.32,22.32,0,0,1,0-3.06c.52-1,.1-2.51,1.39-3.22,1-.6,2-1.17,3-1.69.48-.16.79-.69,1.34-.7,0,0-.22-.13-.24-.1a3.77,3.77,0,0,1-1,.73c-1.21.63-2.35,1.35-3.6,1.89-1.55.19-2.79-.57-4.05-1.3L123.77,52c-2.27-2.13-2.52-5-3-7.83a9.76,9.76,0,0,1-.06-2.59c.62-1.79.09-3.87,1.36-5.5a15.67,15.67,0,0,1,1.63-2.69l.7-.75c1.31-1.63,5.39-.73,4.2-4.62a22.76,22.76,0,0,1,0-3.09A13.83,13.83,0,0,1,130.65,21l2-2.18A14.12,14.12,0,0,0,135.56,16.72Z"/><path class="cls-150" d="M226.59,17c-2.56,2.84-1.61,6.33-1.75,9.6a40.81,40.81,0,0,1-.34,5.61c-2-5,1.22-10.92-2.87-15.5a4.48,4.48,0,0,0,4.9-.74.62.62,0,0,1,.28.67C226.74,16.91,226.67,17,226.59,17Z"/><path class="cls-151" d="M78.06,17c-2.72,2.79-1.58,6.31-1.76,9.56-.11,1.86,0,3.73,0,5.6l-1.15,0c0-2.83-.08-5.67,0-8.5.09-2.56-.26-4.93-2-6.93A4.53,4.53,0,0,0,78,16a.65.65,0,0,1,.28.68C78.21,16.87,78.14,17,78.06,17Z"/><path class="cls-152" d="M203.55,23.72c-.08,3.58-.22,7.18,4.1,9.13-2.46-.3-4.32-1.65-6.51-1-.91.45-1-.08-1-.79,1.7-.49,2.8-1.12,2-3.35C201.75,26.37,201.39,24.47,203.55,23.72Z"/><path class="cls-153" d="M73.55,67.74c2.37-2.92,1.4-6.39,1.57-9.67a31.34,31.34,0,0,1,.37-5.1c1.77,4.78-.58,10,1.89,14.67a.69.69,0,0,1-1.14.15c-1.17-.26-1.66.92-2.55,1.23A.87.87,0,0,1,73.55,67.74Z"/><path class="cls-154" d="M176.28,33c-2.61-.08-5-2.26-7.79-.7-.66-.24-.66-.5,0-.77,1.57-1.22,1.45-3.7,3.44-4.61C170.31,31.18,175.7,30.38,176.28,33Z"/><path class="cls-155" d="M223,67.89c1.2-4.87.39-9.87,1.12-14.8,1.34,4.63-.12,9.52,1.29,14.13,0,.41-.15.57-.54.51Z"/><path class="cls-156" d="M55.07,23.85c0,2.52-.65,5.21,1.72,7.16.15.74.12,1.28-.86.8l-3.33,0c-.9.44-1-.07-1-.78.87-.61,2.6-.3,1.9-2.47a4.61,4.61,0,0,1,.89-4.74C54.65,23.57,54.86,23.57,55.07,23.85Z"/><path class="cls-157" d="M247.43,31.86l-3.86,0a.82.82,0,0,1-1.24-.09c3.07-2.41,3.18-5.44,1.84-8.78.27-.54.57-.56.89-.05,2,1.27.73,3.26.82,4.83.13,1.95.74,3,2.54,3.38C248.47,31.86,248.29,32.3,247.43,31.86Z"/><path d="M76.24,67.79l1.14-.15c3.59,3,7.54,1.49,11.42.93-.73,1.57-2.13,1.85-3.64,1.9a6.3,6.3,0,0,1-4.62,0A5.75,5.75,0,0,1,76.24,67.79Z"/><path class="cls-158" d="M214.3,69.4c3.16.73,5.94-.63,8.79-1.61-2.47,4-6,3.57-9.74,2.4C213.3,69.48,213.39,69,214.3,69.4Z"/><path class="cls-159" d="M227.38,68.66c3.3,1.72,6.59.39,9.89-.06q-4.58,4.31-9.94,1a.59.59,0,0,1-.2-.66C227.21,68.77,227.3,68.66,227.38,68.66Z"/><path class="cls-160" d="M195.81,38.85c0,2.61.07,5.21.1,7.82.19.8-.17,1.06-.92.89a18.57,18.57,0,0,1,.14-10.5C196.52,37.22,196.23,38,195.81,38.85Z"/><path class="cls-161" d="M99.18,31.67c-3-.46-5.4,1.43-8.39,1.87l5.72-4.46C96.52,30.84,98.77,30.31,99.18,31.67Z"/><path class="cls-162" d="M129.08,28.11l2.68,4.09c-2.88-.9-5.08.19-7.4.4.32-2.27,3.59-1.29,3.92-3.54C128.48,28.68,128.47,28.14,129.08,28.11Z"/><path class="cls-163" d="M146.12,16.05c-3.28-.83-6.43.27-9.63.61,3.44-3.57,7.2-2.61,11-.78A1,1,0,0,1,146.12,16.05Z"/><path class="cls-164" d="M138.61,68.84c3,1.11,6,.61,8.95-.19-2.42,3.72-5.77,2.13-8.93,1.57A.83.83,0,0,1,138.61,68.84Z"/><path class="cls-165" d="M237,16.86a18.17,18.17,0,0,0-7.83-1.11c-.58-.25-.59-.52,0-.83,3.23-1.55,6,.16,8.85,1.26C237.91,16.84,237.83,17.41,237,16.86Z"/><path class="cls-166" d="M88.42,16.87a18.49,18.49,0,0,0-7.8-1.13c-.59-.24-.61-.52-.05-.84,3.23-1.55,6,.21,8.83,1.3C89.4,16.9,89.25,17.39,88.42,16.87Z"/><path class="cls-167" d="M50.81,52.5c2,.62,4,1.63,6.73.06L55,57.17c-.81.06-1.26-.16-.84-1.07-.11-2.19-2.61-1.16-3.36-2.5A.67.67,0,0,1,50.81,52.5Z"/><path class="cls-168" d="M121.26,44q1.24,4,2.51,8c-3.09-1-3-3.74-3.44-6.22C120.82,45.24,120.25,44.19,121.26,44Z"/><path class="cls-169" d="M54.12,56.1,55,57.17a15.09,15.09,0,0,0,1.2,6.12.59.59,0,0,1-1,.1C53.37,61.16,52.7,58.78,54.12,56.1Z"/><path class="cls-170" d="M245.06,61.94c-.29-2.77.28-5.75-1.9-8.08-.63-.26-.63-.51,0-.76l3.44.42c.87-.3,1.07.12.95.88-.62.47-1.88-.1-1.72,1.66C246,58,246.74,60.19,245.06,61.94Z"/><path class="cls-159" d="M154.54,69.4a12.1,12.1,0,0,0,6.08-.59,1.46,1.46,0,0,1,1,.75c-2.53,1.84-5.2,1.8-8,.59C153.57,69.45,153.66,68.94,154.54,69.4Z"/><path class="cls-171" d="M96.37,56.46l-2.44-3.35c2.44.59,4.3.07,6.18-.18.1,2.09-2.34,1.25-2.92,2.54C96.94,55.83,96.93,56.38,96.37,56.46Z"/><path class="cls-172" d="M125.41,53.05l4.27.56c1-.45,1.12.11.95.91L129,57.25a1.22,1.22,0,0,1-.81-.88C128.67,54.09,125.24,55.1,125.41,53.05Z"/><path class="cls-171" d="M73.22,16.82c-2.73-1.24-5.6-1.05-8.47-.91-.2-.2-.25-.39-.16-.57s.16-.26.24-.26C67.94,14.13,71,13.24,73.22,16.82Z"/><path class="cls-173" d="M146.12,16.05l1.4-.17c1.25.14,1.91,2.46,3.61,1,.47-.07.72.12.7.61l-1.07,2c-.26.64-.64,1.1-1.44.8C149,18.29,147.31,17.36,146.12,16.05Z"/><path class="cls-174" d="M221.74,16.81c-2.45-1.48-5.47-.35-7.93-1.77C216.83,13.9,219.61,13.88,221.74,16.81Z"/><path class="cls-175" d="M160.56,16c-2.36-.23-4.71-.54-7,.35a.86.86,0,0,1,0-1.23c2.65-1.89,5.26.22,7.89.08C161.57,15.93,161.43,16.37,160.56,16Z"/><path class="cls-176" d="M171.06,60.14c-.45-1.88-.45-3.9-1.68-5.55-.2-.85,0-1.28,1-1H172c.87-.33,1,.08.89.84-1.59.21-2.26,1.07-1.42,2.52C172.18,58.23,172.49,59.25,171.06,60.14Z"/><path class="cls-177" d="M96.37,56.46l.82-1c.65,2.87,1.47,5.77-1.52,7.94C95.81,61.09,96.86,58.85,96.37,56.46Z"/><path class="cls-178" d="M178.5,43.24l0-1.91c.46-1.13-.38-2.5.65-3.51a12.09,12.09,0,0,1,.11,9.08C178,45.88,179,44.42,178.5,43.24Z"/><path class="cls-179" d="M95.26,22.15l-4-4c-.28-.18-.37-.36-.28-.55s.19-.27.28-.27a9.08,9.08,0,0,1,5,4.72Q95.86,23.08,95.26,22.15Z"/><path class="cls-180" d="M64.83,15.08c0,.28,0,.56-.08.83-1.47,1.28-3,2.35-5.13,2C60.81,16,62.77,15.43,64.83,15.08Z"/><path class="cls-181" d="M206.25,53.46a6.48,6.48,0,0,0-2.7,3.7c-.76.22-1.13,0-.85-.81a1.74,1.74,0,0,0-1.63-1.94c-.17-.73,0-1.07.83-.82,1.58.2,2.94-.53,4.36-1,.24.2.31.4.23.59S206.33,53.46,206.25,53.46Z"/><path class="cls-182" d="M208.13,18.83l-4.46,4.38c-.44-3.35,2.47-4,4.39-5.46A.63.63,0,0,1,208.13,18.83Z"/><path class="cls-183" d="M154.54,69.4l-.91.75c-2-.21-2.85-3.24-5.36-2.12-.07-1.06.94-1.31,1.44-1.94a.8.8,0,0,1,1.13-.06Z"/><path class="cls-184" d="M195.81,38.85c-.23-.6-.46-1.19-.68-1.79a7,7,0,0,1,3.14-4.77.79.79,0,0,1,.16,1.23C197.55,35.3,196.68,37.07,195.81,38.85Z"/><path class="cls-158" d="M65.78,69.42h5.11c.88-.44,1,0,.94.76a8.27,8.27,0,0,1-7,0C64.77,69.49,64.87,69,65.78,69.42Z"/><path class="cls-185" d="M95.26,22.15l1.08-.06c1.3,2.34,2.72,4.67.12,7.07C96.44,26.76,96.48,24.34,95.26,22.15Z"/><path class="cls-186" d="M202.7,56.35l.85.81.12,5.37C201.66,60.73,201.57,58.64,202.7,56.35Z"/><path class="cls-187" d="M252.63,46.56l0-7.77c-.16-.77.17-1,.91-.89a21.75,21.75,0,0,1,0,9.6C252.77,47.63,252.39,47.4,252.63,46.56Z"/><path class="cls-188" d="M122.46,36.14l-1.2,5.21c-1-.15-.43-1.23-1-1.67A6.37,6.37,0,0,1,121.78,35C122.46,35.12,122.47,35.63,122.46,36.14Z"/><path class="cls-189" d="M245.06,22.9l-.89.05c-1.06-2-3.56-2.91-4.07-5.34C242.54,18.64,244.51,20.11,245.06,22.9Z"/><path class="cls-190" d="M104.22,39.68l-1.77-5.18c.27-.49.61-.54,1-.14a5.94,5.94,0,0,1,1.66,4.42C104.85,39.11,104.85,39.71,104.22,39.68Z"/><path class="cls-191" d="M138.61,68.84c0,.46,0,.92,0,1.38a9.74,9.74,0,0,1-4.42-2.46.8.8,0,0,1,0-1.2Z"/><path class="cls-192" d="M47.08,41.33V44.1c-.47.52,0,1.45-.82,1.84a8.75,8.75,0,0,1,0-6.5C47.08,39.83,46.61,40.79,47.08,41.33Z"/><path class="cls-193" d="M46.27,45.94l.82-1.84c.35,1.75.71,3.5,1.06,5.25.33.8,0,.94-.73.8A6.16,6.16,0,0,1,46.27,45.94Z"/><path class="cls-194" d="M49.88,33.45l-2.51,4.6c-.63-.06-.61-.62-.79-1a7,7,0,0,1,3.17-4.81A.78.78,0,0,1,49.88,33.45Z"/><path class="cls-195" d="M172.88,54.46l-.89-.84,4.6-2.4C176.69,53.82,174.61,53.94,172.88,54.46Z"/><path class="cls-196" d="M195,47.56l.92-.89a11.14,11.14,0,0,1,1.56,4.69C195.55,50.81,195.24,49.21,195,47.56Z"/><path class="cls-197" d="M247.43,31.86l1-.75a5.62,5.62,0,0,1,3.63,3.2c.46.89-.05,1-.76,1Z"/><path class="cls-198" d="M104.22,39.68l.9-.9a20.78,20.78,0,0,1,0,7.86c-.77.15-1.16,0-.86-.91Z"/><path class="cls-199" d="M251.29,35.27l.76-1a4.91,4.91,0,0,1,1.52,3.59l-.91.89C252.2,37.62,251.75,36.44,251.29,35.27Z"/><path class="cls-150" d="M179.12,37.82c-.22,1.17-.43,2.34-.65,3.51,0-1.95-1.19-3.83-.3-5.82C179.17,36,179.09,36.93,179.12,37.82Z"/><path class="cls-200" d="M161.58,69.56l-1-.75L166,66.87C165.31,69,163.26,69,161.58,69.56Z"/><path class="cls-201" d="M104.22,45.73l.86.91a5.34,5.34,0,0,1-1.6,4C102.32,48.81,103.67,47.33,104.22,45.73Z"/><path class="cls-202" d="M171.92,25.79c-2.07-.93-2.16-2.91-2.5-4.75C171.49,22,172,23.74,171.92,25.79Z"/><path class="cls-203" d="M203.6,62.47c1.84,1,3.46,2.09,3.63,4.42C205.4,65.93,203.85,64.74,203.6,62.47Z"/><path class="cls-204" d="M47.42,50.15l.73-.8,2.66,3.15c0,.36,0,.73-.05,1.1A5.17,5.17,0,0,1,47.42,50.15Z"/><path class="cls-205" d="M178.5,43.24c.24,1.22.49,2.44.73,3.66-.08,1.05,0,2.16-1,2.88C177.26,47.55,178.52,45.43,178.5,43.24Z"/><path class="cls-206" d="M252.63,46.56l.9.94c-.25,1.35-.35,2.78-1.86,3.45C251.18,49.31,251.92,47.94,252.63,46.56Z"/><path class="cls-207" d="M120.3,39.68l1,1.68V44l-.93,1.79Z"/><path class="cls-208" d="M130.65,21a7.13,7.13,0,0,1-1.48,3.7c-.74.17-.67-.5-.89-.86C128.57,22.5,129,21.27,130.65,21Z"/><path class="cls-209" d="M213.64,15a3.83,3.83,0,0,1-3,2.41,1.22,1.22,0,0,1-1-.71A5.36,5.36,0,0,1,213.64,15Z"/><path class="cls-210" d="M214.3,69.4l-1,.79a6.68,6.68,0,0,1-3.54-1.6.75.75,0,0,1,.07-1.19Z"/><path class="cls-211" d="M55.16,63.39l1-.1c1.21.95,2.68,1.72,2.54,3.61A6.54,6.54,0,0,1,55.16,63.39Z"/><path class="cls-212" d="M247.56,54.4l-.95-.88,3.71-1.44C250.22,53.83,248.87,54.09,247.56,54.4Z"/><path class="cls-213" d="M134.22,66.56c0,.4,0,.8,0,1.2-1.24-.39-2.36-.92-2.6-2.4A2.54,2.54,0,0,1,134.22,66.56Z"/><path class="cls-214" d="M58.62,66.86c1.49-.8,2.5.14,3.54,1A.73.73,0,0,1,62,69,6.1,6.1,0,0,1,58.62,66.86Z"/><path class="cls-198" d="M128.23,56.37l.81.88c0,1.11.09,2.21.14,3.31.31.81-.05,1.06-.81,1A8.06,8.06,0,0,1,128.23,56.37Z"/><path d="M227.38,68.66l0,1a3.26,3.26,0,0,1-2.42-1.91,1.33,1.33,0,0,0,.54-.51Z"/><path class="cls-215" d="M128.37,61.55l.81-1c.76,1.13,1.58,2.23,1.36,3.71C129.08,64,128.72,62.76,128.37,61.55Z"/><path class="cls-216" d="M62,69c0-.4.09-.8.13-1.2l3.62,1.6c-.32.26-.64.52-1,.79Z"/><path class="cls-217" d="M103.46,34.36l-1,.14L100,31.89C102,31.51,102.74,32.9,103.46,34.36Z"/><path class="cls-187" d="M128.28,23.87l.89.86-.09,3.38-.8.95A8.52,8.52,0,0,1,128.28,23.87Z"/><path class="cls-218" d="M55.07,23.85h-.64c-.18-1.77.47-2.89,2.36-3A4.73,4.73,0,0,1,55.07,23.85Z"/><path class="cls-219" d="M167.15,19.33a4.94,4.94,0,0,1-3.07-1.66.59.59,0,0,1,.12-1C165.64,17,167.11,17.4,167.15,19.33Z"/><path class="cls-220" d="M164.2,16.63l-.12,1L160.56,16l.9-.8A3.78,3.78,0,0,1,164.2,16.63Z"/><path class="cls-177" d="M122.46,36.14l-.68-1.1c.13-1.11.9-1.52,1.88-1.69Z"/><path class="cls-221" d="M71.83,70.19l-.94-.76,2.66-1.69c0,.43.09.85.14,1.28Z"/><path class="cls-222" d="M198.43,33.52c-.05-.41-.1-.82-.16-1.23l1.9-1.21,1,.79Z"/><path class="cls-223" d="M49.88,33.45c0-.41-.08-.82-.13-1.23l1.89-1.16,1,.78Z"/><path class="cls-148" d="M80.57,14.9c0,.28,0,.56.05.84L78.06,17,78,16C78.58,14.92,79.6,15,80.57,14.9Z"/><path class="cls-180" d="M209.88,67.4l-.07,1.19a4.32,4.32,0,0,1-2.66-1.74A1.88,1.88,0,0,1,209.88,67.4Z"/><path class="cls-224" d="M46.58,37l.79,1c-.1,1.1-.19,2.19-.29,3.28l-.84-1.89Z"/><path class="cls-225" d="M80.54,70.45l4.62,0A4.16,4.16,0,0,1,80.54,70.45Z"/><path d="M209.7,16.72l1,.71-2.54,1.4c0-.36,0-.72-.07-1.08Z"/><path class="cls-180" d="M135.56,16.72c-.38,1.55-1.1,2.62-2.95,2.12A3.34,3.34,0,0,1,135.56,16.72Z"/><path class="cls-226" d="M237,16.86c.32-.23.64-.46,1-.68a3.32,3.32,0,0,1,2.24,1.47C238.75,18.79,237.92,17.57,237,16.86Z"/><path class="cls-227" d="M91.3,17.37a3.84,3.84,0,0,0,0,.83,3.61,3.61,0,0,1-2.88-1.33l1-.67Z"/><path d="M229.08,14.92c0,.27,0,.55,0,.83L226.59,17l-.06-1C227.11,15,228.11,15,229.08,14.92Z"/><path class="cls-228" d="M153.57,15.12c0,.41,0,.82,0,1.23l-1.72,1.14-.7-.61A3.06,3.06,0,0,1,153.57,15.12Z"/><path class="cls-229" d="M201.9,53.59l-.83.82c-1.07-.26-2.28-.31-2.56-1.73A4.36,4.36,0,0,1,201.9,53.59Z"/><path class="cls-230" d="M175.41,158.43a.44.44,0,0,1,.05-.65,9.18,9.18,0,0,1,1.29-4.66c.33-1.42,1.41-2.43,2-3.71a52.11,52.11,0,0,1,4.74-4.54.42.42,0,0,1,.13-.56,4.14,4.14,0,0,0,.68-.1c.64.47,1.43.81,1.49,1.78-.35,1.77-2.48,2.68-2.31,4.71l-1,1.35c-.86,1.48-1.85,2.91-1.63,4.75l0,.31c-1,1-.88,2.29-1,3.53a21.37,21.37,0,0,0-.51,3.89c-.82,2.38-.41,5.09-2,7.26l-.13,1.29c-.89.68-2,.5-2-.49C175.23,167.87,173.58,163.12,175.41,158.43Z"/><path class="cls-231" d="M148.94,216.19c3.56,1.05,5.35,4.58,8.53,6.16.91.54,1.7,1.36,1.38,2.38-.39,1.25-1.7.68-2.63.74-1.74.1-3.36-.64-5.05-.88a7.5,7.5,0,0,1-3.55-1.82,7.08,7.08,0,0,1-1.56-2.81c-.91-1.56-2.6-3-.49-4.91A3.29,3.29,0,0,1,148.94,216.19Z"/><path class="cls-232" d="M151.15,223.39a47,47,0,0,0,5,1.45c2.67.49,1.82-1.15,1.34-2.49l3.69,1.92c1.44.63,3,.16,4.46.43a.7.7,0,0,1,.39.65c0,.27-.07.41-.15.41l-37.74.3,1-1.12c5.17-.73,10.47.84,15.59-.89C146.71,222.25,149.12,224.69,151.15,223.39Z"/><path class="cls-233" d="M175.41,158.43c.07,3.91.1,7.82.23,11.73,0,1.18-.45,2.8,1.61,2.92.44,3.27-1.77,5.82-2.4,8.81-.35-6.66-.75-13.32-1-20C173.81,160.64,173.2,158.82,175.41,158.43Z"/><path class="cls-234" d="M135.28,141.59c-.67,1-1.33,1.32-2,0a18.12,18.12,0,0,0-2.38-6.8,2.48,2.48,0,0,1,.12-1.21c1.31-2-.38-3.85-.4-5.79a3.69,3.69,0,0,1,.27-1.18c.64-1,1-2.16,1.75-3.14a1.68,1.68,0,0,1,1.72-.51c1.72,1.14.91,3.19,1.69,4.67a4.72,4.72,0,0,1,.25,1.23,8.55,8.55,0,0,0,.55,7.09A19,19,0,0,1,135.28,141.59Z"/><path class="cls-235" d="M186.12,128.61l-2.21,3.31c-.92.68-1.52,2-3,1.65-2.07-.69-2.27-2.17-1.67-4a11.22,11.22,0,0,1,1-1.67,19.42,19.42,0,0,1,1.76-2.47,3.3,3.3,0,0,1,1.09-.51,2.67,2.67,0,0,1,2.69.86A7.87,7.87,0,0,1,186.12,128.61Z"/><path class="cls-236" d="M205.39,148.79c-.65,2.06-2.89,1.39-4.14,2.43-1.47,1.07-2.87,1.45-4.09-.36-.27-3.11,1.87-4.24,4.26-5.16C203.42,145.86,206.36,144.81,205.39,148.79Z"/><path class="cls-237" d="M123.54,180.94c0-3.41,0-6.81,0-10.22.38-1.48,0-3.12.88-4.5l.21,16.15c.76,1.55,0,3.32.71,4.88-.06.52.06,1.19-.22,1.51a.77.77,0,0,1-1.32-.38c-.42-1.49-.7-3-1-4.53C122,182.59,122.7,181.75,123.54,180.94Z"/><path class="cls-238" d="M209,139.77a3.21,3.21,0,0,1,1.66,2.77c-1.23.52-1.92,1.81-3.23,2.21-2.1,1.31-4.19,2.55-5.34-1,.29-1.83,1.76-2.71,3-3.75C206.37,139.56,207.61,138.36,209,139.77Z"/><path class="cls-239" d="M183.09,125.77l-.26-.06c-2.1.48-1.9-1-1.79-2.22a7.31,7.31,0,0,1,2.55-4.69,3.06,3.06,0,0,1,4.23-.11,6.28,6.28,0,0,1-.9,3.64C185.82,123.67,185.12,125.47,183.09,125.77Z"/><path class="cls-240" d="M184.3,119.54c-.55,2-3.72,3.46-1.47,6.17a3.8,3.8,0,0,1-1.39,2.67,1.4,1.4,0,0,1-1.89.08c-1.81-2.77.92-5.29.44-8l.84-3.44c1.69-.69,2.62.59,3.71,1.44A.89.89,0,0,1,184.3,119.54Z"/><path class="cls-241" d="M153.49,130l-.83,3.67a3.32,3.32,0,0,1-2.46.83,2.94,2.94,0,0,1-1.27-.54c-1.2-1.11-1.05-2.54-1-4,.55-1.6,1.08-3.22,2.87-3.92C154.28,125.68,152.69,128.65,153.49,130Z"/><path class="cls-242" d="M135.9,113.67c3.16.19,3,2,2,4.15-1,.88-.49,2.66-2,3.19-4.69-.77-2.55-3.76-2-6.23C134.3,114,134.71,113.11,135.9,113.67Z"/><path class="cls-243" d="M135.9,113.67l-.83,1.66c-1.27.68-2.16.24-2.78-1a6.94,6.94,0,0,1-.25-2c.19-1.42-.64-3.15,1.26-4,1.53-1.28,2.39-.57,2.59,1.06A32,32,0,0,1,135.9,113.67Z"/><path class="cls-244" d="M180.64,132.87l3.27-1a5.22,5.22,0,0,1-.44,4.33,41.52,41.52,0,0,0-3.73,3.16,1.84,1.84,0,0,1-2.18-.88,3.16,3.16,0,0,1-.28-1.25A6.52,6.52,0,0,1,180.64,132.87Z"/><path class="cls-245" d="M184.19,118.39c-2.53,3-2.1-1.25-3.36-1.36l1.7-2.5c.68-1.71,1.94-1.8,3.44-1.23l0,3A2.69,2.69,0,0,1,184.19,118.39Z"/><path class="cls-246" d="M163.18,109.23c1.68-1.44,2-1.27,2.64,1.67-.9,1.18,0,2.45-.15,3.67a2.53,2.53,0,0,1-2.38,2c-1.63-.25-2.11-1.53-2.55-2.84a.93.93,0,0,1,.67-.24C162.63,112.33,161,110,163.18,109.23Z"/><path class="cls-247" d="M175.62,112.56h.66c-.27,3.33-.75,6.61-3.25,9.53v-6.9l.71,0C175.27,115,174.76,113.28,175.62,112.56Z"/><path class="cls-235" d="M131.61,134.36c1.91,2.09,3.84,4.16,1.7,7.2l-1.46-.8C130.15,138.69,129.07,136.59,131.61,134.36Z"/><path class="cls-248" d="M166.73,139.29c.18.62.15,1.15-.59,1.38-4.39.44-4.75-.38-2.67-6.09a2.63,2.63,0,0,1,1.41-.8,2.28,2.28,0,0,1,2.17.86A4.64,4.64,0,0,1,166.73,139.29Z"/><path class="cls-249" d="M135.28,141.59a19.87,19.87,0,0,1,.52-7.36,1,1,0,0,1,.54-1c1,0,2.09-.33,2.69.87a5.56,5.56,0,0,1-1.26,4.71C137.62,140.38,136.46,141,135.28,141.59Z"/><path class="cls-250" d="M189.62,152.79a2,2,0,0,1,1.7-2.43,1.53,1.53,0,0,1,2.54,1.16,3.31,3.31,0,0,1-2.73,4.16c-.41.85-.78,1.76-1.95,1.77C187.24,155.7,188.76,154.28,189.62,152.79Z"/><path class="cls-251" d="M209,139.77l-3.5.92a1.35,1.35,0,0,1,0-2c.22-1.81,1.53-2.67,3-3.41,2-.05,2.13.94,1.31,2.43Z"/><path class="cls-252" d="M176.41,132.81c-.36-1.81-1.37-3.7.57-5.27h.65c1.47.53,1.85,1.72,1.88,3.11.09,2.22.28,4.46-1.89,6a1.87,1.87,0,0,1-1.19-.62A2.49,2.49,0,0,1,176.41,132.81Z"/><path class="cls-253" d="M146.52,134.52l-1.75-2.62c-.58-1.62-.88-3.22.32-4.72a2.4,2.4,0,0,1,2.69.46c.76.7.72,1.69.89,2.6a20.94,20.94,0,0,1,0,3.36A1.56,1.56,0,0,1,146.52,134.52Z"/><path class="cls-242" d="M180.71,139.67c-.25.92.09,2-.73,2.77-1,1.14-1.66,2.56-3.22,3.07-2.23,0-1.59-1.62-1.66-2.84a3.36,3.36,0,0,1,.23-1.33C176.67,139.32,178.54,139,180.71,139.67Z"/><path class="cls-254" d="M201.05,147c-1.56.79-2.44,2.23-3.47,3.53a2.08,2.08,0,0,1-1.52-.79,14.29,14.29,0,0,0-2-2.22,4.38,4.38,0,0,1,4.65-3.52c.77.82,2.29.62,2.66,2A1.2,1.2,0,0,1,201.05,147Z"/><path class="cls-255" d="M172.15,148.52a13.82,13.82,0,0,1-.68,10.92c-.14-3.39-1-6.8.53-10.15-.25-.22-.32-.41-.19-.56A.46.46,0,0,1,172.15,148.52Z"/><path class="cls-256" d="M160.74,113.73l2.41,2c1.39,2.11,2.49,4.2-.34,6.07a2.13,2.13,0,0,1-1.36-.18c-.82-.67-.41-1.76-.88-2.55l.06.12c-.94-1.7-1.55-3.39,0-5.09Z"/><path class="cls-257" d="M160.57,139.75c-1.27-.52-1.57,2.08-2.81,1a2.73,2.73,0,0,1-.55-3.19c.87-1.53.06-3.56,1.62-4.78a3.33,3.33,0,0,1,1.72,1.05A8.28,8.28,0,0,1,160.57,139.75Z"/><path class="cls-258" d="M117.42,141.64l0-1.12c-1.75-1.22-1.54-2.3.26-3.24,3.09-.18,3.88,1.95,4.38,4.37a2.53,2.53,0,0,1-1.06,2,1.94,1.94,0,0,1-2.17-.39Z"/><path class="cls-259" d="M194.1,147.47l2.91-2c.94,1.48.23,2.77-.19,4.07-.09,1.69-.37,3.26-2.44,3.62-1.34-1.11-1-2.38-.38-3.7Z"/><path class="cls-260" d="M201.05,147l0-1a2.06,2.06,0,0,1,1-3,1.49,1.49,0,0,1,1.3.4c-.51.7-1.21,1.59.33,1.7a25,25,0,0,0,4.21-.37l0,0c-1.63.89-.79,3.29-2.53,4.11C205.39,144.77,202.6,147.32,201.05,147Z"/><path class="cls-261" d="M123.65,142.55l.09.35c-1.28.48-1.28.48-2.34-2.29-.42-1.47-1-2.93-.18-4.45a2.33,2.33,0,0,1,2.75-1C127.17,137.78,125.3,140.16,123.65,142.55Z"/><path class="cls-262" d="M144.55,124.85l-.63-.88c1.14-1-.63-3.41,1.77-3.89,2.09.52,3,2.12,3.72,4,.17,1.45.25,2.88-1.34,3.7C146.19,127.64,145.58,126,144.55,124.85Z"/><path class="cls-263" d="M180,120.47c2.2,2.67-.22,5.24-.18,7.87-1.11.37-1.59-.36-2-1.16.23-1.63-.92-3.61,1.21-4.75Z"/><path class="cls-264" d="M194,149.44c.32,1.17-.85,2.72.89,3.54l.46.27c.51.75,1.3,1.29,1.59,2.19a1,1,0,0,1-.35,1c-1.85,0-3.83,1-5.46-.73.68-1.75,3.68-3.42.19-5.32C191.86,149,193,149.36,194,149.44Z"/><path class="cls-265" d="M151.15,223.39c-1.78,3.75-4.32.08-6.42.66a1.43,1.43,0,0,1,.08-.82,3,3,0,0,1,3.88-1.7Z"/><path class="cls-245" d="M202.31,143.44c-.43.84-.86,1.68-1.3,2.51-1.21-.13-3.16.55-2.27-2a.85.85,0,0,1,.53-.59c-.37-2.13,1.6-2.53,2.67-3.61l-.1.06C205,140.64,203,142.12,202.31,143.44Z"/><path class="cls-266" d="M160.57,139.75a10.83,10.83,0,0,1-.78-5.84c1.94-.8,2.8.29,3.34,1.93-.88,1.62,1.46,4.87-2.49,4.93Z"/><path class="cls-267" d="M150,133.68a.44.44,0,0,0,.5,0c2.07.63,1,2.43,1.4,3.71L150,139.83c-2.09,1-2.42-.28-2.46-1.92.43-1,0-2.24.74-3.2A4.23,4.23,0,0,1,150,133.68Z"/><path class="cls-268" d="M175.62,141.42a1.8,1.8,0,0,0-.06.8c-.13.66-.43.75-.89.25l-.41-1.72c-2-1.83-.51-3.55.14-5.3a1.65,1.65,0,0,1,2-.27,7,7,0,0,1,.89,4.12A2.82,2.82,0,0,1,175.62,141.42Z"/><path class="cls-269" d="M160.58,132l0-3.57c-.35-1.54.71-1.19,1.54-1.15a3.08,3.08,0,0,1,1.16.71,3.84,3.84,0,0,1,1.17,2.41c.07,1.35.18,2.7-.76,3.85a1.08,1.08,0,0,1-1,.66C161.6,134.21,160.38,133.62,160.58,132Z"/><path class="cls-270" d="M162.34,134.6l1,0a.55.55,0,0,1,.9,0,26.76,26.76,0,0,1-.5,3.7c-.65,2.39.67,2.57,2.44,2.4-1.81,1.41-3.64,1.74-5.5.1,3.37-.81,1.07-3.42,1.62-5.12a.64.64,0,0,1-.19-.72Q162.22,134.6,162.34,134.6Z"/><path class="cls-271" d="M167.6,131.52l.1,0c-.74,1.06-1,2.77-3,2.12a3.87,3.87,0,0,1-.62-2.69,3.75,3.75,0,0,1,2.43-4.08,2.65,2.65,0,0,1,1.45.13C170,128.72,168.14,130.06,167.6,131.52Z"/><path class="cls-272" d="M202.31,143.44c-.23-1.2,1.49-2.65-.47-3.62.56-2.42,2.4-.86,3.64-1.17v2a3.68,3.68,0,0,1-2.13,2.69Z"/><path class="cls-273" d="M127.07,153.86c0,2.67,0,5.35,0,8a1.35,1.35,0,0,1-.82.86c-1.37-2-.56-4.2-.65-6.33C126.46,155.78,125,153.77,127.07,153.86Z"/><path class="cls-274" d="M194.89,153c.64-1.16,1.29-2.31,1.93-3.46l.76,1c1,1.21,2.5.24,3.67.74-.53.8.43,2.23-1.11,2.61l-.56-.08c-1.53-.6-3.44,1-4.77-.79Z"/><path class="cls-275" d="M171.05,138.92a18.24,18.24,0,0,1,.82,6.18c-.23.6-.46.59-.69,0-.43-1.7-1.14-2.71-3.29-.49.93-2.41,2.93-3.54,2.53-5.68C170.63,138.4,170.84,138.43,171.05,138.92Z"/><path class="cls-276" d="M123.65,142.55a8.2,8.2,0,0,0,.22-7.2,1.15,1.15,0,0,1,.68-.76l1,.22c1.25.38,1.21,1.53,1.49,2.49.05,1.17-.82,1.83-1.46,2.63C125.4,141.14,125.33,142.45,123.65,142.55Z"/><path class="cls-277" d="M153.67,124l1.52-.86c.75.53.52,1.33.57,2.06-.26,1.67.61,3.48-.6,5l-1.43-1.76C152.85,127,152.17,125.46,153.67,124Z"/><path class="cls-278" d="M128.42,139.52c.38.77.26,1.83,1.28,2.25-.81.67-1.91,2.07-2.36,1.88-1.7-.68-.83-2.48-1-3.83A1.82,1.82,0,0,1,128.42,139.52Z"/><path class="cls-272" d="M141.41,119.54c.3-.64.6-1.28.89-1.92q.44,2.75.86,5.51c-.09.41,0,1-.31,1.22-.59.5-1.08.1-1.15-.55C141.55,122.39,141.5,121,141.41,119.54Z"/><path class="cls-279" d="M147.28,154.6c-.07,2,.45,4.08-1.64,6.78.15-2.88-.34-4.83,1.05-6.65Z"/><path class="cls-280" d="M148.17,137.09c.13,1.25-.19,2.81,1.87,2.74-.46,1.42-1.55,2.47-2.79,1.48s-1.07-2.76.06-4.14C147.55,136.6,147.83,136.58,148.17,137.09Z"/><path class="cls-281" d="M153.67,124l.06,4.48-.24,1.59c-1.79-.45.75-4.14-2.57-3.44l-.4-.47c-.35-1.54.37-2.33,1.82-2.62a1.51,1.51,0,0,1,1,.57Z"/><path class="cls-282" d="M160.57,119.11c1.05.42.86,1.45,1.12,2.26a4.42,4.42,0,0,1-.26,3.88,1.83,1.83,0,0,1-1,.56C158.05,123.53,159.5,121.33,160.57,119.11Z"/><path class="cls-264" d="M156.07,114.17l.3-6.87a.91.91,0,0,1,1.47,0c-.31,2.61-.61,5.23-.91,7.84C156.14,115.26,155.63,115.14,156.07,114.17Z"/><path class="cls-283" d="M185.49,146.31l-1.21-2.1,4.34.06c0,1.39-.16,2.67-1.79,3.12A1.9,1.9,0,0,1,185.49,146.31Z"/><path class="cls-284" d="M177.38,171.79c.52-2.51,1-5,1.55-7.52.6.06.6.62.82,1C179,167.45,180.29,170.38,177.38,171.79Z"/><path class="cls-285" d="M171.33,129.27c-.26-2.23.48-4.17,1.91-6.78.63,3.07-.45,4.88-1.42,6.71Z"/><path class="cls-286" d="M209.77,137.67c0-1,.57-2.4-1.31-2.43.16-2,1.81-2.1,2.61-1.18C212.31,135.47,211.64,137,209.77,137.67Z"/><path class="cls-287" d="M174.67,142.47l.89-.25c.29,1.27-.79,3.19,1.64,3.45l0,0c-.88.72-2.06,1.68-2.93.79C173.17,145.28,174.81,143.85,174.67,142.47Z"/><path class="cls-288" d="M139.36,153.8v3.34c-1.08-2.49-2.06-5-.7-7.58C139.6,150.85,138.6,152.47,139.36,153.8Z"/><path class="cls-289" d="M131.61,134.36c-2,2.21-.63,4.3.24,6.4l-1-.1c-1.16-2.61-1.85-5.22-.08-7.86a1,1,0,0,1,.89,1A2.62,2.62,0,0,1,131.61,134.36Z"/><path class="cls-290" d="M156.07,114.17l.86,1a7.69,7.69,0,0,1-.72,4.67C154.51,118,155.5,116.06,156.07,114.17Z"/><path class="cls-291" d="M137.82,126.55a4.72,4.72,0,0,1,.06,5.46,1.9,1.9,0,0,1-1.61-.79c-.52-.95-.22-2.06-.64-3C135.78,126.87,136.64,126.5,137.82,126.55Z"/><path class="cls-292" d="M184.19,118.39c.17-1.07.53-2,1.81-2.13,0,1.29,2.16.92,1.82,2.43-1.36-.51-2.42.25-3.52.85Z"/><path class="cls-46" d="M168.43,117.83l.26,2.37c.43.9-.1,1.37-.8,1.77a2.27,2.27,0,0,1-2.12-.31c-1.33-1.94-.58-3.25,1.28-4.22A1.68,1.68,0,0,1,168.43,117.83Z"/><path class="cls-293" d="M183.47,144.87c-.78,2.16-2.69,3.3-4.26,4.75a.63.63,0,0,1-1-.14A8.69,8.69,0,0,1,183.47,144.87Z"/><path class="cls-294" d="M177.08,153a10.11,10.11,0,0,1-1.62,4.81c-1.84-2,0-3.32.82-4.83C176.57,152.34,176.83,152.35,177.08,153Z"/><path class="cls-295" d="M123.54,180.94c-.26,1-.53,1.94-.79,2.91l-1.85-5.37,1-1.12Z"/><path class="cls-296" d="M145.74,215.42c-1.43,1.7.39,2.93.65,4.38-.3.67-.64.69-1,.06-1.79-1.57-2.37-3.27-.58-5.23C145.19,214.8,145.68,214.86,145.74,215.42Z"/><path class="cls-43" d="M185.49,146.31l1.34,1.08c-2.11.09-2.25,2.21-3.37,3.31C182.61,148.53,184.25,147.52,185.49,146.31Z"/><path class="cls-297" d="M165.86,225.76c0-.29,0-.57,0-.86-.32-.41-.2-.62.3-.64l5-.3c0,.33,0,.66,0,1Z"/><path class="cls-298" d="M183.09,125.77l3.83-3.44-.74,2.46c.23,1-.22,1.24-1.1,1.1C184.41,126,183.7,126.62,183.09,125.77Z"/><path class="cls-254" d="M164.93,114.17c.36-1.07-.3-2.43.89-3.27.37,1.14-.07,2.78,1.82,3a2.26,2.26,0,0,1-.1,1.18c-.71,1.17-1.52,2-2.9.85A2.3,2.3,0,0,1,164.93,114.17Z"/><path class="cls-299" d="M166.73,139.29l0-4.77a.59.59,0,0,1,1,0C169,136.44,168.46,138,166.73,139.29Z"/><path class="cls-300" d="M127.07,153.86l-1.48,2.55c-.13-1.67-.39-3.36.84-5.16C127.39,152.06,127.16,153,127.07,153.86Z"/><path class="cls-301" d="M155.16,130.19l.31-5.33h.59c0,2.64.07,5.28.1,7.92-.24.43-.46.44-.68,0C155.38,131.9,155.27,131,155.16,130.19Z"/><path class="cls-302" d="M128.42,139.52l-2.12.3-.69.11a2.23,2.23,0,0,1,.77-2.27c.16-.57.2-1.22.93-1.42Z"/><path class="cls-300" d="M167.6,131.52c.16-1.41,1.11-2.83,0-4.23a1.18,1.18,0,0,1,.95-1.59C170,127.93,170.06,129.92,167.6,131.52Z"/><path class="cls-303" d="M143.78,140c-1.11-.53-2.49,1.05-3.35-.42-.13-.22.16-.91.44-1.09C142.34,137.56,143.2,138.39,143.78,140Z"/><path class="cls-304" d="M175.62,141.42l.92-1.6c.62-.47-.16-2.17,1.51-1.71.27.95,1,.81,1.73.74a.61.61,0,0,1,1.08.1,2.2,2.2,0,0,1-.15.72C178.69,139.31,177.55,141.51,175.62,141.42Z"/><path class="cls-305" d="M151.85,137.4c-1.47-.86-.3-2.71-1.4-3.71a1.65,1.65,0,0,1,2.21,0C152.75,135,152.89,136.33,151.85,137.4Z"/><path class="cls-306" d="M179.2,160.11c-.22-1.41.14-2.51,1.63-3,0,1.65.14,3.31-.75,4.81C179.18,161.61,179.69,160.62,179.2,160.11Z"/><path class="cls-307" d="M180.87,156.8c-1.25-2.2-.17-3.6,1.63-4.75A8,8,0,0,1,180.87,156.8Z"/><path class="cls-308" d="M145.38,219.86l1-.06,2.3,1.73-3.88,1.7C144.57,222,146,221.11,145.38,219.86Z"/><path class="cls-309" d="M142.89,131.87a6.12,6.12,0,0,1-1.15,5c-.91-1.84.25-3.37.45-5C142.41,131.38,142.64,131.37,142.89,131.87Z"/><path class="cls-264" d="M171.05,138.92h-.63l0-6.93a.49.49,0,0,1,.82-.09Z"/><path class="cls-296" d="M145.74,215.42l-.94-.79c1.95-1,3.55-1.07,4.14,1.56Z"/><path class="cls-310" d="M137.77,138.84l.81-4.9a.67.67,0,0,1,0-1.13C140.24,135.09,140.2,137.14,137.77,138.84Z"/><path class="cls-289" d="M145.66,127.3c-1.72,1.26-.6,3.07-.89,4.6a5.22,5.22,0,0,1,0-6.2C145.41,126,146,126.41,145.66,127.3Z"/><path class="cls-311" d="M185.08,125.89l1.1-1.1c1.42,1.3.9,2.56-.06,3.82C184.88,128,185.5,126.77,185.08,125.89Z"/><path class="cls-312" d="M167.8,121.3l.89-1.1c.86,1.27,1.15,2.55,0,3.83a1,1,0,0,1-1.33-.06A1.93,1.93,0,0,1,167.8,121.3Z"/><path class="cls-313" d="M145.56,120.69c-1.62.55,0,2.74-1.64,3.28a2.46,2.46,0,0,0-.2-.84c.23-1.64-.19-3.57,1.94-4.37a1.6,1.6,0,0,1,.48,1A1.34,1.34,0,0,1,145.56,120.69Z"/><path class="cls-314" d="M179,122.43c-1,1.53-.56,3.21-.49,4.85-.28.52-.65.59-1.09.2l-.43.06C178.15,126,175.61,123.07,179,122.43Z"/><path class="cls-315" d="M162.34,134.6l-.08,1.05-2.47-1.74-1-1.13,1.75-.79Z"/><path class="cls-316" d="M164.72,156.65c-.81-2.55-.75-3.86.59-5.15C166,153.05,164.88,154.17,164.72,156.65Z"/><path class="cls-317" d="M160.63,114.14a9.46,9.46,0,0,0,0,5.09C159,117.53,157.94,115.83,160.63,114.14Z"/><path class="cls-313" d="M176.16,135.51l-1.81-.16-.24.06a2.8,2.8,0,0,1,2.3-2.6l.76,2.62C176.89,136.1,176.55,136.13,176.16,135.51Z"/><path class="cls-111" d="M177.08,153l-.8,0a4.81,4.81,0,0,1,2-3.47l1,.14A6.53,6.53,0,0,1,177.08,153Z"/><path class="cls-318" d="M186,113.3c-1.2.26-2.47.34-3.44,1.23C182.88,111.67,183.09,111.59,186,113.3Z"/><path class="cls-319" d="M174.11,135.41l.24-.06c0,1.8-1,3.58-.09,5.4C171.36,139,173.29,137.21,174.11,135.41Z"/><path class="cls-320" d="M167.76,104.6h1.51a2.63,2.63,0,0,1-1.2,3.07A3.88,3.88,0,0,1,167.76,104.6Z"/><path class="cls-321" d="M159.8,104.62l1.52-2.62c.07,1,.2,1.92.19,2.88,0,.58.25,1.6-.76,1.43C160.35,106.24,160.11,105.21,159.8,104.62Z"/><path class="cls-322" d="M201.94,139.76l-2.67,3.61C198.19,140.72,199.81,140.05,201.94,139.76Z"/><path class="cls-315" d="M122,140.64c1,.43.32,2.19,1.78,2.26.16.66.05,1.2-.67,1.46-1.07.41-1.64-.16-2-1l.23-1.78A1.17,1.17,0,0,1,122,140.64Z"/><path class="cls-323" d="M139.08,146.71c-.69-1.93.43-2.94.79-4.84C140.79,144.06,140.48,145.31,139.08,146.71Z"/><path class="cls-276" d="M121,143.32l2,1c-1.81,1.25-3.29,1.16-4.21-1.08Z"/><path class="cls-324" d="M132.36,148.06c1.38.75,1.56,1.79,1.45,3.19C132.11,150.6,132,149.55,132.36,148.06Z"/><path class="cls-325" d="M137.82,126.55c-.21,1-1.33,1-1.9,1.64-.12.39-.35.47-.69.26l-.13-.09c-.82-1.68,0-2.79,1.32-3.71a1.57,1.57,0,0,1,1.21.21Z"/><path class="cls-310" d="M189.62,152.79c-.26,1.55-1.28,3-.44,4.67C186.56,155.64,187.41,154.15,189.62,152.79Z"/><path class="cls-326" d="M160.83,154.71c1.43,2.2.46,3.84.61,6.41C160.19,158.54,160.7,156.9,160.83,154.71Z"/><path class="cls-327" d="M135.05,161a22.45,22.45,0,0,1-.74-2.33c-.15-.79.27-1.52,1.08-1.26s.55,1.15.44,1.83C135.38,159.74,135.81,160.64,135.05,161Z"/><path class="cls-328" d="M167.73,134.53h-1l-1.76-.2c-.19-.17-.25-.33-.18-.5s.13-.25.19-.25l2.68-2Z"/><path class="cls-322" d="M137.63,124.86l-.22,0h-.22c-1.59-1-.64-2.34-.36-3.58a2.07,2.07,0,0,1,.95-.9C139.17,122,139.16,123.43,137.63,124.86Z"/><path class="cls-329" d="M137.78,120.42l-.08,1.13a1.55,1.55,0,0,1-1.8,0,.88.88,0,0,1,.06-1.14c.67-.83.7-2.14,1.91-2.58Z"/><path class="cls-280" d="M171.21,131.9a2.28,2.28,0,0,1-.82.09,2.5,2.5,0,0,1,.94-2.72.92.92,0,0,1,.49-.07C171.77,130.14,172.26,131.19,171.21,131.9Z"/><path class="cls-275" d="M138.62,132.81l0,1.13-2.84.16a2.08,2.08,0,0,1,1.35-3l.79.87Z"/><path class="cls-330" d="M151.71,152.08v5.3a8.65,8.65,0,0,1-.78-5.26C151.16,151.51,151.42,151.5,151.71,152.08Z"/><path class="cls-331" d="M148.17,137.09a6.25,6.25,0,0,1-.86.08c.33-1.06-.56-1.75-.79-2.65l1.67-1a1.61,1.61,0,0,1,1.06,1.08Z"/><path class="cls-332" d="M151.71,152.08a6.79,6.79,0,0,1-.78,0c0-1.43-.47-3,1.33-4.64C152,149.43,151.87,150.76,151.71,152.08Z"/><path class="cls-333" d="M146.37,150.39c-.42-.83-1.34-2.12,0-2.34,1.23-.19,1,1.39.88,2.35C147,151,146.67,151,146.37,150.39Z"/><path class="cls-334" d="M127.12,166.17c1,1,1.32,2.05.39,3.71l-1-3.83C126.77,165.63,127,165.69,127.12,166.17Z"/><path class="cls-335" d="M145.66,127.3l-.91-1.6-.2-.85c1.52.4,2,1.76,2.81,2.88l.08.54Z"/><path class="cls-46" d="M196.59,156.41a3.68,3.68,0,0,0,0-.74c.49-2,1.51-3,3.58-1.79l-.05,0A3.64,3.64,0,0,1,196.59,156.41Z"/><path class="cls-274" d="M162.35,128.44c-.58,0-1.15-1.19-1.75,0-1.9-.76-.49-1.71-.15-2.61l.14,0C162.7,125.65,163.21,126.59,162.35,128.44Z"/><path class="cls-336" d="M177.23,145.64l0,0a5.58,5.58,0,0,1,2.78-3.23A2.93,2.93,0,0,1,177.23,145.64Z"/><path class="cls-137" d="M157.84,107.3h-1.47l-.31-1.57,1.91-1.07C157.92,105.54,157.88,106.42,157.84,107.3Z"/><path class="cls-275" d="M180.86,139l-1.08-.1c1.17-.95,2.11-2.22,3.69-2.6A5.14,5.14,0,0,1,180.86,139Z"/><path class="cls-337" d="M135.05,161l.78-1.76v4.27C134.61,162.9,135.23,161.83,135.05,161Z"/><path class="cls-338" d="M179.2,160.11c.29.61.58,1.21.88,1.82l-.33,3.33-.82-1Z"/><path class="cls-319" d="M133.3,108.34a7.32,7.32,0,0,0-.69,4.22.89.89,0,0,1-1.05,0c.06-1.41.11-2.83.16-4.24Z"/><path class="cls-287" d="M163.18,109.23c-1.45,1.06,0,3.35-1.77,4.26C161.8,112,160.3,109.7,163.18,109.23Z"/><path class="cls-339" d="M155.48,132.75a2.57,2.57,0,0,1,.68,0c.22.66.45,1.32.63,2,0,0-.51.31-.64.24C155.23,134.49,155.42,133.6,155.48,132.75Z"/><path class="cls-92" d="M167.66,114.22l0-.33c1.65,1,.8,2.57.79,3.94l-.4,0-.4,0C166.38,116.63,166.93,115.43,167.66,114.22Z"/><path class="cls-340" d="M186,100.11l.77,1.82c-.24.77-.86,2.1-1.34,1.58C184.51,102.54,185.36,101.2,186,100.11Z"/><path class="cls-322" d="M127.12,166.17a3.55,3.55,0,0,0-.65-.12c-.08-1.1-.15-2.21-.23-3.31l.82-.86Z"/><path class="cls-272" d="M146.37,150.39h.93l0,4.2a2.4,2.4,0,0,0-.59.13C146.58,153.28,146.47,151.84,146.37,150.39Z"/><path class="cls-341" d="M139.36,153.8c-.85-1.31-.5-2.83-.7-4.24C140.36,150.72,139.15,152.38,139.36,153.8Z"/><path class="cls-342" d="M125.32,187.25c-1.07-1.5-.65-3.22-.7-4.88A11.75,11.75,0,0,1,125.32,187.25Z"/><path class="cls-343" d="M171.18,145.09h.69c.09,1.14.19,2.28.28,3.42a.77.77,0,0,0-.15.77C170.31,148.17,171.31,146.52,171.18,145.09Z"/><path class="cls-255" d="M130,106.27l1.46,0,.16,1.88C129.43,109,129.83,107.52,130,106.27Z"/><path class="cls-46" d="M207.92,144.68l0,0c.3-1.51,1.13-2.34,2.75-2.17C210,143.59,209.48,144.79,207.92,144.68Z"/><path class="cls-3" d="M166.12,224.26a2,2,0,0,0-.3.64c-1.51-.51-3.23.47-4.66-.63Z"/><path class="cls-344" d="M167.8,124.08l.89,0-.15,1.67-.95,1.59-.91-.05a2,2,0,0,1-.54-1A2,2,0,0,1,167.8,124.08Z"/><path class="cls-345" d="M142.89,131.87l-.7,0v-4.64A6.53,6.53,0,0,1,142.89,131.87Z"/><path class="cls-187" d="M156.06,124.86h-.59c-.1-.59-.19-1.18-.28-1.77.39-.86-.37-2.16,1-2.63Z"/><path class="cls-346" d="M171.07,238.24c0,1.37,3.37.39,1.87,2.75l-3.49-.1a3.12,3.12,0,0,1-1,.7,6.11,6.11,0,0,1-1.28.07c-1.21-.06-1.67-1.26-2.62-1.71-1.59-.29-2.47-1.56-3.53-2.58-.79-1-.06-1.2.67-1.28,1.56-.15,3.13,0,4.7-.08C168.53,235.45,170.46,235.46,171.07,238.24Z"/><path class="cls-347" d="M131.42,236.61l1.73-.12a67,67,0,0,1,16.07-.75c1.34.78,3-.29,4.28.75l1.92-.7c1,.89,3-.89,3.45,1.36C149.72,237,140.54,238.07,131.42,236.61Z"/><path class="cls-348" d="M158.87,237.15c-.83-1.25-2.46-.5-3.45-1.36l11.3-.35a.55.55,0,0,1,.21.6q-.1.3-.21.3c-1.85.7-4.07-.64-5.75,1C160.09,239,159.56,237.29,158.87,237.15Z"/><path class="cls-349" d="M159.69,284.81l-1.6.05v-10c1.34,1,.75,2.34.88,3.47.66,1.51-.06,3.2.6,4.71a2,2,0,0,1,.18.76Z"/><path class="cls-350" d="M148.4,282.31l-.86-1a8.28,8.28,0,0,1,1.39-5.77A13.71,13.71,0,0,1,148.4,282.31Z"/><path class="cls-322" d="M162.8,261.68c1.83,1.61,1.3,3.87,1.59,5.95C162.62,266,163.47,263.65,162.8,261.68Z"/><path class="cls-351" d="M135,264.51c-.33,1.84-.32,3.78-1.54,5.36-.28.61-.56.62-.86,0l1.58-6.3C134.71,263.63,134.72,264.17,135,264.51Z"/><path class="cls-330" d="M141.46,277.86c.34-1.67.69-3.34,1.14-5.54.63,2.59.82,4.57-.36,6.45A1.35,1.35,0,0,1,141.46,277.86Z"/><path class="cls-352" d="M132.55,269.89a4.94,4.94,0,0,1,.86,0,11.37,11.37,0,0,1-2.19,6.34C130.62,273.53,132.18,271.83,132.55,269.89Z"/><path class="cls-353" d="M135,257.2c.07-1.41.15-2.82.22-4.23l.62,0v6.3C134.08,259.16,134.87,258,135,257.2Z"/><path class="cls-354" d="M162.85,258.86c-1.72-2.07-1.44-3.17-.72-4.37Z"/><path class="cls-296" d="M129.63,282.22l-1.54-.05a6.19,6.19,0,0,1,1.71-3.38C131.06,280.1,129.5,281.14,129.63,282.22Z"/><path class="cls-355" d="M174.46,282.2l-1.66.81c.91-1.36-.53-2.67-.05-4.38C174.07,279.63,174.11,281,174.46,282.2Z"/><path class="cls-356" d="M164.5,240l2.7,1a1.09,1.09,0,0,1,.83.62,1,1,0,0,1-.43.93C165.73,242.66,164.76,241.73,164.5,240Z"/><path class="cls-357" d="M121.07,274.26c.46-1.2.42-2.72,2.31-3.42a6.35,6.35,0,0,1-1.17,3.49C121.79,274.86,121.42,274.84,121.07,274.26Z"/><path class="cls-337" d="M163.77,271.32c.34-.13.74-.42,1.06-.36a1.24,1.24,0,0,1,.8.78c.13.56,0,1.23-.82,1C164.52,272.68,164.35,272.15,163.77,271.32Z"/><path class="cls-336" d="M141.46,277.86l.78.91a4.71,4.71,0,0,1-1.08,3.45l-.32,0h-.32C140.83,280.78,141.15,279.32,141.46,277.86Z"/><path class="cls-358" d="M135,257.2l.84,2-.56,1.94c-.62,0-.63-.57-.91-.88A3.88,3.88,0,0,1,135,257.2Z"/><path class="cls-359" d="M134.35,260.3l.91.88-.31,3.33-.82-.92Z"/><path class="cls-282" d="M121.07,274.26l1.14.07c-.34,1.23,0,2.66-1,3.67l-.93-2Z"/><path class="cls-360" d="M159.57,283c-1-1.46-.76-3.09-.6-4.7A9.2,9.2,0,0,1,159.57,283Z"/><path class="cls-361" d="M167.6,242.51l0-.77a.65.65,0,0,1,1-.11.74.74,0,0,1-.17,1.05l0-.08Z"/><path class="cls-359" d="M166.72,236.34v-.9a5.39,5.39,0,0,1,3.59-.57l1,.83c.67.69,1.39,1.37.79,2.47l-1.05.07C169.64,237.57,168.53,236.14,166.72,236.34Z"/><path class="cls-362" d="M129.39,229.14a7,7,0,0,1,5.75.54C133.29,230.57,131.61,230.33,129.39,229.14Z"/><path class="cls-363" d="M129.69,233.08l1.83-.88c1.42-.12,2.86-.48,4.52.58C133.84,234.53,131.77,233.87,129.69,233.08Z"/><path class="cls-359" d="M153.5,236.49c-1.44-.16-3,.21-4.28-.75C150.67,235.89,152.33,234.76,153.5,236.49Z"/><path class="cls-92" d="M95.56,137.19c1.15,1.2,3.6,1.08,3.52,3.5-1.08,1.15-.14,3-1.35,4.08-2.67,2.38-4.51-.19-6.63-1.1l-1.62-1.44a.69.69,0,0,1-.2-.68c.06-.23.12-.34.19-.34.93-1.05,2.7-.2,3.49-1.55C94.09,139.11,93.52,136.76,95.56,137.19Z"/><path class="cls-235" d="M88.52,137a23.09,23.09,0,0,1-2.08-2.24c-.83-1.14-2.35-2.78-.82-3.73s3.38-.06,3.75,2.21c.81,1.2,2.45,2.17,1.18,4A1.35,1.35,0,0,1,88.52,137Z"/><path class="cls-364" d="M99.06,153c-1.41.12-2.27-1-3.38-1.53a1.77,1.77,0,0,1-.17-2.32v-.24c2.28-3,4.49-.69,6.72.09a2.88,2.88,0,0,1,.92,2.64C102.31,153.62,100.9,154,99.06,153Z"/><path class="cls-231" d="M95.56,137.19c-1.32.85,1.61,3.72-1.71,3.61a2.29,2.29,0,0,1-1.2-.6,4.69,4.69,0,0,1-1.46-4.35c.22-1-.11-2.51,1.78-2.18l1.7-.26A5.4,5.4,0,0,1,95.56,137.19Z"/><path class="cls-277" d="M91.1,143.67c2.61-.94,4.49,1.3,6.83,1.57a1.46,1.46,0,0,1,.8.82c-.47,4.08-3.26,1.24-5,1.67C92.35,146.73,91.19,145.55,91.1,143.67Z"/><path class="cls-365" d="M93.69,139.61l.16,1.19c-.86,3.47-3,.11-4.43.87-.84-.53-1.7-1-1.82-2.18-.95-.74-1.06-1.53-.14-2.37C89.62,137.74,91.94,138,93.69,139.61Z"/><path class="cls-366" d="M93.77,147.73c1.18-1.16,4.55,1.21,4.12-2.55a3,3,0,0,1,2.69.78,5.42,5.42,0,0,1,1.85,2.28,2.82,2.82,0,0,1-.11,2.17c-2.25-.63-4.19-2.62-6.82-1.55C94.63,148.93,94.26,148.25,93.77,147.73Z"/><path class="cls-367" d="M93.69,139.61c-2.42,0-4.18-1.6-6.23-2.49l1.06-.17L90,137c.66-.1,1-1.18,1.86-.62Z"/><path class="cls-368" d="M91.86,136.38,90,137c.55-1.4-.31-2.56-.63-3.81,1.08,1,2.72-2,3.6.48C91.53,134.14,91.9,135.34,91.86,136.38Z"/><path class="cls-369" d="M95.51,149.1c.06.77.11,1.54.17,2.32-.92.07-1.89,1-2.74-.15a1.08,1.08,0,0,0-.08-.86A4.09,4.09,0,0,0,95.51,149.1Z"/><path class="cls-370" d="M87.6,139.49c.61.73,1.21,1.46,1.82,2.18a.69.69,0,0,1,.06.56C88.37,141.65,86.61,141.51,87.6,139.49Z"/><path class="cls-289" d="M121,128.41l.07.87c0,.2,0,.4,0,.6-.29,1.39-.2,2.87-1,4.15a2.8,2.8,0,0,1-1.59,1c-2.33-.05-2.86-2.2-4.09-3.53a3.17,3.17,0,0,1-.08-2.4c.4-1.29-.72-2.89.82-4a2.73,2.73,0,0,1,2.35-.12,12.22,12.22,0,0,1,2.29,1.63A7.65,7.65,0,0,1,121,128.41Z"/><path class="cls-369" d="M111.36,121.29l-1.29-1.7c.11-.79.23-1.58.34-2.37,1-.93,2.07-.62,3.12-.09,1.35,1.81,2.62,3.66,2.8,6a1.94,1.94,0,0,1-1.31,1.43C112.59,124.83,112.2,122.81,111.36,121.29Z"/><path class="cls-239" d="M113.82,110.56l1.12,1.84c-.31,1.49.7,3.11-.43,4.53a1.49,1.49,0,0,1-1.24.37,2.29,2.29,0,0,1-1.55-2c-1.11-1.58-.76-3.36-.7-5.1C112.13,108.84,112.89,110.42,113.82,110.56Z"/><path class="cls-371" d="M118.28,115l.2,1.56c-.06,1.48,0,3-.11,4.45a1.56,1.56,0,0,1-2.4,1.47,6.42,6.42,0,0,1-.88-6.25A2.58,2.58,0,0,1,118.28,115Z"/><path class="cls-372" d="M124.55,134.59l-.68.76c-.89-.21-1.06.74-1.63,1.05a1,1,0,0,1-1.27.1,12,12,0,0,1,.1-7.3l0,.08C123.11,130.45,122.46,133.43,124.55,134.59Z"/><path class="cls-272" d="M110.31,99.53c.27-.31.55-.62.82-.94l1.58-.77c-1,1.87,0,4-.85,6.67Z"/><path class="cls-373" d="M124.71,125.73l.9-1.16c.39,1.9,1.51,3.82-.17,5.66C124.33,128.87,124.71,127.27,124.71,125.73Z"/><path class="cls-278" d="M117.65,120.57c0-1.4-.52-2.9.83-4,1.68,1.34.4,3.21.86,4.77C118.4,121.92,118,121.22,117.65,120.57Z"/><path class="cls-314" d="M121,128.41l-1.33-.84c-1.41-1.49-1.26-3.25-.86-5a.94.94,0,0,1,1.08-.32C121.46,124.05,121,126.27,121,128.41Z"/><path class="cls-345" d="M112.07,115.24l1,1.88a.72.72,0,0,1,.24.69c-.06.24-.12.36-.19.36-.82-.55-1.6-1.21-2.71-1-1.64-1.7,1.67-.84,1-2C111.68,114.83,111.89,114.82,112.07,115.24Z"/><path class="cls-374" d="M127.31,136.24l-.93,1.42c-.27-.95-.54-1.9-.8-2.85.07-.79-.28-1.73.77-2.17Z"/><path class="cls-349" d="M118.28,115l-2.47,1.1a.8.8,0,0,1-1.23-.25c-.08-1.08,0-2,1.51-1.75C117.24,113.37,117.72,114.29,118.28,115Z"/><path class="cls-311" d="M116.09,114.1a2.68,2.68,0,0,0-1.12,2.05c.19.89-.24,1-1,.81.77-1.43-.65-3.31.94-4.56Z"/><path class="cls-372" d="M112.07,115.24h-.31l-.31,0c-1.6-1.54-1.1-3.38-.74-5.2a.59.59,0,0,1,1,.07A7.22,7.22,0,0,0,112.07,115.24Z"/><path class="cls-92" d="M119.85,122.2a1.2,1.2,0,0,0-.69.14c-.54.62-.14,2.47-1.92,1.47a1.6,1.6,0,0,1,.22-1.76l.19-1.48,1.69.76C119.71,121.5,120.08,121.67,119.85,122.2Z"/><path class="cls-92" d="M105.1,117.9l1.11-1.15c.7,1.26,1.41,2.52,2.12,3.78C106.68,120.35,105.89,119.13,105.1,117.9Z"/><path class="cls-326" d="M111.71,110.07l-1-.07c1.59-2.88,2.32-1,3.11.56Z"/><path class="cls-375" d="M105.32,158.29c-2.16-.75-4-1.82-4.5-4.31a5.81,5.81,0,0,1,4.85-1.33c2.32.17,3.4,1.78,4.24,3.67a.49.49,0,0,1-.23.58C108.55,158.4,107.22,159.22,105.32,158.29Z"/><path class="cls-376" d="M109.91,156.32l-3.83-2.52a4.38,4.38,0,0,1-.14-6,7.14,7.14,0,0,1,3.25,2.54c2,.59.08,2.64,1.31,3.52C110.47,154.72,110.71,155.65,109.91,156.32Z"/><path class="cls-377" d="M105.94,147.8l.14,6-5.26.18c-.66-.21-1.63.1-1.76-1a3.62,3.62,0,0,0,3.42-2.29c.91-1,.39-3.38,2.77-3.14A.76.76,0,0,0,105.94,147.8Z"/><path class="cls-378" d="M110.5,153.86a2.62,2.62,0,0,1-1.31-3.52c.2-.31.4-.62.61-.92a1,1,0,0,1,.71.06C112.43,150.94,110.51,152.4,110.5,153.86Z"/><path class="cls-21" d="M105.32,158.29c1.73.41,3-.7,4.36-1.39C108.84,159.29,107.49,160.06,105.32,158.29Z"/><path class="cls-379" d="M147.37,110.13c-.39-.91-.79-1.89.25-2.58a1.57,1.57,0,0,1,2.44.61,11.81,11.81,0,0,1,.44,4.22c0,.85.47,1.68.09,2.55a1.77,1.77,0,0,1-1,.86,2.43,2.43,0,0,1-2.85-1.53A9.54,9.54,0,0,1,147.37,110.13Z"/><path class="cls-269" d="M150,115.37a2.64,2.64,0,0,0,.08-.62c.43-1.36,1.46-1.31,2.31-.7,1.53,1.08.09,2.61.36,3.92l-.85,1.69-.09.65a1.89,1.89,0,0,1-3.59.27,5.75,5.75,0,0,1-.29-2A3,3,0,0,1,150,115.37Z"/><path class="cls-380" d="M145.72,119.41a2.35,2.35,0,0,1-.06-.65l-.78-.84c-1-1.31-.4-2.79-.45-4.2,1.92-1.83,2.3.31,3.15,1.22a4,4,0,0,1,.61,1.27c.05,1.4.37,2.82-.4,4.13C146.58,121.18,146.16,120.27,145.72,119.41Z"/><path class="cls-381" d="M152.72,118c-1.76-.35,1.47-4.84-2.67-3.22-.41-.74-.79-1.48.08-2.17.27-.61.53-.61.8,0C154.61,113.35,153.94,115.57,152.72,118Z"/><path class="cls-382" d="M147.43,115.16l-2.57-2.29,0,0c2,.15.94-2.53,2.54-2.77,0,1.39,0,2.78,0,4.17.28.19.37.38.28.57S147.52,115.16,147.43,115.16Z"/><path class="cls-383" d="M153.37,124.06l-.77-.09c-1.7-1.21-1.31-2.73-.63-4.3h-.1C155.2,120.16,153.13,122.5,153.37,124.06Z"/><path class="cls-290" d="M144.83,112.9l0,0c0,1.69,0,3.37,0,5C143.24,116.27,143.36,114.59,144.83,112.9Z"/><path class="cls-362" d="M144.88,102h1.66c-.06.93-.13,1.87-.21,3C145,104.22,145,103.1,144.88,102Z"/><path class="cls-297" d="M150.93,112.57l-.4,0-.4,0c0-1.47,0-3-.07-4.42C151.51,109.4,150.72,111.09,150.93,112.57Z"/><path class="cls-384" d="M131.61,133.8l-.89-1-.88-1.79a4.38,4.38,0,0,1-.37-4.08c1.13-1.15,1.59-.18,2.08.66C132.16,129.66,134.64,131.7,131.61,133.8Z"/><path class="cls-235" d="M133.18,124.34c-.48.8,1.2,3.08-1.59,2.31-1-.61-2.32-1-1.74-2.68l0-2.67c.29-2,1.4-.86,2.28-.57C133.46,121.63,132.94,123.1,133.18,124.34Z"/><path class="cls-385" d="M130.06,126.84l-.22,4.17c-1.84-1.14-1.9-2.66-.94-4.39A.72.72,0,0,1,130.06,126.84Z"/><path class="cls-386" d="M131.57,121.33c-.59.18-1.14-1.48-1.74,0-2.27-1.13.42-2.3,0-3.45a1.35,1.35,0,0,1,1.17-.21A2.42,2.42,0,0,1,132,120.9Z"/><path class="cls-387" d="M130.06,126.84l-1.16-.22c.38-.86-.26-2.09.95-2.65l1.74,2.68,0,.94Z"/><path class="cls-388" d="M131.56,112.57h1.05l.47,1c-.43.57-.75,1.26-1.47,1.56a2.29,2.29,0,0,1-1.61,0,5.26,5.26,0,0,1-.84-.71C129.41,113.05,130.77,113.19,131.56,112.57Z"/><path class="cls-339" d="M129.16,114.39l.91,0c.73,1.11,1.85,2.17.38,3.51h-.33l-.32,0C128.59,116.88,129,115.61,129.16,114.39Z"/><path class="cls-236" d="M105.25,147.52c-.9.62-.63,1.53-.54,2.36.36,3.48-1.16,1.47-2.23.78,0,0-.17-.26-.16-.26l-1.48-1.8c-.53-1.45-1.28-2.89-.28-4.43A1.41,1.41,0,0,1,102,144Z"/><path class="cls-389" d="M102,144l-1.07.25c-1.09.56-.07,2-1,2.56l-2-1.58,0,.06a15.35,15.35,0,0,1-1.24-3.7c-.18-2.59,1.25-1.51,2.4-.85C100.12,141.73,101.55,142.41,102,144Z"/><path class="cls-390" d="M115,130.86c1.74.76,2.3,2.53,3.36,3.88a1.27,1.27,0,0,1,.23,1.73c-2.22,1.34-2.82-1.43-4.4-1.72-.06-.36-.11-.72-.17-1.08l0-1.06c-.66-.32-1.17-.85-.75-1.54A1.2,1.2,0,0,1,115,130.86Z"/><path class="cls-391" d="M115.11,125.75c.26,1.22,2,2.17.67,3.68-1.42.57-2.34.19-2.64-1.38l-1.06-1.81a1.7,1.7,0,0,1-.07-2.32c1.18-.65,1.92.51,2.9.7a1,1,0,0,1,.29.72C115.19,125.61,115.16,125.75,115.11,125.75Z"/><path class="cls-350" d="M113.14,128.05l2.64,1.38-.83,1.43c-1.39,0-1.37.77-1,1.75C111.24,131.52,112.21,129.78,113.14,128.05Z"/><path class="cls-315" d="M114.73,125.25l-2.36-1.15c-1,.18-1.4-.15-1.19-1.16.28-.52-1.22-1.24.18-1.65l3.54,2.93A.72.72,0,0,1,114.73,125.25Z"/><path class="cls-392" d="M111.18,122.94l1.19,1.16c-.1.72-.19,1.43-.29,2.14C109.78,125.69,110.2,124.39,111.18,122.94Z"/><path class="cls-350" d="M114.14,134.75c1.66-.28,2.48,1.94,4.22,1.43.62,1,0,1.35-.76,1.67-1.47.81-.3,1.77-.15,2.67C114.38,139.72,116.59,135.9,114.14,134.75Z"/><path class="cls-393" d="M168.48,242.68l.06-1.06c-.3-.14-.41-.29-.32-.45s.18-.25.28-.25l.95,0C169.63,241.76,170.56,243,168.48,242.68Z"/><path class="cls-4" d="M172.12,238.17c-.37-.79-1.25-1.42-.79-2.47,1.69-.56,2.35.85,3.28,1.74C174.12,238.82,173,238,172.12,238.17Z"/><path class="cls-394" d="M80,40.6a2,2,0,0,1,2.16,1.79,1.95,1.95,0,0,1-3.88.35C78.12,41.56,78.9,40.9,80,40.6Z"/><path class="cls-395" d="M75.41,45.14A1.94,1.94,0,0,1,77.55,47a1.82,1.82,0,0,1-1.76,2.1,1.85,1.85,0,0,1-2.09-1.78C73.57,46.07,74.39,45.46,75.41,45.14Z"/><path class="cls-396" d="M77.58,38a1.79,1.79,0,0,1-1.91,1.86,1.75,1.75,0,0,1-2-1.83,1.83,1.83,0,0,1,1.9-1.94C76.83,36.08,77.39,36.88,77.58,38Z"/><path class="cls-397" d="M73,42.42c0,1.22-.6,2-1.76,2a1.75,1.75,0,0,1-2-1.78,1.81,1.81,0,0,1,1.78-2C72.22,40.55,72.75,41.38,73,42.42Z"/><path class="cls-398" d="M88.7,49.39l3.8,2.19C90.54,52.16,89.23,51.42,88.7,49.39Z"/><path class="cls-399" d="M64.12,36.37a4.78,4.78,0,0,1-2.88-1.9c1.67-.41,2.43.5,3.23,1.26C64.52,35.77,64.25,36.15,64.12,36.37Z"/><path class="cls-400" d="M62.22,50.81c-.87.66-1.52,1.8-3,1.28.4-1.61,1.75-1.68,2.94-2,.24.13.33.27.27.43S62.29,50.81,62.22,50.81Z"/><path class="cls-401" d="M84.45,37.85c.41-1.57,1.22-2.37,2.17-1.81s-.1,1-.57,1.35A7.68,7.68,0,0,1,84.45,37.85Z"/><path class="cls-402" d="M85.05,47.34c.57.14,1.16.34,1.17,1,0,.53-.47.67-.88.5a1.92,1.92,0,0,1-1-.78C84.16,47.63,84.5,47.31,85.05,47.34Z"/><path class="cls-402" d="M55.93,31.81l.86-.8c.9.39,1.93.61,2.3,2C57.62,33.62,56.85,32.49,55.93,31.81Z"/><path class="cls-191" d="M64.82,48.45c.57-.67,1.71-1.53,2-.73.39,1.06-1.13,1.26-2,1.57-.29-.19-.39-.38-.29-.56S64.72,48.45,64.82,48.45Z"/><path class="cls-191" d="M64.82,48.45c0,.28,0,.56,0,.84a4.36,4.36,0,0,1-2.59,1.52,3.08,3.08,0,0,0-.07-.68A4.17,4.17,0,0,1,64.82,48.45Z"/><path class="cls-403" d="M226.32,47.1c-.22,1.09-.82,2-1.95,2a2,2,0,1,1,0-4C225.47,45.16,226.08,46,226.32,47.1Z"/><path class="cls-404" d="M230.79,42.38a2,2,0,0,1-1.77,2.1,1.77,1.77,0,0,1-2.13-1.58,1.84,1.84,0,0,1,1.88-2.28A2,2,0,0,1,230.79,42.38Z"/><path class="cls-405" d="M219.46,40.61a1.88,1.88,0,0,1,2.14,1.79,1.74,1.74,0,0,1-1.73,2.08,1.79,1.79,0,0,1-2.09-1.73A2,2,0,0,1,219.46,40.61Z"/><path class="cls-397" d="M226.21,38.06a1.88,1.88,0,0,1-2,1.83,1.74,1.74,0,0,1-1.87-1.9,1.82,1.82,0,0,1,1.95-1.85C225.49,36.16,226,37,226.21,38.06Z"/><path class="cls-406" d="M213.46,36.4a4.77,4.77,0,0,1-4.23-2.64A5.16,5.16,0,0,1,213.46,36.4Z"/><path class="cls-399" d="M243.17,53.1a4.84,4.84,0,0,0,0,.76c-1.55-.58-3.16-1.08-4.36-2.78C240.94,50.88,242,52.2,243.17,53.1Z"/><path class="cls-407" d="M236.83,49.61c-2.09.5-2.82-.9-3.79-1.81C234.6,47.46,235.65,48.2,236.83,49.61Z"/><path class="cls-408" d="M237,35.9c-1.14.68-2.14,1.69-3.78,1.64.6-1.56,1.9-1.8,3-2.29C237,34.74,237,35.26,237,35.9Z"/><path class="cls-161" d="M237,35.9l-.78-.65a5.74,5.74,0,0,1,3.48-1.85c.24.14.34.29.28.45s-.13.26-.21.26Z"/><path class="cls-399" d="M239.72,34.11a2.85,2.85,0,0,0-.07-.71,4.32,4.32,0,0,1,2.68-1.67l1.24.09A8.48,8.48,0,0,1,239.72,34.11Z"/><path class="cls-409" d="M213.29,48.41c.66-.65,1.56-1.73,2.28-.75.56.76-.77,1.11-1.47,1.44A1,1,0,0,1,213.29,48.41Z"/><path class="cls-161" d="M206.25,53.46v-.88l1.88-1.28a.9.9,0,0,1,.78.64A4.19,4.19,0,0,1,206.25,53.46Z"/><path class="cls-408" d="M213.29,48.41l.81.69-2.43,1.13a.63.63,0,0,1-1.1-.09Z"/><path class="cls-408" d="M210.57,50.14l1.1.09a5.15,5.15,0,0,1-2.75,1.71l-.78-.64Z"/><path class="cls-409" d="M150.84,66l-1.13.06c-1.12-4.43-.35-8.87-.46-13.3l1.59-.09Z"/><path class="cls-407" d="M149.32,20.25l1.44-.8V32l-1.2,0C148.79,28.11,149.23,24.17,149.32,20.25Z"/><path class="cls-410" d="M145.6,40.6a2,2,0,0,1,1.78,2,1.8,1.8,0,0,1-2,1.86,1.75,1.75,0,0,1-1.84-2A1.89,1.89,0,0,1,145.6,40.6Z"/><path class="cls-411" d="M154.69,44.52c-1.36-.19-2.1-.75-2.07-2a1.86,1.86,0,1,1,3.71,0A1.9,1.9,0,0,1,154.69,44.52Z"/><path class="cls-411" d="M150.08,49.07a1.85,1.85,0,0,1-1.94-1.8,1.74,1.74,0,0,1,1.68-2.06,1.77,1.77,0,0,1,2,1.76C151.94,48.18,151.19,48.76,150.08,49.07Z"/><path class="cls-412" d="M150.15,36.18a1.82,1.82,0,0,1,1.64,2.16c-.14,1.26-1.13,1.65-2.22,1.49a1.56,1.56,0,0,1-1.4-1.85A1.75,1.75,0,0,1,150.15,36.18Z"/><path class="cls-413" d="M162.39,35.86c-1.09.89-2,2.1-4,1.72a5.58,5.58,0,0,1,4-2.37c.24.13.33.27.26.42S162.46,35.86,162.39,35.86Z"/><path class="cls-399" d="M165.63,51.43c-2.14.23-2.91-1-3.92-1.87C163.34,49.28,164.35,50.11,165.63,51.43Z"/><path class="cls-399" d="M141.48,37.6c-1.56.33-2-.58-3.36-1.28C140.05,35.87,140.83,36.34,141.48,37.6Z"/><path class="cls-414" d="M170.35,53.61l-1,1c-.81-.48-1.9-.62-2.2-2C168.6,51.89,169.41,53,170.35,53.61Z"/><path class="cls-415" d="M130.63,54.52l-.95-.91a6.73,6.73,0,0,1,3.59-1.78c.28.16.39.34.31.53s-.15.3-.24.3A5.24,5.24,0,0,1,130.63,54.52Z"/><path class="cls-408" d="M133.34,52.66a2.11,2.11,0,0,0-.07-.83L136,50.19c.87-.52.87,0,.77.64Z"/><path class="cls-416" d="M135.14,33.12c.43.45,1,.8,1.1,1.21.12.9-.57.75-1.05.45a6.94,6.94,0,0,1-1.06-1Z"/><path class="cls-191" d="M168.47,31.56a5,5,0,0,0,0,.77l-3.5,2c-.29-.19-.39-.37-.29-.56s.2-.28.3-.28A6.81,6.81,0,0,1,168.47,31.56Z"/><path class="cls-161" d="M136.76,50.83l-.77-.64c.71-.63,1.58-1.88,2.37-.84C138.92,50.09,137.49,50.48,136.76,50.83Z"/><path class="cls-191" d="M165,33.51c0,.28,0,.56,0,.84a4.3,4.3,0,0,1-2.6,1.52,3.6,3.6,0,0,0,0-.66A4,4,0,0,1,165,33.51Z"/><path class="cls-366" d="M131.61,114.32c.27-.69.9-.66,1.47-.74a1.82,1.82,0,0,0,2,1.75c0,1.74-1.9,3.82.89,5.07l.16,1.26a1.46,1.46,0,0,1-1.67,1.53l-1.27,1.15-1.61-3v.09C133.77,119.06,130.45,116.68,131.61,114.32Z"/><path class="cls-417" d="M134.45,123.19l1.67-1.53,1.58-.11-.51,3.35c-.76,1.11-2,2-2.09,3.46C133.49,126.82,134.43,125,134.45,123.19Z"/><path class="cls-256" d="M137.09,131.14c-.45,1-.89,2-1.35,3a1.56,1.56,0,0,1,.06.15c-.55,1.43-1.17.92-1.45-.07-.57-2,.22-3.87.88-5.72a.61.61,0,0,0,.69-.26C137.21,128.82,136.8,130.12,137.09,131.14Z"/><path class="cls-418" d="M177.38,136c1.63-1.57,1.49-3.63,1.55-5.63-.12-1.63.71-1.66,1.88-1.11-.12,1.2-1.64,2.33-.17,3.6.24,2-1.68,2.88-2.19,4.47C177.4,137.45,176.84,137.18,177.38,136Z"/><path class="cls-28" d="M180.81,129.27l-1.88,1.11c-.51-1-1-1.93-1.52-2.9l1.09-.2,1.31,1.06,1.63,0Z"/><path class="cls-345" d="M147.44,128.27a3.35,3.35,0,0,1-.08-.54c1.53-1,.57-2.48.86-3.72a1.19,1.19,0,0,1,1.06-.23c1.11.65.61,2.22,1.67,2.9l0-.1-1.9,3.58c-.26.65-.53.65-.82,0Z"/><path class="cls-21" d="M148.19,130.18c.27,0,.55,0,.82,0,.47,1.13-.75,2.72.94,3.52.15.59-.26.76-.7.9l-1.06-1.08Z"/><path class="cls-419" d="M177.38,136l1.07,1.33a1.73,1.73,0,0,1-.4.77l-1.51,1.71c-.13-1.44-.25-2.87-.38-4.31l1-.08A.63.63,0,0,1,177.38,136Z"/><path class="cls-254" d="M164.93,114.17l.12,2.09c1.27,2-1.07,4.43.9,6.3.72,2.1-.4,3.63-1.62,5.12a1.35,1.35,0,0,1-1.35-.22c-.67-2-2.19-3.88-.71-6.12,2.51-1.51-.76-3.93.88-5.57C164.3,115.85,164.05,114.39,164.93,114.17Z"/><path class="cls-420" d="M165,133.57a6.26,6.26,0,0,1,0,.75,1.14,1.14,0,0,1-.81.25h-.9c0-1.47,0-2.95,0-4.42.89-.42,1.17.27,1.5.85Z"/><path class="cls-251" d="M162.27,121.34c-.55,2.23,1.64,4,1.11,6.19,0,.72-.2,1.21-1.06.81l0,.1c-.19-1.16-.33-2.34-1.76-2.68.13-1.52-.91-3.34,1.1-4.39A5.49,5.49,0,0,0,162.27,121.34Z"/><path class="cls-421" d="M117.6,137.85l.76-1.67,0-1.44.75-1.07c1.62.15,1.13,2,2.16,2.65l1,.08c-.1,1.41-.19,2.82-.28,4.24l-.71.9C120.46,139.88,119.59,138.31,117.6,137.85Z"/><path class="cls-422" d="M149,124h-.82c-.89-1.1-1.77-2.21-2.66-3.32l.16-1.28,1.69,1.07a1,1,0,0,1,1.56,0l1.07.9C150.89,122.72,150.4,123.53,149,124Z"/><path class="cls-235" d="M200.19,153.88l-3.58,1.79h-3.09l1.29-2.71C196.55,153.58,199.06,149.73,200.19,153.88Z"/><path class="cls-366" d="M162.32,128.34l1.06-.81.94-.14c.65-.72,1.29-1.49,2.42-.81a1.23,1.23,0,0,0-.06.66c-.62,1.25-1.23,2.51-1.84,3.76l-1.5-.85Z"/><path class="cls-236" d="M149,124c.33-.87.66-1.74,1-2.61l1.93-1.73a5.55,5.55,0,0,1,.63,4.3c-1.14.55-1,1.84-1.65,2.71C148.34,127.2,149.39,125.1,149,124Z"/><path class="cls-423" d="M165.39,122c-2-1.8-1.32-3.76-.34-5.74l2.61-2,0,3.62c-.92,1.33-2.12,2.51-2.3,4.24Z"/><path class="cls-241" d="M165.39,122l-.06.09,2.47-.79v2.78c-.36.83-.71,1.66-1.06,2.5l-2.42.81C163.51,125.37,165.22,123.83,165.39,122Z"/><path class="cls-2" d="M168.5,240.92c0,.23,0,.46,0,.7l-.91.12c-.15-.26-.29-.52-.43-.78Z"/><path class="cls-424" d="M99.93,146.76c.52-.78-.8-2.3,1-2.56l-.11,4.4Z"/><path class="cls-235" d="M121.22,136.32c-2.54.59-1.4-1.8-2.16-2.65.21-1.7.12-3.53,2-4.47A9.08,9.08,0,0,1,121.22,136.32Z"/><path class="cls-425" d="M117.57,124.09l1.59-1.75a5.92,5.92,0,0,1,.47,5.23c-.35.69-.33,2.14-1.28,1.8-1.64-.58-.68-2.39-1.06-3.62A1.25,1.25,0,0,1,117.57,124.09Z"/><path class="cls-315" d="M117.57,124.09l-.28,1.66h-2.18a.47.47,0,0,1-.38-.5c0-.34.11-.69.17-1l.48-1c.26-.53.79-.64,1.28-.81a7.92,7.92,0,0,1,.8-.33Z"/><path class="cls-426" d="M116.66,122.38l-1.28.81-2.26-5-.05-1L114,117l1-.81a4.74,4.74,0,0,1,.84-.05C116,118.21,115,120.48,116.66,122.38Z"/><path class="cls-232" d="M147.43,115.16a4.12,4.12,0,0,0,0-.86l2.55,1.07-1,3.27c-2-.06-.68-1.82-1.34-2.56Z"/><path class="cls-313" d="M147.64,116.08l1.34,2.56v1.86l-1.56,0Z"/><path class="cls-242" d="M131.61,114.32c1.18,2.37,4,4.75-.05,7.1.39-1.42-.71-2.37-1.11-3.54a5.58,5.58,0,0,1-.38-3.51Z"/></svg>