<svg id="Layer_1" data-name="Layer 1" xmlns="http://www.w3.org/2000/svg" viewBox="0 0 300 300"><defs><style>.cls-1{fill:#d2ab67;}.cls-2{fill:#554529;}.cls-3{fill:#0b7645;}.cls-4{fill:#0b7545;}.cls-5{fill:#3a4b9a;}.cls-6{fill:#394a99;}.cls-7{fill:#d1aa66;}.cls-8{fill:#0b7444;}.cls-9{fill:#d0a965;}.cls-10{fill:#384997;}.cls-11{fill:#394997;}.cls-12{fill:#394998;}.cls-13{fill:#374894;}.cls-14{fill:#cba563;}.cls-15{fill:#384895;}.cls-16{fill:#c39f5f;}.cls-17{fill:#caa563;}.cls-18{fill:#042b19;}.cls-19{fill:#324085;}.cls-20{fill:#010a06;}.cls-21{fill:#032315;}.cls-22{fill:#02150c;}.cls-23{fill:#032113;}.cls-24{fill:#032314;}.cls-25{fill:#05321d;}.cls-26{fill:#0b7143;}.cls-27{fill:#032114;}.cls-28{fill:#063f25;}.cls-29{fill:#05351f;}.cls-30{fill:#131934;}.cls-31{fill:#02160d;}.cls-32{fill:#010e08;}.cls-33{fill:#053921;}.cls-34{fill:#042d1a;}.cls-35{fill:#0a683d;}</style></defs><path d="M18.92-.61H281.08a1,1,0,0,1,1,1v171A128.64,128.64,0,0,1,153.44,300h-6.15A129.36,129.36,0,0,1,17.93,170.63V.38a1,1,0,0,1,1-1Z"/><path class="cls-1" d="M150,3.12q61.86,0,123.71-.06c2.67,0,3.39.59,3.39,3.34q-.14,82.2-.07,164.41c0,59.32-43.28,111.77-101.57,122.87-31.16,5.94-61.07,2-88.61-14C53.08,260,32.67,230.49,24.88,192.25a105,105,0,0,1-1.88-21Q23,89,23,6.81C23,4,23.47,3,26.57,3Q88.27,3.22,150,3.12Z"/><path d="M167.43,250c4.19,6.06,4.57,12.36.64,18.58-3.72,5.89-9.4,8.34-16.21,7.3s-11.09-5.08-13.16-11.57a16.5,16.5,0,0,1-.42-7.09c.16-1.33-.2-1.8-1.61-2.12-8.62-1.9-13-6.91-13.86-15.7-.11-1.1.09-2.06-1.6-2.13-7.47-.33-12.88-3.91-15.34-11s-.32-13.18,5.31-18.38c-1.72-.29-3.18-.44-4.59-.79a16.3,16.3,0,0,1-12.51-14.86,16.1,16.1,0,0,1,10.4-16.06c2.39-.89,2.79-1.6,1.23-3.64-1.36-1.79-1.58-4.13-2.21-6.48-3.28,2.82-6.4,5.54-10.8,5.84-1,.08-1.22,1.13-1.61,1.86-3.8,7.08-9.79,11.46-17.31,13.86a7.64,7.64,0,0,0-3.16,2.07,41.24,41.24,0,0,1-4.9,4.25c-4.87,3.49-5.34,4.38-4.61,10.92-8-6.31-10.15-14.62-10.82-23.62-.24,0-.54-.12-.61,0-2.09,2.55-3,1.74-4.12-1-3-7.19-3.87-14.4-1.44-21.88.37-1.14,1.17-2.43-1.28-1.67-1.14.35-1.34-1.18-1.72-2q-5.92-13,3.38-23.89c.71-.83,2.9-1.72.28-3-.19-.1.1-1.43.35-2.11a13.84,13.84,0,0,1,4.74-6.08c2.12-1.64,4.32-3.17,7-5.1-3.43.6-6.57,1.58-9.12.17-3.08-1.71-6.08-1.88-9.38-1.77a6.16,6.16,0,0,1-5.14-2.13c2.75-1.4,3-3.88,3-6.58s.13-5.64.27-8.45a11.4,11.4,0,0,1,.47-2.22c.69-2.69,3-4.14,4.7-6-3.48-2-.76-4.64-.16-6.56C44,72.73,49.88,67.75,57.88,65.15c1.15-.38,2.29-.45,2.79-1.82,3.43-9.44,12-11.11,21.3-9.77a34.1,34.1,0,0,1,14,5.71c-1.32-3.86-1.11-7.29-.82-10.78s-2.7-4.14-5.41-4.7c2.51-3.94,8.83-5.42,14.27-3.08a7,7,0,0,0,6,.17c4.47-1.75,8,.58,10.89,3.8a6.71,6.71,0,0,0,4.86,2.62c3.77.27,6.45,2.53,8.2,5.71,5.17,9.41,7.38,19,1.31,28.95a6.72,6.72,0,0,0-.67,1.47c-.68,2.22-2.5,5.18-.61,6.55,1.66,1.2,4.48-.75,6.38-2.19,5.19-3.94,7.66-9.64,9.37-15.62A53.21,53.21,0,0,0,150.68,48c-.72-4-2.14-7.32-7-8.11-3.21-.52-4.67-3.54-4-6.78a8.74,8.74,0,0,1,1.46-3.57c8.44-10.59,18.64-17.82,33-16.6,4.67.39,6.81,2.38,8.2,7.16-2.69.15-5.36-.26-8,.47-9.1,2.51-15.1,10.43-13.71,19.66a101.73,101.73,0,0,1-1.8,38.09c-1.07,4.66-1.34,9.51,1.07,14,2,3.65,4.73,6.23,9.2,6.13.94,0,2.09,0,2.54-1.06a2.27,2.27,0,0,0-1-2.85c-5.5-3-5.73-8.19-5.76-13.53,0-6.29-.32-12.61,1.35-18.76,1.84-6.74,5.69-11.62,12.88-13.14a3.79,3.79,0,0,0,2.13-1.34c3.17-3.64,7.56-5.31,11.7-3.48s8.79,2.34,12.34,5.37c1.1.94,2.19,1.54.2,3.07-3.52,2.69-3.67,3.78-3.25,9.52,1.46-.09,1.76-1.47,2.5-2.28,3.17-3.47,6.64-6.28,11.66-6.22a7.19,7.19,0,0,0,3-1.12,14.83,14.83,0,0,1,17,3.23,3.4,3.4,0,0,0,2.39,1.37,13.14,13.14,0,0,1,10.66,7.08,20.58,20.58,0,0,0,7.83,8,11.9,11.9,0,0,1,5.54,10.48c0,1.65-.3,2.65-2.39,2.3-2.65-.44-4.82.65-6.65,2.63-1.23,1.35-2.69,2.49-4.19,3.86,3.38.91,2.56,2.46.83,4.41a23.32,23.32,0,0,1-16.82,8.06c-3,.17-6.07.16-9.1.38-.84.06-2.27.07-2.13,1.41.12,1.18,1.49,1.27,2.37,1.22a34.48,34.48,0,0,0,5.43-.86c8.84-2,16.78-.52,23.58,5.79,1.77,1.65,3.9,3.42,4.14,5.7.81,7.82,8.57,13.12,7.85,21.15a66.77,66.77,0,0,0,.52,15.61c.62,4.38-.9,8.51-3.69,12.45-1.52-2.19-2.5-4.72-5.27-5a21.12,21.12,0,0,0-7.65.91l3.07,2.65c-5.81,1.82-11.3,1.39-17.19.51,1.66,4-.92,3.8-3.29,3.71a25.63,25.63,0,0,1-15.94-5.84c.39,5.63.67,10.74,1.12,15.83a4.36,4.36,0,0,0,4.14,4.31c3.3.3,1.88,1.74.83,3-3.77,4.45-8.92,5-14.24,4.76a9,9,0,0,0-4.57.67,9.8,9.8,0,0,1-9.39-.55c-2.47-1.51-3.17.72-4.62,1.48-1.63.86-.72,2-.37,3,2.91,8.75-1,17.29-9.43,20.85-.58.24-1.33.15-1.79,1.12a17.52,17.52,0,0,1,7.66,9.09,16.17,16.17,0,0,1-.37,11.75c-2.74,6.51-8.72,10.18-16.35,10C168.14,248.94,167.35,248.71,167.43,250Z"/><path class="cls-2" d="M167.43,250c-.54-.23-1-.74-.51-1.15.63-.55,1.38-.09,2,.31C168.41,249.42,167.65,249.24,167.43,250Z"/><path class="cls-3" d="M51.73,175.12c-.93,1.91-1.61,4.89-3.85,4.65-1.9-.2-2-3.3-2.51-5.21-2-7-1-13.74,2-20.26.61-1.34,1.3-2.64,2.14-4.35-1.93.69-2.48,2.08-3.44,3-2.23,2.21-3.21,2-4.28-.85a19.8,19.8,0,0,1,7.83-23.7c.87-.57,2.06-.74,2.58-1.9-1.32-.76-2.52.11-3.74.18-1.63.09-2-.51-1.17-1.88A17.83,17.83,0,0,1,52,119.9c5.72-4.33,12-7.35,19.25-8,2.13-.2,4.07-.92,5-3.08a2.14,2.14,0,0,0-.69-2.65c-2-1.48-4.15-1.07-6.16-.13-1.65.78-3.13,1.93-4.71,2.87-4.52,2.69-9.2,5-14.64,4.61-3.6-.25-3.86-.86-1.9-4.32-3.15,1.26-6,2.29-9.06,2.13-1.83-.1-2.91-.19-1.9-2.57,1.3-3.07.81-6.44.7-9.67-.18-5,1.57-8.64,6.23-10.72a7.56,7.56,0,0,0,1.39-.84c.52-.38,1.15-.83.93-1.55s-1.1-.68-1.67-.58c-3,.5-2.8-1-2.18-3.14,2.8-9.61,11.54-16.14,22.2-16.45a49.34,49.34,0,0,0,5.43-.25,9.82,9.82,0,0,0-5.62-1.18c-2.56.11-2.34-1-1.38-2.67,2.88-5.17,7.66-7,13.12-6.92,8.69.05,16.39,2.8,22.42,9.38,2.13,2.32,4.24,4.67,7.22,5.94,1.44.62,3,1.18,4.11-.43s.51-3.16-.65-4.46c-1.89-2.12-4.58-2.77-7.14-3.65-4.5-1.55-6.17-4.27-5.14-8.2.66.24,1.39.65,1.34-.63-1.24-.63-2.1-1.43-1.82-3,.51-2.84-.5-5.1-3.52-7,3.52-1.65,6.56-1.37,9.74-.74,3.46.69,4.69,4.31,7.84,5.82a7.89,7.89,0,0,0-.17-1.14c-.39-1.24-2.56-2-1.42-3.53,1-1.28,2.76-1.08,4.28-.94,3,.27,5.23,2.07,7,4.36a4.84,4.84,0,0,0,4.28,2.29,8.41,8.41,0,0,1,7.51,4.44c5.14,8.91,7.41,18.05,1.83,27.71a14.72,14.72,0,0,0-2.17,7.1c0,2-1,2.53-2.83,2.55a57.53,57.53,0,0,1-18.2-3.14c-7.43-2.37-14.76-5.21-22.63-5.81-9.74-.75-17.85,3.15-25.92,9,1.75.67,2.43-.23,3.13-.64,9.41-5.43,19-5.94,29-1.68,7.28,3.1,14.51,6.38,22.26,8.21,3,.71,6.12,1.26,9.46,1.93-1,1.43-2.46,2-3.68,2.77-11,7.14-22.89,12.89-33.2,21.14a82.82,82.82,0,0,0-22,25.86A32,32,0,0,0,64,157.39c-.54.74.1,1.51,0,2.21,0,0,0,.14.06.09a2.48,2.48,0,0,1,.65-1C68.8,145,78.51,135.75,90,128.06a273.26,273.26,0,0,1,32.69-18.74,5.15,5.15,0,0,1,3.42-.86,18.92,18.92,0,0,0-5.58,11.23c-.14,1-1.29,1-2.1,1.24-13.21,3.8-17.17,17.79-7.77,27.75,1.31,1.39,1.12,1.92-.27,2.88-3.45,2.4-5.32,5.85-6.45,9.85-1.31,4.64-5.13,6.73-9.18,8.44-1.14.48-1.91,0-2-1.29-.08-1-.1-1.93-.15-2.93-1,0-1,.74-1.12,1.26-1.36,8.65-6.81,14-14.3,17.65-3.52,1.72-3.59,1.66-4.22-2.36-1.57,1.16-.78,3.07-1.7,4.3A23.08,23.08,0,0,1,65.74,192c-3.06,2.07-6.24,4-6.61,9-6.35-7.78-7.55-15.88-6.74-24.52C52.65,175.76,53,175,51.73,175.12Z"/><path class="cls-3" d="M229.36,76A69,69,0,0,0,197.17,87.2q-7.8,5-15.63,10c-1.59,1-2.74,1.51-3-1.33s-2.92-4.78-6.25-4.32c-3.61.51-4.85-1.5-5.22-4.26a68.3,68.3,0,0,1,.61-23.94c1.36-6.1,4.79-10.49,11.07-12.61.51,2.09-1,3.5-.93,5.6,1.89-1.1,2.2-2.94,2.9-4.47,2.13-4.66,5.66-6.81,10.59-6.37.43,0,1.15,0,1.25.17,1.81,3.95,6,1.95,8.75,3.45,2.18,1.16,3.68,2,1.23,4.34-.78.74-1.31,1.73-2,2.53-1,1.08-2.35,1.39-.64,3.64s.14,5.25-2.19,7.12c-2.08,1.67-3.9,3.5-4.55,6.16-.36,1.48-.59,3.17,1.18,4,1.58.72,2.76-.37,3.56-1.53A24.38,24.38,0,0,0,200.09,71a37,37,0,0,1,6.79-11,13.48,13.48,0,0,1,7.77-4.52c-.15,2-1.84,3.19-1.82,5.24,1.51-.52,2-1.75,2.76-2.7A12.77,12.77,0,0,1,233,55c.81.52,2,1,1.93,2-.06,1.21-1.49,1-2.32,1.36s-1.8.62-3.35,1.12a9.5,9.5,0,0,0,5.91-.22c5.85-1.91,11,2.9,13.63,6.57,1.28,1.8,1.58,3.78-1.78,3.76a4.64,4.64,0,0,0-3.08,1.09c2.29.13,4.26.16,6.2.37a12.7,12.7,0,0,1,11,9.69c.3,1.54.16,2.51-1.74,2.59a9.56,9.56,0,0,0-7,3.61c-1.82,2.12-4.23,3.34-6.65,4.57-.26.48-.93,1,.09,1.39,1.28.4,3.35-.21,3.68,1.24.29,1.26-1.52,2.19-2.55,3.11-4.44,4-9.89,5.16-15.63,5.39-2.06.09-4.12,0-6.17.13s-4.62.52-4.39,3.19,2.71,2.84,4.83,2.67a54.64,54.64,0,0,0,6.08-1c8.47-1.62,15.91.19,22,6.52a15.76,15.76,0,0,1,4.39,9.46c-1.45.49-2.47-1.26-4-.24a34.87,34.87,0,0,1,5.81,4.79A14.68,14.68,0,0,1,264.14,140c-.09,1.12.38,2.72-.83,3.25s-1.58-1.24-2.58-1.6c-.45.29-.26.66-.12,1,3.71,5.61,5.17,11.61,3.26,18.23-.58,2-1.27,2.88-3.17.94a6.39,6.39,0,0,0-6-1.58c-4,.79-8,1.3-11.68-2.85,1.05,2.94,1,3,3.26,4.53.88.62,2.26,1.29,2,2.29-.34,1.37-2,.94-3.09,1-4.58.16-9.06-.28-13-2.82-.67.49-.38.89-.14,1.22.8,1.11,2.46,2.12,1.7,3.57-.84,1.63-2.75.77-4.13.63a20.15,20.15,0,0,1-15.9-10c-1-1.66-2.13-3.26-3.2-4.89-.27-.28-.54-.42-.81,0a18.06,18.06,0,0,0,2.82,5.84c2.18,3.23,2.07,7,2.58,10.61.18,1.28-.41,1.78-1.75,1.34a5.1,5.1,0,0,0-3.87.17c5.31,1.24,6.39,4.75,6.39,9.12a5.28,5.28,0,0,0,3.31,4.88c2.29,1,1.51,1.92.06,2.81-5.08,3.16-10.45,3.11-15.92,1.22-1-.35-2-.87-3-1.3-.06,0-.18.09-.31.16.08,1.42,1.83,1.71,2.14,3.25a8,8,0,0,1-4.37.31c-3.77-.44-4.37-1.46-3-4.89a14.6,14.6,0,0,0,0-11.73c-1.16-2.57-.94-3.5,1.93-4.46a15.91,15.91,0,0,0,10.53-14.68,16.31,16.31,0,0,0-9.91-15.49c-3.17-1.34-6.52-2-9.85-.87-3,1-3.88-.37-4.27-2.87q-1.31-8.52-2.63-17c-.1-.64-.17-1.29-.3-1.93-1.08-5.22-1.07-5.24,4.3-3.76,20.64,5.72,40.12,14,57.76,26.32.69.22,1,0,.72-.71-17.69-16.1-37.91-27.57-61.49-33.07,12.61-7.27,22.22-18.23,35.27-24.24a54.89,54.89,0,0,1,18.33-5.28c.18-.17.36-.34.54-.49,0,0-.12-.17-.16-.17A17.05,17.05,0,0,0,229.36,76Z"/><path class="cls-4" d="M220.31,124.92c-11.17-4.77-22.37-9.48-34.16-12.55-2.52-.66-5.06-1.22-7.59-1.8-1.42-.32-2.12,0-1.48,1.64,3.35,8.71,2.55,18.24,5.33,27.07.64,2-.87,2.55-2.72,3.36A17.63,17.63,0,0,0,176.31,127c-1-1.32-.79-3.11-.92-4.73-.67-8.29-3.74-15.12-11.63-19-5.39-2.64-10.26-5.77-11.57-12.39-.82,2.51.28,4.42,1.32,6.34,2.52,4.67,5.54,9.08,7.57,14a30.06,30.06,0,0,1,2.08,7.5c.16,1.17,1.06,2.57-1.19,3-1.79.3-2.23-.53-2.56-2a18.69,18.69,0,0,0-3.23-7c-1.62,1.07-1.2,3.23-2.86,4.1a3.85,3.85,0,0,1-.56-5c1.34-2.51.92-4.6-.79-6.85a27.26,27.26,0,0,1-4.41-10.07c-.29-1.16-.66-2.38-2.05-1-2.83,2.75-7,4.17-7.42,9.24-.18,2.5-3.45,1.85-4.83,1.23a4.13,4.13,0,0,0-3.86.17,248.58,248.58,0,0,0-44.12,24.92,3.92,3.92,0,0,1-2.77,1.24c14.17-14.47,32.7-21.79,48.57-33.57-17.4.3-31.53-10.43-48.32-13.7,6.19-.73,11.62.75,17,2.29,8,2.27,15.74,5.68,24.18,6.32a59.48,59.48,0,0,0,8.44.19c6.47-.42,11.2-3.75,14.4-9.29,6.76-11.68,7.83-24.18,5-37.13-.81-3.66-2.73-6.43-6.95-7.23-3.49-.67-4.44-3-3.21-6.42.08-.2.17-.4.26-.59,4.35-10,22.64-19.22,33.21-16.77,1.82.43,3.51,1,4.37,2.83-.73,1-1.69.78-2.49.87-8.18,1-13.62,5.66-17.26,12.76-.49,1-.81,2-1.9,2.53.2,1.29,1.86,2.36.57,3.86l-2,.93c.84.77,2.6.11,2.57,1.79,0,1.4-1.29,1.5-2.27,2.36,2.84.56,3.86,1.81,1.89,4.16-.49,1.26,1,.6,1.19,1.24.54,2-.74,2.9-2.52,3.42,1,1,2.93-.15,3,1.9.07,1.71-1,2.18-2.35,2.53-.12,1.23.58.93,1.26.66,1.51,1.93,1.5,2-1.24,3.8.36.85,2,.07,1.92,1.61-.05,1.77-1.55,1.85-2.52,2.58.41.86,2,0,2,1.57,0,1.86-1.62,2-2.65,2.81.88.82,3.49,1.24.53,2.6-.52.38-.53.76,0,1.14,1.07,1.1.67,1.76-.65,2.14-.43.25-1.1.37-.62,1.12,1.3,1.41,1.3,1.41-1.7,2.5,2.43.28,2.58,1.53,2.39,3.28-.57,5.36.29,10.39,4.08,14.56a10.9,10.9,0,0,0,5.41,3.45c2.28.58,4.57.8,6.43-1s.38-3.6-.27-5.4c4.71-.13,5.68,2.07,3.3,8.28,13.53-5.21,23.46-16.09,37.16-19.83-12.82,6.83-22.17,18.71-36.64,24.44,1.61.53,2.54.86,3.48,1.13,13.36,3.83,26.64,7.84,38.64,15.15.92.56,1.8,1.2,2.69,1.8C221,124.9,221,125.27,220.31,124.92Z"/><path class="cls-5" d="M137.12,135.39a14.68,14.68,0,1,1-.28-29.36,14.68,14.68,0,1,1,.28,29.36Z"/><path class="cls-5" d="M125.17,191.42A14.78,14.78,0,0,1,110.31,206a14.72,14.72,0,0,1,.26-29.44A14.91,14.91,0,0,1,125.17,191.42Z"/><path class="cls-5" d="M205.68,155.08A14.72,14.72,0,1,1,191,140.45,14.59,14.59,0,0,1,205.68,155.08Z"/><path class="cls-5" d="M135.87,220.88a14.52,14.52,0,0,1-14.56,14.75,14.67,14.67,0,1,1-.14-29.34A14.49,14.49,0,0,1,135.87,220.88Z"/><path class="cls-5" d="M149.32,137.65a14.67,14.67,0,1,1,14.4,15A14.7,14.7,0,0,1,149.32,137.65Z"/><path class="cls-5" d="M121.32,154.16A14.68,14.68,0,1,1,135.92,169,14.69,14.69,0,0,1,121.32,154.16Z"/><path class="cls-5" d="M188.53,202a14.68,14.68,0,1,1-14.59-14.68A14.44,14.44,0,0,1,188.53,202Z"/><path class="cls-5" d="M163,157.33a14.71,14.71,0,0,1,14.82,14.56,14.92,14.92,0,0,1-14.67,14.81A14.67,14.67,0,0,1,148.44,172,14.45,14.45,0,0,1,163,157.33Z"/><path class="cls-5" d="M142.1,211.09a14.72,14.72,0,0,1-14.68-14.7,14.73,14.73,0,1,1,29.45.11A14.64,14.64,0,0,1,142.1,211.09Z"/><path class="cls-5" d="M169,259.7a14.73,14.73,0,0,1-14.52,14.86,14.92,14.92,0,0,1-14.84-14.63,14.69,14.69,0,0,1,14.61-14.76A14.46,14.46,0,0,1,169,259.7Z"/><path class="cls-5" d="M153.48,241.76a14.7,14.7,0,1,1,14.29-15A14.51,14.51,0,0,1,153.48,241.76Z"/><path class="cls-5" d="M159.4,242.4c2.1-1.3,4.3-2.47,5.91-4.4,4.31-5.2,5.42-11,2.83-17.27-.77-1.88-.41-2.5,1.58-2.61a14.75,14.75,0,0,1,7.37,27.78C172.37,248.46,163.7,248.34,159.4,242.4Z"/><path class="cls-5" d="M135.86,137.74c-6.56.57-11.48,3.54-14.61,9.36-1,1.88-7.09,2.57-8.8,1-4.4-3.9-6.27-8.76-4.87-14.59s5.13-9.38,10.82-11c1.06-.3,2.1-.58,2.48,1.06,1.77,7.73,6.76,12.07,14.45,13.5C135.48,137.16,135.59,137.43,135.86,137.74Z"/><path class="cls-5" d="M147.47,166.62a20.89,20.89,0,0,0,.07,10.69c.49,1.87-.45,3.22-2.63,3-5.22-.56-9.92.55-13.84,4.19a2,2,0,0,1-2.35.34c-7-2.48-10.82-12.91-7.27-19.49.71-1.31,1.16-1.42,2.33-.37,7.64,6.84,13.67,7.38,22.3,2.14A10.07,10.07,0,0,1,147.47,166.62Z"/><path class="cls-5" d="M150.56,244a14.94,14.94,0,0,0-10.34,7.74c-1,1.76-2,2.12-3.92,1.71-6.8-1.5-11.85-7.43-11.76-14.09,0-.9-.39-2.14.87-2.53,4.61-1.46,8.11-4.34,11-9.29,1.77,8.07,5.36,13.48,12.89,15.28C149.59,243.37,151,242.67,150.56,244Z"/><path class="cls-5" d="M119.32,177.15c-3.28-1.12-6-2.31-8.95-2.18-1.12.05-1.68-.84-2.27-1.62-6.22-8.12-1.56-20.77,8.46-22.94,2.16-.46,3.09-.51,3.37,2.63.54,5.87.68,11.48-1.21,17.15C118.06,172.16,118.71,174.44,119.32,177.15Z"/><path class="cls-5" d="M178.42,165.79c3.82,3.51,7.29,5.36,11.49,5.55,1.38.06,2,1,2.66,2.09a14.76,14.76,0,0,1-3.26,18c-.81.68-1.57,1.66-2.66.3-3.42-4.24-8-6.07-14-6.31C178.68,180.13,180.6,174,178.42,165.79Z"/><path class="cls-6" d="M175.47,160.79c-7.87-6.42-15.58-7-23.8-.76.37-3.67,1.26-6.94-.07-10.14a2.14,2.14,0,0,1,2.09.68c5.88,4.41,12.1,5,18.51,1.38,2.21-1.22,2.85-.93,2.56,1.57A20.84,20.84,0,0,0,175.47,160.79Z"/><path class="cls-7" d="M146,95.59a37.91,37.91,0,0,0,5.51,11.68c1.14,1.58.12,2.84-.57,4.69A18.91,18.91,0,0,0,141,104.8c-1.44-.44-1.28-3.75.14-5.25a5.21,5.21,0,0,1,.5-.41Z"/><path class="cls-8" d="M174.06,124.83a29.44,29.44,0,0,0-7.12-3,3,3,0,0,1-1-5.26c.81-.71,1.77-1.24,2.55-2,2.8-2.63,2.78-2.65,3.91,1A53.49,53.49,0,0,1,174.06,124.83Z"/><path class="cls-9" d="M158.83,102.88a32.49,32.49,0,0,1,9.81,5.84c1.22,1,.86,2,.09,3.08-1.1,1.47-2.23,3-4.17,3.28-.76.09-.8-1.13-1-1.83A57.61,57.61,0,0,0,158.83,102.88Z"/><path class="cls-10" d="M148.07,133a32.9,32.9,0,0,0,.11,9.95,30.75,30.75,0,0,0-9.79-5.37A30,30,0,0,0,148.07,133Z"/><path class="cls-11" d="M144.51,212.92c-3,2.58-5,4.75-6.61,8.14a31.67,31.67,0,0,0-3-9.57A38.23,38.23,0,0,0,144.51,212.92Z"/><path class="cls-12" d="M150,211a22,22,0,0,0,5.82-5.53c1-1.47,1.7-1.4,2.27.41.63,2,1.51,3.92,2.47,6.36A23.18,23.18,0,0,0,150,211Z"/><path class="cls-13" d="M155.81,187.33l8.45,1.11a26.49,26.49,0,0,0-5.54,7.28A27.27,27.27,0,0,0,155.81,187.33Z"/><path class="cls-14" d="M152.81,125.71a15.18,15.18,0,0,1,3.3-9.39C159.17,121,158.93,121.72,152.81,125.71Z"/><path class="cls-15" d="M125.59,197.47c.5,1.91.77,3.17,1.18,4.38s1,2.34,1.6,3.91l-7.46-1.41C122.44,202.07,124.35,200.35,125.59,197.47Z"/><path class="cls-16" d="M64.57,111.34c2.28-1.68,4.2-3.8,7-4.46,1.17-.27,2.71-.55,3.12.82s-1,2-2.19,2.26C69.87,110.5,67.21,110.89,64.57,111.34Z"/><path class="cls-17" d="M100,62.88c3.49.5,5.9,1.34,7.94,3.05.77.64,1.49,1.62.92,2.54-.65,1.07-1.74.42-2.59,0A17.92,17.92,0,0,1,100,62.88Z"/><path class="cls-16" d="M200,67.36c-1.09,2.48-1.74,4.19-2.6,5.79-.53,1-1.24,2.71-2.46,2-1.48-.8-.2-2.33.28-3.4C196,70,197.42,68.65,200,67.36Z"/><path class="cls-18" d="M238.48,76.67l-3.25,0c-1.85-1.17-3.93-.25-5.87-.66,3.61-1.18,7.31-.37,11-.55C240.62,77.2,238.84,75.88,238.48,76.67Z"/><path class="cls-19" d="M126.78,190.42c-.33-2-.54-3.24-.8-4.82C129.91,186.58,128,188.25,126.78,190.42Z"/><path class="cls-20" d="M245.73,92.9l-4.92.75c1.58-2,3.23-2,4.83-2.14Z"/><path class="cls-21" d="M158.41,37.62c.4-1.9-.57-2.69-2.39-2.7.33-1.09,1.12-1.05,1.82-1.16C159,34.91,159.68,36.12,158.41,37.62Z"/><path class="cls-22" d="M243.12,139.23A7.67,7.67,0,0,1,246,142a5.65,5.65,0,0,1-3.56-2Z"/><path class="cls-23" d="M63.3,159.93a4.13,4.13,0,0,1,.66-2.54c.23.44.45.89.67,1.33l-.7,2.56C62.65,161.33,63.14,160.56,63.3,159.93Z"/><path class="cls-24" d="M159.75,48.1h-2.94c.26-1.16,1.11-1,1.75-1.24Z"/><path class="cls-25" d="M79.48,134.05c0-1,.64-1.76,1.23-1.53.77.3-.08.81-.38,1.14A2.82,2.82,0,0,1,79.48,134.05Z"/><path class="cls-26" d="M220.31,124.92l.62-.56c.68.28,1.38.54,1.59,1.42C221.55,126.05,221,125.43,220.31,124.92Z"/><path class="cls-27" d="M51.73,175.12c.11-.53.54-1.39.79-1.18.92.75.24,1.66-.13,2.5Z"/><path class="cls-28" d="M156,76c-.53,0-1.32-.08-1.21-.63.22-1,1.17-.45,1.83-.49Z"/><path class="cls-29" d="M157.23,72.72c-.73,0-1.77.08-1.71-.87,0-.56,1.08-.32,1.69-.27C157.22,72,157.22,72.34,157.23,72.72Z"/><path class="cls-30" d="M150.56,244l-1.29-1.18c.92,0,1.89-.16,2.42.89Z"/><path class="cls-31" d="M98.48,52.71c.26.27.78.75.76.78-.74.87-1.41.2-2.1-.15Z"/><path class="cls-31" d="M260.61,142.64c-.57-.44-1.56-1-1.24-1.57.44-.73.94.19,1.36.55Z"/><path class="cls-32" d="M209.7,152.93c-.38-.46-.92-1.27-.32-1.46s.88.84,1.13,1.45Z"/><path class="cls-33" d="M159.16,56.61c-.64.39-1.37.67-1.87,0-.37-.51.21-.6.61-.63Z"/><path class="cls-34" d="M63.3,159.93l.63,1.35c-.21.59-.42,1.18-.83,2.37A4.37,4.37,0,0,1,63.3,159.93Z"/><path class="cls-35" d="M238.48,76.67l1.85-1.24C240.78,77.44,239.2,76.41,238.48,76.67Z"/></svg>