<svg id="Layer_1" data-name="Layer 1" xmlns="http://www.w3.org/2000/svg" viewBox="0 0 300 300"><defs><style>.cls-1{fill:#005daa;}.cls-2{fill:#8d805d;}.cls-3{fill:#000100;}.cls-4{fill:#a6a8ab;}.cls-5{fill:#a5a7aa;}.cls-6{fill:#a6a8aa;}.cls-7{fill:#949699;}.cls-8{fill:#959799;}.cls-9{fill:#009a7b;}.cls-10{fill:#005c49;}.cls-11{fill:#001b15;}.cls-12{fill:#000201;}.cls-13{fill:#00251d;}.cls-14{fill:#000303;}.cls-15{fill:#005342;}.cls-16{fill:#003e31;}.cls-17{fill:#003328;}.cls-18{fill:#006f58;}.cls-19{fill:#000a08;}.cls-20{fill:#001f19;}.cls-21{fill:#001914;}</style></defs><path d="M22-.61H278a1,1,0,0,1,1,1v171A128.64,128.64,0,0,1,150.36,300h0A129.36,129.36,0,0,1,21,170.63V.38a1,1,0,0,1,1-1Z"/><path class="cls-1" d="M31.44,142.36H269.23a1,1,0,0,1,1,1v28.57A122.12,122.12,0,0,1,148.11,294h0A117.66,117.66,0,0,1,30.45,176.38v-33A1,1,0,0,1,31.44,142.36Z"/><path class="cls-2" d="M149.93,7.51H265.82c4.39,0,4.4,0,4.4,4.5V133.37c0,4.46,0,4.47-4.46,4.47H34.32c-4.53,0-4.54,0-4.54-4.7v-121c0-4.62,0-4.62,4.59-4.62Z"/><path d="M72.75,208.18c0-18,.08-36-.08-54,0-3.22,1-4.07,4-3.89,3.84.23,7.7.16,11.55,0,2.31-.09,3.3.6,3.15,3-.17,2.82,0,5.66,0,8.49,0,1.74.62,2.44,2.38,2.4,3.62-.08,7.25-.07,10.87,0,1.62,0,2.21-.64,2.17-2.22-.07-2.95.11-5.9,0-8.83-.13-2.28.76-2.94,2.94-2.87,4.18.13,8.38.19,12.56,0,2.69-.13,3.31,1,3.17,3.39-.17,2.71,0,5.43-.05,8.15,0,1.73.6,2.45,2.37,2.41,3.62-.08,7.25-.07,10.87,0,1.6,0,2.21-.61,2.18-2.21-.07-3.05.08-6.12,0-9.17-.08-1.95.7-2.57,2.57-2.53,4.42.09,8.84.13,13.25,0,2.33-.08,2.92.9,2.83,3-.12,2.83,0,5.66,0,8.49,0,1.71.57,2.47,2.35,2.43,3.63-.08,7.25-.07,10.88,0,1.59,0,2.22-.59,2.19-2.2-.07-3.05,0-6.11,0-9.17,0-1.6.3-2.56,2.21-2.53,4.75.08,9.51.06,14.27,0,1.65,0,2.16.77,2.13,2.29,0,2.94.08,5.89,0,8.83-.07,2,.58,2.88,2.7,2.8,3.39-.14,6.8-.11,10.19,0,1.9.06,2.63-.61,2.56-2.55-.11-3,0-6.11,0-9.17,0-1.6.61-2.21,2.19-2.19q7.14.08,14.27,0c1.65,0,2.23.75,2.14,2.28,0,.68,0,1.36,0,2,0,35.68,0,71.36.07,107,0,3.18-.7,4.29-4.09,4.25-14.83-.19-29.67-.15-44.51,0-2.69,0-3.43-.79-3.4-3.45q.18-20.9,0-41.8c-.08-12.09-7.54-21.8-18.89-24.83a25.32,25.32,0,0,0-28.36,11.65,27.58,27.58,0,0,0-3.55,14.32c0,13.48-.07,27,.06,40.44,0,2.76-.69,3.71-3.58,3.68q-22.42-.21-44.85,0c-2.92,0-3.56-.95-3.54-3.68C72.8,244.21,72.75,226.19,72.75,208.18Z"/><path class="cls-3" d="M158.94,96.5c3.22-2.82,5.71-5.11,8.31-7.25,1.09-.89,1.09-1.67.66-2.91-6.27-18,1.72-32.91,20.2-37.8,9.6-2.55,19.47-2.79,29.29-3.36a81.05,81.05,0,0,0,18.06-2.92c5.56-1.62,10.9-3.76,15.47-8.76-4.81,29.09-15.17,53.44-44.22,65-10.69,4.25-21.2,4.58-30.93-2.69-1.22-.91-1.92-.59-2.86.28A120.22,120.22,0,0,0,160.42,109a23.77,23.77,0,0,0-5.37,17.07c.15,2.11-.46,2.68-2.57,2.71-7.08.07-7.07.16-7.54-6.56a21.71,21.71,0,0,0-3.8-11.1c-4-5.72-9-10.47-14.1-15.12-.79-.72-1.44-1.2-2.59-.34-11.1,8.28-22.65,6.71-34.34,1.44C70.28,88.15,59,72.2,53.19,51.85a95.84,95.84,0,0,1-3.8-17.72c9.46,8.41,21,10.07,32.64,11,10.15.79,20.37.84,30.3,3.51,13.24,3.56,20.26,11.41,22,24.51a23.68,23.68,0,0,1-1.91,12.61c-.78,1.82-.5,2.85,1,4,2.37,1.89,4.59,4,7.27,6.33.27-2.49-.5-4.46-.9-6.42-2.54-12.39.71-23.26,8.33-33.11,1.57-2,2.4-1.84,3.91,0,8.88,11.11,11,23.52,7.5,37.11C159.34,94.36,159.24,95,158.94,96.5Z"/><path class="cls-4" d="M207.2,221c-5.1,0-10.19-.07-15.28,0-2.07,0-3.17-.35-2.93-2.76.32-3.24-1.3-7.45.59-9.52s6.19-.6,9.42-.64c7.92-.1,15.85,0,23.77-.07,2,0,3.21.27,3,2.73-.33,3.24,1.3,7.46-.59,9.53s-6.22.53-9.46.67C212.86,221.05,210,221,207.2,221Z"/><path class="cls-4" d="M207.41,192.6c-5.32,0-10.63-.08-15.94,0-1.93.05-2.59-.52-2.47-2.46.2-3.36-1-7.66.62-9.84s6.13-.58,9.36-.62c8-.1,16.05,0,24.08-.08,2,0,2.84.47,2.68,2.63a53.3,53.3,0,0,0,0,7.79c.17,2.23-.76,2.63-2.73,2.58C217.81,192.52,212.61,192.6,207.41,192.6Z"/><path class="cls-5" d="M92.86,179.68c5.09,0,10.19.09,15.28,0,2.11,0,3.08.4,2.89,2.75-.25,3.25,1,7.51-.61,9.53s-6.15.61-9.39.65c-7.93.11-15.85,0-23.78.08-2.11,0-3.15-.41-2.93-2.77.31-3.24-1.32-7.44.61-9.52s6.2-.51,9.44-.65C87.19,179.59,90,179.68,92.86,179.68Z"/><path class="cls-4" d="M207.15,249.18c-5.21,0-10.42-.07-15.63,0-1.85,0-2.68-.41-2.52-2.42.27-3.37-1.33-7.66.6-9.87s6.2-.59,9.44-.63c7.93-.1,15.87,0,23.8-.07,2.14,0,3.09.47,2.9,2.8a43.52,43.52,0,0,0,0,7.13c.18,2.33-.5,3.17-3,3.08C217.58,249,212.36,249.18,207.15,249.18Z"/><path class="cls-4" d="M92.5,249.18c-5.08,0-10.17-.09-15.25,0-2.13.05-3.11-.45-2.94-2.79a70,70,0,0,0,0-7.8c-.06-1.69.44-2.41,2.28-2.4,10.74.07,21.48.05,32.21,0,1.6,0,2.35.5,2.16,2.14a1.82,1.82,0,0,0,0,.33c-.18,3.36,1.37,7.65-.59,9.83s-6.19.49-9.43.62C98.15,249.27,95.32,249.18,92.5,249.18Z"/><path class="cls-4" d="M92.79,208c5.1,0,10.2.08,15.29,0,2.07-.05,3.18.33,2.94,2.74-.31,3.25,1.32,7.47-.6,9.53s-6.22.61-9.47.65c-7.82.1-15.64-.08-23.45.09-2.62.06-3.46-.81-3.16-3.3.36-3.11-1.36-7.15.72-9.13,1.9-1.81,5.85-.45,8.89-.53S89.84,208,92.79,208Z"/><path class="cls-4" d="M169.3,192.6c-5.32,0-10.63-.08-15.94,0-1.93.05-2.58-.53-2.46-2.47.2-3.36-1-7.65.63-9.83s6.12-.58,9.36-.62c7.9-.1,15.81,0,23.72-.08,2,0,2.84.5,2.69,2.63a59.56,59.56,0,0,0,0,7.79c.15,2.2-.77,2.63-2.75,2.58C179.47,192.52,174.38,192.6,169.3,192.6Z"/><path class="cls-4" d="M131.26,179.69c5.2,0,10.39.06,15.58,0,1.78,0,2.39.52,2.31,2.3-.12,2.82-.13,5.65,0,8.47.09,1.88-.73,2.22-2.4,2.21-10.5-.06-21-.08-31.5,0-2,0-2.6-.58-2.45-2.49.25-3.35-1.33-7.64.58-9.82s6.18-.49,9.41-.62C125.61,179.6,128.44,179.69,131.26,179.69Z"/><path class="cls-4" d="M188,194.21c5.2,0,10.4.08,15.6,0,2,0,2.73.53,2.79,2.65.28,9.45.35,9.45-9.09,9.45H176a6.53,6.53,0,0,1-6-5.52c-.66-6.54-.66-6.54,5.84-6.54Z"/><path class="cls-4" d="M112.39,194.21c5.09,0,10.19.09,15.28,0,2.1,0,2.88.68,2.67,2.74s.27,4.34-1.29,6.46a6.51,6.51,0,0,1-6.15,3c-8.59-.2-17.2-.14-25.8,0-2.17,0-2.87-.54-2.89-2.8-.08-9.31-.16-9.31,9-9.31Z"/><path class="cls-4" d="M112.55,166.09c5.09,0,10.18.08,15.27,0,1.89,0,2.5.5,2.56,2.45.29,9.46.35,9.46-9.2,9.46-8,0-16.07-.08-24.1,0-2.25,0-2.83-.72-2.86-2.89-.1-9-.17-9,8.83-9Z"/><path class="cls-4" d="M150.06,166.09c5.08,0,10.16.08,15.24,0,2-.05,2.94.32,3,2.7.07,9.21.17,9.21-9,9.21-8,0-16-.09-24.05.05-2.42,0-3.57-.46-3.25-3.14s-1.12-6.37.54-8.18,5.32-.47,8.1-.58C143.74,166,146.9,166.09,150.06,166.09Z"/><path class="cls-4" d="M188,178c-5.19,0-10.39-.07-15.58,0-1.88,0-2.48-.49-2.53-2.45-.24-9.54-.31-9.56,9.32-9.55,8,0,16,.19,24.05,0,2.67-.05,3.33.85,3.09,3.27a24.46,24.46,0,0,0,0,5.41c.33,2.81-.91,3.41-3.46,3.32C198,177.84,193,178,188,178Z"/><path class="cls-4" d="M192.1,251c3.84,0,7.68.13,11.51-.05,2.32-.11,2.91.78,2.78,2.91-.2,3.25,1,7.51-.59,9.51s-6.14.59-9.37.66c-5.53.12-11.07-.09-16.59.09-2.33.07-3-.75-2.79-2.89.26-3.24-1.32-7.4.59-9.51s6.17-.49,9.39-.7C188.71,250.88,190.41,251,192.1,251Z"/><path class="cls-4" d="M108.62,264c-4.06,0-8.13-.06-12.19,0-1.56,0-2.24-.42-2.18-2.09.1-2.93.12-5.87,0-8.8-.08-1.88.74-2.24,2.41-2.23q12,.09,24,0c1.71,0,2.48.45,2.35,2.28-.25,3.47,1.34,7.81-.62,10.16-1.76,2.1-6.17.44-9.4.64C111.56,264.1,110.09,264,108.62,264Z"/><path class="cls-4" d="M191.73,234.69c-4,0-7.92-.14-11.86.06-2.34.11-2.81-.78-2.84-2.91-.13-9.28-.19-9.28,8.91-9.28,6,0,12,.07,18,0,1.93,0,2.59.6,2.49,2.51a60.23,60.23,0,0,0,0,7.11c.14,2.2-.85,2.65-2.8,2.59C199.64,234.61,195.68,234.69,191.73,234.69Z"/><path class="cls-4" d="M108.8,234.69c-4.07,0-8.14-.07-12.21,0-1.77.05-2.26-.61-2.36-2.33-.53-9.83-.58-9.83,9-9.83,5.77,0,11.53.07,17.29,0,1.91,0,2.62.53,2.5,2.48a66.13,66.13,0,0,0,0,7.45c.1,1.86-.7,2.31-2.39,2.27C116.71,234.63,112.75,234.69,108.8,234.69Z"/><path class="cls-4" d="M83.15,264.16c-2.79-.13-6.51.77-8.14-.67-1.91-1.7-.27-5.55-.7-8.4-.53-3.56.92-4.44,4.26-4.19,3.92.29,7.88.12,11.82,0,1.57,0,2.22.4,2.16,2.08-.11,3-.1,6.08,0,9.12,0,1.5-.51,2-2,1.91-2.47-.09-5,0-7.43,0Z"/><path class="cls-4" d="M216.2,264c-2.26-.28-5.88,1.23-7.6-.56s-.2-5.38-.56-8.14c-.43-3.39.58-4.8,4.26-4.44a88.23,88.23,0,0,0,11.15.05c1.79-.06,2.35.58,2.28,2.33q-.18,4.23,0,8.45c.07,1.73-.42,2.46-2.25,2.34C221.23,263.92,219,264,216.2,264Z"/><path class="cls-4" d="M83.41,234.69c-2.25,0-4.52-.09-6.77,0-1.81.1-2.24-.64-2.32-2.36-.46-9.8-.5-9.82,9.39-9.79,2.8,0,6.53-.92,8.16.5,1.92,1.67.31,5.53.69,8.39s-.84,3.52-3.39,3.27C87.27,234.54,85.33,234.69,83.41,234.69Z"/><path class="cls-5" d="M84.21,206.28c-10.17,0-10.11,0-9.9-9.37,0-2,.59-2.8,2.7-2.74,4.41.13,8.83.11,13.24,0,1.79,0,2.51.58,2.28,2.34,0,.22,0,.45,0,.68-.17,2.91,1.22,6.67-.54,8.51S86.4,205.94,84.21,206.28Z"/><path class="cls-4" d="M216.14,206.28c-2.26-.36-5.95,1.29-7.57-.65-1.36-1.62-.26-5.18-.54-7.86s.52-3.82,3.46-3.62c3.95.26,7.92.13,11.89,0,1.74-.05,2.57.51,2.32,2.31a1.29,1.29,0,0,0,0,.34C226,206.28,226,206.28,216.14,206.28Z"/><path class="cls-4" d="M217,234.72c-3.09-.27-7.16,1.26-8.36-.62-1.75-2.73-.44-6.77-.56-10.24-.05-1.37.93-1.3,1.85-1.3,4.63,0,9.26.05,13.89,0,1.53,0,2,.62,1.87,2,0,.33,0,.67,0,1-.16,2.91,1.21,6.63-.54,8.5S219.58,234.37,217,234.72Z"/><path class="cls-4" d="M83.54,166c9.16,0,9.07,0,9,9.22,0,2.29-.72,2.88-2.89,2.8-4.18-.15-8.38-.12-12.57,0-2,.05-3-.43-2.8-2.63a45.4,45.4,0,0,0,0-6.8c-.17-2.19.76-2.74,2.76-2.61S81.38,166,83.54,166Z"/><path class="cls-4" d="M216.24,178c-2.27-.29-5.87,1.22-7.62-.57s-.24-5.38-.57-8.15c-.3-2.47.5-3.41,3.06-3.29,4,.17,8.11.12,12.16,0,1.95-.06,2.71.61,2.43,2.51a1.29,1.29,0,0,0,0,.34C225.86,178,225.86,178,216.24,178Z"/><path class="cls-6" d="M184,151.89c7.75,0,7.79,0,7.74,7.69,0,5.31.83,4.53-4.7,4.62-.56,0-1.13,0-1.69,0-9.87,0-10.32-.56-9-10.59.17-1.31.63-1.77,1.89-1.73C180.11,151.93,182,151.89,184,151.89Z"/><path class="cls-6" d="M218.13,151.89c7.57,0,7.57,0,7.57,7.53,0,4.78,0,4.78-4.88,4.78-2.72,0-5.44-.08-8.15,0-1.72.06-2.47-.48-2.38-2.3a53,53,0,0,0,0-7.13c-.21-2.48.82-3.17,3.11-2.94A47,47,0,0,0,218.13,151.89Z"/><path class="cls-6" d="M149.88,164.2c-7.55,0-7.57,0-7.54-7.61,0-5.48-.63-4.62,4.66-4.7,2.71,0,5.44.14,8.14,0,2.19-.15,2.86.71,2.59,2.73a13.6,13.6,0,0,0,0,1.69C157.72,164.2,157.72,164.2,149.88,164.2Z"/><path class="cls-6" d="M81.9,164.2c-7.55,0-7.57,0-7.54-7.6,0-5.49-.64-4.63,4.65-4.7,2.83,0,5.67.09,8.49-.05,1.85-.08,2.45.65,2.26,2.37a17.34,17.34,0,0,0,0,2C89.75,164.2,89.75,164.2,81.9,164.2Z"/><path class="cls-6" d="M115.85,164.2c-7.51,0-7.54,0-7.5-7.65,0-5.42-.63-4.57,4.7-4.66a19.83,19.83,0,0,1,2,0c2.78.22,6.84-1.31,8.07.59,1.75,2.73.42,6.78.56,10.27.06,1.28-.76,1.44-1.76,1.44Z"/><path class="cls-6" d="M119.51,207.93c1.9.11,4.44-.46,5.53.55s-.93,3.13-1.19,4.87a22.85,22.85,0,0,1-.63,3c-.43,1.47.67,3.95-.91,4.3-2.8.61-5.83.31-8.75.16-.94,0-.72-1.25-.73-2,0-2.6.15-5.2,0-7.79-.19-2.38.62-3.29,3-3a30.76,30.76,0,0,0,3.72,0Z"/><path class="cls-5" d="M181,208c6.29,0,6.29,0,6.29,6.13,0,6.89,0,6.76-7,6.86-2.55,0-3.45-.76-3.36-3.25a16.78,16.78,0,0,0-1.62-7.23c-.86-2-.51-2.68,1.66-2.52C178.26,208.11,179.62,208,181,208Z"/><path class="cls-5" d="M112.82,242.72c0-6.48,0-6.32,6.54-6.54,3-.1,4.08.68,3.71,3.71a29.77,29.77,0,0,0,0,6.4c.24,2.48-.83,3.22-3.07,2.89a5.14,5.14,0,0,0-.68,0C112.82,249.2,112.82,249.2,112.82,242.72Z"/><path class="cls-5" d="M177.07,242.64c0-6.4,0-6.21,6.38-6.47,3.21-.13,4.21.92,3.86,4a21.68,21.68,0,0,0,0,5.4c.41,3-.73,3.82-3.7,3.71C177.07,249,177.07,249.2,177.07,242.64Z"/><path class="cls-7" d="M140.85,194.15c-2.93,1.89-5.75,3.43-8.32,5.47-1.42-5.07-1.14-5.46,3.72-5.47Z"/><path class="cls-8" d="M167.9,199.79c-3-2.1-5.62-3.84-8.46-5.64h4.24C168.65,194.16,168.65,194.16,167.9,199.79Z"/><path class="cls-9" d="M152.47,83.68c-1.05-4.16-2.23-8.3-3.11-12.5a30.18,30.18,0,0,1,.37-14.34C163,72.1,160.61,88.2,154.11,105c.84-.37,1.26-.41,1.38-.62,3.36-5.81,8.22-10.21,13.38-14.31,1.35-1.08,1.66-1.9.89-3.63-6.49-14.56.11-29.9,15.15-35.18,8.64-3,17.69-3.7,26.75-4.1s17.83-1.2,26.43-4a77.66,77.66,0,0,0,10-4.53c.12,2.62-.74,4.74-1.25,6.91a100.85,100.85,0,0,1-7.51,21.06c-8.25,17-21.86,27.44-39.82,32.26-8.4,2.26-16.44.83-23.35-4.87-1.25-1-2.13-1.18-3.42,0a120.76,120.76,0,0,0-14.12,14.66,24.47,24.47,0,0,0-5.26,15.8c.05,2.87-1.46,2.68-3.39,2.74-2.14.06-3.29-.27-3.28-2.9a26.09,26.09,0,0,0-6.65-17.37,155.94,155.94,0,0,0-12.64-12.81c-1.14-1.06-2-1.41-3.42-.24-7.77,6.42-16.7,7.35-25.94,4.41C78,91.88,64.41,78.54,57.23,58.69a126.25,126.25,0,0,1-5.65-20.47c14.59,9.09,30.61,8.23,46.19,9.6,6.56.57,13,1.59,19.18,4.08a25.43,25.43,0,0,1,13.67,33.82c-.94,2.11-1,3.24,1,4.74a56.6,56.6,0,0,1,13.62,14.26c-4.65-14.41-8.1-28.65,1-42.55,1.67.18.79,1.25.71,2-.35,7.22,2.2,13.75,4.8,20.26a2.12,2.12,0,0,1,.93,1.9,5.79,5.79,0,0,1,.78,2.43c0,.14.1.3.16.45-.1-.28-.2-.57-.28-.86a3.9,3.9,0,0,0-.67-2C152.55,85.47,152.61,84.57,152.47,83.68Z"/><path class="cls-10" d="M147,64.21l-.71-2c.37-.53.79-1.72,1.18-.09C147.6,62.72,147.16,63.5,147,64.21Z"/><path class="cls-11" d="M152.47,83.68a4.91,4.91,0,0,1,.72,2.87.44.44,0,0,1-.73,0l-.68-2.09Z"/><path class="cls-12" d="M109.38,65.54c3.44,6.3,6.14,13.12,12.31,17.5a1.11,1.11,0,0,1,.35,1.72c-.74,1.11-1.59.51-2.36.12C112.2,81.12,104.12,79.76,95.9,79c-1.11-.53-2.4.14-3.5-.5.44-1.27,1.54-.64,2.3-.69a76.18,76.18,0,0,1,16.15,1.36c-.86-1.93-2.37-2.55-3.62-3.42C102.41,72.38,96.9,70.65,91.37,69a68.51,68.51,0,0,1-15.81-6.92c-.13-.62,0-1,.74-.71,11.38,5.18,24.09,6.94,35.18,14-.08-3.68-2.57-6-2.71-9.08C108.35,65.52,108.83,65.5,109.38,65.54Z"/><path class="cls-12" d="M191.1,66.9c-.37,3-2.21,5.38-3.42,9,11.9-7.86,25.55-9.31,37.6-15.11-.43,1.54-1.77,1.89-2.83,2.47a94.7,94.7,0,0,1-17.95,7,42.78,42.78,0,0,0-16.21,8.88c5.64-.65,10.5-1.7,15.45-1.43,1.17.07,2.49-.54,3.49.61-.95.88-2.24,0-3.24.62-8,.77-15.87,2.09-23.18,5.69-.85.41-1.82,1.24-2.71.09-1-1.33.35-1.77,1.06-2.32,5.49-4.23,8-10.54,11.29-16.26C191,66.08,191.42,66.17,191.1,66.9Z"/><path class="cls-13" d="M76.3,61.34l-.74.71a6.4,6.4,0,0,1-3-1.92C74.37,59.75,75.28,60.7,76.3,61.34Z"/><path class="cls-14" d="M191.1,66.9l-.65-.71.73-2c.2-.3.43-.33.68,0A4.33,4.33,0,0,1,191.1,66.9Z"/><path class="cls-15" d="M108.07,64.19a2.64,2.64,0,0,1-.46-2.54c.94.4.92,1.22,1.13,1.91A1.07,1.07,0,0,1,108.07,64.19Z"/><path class="cls-16" d="M228.28,59.85a4,4,0,0,1-.91.53.42.42,0,0,1-.52-.56,1.3,1.3,0,0,1,.72-.54C227.87,59.17,228.19,59.23,228.28,59.85Z"/><path class="cls-17" d="M191.86,64.14l-.68,0c.24-.71.49-1.41.78-2.25A1.48,1.48,0,0,1,191.86,64.14Z"/><path class="cls-18" d="M153.76,88.58c.37.53.91,1.39.37,1.68-.82.43-.76-.64-1-1.13A.92.92,0,0,1,153.76,88.58Z"/><path class="cls-13" d="M153.76,88.58l-.63.55c-.22-.86-.45-1.71-.67-2.57h.73Z"/><path class="cls-19" d="M108.07,64.19l.67-.63.64,2-.61.74C108.53,65.59,108.3,64.89,108.07,64.19Z"/><path class="cls-20" d="M204,79a5.15,5.15,0,0,1,3.24-.62C206.29,79.32,205.12,79.05,204,79Z"/><path class="cls-21" d="M92.4,78.47a5,5,0,0,1,3.5.5A5.64,5.64,0,0,1,92.4,78.47Z"/></svg>