<svg id="Layer_1" data-name="Layer 1" xmlns="http://www.w3.org/2000/svg" viewBox="0 0 300 300"><defs><style>.cls-1{fill:#0a80f6;}.cls-2{fill:#fee21a;}.cls-3{fill:#fefefe;}.cls-4{fill:#007f00;}</style></defs><path d="M23.41-.61H276.59a1,1,0,0,1,1,1V173.05A126.93,126.93,0,0,1,150.65,300h-1.79A126.44,126.44,0,0,1,22.42,173.54V.38a1,1,0,0,1,1-1Z"/><path class="cls-1" d="M150,5.59q61.23,0,122.48,0c1.08,0,1.4.23,1.4,1.37q-.06,47.79,0,95.57c0,1-.2,1.36-1.3,1.35q-21.42-.08-42.84-.06c-.83,0-1.09-.19-1.11-1.06A78.69,78.69,0,0,0,73.67,86.14a73.29,73.29,0,0,0-2.3,16.59c0,.89-.31,1.07-1.13,1.07q-21.42,0-42.84.06c-1,0-1.29-.21-1.29-1.25q0-47.89,0-95.79c0-1.05.33-1.25,1.29-1.25Q88.7,5.61,150,5.59Z"/><path class="cls-2" d="M149.92,103.8H83.81c-2.85,0-5.71,0-8.57,0-.71,0-.91-.18-.88-.92A75.78,75.78,0,0,1,131.42,32a75.75,75.75,0,0,1,92.35,56.5,77.23,77.23,0,0,1,1.84,14.13c0,.93-.21,1.12-1.12,1.12q-25,0-50,0h-24.6Z"/><path class="cls-3" d="M135.13,199.29q0,45.59,0,91.17c0,1.06-.29,1.25-1.26,1.11a129.76,129.76,0,0,1-24.06-5.7,1.34,1.34,0,0,1-1.09-1.53q0-88.09,0-176.18c0-1.09.29-1.31,1.33-1.3q11.91.06,23.83,0c1,0,1.25.27,1.25,1.26Q135.11,153.7,135.13,199.29Z"/><path class="cls-3" d="M164.79,199.33q0-45.59,0-91.16c0-1.08.28-1.32,1.32-1.31q12,.08,23.95,0c.91,0,1.14.23,1.14,1.14q0,88.09,0,176.18c0,.66,0,1.1-.83,1.38a128.46,128.46,0,0,1-24.76,6c-.68.09-.82-.11-.79-.73,0-.91,0-1.83,0-2.74Z"/><path class="cls-4" d="M138.15,199.39q0-45.57,0-91.15c0-1.07.2-1.43,1.36-1.42,7,.06,13.91,0,20.87,0,1.47,0,1.47,0,1.47,1.53v182c0,1.53,0,1.53-1.55,1.71-5.65.68-11.32.43-17,.37-1.46,0-2.91-.29-4.36-.37-.64,0-.85-.27-.79-.86a8.61,8.61,0,0,0,0-.88Z"/><path class="cls-4" d="M105.81,195.7v86.9c0,.25,0,.51,0,.76,0,.74-.11,1-.92.66a126.52,126.52,0,0,1-22.11-11.37,1.19,1.19,0,0,1-.65-1.26,5,5,0,0,0,0-.55V108.37c0-1.7-.18-1.51,1.54-1.51,6.92,0,13.84,0,20.76,0,1.14,0,1.4.33,1.4,1.43Q105.79,152,105.81,195.7Z"/><path class="cls-4" d="M194.18,195.46V108.25c0-1.4,0-1.4,1.44-1.4,6.95,0,13.91,0,20.86,0,1.15,0,1.4.35,1.4,1.43q0,81.23,0,162.46a1.87,1.87,0,0,1-.9,1.82A136.75,136.75,0,0,1,195,283.79c-.62.25-1,.24-.86-.57a4.68,4.68,0,0,0,0-.65Z"/><path class="cls-3" d="M220.81,269.88v-1.27q0-80.18,0-160.35c0-1.19.36-1.41,1.45-1.4q11.93.08,23.84,0c.91,0,1.23.14,1.23,1.17q0,68.43,0,136.85a2,2,0,0,1-.4,1.41,131.41,131.41,0,0,1-25.47,23.25C221.27,269.64,221.11,269.71,220.81,269.88Z"/><path class="cls-3" d="M78.94,270c-2.48-1.69-4.85-3.51-7.17-5.39a130.72,130.72,0,0,1-18.48-18.26,2.57,2.57,0,0,1-.62-1.78q0-68.19,0-136.4c0-.94.14-1.29,1.21-1.28q12.07.08,24.16,0c.88,0,1.08.24,1.08,1.09q0,80.5,0,161A1.39,1.39,0,0,1,78.94,270Z"/><path class="cls-4" d="M250.7,241.72a4.37,4.37,0,0,1-.48-2.21q0-65.56,0-131.12c0-1.54,0-1.54,1.58-1.54,6.91,0,13.83,0,20.75,0,1.09,0,1.34.34,1.34,1.37,0,22.12,0,44.23,0,66.34A106.4,106.4,0,0,1,265.93,215a119.15,119.15,0,0,1-15,26.31A1.84,1.84,0,0,0,250.7,241.72Z"/><path class="cls-4" d="M49.61,241.63a84.8,84.8,0,0,1-5-7A121.53,121.53,0,0,1,33.58,213.2a106.85,106.85,0,0,1-6.42-24,115.07,115.07,0,0,1-1.06-16.17q0-32.4,0-64.81c0-1.41,0-1.41,1.43-1.41,7,0,14,0,21,0,.85,0,1.11.22,1.11,1.1q0,66.42,0,132.82Z"/></svg>