<svg id="Layer_1" data-name="Layer 1" xmlns="http://www.w3.org/2000/svg" viewBox="0 0 300 300"><defs><style>.cls-1{fill:#107414;}.cls-2{fill:#a09266;}.cls-3{fill:#a09265;}.cls-4{fill:#107314;}.cls-5{fill:#9f9265;}.cls-6{fill:#052206;}.cls-7{fill:#12120b;}.cls-8{fill:#222116;}.cls-9{fill:#061205;}.cls-10{fill:#10190b;}.cls-11{fill:#121c0d;}.cls-12{fill:#071306;}.cls-13{fill:#081206;}.cls-14{fill:#071206;}.cls-15{fill:#041004;}.cls-16{fill:#090a06;}.cls-17{fill:#050b04;}.cls-18{fill:#0e140a;}.cls-19{fill:#0d1309;}.cls-20{fill:#0b0b07;}.cls-21{fill:#0a1207;}.cls-22{fill:#12160c;}.cls-23{fill:#090f06;}.cls-24{fill:#0a0f07;}.cls-25{fill:#080a05;}.cls-26{fill:#080d06;}.cls-27{fill:#040302;}.cls-28{fill:#16180e;}.cls-29{fill:#040e03;}.cls-30{fill:#12170c;}.cls-31{fill:#0e1409;}.cls-32{fill:#0e120a;}.cls-33{fill:#071506;}.cls-34{fill:#0b1008;}.cls-35{fill:#091106;}.cls-36{fill:#0c0e08;}.cls-37{fill:#1c2813;}.cls-38{fill:#091107;}.cls-39{fill:#041504;}.cls-40{fill:#0a1407;}.cls-41{fill:#031604;}.cls-42{fill:#11170b;}.cls-43{fill:#0b0c07;}.cls-44{fill:#0a1408;}.cls-45{fill:#0b1208;}.cls-46{fill:#181e10;}.cls-47{fill:#0b1809;}.cls-48{fill:#051004;}.cls-49{fill:#0c1709;}.cls-50{fill:#151a0e;}.cls-51{fill:#080d05;}.cls-52{fill:#010301;}.cls-53{fill:#070905;}.cls-54{fill:#081707;}.cls-55{fill:#1c1f12;}.cls-56{fill:#0b1308;}.cls-57{fill:#11140b;}.cls-58{fill:#080c06;}.cls-59{fill:#090d06;}.cls-60{fill:#090e06;}.cls-61{fill:#0b1207;}.cls-62{fill:#060804;}.cls-63{fill:#020902;}.cls-64{fill:#15140d;}.cls-65{fill:#060604;}.cls-66{fill:#181c10;}.cls-67{fill:#0f1009;}.cls-68{fill:#040403;}.cls-69{fill:#12150c;}.cls-70{fill:#0e130a;}.cls-71{fill:#060e04;}.cls-72{fill:#0b1508;}.cls-73{fill:#0b1708;}.cls-74{fill:#111c0c;}.cls-75{fill:#091206;}.cls-76{fill:#091006;}.cls-77{fill:#061005;}.cls-78{fill:#0a0c07;}.cls-79{fill:#11150b;}.cls-80{fill:#020501;}.cls-81{fill:#051204;}.cls-82{fill:#0a1007;}.cls-83{fill:#091007;}.cls-84{fill:#071205;}.cls-85{fill:#041404;}.cls-86{fill:#0d6311;}.cls-87{fill:#031504;}.cls-88{fill:#051205;}.cls-89{fill:#081306;}.cls-90{fill:#13120c;}.cls-91{fill:#0e170a;}.cls-92{fill:#131b0d;}.cls-93{fill:#060e05;}.cls-94{fill:#17170f;}.cls-95{fill:#040703;}.cls-96{fill:#105711;}.cls-97{fill:#1a1811;}.cls-98{fill:#0e6511;}.cls-99{fill:#0d5f10;}.cls-100{fill:#0b1408;}.cls-101{fill:#051905;}.cls-102{fill:#10110a;}.cls-103{fill:#0a0d07;}.cls-104{fill:#0e6812;}.cls-105{fill:#091707;}.cls-106{fill:#0d1909;}.cls-107{fill:#121f0d;}.cls-108{fill:#0e180a;}.cls-109{fill:#070d05;}.cls-110{fill:#0a0b07;}.cls-111{fill:#041805;}.cls-112{fill:#16160e;}.cls-113{fill:#061505;}.cls-114{fill:#020602;}.cls-115{fill:#0e6211;}.cls-116{fill:#0f110a;}.cls-117{fill:#0e1009;}.cls-118{fill:#0c1409;}.cls-119{fill:#0a1508;}.cls-120{fill:#030702;}.cls-121{fill:#061405;}.cls-122{fill:#13190d;}.cls-123{fill:#0f170a;}.cls-124{fill:#0c1b09;}.cls-125{fill:#020b02;}.cls-126{fill:#0f200b;}.cls-127{fill:#020201;}.cls-128{fill:#031304;}.cls-129{fill:#0f180a;}.cls-130{fill:#0f140a;}.cls-131{fill:#151f0e;}.cls-132{fill:#050f04;}.cls-133{fill:#0f170b;}.cls-134{fill:#091c08;}.cls-135{fill:#080805;}.cls-136{fill:#050903;}.cls-137{fill:#141f0e;}.cls-138{fill:#111d0c;}.cls-139{fill:#071907;}.cls-140{fill:#14210e;}.cls-141{fill:#191b10;}.cls-142{fill:#101c0b;}.cls-143{fill:#051605;}.cls-144{fill:#0d190a;}.cls-145{fill:#0d1009;}.cls-146{fill:#11180b;}.cls-147{fill:#090906;}.cls-148{fill:#101a0b;}.cls-149{fill:#151f0f;}.cls-150{fill:#010101;}.cls-151{fill:#041204;}.cls-152{fill:#051805;}.cls-153{fill:#020301;}.cls-154{fill:#0c1609;}.cls-155{fill:#0d1a0a;}.cls-156{fill:#030502;}.cls-157{fill:#091407;}.cls-158{fill:#0b0f08;}.cls-159{fill:#0c0c08;}.cls-160{fill:#0b0f07;}.cls-161{fill:#182210;}.cls-162{fill:#061605;}.cls-163{fill:#0b0e08;}.cls-164{fill:#0e200b;}.cls-165{fill:#171f10;}.cls-166{fill:#131e0d;}.cls-167{fill:#010601;}.cls-168{fill:#030e03;}.cls-169{fill:#08380a;}.cls-170{fill:#182511;}.cls-171{fill:#171a0f;}.cls-172{fill:#030402;}.cls-173{fill:#0e0f09;}.cls-174{fill:#020601;}.cls-175{fill:#0e1109;}.cls-176{fill:#040b03;}.cls-177{fill:#13110c;}.cls-178{fill:#010501;}.cls-179{fill:#0d200a;}.cls-180{fill:#020d02;}.cls-181{fill:#12200d;}.cls-182{fill:#0a1c08;}.cls-183{fill:#182510;}.cls-184{fill:#0f1a0b;}.cls-185{fill:#010200;}.cls-186{fill:#0b0d07;}.cls-187{fill:#030f03;}.cls-188{fill:#161f0f;}.cls-189{fill:#030602;}.cls-190{fill:#141a0e;}.cls-191{fill:#0c1a09;}.cls-192{fill:#101f0c;}.cls-193{fill:#0a1708;}.cls-194{fill:#1c2012;}.cls-195{fill:#0b1c09;}.cls-196{fill:#13210e;}.cls-197{fill:#0b4e0d;}.cls-198{fill:#031103;}.cls-199{fill:#040c04;}.cls-200{fill:#111e0c;}.cls-201{fill:#000100;}.cls-202{fill:#0e190a;}.cls-203{fill:#0d1b0a;}.cls-204{fill:#031003;}.cls-205{fill:#040c03;}.cls-206{fill:#040903;}.cls-207{fill:#010701;}.cls-208{fill:#010702;}.cls-209{fill:#121a0c;}.cls-210{fill:#111a0c;}.cls-211{fill:#0e1e0b;}.cls-212{fill:#171c0f;}.cls-213{fill:#020802;}.cls-214{fill:#101d0b;}.cls-215{fill:#010401;}.cls-216{fill:#10180b;}.cls-217{fill:#14140c;}.cls-218{fill:#0c1509;}.cls-219{fill:#0e1c0b;}.cls-220{fill:#161c0f;}.cls-221{fill:#010201;}.cls-222{fill:#14160d;}.cls-223{fill:#041704;}.cls-224{fill:#030802;}.cls-225{fill:#12120c;}.cls-226{fill:#17160f;}.cls-227{fill:#0e6712;}.cls-228{fill:#000200;}.cls-229{fill:#0f6912;}.cls-230{fill:#0f160a;}.cls-231{fill:#14190d;}.cls-232{fill:#1b1e12;}.cls-233{fill:#1c1a12;}.cls-234{fill:#11110b;}.cls-235{fill:#1e1c13;}.cls-236{fill:#020402;}.cls-237{fill:#17150f;}.cls-238{fill:#302c1e;}.cls-239{fill:#11100b;}.cls-240{fill:#091307;}.cls-241{fill:#060b05;}.cls-242{fill:#0a0906;}.cls-243{fill:#0e1209;}.cls-244{fill:#0c0d08;}.cls-245{fill:#16150e;}.cls-246{fill:#0f0f09;}.cls-247{fill:#15170e;}.cls-248{fill:#0c1108;}.cls-249{fill:#030302;}.cls-250{fill:#0e6311;}.cls-251{fill:#0f1c0b;}.cls-252{fill:#0b1a08;}.cls-253{fill:#1a1e11;}.cls-254{fill:#070b05;}.cls-255{fill:#091807;}.cls-256{fill:#2b2b1b;}.cls-257{fill:#0e1c0a;}.cls-258{fill:#171b0f;}.cls-259{fill:#0a1307;}.cls-260{fill:#020502;}.cls-261{fill:#0f130a;}.cls-262{fill:#1b1b12;}.cls-263{fill:#252418;}.cls-264{fill:#0a1808;}.cls-265{fill:#191810;}.cls-266{fill:#14140d;}.cls-267{fill:#080e06;}.cls-268{fill:#081406;}.cls-269{fill:#061b06;}.cls-270{fill:#15150e;}.cls-271{fill:#040d03;}.cls-272{fill:#0f100a;}.cls-273{fill:#135412;}.cls-274{fill:#172210;}.cls-275{fill:#0e6612;}.cls-276{fill:#080e05;}.cls-277{fill:#1a1f11;}.cls-278{fill:#13190c;}.cls-279{fill:#10190c;}.cls-280{fill:#131d0e;}.cls-281{fill:#15160e;}.cls-282{fill:#060704;}.cls-283{fill:#16170e;}.cls-284{fill:#040603;}.cls-285{fill:#383323;}.cls-286{fill:#191d10;}.cls-287{fill:#0f6d13;}.cls-288{fill:#0f6b12;}.cls-289{fill:#0f6e13;}.cls-290{fill:#0c540f;}.cls-291{fill:#0b4c0d;}.cls-292{fill:#0c5b10;}.cls-293{fill:#0c530e;}.cls-294{fill:#0f7013;}.cls-295{fill:#0f450f;}.cls-296{fill:#107214;}</style></defs><path d="M36-.61H264a1,1,0,0,1,1,1V190.11A109.88,109.88,0,0,1,155.11,300H144.85A109.84,109.84,0,0,1,35,190.14V.38a1,1,0,0,1,1-1Z"/><path class="cls-1" d="M77.45,88.84c1.24,3,.45,6.12.41,9.18,0,1.62-1.4,1.73-2.65,1.74-11.06,0-22.12,0-33.18,0-2,0-2.92-.76-2.79-2.77,0-.6,0-1.2,0-1.81,0-29.21,0-58.42-.08-87.63,0-3.58.88-4.69,4.6-4.68q106.19.15,212.38,0c3.47,0,4.5,1,4.49,4.47q-.18,44,0,88c0,3.47-1.07,4.57-4.53,4.5-10.09-.2-20.19-.18-30.28,0-3.19,0-4.37-1-4.07-4.15.21-2.26.06-4.56.07-6.84,1.26-.63,2.25.45,3.4.47a5.13,5.13,0,0,0,.69-.25c.47-.36.67-.92,1.08-1.33a1.64,1.64,0,0,1,1.92-.12,8.85,8.85,0,0,0,2.82,1.66,1.11,1.11,0,0,0,1-.1c.23-.19.45-.34.68-.52a2.43,2.43,0,0,1,3.62-.47c1.29,0,2.64,1.82,3.83-.2.68-1.58,2.17-1.2,3.4-1.45a2.15,2.15,0,0,0,1.22-1c.12-.3.26-.58.37-.87.42-1.56,1.63-2.49,2.7-3.52a2.42,2.42,0,0,0,.88-1.78c0-.75-.45-1.44-.26-2.2A10.17,10.17,0,0,0,250.73,74a1.07,1.07,0,0,0-.59-.69c-.93-.36-1.62.36-2.41.5a5.48,5.48,0,0,1-1,.31c-1.2.28-2.58-.67-3.64.57a12.1,12.1,0,0,1-3.91,1.43,16.62,16.62,0,0,1-1.7.37,2.68,2.68,0,0,1-1.19-.18c-1.27-1.53-3.71-1-4.88-2.68a1.81,1.81,0,0,1,0-1.08c.74-1,1.42-2,2.15-3,1-.68,2.21-.35,3.21-.91a10.31,10.31,0,0,0,1.35-.24A4.37,4.37,0,0,0,240,67.22,7.79,7.79,0,0,0,242.33,66c1-.34,1.4-1.21,1.85-2a5.72,5.72,0,0,0,1.47-2.21c.13-.68-.41-1.12-.6-1.7-.26-1,.29-1.94.22-2.92a3.33,3.33,0,0,0-.06-1.54s-.27-.15-.29-.13a3.28,3.28,0,0,0-1.13.26,6.46,6.46,0,0,1-1.22.64,12.83,12.83,0,0,0-3.33,1.41,3,3,0,0,1-1,.33c-1.54,0-2.8.84-4.19,1.32a7.74,7.74,0,0,1-1.68.45,5.11,5.11,0,0,1-2.77-.64c-.94-.49-2-.92-2-2.27,0-1.16.94-1.57,1.8-2,1.86-.94,3.27-2.57,5.24-3.32a3.9,3.9,0,0,0,2.74-2.93c.33-1.1,1.42-1.31,2.18-1.91a6,6,0,0,1,.58-.65,1.6,1.6,0,0,0,.39-1.48c-.38-.91.19-1.8,0-2.68a1.27,1.27,0,0,0-.69-.83c-1.63-1-2.3,1.05-3.57,1.14a2,2,0,0,1-1.09,0,7.56,7.56,0,0,1-2-1,2.2,2.2,0,0,1-.84-1.32c0-1.84,1.56-2.92,2.21-4.44a13.1,13.1,0,0,0,1.14-4.47,4.38,4.38,0,0,0-1.55-3,4.3,4.3,0,0,0-1.24-.09c-1.91.51-3.81,1.05-5.82.6a2.09,2.09,0,0,1-1.84-1.11,3,3,0,0,1-.18-1.11c0-1,.9-1.47,1.38-2.18a3,3,0,0,0,.81-2c.38-1.13-.46-1.94-.75-2.89a2.94,2.94,0,0,0-.61-1.34s-.31-.05-.31-.05a1.55,1.55,0,0,0-.33.06,2.66,2.66,0,0,1-.82.33c-4.1.66-3.8-2.86-4.87-5.08a8.85,8.85,0,0,0-.24-.92c-.22-.32-.42-.69-.89-.29a3.24,3.24,0,0,0-.36,1.49A10,10,0,0,0,217,16.64c-.36,1.64-1.7,1.67-3,1.84-.9.17-1.42-.92-2.31-.67a3.7,3.7,0,0,0-.52,1.42c-1,1.67-1.49,3.39-.57,5.27.38,1.29,1.82,2.61-.09,3.84-1.67.52-3.11-.42-4.65-.71a4.56,4.56,0,0,0-2.33.37,3.9,3.9,0,0,0-1.07,4.84c.15.64.22,1.3.41,1.93.12,2.28,3.61,3.47,2,6.29a2.41,2.41,0,0,1-.95.43,8.81,8.81,0,0,1-1.54,0c-1.11-.12-2.13-.65-3.23-.76a7.41,7.41,0,0,0-1.41.5,1.35,1.35,0,0,0-.49.49c-.29,1,.25,1.91,0,2.83a1.28,1.28,0,0,0,.54,1.36,2.12,2.12,0,0,1,.54.69c.35.51.91.83,1.22,1.37.1,1.88,1.35,2.62,3,3a7.58,7.58,0,0,1,2.56,1.73c.8,1.09,2.12,1.39,3.15,2.13,2.63,2.07,2.51,3.3-.46,4.49a5,5,0,0,1-3.06.38c-.91-.28-1.81-.65-2.74-.89a7.58,7.58,0,0,1-3.2-1.73,13.08,13.08,0,0,0-3.39-1.73,10.65,10.65,0,0,0-2.93,0c-.81,1.19.29,2.11.44,3.14.41,1.35-1.35,2.09-.93,3.43.39.85,1.23,1.31,1.78,2a8.74,8.74,0,0,0,1.82,2.15,4.26,4.26,0,0,0,2.07.88,2.86,2.86,0,0,1,1.2.73c.88.9,2,.72,3,.57a13,13,0,0,1,1.52.11,2.18,2.18,0,0,1,1,.47c.62,1.31,1.85,2.29,2.16,3.79a2,2,0,0,1-.17,1.16c-1.49,1.7-3.83.64-5.51,1.72a4.23,4.23,0,0,1-2.85.44,21,21,0,0,1-4.68-1.12c-1.2-.35-1.86-1.5-3-2-1.28-.57-2.55-.19-3.81,0-.49.07-1,.22-1.47.3a7.47,7.47,0,0,1-2.31-.62,3.27,3.27,0,0,0-1.75.15c-.28.15-.56.27-.84.4-1.14.44-2.41.43-3.45,1.17a8.84,8.84,0,0,1-2.5.87,11.07,11.07,0,0,1-3.85-.16,12.75,12.75,0,0,0-2.76-.22h-2.27c-1.12-.08-2.36.2-3.1-1a2.9,2.9,0,0,1,.6-2.67c.64-.62,1.41-1.08,2.06-1.69a3.06,3.06,0,0,1,1-.38l1-.3c1.08-.29,2.17.2,3.26-.06a9,9,0,0,0,1.5-1,3.81,3.81,0,0,0,1.62-1.51,2.85,2.85,0,0,1,.59-.7,7.19,7.19,0,0,0,1-.8c.26-.36.49-.75.78-1.08.78-.87,1.84-1.68.64-3a2.48,2.48,0,0,1-.45-.85c-.24-1.47.78-2.81.42-4.27-.57-.35-1.06,0-1.56.18-.28.18-.56.35-.85.51-1.3.59-3,0-4,1.32-1.59.65-3.18,1.34-4.81,1.9-.36.11-.73.2-1.1.29a7.31,7.31,0,0,1-5.46-1.51,2.9,2.9,0,0,1-.35-2.17c.58-1.6,2.08-1.77,3.42-2.2,1.27-.1,1.9-1.11,2.71-1.88s2.18-1,3.14-1.73a3.57,3.57,0,0,0,1.19-1.28,3.24,3.24,0,0,1,1.18-1.41A2.77,2.77,0,0,0,171.14,46a2.69,2.69,0,0,0,.13-1.61,3.13,3.13,0,0,1,.44-2.1c-.06-.41.13-.9-.45-1.1-.89-.22-1.62.3-2.41.51a6.24,6.24,0,0,1-2.72-.1,13.61,13.61,0,0,1-1.69-.16,2.12,2.12,0,0,1-1-.56,2.4,2.4,0,0,1-.38-1.58c.32-1.46,1.65-2.18,2.43-3.3,1.05-1.1,1.14-2.52,1.28-3.93a5.73,5.73,0,0,0-.93-3.12A6.25,6.25,0,0,0,165,28a3,3,0,0,0-1.24-.13c-1.43-.25-2.13,1.28-3.4,1.41a2.23,2.23,0,0,1-1.06-.08A5.61,5.61,0,0,1,157,27.92c-.58-1,0-1.8.44-2.58A6.76,6.76,0,0,0,157.9,19c-.1-.27-.19-.55-.29-.82a1.34,1.34,0,0,0-.49-.54l-.39-.05a4.33,4.33,0,0,1-2.28.47c-3.15.56-2.87-1.88-3.33-3.71a6.5,6.5,0,0,0-.88-2.39,3.38,3.38,0,0,0-.67-.15,6.13,6.13,0,0,0-.56.39,6.57,6.57,0,0,0-1.07,2.19,15.64,15.64,0,0,1-.35,2.9,1.61,1.61,0,0,1-1.47.8c-4.2-.13-4.2-.13-4.88,4-.2,1.76,1.13,2.86,1.82,4.24a2.11,2.11,0,0,1,0,1,1.91,1.91,0,0,1-1.66,1.15c-1.2,0-2.28.91-3.54.57a3.71,3.71,0,0,1-.85-.41c-.6-.33-1.12-.85-1.89-.82a2.14,2.14,0,0,0-.74.13,7.94,7.94,0,0,0-.57.59,4.22,4.22,0,0,0-.56,4.44c.28,2.05,1.61,3.51,2.83,5a3.85,3.85,0,0,1,.17,1.06,5.06,5.06,0,0,1-.1,1.1,2,2,0,0,1-.61.92c-1.25.67-2.49.27-3.73,0-.79,0-1.58.14-2.37.13a1.14,1.14,0,0,0-1.06.31,4.76,4.76,0,0,0,0,.76,4.25,4.25,0,0,1,.33,2.62,2.16,2.16,0,0,0,.42,1.07,2.31,2.31,0,0,1,.41.71,7.13,7.13,0,0,1,1.89,2.84c.18.17.33.37.5.55a16.36,16.36,0,0,1,1.79,1.08c2.12,2.25,5.94,2.19,7.33,5.43.05,1.5-.81,2.1-2.18,2.19-2-.39-4.06.47-6.11.15a3.88,3.88,0,0,1-1-.43c-1.09-.52-1.64-1.77-2.86-2.13-.92-.35-1.77-.85-2.69-1.19-.77-.3-1.47-.91-2.36-.51,0,0-.25.15-.21.18a1.06,1.06,0,0,0-.12.53A2.61,2.61,0,0,1,124,57c-.12,1.35-.39,2.68-.56,4a2.2,2.2,0,0,0,1,1.24,3,3,0,0,1,1.51,1.29,10.38,10.38,0,0,1,.4,1c-.15,1.48-.09,2.9,1.39,3.8a2.19,2.19,0,0,0,2.55.45c.31-.07.62-.13.94-.17a8.26,8.26,0,0,1,3.79.8c.77,1.2,2.06,2,2.75,3.23a1.72,1.72,0,0,1-.09,1.14c-1.44,1.64-3.37.72-5.07,1a16.41,16.41,0,0,1-5.18-.42c-1.23-.22-2.42-.63-3.65-.88s-2.6.32-3.91.11c-.29,0-.59-.08-.86-.11-.17.12-.37.19-.49.29-.09.68.46,1,.73,1.46a2.75,2.75,0,0,1,.4,1,16.78,16.78,0,0,1-.08,3,3.61,3.61,0,0,0,.12,1.35,9.66,9.66,0,0,1,4,5.19,5.42,5.42,0,0,0,1.53.36c.31.06.61.15.9.23a2.92,2.92,0,0,1,.91.33c.71.53.68,1.71,1.71,1.92a2.59,2.59,0,0,0,1.14,0,13.85,13.85,0,0,1,2.6-1.26c1.24-.53,2.38-.67,3,.86a4,4,0,0,0,1.1,1.69c.86.4,1.46-.37,2.18-.49a5.12,5.12,0,0,1,1.41,0c1,.22,1.82,1.17,3,.55,1.41-.32,2.48-2.42,4.25-.83.42,3.59,1.4,7.21-.65,10.65H83.9c-1.89-3.31-.84-6.84-.75-10.29,1.09-1.77,2.41-.7,3.68-.32,1.06,1.2,2.19.59,3.32.1a4,4,0,0,1,2-.46,2.84,2.84,0,0,1,1,.33c.82.61,1.59.77,2.24-.26a2.63,2.63,0,0,1,1.23-.88,15.06,15.06,0,0,1,3.55.26,2.37,2.37,0,0,0,2,.34c.75-.15,1.12-.84,1.72-1.19.8-.34,1.74-.14,2.46-.7.25-.27.53-.52.79-.8.42-2.11,1.9-3.42,3.42-4.69a2.44,2.44,0,0,0,.47-.71c.3-1.25-.73-2.29-.57-3.52a2.93,2.93,0,0,1,.47-1.43c.25-.66,1.24-.85,1.08-1.71-.21,0-.37-.07-.56-.08l-.77.13c-1.27.28-2.45.79-3.71,1a11.2,11.2,0,0,1-1.69.4c-4.08-.52-8.33.37-12.26-1.41a2,2,0,0,1-.09-1.8c.55-1.17,1.84-1.25,2.77-1.86,1.1-.38,2.09-1,3.21-1.37a9.77,9.77,0,0,0,1.43,0c.89-.23,1.77-.51,2.65-.79a2.93,2.93,0,0,0,1.64-2.1c.82-1.53,1.24-3.31,2.76-4.39a2.12,2.12,0,0,0,.1-.9c.22-1.27-.48-2.37-.61-3.57a11.23,11.23,0,0,1,.61-1.83.5.5,0,0,0-.33-.3s-.25-.05-.26,0c-.91.34-1.42,1.26-2.37,1.47-.62.24-1.21.54-1.83.79-1.21.25-2.5.3-3.49,1.2A7.05,7.05,0,0,1,96,59.49c-1,.12-2,.39-3,.48-1.46.25-2.43-.67-3.48-1.43a2,2,0,0,1-.68-1.66c1.32-2.68,4.88-2.49,6.38-5a8.85,8.85,0,0,1,2.53-1.54,3.37,3.37,0,0,0,1.15-.54c.73-.74.78-2,1.86-2.47,2.23-1.1.69-3.31,1.39-4.84,0-.21,0-.43,0-.64a.8.8,0,0,0-.37-.46c-.64-.13-1.09.28-1.62.47-.33.15-.66.27-1,.4-1.58.23-2.82-.71-4.18-1.22a2.22,2.22,0,0,1-.49-.92c-.23-2.71,2.56-4.21,2.71-6.77a23.39,23.39,0,0,0,.12-2.65,4.35,4.35,0,0,0-.45-2,3.38,3.38,0,0,0-.8-.8,1.8,1.8,0,0,0-.76-.11,7.59,7.59,0,0,0-2,1,2.91,2.91,0,0,1-1,.27c-1.51-.35-3.13-.32-4.47-1.25a2,2,0,0,1-.35-1c.26-1.51,1.67-2.48,1.86-4,.36-1.9-.51-3.48-1.32-5.05a2,2,0,0,0-.74-.09c-1.35-.17-2.73.21-4.06-.2-1.12-.61-1.15-1.64-1.09-2.71a7.49,7.49,0,0,0-.92-2.59.68.68,0,0,0-1.06,0,6.74,6.74,0,0,0-.55,2c-.63,1.57-.07,3.87-2.57,4.3-1.36.55-2.15-.5-3.09-1.1a1.91,1.91,0,0,1-.32,0s-.34.07-.32.09a2.49,2.49,0,0,0-.46.92c0,.28-.11.55-.16.83a5.14,5.14,0,0,0-.61,3.57c0,1.86,2.44,3.11,1.32,5.25A10.6,10.6,0,0,1,71,29.31a3.44,3.44,0,0,1-2.64-.38c-1.39-.37-2.87-2.47-4.09.23-.37,1.28,0,2.58-.1,3.86,0,1.11.76,1.9,1.13,2.86A18.23,18.23,0,0,1,67,38.73a2.47,2.47,0,0,1,.21,2,2,2,0,0,1-.8.73c-.69.28-1.33.65-2,.88a7.39,7.39,0,0,1-3.1-.73c-.66-.31-1.26-.92-2.06-.33a1.47,1.47,0,0,0-.13,1.05,3.35,3.35,0,0,1,.33,2.15,3,3,0,0,0,.17,1.6,2.77,2.77,0,0,0,1,1.2c1.07.39,1.29,1.54,2,2.21.3.24.58.51.9.74A8.23,8.23,0,0,0,65,51a5.53,5.53,0,0,1,1.63,1c1.28,2.43,4.84,1.45,6,4a2.74,2.74,0,0,1-.45,2.25c-1.91,1.32-3.92.19-5.88.26-1.12-.17-2.13-.74-3.28-.83-1.25-.58-2.54-1.06-3.81-1.6-1.46-.3-2.65-1.57-4.26-1.15a1.78,1.78,0,0,1-.52.48c-.22,1.4.47,2.71.28,4.07a2.24,2.24,0,0,1-.35.93c-1.15,1.41,0,2.3.74,3.26a4.62,4.62,0,0,1,.45.81,3.28,3.28,0,0,0,1.25,1.23,6.28,6.28,0,0,0,2.49,2.11C61,69.13,63.23,69,65.15,69.75a17.15,17.15,0,0,1,2.93,2.58c.7,1.58-.18,2.16-1.54,2.36a24,24,0,0,1-3.17.07c-1,0-1.95,0-2.92,0-1.27-.13-2.5-.53-3.77-.7a29.89,29.89,0,0,1-3.94-1.21,3,3,0,0,0-2.27-.11c-2.45,1.74.77,2.87.46,4.35a3.76,3.76,0,0,1-.29,1.85,3.56,3.56,0,0,0,.11,1.59,3.43,3.43,0,0,0,.84.86,10,10,0,0,1,2.94,4,4.69,4.69,0,0,0,.81.92,6.92,6.92,0,0,0,2.44.94c.66.37,1,1.09,1.76,1.36a1.74,1.74,0,0,0,.82.07c.57-.27,1-.78,1.51-1.07a6.29,6.29,0,0,1,3.62,0c.65.45.81,1.26,1.37,1.73a1.57,1.57,0,0,1,.63.12c.74-.21,1.16-.81,1.74-1.2a2.48,2.48,0,0,1,1.51-.47,4.21,4.21,0,0,1,1,.12c.9.28,1,1.4,1.86,1.71a6.65,6.65,0,0,0,1.08-.14A14.34,14.34,0,0,0,77.45,88.84Z"/><path class="cls-2" d="M49.33,82.71l-.75-1c-.61-1-.86-1.94.48-2.58,1.79-.82,2-1.65,0-2.51-2.35-1.18-2-3.21-1.55-5.2.3-1.25,1.23-1.26,2.23-.71a13.56,13.56,0,0,0,3,1.18c1.3.48,2.61.93,3.91,1.41a18.08,18.08,0,0,0,3.11.55c.68.3,1.45.1,2.14.38,3.61.88,7.21-.78,10.87,0,1,.21,2.06-1,3-1.68l.66-.5-.41.28c-1.85.68-3.46,4.08-5.66.55,0,.08-.16-.06-.19,0-1.33.5-2.47-.25-3.69-.44-.82-.93-.4-3.93-3-1.82-1.4.06-2.76,0-3.78-1.16-.46-.47.16-1.19-.42-1.61a2.2,2.2,0,0,1-.69.18c-1.62.85-2.62-.23-3.68-1.11a1.32,1.32,0,0,1-.3-.85c.23-.72.71-1.44,0-2.17-3.55-1.62-3.8-2.32-1.67-4.6l0,.06c.62-1,1.7-2.06-.25-3a1.9,1.9,0,0,1-1-2.6c.42-1.75,1.4-1.62,2.6-.79a28.66,28.66,0,0,0,5.08,2.3c1.08.5,2.21.84,3.32,1.25a20.49,20.49,0,0,0,3.45.95,20.15,20.15,0,0,0,4.56.71A8.77,8.77,0,0,0,76.41,57c.75-.5.87-1.34,1.16-2.09-.33.57-.35,1.29-.84,1.78a2.8,2.8,0,0,1-1.48.65c-.92,0-1.86.11-2.52-.73-.32-.47-.4-1.6-.69-1.47-3.15,1.46-4-1.82-5.93-2.77-.84-.86-1.65-1-2.42.09-1.14,1.24-2.06.61-2.95-.34a1.05,1.05,0,0,1,0-1.72c.5-1.48,1.09-3-1.58-2.39a1.52,1.52,0,0,1-1.65-.79c-.91-1.27-.41-2.1.85-2.68,1.7-1.53-.28-1.39-.87-1.89-1.46-1-.59-2.09,0-3.14,1.9-2.43,3.48.83,5.28.3-.1,1,.66,1.17,1.36,1.39,1.39-.09,2.77.08,4.15.12a19.4,19.4,0,0,1,2,.25c1,.12,1.9.62,2.91.7,1.4.06,3,1,4-.78-.06,0-.2-.07-.24,0-1.23.44-2.39,1-3.72.76-1.72,0-2.09-2.4-3.93-2.18a6.15,6.15,0,0,1-1,0,2.72,2.72,0,0,1-1.84-1.43,3.11,3.11,0,0,0-2.19-2.11A2.56,2.56,0,0,1,63.59,34c-.25-1.18-1.38-2.14-.83-3.5.22-.6.87-.92,1-1.57a7.42,7.42,0,0,1,0-1.49c1.68-3.72,3.34-.66,5,0l2,.78a32.17,32.17,0,0,1,5.22.37h-.42a2.21,2.21,0,0,1-1.16-.33c-1.12-2.26-2.82-4.15-4.06-6.33a1.73,1.73,0,0,1,1-1.67c.79-.4,1.37-1,.5-1.87l0,.13a2.4,2.4,0,0,1,0-3.25c1-1.56,1.87-1,2.76.09a5,5,0,0,0,2.1,2.07c1.24.7,2,.54,2-1.08a8.48,8.48,0,0,0-.93-3.66c-.47-1.24.52-1.87,1.13-2.66,1.59-2.76,3-1,4.52.14a3.33,3.33,0,0,1,.4,2.95c.08,1.45-2.4,3.32.7,4.27,1.79-.49,2.54-2.29,4-3.19.91.07,1.32.76,1.76,1.41,1.73,1.7-1.08,2.64-.68,4.12,1,.74,2.07,1.44,1.59,3a8.72,8.72,0,0,0-2.66,4.1,1,1,0,0,0-.19.54c-.05.16-.09.32-.13.47a2.51,2.51,0,0,1-1.74.76,13.55,13.55,0,0,1,3-.35c1.11-.24,2.23-.46,3.35-.68l-.09,0c.76-1,2-1.07,3-1.78a2,2,0,0,1,1.45,0,3.13,3.13,0,0,1,1,1.64c-.42,1.05-.74,2.09.53,2.82,1.29,1.58-.9,2.45-.76,3.79,0,3-2.47,4.29-4.18,6.1a3.42,3.42,0,0,0-2.84,1.41,3.33,3.33,0,0,1-.77.68,7.82,7.82,0,0,1-3,.67c-1.2-.31-1.72-1.49-2.63-2.09-.17.66.45.82.67,1.19a3.08,3.08,0,0,0,3.43.72,15.12,15.12,0,0,0,1.88-.45,14.8,14.8,0,0,1,3.34-.87,8.46,8.46,0,0,1,2.46-.17c1.1-.36,2.26-.4,3.38-.7l.16-.06c1.56-.83,3-3.25,4.85-.43.27.92,1.3,2-.35,2.62l.06,0c-.47.67-3,.66-.73,2.21.73.48,1.47.88,1,1.94-.62,1.42-1.72,1.49-3,1.08a1,1,0,0,0-1.21,1.06c.82,1.22,1.45,2.46.4,3.86a2,2,0,0,1-2.22,0c-1-.32-2-2-3-.05-1.71.91-2.55,3.29-5,2.92a3.45,3.45,0,0,1-.85-.36c0,.06-.17.11-.17.16-.1.24-.2.42-.31.64a1.8,1.8,0,0,1-1.65,1.39c-1.86.14-2.74-1.1-3.57-2.74a3.53,3.53,0,0,0,1.24,2.31,7.61,7.61,0,0,0,5.38,1.29c1-.21,2,.18,2.88-.33l2.76-.15A7.35,7.35,0,0,1,98.8,56.5a14.78,14.78,0,0,0,3.59-1.59l1.8-.08a12.62,12.62,0,0,1,4.71-2.37,1.89,1.89,0,0,1,.95,1.27,2.36,2.36,0,0,1-.55,2.08l-1.16,1.24c-1.11-.18-.7.56-.53,1s.82.79,1.23,1.19c.94.9,2,1.76.5,3.06a.38.38,0,0,0-.1.37c-1.08.87-4.49,0-2.33,3.31.37.56-.61,1.15-1.16,1.58a3.6,3.6,0,0,1-3.33.47,2.1,2.1,0,0,1-.75-.73,1.5,1.5,0,0,0,.09.71c.45,1.18-.61,1.62-1.25,2.27l-.66.52c-1.5.52-2.46-.82-3.71-1-.52.41-.51,1.06-.75,1.59a1.56,1.56,0,0,1-1.66.86l-.42.66c-1.19.87-1.9.06-2.6-.76a4.3,4.3,0,0,1-.3-.65c-.1-.24-.09-.17,0,.22.35,1,.52,1.87-.54,2.53-1.36.49-2.25-.61-3.35-1a7.55,7.55,0,0,1-1.2-1,11.75,11.75,0,0,1-1.55-1.8,16.79,16.79,0,0,0,2.26,2.48c.56.4,1.21.62,1.8,1,1.26.93,2.49.21,3.73,0,4.86,1.37,9.57.05,14.3-.81l1-.06c1.11-1.2,2.67-1.12,4.09-1.47l.12-.06c1-.78,2-1.81,3,.09.33,2.11.57,4.19-2,5.21a.87.87,0,0,0-.37.53c-1.14.91-.23,1.42.46,1.67,1.64.61,1.27,1.64.74,2.76a1.94,1.94,0,0,0-.26.61c-.52,1.54-1.83,1-2.89,1.1-.6,0-1.25-.19-1.53.6,0,1.38,2.39,1.93,1.26,3.69-.54.66-1.13,1.21-2.09.92s-1.89-1.24-3.11-1.12c-1.61.88.25,3.77-2.36,4.07-1,.27-1.6-.48-2.21-1.1a15.71,15.71,0,0,0-2.6-2.36c-2.35.51-.46,1.87-.57,2.83-1.71,2.85-2,2.8-4.71-.91l-.06-.21c-1.41-1-2.28-.82-2.36,1.09-.55,1.6-1.48,1.59-2.64.64-1-1-1.52-2.55-3.1-3.49-.83,2.12-.3,4.09-.47,6s.62,3.87-.75,5.58c-2.73.6-3.8-.33-3.6-3.27a50.89,50.89,0,0,0-.51-11.15l-1.67,2.84c-.17,1.46-1.21,2.46-1.93,3.63a1.31,1.31,0,0,1-1.87.18c-.73-.66-.43-1.55-.5-2.35-.08-1.24-.6-1.49-1.6-.71l-.53.49a12.61,12.61,0,0,1-3.08,3.51,1.72,1.72,0,0,1-2.29-1.35c-.18-1.3,1.74-2.65-.08-3.9a14.86,14.86,0,0,0-2.4,2.14l-.84.88C61,92.05,60,91.68,59,91c-1.47-.72,0-3.2-2.1-3.54-1.42.19-2.48,2.19-4.19.79l-.62-.62c-1.3-1.67,1.15-2.28,1-3.62A1.21,1.21,0,0,0,52,83.43C51.07,83.23,49.94,83.93,49.33,82.71Z"/><path class="cls-2" d="M135.31,38.88a.62.62,0,0,0-.16-.47c-.21-1.78-3.78-1.81-2.33-4.46a1.73,1.73,0,0,0-.51-1.27,2.22,2.22,0,0,1-.6-2.16c.19-.6.85-.89,1-1.5,0-1-.74-2.1.37-3l-.07.06a1.2,1.2,0,0,1,1.4-.45,8.63,8.63,0,0,1,3.2,1.81l.1,0c1.23-.15,2.28.54,3.45.68a17,17,0,0,1,3.23.37c-1.16,0-1.46-1-2-1.83l0,.06c-1.22-.84-.56-3.14-2.6-3.35-1-1.82.14-2.88,1.35-3.93.08-.67-.38-1.09-.75-1.54-1.05-1.28-.2-2.25.6-3.12,1.15-1.27,1.86-.08,2.62.6a16.83,16.83,0,0,0,2.39,2.15c2.55-.72,1.1-2.47,1-3.88a3.22,3.22,0,0,1,.33-3.82c1.13-1.25,2.26-2.46,3.84-.56l.64.67c.63.77,1.59,1.42,1,2.65A23.09,23.09,0,0,0,152.2,15c-.07.78-.71,1.71.12,2.34,1,.76,1.73-.23,2.52-.67l1.8-1.6c.49-.64,1-1.19,1.87-.57.43,1.16,1.76,2.21.47,3.6l0-.07a1.78,1.78,0,0,0-.43,1.56c.33.72,1.38.59,1.64,1.39-.22,3-2.8,4.75-4,7.26a2.43,2.43,0,0,1-1.32.26,1.56,1.56,0,0,1-.8-.22l.22.14c1.81.11,3.56-.35,5.33-.22v0c1.51-1.34,3.53-1.62,5.25-2.53a1.37,1.37,0,0,1,1.72.79,2,2,0,0,1,0,1.48c-.69,1.63,2.09,2.18,1.21,3.87-1.65,1.1-.68,2.93-1.22,4.34-.94.74-2.17,1.15-2.61,2.43-.67,1.16-1.84,1.47-3,1.82,0,0-.28.22-.25.25a3.41,3.41,0,0,0-.78.87,1.74,1.74,0,0,1-1,1c-1.07,0-2.1.38-3.18.35a4.83,4.83,0,0,1-2.1-1.21c-.13-.11-.11-.52-.46-.3a3.64,3.64,0,0,0,4.46,1.29c2,.13,3.44-1.4,5.3-1.6a6.84,6.84,0,0,0,3.05-.23,11.78,11.78,0,0,0,3.31-1.45c1.26-.1,2.53-1.8,3.76.05.56,1,1.51,2,.15,3.17-.51.56-2.62.35-.94,2,1.25.59,1.71,1.41.82,2.65a1.52,1.52,0,0,1-1.61.82c-2-.49-2.81,0-1.73,2.08l.68,1.76c-1.19,1.21-2.35,2-3.86.35a1.29,1.29,0,0,0-2.14.16A10.52,10.52,0,0,0,162,55.14c-1.1,1.1-3.44-1.17-4,1.46a2.4,2.4,0,0,1-2.5.7c-1.14-.35-1.66-1.35-2.29-2.21-.14-.18-.25-.42-.45-.52s-.32,0-.24.38a3.64,3.64,0,0,0,1.68,2.18,9.26,9.26,0,0,0,5.86,1c1.44.32,2.73-1,4.19-.36a.22.22,0,0,0,.36,0c1.36-.7,2.86-1.07,4.23-1.74a16.44,16.44,0,0,0,4.65-1.8.91.91,0,0,0,.49-.11c1-.45,1.89-1,2.85-1.45s1.82-.35,2.08.93c.52,1.41-.14,2.22-1.33,2.85s-1.65,1.62-.34,2.7a.68.68,0,0,0,.45.17c2.19,1.71,1.4,3-.57,4.13-1.54.19-1.75,1.08-1.24,2.36.11.84-.48,1.11-1.09,1.36l.07,0a2.86,2.86,0,0,1-2.71,1.14,2,2,0,0,1-.74-.2c-.7.17,0,.8-.33,1.09a2.1,2.1,0,0,1-.72.76c-1.39.2-2.75,1.55-4.18.09l.09,0c-.79-.7-1.31-.5-1.63.46a4.91,4.91,0,0,1-.49,1.36A6.08,6.08,0,0,1,161.4,73c-1.73-1.41-1.37,1.2-2.35,1.23-2,.27-3.22-1.31-4.87-1.86a1.81,1.81,0,0,1-.59-1.05,1.86,1.86,0,0,0,.4,1,4.63,4.63,0,0,0,.88.52c3.2,2.25,6.92,1,10.37,1.58a14.37,14.37,0,0,0,3.7-.22c.65-.21,1.38-.05,2-.36a7,7,0,0,1,2.93-.52,7.69,7.69,0,0,1,2.72-.88,12.2,12.2,0,0,0,3.4-1.61l-.08,0c1.2-.59,2.48-1.23,3.3.4a4.32,4.32,0,0,1-.72,5.49,1.35,1.35,0,0,0-.05,1.87,2.88,2.88,0,0,1,.61,2.37,5.49,5.49,0,0,1-3.26,3.44s-.25.21-.19.24a2.15,2.15,0,0,1-.12.56,6.74,6.74,0,0,1,0,.77A3.06,3.06,0,0,1,178,89a5.68,5.68,0,0,1-3.79-.28c-.31-.13-.63-.27-.91-.37-.63.87.16,2.22-1,2.91a4,4,0,0,1-3.12.83c-1.07,0-1.59-.73-2.06-1.53a3.79,3.79,0,0,1-.6-1.5c-.11-.47-.3-.74-.1-.31,0-.09,0,0,.08.37.05,1.81,0,3.56-1.49,4.87a2.23,2.23,0,0,1-1.64.19c-1.69-1.12-2.63-2.86-3.7-4.49a6,6,0,0,0-.9-1.5,1.86,1.86,0,0,1,.36,1.35c-1.46,3.7-1.66,3.77-5,1.67a2,2,0,0,1-.26-2.3c.21-1.46-.79-2.39-2.18-4.38,0,4.58-.18,8.25.06,11.89.19,2.93-.85,3.91-3.62,3.24-1.43-3-.33-6.27-.68-9.38,0-.74.07-1.58-1-1.79a1.78,1.78,0,0,0-.78.38c-.86,1.26-1.34,2.84-3,3.4A1.78,1.78,0,0,1,141,90.75a3.32,3.32,0,0,1,.18-1.39c.16-.45.25-.79.13-.32a.45.45,0,0,0-.21,0c-1.19.32-2.38.57-2.94,1.82-1,1.6-2,3.08-4,1.08-.46-1.09.31-2,.53-2.92.11-.64.44-1.51-.36-1.74-1.15-.32-1.42.76-1.77,1.56a15.13,15.13,0,0,1-1.7,1.79c-.95,1.17-2,1-3.08.21-.41-.27-.83-.53-.88-1.09-.06-1,1.46-2.62-1.1-2.45l-.74.34c-1.36.82-2.72,1.86-4.19.18-1.26-2,1.82-2.28,1.51-3.88a1.23,1.23,0,0,0-1.2-.51c-1.93.34-3.22-.34-3.67-2.33a2,2,0,0,1-.1-1.46c1.46-.85,2.52-1.76.46-3.13l.06,0a2.4,2.4,0,0,1-1.44-1.78c0-1.38-.39-2.8.4-4.11,1.18-.73,1.85.23,2.65.78l.12.07a7.75,7.75,0,0,1,3.49.88c1.08.64,2.36.6,3.51,1a17.91,17.91,0,0,0,4.24.71c1.45.47,2.94.2,4.41.27,1.31.13,2.58-.33,3.88-.33s2.48.75,3.65-.19c.44-.25.9-.47,1.36-.68a14.53,14.53,0,0,0,1.68-1.65c.35-.32-.05.16.23-.24-.34-.2-.25.25-.44.31a14.71,14.71,0,0,1-1.37,1.47c-1.1.45-2,1.51-3.36,1.19-.9-.12-1.07-1.93-2.42-1a1.35,1.35,0,0,1-1.36-.27L137,73a3.34,3.34,0,0,1-1.7-1.73c-.2-.65.09-1.59-1-1.72-1.17.61-2.22,2-3.67.55l-.11,0a1.81,1.81,0,0,1-2.07-1.3c-.22-2.15-1.1.83-1.48-.18-4.28-1.92-4.28-1.92-1.85-4.29l0,.06c.39-1.32-.41-1.47-1.41-1.42a1.85,1.85,0,0,1-2.48-.69c-1.29-1.2-.21-1.92.46-2.86.45-.64,2.17-.94.91-2.29l-1.29-1.34c-1.14-1-.68-2.07-.1-3.14a1.27,1.27,0,0,1,.93-.21c1.51.65,2.94,1.49,4.44,2.18a13.82,13.82,0,0,0,2.33.85c1.16.68,2.57.82,3.61,1.73h.13c1.66-.14,3.18.57,4.79.74a5.43,5.43,0,0,0,2.56.24c1.72-1.08,3.9-.18,5.6-1.31.92-.56,1-1.53,1.32-2.65-1.77,3.41-3.68,4.81-6.75,1.39-1.36-.21-2.7-.06-3.58-1.72A3.74,3.74,0,0,0,132.64,52a1.88,1.88,0,0,1-2.84.67c-.53-.12-.72-.52-.86-1,0-1.27,1.49-1.88,1.49-3.18a1.16,1.16,0,0,0-1-.73c-.57,0-1.14.29-1.7-.06l-.26,0a1.81,1.81,0,0,1-1.36-1.9c.36-1,2.17-.82,2-2.18-.13-.89-1.2-.44-1.77-.79-1.32-.71-.8-1.65-.32-2.58s1.08-1.79,2.37-1.55a26,26,0,0,0,3.14,1.42c1,.39,1.95,1.19,3.16,1.08,1-.06,1.92-.14,2.88-.17a2.47,2.47,0,0,1,1.38.35l1.78.74a13.43,13.43,0,0,1,1.87.46A2.38,2.38,0,0,0,146,41.49c-.75.29-1.14,1-1.83,1.28a2.13,2.13,0,0,1-.94,0c-2-.09-3-2.11-4.74-2.69C137.25,40.09,136,40.23,135.31,38.88Z"/><path class="cls-2" d="M215.4,12.3l.64-1c2.38-4.12,3.14-4.08,6.36.39a2.33,2.33,0,0,1,0,.59,9.45,9.45,0,0,1-.47,1c-.73,1.39-1.64,3.15-.17,4.16,1.18.81,2.07-1.06,3-1.81l-.1.08a2.42,2.42,0,0,1,2.1-1.44c1.06,1.07,2.84,1.92,1.21,3.84-.66.61-1.28,1.46-.18,2,2.81,1.33,1.77,2.71,0,3.76-1,.6-.91,1.61-1.57,2.24l-.23.83c-.5,1.16-1.34,1.65-3.29,1.08,2.18.84,3.58.16,5-.08a21.2,21.2,0,0,0,6.19-2.16,1.41,1.41,0,0,1,.95,0c2.19.76-.13,3.33,1.71,4.24,1.29,2-2,3.56-.54,5.57-2.11,1.31-2.71,4.37-5.54,4.87a2.9,2.9,0,0,1-.89-.09c-1.18,0-1,1.35-1.75,1.72a21.55,21.55,0,0,1-3,.75c-1-.1-1.44-1.13-2.21-1.51.07.35.43.39.57.62.85,1.33,1.92,1.13,3.08.51a21.73,21.73,0,0,0,2.41-.3,22.51,22.51,0,0,1,3-.61c1.29-.44,2.63.06,3.93-.22l-.09,0c2.14-.94,3.92-3.18,6.69-1.85.48.69,1.08,1.33.91,2.28.11,1.32-3.44.85-1.5,3.06,1.63,1.36,1.28,2.31-.6,2.94l-.21,0c-1.55.12-4-.41-1.73,2.44.8.86.61,1.6-.15,2.42-1.16,1.26-2.1.21-3.11-.17s-2.11-.94-2.52.22c-1.1,3.13-4.91,2.34-6.5,4.8-.64,1-1.9.82-2.83-.09a21.69,21.69,0,0,1-2.2-3.18c-.11-.2-.21-.4-.28-.55a5.32,5.32,0,0,0,1.1,2.86,7.67,7.67,0,0,0,1,.93c1.54,1.42,3.49-.07,5.12.74,1.4.17,2.73-.54,4.13-.31l1.13,0a8.52,8.52,0,0,1,4.48-1.4l-.08,0c1-1.18,2.62-1.16,3.74-2.09l1.48-.18c.8-.92,2.06-1,3-1.73.81,0,1.2.47,1.48,1.12.44,1.59-.36,2.51-1.7,3.13-1.47,1.49.12,2.22.79,3.19a1.65,1.65,0,0,1,.6,2.44,3.51,3.51,0,0,1-2.69,1.25c-.63.39-.6.93-.35,1.52,1.16,2.09-.7,2.39-1.84,3.12-.91.82-2.47-2.54-3.05.47a1.49,1.49,0,0,1-1.75,1.42l-.47.64c-1.42.66-2.13-.61-3.1-1.14-.68,0-1,.37-1.12,1a2.31,2.31,0,0,1-.42,1.3c-1,1.6-3.25.09-3.82,1-1.28,2-2.48,1.71-4.06.78-1-.64-1.44-1.82-2.46-2.33,0,0-.17,0-.13.08a1.26,1.26,0,0,0,.38.67,7.07,7.07,0,0,0,1.83,1.4c3,1.63,6.27.14,9.33,1,1.35-.23,2.69.51,4.05,0l.87-.06a12.71,12.71,0,0,1,4-1.22c1.22-.11,2.26-.93,3.51-.91a1.68,1.68,0,0,0,.67-.1c1.58-.54,2.87-3,4.86-.73a23,23,0,0,1,.06,3.32c-.12,1.22-1.08,1.66-2,2.14-1.62,1.79.86,1.87,1.19,2.84s-.27,1.87-.72,2.71c-.59,1.25-1.74.94-2.78,1-1.45.11-1.5.86-.78,1.9a.69.69,0,0,0,.18.43c1.81,2.33.08,2.64-1.67,3-1.27-.25-2.1-1.4-3.36-1.65a1.4,1.4,0,0,0-.65.5c-.31.79.38,1.4.36,2.14-1.8,2.92-3.49,2-5.14-.15-.65-.69-.77-2.23-2.12-1.79-.85.28-.43,1.42-.58,2.18l.1.15c.41.85.87,1.76-.15,2.47a1.72,1.72,0,0,1-2.65-.61c-.78-1.48-2.09-2.54-3-3.91l.07.06c-1.21-.8-1.42-.09-1.42,1s.87,1.83.15,2.8a1.71,1.71,0,0,1-1.44.37,12.51,12.51,0,0,1-3-4.16L221.75,86c-2,.1-.92,1.6-1,2.39-.29,3.76.3,7.56-.35,11.31-2.61.53-3.62-.4-3.44-3.17.23-3.64.06-7.31.06-11.17-1.26.31-1.49,1.18-1.77,2-.46,2.46-.74,5.07-4.12,5.24-1.54-.67-1.3-1.9-1-3.17.11-.47.11-.77,0-.29,0,0-.19.07-.31.14-1,.8-1.15,2.15-1.94,3.07a2.22,2.22,0,0,1-.94.45,13.26,13.26,0,0,1-2.54.62c-2.15-.37-1.63-2.12-1.8-3.51,0-.3-.07-.3-1.23.21-1.5,1.91-3.18,2.7-5.29.92a2.21,2.21,0,0,1-.61-1.39c0-.39,0-.78-.06-1.13,0,0,0-.23-.07-.19s-.16-.12-.19-.08-.24,0-.26.06c-.81.3-1.46.91-2.35.86-.35,0-.69,0-1,0-1.89-.45-2.59-1.59-2-3.46a5.21,5.21,0,0,0-.13-.79c-.68-1-2.24-.91-2.62-2.21-.73-1-.6-2.25-1-3.36-.22-.45-.48-.89-.68-1.35-.38-1.29-.13-2.65-.42-4-.06-.92.65-1.6.74-2.47,1.61-2.41,3.15,0,4.72.07,1.27.65,2.64,1.06,3.92,1.68a7.82,7.82,0,0,1,4.1,1c.68.23,1.3.31,1.53-.6a5.49,5.49,0,0,0,3.22.67c3.27-.57,6.72.44,9.87-1.1a4.85,4.85,0,0,0,3-2.61c0-.08,0-.25-.06-.27s-.21,0-.33.07a26.79,26.79,0,0,1-2.4,2.57c-1.25.74-2.46,2.12-3.9.32a1.89,1.89,0,0,1-.15-1.7c-.43.18-.56.63-.88.92-1,.88-1.8.08-2.69,0-1.34-.58-1-1.73-1-2.8-.3-.55-.62-1.06-1.27-.36l-.52.61a3.51,3.51,0,0,1-4-.32c-.46-.73-.06-1.92-1.21-2.29-.94-.12-1.43,1.19-2.45.76-1.62-.71-2.89-1.58-1.69-3.6-.27-1.87-2.85-.35-3.17-2.16-1.25-1.92,1-2.47,1.46-3.71.83-1.24,0-1.72-.88-2.48-1.71-1.5-1.63-2.92.74-3.77a26.7,26.7,0,0,0,4.45,2.12c1,.51,2.18.78,3.22,1.29A17.06,17.06,0,0,0,202.31,57l2,.8c1.41-.51,2.66.71,4.05.4a10.62,10.62,0,0,0,6.15-1,2.69,2.69,0,0,0,.58-.76,7,7,0,0,0,1.11-2c0,.06-.15.15-.17.2-.24.42-.39.84-.6,1.23-.36.53-.61,1.14-1.25,1.4-3.94.31-6.73-2-9.59-4.17-1-1.14-2-2.23-3.29-.39-2.54.6-3.15,0-2.52-2.58,1.37-2.25-.16-2.37-1.78-2.42h-.15c-1.65-.4-2-1.31-1.09-2.72.43-.56,1.77-1.22.49-1.82-2.73-1.29-1.36-2.65-.38-4.12l-.06.07c1-1.12,1.85,0,2.76.2,1,.58,2.18.88,3.26,1.36,1.19.76,2.59.5,3.88.78a14.32,14.32,0,0,1,3.42.75,19.9,19.9,0,0,1,2.42.36c1.42.59,2.62.42,3.43-.92-.06,0-.14,0-.19.07a3.19,3.19,0,0,1-.89.69c-1.57.94-3-.2-4.46-.28-.76-.32-1-1.19-1.73-1.56-3-.89-4.66-3.11-6-5.71.35-.74.69-1.48-.09-2.17-.42-1.33.18-4.89,1.14-6.83.93-.4,1.63.29,2.43.52a23.21,23.21,0,0,0,5.3,1.81c1-.24,1.94.22,3,.36a3.37,3.37,0,0,1-1.59-1c-.4-.72-1.18-1.15-1.49-1.94,0-.88-.67-1.34-1.1-2-.76-1.13-2.41-2.66.52-3.62,1.55-.51.26-1.42-.24-2.1-1-2.31,0-3.27,2.27-3.32a5,5,0,0,0,1.94,2.28c2.75,1.29,2.86,1.2,2.72-1.95A11,11,0,0,0,215.4,12.3Z"/><path d="M217.44,274.92l-1.67,1.46c-12.69,2.3-25.49.73-38.23,1.13-2,.06-4.15.11-5.59-1.8l.09.1a4.71,4.71,0,0,1-1.73-3.75c-.15-6.08-.19-12.15,0-18.22a6.26,6.26,0,0,1,1.22-3.67,7.61,7.61,0,0,1,5.09-1.43q17.64-.11,35.29,0c1.82,0,3.62.14,4.85,1.8l-.12-.12a4.42,4.42,0,0,1,1.73,3.37c.23,5.82.21,11.64,0,17.46C218.37,272.57,217.42,273.61,217.44,274.92Z"/><path d="M84.05,276.46l-1.57-1.57a12.22,12.22,0,0,1-1.72-6.27c0-4.44-.05-8.88,0-13.32,0-1.83.15-3.62,1.8-4.86l-.1.1c1.13-1.5,2.76-1.77,4.48-1.78q18.14-.15,36.26,0a7,7,0,0,1,4.39,1.31,5.7,5.7,0,0,1,1.29,3.3c.28,6.34.23,12.69,0,19a4.38,4.38,0,0,1-1.72,3.4l.11-.1c-1.13,1.51-2.76,1.77-4.48,1.79-10.75.08-21.51.1-32.27,0C88.34,277.46,86.31,276.22,84.05,276.46Z"/><path class="cls-2" d="M216.4,125.32c1.22,2.38.65,5,.61,7.41-.11,6.08.56,12.18-.36,18.24-.14.2-.28.39-.41.59-1.41,1.19-3.14,1.09-4.81,1.1q-17.12.1-34.22,0c-1.93,0-3.86-.09-5.52-1.29-.15-.18-.39-.35-.43-.56-1.57-8.25-1.87-16.49.1-24.73l.59-.42q21.57.08,43.16.11a4.62,4.62,0,0,0,1.34-.42Z"/><path class="cls-2" d="M82.7,125.44c2.22.79,4.52.36,6.77.36,12.61,0,25.22-.07,37.83-.12l.59.39c1.81,3.79,1.64,21.46-.23,25.2-1.59,1.31-3.5,1.39-5.42,1.4q-17.23.09-34.48,0c-1.65,0-3.37.08-4.77-1.12-.14-.19-.28-.39-.41-.59l.22-25.62Z"/><path class="cls-2" d="M127.21,275.81l.1-25.37.4-.59c1.52-1.27,3.37-1.11,5.15-1.12q16.74-.07,33.48,0c1.78,0,3.63-.16,5.16,1.1l.41.57c.55,8.47.31,16.94.13,25.41Z"/><path class="cls-3" d="M216.65,151c13.69,0,27.39,0,41.08-.14,2.3,0,2.84.83,2.81,2.93-.11,6.25-.17,12.5,0,18.74.09,2.81-.95,3.42-3.54,3.4-12-.12-24-.06-36,0-1.43,0-2.87.18-4.3.28l-.58-.41A5,5,0,0,1,215,172.4c-.14-5.94-.15-11.87,0-17.81a4.62,4.62,0,0,1,1.73-3.74Z"/><path class="cls-2" d="M82.58,200.74V176.17l.38-.61c1.49-1.31,3.35-1.15,5.12-1.16q16.89-.09,33.77,0c2,0,4.09,0,5.8,1.41.15.19.38.37.42.58,1.47,8.21,1.87,16.41-.26,24.58a7.25,7.25,0,0,1-5.07,1.49q-17.65.12-35.33,0c-1.55,0-3.14,0-4.43-1.12C82.84,201.14,82.71,200.94,82.58,200.74Z"/><path class="cls-2" d="M216.68,176.14a161.61,161.61,0,0,1,0,24.6l-.4.6c-1.51,1.27-3.35,1.11-5.13,1.12q-16.86.09-33.73,0c-2,0-4.09,0-5.8-1.42-.21-.43-.1.17-.2-.29a51.71,51.71,0,0,1,.13-24.91c1.59-1.33,3.52-1.44,5.45-1.45q17.28-.09,34.57,0c1.92,0,3.89,0,5.21,1.81Z"/><path class="cls-2" d="M127.31,250.44l-44.83.1q0-12.3.1-24.59l.39-.61c1.5-1.29,3.35-1.13,5.13-1.14q16.89-.09,33.77,0c2,0,4.09,0,5.8,1.42a6.1,6.1,0,0,1,1.27,3.65c.21,5.85.18,11.69,0,17.53a4.66,4.66,0,0,1-1.75,3.75Z"/><path class="cls-2" d="M216.79,250.55l-44.88-.15.14.15a4.47,4.47,0,0,1-1.71-3.38c-.2-6-.23-12.1,0-18.15a6.07,6.07,0,0,1,1.12-3.33,7.29,7.29,0,0,1,5.07-1.48q17.65-.12,35.31,0c1.55,0,3.15,0,4.44,1.12l.39.61A196.19,196.19,0,0,1,216.79,250.55Z"/><path class="cls-2" d="M82.58,176.17c-5.37-.71-10.78-.24-16.16-.3q-12.08-.13-24.14,0c-2.23,0-3.18-.48-3.11-3,.19-6.36.13-12.73,0-19.09,0-2,.25-3,2.68-3,13.56.14,27.13.11,40.7.13l-.1-.09a4.84,4.84,0,0,1,1.77,4.1q.18,8.58,0,17.17a5,5,0,0,1-1.78,4.11Z"/><path class="cls-2" d="M127.3,125.68c0-7,.12-13.9,0-20.85,0-2.17.63-2.91,2.85-2.9,13.07.08,26.13,0,39.2,0,1.54,0,2.86,0,2.82,2.17-.14,7.18-.18,14.36-.26,21.54l.09-.08c-1.12,1.53-2.75,1.78-4.47,1.79q-18,.15-35.9,0c-1.72,0-3.34-.3-4.47-1.81Z"/><path class="cls-3" d="M216.45,125.36c1.31-4.45.24-9,.62-13.5.26-3.2-1.45-7.31.79-9.34,2-1.82,6-.51,9.09-.53,10.09,0,20.19.05,30.28-.07,2.48,0,3.39.66,3.32,3.23-.16,6-.08,12,0,18,0,1.7-.34,2.68-2.36,2.67-13.34-.07-26.68,0-40-.08a7,7,0,0,1-1.73-.45Z"/><path class="cls-2" d="M82.8,125.33c-1,.68-2.08.48-3.14.49-12.37,0-24.74-.08-37.11.07-2.74,0-3.47-.78-3.38-3.44.2-5.88.15-11.78,0-17.66,0-2.2.65-2.88,2.85-2.86,12.49.09,25,.12,37.48,0,2.68,0,3.14,1,3.11,3.37-.1,6.72,0,13.45.06,20.16A1.14,1.14,0,0,0,82.8,125.33Z"/><path class="cls-3" d="M216.67,200.74c13.22,0,26.44.09,39.65-.05,2.73,0,3.54.57,3.1,3.4a158.09,158.09,0,0,1-4.1,18.24c-.75,2.65-2,3.55-4.76,3.52-11.29-.12-22.58,0-33.87.09l.08.06c-1.48-1.13-1.74-2.75-1.76-4.46q-.13-8.22,0-16.42c0-1.72.29-3.33,1.77-4.47Z"/><path class="cls-2" d="M82.58,226c-11.17-.06-22.33-.23-33.5-.09-2.85,0-4-1-4.74-3.57a168.16,168.16,0,0,1-4.18-18.59c-.43-2.59.51-3,2.79-3,13.21.07,26.42,0,39.63,0l-.11-.1a4.88,4.88,0,0,1,1.78,4.11q.18,8.58,0,17.17A4.91,4.91,0,0,1,82.47,226Z"/><path class="cls-4" d="M188.58,78.14c-.2.67-.81.58-1.3.7-1.9,1.6-.26,2.85.42,4.19.68.59,1.52.29,2.28.42.92.15,1.88.33,1.28,1.67l-.28.08c-1.54,1-1.8,2.09-.1,3.21,1.2.81,2.06,0,2.94-.63.82-.1,1.67-1.36,2.44.08.07,1-1,2.21.51,3,2.42,1.93,3.34-.47,4.7-1.62,1.35-.23,1.52.77,1.71,1.7.17.77,0,1.7,1.15,1.89s1.72-.44,2.29-1.21a.9.9,0,0,1,.13-.45c.92-.67,1.44-2,2.9-1.79.63.46.56,1.18.67,1.83,1,1.92,2,1.13,3,0,.79-.89.84-2.69,2.71-2.32,0,2.63-.09,5.27,0,7.91.07,2.12-.77,3-2.94,3q-28.76,0-57.53,0c-1.92,0-3.13-.74-2.83-2.72.41-2.73-1.49-5.8,1.17-8.19l.84,1.18c.65.8.89,2.16,2.19,2.13,1.7,0,1.18-1.81,1.82-2.7a1.29,1.29,0,0,1,.88-.32c1.55.94,2.35,2.61,3.67,3.78l1.11.25c2.37-.5.28-3.33,2.14-4.1a1.73,1.73,0,0,1,1.4.49l.95,1.35c1.58,1.32,2.66.62,3.53-.88.83-.74-1.41-2.85,1.24-2.78a.49.49,0,0,1,.45.21c1.32.54,2.47,2.29,4.09.54,1.31-1.19.92-2.07-.49-2.77v0c-.66-1.17-.28-1.84,1-1.84s2.38-.1,3-1.43c.62-1.15,1.79-2.39-.5-3.07a1.35,1.35,0,0,1-.84-1.59c.87-1,2.39-1.15,2.89-2.52.36-.7.55-1.6,1.66-1.41.44.31.42.83.62,1.26C185.87,76.45,187.93,76.67,188.58,78.14Z"/><path class="cls-3" d="M172,275.71c13.49,0,27,0,40.47,0,1.13,0,2.42-.47,3.35.66-11.82,7.72-24.37,13.8-38.19,17.05-5.39,1.28-5.35,1.33-5.39-4.06C172.15,284.82,172,280.27,172,275.71Z"/><path class="cls-2" d="M84.05,276.46c1-1.39,2.42-.72,3.63-.72,13.21-.06,26.42,0,39.64,0,0,5.4,0,10.81.09,16.22,0,2.13-.49,2.55-2.65,2.09a112.39,112.39,0,0,1-37.65-15.73C86.11,277.65,85.07,277.07,84.05,276.46Z"/><path class="cls-5" d="M217.44,274.92c-.86-5.91-.14-11.85-.4-17.77-.09-2.24.37-4.51-.37-6.72h24.51A102,102,0,0,1,217.44,274.92Z"/><path class="cls-3" d="M82.58,250.44q-.06,12.22-.1,24.45c-9.21-6.42-16.83-14.39-24.12-24.45Z"/><path class="cls-6" d="M148,88.86l.12,10.76-1.42,0c-.28-3.53.7-7.12-.58-10.59a.83.83,0,0,1-.32-1.12v0C146.92,87.38,147.65,87.69,148,88.86Z"/><path class="cls-7" d="M82.5,99.65l.15-6.52c.69-1.57-.28-3.34.59-4.89.24-.42-.09.05.31-.1s.45.35.4.71c0,3.6,0,7.21,0,10.81Z"/><path class="cls-8" d="M220.42,99.68c0-4.37,0-8.74.06-13.12,0-1,0-2.18,1.27-.58-1.1,3-.3,6.16-.54,9.23C221.09,96.73,221.56,98.35,220.42,99.68Z"/><path class="cls-9" d="M216,88.85a5.3,5.3,0,0,0-2.09,2.38c-1.25,2.12-2.65,2.12-4.27.47a1.08,1.08,0,0,1,1.5,0c2.5-.36,2.39-3.2,4.11-4.3Z"/><path class="cls-10" d="M222.64,88.07c1.55.73,2,2.33,2.86,3.61a.73.73,0,0,1-1.08.12l-2.6-3Z"/><path class="cls-11" d="M74.7,91a7.39,7.39,0,0,1,2-3l.73.77-2.11,2.88A.9.9,0,0,1,74.7,91Z"/><path class="cls-12" d="M232.84,57.83c-1.25,1-2.69.87-4.13.73a14.61,14.61,0,0,1-6.61,0l-1-.05c-.62-.66-.25-1.26.1-1.87a2.54,2.54,0,0,1,1.9-.51,2.8,2.8,0,0,1,1.45.26c1.39,1.32,1.89.34,1.94-.9a15.73,15.73,0,0,0-.52-3.17c2.15,0,2.14,3.82,4.33,2.28,1.51-1.05-.48-2.78-.23-4.7,1.31,2.64,4.59-1.76,5.48,2.07.5.21.5.41,0,.59-2.5,1-3.93,3.62-6.91,4.19C230.05,58.21,231.76,56.55,232.84,57.83Z"/><path class="cls-13" d="M72.52,70.34c-.81.87-1.34,2-.34,2.8s1.49-.74,2.2-1.25,1.13-.87,1.69-1.3c1,.16,1.07,1.07,1.44,1.74a2.56,2.56,0,0,1,0,1.4c-5.28,2-10.66,1.79-16.08.74.3-.66,1.06-.27,1.48-.66,1.32-.35,2.75.41,4-.4,0,0,0-.21-.08-.3a1.84,1.84,0,0,0-.25-.23c-.2-.19-.26-.36-.17-.53s.16-.24.23-.24c2.84.53,3.48-2.14,5.05-3.45C73.24,68.67,72.69,69.59,72.52,70.34Z"/><path class="cls-14" d="M140.21,54.08c.51-.76.89-1.67,1.94-1.87a3,3,0,0,1,.45.53c.55,1.14-1.49,2.77.24,3.4s2-1.53,2.71-2.6A27,27,0,0,1,148,50c-.42,2.87,1.68,5.92-.94,8.56a18.27,18.27,0,0,1-7.18,0l-2.47-.17c-.12-.71.08-1,.85-.75.81-.1,1.75,0,1.93-1.15A2.43,2.43,0,0,1,140.21,54.08Z"/><path class="cls-15" d="M105.91,73c-4.71,2.16-9.71,2.2-14.74,2-1.26-.57-2.7,0-4-.56l-1.77-.16c-.57-1.48.69-1.8,1.52-2.38l2.46,1.71c1.34-.12-.1-2.65,1.9-2.2l2,1.45c2.44,1.69,5.09.69,7.64.5C102.6,73.25,104.22,72.63,105.91,73Z"/><path class="cls-16" d="M213.86,74.31a28.72,28.72,0,0,1-11.49.58c.22-1.49,1.41-.57,2.12-.85.53-.22,1.82.48,1.31-1.05a1.74,1.74,0,0,1-.6-.13c-.21-.17-.27-.32-.2-.48s.15-.22.22-.22c3.28.43,3.26-3.33,5.47-4.32a3.72,3.72,0,0,1-.08,3c-.23.78-1.47,1.7-.23,2.42.81.48,1.24-.88,2-1.06a1.16,1.16,0,0,1,.92-.31,1.49,1.49,0,0,1,1.07,1A1.54,1.54,0,0,1,213.86,74.31Z"/><path class="cls-17" d="M225.49,72.92c1.53.94,2.56.93,2-1.25-.31-1.19-1.26-2.26-.35-3.57,2.14.69,1.78,5.33,5.47,3.34a.93.93,0,0,1,0,1.43,2.06,2.06,0,0,1-.6.12c-.17,1.87,1.5.58,2.06,1.21a.51.51,0,0,1,.15.53c-.05.17-.11.26-.16.26-3.63.22-7.27.52-10.81-.7a1.25,1.25,0,0,1-.23-1.53,1.66,1.66,0,0,1,1-.5A2.28,2.28,0,0,1,225.49,72.92Z"/><path class="cls-18" d="M156,27.14c3-1.9-.64-2.92-.68-4.35,1.43-.9,4.37,2.18,4.42-1.83-.73-1-2.84.75-2.95-1.49L159,18.06c2.79,3.43,2.71,4-1.4,9.34.09.71-.14,1.15-.94,1S155.8,27.79,156,27.14Z"/><path class="cls-9" d="M83.69,58.61c-2.4-.62-1-2.54-1.21-3.84a34.58,34.58,0,0,1-.06-5.18c2.32,2.29,2.28,5.43,4.52,7.06a2.23,2.23,0,0,0,2-.59,1,1,0,0,1,.78.3l.13,1.35a1.54,1.54,0,0,1-1.31,1.15C87,58.8,85.3,59.13,83.69,58.61Z"/><path class="cls-19" d="M202.28,34.7c0,1.11.49,1.48,1.59,1.15s2-1.37,3.26-.9c.35,1.81-2.75,2.06-1.88,3.52s2.27-.33,3.46-.52c.89.77.55,1.53,0,2.29-1.31.67-2.59,1.89-4,.17-.55-2.36-3.73-3-3.74-5.7A.85.85,0,0,1,202.28,34.7Z"/><path class="cls-20" d="M204.62,52.47l2.64-1.88c.17,1.54-1.54,3.3.19,4,2.27.92,2.18-2.37,3.74-2.83,2.62.57-3.15,5.69,2.6,4.52a1,1,0,0,1,.3.95c-1.48,1.08-3,2.23-4.14-.33-.59-1.36-1.93-.55-2.72-1.21-1.58.19-2.17-1-2.82-2.07A.76.76,0,0,1,204.62,52.47Z"/><path class="cls-21" d="M93.33,39.18c.75-.29,1.84-.45,1-1.62A30.56,30.56,0,0,0,92,35.05c1.61-.72,2.57.43,3.67.73.75.2,1.51.42,1.69-.51.06-.35-.69-.85-1.06-1.28.47-1,1.09-1.45,2.13-.73,1.5,3.26-2.09,4.21-2.91,6.41-.68,1.53-1.55,2.3-3,.75C92.3,39.69,92.73,39.38,93.33,39.18Z"/><path class="cls-22" d="M210.25,18.12a4.23,4.23,0,0,1,2.15,2.18c-.61,1.61-3.77-1-3.19,1.74.51,2.42,2.69-.13,4.16.88-.28,1.11-1.52,1.69-2.22,2.64-.73,0-1.18-.53-1.71-.91-2.52-2.93-2.32-4.42.72-5.51A.68.68,0,0,1,210.25,18.12Z"/><path class="cls-23" d="M146.11,18.08c-1.14-.24-1.7-1.26-2.56-1.87-.62-.44-.88-2.1-2.13-.87-1.06,1-.91,2,.24,3a12.09,12.09,0,0,1,1.52,1.93c-1,.94-3.41-.55-3.37,2a.58.58,0,0,1-.86.11c-.64-2,1.5-3.79.54-6-.3-.71,1-2.17,2-2.73,1.37-.71,1.78.78,2.54,1.39.92.76,1.78,1.58,2.67,2.37C146.88,18,146.86,18.38,146.11,18.08Z"/><path class="cls-24" d="M66,51.91c1.31,0,3.25-1.46,3,1.72-.15,1.72,1.16,1.51,2.08.52s1.56-2,2.45-3.14c.82,1.85-.19,3.19-.47,4.61a.74.74,0,0,1-.64.42,6.26,6.26,0,0,1-.75-.32c-2.9,1.16-4.3-.9-5.81-2.7A.7.7,0,0,1,66,51.91Z"/><path class="cls-25" d="M142.46,26.72c2.88,1.83,3.63-1.52,5.41-2.48,1.28,6.09.4,6.64-6.87,4.53a.75.75,0,0,1-.05-1.21Z"/><path class="cls-26" d="M227.69,28.5a10,10,0,0,1-1.6.74c-5.6,1.57-6.15,1.07-5.5-5.11,1.94.77,2.61,4.17,5.44,2.75l1.53.7C228.18,27.81,228.23,28.11,227.69,28.5Z"/><path class="cls-27" d="M71.64,55.72l.77-.1c.61,1.16,1.69,1.17,2.79,1.12.74,0,1.19-.24.92-1.09.14-2.07,1.47-3.55,2.7-5.16-.37,2.75,2,5.8-1.12,8.15-1.6.48-3.25.17-4.87.22a1.64,1.64,0,0,1-1.3-1.17Z"/><path class="cls-28" d="M226.26,26.05c0-1.48-1.64-2-2-3.27,1.37-.76,3.79,1.71,4.22-.9.34-2.08-2.12-.39-3.07-1.33,0-1.31,1.17-1.83,2.08-2.53a.76.76,0,0,1,.09,1.16c3.1.09,2.43,2.11,2,4-.19,1.1-1.52.78-2,1.58A1.4,1.4,0,0,1,226.26,26.05Z"/><path class="cls-29" d="M140.21,54.08a3.39,3.39,0,0,1,0,2.43c-3.23-.3-4.86-3.28-7.54-4.51.84-1,1.67-2,2.27-2.73,1.78.23-1.4,4,2.34,2.13.58-.3,1,.37.7,1.12C136.73,55.89,138.46,55,140.21,54.08Z"/><path class="cls-30" d="M203.1,26.09c-2.19,2.66,2,2.23,1.74,3.92-3.23.58-3.23.58-2.32,2.39a1.07,1.07,0,0,1-1.07,1c-2.93-3-.27-5.48.78-8.11A.93.93,0,0,1,203.1,26.09Z"/><path class="cls-31" d="M230.48,39.13c5.8-.92-1.95-2.87.62-4.06,1.36-.86,2.74,2,4.48.38.67-.16,1,0,.74.76l-2.93,3.6C231.94,41.63,230.88,41.83,230.48,39.13Z"/><path class="cls-32" d="M100.51,70.28c1.13-2.68-1.82-4.66-1.23-7.61,1.59,1.41,3.27,2.39,3.5,4.57.53.53,1.1,1,.62,1.9C102.63,70,101.54,70.06,100.51,70.28Z"/><path class="cls-19" d="M70.88,21.75c.9,2.88,3.09.05,4.49,1.14-.38,1.34-3.53,2.44-.66,4.34.16.66,0,1.17-.75,1.22s-1-.39-.87-1.1l-2.94-4.18C69.92,22.45,69.56,21.67,70.88,21.75Z"/><path class="cls-33" d="M68.75,27.41c-.9-.28-1.81-.52-2.69-.85-1.86-.7-1.68.48-1.56,1.64a1.06,1.06,0,0,0,1.41.87c.83.39,1.79.84,0,1.25a18.69,18.69,0,0,1-2.81.23,1,1,0,0,1-.1-1.61c-.35-1.69-.06-3.49,1.66-3.84A3.62,3.62,0,0,1,68.75,27.41Z"/><path class="cls-13" d="M89.76,56.36h-.58c-.69-.48-.55-1-.17-1.65a1.75,1.75,0,0,1,1.82.1c3.46.19,1-2.24,1.39-3.22,1.27-1.23,1.6,1.22,2.69.46.73-.37,1,.09,1.23.67C94.57,54.92,92.59,56.39,89.76,56.36Z"/><path class="cls-34" d="M105.52,67.15c1.94-2.6-1.68-3.42-1.65-5.5,2-1.21,3.38,1.82,5.37,1-.61,1-2.95,1.16-1.39,3.34.73,1-.75,1.41-1.56,1.78C106,67.68,105.57,67.61,105.52,67.15Z"/><path class="cls-35" d="M133.85,34.22c-.68.88-1.17,1.75.58,1.73,1.08,0,2-1.36,3.26-.47.11,1.83-2,1.67-2.54,2.93-2.18-1-4-2.24-2.9-5.11l.43-.36C133.46,33,134.3,33,133.85,34.22Z"/><path class="cls-17" d="M101.28,47.17c2.67.06,3.4-.58,1.88-1.71-.94-.71-2.44-.27-3.08-1.68,1.11-1.22,2.56-1.33,4.09-1.21.09.56-.94,1.07-.23,1.58,1,.75,1.9,1.33,1,2.83s-2.16,1.66-3.66,1.25a.46.46,0,0,1-.41-.52A.55.55,0,0,1,101.28,47.17Z"/><path class="cls-36" d="M66.71,72.11l-.06.77c-1.25-.23-1.34-1.62-2.22-2.23a.68.68,0,0,1-.6-.55l3-4.73C68.14,67.9,66.63,70,66.71,72.11Z"/><path class="cls-37" d="M234,90a9.79,9.79,0,0,1-.74-7.07l3.63,6c-.17.31-.24.74-.75.69C235.23,88.58,234.6,89.14,234,90Z"/><path class="cls-38" d="M207.23,55.69c2.49-1.06,4,2.56,6.5,1.38.84.39,1.48.84.52,1.76-1.89,0-3.8.32-5.68-.21a7.34,7.34,0,0,1-4.26-.85c.79-.75,1.69-.47,2.62-.34.7.1,1.76.63,1.9-.6C208.86,56.52,207.79,56.08,207.23,55.69Z"/><path class="cls-39" d="M137.18,73l1-.76c1.72-1.08,2.3.32,3,1.39l2.7-1.67A1.64,1.64,0,0,1,145,73.49a1.55,1.55,0,0,1-.46.86l-1,.11a10.8,10.8,0,0,1-3.71.3h-4.26c-1,0-2,0-3-.05a.57.57,0,0,1-.29-.92C133.93,73.5,135.73,74.31,137.18,73Z"/><path class="cls-40" d="M53,59.25c-.12,1-1.44,1.72-.31,2.87s1.93,0,2.82-.35c.56-.23,1.2-.61,1.6,0,.54.76-.39,1.23-.64,1.84-.67.35-1.11,1.32-2.11.79A4.19,4.19,0,0,1,50.73,61C50.53,59.87,51.91,59.43,53,59.25Z"/><path class="cls-41" d="M50.08,71.32c-.65-.06-1.64-.81-1.9,0-.44,1.42-.68,3,.37,4.36a5.47,5.47,0,0,0,1.48,1,.55.55,0,0,1-.1.9,4.23,4.23,0,0,1-3.24-4.49c0-3.49,1-4,4.15-2.31A.88.88,0,0,1,50.08,71.32Z"/><path class="cls-42" d="M236.21,30.39h-3.38c-.08-2,3.95-1.69,1.88-4.3a.89.89,0,0,1,.86-.81C237,26.92,237.16,29,237.49,31,236.73,31.48,236.58,30.71,236.21,30.39Z"/><path class="cls-43" d="M84,88.85c-1.32,1.16-.33,3-1.3,4.28V85c2.14,1.72,2.8,4.12,4.15,6a.44.44,0,0,1-.75,0Z"/><path class="cls-44" d="M224.79,15.59c0,.12.07.26,0,.36-.79,1.77-3.27,3.59-3.85,2.79-1.54-2.09-.87-4.69,1.43-6.46-.06.47-.09,1-.17,1.41-.15.91-.87,2,0,2.67S224,16,224.79,15.59Z"/><path class="cls-45" d="M133.12,26.06c.11,1.39.3,2.74,2,3.07-.24,1.88-2.21.15-2.79,1.33a1.85,1.85,0,0,0,.9,1.94c.1.58-.51.51-.73.79l-.27.11C129.8,30.56,131.51,28.31,133.12,26.06Z"/><path class="cls-46" d="M166.13,36.1c.69-2.06-1.92-1.71-2.27-3.34l3.69-1.1c.52.1.55.62.82.94-.63,1.36-.29,3-1.34,4.27A.88.88,0,0,1,166.13,36.1Z"/><path class="cls-47" d="M139,22.42l.51,0c.48,0,.58.53.92.73l4.05-.55c-.5,1.63-2.64,2.35-1.94,4.2C140.35,26.1,139.58,24.32,139,22.42Z"/><path class="cls-48" d="M117.83,80.89c.56,2.19,2.29,2.13,4,2.06.88,0,2-1,2.47.66-1.64.77-2.35,2.43-3.49,3.68a.51.51,0,0,1,0,.9c-2.55-1.55.43-2.39.46-3.94a4.46,4.46,0,0,1-4.45-3.33A.76.76,0,0,1,117.83,80.89Z"/><path class="cls-17" d="M239.05,68.08c-1.29-1.17-1.42-2.77-2-4.63,2.69.92,3.71,3.14,5.53,4.37.71-.36.9-.07.79.61-1.09.82-1.9.08-2.73-.49A1.38,1.38,0,0,1,239.05,68.08Z"/><path class="cls-49" d="M102,91.58c2.09-2.18-.71-4.6.2-6.91,1.24.17,1.5,1.19,2.06,1.88a1.37,1.37,0,0,1,.07,1.64C104.71,90.14,104.42,91.6,102,91.58Z"/><path class="cls-50" d="M236.21,30.39l1.28.63a15.25,15.25,0,0,1-1.17,5.19l-.74-.76c-.36-1.37-2.32-1.1-2.63-2.57C233.68,31.59,236.6,33.12,236.21,30.39Z"/><path class="cls-51" d="M191.28,52.84c-2,1.33-1.33,2.45.38,3.28,2.18,1.05,1,1.78-.15,2.57,0-1.84-2.64-2.12-2.4-4.07.12-1-.08-2.28.95-2.89s1.71.35,2.43.92A.79.79,0,0,1,191.28,52.84Z"/><path class="cls-52" d="M183.66,75.14A2.57,2.57,0,0,1,180.78,77l-.1-.37c1.63-1.1,2.53-2.52,2.06-4.58-.4-1.76-1.77-1-2.82-1.17,1.23-.91,2.45-2.49,3.74-.07A5.38,5.38,0,0,1,183.66,75.14Z"/><path class="cls-53" d="M96.12,90.56a11.7,11.7,0,0,1-1.1-7,8.85,8.85,0,0,1,2.66,3.86c.51.82-.17,1.06-.68,1.38l-.7.67A.68.68,0,0,1,96.12,90.56Z"/><path class="cls-14" d="M88.94,90.46a11.4,11.4,0,0,1-1.72-5.91c1.5,1.87,3.9,2.82,4.6,5.28l-1.37.39C89.87,89.83,89.43,90.33,88.94,90.46Z"/><path class="cls-54" d="M87.46,20.24c.4-1.66,3-2.09,2.39-4.31a.89.89,0,0,1,.62-.7c.11,2.94,2.53,5.68.75,8.78-.52-.39-.46-.93-.4-1.47C91.18,19.6,88.4,21.27,87.46,20.24Z"/><path class="cls-55" d="M70.88,21.75c-.24.47-.48.95-.73,1.42-1.37-2.27.11-3.55,1.67-4.81a2.53,2.53,0,0,1,2.47,2.11C73.33,21.48,71.49,20,70.88,21.75Z"/><path class="cls-56" d="M91.18,22.47c0,.51,0,1,0,1.54-1.2.65-1.19,2.5-2.77,2.77.2-1.79-1.54-2.54-2.11-3.91,1.38-.87,3,1.18,4.27-.41l.29-.53Z"/><path class="cls-57" d="M70.82,88.82c.36-2.12,1.89-3.4,3.51-5.18a6.36,6.36,0,0,1-1.1,5.23,1.21,1.21,0,0,1-1.58,0Z"/><path class="cls-58" d="M157.67,55.63c-.35-1.33-1.24-2.58-.55-4.1,1.94.57,1.88,3.89,4.59,3.29.74-.29,1,0,.87.73-1.11.28-2.2.9-3.36.17a2.26,2.26,0,0,1-.82.37A1,1,0,0,1,157.67,55.63Z"/><path class="cls-45" d="M109.48,83c1.09-.11,2.26.15,3.21-.65-.28,1.86-2,1.52-3.19,1.8,0,1.51,2.17,2.52.38,3.9a.82.82,0,0,1-.54-.6c-.19-1.87-1.93-2.52-2.94-3.75C107.07,81.87,108.39,82.9,109.48,83Z"/><path class="cls-59" d="M64.54,36.11l4.63-1.39C69,36.56,67.34,37,66.73,38.24c.26.72-.1.88-.73.78l-2.3-2.08C63.48,36.16,63.82,35.94,64.54,36.11Z"/><path class="cls-60" d="M166.13,36.1l.9.77-2.89,2.32a.65.65,0,0,1-.16-1.08c-.81-1-2.17-1.57-2.52-3.22C163.24,34.58,164.51,36.18,166.13,36.1Z"/><path class="cls-61" d="M222.4,11.69c-.31-.16-.76-.23-.91-.47C219.6,8.08,217.82,9,216,11.3a2.84,2.84,0,0,1,2.57-3.55C220.83,7.63,222,9.54,222.4,11.69Z"/><path class="cls-62" d="M156,27.14a1.21,1.21,0,0,0,1.61.26l2.08.83a13.29,13.29,0,0,1-7.9,1.44.69.69,0,0,1-.26-.55c0-.21,0-.32.07-.32a3.07,3.07,0,0,1,.56-.79,3.67,3.67,0,0,1,1.71-.87,1.56,1.56,0,0,1,.9.32Z"/><path class="cls-63" d="M195.87,39c-1.59,3.39.87,4,3.67,4.67L196.79,45c-.84.37-.92-.13-.9-.76C194.09,42.49,192.7,40.76,195.87,39Z"/><path class="cls-64" d="M247,85.34c-1.5-.27-2.3-1.35-3.33-2.48,2.29-1,4.43.88,6.33-.52.67-.15,1,0,.72.75C249.82,84.42,247.53,83.43,247,85.34Z"/><path class="cls-65" d="M73.09,27.35a1.22,1.22,0,0,0,1.62-.12l1.22.21a2,2,0,0,1,.83-.3c.84,0,1.34.64,1.91,1.12a1.22,1.22,0,0,1,.23,1.29,12.69,12.69,0,0,1-8.17-1.36Z"/><path class="cls-66" d="M154.84,16.7c-.53,1.54-1.76,2.68-3.18,2.1-1.16-.48-.42-2.13-.17-3.23a21.34,21.34,0,0,1,.95-2.64c.49.07.48.54.69.83C152.86,15.23,151.77,17.17,154.84,16.7Z"/><path class="cls-67" d="M64.43,86.57a4.91,4.91,0,0,1,2.07-2.88,11.65,11.65,0,0,1-1.22,7.42c-.48,0-.46-.5-.64-.79l.53-2.07C64.66,87.81,64,87.45,64.43,86.57Z"/><path class="cls-68" d="M132,88.75l3.35-5.4c.93,2.27.22,3.87-.22,5.49a.53.53,0,0,1-.78,0c-.47-.95-1-.34-1.54-.08A.47.47,0,0,1,132,88.75Z"/><path class="cls-69" d="M57.16,86.32l2-3c1,3.44-.72,5.36-.78,7.52h0l-1-3.23C56.81,87.28,56.85,86.82,57.16,86.32Z"/><path class="cls-70" d="M197.19,66.22c.67-1.07,1.14-2.36,2.85-2.52.54,2-.73,3.41-1.54,4.93-.17.29-.35.32-.54,0l-.64-1.25C196.75,67.07,197.06,66.63,197.19,66.22Z"/><path class="cls-71" d="M109.34,62.3c.77-2.34-1.54-2.52-2.51-3.65-.39-.46-1.4-.77-.75-1.64s1.39-.78,2.06,0c.18,1.33,1.31,1.94,2.11,2.8C111.57,61.27,110.79,61.91,109.34,62.3Z"/><path class="cls-72" d="M96.12,90.56l.18-1.1C97.43,91,98,92.54,95.72,93.3c-2.76.9-3.2-1.4-3.83-3.26C95,92.38,95,92.38,96.12,90.56Z"/><path class="cls-73" d="M190.05,62.4c2.17.88,3.55-1.29,5.72-1.49a6,6,0,0,1-2,3.42q-.39.69-.63-.06C191.74,64.22,190.5,64,190.05,62.4Z"/><path class="cls-74" d="M242,39.82c-2.57-1.34-4.18,1.62-6.49,1.43,2.07-1.72,3.73-4.77,7.11-2.15A1,1,0,0,1,242,39.82Z"/><path class="cls-75" d="M236.15,89.54l.75-.69c2.74,2.92,2.89,2.92,4.18,0a.54.54,0,0,1,.84,0c1,1.11.64,2-.59,2.53-1.05.49-2.15,1.33-3.3.28A22.66,22.66,0,0,1,236.15,89.54Z"/><path class="cls-76" d="M63.83,70.1l.6.55c-2.42.69-4.71,1-5.67-2.14a.81.81,0,0,1,0-1.33h0c1.75-.63,2,.13,1.51,1.61C60.94,70.54,62.54,69.91,63.83,70.1Z"/><path class="cls-77" d="M49.33,82.71l3.29.25c.88,0,2-1,2.44.68-1.08,1.25-2.64,2.14-2.94,4l-.89-.54C52.84,84.63,50.67,83.85,49.33,82.71Z"/><path class="cls-78" d="M240.52,44.84A3.49,3.49,0,0,1,238,43.7a9.14,9.14,0,0,1,4.7-1.77c.22-.29.45-.31.69,0l-1.58,2.36C241.83,45.44,241.22,45.24,240.52,44.84Z"/><path class="cls-79" d="M175.64,65.73a6.27,6.27,0,0,1-.94-1c-.66-1-2.21-2.26-1.33-3.19,1-1.08,2.14.57,3.14,1.21.14.52.33,1-.23,1.45l.35,1.49A.68.68,0,0,1,175.64,65.73Z"/><path class="cls-80" d="M168.37,32.6c-.27-.31-.54-.63-.82-.94-.37-2.4-2.58-.7-3.66-1.66.33-1.16,1.41-1.39,2.31-1.82a.92.92,0,0,1,1.18,0A5.23,5.23,0,0,1,168.37,32.6Z"/><path class="cls-49" d="M176.28,64.21c.08-.48.16-1,.23-1.45,2.6-.37,2-1.88,1.22-3.44,1.11.13,2.46.59,2.23,1.72A3.84,3.84,0,0,1,176.28,64.21Z"/><path class="cls-81" d="M177.28,59.15c-1.65-.8-3.79-1.49-.44-3.07.78-.37,1.83-.67,1.78-1.9.21-.29.2-.76.69-.82a2.14,2.14,0,0,1-.6,3.12A2.86,2.86,0,0,0,177.28,59.15Z"/><path class="cls-82" d="M162.58,55.55l-.87-.73c.48-1.34-.61-2.48-.54-3.77,1.47-1,1.65,1.56,2.91,1,.72-.09,1.08.14.83.93Z"/><path class="cls-83" d="M164.91,53l-.83-.93c.12-.85-1-3.1,1.48-1.18,1.41,1.08,3,2.36,5,1-.78,1.8-1.79,2.83-3.69,1.2A1.59,1.59,0,0,0,164.91,53Z"/><path class="cls-83" d="M199.45,49.91c-.18.74-1,1.36-.11,2.24s1.52.06,2.26-.12q.56-.49.93.15c-1,.91-1.66,2.44-3.53,1.24-2.43-1.56-.76-3.29-.42-5C200,48.27,199.91,49,199.45,49.91Z"/><path class="cls-84" d="M125.13,64.27c-1.8,2.46,0,3,1.87,3.54a.6.6,0,0,1,.93-.17c.58.87.14,1.36-.65,1.71-1.18.08-1.93-.79-2.82-1.33s-2-.72-1.67-2A2.29,2.29,0,0,1,125.13,64.27Z"/><path class="cls-85" d="M205.8,73c.49.28,2.27.17.65,1.17-1.09.68-2.7.52-4.08.73-1.11.12-2.19.16-2.66-1.16C201.72,73.37,203.92,74.46,205.8,73Z"/><path class="cls-86" d="M70.26,42.74l-2-.15c-.63-.9-2.38-.45-2.44-2l.8-.08c.49-.86,1.68-.66,2.21-1.46h0c2.24-.28,2.34,1.41,2.67,2.89C71.31,42.52,71,42.89,70.26,42.74Z"/><path class="cls-87" d="M113,81.71c0-1.27-.39-2.16-1.9-2.44-.57-.11-1.93-.33-1.67-1.36.3-1.23,1.51-.62,2.37-.63C112.07,78.78,116,79.3,113,81.71Z"/><path class="cls-76" d="M235.51,52.56c0-.2,0-.4,0-.59,1.55.19,4.24,2,2.82-2a.54.54,0,0,1,.1-.94c1.18,1,2.65,1.79,1.1,3.64S236.82,54.11,235.51,52.56Z"/><path class="cls-88" d="M164,38.11c.05.36.11.72.16,1.08s-.13.84-.2,1.26c-1.61,1.85-3.27.21-4.9.08l-.76-1.47c.1-.85.71-1.13,1.43-1.27C161.11,38.18,162.41,39.93,164,38.11Z"/><path class="cls-89" d="M88.94,90.46l.57-1.16.94.92c-.31,1.28-.83,2.36-2.31,2.62S86.47,92,86.05,91l.75,0C87.73,91.67,88.58,92.05,88.94,90.46Z"/><path class="cls-18" d="M210.25,18.12l-.09,1c-2.67-1.62-1.7-3.49-.25-5.24.94-1.12,1.61-.44,2,.64C210.29,15.23,209.05,16.11,210.25,18.12Z"/><path class="cls-90" d="M199.45,49.91l-.87-1.48L197,47.67l4.39-1.79A5.87,5.87,0,0,1,199.45,49.91Z"/><path class="cls-91" d="M59.28,47.59A7.26,7.26,0,0,1,63,46.37a4.7,4.7,0,0,1-2.27,4.06c-.4-.66.16-1.63-.67-2.16C59.79,48.08,59.29,48.12,59.28,47.59Z"/><path class="cls-92" d="M216.78,14.45a5.7,5.7,0,0,1,.49,4.54,3.41,3.41,0,0,1-3.42-2.18c.83-.18,1.94.32,2.32-1C216.52,15.45,216.17,14.74,216.78,14.45Z"/><path class="cls-93" d="M98.43,30.37H94.72c.45-1.75,2.23-1.84,2.88-3a1.07,1.07,0,0,1,.81.85l.68,2.18C98.86,30.75,98.64,30.76,98.43,30.37Z"/><path class="cls-94" d="M238.45,49c0,.31-.06.62-.1.94-1.1-.81-1.43-2.07-2.18-3.39,1.94-.53,3.23.47,4.6,1.14Z"/><path class="cls-95" d="M78.17,13.07c.93.9.86,2.14,1,3.26.15.84.72,2-.47,2.45-1,.37-1.69-.47-2.11-1.38,2.71-.9.59-2.92,1-4.35C77.84,12.77,78,12.76,78.17,13.07Z"/><path class="cls-48" d="M52.05,54.18c.32.6.49,1.54,1,1.76,2.83,1.26,1.78,2.29-.07,3.37a2.77,2.77,0,0,0-1.17-3c-1.22-.76-1-1.92-.41-3C51.94,53.34,51.88,53.85,52.05,54.18Z"/><path class="cls-20" d="M226.28,88.8l-1.51-4.16c2.45.06,3.08,1.69,3.59,3.47a3.11,3.11,0,0,0-.68,0C227.24,88.42,227,89.2,226.28,88.8Z"/><path class="cls-96" d="M159,40.53c1.61-1.36,3.26-.11,4.9-.08l1,.18c-.11,1.14-1.17.8-1.79,1.16-1.42.41-2.85,1.63-4.23-.07Z"/><path class="cls-97" d="M125.82,87.3c.24-1.47,1.22-2.2,2.72-2.71.4,2-.37,3.51-1.24,5-.79-.56,0-1.63-.75-2.21Z"/><path class="cls-98" d="M138.53,42.77l-1.18-.2a5,5,0,0,0-2.08-1.11.58.58,0,0,1-.23-.53q0-.3.12-.3l.07-.92c1.59.42,3.13-1.26,4.73-.08C140.66,41.22,141,42.61,138.53,42.77Z"/><path class="cls-99" d="M230.48,39.13c.74,1.23,1.76,1.23,2.91.68l.73.72c-.23,1.87-2,1-3,1.71a5.25,5.25,0,0,1-2.15.3,1.3,1.3,0,0,1-1-1.16c.34-1,.29-2.29,1.82-2.38C230.05,39,230.27,39.08,230.48,39.13Z"/><path class="cls-100" d="M231.15,91c.79.3,1.06,1.67,2.22,1.16.91-.39.76-1.27.74-2.07.86.84,2,1.68.39,2.83-1,.73-2.16,1.2-3.15-.09-.44-.57-.79-1.2-1.19-1.8A.62.62,0,0,1,231.15,91Z"/><path class="cls-10" d="M241.92,88.87l-.84,0c-.78-.48-.52-1.29-.61-2s-.72-1.6.7-1.65l3.8,2.81c0,.48-.41.54-.75.64C243.44,88.6,242.58,87.24,241.92,88.87Z"/><path class="cls-101" d="M112.12,76.75c1.66-1.41,1.49-3.37,1.58-5.24.11-.4.13-.87.72-.87C115,73.16,116.16,75.94,112.12,76.75Z"/><path class="cls-102" d="M163.93,70.28c-.91-1.42-.71-3-.41-4.89a9.78,9.78,0,0,1,2.79,4.67l-.76.08A12.5,12.5,0,0,0,163.93,70.28Z"/><path class="cls-100" d="M169.88,50.13c-1.53-.73-2.08-2.19-2.76-3.68,1.71-.44,3,.53,4.3,1.16,0,.5-.5.48-.79.67Z"/><path class="cls-38" d="M202.53,52.18,201.6,52a7.12,7.12,0,0,1,3.13-2.68c.62,1.12-.32,2.1-.11,3.12l-.21,1.15Z"/><path class="cls-103" d="M146.11,18.08c.21-.22.43-.44.64-.67.07-1.21.14-2.42.2-3.63.18-.32.36-.3.52,0,1,1.08.9,2.43.83,3.69C148.2,19.63,147.16,19.06,146.11,18.08Z"/><path class="cls-104" d="M92.6,39.79a2.15,2.15,0,0,0,2.87-.12l.09,1a.63.63,0,0,1-.14.85c-.8.25-1.56.59-2.38.79-1.07-.14-1.89.94-3,.65-.87-.44-.79-1.07-.34-1.76v0C90.61,40.62,90.72,38.33,92.6,39.79Z"/><path class="cls-105" d="M251.82,72.08c-1.58-2.4-3.1.66-4.66.06,1.61-1.44,3-4,5.52-1.26a4.06,4.06,0,0,0-.28.73A.91.91,0,0,1,251.82,72.08Z"/><path class="cls-106" d="M190.07,72.11c-1.45.24-2.63-2.12-4.23-.44-.53,0-.5-.53-.74-.81,2.27-3.15,3.81.39,5.7.62A.94.94,0,0,1,190.07,72.11Z"/><path class="cls-107" d="M240.52,44.84l1.33-.57c.85.33,2,.46,1.63,1.81-.36,1.15-.87,2.31-2.5,1.6C242.46,46.47,241.94,45.59,240.52,44.84Z"/><path class="cls-80" d="M98.43,30.37c.22,0,.44,0,.66,0,.58,1.16.68,2.2-.71,2.86L96.25,34c-.71-.38-2.3-.68-.39-1.52C97,32,98.6,32.37,98.43,30.37Z"/><path class="cls-29" d="M62.75,39.84c-1.67,1.58-3.22-1.73-4.89-.12-.64.16-.93,0-.66-.7C59.49,36.32,60.91,39.48,62.75,39.84Z"/><path class="cls-108" d="M134.49,91.73c2.08,1.76,2.5-1.15,3.87-1.39.2-.3.38-.3.56,0-1.13,2.22-2.14,4.74-5.24,2.16A.84.84,0,0,1,134.49,91.73Z"/><path class="cls-109" d="M122.59,57.07c2-.51,1.61.33.89,1.52s-3,1.41-2,3.55a.56.56,0,0,1-.92.06c-1.24-.83-.9-1.63,0-2.48S122.37,58.31,122.59,57.07Z"/><path class="cls-45" d="M244.22,88.71l.75-.64c2,.41,2.55-.5,2.2-2.3,1.23.25,2.05.76,1.14,2.11C247.23,89.46,245.9,90.05,244.22,88.71Z"/><path class="cls-110" d="M126.58,42.56a6.52,6.52,0,0,1,4,1.1c-1.1,1.25-2.69,1.35-4.07,1.91a.55.55,0,0,1-.06-.91c.27-.46,1.15-.88.06-1.4a.41.41,0,0,1-.16-.47C126.46,42.64,126.52,42.56,126.58,42.56Z"/><path class="cls-111" d="M234,74.44c-.8,0-1.61,0-2.41-.13-.44,0-1-.24-.76-.8.14-.29.77-.35,1.18-.52,1.31,1.5,3.43.05,4.81,1.32A2.47,2.47,0,0,1,234,74.44Z"/><path class="cls-112" d="M250.51,79.54c-1.1-.33-2.59-.37-3-1.53-.32-1,1.05-.94,1.73-1.28a.83.83,0,0,1,.69.63l1.38,1.44C251.44,79.47,251.25,79.81,250.51,79.54Z"/><path class="cls-113" d="M227.69,28.5l-.13-.92,5.83-2.14a1,1,0,0,1,.72.64C232.2,27.51,229.92,27.92,227.69,28.5Z"/><path class="cls-114" d="M63.05,28.94c0,.53.06,1.07.1,1.61-.15,1.27.23,1.95,1.69,1.82.49,0,1.61-.32,1.38.82-.15.74-1,.89-1.71.87a1.54,1.54,0,0,1-1.41-.81A3,3,0,0,1,63.05,28.94Z"/><path class="cls-115" d="M204.69,40.41l3.36-.61a2.39,2.39,0,0,1,1,2.11,1.43,1.43,0,0,1-.76.61c-1-.07-2-.28-3-.3-.55-.56-1.76-.45-1.67-1.66Z"/><path class="cls-116" d="M58.24,42.51a7.07,7.07,0,0,1,3.38,1.12,3.21,3.21,0,0,1-2.72,1.29c-.83.38-1-.05-.84-.74s-.32-.74-.72-.93C57.33,42.62,57.4,42.1,58.24,42.51Z"/><path class="cls-117" d="M171.8,44.93a4.27,4.27,0,0,1-2.84-1.2,6.54,6.54,0,0,1,3.52-1.23c.83-.39.91.11.88.74-.4.19-.84.36-.71.95S172.61,45.28,171.8,44.93Z"/><path class="cls-74" d="M195.89,44.22l.9.76c-1.32.93-1.08,1.82.05,2.69-1.64.81-2.13-.42-2.52-1.55C193.86,44.77,195.08,44.62,195.89,44.22Z"/><path class="cls-118" d="M84.68,18.05c-1.2,1-2.33,1.6-2.35-.76a5.44,5.44,0,0,1,.84-3.65c.49,0,.47.52.68.81-.17.77-.74,1.57.14,2.28C84.43,17.06,85.11,17.27,84.68,18.05Z"/><path class="cls-119" d="M101.22,47.52c0,.24,0,.47.07.71-.17,1.5,1.25,3.23-.63,4.5.64-1.81-1-2.88-1.42-4.34C99.56,47.33,100.29,47.2,101.22,47.52Z"/><path class="cls-17" d="M96.14,52.72l-1.23-.67V49.32a7.71,7.71,0,0,1,3.53,3.35Z"/><path class="cls-120" d="M179.31,53.36l-.69.82c-.24-1-.63-1.38-1.7-.84-.89.44-1.74,1.26-2.9.78A8.23,8.23,0,0,1,177.13,52C178.74,51,179.21,51.93,179.31,53.36Z"/><path class="cls-121" d="M158.26,55.66l1,.06c0,.65,0,1.3,0,1.94a1.67,1.67,0,0,1-1.07,1.18,35.87,35.87,0,0,1-3.88,0,1,1,0,0,1-.63-.81,1.45,1.45,0,0,1,1-1.19,5.17,5.17,0,0,1,1-.11C156.63,56.76,157.69,56.82,158.26,55.66Z"/><path class="cls-122" d="M96.22,68a8.51,8.51,0,0,0,3.63,2.84c-1.14.94-2.33.33-3.5.09l-.5-.14C95.06,69.7,94.4,68.67,96.22,68Z"/><path class="cls-123" d="M130.64,70.06c2,.48,2.78-1,3.84-2.15,1.18.39,1.2,1.24.9,2.22a.73.73,0,0,1-1,0C133.12,71.17,131.84,72.19,130.64,70.06Z"/><path class="cls-124" d="M173.36,43.24l-.88-.74c1.24-.77.81-1.77.39-2.77a.74.74,0,0,1,.56-.64C174.33,40.49,176.62,41.91,173.36,43.24Z"/><path class="cls-125" d="M64.64,90.32l.64.79a1.93,1.93,0,0,0,2.08,1.32.74.74,0,0,1,1.08,0C65.29,94,64.44,93.49,64.64,90.32Z"/><path class="cls-126" d="M127.28,69.35l.79-1.39a1.07,1.07,0,0,1,1.68.08c-.48,1,.14,1.48.78,2A2.13,2.13,0,0,1,127.28,69.35Z"/><path class="cls-127" d="M71.53,57.69l.89.59c-.38.83-1,.6-1.61.35-1.67-.09-3.38.12-4.87-.89-.27-.13-.36-.26-.27-.4s.17-.2.26-.2Z"/><path class="cls-49" d="M120.77,88.19l0-.9c1.34,1.16,2.81.67,4.26.35C123.88,89.63,122.52,90.43,120.77,88.19Z"/><path class="cls-128" d="M239.05,68.08l1.57-.14c.41,2.22-.08,3.35-2.55,2.13C238.51,69.46,239.44,69.1,239.05,68.08Z"/><path class="cls-129" d="M57.16,86.32c.07.45.13.9.2,1.35-1.5.53-2.77,2.88-4.61.56C54.57,88.42,55.72,87,57.16,86.32Z"/><path class="cls-130" d="M123.65,62.23l2.73-1.34c.53,1.67-.42,2.54-1.27,3.44l-1.44-.82A.8.8,0,0,1,123.65,62.23Z"/><path class="cls-131" d="M59.42,55.68a10.84,10.84,0,0,1-5.06-2.18,1,1,0,0,1,.73-.66,12.61,12.61,0,0,1,4.33,2.21c.17.14.23.28.17.42S59.48,55.68,59.42,55.68Z"/><path class="cls-132" d="M127.74,47.72l1.74-.58c.72.31,1.78.08,1.94,1.25-.62,1-1.24,2.08-1.85,3.12a.88.88,0,0,1-.81-.9C130.11,49.05,128.93,48.38,127.74,47.72Z"/><path class="cls-133" d="M209.44,24.65l1.71.91,1.15,1.72c.45,1.88-.9,1.23-1.76,1.25-.26-.12-.38-.28-.38-.48s0-.34.11-.34C210.82,26.47,209.32,25.78,209.44,24.65Z"/><path class="cls-134" d="M164.92,26.15a10.79,10.79,0,0,1-5.21,2.1c.87-1.92,2.87-2,4.46-2.76C164.45,25.68,164.94,25.62,164.92,26.15Z"/><path class="cls-135" d="M201.45,33.36l1.07-1,2.35.18c-.35,1.54-1.68,1.56-2.59,2.12H201Z"/><path class="cls-136" d="M104.29,40.48c-1.52-2.6-3.11-.09-4.68-.07,2.71-3.27,3.51-3.27,5.62,0A.59.59,0,0,1,104.29,40.48Z"/><path class="cls-39" d="M173.43,39.09l-.56.64c-1.25-1.23-2.44.49-3.68.06-.33.35-.62.32-.89-.08C170,39.15,171.36,36.31,173.43,39.09Z"/><path class="cls-34" d="M193.11,64.27q.31,0,.63.06c-1,1.81.14,2.69,1.5,3.48,0,.56-.42.55-.79.63C192.34,67.59,190.62,66.6,193.11,64.27Z"/><path class="cls-23" d="M243.35,68.43l-.79-.61c.59-.9,2.76-.9,1.61-2.8-.43-.62,0-.81.49-.92l.4.26C247,66.79,245.26,67.64,243.35,68.43Z"/><path class="cls-137" d="M58.24,42.51l-.9.74c-3.28-1.3-1-2.79-.14-4.23l.66.7C57.32,40.74,56.89,41.75,58.24,42.51Z"/><path class="cls-138" d="M166.22,70a6.7,6.7,0,0,0,4.23-.81,1.18,1.18,0,0,1,1,1C169.68,70.55,167.85,72.72,166.22,70Z"/><path class="cls-131" d="M238.45,56.39a8.1,8.1,0,0,1-4.48,1.4C235,55.88,236.6,55.71,238.45,56.39Z"/><path class="cls-139" d="M117.11,75.12l.84,1.44c-3.64-1.46-2.11-4.16-1.57-6.61a.87.87,0,0,1,.44.9C116.94,72.27,116.48,73.73,117.11,75.12Z"/><path class="cls-140" d="M250.51,79.54l.83-.74c2.5,1.83-.2,2.9-.63,4.3l-.72-.76C250.26,81.42,251.08,80.61,250.51,79.54Z"/><path class="cls-13" d="M151.26,9.33c-1.53-1-2.46.1-3.44,1-.37.55-.64.51-.8-.14C148.23,8.89,148.94,5.18,151.26,9.33Z"/><path class="cls-141" d="M49.93,77.55c0-.3.06-.6.1-.9.95.09,2.2.28,2.21,1.27s-1.4,1-2.24,1.37c-.29-.2-.89-.08-.75-.72Z"/><path class="cls-142" d="M126.58,54.89a8.54,8.54,0,0,1-4.42-2.09,1,1,0,0,1,.73-.64c1.29.58,2.72,1,3.63,2.17.19.11.25.23.21.36S126.63,54.89,126.58,54.89Z"/><path class="cls-143" d="M210.27,27.71v.55l.46.29-.49.25a14.2,14.2,0,0,1-5.05-2,.94.94,0,0,1,.7-.65Z"/><path class="cls-11" d="M108.55,52.78a8.23,8.23,0,0,1-4.36,2c.52-1.83,2.28-2,3.63-2.69A1,1,0,0,1,108.55,52.78Z"/><path class="cls-144" d="M145.83,87.94l.32,1.12a7.75,7.75,0,0,1-2.54,3.36c-.38,0-.53-.22-.43-.59Z"/><path class="cls-145" d="M117.89,76.51c1.15.06,2.64.3,2.69,1.45.07,1.41-1.57,1.36-2.66,1.63a.49.49,0,0,1-.19-.52c.06-.18.11-.27.17-.27C118.64,78,118.1,77.27,117.89,76.51Z"/><path class="cls-120" d="M143.18,91.83c.15.19.29.39.43.59-2,.78-2.93-.28-3.42-2-.24-.72.16-1,.78-1.16.61.13,1.05.37.76,1.12A1.48,1.48,0,0,0,143.18,91.83Z"/><path class="cls-146" d="M138.25,57.66l-.85.75a10.2,10.2,0,0,1-4.76-1.27C134.6,56.31,136.42,57.06,138.25,57.66Z"/><path class="cls-147" d="M203.11,69.4c-.19-1.5.83-2.36,1.77-3.8a5,5,0,0,1,.23,3.75,1,1,0,0,1-1.44,0l-.28,0Z"/><path class="cls-148" d="M198,68.65l.54,0c.87,1.91,2.64,1.18,4.09,1.38C200.78,70.49,198.43,72.78,198,68.65Z"/><path class="cls-149" d="M244.88,62.28a3.5,3.5,0,0,0,2.87,0,2.47,2.47,0,0,1-2.69,2.07l-.23,0A1.3,1.3,0,0,1,244.88,62.28Z"/><path class="cls-150" d="M173.53,54.23c-1,1.68-2.67,1.93-4.41,2.05-.26-.12-.35-.25-.26-.38a.33.33,0,0,1,.26-.18A9.32,9.32,0,0,1,173.53,54.23Z"/><path class="cls-151" d="M132.32,73.79v.47c-.52.7-1.16.44-1.8.22-1.39-.06-2.84.2-4.07-.73,0-.46.51-.46.78-.69Z"/><path class="cls-152" d="M58.71,67.18c0,.44,0,.89,0,1.33-1.85.86-3.12-.27-4.41-1.29a.69.69,0,0,1,.75-.68C56.25,67.05,57.23,68.56,58.71,67.18Z"/><path class="cls-153" d="M158.36,58.33l.82-.67c1.69.42,3.45-1.12,5.11.16a8.8,8.8,0,0,1-4.38.8C159.33,58.88,158.75,59.09,158.36,58.33Z"/><path class="cls-154" d="M126.58,42.56c0,.24,0,.47,0,.7-2.86-.61-1.82-2.07-.77-3.54a.93.93,0,0,1,.61.74A1.88,1.88,0,0,0,126.58,42.56Z"/><path class="cls-155" d="M58.06,44.18l.84.74c-.63.55-1.79.85-1,2.09a1,1,0,0,1-.62.72C55.75,46.14,55.62,44.86,58.06,44.18Z"/><path class="cls-156" d="M55.09,52.84l-.73.66c-.88-.16-2-1.2-2.31.68l-.67-.86C52.15,49.52,53.82,52.72,55.09,52.84Z"/><path class="cls-157" d="M161.49,72.18l2.53-.74a1,1,0,0,1,.8.83l-1.86.81a1.81,1.81,0,0,1-2.88.64,2.82,2.82,0,0,1-.64-.92C159.41,70.26,160.61,71.77,161.49,72.18Z"/><path class="cls-158" d="M84.68,18.05,84,16.73c1.49-.23,2.26-1.52,3.37-2.31a.73.73,0,0,1,1.08.15C87.37,15.92,86.35,17.34,84.68,18.05Z"/><path class="cls-159" d="M66,51.91c-.06.37-.11.74-.16,1.11l-1.13-.9A.7.7,0,0,1,63.58,52l2.51-2.85C67.33,50.46,66.33,51.13,66,51.91Z"/><path class="cls-160" d="M227.62,19.18,227.53,18c1.26-1.52-.1-2.4-.83-3.44a.86.86,0,0,1,1.19-.19C229.74,16.1,229.86,17.71,227.62,19.18Z"/><path class="cls-161" d="M71.65,88.92l1.58,0,0,2.81c0,.49-.47.53-.79.69C70.74,91.54,71.83,90.09,71.65,88.92Z"/><path class="cls-124" d="M171.8,44.93l.85-.74c2.43.67,2.27,1.93.8,3.5a.94.94,0,0,1-.62-.7C173.48,45.81,172.43,45.47,171.8,44.93Z"/><path class="cls-162" d="M224.42,91.8l1.08-.12h1.06c.95-.19.35-1.43,1.16-1.72a1.59,1.59,0,0,1-.69,2.59A1.66,1.66,0,0,1,224.42,91.8Z"/><path class="cls-163" d="M83.85,14.45l-.68-.81c0-1.17.1-2.34.16-3.5C85.42,11.34,84.43,12.92,83.85,14.45Z"/><path class="cls-164" d="M147,10.2l.8.14c-.8,1.08-.4,2.28-.35,3.45h-.26l-.26,0C145.75,12.56,145.62,11.37,147,10.2Z"/><path class="cls-11" d="M65.83,40.56c.85.62,2.06.83,2.44,2a7.69,7.69,0,0,1-4.15-1.36Z"/><path class="cls-165" d="M109.34,87.42l.54.6c-.65,1.3-1.51,2-2.95,1a.62.62,0,0,1,.14-.94A2.83,2.83,0,0,0,109.34,87.42Z"/><path class="cls-105" d="M74.54,15.33c-.74-.06-1.45-.73-2.23-.14-.64.15-1,0-.68-.73C73.34,12.27,74,13.56,74.54,15.33Z"/><path class="cls-138" d="M234.75,68.74l2.85,2c-1.37,1.4-2.33.12-3.38-.53l-.33-.37A1.08,1.08,0,0,1,234.75,68.74Z"/><path class="cls-166" d="M71.63,14.46l.68.73a5.31,5.31,0,0,0-.52,3.3C69.65,17.23,70.38,15.86,71.63,14.46Z"/><path class="cls-167" d="M127.22,73.06l-.78.69a6.54,6.54,0,0,1-3.48-.9c-.14-.65,0-1,.74-.69Z"/><path class="cls-168" d="M205.89,26.14l-.7.65-2.09-.7-.87-.84C203.73,24.39,204.7,25.69,205.89,26.14Z"/><path class="cls-169" d="M160.45,73l2.5.12,2.6.69a.61.61,0,0,1-.43,1,23,23,0,0,1-3.89,0C160.17,74.58,159.86,73.93,160.45,73Z"/><path class="cls-53" d="M247.15,59.85c-3.28-1.9-3.35-2.06-1.51-3.34a.87.87,0,0,1,.71.58C246.61,58,246.88,58.93,247.15,59.85Z"/><path class="cls-170" d="M135.16,40.63a2.65,2.65,0,0,0,.07.48c0,.51-.47.51-.73.74a4.84,4.84,0,0,1-2.94-1.29c-.23-.13-.31-.26-.22-.38s.16-.18.25-.18Z"/><path class="cls-131" d="M246.49,72.24c-.76,1.07-1.93,1.17-3.08,1.31-.29-.2-.8-.17-.76-.72C243.87,72.23,245.07,71.51,246.49,72.24Z"/><path class="cls-156" d="M169.12,55.72v.56a7.2,7.2,0,0,1-4.47,1.49C165.74,56.21,167.5,56.1,169.12,55.72Z"/><path class="cls-38" d="M63.58,52l1.12.16c-1.31,1-2.6,3.75-4,0A2.42,2.42,0,0,0,63.58,52Z"/><path class="cls-171" d="M231.1,41.85l3-1.32,1.45.7a7.47,7.47,0,0,1-3.69,1.33C231.61,42.33,231.13,42.34,231.1,41.85Z"/><path class="cls-52" d="M198.17,74.33c-1.61.35-3-.65-4.51-.77-.21-.16-.27-.32-.2-.47s.15-.22.22-.22C195.26,73.09,197.11,72.51,198.17,74.33Z"/><path class="cls-172" d="M56.56,73.56c-1.41.19-2.53-.54-3.69-1.13-.44-.32-.41-.6.07-.84l3.66,1.23C57.07,73.1,57.05,73.35,56.56,73.56Z"/><path class="cls-173" d="M203.67,69.39l1.44,0c.11.93-.44,1.89.11,2.81,0,.23,0,.46,0,.7C202.93,72.47,203.83,70.7,203.67,69.39Z"/><path class="cls-174" d="M250,77.36l-.69-.63c.94-.68,2.18-1,2.49-2.38a.45.45,0,0,1,.48-.33.5.5,0,0,1,.46.38C252.71,76.24,251.4,76.86,250,77.36Z"/><path class="cls-175" d="M191.28,52.84l1.21-.19a5.17,5.17,0,0,1,3.23,1.88l.29.18-.25.24A8.88,8.88,0,0,1,191.28,52.84Z"/><path class="cls-176" d="M134.49,91.73l-.81.8c-.89-1.42.14-2.52.62-3.71l.78,0Z"/><path class="cls-177" d="M105.52,67.15l.77.64-2.89,1.35c-.21-.63-.41-1.26-.62-1.9Z"/><path class="cls-178" d="M246.35,57.09l-.71-.58c1.09-.67,2.32-1.24,2-2.88-.29-.74.09-.88.72-.8C248.85,54.8,248.63,56.44,246.35,57.09Z"/><path class="cls-179" d="M58.34,90.89h0l3.24-.29C60.75,93.19,59.57,92.36,58.34,90.89Z"/><path class="cls-180" d="M121.58,52.79c-.1,1-.19,2-.28,2.94-2.6-.9-.81-2.47-.59-3.81A1,1,0,0,1,121.58,52.79Z"/><path class="cls-91" d="M128,90.49a2.32,2.32,0,0,0,2.89-.3A.71.71,0,0,1,131,91.3c-1.36,1.75-2.59.61-3.83-.18C127.12,90.55,127.56,90.56,128,90.49Z"/><path class="cls-7" d="M139.52,39.85c-1.43-.14-2.89.89-4.29-.14,0-.28.05-.56.08-.83a5.73,5.73,0,0,0,3.53-.45C139.53,38.68,140,39.06,139.52,39.85Z"/><path class="cls-181" d="M242.11,54.32c-.6,1.86-2.3,1.74-3.74,2.09C239.07,54.73,240.53,54.42,242.11,54.32Z"/><path class="cls-132" d="M198.68,39.79l-2.87-.7c1.21-2.49,2.41-.24,3.62,0C199.57,39.74,199.44,40.1,198.68,39.79Z"/><path class="cls-182" d="M63.1,33.25l1.41.81a2.19,2.19,0,0,0,0,2l-.84.83A3.66,3.66,0,0,1,63.1,33.25Z"/><path class="cls-183" d="M132.51,57.14a6.77,6.77,0,0,1-3.94-1.38c0-.55.51-.5.79-.7C130.65,55.39,131.9,55.79,132.51,57.14Z"/><path class="cls-184" d="M78.17,13.07h-.25l-.26,0c-1.48-1.72-.51-2.51,1.15-3.05C78.6,11,78.38,12.05,78.17,13.07Z"/><path class="cls-185" d="M203.63,40.56l1.67,1.3c.42.31.38.54-.11.7l-3.57-1.46c-.17-.63,0-.92.69-.67Z"/><path class="cls-168" d="M128,90.49l-.82.63c-2-1-.15-2.5-.58-3.7l.75,2.21Z"/><path class="cls-186" d="M153.13,13.76l-.69-.83c.36-1.07-.43-1.94-.54-2.93C154.19,10.64,153.86,12.14,153.13,13.76Z"/><path class="cls-187" d="M171.43,70.23c-.32-.35-.65-.69-1-1a.55.55,0,0,1,0-.36c-.4-1.37-.34-2.3,1.48-1.64a.28.28,0,0,1,.2.39c.39.41.34.76-.14,1Z"/><path class="cls-188" d="M92.7,27.52a6.09,6.09,0,0,1-3,1.25c-.53-.39-1.84.09-1.47-1.31l0-.14C89.72,27.72,91.25,26.81,92.7,27.52Z"/><path class="cls-29" d="M88.44,14.57l-1.08-.15c1.72-2.37,2.28-.24,3.11.81l-.62.7Z"/><path class="cls-189" d="M114.42,70.64l-.72.87c-.81-1.41-1.69.06-2.54-.07C112,70.24,112.68,68.24,114.42,70.64Z"/><path class="cls-190" d="M231.15,91l-1,0a4.29,4.29,0,0,1-1.88-3C229.83,88.47,230.49,89.74,231.15,91Z"/><path class="cls-191" d="M248.38,52.83l-.72.8-1.12-.79a.91.91,0,0,1-1.29-.25C246.35,52,247.53,50.16,248.38,52.83Z"/><path d="M159,18.13c.56-1.4-.49-2.37-.95-3.5a.56.56,0,0,1,.95-.12C160.17,15.72,160.41,16.93,159,18.13Z"/><path class="cls-178" d="M56.56,73.56c0-.25,0-.49,0-.74l3.63.82c0,.46-.49.44-.78.62A2.88,2.88,0,0,1,56.56,73.56Z"/><path class="cls-190" d="M68.44,92.47l-1.08,0a6.48,6.48,0,0,1,2.93-3.12A4.29,4.29,0,0,1,68.44,92.47Z"/><path class="cls-192" d="M195.76,55c0-.14,0-.29,0-.43a5,5,0,0,1,3.73,1.08c0,.49-.42.52-.73.66A5.1,5.1,0,0,1,195.76,55Z"/><path class="cls-193" d="M232.61,72.87V71.44c.06-.45.12-.91.17-1.36A.79.79,0,0,1,234,70l.18.15C234.29,71.43,234.29,72.65,232.61,72.87Z"/><path class="cls-194" d="M107.07,88.11c0,.31-.1.63-.14.94l-2.63-.86c0-.54,0-1.09-.07-1.64A5,5,0,0,1,107.07,88.11Z"/><path class="cls-107" d="M111,71.51A8.33,8.33,0,0,1,107,73C107.79,71.06,109.36,71.12,111,71.51Z"/><path class="cls-195" d="M165.5,74.4c0-.21,0-.42.05-.63l2.22,0c.39.42,1.18,0,1.45.69a6.44,6.44,0,0,1-3.7.49L165,74.7Z"/><path class="cls-166" d="M134.39,70.15l.77-.06a.78.78,0,0,1,.61.67L137,73C135.26,72.84,134.33,72,134.39,70.15Z"/><path class="cls-192" d="M123.7,72.16l-.74.69a7.43,7.43,0,0,1-3.28-1.33C121.18,70.71,122.45,71.4,123.7,72.16Z"/><path class="cls-196" d="M68.84,39a2.12,2.12,0,0,1-2.21,1.46L66,39l.73-.78A2.3,2.3,0,0,0,68.84,39Z"/><path class="cls-52" d="M242.65,72.83l.76.72c-1.5.23-2.88,1-4.46.82C239.84,73,241.3,73.06,242.65,72.83Z"/><path class="cls-197" d="M183.66,75.14V70.78l1.21,1.41a.88.88,0,0,1,0,1.54Z"/><path class="cls-149" d="M59.42,55.68v-.63a7,7,0,0,1,3.72,1.17c.06.59-.48.51-.78.71A5.46,5.46,0,0,1,59.42,55.68Z"/><path class="cls-198" d="M109.3,55.81l.12-2.36c.08-.41.07-.87.67-.88C110.32,53.77,111.91,55.3,109.3,55.81Z"/><path class="cls-199" d="M49.25,78.57l.75.72c-1.27.33-1.28,1.4-1.42,2.41C46.78,80.23,47.1,79.2,49.25,78.57Z"/><path class="cls-200" d="M102.39,54.91c-.59,1.48-1.92,1.81-3.28,2.07-.3-.23-.82-.2-.83-.74Z"/><path class="cls-201" d="M193.68,72.87c0,.23,0,.46,0,.69l-3.59-1.45.73-.63A4.73,4.73,0,0,1,193.68,72.87Z"/><path class="cls-201" d="M123.65,62.23c0,.43,0,.86,0,1.28-1.65,1-2.39-.15-3.12-1.31l.92-.06C122.17,62.86,122.91,62.47,123.65,62.23Z"/><path class="cls-45" d="M141,89.52l-.82.85h-1.27a5.33,5.33,0,0,0-.56,0,2.79,2.79,0,0,1,2.45-2.52A1.1,1.1,0,0,1,141,89.52Z"/><path class="cls-93" d="M126.4,40.46l-.61-.74c1-2.1,2.34-2.17,4-.8a1,1,0,0,1-1.32.24C127.38,39,127,39.84,126.4,40.46Z"/><path class="cls-202" d="M64.43,86.57c.25.56.5,1.12.74,1.68l-2.73,1.46A6.54,6.54,0,0,1,64.43,86.57Z"/><path class="cls-69" d="M97,88.79l.68-1.38a5.7,5.7,0,0,1,2.08,3.07C98.56,90.37,97.93,89.33,97,88.79Z"/><path class="cls-203" d="M159,14.51l-.95.12-1.39.47c-.11-.75-.13-1.55.76-1.75S158.65,13.85,159,14.51Z"/><path class="cls-204" d="M227.89,14.39l-1.19.19-2,1.09C225.47,14.53,225.68,12,227.89,14.39Z"/><path class="cls-172" d="M62.36,56.93l.78-.71,2.79.92c0,.2,0,.4,0,.6C64.63,58,63.54,57.28,62.36,56.93Z"/><path class="cls-185" d="M198.72,56.26l.73-.66A4.68,4.68,0,0,1,202.31,57,3.79,3.79,0,0,1,198.72,56.26Z"/><path class="cls-205" d="M72.42,92.37l.79-.69L74.7,91l.64.69C74.66,93.22,73.6,93.07,72.42,92.37Z"/><path class="cls-206" d="M194.45,68.44l.79-.63,1.95-1.59c0,.4.08.79.13,1.18C196.59,68.36,195.84,69.27,194.45,68.44Z"/><path class="cls-207" d="M116.49,70.72c0-.26-.07-.52-.11-.77,1.72-.91,2.54.11,3.18,1.5l-2.35-.62C116.89,71.31,116.65,71.27,116.49,70.72Z"/><path class="cls-208" d="M164.82,72.27c-.26-.28-.53-.56-.8-.83l-.09-1.16a1.34,1.34,0,0,1,1.62-.14C165.31,70.85,165.07,71.56,164.82,72.27Z"/><path class="cls-209" d="M93.73,72.22l1.19-1.44a.84.84,0,0,1,1.25,0l.18.15C96.08,72.53,95.2,73,93.73,72.22Z"/><path class="cls-210" d="M180,70.81c-.55,1.34-1.76,1.67-3,2-.31-.17-.81-.11-.78-.66A7.66,7.66,0,0,1,180,70.81Z"/><path class="cls-211" d="M172,68.64c0-.35.09-.7.14-1l2.74-.46C174.55,68.78,173.52,69.16,172,68.64Z"/><path class="cls-178" d="M126.5,44.66l.06.91c.31.71.62,1.41.92,2.12C125.92,47.08,123.86,46.63,126.5,44.66Z"/><path class="cls-140" d="M202.31,40.43l-.69.67a5.75,5.75,0,0,1-2.94-1.31l.75-.7Z"/><path class="cls-212" d="M141,27.56c0,.41,0,.81.05,1.21l-3.25-1.26C138.84,26.74,139.89,27.23,141,27.56Z"/><path class="cls-164" d="M117.9,78.8l0,.79c0,.43-.07.86-.1,1.3l-1,0C115.71,79.45,116.63,79,117.9,78.8Z"/><path class="cls-191" d="M95.59,26.35a5.06,5.06,0,0,1-3,1.19,3.66,3.66,0,0,1,2.92-2.15Q96.37,25.83,95.59,26.35Z"/><path class="cls-107" d="M95.44,41.12a2.7,2.7,0,0,0,.12-.49,7.21,7.21,0,0,1,3.88-.16,7,7,0,0,1-3.22,1.36C96,41.61,95.47,41.61,95.44,41.12Z"/><path class="cls-178" d="M216.78,14.45c-.2.47-.41.93-.61,1.4-.26-1.18-.52-2.37-.77-3.55A2.24,2.24,0,0,1,216.78,14.45Z"/><path class="cls-213" d="M164.92,26.15l-.75-.66c1.07-.49,2.14-1,2.79.56.4.72,0,.8-.58.72Z"/><path class="cls-214" d="M245.25,52.59l1.29.25a3.79,3.79,0,0,1-2.95,1.3A1.93,1.93,0,0,1,245.25,52.59Z"/><path class="cls-24" d="M104.29,40.48l.94,0c.75,1.31,1.18,2.45-1.12,2.16A2.4,2.4,0,0,0,104.29,40.48Z"/><path class="cls-215" d="M174.17,73.55l-2.91.7c-.29-.17-.73-.15-.78-.62l3.66-.81c.21.15.29.31.23.48S174.24,73.55,174.17,73.55Z"/><path class="cls-178" d="M129.36,55.06l-.79.7a2.79,2.79,0,0,1-2-.87,2.6,2.6,0,0,0-.06-.56Z"/><path class="cls-216" d="M175.64,65.73l1,0c.65,2-.64,1.65-1.8,1.47Z"/><path class="cls-201" d="M184.87,73.73V72.19c.08-.45.16-.89.23-1.33l.74.81c0,.87,0,1.73-.05,2.59.42.78,0,.88-.64.8Z"/><path class="cls-17" d="M243.43,41.91l-.69,0c-.26-.7-.52-1.41-.77-2.11l.62-.72C243.11,40,244.06,40.7,243.43,41.91Z"/><path class="cls-95" d="M110.09,52.57c-.22.29-.45.58-.67.88l-.87-.67-.73-.65C108.7,51.63,109.63,50.88,110.09,52.57Z"/><path class="cls-217" d="M227.72,90l-1.16,1.72c.56-1-.1-1.92-.28-2.87l1.4-.65C227.7,88.75,227.71,89.35,227.72,90Z"/><path class="cls-218" d="M98.28,56.24l.83.74-3,.77A2.21,2.21,0,0,1,98.28,56.24Z"/><path class="cls-127" d="M52.94,71.59l-.07.84-2.79-1.11.76-.57Z"/><path class="cls-219" d="M128.47,39.16l1.32-.24a2.65,2.65,0,0,1,1.8,1.08,5.25,5.25,0,0,0,0,.56A4.94,4.94,0,0,1,128.47,39.16Z"/><path class="cls-220" d="M137.65,27.48a6.11,6.11,0,0,1-3.18-1.42,1,1,0,0,1,.74-.65A3.07,3.07,0,0,1,137.65,27.48Z"/><path class="cls-59" d="M89,58.37l.87-.66,3.48.19c-.63,1.07-1.66.72-2.6.73C90.14,58.86,89.52,59.07,89,58.37Z"/><path class="cls-156" d="M174.17,73.55l0-.73,2.09-.7.78.66Z"/><path class="cls-180" d="M128.76,50.61l.81.9c.07.39.15.77.23,1.16C128.88,52.27,128,51.88,128.76,50.61Z"/><path class="cls-215" d="M252.7,74.4l-.57,0A2.83,2.83,0,0,1,252,71.6l.68-.72C252.69,72.05,252.69,73.23,252.7,74.4Z"/><path class="cls-221" d="M170.48,73.63l.78.62-2,.23-1.45-.69Z"/><path class="cls-45" d="M131,91.3l-.12-1.11L132,88.75h.81A4.08,4.08,0,0,1,131,91.3Z"/><path class="cls-221" d="M59.45,74.26l.78-.62,2.73.17-1.48.66Z"/><path class="cls-156" d="M163.37,41.41l1.58-.78,1.29-.08c.26.13.35.26.26.39s-.17.19-.26.19a4.67,4.67,0,0,1-2.84,1c-.21-.16-.28-.33-.22-.5S163.3,41.41,163.37,41.41Z"/><path class="cls-150" d="M55.1,66.54l-.75.68c-1-.79-.44-1.49.11-2.19.61-.18.88,0,.61.64Z"/><path class="cls-222" d="M55.07,65.67c-.2-.21-.4-.43-.61-.64,0-.23-.06-.45-.1-.67l2.11-.79A3,3,0,0,1,55.07,65.67Z"/><path class="cls-215" d="M57.24,47.73l.62-.72,1.42.58.8.68C59.06,48.46,58,48.73,57.24,47.73Z"/><path class="cls-150" d="M135.21,25.41l-.74.65-1.42.06C133.29,24.44,134.29,25,135.21,25.41Z"/><path class="cls-223" d="M166.38,26.77l.58-.72c.54.64,1,1.3.42,2.15l-1.18,0Z"/><path class="cls-125" d="M98.41,28.22l-.81-.85-.73-1.28A.58.58,0,0,1,97.8,26C98.42,26.63,99,27.27,98.41,28.22Z"/><path class="cls-150" d="M97.8,26l-.93.08-1.28.26-.06-1C96.48,24.89,97.36,24.65,97.8,26Z"/><path class="cls-166" d="M227.7,24.75c.09-1.23,1.3-1.07,2-1.58C229.5,24.3,228.59,24.52,227.7,24.75Z"/><path class="cls-168" d="M234.11,26.08l-.72-.64c.71-.3,1.39-1,2.18-.16l-.86.81-.3,0Z"/><path class="cls-154" d="M234,74.44l2.82-.13,1.25.12a6.6,6.6,0,0,1-4,.56C234,74.81,234,74.62,234,74.44Z"/><path class="cls-224" d="M121.58,52.79l-.87-.86c.83-.93,1.48-.12,2.18.23l-.73.64Z"/><path class="cls-127" d="M166.24,41.13v-.58l2.07-.84.88.08A2.87,2.87,0,0,1,166.24,41.13Z"/><path class="cls-178" d="M172.83,47l.62.7c-.76,1-1.79.79-2.82.59l.79-.67Z"/><path class="cls-93" d="M88.22,27.46l1.47,1.31c-.68.17-1.37.32-2,.51-5.25,1.49-6,.8-4.94-5.09C84.55,25.43,85.5,28.13,88.22,27.46Z"/><path class="cls-116" d="M71,41.93c-.77-.93-.92-2.32-2.16-2.9l4.09-2.75c1.58,1.92-2.64,3.39.21,5a.72.72,0,0,1,.26.55q0,.33-.06.33C72.47,43.07,71.68,43.14,71,41.93Z"/><path class="cls-157" d="M87,71.92,85.44,74.3c-2.23.08-3.17-1-3-3.2.12-1.41,0-2.83,0-4.58a4.31,4.31,0,0,1,2.58,3.55c-.21.89.2,1.25,1,1.24Z"/><path class="cls-225" d="M78.41,36.93c.88,1,1.41,4.87.85,6.16-.76,1.76-2.27.86-3.45.9A11.07,11.07,0,0,1,73,43.43c.31-.89,1.17-1,1.88-1.41a4.49,4.49,0,0,0,2-1.18A6.34,6.34,0,0,0,78.41,36.93Z"/><path class="cls-173" d="M60.22,68.78a2.91,2.91,0,0,0-1.51-1.61c.4-1.87,1.82-2.93,3.41-4.38C62.58,65.42,61.4,67.1,60.22,68.78Z"/><path class="cls-77" d="M78.9,29.55l-.83-.68-1.22-1.36-.92-.07,3.45-3C79.34,26.22,80,27.93,78.9,29.55Z"/><path class="cls-20" d="M77.56,73.73l-.78-.63c0-1,.54-2.11-.66-2.83a5.66,5.66,0,0,1,2.56-3.39C78.49,69.2,80.78,71.8,77.56,73.73Z"/><path class="cls-226" d="M91.32,71.43c-.63.73-1.26,1.47-1.9,2.2.9-2.2-1.72-3.89-.77-6.31A5.67,5.67,0,0,1,91.32,71.43Z"/><path class="cls-187" d="M92.6,39.79c-1.22-.06-1.39,2.09-2.91,1.39-.39-1.11-.77-2.22-1.17-3.4,2-1,3.09,1.39,4.81,1.4Z"/><path class="cls-68" d="M96.17,70.74l-1.25,0a9.17,9.17,0,0,1-.6-4.91c1.4,0,1.41,1.28,1.9,2.09A3.33,3.33,0,0,0,96.17,70.74Z"/><path class="cls-227" d="M86.11,71.31c-.25.63-.28,1.51-1.3,1.38a1.4,1.4,0,0,1-1.19-1.54c0-1,.63-1.15,1.44-1.08Z"/><path class="cls-227" d="M76.12,55.65c.58-.32,1.5-1,1.69-.9A1.72,1.72,0,0,1,77.92,57c-.73,1.25-1.73.77-2.66.15-.46-.28-.43-.5.08-.65Z"/><path class="cls-65" d="M83.24,44c-1.89-2.19-.3-4.68-1.21-7.7A5.14,5.14,0,0,1,84.59,39l-.18,1c-.19,1.1.16,2.27-.47,3.3A7.39,7.39,0,0,1,83.24,44Z"/><path class="cls-228" d="M89.7,41.16l.78,1.26c.49.27.49.54,0,.8l-2,.22c-1.13.33-2.27.71-3.25-.35A1.36,1.36,0,0,1,86,41.65a2.18,2.18,0,0,1,1.16.13A4.09,4.09,0,0,0,89.7,41.16Z"/><path class="cls-229" d="M76.12,70.27c.65,0,1.51-.53,1.82.44s-.41,1.77-1.16,2.39c-1.44-.5-.65-1.63-.71-2.51Z"/><path class="cls-230" d="M73.16,41.9c0-.21,0-.41,0-.61,2.47.52,2.91-1.95,4.34-2.95a1.2,1.2,0,0,1,.89,1.57c-.41,1.55-1.64,2.1-3,2.43C74.6,42.25,73.56,43.67,73.16,41.9Z"/><path class="cls-172" d="M78.2,39.73l-.71-1.39.92-1.41c.38,2,1,3.9-.22,5.78A2.22,2.22,0,0,1,78.2,39.73Z"/><path class="cls-52" d="M73.16,41.9l2.28,0c.2.17.26.32.18.47s-.16.2-.24.2L73,43.43c-1-.12-2.06.37-2.77-.69l.75-.81Z"/><path class="cls-59" d="M90.83,54.81,89,54.92c-.21.51-.41.5-.59,0l-.27-1.23C88,53,87.52,52,89,52.07Z"/><path class="cls-231" d="M89,58.37l1.75.26a11.21,11.21,0,0,1-7.08,0Z"/><path class="cls-232" d="M70.81,58.63l1.61-.35,5.28.36A10.37,10.37,0,0,1,70.81,58.63Z"/><path d="M101.22,47.52l-2,.87L97.87,46.5c1.43-.54,2.37.29,3.41.67Z"/><path class="cls-233" d="M91.18,22.47h-.57c0-2.48-2-1.29-3.06-1.7-.08,0-.19-.12-.2-.19a1.07,1.07,0,0,1,.11-.33C89.12,20.28,91,20,91.18,22.47Z"/><path class="cls-154" d="M87.15,41.78,86,41.93c-1.26.4-1.88-.29-2.29-1.35a1.69,1.69,0,0,1,.15-1.45c.23,0,.47-.07.71-.09C85.44,40,86.3,40.87,87.15,41.78Z"/><path class="cls-234" d="M85.46,42.8l3,.64a9.6,9.6,0,0,1-5.22.52c0-.21,0-.43.05-.64l.65-.64C84.47,42.31,85,42.07,85.46,42.8Z"/><path class="cls-235" d="M109.48,83l-3.08.7c-.66-.42-1.28-1,0-1.16A10.84,10.84,0,0,1,109.48,83Z"/><path class="cls-236" d="M90.47,43.22v-.8l2.8-.59c.74-.37.84,0,.77.64Z"/><path class="cls-237" d="M55.06,83.64,52.62,83c.88-.16,1.84-.63,2.62-.42C56.38,82.85,55.84,83.37,55.06,83.64Z"/><path class="cls-238" d="M89,52.07l-.81,1.61c-.58-.84-1-1.89-.3-2.63C88.24,50.63,88.73,51.53,89,52.07Z"/><path class="cls-23" d="M87.21,74.46a7.89,7.89,0,0,1,4,.56A6.45,6.45,0,0,1,87.21,74.46Z"/><path class="cls-218" d="M94,42.47l-.77-.64,2.17-.71.78.71Z"/><path class="cls-231" d="M88.42,54.91H89c.06.48.12,1,.17,1.44a1.92,1.92,0,0,1-2.24.29C88.07,56.61,88.51,56,88.42,54.91Z"/><path class="cls-232" d="M75.34,56.46c0,.21,0,.43-.08.65-1.25.07-2.36-.1-2.85-1.49H73C73.48,56.79,74.51,56.35,75.34,56.46Z"/><path class="cls-114" d="M65.91,29.07c-.86.35-1.73.7-1.41-.87Z"/><path class="cls-239" d="M72.52,70.34l-.76-1.68c.22-.51.64-1.41,1-1C73.61,68.43,73.14,69.48,72.52,70.34Z"/><path class="cls-172" d="M153.87,58c0,.12,0,.24,0,.36-.15.53-.45.63-.89.32-1.29.09-1.59-.69-1.59-1.77,0-2.2,0-4.41,0-7.34A12,12,0,0,1,154,54.1a1.1,1.1,0,0,1,.21.82A7.53,7.53,0,0,0,153.87,58Z"/><path class="cls-240" d="M144.57,74.35v-.81c-.33-.89.86-1.72.11-2.63.5-1.76,1.83-3,2.89-4.42C149.24,71.79,148.58,73.48,144.57,74.35Z"/><path class="cls-241" d="M152.51,44c-1.48-1.72-1.55-2.22-.9-7.54,1.48,2,3.29,3.21,3.86,5.44-.07.14-.14.29-.2.44-.56.58-1.47.53-2.05,1.07Z"/><path class="cls-102" d="M139.52,39.85l-.68-1.42,3.25-2.2c1.17,1.82-3.1,4.68,1.26,5.54-.39,1.8-2.09.88-3.06,1.48l-1.76-.48A2.57,2.57,0,0,0,139.52,39.85Z"/><path class="cls-242" d="M165.5,74.4c0,.19,0,.38,0,.57-4.15.27-8.3.54-12.25-1.23.28-.95.26-2.08,1.54-2.39,1.8-.15,2.14,2.19,3.81,2.26.46-.06.67-.56,1.12-.65h.71C161.68,75,163.75,74.18,165.5,74.4Z"/><path class="cls-234" d="M146,39.75c0-1.32.71-2.21,1.95-3.25.64,2.48,1.08,5.2-.07,6.93s-3.7.68-5.63,0a1.56,1.56,0,0,1,1.09-.76,2.49,2.49,0,0,0,1.57-.8c.56-.45,1.14-.89,1.13-1.72Z"/><path class="cls-243" d="M167.94,89.58l-1.74-.09c-.47,0-.62-.39-.93-.59-2.06-1.32-1.11-3.24-1.23-5.7A25.08,25.08,0,0,1,167.94,89.58Z"/><path class="cls-244" d="M159.76,89.53l-.71.07c-.48,0-.67-.48-1-.68-2.32-.93-1.33-3.3-2.2-4.91,2.32.92,3.28,3,4.56,4.83A1,1,0,0,1,159.76,89.53Z"/><path class="cls-245" d="M141,89.52l-.2-1.7c-.5-2.29,1.94-2.62,2.6-4.17a10.42,10.42,0,0,1-1.68,6.68Z"/><path class="cls-246" d="M129.75,68,128.06,68,127,67.81c.85-2,2.4-3.47,4.32-5C131.58,65,130.67,66.54,129.75,68Z"/><path class="cls-69" d="M163.37,41.41l0,.76a10.67,10.67,0,0,1-5.54,1.28,9.08,9.08,0,0,1-3.56.23c-1.35-1.63.46-1.33,1.08-1.77l.09,0,3.46-.16A9.67,9.67,0,0,0,163.37,41.41Z"/><path class="cls-67" d="M172,67.2a2.93,2.93,0,0,0-1.48,1.63,12.14,12.14,0,0,1-2.54-6.46C170,64,171.46,65.14,172,67.2Z"/><path class="cls-145" d="M159.74,73l-1.12.65c.7-2.13-1.94-3.81-.62-6.39l3.48,5C160.74,72.08,160.07,72.13,159.74,73Z"/><path class="cls-73" d="M158,88.92l1,.68c.38,1.62,0,2.93-1.8,3.19-2,.27-2.17-1.36-2.52-2.74l2.38,1.59Z"/><path class="cls-102" d="M141.24,73.63l-3-1.39c.79-1.55,1.5-3.16,3.11-4.17C142.85,70.12,140,71.81,141.24,73.63Z"/><path class="cls-98" d="M154.81,71.35c.42,1.41.4,2.52-1.54,2.39l-.3,0-.27-.13c-1-.8-.52-1.93-.5-2.88.07-2.59,1.3-1.35,2.33-.61Z"/><path class="cls-247" d="M173.66,87.27c-1.12.77.16,2.43-1.16,3.13l-.31-.07c-.22-1.94-1.43-3.69-1.14-6C172.36,85.07,173.59,85.61,173.66,87.27Z"/><path class="cls-147" d="M154.53,70.15c-3.34-.27-1.43,2.22-1.83,3.49-2.36-2-.78-4.42-1-7.27A9.17,9.17,0,0,1,154.53,70.15Z"/><path class="cls-248" d="M182.19,81.92c-.23,2.79-3.8,1.16-4.47,3.37a3.2,3.2,0,0,1-2.15-1.42c.27-2.07,1.62-.94,2.6-.87,1.91.29,2.93-.91,3.86-2.27A.75.75,0,0,1,182.19,81.92Z"/><path class="cls-249" d="M135.77,70.76l-.61-.67c-.22-.73-.45-1.45-.68-2.18.37-.8.55-1.76,1.75-2.15C136.82,67.54,136.13,69.14,135.77,70.76Z"/><path class="cls-250" d="M144.68,70.91c.7.1,1.82-.77,2,.59s-1.28,1.46-2.09,2L143.94,72Z"/><path class="cls-251" d="M159.76,89.53l.63-.69c1.21,1.2,2.58,2.28,2.9,4.1C161.41,92.53,160.75,90.85,159.76,89.53Z"/><path class="cls-147" d="M148,88.86l-2.2-.89A4.74,4.74,0,0,1,148,85Z"/><path class="cls-252" d="M165.27,88.9l.93.59c.18,1.61.73,3.4-1.8,3.7C165.39,91.9,164.55,90.24,165.27,88.9Z"/><path class="cls-253" d="M180.68,76.6a.55.55,0,0,1,.1.37c.22.54.45,1.07.68,1.61s-.45.51-.74.71c-.85-.43-2.39-.22-2.31-1.51C178.47,76.86,179.93,77.06,180.68,76.6Z"/><path class="cls-254" d="M154.78,27.46l-.91.06a17.68,17.68,0,0,0-1.24,1.36l-.76.06c-.28-1.48-1.39-3.07.55-4.27Z"/><path class="cls-255" d="M178.71,88.2c-1.88,2-3.31,1.1-4.6-.72l3.76.66A.5.5,0,0,1,178.71,88.2Z"/><path class="cls-256" d="M152.42,24.67c-.87,1.33-.52,2.83-.55,4.27,0,.24-.05.49-.07.73-1.33-1.64-.75-3.55-.53-5.3C151.36,23.57,152.11,24.16,152.42,24.67Z"/><path class="cls-257" d="M172.19,90.33l.32.07c-1,1.85-2,2.84-3.61.53Z"/><path class="cls-249" d="M159.71,37.79l-1.43,1.27a3.57,3.57,0,0,1-1.18-2.65C158.36,36.26,158.91,37.26,159.71,37.79Z"/><path class="cls-247" d="M140.38,23.13l-.92-.73c.34-2.29,2.06-2.15,3.72-2.13C142.52,21.49,139.05,20,140.38,23.13Z"/><path class="cls-258" d="M153,58.65l.89-.32h4.44l1.55.29A10.67,10.67,0,0,1,153,58.65Z"/><path class="cls-79" d="M139.87,58.58l7.18,0A11.17,11.17,0,0,1,139.87,58.58Z"/><path class="cls-168" d="M180.72,79.29l.74-.71c2.46.62,2,1.88.74,3.34-.06-.4-.12-.79-.17-1.19C182,79.92,181.36,79.58,180.72,79.29Z"/><path class="cls-151" d="M145.3,42.77l-1.52.44a1.28,1.28,0,0,1,0-1.63c.59-.8,1.13-1.66,2.23-1.83v0C147.41,41.18,145.82,41.84,145.3,42.77Z"/><path class="cls-259" d="M178.71,88.2l-.84-.06c.79-1,.14-1.94-.16-2.89C179.56,85.72,180.62,86.45,178.71,88.2Z"/><path class="cls-201" d="M143.79,41.58c0,.54,0,1.09,0,1.63l-1.51.24-2-.2,3.06-1.48A.8.8,0,0,1,143.79,41.58Z"/><path d="M131.42,48.39l-1.94-1.25c.87-.21,1.71-1.34,2.58-.55C132.63,47.12,131.74,47.81,131.42,48.39Z"/><path class="cls-260" d="M132.52,33.19l.73-.79c.84,0,2.07-.46,2.33.56.2.81-.93,1.12-1.73,1.26Z"/><path class="cls-261" d="M132.35,30.46l2.79-1.33c.37.34,1.61.65.24,1.14A10.46,10.46,0,0,1,132.35,30.46Z"/><path class="cls-262" d="M153.87,43.34l4,.11a10.38,10.38,0,0,1-5.35.53l.2-.72A.73.73,0,0,1,153.87,43.34Z"/><path class="cls-263" d="M156.8,19.47,159.75,21C159.08,19.84,156.42,22.67,156.8,19.47Z"/><path class="cls-264" d="M116.49,70.72l.72.11c0,1.43-.07,2.86-.1,4.29A8.11,8.11,0,0,1,116.49,70.72Z"/><path class="cls-225" d="M130.51,74.48l1.8-.22,3,.22q.41.24.24.39a.41.41,0,0,1-.31.14A9.23,9.23,0,0,1,130.51,74.48Z"/><path class="cls-265" d="M124.31,83.61,121.84,83a9.3,9.3,0,0,1,2.34-.45C125.57,82.59,125,83.14,124.31,83.61Z"/><path class="cls-266" d="M178.17,83l-2.6.87c-.45-.42-1.41-1-.12-1.32C176.27,82.35,177.26,82.83,178.17,83Z"/><path d="M135.22,75a4.81,4.81,0,0,1,.07-.53l4.33-.08c.43.28.4.48-.1.62Z"/><path class="cls-72" d="M134.5,41.85l.73-.74a2.23,2.23,0,0,1,2.12,1.46Z"/><path class="cls-102" d="M139.52,75c0-.21.06-.41.1-.62l3.92.06A6.49,6.49,0,0,1,139.52,75Z"/><path class="cls-121" d="M153.94,54.75a4.81,4.81,0,0,1,.08-.65l1.43,2.17c.47.3.46.57,0,.82h0C153.64,57.12,153.13,56.35,153.94,54.75Z"/><path class="cls-258" d="M155.41,57.09c0-.28,0-.55,0-.82.86.22,1.74.5,2.22-.64l.59,0C157.72,57,156.62,57.13,155.41,57.09Z"/><path class="cls-267" d="M210.24,28.8l0-.54a2.42,2.42,0,0,0,2-1c2.49.45,2.94-2.35,4.74-3.06C218.19,30.48,217.42,31,210.24,28.8Z"/><path class="cls-248" d="M204.5,93.48c-2.35-.28-1.44-3-2.9-3.92a1,1,0,0,1-.64-.7L204,83.78c1.14,1.56.64,2.85.27,4.12-.45,1.55-1.12,3.11.18,4.6A.72.72,0,0,1,204.5,93.48Z"/><path class="cls-159" d="M211.16,91.66l-1.5,0c0-.84,0-1.68-.07-2.52-.46-.15-.53-.47-.38-.88.06-1.88,1.71-2.66,2.74-4.29C213.43,87,210.36,89.14,211.16,91.66Z"/><path class="cls-59" d="M213.86,74.31V73.08c.15-1,1.06-1.76,1-2.86-.05-.28-.11-.57-.16-.85l2-3.09C218.2,72,217.68,73.33,213.86,74.31Z"/><path class="cls-261" d="M225.49,72.92h-1.63a1.16,1.16,0,0,0-1.44-.39c-.47.26-.89.61-1.34.9-1.25-2-.63-4.3-.5-6.44.06-.89.77-.24,1.06.26a1,1,0,0,0,.9,1.35C223.72,69.9,225.1,71.08,225.49,72.92Z"/><path class="cls-268" d="M221.78,44c-1.86.23-1.38-1.17-1.42-2.12-.06-1.72,0-3.45,0-5.77,1.61,1.4,2.45,2.44,2.79,3.84-.5.92,0,2-.4,2.92A3.7,3.7,0,0,1,221.78,44Z"/><path class="cls-269" d="M216.69,50.29c1.31,2.72,1,5.45,0,8.17,0,.11-.43.08-.65.12-1.6-.81-.59-2.56-1.34-3.68-.1-.54-.19-1.08.33-1.48C216.45,52.84,216.21,51.37,216.69,50.29Z"/><path class="cls-10" d="M211.28,43.41l-2.46-.19a.92.92,0,0,1-.09-1.36v.06c.25-.38.37-.9.94-1,1.4-.27,2.76,1.76,4.19.08,1,.46,2.45.59,2.2,2.3A7.19,7.19,0,0,1,211.28,43.41Z"/><path class="cls-270" d="M211.28,43.41c1.61-.06,3.26.1,4.76-.72l-.11-.45c-.65-1.56.17-3.09.09-4.64.39-.49.91-2,1.34-.26s.09,3.55.08,5.34c0,1.38-1,1.45-2,1.4C214,44,212.58,44.22,211.28,43.41Z"/><path class="cls-25" d="M229.83,39l-1.67,2.2a.54.54,0,0,1-.8-.09c.74-2-1.35-3-1.67-5A5.88,5.88,0,0,1,229.83,39Z"/><path class="cls-92" d="M221.6,57.08l-.52,1.43c-1.5-2.77-.4-5.68-.68-8.64,1.1.12,1.24.78,1.34,1.46-.35,1.32.69,2.32.83,3.54C222.78,55.84,222.75,56.71,221.6,57.08Z"/><path class="cls-90" d="M191.26,85.12c-.82-1.87-3.17-.55-4.18-2-.25-.71,0-.9.71-.75,1.91,1.32,3.94-.27,6.07.32A3.76,3.76,0,0,1,191.26,85.12Z"/><path class="cls-271" d="M227.36,41.11l.8.09L229,42a.68.68,0,0,1,0,1.16l-2.57.3c-1,.21-2,.64-2.73-.53a1,1,0,0,1,.92-1.32Z"/><path class="cls-261" d="M209.67,41l-.94,1c-.23-.71-.46-1.41-.68-2.12l.66-1.85a3.83,3.83,0,0,1,2.42-1.31C212.09,38.68,209.47,39.33,209.67,41Z"/><path class="cls-272" d="M244.88,62.28c0,.68,0,1.36,0,2l-.66.71c-1.39-1-1.78-2.63-2.76-4C243.05,60.43,243.81,61.78,244.88,62.28Z"/><path class="cls-218" d="M201,88.86l.64.7c-1.28,1.85-2.52,3.8-5.11,1.7a.62.62,0,0,1,.06-1C198.64,91.74,199.74,90.1,201,88.86Z"/><path class="cls-273" d="M214.7,54.9c2.58.45.91,2.45,1.34,3.68l0,0a1.17,1.17,0,0,1-1.7-.1c-.22-.45-.44-.91-.65-1.37,0-.27,0-.53.07-.79Z"/><path class="cls-20" d="M234,70l-1.27,0c-.26-1.31-.81-2.63.07-4.13a5.37,5.37,0,0,1,1.91,2.79C234.51,69.17,234.27,69.6,234,70Z"/><path class="cls-274" d="M187.79,82.35l-.71.75c-.38-1.44-3.91-3,.2-4.26A4.3,4.3,0,0,0,187.79,82.35Z"/><path class="cls-275" d="M224.61,41.64l-.66,1a1.54,1.54,0,0,1-2.14.07c-.16-1.23-.19-2.39,1.32-2.83Z"/><path class="cls-47" d="M190.55,88.89c-1.88-1.47-2.54-2.79.43-3.69-.74,1.47-.92,2.71,1.21,3C192.11,89.63,191.29,89.14,190.55,88.89Z"/><path class="cls-227" d="M216,42.69A1.91,1.91,0,0,1,213.86,41l.83-1.2c3.1-.37,1.31,1.67,1.38,2.79Z"/><path class="cls-10" d="M216.07,42.63c0-1.16.06-2.34-1.38-2.79A3.25,3.25,0,0,1,216,37.6,5,5,0,0,1,216.07,42.63Z"/><path class="cls-276" d="M196,88.17c-.67-.66-1.32,0-2,0a.73.73,0,0,1-1.12-.11l2.94-2.17c.95,0,1,.87,1.37,1.47l-.61,1.48A.89.89,0,0,1,196,88.17Z"/><path class="cls-277" d="M214.38,58.44l1.7.1a11.32,11.32,0,0,1-7.51.08Z"/><path class="cls-258" d="M221.81,42.76l2.14-.07,2.47.8a8.28,8.28,0,0,1-4.64.49Z"/><path class="cls-260" d="M185.15,75.06l.64-.8c.2,1.82,3,1.76,2.79,3.88C187.41,77.14,185.6,76.86,185.15,75.06Z"/><path class="cls-278" d="M214.67,69.37l.77.12c.27,1.8-.25,2.93-2.32,2.78a5.48,5.48,0,0,1-.7,0A7.77,7.77,0,0,1,214.67,69.37Z"/><path class="cls-279" d="M209.21,88.3c.13.29.25.59.38.88-.87.77-1.53,1.83-2.84,2A3.57,3.57,0,0,1,209.21,88.3Z"/><path class="cls-145" d="M222.1,58.56h6.61A9.19,9.19,0,0,1,222.1,58.56Z"/><path class="cls-10" d="M224.53,56.39l-.59.68c-2-.07-1.54-1.66-1.78-2.83a1,1,0,0,1,.46-1Z"/><path class="cls-280" d="M204.5,93.48l0-1,2.14-.91C206.43,92.81,206.22,94,204.5,93.48Z"/><path class="cls-150" d="M196,88.17l.61.69c0,.47,0,.94,0,1.4l-.06,1C194.61,90.53,195.44,89.32,196,88.17Z"/><path class="cls-145" d="M221.08,73.42l.55-2.63a3.55,3.55,0,0,1,1.62,2.3v1.2Z"/><path class="cls-281" d="M208.73,41.86l.09,1.36-3.63-.66c0-.23.08-.47.11-.7Z"/><path class="cls-282" d="M216.69,50.29c0,1.33-.16,2.59-1.66,3.13A6.8,6.8,0,0,1,216.69,50.29Z"/><path class="cls-62" d="M222.62,53.29l-.18,1.22c-.29.18-.5.12-.63-.19a2.94,2.94,0,0,1-.07-3C222,52,222.33,52.63,222.62,53.29Z"/><path class="cls-283" d="M229,43.19c0-.39,0-.77,0-1.16l2.09-.18.78.71Z"/><path class="cls-1" d="M252,71.6c0,.92.09,1.84.13,2.76l-.2.1a1.51,1.51,0,0,1-.17-.1l.06-2.28A2,2,0,0,1,252,71.6Z"/><path class="cls-153" d="M192.86,88.08l1.12.11c-1,.82-2,1.93-3.43.7l1.64-.66A1.29,1.29,0,0,1,192.86,88.08Z"/><path class="cls-284" d="M222.54,68.59c-1.54.38-1.23-.48-.9-1.35Z"/><path class="cls-65" d="M197.17,87.38l-1.37-1.47.66-.76c1.39-.06,1.23.74.89,1.62A.94.94,0,0,1,197.17,87.38Z"/><path class="cls-285" d="M197.35,86.77l-.89-1.62c.25-.54.85-1.22,1.22-.83C198.39,85.07,197.85,86,197.35,86.77Z"/><path class="cls-286" d="M241.17,85.26l-.7,1.65c-.32-.82-1.11-1.68-.17-2.48C240.59,84.19,241.11,84.72,241.17,85.26Z"/><path d="M216.77,176.21c-3.79-.79-7.63-.36-11.44-.33-11.13.08-22.25-.41-33.37.26l-.58-.37a53.86,53.86,0,0,1,0-24.39l.56-.4,44.87-.13A230.69,230.69,0,0,1,216.77,176.21Z"/><path d="M127.2,125.57c15,.43,29.89.39,44.84,0,.18,8.47.43,16.93-.13,25.39l.14-.13c-1.12,1.52-2.75,1.78-4.47,1.79q-17.91.15-35.82,0a5.76,5.76,0,0,1-4-1.1c-.14-.19-.28-.39-.41-.59Q127.27,138.26,127.2,125.57Z"/><path d="M82.47,176.24q0-12.69,0-25.38l44.83.09-.1-.09a4.34,4.34,0,0,1,1.72,3.37c.21,6.3.23,12.6,0,18.9a4.15,4.15,0,0,1-1,2.61l-.6.39C112.36,175.73,97.41,175.52,82.47,176.24Z"/><path d="M172,225.94c.48,8.2.28,16.4.1,24.61H127.22q0-12.3.1-24.59l.36-.6c1.5-1.31,3.35-1.14,5.12-1.15q16.83-.09,33.67,0c1.76,0,3.61-.16,5.11,1.14Z"/><path d="M82.47,226V200.64l44.82.11.6.38a4.2,4.2,0,0,1,1,2.6q.35,9.47,0,18.92A4.43,4.43,0,0,1,127.2,226l.12-.08C112.37,225.72,97.42,225.56,82.47,226Z"/><path d="M172,176.14a243.19,243.19,0,0,1,0,24.6l-.4.6a5.73,5.73,0,0,1-4,1.1q-17.73.15-35.46,0c-1.82,0-3.6-.17-4.82-1.81l.08.11q0-12.31,0-24.62l-.09.11c1.21-1.65,3-1.81,4.82-1.82q17.58-.13,35.17,0c1.82,0,3.62.14,4.83,1.8Z"/><path d="M216.78,200.65a230.51,230.51,0,0,1,0,25.35c-14.94-.41-29.88-.29-44.82-.06l.09.07c-1.48-1.14-1.74-2.75-1.77-4.47q-.14-8.21,0-16.43c0-1.71.29-3.33,1.77-4.46l-.1.09Z"/><path class="cls-287" d="M221.81,54.32a2.29,2.29,0,0,1,.63.19l1.5,2.56c-.78.9-1.56.63-2.34,0Z"/><path class="cls-288" d="M147.14,56.23c-.15.74-.39,1.44-1.33,1.3a.88.88,0,0,1-.47-.74,1.76,1.76,0,0,1,1.21-1.61C147.19,55.07,147.14,55.76,147.14,56.23Z"/><path class="cls-288" d="M213.12,72.27a4.77,4.77,0,0,0,2.32-2.78c1,1.87.78,3.21-1.59,3.59Z"/><path class="cls-289" d="M223.25,73.09a2.46,2.46,0,0,1-1.62-2.3c1.76-.38,2,.92,2.23,2.12C223.66,73,223.45,73,223.25,73.09Z"/><path class="cls-289" d="M83.86,54.85c.79,1,1.65,1.51,1.26,2.59,0,.12-.45.2-.63.14C83.31,57.14,83.36,56.27,83.86,54.85Z"/><path class="cls-290" d="M147.18,28.24l-.72.4a2.53,2.53,0,0,1-.29-.76c0-.13.3-.34.49-.38C147.1,27.42,147.21,27.73,147.18,28.24Z"/><path class="cls-291" d="M221.84,27.13c.39.37.76.56.79.79s-.31.48-.54.65c0,0-.46-.23-.48-.38A3.9,3.9,0,0,1,221.84,27.13Z"/><path class="cls-99" d="M152.63,28.88c-.16-1-.1-1.75,1.24-1.36A1.35,1.35,0,0,1,152.63,28.88Z"/><path class="cls-115" d="M76.85,27.51c1.36-.4,1.36.42,1.22,1.36C77.16,28.87,76.37,28.76,76.85,27.51Z"/><path class="cls-258" d="M153.94,54.75a3.54,3.54,0,0,0,1.48,2.33l-1.55.89a2.39,2.39,0,0,1-1.3-2.92C152.77,54.15,153.42,54.55,153.94,54.75Z"/><path class="cls-227" d="M84.65,27.92l-.34.67a4.12,4.12,0,0,1-.76-.53c-.06,0,.15-.36.24-.56Z"/><path class="cls-292" d="M75.38,42.61a3.71,3.71,0,0,1,.06-.67l2.76-2.21c0,1,0,2,0,3Z"/><path class="cls-293" d="M84,43.3l-.36,0h-.36c0-1.43-.25-2.89.59-4.19L84,40.31A2.49,2.49,0,0,1,84,43.3Z"/><path class="cls-294" d="M84,43.3c0-1,0-2,0-3l2,1.62c-.19.29-.38.58-.56.87Z"/><path class="cls-295" d="M153.87,43.34l-1.16-.08c-.16-.91-.72-2.09.29-2.6s1.55.85,2.38,1.25Z"/><path class="cls-296" d="M145.3,42.77c-.56-1.19.84-1.9.72-3C148,41.33,147.36,42.22,145.3,42.77Z"/><path class="cls-2" d="M172,176.21c-3.43-.77-6.91-.31-10.37-.34-10.06-.07-20.13,0-30.2,0-1.42,0-2.88-.25-4.25.38V150.86h44.84Q172,163.54,172,176.21Z"/><path class="cls-2" d="M172,200.65V226c-14.95-.37-29.89-.41-44.84,0q0-12.69,0-25.39Z"/></svg>