<svg id="Layer_1" data-name="Layer 1" xmlns="http://www.w3.org/2000/svg" viewBox="0 0 300 300"><defs><style>.cls-1{fill:#008166;}.cls-2{fill:#a7a8ac;}</style></defs><path d="M22.45-.61H277.55a1,1,0,0,1,1,1V174.06A125.93,125.93,0,0,1,152.61,300H150A128.49,128.49,0,0,1,21.46,171.5V.38a1,1,0,0,1,1-1Z"/><path class="cls-1" d="M273.42,4.61a3.65,3.65,0,0,1,.44,2.49c0,55.22.2,110.45-.1,165.67-.16,30-9.37,57.1-29.33,79.91-19.67,22.48-44.59,36.11-73.75,42.08-24.91,5.1-48.58.6-71.38-9.71a128.72,128.72,0,0,1-41.39-29.64c-1.45-1.55-1.57-2.43-.12-4.08q34.05-38.81,68-77.73l89.07-102,56.73-65C272.1,6,272.7,5.37,273.42,4.61Z"/><path class="cls-2" d="M272.49,1.91,244.05,34.48,91.38,209.36c-11.73,13.45-23.49,26.86-35.17,40.36-1.39,1.61-2.05,1.49-3.31-.08a120.09,120.09,0,0,1-25.22-58.37,159.49,159.49,0,0,1-1.56-24q0-81.19-.05-162.4c0-2.48.62-3,3-3q120.15.1,240.29.06Z"/><path d="M92.6,242.39c.05-4.35.82-7.68,3.2-10.45,4.31-5,11.25-4.52,14.84,1,.46.71.87,1.45,1.38,2.13,2,2.71,4,2.6,5.68-.24.85-1.41.73-2.63-.72-3.46a33.82,33.82,0,0,0-3.66-1.7A9.05,9.05,0,0,1,109.73,215c3.62-4.3,11.5-6.36,16.74-4.38a9.1,9.1,0,0,1,3.87,14.71c-.54.65-1.11,1.28-1.59,2-1.83,2.67-1.3,4.07,1.72,5.08,2,.68,3.13,0,3.51-2a31.86,31.86,0,0,0,.37-3.77,9,9,0,0,1,12.21-8c6.34,2.13,11.22,10.73,9.59,16.88a8.89,8.89,0,0,1-12.06,6.27c-1-.35-1.86-.81-2.84-1.07-1.2-.32-2.62-.81-3.51.44a4.38,4.38,0,0,0-.38,4.36c.65,1.55,2.09,1.15,3.31,1.07a13.1,13.1,0,0,0,2.47-.53c7.1-1.84,12.79,3.1,11.9,10.35-.66,5.4-5.86,11.29-11.17,12.64a9,9,0,0,1-11.55-9.4,25.74,25.74,0,0,0,.16-3c-.1-1.23,0-2.72-1.63-3.11a4.41,4.41,0,0,0-4.23,1.13c-1.11,1.08-.41,2.38.13,3.52a17.65,17.65,0,0,0,1.17,2c4.14,6.47.88,13.89-6.74,14.67a15.3,15.3,0,0,1-14.45-6.26c-4.13-5.53-1.49-12.6,5.15-14.39a18.46,18.46,0,0,0,2.45-.67c1.22-.49,2.77-.8,2.74-2.54a4.18,4.18,0,0,0-2.3-3.71c-1.49-.79-2.54.34-3.5,1.31-.53.54-1,1.15-1.47,1.74-4.65,5.74-12.48,4.87-15.8-1.76A12.79,12.79,0,0,1,92.6,242.39Z"/><path d="M185.19,197.45a13.46,13.46,0,0,0,0-1.41c-.11-1.23.1-2.73-1.44-3.21a4.29,4.29,0,0,0-4.28.93c-1.24,1.15-.51,2.51.09,3.73.37.75.87,1.44,1.32,2.16,3.89,6.18.45,13.61-6.81,14.35a15.9,15.9,0,0,1-13.74-5.16c-5.28-5.65-2.8-13.69,4.67-15.58a18.2,18.2,0,0,0,2.19-.61c1.24-.5,2.75-.88,2.64-2.63a4.32,4.32,0,0,0-2.38-3.67c-1.39-.69-2.4.35-3.3,1.25-.71.72-1.31,1.55-2,2.32a9,9,0,0,1-14.27-.32c-3.84-5-3.34-14.36,1-18.87A9,9,0,0,1,163.29,172c.66,1,1.27,2,2,2.91s1.5,1.83,2.76,1.27a4.64,4.64,0,0,0,2.81-3.38c.28-1.31-.67-2-1.66-2.56s-2.15-1-3.24-1.42a9,9,0,0,1-3.62-14.46c3.64-4.5,11.76-6.55,17.15-4.34a9,9,0,0,1,3.68,14.41c-.59.72-1.22,1.42-1.74,2.18-1.79,2.65-1.23,4.08,1.83,5.05,1.85.59,2.89,0,3.43-1.85a17.18,17.18,0,0,0,.39-3.77,9,9,0,0,1,11.78-8.33c6.47,1.88,11.61,10.5,10.05,16.83A8.9,8.9,0,0,1,196.76,181c-.95-.35-1.88-.76-2.84-1.06-1.23-.39-2.6-.81-3.47.5a4.31,4.31,0,0,0-.33,4.37c.69,1.41,2,1.26,3.33,1,.92-.16,1.82-.39,2.72-.62,6.5-1.65,11.93,2.73,11.69,9.44-.22,5.9-6,12.76-11.75,13.77C189.31,209.61,184.08,204.35,185.19,197.45Z"/><path d="M237.93,136.82c0-.24,0-.92,0-1.59-.07-1.26.05-2.73-1.46-3.21a4.23,4.23,0,0,0-4.26,1c-1.23,1.15-.5,2.52.11,3.73.41.82,1,1.58,1.45,2.37,3.62,5.91.37,13.11-6.48,14a15.68,15.68,0,0,1-14.39-5.29c-5-5.57-2.56-13.42,4.64-15.33.81-.21,1.65-.37,2.44-.66,2.95-1.06,3.4-2.68,1.51-5.17-1.14-1.5-2.41-1.8-3.86-.51a13,13,0,0,0-1.91,2c-2.46,3.43-5.74,5-9.89,4s-6.42-4-7.28-8c-.93-4.33-.65-8.6,1.75-12.48,3.93-6.37,12-6.38,16-.07.41.64.79,1.3,1.25,1.91,2,2.72,3.92,2.58,5.63-.36.84-1.44.62-2.63-.78-3.46a25.45,25.45,0,0,0-3.43-1.6c-6.68-2.72-8.31-10.53-3-15.45A15.53,15.53,0,0,1,231,88.86c7,1.8,9.29,9.39,4.74,15-.53.66-1.11,1.29-1.57,2-.76,1.13-1.68,2.39-.58,3.68a4.33,4.33,0,0,0,4.12,1.5c1.57-.28,1.65-1.77,1.92-3a16.25,16.25,0,0,0,.17-2.52c.31-6.19,5.35-10.07,11.32-8.69,6.61,1.53,12.12,10.43,10.52,17a8.9,8.9,0,0,1-12,6.46c-1-.37-2.05-.81-3.09-1.13-1.23-.38-2.61-.82-3.45.54a4.29,4.29,0,0,0-.31,4.36c.8,1.52,2.26,1.24,3.6,1,1-.19,2-.52,2.95-.73a9,9,0,0,1,11.21,9.34c-.14,5.69-5.54,12.52-11.07,13.81C242.14,149.19,236.92,143.68,237.93,136.82Z"/><path d="M158.08,69.15A124.28,124.28,0,0,0,155.48,85a156.56,156.56,0,0,0-.33,18,58.46,58.46,0,0,1-4.59,25c-3.32,7.5-8.19,13.41-16.69,15.28-11.41,2.51-21-3.3-24.14-14.58-.33-1.18-.37-2.25-2.24-2.37C88.71,125,84.94,104.77,92,94.54c4.06-5.85,9.7-9.53,16-12.39,6.92-3.13,14.27-4.54,21.76-5.48a103.2,103.2,0,0,0,26.84-7.09A14.9,14.9,0,0,1,158.08,69.15Z"/><path d="M211.92,5.9c-3.52,12.8-3.3,25.38-3.1,38a39.29,39.29,0,0,1-.5,5.81c-1,7.43-2.88,14.59-7.17,20.87-5.49,8.06-13.11,11.4-22.77,9.63-8.38-1.54-12.91-7.1-15.06-14.94-.33-1.2-.56-1.82-2-2-8-.71-14.28-4.18-17.26-12-3.16-8.24-2.06-16,3.92-22.67,5.46-6.13,12.62-9.45,20.25-12,5.57-1.83,11.37-2.42,17.13-3.27A108.4,108.4,0,0,0,211.92,5.9Z"/><path d="M104.43,132.07a133.2,133.2,0,0,0-2.82,18.13c-.7,7.44.27,14.89-.33,22.31-.64,7.91-2.35,15.54-6.43,22.45C89,204.93,79,209,68.74,205.76c-6.91-2.19-10.8-7.23-12.65-14-.38-1.38-.69-2.3-2.5-2.45-7.84-.66-13.9-4.18-16.85-11.78-3.16-8.14-2.22-15.81,3.63-22.51,6.14-7,14.35-10.47,23.06-13,6.37-1.84,13-2,19.46-3.38A117,117,0,0,0,104.43,132.07Z"/><path class="cls-2" d="M94.65,242.5c0-3.72.61-6.51,2.45-8.89,3.32-4.27,9-4,11.87.56.45.71.88,1.44,1.38,2.12,1.3,1.73,2.77,3.42,5.22,2.78,2.6-.68,4-2.68,4.71-5.18.47-1.69-.44-2.94-1.67-3.95a16.15,16.15,0,0,0-4.52-2.23c-4.8-1.91-6.13-7.19-2.87-11.22,3-3.75,10.15-5.62,14.62-3.85,4.89,1.94,6.26,7.3,2.9,11.38-.48.58-1,1.15-1.44,1.76-1.28,1.75-2.45,3.65-1.34,5.84s3.3,2.83,5.51,3.14c2,.28,3.39-.79,4.18-2.61a14.49,14.49,0,0,0,.77-5c.37-5.77,5.65-8.8,10.72-6a13.66,13.66,0,0,1,7.28,11.5c.39,5.57-4.72,9.09-9.9,7.05a13.94,13.94,0,0,0-5.1-1.39q-4.28,0-4.5,5.26c-.12,3.12,1.25,4.9,4,5.15a14.33,14.33,0,0,0,5-.7c5.45-1.43,9.83,2.45,9.12,8.06-.58,4.56-5.08,9.71-9.53,10.91a7,7,0,0,1-9.08-7.46,18,18,0,0,0,.21-2.52c-.14-2.12-.22-4.39-2.59-5.36s-4.66-.18-6.67,1.24c-1.64,1.16-1.64,2.93-1.1,4.59a13.36,13.36,0,0,0,1.86,3.57c1.74,2.5,2.31,5.09.81,7.84-1.59,2.91-4.3,4-7.44,3.93a14.85,14.85,0,0,1-9.68-3.89c-2.26-2.05-3.47-4.62-2.71-7.72s2.82-4.69,5.87-5.22a10.23,10.23,0,0,0,2-.53c1.92-.73,4-1.46,4.25-3.85.33-2.61-1-4.55-3-6.08a3.69,3.69,0,0,0-4.5,0,13.24,13.24,0,0,0-3.42,3.34c-3.93,4.9-10.27,3.93-12.69-1.92A11.35,11.35,0,0,1,94.65,242.5Z"/><path class="cls-2" d="M187.27,197.71a12.79,12.79,0,0,0,.08-1.54c-.14-2-.25-4.28-2.44-5.21-2.34-1-4.67-.35-6.71,1.08-1.74,1.23-1.78,3-1.18,4.79a18.62,18.62,0,0,0,2,3.79c3.27,5.15.44,11-5.66,11.38a14.06,14.06,0,0,1-11.43-4.46c-4.34-4.56-2.44-10.78,3.63-12.28a22.63,22.63,0,0,0,2.44-.69c4.32-1.58,5.18-4.54,2.43-8.29-2-2.68-4.38-3-6.93-.89a28.18,28.18,0,0,0-2.9,3.17,6.91,6.91,0,0,1-11.27-.52c-2.94-4.12-2.49-11.94.9-15.68a7,7,0,0,1,11.41.92,27.12,27.12,0,0,0,1.67,2.54c1.3,1.6,2.73,3.11,5.11,2.52,2.08-.52,4.48-3.42,4.68-5.56a4.09,4.09,0,0,0-1.84-3.68A16.13,16.13,0,0,0,167,167c-4.95-2-6.32-7.27-2.93-11.34,3.11-3.76,10.16-5.54,14.63-3.71a7,7,0,0,1,2.91,11.21c-.58.72-1.21,1.41-1.75,2.17-1.21,1.71-2.13,3.53-1.09,5.64.86,1.78,4.11,3.26,6.34,3a4,4,0,0,0,3.44-2.94,15.57,15.57,0,0,0,.65-4.75c.31-5.11,4.61-8,9.43-6.49,5.28,1.7,9.61,9.26,8.28,14.44a6.79,6.79,0,0,1-9.25,4.84,19,19,0,0,0-4.81-1.53c-3.27-.29-5.06,1.58-5.16,5.36-.09,3.34,1.68,5.3,4.83,5.13a23.78,23.78,0,0,0,4.21-.84c5.75-1.41,10.31,3.14,8.86,8.93a14.52,14.52,0,0,1-6.85,9.06c-2.7,1.64-5.59,2-8.4.22S186.76,201.05,187.27,197.71Z"/><path class="cls-2" d="M240,137a15.14,15.14,0,0,0,.07-1.61c-.1-2.06-.21-4.26-2.42-5.2s-4.65-.34-6.69,1.09c-1.63,1.14-1.73,2.79-1.27,4.54a15.2,15.2,0,0,0,2.22,4.24c3,4.72.49,10.37-5,11.06a13.8,13.8,0,0,1-12.36-4.54c-4.17-4.56-2.19-10.65,3.79-12.12.81-.2,1.65-.37,2.44-.65,4.22-1.51,5.15-4.45,2.59-8.09-2.09-3-4.55-3.32-7.26-1a26.16,26.16,0,0,0-2.56,2.8c-3.54,4.21-9.44,3.75-11.93-1.17a13.41,13.41,0,0,1,.78-14c3.08-4.73,9.08-4.48,12.12.29.5.78,1,1.59,1.55,2.32,1.35,1.72,3,3.33,5.34,2.45A6.72,6.72,0,0,0,225.8,112a3.78,3.78,0,0,0-1.77-3.69,16.56,16.56,0,0,0-4.3-2.12c-4.95-2-6.33-7.25-3-11.35,3-3.72,10.17-5.53,14.63-3.71,4.84,2,6.21,7.13,3,11.18-.58.73-1.22,1.4-1.76,2.16-1.25,1.79-2.22,3.68-1,5.86,1,1.84,4.46,3.19,6.69,2.76a4,4,0,0,0,3-2.83,15,15,0,0,0,.67-4.75,7,7,0,0,1,9.18-6.61c5,1.4,9.56,8.65,8.67,13.79-.83,4.84-5,7.23-9.65,5.51a25.22,25.22,0,0,0-4.57-1.44c-2.89-.49-4.71,1.25-5.1,4.59s1.09,5.62,4,5.88a13.58,13.58,0,0,0,4.73-.74c6.08-1.6,10.67,3,9,9.08a14.49,14.49,0,0,1-7,8.94,7.55,7.55,0,0,1-8.18.09C240.25,142.91,239.53,140.25,240,137Z"/><path class="cls-1" d="M111.62,121.08c-.41-5.89-.79-11.78-1.24-17.66-.07-.88.44-2.39-1.19-2.26-1.36.11-.88,1.44-.83,2.27.36,6.08.62,12.17,1.24,18.21.26,2.57-.7,2.89-2.75,2.59-6.33-.91-11.5-3.62-14.16-9.72-2.93-6.72-2.76-13.34,1.59-19.51,3.69-5.22,8.94-8.41,14.64-11a65.38,65.38,0,0,1,19.3-5,113.84,113.84,0,0,0,23.68-5.4c.94-.33,1.9-.59,3.1-1-.5,3.64-1,7-1.43,10.45a143.7,143.7,0,0,0-.49,20,55.92,55.92,0,0,1-4.54,24.23c-3,6.83-7.51,12.25-15.33,13.88-10.16,2.12-18.83-3.18-21.47-13-.51-1.91-.29-2.78,1.92-2.94,6.16-.42,12.3-1,18.44-1.59.83-.08,2.12.28,2.11-1.15,0-1.61-1.32-1-2.11-.88-5.13.42-10.26.91-15.4,1.36a5.34,5.34,0,0,1-3-.13c3.07-3.62,6.28-7,9-10.7a9.49,9.49,0,0,1,8.8-4.24,59.06,59.06,0,0,0,7.83-.58c.83-.09,2.13.17,2.06-1.24-.08-1.6-1.35-.85-2.14-.8-3.49.2-7,.48-11.23.78l8.14-9.6c1.31-1.55,2.67-3.06,3.92-4.66.52-.67,2-1.34.66-2.41s-1.73.57-2.29,1.2c-3.33,3.82-6.57,7.73-9.88,11.57-.58.68-1,1.57-2.23,1.91-.32-3.67-.61-7.25-1-10.82-.08-.73.25-2-1.11-1.85s-1,1.34-.92,2.17c.27,3.88.62,7.75.91,11.62a3.08,3.08,0,0,1-.38,2.44l-11.59,13.69Z"/><path class="cls-1" d="M167,60.2c2.4-2.84,4.41-5.18,6.39-7.56,6.26-7.51,6.26-7.5,16-8.07,1.43-.08,2.86-.24,4.29-.4.65-.07,1.44,0,1.38-1.05s-.93-1-1.67-1c-2.7.21-5.39.46-8.09.69a7,7,0,0,1-3.17-.06c1-2,2.68-3.48,4-5.13,2.58-3.13,5.26-6.18,7.87-9.29.42-.5,1.34-1,.43-1.88s-1.47,0-2,.58c-2,2.37-4.06,4.76-6.09,7.14l-6.16,7.18c-1-3.62-.65-7.09-1.22-10.43-.07-.41-.06-.84-.09-1.26,0-.72-.15-1.39-1.13-1.29s-.94.85-.89,1.51c.25,3.29.4,6.59.84,9.85a7.82,7.82,0,0,1-2.08,7.13c-3.47,3.64-6.59,7.61-10.3,12-.43-6.19-.75-11.72-1.25-17.23-.11-1.22.8-3.54-1.27-3.44s-.73,2.21-.68,3.31c.23,5.58.7,11.14,1,16.71.19,3.31,0,3.42-3.37,2.84-6.64-1.13-11.67-4.36-14-11C143.3,43,144.11,36.42,149,30.59c5.21-6.18,12.25-9.4,19.71-11.91,6.63-2.23,13.6-2.57,20.41-3.81a131.56,131.56,0,0,0,19.58-5.35c-.35,2.37-.64,4.43-.94,6.49a109.82,109.82,0,0,0-1,20.74c.39,9-.58,17.89-4,26.37a29.24,29.24,0,0,1-5.67,9.24c-7.57,8.1-20.71,8.39-27.57.62a20.41,20.41,0,0,1-4.16-8c-.53-1.84,0-2.53,2-2.67,6-.4,12-1,17.93-1.56.42,0,.84-.1,1.26-.17.77-.13,1.6-.25,1.36-1.36-.21-.93-1-.76-1.64-.7-3.78.35-7.57.72-11.36,1.06C172.52,59.76,170.12,59.94,167,60.2Z"/><path class="cls-1" d="M60.24,185.6q5.74-6.73,11.47-13.47a2.61,2.61,0,0,1,2.07-.74c3.87-.32,7.75-.62,11.62-1,.83-.08,2.16.31,2.14-1.1s-1.35-1-2.15-.92c-2.62.12-5.23.39-7.84.53a3.18,3.18,0,0,1-2.7-.45l3.86-4.59c2.68-3.16,5.37-6.31,8-9.47.48-.56,1.19-1.14.26-1.9s-1.37.06-1.84.61c-3.52,4.11-7,8.24-10.55,12.33-.52.6-.83,1.49-2.08,1.63-.24-3-.47-5.86-.71-8.77-.07-.84-.12-1.69-.24-2.52-.09-.68-.21-1.4-1.2-1.26s-.92.81-.86,1.53c.32,3.95.53,7.93,1,11.87a4.57,4.57,0,0,1-1.23,3.88c-3.61,4.11-7.13,8.32-11.21,13.1-.32-4.07-.6-7.44-.86-10.82-.2-2.61-.34-5.23-.55-7.84-.07-.76.27-1.94-1-1.92-1.51,0-1,1.32-1,2.12.38,6.07.74,12.15,1.32,18.2.22,2.22-.42,2.77-2.57,2.63-13.38-.9-20.87-16.47-13.46-28.21,3.71-5.89,9.39-9.36,15.59-12.09a61.59,61.59,0,0,1,18.06-4.81,117.86,117.86,0,0,0,25.64-5.85c1.46-.5,2.29-.61,1.91,1.39A126.37,126.37,0,0,0,99.35,166a55,55,0,0,1-4.21,23.78c-2.94,6.86-7.2,12.47-15,14.36C69.78,206.66,60.74,201.3,58,191.2c-.57-2.1,0-2.69,2-2.84,6.15-.5,12.29-1.08,18.43-1.66.84-.08,2.14.24,2-1.25-.14-1.28-1.31-.83-2.05-.77-4.71.38-9.42.84-14.14,1.27-1.24.11-2.48.16-3.73.24Z"/></svg>