<svg id="Layer_1" data-name="Layer 1" xmlns="http://www.w3.org/2000/svg" viewBox="0 0 300 300"><defs><style>.cls-1{fill:#009356;}.cls-2{fill:#dadada;}.cls-3{fill:#d7d7d7;}.cls-4{fill:#eeb210;}.cls-5{fill:#edb110;}.cls-6{fill:#ebb010;}.cls-7{fill:#ecb110;}.cls-8{fill:#eaaf10;}.cls-9{fill:#eab010;}.cls-10{fill:#e9ae10;}</style></defs><path d="M22.45-.61H277.55a1,1,0,0,1,1,1V174.06A125.93,125.93,0,0,1,152.61,300H150A128.49,128.49,0,0,1,21.46,171.5V.38a1,1,0,0,1,1-1Z"/><path class="cls-1" d="M125,215.66v72.51c0,3.78,0,3.91-3.82,2.85q-74-20.67-90.9-95.66a91.61,91.61,0,0,1-2-19.84c0-31.23.1-62.45,0-93.68,0-3,.83-3.85,3.86-3.84q44.61.15,89.2,0c2.83,0,3.69.65,3.68,3.58q-.17,46.38,0,92.78a5.13,5.13,0,0,1-2.13,4.52Q111,188.32,99.23,198c-1.61,1.33-2.64,1.7-4-.26a8.28,8.28,0,0,0-4-3c-2-.74-4-.84-5.65.55s-2.14,3.51-1.7,5.69c.6,3,2.63,5.07,4.45,7.3a4,4,0,0,1-1.75,6.42c-1.62.58-2.93,1.21-3.39,3-.2.75-.78.73-1.36.88s-1.74.39-1.83.78c-.78,3.14-5,3.1-5.65,6.3-.14.72-.78.81-1.39.9a3,3,0,0,0-2.63,2.5c-.25,1.08-.66,1.77-1.86,1.92-.45,0-1.2.47-1.21.74-.1,3.78-3.54,3.36-5.64,4.65a7.39,7.39,0,0,0-3.35,8c1,4.32,4.44,7.58,8.29,7.9a7.25,7.25,0,0,0,7.71-4.83c.47-1.17.87-1.94,2.29-1.42a1,1,0,0,0,.85-.13c1.9-1.77,4.45-2.54,6.46-4,2.81-2,5.27-4.5,8.56-5.83.09,0,.24,0,.27-.12,1.1-2.9,4.75-3.07,6.12-5.68,1-1.84,3.45-1.22,4.58-2.8.75.76,1.55,1.49,2.25,2.29,1.64,1.85,2.94,4,5.19,5.29s4.74,1.84,7,0,2.1-4.33,1.31-6.84a11.73,11.73,0,0,1-.43-1.12c-.37-1.7-3-2.66-2.12-4.46.76-1.46,2.64-2.33,4-3.46C121.86,218.13,123.1,217.15,125,215.66Z"/><path class="cls-1" d="M174.93,136.49V103c0-7.46,0-14.92,0-22.38,0-1.93.59-2.58,2.56-2.58q45.64.09,91.3,0c2,0,2.5.77,2.53,2.62.46,31.93.87,63.86.19,95.77-1.16,54.93-39.88,102.18-93.15,114.66-3.38.8-3.4.8-3.4-2.77q0-55-.05-110.1a5.76,5.76,0,0,1,2.4-5q36.45-29.4,72.82-58.89a6.86,6.86,0,0,0,2.65-4.71c.89-5.89,1.95-11.76,3.11-17.6.35-1.78-.05-2.29-1.81-2.3q-9.39-.1-18.78-.41a5.32,5.32,0,0,0-3.71,1.52q-26.52,21.53-53.08,43C177.5,134.58,176.47,135.32,174.93,136.49Z"/><path class="cls-2" d="M127.51,174.91V171q0-46.25.06-92.49c0-2.51-.63-3.11-3.09-3.06-8.15.18-16.31,0-24.46.14-2,0-2.58-.53-2.48-2.49a75,75,0,0,0,0-9.24c-.19-2.64.5-3.5,3.35-3.49,24,.13,47.93.08,71.9.08,8.95,0,17.9,0,26.86,0,1.86,0,2.63.37,2.52,2.42-.17,3.47-.15,7,0,10.44.08,1.84-.46,2.34-2.31,2.31-8.25-.11-16.51,0-24.76-.12-2.31,0-3,.54-3,2.92.11,19.19,0,38.39.11,57.58a5.35,5.35,0,0,1-2.27,4.73c-13.34,10.69-26.61,21.48-39.9,32.24C129.39,173.5,128.69,174,127.51,174.91Z"/><path class="cls-2" d="M208.16,47.43C203.89,36,199.83,25.37,196,14.65c-.81-2.24-1.84-2.94-4.24-2.93q-41.91.15-83.84,0c-2.26,0-3.22.67-4,2.81C100,25.32,95.9,36,91.64,47.38,89.25,41,87,35.21,84.92,29.35c-.72-2.06-1.67-2.87-4-2.84q-16.25.22-32.52,0c-2.17,0-3,.7-3.75,2.67-2.32,6.43-5,12.73-7.23,19.2-.89,2.64-2.1,3.51-4.84,3.34-4.35-.26-4.36-.07-4.36-4.38,0-13.33.07-26.65-.07-40,0-2.45.76-2.86,3-2.86q118.75.09,237.51,0c2.36,0,3.19.38,3.16,3-.15,13.82-.13,27.65,0,41.47,0,2.25-.55,2.82-2.77,2.75-5.33-.15-5.34,0-7.22-4.95-2.27-5.92-4.59-11.83-6.76-17.8-.61-1.69-1.31-2.47-3.31-2.45-11.14.12-22.28.09-33.41,0-1.76,0-2.62.48-3.22,2.18C213,34.78,210.64,40.79,208.16,47.43Z"/><path class="cls-2" d="M253.89,92.94c-1.06,6-2.07,11.77-3.09,17.53-.24,1.41-1.4,2.11-2.39,2.91l-88.75,71.89c-14.22,11.51-28.46,23-42.61,34.57-1.7,1.38-2.6,1.5-3.88-.38a45.47,45.47,0,0,0-4.69-5.77c-1.45-1.51-1.25-2.31.36-3.6,12.8-10.25,25.52-20.6,38.27-30.93l94.32-76.38a2.11,2.11,0,0,0,.23-.19c.65-.65,2.17-1.18,1.4-2.21-.87-1.19-1.72.27-2.39.79-5.44,4.34-10.83,8.74-16.24,13.12q-58.27,47.19-116.54,94.43c-1.59,1.3-2.47,1.46-3.69-.28a52.33,52.33,0,0,0-4.49-5.57c-1.36-1.47-1.08-2.25.43-3.46q27.3-22,54.49-44.07Q193.33,124,232,92.65a6.35,6.35,0,0,1,4.57-1.59c5.06.18,10.14.19,15.21.25C253.06,91.32,254.35,91.24,253.89,92.94Z"/><path class="cls-2" d="M172.19,177.36v3.17q0,54.45.05,108.89c0,2.28-.44,3.2-2.93,3.58a129.11,129.11,0,0,1-39.49-.14c-2-.31-2.35-1.12-2.34-2.91q.08-37.14,0-74.28a4.08,4.08,0,0,1,1.7-3.52C143.35,200.75,157.47,189.28,172.19,177.36Z"/><path class="cls-2" d="M62.22,75.56c-8.16,0-16.31,0-24.46,0-1.87,0-2.62-.35-2.51-2.4a95.27,95.27,0,0,0,0-10.14c-.11-2.07.47-2.66,2.6-2.65,15,.1,30,.06,45,.06,6.55,0,6.57,0,6.54,6.42,0,2.76.92,6.45-.48,8.06-1.62,1.87-5.4.53-8.24.58C74.55,75.63,68.38,75.56,62.22,75.56Z"/><path class="cls-2" d="M237.42,75.56c-8.15,0-16.3-.06-24.45,0-2,0-2.81-.34-2.69-2.54.19-3.57.11-7.16,0-10.73,0-1.43.42-1.89,1.86-1.89q25.34.06,50.68,0c1.57,0,1.76.67,1.74,2-.06,3.58-.13,7.16,0,10.73.08,1.93-.45,2.5-2.43,2.48C253.92,75.49,245.67,75.56,237.42,75.56Z"/><path class="cls-3" d="M150,54.6H268.4c.8,0,1.59,0,2.39,0,1.07,0,1,.75.95,1.44s.13,1.47-.93,1.49c-.7,0-1.4,0-2.09,0H29.18c-1.05,0-.95-.8-.95-1.48s-.15-1.46.93-1.46H150Z"/><path class="cls-2" d="M163.31,14.71l-13.4,32.66c-3.33-8.07-6.39-15.5-9.45-22.94-1.09-2.65-2.14-5.33-3.27-8-.52-1.2-.52-1.79,1.06-1.78C146.47,14.73,154.69,14.71,163.31,14.71Z"/><path class="cls-2" d="M151.42,51.42,164.67,19.1,178,51.42Z"/><path class="cls-2" d="M135.12,19.09l13.29,32.39H121.82Z"/><path class="cls-2" d="M107.39,14.77H133.7L120.36,47.34C116,36.26,111.73,25.68,107.39,14.77Z"/><path class="cls-2" d="M192.41,14.76c-4.35,10.92-8.55,21.48-13,32.57L166.08,14.76Z"/><path class="cls-2" d="M193.8,19.19c4.39,11.11,8.52,21.59,12.75,32.31H181C185.19,40.82,189.39,30.28,193.8,19.19Z"/><path class="cls-2" d="M106,19.19l12.86,32.37H93.23Z"/><path class="cls-4" d="M97.8,204.36c1,0,1.21.65,1.56,1.08,3.83,4.69,7.62,9.42,11.47,14.09.78.95.83,1.45-.18,2.35-5.11,4.56-5.06,4.59-9.24-.52-2.89-3.54-5.78-7.07-8.75-10.53-.9-1.05-1-1.68.17-2.55C94.59,207,96.25,205.6,97.8,204.36Z"/><path class="cls-2" d="M64.65,33.7c.74,1.64,1.23,2.68,1.67,3.73,2,4.62,3.92,9.26,6,14.1H57.07Z"/><path class="cls-2" d="M227.53,51.44c2.53-5.94,5-11.66,7.58-17.8,2.6,6.08,5,11.79,7.61,17.8Z"/><path class="cls-2" d="M260.53,51.59h-14.7c2.5-6.07,4.92-12,7.62-18.48C256,39.63,258.2,45.53,260.53,51.59Z"/><path class="cls-2" d="M54,51.55H39.3c2.32-6.08,4.56-11.95,7-18.43Z"/><path class="cls-2" d="M48.07,29.59H63.18c-2.54,6-5,11.76-7.66,18Z"/><path class="cls-2" d="M81.32,29.51,73.84,47.6C71.37,41.81,69.08,36.38,66.72,31c-.59-1.35,0-1.5,1.11-1.49C72.18,29.52,76.53,29.51,81.32,29.51Z"/><path class="cls-2" d="M218.52,29.64h15.1L226,47.6Z"/><path class="cls-2" d="M236.56,29.51c4.76,0,9.12,0,13.48,0,1.6,0,1.51.58,1,1.78-2.2,5.18-4.31,10.4-6.76,16.33C241.58,41.26,239.13,35.54,236.56,29.51Z"/><path class="cls-2" d="M224.42,51.58H209.74l7.31-17.85Z"/><path class="cls-2" d="M82.75,33.7c2.34,5.73,4.38,10.88,6.56,16,.68,1.58.51,2.06-1.28,2-4.07-.09-8.14,0-12.67,0Z"/><path class="cls-5" d="M117.86,229.31c.06,4.26-1.86,5.73-4.66,4.85a10.37,10.37,0,0,1-6.22-6c-.81-1.88,2.31-2.62,3.62-3.9.69-.68,1.67-2.48,2.77-1.32C115.44,225.06,117.77,227.26,117.86,229.31Z"/><path class="cls-5" d="M89.28,196c2.11.18,6.66,4,7.37,6.06a1,1,0,0,1-.42,1.25,13.37,13.37,0,0,1-1.62,1.3c-1.53.92-2.48,3.15-4.45,2.84-1.77-.29-4.77-6.22-4.63-8.26A3.11,3.11,0,0,1,89.28,196Z"/><path class="cls-6" d="M92.73,232.55a1.76,1.76,0,0,1-.93,1.83,1.48,1.48,0,0,1-1.92-.19q-4.71-5.7-9.27-11.52c-.54-.7-.12-1.54.55-2.09a1.52,1.52,0,0,1,2.17,0c3.11,3.7,6.14,7.47,9.18,11.23A1.89,1.89,0,0,1,92.73,232.55Z"/><path class="cls-6" d="M70.84,249.13c-2.63-3.23-5.21-6.49-7.88-9.66-1.12-1.33-.51-1.86.75-2.29.19-.06.37-.14.57-.19,2.44-.6,5.71,1.82,7.85,5.81C73.53,245.4,73.26,246.86,70.84,249.13Z"/><path class="cls-6" d="M86.85,216.52a3.11,3.11,0,0,1,1.89,1.32l7.65,9.45c.79,1,1.54,2.08.35,3.11s-2.34.39-3.25-.75c-2.59-3.24-5.21-6.46-7.83-9.68-.59-.73-1-1.51-.51-2.43A1.9,1.9,0,0,1,86.85,216.52Z"/><path class="cls-7" d="M91.34,212.88a2.81,2.81,0,0,1,1.9,1.31l7.7,9.49c.82,1,1.35,2.17.18,3.15s-2.21.34-3.05-.7l-7.87-9.74a2.26,2.26,0,0,1-.52-2.47A1.7,1.7,0,0,1,91.34,212.88Z"/><path class="cls-6" d="M77.83,224.19a2.42,2.42,0,0,1,1.94,1.2l7.32,9c.8,1,1.45,2.12.2,3.11s-2.18.08-3-.91c-2.42-3-4.87-6-7.29-9-.56-.69-1.14-1.42-.59-2.41A1.71,1.71,0,0,1,77.83,224.19Z"/><path class="cls-8" d="M73,228.28a2.39,2.39,0,0,1,2.41,1.11L82.36,238c.73.9,1.35,1.89.26,2.87s-2,.23-2.75-.67c-2.45-3-4.9-6-7.31-9C71.5,229.78,71.87,228.79,73,228.28Z"/><path class="cls-9" d="M60.8,239.53c3,3.69,5.66,7,8.56,10.6a6.76,6.76,0,0,1-7.63-2.56C59.94,245.33,59.05,242.76,60.8,239.53Z"/><path class="cls-10" d="M69.55,232.53a2.12,2.12,0,0,1,1.43,1q3.19,3.93,6.38,7.88c.67.83,1.16,1.77.07,2.57s-1.67,0-2.25-.73c-2.14-2.62-4.25-5.26-6.38-7.88a1.9,1.9,0,0,1-.48-2.17A1.17,1.17,0,0,1,69.55,232.53Z"/></svg>