<svg id="Layer_1" data-name="Layer 1" xmlns="http://www.w3.org/2000/svg" viewBox="0 0 300 300"><defs><style>.cls-1{fill:#246bbc;}.cls-2{fill:#f4bf0e;}.cls-3{fill:#174478;}.cls-4{fill:#e2e2e3;}.cls-5{fill:#070708;}.cls-6{fill:#060607;}.cls-7{fill:#060707;}.cls-8{fill:#06080a;}.cls-9{fill:#05070a;}.cls-10{fill:#07090a;}.cls-11{fill:#08090a;}.cls-12{fill:#080809;}.cls-13{fill:#090c0e;}.cls-14{fill:#070a0d;}.cls-15{fill:#08090b;}.cls-16{fill:#080a0c;}.cls-17{fill:#090b0e;}.cls-18{fill:#080a0d;}.cls-19{fill:#0c0f11;}.cls-20{fill:#090b0d;}.cls-21{fill:#0a0e11;}.cls-22{fill:#0a0d11;}.cls-23{fill:#131517;}.cls-24{fill:#0a0c0e;}.cls-25{fill:#080d13;}.cls-26{fill:#0b0d10;}.cls-27{fill:#0a0c0f;}.cls-28{fill:#090e15;}.cls-29{fill:#151618;}.cls-30{fill:#080c11;}.cls-31{fill:#0b0d0f;}.cls-32{fill:#080c10;}.cls-33{fill:#06090c;}.cls-34{fill:#090d12;}.cls-35{fill:#0c0f14;}.cls-36{fill:#090c0f;}.cls-37{fill:#0d1116;}.cls-38{fill:#0e1013;}.cls-39{fill:#0a0e13;}.cls-40{fill:#0b1016;}.cls-41{fill:#0e1115;}.cls-42{fill:#111315;}.cls-43{fill:#0c0e11;}.cls-44{fill:#0b1117;}.cls-45{fill:#0b0f14;}.cls-46{fill:#0b0e12;}.cls-47{fill:#0b1015;}.cls-48{fill:#091017;}.cls-49{fill:#020405;}.cls-50{fill:#04090f;}.cls-51{fill:#0d1115;}.cls-52{fill:#0e1216;}.cls-53{fill:#0e1217;}.cls-54{fill:#0e131a;}.cls-55{fill:#0f1215;}.cls-56{fill:#13161a;}.cls-57{fill:#0f1318;}.cls-58{fill:#0f151c;}.cls-59{fill:#0c1118;}.cls-60{fill:#11161d;}.cls-61{fill:#0e1318;}.cls-62{fill:#13181e;}.cls-63{fill:#0c1117;}.cls-64{fill:#0c1116;}.cls-65{fill:#121212;}.cls-66{fill:#080e15;}.cls-67{fill:#0f1011;}.cls-68{fill:#16181b;}.cls-69{fill:#131417;}.cls-70{fill:#14181d;}.cls-71{fill:#131313;}.cls-72{fill:#171717;}.cls-73{fill:#161617;}.cls-74{fill:#1e1e1e;}.cls-75{fill:#212122;}.cls-76{fill:#282828;}.cls-77{fill:#0e0e0e;}.cls-78{fill:#202020;}.cls-79{fill:#777;}.cls-80{fill:#2b2b2b;}.cls-81{fill:#020202;}.cls-82{fill:#e1e1e2;}.cls-83{fill:#181818;}.cls-84{fill:#141414;}.cls-85{fill:#151515;}.cls-86{fill:#1e1e1f;}.cls-87{fill:#e0e0e1;}.cls-88{fill:#222;}.cls-89{fill:#dfdfe0;}.cls-90{fill:#171718;}.cls-91{fill:#848484;}.cls-92{fill:#161616;}.cls-93{fill:#1a1a1a;}.cls-94{fill:#1b1b1b;}.cls-95{fill:#111;}.cls-96{fill:#090909;}.cls-97{fill:#787879;}.cls-98{fill:#191919;}.cls-99{fill:#0f0f0f;}.cls-100{fill:#dededf;}.cls-101{fill:#131314;}.cls-102{fill:#101010;}.cls-103{fill:#dcdcdd;}.cls-104{fill:#212121;}.cls-105{fill:#0d0d0d;}.cls-106{fill:#252525;}.cls-107{fill:#292929;}.cls-108{fill:#1c1c1c;}</style></defs><path d="M22.45-.61H277.55a1,1,0,0,1,1,1V174.06A125.93,125.93,0,0,1,152.61,300H150A128.49,128.49,0,0,1,21.46,171.5V.38a1,1,0,0,1,1-1Z"/><path class="cls-1" d="M201.69,194.48c-2.16-26.55-24.89-47.39-51.69-47.39s-49.54,20.84-51.69,47.39c-.36,2.21-.06,4.43-.18,6.64,0,.55.36,1.4-.73,1.46-7.12-9.8-16.56-15.75-28.73-16.75-14.92-1.24-26.74,4.5-35.68,16.42-.63.85-1,2-2.14,2.66a115.09,115.09,0,0,1-3.76-20.57,165.78,165.78,0,0,1-.54-16.68q0-81-.05-161.9c0-2.35.43-3.09,3-3.09q120.53.12,241.05,0c2.51,0,3,.71,3,3.07q-.11,83.1-.05,166.21a124.2,124.2,0,0,1-4,31.76c-.09.37-.21.74-.3,1.08-.89-.15-1-.82-1.32-1.28-15.66-23.23-47.76-24.1-64.66-1.74l-.61.8c-1.09,0-.69-.9-.72-1.45C201.74,198.91,202.05,196.69,201.69,194.48Z"/><path class="cls-2" d="M154.9,296.2c-58.58,0-106.29-34.89-122.67-86.15a5.4,5.4,0,0,1,.66-4.93c14.93-24.44,50.89-23.85,65,1.09a6,6,0,0,0,.37.66c.47.61.52,1.95,1.59,1.57s.4-1.46.28-2.24c-4.79-31.34,21.69-59.88,53.26-57.38,24.3,1.91,43.07,19.38,46.58,43.4a47.42,47.42,0,0,1-.12,14.37c-.11.72-.51,1.68.5,1.93.77.19,1-.77,1.3-1.33,8.54-14.66,21.26-21.55,38.13-19.69,12.44,1.37,21.7,8.1,28.09,18.84.73,1.23.34,2.25,0,3.35a122,122,0,0,1-36,55.45C208.45,285.68,181.09,295.84,154.9,296.2Z"/><path class="cls-3" d="M97.4,202.58c.94-1.65.23-3.45.45-5.16.12-1-.19-2,.46-2.94,0,2.58,0,5.16.07,7.74C98.4,203.3,98.25,203.9,97.4,202.58Z"/><path class="cls-3" d="M201.69,194.48c.85,1.76.28,3.64.47,5.45.09.89-.34,1.87.43,2.64-.92.58-1,.58-1-.35C201.62,199.64,201.66,197.06,201.69,194.48Z"/><path class="cls-4" d="M135.25,88.73c.76-.62,1.77-1,2.18-2a7.74,7.74,0,0,0,2.41-6.54,12.12,12.12,0,0,1,.25-4c-.55,4.63-2,5.22-6.79,2.42a12.81,12.81,0,0,1-2.19-2.73c-.3-.35-.4-.83-.7-1.18a5.22,5.22,0,0,0-3.24-2.82,3.51,3.51,0,0,0-2.68-.12A3,3,0,0,1,121,70.55c.29-1.68,2-.6,2.74-1.41.78-1.5.37-2.43-1.29-2.62a9,9,0,0,0-5.14.77c-1,.5-1.63.43-1.53-.91.29-2.26,1.85-3.25,3.82-3.83a25.33,25.33,0,0,0,4.17-1.74c5-2.75,6-2.65,10.54,1,2.14,1.77,4.67,1.67,7.22,1.56,6-.25,11.93-.59,17.89.27,1.48.21,2.88.73,4.43.84a15.9,15.9,0,0,0,10.27-2.72c1.24-.87,2.67-1.43,3.91-2.3.22-.13.42-.27.65-.39,2.41-1.2,3.56-1,4.17.55,1.16,3,.6,4.53-1.87,5.42-.87.31-1.79.38-2.66.68-1.18.35-2.37.7-3.56,1.07s-2.12.69-2.67.77c1.93-.47,4.35-1.33,6.83-2a2,2,0,0,1,.49-.11c1.42-.08,2.86-1.44,4.24,0,.92,1,1,4.82.32,6.34a2,2,0,0,1-2.21,1.23c-3.42-.29-6.76-1-9.34-1.3,2.14.4,5.12.83,8.09,1.18,2.17.26,3,1.28,2.88,3.28,0,.42,0,.85,0,1.27-.41,3.84-1.6,4.45-5.1,2.62-1.6-1-3.25-1.89-4.93-2.75-1.28-.57-2.34-1.61-3.79-1.84-1.07-.31-2.07-1.08-3,.5-.56,1-1.94,1.17-3,1.64s-2.06.35-2.67-.86a5.62,5.62,0,0,0-2.4-2.45c-1.37-1.22-3.21-1.63-4.62-2.78,1.43,1.18,3.33,1.59,4.72,2.86a4.6,4.6,0,0,1,.63.42c1.22,1.13,2.7,2.32,1.58,4.18s-2.86,1-4.38.29c-.75-.35-1.47-.76-2.25-1.06a12.23,12.23,0,0,1-4.85-3.19h-.05l.14.06c1.63,1.23,2.31,2.66,1.16,4.55-.11.86-2.62.57-1.05,2.23.91,1.71,1.24,3.33-.77,4.52-1.56.93.56,1.13.35,1.79a4.84,4.84,0,0,1,.45,3.74c-.13.3-.28.67-.58.78-1.45.53-1.09,1.21-.42,2.24.81,1.27,1.34,2.73,0,4.11a4,4,0,0,1-2.15.47c2.51,3.13,2.21,4.8-.65,6.1,2.3-2.89,5.07-1,7.91.17,1.54.66,3,1.43,4.63,1.94,2.91,1.51,6,2.61,8.65,4.65,1.34.85,2,2.28,3.07,3.4a8.72,8.72,0,0,1,1.48,2.47,28.2,28.2,0,0,1,.87,3.15,2,2,0,0,1-.91,2.38c-.84.45-1.43-.14-2-.69-4.43-4.6-10.13-7.06-15.88-9.42-5.48-2.65-11.15-4.92-16.39-8.06a8.43,8.43,0,0,1-3.33-3.64,33.55,33.55,0,0,1-1.15-6.31A8.93,8.93,0,0,1,135.25,88.73Z"/><path class="cls-4" d="M138.81,35.09l1.58-1.54c5.23-5.79,10.33-11.69,16.05-17a33.12,33.12,0,0,0,3-4c1.66-2.22,2.73-2.07,4.12.46a16.07,16.07,0,0,1-2.75,10,28.29,28.29,0,0,0-2.74,3.34c-1.23,1.76-3,3.07-4.1,4.95a6.67,6.67,0,0,1-1.64,1.75,4.71,4.71,0,0,0-1.62,1.17c-1.23,1.35-2.57,2.24-4.54,1.45a2.25,2.25,0,0,0-2.08.41s0,0,0,0l.15-.09c1.55-.62,3.14-.7,4,.83,1,1.78-.34,3.11-1.48,4.39,3.42.35,4,1.22,3.21,4.48-.38.75-1.08,1.25-1.54,2,.72.08,1.45-.21,2.14.11,2,1.25,1.73,2.88.56,4.44-.78,1-.23,1.16.58,1.35a2.46,2.46,0,0,1,1,3.31c-.37.91-1.9,1.9.27,2.62.43.14.55.78.59,1.29-.13,1.88-1.19,2.67-3,2.65s-3.54,0-5.31,0c-2.77,0-2.91-.12-2.9-2.82a22.56,22.56,0,0,0-.72-7.23,5.45,5.45,0,0,0-1.53-2.28c-3.25-2.37-3.42-5.95-3.82-9.44A7.67,7.67,0,0,1,138.81,35.09Z"/><path class="cls-5" d="M97.77,61.87c2-1.21,4-2.52,6-3.63,2.51-1.33,4.32-.43,4.26,2.35s1.28,5.45,1.16,8.3C109.06,72.53,108,76,108,79.72c0,2-2,2.69-4.26,1.51-2.82-1.49-5.58-3.12-8.36-4.68-.07-.49.24-.7.63-.85a4.86,4.86,0,0,1,3.1.82c1.38.64,2.6,1.58,4,2.16.91.37,2.1,1.71,2.88-.15s.13-3.56-1.55-4.07a17.86,17.86,0,0,0-2.72-.51c-2.09-.28-4.17-.6-6.23-1-1-.2-2.34-.43-2.14-1.66s1.58-1.06,2.56-1c2.76.29,5.5.76,8.26,1.11,1,.12,2.17.62,2.69-.59a4.67,4.67,0,0,0,0-3.7c-.45-1-1.48-.53-2.25-.33-2.77.71-5.49,1.59-8.27,2.29-1,.26-2.61,1.07-3.08-.42s1.2-1.81,2.26-2.16c2.47-.83,5-1.46,7.51-2.2a14.28,14.28,0,0,0,1.9-.67,2.07,2.07,0,0,0,1-2.81c-.48-1.41-1.52-.51-2.29-.24-1.71.62-3,2.18-5,2.1A1.14,1.14,0,0,1,97.77,61.87Z"/><path class="cls-6" d="M97.77,61.87l.63.53C98.14,64,96.85,64.5,95.63,65a14.34,14.34,0,0,1-8.17.79c-7.51-1.23-15-.79-22.59-.89a10.85,10.85,0,0,1-6.67-1.81,4.38,4.38,0,0,1-2-2.47c0-.51.17-.93.83-.8,2.25,1.56,4.29,3.44,7.42,3.09,1.55-.17,1.93-.66,2-2.12.11-4.2,0-8.27-3.78-11.13-.36-.27-.5-.85-.74-1.28s0-.71.44-.84c3,1.16,4.45,3.67,5.43,6.51a17.21,17.21,0,0,1,.66,4.48c.08,1.16-.61,2.89,1,3.28a11,11,0,0,0,6.45-.21c.56-.21.5-.71-.06-1.15-2.35-1.85-2.28-2.31.55-3.9a1.18,1.18,0,0,1,1,.37,9.27,9.27,0,0,0,2.59,3,1.69,1.69,0,0,1,.18,1c.55,1.36,2.07,1.73,3.66.86.84-.47,1.47-1.39,2.61-1.22.36.17.62.39.42.84l-1.41,2A16,16,0,0,0,97.77,61.87Z"/><path class="cls-7" d="M141.86,52.83c1.42,2.59.91,5.41.94,8.15,0,1.38.32,2,1.82,1.86a49,49,0,0,1,5.81,0c2.13.11,3-.79,2.57-2.88-.22-.44,0-.64.41-.79,1.21,1,2.09-1,3.26-.37a1.51,1.51,0,0,1,.32.63c.07,1.31-.94,1.87-1.76,2.57a5.07,5.07,0,0,0,5.82-1.55,1.29,1.29,0,0,1,1.18-.32c.36.16.64.36.45.82l-1.63,2.18c3,1.61,6.65,1.09,13.1-1.82.53-.17.68.1.64.57a15.72,15.72,0,0,1-12.87,2.92c-7.44-1.3-14.92-.94-22.39-.88-2.18,0-4.18-.3-5.73-2-.11-.49,0-.71.57-.55a22.07,22.07,0,0,0,2,1.05c3.77,1.56,5.43.47,5.47-3.48a28.63,28.63,0,0,0-.51-5.47C141.07,52.93,141.36,52.79,141.86,52.83Z"/><path class="cls-6" d="M238.08,61a10.13,10.13,0,0,1-.72,1c-1.22,1.27-.74,1.67.8,1.9a17.17,17.17,0,0,0,11.4-2.55c.68-.17.78.27.82.77-1.54,2.63-4.24,3.13-6.87,3.66a14.43,14.43,0,0,1-5.28.07c-7.53-1.33-15.12-.82-22.69-.93a12.1,12.1,0,0,1-3.5-.39c-1.31-.4-2.58-.88-3.06-2.36,0-.52.15-.93.81-.81a19.59,19.59,0,0,0,2.47,1.23c3.73,1.26,5,.36,5-3.46,0-2.54,0-5.06-1.52-7.27-.12-.55.21-.73.67-.8,1.35.28,1.8,1.39,2.2,2.5a12.27,12.27,0,0,1,.62,4c.1,4.56-.64,4.5,4.8,4.49a18.3,18.3,0,0,0,4-.51,2.65,2.65,0,0,1,1.15.18c2.62.73,5.23,1.42,7.33-1.18a1.25,1.25,0,0,1,1.17-.34C238,60.33,238.28,60.55,238.08,61Z"/><path class="cls-8" d="M57,59.86l-.6.53C52.1,60,48.6,62.3,44.86,63.81a5.92,5.92,0,0,0-2.62,1.66c2.06-.18,3.79-.54,5.48-.07a3.06,3.06,0,0,1,2.41,2.31,2,2,0,0,1-1.39,2.37c-.29.23-.77-.07-1,.36,5.77-.22,9,2.19,10.41,7.77-.16.37-.37.64-.83.45-1.34-.85-2-2.27-2.73-3.56A5.17,5.17,0,0,0,49,72.29c-3,.38-4.45-.79-5.08-3.52.91-.47,1.8.09,2.71.06.65,0,1.58.11,1.67-.71.1-1-.89-1-1.64-1.11-2-.25-3.6.22-6.16,1.75-1.32-3.13-.53-5.15,2.62-6.31a58.24,58.24,0,0,0,6.65-3C52.18,58.21,54.7,57.76,57,59.86Z"/><path class="cls-8" d="M178,79.56c4.35,2,4.58,1.78,4.76-3.1.07-1.91-.54-2.72-2.46-2.94-3.33-.37-6.64-1-10-1.5-.54-.09-1.23,0-1.52-1.19,3.41.47,6.66.88,9.9,1.38,5.18.79,5.11.81,5-4.46-.05-2.07-.81-2.79-2.76-2.13a5.89,5.89,0,0,1-2.45.45c-.56.23-.71,0-.66-.54,1.11-.36,2.22-.76,3.35-1.07a1.86,1.86,0,0,0,1.56-1.95c.2-4-.67-4.49-4.76-2.51-.57.22-.68-.1-.66-.57a22.1,22.1,0,0,1,1.92-1.2c2.55-1.27,4.34-.49,4.32,2.31s1.17,5.16,1.17,7.78c0,3.81-1.26,7.47-1.25,11.31,0,1.92-1.58,2.51-3.29,2a15.57,15.57,0,0,1-2.87-1.53C177.34,79.66,177.39,79.26,178,79.56Z"/><path class="cls-9" d="M235.52,95.22c3.75,1.51,5.33,4,5.17,8.2,0,.75.53,1,.9,1.4,2.12,2.43,4.3,4.8,3,8.48-.28.81.6,1.32,1,1.89a13.54,13.54,0,0,1,2.83,6.12,2.63,2.63,0,0,1-1.19,3.06c-1.13.64-1.9-.17-2.65-.84s-1.72-1.59-2.58-2.39c-.17-.47.12-.65.48-.79,1.47-.09,2.25,1.35,3.74,1.68.47-1.94-.59-3.31-1.4-4.79-1-1.78-3-2.65-3.65-4.66a1.35,1.35,0,0,1,.23-.67c1.61-.51,1.71-1.49,1-2.84a12.05,12.05,0,0,0-3.73-4.26c-.94-.65-2.06-1.16-2.38-2.43a.93.93,0,0,1,.59-.82c.61-.31,1.33.19,2-.27-.23-2.48-3-3.25-3.68-5.45A1,1,0,0,1,235.52,95.22Z"/><path class="cls-10" d="M154.05,77.62c1.15.51,2.31,1,3.42,1.54s1.9.88,2.73-.12.32-2.06-.46-2.91c-.51-.55-1.1-1-1.65-1.54-.08-.49.08-.74.62-.57a15.17,15.17,0,0,0,1.42,1c1,.59.93,2.52,2.17,2.43a7.34,7.34,0,0,0,4.5-2.12l-1.74-1.1c1.94-.63,3.23.47,4.66.9,0,.93-.48.75-1,.49-2.26,1-4.24,2.49-6.68,3.21-1.19.35-2.32,1.48-.38,3.06,3.1,2.52,2.76,4.39-.81,6.21-.6.3-.7.58-.58,1.14a2.47,2.47,0,0,1-.62,2.55c-.44.18-.69-.07-.92-.38-.16-2.37-2.45-3.31-3.44-5.12a1.48,1.48,0,0,1,.19-.68c1.27-.9,2.39,0,3.57.3.82.19,1.76.49,2.27-.4S161,84,160.4,83.4a19.92,19.92,0,0,0-5-3.26c-1-.52-2.25-.83-2.49-2.23A.68.68,0,0,1,154.05,77.62Z"/><path class="cls-11" d="M241.55,77.06l-1.07.62c-1.31.81-3.24.48-4.07,2.14-1.06,2.13,1.51,2.16,2.1,3.41,1,2.12.73,3.59-1.4,4.56-.68.36-1.76-.06-2,1.08a1.54,1.54,0,0,1-.69.24c-1.58-.51-3-1.16-3.7-2.87a1,1,0,0,1,.65-.83c1.25-.24,2.23.64,3.37.81.77.11,1.57.15,2-.64a1.57,1.57,0,0,0-.56-2,27.63,27.63,0,0,0-7.34-4.3,1.2,1.2,0,0,0-1.53.5,4.85,4.85,0,0,1-1.89,1.62,3.55,3.55,0,0,1-1.68.65c-2.1-1.07-2.25-1.68-.32-2.62,1.58-.77,1.43-2,1.6-3.31a1.21,1.21,0,0,1,.7-.78c2.31.2,4.16,1.59,6.23,2.41.88.34,1.91,1.37,2.72.49s-.4-1.73-1-2.49a2.49,2.49,0,0,1-.53-1.11,1.3,1.3,0,0,1,.22-.66,1.52,1.52,0,0,1,2,.32c1.51,1.86,3.46,2.18,5.66,1.91C241.42,76.39,241.67,76.63,241.55,77.06Z"/><path class="cls-12" d="M236.54,41.24c-1.42,1.2-1,2.13,0,3.52.74,1,.59,2.64,2.44,2.57.08,1.15-1.11,1-1.59,1.62-2.6,2.31-4.62,5.18-7.38,7.34-1,.8-.91,2.05-.85,3.22a1.12,1.12,0,0,1-.72.75,4,4,0,0,1-1.72,0c-1.83-.24-2.28-1-1.21-2.43s1.88-2.65-.89-3.06c-1.24-.19-1.31-1.14-.55-2.05a2.74,2.74,0,0,1,2.11-1.15,1.64,1.64,0,0,1,.64.3c1.5,1.55,2.91,1.31,4.31-.16a20.4,20.4,0,0,0,3-3.4c.46-.75,1.33-1.68.44-2.44s-1.51.31-2.14.8-1.19,1.18-1.87,1.68-1.36,1.06-2.24.35a1.39,1.39,0,0,1,.3-1.83c2.13-1.9,3.87-4.18,6-6.06a1.75,1.75,0,0,1,1.4-.44C236.42,40.55,236.72,40.75,236.54,41.24Z"/><path class="cls-10" d="M159.08,91.21l.54.58c-.24.76-1.1.88-1.73,1.4,2.34,1.77,4.8,3.12,6.45,5.41,1,1.37,2.08,2.77,1,4.56-.49.81.16,1,.54,1.4a8.2,8.2,0,0,1,1.9,2.32c.26.47,0,.68-.41.83-2.47-1.39-4.92-2.79-6.49-5.28a1.07,1.07,0,0,1,.61-.86c.6-.32,1.36.12,2-.44-.16-1.46-1.22-2.33-2.23-3.2A33.75,33.75,0,0,0,154,93.35a5.15,5.15,0,0,0-4.58-.38c-.37-.13-.66-.31-.43-.78a7.18,7.18,0,0,0-.51-3.83.56.56,0,0,1-.05-.66.82.82,0,0,1,.94.06C152,90.52,155.43,91.19,159.08,91.21Z"/><path class="cls-13" d="M197.94,72.11c-1.95,0-2.58-1.37-3.32-2.84,1.67-.68,3.43,0,4.88-.91a.91.91,0,0,1,.38.59,1.31,1.31,0,0,1-.17.69c-.44.55-1.19.43-1.69.79a1.5,1.5,0,0,0,.48.29c1.44.17,2.88,0,4.31.11,2.38.49,3.63,2.3,4.86,4.13a6.92,6.92,0,0,0,4.21,3.38c1.58.37,2.45,0,2.46-1.75a6.1,6.1,0,0,1,.46-3c.46-.83,1.08-1.08,1.78-.24,1.76,2.08.18,10.94-2.23,12.55-.46-.07-.8-.25-.65-.81a13.08,13.08,0,0,0,.89-1.8c.45-1.5.64-2.72-1.69-2.79a7.61,7.61,0,0,1-6.8-4.47c-1.14-2.18-2.63-3.9-5.35-3.94A4.72,4.72,0,0,1,197.94,72.11Z"/><path class="cls-14" d="M84.18,11.75a2.22,2.22,0,0,1,2.49-1.28c1.26.29,1.65,1.35,1.9,2.45a9.73,9.73,0,0,1-.5,5.47c-.39,1.1-.36,1.68.84,2.38,1.83,1.06,2,3.4.73,6.14-.67,1.43-1.46,2.5.1,4.1s.57,4.25-1.4,6.28a1.09,1.09,0,0,1-.46-.51,3.19,3.19,0,0,1,.24-2.15A2.79,2.79,0,0,0,86.92,31a1.86,1.86,0,0,1-.52-.91c-.1-1.44.94-2.45,1.42-3.67,1.12-2.83.76-3.59-2.11-4.29a1.69,1.69,0,0,1-.39-.59c-.2-2.18,1.37-3.9,1.53-6,.14-1.75-.14-3-2.28-2.93C84.23,12.42,84,12.19,84.18,11.75Z"/><path class="cls-15" d="M96.05,76l-.67.54a3.59,3.59,0,0,0-4.34.32,17.57,17.57,0,0,1-3.9,1.7c-1.15.48-2.29,1-1.9,2.61.13.47-.16.69-.54.86a12.68,12.68,0,0,1-7.2-3.84.93.93,0,0,1,.48-.93c1.56-.62,2.74.39,4,.93.61.25,1.32.63,1.8-.13s-.12-1.24-.57-1.76C82,74.86,79.74,74.54,79,72.53a1,1,0,0,1,.59-.83c2.41-.29,3.84,1.4,5.36,2.78C87.69,77,87.8,77,89.79,74A1.21,1.21,0,0,1,91,73.34C92.94,73.77,95.09,73.79,96.05,76Z"/><path class="cls-16" d="M259.27,73.06c0,1.82,0,3.65-.11,5.48-.2,3.17-1.92,4.1-4.77,2.58-1.77-1-3.48-2-5.22-3-.06-.52.27-.73.68-.88,1.75-.23,3,1,4.4,1.61,1,.42,2.18,1.43,2.91-.35s0-3.53-1.54-3.9c-2.85-.71-5.78-1-8.66-1.53-1.12-.21-2.87-.21-2.73-1.61.15-1.55,1.92-1.29,3.09-1.11,3.8.59,7.64,1,11.42,1.74C259.11,72.28,259.39,72.56,259.27,73.06Z"/><path class="cls-17" d="M250.17,61.92l-.61-.55c1.63-1,3.21-2.09,4.89-3,2.81-1.54,4.44-.57,4.76,2.58.15,1.52-.6,3.15.5,4.56-.13.47,0,1.08-.73,1.2-3.09-.58-5.83,1-8.74,1.47a8.83,8.83,0,0,1-3.18.46,1.28,1.28,0,0,1-1.08-1c.39-1.14,1.46-1.28,2.4-1.58,2.07-.66,4.16-1.3,6.25-1.9a5.31,5.31,0,0,0,2.05-.93,2.06,2.06,0,0,0,.44-2.54c-.47-1.09-1.36-.71-2.16-.42s-1.46.81-2.22,1.18S251.14,62.48,250.17,61.92Z"/><path class="cls-18" d="M82.88,93.73c2.32,1.48,4.71,2.89,6.29,5.24.85,1.25,1.79,2.58.74,4.15-.51.77,0,1,.45,1.43,2.57,2.42,4.31,5.11,3.27,8.89-.11.39.5,1,.77,1.49a1.13,1.13,0,0,1,.08,1.11c-2.18.25-2.9-1.24-3.49-2.9a1.68,1.68,0,0,1,.43-1c1.41-1.49.25-2.72-.38-4-.93-1.92-3.27-2.59-4.06-4.63a1.52,1.52,0,0,1,.43-1c1.16-.86.56-1.76,0-2.64-.84-1.41-2.24-2.25-3.43-3.31-.78-.7-1.9-1.17-2-2.46C82.23,93.74,82.44,93.46,82.88,93.73Z"/><path class="cls-19" d="M121.19,70.51c1.16.92,2.5.8,3.85.69a4.38,4.38,0,0,1,2.69.39c0,1-.67.65-1.2.53-2.17.24-4.38.76-6.21-1-.61-.59-1.3-1.4-1-2.19s1.33-.2,2-.2c.25,0,.5.09.75.08.66,0,1.57.13,1.66-.7s-.77-1-1.46-1.06a8.82,8.82,0,0,0-6.44,1.81,4,4,0,0,1-.25-3.86c1.32.28.51,1.14.49,1.79,2.19-.14,4.26-1.23,6.54-.8s2.78,1.63,1.53,3.55c-.69.47-1.46.14-2.19.25C121.6,69.84,120.92,69.65,121.19,70.51Z"/><path class="cls-20" d="M160.65,41.74c-.45.72-1.1,1.17-.07,2.23s1.33,3.1,3.46,3.79c1.24.41.81,2.37.34,3.65a20.65,20.65,0,0,1-1.26,2.42c-.45.12-.67-.15-.84-.5a2.68,2.68,0,0,1,0-1.46c.52-2.56.52-2.56-2.15-2.26a1.11,1.11,0,0,1-.82-.62c-.5-1.07,1.1-2.6-.29-3.21s-2.05,1.11-3,1.83c-.68.5-1.27,1.13-2.23,1a1,1,0,0,1-.53-.48,2.37,2.37,0,0,1,1-2.39c1.92-1.63,3.09-4.2,5.87-4.78C160.55,41.07,160.84,41.26,160.65,41.74Z"/><path class="cls-17" d="M87.39,38.69a3.71,3.71,0,0,1-.48,1.13c-.91,1-2.59,2-2.28,3.28s1.56,2,1.6,3.48c0,.14.32.32.52.42,3,1.51,3.07,1.8,2,4.8a.94.94,0,0,1-1.19-.53c0-2.2-1.41-1.92-2.84-1.67a1.13,1.13,0,0,1-.78-.68c0-.08,0-.16,0-.24-.23-1,.79-2.19-.12-2.79-1.12-.73-1.81.69-2.67,1.19-.66.38-1.29.78-2,.24a1.18,1.18,0,0,1,0-1.41c2.33-2.76,4.55-5.63,7.7-7.56A.93.93,0,0,1,87.39,38.69Z"/><path class="cls-21" d="M153.63,113.29c5.91,2.38,11.87,4.66,16.19,9.68.41.48.88.88,1.51.5a1.53,1.53,0,0,0,.65-1.54c-.2-1.21-.54-2.4-.83-3.6-.27-.59.07-.71.56-.72.6,1.62,1.36,3.22,1.18,5-.15,1.59-1.95,2.52-3,1.47-4.66-4.65-10.52-7.32-16.35-10.06A.47.47,0,0,1,153.63,113.29Z"/><path class="cls-22" d="M156.62,17c-5.08,5.25-10.36,10.31-14.93,16a1.1,1.1,0,0,1-1.3.51c1.52-3,4-5.3,6.19-7.79,2.91-3.34,6.25-6.29,9.41-9.41C156.54,16.24,156.76,16.45,156.62,17Z"/><path class="cls-23" d="M133.39,78.09a16.08,16.08,0,0,0,1.54.8c3.85,1.55,4.53,1.09,4.64-2.92,0-1-.27-2.17.86-3.5,0,3.64.17,6.89-.07,10.1-.13,1.78-.85,3.58-2.93,4.21-.12-1.49,1.37-2.19,1.71-3.48.42-1.55.63-2.69-1.66-2.74a6,6,0,0,1-4.71-1.87C132.65,78.15,132.85,77.94,133.39,78.09Z"/><path class="cls-24" d="M240.05,21c2.38,2.16,1.13,4.45.12,6.64a2.42,2.42,0,0,0,.17,3c2,2.73.35,5.23-1.33,7.54-.44.14-.66-.12-.84-.46-.52-1.86,1.64-3.36.71-5.4-1.13-.08-1.76,1.3-2.91,1.11a1,1,0,0,1-.75-.7c-.1-1.3.82-2.13,1.51-3,1.86-2.38,3-5,2.54-8A1,1,0,0,1,240.05,21Z"/><path class="cls-25" d="M209.79,61.38l-.6.54c-.84.42-1.47-.13-2.07-.54a4.86,4.86,0,0,0-5.48-.28c-2.85,1.6-6.23,2.06-8.82,4.2a2.08,2.08,0,0,0-.24,2.23c-.2.6-.59,1.22-1.18,1.12s-.51-1-.56-1.49c-.21-2.16.55-3.8,2.69-4.55a61.28,61.28,0,0,0,7.32-3.25C204.32,57.61,206.52,58.2,209.79,61.38Z"/><path class="cls-26" d="M57.36,78.66l.57-.56c3.2.52,5.92.44,5.44-4.06a1.25,1.25,0,0,1,1.35-1.24c.89,0,1.13.68,1.15,1.37.08,3,.36,6.07-.23,9.06a4.23,4.23,0,0,1-3,3.69c-.48,0-.86-.18-.7-.79a21.13,21.13,0,0,0,1.43-2.07c1.24-2.29.81-3.06-1.72-3.53C60.08,80.25,58.44,80.06,57.36,78.66Z"/><path class="cls-22" d="M141.86,52.83l-.55.67a8.69,8.69,0,0,0-1.37-1.77c-4-3.08-4.07-7.47-4-11.85,0-2,.68-4,2.9-4.79a13.52,13.52,0,0,0-1.68,9c.45,2.6,1.16,4.82,3.22,6.54A3.94,3.94,0,0,1,141.86,52.83Z"/><path class="cls-27" d="M237,48.2l2-.87c2.3,2,1,4.07-.06,6-.65,1.25-1.38,2,.13,3.38s.23,3-1,4.31l-.54-.6c-.31-2.33-.31-2.33-3.16-2.17a1.09,1.09,0,0,1-.66-.78c.13-1.52,1.52-2.1,2.33-3.1C238.15,51.78,238.41,50.35,237,48.2Z"/><path class="cls-14" d="M215.12,107.55c-6.64-3-9.55-10.61-6.44-16.78.49-.12.73.17.91.55.23,2.5-.19,5,.38,7.51a8.63,8.63,0,0,0,4,6.07c.86.49,1.76,1,1.94,2.17C215.83,107.51,215.63,107.81,215.12,107.55Z"/><path class="cls-26" d="M160.06,22.86c2-3,3.35-6.19,3.05-9.89-.24-.56-.38-1.06.5-1.11a.41.41,0,0,1,.09.37,12.77,12.77,0,0,1,0,4.89c-.45,1.47-1.21,2.79.95,3.88,1.6.81,1.34,2.79,1,4.38a8.46,8.46,0,0,1-1.9,3.79,1.06,1.06,0,0,1-.81-.65c-.24-1.14.51-2.06.71-3.1.17-.88.51-1.91-.3-2.56s-1.3.39-1.94.66a1.69,1.69,0,0,1-1,.18C160.09,23.52,159.84,23.3,160.06,22.86Z"/><path class="cls-28" d="M213.25,49.28c-2.95-6.16-3-12.14,2.22-16.2.43-.33.79-.6,1.34-.45L217,33a2,2,0,0,1-.78,2c-3.67,3-3.19,6.86-2.45,10.82.19,1,.65,1.92.35,2.95C214,49.11,213.73,49.4,213.25,49.28Z"/><path class="cls-29" d="M235.52,95.22l0,.64c-2.25.41-3.66-1.36-5.41-2.18s-3.61-1.64-5.66-.75a1.32,1.32,0,0,1-.46-.53,41.93,41.93,0,0,1-.46-4.19,1.21,1.21,0,0,1,.38-.59c2.12.63,3.48,2.61,5.79,3.08,1.73.35,3.23.59,4.68-.56.9-.14.94.56,1.1,1.13,0,.08,0,.19-.06.23C233.6,92.81,233.52,94.05,235.52,95.22Z"/><path class="cls-24" d="M82.88,93.73l-.67.53c-2.29.37-3.89-.74-5.22-2.42a1,1,0,0,1,.51-.93c1.09-.49,2.12,0,3.17.2.79.12,1.55,0,1.9-.79s-.19-1.25-.67-1.74c-.73-.75-1.91-1.14-2-2.43a1,1,0,0,1,.74-.76c2,.42,4.06,1,6.15,1.24a.79.79,0,0,1-.06,1.05.58.58,0,0,1-.44.09c-.46.54-1.64-.27-1.72.94a3.07,3.07,0,0,1-1.29,3.93C82.83,93,82.46,93.14,82.88,93.73Z"/><path class="cls-14" d="M240.05,21l-.61.54a8.86,8.86,0,0,1-3.5,2.23,1,1,0,0,1-.75-.69c-.18-1.1.47-1.92,1-2.78A12,12,0,0,0,237.69,15a2.41,2.41,0,0,0-1.61-2.79,1.2,1.2,0,0,1-.59-.87c2-1.36,3.43-.9,3.92,1.37a8.83,8.83,0,0,1-.45,5.63C238.25,19.82,239,20.38,240.05,21Z"/><path class="cls-17" d="M60.84,105.51A5.15,5.15,0,0,1,57.92,102c-1-4.1-2.41-8.25.52-12.19.51-.1.73.21.9.6.28,1.46-.44,2.78-.55,4.2-.31,3.85,1,7.18,2.91,10.4C61.57,105.39,61.36,105.69,60.84,105.51Z"/><path class="cls-30" d="M134.37,61.4l-.57.55c-3.24-3.11-6.61-2.94-10.16-.5A8.72,8.72,0,0,1,119.71,63c-.55.25-1.07.45-1.07-.49,2.23-.94,4.44-1.91,6.58-3C128.76,57.59,130.93,58.14,134.37,61.4Z"/><path class="cls-31" d="M163.18,28.55l.56.62c2.83,3.11,2.69,5.32-.57,9.5-.45.19-.65-.09-.81-.43-.23-1.46.82-2.51,1.18-3.78.21-.73.56-1.62-.16-2.11s-1.11.46-1.61.82a2.32,2.32,0,0,1-1.6.63,1.21,1.21,0,0,1-.76-.75C160,31,160.8,29.11,163.18,28.55Z"/><path class="cls-32" d="M153.63,113.29l-.09.74c-5.73-2.35-11.46-4.71-16.69-8.1,0-.47.09-.8.66-.55Z"/><path class="cls-31" d="M162.58,53.18l.54.65c-.34.87-1.13,1.46.23,2.54,1.88,1.5.6,3.2-.67,4.6l-.57-.57c-.36-2.9-.35-2.9-3-1.43-.78.43-1.52,1.13-2.51.51l-.06-.67C157.92,56.25,160.2,54.67,162.58,53.18Z"/><path class="cls-22" d="M94.32,116.16l.08-1.23a10.8,10.8,0,0,1,3.14,6.38c.17,1.2.11,2.39-1.11,3.07s-2-.31-2.83-1c-.64-.53-1.21-1.15-1.81-1.72-.19-.45.09-.65.44-.81,1.21-.24,1.83,1.06,3,1.14C96.24,119.84,93.69,118.23,94.32,116.16Z"/><path class="cls-33" d="M135.25,88.73c-2.74,4.34-2.15,8.89-.84,13.48.33.66-.11.68-.56.7a17.19,17.19,0,0,1-1.31-10.56C132.81,90.86,133.44,89.25,135.25,88.73Z"/><path class="cls-34" d="M87.84,51.31l.89.49a15.61,15.61,0,0,1-.82,1.81c-.66,1.07-1.15,1.68.2,3,1.8,1.76,0,3.45-1.31,4.89l-.55-.58c0-.08-.12-.15-.11-.22.31-2.81.31-2.81-2.44-2.88a1.38,1.38,0,0,1-.58-.4A22.64,22.64,0,0,1,87.84,51.31Z"/><path class="cls-22" d="M215.12,107.55l.65-.56a1.43,1.43,0,0,1,1.44-.09,85.67,85.67,0,0,1,11.11,5.3,1.54,1.54,0,0,1,.74,1c-.12.44-.36.68-.84.46A81.6,81.6,0,0,1,215.12,107.55Z"/><path class="cls-35" d="M87.66,118.65l-13.75-6.5a1.22,1.22,0,0,1,.72-.88,4,4,0,0,1,2.88.59c2.89,1.5,5.9,2.78,8.76,4.34,1,.53,2.25.92,2.1,2.46A.52.52,0,0,1,87.66,118.65Z"/><path class="cls-36" d="M74.62,111.57l-.71.58a60.44,60.44,0,0,1-13.07-6.64l.62-.55a1.51,1.51,0,0,1,1.67.06c3.48,1.86,7,3.64,10.51,5.45A1.79,1.79,0,0,1,74.62,111.57Z"/><path class="cls-37" d="M62.44,47.77l-.56.65c-1.51-4.11-2.58-8.23,0-12.34.56-.18.76.18.92.61a25.27,25.27,0,0,0,.1,9A2.06,2.06,0,0,1,62.44,47.77Z"/><path class="cls-38" d="M249.85,77.52l-.68.56a13.87,13.87,0,0,1-2-1c-1.87-1.25-3.71-1.74-5.6-.06l-.67-.54c.38-3.76.41-3.82,4.09-2.39C246.84,74.86,249.05,75.21,249.85,77.52Z"/><path class="cls-39" d="M167.2,107.47l.56-.59c1.38,1.85,2.44,3.77,1.47,6.2-.44,1.1.8,1.54,1.06,2.38.17.54-.07.69-.57.62l-3-3a.84.84,0,0,1,.19-1c.83-.59.74-1.39.53-2.24S166.67,108.32,167.2,107.47Z"/><path class="cls-40" d="M163.61,11.86l-.5,1.11c-.85-2-1.85-1.83-3-.27a23.84,23.84,0,0,1-3.45,4.3l-.63-.65c1.22-1.6,2.36-3.27,3.67-4.79S162.45,9.73,163.61,11.86Z"/><path class="cls-41" d="M64.46,33.52,71,25.88a1.26,1.26,0,0,1,.51,1c-1.56,3.06-3,6.24-6.61,7.48C64.55,34.21,64.26,34,64.46,33.52Z"/><path class="cls-42" d="M71.12,27.14,71,25.88a38,38,0,0,1,6.08-5.95c.48-.19.67.1.81.48A12.14,12.14,0,0,1,71.12,27.14Z"/><path class="cls-43" d="M192.58,67.53C191,67,191.31,66,191.94,65a5.28,5.28,0,0,0,3.17.32,5.38,5.38,0,0,1,4.34.77c1.06.83,2.12,1.92.16,3l-.11-.74c-.79-1.81-2.4-1.35-3.8-1.3A27.64,27.64,0,0,0,192.58,67.53Z"/><path class="cls-44" d="M209.25,91.4l-.57-.63c1.13-2.37,3.28-3.82,5-5.64l.58.6C213.63,88.53,211.66,90.16,209.25,91.4Z"/><path class="cls-45" d="M228.22,113.64l.7-.57c3.11-.56,5.18,1.26,7.22,3.15,0,.46-.23.69-.63.83Z"/><path class="cls-46" d="M235.51,117.05l.7-.57a6.69,6.69,0,0,1,6.46,4.11l-.6.55Z"/><path class="cls-47" d="M86.76,87.68v-1c-.28-1.84-2-3.07-2.15-5l.64-.55c1.74,1,3,2.33,3,4.47A2,2,0,0,1,86.76,87.68Z"/><path class="cls-48" d="M77.68,20.51l-.56-.58,5.09-5.56c.49-.16.64.15.73.55C82,17.51,80.71,19.85,77.68,20.51Z"/><path class="cls-49" d="M259.23,66.58l.48-1.08c.59,2.56,1.18,5.12-.44,7.56l-.53-.51C258.12,70.5,257.91,68.48,259.23,66.58Z"/><path class="cls-50" d="M226.89,20.93l5-5.07c.48-.17.67.12.81.5a8.42,8.42,0,0,1-5.33,5.38C227,21.61,226.72,21.42,226.89,20.93Z"/><path class="cls-51" d="M217.75,31l4.55-5.5c.48-.19.67.1.83.47-.58,2.82-2.47,4.53-4.89,5.8C217.84,31.64,217.53,31.48,217.75,31Z"/><path class="cls-37" d="M222.88,26.1l-.58-.62a25,25,0,0,1,4.59-4.55l.61.56A5.86,5.86,0,0,1,222.88,26.1Z"/><path class="cls-52" d="M178,79.56l-.67.55-4.56-2.51c-.05-.56.13-.83.73-.58A17.39,17.39,0,0,1,178,79.56Z"/><path class="cls-53" d="M59,90.4l-.56-.63a15.43,15.43,0,0,1,3.48-3.64l.47.59C62.42,89,61,90,59,90.4Z"/><path class="cls-54" d="M118.64,62.48l1.07.49c-1.76.74-3.35,1.63-3.57,3.81-.06-.63,0-1.3-.49-1.79A3.44,3.44,0,0,1,118.64,62.48Z"/><path class="cls-55" d="M126.53,72.12l1.2-.53a4.68,4.68,0,0,1,3.08,3,.69.69,0,0,1-.59.61C129.22,73.88,128.22,72.58,126.53,72.12Z"/><path class="cls-56" d="M173.5,77l-.73.58-4.08-2,1-.49A11,11,0,0,1,173.5,77Z"/><path class="cls-57" d="M133.85,102.91l.56-.7a15.27,15.27,0,0,0,3.1,3.17l-.66.55A5.65,5.65,0,0,1,133.85,102.91Z"/><path class="cls-53" d="M87.66,118.65l.71-.08c2.09-.36,3.49.41,4,2.53l-.62.58Z"/><path class="cls-58" d="M238.46,37.49l.55.65a9.42,9.42,0,0,1-2.47,3.1l-.59-.58C235.9,38.9,236.63,37.76,238.46,37.49Z"/><path class="cls-59" d="M162.61,38.05l.56.62a10,10,0,0,1-2.52,3.07l-.6-.58C160.11,39.47,160.83,38.33,162.61,38.05Z"/><path class="cls-60" d="M177.33,59.43,178,60a10.09,10.09,0,0,1-3.2,1.9l-.64-.57A10.26,10.26,0,0,1,177.33,59.43Z"/><path class="cls-61" d="M213.25,49.28l.56-.64c1.61.15,2.58.91,2.48,2.66l-.57.58A8.18,8.18,0,0,1,213.25,49.28Z"/><path class="cls-61" d="M64.46,33.52l.59.6c0,1.73-.89,2.52-2.53,2.64l-.63-.68Z"/><path class="cls-60" d="M133.39,78.09l-.62.6a5.31,5.31,0,0,1-2-2.59.69.69,0,0,1,.58-.65Z"/><path class="cls-62" d="M232.5,16.48l-.57-.62,2-2.6a1,1,0,0,1,.8.72C234.66,15.41,234.17,16.48,232.5,16.48Z"/><path class="cls-63" d="M82.71,14.9l-.5-.53a9,9,0,0,1,2-2.62l.57.6C84.92,13.88,84.41,14.86,82.71,14.9Z"/><path class="cls-64" d="M234.52,13.88l-.6-.62a4.08,4.08,0,0,1,1.57-1.93l.53.57C236.18,13.05,235.81,13.81,234.52,13.88Z"/><path class="cls-65" d="M235.45,91.27l-.89-1a1,1,0,0,1-.14-1.49l.59,0c.16-.24.31-.25.46,0A2.13,2.13,0,0,1,235.45,91.27Z"/><path class="cls-59" d="M169.72,116.08l.57-.62a4.48,4.48,0,0,1,1.42,2.15l-.56.72Z"/><path class="cls-66" d="M163.72,17.12c0-1.63,0-3.26,0-4.89A6,6,0,0,1,163.72,17.12Z"/><path class="cls-51" d="M87.39,38.69l-.72-.07c-.23-1.24.21-2,1.53-2.14l.14.81C88.43,38,87.9,38.36,87.39,38.69Z"/><path class="cls-67" d="M131.36,75.45l-.58.65-.56-.92.59-.61Z"/><path class="cls-53" d="M217.75,31l.48.59c.15,1.19-.39,1.45-1.42,1h0A1.59,1.59,0,0,1,217.75,31Z"/><path class="cls-68" d="M235.47,88.75H235c.24-1.32,1.25-1,2.1-1C236.67,88.3,235.74,88,235.47,88.75Z"/><path class="cls-69" d="M84.6,88.71c-.21-1.75,1.12-.67,1.72-.94C85.84,88.27,84.93,88,84.6,88.71Z"/><path class="cls-70" d="M197.94,72.11l2.81,0A3,3,0,0,1,197.94,72.11Z"/><path class="cls-71" d="M158.09,108.47c-2.66-1.09-5.33-2.17-8-3.27-1-.42-1.77-.7-2.84.3-1.53,1.45-3.35,1-5.06-.85,1.89.07,4.17,1.76,5.06-.89s-1.94-3.45-3.69-5.11c1.94-.47,3.39,1,4.88.21.46-.19.65.09.79.45-.56,2.32.34,3.66,2.51,4.72s4.79,1.51,6.57,3.43A.91.91,0,0,1,158.09,108.47Z"/><path class="cls-65" d="M149,99.43l-.55-.57c.93-2.87-1-4.34-3-5.9,1.14-1,2.58.25,3.51-.77l.44.6c.22,2.16,1.52,3.31,3.5,4a30.38,30.38,0,0,1,5.05,2.17c.78.43,1.7.77,1.86,1.85a1.16,1.16,0,0,1-.65.81c-1.68.24-3.06-.65-4.45-1.32A7.76,7.76,0,0,0,149,99.43Z"/><path class="cls-72" d="M148.51,87.65l-.08.71-2.49-2.07c1.06-1.12,2.89.51,3.56-1.25.43-1.09-.11-1.94-.52-2.84-.19-.48.11-.66.49-.8,2.2,1.18,4.78,1.81,6.12,4.23l0,.59c-.17.2-.45.42-.64.33C152.51,85.33,150.48,86.31,148.51,87.65Z"/><path class="cls-73" d="M158.09,108.47v-1c3-.4,8.22,2.42,9.24,5l-.65.59C164,111.15,161,110,158.09,108.47Z"/><path class="cls-74" d="M177.84,65.53l.66.54a34.36,34.36,0,0,1-9.63,2.5C171.64,66.91,174.78,66.33,177.84,65.53Z"/><path class="cls-73" d="M154.05,77.62l-1,.44c-.69.86-1.08,2-2.36,2.28a.83.83,0,0,1-.68-.7c1.32-2.13-.09-3.35-1.51-4.56,0-.49.09-.8.67-.58A23.6,23.6,0,0,0,154.05,77.62Z"/><path class="cls-75" d="M158.71,74l-.62.57c-1.76-.94-3.52-1.88-5.27-2.84-.28-.15-1-.11-.59-.75.24-.4.55-.4,1-.13C155.07,71.92,157.11,72.59,158.71,74Z"/><path class="cls-76" d="M129.89,64.54c-.72.49-1.55.44-2.3,1.34-1.22,1.45-1-.67-1.46-1.15a.64.64,0,0,1,.1-.81l2.55.11C129.09,64.33,129.67,64,129.89,64.54Z"/><path class="cls-77" d="M150,79.64l.53.58c.22.86-.5,1.07-1,1.43l-.55.55a2.39,2.39,0,0,1-.6-.42c-.41-.53-1.69-.48-1.32-1.46.27-.75,1.19-.07,1.78-.29C149.22,79.89,149.61,79.77,150,79.64Z"/><path class="cls-78" d="M149.16,74.5l-.67.58c-.58-.33-1.89-.49-1.42-1.18C147.68,73,148.53,74,149.16,74.5Z"/><path class="cls-79" d="M121.19,70.51c-.55-.38-.65-.78.12-.88,1-.12,1.93-.07,2.9-.1C123.43,70.57,122,69.54,121.19,70.51Z"/><path class="cls-80" d="M126.23,63.92l-.1.81a1.61,1.61,0,0,1-.71-2.3C126.51,62.5,126,63.4,126.23,63.92Z"/><path class="cls-81" d="M129.89,64.54,128.78,64c.86,0,1.78-.41,2.6.42C130.88,65.16,130.36,64.56,129.89,64.54Z"/><path class="cls-82" d="M163.18,28.55c-1.19,1.51-2.39,3-3.58,4.54-1.91,3.61-4.91,6.27-7.87,8.95-1.16,1.05-2.18-.23-3.18-.66s-.65-1.23-.44-2.12c.47-1.93,0-4.19,2.35-5.29a7.76,7.76,0,0,0,1.5-1.36l1.6-1.55a35.53,35.53,0,0,0,4.25-4.76c1.13-.75,1.33-2.44,2.82-2.82a11.25,11.25,0,0,0,1-1.14,1.6,1.6,0,0,1,1.87-.89c1,.26,1.23,1,1.33,1.91C165,25.32,163.83,26.85,163.18,28.55Z"/><path class="cls-77" d="M151,34c-3.1,1.15-1.59,4.38-2.82,6.43-.39.65,1.35.48,1.91,1.15.7.86,1.15,0,1.57-.45,2.66-2.66,5.29-5.35,7.94-8l.53.54c.32.87-.21,1.48-.74,2-1.61,1.6-2.93,3.47-4.51,5.09-1.41,1.43-3,2.7-3.74,4.68a1.47,1.47,0,0,1-1.35,1c-.38-.17-.64-.39-.38-.85.78-3,.78-3-4.94-3,.28-1.11,1.45-1.31,2.07-2.06.85-1,2.06-2.12,1.2-3.51s-2.42-1-3.75-.32c-.54.13-.75-.08-.61-.63.64-.7,1.59-1.28,2.36-.89,2.2,1.08,3.27-.59,4.65-1.59C150.92,33.25,151,33.61,151,34Z"/><path class="cls-71" d="M151.22,53.94l-2.94.55c1.08-2.22,4.73-3.26,2.23-6.26-.09-.49.22-.68.61-.82a2.55,2.55,0,0,1,2.45.9l0-.07c.16,1.95-1.15,3.55-1.32,5.43A.82.82,0,0,1,151.22,53.94Z"/><path class="cls-83" d="M158.14,26.63c-1.39,1.61-2.33,3.7-4.58,4.43.61-2.26,2.7-3.35,4-5.06C158.07,25.91,158.32,26.08,158.14,26.63Z"/><path class="cls-84" d="M151.09,47.73l-.58.5a3.08,3.08,0,0,1-.74,0c-1-.25-2.14,1.49-2.74.42-.5-.89,1.28-1.44,1.74-2.39a4,4,0,0,1,.64-.74l.53.7C150.42,46.67,151.12,46.92,151.09,47.73Z"/><path class="cls-84" d="M153.54,59.4,153,60c-.15-.06-.35-.08-.45-.19-.77-.83-2.33.53-2.56-.5s1.51-1.45,2.07-2.41c.39-.17.65,0,.88.32C153.29,57.89,153.9,58.52,153.54,59.4Z"/><path class="cls-85" d="M152.6,57.55l-.54-.67c.6-1.23.5-2.26-.84-2.94l.8-.57c.94-.46,1.57.19,2.25.65a1.79,1.79,0,0,1,.52.94A2.76,2.76,0,0,1,152.6,57.55Z"/><path class="cls-86" d="M158.14,26.63l-.58-.63,2.5-3.14.57.62A11,11,0,0,1,158.14,26.63Z"/><path class="cls-65" d="M143.38,36l.61.63c-.5.48-.89,1.15-1.94,1C142,36.69,142.78,36.42,143.38,36Z"/><path class="cls-65" d="M151,34l-.61-.44c.34-.63.77-1.09,1.57-.94A1.11,1.11,0,0,1,151,34Z"/><path class="cls-4" d="M92.41,121.1a9.37,9.37,0,0,0-4-2.53c-.52-1.08-1.64-1.27-2.56-1.72-3.71-1.81-7.29-3.9-11.19-5.28-4.59-1.81-8.81-4.34-13.16-6.61-3.58-3.26-4.7-9.85-2.46-14.56a21.14,21.14,0,0,0,3.39-3.68,6.33,6.33,0,0,0,2.68-5.37c0-2.78,0-5.56-.25-8.35-1.08,1.47-.77,3.16-.68,4.71.11,1.87-.7,2.09-2.21,1.82a11.62,11.62,0,0,1-4-1.43,15.66,15.66,0,0,1-1.46-2c-1.75-3.43-4.13-5.65-8.36-4.82a2.63,2.63,0,0,1-2.32-.73c.41-1.63,1.82-.27,2.58-.87a1.53,1.53,0,0,0,1.06-2.17A2.38,2.38,0,0,0,47.28,66a11.35,11.35,0,0,0-6.23,1.06,2.81,2.81,0,0,1,2.09-3.54,40,40,0,0,0,7.08-3.14,5.85,5.85,0,0,1,6.19,0,10.7,10.7,0,0,0,9,3.58,107.51,107.51,0,0,1,21.58.88c4,.66,8,.32,11.46-2.45,1.75-1,3.49-2,5.26-2.91,1.07-.57,2.29-1.57,3.26,0s.23,4.49-1.44,5c-3.37,1-6.76,2-10.14,3-.69.2-1.48.19-2,1,.93.8,1.79.07,2.54-.12q4.76-1.23,9.44-2.68c2-.63,2.91-.15,2.93,2.14,0,5.19.12,5.17-5,4.38-3-.45-6-.86-9-1.27a2.28,2.28,0,0,0-.7.16c-.06,1,.7.83,1.2.91,3.4.55,6.8,1.13,10.22,1.55,1.77.22,2.39.95,2.33,2.77-.16,5.19-.51,5.42-5,2.94A38,38,0,0,0,96.05,76a14.29,14.29,0,0,0-5.87-2.2c-.21,1.16,1,.89,1.12,1.61a6.46,6.46,0,0,1-2.51,1.48c-1.33.58-2.36,1-3.38-.87C84.28,74,82,72.9,79.83,72a9.37,9.37,0,0,0-1.29-.21,2.07,2.07,0,0,1,.64.74c1.6,1.21,3.55,1.93,4.94,3.43.81.88,1.66,1.84.63,3.08s-1.94.51-2.94,0-2.28-1-3.42-1.53c-2.13.32-3.28-1.24-4.58-2.4,0,0,0,.06,0,.08,1.63,1.21,2.57,2.58,1.29,4.57a3.55,3.55,0,0,1-1.44.9c-.75.33,0,.59.08.88a3.44,3.44,0,0,1,1,3.09,1.54,1.54,0,0,1-.16.47,5,5,0,0,0-.53,4c.37,1.06.67,2.53-.23,3-2,1.19-.86,2.26-.3,3.5a3.85,3.85,0,0,1,0,3.17,2.34,2.34,0,0,1-2.61,1c1,1.19,2.37,2.28,1.52,4a3,3,0,0,1-2.91,1.94c2.13-1,4.72-2.46,7.43-.47,4.19,1.77,8.4,3.48,12.41,5.64.78.6,1.67,1.09,1.92,2.16l3,3c.86,1.59,1.93,3.08,2.12,5,.09.81.39,1.78-.47,2.26s-1.27-.49-1.84-.89S93,121.56,92.41,121.1Z"/><path class="cls-4" d="M82.71,14.9a6.06,6.06,0,0,0,2-2.55c1.85-1.22,2.59-.95,2.87,1.16.37,2.84-.71,5.36-1.93,7.82-.35,2.13-1.92,3.52-3.1,5.15-2.14,2.7-4.7,5-7.08,7.49-1.21,1.25-2.4,2.32-4.38,1.69-1.1-.35-2.1.37-2.93.71,1.3-.59,2.84-1.41,4.29-.13,1.27,1.11.63,2.45,0,3.69-.33.49-.77.89-1.26,1.5,1.66,0,3.41,0,3.74,2,.26,1.63-1,2.77-1.72,4.11,1.83,0,3.3.36,3.31,2.55-.16,1.15-1,2-1.43,3.06.49.59,1.4.41,1.86,1a1.66,1.66,0,0,1-.37,2.68l-2.33,2.19c.35.9,1,.49,1.51.45.91-.06,1.75.13,1.84,1.22A1.72,1.72,0,0,1,76,62.83c-2.51.09-5,0-7.55,0-.76,0-1-.34-1.06-1a4.71,4.71,0,0,1,0-.75,14.2,14.2,0,0,0-5-13.25c-.58-3.68-2-7.36.08-11l2.53-2.64c2.47-1.94,4.12-4.6,6.07-7l6.56-6.63A20.12,20.12,0,0,0,82.71,14.9Z"/><path class="cls-87" d="M87.84,51.31a13.48,13.48,0,0,1-4.7,6,3.6,3.6,0,0,1-3.49,2.44,2.35,2.35,0,0,1-2.46-2.33,4.49,4.49,0,0,1,1.57-3c2.11-1.59,3.4-4.14,6-5.13.91-.64,1.8-1.81,3-.93S88.09,50.31,87.84,51.31Z"/><path class="cls-87" d="M83.82,57.42a7.21,7.21,0,0,0,.91-.25c1-.39,2-.67,2.75.19s-.16,1.71-.58,2.49c-.2.37-.43.71-.65,1.07-1.93,3.22-4.93,2.15-7.77,1.89-.31-1,.9-1.17,1.22-1.84C80.58,59.21,82.46,58.62,83.82,57.42Z"/><path class="cls-88" d="M83.82,57.42c-.68,2-2.8,2.3-4.12,3.55l0-1.17,3.49-2.44Z"/><path class="cls-83" d="M79.26,54.88l-2.07,2.59-.55-.6a2.67,2.67,0,0,0,0-2.5c-.21-.44.06-.64.4-.82a2.12,2.12,0,0,1,1.72.41A1.4,1.4,0,0,1,79.26,54.88Z"/><path class="cls-87" d="M152.6,57.55l2.08-2.65a14.79,14.79,0,0,1,5.52-5.58c.91-.66,1.86-1.85,3-1s.43,2.12,0,3.21l-.63,1.6c-1.52,2.41-3.86,3.93-6,5.63-1,.2-1.61,2.38-3,.59C153.41,58.69,151.86,58.7,152.6,57.55Z"/><path class="cls-89" d="M156.61,59.48c1.22.08,1.76-1.08,2.71-1.53,1.1-.52,2.1-1.89,3.34-.86,1.4,1.16-.27,2.21-.55,3.31-2,3.42-5.06,3-8.25,2.34C154.06,61,156.31,61.07,156.61,59.48Z"/><path class="cls-4" d="M259.23,66.58c-.3,2,.32,4-.49,6-3.74.18-7.33-.87-11-1.31a6.94,6.94,0,0,0-4,.11c3.06,1.12,5.75,1,8.29,1.65.65.16,1.34.16,2,.28,4.48.79,4.55.93,4,5.53-.23,2.08-1.27,2.39-2.92,1.55-1.8-.91-3.55-1.89-5.33-2.84a28,28,0,0,0-9.49-4c1.44,1.33,2.26,2.29.52,3-2,1-3.82,1.28-5.27-1-.42-.66-1-1.59-2.1-1.5-1.28-.59-2.41-1.47-3.59-1.93,1.16.72,2.79,1,3.51,2.62a7.14,7.14,0,0,1,.77.55c1.12,1,2.62,2,1.47,3.73s-2.4.38-3.53-.24c-2-1.13-4.38-1.66-6.26-3.11-.52-.19-1-.48-1.39-.66.51.16.67.72.84,1.26,1,2.45.68,3.49-1.37,3.87-.56.11-1.5-.51-1.57.55,0,.75.94.7,1.43,1.07,2.51,1.41,2.77,3.61.33,4.71-1.6.73-.31,1.31-.33,2a4.7,4.7,0,0,1,.51,3.83c-.56,1.33-1.44,1.5-2.58.75,1.91,1.27,3.41,2.8,3,5.39-.62,1.13-1.7,1.23-3,1.25,1.05,1.33,2.2,2.59,1.56,4.38a2.85,2.85,0,0,1-2.68,1.83.23.23,0,0,0,.37,0c2.72-2.85,5.43-1,8.15,0,.39.14.76.34,1.15.48,3,1.27,5.95,2.71,8.86,4.18,1,.5,2,.93,2.38,2.09,2.53,2.24,4.92,4.58,5.71,8.06.23,1,.64,2.16-.39,2.76-.88.52-1.4-.63-2-1.09s-1.44-1.14-2.16-1.71a18.78,18.78,0,0,0-6.46-4.11,35.33,35.33,0,0,0-7.29-3.41L215.77,107c-7.65-3.5-7.56-9.74-6.52-15.59l5-5.67A5.8,5.8,0,0,0,216,81.15c0-2.7,0-5.41-.22-8.13-1.07,1.53-.67,3.27-.65,4.9s-.58,1.81-1.94,1.65a7.13,7.13,0,0,1-5.95-3.68c-1.05-1.9-2.2-3.73-4.47-4.4-1.7-.53-3.48.11-5.18-.36-.33-.22-.93,0-1.05-.57-.15-.77.41-.71.89-.78.7-.11,1.48.29,2.11-.32a.75.75,0,0,0,.1-.36c1.06-1.29.85-2.07-.79-2.67a6.43,6.43,0,0,0-5,0c-1.74.77-2.2.22-1.86-1.48.61-1.22,1.89-1.47,3-1.94,1.4-.62,3-.83,4.29-1.66,3.54-2.33,6.82-2.51,10,.55a6.68,6.68,0,0,0,5.22,2c8-.1,16-.36,23.9,1a14.86,14.86,0,0,0,11.86-3c1.46-.81,2.91-1.65,4.39-2.42,1.15-.6,2.45-1.66,3.34.25s.24,4.2-1.51,4.74c-3.41,1.06-6.84,2-10.26,3.05-.14,1.33.71.5,1.16.54,3-.81,6-1.63,9-2.43C257.5,65.34,258.67,65,259.23,66.58Z"/><path class="cls-4" d="M216.81,32.62a1.19,1.19,0,0,0,1.42-1c1.58-1.79,3.42-3.37,4.65-5.47l4.62-4.61a23.07,23.07,0,0,0,5-5,7,7,0,0,0,2-2.6l1.5-2c2-1.1,2.31.31,2.47,1.72.4,3.54-1.14,6.48-3,9.29a5.69,5.69,0,0,1-1.55,3c-1,1.34-2.3,2.46-3,4a15.15,15.15,0,0,1-4.24,4.24c-1.8,1.5-3.79,2.25-5.7,1.48.8,0,2.17-.2,2.8,1.22.79,1.77-.32,3-1.42,4.18-.23.24-.07-.13-.15.18-.13.47.31.14.48.25a5.39,5.39,0,0,1,2.08.26c2.55,2,.59,3.77-.27,5.61.76.43,1.69.17,2.31.81,1,1.31,1.19,2.54-.44,3.53l-2.64,2.42c1.47.65,3.33-1,4,.83s-.86,2.69-2,3.63a.67.67,0,0,0-.28.86c.2.41.53.3.84.19a2.8,2.8,0,0,1,2.17.32,1.33,1.33,0,0,1,0,2c-1.42,1.64-3.31.84-5,.84-5.14,0-5.14,0-5.19-5.2,0-2.29-.17-4.55-2-6.28l-2.48-2.66c-1.29-2.63-1.27-5.5-1.43-8.32-.11-1.88.88-3.3,2.12-4.63C215.36,34.75,216.75,34.16,216.81,32.62Z"/><path class="cls-89" d="M234.63,58a8.84,8.84,0,0,0,.85-.48c.84-.65,1.81-1.14,2.69-.36s.14,1.8-.29,2.67l-.34.64c-2.12,3.53-5.29,3-8.53,2.2C229.92,59.91,232,58.63,234.63,58Z"/><path class="cls-90" d="M234.63,58,229,62.62l-.58-.68,0-2,.53-.55a4.46,4.46,0,0,0,2.42-1.06c.75-.57,1.49-1.38,2.63-.94Z"/><path class="cls-91" d="M48.37,69.66c-.65.92-1.94-.07-2.58.87-.59-.37-.68-.78.11-.88A18.52,18.52,0,0,1,48.37,69.66Z"/><path class="cls-82" d="M236.52,102.37c2,1.54,4.31,2.64,5.74,4.81a18,18,0,0,1,1.39,2.65c.33.75.75,1.66.17,2.39-.77,1-1.41-.65-2.22-.29-4-1.62-7.6-4.11-11.77-5.35-1.39-.8-2.94-1.25-4.38-2-2.92-1.44-3.32-3.81-1-6a2.09,2.09,0,0,1,2.94-1c1.74.62,3.38,1.44,5.1,2.1C234,100.42,235.72,100.68,236.52,102.37Z"/><path class="cls-87" d="M224.41,92.9c1.16-2,2.58-1.47,4.32-.74,2.4,1,4.47,2.54,6.76,3.7,1.2,1.17,2.48,2.26,3.56,3.53.73.85,1.77,2,.77,3.11s-1.68-.68-2.65-.66c-1.76-.16-3.11-1.43-4.8-1.79A51.92,51.92,0,0,0,226,97.31c-1.68-.5-2.08-2.08-2.79-3.3C222.77,93.27,223.74,93,224.41,92.9Z"/><path class="cls-92" d="M230,106.36c4.32.93,8,3.13,11.63,5.57l0,.64-11.62-5.63c-.14-.14-.18-.27-.13-.39S229.92,106.36,230,106.36Z"/><path class="cls-77" d="M232.49,99.79c1.84,0,3.25,1.07,4.68,2l-.65.53-4.06-2a.36.36,0,0,1-.1-.39C232.41,99.85,232.45,99.79,232.49,99.79Z"/><path class="cls-82" d="M149.53,81.65c-.23-.87.81-.85,1-1.43a1.42,1.42,0,0,0,1-1.32c0-1.41.79-1,1.55-.84,1.77.93,3.56,1.84,5.3,2.82a18.47,18.47,0,0,1,2.71,1.8c1.07.88,2.17,2.08,1.39,3.43s-2.48,1-3.87.65c-1-.28-1.77-1.32-3-1.13C153.75,84,151,83.86,149.53,81.65Z"/><path class="cls-87" d="M148.51,87.65c1.74-3.48,4.33-2.77,7.06-1.43,1.44,1.47,4.54,1.78,3.51,5a4.08,4.08,0,0,1-4.43.42C152.33,90.73,149.76,90.21,148.51,87.65Z"/><path class="cls-82" d="M225.13,80.73a1.56,1.56,0,0,0,1.49-1.17c.36-2.29,1.49-1.67,2.85-1a40.35,40.35,0,0,1,6.92,4c1.12.88,2.34,2,1.34,3.59s-2.58,1-4,.57a13,13,0,0,1-2.11-1.13,8,8,0,0,1-5-1.43C225.55,83.5,224,82.58,225.13,80.73Z"/><path class="cls-89" d="M234.42,88.78l.14,1.49c-.43,2.12-1.94,2-3.48,1.59-2.78-.73-5.56-1.5-7.17-4.22.43-2.59,2.29-3.89,4.36-3,1,.4,2.17.44,2.65,1.64Z"/><path class="cls-65" d="M230.92,86.28c-.3-.15-.6-.31-.91-.45-3.58-1.59-3.58-1.59-6.1,1.81l-.09.72c-.89-.56-1.46-1.51-2.65-1.84,1.13-1.35,3.29.32,3.82-1.79.34-1.35-.52-2.13-1.17-3l1.31-1a2.72,2.72,0,0,0,2.19,2.92,38.11,38.11,0,0,1,4.32,2Z"/><path class="cls-93" d="M233.43,74.67c-1.75-1.39-4.13-1.88-5.55-3.79,2,.83,4.32,1,5.63,3.1Z"/><path class="cls-94" d="M225.33,76.2l-3.53-2.44a4.09,4.09,0,0,1,4.08,1.84Z"/><path class="cls-82" d="M238.46,37.49,236,40.66c-2.32,2.29-4.63,4.6-7,6.86a1.77,1.77,0,0,0-.59,1.31l-.3.19c-.73.18-1.06-.4-1.49-.79-1.63-.52-2-1.24-1.27-3a13.29,13.29,0,0,1,3.41-5.08,36.82,36.82,0,0,0,4.36-4.8,5.12,5.12,0,0,1,2.94-2.2l1.42-1.39c.46-.44.78-1.27,1.58-1s1,1.21,1.09,2.09C240.24,34.63,239.07,36,238.46,37.49Z"/><path class="cls-82" d="M234,57.37a29.5,29.5,0,0,0-3.11,2.27c-.89.83-1.36.25-1.94-.27-2-1.4-.52-2.77.4-3.56,2.76-2.35,5.09-5.11,7.68-7.61,2.61-.46,2.35,1.25,1.88,2.73A12.7,12.7,0,0,1,234,57.37Z"/><path class="cls-89" d="M228.39,48.83c2.07-.55,3.07-2.46,4.63-3.64.64-.49,1.23-1.3,2.18-.67a1.9,1.9,0,0,1,.61,2.48c-1.34,3.08-3.85,5.25-6.46,7.15-.72.53-2.19-.69-2.92-1.75.77-1.16.53-2.89,2-3.65Z"/><path class="cls-95" d="M228.45,48.75c-.89,1.09-.64,2.82-2,3.65l-.1-.73c.28-1.12,1-2.25-.07-3.34a.43.43,0,0,1,.72-.09C227.44,48.51,227.86,48.88,228.45,48.75Z"/><path class="cls-82" d="M167.33,112.47c-2.68-2.4-6-3.65-9.24-5-2.88-1.23-5.79-2.41-8.64-3.71a2.78,2.78,0,0,1-.45-4.37c.73-1.51,1.69-1.8,3.26-1,2.22,1.11,4.56,2,6.85,2.93a1.55,1.55,0,0,1,2,1c2.11,1.58,4.4,3,6.06,5.08.44,1.16,1,2.3,1.3,3.49C168.74,111.82,168.69,112.72,167.33,112.47Z"/><path class="cls-87" d="M159.79,100.8c-2.76-1.79-5.9-2.74-8.91-4-2-.84-2.66-2.55-1.5-4,.64-1.27,1.46-1.6,2.91-1a32.52,32.52,0,0,1,10,6.1,7.91,7.91,0,0,1,1.32,1.51c.61.94,1.75,2,.77,3.11s-1.68-.68-2.64-.63C161,101.63,160.14,101.72,159.79,100.8Z"/><path class="cls-96" d="M159.79,100.8a3.64,3.64,0,0,1,2,1.06l-.61.53-2-1Z"/><path class="cls-70" d="M197.56,71.13c1.7.46,3.5-.46,5.18.36C201,71.42,199.23,72.05,197.56,71.13Z"/><path class="cls-97" d="M199.51,69.46c-.68,1.25-2.27,0-3,1.1-.38-.47-.54-.89.29-1S198.61,69.51,199.51,69.46Z"/><path class="cls-82" d="M85.81,22.11c.88-.32,1.71-1.23,2.73-.41s.92,2.08.7,3.22c-.36,1.91-1.71,3.35-2.51,5.06-.14,1.81-1.66,2.77-2.5,4.16a2.74,2.74,0,0,1-.51.51c-2.64,1.61-4,4.51-6.23,6.49-2,1.77-3.62,1.54-5.14-.91.32-1.1,1.06-2.14.64-3.38-.28-.83.29-1.23.8-1.67a65.55,65.55,0,0,0,8.57-8.82C83.7,25.1,84.32,23.25,85.81,22.11Z"/><path class="cls-82" d="M88.2,36.48c-.84.47-1.06,1.4-1.53,2.14-2.27,3.07-5.53,5.27-7.47,8.63a1.4,1.4,0,0,1-.55,1c-1.68,1.3-3-.1-4.31-.71a.8.8,0,0,1-.31-1.1c.77-1.45.75-3.24,2.07-4.45,2.71-2.48,5-5.37,7.66-7.9l-.07.07c1.44-1,2-2.91,3.73-3.51,2,.38,2,1.84,1.72,3.37A15.21,15.21,0,0,1,88.2,36.48Z"/><path class="cls-98" d="M85.81,22.11a11.74,11.74,0,0,1-3.08,4.44.62.62,0,0,1-.56-.56,30,30,0,0,1,3.52-4.66Z"/><path class="cls-16" d="M87.42,30.63c-1.24,1.17-1.79,3.07-3.73,3.51.38-1.85,2-2.8,3-4.16Z"/><path class="cls-82" d="M84.6,81.73c1.21,1.44,3.54,2.4,2.15,5a5.48,5.48,0,0,1-5.94-1,8.41,8.41,0,0,1-3.48-1c-1.86-.68-3.5-1.55-3.51-3.89.24-.47.76-.64,1.09-1a5.73,5.73,0,0,0,.78-1.54c.49-1.27,1.21-1.18,2-.19Z"/><path class="cls-99" d="M77.66,78.07c-.65,0-1.61-.82-1.59.75a1.4,1.4,0,0,1-.94,1.33c-.53.17-.66-.05-.52-.53,1.49-2.61-.69-3.63-2.15-5,.05-.36.38-.4.63-.52,1.86,1,3.29,2.64,5.3,3.39Z"/><path class="cls-95" d="M79.18,72.52C78.42,72,76.51,72,77,71c.46-.85,1.9.36,2.79,1Z"/><path class="cls-74" d="M247.29,68.08a4.41,4.41,0,0,1-3.23.6,2.15,2.15,0,0,1,2.07-1.14Z"/><path class="cls-4" d="M87.26,103.43c2.52,2,5.22,3.81,5.65,7.43.12,1,.28,1.64-1,1.62a6.45,6.45,0,0,1-2.53-1.21c-4.07-2-8.14-4-12.37-5.59-2.23-.75-4.34-1.5-5-4.25a1.63,1.63,0,0,1,1-2.18c1-2.23,2.58-2.13,4.5-1.32s3.76,1.7,5.72,2.36C84.59,101.25,86.42,101.71,87.26,103.43Z"/><path class="cls-82" d="M77.15,91.75l5.06,2.51c2.24,1.86,5,3.2,6.46,5.86.59,1.06,1.59,2.38-.73,2.72-1.77-.29-3.11-1.49-4.7-2.16-2.9-1.06-5.63-2.49-8.58-3.42-1.38-.44-2.28-3.13-1.6-4.16C74.74,90.51,75.22,90.35,77.15,91.75Z"/><path class="cls-94" d="M83.72,100.43a13,13,0,0,1,4.22,2.41l-.68.59L83,101C83.09,100.63,83.49,100.63,83.72,100.43Z"/><path class="cls-88" d="M89.79,111.07a3.43,3.43,0,0,1,2.13,1.41l-.65.64-2.11-1.53C89.21,111.23,89.53,111.19,89.79,111.07Z"/><path class="cls-82" d="M151.09,47.73c-.05-.75-1.79-.19-1.15-1.49,1.39-4.65,5.62-7,8.45-10.52.57-.7,1.16-1.39,1.74-2.09s1.14-1.18,1.73-1.75.85-1.46,1.73-1.12,1.12,1.33,1.11,2.31c0,2-1.33,3.35-2.09,5l-2.56,3.11c-2,2-4,3.92-6,5.86a1.31,1.31,0,0,0-.52,1.29C152.77,48,151.77,48.58,151.09,47.73Z"/><path class="cls-100" d="M154.05,54.35c-1,.38-1.19-1-2-1-.79-2.09.53-3.56,1.5-5.13,1.72-.07,2.32-1.7,3.49-2.53.83-.58,1.47-1.93,2.68-1.18,1.37.84.82,2.16.35,3.34-.12.3-.3.58-.45.87A10.91,10.91,0,0,1,154.05,54.35Z"/><path class="cls-85" d="M154.05,54.35l5.54-5.61.61.58a24.36,24.36,0,0,1-5.52,5.58Z"/><path class="cls-89" d="M78.66,47.78l.54-.53c1.25.15,1.63-1,2.41-1.58s1.48-2,2.73-1.08.69,2.09.28,3.21c-.11.31-.28.6-.42.9a13.52,13.52,0,0,1-5.55,5.61c-.65.34-1-.3-1.46-.49-1.61-.31-1.84-1.24-1.14-2.58A4.44,4.44,0,0,1,78.66,47.78Z"/><path class="cls-101" d="M78.65,54.31,84.2,48.7l.58.6a25.63,25.63,0,0,1-5.52,5.58Z"/><path class="cls-82" d="M226.33,33.62l4.13-4.08a29,29,0,0,0,3.24-3.75c.92-.62,1.18-1.92,2.35-2.29,1-.88,1.46-2.69,3.39-2,1.18,1.5.89,3.06.27,4.69-.93,2.46-2.79,4.28-4.21,6.4-2.2,3.53-5.32,6.24-8.17,9.18-1,1-1.8.57-2.7,0-1.29-.24-1.87-.7-1.32-2.22C224.07,37.45,224.06,35,226.33,33.62Z"/><path class="cls-102" d="M224.91,41.66a1.9,1.9,0,0,0,2.33-.62c2.7-2.86,5.5-5.64,8.26-8.45l.54.52A69.72,69.72,0,0,1,227.65,42c-1.44,1.32-1.45,3.11-2.22,4.63-.42.82,1.45.64,1.55,1.63l-.72.09a10.6,10.6,0,0,1-2.25,0c-.63-.12-1.09,1.29-1.62.23-.44-.88.77-.89,1.09-1.42.94-1.52,2.6-2.81,1.37-4.92a.36.36,0,0,1-.17-.44Z"/><path class="cls-71" d="M232.49,99.79l0,.58c-1.82-.71-3.67-1.35-5.44-2.17-1.05-.48-1.72-.47-2.17.67-.48,0-.9-.09-.56-.74-.08-2.33-1.4-3.84-3.74-5.06,1.44-.65,2.82,0,3.78-.88l.08.71c-.93,1.07,0,3.13,1.81,3.88A28.5,28.5,0,0,1,232.49,99.79Z"/><path class="cls-103" d="M80.15,86.3c.8.53,1.62,1,2.41,1.6a2.39,2.39,0,0,1,1.09,2.84c-.4,1.28-1.6,1.46-2.68,1.35a18.68,18.68,0,0,1-3.12-.89c-1.62-.24-3.11-.38-4.16-2.11s-.86-2.65.61-3.66a2,2,0,0,1,2.26-1.21C77.87,84.71,79.26,85.07,80.15,86.3Z"/><path class="cls-71" d="M74.68,85.87c-1.4,1.39-1.08,3.23.75,4.19.79.41,1.61.76,2.42,1.14l-.7.55c-2.33-1.53-3.23.89-3.84,2s.49,2.51,2,3.11c2.83,1.16,5.62,2.41,8.43,3.62L83,101a52.17,52.17,0,0,1-5.6-2.22c-1.72-.89-3.07-1-4.26.69a.43.43,0,0,1-.09-.72c.58-2.71-1-4.37-3.09-5.79,1.14-1.07,3.27.75,3.61-1.53s-1-3.72-3.1-4.87c1.33-.78,3.07-.3,3.7-1.86C75.07,84.78,74.87,85.33,74.68,85.87Z"/><path class="cls-69" d="M80.15,86.3l-3.5-1.64c0-.93.49-.76,1-.48a7.57,7.57,0,0,1,3.12,1.48Z"/><path class="cls-104" d="M236.05,23.5a7.81,7.81,0,0,1-2,2.61.71.71,0,0,1-.6-.63c.68-.86,1.35-1.72,2-2.57Z"/><path class="cls-93" d="M73.05,98.76l.09.72c-.92,1.07-.44,3.54.9,4.33,1,.6,2.12,1.07,3.19,1.6-.06.33-.36.37-.58.51-.84.25-1.4-.4-2.07-.66a2.24,2.24,0,0,0-2.78.3c-1.35,1.26-2.94.86-4.44.09-.28-.14-.62-.32-.43-.74s.45-.38.81-.24a7.41,7.41,0,0,0,1.68.52,2.08,2.08,0,0,0,2.3-1.15,2,2,0,0,0-.32-2.53c-1-.94-2-1.84-3.27-3C70.1,98.28,71.5,100.39,73.05,98.76Z"/><path class="cls-92" d="M76.65,105.92l.58-.51a73.38,73.38,0,0,1,12.56,5.66l-.63.52Z"/><path class="cls-85" d="M77.69,84.18l-1,.48c-1.23-.53-1.43.63-2,1.21l-.51-1.16a4,4,0,0,0-1.16-3c.18-.64.23-1.44,1.26-1C74.13,83.14,76.2,83.38,77.69,84.18Z"/><path class="cls-80" d="M54.54,64.57a2.69,2.69,0,0,0-2.67,2c-1.09-.49-1-1.45-1.34-2.16a.46.46,0,0,1,.29-.39l2.08,0C53.38,64.43,54.14,63.9,54.54,64.57Z"/><path class="cls-77" d="M74.27,80.72l-1.26,1c-.54-.34-1.52-.42-1.46-1.17.1-1.11,1.08-.28,1.63-.48s.95-.29,1.43-.44l.52.53C75,80.62,74.67,80.7,74.27,80.72Z"/><path class="cls-65" d="M54.54,64.57l-1.64-.52c.66,0,1.32-.11,2-.11.48,0,1.22.06,1,.72S55,64.68,54.54,64.57Z"/><path class="cls-75" d="M50.82,64a1.58,1.58,0,0,1-.29.39c-1-.44-.81-1.18-.51-2C51,62.64,50.54,63.5,50.82,64Z"/><path d="M73.09,74.14l-.63.52c-.53-.07-1.19-.3-.8-.86S72.64,73.83,73.09,74.14Z"/><path class="cls-99" d="M78.66,47.78c-.52,1.27-2.2,1.86-2.08,3.51-.88-.06-.71-.59-.5-1.13C75.43,46.63,73,49,71,48.74c.9-1,1.69-1.74,2.36-2.6s1.51-2.2.71-3.45-2.1-.6-3.21-.3c-.54.14-1,.61-1.82.24.65-1.4,2.11-2,3-3.06a.64.64,0,0,1,.55.6c1.42,1.66,2.66,2,4.49.21,2.15-2.16,3.77-4.94,6.68-6.31-1,2.79-3.6,4.27-5.42,6.39-1.29,1.49-3.11,2.59-3.26,4.86,0,.64-1.22,1.29-.43,1.8s1.77,1.57,3.07.79A2.36,2.36,0,0,1,78.66,47.78Z"/><path class="cls-105" d="M72.59,40.17l-.55-.6c.88-2.62.09-3.84-2.13-3.39-1.19.25-1.93,1.51-3.58,1.5,1.34-2,3-2.93,5-2.51a2.66,2.66,0,0,0,2.8-1q4-4.09,8.08-8.2l.56.56a56.81,56.81,0,0,1-6.65,7.22c-1.3,1.31-3.24,2.23-2.58,4.7A1.9,1.9,0,0,1,72.59,40.17Z"/><path class="cls-98" d="M76.08,50.16l.5,1.13a1.58,1.58,0,0,0,.61,2.53l-.56.55c-1.14-.7-2.37.22-3.8-.12C74,52.72,75.58,51.86,76.08,50.16Z"/><path class="cls-84" d="M224.29,98.13l.56.74c-2.11,2.37-1.71,3.91,1.34,5.56,1.25.67,2.74.85,3.78,1.93l0,.58-3.69-1.44c-1.34-.52-2.48-1.2-3.92.28-1.19,1.23-3,.65-4.68-1,1.84-.13,4.15,1.7,5.06-.94s-2-3.45-3.59-5.15C221,98,222.94,100.29,224.29,98.13Z"/><path class="cls-106" d="M205.27,64.54c-.61.21-1.54.24-1.77.65-1.57,2.9-1.45.07-2-.54a.51.51,0,0,1,.1-.77l2.53.16C204.48,64.32,205.05,64,205.27,64.54Z"/><path class="cls-107" d="M201.63,63.88l-.1.77c-.24-.23-.57-.42-.69-.69-.23-.51-.57-1.34.22-1.43S201.42,63.41,201.63,63.88Z"/><path class="cls-81" d="M205.27,64.54l-1.11-.5a3.75,3.75,0,0,1,3.08.52C206.41,65.09,205.83,64.61,205.27,64.54Z"/><path class="cls-95" d="M226.33,33.62a26.64,26.64,0,0,0-2.39,5.65c-.51,1.62.28,1.75,1,2.39l-.06.06c-.78.52-1.71,0-2.5.39a3.44,3.44,0,0,0-.92.31c-.5.33-1.11.77-1.51.13-.48-.8.56-.78.88-1.16,1.12-1.32,3.56-2.31,2.31-4.42s-3.16-.34-4.9.06a2,2,0,0,1,2-1.83A8.59,8.59,0,0,0,226.33,33.62Z"/><path class="cls-98" d="M233.43,25.48l.6.63c-1.11,1.23-1.65,3.05-3.57,3.43C230.72,27.66,232.43,26.83,233.43,25.48Z"/><path class="cls-108" d="M222.35,42.11c.75-.69,1.64-.38,2.5-.39v.53Z"/></svg>