<svg id="Layer_1" data-name="Layer 1" xmlns="http://www.w3.org/2000/svg" viewBox="0 0 300 300"><defs><style>.cls-1{fill:#005baa;}.cls-2{fill:#fefefe;}.cls-3{fill:#030101;}.cls-4{fill:#030202;}.cls-5{fill:#040203;}.cls-6{fill:#060203;}.cls-7{fill:#030506;}.cls-8{fill:#05080a;}.cls-9{fill:#06060a;}.cls-10{fill:#060a0e;}.cls-11{fill:#080407;}.cls-12{fill:#020305;}.cls-13{fill:#080c0f;}.cls-14{fill:#080d11;}.cls-15{fill:#0c1013;}.cls-16{fill:#0b050a;}.cls-17{fill:#030203;}.cls-18{fill:#0a0509;}.cls-19{fill:#091016;}.cls-20{fill:#04080c;}.cls-21{fill:#070809;}.cls-22{fill:#090306;}.cls-23{fill:#080e14;}.cls-24{fill:#080708;}.cls-25{fill:#0c070c;}.cls-26{fill:#0c1319;}.cls-27{fill:#0b0509;}.cls-28{fill:#0b0f12;}.cls-29{fill:#0b1115;}.cls-30{fill:#0d0f11;}.cls-31{fill:#0e070c;}.cls-32{fill:#0e141a;}.cls-33{fill:#0a070d;}.cls-34{fill:#0a060a;}.cls-35{fill:#0b1117;}.cls-36{fill:#08080b;}.cls-37{fill:#0c1217;}.cls-38{fill:#090d11;}.cls-39{fill:#0d1216;}.cls-40{fill:#0c060b;}.cls-41{fill:#11060b;}.cls-42{fill:#0d060a;}.cls-43{fill:#0e171f;}.cls-44{fill:#000e1b;}.cls-45{fill:#12191f;}.cls-46{fill:#080808;}.cls-47{fill:#131313;}.cls-48{fill:#161616;}.cls-49{fill:#f8f8f8;}.cls-50{fill:#181818;}.cls-51{fill:#120708;}.cls-52{fill:#121212;}.cls-53{fill:#2b2b2b;}.cls-54{fill:#170707;}.cls-55{fill:#0f0f0f;}.cls-56{fill:#1c1c1c;}.cls-57{fill:#1e1e1e;}.cls-58{fill:#242424;}.cls-59{fill:#414141;}.cls-60{fill:#212121;}.cls-61{fill:#252525;}.cls-62{fill:#1d1d1d;}.cls-63{fill:#1a1a1a;}.cls-64{fill:#262626;}.cls-65{fill:#313131;}.cls-66{fill:#2e2e2e;}.cls-67{fill:#454545;}.cls-68{fill:#353535;}.cls-69{fill:#030303;}.cls-70{fill:#616161;}.cls-71{fill:#a3a3a3;}.cls-72{fill:#373737;}.cls-73{fill:#4a4a4a;}.cls-74{fill:#eb1313;}.cls-75{fill:#e21212;}.cls-76{fill:#df1212;}.cls-77{fill:#da1212;}.cls-78{fill:#dd1212;}.cls-79{fill:#d81111;}.cls-80{fill:#de1212;}.cls-81{fill:#d81212;}.cls-82{fill:#240303;}.cls-83{fill:#e01212;}.cls-84{fill:#090203;}.cls-85{fill:#d51111;}.cls-86{fill:#d61111;}.cls-87{fill:#e51212;}.cls-88{fill:#220303;}.cls-89{fill:#d71111;}.cls-90{fill:#6c0909;}.cls-91{fill:#c91010;}.cls-92{fill:#b50f0f;}.cls-93{fill:#420505;}.cls-94{fill:#0e0101;}.cls-95{fill:#150202;}.cls-96{fill:#bf0f0f;}.cls-97{fill:#1b0305;}.cls-98{fill:#c61010;}.cls-99{fill:#260303;}.cls-100{fill:#800a0a;}.cls-101{fill:#2a0303;}.cls-102{fill:#110101;}.cls-103{fill:#470606;}.cls-104{fill:#760a0a;}.cls-105{fill:#0b0101;}.cls-106{fill:#1c0202;}.cls-107{fill:#1f0202;}.cls-108{fill:#190202;}.cls-109{fill:#2c0404;}.cls-110{fill:#270303;}</style></defs><path d="M19.8-.61H280.2a1,1,0,0,1,1,1V174.06A125.93,125.93,0,0,1,155.26,300h-8A128.49,128.49,0,0,1,18.81,171.5V.38a1,1,0,0,1,1-1Z"/><path class="cls-1" d="M150.1,2.42q62,0,124,0c2.09,0,3.56-.18,3.55,2.9-.12,55.11.37,110.23-.28,165.34-.39,32.86-12.4,61.78-34.48,86.24-20.74,23-46.91,35.73-77.49,39-33.22,3.52-64.12-3.19-91.29-23.43C51.45,255.53,36.67,233,28.26,206.17a129.53,129.53,0,0,1-5.92-39q0-80.55-.07-161.11c0-3.11,1-3.66,3.8-3.65Q88.08,2.48,150.1,2.42Z"/><path class="cls-2" d="M116.18,167.05l-.79-1.23a19.23,19.23,0,0,1-4.29-8.11,5.2,5.2,0,0,1,0-3.46c1.47-2,1.47-4.38,1.8-6.63a8.48,8.48,0,0,1-.12.95c-.38,1.68-.26,3.5-1.35,5-1.35,1.8-1.83,4.49-4.75,4.71-1-.52-.9-1.44-.93-2.33.48-8.66-2-16.85-4-25.13-2.75-11.73-1-22.94,4-33.71,2.24-4.81,4.62-9.56,7.2-14.2,2.74-4.89,5.34-9.86,8.16-14.71a23.93,23.93,0,0,0,3.4-6.06c2.56-4.5,5-9,4.64-14.47a6,6,0,0,0-1-3.31,2.87,2.87,0,0,1-.16-1.42c.69-3.33.3-4-3-5.07-2.3-.76-4.94-.59-6.8-2.54-1.18-1-2.26-2-2-3.77a13.1,13.1,0,0,1,1.5-7.39,18.09,18.09,0,0,1,7.68-7.42c6-2.87,12.22-4.11,18.69-1.87,2.71.94,5.49,2,7.26,4.54l0,0c4.59,3.29,5,8.06,4.41,13a28.14,28.14,0,0,1-1.81,6.86,69,69,0,0,1-5.42,10.93c-4.94,9.31-9.46,18.82-13.73,28.46-1.13,4.28-3.08,8.3-3.89,12.7a19.49,19.49,0,0,0-.29,5.15c.26,3.08,2.29,4.82,5.38,4.9,5.95.14,11.79-1.52,17.73-1.26,5.27.23,10.56.74,15.39,3.2,7.3,3.78,13.66,8.84,19.7,14.35,2,1,4.21,1.66,6.13,2.87a37.14,37.14,0,0,1,3.44,2,57.94,57.94,0,0,1,6.61,5.28,40,40,0,0,1,5,4.87,16.27,16.27,0,0,0,2,2.55c.89,1,1.65,2.21.89,3.51-.86,1.5-2.4,1.09-3.79.88-.94-.14-2.26-1.67-2.45.87,0,.65-1.51.61-2.36.42a11.9,11.9,0,0,1-4.75-1.84c-.15-.06-.28-.27-.42-.28-.43,0-.3.49-.11.1s.57.35.25.11c.81.67,2.34.88,1.57,2.51a10.88,10.88,0,0,1-9.2-.2,13.58,13.58,0,0,1-1.47-1.05c.15.45.72.76.43,1.35-2.72,1.09-5.05-.58-7.55-1-1.35-.63-2.44,1-3.78.45a6.09,6.09,0,0,1-1.76-.17c-2.67-1.95-5.55-.55-8.34-.54a.74.74,0,0,1-.56-.27c-.1.2,0,.29.33.27a7.65,7.65,0,0,0,4.31-.49c1.27-.18,2.36.47,3.53.73,7.44.55,14.8,2.15,22.32,1.75a4.19,4.19,0,0,0,1.81-.64c4.36-2,7.83-1.43,11,1.73,1.08,1.07,2.2,2.08,3.37,3.05.73.6,1.71,1.29,1.2,2.39a2.45,2.45,0,0,1-2.8,1.16,15.54,15.54,0,0,1-7.52-3.12,58.85,58.85,0,0,0,10.48,8.61c.71.47,1.64.93,1.4,2-.27,1.22-1.42,1.17-2.36,1.26-3.78.33-6.94-1.35-10-3.19a42.44,42.44,0,0,1-4.81-3.55,69.77,69.77,0,0,0,10.79,8.32c.72.45,1.71.94,1.6,1.87-.14,1.19-1.4,1.24-2.31,1.39-2.53.42-4.91-.37-7.27-1.18-3.81-1.83-6.89-4.67-9-6.35,1.45,1.07,3.74,3.42,6.59,5.06.79.46,1.92.65,1.79,2-2.58,2.06-6.39,1.85-9.94-.82-.94-.7-.78-.47-1.33.3-.82,1.15-2.33.89-3.6.69a17.51,17.51,0,0,1-6.51-2.67,4.63,4.63,0,0,0-2.65-1.8,12.43,12.43,0,0,0-2.95-2.65,16.74,16.74,0,0,0-2.36-2.62c-.82-.84-1.68-1.65-2.48-2.51-.29-.32.32-.39,0-.15,1.3,1.83,3.24,3.08,4.54,4.92.92,1.2,2.47,1.71,3.29,3,1.16.48,2.59.76,1.88,2.59-3.31,1.11-6.12-.32-8.78-1.93-6.08-3.69-10.67-9-14.91-14.57a8.31,8.31,0,0,1-.8-1c.11.49.58.7.82,1.09,2.15,3.3,5,6,7.63,8.84.88.94,2.77,1.9,1.53,3.39-1.11,1.33-2.56-.11-3.78-.66a37.33,37.33,0,0,1-4.05-2.68c-1.71-1-3-3-5.43-2.53-1.8.18-3.23-.8-4.76-1.5a22.6,22.6,0,0,1-3.57-1.9c-.57-.39-1-1.08-1.85-1.08a3.2,3.2,0,0,1,1.59,1,22.46,22.46,0,0,0,3.8,2.12,14.65,14.65,0,0,0,4.2,1.55c2.1.34,4.16.77,5.79,2.27a160.28,160.28,0,0,0,57.3,23.55c10.11,2,19.86,5.35,29.68,8.38,2.54.79,4.1,2.73,5.31,5a20.61,20.61,0,0,1,2.15,3.23c.29,1.07,1.68,2.07.72,3.21s-2.14.42-3.32.14a65.08,65.08,0,0,1-15.76-6.53,22.34,22.34,0,0,0-4.8-1.94c-1.16,1.24.06,2.45,0,3.64,0,.76,0,1.62-.79,2s-1.18-.3-1.62-.78a8.74,8.74,0,0,1-2-2.49c-.17-.77-.8-.62-1.33-.67-3.8-4.48-9-6.06-14.52-7.09-5.18-1-10.42-1.71-15.28-3.93a23.57,23.57,0,0,0-4.22-1.64c0,1.92.24,4.2-2.9,3-4.78-2.53-10.21-3.48-15.2-6.45-.06,2.14.86,3.81.82,5.59s.08,3.37-.05,5.06a2.39,2.39,0,0,1-.9,1.73c-2.28-.45-3-3-5.09-3.74-1.73-1.08-3.69-1.85-4.78-3.74-.7-.71-1.43-1.4-2.1-2.14a17.15,17.15,0,0,1-1.83-2.76c-.22-.36.08.1-.14-.27-.16.1,0,.17,0,.28a17.83,17.83,0,0,0,1.94,2.87c.75.71,1.45,1.46,2.18,2.19a11.42,11.42,0,0,1,2.68,4.92c.52,1.53.65,3.14,1.08,4.69.3,1.11.32,2.18-1.14,2.53-2.57-1.19-4.75-3-7.18-4.45a24.1,24.1,0,0,0-3.14-1.94c-1.64-1-2.76-2.64-4.39-3.92-.06,3.34.3,6.57-.71,9.7a16.44,16.44,0,0,1-.72,2.15c-.38.8-.87,1.55-1.86,1.59-1.16,0-1.25-.94-1.55-1.74a27.7,27.7,0,0,0-4.17-8c-1.6-2-3.4-3.84-2.92-6.4a11.74,11.74,0,0,1-1,5.35c-.29.78-.58,1.72-1.7,1.64-.94-.06-1.13-.88-1.4-1.57a41.17,41.17,0,0,0-2.07-4.72,12.63,12.63,0,0,0-3.08-4.86c-2.24-2.07-2.73-4.46-2.47-7.24a15.19,15.19,0,0,0-1-6.61c0-2.84,2.17-.7,3.13-1.36.74-.84.45-1.76.19-2.68-.07-1.45.64-1.65,1.84-1.21.78.28,1.49.94,2.42.56.66-.8.26-1.62.08-2.44a5.25,5.25,0,0,1-.14-.87,3.81,3.81,0,0,0-.08-.59c-.06.23.06.44,0,.68,0,.94,0,1.87-.92,2.42-1.2.48-2.05-.33-3-.83-.23,0-.25.11-.31.36-.32,1.4,1.09,3.29-.65,4.16-1.44.72-2.33-1.27-4-1.68.64,1.68,1.22,3.22,1.72,4.78,1.2,3.21.48,6.54.64,9.81-1.54,2.67-1.67,2.71-3.69.54A35.09,35.09,0,0,0,116.18,167.05Z"/><path d="M181.32,159.65c2.07,1.13,4.1,2.56,6.49,2.69,1.21.07,3.07,1.61,3.89-1,.27-.86,1.16.33,1.76.56,3,1.15,5.9,3.36,9.21.79-.08-.72.08-1.17.94-.85,2.92.9,5.85,1.64,9.31.52-5.22-3.4-10.31-6.61-13.91-11.67,6,3,10.79,8.79,19.3,7.06-5.92-4-11.49-7.64-15.84-13.82,4.72,2.59,8.35,6.59,14.13,4.85-4.81-3.21-7.69-9.68-15-6.88-.82.32-1-.09-.89-.8-.48-1.14-1.9-1.07-2.57-2-.13-.57,0-.9.64-.61,1.83.59,3.64,1.25,5.5,1.72a2.61,2.61,0,0,0,2.1-.27c.79-.91-1.07-1.06-.85-2,1.53-.41,2.45,1.17,3.81,1.22,1,0,2.33.64,3-.34.56-.83-.28-1.86-.76-2.65-.72-1.18-1.62-2.25-2.44-3.37-.24-.68.09-.85.69-.76a19.07,19.07,0,0,0,5.72,4.68c8.79,5.05,15.08,12.58,20.42,21a13.77,13.77,0,0,0,3.47,3.79c9.31,6.92,16.18,15.9,21.83,25.93,1.1,2,.43,2.54-1.51,2.41-2.59-.17-5.18-.4-7.77-.57-.87-.05-2-.16-1.06,1.29.17.66-.1.89-.74.73-2.24-3.28-5.49-4.71-9.2-6-14.28-4.87-29.24-7.1-43.56-11.67-14.15-4.51-27.72-10.38-39.67-19.47-.12-.62.06-.92.74-.7,2.42,1.15,4.42,3.08,7,3.89.16.05.39-.14.81-.31-3.39-4-7.44-7.3-10-11.86-.17-.7.13-.94.8-.82,3.72,4.16,7.23,8.5,11.57,12.07,3.41,2.81,7.15,4.71,11.65,4.82C181.31,161.05,180.7,160,181.32,159.65Z"/><path class="cls-3" d="M171.08,186.56l.49-1.21a15.71,15.71,0,0,0,0-5.84l-1.86-7.43c5.74,4.41,12.16,4.87,17.37,8.17.56,1.28,2.34,1.93,1.94,3.71a17,17,0,0,0,5.5,8.86c6.17,4.94,7,7.29,3.54,14.07a16.52,16.52,0,0,0-.22,4.81q0,21.2,0,42.38a9.5,9.5,0,0,0,.22,3.52c.21,2.95.59,5.29,4.66,5.42,2.68.09,3.85,3.16,5,5.4.35.7-.05,2.66-1.88,1.57s-4,1.34-5.71-.7c-.09-.64.33-.93.81-1.19.83-.42,2.06-.53,2-1.79s-1.31-1.25-2.2-1.49a5.67,5.67,0,0,1-4-3.89,12.47,12.47,0,0,1-.75-4.14q0-24.08,0-48.16a11,11,0,0,1,1.26-4.64c1.69-3.69-.09-7.38-3.89-8.89-1.94-.77-3.67-1.86-6-1.25a2.53,2.53,0,0,1-2.69-1.48c-1.36-2.5-3.34-4.54-4.83-6.94-.64-1-1.4-2.17-1-3.33,1.16-3-.62-3.83-2.94-4.43a23.35,23.35,0,0,0-2.38-.84,12.81,12.81,0,0,0,5.25,13.09,28.22,28.22,0,0,1,4.19,4.53,7.44,7.44,0,0,1,2,5.61,8.4,8.4,0,0,0,1.94,6.08,13.55,13.55,0,0,1,2.92,9.09c0,10.4,1.14,20.78.66,31.2-.09,2.11.42,3.72,2.39,4.91,2.17,1.31,2.48,3.44,1.66,5.72a24.87,24.87,0,0,1-3.19,5.66,3.32,3.32,0,0,1-4.62,1,6.92,6.92,0,0,0-5.05-.41c-4,1-8.18.86-12.25,1.45a1.84,1.84,0,0,1-2-.75c-.55-.72-1.06-1.9-2.25-1-.68.48-.54,1.36-.33,2.12a1.83,1.83,0,0,0,2.18,1.44c4.14-.29,8.37.62,12.41-1a1.48,1.48,0,0,1,1.17.78c-.31,1.86-2,2.09-3.3,2.71-1.07.5-2.34.58-3.17,1.53s-1.61.83-2.45,0c-1.21-1.18-2.6-1.81-3.94-.34s-.56,2.86.44,4.09c1.19,1.46,2.59,2.29,4.5,1.11,1.54-.95,2.38-2.9,4.45-3.06a1.36,1.36,0,0,1,.93,1c-1.85,1.42-3.69,2.85-5.55,4.26-1.38,1-2.95,1.18-4.13,0-1.39-1.42-2.68-.93-4.1-.38-.59.29-.79-.08-.94-.55,0-.89,3-2.68-.73-2.47-.45-.22-.79-.48-.44-1,.13-1.61,3.8-1.46,2.07-3.91-1.57-2.23-3.63-1.16-5.54-.46-.6.22-1.18.52-2,.88-.44-2.16-.07-4.41,1.45-5.29,3.57-2.06,6.46-5.59,11-5.67,1.79,0,3.45-2.2,5.37-.36.12.56-.23.85-.65,1.08-.59.37-1.72.28-1.67,1.16s1.12.69,1.8.77a10.8,10.8,0,0,0,2.2-.08c.86,0,1.52-.84,2.44-.53,7.4.53,9.66-1.48,9.57-8.94-.14-12.12-.41-24.25-.63-36.37-.06-3-.46-5.73-2.68-8a8.32,8.32,0,0,1-2.25-6.91c.46-2.79-.93-4.22-2.52-5.84s-3-3.49-4.85-4.76c-.83-.57-1.45-4.62-3.67-.94-.17.3-1.27-.85-1.62-1.65C170.12,186.62,170.25,186.16,171.08,186.56Z"/><path class="cls-4" d="M140.89,184.7c2.55,2.76,3.68,6.24,5.09,10.42,3.54-5.28,2.58-10.61,2.33-16.19l6.2,5.92c0,.66-.46.86-1,1-1.93-.79-2.52-.37-2.81,1.93-.54,4.21.35,8.19,1,12.22a12.74,12.74,0,0,1-.26,5.76,12,12,0,0,0,.45,8.87,7.57,7.57,0,0,1,.42,5.07c-2.18,10.27-5,20.38-7.27,30.62-.53,2.42-.93,4.54.82,6.72,1.31,1.64,1.23,3.56,0,5.44-1.34,2.1-2.54,4.27-4.57,5.82a1.27,1.27,0,0,1-1.31-.35c-1-.67.17-3.71-2.63-2.37a5.7,5.7,0,0,1-2,1.21,11.92,11.92,0,0,1-2.53.24c-2.09-.17-4.25.38-6.26-.61-1.17-1-2.64-1.67-3-3.39.1-.52.24-1,.94-.79,2.26,1.66,4.48,3.35,7.55,3.1,4.19-.36,6.6-2.85,8.07-6.55,2.41-6.07,3.46-12.51,5.08-18.79q1.9-7.38,3.66-14.81c.93-3.94,2.36-7.81.15-11.92a7.76,7.76,0,0,1-.15-6.38c1.77-4.19.19-8-.38-12-1.08,0-1.36.83-1.87,1.32-1.26,1.23-1.66.76-2-.74a33,33,0,0,0-4.47-10C140,184.76,140.24,184.52,140.89,184.7Z"/><path class="cls-5" d="M157.29,186.59a18.42,18.42,0,0,1,6.39,4.55c.18.65-.07.89-.72.76-.48.21-1.72-2.14-1.48.35.45,4.65.06,9.31,3.32,13.55,2.68,3.47,1.5,7.85-1.78,10.79a4.94,4.94,0,0,0-1.54,2.7q-5.88,22.77-11.84,45.52a10,10,0,0,0,.38,5.08.59.59,0,0,1-.15.89c-3.27-1.09-2.82-3.73-2.33-6.14.93-4.67,2.39-9.21,3.57-13.82,2.67-10.37,5.35-20.74,7.93-31.13a9.59,9.59,0,0,1,2.27-4.57c3.45-3.67,3.29-6.89-.34-10.74a3.48,3.48,0,0,1-.95-1.07c-.11-.18-.19-.42-.35-.53-1.55-1-4.29-.39-4.77-2.68-.56-2.67-1.36-5.4-.74-8.21a2.62,2.62,0,0,1,1.39-1.17c.78-.32,1.68-.1,2.59-.64,0-1.3-1.83-1.66-1.85-3C156.48,186.64,156.71,186.26,157.29,186.59Z"/><path class="cls-6" d="M124.54,262.2l-.66.77c-2,0-4.64-1.42-5.35,2a5.29,5.29,0,0,1-2.07,1.74c-1.49.77-1.84-.27-2.23-1.36-.27-.75-.76-1.35-1.66-1.24s-1.14.89-1.3,1.64a5.76,5.76,0,0,0,.55,4.07c.76,1.41,1.8,2,3,.46,1.62-2.2,3.61-2.46,6-1.45s4.9.06,7.35.29c.95.09,2,.06,2.48,1.11-.45,1.43-1.81,1.36-2.89,1.67-1.25.35-2.64.33-3.74,1-1.59,1-2.89,1.36-4-.6a1.23,1.23,0,0,0-1.65-.63c-.68.38-.5,1.1-.41,1.75.52,4,1.95,5,6.84,4.94a1,1,0,0,1-.15,1.3c-2.13,2-4.54,1.92-6.29-.12-2-2.33-3.48-1.57-5,.11-1.72,1.9-2.28,1.26-2.64-.86a6.24,6.24,0,0,1,.07-2.85c1.15-4.16-.87-6.27-5-5.63-1.22.18-2.9,1.88-3.65.24-.6-1.34.53-3.09,1.67-4.32a4,4,0,0,1,1.22-1.05c5-2.29,10-4.81,15.74-5A4.8,4.8,0,0,1,124.54,262.2Z"/><path class="cls-7" d="M107,158c1.86-1,2.5-3.12,3.87-4.57.68-.1,1.12,0,.79.85,0,1.16,0,2.32,0,3.48.09.65.63,1.5-.68,1.53l-.84-2.18c-1.81,1.39-3.17,3.17-5.83,3.42,1.72-9.11-.11-17.74-2.52-26.33a52,52,0,0,1-1.94-12.15,53.55,53.55,0,0,1,4.85-24.32,142.67,142.67,0,0,1,8.23-15.86c.6,0,1.06.13.7.89-2,4-4,8.11-6.11,12.13-6.63,12.89-8.18,26.28-4.12,40.27,2,6.79,3.27,13.68,2.84,20.81C105.87,157.75,105.87,157.75,107,158Z"/><path class="cls-8" d="M169.47,104.1c-8.94-4.09-18.31-3.4-27.69-2.45-1.51.15-3,.39-4.53.46-5.22.23-7.58-2.06-7.47-7.36.12-6,2.7-11.31,4.65-16.8.67,0,.94.22.69.89-.63,4.28-3.07,8-3.57,12.37a31,31,0,0,0-.42,4.17c.08,3.94,1.7,5.53,5.61,5.37,3.33-.14,6.66-.48,10-.84,7.83-.85,15.48-.45,22.78,2.84A.92.92,0,0,1,169.47,104.1Z"/><path class="cls-9" d="M124.56,279.74l0-1.39c.14-2.1,2-2.35,3.37-3a8.69,8.69,0,0,1,5.68-.88c4.37,1,8.64,1.49,13,0,1.47-.49,2.93.37,4.24,1.2,1.06.68,2.07.7,2.67-.63s0-2-1.15-2.55c-.91-.42-2.24-.31-2.43-1.75,0-.29.05-.58.08-.87,4.34,0,6.61,2.51,8,6.3.49,1.36.57,2.65-.33,3.66-1.15,1.3-1.44-.86-2.23-.8-2.91.23-5.07-1.19-7.22-2.86-.91-.71-1.87.11-2.71.52a8.49,8.49,0,0,1-7.19.59C133.22,275.22,128.66,276.14,124.56,279.74Z"/><path class="cls-10" d="M224.94,191.17l3.44,2.92c1-1.83-.38-3.36-.28-5,0-.61-1-1.14-.3-1.66s1.26.05,2,.41c4.35,2.24,8.73,4.45,13.21,6.41a32,32,0,0,0,9.85,2.9c.5-1.32-.75-2-.74-3.1-.34-.78.13-.89.73-.88a12.55,12.55,0,0,1,2.25,5.76c-7.81-.95-14.67-4-21.31-7.62a11.18,11.18,0,0,0-2.28-1.22c-1-.28-2.31-.61-1.62,1.39.63,1.83.1,3.59-.65,5.57C227.21,195.36,225.57,193.65,224.94,191.17Z"/><path class="cls-11" d="M116.66,31.71c-.37,1.8,1.64,2,2.17,3.22a2,2,0,0,1-.75.6,4.2,4.2,0,0,0-3.79,4.18c0,.42.12-.07-.06.31A137.61,137.61,0,0,1,99.67,64.08a1.15,1.15,0,0,1-1.2.29.67.67,0,0,1,0-.89c4-6.75,7.83-13.59,12-20.2,1.53-2.39,1-5.45,2.8-7.44a8.88,8.88,0,0,0,2.24-6.7C117.21,29.43,115.92,31,116.66,31.71Z"/><path class="cls-12" d="M77.72,106A68.39,68.39,0,0,1,70,114.46c-.7.13-1.07,0-.83-.84l8.6-15.5a1.08,1.08,0,0,1,1.27-.2,1.8,1.8,0,0,1,.47.78,2.51,2.51,0,0,1-.11,1.36c-.38.79-.92,1.49-1.36,2.24s-1.81,1.42-.57,2.6C77.74,105.21,78,105.53,77.72,106Z"/><path class="cls-13" d="M193.59,178.92a83.87,83.87,0,0,0,16.31,3.9,30.74,30.74,0,0,1,11.59,4.68,3.57,3.57,0,0,1,2.12,3c-5.44-4.39-11.84-6.14-18.61-7.17-4.23-.64-8.47-1.51-12.27-3.7C192.82,179.16,193.26,179.1,193.59,178.92Z"/><path class="cls-14" d="M135.12,78.84l-.69-.89A234.73,234.73,0,0,1,148,50c.63-.09,1,0,.72.8Q141.94,64.79,135.12,78.84Z"/><path class="cls-15" d="M151.25,19.4c-8.24-6.09-17-6.26-26-2.1a.77.77,0,0,1,0-1.2c8.15-4.1,16.21-4.4,24.15.59C150.44,17.35,151.35,18,151.25,19.4Z"/><path class="cls-16" d="M119.4,55.23c-4.56,5.7-9.09,11.41-13.68,17.08-.73.9-1.33,2-2.53,2.42a.62.62,0,0,1-.84,0c-.4-1.36.42-2.28,1.18-3.19,4.45-5.32,8.81-10.71,13.18-16.1.7-.86,1.26-2.15,2.82-1.59A1.21,1.21,0,0,1,119.4,55.23Z"/><path class="cls-17" d="M198.05,257.6c-.81-.8-.54-1.83-.54-2.77q0-22.59,0-45.17c0-.95-.28-2,.54-2.77Z"/><path class="cls-18" d="M79,98.12H77.74Q84.51,85.84,92.07,74a.55.55,0,0,1,.8.1c.48,1.16-.11,2.11-.69,3-3.84,6-6.94,12.35-10.64,18.39C80.84,96.53,80.42,97.81,79,98.12Z"/><path class="cls-19" d="M169.47,104.1l0-1.35c7.46,4,14,9.27,20.25,14.87-.29.57-1,.31-1.36.63-5.14-4.37-10.14-8.93-16-12.33C171.37,105.35,170.43,104.7,169.47,104.1Z"/><path class="cls-15" d="M140.89,184.7l-.73.71-2.23-2.36c-1.16,1.73-1.37,3.93-3.44,5.31l-3.37-8.86c.24-.38.52-.41.84-.08,1.72,1.54,1.43,4.08,3.08,6.06a15.68,15.68,0,0,0,1.77-9.88C138.34,178.61,138.17,182.34,140.89,184.7Z"/><path class="cls-20" d="M153.21,39.48c.59-2.4,1.31-4.78,1.74-7.22a14.91,14.91,0,0,0-3.73-12.91c1.76-.29,2.49.91,3.19,2.18,3.64,6.54,2,12.93-.59,19.28C152.63,40.82,152.86,40.18,153.21,39.48Z"/><path class="cls-21" d="M132,179.42l-.84.08c-1.88-1.86-2.2-5.13-5.31-5.88-1.23-.08-.82-.88-.68-1.55a36.52,36.52,0,0,0-.58-10.74c-.34-.68-.57-1.31.58-1.35,1.7,2.57,1.74,5.49,1.51,8.37a6,6,0,0,0,1.71,5.15C129.92,175.17,131.67,176.9,132,179.42Z"/><path class="cls-22" d="M178.18,273.37l-.86-.7a1.69,1.69,0,0,1,.79-.63c1.44-.49,3.06,0,4.44-.83a15.21,15.21,0,0,1,8.69-2.11c1.93.16,3.5-.84,5.16-1.64s3.56-1.31,4.52,1.16l-.8.67c-.41-.12-1-.48-1.21-.32-4.31,3.19-9.9,1.29-14.39,3.66C182.48,273.71,180.31,273.28,178.18,273.37Z"/><path class="cls-23" d="M128.52,44c1.7,1.34,1.57,3.24,1.43,5a25.56,25.56,0,0,1-5.25,13.54.81.81,0,0,1-.22-1.12c1.26-3.39,3.45-6.48,3.77-10.16.17-2,1.62-4.43-1.07-6C127,44.28,127.75,44.12,128.52,44Z"/><path class="cls-24" d="M193.59,178.92l-.86.71c-1.62-.67-2.79-.89-2.17,1.62.3,1.2.95,2.95-1.55,2.71-.48-1.32-2.38-1.91-1.94-3.71,2.45,1.17,2.28-.11,1.68-1.8-.21-.58-.4-1.18-.85-2.53Z"/><path class="cls-25" d="M128.52,44l-1.34,1.33a76.69,76.69,0,0,1-7.78,9.9l-.09-1.55a1.41,1.41,0,0,1,.08-1.24c2.77-3.59,5-7.65,8.65-10.51.53.17.85.44.52,1Z"/><path class="cls-26" d="M113.62,82.76l-.7-.89a125,125,0,0,1,8.31-14.53.82.82,0,0,1,.18,1.09A130.54,130.54,0,0,1,113.62,82.76Z"/><path class="cls-27" d="M90.11,91.05c-2.62,3.43-5,7-8.45,9.78a1.23,1.23,0,0,1-.93-.83c0-1,.62-1.58,1.19-2.24A24.82,24.82,0,0,0,84.53,95c1.64-1.69,2.38-4.28,5-4.93C90,90.21,90.38,90.47,90.11,91.05Z"/><path class="cls-28" d="M125.13,172.07c.1.57.12,1.18.68,1.55-.8,2.12-1.89,2.66-3.12.37-1.57-2.91-5-4-6.51-6.94,3.66.09,4.72,3.63,7,5.52C124.7,173.85,124.61,172.71,125.13,172.07Z"/><path class="cls-29" d="M153.21,39.48c.2.45.41.89.61,1.33a42.18,42.18,0,0,1-5.07,9.94L148,50Q150.61,44.72,153.21,39.48Z"/><path class="cls-30" d="M163,191.9l.72-.76c2.1-.31.67-1.56.6-2.38-.13-1.57-.38-3.14-.58-4.71.18-.28.24-.67.66-.72a11.3,11.3,0,0,1,1.31,4.51,10.51,10.51,0,0,1,0,4.83c-.2.64.45,2.51-1.31,1A14.89,14.89,0,0,1,163,191.9Z"/><path class="cls-27" d="M99.84,79.26,94,86.4c-.63.19-.85-.19-1-.7,1.26-3.14,3-5.87,6.17-7.43C99.67,78.41,100.05,78.63,99.84,79.26Z"/><path class="cls-23" d="M125.23,16.1v1.2c-2.88,1.73-5,4.29-7,6.85-.48-.09-.52-.54-.7-.88C119.19,19.94,122,17.79,125.23,16.1Z"/><path class="cls-31" d="M92.89,74.1,92.07,74a94.27,94.27,0,0,1,6.39-10.55c.06.33.11.66.16,1a1.31,1.31,0,0,1,.3,1.5C97,68.76,95.88,72.12,92.89,74.1Z"/><path class="cls-32" d="M111,159.29l.68-1.53c1.25,2.69,2.5,5.37,3.74,8.06C112.51,164.6,111.76,161.93,111,159.29Z"/><path class="cls-33" d="M163.64,276.58l.76.65c-1,.65-1.92,2.79-2.82,1.72-1.44-1.71-1-4,.71-5.78l.66.73C163.56,274.69,162.87,275.83,163.64,276.58Z"/><path class="cls-34" d="M80.84,100l.82.81c-.73,2.17-2.32,3.67-3.94,5.15l-.67-.7c-.9-1.21.2-1.85.74-2.66a17.77,17.77,0,0,0,1.54-2A1.44,1.44,0,0,1,80.84,100Z"/><path d="M164.36,183.33l-.66.72c-.93-1.47-1.31-3.28-2.72-4.45-.23-.68.09-.84.69-.74l4.61,3.81a.44.44,0,0,1,.15.5q-.09.24-.18.24C165.61,183.47,165,182.16,164.36,183.33Z"/><path class="cls-35" d="M204.63,128.17l-6.7-5.2c.1-.46.55-.51.86-.72a16.34,16.34,0,0,1,5.91,5.07A.54.54,0,0,1,204.63,128.17Z"/><path class="cls-36" d="M117.49,23.27c.23.3.47.59.7.88a18.17,18.17,0,0,0-1.53,7.56c-.37-.86-.74-1.71-1.12-2.57A10.27,10.27,0,0,1,117.49,23.27Z"/><path class="cls-37" d="M204.63,128.17c0-.28.05-.57.07-.85,2.39.82,3.7,2.82,5.15,4.66l-.69.76Z"/><path class="cls-38" d="M188.39,118.25a1.55,1.55,0,0,1,1.36-.63,16.51,16.51,0,0,1,5.79,2.66c.06.66-.1,1-.86.71Z"/><path class="cls-39" d="M121.41,68.43l-.18-1.09,3.25-5.87c.08.37.15.75.22,1.12A9.3,9.3,0,0,1,121.41,68.43Z"/><path class="cls-40" d="M93.28,85.63l.69.77a23.29,23.29,0,0,1-3.86,4.65l-.7-.75C89.77,88,90.81,86.21,93.28,85.63Z"/><path class="cls-41" d="M173.87,259l.82-.68,4.12,2.4c-.8.35-1.05,1.57-2.18,1.41C176,260.86,173.93,260.85,173.87,259Z"/><path class="cls-42" d="M99.84,79.26l-.79-.72c.33-1.94,1-3.6,3.28-3.89l.86.08A14.06,14.06,0,0,1,99.84,79.26Z"/><path class="cls-17" d="M166.25,183.41l0-.74c2.36.37,3.37,2.38,4.8,3.89l-.92.74Z"/><path class="cls-28" d="M194.68,121l.86-.72,3.25,2-.86.72Z"/><path class="cls-43" d="M252.81,193.19c-.24.29-.49.58-.73.88-.62-.95-1.25-1.89-1.87-2.83l.74-.73A5.33,5.33,0,0,1,252.81,193.19Z"/><path class="cls-44" d="M69.14,113.62l.83.84a3.5,3.5,0,0,1-2.59,1.89Z"/><path class="cls-45" d="M165.67,192.67v-4.83A5.37,5.37,0,0,1,165.67,192.67Z"/><path class="cls-46" d="M133.67,29.77a1.71,1.71,0,0,1-1.25,1.31,4.23,4.23,0,0,1-3.33,0c-1,.14-2.08-1.11-3.07.07-.74.27-.91-.08-.79-.73a2.24,2.24,0,0,0,.58-1.77c.18-5.35,3.5-7.42,8.51-5.35.16.82-.49,1-1,1.28-1,.37-1,1.2-1,2.09.1,2.44-.69,3.28-2.9,1.58-.52-.4-.66-.32-.82.25-.06.2.38.46.65.64a3.49,3.49,0,0,0,3.2.21A1.33,1.33,0,0,1,133.67,29.77Z"/><path class="cls-47" d="M125.13,160l-.58,1.35-2.82-5.52c3,.54,3.37.75,5.67,2.76.89-1.64.13-3.13-.3-4.61-.17-.57-1-1.13-.32-1.67s1.3.26,1.76.82a4.26,4.26,0,0,0,2.56,1.77c1.78-.49.85-1.71.74-2.71,0-.67-1.14-1.42-.42-1.84,1.25-.72,1,.89,1.45,1.38.28.29.18,1,.25,1.46a6.52,6.52,0,0,1,0,3.74c-1.45,1.13-2.22-.31-3.1-.92-1-.73-1.47-.66-1.5.65a4.8,4.8,0,0,1,0,3.46c-.64,1.18-1.17.41-1.7-.1S125.71,158.84,125.13,160Z"/><path class="cls-48" d="M200.75,141.06l.89.8a5.1,5.1,0,0,1-4.15,1.36c-4-.5-8.1.17-12.11-1.11-1.95-.63-4.24-.22-6.38-.31-1,0-2.17.15-3-.81.06-1.23.82-.81,1.47-.62l1.79.2c1.33.4,2.56.46,3.32-1,2.4,1.2,4.81,2.39,7.63,1.59.08-.41.47-.48.75-.67C194.17,141.75,197.38,142.66,200.75,141.06Z"/><path class="cls-48" d="M135.55,139.83c-4-6.05-6-12.54-4.42-19.86.2,6.76,1.63,13.18,5.26,19C136.6,139.7,136.3,140,135.55,139.83Z"/><path class="cls-49" d="M129.11,29.91c-2.4-.65-2.38-2.05-1.23-4,1.53.47,1.87,2.41,3.54,2.63.62-1,.07-2-.21-3-.51-1.73.55-1.73,1.73-1.65,2.77.8,2.39,2.57,1.39,4.54a1.24,1.24,0,0,1-.66,1.27l-1.27.08A6.13,6.13,0,0,1,129.11,29.91Z"/><path class="cls-50" d="M203.61,161.8l-.94.85c-4.57-2-8.06-5.41-11.36-9.12C196,155.45,199,159.86,203.61,161.8Z"/><path class="cls-51" d="M128.56,43l-.71-.83c-1.23-2.81-3.39-3.91-6.43-3.77-2.17.1-3.89-.59-3.45-3.35l.86-.08c1.54,1.74,3.79,1.44,5.74,1.84C129,37.68,130.18,39.36,128.56,43Z"/><path class="cls-52" d="M156.1,137.93c-3.72-.22-6.48-2.15-8.77-5,3.62,1.73,7,4,11.08,4.37C158,138.81,156.93,137.91,156.1,137.93Z"/><path class="cls-47" d="M175.29,156.09a21.87,21.87,0,0,1-6.34-6.92,18.55,18.55,0,0,1,7.16,6.85C175.86,156.38,175.59,156.4,175.29,156.09Z"/><path class="cls-53" d="M134.33,28.5c-.08-1.63,1-3.62-1.39-4.54l1.38-.65c1.45.66,3.13.9,4.42,2.41C135.52,24.23,136.17,28.14,134.33,28.5Z"/><path class="cls-54" d="M156,191.12l-1.36.76c-2.75-1.8-1.28-4.2-.91-6.44l.77-.59a5.62,5.62,0,0,1,2.78,1.74l-.81.67A29.48,29.48,0,0,0,156,191.12Z"/><path class="cls-55" d="M158.52,153.42l-.74.7c-1.75-1.24-4-1.13-5.84-2-.29-1.28,1.12-.57,1.39-1.2.86-1.49,1.65-.51,2.4.1C156.68,151.77,157.59,152.61,158.52,153.42Z"/><path class="cls-48" d="M177.5,140.37,176,141l-2.89-.47a12.09,12.09,0,0,1-5.15,0l-1.53-.12C170.16,139.72,173.85,137.78,177.5,140.37Z"/><path class="cls-56" d="M156.1,137.93c.78-.17,1.69.09,2.31-.65,2.42-1.67,4.13-.22,5.82,1.47C161.56,137.87,158.73,139.12,156.1,137.93Z"/><path class="cls-57" d="M144.87,139.73c2.85.8,2.93,4.12,5,5.6.1.07,0,.67-.16.8-.54.43-1,.1-1.32-.37-1.14-2-3.09-3.52-3.75-5.84Z"/><path class="cls-58" d="M183.13,153.51c2.5.75,3.72,2.62,4.5,4.89-1.66-1.49-4.17-2.26-4.43-5Z"/><path class="cls-59" d="M133.39,38.29a8,8,0,0,0-.29,5.46C130.47,41.34,130.58,40.05,133.39,38.29Z"/><path class="cls-55" d="M111.63,154.28l-.79-.85a17.28,17.28,0,0,0,1.48-5.18c.43-.37-.11-1.57,1.09-1.28C112.87,149.42,113.63,152.19,111.63,154.28Z"/><path class="cls-60" d="M153.33,150.89c.24,1.22-1.33.32-1.39,1.2a9.76,9.76,0,0,1-4-1.59.87.87,0,0,1,.15-1.11C149.9,149.65,151.39,151.05,153.33,150.89Z"/><path class="cls-61" d="M144.05,148.38a8.79,8.79,0,0,1-3.46-3.16c2.18-.11,3.09,1.4,4.32,2.31A1.16,1.16,0,0,1,144.05,148.38Z"/><path class="cls-62" d="M135.55,139.83l.84-.89a9.61,9.61,0,0,1,2.63,4.18C136.92,142.58,136.5,140.93,135.55,139.83Z"/><path class="cls-63" d="M144.05,148.38l.86-.85,3.16,1.86-.15,1.11Z"/><path class="cls-61" d="M158,174.21l1.76,2.62c.16.68-.08.95-.77.76a5.83,5.83,0,0,1-2.08-3.23A.84.84,0,0,1,158,174.21Z"/><path class="cls-64" d="M113.41,147l-1.09,1.28v-3.92C113.86,144.87,113.4,146,113.41,147Z"/><path class="cls-65" d="M157.18,144.32l-.8.82a4.37,4.37,0,0,1-1.55-3.58A6.14,6.14,0,0,1,157.18,144.32Z"/><path d="M175.29,156.09l.82-.07a2.61,2.61,0,0,1,2.61,2.55l.08-.1C177.09,158.48,176.15,157.34,175.29,156.09Z"/><path d="M144.69,139.92c-1.57-.79-1.19-2.5-1.73-3.8a4.23,4.23,0,0,1,1.91,3.61l-.17,0Z"/><path class="cls-61" d="M183.2,153.44c-1.87,0-1.8-1.59-2.42-2.62,1.5.31,2.53,1,2.35,2.69Z"/><path class="cls-17" d="M171.56,179.51a7,7,0,0,1,0,5.84C171.56,183.4,171.56,181.46,171.56,179.51Z"/><path class="cls-48" d="M182.61,139.55c-.53,2.22-1.88,1.76-3.32,1C180.76,141.41,181.2,138.91,182.61,139.55Z"/><path d="M181.32,159.65c.06.74.54,1.72-.92,1.56.85-1.72-2.06-1.24-1.6-2.73,0,0-.09.1-.09.09C179.69,158.68,180.71,158.67,181.32,159.65Z"/><path class="cls-66" d="M158,174.21l-1.09.15a3.45,3.45,0,0,1-1-2.91C157.4,172,157.55,173.19,158,174.21Z"/><path class="cls-64" d="M159,177.59l.77-.76,1.91,2-.69.74A3.8,3.8,0,0,1,159,177.59Z"/><path class="cls-67" d="M131.35,119.11c-.53-1.43.45-2.25.86-3.22C132.49,117.06,132.7,118.21,131.35,119.11Z"/><path class="cls-68" d="M125.23,30.43l.79.73c-.77.85-2,.92-2.31.08S124.64,30.62,125.23,30.43Z"/><path class="cls-57" d="M168,140.51h5.15A6.21,6.21,0,0,1,168,140.51Z"/><path class="cls-69" d="M191,140.47l-.75.67a4.19,4.19,0,0,1-2-1.9A4,4,0,0,1,191,140.47Z"/><path class="cls-50" d="M131.84,152.17c.49,1.1,1.68,2.4-.74,2.71C132.88,154.39,131.43,153,131.84,152.17Z"/><path class="cls-67" d="M198.82,138.47l-.64.61c-.69-.2-1.76-.6-1.29-1.26S198.28,137.88,198.82,138.47Z"/><path class="cls-70" d="M188,149.23a2,2,0,0,1,1.5,1.33c.1.3-.17.6-.56.43A1.51,1.51,0,0,1,188,149.23Z"/><path class="cls-50" d="M128.53,160.1l0-3.46C129.51,157.79,129.1,159,128.53,160.1Z"/><path class="cls-71" d="M107,158c-.23.36-.72.77-.94.46-.59-.81-.22-1.69.2-2.49C106.68,156.57,106.09,157.55,107,158Z"/><path class="cls-50" d="M133.11,156.91c0-1.25,0-2.49,0-3.74A4.14,4.14,0,0,1,133.11,156.91Z"/><path class="cls-72" d="M129.09,31.09h3.33A2.6,2.6,0,0,1,129.09,31.09Z"/><path class="cls-73" d="M111.82,141.21a1.9,1.9,0,0,1,.89,1.62C111.4,142.83,111.61,142,111.82,141.21Z"/><path class="cls-74" d="M200.92,268.62c-1.51-1.47-3.11-1.29-4.67-.16a7.65,7.65,0,0,1-6.13,1.48c-2.91-.55-5.17,1.16-7.63,2.18-1.52.46-3.14-.24-4.63.44l-.29,0-.25.13c-1.87.6-2.64,2.5-4.16,3.51s-2.83,1.24-4.18,0c-1.77-1.55-3.21-3.38-2.6-5.91.36-1.47,1.79-1.75,3.13-1.88a3.19,3.19,0,0,1,1,.11c1.46.29,2.28,2.84,4.55.64,1.28-1.25,3.81-1.3,5.51-2.53.13-.34.57-.48.56-.91-.44.15-.92.08-1.36.23-3.21,1.11-6.3,3.17-9.88,1.08-.7-.41-1.46.08-2.2.25-1,.25-2.19,1.78-3,0s-1.7-3.75-.25-5.53c1.31-1.61,2.92-.55,3.34.69.52,1.52.75,1.09,2.17,1.16,5.2.26,10.09-1,15.06-1.93a1.51,1.51,0,0,1,1.16.35c2.73,2.76,4.09,1.77,5.68-1.39.67-1.31,1.4-2.81,2.18-4.15,1.3-2.21-.1-4-2.24-4.87-1.76-.69-2-1.75-2.07-3.43q-.21-16.1-.59-32.2c-.07-3.45-.34-6.76-3-9.57a8,8,0,0,1-1.82-7.31,3,3,0,0,0-1-3.17c-.64-.58-1.14-1.31-1.77-1.91-5.41-5.17-10.93-10.28-8.94-18.84,1.25.54,3,1.39,4.76,2,2.18.78,4.4,1,2.57,4.47-1.56,3,2.52,4.33,3.24,6.83.09.32.89.43,1,.76,1.27,3.86,3.17,5.56,7,2.54.81-.63,1.23.16.68,2.74,2.89-1.41,4.44.37,5.74,2.36,1.57,2.41,2.16,5.16.48,7.64a8,8,0,0,0-1.25,4.87q0,22.94,0,45.87a15.5,15.5,0,0,0,.71,5.45,4.68,4.68,0,0,0,4,3.32c1.22.16,3.18-.52,2.91,1.85C204.19,267.91,203.47,269.55,200.92,268.62Z"/><path class="cls-75" d="M182.85,184.61c-1.36-.11-2.14-.9-1.93-2.1s.51-2.95,2.36-2.95,2.54,1.72,2.6,2.81C186,183.94,184.09,184.16,182.85,184.61Z"/><path class="cls-76" d="M173.87,259c.56,1.36,3.29.81,2.76,3.13a12.25,12.25,0,0,1-2.88.19c-1.08-.18-3,.66-2.93-1.41C170.87,259.18,172.26,258.75,173.87,259Z"/><path class="cls-77" d="M188.16,192c-1.62.06-2.19-.89-2.09-1.81.18-1.6,1.8-2.09,3-2.35,1-.2,1.56,1.26,1.51,2C190.5,191.44,188.89,191.51,188.16,192Z"/><path class="cls-78" d="M188.29,186.15a3.55,3.55,0,0,1-3.07,1.85c-.94,0-1.92-.47-1.81-1.38.19-1.55,2-1.71,3-2.34C187.07,183.9,188,185.11,188.29,186.15Z"/><path class="cls-79" d="M158.26,267.77c.46-2.85,1.76-3.75,3.51-3.81,1,0,1,1.34.85,1.78C161.88,267.66,159.9,266.42,158.26,267.77Z"/><path class="cls-79" d="M163.64,276.58c-3.15-.14-.51-1.77-.69-2.68.82-.14,1.3-2.17,2.46-.43C166.88,275.68,164.42,275.65,163.64,276.58Z"/><path class="cls-80" d="M190.12,255.67a2,2,0,0,1,1.56,1.91c.06.63.08,1.52-.83,1.33a2.15,2.15,0,0,1-1.68-1.78A1.3,1.3,0,0,1,190.12,255.67Z"/><path class="cls-80" d="M187.15,260.68c.34-.66.71-1.54,1.51-1.44,1,.13,1.18,1.11,1.15,2s-.42,1.23-1.24,1A1.81,1.81,0,0,1,187.15,260.68Z"/><path class="cls-81" d="M192.82,255.46c-1-.84-2.87-.65-3-2.42,0-.16.45-.55.62-.51C191.85,252.87,192.94,253.59,192.82,255.46Z"/><path class="cls-82" d="M179.73,266a3.83,3.83,0,0,1,3.07-1.18,3.61,3.61,0,0,1-2.27,1.86Z"/><path class="cls-74" d="M153.74,185.44c1.18.88.38,1.87.15,2.83a4.76,4.76,0,0,0,.76,3.61c-.54,2.63.62,5.13.67,7.75,0,1.8,2.21,2,3.91,1.62,1.87-.42,1.81.38,1.13,1.65a1.66,1.66,0,0,1-1.42,1c.71-.19,1.48,0,2.17-.3,4.22,2.53,5,8.66,1.26,11.77a6.49,6.49,0,0,0-2.26,3.7c-3.75,14.65-7.58,29.28-11.35,43.93-.69,2.7-1.67,5.52,1.18,7.72.63.95,1.78.49,2.63.95s2.28.22,2.51,1.6-.69,2.86-1.43,3.8-2.5.17-3.34-.69a4.62,4.62,0,0,0-5.61-.83c-3,1.42-5.85.89-8.71.07a11.13,11.13,0,0,0-11.45,2.69c-1.65,1.15-3.47,2.34-5.21.52a10.32,10.32,0,0,1-2.43-7.47c0-1.21,1.32-1.13,2.33-.88,1.47.37,1.91,1.61,2.38,2.86,2.42-2.48,5.86-1.73,8.68-2.88a1.71,1.71,0,0,1,.52-.31c.6-.21.13-.29-.05-.33a4.64,4.64,0,0,0-3,.05c-2.85.14-5.68.87-8.48-.68a2.44,2.44,0,0,0-3.64,1.55,2.45,2.45,0,0,1-2.44,1.69c-1.25.11-1.75-1.11-2.2-2.06a7.42,7.42,0,0,1-.6-5c.26-1,.15-2.63,1.91-2.43,1.57.18,3,.89,2.83,2.73-.16,1.46.18,1.2,1,.6,1.37-1,2.86-.52,4.32-.35a56.11,56.11,0,0,0,12.82.25l2.26,0c1.85.35,2.91,2.9,5.25,1.88.92-2.11,2.61-3.81,4-5.54,1.94-2.49,1.42-4.37-.25-5.92s-1.25-2.93-.85-4.6c2.63-10.93,5.21-21.87,7.86-32.79a5.13,5.13,0,0,0-.41-4,8.7,8.7,0,0,1-1-7.22c1.65-4.37.8-8.54-.2-12.69s.56-7.94,0-11.95C151.79,183.15,152.07,185.49,153.74,185.44Z"/><path class="cls-83" d="M118.13,264.67c1-3.72,1.75-3.94,5.75-1.7.57,1.1,1.7,1.58,2.58,2.35C122.79,267.25,121.06,267.11,118.13,264.67Z"/><path class="cls-84" d="M118.13,264.67a10.74,10.74,0,0,0,8.33.65c2.11,1.65,4.59.31,6.83.85-4.86.45-9.72,1.82-14.61.2a3.92,3.92,0,0,0-2.53-.1C116.4,265.23,117.8,265.61,118.13,264.67Z"/><path class="cls-85" d="M137.07,264.82c.8-.14,1.3-1.47,2.15-.91,1.17.77,1.17,2.11.94,3.4-.51,1-1.25,1.47-2.23.63S135.94,266.25,137.07,264.82Z"/><path class="cls-85" d="M141.51,260.25a2.51,2.51,0,0,1,1.3,2.68c0,.81-.32,1.7-1.26,1.38a2.12,2.12,0,0,1-1.52-2.18A2,2,0,0,1,141.51,260.25Z"/><path class="cls-85" d="M144.38,261.33c-.89-1.7-3.06-1.91-2.25-4.08.2-.52.51-.7.94-.37C144.31,257.86,145,259.05,144.38,261.33Z"/><path class="cls-84" d="M137.07,264.82c.06,2,.5,3.59,3.09,2.49l.64.71c-3,2.9-3.81-.38-5.25-1.88Z"/><path class="cls-86" d="M158.69,196.58c1.19-.27,1.76.1,1.88,1.41.14,1.7-.93,2-2.15,2.12s-2.1-.36-2.12-1.76C156.28,196.66,157.42,196.52,158.69,196.58Z"/><path class="cls-75" d="M156,191.12c-1-1.43-1.52-2.8.47-3.86.25.2.51.39.75.6.91.79,2.9,1,2.41,2.54C159.09,192.06,157.27,191,156,191.12Z"/><path class="cls-87" d="M158.41,195.33c-1.5,0-2.72-.38-2.62-1.9s1.47-.78,2.3-.88c1.08-.12,2.22-.2,2.2,1.45S159,195,158.41,195.33Z"/><path class="cls-88" d="M161.11,203.64c-.82.91-1.79.82-3.2.33l2.45-1.07Z"/><path class="cls-89" d="M112,278.53a3.86,3.86,0,0,1,1.6-4.45c.61-.48,1.5-1.38,2.11-.16.45.9,1.46,2.15-.26,3Z"/><path class="cls-76" d="M103.71,269.31a4,4,0,0,1,3.28-3.53c.73-.21,1.81-.76,1.9.68.06.91.66,2.25-1.14,2.38C106.5,268.93,105.26,269.13,103.71,269.31Z"/><path class="cls-90" d="M127.77,269.91c1.48-.91,3.06-.56,4.74-.44a2.05,2.05,0,0,1-2.22,1C129.59,269.69,128.58,270.21,127.77,269.91Z"/><path class="cls-91" d="M115,262.39c.9-.18,1.72-.64,2.25.36.09.16-.16.69-.38.79C115.75,264.05,115.57,263,115,262.39Z"/><path class="cls-92" d="M156.89,278.12c-.91-.34-1.73-.65-1.46-1.76a.87.87,0,0,1,.74-.35A1.58,1.58,0,0,1,156.89,278.12Z"/><path class="cls-74" d="M118,35c.64,2.38,2.16,2.82,4.53,2.67,3.94-.26,5.56,1.32,5.35,4.45l-8.54,11.55c-5.74,6.93-11.71,13.66-17,21a17.69,17.69,0,0,0-3.28,3.89l-5.77,7.09a23.06,23.06,0,0,0-3.87,4.67L84.8,95.49c-.46.21-.7-.07-.92-.39-1.25-.41-1.38,1.45-2.51,1.27-.5-.15-.83-.39-.5-1q5.3-9.25,10.59-18.51c.52-.91,1-1.87,1.43-2.8,1.82-3.26,4.57-6,5.73-9.63,5.52-7.23,9.68-15.31,14.39-23,.47-.77.27-1.92.55-2.84C114.2,36.4,115,34.35,118,35Z"/><path class="cls-93" d="M80.84,100l-1.19.81a1,1,0,0,1-.74-.74l.25-1.5c.7-.64,1.08-1.85,2.42-1.4a1.3,1.3,0,0,1,.71,1Z"/><path class="cls-94" d="M78.34,102.68c-.36.9-1.39,1.47-1.29,2.6-2-.88-2-.88.64-3.25A.76.76,0,0,1,78.34,102.68Z"/><path class="cls-95" d="M78.34,102.68l-.65-.65a1.94,1.94,0,0,1,1.22-1.94c.25.24.49.49.74.74A1.92,1.92,0,0,1,78.34,102.68Z"/><path class="cls-96" d="M81.62,97.39l-2.46,1.2a2,2,0,0,0-.15-.47l1.86-2.71.69.74a.86.86,0,0,1,.36.6A1,1,0,0,1,81.62,97.39Z"/><path class="cls-97" d="M177.86,272.56c1.47-.89,3.08-.31,4.63-.44C181,273.09,179.41,272.46,177.86,272.56Z"/><path class="cls-98" d="M81.62,97.39c0-.2,0-.4,0-.59.92-.59,1-2.22,2.58-2l.62.67a7.19,7.19,0,0,1-2.51,2.74Z"/><path class="cls-72" d="M129.11,29.91l3.29-.06A2.26,2.26,0,0,1,129.11,29.91Z"/><path class="cls-99" d="M194.16,209.56c.76,3.39,1,6.77-.71,10.18v-6.3C193.61,212.13,192.33,210.56,194.16,209.56Z"/><path class="cls-100" d="M194.16,209.56c-1.17,1.12-.22,2.63-.71,3.88-.84-1.73-.38-3.52-.5-5.38C194,208.29,194,209,194.16,209.56Z"/><path class="cls-101" d="M155.91,221.2l.73-3.29a5.28,5.28,0,0,1,0,4.76C155.92,222.39,156.33,221.61,155.91,221.2Z"/><path class="cls-102" d="M155.91,221.2l.69,1.47c-.28,1-.57,2-.85,3-1.23,0-.87-.67-.63-1.33C155.38,223.3,155.65,222.25,155.91,221.2Z"/><path class="cls-103" d="M155.12,224.35l.63,1.33c-.3.89-.4,1.91-1.71,2.37C154.37,226.71,154.29,225.42,155.12,224.35Z"/><path class="cls-104" d="M159.48,213a3.53,3.53,0,0,1-.89.28c-.48,0-.77-.31-.5-.77a.81.81,0,0,1,.75-.23C159.07,212.38,159.22,212.71,159.48,213Z"/><path class="cls-105" d="M101.7,68q6.76-9.71,13.51-19.42c1-1.5,2.41-2.81,2.79-4.7.18-.91.78-1.39,1.63-1s.55,1.09.25,1.71a5.12,5.12,0,0,1-.53.81L102.43,68.82C101.8,68.9,101.47,68.71,101.7,68Z"/><path class="cls-106" d="M101.7,68l.73.81a27.37,27.37,0,0,1-3.84,5.35.91.91,0,0,1-.73-.79A26.41,26.41,0,0,1,101.7,68Z"/><path class="cls-107" d="M95.92,77.94l-3.84,5.35a.88.88,0,0,1-.69-.78c1.27-1.79,2.55-3.57,3.82-5.35A.88.88,0,0,1,95.92,77.94Z"/><path class="cls-108" d="M95.92,77.94l-.71-.78,2.65-3.78.73.79Z"/><path class="cls-109" d="M88.1,88a7.61,7.61,0,0,1-3,4.68C85.21,90.34,86.19,89.26,88.1,88Z"/><path class="cls-110" d="M91.31,84.43a6.65,6.65,0,0,1-2.82,3.18c0-1.73,1.08-2.86,2.13-4C91.06,83.72,91.12,84.13,91.31,84.43Z"/><path class="cls-101" d="M84.18,94.82c-1,.45-1.11,2.11-2.58,2a1.43,1.43,0,0,0,0-.65c.55-.78,1.09-1.58,1.66-2.36.3-.4.64-1.09,1.22-.64C85.17,93.71,84.26,94.25,84.18,94.82Z"/><path class="cls-106" d="M91.31,84.43l-.69-.8.77-1.12.69.78Z"/></svg>