<svg id="Layer_1" data-name="Layer 1" xmlns="http://www.w3.org/2000/svg" viewBox="0 0 300 300"><defs><style>.cls-1{fill:#f5c00e;}.cls-2{fill:#158f6a;}.cls-3{fill:#f4bf0e;}.cls-4{fill:#f4c00e;}.cls-5{fill:#f3be0e;}.cls-6{fill:#f1bd0e;}</style></defs><path d="M19.8-.61H280.2a1,1,0,0,1,1,1V174.06A125.93,125.93,0,0,1,155.26,300h-8A128.49,128.49,0,0,1,18.81,171.5V.38a1,1,0,0,1,1-1Z"/><path class="cls-1" d="M22.15,133.09c0-15,0-29.94,0-44.9A5.77,5.77,0,0,1,24,83.64c8.4-8.29,16.67-16.7,25.09-25,1.51-1.48,1.59-2.3,0-3.78-3.75-3.51-7.25-7.27-11-10.83-1.25-1.19-1.54-1.87-.12-3.26Q50.21,28.86,62.15,16.71c1.2-1.2,1.88-1.23,3.08,0q11.86,12,23.87,23.87c1.41,1.38,1.54,2.18,0,3.6-3.81,3.6-7.41,7.42-11.18,11.06-1.17,1.13-1.35,1.78-.08,3Q91.64,71.85,105.23,85.6c1.38,1.39,2.12,1.12,3.36-.13Q122,72,135.49,58.6c1.37-1.35,1.61-2.14.07-3.59-3.83-3.59-7.42-7.42-11.19-11.06-1.18-1.15-1.32-1.83-.05-3.08q12.13-12,24.11-24.09c1.19-1.21,1.92-1.26,3.14,0q12,12.13,24.11,24.1c1.23,1.22,1.18,1.93,0,3.09-3.77,3.64-7.4,7.44-11.17,11.08-1.19,1.16-1.69,1.87-.21,3.33q13.78,13.56,27.35,27.34c1.28,1.28,2,1.07,3.13-.08q13.62-13.73,27.36-27.33c1.25-1.23,1.14-1.9-.05-3.05-3.86-3.71-7.56-7.58-11.41-11.29-1.24-1.19-1.19-1.93,0-3.12q12.12-12,24.11-24.1c1.18-1.19,1.86-1.25,3.07,0Q249.93,28.93,262.18,41c1.2,1.18.94,1.8-.09,2.81-3.76,3.66-7.36,7.48-11.19,11.06-1.56,1.47-1.56,2.27,0,3.78,8.42,8.26,16.68,16.69,25.1,25a6.12,6.12,0,0,1,1.9,4.88c-.05,27.75,0,55.5,0,83.25-.09,58.87-44.14,112.19-102.14,122.73-46,8.37-86.35-3.17-118.81-37.48C34,232.82,22.07,203.74,22.14,170.12,22.17,157.78,22.15,145.43,22.15,133.09Z"/><path class="cls-2" d="M22.15,82.29V78.42c0-23.82,0-47.63-.06-71.45,0-2.78.56-3.69,3.56-3.68q124.38.13,248.77.06c1.9,0,3.51-.27,3.49,2.71-.11,24.69-.06,49.38-.07,74.07,0,.4-.1.8-.3,2.31-1.87-2.06-3.17-3.6-4.59-5-6.16-6.2-12.28-12.44-18.58-18.49-1.85-1.78-1.65-2.72.09-4.34,3.67-3.42,7.1-7.1,10.72-10.6,1.17-1.13,1.33-1.87.07-3.12q-13.76-13.59-27.36-27.34c-1.2-1.21-1.93-1.24-3.15,0q-13.49,13.62-27.12,27.11c-1.52,1.5-1.21,2.37.14,3.68,3.63,3.48,7.09,7.13,10.71,10.61,1.32,1.27,1.74,2.07.16,3.61Q206.69,70.19,195,82.13c-1.37,1.39-2.17,1.56-3.64.06q-11.59-11.82-23.41-23.4c-1.73-1.69-1.47-2.65.13-4.15,3.57-3.37,6.94-7,10.48-10.37,1.31-1.27,1.75-2.07.17-3.62q-13.56-13.32-26.89-26.87c-1.46-1.47-2.33-1.32-3.69.07q-13.38,13.52-26.89,26.88c-1.37,1.34-1.23,2.12.06,3.37,3.71,3.55,7.23,7.3,11,10.84,1.47,1.39,1.41,2.27,0,3.67q-11.91,11.73-23.65,23.64c-1.28,1.3-2.06,1.4-3.4,0q-11.84-12-23.87-23.87c-1.36-1.33-1.26-2.09.05-3.35,3.71-3.55,7.23-7.29,10.95-10.83,1.45-1.39,1.44-2.28,0-3.7Q78.79,27.19,65.43,13.67c-1.26-1.27-2-1.49-3.39-.1Q48.57,27.22,34.93,40.69c-1.3,1.28-1.42,2,0,3.35,3.79,3.62,7.43,7.39,11.15,11.09.87.87,1.79,1.54.43,2.89C38.56,65.84,30.71,73.72,22.15,82.29Z"/><path d="M150.05,94.27A92,92,0,1,1,58,186,91.81,91.81,0,0,1,150.05,94.27Z"/><path class="cls-1" d="M64.55,199c5.39,41.22,43.94,77.52,93.58,73,41.05-3.69,74.44-37.41,77.73-77.73,4-48.94-30.94-87.44-73.08-93.47,1.23-2.09,3.1-2,5.14-1.6,34.68,6.86,63.21,35.85,69.3,70.43,8.53,48.4-21.08,92.78-69.05,103.49-47.27,10.56-96.62-22-105.27-69.36C62.56,201.9,62.71,200.31,64.55,199Z"/><path class="cls-1" d="M174.06,180.16c.38-1.38,1.35-1.52,2.05-1.92Q193.8,168,211.52,157.77c5.24-3,6.31-2.63,8.33,2.92a64.28,64.28,0,0,1,3.65,14.57c.44,3.67-.21,4.65-3.94,4.72-9.6.19-19.22.14-28.83.18Z"/><path class="cls-1" d="M156.11,162c0-14.92-.06-29.85,0-44.77,0-4.28,1.05-5,5.2-4.42a69.58,69.58,0,0,1,16,4.29c2.41.93,3.78,2.51,2.35,5-7.59,13.42-15.27,26.8-22.92,40.19Z"/><path class="cls-1" d="M143.89,210.31c0,15,.07,29.85,0,44.66,0,4.61-1.1,5.38-5.61,4.68a73.2,73.2,0,0,1-15.7-4.3c-2.69-1.06-3.64-2.76-2.16-5.33q11.38-19.8,22.85-39.54C143.26,210.42,143.42,210.43,143.89,210.31Z"/><path class="cls-1" d="M156.05,210.33c1.32.23,1.42,1.11,1.77,1.71q10.25,17.66,20.42,35.34a30,30,0,0,1,1.66,3.18c.85,2.05.31,3.64-1.81,4.51a68.21,68.21,0,0,1-17.92,4.77c-2.42.29-3.75-.76-3.91-3.2-.1-1.52-.2-3-.2-4.57q0-19.29,0-38.59Z"/><path class="cls-1" d="M126,192.29c-.39,1.37-1.36,1.51-2.06,1.92q-17.37,10.08-34.78,20.11c-1,.6-2.11,1.12-3.18,1.65-2.15,1.07-3.83.63-4.79-1.65a67.43,67.43,0,0,1-4.78-17.93c-.3-2.45.81-3.74,3.21-3.92,1.84-.13,3.7-.17,5.55-.17Z"/><path class="cls-1" d="M174,192.31c15,0,29.71-.05,44.43,0,4.92,0,5.69,1,4.92,6a70.55,70.55,0,0,1-4.15,15.08c-1.32,3.31-2.74,4-5.77,2.25-13.06-7.42-26.06-15-39.07-22.46C174.25,193.14,174.24,192.85,174,192.31Z"/><path class="cls-1" d="M132.45,204.39q-8.49,14.7-17,29.38c-1.85,3.21-3.66,6.45-5.64,9.59s-3.3,3.3-6.06,1.12a73.94,73.94,0,0,1-12.24-12.26c-1.53-1.94-1.84-3.89.5-5.27,13.22-7.79,26.49-15.49,39.75-23.21Z"/><path class="cls-1" d="M168.2,203.81l27.16,15.65c4,2.29,8,4.53,11.85,6.95,3,1.87,3.19,3.32,1,6.11a74.68,74.68,0,0,1-12,12c-2,1.61-4,2.11-5.51-.42-7.78-13.21-15.46-26.46-23.17-39.7Z"/><path class="cls-1" d="M168.1,168.77a2.52,2.52,0,0,1,.55-2.6q10.28-17.83,20.6-35.65c2.85-4.9,3.9-5,8.19-1.54a75.93,75.93,0,0,1,11,11.2c1.84,2.27,1.62,4.2-.92,5.68C194.43,153.49,181.34,161.08,168.1,168.77Z"/><path class="cls-3" d="M125.87,180H80.5c-.82-.76,0-1.17.37-1.58,4.4-5,8.84-9.95,13.23-14.95.85-1,1.47-1.65,3-.78,9.48,5.57,19,11.05,28.55,16.57C125.73,179.31,125.74,179.59,125.87,180Z"/><path class="cls-4" d="M143.71,115.66v46.43c-1.17-.16-1.24-1.19-1.64-1.87C137,151.45,132,142.63,126.8,133.9c-1-1.65-.89-2.51.57-3.77C132.72,125.55,137.93,120.8,143.71,115.66Z"/><path class="cls-4" d="M131.86,168.69c-8.77-5.07-17.32-10-25.91-14.93-1.52-.87-1.41-1.49-.26-2.6,3.21-3.1,6.35-6.28,9.49-9.46.85-.86,1.4-1.17,2.16.17,4.91,8.6,9.88,17.16,14.81,25.74C132.22,167.74,132.05,168,131.86,168.69Z"/><path class="cls-5" d="M150.09,206.84a20.65,20.65,0,1,1,20.56-20.63A20.59,20.59,0,0,1,150.09,206.84Z"/><path d="M149.53,204.86a18.68,18.68,0,1,1,19.14-18.25A18.57,18.57,0,0,1,149.53,204.86Z"/><path class="cls-6" d="M161.65,186.17a11.65,11.65,0,1,1-11.79-11.59A11.82,11.82,0,0,1,161.65,186.17Z"/><path d="M149.51,195.86a9.66,9.66,0,1,1,10.13-9.07A9.83,9.83,0,0,1,149.51,195.86Z"/></svg>