<svg id="Layer_1" data-name="Layer 1" xmlns="http://www.w3.org/2000/svg" viewBox="0 0 300 300"><defs><style>.cls-1{fill:#cbcbcb;}.cls-2{fill:#007041;}.cls-3{fill:#010302;}.cls-4{fill:#010403;}.cls-5{fill:#010402;}.cls-6{fill:#020303;}.cls-7{fill:#020403;}.cls-8{fill:#020504;}.cls-9{fill:#030604;}.cls-10{fill:#030605;}.cls-11{fill:#030504;}.cls-12{fill:#030705;}.cls-13{fill:#040706;}.cls-14{fill:#040806;}.cls-15{fill:#040807;}.cls-16{fill:#050907;}.cls-17{fill:#030806;}.cls-18{fill:#c7c7c7;}.cls-19{fill:#060a08;}.cls-20{fill:#070d0a;}.cls-21{fill:#c8c8c8;}.cls-22{fill:#030906;}.cls-23{fill:#060c0a;}.cls-24{fill:#070c0a;}.cls-25{fill:#040b08;}.cls-26{fill:#080c0b;}.cls-27{fill:#020705;}.cls-28{fill:#c4c4c4;}.cls-29{fill:silver;}.cls-30{fill:#07100c;}.cls-31{fill:#aaa;}.cls-32{fill:#979797;}.cls-33{fill:#6a6a6a;}.cls-34{fill:#717171;}.cls-35{fill:#aeaeae;}.cls-36{fill:#000d08;}.cls-37{fill:#bdbdbd;}.cls-38{fill:#b2b2b2;}.cls-39{fill:#000e08;}.cls-40{fill:#08120e;}.cls-41{fill:#adadad;}</style></defs><path d="M23.79-.61H276.21a1,1,0,0,1,1,1V174.06A125.93,125.93,0,0,1,151.28,300h0A128.49,128.49,0,0,1,22.79,171.5V.38a1,1,0,0,1,1-1Z"/><path class="cls-1" d="M127.26,280.31c-2.68-.09-5.19.29-7,2.85-1-1.84-.3-3.23.53-4.6-3.1-.51-5.83,1.37-6.07,4.3-.11,1.34-.18,2.22-1.85,2.13a2.49,2.49,0,0,0-1.82.74c-1.55,2-3.24,1.3-5,.56-40.92-16.81-66.39-46.6-75.55-90.05A128.88,128.88,0,0,1,28,169.44q0-81.31,0-162.64c0-2.18.39-2.91,2.78-2.91Q150,4,269.22,3.9c2.24,0,2.88.49,2.87,2.82Q272,88.31,272,169.87c0,29.32-8.16,56-26.63,79.06-14.53,18.16-33,30.86-54.87,38.64-2.05.73-3.17-.3-4.44-1.4-.81-.7-1.12-1.89-2.2-2.36-.56-.28-1.14,0-1.72-.06-3.31-.29-3.32-.27-3.72-3.65a3.56,3.56,0,0,0-.79-2.08c-1.06-1.2-2-1.08-2.59.4a7.79,7.79,0,0,1-1,2.26c-1,1.23-2.24,1.57-3.39.19a6.62,6.62,0,0,0-6-2.52c-1.65.14-2.16-.75-2.32-2.25a9.73,9.73,0,0,1,1.72-6.42c.58-.91,1.17-1.8,1.87-2.89-2.15-.44-3.49.69-4.87,1.7-1.85,1.33-2.31,1.12-2.76-1a31.3,31.3,0,0,1-.49-6.48c0-9.65,0-19.29,0-28.93,0-1.06-.3-2.21.55-3.12,1.21-.62,1.62.36,2.16,1.08a39,39,0,0,0,7.92,8c.85.62,1.7,1.89,2.69.52s-.61-1.62-1.29-2.24a57.17,57.17,0,0,1-11.54-31.59,8.7,8.7,0,0,0-.44-3.16c-.09-.83-.06-1.66-.07-2.49a14,14,0,0,0-.45-4.65c-.1-1.63,0-3.26-.05-4.9-.13-3.81.29-7.65-.26-11.45-.4-1.41-.3-2.7,1.14-3.48a2.83,2.83,0,0,1,3.69.36,2,2,0,0,0,1.78.69c2.22-.28,2.36,1.18,2.06,2.72a54.76,54.76,0,0,1-1.16,5.64c-.62,2,.42,2.95,2.54,2.49,2.85-.62,2.84-.62,4,2.15.37.88.54,2.16,2,1.64,1.25-.45,1.11-1.51.87-2.54-.42-1.73-1.31-3.55,1.94-3.41,1.36.06,1.3-1.25.67-2.26a11.36,11.36,0,0,1-1.82-3.83c-.22-1.22,0-2.27,1.28-2.65s2,.41,2.4,1.6c.1.32-.12,0,.07.24,2.9,4.15,2.66,8.17-.39,12.15a6.78,6.78,0,0,0-1,3.08c.31,2,1,3.71,3.1,4.45a2,2,0,0,1,1.28,2.21,10.67,10.67,0,0,0,.1,2.26c.38,1.66,1.88,2,3.13,2s.83-1.29.79-2c-.1-2.08.73-3,2.83-2.64.65.11,1.32-.26,2,.06,1.44,1.81-.19,3.15-.83,4.55s-.57,2.54.9,3.36c.84.47,1.55.81,2.43-.12,1.26-1.33,2.21-.68,2.84.77.44,1,.74,2.05,1.1,3.08a2.09,2.09,0,0,0,2.12,1.44c1.58.07,2.2-.5,1.68-2.09s-1.43-3.41,1.66-3.68c1.33-.11,2.25-3.08,1.68-4.41-.13-.31-.29-.61-.44-.91-1.87-3.7-1.87-3.7,1.93-4.17,1.72-1,2.48-.45,2.9,1.47a36.91,36.91,0,0,1,.45,6.95c.06,2.32,1.82,4.51,3.94,4.2,1.95-.28,2.92.77,4.15,1.68,1.8,1.28,2.67-.43,3.52-1.33,1-1.06-.41-1.7-1-2.43a13.39,13.39,0,0,1-1-1.12c-.76-1.21-.88-2.32.9-2.54,1-.13,1.77-.41,2-1.49s-.37-1.82-1.28-2.45a17.57,17.57,0,0,1-3.21-3.18,1.12,1.12,0,0,1-.23-1.38,1.38,1.38,0,0,1,1.33-.54,7.09,7.09,0,0,1,6.95,7.12,54.58,54.58,0,0,0,.65,5.73,1.82,1.82,0,0,0,2.28,1.78c2.52-1,3.54.61,4.61,2.2.76,1.13,1.53,1.15,2.77.81,1.91-.53,2.23-1.43,1.41-3.09-.39-.8-1.06-1.71-.22-2.54s1.7-.18,2.52.26a1.8,1.8,0,0,0,2.59-.73,1.7,1.7,0,0,0-.48-2.44,32.42,32.42,0,0,1-3.06-3.66,1.4,1.4,0,0,1-.36-1.61c.4-.79,1.15-.59,1.78-.46a9.84,9.84,0,0,1,5.6,3.61c1.27,1.55,2.68,1.44,4.26.72.93-.42,1.18-.89.61-1.94-1.45-2.63-1.2-3,1.69-3,2.52,0,5,0,7.55,0,1.44,0,2.49-1.48,2.44-3.38-.05-1.69-1.4-1.18-2.25-1.15a45.12,45.12,0,0,1-7.25-.55c-2.15-.31-2.58-.88-1.72-2.92.48-1.15-.08-1.73-.72-2.4-.84-.88-1.64-1.65-3-1a16.08,16.08,0,0,1-8.11,1.27c-.82-.06-1.7.11-2.35-.62a1.55,1.55,0,0,1-.23-1c.53-1.82,2-3.63-.12-5.46-.58-.5-.3-1.26.26-1.77s1.06-.55,1.48-.93c.79-.71,2.93-.43,2-2.43-1.15-2.55-2.21-3-4.44-1.88a16.85,16.85,0,0,1-2.29,1,1.5,1.5,0,0,1-2.12-1.1c-.88-2.42-3.48-2.91-5.65-1.1-3.2,2.36-6.57,4-10.72,2.69-1.07-.35-1.46-.69-1-2a2.52,2.52,0,0,0-2.5-3.65c-7.21.39-13.65-1.91-19.68-5.64a152.75,152.75,0,0,1-21.62-16.62c-1.24-1.11-2.66-2-3.84-3.22a3.88,3.88,0,0,1-1.19-5.06c.62-1.38,1.67-1.65,2.64-.45A21.92,21.92,0,0,1,169,141c.74,1.29,1.91,1.46,3.23,1.38,1.52-.1,1.27-1.22,1.33-2.2.1-1.5,1.36-1.72,2.42-2.17,1.8-.68,2.77-.25,3.11,1.85.31,1.89.48,3.81.89,5.69.48,2.21,2.49,3.93,4.69,3.25,2-.64,2.73.33,3.48,1.78.49.94.87,2.16,2.22,2.09a4,4,0,0,0,2.94-1.24c.82-1-.36-1.65-.67-2.44s-1-1.56-1.37-2.39-.58-1.66.31-2.25a1.91,1.91,0,0,1,2.34.24,5.91,5.91,0,0,1,1.25,1.86c1.22,2.09,3.21,2.34,4.47.36,1.13-1.78,2.16-1.64,3.69-.59,1.74,1.19,3.21,2.89,5.59,3,.94.05,1.29,1,1.33,1.88.05,1.17,0,2.35,0,3.52a3.79,3.79,0,0,0,5.34,3.5c1.69-.85,2.46-.31,3.26,1,.49.78,1.2,1.38,1.69,2.18a1.36,1.36,0,0,0,2.15.42c2.67-1.61,2.68-1.61.91-4.28-.85-1.28-1.13-2.35,0-3.82s2.18-3.51,0-5.27a1.33,1.33,0,0,1-.36-2A1.38,1.38,0,0,1,225,146c.62.28,1.24.7,1.89.22,2.22-1.64,2.54.22,3,1.65.67,2.26,1.24,4.56,3.4,6,1,.87,2.19.69,3.36.68.9,0,1.32-.36,1.27-1.4-.12-2.1,1-2,2.41-1.2a17.76,17.76,0,0,1,2.54,1.64c1.43,1.12,2.26.3,3.11-.77.95-1.22.65-2.09-.59-2.9-1.47-.95-2.32-2.06-1.14-3.94.69-1.09,0-2.11-1.14-2.66-.9-.44-1.91-.64-2.8-1.1a2,2,0,0,1-1.21-2c.12-1.09,1-1.2,1.89-1.22,2,0,4,0,6.05,0,2.55-.07,3.5-1.29,2.68-3.7a2,2,0,0,1,1.1-2.67c1.53-.88,3.12-1.64,4.7-2.42s1.59-1.79,1.08-3.14c-.6-1.61-1.65-1-2.67-.57A66.7,66.7,0,0,1,240.1,130c-1.15.17-1.93,0-2.31-1.28-.76-2.53-1.59-2.94-4.22-2.23a46.9,46.9,0,0,1-12.12,1.81c-2.25,0-4.06-.24-4.29-3,0-.53-.55-.82-1-1s-1.2-.45-1.24-1.23a2.28,2.28,0,0,1,1.43-1.32c1.24-.58,1.86-1.28,1.15-2.74s-1.43-2.17-3.11-1.58-3.4,1.42-5.2,1.87c-1,.27-2.06.41-2.74-.54-1-1.38-2.37-1.21-3.65-1-8.34,1.37-15.89-.72-23-5a103.87,103.87,0,0,1-14.61-10.58,2.81,2.81,0,0,1-.76-4c.45-2.87,2.79-2.41,4.65-2.47s2.13,1.49,2.5,2.92a19.53,19.53,0,0,0,1.23,3.54c.87,1.81,2.14,2,3.21.38.83-1.25,1.53-1,2.34-.09a10.63,10.63,0,0,1,1,1.74c.84,1.53,2,1.81,3.23.6a2.69,2.69,0,0,1,3.37-.57c2.21.86,2.74.45,3.12-2.13-1.08-1.74-2.77-2.92-4.1-4.43-.67-.76-1.47-1.47-.81-2.63A5.09,5.09,0,0,1,186.38,94c1.5-.44,2.44-.06,2.71,1.61.42,2.58,1.31,4.67,4.56,4.51.92,0,1.36.87,1.44,1.8s0,1.68.07,2.52c.34,2.93.83,3.41,3.86,3.18,1.88-.14,2.38,1.2,3.15,2.39s1.18,2.49,3.06,1.73c1.28-.52,2.33-.84,1.63-2.62-.48-1.22.31-1.86,1.53-2s2.21-.34,2.81-1.41c1.09-2,2.22-1.3,3.38-.11a28.54,28.54,0,0,0,5.76,4.81,2.27,2.27,0,0,0,2.58-1.87c.31-1.54,1.27-1.8,2.63-1.43,1.06.29,2.07.69,3.12,1a1.79,1.79,0,0,0,2.36-1.29c.47-1.24-.57-1.45-1.28-1.74-1.94-.82-4.13-1.31-3.47-4.3.16-.7-.81-.64-1.36-.74a77,77,0,0,1-10.69-2.77c-2.61-.86-2.66-1.11-1.17-3.27a2.28,2.28,0,0,0,.46-1.15c.17-1.61,1.14-1.78,2.53-1.51,2.73.54,3.49-.18,3-3-.23-1.26.37-1.65,1.27-2.06a7.39,7.39,0,0,1,3.23-.31,2.38,2.38,0,0,0,2.59-1.55c.43-.66,1.36-1.25.91-2.11s-1.35-.3-2.06-.39c-1-.12-2.26.27-2.54-1.28,1.21-2,3.48-2.77,5.15-4.25s1.54-2.6-.11-3.61a1.88,1.88,0,0,0-2.51.33,21.11,21.11,0,0,1-2.81,2.09c-1.51,1.08-3,2-4.55,0-.57-.74-1.37-.38-2,.17-6.29,5.65-13.6,7.32-21.89,6.17-3.63-.5-7.31-.74-10.9-1.45-8.57-1.7-15.93-6-22.88-11-1-.69-2.15-1.42-2-2.94,1.41-1.43,2.51-.07,3.53.54,1.72,1,3.08,1.36,3.83-1,.34-1.06,1.06-1.13,2-.93a20,20,0,0,1,3.54,1.21c.68.29,1.6.78,1.94-.21s.79-2.13-.33-3a5.91,5.91,0,0,0-1.57-.78c-1.5-.53-2.77-1-2-3.17.44-1.36-1.8-3.06-3.84-3.09-1.77,0-3.52,0-5.06-1.05-.76-.53-1.78-1.08-1.31-2.12s1.58-.67,2.42-.29c1.17.55,2.31,1.06,3.49.06.72-.3,1.73-.23,1.52-1.53s.69-1.57,1.7-1.62a29.48,29.48,0,0,1,3.76,0c1.62.12,2.35-.6,2.87-2.1.46-1.33.34-2.07-1-2.45-.67-.18-1.3-.44-1.34-1.26s.66-1.31,1.32-1.66c2.65-1.41,5.23-3,7.93-4.28,2.28-1.12,3.09-3.27,2.44-5.83-.89-1.48-2.07-1.15-3.27-.52-3.71,2-7.33,4.06-11.13,5.84a6.84,6.84,0,0,1-2.09.84c-1.08.11-2-.23-1.51-1.52s.13-1.92-.85-2.74c-1.54-1.3-.75-3-.18-4.42.7-1.78.08-2.8-1.42-3.74-1.33-.83-2.18-.55-2.85.73a53.15,53.15,0,0,1-3.19,5.4c-.45.67-.87,1.62-1.9,1.33s-.92-1.28-.93-2.11c0-2.09-.11-4.2,0-6.29.21-3.78-.75-7.49-.6-11.27,0-.72.35-2.28-1.43-1.93-3,1.67-4.85,3.79-4.62,7.59.29,4.68.08,9.4.06,14.1,0,.9.21,2.07-.87,2.41s-1.78-.65-2.26-1.57c-1.37-2.59-2.42-5.34-3.69-8-.64-1.31-1.36-1.53-2.58-1.09a1.76,1.76,0,0,0-1.18,2.57c.65,1.8,1.37,3.48-.35,5.33-.8.87.5,2.15,1,3.17.42.86,1,1.71.16,2.51s-1.6.19-2.33-.2c-3.55-1.89-7.07-3.82-10.5-5.92-.94-.58-1.93-1.56-3.21-.65-.79.56-2,.89-1.88,2.13a4.75,4.75,0,0,0,2.22,4c2,1.23,4.31,1.85,6.44,2.82.92.42,2.4.54,2.35,1.92s-1.56,1.3-2.51,1.65c-.69.26-1.48.24-2,.83,1.16,3.45,3.8,3.19,6.53,2.8,1.48-.21,3.2-.61,2.05,2-.39.89.22,1.64.82,2.23s1.39.2,2.07-.13a36.32,36.32,0,0,0,3.3-1.81c.72-.44,1.64-.77,2.26.13s0,1.39-.52,2a10,10,0,0,1-7.21,3.63c-3.69.38-4.1.77-4.34,4.35-.1,1.43-1.35,1.54-2.32,2-1.36.57-2.6,1.13-2.15,3.06.26,1.11.79,1.44,1.77,1a31.15,31.15,0,0,1,3-1.14c1.2-.32,2.39-.79,3.08,1,.43,1.08,1.61,1.06,2.62.52s1.95-1.39,2.7-.44c.89,1.14-.56,1.85-1.15,2.68-7.18,4.94-14.7,9.13-23.35,10.86-6.74,1.35-13.49,2.48-20.37,1a24.14,24.14,0,0,1-9.63-4.73c-.85-1-1.72-1.52-3-.43-1.07,1-2.18.61-3.15-.29a30.78,30.78,0,0,0-2.55-2.43,3.94,3.94,0,0,0-5.08.2c-.93.77-.28,1.27.19,1.86,1.17,1.46,2.92,2.26,4.16,3.64.47.52,1.41.86,1,1.81-.33.71-1.09.66-1.76.73-2.36.24-2.25.21-1.3,2.46a3.76,3.76,0,0,0,4.3,2.61,10,10,0,0,1,2.51,0c1.26.17,2,.81,1,2A1.72,1.72,0,0,0,82,90.42a2.63,2.63,0,0,0,2.78,1.25c1.38-.29,2.89-1.09,4.1.63s1.09,2.5-.81,3.25A60.27,60.27,0,0,1,78,98.48c-.83.16-1.61.47-2.45.55a1.16,1.16,0,0,0-1.18,1.54c.36,1.8-.81,2.33-2.21,2.74-.58.16-1.19.12-1.73.31-1.27.46-3.28.17-2.52,2.7s1.41,3.07,3.9,2.3c1.6-.49,3.16-1.1,4.78-1.54a1.89,1.89,0,0,1,2.58,1.23c1.29,2.76,2.29,2.88,4.36.64a28.24,28.24,0,0,1,4.9-4.3c.8-.54,1.58-.81,2.14.17.81,1.43,2.06,1.56,3.46,1.39,1.22-.15,1.64.53,1.21,1.48-.7,1.53-.44,2.73,1,3.35a3,3,0,0,0,3.7-1.41,4.21,4.21,0,0,1,3-1.9c3.68-.93,3.84-1.23,3.46-5.13a3.86,3.86,0,0,1,.14-1.75c.62-1.2,1.48-.55,2.36-.37,2.44.5,2.37.46,2.37,3,0,1.31,1.2,1.93,2.13,2.59s1.37-.15,1.91-.65a14.3,14.3,0,0,1,1.19-1.27c.61-.44,1.22-1,2-.85,2,.43,3.76.46,5.15-1.35.3-.38,1.16-.47,1.29,0,.66,2.3,2.78,1.92,4.35,2.54a1.27,1.27,0,0,1,.36.65,1.8,1.8,0,0,1-.81,1.73c-6.28,4.44-12.42,9.15-20.29,10.5a25.7,25.7,0,0,1-10.69-.44c-1-.26-1.95-.4-2.63.7-.9,1.47-2,1.35-3.44.62-3.43-1.8-4.14-1.63-6.89,1.15-.3.3-.79.75-.58,1,1.49,2-.41,3.78-.19,5.68-.3,2.37-2.33,1.92-3.65,1.88A59.47,59.47,0,0,1,67,126.17c-.92-.25-1.8-.45-2.45.52-.38.55-.94,1.11-.77,1.8.59,2.43-1,2-2.31,1.76a48.44,48.44,0,0,1-12.65-4.79c-2.34-1.2-4.45,0-4.8,2.63-.14,1,.64,1.28,1.27,1.62,1.77.95,3.63,1.75,5.37,2.76.82.48,1.49,1,.69,2.19-1.31,2-.63,3.19,1.83,3.69,1.51.21,3.12-.46,4.52.57.58.85-.22,1.36-.45,2-.33,1,.36,1.79.86,2.52,2,2.91,1.94,2.82-1.24,4.83-1,.63-2.76.8-2.38,2.72,1.52,2.7,1.53,2.67,4.09,1.21,1.72-1,3.34-2.21,5,.37.79,1.2,3.68.28,5.22-1.32a8.55,8.55,0,0,0,2.6-4.21c.52-1.45,1.17-2.15,2.75-1.52,1.07.44,2.4-1,3.29.2s-.81,2-1.09,3a3.92,3.92,0,0,0,.57,2.63c.54,1.18,1.32.43,2.1.26,1.92-.43,2,.55,1.35,2-1.25,1.56-2.49,3.13-3.78,4.66-.72.86-1.31,1.69,0,2.47,1.1.67,2.17,2.31,3.61.59a28,28,0,0,0,2.62-3c.92-1.47,2-2.21,4-1.23,2.81,1.39,4,.5,4-2.62,0-.84,0-1.68,0-2.52,0-3,0-3,3-3.13a2.22,2.22,0,0,0,1.74-.81,40.2,40.2,0,0,1,2.86-2.83c1.18-.5,1.75.09,2,1.18.26,1.4,1.37,1.49,2.44,1.75,1.28.31,1.82-.58,2.4-1.4a6.86,6.86,0,0,0,1.11-2.25c.44-1.72,1.6-1.81,2.89-1.25,1.49.66,1.18,1.88.58,3-.76,1.39-1.77,2.64-2.49,4.07-.5,1-.38,1.41.72,1.84,3,1.16,3.67,1,5.29-1.75.94-1.59,1.56-2.85,4-1.41s4.28-.39,4.3-3.17c0-2,0-4,0-6,0-1.51.75-2.17,2.27-1.8.4.11.76.4,1.18.37,1.92-.14,3.3.07,2.76,2.65-.24,1.17,1,1.39,1.9,1.43,1.18,0,2.33.11,3,1.29a1.82,1.82,0,0,1-.71,2c-7.55,6.5-15.08,13-23.68,18.16-5.79,3.45-12,5.57-18.86,5.23-1.74-.09-2.24.84-1.66,2.15.93,2.13-.42,2.63-1.89,2.86a9.83,9.83,0,0,1-8.6-2.52c-2.74-2.53-5.17-2.09-6.83,1.21a1.66,1.66,0,0,1-2,1,12.37,12.37,0,0,1-3.1-1c-1.64-.84-2.84-.67-3.7,1.12s.77,2,1.72,2.67c.42.27.91.44,1.33.71,1.68,1.07,1.68,1.74,0,2.94s-1.86,2-.19,3.5.64,1.73-.59,2.13a9.2,9.2,0,0,1-7.1-.42c-2.28-1.13-4.17-.5-6.11.71-.69.44-1.15.79-.88,1.78.53,2.06,0,2.75-2.27,2.86a65.58,65.58,0,0,1-7.55,0c-1.62-.11-1.85.52-1.64,1.88.62,3.87,1,4,5,4.3,2.43.16,4.77-1.25,7.18-.16.88,1.21-.22,1.82-.81,2.54-.8,1-.57,1.55.41,2.22,2.84,1.92,3,2,5.43-.54a59.42,59.42,0,0,1,7-6c.77-.57,1.57-1.16,2.45-.31s.18,1.71-.38,2.41a69.45,69.45,0,0,1-5.51,6.49c-.6.59-1.32,1.18-.89,2.14a2.28,2.28,0,0,0,2.07,1.59c2,0,2.32,1.16,1.57,2.66-.67,1.34-.25,2,1,2.51s2.41,1.53,3.53-.09c.91-1.31,1.91-2.54,2.83-3.84.8-1.12,1.73-1.7,2.83-.39.94,1.12,1.78.4,2.67,0a1.86,1.86,0,0,0,1.18-2.44,17.17,17.17,0,0,1-.28-5.25c0-2.64.49-2.89,3-1.8a1.34,1.34,0,0,1,.51.92c-1,2.88-.84,3.24,1.83,4.07,1.21.37,1.34,1.11.91,2.11a6.06,6.06,0,0,1-1.29,1.52c-.84,1-2.25,1.72-.37,3.14s2.41,1.55,3.91-.17a15.15,15.15,0,0,1,1.7-2.15c.61-.49,1.27-1,2-.66,3,1.46,4.6-.55,6.35-2.31a1.91,1.91,0,0,1,1.18-1.36c1.34-.41,2,.8,3,1.24,3.39.38,3.3.35,2.08,3.93-.28.83-1.91,2.05,0,2.92a3.05,3.05,0,0,0,4.28-1.76c.26-.7.47-1.43.72-2.14.9-2.55,1.17-2.66,3.53-1.26,1.33.79,2.23-.13,3.19-.71s.77-1.39.39-2.22c-.58-1.3-1.39-2.5-1.84-3.85-.31-.95-1.11-2.11.21-2.91.86-.52,3.09.73,3.4,1.89a8.76,8.76,0,0,0,.64,2.41,2.22,2.22,0,0,0,2.61,1c1-.2.86-1.08.91-1.82a13.09,13.09,0,0,1,.37-4c.51-1.41,1.1-2.06,2.5-.93s2.16.87,2.2-1c0-1.32,1.1-2,1.69-3a2.09,2.09,0,0,1,.88-.61.87.87,0,0,1,.49-.09c2.46.84,3.64-.21,4.09-2.61a1.83,1.83,0,0,1,1.74-1.58c3.67.16,5.32-1.25,5.16-4.82-.14-3.23.11-6.15,3.22-8a3.12,3.12,0,0,1,1.48-.2c2.32.07,2.84.71,2.15,3A91.21,91.21,0,0,1,139.32,190c-.91,1.88-1.91,3.72-2.77,5.62a50.39,50.39,0,0,1-11.88,13.53c-1.07.81-2.32,1.34-3.34,2.23a39.55,39.55,0,0,1-15.14,4.2c-3.59.19-4.32.93-5.12,4-.39,1.51,0,2.12,1.57,1.78a5,5,0,0,1,1.49-.22c1.53.13,2.06.93,1.16,2.11a3.44,3.44,0,0,0-.7,3.22c.52,2.22-1.52,2.91-2.81,4-2.62,1.31-5.08,2.88-7.84,3.94a28.22,28.22,0,0,1-14.8,1.43,4.25,4.25,0,0,0-4.74,2.67c-.62,1.59-1.87,1.64-3.26,1.74-1.23.09-3.14-.79-3.08,1.71s1.13,3.57,3.63,3.26a25.21,25.21,0,0,1,5-.45c.91.06,1.93-.11,2.41.94s-.22,1.59-.75,2.24a1.91,1.91,0,0,0-.63,1.56c1.9,2.07,2.25,2.1,4.2.29.49-.46.94-1,1.44-1.41,1.67-1.5,2-1.44,2.87.71.61,1.42,1.52,1.62,2.76.84.51-.66,1.14-1.23,1.62-1.9.82-1.13,1.54-1.67,2.76-.34,1,1,2,.5,2.75-.47A30.84,30.84,0,0,1,98,244.63a1.35,1.35,0,0,1,1.81-.3c.71.48.51,1.19.21,1.8a18,18,0,0,1-3.69,4.38c-2.27,2.26-2.27,2.35-.34,4.87a3.69,3.69,0,0,1,.29.4c2.08,3.57,2.08,3.57,5.12.65.73-.5,1.47-.8,2.28-.13a3.7,3.7,0,0,0,.6.44c3.79,2,5.08,1.29,5.1-2.86,0-1.08-.47-2.65.21-3.14a12.81,12.81,0,0,0,4.46-5.14c.28-.63,1.72-.33,2.6-.59,1.57.2,1.6,1.18,1.21,2.39-.27.87-1.25,1.91.41,2.43,1.43.44,3,1.13,4.11-.5.86-1.24,1.38-2.68,2.12-4,.46-.82.92-1.65,2.07-1.52,2.39.29,3.29-1.33,3.85-3.17a11.67,11.67,0,0,0,.17-7.41c-.38-1.06-.38-2.06.75-2.6a1.91,1.91,0,0,1,2.7,1.09,2.3,2.3,0,0,0,3,1.44c1.67-.47,1.52-1.78,1.54-3,0-1.85-.1-3.7.05-5.54s.81-3.57,3-4.07a1.22,1.22,0,0,1,.67.46,96.29,96.29,0,0,1,.12,16.55c-.07,1.24-.28,2.49-.28,3.75,0,6.22-.13,12.43,0,18.64.14,5.3-.8,10.54-.58,15.83,0,.81.07,1.82-1,2.07s-1.49-.56-2-1.23-1-1.54-1.49-2.33a9.38,9.38,0,0,0-2.09-2.81c-.72-.54-1.62-1.41-2.46-.88-1.1.68,0,1.62.22,2.42.19.64.45,1.26.65,1.9,1,3.18.69,3.7-2.67,4.23C129.57,279.32,128.48,280,127.26,280.31Z"/><path class="cls-2" d="M183.31,284.32l3.79,4.39c-25.76,7.88-51.18,7.66-76.69-.87a3.57,3.57,0,0,1,3.53-1.92c1.52,0,1.9-.62,1.74-2a3.67,3.67,0,0,1,.59-2.65c.49-.69,1.09-1.48,2-1.25s.41,1.15.46,1.76a5.12,5.12,0,0,0,1.9,3.64c.81-4.3,4.4-3.73,7.19-4.6.67-1.88,2.19-2.05,3.88-2.05,2.21,0,2.5-.43,1.89-2.54-.4-1.37-.87-2.71-1.38-4.05-.26-.68-.85-1.47-.17-2.08s1.53.1,2.26.45c2,1,2.72,2.89,3.81,4.56.7,1.07,1.08,3.09,2.55,2.7s.66-2.33.75-3.57c.76-11.64,0-23.32.66-34.95.52-9.66-.16-19.27.07-28.89.1-3.83.48-7.67.6-11.53.06-1.82,1.82-3.09,2.21-4.52-1,1.89-2,4.25-3.92,6-1.19,1-1,2.38-.68,3.74.42,2.13,1.42,4.14,1.24,6.38-2,2.2-2.63,4.53-1,7.28a2.48,2.48,0,0,1-.08,3.07c-1.86,2.09-1.71,4.6-1.63,7.11,0,1.09,0,2.19,0,3.28,0,1.25-.41,2-1.8,2.25-1.24.2-2.33.42-2.9-1.09a5,5,0,0,0-.72-1.32c-.66-.83-1.43-.71-2.26-.3s-.89,1-.56,1.89a11.61,11.61,0,0,1-.2,8.8c-.7,1.77-1.51,3.52-4,2.35-.93-.44-1.12.45-1.41,1-.77,1.49-1.45,3-2.28,4.49s-4.52,1.75-5.5.35c-.52-.74,0-1.44.26-2.14s1-1.36.48-2.08c-.69-.9-1.53,0-2.3.09-2-.36-2.89.4-2.48,2.42.27,1.3-.33,1.75-1.47,1.63-2-.22-2.17.94-2.11,2.48s0,3,0,4.54c0,.86-.44,1.74-1.27,1.47-1.64-.53-3.71.22-4.88-1.9-.86-1.55-1.32.32-2,.57-2.28,2.77-3.27,3.22-4.38,1.36-1-1.66-2-3.41-2.87-5.19-.42-.86.47-1.26,1-1.75a16.21,16.21,0,0,0,4.46-5c.31-.61,1.16-1.28.17-1.92s-1.5.17-2,.89a27.93,27.93,0,0,1-1.76,2.44C94.93,249,93.92,249,93,247.31c-.61-1.19-1-.84-1.56-.12a26.36,26.36,0,0,1-2.63,3.33c-1,.13-2.28.41-2.64-.68-.49-1.43-.79-3.07.54-4.37-1.85,1.87-3.77,3.69-5.7,5.47-1.73,1.6-2.9-.21-3.92-1.5,0-1.24,1.07-1.83,1.74-2.66.87-1.07.64-1.65-.76-1.75a42.61,42.61,0,0,0-6.48.46c-3,.26-3.93-.8-3.84-3.72,0-1.1.44-1.75,1.62-1.77.93,0,1.85,0,2.77,0a2,2,0,0,0,2.19-1.6A4.18,4.18,0,0,1,79,235.51c6.91,1.43,13.26-.1,19.3-3.45,1.11-.61,2.18-1.26,3.29-1.86.74-.53,1.55-1,2.25-1.59.86-.73,1.59-1.48.52-2.71-.7-.79-.56-1.63.44-2.32a3.63,3.63,0,0,0,1.66-2.06,7.13,7.13,0,0,0-3.61.12c-1.85.49-2.47-.26-2-2.13.94-3.53,1.47-4,5.33-4.21a36,36,0,0,0,15.24-4.37c6.46-3.7,11.08-9.16,14.82-15.47A82.13,82.13,0,0,0,144.52,175c1.51-6.34,3.09-12.68,4.12-19.12.13-.84-.06-2.16,1.2-2.15,1.06,0,1.26,1.16,1.49,2.08a101.53,101.53,0,0,0,5.06,14.46c.71,1.72.62,3.54.83,5.35.76,6.59-.25,13.21.74,19.78.41,2.71.3,5.48.52,8.23a63.51,63.51,0,0,0,9.74,29.76,27.19,27.19,0,0,1,1.92,2.63,12.36,12.36,0,0,1,.93.84,1.52,1.52,0,0,1,0,2.25c-.84,1-1.46.16-2.1-.33a50.07,50.07,0,0,1-10.17-10.64c-.8-.74-.61-1.9-1.14-2.75.94,1.56.4,3.23.39,4.88q0,17,0,34c0,2.33,1,4.59.51,7,0,1.31-.05,2.63,0,3.95-.75-4,1-6.72,4.51-8.46.83-.41,1.76-.92,2.52-.06s-.21,1.55-.67,2.14a10.89,10.89,0,0,0-2.39,7.69c.1,1.41.54,2.08,2,1.69a5.42,5.42,0,0,1,6.08,2.34c1.21,1.63,2,1.4,3.07.05a8.19,8.19,0,0,0,1.15-2.19c.26-.67.22-1.87,1.49-1.63a2.76,2.76,0,0,1,2.21,1.84,4.53,4.53,0,0,1,.07,3c-.63,1.72.23,1.81,1.52,1.81C181.28,283.37,182.56,283,183.31,284.32Z"/><path class="cls-3" d="M140.91,210.72c0-2.65-1.15-5.06-1.68-7.6-.19-.87-.39-1.63.37-2.3,3-2.63,4.71-6.07,6.21-9.66.08-.19.34-.3.77-.34a13.56,13.56,0,0,1-2.11,5.54,8.64,8.64,0,0,0-1.11,4.3c-.45,11.59-.34,23.18-.53,34.77-.23,13.86-.56,27.71-.87,41.57,0,.68.4,1.68-.57,2-.75.22-1.4-.42-2-.92a13.17,13.17,0,0,1-2-3.17c-1.22-2-2.47-3.95-5.27-4.61,1,3.33,2.48,6.26,2.7,9.84-2.59-1.05-5-1.44-7,.74l-.55-.54a4.16,4.16,0,0,1,4.48-2.07c2,.33,1.78-.63,1.37-1.92a45.42,45.42,0,0,0-2.93-7.2c6.29-.33,7.41,5.26,10.3,8.54.65-.43.49-.88.5-1.26q.48-27.28.94-54.58a8.4,8.4,0,0,0-.07-1c-1.28-2.33-.5-4.92-.89-7.36a12.51,12.51,0,0,0-.08-1.49A1.85,1.85,0,0,1,140.91,210.72Z"/><path class="cls-4" d="M183.31,284.32a7.89,7.89,0,0,0-6.47.34c.49-1.54,1.32-2.61,1.42-3.9s.05-2.38-1.09-3.15c-.71-.49-1.36-.74-1.66.45a6.68,6.68,0,0,1-1.18,2.48c-1.83,2.4-2.27,2.41-4.16.16-1.45-1.73-3.32-2.68-5.57-2s-2.52-.31-2.62-2.17c-.2-3.67,1.27-6.66,3.63-9.42-3.07-.45-6.39,2.41-6.63,5.4-.13,1.55.5,3.17-.42,4.65-.69-1.76.2-3.66-.49-5.42-.78-12.68-.36-25.37-.53-38,0-3.9.35-7.84-1.46-11.57l.71-.22,2.83,6.41c.18.55-.07.67-.55.56-.83.26-.53,1-.52,1.48q.13,18.75.32,37.5a8.87,8.87,0,0,0,.16,1.18c1.47-1,2.51-2.36,4.11-2.94a9.62,9.62,0,0,1,5.22-.24c-1.28,1.49-2.75,2.6-3.66,4.17a12.48,12.48,0,0,0-1.55,3.69c-.66,3.14-.29,3.59,2.85,3.76a5.8,5.8,0,0,1,4.93,2.61c1.19,2,1.85.84,2.63-.19a3.66,3.66,0,0,0,.53-4c4.54.05,5.88,2,4.87,6.68,1.67.31,3.59-.4,4.93,1.19Z"/><path class="cls-4" d="M224.61,171.34c1-1.2,6.36-1.48,6.84-.24.29.72-.15,1.73-.32,3.09,1.77-.93,3.29-1.63,4.72-2.5,1-.63,1.71-.71,2.45.43.91,1.4,2,2.67,3.16,4.17l-5.89,3.06a3.74,3.74,0,0,1,.72,6.26c-.43.27-.43.55,0,.82a16.82,16.82,0,0,0,10.1-1.24c3.07-1.54,3.67,1.51,5,2.75s-.82,1.67-1.28,2.55a6.11,6.11,0,0,0-.25.59,35.11,35.11,0,0,0,11,.8c1.78-.12,2.15.33,1.6,2-1.77,5.49-.1,4.43-5.87,4.36-2.39,0-4.79,0-7.35,0,.81,1.14,1.61,2.27,2.47,3.5a4,4,0,0,1-.55.42c-4.2,2-4.19,2-7.65-1a9.43,9.43,0,0,0-5.81-2.73,24.82,24.82,0,0,0,4.55,5.33c2.15,1.93-.49,2.56-1,3.74-.58,1.42-1.48,1.17-2.52.32-.6-.5-1.16-1.24-2.17-1.16-.48.65.25,1,.4,1.44,1.63,4.73,2.08,3.21-2.18,5.12a1.8,1.8,0,0,1-2.66-.85,28.2,28.2,0,0,0-1.81-2.42c-.34-.43-.53-.94-1.37-.5-2.56,1.32-4.51.07-4.59-2.81,0-1.17-.08-2.35-.15-3.52-.33-5.75-1.37-6.87-8.11-8.09a46.11,46.11,0,0,0,4.3,3.91c1.75,1.22,2.3,2.3,1.37,4.5s-2.42.46-3.82.94c1.17,1.39,2.23,2.76,3.41,4,.78.82.72,1.33-.2,2a22.58,22.58,0,0,0-2.56,2c-1,.91-1.62.45-2.11-.54a.82.82,0,0,1,.24-1c2.4-1.62,2.4-1.62.64-4a14.15,14.15,0,0,1-1.84-2.7c-.79-1.75-.21-2.58,1.68-2.44.42,0,.82.16,1.24.23s.89.24,1.15-.18c.36-.57-.14-.92-.51-1.24a41.06,41.06,0,0,1-5.52-5.51c-.75-1-2-2.1-1.11-3.29s2.36-.19,3.47.29c2.3,1,4.58,2.08,6.88,3.11a5,5,0,0,1,3.26,5.16,27,27,0,0,0,.53,6c.19,1,.52,1.63,1.67,1.19,1.77-.68,2.87.28,3.85,1.55a16.13,16.13,0,0,0,1.14,1.34,1.15,1.15,0,0,0,1.57.3c.53-.34.45-.87.35-1.36-.27-1.32-1-2.5-1.29-3.81a1.77,1.77,0,0,1,.26-1.89c.67-.61,1.41-.27,2.12,0,1.18.5,2,1.78,3.73,1.73-.57-2-2.16-3.12-3.1-4.63-.73-1.17-2.15-2.35-1.06-3.78.94-1.24,2.5-.58,3.78-.23a15.53,15.53,0,0,1,6.18,3.76c.6.53,1.26,1.45,2.13.67s-.17-1.32-.47-1.94c-.43-.88-1.31-1.74-.57-2.75s1.81-.79,2.81-.63a60,60,0,0,0,8,.27c.87,0,2.1.24,2.08-1.15s-1.23-.91-2-.92a36.19,36.19,0,0,1-8.23-1c-2.54-.61-2.82-1.38-1.52-3.59.32-.53.67-1,.19-1.58a1.72,1.72,0,0,0-2.08-.38,24.2,24.2,0,0,1-8.46.94A14.51,14.51,0,0,1,232,187c-.68-.35-1.43-.8-1.34-1.66s1-1,1.72-1.19c.49-.13,1-.09,1.49-.26.63-.22,1.32-.45,1.4-1.26s-.61-.91-1.07-1.24c-2.17-1.56-2.13-2.36.2-3.76.79-.48,1.66-.82,2.45-1.3.58-.37,1.2-.76.72-1.59a1.34,1.34,0,0,0-1.72-.63,29.52,29.52,0,0,0-3.37,1.7c-2.34,1.11-3.2.7-3.45-1.9-.12-1.25-.72-1.55-1.73-1.68-.74-.09-1.49.31-2.24,0C224.68,172,224.41,171.79,224.61,171.34Z"/><path class="cls-3" d="M216.61,123.55c1.26-.21,1.47.66,1.38,1.53-.23,2.18,1,2.41,2.76,2.45a37,37,0,0,0,13.56-2.25c2.11-.77,2.79,1,4.09,1.67s-.11,1.55.06,2.44c5.55-.47,10.76-2.21,16-4,.73-.26,1.94-1.74,2.37,0,.39,1.57,2.67,3.46-.07,5-2.26,1.25-4.61,2.33-7,3.52.35,1.13,1.89,1.8,1.12,3.49-.68,1.49-1.33,2.27-3.1,2.12-2.25-.18-4.53-.07-6.79,0-.52,0-1.33-.34-1.46.47a1.41,1.41,0,0,0,1,1.56c1,.34,1.92.62,2.83,1s2.27.12,2.06,1.63c-.17,1.2.47,2.9-2,3.07.85.69,1.35,1.11,1.87,1.51,2.92,2.24,2.83,2.17.79,5.22-1,1.46-1.74,1.63-3.1.57s-2.88-1.9-4.53-3c.92,3.7.92,3.69-2.85,3.73-1.1,0-2.21.13-2.89-1-.17-.46.09-.7.44-.91a2.87,2.87,0,0,1,1.48-.19c1.3.1,1.61-.52,1.32-1.7-.2-.81-.45-1.75.37-2.33,1-.72,1.93,0,2.79.46,1.1.62,2.09,1.42,3.18,2,.68.39,1.49,1.26,2.21.38s-.36-1.42-.91-2-.92-.73-1.36-1.11c-2.12-1.85-2.08-2.46.23-4.17-.57-1-1.69-1-2.53-1.47-1.54-.85-2.58-2-2.23-3.84s2-1.78,3.41-1.85c1.85-.08,3.7,0,5.54,0,1.45-.05,2.42-.49,1.41-2.15-1.13-1.86-.38-3,1.4-3.74a34.24,34.24,0,0,0,3.9-1.77c.73-.44,2.15-.71,1.74-1.78s-1.66-.32-2.42-.06A64.51,64.51,0,0,1,240,131.26a8.5,8.5,0,0,1-2,.13c-1.22-.12-2.18-.59-2-2,.28-2.05-.87-2-2.29-1.69-2.44.62-4.89,1.21-7.38,1.59a30.46,30.46,0,0,1-6.54.19c-1.51-.09-2.9-.57-3.4-2.14-.44-1.36-1.3-1.48-2.51-1.42-1.45.06-3.52.59-4-1.19-.52-2,1.76-2.26,3.1-3,.67-.35,1.41-.54,2.09-.88s1.32-.55.92-1.47a1.2,1.2,0,0,0-1.68-.63c-1.67.55-3.32,1.18-5,1.8s-3,.66-4.12-.77c-.82-1-1.92-.9-3-.74a32.68,32.68,0,0,1-20.44-3.79A90.43,90.43,0,0,1,161.21,100c-.89-.86-1.89-1.7-2-3.1a1.17,1.17,0,0,1,.53-.9c2-.38,3.18,1.85,5.14,1.51.31.21.55.45.29.86-.89,1.18-.62,2,.49,3a80,80,0,0,0,18.83,12.92c6.29,3.19,13,3.61,19.9,2.42,1.29-.22,2.07-.27,2.33,1.21.21,1.21,1,1.06,1.87.71,2.1-.82,4.28-1.47,6.36-2.37,1.28-.56,1.87-.33,2.51.93,2.05,4.12,2.11,4.09-2.36,5.79C215.26,124.24,216,123.6,216.61,123.55Z"/><path class="cls-5" d="M170.17,236.45c-6.72-8.17-9.92-17.82-11.57-28.06A147.56,147.56,0,0,1,157,187.07c-.07-4.28-.23-8.56-.38-12.84a5.92,5.92,0,0,0-.37-2c-2.31-5.85-4.72-11.67-6.5-17.83-.93,4.5-1.81,9-2.8,13.48a108.78,108.78,0,0,1-8.4,24.22c-.66,1.35-1.48,2.63-2.22,3.94-.45,0-.84,0-.54-.65a109.44,109.44,0,0,0,8.38-21H141c-.45.19-.7-.06-.91-.41-.36-1.27.28-2.3.86-3.31.45-.79,1-1.77,2.06-1.54,1.26.26.67,1.44,1,2.27,1.53-7.95,4.29-15.68,4-23.93a6.79,6.79,0,0,1,0-1c.12-1,.25-2.27,1.44-2.36,1.35-.11,1.38,1.26,1.45,2.2.66,8.33,3.54,16,6.64,23.65.39.94.5,2.16,2.21,1.35.89-.42,1.62.66,2.17,1.4s1.17,1.42,2.42.6c1.64-1.06,2.4-.61,2.64,1.34.32,2.62-.41,5.16-.84,7.72-.47,2.73-.38,2.84,2.37,2.29a2.42,2.42,0,0,1,2.78,1.17,30.27,30.27,0,0,0,1.51,2.79c.59-1.31-.32-2.27-.46-3.33s-.76-2.36.21-3.35,2,.24,3,.34c-.61-1.45-1.6-2.67-1.67-4.24-.07-1.73.39-3.28,2.26-3.73s3,.68,3.49,2.43a10.41,10.41,0,0,0,.5,1.42c.91,2,2.66,3.86,1.83,6.09-1.11,3-2.33,6.1-4.7,8.48a1,1,0,0,1-1.06-.23,16.61,16.61,0,0,1,3.07-6.91,3.63,3.63,0,0,0,.21-4.14c-.76-1.43-1.89-2.72-1.94-4.52a1,1,0,0,0-1.44-.9c-.45.27-1.25.87-.74,1.8.76,1.37,1.5,2.75,2.18,4.15.34.71,2.1,1,.59,2.3-1.13.94-2.16,1.88-3.66.45-.46,1.5.31,2.63.78,3.8.88,2.2-1.17,2.13-2.19,2.76-1.19.75-2,.19-2.4-1.06-.24-.78-.38-1.6-.67-2.37-.42-1.07-.95-2.06-2.26-.82-1.54,1.46-2.72,0-4-.53-1.69-.69-.33-1.76-.12-2.47a52.71,52.71,0,0,0,1.5-8.54c-1.78,1.65-3.11,2-4-.18-.36-.86-1-.41-1.67-.34-1.36.13-1.8.92-1.91,2.11.5,3.21.1,6.45.23,9.67a8.79,8.79,0,0,0,.17,2.71l.12,4.8c.54,1.56-.1,3.22.39,4.79,0,.77.09,1.54.13,2.31.46,1-.06,2.19.38,3.23.55,8,3,15.42,6.19,22.62a40.43,40.43,0,0,0,5.48,8.68C170.77,236.41,170.65,236.61,170.17,236.45Z"/><path class="cls-4" d="M138.89,68l1.76-1.92a6.4,6.4,0,0,0-3.31,1.4,1.92,1.92,0,0,1-3-.95c-.25-2.32-1.37-1.07-2.25-.85-.64.17-1.25.48-1.88.71-3.74,1.38-3.68,1.37-4.1-2.61-.11-1.06.16-1.52,1.11-1.85,1.34-.47,2.64-1.07,3.92-1.6.19-1.15-2.15-1.29-1.21-2.3,1.18-1.27,2.14-3.08,4.33-3.11a11.72,11.72,0,0,0,7.51-2.45,3.73,3.73,0,0,0,1.73-2.89c-1.71,1-3.11,1.9-4.63,2.58-1,.46-2,2.24-3.39.43-1.06-1.37-3-2.58-.07-4.6-4.85,1.51-8.49,1-10.26-4l6-1.6c-3.32-1.5-6.13-2.87-9-4-2.29-.9-2.72-3.1-3.05-4.87-.29-1.49,1.94-2.26,3-3.41.77-.84,1.37.09,2,.41,4.58,2.57,9.15,5.18,14,8-.26-2.1-1.42-3.36-2.21-4.75-.57-1-.7-1.64.54-2.08s1.3-1.15.72-2.16a6,6,0,0,1-.31-1c-1.35-3.78-1.32-3.7,2.47-5.11,1.26-.47,1.59,0,2,1a84.28,84.28,0,0,0,5.08,10.53l.67-.08V23.86a33.73,33.73,0,0,0-.05-5c-.65-4.22,1.75-6.51,4.94-8.39.47-.28.67,0,.85.38,0,1.45-1.07,2.24-2,3.08a5.64,5.64,0,0,0-1.8,4.49c.06,4.7,0,9.4,0,14.1a13.44,13.44,0,0,1-.51,4.24c-.64,2-1.66,2.17-3,.55A28.56,28.56,0,0,1,142.53,32c-.82-1.57-1.53-3.18-2.27-4.78-.26-.56-.5-1.44-1.4-1.08-.72.28-.48,1-.3,1.55.65,1.85,1.13,3.61-.11,5.51-.49.76.43,1.71.84,2.53.15.3.36.57.5.87.54,1.18,1.76,2.45.59,3.66s-2.37.07-3.47-.44a125.66,125.66,0,0,1-11.33-6.06c-.65-.38-1.31-.74-2-1.06a1.41,1.41,0,0,0-1.63.21c-.61.54-.51,1.15-.3,1.84A3.91,3.91,0,0,0,123.92,37a79.33,79.33,0,0,0,7.41,3.17,9.39,9.39,0,0,1,2.24,1.12c1.22.93,1.12,1.78-.22,2.47A19.72,19.72,0,0,1,130,44.78c-.48.15-1.08.27-1,.9s.67.93,1.3.89c1.25-.08,2.5-.24,3.75-.41,3.46-.47,4,.22,2.81,3.38a1,1,0,0,0-.06.76c.57.58,1.07,0,1.54-.19,1.51-.74,2.89-1.72,4.42-2.43.95-.44,2.06-1.19,3-.1s.35,2.1-.16,3.09c-1.57,3-4.24,4.67-7.4,5.63-1.13.35-2.31.44-3.45.71s-2.07.66-1.46,2.05c.74,1.72-.27,2.47-1.54,3.16-1,.54-2.25.7-3.08,2,1.44.45,2.49-.34,3.59-.7,1.59-.52,3.11-1,4.09,1,.51,1,1.28.49,1.94.17A15.67,15.67,0,0,1,141.89,63c.76-.15,1.56-.23,2.06.5a1.6,1.6,0,0,1-.2,1.89c-1.13,1.54-2.14,3.27-4.37,3.42C139,68.66,138.71,68.45,138.89,68Z"/><path class="cls-4" d="M107.05,100.78c.09.67.17,1.33.26,2,.56,4-1.17,5.93-5.36,5.9-.36,0-.92-.48-.81.27.29,1.89-1.42,1.75-2.31,2.44-1.53,1.19-2.56.71-4-.5-2.23-1.82-.29-3,.34-4.52-2.33,1.58-4.84.82-5.65-3-2.34,2.62-4.23,4.85-6.25,7-.54.57-1.08,2-2.1,1.19s-3.19-1.19-2.73-3.41a3.06,3.06,0,0,0-.12-.87c-2.45.81-4.88,1.45-7.15,2.44-1.76.76-2.64.19-3.3-1.33-.3-.69-.56-1.4-.81-2.11-.66-1.84-.39-3.08,1.94-3.14a22,22,0,0,0,2.46-.51c1.61-.26,3-.57,1.91-2.76-.68-1.43.59-1.4,1.45-1.56a74.13,74.13,0,0,0,14.51-4.06c-1.7-2.39-1.7-2.39-4.6-1.67-1.36.33-4.87-2.29-4.51-3.57.23-.8,1.34-1.35,2.53-2.47-2.06,0-3.69-.1-5.3,0A3,3,0,0,1,74,84.43c-.51-1.4-1.25-2.72-2-4.28h5.21C75,78.08,73,76.19,71,74.4c-1.37-1.19-1-1.72.49-2.34,4.89-2,3.06-2.55,7.18,1.11.63.56,1.28,1.09,1.88,1.68.75.73,1.42.79,2-.14C83.9,72.64,85,73.43,86,75c.2.44-.07.67-.39.87-.51.24-1.24.36-.3,1.08.78.58,1.89,1.28,1,2.41s-1.88.35-2.74-.15a34.81,34.81,0,0,1-6.42-4.85A5.42,5.42,0,0,0,75.3,73a1.37,1.37,0,0,0-1.6.43c-.39.54.11,1,.47,1.26,2.35,2,4.49,4.32,7.58,5.28.87.27,2,.56,1.86,1.71s-1.44,1.23-2.45,1.14c-1.42-.14-2.83-.32-4.25-.54-.4-.06-.9-.19-1.09.32s.13.79.35,1.15c.53.86,1.39.85,2.23.89,1.68.07,3.36-.06,5,.1.83.08,1.78.14,2.06,1.12s-.43,1.37-.92,2-1.66,1-1.07,2,1.67.46,2.51.26c1.66-.38,3.14-.53,4.13,1.3.56,1,1.51.85,2.44.45a9,9,0,0,1,3.34-1.06,1.21,1.21,0,0,1,1.26.65,1.23,1.23,0,0,1-.36,1.37A7.56,7.56,0,0,1,94,94.44a84.24,84.24,0,0,1-15.78,5.18c-1.39.29-2.51.62-2.75,2.38-.27,2-2.11,2.09-3.63,2.57-1,.31-2.87-.1-2.48,1.68.45,2.07,2.11,1,3.31.68,1.62-.42,3.18-1.1,4.81-1.51s2.91-.13,3,1.85,1,1.59,2.11.81a60.13,60.13,0,0,0,5.21-4.75c1.89-1.69,2.54-1.66,3.9.45.69,1.07,1.29,1.15,2.22.49a6.45,6.45,0,0,1,.87-.52c1-.5,2.12-1,3-.07s.11,1.87-.33,2.76c-.22.45-.55.84-.76,1.3-.3.66-.91,1.53.2,1.86a1.38,1.38,0,0,0,1.81-1.28c0-2.89,1.26-2.85,3.51-2.12,2,.66,3.27-.74,3-2.93a18.86,18.86,0,0,1-.21-3.52c.16-2,.83-2.25,2.69-.93C108.41,99.8,106.87,99.94,107.05,100.78Z"/><path class="cls-6" d="M50.6,197.2c-3.35.19-6.7.33-10.05.57-1.28.09-2-.14-2.18-1.62-.25-2.07-1.67-4.64-.88-6s3.71-.05,5.7-.14c2.26-.1,4.54.19,7-.56l-2.4-2.58c2.06-1,4-2,5.84-3,.95-.51,1.59.14,2.32.45a11.45,11.45,0,0,0,9.53.26c-2.41.07-2.88-1.16-3.11-2.8-.35-2.56,2.35-1.65,3.22-3.15-1.55-.77-3.1-1.63-4.71-2.33-1.19-.52-1.17-1-.53-2.05,2.09-3.36,2-3.38,5.77-2,1.1.39,2.21.76,3.72,1.28-.81-4.09,2.13-3.9,4.6-4.43A2.35,2.35,0,0,1,77,170c3.16,3.5,6.32,4.23,11.14,2.54-2.67-.77-1.5-2.48-1.13-3.88.44-1.63,1.68-.5,2.51-.47A31.29,31.29,0,0,0,106.35,164c9.31-5.32,17.46-12.19,25.43-19.3a3.57,3.57,0,0,0,.57-1.06,1.09,1.09,0,0,1,.65-.88,1.5,1.5,0,0,1,1.14.07,1.25,1.25,0,0,1,.57.95,3,3,0,0,1-1.24,2.11,183.71,183.71,0,0,1-23.15,18.15,39.08,39.08,0,0,1-20.71,6.37c2,2.31,1.86,3.07-.89,4.12a11.49,11.49,0,0,1-11.26-1.26c-.62-.43-1.17-1-1.8-1.38-1.73-1.13-3.34-.66-3.83,1.3s-1.68,2.5-3.55,1.86a21.36,21.36,0,0,0-3.85-1.16c-.49-.06-1.06-.17-1.28.45s.28.9.7,1.18c.77.51,1.63.86,2.42,1.34,2.38,1.43,2.42,2.5.15,4-.47.3-1.13.41-1.22,1.15.61.73,1.56.44,2.31.74s1.79.52,1.81,1.5-.95,1.29-1.7,1.65a14,14,0,0,1-11.23.75,4,4,0,0,0-3.41-.08c-.84.44-1.43.81-.7,1.88,1.28,1.88-.07,2.55-1.56,3-2.7.82-5.49.54-8.25.65-.94,0-2.41-.6-2.47,1.24s1,2.28,2.59,2.27a36.83,36.83,0,0,0,6-.39,8.18,8.18,0,0,1,3,0c1.88.39,2,1,.71,2.61C51.55,198.16,51,197.77,50.6,197.2Z"/><path class="cls-7" d="M125.77,192.11c-.5,1-1.88,1.44-1.46,3,.16.57,1.1,1.77-.35,1.95-1.1.13-2.57.83-3.29-.86-.16-.36-.41-.69-.82-1.38a31.68,31.68,0,0,0-.55,7c0,1.24-.24,1.6-1.67,1.53-2.57-.12-4.15-.81-3.91-3.73.19-2.22-1.79-1.55-3.4-2.67,1.22,2.73,2,4.83,3.08,6.76.86,1.54.62,2.4-1,3.07-1.33.57-2.5,2.77-4.09.34a14.93,14.93,0,0,0-1.23-1.34c-.69,1.93-1.44,3.6-1.87,5.35-.38,1.59-1.17,2-2.68,1.71s-2.84-.07-4.27-.76l2.6-6.4c-1-.31-2,1.8-2.88.08a1,1,0,0,1,.19-1c1.33-1,2.7-2.74,4.36-1.51s.14,2.91-.27,4.39c-.26.94-1.57,2.26-.24,2.82,1.52.63,1.62-1.25,2.09-2.22.29-.6.44-1.27.67-1.9,1.15-3.1,1.56-3.24,4.31-1.37.5.34,1,.72,1.58.27s.47-1,.3-1.6a46.28,46.28,0,0,0-2.33-5.3c-.37-.85-.81-1.77-.17-2.63s1.66-.61,2.56-.4a7.09,7.09,0,0,0,2,.34c1.72-.1,2.42.87,2.55,2.43,0,.42.06.84.11,1.26.07.57.06,1.37.79,1.37s.65-.83.71-1.38c.09-1,.14-2,.33-3,.63-3.43,1.39-3.83,4.55-2.38,1.24-1.49,1-3,.29-4.67s-1.68-3.11-2.46-4.69a2.48,2.48,0,0,1,1-3.65c.22-.13.42-.29.65-.4,1.25-.59,2.46-2,3.89-1.19s.08,2.47.36,3.71a.26.26,0,0,0,.4.1c.82-.5,1.51-1.73,2.59-1.06s.82,2.08.6,3.23a22.55,22.55,0,0,0-.91,4.23c1.13-1.11,1.21-2.35,1.77-3.33.34-.59.66-1.31,1.43-1.25a1.41,1.41,0,0,1,1.4,1.71c-.17.36-.39.63-.85.42-.6.42-.66,1.13-.89,1.74-1.35,3.67-1.34,3.67-4.87,2.67-.74,0-1.2-.66-1-1.1,1-2.73-1.23-3.81-2.63-5.31a1.26,1.26,0,0,1-.38-.81,1.57,1.57,0,0,0,.51.95C125.24,187,125.36,189.59,125.77,192.11Z"/><path class="cls-7" d="M83.34,126.05c-1.26-.67-.38-1.25.15-1.66,1.2-.92,1.29-1.85.22-2.89s-.8-1.68.31-2.35a10,10,0,0,0,1-.76c3.57-2.82,3.61-2.88,7.46-.56,1.31.79,2,.61,2.29-.8s1.19-1.42,2.41-1.09a26,26,0,0,0,21.21-3.11c3.77-2.31,7.63-4.5,11-7.47,1.23-2.35,3.32-3.9,5.21-5.64.55-.5,1.32-1,.69-1.84-.51-.65-1.23-.06-1.85.09-1.16.3-1.4,1.3-1.7,2.26-.53,1.64-.73,3.46-2.4,4.5a14.22,14.22,0,0,0-1.73.07c-2,.3-3.37,0-3.16-2.88-1.1,3.1-3.28,2.67-5.37,2.21-1-.21-1.54.35-2.24.73-.45.2-.66-.06-.84-.42,0-2,1.4-2.44,2.91-2.23a3.73,3.73,0,0,0,4.16-2c.42-.72,1-1.54,1.91-1.46,1.17.09,1.14,1.26,1.5,2.07.25.57.13,1.56,1,1.48s.79-1,1-1.59a6.29,6.29,0,0,0,.44-1.44c.37-4.31,4.08-4.48,7-5.65.4-.17,1-.12,1.16.24.85,2.14,2.46,1.32,3.94,1.09a1.12,1.12,0,0,1,.75.76,2.78,2.78,0,0,1-1.13,2.4c-6.41,6.2-13.16,12-21,16.4-6.36,3.62-13,5.32-20.3,4-1-.18-2.23-.64-3.07.42-1.68,2.11-3.49,1.57-5.29.3a2.86,2.86,0,0,0-4.22.43c-.5.52-.9,1-.63,1.76.73,2-.16,3.4-1.72,4.54A1.06,1.06,0,0,1,83.34,126.05Z"/><path class="cls-8" d="M158,65.9c0,1,.94,1.35,1.55,1.82,9.67,7.59,20.53,12.18,32.9,12.92a50.72,50.72,0,0,0,9.78.12,22.64,22.64,0,0,0,13.11-6.33c1.17-1.12,1.89-1.41,2.74.1s1.83,1.34,3,.4a36.16,36.16,0,0,0,3.61-2.71c1.5-1.52,2.35-1.13,3.78.27,1.81,1.79,1.63,2.91-.3,4.23s-3.66,2.63-5.49,3.94c-.46.2-.69-.06-.86-.43.17-2.13,2.23-2.53,3.41-3.74.61-.63,2-1.19,1.43-2-.86-1.18-1.73.25-2.43.75-2.13,1.49-4.39,2.78-6.61,4.12-1,.6-2.27,1.46-3.14.2s.62-1.81,1.29-2.62a26.39,26.39,0,0,1-17.4,6.15,73.86,73.86,0,0,1-21.75-3.52,62.76,62.76,0,0,1-18.12-10.15c-1.34-1-3-2-2.75-4.17C156.92,64.21,157.72,64.26,158,65.9Z"/><path class="cls-9" d="M50.6,197.2c.6-.48.67.33,1,.42a1.12,1.12,0,0,1,0,1.18c-.3.74-1,1.49.13,2.16s1.76.16,2.45-.53c1.79-1.78,3.75-3.36,5.67-5a16.61,16.61,0,0,1,2.83-2.1,2.61,2.61,0,0,1,3.25.3,2.39,2.39,0,0,1,.26,3.22c-1.21,2.14-3,3.76-4.64,5.6-.7.8-2.28,1.76-1.32,2.8.72.77,1.84-.67,2.71-1.25a18.49,18.49,0,0,0,2.44-2.16c.73-.69,1.61-1.69,2.58-.88,1.14.95.12,2-.51,2.82a33.33,33.33,0,0,0-3.68,5.39c-.34.63-1.34,1.37-.21,2.13.94.63,1.75.25,2.41-.57,1-1.24,1.81-2.62,2.84-3.84s2.23-2.13,3.73-.52c.34.36.7.78,1.29.51s.66-.92.62-1.52a54.71,54.71,0,0,1-.05-6.53c.17-2.5.77-2.82,3.21-1.89a2.25,2.25,0,0,1,1,1.51.71.71,0,0,1-.38.59c-1.65-.84-2.07-.24-1.89,1.45s.11,3.7.33,5.53c.18,1.48-.37,2.16-1.67,2.87-2,1.08-3.35,1.41-4-1.69-1.5,2.05-2.87,3.74-4,5.57-.87,1.38-1.76,1.92-3.21.94a3.76,3.76,0,0,0-.46-.2c-3.32-1.43-3.32-1.43-1.72-4.72.15-.3.28-.62,0-.93-1.74.67-4.42-.83-4.86-2.7-.19-.79.49-1,.84-1.37,2.12-2.38,4.31-4.71,6.39-7.12.4-.46,1.46-1,.62-1.83-.68-.64-1.17.29-1.65.65a55.62,55.62,0,0,0-8.22,7.41c-1,1.14-1.75,1.3-3.11.44C47.47,200.71,47.43,200.78,50.6,197.2Z"/><path class="cls-8" d="M223.12,162.31c-1.14,1.32-2.07,1.35-3.05-.26s-2-2.85-3.13-4.33c-1.58,3.22-3.73.76-5.59.76s-1.8-1.33-1.78-2.64a32.58,32.58,0,0,0-.07-3.28c-.11-1.32.82-3-2.15-2.78-1.55.11-3.3-2.06-4.9-3.27-1.08-.82-1.73-1.23-2.06.65-.38,2.15-2.55,1.41-3.9,2s-1.25-1-1.8-1.58c-.86-1-.65-3.75-2.74-2.53-1.15.67.65,2.19,1.24,3.21,2,3.56,2,3.41-1.71,5.1-1.82.82-2.72.41-3.43-1.28a15,15,0,0,0-1.39-2.39c-.19-.31-.33-.65-.93-.47-3.92,1.14-6-.2-6.67-4.2a40.76,40.76,0,0,1-.75-5.22c-.06-1.67-.83-1.46-1.87-1.05a.59.59,0,0,1-.88-.36,2.23,2.23,0,0,1,2.74-1.93c1.32.12,1.62,1.31,1.83,2.4.37,2,.49,4,.94,6,.55,2.38,1.65,3.14,4,2.45,1.64-.49,2.48.17,3.36,1.38.71,1,1.1,3.18,2.66,2.31,1.78-1-.26-2.24-.67-3.33-.55-1.46-1.85-2.86.11-4.18,1.58-1.06,3.53-.55,4.83,1.18.25.33.45.71.69,1,1,1.4,1.77,1.21,2.63-.18,1.54-2.52,1.93-2.55,4.49-.88,2.08,1.35,3.87,3.22,6.67,3.18,1.2,0,1.51,1.18,1.62,2.23.18,1.58,0,3.19.13,4.77.18,2.05,1.94,2.93,3.5,1.58s2.69-.79,3.74.56c1.24,1.58,2.26,3.35,4.06,4.41A.91.91,0,0,1,223.12,162.31Z"/><path class="cls-7" d="M52.57,139.05c-2.93.41-2.49-2.14-3-3.64-.61-1.71,1.31-.91,2-1.63-2.52-1.27-5-2.53-7.52-3.77-1.29-.64-1.54-1.32-.7-2.7,2.49-4.09,2.4-4.12,6.72-2.09A53.83,53.83,0,0,0,63.79,130c-1.73-1.35-1.34-2.43,0-3.45a.83.83,0,0,1,1,.35,13.13,13.13,0,0,0,2.15,2.76c.93,1.11.51,1.84-.77,2.2a7.91,7.91,0,0,1-3.49-.05c-4.59-.81-8.81-2.71-13.07-4.49-.54-.23-1.06-.5-1.6-.74a1.36,1.36,0,0,0-2,.73c-.46.92,0,1.41.7,1.84a30,30,0,0,0,4.06,2c1,.42,2,.78,3,1.28.76.39,1.57.84,1.58,1.8s-.88,1.1-1.56,1.39a2,2,0,0,0-1.24,1c1.91.57,3.71-.15,5.49,0a27.51,27.51,0,0,1,3.51.18c.67.14,1.34.37,1.53,1.13s-.32,1.25-.85,1.68c-.73.58-1.6.92-2.37,1.43-.43.27-.88.57-.76,1.18s.57.77,1.09.89c1.09.26,2.67,0,2.85,1.51s-1.42,2.12-2.5,2.84c-1.89,1.26-3.84,2.4-5.73,3.67a1.05,1.05,0,0,1-1,.12c-.93-.69-1.16-1.28.06-2,2-1.15,4-2.42,6.41-3.94-3.35.16-3.13-2.38-3.94-4-.73-1.41,1-1.12,1.5-1.75.23-1-.6-.73-1-.72A16,16,0,0,0,52.57,139.05Z"/><path class="cls-8" d="M226.72,84.84a2.12,2.12,0,0,1-2.48,1.87c-1.66,0-3.33.2-5.55.36,2.42,1.47,1.72,2.94.84,4.49-1.59,2.8-3.55-.5-5.43.49,1.38,2-.15,2.63-2,3.39a52,52,0,0,0,13.37,3.76c1.66.27,2.64.5,1.55,2.34-.59,1-.3,1.52.77,1.83a19.86,19.86,0,0,1,2.08.87c3.16,1.31,3.11,1.28,1.34,4.24a1.41,1.41,0,0,1-2,.76c-1.72-.66-3.46-1.27-5.19-1.9-.45,2.73-1.89,4.2-3.95,4.06-.31-.69.21-1.15.48-1.68a3.74,3.74,0,0,0,1-2.49c0-1.87,1.21-2.19,2.77-1.84s3.05,1.35,5.07,1.39c-.66-1.07-1.61-1.22-2.38-1.6-1-.5-2.1-1-2.17-2.23-.12-1.83-1.35-2-2.71-2.34-5.58-1.24-11-2.86-15.94-5.93a8.66,8.66,0,0,1-2.35-1.86c-.42-.54-.8-1.14-.3-1.82s1.18-.53,1.81-.24c1.3.59,2.4,1.54,3.68,2.17,2.14,1,2.73.77,2.72-1.5,0-1.5.75-1.91,2-1.88a11,11,0,0,1,1.48.27c.79.14,1.77.82,2.32,0s-.59-1.22-1-1.79c-1.1-1.58-.82-2.37,1.17-2.73,2.86-.53,5.8-.58,8.63-1.32C226.74,84.16,227,84.41,226.72,84.84Z"/><path class="cls-8" d="M152.51,10.94l-.66-.5A4.25,4.25,0,0,1,154,9.23c1,7.74,1.05,15.44,1.58,23.34,1.53-2.61,3.13-5.19,4.57-7.85.7-1.28,1.33-1.81,2.56-.66a2.59,2.59,0,0,0,.85.53c2.6,1,3.11,2.59,1.71,5-1,1.73-.84,3,1.21,4.21s-.64,2.14-.58,3.42c1.7-.21,3.15-1.23,4.68-2,3.21-1.62,6.46-3.18,9.54-5,1.91-1.14,3.16-1,4.18,1,.15.49-.15.7-.53.87A7.48,7.48,0,0,0,179,33.17Q173.5,36,168,38.7a9.8,9.8,0,0,1-2.32,1c-1.93.42-2.86-.51-2.08-2.33.62-1.46.85-2.6-.39-3.84a2.71,2.71,0,0,1-.33-2.87c.22-.72.47-1.43.65-2.17a1.47,1.47,0,0,0-.87-1.86c-.87-.37-1.22.34-1.57.89-1.27,2-2.36,4.07-3.69,6-.81,1.18-1.44,3.2-3.2,2.65-1.56-.48-1.16-2.45-1.1-3.81C153.35,25.18,152.44,18.08,152.51,10.94Z"/><path class="cls-10" d="M140.91,210.72l.55.53c-.85,2.33-.37,4.65,0,7,.13.86.58,1.73-.06,2.57a7.06,7.06,0,0,0-2.09,6.15,14,14,0,0,1,0,3.77c-.14,1.28.47,2.82-1.75,3.29-2,.42-3.36.38-4-1.84-.23-.84-.66-1.54-1.81-1.16-1.45.48-.53,1.32-.32,2a13.4,13.4,0,0,1-.77,9.57,3.2,3.2,0,0,1-4.75,1.63c-.54,1.14-1.07,2.28-1.62,3.4-2.07,4.17-2.83,4.44-7.31,2.88-1-.36-1-.87-.62-1.65s.77-1.67,1.15-2.51-.32-.69-.75-.78c-.54.32-1,.45-1-.45l3.75-1.59c0,1.52-.87,2.35-1.1,3.37-.19.87-1.81,1.95-.11,2.66,1.44.6,3.21,1.41,4.28-.89a46.35,46.35,0,0,0,2.72-6.21c3.27,1.74,4.06,1.37,5.11-2.33a11.13,11.13,0,0,0-.31-7.63c-.27-.65-1.33-1.64.13-2,1.18-.25,2.58-1.85,3.74.12a14.31,14.31,0,0,1,.8,1.56,1.35,1.35,0,0,0,1.81.85c.88-.19,1.67-.39,1.71-1.47a25.85,25.85,0,0,0,.05-4,8.28,8.28,0,0,1,1.56-6.59c1.12-1.4.17-2.81-.46-4C138,214.33,138.55,212.35,140.91,210.72Z"/><path class="cls-10" d="M224.61,171.34l.54.56c.34,1.15-.46,1.76-1.22,2.22-3.79,2.34-7.8,2.95-12,1.12-1.86-.81-2.09-1.59-.84-3.19.8-1,.63-1.62-.56-1.61-13.51.1-23.4-7.66-33.3-15.34-3.64-2.82-7.09-5.88-10.5-9-.74-.67-1.53-1.34-1.41-2.51.17-.39.39-.68.87-.48,6.45,5.47,12.74,11.13,19.7,16,5.24,3.64,10.53,7.18,17,8.45a25.11,25.11,0,0,0,8.47.55c2.73-.39,2.3,2.31,3.34,3.56s-.86,1.15-1.16,2C217.74,175.13,221.3,173.89,224.61,171.34Z"/><path class="cls-10" d="M98.58,205.17l-.55.56-2.3-1.64c-1.36-1-.3-1.92.2-2.72.84-1.34,1.94-2.49,3.06-4-2.25.83-3.62,1.93-3.59,4.31,0,1.38-1,2.68-.42,4.14-1.38,1.52-3.37,2.13-5,3.26-.59.4-1.12.38-1.44-.29-.77-1.62-1.48-1.06-2.28,0s-1.61,1.72-2.27,2.68c-1,1.48-1.87,1.67-3.35.36-2.78-2.45-2.87-2.33-.42-5.22.59-.69,1.12-1.42,1.7-2.16-1.19-.68-2.88,1.51-3.62-.91-.45-1.49-1.51-2.93.55-4,.46-1.45,2.13-2.23,2.13-3.92a2.24,2.24,0,0,1,.21-1.35c.81-.85,1.54-.46,2.13.24a2.31,2.31,0,0,1,.18,2.82,28.46,28.46,0,0,1-2.79,3.23c-.3.38-.75.77-.36,1.3s.76.25,1.17.18.65-.16,1-.21c.74-.11,1.55-.3,2.07.46s.14,1.46-.24,2.12A35.1,35.1,0,0,1,81.68,208c-.36.48-.78,1-.13,1.53s1.08.16,1.54-.25c.83-.72,1.4-1.67,2.17-2.44,1.07-1.07,2.09-1.78,3.75-.86a2.35,2.35,0,0,0,3.48-1.91,13,13,0,0,0,.07-1.76c.07-4.75,1.65-6.87,6.12-8.22,1.48-.44,2.89-.34,3.88,1s.08,2.37-.67,3.39c-.34.47-.69.95-1.08,1.39C99.46,201.38,98.25,203,98.58,205.17Z"/><path class="cls-11" d="M221.1,110.44l-1,1-7.83-6.7c-.28,3.42-2.84,3-5.05,3.23a4.54,4.54,0,0,1,.21.62c.22,1,1.58,2.11.61,2.85a8.3,8.3,0,0,1-4.4,1.62c-1.13,0-1.41-1.69-2.1-2.61-.88-1.18-1.08-2.84-3.51-1.82-1.47.62-3.69,0-3.42-2.78a7.53,7.53,0,0,0-.3-3c-.23-.7,1.14-3.29-1.82-1.73-.57.3-3.58-.82-3.77-3.23-.09-1.16-.26-2.32-.39-3.51l-3.79,1c-.67.12-.38,1.2-1.18,1.21-1.9-.64-1.38-1.65-.22-2.41a12.06,12.06,0,0,1,5-1.7,1.72,1.72,0,0,1,2,1.44c.25.89.32,1.81.57,2.71.38,1.41,1,2.11,2.46,1.07s2.29-.29,2.67,1.23a24.64,24.64,0,0,1,.58,5c.07,1.61.43,2.86,2.57,2.21,1.89-.56,2.6,1,3.57,2.18.68.81,1,2.66,2.41,2s.08-1.91-.09-2.89-.81-2.07.06-2.85,1.91,0,2.76.48c1.22.63,2,.46,2.61-.85.49-1.07,1.33-2,2.56-1.19A30.27,30.27,0,0,1,221.1,110.44Z"/><path class="cls-11" d="M123.54,138.7c-1-.38-1.48-.15-1.41,1.08.12,2.17-.07,4.37.18,6.52.27,2.41-.38,3.61-3,3.52-1.43,0-3.19,1.3-3.74-1.41-.35.44-.58.68-.76,1-3.46,5.11-3.46,5.11-9.6,2.69,1.36-2.28,2.73-4.52,4-6.8.26-.44,1-1.11-.17-1.47-.31,1.23-1.91-1.51-2,.7-.08,1.65-1.35,2.86-2.28,4.1-1.18,1.58-2.58-.08-3.9-.08-1,0-1.3-.75-1.25-1.75,0-.48.71-2.1-1-1.05-.47.18-.68-.1-.85-.47a2.32,2.32,0,0,1,.77-2c.64-.69,1.39-1.43,2.38-1.09s.87,1.33.86,2.17-.39,2,.92,2.26,1.45-.89,1.94-1.62a2.1,2.1,0,0,0,.31-.68c1.07-3.25,1.07-3.25,4.18-3,1.94.18,2.58,1,2.35,3s-1.39,3.39-2.24,5c-.3.56-1.31,1.23-.17,1.87a1.69,1.69,0,0,0,2.27-.38c.77-.9,1.35-1.92,2.06-2.86,1.6-2.12,1.92-2.17,4.13-.68,1.46,1,2.59.46,2.69-1.34.13-2.26,0-4.53.09-6.8.06-1.06,0-2.41,1.39-2.63a2.16,2.16,0,0,1,2.74,1.89C124.24,138.74,124,138.9,123.54,138.7Z"/><path class="cls-12" d="M158,65.9c-.54-.75-1.13-1.24-2-.4-1.07.28-1.51-.52-1.94-1.21S153.32,62.7,154,62s1.42-.34,2.11,0c1.91.88,3.58,2.18,5.39,3.23,1.14.66,1.92.85,2.38-.76s1.75-1.54,3.08-1.19,2.69,1.27,4.57,1.17c-.86-1.39-2.09-1.57-3.07-2.09-1.35-.7-2.49-1.43-1.7-3.29.59-1.4-.52-1.76-1.53-2s-1.84-.09-2.75-.21a7.29,7.29,0,0,1-6.08-4.28,2.22,2.22,0,0,1,0-2.6c.77-.84,1.76-.52,2.55-.06a28.71,28.71,0,0,0,5.74,2.44.59.59,0,0,1-.07.67c-.78,1.33-1.81,1.07-3,.56-.94-.4-1.71-1.44-3-1A6.24,6.24,0,0,0,164.91,55c2.65-.35,3.8,1.51,5.13,2.94,1.05,1.12-1.23,1.23-1.16,2.36,1.16.48,2.35,1.07,3.6,1.47s1.6,1,1.39,2.39c-.55,3.54-.46,3.55-3.92,2.29-.39-.15-.77-.33-1.17-.45-1.32-.38-2.74-1.78-3.36,1-.34,1.52-1.74,2.16-3.43.84C160.85,67,159.68,65.88,158,65.9Z"/><path class="cls-10" d="M102.07,230.35c-7,4.64-14.4,7.45-23,5.76a3.09,3.09,0,0,0-3.94,3c0,.88-.46,1-1,1.06-1.08.14-2.17.16-3.24.31s-2.85-.57-2.52,1.66c.23,1.54.28,3.24,2.75,2.88a44.87,44.87,0,0,1,10-.38c-.73,2.1-3,2.93-3.68,4.93.06.5-.09.77-.64.58-.84-.24-1.17-.63-.44-1.39s1.71-1.81,2.81-3c-3.12-.47-5.89.09-8.66.27-1.65.1-2.5-.09-2.82-2.07-.71-4.38-.86-4.3,3.71-4.64,1-.07,3.16.82,2.12-1.87-.22-.58,4-2.8,5.09-2.53C86.87,237,94,234.1,101,230a1.89,1.89,0,0,1,.48-.13C102,229.57,102.08,229.91,102.07,230.35Z"/><path class="cls-10" d="M205.48,197.65c-1.06,1.42-1.83-.44-2.84-.24a3.48,3.48,0,0,0,1,2.16c1.85,2.26,1.72,4.27.07,6.7-1.06,1.54-1.75,1.7-3.18.38a13.51,13.51,0,0,0,1.27,4.2c.43,1.17.39,1.78-1.16,1.9-3.91.32-3.9.4-5.17-3.4l-.86-2.59c-.49-.46-.64-.15-.82,0-.77.53-1,2.1-2.17,1.65a13.61,13.61,0,0,1-3.74-2.48c-.63-.54.22-1.19.46-1.77.7-1.66,2.15-3,2-5a1.13,1.13,0,0,1-.83-1.09,2.39,2.39,0,0,1,1.34-1.71,1.82,1.82,0,0,1,1.9-.24c.67.41.6,1.15.48,1.82a23.31,23.31,0,0,1-2,5.14c-.33.71-1.11,1.53-.31,2.28s1.51-.14,2.12-.63c1.49-1.2,2.43-.62,3.14.88s.9,2.88,1.63,4.21c.25.46.57.92,1.15.62s.24-.74.12-1.12a24.91,24.91,0,0,1-1-3.1c-.35-2,.24-2.51,2.15-1.93.77.23,1.51.86,2.24-.09a2.12,2.12,0,0,0,0-2.57c-.92-1.59-1.82-3.21-2.62-4.86-.33-.69-.58-1.51.09-2.1s1.28-.26,1.91,0a10.26,10.26,0,0,1,3.44,2A.9.9,0,0,1,205.48,197.65Z"/><path class="cls-12" d="M85.42,75.58,86,75c8.92,7.15,19,5.83,29.09,3.83,8.8-1.73,16.46-6,23.84-10.88l.55.54c.26,1.49-.87,2.09-1.82,2.71-9.79,6.39-20.34,10.35-32.16,11.06a33.61,33.61,0,0,1-14.28-1.81,15.17,15.17,0,0,1-4.9-3C85.7,77,85.15,76.46,85.42,75.58Z"/><path class="cls-12" d="M102.07,230.35l-.64-.52c.66-.51,1.33-1,2-1.52.42-.35,1.17-.69.65-1.38-1.73-2.28-.61-3.65,2.15-4.86-2.67-.49-4.57.71-6.75.07.66-2,1.38-3.89,1.93-5.86.3-1.09,1-1.14,1.88-1.17a43.2,43.2,0,0,0,17.84-4.45c.58-.25.67.08.65.55a33.64,33.64,0,0,1-15,4.61c-4.22.33-4.56.62-5.39,3.81-.34,1.32,0,1.77,1.29,1.51,1.87-.38,3.74-.81,5.87-1.27a5.34,5.34,0,0,1-2,3.09c-.68.67-2,.87-2,2,.09,1.46,1.82.33,2.49,1.36C105.77,228.16,103.89,229.23,102.07,230.35Z"/><path class="cls-13" d="M165.18,98.4l-.52-.64a2.39,2.39,0,0,1-.73-3.32c.64-1.12,1.79-.51,2.74-.29.16,0,.33.15.48.13,4.43-.79,5.27,2.38,6.14,5.54a10.41,10.41,0,0,0,.5,1.42.62.62,0,0,0,.35.34.38.38,0,0,0,.44-.16c.61-.94.51-2.6,1.92-2.69s1.9,1.44,2.52,2.5c.85,1.45,1.45,3.22,3.58,1.24.68-.64,1.8-.16,2.64.21a2.74,2.74,0,0,0,3.59-.74,1,1,0,0,1,1-.15c1.55,1.63-.62,2.14-1,3.17a1.16,1.16,0,0,1-1.82.65,23.49,23.49,0,0,0-2.3-1c-.44-.18-.77-.47-1.23.17-1.52,2.16-3.64,2-4.93-.29-.48-.86-1-1.71-1.47-2.59-1,.8.17,2.83-1.87,2.75-1.8-.08-3.23-.57-3.47-2.7a13,13,0,0,0-.61-2.17c-1.11-3.69-1.27-3.84-4.89-3.46C165.09,96.44,166.27,98.07,165.18,98.4Z"/><path class="cls-10" d="M88.94,250c1.34-1.88,2.67-3.77,4-5.7.29.34.43.43.48.57.39,1-.64,2.65.93,3,1.4.33,1.66-1.39,2.46-2.16s1-2.51,2.52-2.48c1.25,0,2.41.33,1.44,2.1a19.54,19.54,0,0,1-4.3,5.51c-.79.69-2.34,1-1.57,2.64s1.9-.52,2.92.47c.6,1.22-2.63,2.83.06,4.23,1.9,1,2.12-1.06,3.18-1.59.46-.07.72.05.52.59-2.5,3.3-2.88,3.37-5.51,1-.12-.11-.4-.23-.39-.29.61-2.15-2-2.88-2.08-4.85,0-1.06,0-1.6,1-2.18a13.07,13.07,0,0,0,5.35-6.39c-1.77-.05-1.85,1.56-2.62,2.34s-1,1.82-1.72,2.06c-1.41.49-3.18.88-3.28-1.82l-2.85,3.48C89,250.71,88.83,250.51,88.94,250Z"/><path class="cls-13" d="M98.05,145.15l.56.55c-.7.82-1.45,1.61-2.07,2.49-.87,1.22-1.89,1.83-3.4,1.26-1.35-.5-1.74.09-1.68,1.41a27.57,27.57,0,0,1-.12,4.26c-.11,1,.58,2.52-.78,2.85s-3.13.92-4.3-.25-1.6-.39-2.24.39c-1.12,1.35-2.34,2.63-3.37,4-.85,1.17-1.53,1.39-2.84.55-3.77-2.43-3.82-2.37-1-5.87,1-1.23,2-2.42,3.06-3.62.45-.19.66.08.84.43.19,1.93-1.37,2.94-2.23,4.33-.4.66-1.33,1.34-.43,2.18,1.08,1,1.62-.14,2.22-.74a25.22,25.22,0,0,0,2-2.25c1.35-1.77,2.76-2.87,5.07-1.38,1.24.8,2.06.21,2.14-1.29s0-3,.12-4.53.75-2.6,2.26-2.51a5.34,5.34,0,0,0,4.58-2A1.27,1.27,0,0,1,98.05,145.15Z"/><path class="cls-12" d="M164.65,53l0-.57a6.14,6.14,0,0,0-.42-1.18c-.88-2.23-.37-3.07,2.06-3.3,1.5-.15,3,0,4.53-.09.84,0,1.82,0,2-1,.26-1.25-1-1.16-1.64-1.47-.84-.39-1.93-.61-2.05-1.64s1-1.67,1.8-2.2c2.55-1.64,5.36-2.78,8-4.29,1.82-1,3.38-2.16,3.88-4.32a1.89,1.89,0,0,1,.93-1.15l.56-.55c1.09,1.69,0,5.42-2,6.48-3.36,1.83-6.73,3.6-10.56,5.64l4.29,1.31c-.43,1.44-1.31,2.73-1.34,4.24,0,1.21-.89,1-1.6,1-2.17,0-4.33,0-6.72,0C167.87,52.32,166.53,52.82,164.65,53Z"/><path class="cls-14" d="M223.12,162.31l-.57-.53c1.27-2.28,0-4-1.2-5.78-1.44-2.15-1.32-2.43,1-3.68a1.52,1.52,0,0,0,.68-2.46,12.46,12.46,0,0,0-.77-1c-.68-.88-1.43-1.8-.71-3a3,3,0,0,1,3.2-1.51,2.94,2.94,0,0,0,3-.77c.79-.77,1.87-.91,2.23.26,1,3.31,2.57,6.44,3.32,9.83l-.55.55c-3-2-3.06-5.39-4.21-8.47-1.07,1.42-2.17,2.73-3.76.68-.41-.53-.93-.24-1.29.15-.56.6.21.78.41,1.15.6,1.11,2.89,1.28,1.88,3.26-.63,1.23-.61,2.92-2,3.6-.8.39-.48.64-.22,1s.66,1,1,1.45C226.7,160.43,226.7,160.43,223.12,162.31Z"/><path class="cls-15" d="M123.54,138.7l.73-.53c.44-1,1.4-1.15,2.28-1.37,2.06-.5,2.77.08,2.84,2.21,0,.76-.53,1.79.76,2,1.14.22,1.64-.6,2.08-1.45A23.27,23.27,0,0,1,134,136c1.06-1.37,2-1.4,2.56.13.6,1.73,1.19,1.36,2.23.48s2-2.19,3.17-.87c1,1.09-.34,2.14-1.06,3a37.7,37.7,0,0,1-4.13,4.06c-.66.59-1.34,1.35-2.42.84l-.57-.52c-.37-.86.42-1.31.59-1.79a9.44,9.44,0,0,1-1.51,1.77l-.52.55c-.57-.12-1.14-.27-1.71-.36-3.93-.63-3.93-.62-3.47-4.43C126,138.77,124.67,140,123.54,138.7Z"/><path class="cls-16" d="M116.21,104.32l.57.54a.74.74,0,0,1-.1.22c-3,3-4.1,2.88-6.36-.79-.42-.68-.24-1,.23-1.46a8.71,8.71,0,0,0,1.77-2.3c-1.81,2.08-3.54.52-5.27.25-.66-.82.33-1,.57-1.46,2.15-.06,3.58-.68,4.08-3.21.38-1.94,6.31-2.59,7.52-1,.75,1,.11,1.76-.55,2.4-1.43,1.4-2.92,2.75-4.27,4.22-.58.63-1.68,1.16-1.13,2.26s1.47.21,2.23.18A1.05,1.05,0,0,1,116.21,104.32Z"/><path class="cls-17" d="M101.62,257.23l-.52-.59,2.51-3.65a2.38,2.38,0,0,1,.49,2c0,2.82,2.41,2.24,3.88,2.43,1.73.22,1-1.51,1.16-2.43a11.5,11.5,0,0,0,0-2.75c-.2-2-.07-3.57,2.6-3.2.93.12,1.09-.5,1-1.3-.16-1.05-.27-2.12-.42-3.41l3.4.72,1,.45c-.2.14-.43.43-.61.4-2.73-.37-2.7,1.08-2.06,3,.39,1.2-.49,1.27-1.25,1.16-2.37-.35-2.93.81-2.55,2.88a3.51,3.51,0,0,1,0,1.25c-.24,1.52.52,4.2-.79,4.32-2,.19-4.65.45-6.25-1.91C102.43,255.53,102.26,257.31,101.62,257.23Z"/><path class="cls-14" d="M189.84,198.16l.5,1c-.3.14-.63.44-.89.39-3.49-.75-3.41,1.47-3.22,3.81.1,1.29-.44,1.52-1.67,1.2-3.76-1-3.77-.92-3.89-4.65,0-1.06-.14-1.42-1.54-2s-3-2.93-2.86-5.34h.86c1.6.87,2.33,3,4.61,2.94.51,0,.73.83.86,1.41a17.28,17.28,0,0,1,.18,2.49c.06.79-.22,2.14.69,2.14,1.31,0,.64-1.4.8-2.2a14.58,14.58,0,0,0,.07-1.49c.1-.91.1-1.94,1.06-2.39s1.72.39,2.24,1.1S189.24,197.46,189.84,198.16Z"/><path class="cls-16" d="M80.41,153.79l-.55-.57c.11-.3.41-.72.3-.87-.32-.48-.68,0-1,.08-.82.09-1.46,2.23-2.22.56-.69-1.5-2.8-3-.87-5.08.55-.59,1.45-.95,1.35-2-1-.28-1.71.46-2.49.8-1.07.47-1.35-.83-2.28-.85-.72,2.2-1.41,4.44-3.27,6a1.06,1.06,0,0,1-.8-.69c.32-2.62,1.84-4.81,2.63-7.28.37-1.16,1.46-1,2.31-.46a3.85,3.85,0,0,0,3.11.41c2.41-.49,3.29.62,2.5,3a9.81,9.81,0,0,1-.53,1.14c-.31.66-1.13,1.25-.64,2s1.2,0,1.81,0a1.76,1.76,0,0,1,2.12,1.64C82.08,152.66,82.09,153.82,80.41,153.79Z"/><path class="cls-13" d="M166.21,143.12l-.58.53c-1.88-.15-4.21-2-4.57-3.54,0-.16-.14-.36-.08-.48a8.73,8.73,0,0,1,3.88-3.59c1.33-.69,2.57.1,3.41,1.32.53.76.89,1.61,1.39,2.38s.82,1.35,1.74,1.14.62-1,.66-1.66c.05-.87.17-1.74,1.13-2a1.92,1.92,0,0,1,2.53,1l.72.52c-1.7.46-2.94,1.16-1.79,3.23a1,1,0,0,1-.23.87c-1,1-5.26.22-6-1-.91-1.43-1.22-3.26-3.14-4.57C165.47,139.5,163.6,141.58,166.21,143.12Z"/><path class="cls-18" d="M129.28,104.73l2-6.19c.3-1,.18-2.36,2-1.43.87.45,1.33-.84,2.26-1,.52.11.1.74.32.92,2.4,1.94,0,2.72-.95,3.68a30.11,30.11,0,0,1-5.54,4.65Z"/><path class="cls-19" d="M205.48,197.65l-.58-.57a2.35,2.35,0,0,1,2.45-2.58c1.51-.12,1.76,1.31,2,2.43a30.55,30.55,0,0,1,.66,7.21c0,2.94.47,3.38,3.47,3.56,2.26.14,3.36,1.24,3.54,3.54l-.53.59c-1.29-.64-1.72-3.05-4.15-1.46-1.17.76-4.31-2.68-4.29-4.36a66.71,66.71,0,0,0-.46-7.47C207.4,196.42,206.71,196.7,205.48,197.65Z"/><path class="cls-20" d="M64.29,127.08l-.54-.58c.49-1.7,1.56-1.76,3.09-1.34a49.19,49.19,0,0,0,15.39,2c.42,0,2.17.64,1.11-1.1l.66-.65a2.06,2.06,0,0,1,2.5,2.13c0,1.4-1.43,1.35-2.48,1.54-4.35.82-8.62-.09-12.87-.79C68.86,127.9,66.57,127.51,64.29,127.08Z"/><path class="cls-21" d="M95,205.82c-.67-2-.42-4.13-.48-6.21,0-1.7,1.55-1.84,2.55-2.37,1.16-.62,2.6-2.48,3.61-1.31.87,1-1.26,2.11-1.88,3.29-.89,1.7-3,2.62-3,4.87A2,2,0,0,0,95,205.82Z"/><path class="cls-22" d="M68.82,151.22l.53.61c-1.37,1.7-4.71,2.66-6.6,1.9-1.22-.49,0-1.66-.8-2.44-.8.46-1.65.93-2.49,1.42-3.61,2.12-3.61,2.12-5.8-1.48l.54-.56c2.59,1.6,4.62.17,6.78-1.1s2.56-1.09,3.48,1.12c.46,1.12,1.16,1,2,.85S67.94,150.67,68.82,151.22Z"/><path class="cls-23" d="M121.74,211.21l-.65-.55c6.22-3.81,10.87-9.12,14.71-15.23l.54.65C132.8,202.41,128.18,207.69,121.74,211.21Z"/><path class="cls-24" d="M170.17,236.45l.5-.48c.83.78,2.34,1.18,1.45,2.86-.76,1.43-1.42,2.24-3.09.77-3.68-3.25-7.48-6.36-10-10.71l.55-.56a47.32,47.32,0,0,0,9.08,9.51c.58.43,1,1.69,2,.95C171.76,237.93,170.42,237.23,170.17,236.45Z"/><path class="cls-25" d="M88.94,250l.56.56c-.88,1.79-2.27.51-3.25.32-1.72-.33-.29-2-1.19-3.44a36.65,36.65,0,0,0-2.7,3.14c-1.48,2.17-3,2.1-4.72.35-.28-.29-.6-.55-.9-.82l.64-.58c1.92,1.88,3.46,1.53,5.05-.57a41.43,41.43,0,0,1,4.2-4.17,3.84,3.84,0,0,1,0,2.74C86.21,249.51,86.82,250.48,88.94,250Z"/><path class="cls-26" d="M132.26,187.06l.62-.61c.09-.14.15-.35.29-.4,3.44-1.23,3.26-4.06,3.24-7,0-3.35,1.33-4.94,4-5.17l.6.55c-3.79,2.42-2.31,6.34-2.72,9.7C138,186.49,134.2,188.38,132.26,187.06Z"/><path class="cls-27" d="M226.72,84.84l-.51-.69c-1.37-1.39-3-1.05-4.67-.79a15.42,15.42,0,0,1-3.95.35,1.3,1.3,0,0,1-1.18-.79,1.18,1.18,0,0,1,.6-1.49c1.6-.82,3.18-1.78,5.11-1.28l.61.51c.85.88,1.89.28,2.84.33s2-.07,3.2-.13A9.49,9.49,0,0,1,226.72,84.84Z"/><path class="cls-28" d="M141.38,220.8a4.54,4.54,0,0,0-.76-3.52c-1.18-2.27-1.22-4.26.84-6,1.23,1.33.43,2.92.51,4.38.1,1.72-.07,3.46-.12,5.19Z"/><path class="cls-29" d="M125.77,192.11c-1-2.38-2-4.76-3-7.15l0,.06c1.48-.1,2.55,2.74,4.59.68-.39,1.22-.74,2.45-1.19,3.65-.32.82-.66,1.57.38,2.12Z"/><path class="cls-30" d="M189.85,101.79l-.58.59c-2.6-.48-5.71-3.66-6-6.13l1.25-.94c-.11,1.81,1.67,2.25,2.51,3.37A39.36,39.36,0,0,0,189.85,101.79Z"/><path class="cls-6" d="M158,189.54c-.94-4.1-.19-8.26-.4-12.38A100.3,100.3,0,0,1,158,189.54Z"/><path class="cls-31" d="M81.91,195.55c0,2.13-1.84,2.8-3.07,4l-.56-.44c0-.15.06-.3.1-.45C79.08,197.05,79.86,195.57,81.91,195.55Z"/><path class="cls-32" d="M52.57,139.05a17.4,17.4,0,0,1,6.68-.12l-1.56.67C56.08,138.55,54.24,139.63,52.57,139.05Z"/><path class="cls-6" d="M158.49,199.13c-.83-1.54-.28-3.19-.39-4.79A13.8,13.8,0,0,1,158.49,199.13Z"/><path class="cls-33" d="M216.61,123.55a3.55,3.55,0,0,1-2.62.28,1,1,0,0,1,1.12-.79C215.46,123.64,216.15,123.26,216.61,123.55Z"/><path class="cls-6" d="M159,204.67c-.71-1-.35-2.14-.38-3.23A7.1,7.1,0,0,1,159,204.67Z"/><path class="cls-34" d="M236.29,186.43c-.54.11-1.2,0-1.16-.54s.72-.33,1.16-.28Z"/><path d="M158.07,271.76c1,1.73.27,3.62.49,5.42C157.43,275.46,158.17,273.57,158.07,271.76Z"/><path class="cls-35" d="M142.2,200v8.83C139.68,204.25,139.7,201.86,142.2,200Z"/><path class="cls-2" d="M183.27,96.25a59.88,59.88,0,0,0,6,6.13c-.66,2.07-1.83,2.45-3.8,1.47-1.12-.56-2.71-2.29-3.47.75-.27,1.07-1.7.71-2.34-.38-1-1.71-2-3.44-3-5.27a4.59,4.59,0,0,0-.92,2.74c-.11.74-.07,1.55-1.14,1.64s-1.47-.59-1.73-1.45c-.57-1.84-1.11-3.7-1.7-5.53-.19-.6-.26-1.39-1.24-1.27s-1.84.91-2.9.37c-.8-.41-1.62-.75-2.66-1.22.12,1.41.22,2.47.31,3.53-.74,1.14-1.61.91-2.48.21-.71-.56-1.37-1.17-2.05-1.76-1.7-.54-2.46-2.18-3.54-2.95.77,1.07,2.39,1.86,3,3.52a82,82,0,0,0,25.28,18.86,30.61,30.61,0,0,0,16.72,2.55c1.81-.2,4-1.42,4.84,1.68.23.88,1.19.26,1.76.06,2.05-.73,4.14-1.41,6.12-2.32s2.35.56,3.05,1.78c.91,1.62-.32,1.75-1.31,2.21-2,.89-4.12,1.35-6.2,2.85,1.94.91,3.63.49,5.26.25,1.22-.17,2,0,2,1.43-.1,2,1.19,2.29,2.77,2.38a37.77,37.77,0,0,0,13.64-1.88c1.38-.44,2.54-.58,3.67.57s-.71,1.88-.35,3.15c2.71.43,5.44-.37,8.12-1,3.09-.74,6.1-1.84,9.14-2.8,1-.31,1.87-.83,2.39.69.42,1.23.39,2.1-.89,2.69-2.06.94-4.08,2-6.18,2.82-1.29.52-1.63,1-.51,2.06a2.15,2.15,0,0,1,.78,2.66c-.54,1.25-1.59,1-2.57,1-2.19,0-4.37,0-6.55,0-.77,0-2-.39-2.13.73a2.55,2.55,0,0,0,1.35,3c.92.41,1.89.7,2.82,1.09s1.91.42,1.72,1.76-1.33,1-2.17,1.12l-.95.16c.91,1.8,2.66,2.5,4,3.57,1.19.91,1.28,1.64.45,2.92s-1.66,1.22-2.82.4c-2-1.39-4.05-2.65-6.05-4-.62.63-.11,1.06-.06,1.51.13,1.1,1.69,2.32.6,3.14s-2.74.53-4.07-.21c-2.81-2.75-3-6.59-4.18-10.32-.65.73-1.17,1.25-1.61,1.83-.57.78-1.16,1.27-2,.42-1.5-1.48-2.59-.14-3.36.74-.9,1,.56,1.49,1.08,2.1.81.94,1.78,1.56,1.28,3.2-.6,1.94-2,1.65-3.83,1.56a38.35,38.35,0,0,0,2.71,4c1.7,1.92,1.67,3.4-.75,4.56-1.12.3-1.7-.41-2.25-1.19l-2.8-3.89c-.6-.85-1.16-1-1.53.15-.7,2.21-2.22,1.07-3.51.9s-2-1-1.91-2.43c.06-1.84,0-3.7-.07-5.54,0-.61.09-1.68-.94-1.31-2.18.81-3.47-.6-4.94-1.67s-2.73-1.92-4-2.83c-.9.33-.73,1.05-.82,1.55a2.64,2.64,0,0,1-2.46,2.38c-1.72.33-1.81-1-2.16-1.87-.77-1.94-1.82-2.87-4-2.1-1.07.37-1.39.74-.75,1.74a38.87,38.87,0,0,1,2.07,3.45c.41.81,1.84,1.8,0,2.6-1.27.56-2.72,1.84-3.68-.51-.34-.85-1-1.57-1.38-2.4-.53-1.12-1-1.49-2.22-.6-1.68,1.22-4.54-.18-4.92-2.29s-.67-4-.94-6c-.47-3.55-.45-3.55-3.59-1.77a6.08,6.08,0,0,1-1.23-.22c-1.73-.71-1.81,0-1.52,1.49.15.8,1.31,2.09-.26,2.53-1.39.4-3,.62-3.79-1.34-.43-1.09-1.1-2.07-1.62-3.13s-1.25-1-2.13-.93-1,.64-1.08,1.37c-.08,1.89-1.69.79-2.76,1.44a21.17,21.17,0,0,0,4.3,4.26c8.76,8.21,17.92,15.92,28.48,21.76a29.75,29.75,0,0,0,16.19,3.81c1.76-.09,2.56.58,2.95,1.94.51,1.77-1.37,1.19-2.05,1.83-.12.11-.21.23-.32.35,3.87,3.19,10.18,2.55,14.27-1.44,1.38-1.53,3.12-.89,4.4-.24,1.69.87-.27,2.59.39,4.06,2-.28,3.58-1.56,5.22-2.55,2.49-1.52,3.14.53,4,1.89,1,1.69-.92,1.57-1.64,2-1.4.89-3,1.55-4.61,2.39a3.85,3.85,0,0,0,2.25,1.18c.79.29,1.69.49,1.47,1.66s-.22,2.24-1.7,2.42c-1.22.14-2.43.32-4.34.58a18.65,18.65,0,0,0,15.29,1.27c.77-.26,1.49-.8,2.4-.38,2.17,1,2.36,2.55.47,4.06-.38.3-.94.44-1.07,1.28a36.51,36.51,0,0,0,11,1.54c.92,0,2.74-.89,2.54,1.17-.15,1.46-.07,3.39-2.84,3.06-3.64-.43-7.36-.12-11.09-.78,0,1.48,1.11,2.08,1.58,3,.34.69,1.8,1.35.62,2.19-1,.74-2.28,1.89-3.7.2a13.1,13.1,0,0,0-8.35-4.75,14.36,14.36,0,0,0-1.48,0c1,2.68,2.9,4.47,4.6,6.38.74.84,1.57,1.44.49,2.71s-1.85.56-2.75-.08l-3.79-2.67c.19,2.38,1.31,4.06,1.89,5.9.3.95.59,1.79-.63,2.29-1,.41-2,1-2.94-.19-.51-.67-1.06-1.31-1.52-2-.85-1.33-1.45-2.1-3.25-.77-1.47,1.1-2.36-.42-2.49-1.93-.21-2.51-.32-5-.46-7.54,0-1-.14-2.05-1.24-2.56l-11.46-5.23c2,3.66,4.58,5.89,7.15,8.11.92.8,2.25,1.34,1.37,3s-2,.41-3,.27a16.59,16.59,0,0,1-2.25-.68c.77,2.29,2.31,3.68,3.49,5.29.46.64,1.73,1.22,1.12,2-.73.92-1.51,2.36-3.21,1.78-1.28-1.42-2-3.74-4.83-2.2-1.07.58-3.12-1.86-3.13-3.44a33.17,33.17,0,0,0-1.27-10.71,9.77,9.77,0,0,0-2.92,2.19c-1.68-.43-2.91-1.88-5.08-2.25l3.64,6.57c.72,1.3.12,3.94-1,4.68-.58.38-.91-.08-1.34-.27-.81-.36-1.37-1.24-2.66-1.2.64,1.74,1.3,3.34,1.79,5,.18.62,1.22,1.67-.22,2-1.06.24-2.43.63-3-1-.72-2-1.41-4.1-2.1-6.11-1,.06-1.29.74-1.65,1.26-.79,1.12-1.54,1.53-2.9.67s-1.27-1.63-.58-2.85a24.94,24.94,0,0,0,2.94-7.27,6,6,0,0,0-2.89,1.79c-2.54,1.47-2.74-1.19-4-2.45-.92,1.87-.4,3.69-.61,5.41-.1.84.27,2.08-1.19,2-1.18-.05-2.37-.32-2.33-2a21.58,21.58,0,0,0-.06-3c-.13-1,.7-3.35-1.87-1.53-.55.39-.88-.25-1.1-.68-.56-1.11-1.53-2-1.59-3.36a36.66,36.66,0,0,1,3.61-7.19,3.32,3.32,0,0,0,.19-3.52c-.79-1.91-2.26-3.49-2.4-5.74-.07-1.06-1.37-1.38-2.22-1.07a2.53,2.53,0,0,0-1.57,3.07,11.9,11.9,0,0,0,2.17,4.23c.33.51,1.09,1,.34,1.72s-1.32.24-2-.24-1.3-2.1-2.27-1.44.22,1.83.37,2.79a15.16,15.16,0,0,0,1,3.12c.37,1,.25,1.57-.77,2s-1.57,0-1.88-1c-.18-.56-.41-1.11-.57-1.67-.53-2-1.26-3.35-3.47-1.47-.72.62-1.58.32-2.35-.14-1-.59-.58-1.41-.4-2.22.74-3.44,1.52-6.88,1.24-10.5-1.77-.16-1.59,3.39-3.57,2-1.13-.79-1.68-2.41-2.48-3.64-.8.31-.49.93-.7,1.33s-.37.9-.66,1c-.62.18-.8-.46-1-.91-3.55-9-7.5-17.82-7.73-27.71a3,3,0,0,0-.22-.72c-1.09.15-.81,1-.75,1.55.74,6.24-1.32,12.11-2.34,18.11-.43,2.47-1.19,4.89-1.7,7.35-.25,1.17-.79,2-2,1.64-1.57-.48-.19-1.43-.13-2.17,0-.53.69-1,0-1.77-1.32,1.28-1.5,3.15-2.51,4.53-2.26,1.27-3.43,3.1-3,5.78a13.51,13.51,0,0,1,0,2c-.08,3.81-.56,4.32-4.46,4.74-.73-1.18-1.34-1.51-1.84.17-.34,1.12-.79,2.21-1.18,3.32s-1,1.23-2,.84-.82-1-.59-1.81c.63-2.12,1.68-4.17,1.4-6.55-1.09.17-1.29,1.14-1.88,1.67s-.83,1.42-1.82.85-.75-1.36-.43-2.2.63-1.88,1.17-3.5c-2.08,1.17-3.63,2-5.16,2.92-.92.53-.32,1.11,0,1.68a33.72,33.72,0,0,0,2.7,4.82c1.89,2.41.09,4.63-.2,6.85-.15,1.17-1.29.39-1.77-.36s-.78-1.87-2-1.45c-1,.37-.63,1.44-.72,2.21-.18,1.49-.25,3-.34,4.51-.05.86,0,1.74-1.26,1.72-1,0-1.76-.19-2.12-1.33-1-3.17-1.55-3.72-4.38-4.76a7.61,7.61,0,0,0-1-.33,2.77,2.77,0,0,0-.7.07c.58,2.55,2.07,4.68,3,7,.56,1.38,1.19,2.42-.58,3.56s-2.33-.32-3.21-1.16a16.51,16.51,0,0,1-1.12-1.31,20.52,20.52,0,0,0-2.34,6.08c-.66,2.3-2.26,1.84-3.8,1.57-.94-.16-.81-.93-.54-1.6.53-1.32,1.12-2.62,1.64-4,.32-.82,1-1.61.5-2.62-1.55.1-2.35,1.68-3.83,1.78-1.51-1.22-1.65-2.41-.17-3.87a29.9,29.9,0,0,0,3-3.72c.45-.61,1.61-1.16.81-2.06a2.36,2.36,0,0,0-3-.74c-1.63.87-3.21,1.82-4.81,2.74a2.15,2.15,0,0,0-.94,2.17,23.39,23.39,0,0,0,.09,4c.44,2.46-1.57,2.78-2.92,3.77s-1.86-.17-2.48-1-1.15-.13-1.54.3c-1.13,1.24-2.28,2.47-3.29,3.8-1.34,1.75-2.11.13-3-.43-1.26-.75-.58-1.46.09-2.19a30.58,30.58,0,0,0,4.06-5.47c-1.34-.24-2.18.46-3.14.64-.76.14-1.56.78-2.16-.37a1.84,1.84,0,0,1,.52-2.61,24,24,0,0,0,3.13-3.25c1-1.26.4-2.14-1.4-2.33-1,1.44-1.66,3.38-4,3.11-1.35-1-2.22-1.17-2.06,1s0,4.54.3,6.78A2.28,2.28,0,0,1,74,208.19c-1.54.74-1.71-.5-2.09-1.33-.66-1.45-1.24-1-1.9,0-1.27,1.77-2.56,3.53-3.82,5.31-1.42,2-2.71.16-3.91-.26-1.56-.55-.26-1.48.09-2.16a45.73,45.73,0,0,1,5.72-8.18c-1-.63-1.3.09-1.61.49a23.54,23.54,0,0,1-5.15,4.4c-.85.62-1.49.88-2.34-.09s-.71-1.64.13-2.54q3.15-3.42,6.12-7c.57-.69,1.56-1.52.39-2.57-1-.91-1.91-.69-2.89.12a96.64,96.64,0,0,0-8.12,7.14c-1.29,1.33-4.13.87-5.08-.74-.38-.63.1-.9.4-1.25.54-.64,1.11-1.25,1.66-1.87.47-.33,1.2-.59,1-1.26s-.88-.3-1.34-.27c-3.35.17-6.7.38-10,.57-.91.06-1.75-.1-1.92-1.16-.22-1.38-1.08-2.75-.47-4.14.27-.62,1.22-.35,1.88-.36,3.18,0,6.38.32,9.54-.41.72-.16,1.5-.14,2-.76-.26-1.35-2.73-1.17-2.17-2.89.4-1.21,4.4-2.1,5.93-1.45,4.49,1.91,8.66,1,12.82-1.26a7.34,7.34,0,0,0-3.78-.76,1.57,1.57,0,0,1-1.63-1.28c-.25-1,.45-1.34,1.16-1.65,1-.43,2-.85,3.21-1.37-1.48-1.65-3.43-2-5-3-.71-.45-2-.6-1.19-1.94.59-1,1.07-2.19,2.67-1.56s3.18,1.09,4.74,1.7c1.12.43,1.76.35,1.76-1.06,0-1.16-.14-2.51,1.49-2.76s3-.84,4.51.82c3.66,3.94,9,4.2,13.66,1.12-.57-1.24-3.2-.38-2.77-2.22.52-2.2,2.58-.75,3.89-.87a35.84,35.84,0,0,0,14.22-3.93c10.57-5.88,19.74-13.6,28.54-21.81a50.54,50.54,0,0,0,7.92-8c-1.89.16-2.27,1.33-3,2s-1.4,1.63-2.54,1.3c-1.39-.38-.65-1.69-.9-2.57l-.27-1a15.12,15.12,0,0,0-2.56,5c-.82,2.42-2.58,2.14-4.21,1.65-1.86-.55-.23-1.95-.34-2.95a6.34,6.34,0,0,1,.31-1.7l-4.48.84-1.53-.86c-1.22-.69-1.63-.26-1.59,1.05.07,2.6.08,5.2.08,7.8,0,1.12.36,2.4-1.5,2.57-1.53.14-3.06.67-3.45-1.57,0-.22-.23-.41-.45-.78-1.62,1.6-2.5,3.61-3.78,5.32-.73,1-4.35.85-4.89-.18-.39-.73.31-1.23.63-1.77,2.93-5,2.93-5,2.76-7.74-1.4.5-2.84.93-4.12-.89-.65,2.84,0,6.52-3.59,6.64-3.87.13-1.29-3.43-2.17-5.31a10.15,10.15,0,0,0-2.62,2.7,17.08,17.08,0,0,0-1.93,2,2.59,2.59,0,0,1-3.2,1.22c-1.83-.57-2.64.19-2.48,2.15a36,36,0,0,1,0,4.28c0,.81.23,1.84-.77,2.21s-2.26.57-3-.41c-1.21-1.51-2-.91-2.88.27s-2.06,2.44-3.08,3.67a2.6,2.6,0,0,1-4.4-.2c-.46-.7,0-1.08.37-1.53,1.27-1.67,2.55-3.33,3.82-5,1.38-.87,1.07-2.14.36-3.06s-1.23.33-1.83.6-1.13,1.09-1.65.1-1.31-1.69-.5-2.76a13.23,13.23,0,0,0,1.33-1.5c.43-.8.85-1.91.37-2.62-.62-.92-1.58,0-2.18.37-2,1.24-2.86-.36-4.16-1.73-.76,3.08-1.55,5.78-3.33,8a6.8,6.8,0,0,0-.77.63,3.61,3.61,0,0,1-4.2.67c-1.31-.48.15-2-.46-3.07a12.23,12.23,0,0,0-3.63,1.9c-3.26,1.91-3.25,1.93-5.56-.68,1.46-2,3.85-2.61,5.71-4,.85-.64,2-1,2.6-2-.66-1.06-1.69-.6-2.5-.53-1.59.12-2-.91-2.4-2.06-.54-1.41.68-1.46,1.39-1.9,1.16-.72,2.66-.9,3.93-2.5a54.9,54.9,0,0,0-8.56.1c-.67.05-1.33.16-2,.15-1.09,0-1.32-.93-1.53-1.73-.32-1.18.69-1.1,1.37-1.28s1.63-.38,2.7-.63c-1.12-1.22-2.59-1.37-3.79-2-1.58-.79-3.22-1.45-4.8-2.23-2.36-1.17-2.5-3.66-.32-5.12.85-.57,1.42.17,2,.46a65,65,0,0,0,14.63,5.35,18.43,18.43,0,0,0,4,.26c0-1.89-3.58-1.47-2.37-4,.88-1,1.87-1,3.13-.66,6.08,1.41,12.19,2.58,18.64,1.41-.3-1.22-1.35-1.69-2.06-2.43,1.14-1.28,2.73-2.48.75-4.33a1.09,1.09,0,0,1-.08-.93c.7-1.94,4.39-3.23,6.15-2.16a14.25,14.25,0,0,1,1.5.91c1.4,1.11,2.5,1.27,3.12-.77.35-1.12,1.13-1.21,2.2-1,8.13,1.91,15.5.14,22.59-4.17a108.94,108.94,0,0,0,21.21-17.22,4.11,4.11,0,0,1,.42-.9c.42-.53.92-1,1.31-1.38a5.18,5.18,0,0,1-2.31,1.71c-.2.15-.41.28-.61.44-.76.62-1.37,1.61-2.56,1.25-1.38-.42-.54-1.77-1.14-2.83-1.64.59-3,2.64-5.18,1.55-.28-.14-.51.76-.66,1.23-.54,1.75-1.11,3.51-1.61,5.28-.31,1.09-.8,1.73-2.09,1.67s-1.23-1.08-1.38-1.94l-.46-2.72c-1,.33-1.26,1.24-1.58,1.94-.91,2-2.36,2.72-4.43,2.07a2.29,2.29,0,0,0-3,1.18c-1.21.1-1.49,2.92-3.4,1.07-1.24-1.19-1.59-2-.08-3.38,2.14-2,4-4.26,6-6.45-1.54-.57-3.37-.19-5.15-.19-1.1,0-1.26.84-1.4,1.73-.53,3.42-1.72,4-4.56,2.22-.4-.4-.8-1.06-1.42-.76s-.13.9-.13,1.37c0,.76.13,1.52.1,2.27,0,1.45,1.42,3.16-.53,4.31s-3.88,1.63-6-1c.48,2.66.82,4.62-1.85,5.35-1.22.33-1.67-.33-2.34-.92s-.36-1.29,0-2c.77-1.27,1.89-2.34,2.34-3.89a3.44,3.44,0,0,0-3.32.93c-2,1.78-2.91,1.45-3.59-1.23-.1-.39-.3-.77-.56-1.44-2.52,2.35-4.88,4.57-7.26,6.76-.7.64-1.25,1.68-2.53.85a2,2,0,0,1-.88-2.57c.47-1.41-.15-1.63-1.39-1.2-2.38.82-4.8,1.53-7.17,2.4s-2.42-1.06-3-2.33c-.79-1.7.47-2,1.67-2.27a27.22,27.22,0,0,1,3-.6c1.6-.18,2.57-.68,1.92-2.57s1.09-1.6,1.94-1.77a81.41,81.41,0,0,0,17.68-5.75,5.26,5.26,0,0,0,2.69-1.66c-1.67-.39-2.79.59-4,1.14-1.83.86-3.19.94-3.93-1.33-.59-1.77-1.76-.46-2.67-.4-1.3.09-2.58,1.42-3.85-.3-.87-1.17-1.15-1.89.28-2.78a5,5,0,0,0,2.44-2.37c-2.6,0-5,0-7.35,0A4,4,0,0,1,74.07,82c-.14-1.2.75-.94,1.31-.88,1.84.18,3.66.47,5.49.71.72.1,1.44.52,2.51-.32-5.21-1.12-8.34-4.77-11.87-8,3.54-2.37,3.54-2.37,6.28.25a33.92,33.92,0,0,0,8.4,5.9c-.29-1.68-1.46-1.67-2-2.27s-1.89-.47-1-1.78,1.52-.58,2.28,0c4.61,4.32,10.27,6,16.39,5.92A64,64,0,0,0,137.71,70c.61-.42,1.15-1,1.73-1.43a12.5,12.5,0,0,0,4.36-5c-2.34.1-3.93,1.39-5.68,2.3-1.43.75-3,1.75-2.79-1.19,0-1-.47-1.1-1.27-.8-1.49.56-3,1.15-4.5,1.61-.74.22-1.81,1.21-2.21-.4-.27-1.12-.16-2.1,1.22-2.63a16.84,16.84,0,0,0,4.47-2c-.16-1.21-2.2-1.28-1.62-2.34a4.27,4.27,0,0,1,3.67-2.25c3.93-.25,7.39-1.62,9.47-5.28a3.5,3.5,0,0,0,.69-3c-2.45.77-4.38,2.42-6.62,3.47-.88.41-1.62,1.64-2.83.39s-.19-2.06.49-3c.29-.39.53-.82,1-1.52-2.25-.4-4.2.2-6.06.59s-2.8-.28-3.73-1.66c-.7-1-.53-1.41.65-1.67,1.94-.44,3.84-1,6.28-1.66-4.1-1.77-7.69-3.33-11.3-4.85a4.52,4.52,0,0,1-2.54-2.6,2.3,2.3,0,0,1,.61-3.07c1.08-1,1.94-.91,3.11-.19,4.3,2.62,8.7,5.09,13.24,7.28a4.75,4.75,0,0,0,2.78.91c-.59-2.27-2.17-3.95-3.06-6-.22-.49-1-1.19-.3-1.51,3-1.36.89-3.18.53-4.8-.27-1.19-1.05-2.22.86-3s2.14.49,2.63,1.61a74.91,74.91,0,0,0,6.41,12.22c.22-2.3.46-3.82.49-5.35.08-4.37.45-8.78,0-13.1s1.42-7,4.64-9.24c1.3.76.89,2.06,1,3.17.65,7.17.51,14.37.55,22.31,2.62-3.33,4.2-6.51,6.13-9.46.55-.84.5-2.86,2.52-1.72,1.54.87,2.82,1.66,1.73,3.84-.88,1.77-2.16,3.84.86,5.13.86.37.43,1.06.1,1.69-.53,1-1.41,1.86-1.58,3.09,1.07.55,1.81-.23,2.58-.61,4.65-2.31,9.32-4.59,13.89-7.06,1.42-.77,2.42-.77,3.46.39,0,2.61-.77,4.6-3.38,5.84-3.7,1.76-7.24,3.85-10.94,5.84,1,1.11,2.31.9,3.35,1.34.7.3,1.95.09,1.49,1.42-.36,1.07-.08,2.7-2,2.68-2.58,0-5.17,0-7.69,0-.62,1.42,2.28,2.41.05,3.57a3,3,0,0,1-3.3-.18A18.36,18.36,0,0,0,156.84,50c.15,3.52,2.58,5.72,6.44,6,1.54.1,3.15-.28,4.48,1.08.85.86,1.47,1.42.1,2.24-1.6,1-.76,1.45.37,1.89s2.34.94,3.5,1.41,1.12,1.6.87,2.56c-.37,1.39-1.32.54-2,.36s-1.57-.58-2.37-.82c-1.61-.47-3.79-2.57-3.68,1.54,0,1.44-1.27,1.17-2.25.54-1.27-.81-2.56-1.59-3.84-2.39l-4.2-2.57A5.89,5.89,0,0,0,156,65.5c4.78,5.57,11.06,9,17.63,11.79a58.63,58.63,0,0,0,29.56,4.33c4.73-.52,8.75-2.82,12.35-5.86.6-.52,1.13-1.41,2-.3s-.07,1.58-.8,2.1-1.24.85-1.84,1.31c-.07,0,0,.29,0,1,2.83-1.75,5.42-3.32,8-4.94a13.4,13.4,0,0,0,2.39-1.85c1-1,1.63-.61,2.46.24s.91,1.68-.11,2.47c-1.86,1.44-3.7,2.9-5.55,4.34-1.46,1.42-3.65,1.28-5.19,2.73,2.67-.26,5.35-.48,8-.8,2-.23,2.12.6,1.27,2.07a3,3,0,0,1-2.9,1.56c-2.26.06-4.51.33-6.89.52.2,1.25,1.32,1.5,2,2.1a1.52,1.52,0,0,1,.5,2.15,1.41,1.41,0,0,1-2,.82c-1.41-.46-2.87-.77-4.21-1.12-.59.53-.21.89-.14,1.27.15.8,1.31,1.6.16,2.42s-2.17,1.23-3.48.36a32.32,32.32,0,0,0-5.38-3,17.43,17.43,0,0,0,7.07,4.9,62.89,62.89,0,0,0,13.24,3.89c1.26.22,2.41.45,1.48,2.18-.47.87,0,1.39.81,1.72,1.1.41,2.18.89,3.26,1.33.8.32,1.63.55,1.07,1.76a1.45,1.45,0,0,1-2.18.88c-1.55-.64-3.15-1.14-4.73-1.71-1-.38-2-.58-1.41,1.06s-.32,2.38-1.39,3.17c-3-1.28-4.83-4-7.4-5.88-.66-.48-1.08-1.3-2-1.42C210,107,210,107,204.93,104.65c.57,1.52,1,2.84,1.53,4.14.35.94,1,1.9-.5,2.48-1.2.47-2.37,1-3.14-.67a15.76,15.76,0,0,0-1.33-2.13c-.78-1.21-1.21-2.78-3.25-1.08-1,.83-2.42,0-2.59-1.63-.29-2.66-.54-5.32-.8-7.93-.79-.33-1,.27-1.25.62-.51.62-.82,1.65-1.91,1.13-.88-.41-1.89-.82-1.92-2.08a.72.72,0,0,0,0-.25c-.45-1.32.18-3.69-.82-3.9-2-.42-4,.87-5.92,1.63C182.08,95.34,182.81,95.89,183.27,96.25Z"/><path class="cls-36" d="M159.56,96.78a19.75,19.75,0,0,1-4.27-4.39l.52-.57,4.32,4.39Z"/><path class="cls-37" d="M132.87,143.1a17.8,17.8,0,0,0,.81-2c.43-1.75,1.35-1.74,2.73-.73l-2.62,2.8Z"/><path class="cls-38" d="M122.76,185c-1.86-2-1.86-2,.86-3.23.08,1.22-.68,2.18-.9,3.29Z"/><path class="cls-39" d="M140.86,95.2l3.29-3.4.48.51c-.59,1.55-2,2.44-3.19,3.46Z"/><path class="cls-40" d="M77.39,197.69c1.8-.45,2.48-2.32,4-3.11l.51,1-3.53,3.07Z"/><path class="cls-41" d="M112.86,100.36c.44-2-.31-5.17,3.73-3.75C115.74,98.23,114.2,99.19,112.86,100.36Z"/></svg>