<svg id="Layer_1" data-name="Layer 1" xmlns="http://www.w3.org/2000/svg" viewBox="0 0 300 300"><defs><style>.cls-1{fill:#c7102e;}.cls-2{fill:#e8aa03;}.cls-3{fill:#c10f2c;}.cls-4{fill:#e7aa03;}.cls-5{fill:#e7a903;}.cls-6{fill:#c6102e;}.cls-7{fill:#e6a803;}.cls-8{fill:#e5a803;}.cls-9{fill:#d59c03;}.cls-10{fill:#b20e29;}.cls-11{fill:#7d0a1d;}.cls-12{fill:#72091a;}.cls-13{fill:#a70d26;}.cls-14{fill:#3d2d01;}.cls-15{fill:#770a1b;}.cls-16{fill:#70091a;}.cls-17{fill:#a40d26;}.cls-18{fill:#a97c02;}.cls-19{fill:#b98972;}.cls-20{fill:#b88972;}.cls-21{fill:#b88872;}.cls-22{fill:#b78871;}.cls-23{fill:#b68770;}.cls-24{fill:#b4856f;}.cls-25{fill:#b58670;}.cls-26{fill:#b58770;}.cls-27{fill:#b4866f;}.cls-28{fill:#b3856f;}.cls-29{fill:#b68771;}.cls-30{fill:#0e0a08;}.cls-31{fill:#110d0b;}.cls-32{fill:#100c0a;}.cls-33{fill:#0c0908;}.cls-34{fill:#0a0706;}.cls-35{fill:#1a1310;}.cls-36{fill:#1c1511;}.cls-37{fill:#070504;}.cls-38{fill:#1a1410;}.cls-39{fill:#1d1612;}.cls-40{fill:#18120f;}.cls-41{fill:#120e0b;}.cls-42{fill:#0c0907;}.cls-43{fill:#2f231d;}.cls-44{fill:#1d1512;}.cls-45{fill:#130e0c;}.cls-46{fill:#0f0b09;}.cls-47{fill:#0e0b09;}.cls-48{fill:#1e1612;}.cls-49{fill:#040302;}.cls-50{fill:#17110e;}</style></defs><path d="M23.79-.61H276.21a1,1,0,0,1,1,1V174.06A125.93,125.93,0,0,1,151.28,300h0A128.49,128.49,0,0,1,22.79,171.5V.38a1,1,0,0,1,1-1Z"/><path class="cls-1" d="M150.2,82.72q59.34,0,118.68-.06c2.54,0,3.14.65,3.13,3.16-.09,29.23,0,58.47-.07,87.7a122,122,0,0,1-89.57,117.85C123,308,59.51,276.46,36.81,219.19a122.93,122.93,0,0,1-8.76-45.81c0-29.24,0-58.47-.06-87.71,0-2.42.62-3,3-3Q90.6,82.78,150.2,82.72Z"/><path class="cls-2" d="M149.75,80.21q-59.35,0-118.7.07c-2.64,0-3.07-.77-3.06-3.17q.14-35.86,0-71.72c0-2,.45-2.61,2.56-2.61q119.45.09,238.89,0c2.12,0,2.56.58,2.55,2.61q-.12,35.87,0,71.72c0,2.43-.45,3.18-3.07,3.17Q209.35,80.13,149.75,80.21Z"/><path d="M90.92,190.25q10.85-21,21.68-41.9c6.15-11.91,12.22-23.85,18.45-35.71,1.21-2.31,1-4.65,1.12-7,0-1.08-.54-1.19-1.45-1q-3.32.63-6.65,1.11c-1.69.25-3.24.16-3.55-2-.28-2,1-2.82,2.64-2.84,3.24,0,4.8-1.92,6.09-4.55,1.48-3,3.83-5.67,3.38-9.42a1.78,1.78,0,0,1,1.5-2c1-.18,2.19-.3,2.64.8.54,1.35,1.56,1.3,2.63,1.36,8.06.42,16.12.85,24.19,1.24q11.85.58,23.71,1.09a22.74,22.74,0,0,0,6.21-.35c1.68-.4,3,0,3.38,1.92s-.94,2.63-2.58,2.93l-6.76,1.24c31.14,25.71,45.63,57.32,36.11,97.84.79.59,1.55-.06,2.26-.28a213.39,213.39,0,0,0,22.39-8.45c2.11-.92,3-2.76,4.3-4.37.82-1.05,1.54-2.17,2.35-3.23,1.55-2,5.86-3.14,8.13-2a1.82,1.82,0,0,1,1,2.68,18,18,0,0,1-1.47,2.31l-36,50.07c-1.68,2.33-1.68,2.38,1,3.11,1.6.44,3.24.7,4.86,1,.66.15,1.81-.21,1.64.94s-1.23.58-1.88.53a30.61,30.61,0,0,1-8.9-2.33,24.74,24.74,0,0,0-19.9-.1,27.52,27.52,0,0,1-22.53,0,24.07,24.07,0,0,0-19.65,0,27.48,27.48,0,0,1-22.53,0,24.15,24.15,0,0,0-19.65,0,27.26,27.26,0,0,1-22.3,0,25,25,0,0,0-19.9-.06,31.37,31.37,0,0,1-9.39,2.45c-.58,0-1.52.38-1.61-.61s.86-.81,1.48-.86c3.45-.28,6.6-1.64,9.87-2.6,1.23-.35,1.28-.92.74-2-2.5-4.88-5-9.78-7.4-14.72-.73-1.49-1.28-1.35-2.24-.25A17.89,17.89,0,0,0,65.1,219a60.86,60.86,0,0,1-5.84,9.87c-1.42,2.1-3.24,3-5.8,2-1.87-.68-3.83-1.09-5.75-1.66s-2.31-1.52-1-3.08c3.79-4.41,7.33-9.08,12.72-11.8,2.63-1.32,4.58-3.57,6.78-5.47,1.06-.92.6-1.71.14-2.62-2.36-4.68-4.73-9.36-7.06-14.05-.65-1.31-1.67-2.74.15-3.94a3.41,3.41,0,0,1,4.77,1.33c2.53,5.45,8,5.6,12.61,7.38,1,.41,1.53-.36,2.1-.94,2.62-2.68,5.21-5.39,7.86-8a2.41,2.41,0,0,1,2.7-.79c1.21.49,1.11,1.52,1,2.54-.87,2.83-3,4.77-4.72,7.07C87.8,194.85,88.84,192.13,90.92,190.25Z"/><path class="cls-3" d="M90.92,190.25a53.23,53.23,0,0,0-2.71,5.59c-1,2.73-2.65,3.26-5.35,2.1l7.64-8.21Z"/><path d="M235.41,44.82c3.31-1.37,5.79-.32,7.63,2.37,1.25,1.83.75,3.11-1.35,3.63-.55.14-1.25,0-1.15.88.3,2.81-1.59,4.63-3,6.62-.81,1.12-1.37,1.89.12,3a3.32,3.32,0,0,1,1.24,3.36c-.34,1.93-2,2.8-3.7,1.66s-2.35-.61-3.28.85a11.24,11.24,0,0,1-7.25,4.68c-2.58.61-4.83,1.31-4.69,4.62.07,1.82-1.44,1.61-2.5,1.59s-2.59.38-2.55-1.49c.08-3.37-2.16-4.12-4.86-4.75a11.4,11.4,0,0,1-7.36-4.94c-.61-1-1.18-1.87-2.51-.84-1.13.88-2.45,1.37-3.54,0a2.93,2.93,0,0,1,.18-4.29c2-1.61,1.15-2.67,0-4.14-1.38-1.74-2.86-3.52-2.58-6,.12-1-.71-.68-1.21-.77-2.1-.38-2.42-1.66-1.47-3.28,1.3-2.2,3.15-3.69,5.92-3.28,1.58.23,1.79-.26,1.09-1.58a9.29,9.29,0,0,1-.94-2.56c-.16-1-.55-1.08-1.46-1.16-2.31-.22-3.21-2-2-4.1A10.52,10.52,0,0,1,200,30c.43-.14,1.35.25,1.23-.73-.07-.57-.41-.89-1.13-1.07-2.76-.7-3.41-2.29-1.91-4.68a10.13,10.13,0,0,1,5.93-4.69A2.15,2.15,0,0,0,206,17a5.07,5.07,0,0,1,4.63-4.24c1.06-.09,1.28-.54,1.53-1.47.68-2.52,2.28-3.49,5.34-3.42,2.39.05,4.53.61,5.09,3.39.19.95.52,1.41,1.57,1.5A5.13,5.13,0,0,1,228.81,17a2.13,2.13,0,0,0,1.85,1.82,10,10,0,0,1,6.28,5.32c1.08,2.13.38,3.58-1.91,4.05-.75.15-1.36.29-1.42,1-.09,1.06.94.66,1.45.85a10.6,10.6,0,0,1,5.53,4.82c1.24,2.1.39,3.79-2,4.1-.76.1-1.17.18-1.42,1C236.71,41.53,236.07,43.05,235.41,44.82Z"/><path d="M64.64,44.62c-.7-1.74-1.65-3-1.87-4.63-.11-.82-.59-.91-1.36-1-2.47-.32-3.28-2.12-1.9-4.29A10.46,10.46,0,0,1,65.15,30c.45-.15,1.36.19,1.25-.76-.07-.57-.45-.88-1.15-1.06-2.81-.72-3.41-2.22-1.87-4.69A10.12,10.12,0,0,1,69.3,18.8c1-.28,1.59-.53,1.88-1.79a5.08,5.08,0,0,1,4.61-4.27c1-.1,1.35-.51,1.62-1.45.72-2.57,2.23-3.5,5.29-3.45,2.42,0,4.5.71,5.13,3.39.22.9.38,1.43,1.49,1.51,2.57.19,4.06,1.87,4.66,4.2a2.24,2.24,0,0,0,1.89,1.87,9.82,9.82,0,0,1,6.27,5.32c1.06,2.17.38,3.57-1.93,4-.74.16-1.35.27-1.4,1-.09,1.05.93.66,1.42.84a10.55,10.55,0,0,1,5.42,4.59c1.45,2.27.63,4-2,4.34-.66.1-1,.1-1.19.87a11.63,11.63,0,0,1-.77,2.36c-.27.67-.64,1.3-1.12,2.25,2.84-.54,5.21-.26,7.06,1.86,2,2.32,1.75,3.53-1.11,4.53-.42.14-.81.17-.75.75.32,3-1.71,4.94-3.29,7-.84,1.1-.86,1.71.26,2.53a3.34,3.34,0,0,1,1.33,2.59,2.81,2.81,0,0,1-1,2.66,2.12,2.12,0,0,1-2.77-.11c-1.45-1.2-2.24-.6-3.09.75A11.08,11.08,0,0,1,90,71.8c-2.69.62-4.94,1.37-4.86,4.74,0,1.86-1.52,1.49-2.54,1.5s-2.61.24-2.5-1.58c.19-3.22-2-4-4.45-4.58-3.19-.76-6-2.19-7.79-5.12-.51-.83-1-1.79-2.32-.81s-2.56,1.5-3.74,0a3,3,0,0,1,.29-4.3c1.88-1.53,1.09-2.56,0-4-1.35-1.76-2.9-3.5-2.6-6,.1-.87-.58-.76-1.14-.9-2.12-.53-2.56-1.74-1.39-3.62C58.49,44.69,60.73,43.87,64.64,44.62Z"/><path d="M132.14,45.47c-.51-2.43-1.88-4-2.13-6-.07-.55-.59-.39-1-.47-2.76-.51-3.55-2.23-2-4.54A10.53,10.53,0,0,1,132.57,30c.44-.14,1.37.23,1.23-.75-.08-.54-.43-.88-1.15-1.06-2.79-.69-3.42-2.24-1.88-4.68a10.2,10.2,0,0,1,5.93-4.69c1-.28,1.62-.53,1.9-1.8a5,5,0,0,1,4.61-4.25c1-.1,1.3-.57,1.57-1.48.75-2.56,2.26-3.48,5.33-3.42,2.41,0,4.5.67,5.11,3.4.2.92.47,1.41,1.55,1.5A5,5,0,0,1,161.39,17c.29,1.24.85,1.51,1.88,1.81a10,10,0,0,1,6.27,5.34c1.06,2.14.37,3.57-1.93,4-.76.15-1.35.32-1.41,1-.09,1.05,1,.65,1.45.83a10.62,10.62,0,0,1,5.54,4.82c1.22,2.08.35,3.83-2,4.12-.73.09-1.23,0-1.4.94a11.29,11.29,0,0,1-.79,2.36c-.31.76-.7,1.48-1.25,2.62,3.32-1.39,5.79-.55,7.67,2,1.51,2.06,1.12,3.23-1.31,3.92-.49.14-1.08.08-1,.78.29,2.9-1.63,4.8-3.14,6.84-.81,1.09-1.21,1.8.15,2.75A3.33,3.33,0,0,1,171.49,64c0,2.25-1.8,3.54-3.62,2.29s-2.48-.51-3.46,1a11.12,11.12,0,0,1-7.08,4.53c-2.69.6-5,1.36-4.83,4.78.08,1.71-1.4,1.46-2.34,1.44s-2.67.47-2.64-1.37c0-3.5-2.24-4.2-5-4.91s-5.55-2-7.17-4.81c-.62-1.06-1.26-2-2.68-.84-1.14.91-2.48,1.21-3.52-.14a2.9,2.9,0,0,1,.2-4.11c2-1.67,1.21-2.82,0-4.35s-2.68-3.26-2.44-5.56c.13-1.21-.72-1-1.44-1.14a1.77,1.77,0,0,1-1.68-2.26C124.31,45.15,128.8,43.27,132.14,45.47Z"/><path class="cls-2" d="M143.45,190.2c2.34-2.7,4.67-5.41,7-8.11,12.3-14.14,14.46-29.93,7.8-47.23-4.31-11.2-11.21-20.72-18.85-29.79l-1.4-1.64c6.1-1.06,11.91-2.09,17.73-3.08,8.53-1.45,17.07-2.8,25.57-4.35a7.17,7.17,0,0,1,6.24,1.4c20.32,16,33.52,36.19,37,62.2,1.35,10.13.38,20.09-1.8,30a14.82,14.82,0,0,1-.47,1.44c-7.55-12.1-19.42-14.47-32.12-14.61-13.46-.15-25.79,4.35-37.72,10.09-2.84,1.37-5.63,2.84-8.45,4.27C143.47,190.92,143.33,190.69,143.45,190.2Z"/><path class="cls-2" d="M77.13,207.34a3.21,3.21,0,0,0,2.33-3.65,4.41,4.41,0,0,0-3.17-3.83A4.1,4.1,0,0,0,70.78,202l-3.6-6.85,4.54,1.74A48.91,48.91,0,0,0,89,200.22c34.22.06,68.45.27,102.66-.07,18.46-.19,35.88-5.59,52.78-12.72a7.51,7.51,0,0,1,3.08-.75c-1.92,2.62-4,5.15-5.72,7.89a16.42,16.42,0,0,1-7.57,6.15,104.09,104.09,0,0,1-42.67,8.95c-34.13.19-68.27.08-102.41.08a52.46,52.46,0,0,1-12.6-1.51C76.24,207.62,76.74,207.51,77.13,207.34Z"/><path class="cls-2" d="M74.33,209.05c8.75,2.85,17.27,2.2,25.73,2.21,30.06,0,60.11.09,90.17-.06,15.1-.07,29.8-2.53,43.72-8.75.48-.22,1.05-.84,1.57-.31.73.76-.27,1.17-.58,1.61-2.08,2.91-4.25,5.76-6.33,8.66a6.51,6.51,0,0,1-2.52,2c-10.88,5.56-22.62,7.22-34.6,7.28-30,.15-60,.09-89.92.07a58.85,58.85,0,0,1-20.09-3.31c-2.09-.75-3.62-1.77-4.45-3.9C76.37,212.82,75.42,211.24,74.33,209.05Z"/><path class="cls-2" d="M79.78,219.77c2.15.1,3.7,1,5.35,1.4a66.61,66.61,0,0,0,16.56,2.06c29.32,0,58.63.05,87.95,0,12,0,23.9-1.27,35.11-6.54.28,1-.34,1.4-.69,1.89-1,1.43-2.11,2.79-3.07,4.24-2.58,3.88-5,7.45-10.8,6.78-3.5-.41-7,1.72-10.49,2.92a22,22,0,0,1-15.15,0c-1.56-.56-3.16-1-4.72-1.6a24.58,24.58,0,0,0-17.57,0c-1.95.72-3.95,1.3-5.92,2a20,20,0,0,1-12.75,0c-1.82-.59-3.67-1.1-5.45-1.78a24.68,24.68,0,0,0-18.28-.06c-1.47.56-3,1-4.48,1.52a22.25,22.25,0,0,1-15.16,0c-4.78-1.62-9.5-3.67-14.75-3.22a1.13,1.13,0,0,1-1.23-.63C82.79,225.75,81.35,222.89,79.78,219.77Z"/><path class="cls-1" d="M131.59,137.36l-1,59.38c0,.95.24,2.06-1.38,2-5.64,0-11.29,0-17.22,0l19.09-69.94c.56-.06.69.3.68.74A67.35,67.35,0,0,1,131.59,137.36Z"/><path class="cls-1" d="M191.81,198.77c-2.35.76-3.79-.69-5.11-3.11-2.71-5-5.71-9.77-8.63-14.62-.67-1.1-1-1.88.75-2.16,10.17-1.56,20.24-1.68,30,2.35a22.42,22.42,0,0,1,12.07,10.69c.76,1.51.54,2.07-1.19,2.52A137.93,137.93,0,0,1,191.81,198.77Z"/><path class="cls-1" d="M136.92,194.55V127.37a3.34,3.34,0,0,1,1.29,2.25c4.91,14.57,9.78,29.15,14.73,43.71a3.75,3.75,0,0,1-.57,3.89A143.85,143.85,0,0,1,136.92,194.55Z"/><path class="cls-1" d="M130.06,119.36Q122.68,138,115.3,156.71c-5.25,13.22-10.56,26.41-15.75,39.65C98.84,198.19,98,199,96,198.83c-2.37-.2-4.77-.05-7.12-.05a2.82,2.82,0,0,1,.58-2.1l39.64-77c.15-.29.34-.57.51-.85C130,118.76,130.32,118.8,130.06,119.36Z"/><path class="cls-1" d="M130.59,124.4q-4.26,15.78-8.51,31.55c-3.68,13.56-7.41,27.11-11,40.69-.44,1.67-1.12,2.33-2.88,2.18a54.39,54.39,0,0,0-6,0c-1.35,0-2-.08-1.35-1.76q14.67-36.58,29.26-73.21C130.53,123.78,130.84,123.84,130.59,124.4Z"/><path class="cls-2" d="M217.8,229.59c8.83-12,17.47-23.68,26.09-35.4,4-5.35,7.87-10.73,11.8-16.09a5.67,5.67,0,0,1,6.27-2.29c.86.2.92.59.55,1.21s-.74,1.11-1.13,1.65c-11.95,16.6-23.94,33.17-35.79,49.85-1.53,2.15-2.83,3.21-5.34,1.82A13.69,13.69,0,0,0,217.8,229.59Z"/><path class="cls-4" d="M133.65,151.44V108c0-.67,0-1.33,0-2,.06-.87-.19-2.1,1.17-2s.73,1.28.73,2c0,5.91,0,11.82,0,17.74q-.17,36.36-.39,72.71c0,.81.74,2.13-.88,2.43s-2.29-.27-2.24-2.11c.36-15.07.62-30.14.91-45.22Z"/><path class="cls-1" d="M159.54,149.74c-7-11.8-13.92-23.65-21-35.36-1.78-2.92-1.25-5.78-1.31-9.22a34.33,34.33,0,0,1,4.93,5.55c7.69,9.73,14.24,20.07,17.07,32.36.39,1.7.61,3.43.91,5.15C160.1,148.79,160.76,149.61,159.54,149.74Z"/><path class="cls-1" d="M179.94,91.25C166.49,93.49,153,95.69,139.6,98c-1.88.33-2.62.08-2.45-2a40.08,40.08,0,0,0,0-5.48c-.11-1.84.67-2.17,2.37-2.08,13,.68,25.93,1.27,38.89,1.88C178.8,90.94,180.05,89.93,179.94,91.25Z"/><path class="cls-1" d="M137.87,121.41c6.42,13.7,12.77,27.43,19.33,41.06a6.47,6.47,0,0,1,0,6.51,22.77,22.77,0,0,1-2.67,4.61c-5.75-17.24-11.41-34.25-17.08-51.25C137.29,121.89,137,121.37,137.87,121.41Z"/><path class="cls-1" d="M149,198.78c-3.5,0-7,0-10.49,0-.67,0-1.61.36-1.78-.8-.14-.88.4-1.35,1.09-1.78a176,176,0,0,1,17.81-9.55c1.11-.51,1.62-.35,2,.84q1.54,4.88,3.28,9.7c.53,1.51-.19,1.64-1.41,1.62C156,198.75,152.52,198.78,149,198.78Z"/><path class="cls-1" d="M180.45,198.78c-3.72,1.28-5.59-1.09-7-4.82s-3.22-7.12-4.93-10.64c-.58-1.19-.39-1.66.92-2.1,5.84-2,5.82-2,9,3.3,2.46,4.15,4.9,8.31,7.4,12.45.76,1.26.84,1.94-1,1.83C183.61,198.72,182.36,198.78,180.45,198.78Z"/><path class="cls-2" d="M47.46,227.56c4-4.58,7.46-9,12.58-11.87,5.56-3.13,9.55-8.23,14.22-12.47.67-.61,1.4-2.19,2.26-1.34,1.1,1.08-.67,1.73-1.26,2.41-2.83,3.28-5.76,6.46-8.68,9.66a15.57,15.57,0,0,0-2.82,4.38A61.18,61.18,0,0,1,58,228c-.83,1.22-1.83,2.18-3.53,1.66C52.29,229,50.06,228.32,47.46,227.56Z"/><path class="cls-1" d="M173.69,198.78c-3.12,0-6.27,0-9.41,0-1,0-1.45-.51-1.74-1.38-1.17-3.55-2.32-7.1-3.57-10.62-.39-1.11-.07-1.56.95-2.06,6.22-3,6.21-3.06,9.14,3.22q2.37,5.08,4.7,10.17C173.82,198.25,173.73,198.44,173.69,198.78Z"/><path class="cls-5" d="M123.51,104.27c-.72,0-1.38.09-1.48-.72-.14-1.07.65-1.17,1.42-1.3,6.64-1.13,13.27-2.28,19.92-3.39q24.72-4.14,49.45-8.25c.33-.06.65-.17,1-.21.66-.09,1.42-.24,1.6.68s-.48,1.11-1.19,1.23c-2.62.47-5.24,1-7.86,1.4l-61.74,10.4C124.2,104.18,123.79,104.23,123.51,104.27Z"/><path class="cls-6" d="M137.62,117.38c1.4,0,1.53,1,1.91,1.6,6.68,11.21,13.31,22.44,20,33.64,2.06,3.45.17,6.69-.59,10.16Z"/><path class="cls-7" d="M72.88,209.55l10,19.76c-2,1.2-3,.73-3.93-1.23-2.27-4.88-4.7-9.69-7.25-14.43C70.77,211.88,71,210.73,72.88,209.55Z"/><path class="cls-8" d="M68.22,206.59q-3.89-7.76-7.77-15.48c-.25-.5-.76-1.05-.13-1.55a1.69,1.69,0,0,1,1.88,0A4.74,4.74,0,0,1,64,192c1.85,3.61,3.58,7.29,5.56,10.84C70.53,204.63,70.14,205.69,68.22,206.59Z"/><path class="cls-5" d="M134.05,92.78c0-1.83,0-3.65,0-5.47,0-.51.14-1,.8-1s.82.49.82,1c0,3.48,0,7,0,10.43,0,.67-.29,1.11-1,1.08-.92,0-.68-.77-.69-1.29,0-1.57,0-3.14,0-4.71Z"/><path class="cls-9" d="M88.84,188.93c-3.23,2.63-5,6.73-8.85,8.74C82.69,194.5,85.24,191.18,88.84,188.93Z"/><path class="cls-10" d="M132.3,94c.42,5.24.42,5.24-3.06,5.56A27,27,0,0,1,132.3,94Z"/><path class="cls-11" d="M131.59,137.36c-.57-2.81.49-5.73-.53-8.52a1.34,1.34,0,0,1,.94-1.51C131.88,130.77,132.21,134.07,131.59,137.36Z"/><path class="cls-12" d="M179.94,91.25l-1.48-.87h3C181.29,91.53,180.54,91.24,179.94,91.25Z"/><path class="cls-13" d="M130.59,124.4l-.51-.57.72-1.87A2.33,2.33,0,0,1,130.59,124.4Z"/><path class="cls-12" d="M159.54,149.74c.18-.51.36-1,.55-1.52.14.54.31,1.07.4,1.61,0,.28.12.77-.28.77S159.61,150.14,159.54,149.74Z"/><path class="cls-14" d="M77.13,207.34l-.56.9c-.53,0-1.29-.23-1.15-.57C75.7,207,76.53,207.36,77.13,207.34Z"/><path class="cls-15" d="M137.87,121.41l-.42.93c-.41-.6-.83-1.26-.14-1.84C137.48,120.36,137.78,121,137.87,121.41Z"/><path class="cls-16" d="M138,116l-.49.53c-.15-.15-.4-.27-.44-.45s.09-.42.15-.64Z"/><path class="cls-17" d="M130.06,119.36l-.49-.53c.21-.56.23-1.26,1.09-1.4A2.09,2.09,0,0,1,130.06,119.36Z"/><path class="cls-18" d="M143.45,190.2l.55.57a2.81,2.81,0,0,1-1.66.94C142.21,190.81,142.94,190.59,143.45,190.2Z"/><path class="cls-19" d="M215.55,45.68c-.1-1,.58-1.87.87-2.8A7.5,7.5,0,0,0,214,34.59c-2.54-2.11-3.54-5.12-4.32-8.14-.4-1.58.64-2.81,2-3.71,2.85-1.91,8.56-2,11.44-.09,1.43.93,2.46,2.19,2,3.93-.71,3-1.72,5.87-4.17,7.94a7.38,7.38,0,0,0-2.56,8.24C219.51,46.3,219.51,46.3,215.55,45.68Z"/><path class="cls-19" d="M210,55.73c-.17-6.22,2.37-8.73,8.44-8.46,3.44.16,5.76,2.24,6.36,5.82a16.62,16.62,0,0,1-.08,5.45c-.27,1.71-2.12,2.31-3.61,1.25-2.52-1.8-5-1.91-7.29,0a2.2,2.2,0,0,1-2.59.3c-1.15-.41-1.23-1.16-1.23-2.1Z"/><path class="cls-19" d="M209.31,50.25a32.73,32.73,0,0,0-2.8-3.28,10.92,10.92,0,0,1-2.38-8c.36-2.39,2.62-3.8,4.92-4.53,2-.62,3.57.44,4.87,1.83a5.75,5.75,0,0,1,1.32,6c-.69,2.07-1.23,4.26-3.55,5.38C210.8,48.14,210.23,49.24,209.31,50.25Z"/><path class="cls-19" d="M225.37,50.44c-1.57-3-5.06-4-5.71-7.52-.42-2.26-.56-4.28.81-6.18,1.69-2.33,4.3-3,6.57-1.79,3.35,1.82,4.4,4.06,3.34,7-.54,1.55-.61,3.46-1.6,4.6S226.32,48.74,225.37,50.44Z"/><path class="cls-20" d="M226.12,55.63a11.3,11.3,0,0,1,.48-4.51,5.52,5.52,0,0,1,5.78-3.76c2.87.25,4.31,2,4,4.85-.27,2.34-1.38,4.41-2.14,6.59-.45,1.28-2.13.81-2.8,1.85-1.07,1.66-1.91.22-2.8-.24C226,59.05,226,59.05,226.12,55.63Z"/><path class="cls-19" d="M208.64,54.48c0,1.16,0,1.66,0,2.16,0,1,.75,2.35-.08,2.82-1.25.71-2.88,1.9-3.92,1.74a5.66,5.66,0,0,1-4.11-2.64,26.57,26.57,0,0,1-1.88-5.14c-.8-3.07,0-4.92,2.36-5.75a5.5,5.5,0,0,1,6.81,2.61A7.61,7.61,0,0,1,208.64,54.48Z"/><path class="cls-20" d="M210.87,32.82A6.72,6.72,0,0,0,210,33c-3,1.68-4.66.05-6.36-2.3-2-2.83-2-3.65,1.06-5.25.48-.25,1.68.06,1.21-1-.28-.65-1.24-.38-1.81,0-1,.57-1.93,1.28-2.9,1.92-.72.47-1.5.9-2.25.16s-.27-1.45.08-2.08a9.7,9.7,0,0,1,5.2-4.44c1.61-.6,2.82.17,4,1.26s.86,2,.36,3.25a6,6,0,0,0,.49,4.83C209.67,30.46,210.24,31.55,210.87,32.82Z"/><path class="cls-20" d="M228.43,24.55c5.43,3.34,5.26,3,1.29,7.72-.51.62-.71,2-1.49,1.78a36.88,36.88,0,0,0-3.8-1.1c-.58-.1-.28-.63-.1-1,.44-.89.93-1.77,1.34-2.67.7-1.55,1.19-3.17.48-4.81-.48-1.12-.94-2.05.22-3.08s2.33-2,4-1.46a9.61,9.61,0,0,1,5.42,4.54,1.66,1.66,0,0,1,0,2.09c-.63.62-1.37.3-2-.14s-1.53-1-2.27-1.52A2.57,2.57,0,0,0,228.43,24.55Z"/><path class="cls-20" d="M213.48,63a2.76,2.76,0,0,1,1.89-2.75,4.32,4.32,0,0,1,4.7.39,2.32,2.32,0,0,1,1.14,2.76c-1.21,3.9-1.58,8-2.29,12-.16.92-.41,1.58-1.54,1.51-.72,0-1.24-.15-1.4-1C215.15,71.49,214.8,67.08,213.48,63Z"/><path class="cls-21" d="M232.1,46.15c-1.29.21-1.81-.34-1.22-1.8.34-.84.62-1.71.9-2.57a4.88,4.88,0,0,0-.88-5.13c-.86-.94-1.53-1.84-.58-3s1.69-2.72,3.7-2.45c1.81.25,5.19,3,5.71,4.76.43,1.51-.29,2-1.69,1.78a7.1,7.1,0,0,1-1.3-.69c-.69-.32-1.19-1.73-2-1s.7,1.17,1,1.84a4,4,0,0,1-.17,3.13c-.52,1.48-1.58,2.73-1.78,4.35C233.72,46.36,233,46.22,232.1,46.15Z"/><path class="cls-20" d="M200.6,31.18c2.43-.09,3.12,1.5,4,2.71s0,2-.76,2.78c-2,2.25-1.08,4.58-.18,7,.8,2.16.15,3-1.87,2.57-.32-.06-.71,0-.76-.46-.26-2.19-1.88-3.85-2.27-6a2.43,2.43,0,0,1,1-2.58c.3-.25.71-.56.39-1s-.84-.21-1.25.11c-.71.56-1.29,1.32-2.25,1.49-1.29.23-1.93-.27-1.69-1.63C195.36,34.25,199.14,31.2,200.6,31.18Z"/><path class="cls-22" d="M217.45,20c-1.65.55-2.15-.34-2.46-1.79-.36-1.69-1-3.32-1.47-5-.34-1.34-.36-2.77,1.09-3.49a5.75,5.75,0,0,1,5.72.12c1.33.81,1.35,2.16.91,3.55a51,51,0,0,0-1.49,5C219.46,19.77,219,20.55,217.45,20Z"/><path class="cls-22" d="M221,71.29c-.05-3,.95-5.88,1.62-8.77.37-1.63,3.1-2.11,5.22-1.1,1.8.86,2,2,.78,3.57-.2.26-.51.55-.52.84C227.93,70.25,224.75,71,221,71.29Z"/><path class="cls-22" d="M213.82,71.49c-1.24-.29-2.34-.62-3.46-.78a3.38,3.38,0,0,1-3.28-3.37,4.12,4.12,0,0,0-.88-2.28c-1.13-1.45-1.15-2.7.67-3.61,2-1,4.76-.61,5.22,1A36.27,36.27,0,0,1,213.82,71.49Z"/><path class="cls-23" d="M220.81,19.14c.33-3.25,1.62-5.39,3.19-5.26s3.78,2.27,3.72,3.82c0,.76-3.31,4.17-3.81,3.84C222.83,20.83,220.79,21.2,220.81,19.14Z"/><path class="cls-23" d="M210.9,21.61c-.65,0-3.82-3.24-3.85-3.93-.06-1.61,2.28-3.84,4-3.81,1.3,0,3,3.1,2.93,5.44C214,20,211.85,21.61,210.9,21.61Z"/><path class="cls-24" d="M236.41,57.1c.45-2.1,1.22-3.61,1.17-5.29a6.67,6.67,0,0,0-1-3.78c-.92-1.32-.33-2.45,1.28-2.65s4.12,1.68,4.45,3.09c.3,1.25-.64,1.15-1.34,1.18-1.17,0-1.8.33-1.74,1.75C239.38,53.9,238.92,54.66,236.41,57.1Z"/><path class="cls-25" d="M198.28,56.65c-1.67-1.33-3-2.76-2.78-4.93.14-1.29-.12-2.09-1.64-2.08-1.74,0-1.75-.86-.89-2a5.59,5.59,0,0,1,3-2.15,2.46,2.46,0,0,1,2.66.89c.8.9-.21,1.29-.55,1.85-1.23,2-1,4.12-.43,6.24C197.81,55.19,198.06,55.91,198.28,56.65Z"/><path class="cls-25" d="M206.42,68.41a2.83,2.83,0,0,1-2.25-1.5c-1.23-2.21-2.59-3.81-5.19-1.62a1,1,0,0,1-1.37,0,1.6,1.6,0,0,1-.43-1.62,3.63,3.63,0,0,1,2.5-2.55,2.59,2.59,0,0,1,3,.59C204.47,63.47,205,65.86,206.42,68.41Z"/><path class="cls-25" d="M228.67,68.4c.91-2.66,1.7-4.84,3.39-6.61a2.5,2.5,0,0,1,2.92-.74,3.41,3.41,0,0,1,2.54,2.48,1.56,1.56,0,0,1-.45,1.81,1.25,1.25,0,0,1-1.6-.25c-2-1.72-3.3-.65-4.42,1.11A4.15,4.15,0,0,1,228.67,68.4Z"/><path class="cls-19" d="M82,21.31a16.1,16.1,0,0,1,4.11.38c4.11,1.2,5.32,3.74,3.43,7.54a18.77,18.77,0,0,1-4.25,6.25C82.69,37.73,82.63,40.86,84,44c.23.54,1,1.38.24,1.74a4,4,0,0,1-3.36,0c-.67-.33.1-1.17.3-1.74,1.6-4.41.82-6.58-2.63-9.91a13.16,13.16,0,0,1-3.7-7.93A3.4,3.4,0,0,1,76.48,23,8.71,8.71,0,0,1,82,21.31Z"/><path class="cls-19" d="M90.07,56c-.56,1.2.93,3.21-1.41,4.08a2,2,0,0,1-2.37-.24c-2.49-2-4.81-1.91-7.49,0a2.14,2.14,0,0,1-3.53-1.42,24,24,0,0,1-.19-4c.15-4.83,2.83-7.27,7.83-7.21,4.57.05,7.06,2.61,7.16,7.34C90.08,55,90.07,55.42,90.07,56Z"/><path class="cls-19" d="M74.54,50.22c-.88-1.32-2-2.22-2.86-3.27a11,11,0,0,1-2.41-7.76c.23-2.4,2.5-3.89,4.76-4.66,3.48-1.2,7.37,2.78,6.57,6.84-.46,2.36-1,4.86-3.55,6.2C76.09,48.07,75.46,49.21,74.54,50.22Z"/><path class="cls-19" d="M90.63,50.36c-1.82-2.88-5.13-4.08-5.79-7.55-.38-2-.54-3.78.48-5.53a5.22,5.22,0,0,1,6.56-2.49c3.55,1.65,4.77,4.15,3.64,7.33-.55,1.53-.65,3.41-1.62,4.56S91.54,48.71,90.63,50.36Z"/><path class="cls-20" d="M73.86,55.57c0,.89,0,1.55.13,2.21.17,1.2,0,2.14-1.49,2.17-1.25,0-2.09,1.95-3.18,1.28-1.92-1.19-4.26-2.18-4.56-5a22.59,22.59,0,0,0-.89-2.83c-.77-3.08,0-4.89,2.32-5.72A5.47,5.47,0,0,1,73,50.23,9.33,9.33,0,0,1,73.86,55.57Z"/><path class="cls-19" d="M91.4,56.1c0-2-.17-3.63.51-5.24a5.53,5.53,0,0,1,6.22-3.44c2.25.44,3.49,1.7,3.44,4.14a17,17,0,0,1-2.29,7.3,5.21,5.21,0,0,1-3.76,2.38,6.26,6.26,0,0,1-4.12-1.86C90.53,58.57,91.52,57,91.4,56.1Z"/><path class="cls-20" d="M89.34,32.7c.18-1.29,1.09-2.31,1.6-3.52a5.9,5.9,0,0,0,.35-4.83c-.57-1.23-.66-2.05.37-3S94,19.4,95.66,20a9.63,9.63,0,0,1,5.23,4.39c.41.71.82,1.63,0,2.28-.65.52-1.4.2-2.07-.25-1.11-.73-2.21-1.47-3.37-2.09-.47-.25-1.27-.4-1.48.31s.55.59,1,.79c3.47,1.66,3.33,2.33,1.29,5.49C94.31,33.91,92.24,34.25,89.34,32.7Z"/><path class="cls-20" d="M71.39,24.5c-1.34-.75-2.25,0-3.21.69a14.57,14.57,0,0,1-2.54,1.56c-.87.36-1.65.17-1.71-1.05C63.86,24,66.7,21,69.16,20.09c2.1-.81,3.5.23,4.75,1.69.37.43.84.88.44,1.54-1.63,2.69-.64,5.16.78,7.49,1,1.71.8,2.51-1.26,2.45-.94,0-2,1.54-2.6.46-1.19-2-3.54-3.29-3.81-5.72-.16-1.36,1.56-1.71,2.47-2.48C70.33,25.18,71.15,25.51,71.39,24.5Z"/><path class="cls-20" d="M82.55,59.75c3,0,4.22,1.71,3.57,4.64-.78,3.48-1.37,7-2,10.51-.17,1-.07,2-1.6,1.94S81.2,75.66,81,74.74c-.67-3.51-1.26-7-2-10.51C78.41,61.47,79.66,59.77,82.55,59.75Z"/><path class="cls-21" d="M68,46.16c-.89,0-1.59.21-1.69-.4-.33-2.18-2-3.85-2.28-6a2.31,2.31,0,0,1,.81-2.44c.35-.27,1-.61.53-1.17-.59-.74-1,0-1.42.33a17.57,17.57,0,0,1-1.62,1.14,1.47,1.47,0,0,1-1.84-.16,1.39,1.39,0,0,1,0-1.83,9.7,9.7,0,0,1,4.46-4.18c1.93-.82,3.26.13,4.45,1.66s.87,2.44-.3,3.66a4.7,4.7,0,0,0-.86,4.9c.27.87.6,1.72.91,2.57C69.62,45.68,69.42,46.56,68,46.16Z"/><path class="cls-20" d="M98.81,31.15c2,0,5.72,3,6.14,4.88.28,1.3-.26,2-1.59,1.7a7.49,7.49,0,0,1-1.51-.78c-.67-.3-1.11-1.74-2-.82-.7.75.57,1.12,1,1.64.87,1.14.29,2.25,0,3.31-.48,1.48-1.5,2.75-1.81,4.34s-1.46.61-2.23.65c-1.05.07-.91-.77-.74-1.4A28.24,28.24,0,0,1,97,41.85a4.79,4.79,0,0,0-1-5.3c-.71-.78-1.44-1.55-.69-2.58C96.21,32.73,97,31.21,98.81,31.15Z"/><path class="cls-22" d="M82.45,20.07c-1.48.51-2-.38-2.26-1.83-.35-1.7-1-3.32-1.49-5-.4-1.39-.31-2.76,1.09-3.49a5.8,5.8,0,0,1,5.72.05c1.29.73,1.3,2.07,1,3.32-.51,2-1.22,4-1.71,6C84.44,20.47,83.49,20.07,82.45,20.07Z"/><path class="cls-22" d="M79,71.49c-1.29-.31-2.33-.62-3.38-.78-2-.3-3.13-1.24-3.3-3.35a5.22,5.22,0,0,0-.91-2.26c-.56-.85-1.31-1.66-.54-2.65a4.24,4.24,0,0,1,4-1.5c1,.11,2.28.29,2.54,1.59C78,65.43,79,68.24,79,71.49Z"/><path class="cls-22" d="M86.16,71.29a38.74,38.74,0,0,1,1.7-8.7c.46-1.68,3-2.18,5.12-1.2,2,.9,2,2.2.77,3.75-.15.19-.37.41-.38.63C93.12,70.21,90,71.08,86.16,71.29Z"/><path class="cls-23" d="M79.2,19.07c0,1.06-2.84,2.94-3.39,2.47-1.3-1.1-3.14-2-3.43-3.73-.25-1.52.9-2.78,2.33-3.49s2.88-.76,3.43,1.29C78.49,16.88,78.91,18.13,79.2,19.07Z"/><path class="cls-26" d="M89,21.63c-.69-1.06-2.89-.28-3-2.29-.09-2.25,1.62-5.44,2.9-5.47,1.71,0,4.07,2.16,4,3.78C92.94,18.32,89.76,21.61,89,21.63Z"/><path class="cls-27" d="M63.51,56.52c-1.78-1.29-3.21-2.78-2.82-5.1.24-1.4-.49-1.75-1.68-1.76-1.77,0-1.72-.88-.88-2a5.55,5.55,0,0,1,3.21-2.21,2.36,2.36,0,0,1,2.43.9c.74.85-.14,1.31-.5,1.89-1.21,1.92-1,4-.5,6C63,55,63.26,55.76,63.51,56.52Z"/><path class="cls-25" d="M101.64,56.93c.36-1.42.78-2.83,1.07-4.27a5.32,5.32,0,0,0-1-4.69c-1.18-1.35-.3-1.9.73-2.38,1.56-.73,4.83,1.21,5.08,2.94.17,1.21-.74,1.1-1.44,1.12-1.09,0-1.78.39-1.59,1.62C104.86,53.78,103.37,55.43,101.64,56.93Z"/><path class="cls-25" d="M93.71,68.48c1.12-2.67,1.76-5,3.55-6.67a3.43,3.43,0,0,1,5.51,1.67,1.73,1.73,0,0,1-.45,1.83,1,1,0,0,1-1.38,0c-2.49-2.12-3.83-.62-5,1.51A3.27,3.27,0,0,1,93.71,68.48Z"/><path class="cls-23" d="M70.87,68.19c-1.12-.27-1.45-1.29-2-2.1-1.09-1.62-2.31-2.69-4.25-1.08-.5.42-1.14.82-1.8.26a1.74,1.74,0,0,1-.34-1.86,3.41,3.41,0,0,1,5.35-1.7A11.85,11.85,0,0,1,70.87,68.19Z"/><path class="cls-19" d="M148,45.66c.36-1,.74-1.86,1-2.79a7.13,7.13,0,0,0-2.27-8.09c-2.56-2-3.38-5-4.4-7.84a3.36,3.36,0,0,1,1.31-3.77c3-2.6,9.9-2.56,12.84.09a3.3,3.3,0,0,1,1.23,3.56c-1,2.87-1.81,5.83-4.35,7.87A7.2,7.2,0,0,0,151,42.76C152.08,46.3,152.08,46.3,148,45.66Z"/><path class="cls-19" d="M142.56,55.67c-.14-6.49,3.42-9.52,9.77-8.29,2.87.56,4.36,2.6,5,5.29a17.42,17.42,0,0,1,0,5.94,2.2,2.2,0,0,1-3.46,1.32c-2.66-1.89-5-2-7.32-.33-.81.6-1.32,1.11-2.54.59s-1.4-1.45-1.44-2.53C142.54,57,142.56,56.33,142.56,55.67Z"/><path class="cls-19" d="M157.79,50.05c-1.48-2.59-4.87-3.66-5.53-7.17-.45-2.35-.54-4.44,1-6.35,1.82-2.3,4.32-2.81,6.62-1.44C163.12,37,163.78,39,163,42A14.22,14.22,0,0,1,157.79,50.05Z"/><path class="cls-19" d="M141.94,50.22c-.9-1.42-2.27-2.28-3-3.4a11.75,11.75,0,0,1-2.24-7.6c.26-2.43,2.52-3.83,4.74-4.68,2-.76,3.59.23,4.94,1.55a5.8,5.8,0,0,1,1.5,6.21c-.65,2.07-1.2,4.27-3.53,5.39C143.42,48.13,142.84,49.22,141.94,50.22Z"/><path class="cls-19" d="M169,51.6c-.06,2.63-1.35,4.91-2.21,7.3-.43,1.19-2.11.79-2.83,1.82-1.14,1.64-1.91-.26-2.86-.34-3-.26-2.59-2.22-2.37-4.24.18-1.63-.14-3.3.44-4.91a5.61,5.61,0,0,1,6.45-3.8C167.85,47.89,169.1,49.18,169,51.6Z"/><path class="cls-19" d="M141.22,56c0,1.15.78,2.64,0,3.35a6.86,6.86,0,0,1-3.84,1.78,5.33,5.33,0,0,1-4.26-2.63,25.62,25.62,0,0,1-1.78-4.88c-.9-3.15-.11-5.12,2.25-6a5.51,5.51,0,0,1,7,3A11.26,11.26,0,0,1,141.22,56Z"/><path class="cls-20" d="M138.73,24.51c-1.3-.8-2.19,0-3.15.68a15.81,15.81,0,0,1-2.53,1.56c-.87.36-1.66.15-1.72-1.05-.09-1.63,2.79-4.67,5.23-5.61,2.11-.81,3.5.23,4.75,1.69.36.42.86.84.45,1.53-1.66,2.78-.55,5.3.87,7.72.83,1.43.78,2.28-1.1,2.17-1.06-.06-2.14,1.64-2.84.54-1.24-2-3.56-3.31-3.85-5.7-.18-1.43,1.64-1.84,2.66-2.59C137.85,25.19,138.54,25.45,138.73,24.51Z"/><path class="cls-20" d="M156.5,32.85c.64-1.27,1.21-2.36,1.73-3.47a6.5,6.5,0,0,0,.5-5.07,3.34,3.34,0,0,1,3.86-4.41,8.72,8.72,0,0,1,5.81,4.72c.35.65.57,1.51-.16,2.06a1.57,1.57,0,0,1-1.86-.19l-2.47-1.66c-.84-.57-1.68-1-2.62-.33,0,.23,0,.35.05.38,1.39.91,3.8,1.28,3.79,3.05,0,2.48-2.83,3.75-3.83,6-.16.36-.56.26-.86.06C159.31,33.22,158,33.17,156.5,32.85Z"/><path class="cls-20" d="M150,59.75c3,0,4.19,1.74,3.54,4.68-.79,3.56-1.4,7.16-2,10.76-.17,1-.4,1.69-1.64,1.65s-1.22-.79-1.4-1.65c-.79-3.89-1.11-7.88-2.24-11.72C145.63,61.42,147.43,59.75,150,59.75Z"/><path class="cls-21" d="M133.34,31.18c2.34-.09,3,1.53,3.92,2.75.73,1,.08,1.81-.66,2.6a4.9,4.9,0,0,0-1,5.32c.33.94.68,1.87.94,2.83.13.5.53,1.31-.39,1.37s-2.19.74-2.45-.31c-.49-2.06-1.89-3.71-2.27-5.77a2.45,2.45,0,0,1,.78-2.68c.35-.27,1-.58.53-1.17s-.84-.11-1.23.16c-1.16.8-2.45,2.62-3.73.92-1.08-1.44.71-2.66,1.69-3.71C130.63,32.27,131.87,31.13,133.34,31.18Z"/><path class="cls-20" d="M164.93,46.16c-1.38.23-2-.31-1.45-1.92a31.93,31.93,0,0,0,1.18-3.79,4.2,4.2,0,0,0-1.23-3.88c-.81-.86-1.46-1.72-.6-2.8s1.63-2.77,3.63-2.6,5.48,3,5.9,4.85c.36,1.56-.47,2-1.81,1.68-.46-.11-.83-.54-1.28-.73-.67-.3-1.09-1.75-2-.85s.57,1.11.93,1.66c.75,1.15.31,2.24-.06,3.32-.5,1.49-1.58,2.74-1.77,4.36C166.33,46.28,165.71,46.24,164.93,46.16Z"/><path class="cls-22" d="M150,20c-1.54.56-2-.24-2.34-1.6-.38-1.69-1-3.33-1.47-5-.38-1.35-.48-2.77.9-3.56a5.61,5.61,0,0,1,5.92.05c1.34.81,1.23,2.22.83,3.58-.47,1.58-1.05,3.15-1.4,4.76C152.1,19.63,151.65,20.6,150,20Z"/><path class="cls-22" d="M146.48,71.52c-1.32-.32-2.36-.64-3.41-.79-2-.29-3.21-1.18-3.36-3.29a4.56,4.56,0,0,0-1-2.5c-1.21-1.53-.91-2.72.86-3.54,2.15-1,4.74-.5,5.18,1.15A45.27,45.27,0,0,1,146.48,71.52Z"/><path class="cls-22" d="M153.6,71.42c0-3.12.93-6,1.67-9,.4-1.6,3.15-2,5.22-1,1.81.88,1.9,2.1.74,3.58-.2.26-.51.55-.52.84C160.61,70.52,157.09,70.84,153.6,71.42Z"/><path class="cls-23" d="M146.57,19c0,1-2.67,3-3.3,2.54a10.05,10.05,0,0,1-3.47-3.45c-.54-1,.37-2,1.06-2.84,1.95-2.22,4-1.82,4.9.94C146.1,17.22,146.36,18.27,146.57,19Z"/><path class="cls-28" d="M169.07,56.53c1.09-3.34,1.93-6.23-.27-9.05-.7-.9.62-2.25,2.1-2.09a5.1,5.1,0,0,1,3.89,2.79c.52.91.06,1.49-.89,1.44-2-.1-2.08.93-2,2.5C172,53.86,171.14,55.13,169.07,56.53Z"/><path class="cls-29" d="M153.47,19c.25-3.13,1.58-5.28,3.18-5.12s3.79,2.39,3.69,3.86c-.05.75-3.21,3.88-3.89,3.85C155.1,21.51,153.39,20,153.47,19Z"/><path class="cls-28" d="M130.16,56.34c-1.26-1.32-2.31-2.64-2.09-4.52.17-1.43-.15-2.2-1.77-2.19s-1.56-.87-.82-1.92a5.35,5.35,0,0,1,3.4-2.31,2.37,2.37,0,0,1,2.38,1c.61.79-.19,1.18-.52,1.67-1.28,1.9-1,3.94-.62,6C130.23,54.77,130.86,55.4,130.16,56.34Z"/><path class="cls-26" d="M161.25,68.42c.88-2.64,1.67-4.85,3.38-6.56A3.37,3.37,0,0,1,170,63.17a1.87,1.87,0,0,1-.26,2.09c-.6.57-1.29.21-1.8-.22-1.89-1.61-3.13-.65-4.23,1A4.44,4.44,0,0,1,161.25,68.42Z"/><path class="cls-26" d="M138.63,68.29c-1.55-.33-1.84-1.48-2.44-2.32-1.06-1.53-2.22-2.52-4.06-1-.57.46-1.3,1-2,.24a2,2,0,0,1-.08-2.33,3.36,3.36,0,0,1,5.35-.93A13.91,13.91,0,0,1,138.63,68.29Z"/><path class="cls-30" d="M217.79,28.41a4.11,4.11,0,0,1-2.78-.89c-.55-.35-1-.84-1.78-.71-.55.09-1.47.71-1.44-.47,0-.69,1.18-1.12,1.55-.89,2.72,1.67,5.31,1.82,8,0,.34-.23,1.66.08,1.56,1.06s-.89.32-1.4.29C220,26.73,219.15,28.63,217.79,28.41Z"/><path class="cls-31" d="M211.87,51.9c1-1.33,2.08-1.2,3-.51a3.76,3.76,0,0,0,5,0,3.14,3.14,0,0,1,1.62-.48c.49,0,1.14.21,1.18.7s-.54.64-1.09.69c-1.7.16-3,1.85-4.89,1.33C215.06,53.21,213.73,52.1,211.87,51.9Z"/><path class="cls-32" d="M206.92,38.76c.31.07.82,0,1.09.26,1.43,1.22,2.77.88,4.22,0,.61-.34,1.65-.64,1.94.24s-.9.62-1.33,1c-2.22,1.84-4.27.45-6.38-.23-.46-.15-.78-.42-.69-.85S206.43,38.85,206.92,38.76Z"/><path class="cls-33" d="M229,39.12a2.7,2.7,0,0,1-.2.6c-.5.68-4.65,1.57-5.44,1.18-.37-.18-.73-.39-1.1-.57-.59-.29-1.88,0-1.61-1s1.47-.61,2.11-.17a3.1,3.1,0,0,0,4-.13A1.93,1.93,0,0,1,229,39.12Z"/><path class="cls-34" d="M231.67,52.41a5.75,5.75,0,0,1-1.51-.27c-.58-.26-1.71-.36-1.33-1.31s1.13-.06,1.69.09a4.84,4.84,0,0,0,2.42.11c.5-.12,1.27-.56,1.45.25s-.73.87-1.31,1A10,10,0,0,1,231.67,52.41Z"/><path class="cls-35" d="M203,52.44a13.09,13.09,0,0,1-1.59-.16c-.51-.12-1.3-.13-1.14-.92s.89-.55,1.42-.4a4.69,4.69,0,0,0,2.65-.11c.54-.16,1.32-1,1.63,0s-.81,1-1.41,1.3A6.05,6.05,0,0,1,203,52.44Z"/><path class="cls-36" d="M217.17,64.34c-.54-.17-1.18-.33-1.79-.56A.66.66,0,0,1,215,63c.11-.43.4-.41.75-.35.57.11,1.16.1,1.71.26.77.23,2.12-1,2.22.32C219.79,64.26,218.22,64.11,217.17,64.34Z"/><path class="cls-37" d="M214.7,11.88a9.25,9.25,0,0,0,6-.41C218.52,14,216.33,14,214.7,11.88Z"/><path class="cls-38" d="M226.09,64.69c-.84-.22-1.92,0-1.92-.92s1-.45,1.57-.49a2,2,0,0,1,.49,0c.7.09,1.89-1.08,2,.2S226.69,64.16,226.09,64.69Z"/><path class="cls-39" d="M208.94,64.67c-.84-.32-2.1.07-2.43-1.2-.1-.41.57-.79.88-.5,1,.89,2.71-.67,3.2.93C210.78,64.53,209.57,64.44,208.94,64.67Z"/><path class="cls-40" d="M225.31,18.21a4.55,4.55,0,0,1-2.56-2c-.24-.44.33-.89.61-.74a6,6,0,0,1,2.55,2.11C226,17.79,225.83,18.2,225.31,18.21Z"/><path class="cls-41" d="M212,16.08a4.15,4.15,0,0,1-2.47,2.11.42.42,0,0,1-.61-.48c.32-1.22,1.57-1.53,2.4-2.26C211.54,15.3,212,15.62,212,16.08Z"/><path class="cls-30" d="M82.77,28.43c-2.14.06-3.4-2.29-5.61-1.64-.22.06-.19-.69.21-.95a2.28,2.28,0,0,1,3,.2c1.57,1.41,3,1.35,4.58,0a2.4,2.4,0,0,1,1.33-.59c.83-.05,2,.14,2,1s-1,.35-1.56.36C85.1,26.83,84.26,28.61,82.77,28.43Z"/><path class="cls-31" d="M88,51.68C84.33,54,80.86,54,77.43,51.83c1.25-1.22,1.35-1.32,2.88-.3a3.61,3.61,0,0,0,4.56,0C85.88,50.8,87,50.47,88,51.68Z"/><path class="cls-42" d="M79.58,39.33c-.24.29-.37.6-.53.62-2,.25-3.75,2.66-5.89.47-.11-.11-.32-.1-.46-.19-.55-.36-1.92.05-1.58-1,.28-.86,1.59-.58,2.16-.12,1.41,1.1,2.63.89,4,0A1.78,1.78,0,0,1,79.58,39.33Z"/><path class="cls-32" d="M87,38.81a4.43,4.43,0,0,1,1.28.44,2.45,2.45,0,0,0,3.32,0,3.42,3.42,0,0,1,1.64-.45c.38,0,.93-.09,1,.41s-.26.66-.7.85c-3.34,1.44-3.33,1.45-6.86.12-.47-.18-1-.24-.88-.91C85.91,38.79,86.42,38.85,87,38.81Z"/><path class="cls-34" d="M67.44,52.34a9.62,9.62,0,0,1-1.3-.23c-.4-.11-.76-.4-.56-.9a.63.63,0,0,1,.82-.33,4.82,4.82,0,0,0,3.6-.17c.47-.23,1-.47,1.22.17s-.37.77-.77,1A5.17,5.17,0,0,1,67.44,52.34Z"/><path class="cls-35" d="M97.11,52.42a4.76,4.76,0,0,1-1.18-.11C95.14,52.05,93.73,52,94,51c.33-1.29,1.33,0,2,0a5.92,5.92,0,0,0,2.18,0c.54-.13,1.29-.44,1.46.33s-.71.87-1.28,1A7.32,7.32,0,0,1,97.11,52.42Z"/><path class="cls-36" d="M82.29,62.83a2.57,2.57,0,0,1,.79,0c.63.24,1.62-1,1.84.21s-1.11.9-1.8,1.19a1,1,0,0,1-.49,0c-.94-.13-2.43,0-2.34-1.18S81.65,63.14,82.29,62.83Z"/><path class="cls-37" d="M85.77,11.56c-2,2.45-4.25,2.45-6.44,0A9.27,9.27,0,0,0,85.77,11.56Z"/><path class="cls-43" d="M74.09,64.78c-.87-.47-2.17,0-2.42-1.35a.61.61,0,0,1,.91-.5c1,.88,2.78-.65,3.24.9C76.06,64.6,74.69,64.41,74.09,64.78Z"/><path class="cls-44" d="M91.2,64.66c-.7-.17-1.8,0-1.82-.87s1-.44,1.59-.51a2,2,0,0,1,.49,0c.7.1,1.89-1.11,2,.3C93.51,64.57,92,64.38,91.2,64.66Z"/><path class="cls-40" d="M77.3,16.2a4.82,4.82,0,0,1-2.65,2c-.38.1-.71-.36-.56-.58a5,5,0,0,1,2.72-2.13C77.06,15.41,77.31,15.81,77.3,16.2Z"/><path class="cls-45" d="M87.9,16.2c.14-.4.31-.89.63-.72a5.28,5.28,0,0,1,2.52,2.12c.09.17,0,.76-.51.6A5.05,5.05,0,0,1,87.9,16.2Z"/><path class="cls-46" d="M150,28.44a5.27,5.27,0,0,1-2.91-1.25,3.37,3.37,0,0,0-.89-.38c-.59-.2-1.26.69-1.8-.12-.23-.35,0-.65.31-.82.74-.42,1.6-.85,2.32-.22,2,1.74,3.88,1.78,5.89,0,.71-.63,1.59-.24,2.32.2.54.33.42,1.2,0,1.07C153.11,26.16,151.91,28.5,150,28.44Z"/><path class="cls-31" d="M144.61,51.65a2,2,0,0,1,2.93-.24,3.74,3.74,0,0,0,5,0,1.84,1.84,0,0,1,2.81.29C151.82,54.05,148.31,54.14,144.61,51.65Z"/><path class="cls-47" d="M161.68,39.27a2.36,2.36,0,0,1-.28.56c-1.29,1.33-6.46,1.39-7.94.09-.53-.46-.42-.89.23-1a2.09,2.09,0,0,1,1.43.14,3.46,3.46,0,0,0,4.45-.07A1.49,1.49,0,0,1,161.68,39.27Z"/><path class="cls-47" d="M140.13,38.74c1.64,2,3.58.79,5.55.12.42-.15,1.08-.11,1.15.56,0,.47-.46.56-.82.75-2.22,1.12-4.39,1.37-6.6-.07-.38-.25-1.11-.19-1-.8C138.54,38.49,139.32,38.89,140.13,38.74Z"/><path class="cls-40" d="M164.34,52.42a4.29,4.29,0,0,1-1.33-.18c-.66-.29-1.94-.32-1.61-1.35s1.23-.07,1.85,0a5.72,5.72,0,0,0,2.18.08c.58-.11,1.5-.65,1.62.33s-.92.89-1.61,1C165.12,52.4,164.79,52.39,164.34,52.42Z"/><path class="cls-40" d="M135.76,52.44a9.7,9.7,0,0,1-1.47-.13c-.58-.13-1.5-.06-1.35-1s.9-.5,1.41-.36a4.6,4.6,0,0,0,2.65-.13c.54-.16,1.28-.94,1.63.06s-.68,1-1.21,1.18A8.09,8.09,0,0,1,135.76,52.44Z"/><path class="cls-48" d="M150,64.34c-.48-.12-1.05-.24-1.6-.4s-1-.4-.76-1,.67-.25,1.05-.21a9.85,9.85,0,0,1,1.73.16c.66.2,1.87-1.08,1.91.37C152.34,64.24,150.93,64.08,150,64.34Z"/><path class="cls-49" d="M152.74,11.9c-1.73,2-3.62,2-6.05-.21A12.82,12.82,0,0,0,152.74,11.9Z"/><path class="cls-39" d="M141.3,63.24c.63.33,1.93-.73,1.89.65,0,.8-1.28.81-2.05.69s-2.13-.15-2-1C139.35,62.05,140.56,63.5,141.3,63.24Z"/><path class="cls-39" d="M158.55,64.68c-.7-.25-1.81,0-1.79-.92s1-.44,1.58-.49a2,2,0,0,1,.49,0c.7.09,1.89-1.07,2,.22S159.34,64.31,158.55,64.68Z"/><path class="cls-50" d="M144.71,16a4.29,4.29,0,0,1-2.45,2.12c-.35.17-.77,0-.71-.33.22-1.35,1.56-1.67,2.45-2.38C144.22,15.28,144.57,15.64,144.71,16Z"/><path class="cls-40" d="M156.29,15.47c.45.89,1.93,1,2.18,2.22.1.5-.39.7-.82.43-.92-.58-2.14-.9-2.28-2.24C155.34,15.59,155.73,15.37,156.29,15.47Z"/></svg>