<svg id="Layer_1" data-name="Layer 1" xmlns="http://www.w3.org/2000/svg" viewBox="0 0 300 300"><defs><style>.cls-1{fill:#009356;}.cls-2{fill:#dbcfca;}.cls-3{fill:#fefefe;}.cls-4{fill:#006cb6;}.cls-5{fill:#eeb210;}.cls-6{fill:#006bb6;}.cls-7{fill:#ecb110;}.cls-8{fill:#edb110;}.cls-9{fill:#ebb010;}.cls-10{fill:#eaaf10;}.cls-11{fill:#e9af10;}.cls-12{fill:#e9ae10;}.cls-13{fill:#006ab4;}.cls-14{fill:#006ab3;}.cls-15{fill:#e7ad0f;}.cls-16{fill:#e6ac0f;}.cls-17{fill:#e0a80f;}.cls-18{fill:#e6ad0f;}.cls-19{fill:#e8ae10;}.cls-20{fill:#009054;}.cls-21{fill:#100c01;}.cls-22{fill:#0068b1;}.cls-23{fill:#0066ad;}.cls-24{fill:#e2a90f;}.cls-25{fill:#0b0801;}.cls-26{fill:#0067ae;}.cls-27{fill:#e5ac0f;}.cls-28{fill:#dea60f;}.cls-29{fill:#e5ab0f;}.cls-30{fill:#cf9b0e;}.cls-31{fill:#005d9d;}.cls-32{fill:#c9960d;}.cls-33{fill:#c5930d;}.cls-34{fill:#d29d0e;}.cls-35{fill:#5f4706;}.cls-36{fill:#d49f0e;}.cls-37{fill:#cd9a0e;}.cls-38{fill:#ad820c;}.cls-39{fill:#dba40f;}.cls-40{fill:#ce9a0e;}.cls-41{fill:#005996;}.cls-42{fill:#d39f0e;}.cls-43{fill:#664c07;}.cls-44{fill:#312503;}.cls-45{fill:#3a2c04;}.cls-46{fill:#004126;}.cls-47{fill:#b0840c;}.cls-48{fill:#261c03;}.cls-49{fill:#003255;}.cls-50{fill:#372a04;}.cls-51{fill:#181202;}.cls-52{fill:#c7950d;}.cls-53{fill:#765808;}.cls-54{fill:#ecb010;}.cls-55{fill:#d19d0e;}.cls-56{fill:#b5870c;}.cls-57{fill:#4b3805;}.cls-58{fill:#008850;}.cls-59{fill:#007f4a;}.cls-60{fill:#110d01;}.cls-61{fill:#002d1a;}.cls-62{fill:#604706;}.cls-63{fill:#6b5007;}.cls-64{fill:#004676;}.cls-65{fill:#010100;}.cls-66{fill:#00361f;}.cls-67{fill:#00080e;}.cls-68{fill:#010202;}.cls-69{fill:#3c2d04;}.cls-70{fill:#4c3905;}.cls-71{fill:#453405;}.cls-72{fill:#4b3905;}.cls-73{fill:#574106;}.cls-74{fill:#584206;}.cls-75{fill:#473505;}.cls-76{fill:#463405;}.cls-77{fill:#050705;}.cls-78{fill:#020302;}.cls-79{fill:#806009;}.cls-80{fill:#765908;}.cls-81{fill:#5a4306;}.cls-82{fill:#715408;}.cls-83{fill:#523e06;}.cls-84{fill:#664d07;}.cls-85{fill:#5e4606;}.cls-86{fill:#4d3a05;}.cls-87{fill:#231b03;}.cls-88{fill:#564006;}.cls-89{fill:#5e4706;}.cls-90{fill:#5a4406;}.cls-91{fill:#4a3705;}.cls-92{fill:#775908;}.cls-93{fill:#785a08;}.cls-94{fill:#604806;}.cls-95{fill:#493605;}.cls-96{fill:#271e03;}.cls-97{fill:#443305;}.cls-98{fill:#211802;}.cls-99{fill:#281e03;}.cls-100{fill:#755808;}.cls-101{fill:#1f1702;}.cls-102{fill:#5d4606;}.cls-103{fill:#271d03;}.cls-104{fill:#201802;}.cls-105{fill:#483605;}.cls-106{fill:#5c4506;}.cls-107{fill:#503c05;}.cls-108{fill:#1e1702;}.cls-109{fill:#7f5f08;}.cls-110{fill:#453305;}.cls-111{fill:#473605;}.cls-112{fill:#816109;}.cls-113{fill:#4e3a05;}.cls-114{fill:#171202;}.cls-115{fill:#120e01;}.cls-116{fill:#554005;}.cls-117{fill:#543f06;}.cls-118{fill:#c5940d;}.cls-119{fill:#e1a90f;}.cls-120{fill:#005c9b;}.cls-121{fill:#050808;}</style></defs><path d="M23.79-.61H276.21a1,1,0,0,1,1,1V174.06A125.93,125.93,0,0,1,151.28,300h0A128.49,128.49,0,0,1,22.79,171.5V.38a1,1,0,0,1,1-1Z"/><path class="cls-1" d="M33.53,75.78c7.33-12.33,18.58-19.17,32-23,19.36-5.45,38.2-3,56.76,3.72q30,10.83,60.08,21.66c1.71.61,2.67,1.15,2.26,3.29a32.27,32.27,0,0,0-.08,6c-4.67-.93-7.25-.13-8.92,2.66a7.73,7.73,0,0,0,.69,9.09c2.78,2.92,6.4,2.91,10,2.35a11,11,0,0,0,8.1-5.64c.68.82.43,1.51.51,2.13.43,3,1.81,4.36,4.88,4.73a5.51,5.51,0,0,1,1.48.15c.67.28,2-.26,1.91.93a2.45,2.45,0,0,1-2.07,1.9c-3.64.69-4,1-4,4.56,0,.65-.15.83-.67,1-2.28,1-2.38,2.91-1.81,4.83a3.55,3.55,0,0,1-1,3.78Q180,135.72,166.39,151.55c-.79.92-1.34,1.14-2.39.28a4.23,4.23,0,0,0-6.7,4.6,2.41,2.41,0,0,1-1.69,3.16c-1.31.48-2.88.84-4.07-.67-2.57-3.25-3.78-3.43-6.89-.9-.77.63-.88.24-1.28-.22-5.37-6.21-9.79-6.4-16.12-.57a9.79,9.79,0,0,0-7.83-6.52c-1.4-.23-.81-1.47-.79-2.26a23.31,23.31,0,0,0-5.31-16.23,17.33,17.33,0,0,0-11.92-6.55c-.65-.06-1.29-.25-2.17-.43,2.26-4.23,4.24-8.4,4.92-13,1.61-11-2-20-10.72-26.59-8.13-6.17-17.22-7-26.61-2.69-.85.39-1.49.76-2.47.08C54.17,75.87,37.27,78.11,29,86.49a3.29,3.29,0,0,1-.62.38c-.54-.62-.28-1.3-.28-1.92,0-26,0-52-.07-78,0-2.29.66-2.71,2.79-2.71q119.21.08,238.41,0c2.38,0,2.82.73,2.82,2.92-.06,55.48.07,111-.09,166.43-.09,32.48-11.37,60.69-33.77,84.26C219,278,195.68,290.27,168.21,294.26c-34.81,5.05-66.16-3.43-93.93-25A119.13,119.13,0,0,1,51,245c-.91-1.26-1.49-2.11.27-3.31a11.06,11.06,0,0,0,4.41-6.5c.61-2.43,1.95-2.52,4-2.31a44.3,44.3,0,0,0,22.47-3.19c10-4.32,15.73-12.22,18.24-22.61.29-1.23.92-1.41,1.9-2,4.59-2.73,8.86.2,13.25.33.9,0,1.35.69,1.79,1.49,1.48,2.69,3.85,3.13,6.15,1.2.59-.5,1.08-1,1.94-.87,3,.53,6.05,1.06,9.09,1.54.91.14.87.8,1,1.44a3.69,3.69,0,0,0,3,3,3.59,3.59,0,0,0,4.06-1.78,1.58,1.58,0,0,1,2.2-.87,26.48,26.48,0,0,0,3.68.66c2.07.29,4.09.23,4.5,3.24.28,2,2.66,2.73,4.65,1.89a2.25,2.25,0,0,1,2.46,0c2.2,1.34,4,.85,5.24-1.39.5-.89.89-1.2,1.89-1,3.1.57,6.23,1,9.33,1.58,3.33.6,5,0,6.58-3.05,1.94-3.68,3.67-7.46,5.45-11.22.51-1.09.9-1.84,2.45-1.86,2.43,0,3.62-1.82,3.31-4.28-.05-.4-.31-1.06-.17-1.15,4-2.68.76-7.56,3.55-10.93,2.48-3,3.72-7,5.5-10.59s3.65-7.3,5.48-10.94l5.36-10.72c2.51-5,5.08-9.93,7.53-14.94a4.79,4.79,0,0,1,3.23-2.76c3.08-.9,3.52-1.73,2.76-4.89-.17-.72,0-.73.51-1,3-1.89,3.4-3.86,1.08-6.37a2,2,0,0,1-.55-2.22c1.26-3.68,2.87-7.11,6.31-9.31a12.28,12.28,0,0,0,5.56-7.7c.42-1.73,1.21-1.77,2.61-1.14a28.48,28.48,0,0,0,6.52,2.45A10.52,10.52,0,0,0,260.77,98c2.38-4,2.3-10.07-.21-13.27a7.78,7.78,0,0,0-3.62-2.55c-3.43-1.19-4.24-.59-3.74,2.92.14,1,.31,2.29-.45,2.8s-2-.33-3-.66c-1.28-.44-.42-1.36-.42-2.1,0-1.64-.07-3.27,0-4.92a3.69,3.69,0,0,0-2.6-3.62,4.64,4.64,0,0,0-4.73.47c-.45.34-.69,1-1.37,1,.5-6.32-.25-8.34-3.51-9.44-2.66-.89-4.68.19-7.14,4.23a26.42,26.42,0,0,1,0-3c.12-.89.44-1.76.62-2.66.71-3.73-1.46-6.79-5.1-7.11-2.54-.22-4.25,1.17-5.48,3.21-.63,1.05-1.07,2.19-1.81,3.27a35.94,35.94,0,0,0-.43-6.49c-.35-2.92-1.85-4.72-4.76-5.31-.34-.22-.85-.34-.53-.94,3-1.44,4.16-4,3.92-7.16s-2.25-4.88-5.07-5.85c-4.83-1.65-10.14.07-14.06,4.61A31.24,31.24,0,0,0,192.13,53c-.68,1.53-1.48,1.56-2.87,1.11-16.34-5.42-32.66-10.88-49-16.12C131,35.09,122,31.41,112.53,29.67c-23-4.2-44.42-.77-63.37,13.63C39.48,50.65,33.83,60.44,33,72.76a5.55,5.55,0,0,0-.08,3.15C33.05,76.63,33.27,75.64,33.53,75.78Z"/><path class="cls-2" d="M28.05,135.45c0-14.74,0-29.48,0-44.22a4.66,4.66,0,0,1,1.56-3.69c9.2-8.85,25.62-10.15,35.23-2.73,7.49,5.79,9.92,14.78,6.53,24.19-1,2.78-1,2.69,1.83,2.41,6-.58,10.48,2.09,14.07,6.54,12.5,15.47,5.1,40.53-14.07,47.77a5.79,5.79,0,0,1-.71.21c-2.06.52-2.27,1.22-.47,2.57a23.34,23.34,0,0,1,9.21,14.35C85,201.09,71.12,217.12,52.54,216c-1-.06-2.48-.81-3,.25s1.12,1.61,1.82,2.34c5.84,6,5.47,16.9-.77,22.19-1.18,1-1.8,1.17-2.8-.38A120.32,120.32,0,0,1,28.1,175.92c-.21-13.49,0-27,0-40.47Z"/><path class="cls-2" d="M72.59,167.3c8-3,14-7.86,17.79-15.05,5.76-11,5.94-22-.54-32.78-4.07-6.77-9.39-9.45-17.5-9.31,3.28-9.65,2.12-18.34-5.82-25.69a23.87,23.87,0,0,1,21.19-.81c12.57,5.32,18.59,19.74,14,33.17a40.74,40.74,0,0,1-3.85,8.08c-.58,1-1.12,1.74.76,1.88,11.36.84,18.48,8.2,18.79,19.79.35,12.63-5.27,22.22-15.74,29.06a52.67,52.67,0,0,1-6.55,3.59c-1.54.7-1.71,1.21-.73,2.68a32,32,0,0,1-.29,36.56c-5.26,7.59-12.83,11.3-21.72,12.76a69,69,0,0,1-13.7.45c-1.36-.05-2-.31-1.92-2a14.73,14.73,0,0,0-4.85-12.24c15.38-.23,26.44-6.69,30.31-21.72C85,184.8,82.15,174.89,72.59,167.3Z"/><path class="cls-3" d="M184.85,77.77c-19.63-7.09-39.13-14.15-58.64-21.18-9.7-3.5-19.53-6.7-29.87-7.52C77,47.53,58.67,50.41,42.9,62.9A49.16,49.16,0,0,0,36,69.78c-.48.57-.68,1.59-1.76,1.43,2.09-16,11.85-26.28,25.51-33.29,19.61-10.07,40.12-11.33,61-4.78,22.65,7.11,45.14,14.69,67.72,22,1.72.56,2.21,1.05,1.42,2.82a34,34,0,0,0-2.1,6.37c-.41,1.82-1,2.15-2.8,1.48C166.86,59.15,148.66,52.61,130.48,46c-3.51-1.27-7-2.54-10.54-3.78-.61-.22-1.49-1-1.83.08-.25.8.82.83,1.4,1q14.38,5.24,28.78,10.43c12.1,4.36,24.18,8.76,36.31,13,2,.69,2.28,1.55,1.77,3.41C185.71,72.62,185.37,75.11,184.85,77.77Z"/><path class="cls-4" d="M220.86,134.47l-13.4,26.78c-3.87,7.73-7.78,15.44-11.57,23.21-.89,1.81-1.67,2.55-3.92,1.9-6.14-1.77-12.37-3.24-18.59-4.72-1.87-.45-1.94-1-.87-2.51,9.07-12.53,18.13-25.08,27.05-37.72,1.17-1.65,2.67-1.2,4.05-1.64,4.51-1.44,9-2.85,13.55-4.26C218.16,135.2,219.18,134.94,220.86,134.47Z"/><path class="cls-5" d="M186,90.29a76.47,76.47,0,0,1,5.07-32,33.86,33.86,0,0,1,8.88-13.66c3.42-3.07,7.29-4.24,11.71-2.39a5.42,5.42,0,0,1,3.33,6.9c-.7,2.44-2.9,4.25-5.08,4-2.55-.28-3.74-1.91-3.94-4.37.55-2.26,1.86-3.26,3.94-3a2.64,2.64,0,0,1,2.33,1.59,1.64,1.64,0,0,1-.46,2c1.06-1,1.06-2-.34-3.1a3.43,3.43,0,0,0-4.85.62,29.86,29.86,0,0,0-2.06,2.44,32.24,32.24,0,0,0-2.77,17.21A16.84,16.84,0,0,0,202,69c.31,1.39-.27,1.64-1.56,1.69-4.4.14-4.47.24-4.49,4.77a103.27,103.27,0,0,1-1.52,16.31c-1.36,8.33-8.76,9.87-14.33,8.37-4.46-1.19-5.8-7.26-2.46-10.47,2.28-2.19,5.1-1.93,7.27.66,1.25,1.81.73,3.49-.59,4.91a2.63,2.63,0,0,1-4,.22c-1.26-1.1-1-2.31,0-3.47a2,2,0,0,0-1,2.44,2.59,2.59,0,0,0,2.43,1.81,3.12,3.12,0,0,0,3.21-1.4C185.93,93.44,185.58,91.79,186,90.29Z"/><path class="cls-4" d="M204.56,80.76c2.61.27,3.51,1.31,3.22,4.11a7.44,7.44,0,0,1-1.34,4.22c-.27.31-.51.71-.06,1.07s.76,0,1-.32a8,8,0,0,0,.54-.84c1.63-2.8,2.81-3.29,6.14-2.55,5.5,1.24,8.13,4.6,8.69,11,.06.62-.61,1.8.58,1.79s.58-1.17.6-1.81a12.61,12.61,0,0,0-1.26-5.82c.78-.66,1.39.09,2,.36,4.54,2.08,9,4.28,13.58,6.3,1.34.59,1.74,1.22,1.25,2.61-.93,2.62-1.92,5.25-4.4,6.76a16.36,16.36,0,0,0-7.31,9.74c-.59,2-1.4,2.11-2.91,1a16.49,16.49,0,0,0-2.4-1.33,1.51,1.51,0,0,1-1-1.75c.65-7-.07-7.86-6.94-8.21,1.18-3,3.08-6.23.26-9-2.15-2.14-4.8-.86-7.34.51.46-4.19-1.33-6.91-5.18-8.65,1.5-1.16,2.92-2.19,3.17-4.07A6.06,6.06,0,0,0,204,81.21C204,80.8,204.09,80.56,204.56,80.76Z"/><path class="cls-4" d="M196.08,123.06c.89,4.41,1.69,8.21,2.42,12,.19,1-2.94,6.11-3.83,6.45s-.77-.44-1-.75a3.15,3.15,0,0,0-3.63-.95,3.12,3.12,0,0,0-.17,5.79c2,.64.72,1.41.22,2.07-3.84,5.13-7.71,10.23-11.71,15.52-1.21-1.65-2.31-3.48-4.71-2.48a3,3,0,0,0-2,3.12c.18,2.08,1.63,2.94,3.88,3.08l-4.86,6.45c-.62-5.74-1-11-3-16-.31-.78.21-1.24.64-1.74Z"/><path class="cls-5" d="M216.05,76.84c-.54,4.89,2.08,7.56,5.71,9.34,6.05,2.95,12.15,5.79,18.46,8.16a17,17,0,0,0,3.35.92c6.94,1,11.06-2.67,10.91-9.69-.06-2.75.53-3.11,3-1.8A6.72,6.72,0,0,1,260,86.13c2,3.19,1.59,8.92-1,12.26a9.28,9.28,0,0,1-10.82,2.81c-4.08-1.62-8.11-3.42-12.07-5.33-6.11-3-12.57-5.22-18.19-9.2A11.25,11.25,0,0,0,210.5,85c-.76.06-1.78.26-1.44-.89s-1.81-2.66.26-3.4A23.58,23.58,0,0,0,216.05,76.84Z"/><path class="cls-6" d="M166.68,188.45c.85-.49,1.45.17,2.07.48,6,2.94,11.88,6,17.87,8.86,1.52.72,1.64,1.4.95,2.82-1.88,3.89-3.53,7.9-5.73,11.63-.6,1-1.24,2.12-2.59,2.08s-1.46-1.44-1.88-2.35q-5.1-10.83-10.1-21.7C167,189.7,166.52,189.18,166.68,188.45Z"/><path class="cls-6" d="M119.34,185c-.67,5.84-1.34,11.35-1.9,16.87-.2,1.95-.78,2.79-3,2.19-2.39-.65-4.88-.91-7.34-1.33-.86-.14-1.64-.25-1.45-1.48.9-6.07,1.77-12.14,2.67-18.21a3.65,3.65,0,0,1,.43-.86C111.65,185.29,115.17,185.93,119.34,185Z"/><path class="cls-6" d="M224.77,126.55c-6.62,2.1-12.73,4-18.79,6-1.52.5-1.72-.35-1.93-1.39-1.16-5.77-2.32-11.54-3.57-17.79Z"/><path class="cls-6" d="M127.06,185.8c3.43,2.41,6.78,2.48,10.47,1.12-.64,6.67-1.27,13.1-1.86,19.53-.11,1.2-.66,1.24-1.67,1-2.52-.5-5.07-.91-7.61-1.29-1.19-.18-1.66-.61-1.49-1.95C125.67,198.23,126.32,192.21,127.06,185.8Z"/><path class="cls-6" d="M156.19,188.76c-.8,5.31-1.55,10.64-2.42,16-.32,1.94.17,4.66-1.26,5.59-1.2.79-3.62-.32-5.51-.56-3.7-.48-3.76-.48-3.44-4.24.4-4.63.89-9.25,1.36-13.87.07-.66-.15-1.69,1.17-1.17C149.71,191.88,152.88,190.92,156.19,188.76Z"/><path class="cls-6" d="M123.06,161.55c-.61,4.44-1.31,10-2.16,15.45a5,5,0,0,1-5.35,4.22,4.77,4.77,0,0,1-4.49-5.29c.41-3.91.45-7.92,3.1-11.33a18.92,18.92,0,0,0,3.26-7.76c.46-2.24,1.56-2.19,3.15-1.34C122.57,156.56,123.32,158.28,123.06,161.55Z"/><path class="cls-7" d="M202.43,138.77a2,2,0,0,1-2.23-1.8q-2.28-11-4.52-22a1.83,1.83,0,0,1,1.45-2.46c1.46-.28,2.06.74,2.32,2,1.18,5.85,2.44,11.7,3.51,17.57.35,2,.94,2.44,2.92,1.76,5.81-2,11.7-3.74,17.54-5.61,1.36-.43,2.78-.79,3.33.93s-.85,2.23-2.2,2.65q-10.45,3.25-20.89,6.56Z"/><path class="cls-7" d="M229.46,123.93a2.28,2.28,0,0,1-2.54,2.06,3.19,3.19,0,0,1-1.4-.47q-12.83-6.92-25.63-13.88c-1.47-.79-2.09-2-1.27-3.51s2.14-1.43,3.47-.72l25.83,14A2.58,2.58,0,0,1,229.46,123.93Z"/><path class="cls-8" d="M147.46,157.68c-1.34,9.28,2.61,16.63,7.37,23.63,1.76,2.61,4.38,4.07,7.79,3a6.56,6.56,0,0,0,5-7c-.19-8.57-1.37-16.95-7.88-23.42-1-1-.41-1.25.35-1.53,2-.75,3.39.17,4.48,1.72,2.21,3.14,3.08,6.78,3.77,10.46A49.5,49.5,0,0,1,169,178c-.31,3.56-1.74,6.44-5.26,7.8s-6.71.26-9.09-2.33A37.34,37.34,0,0,1,145,162C144.74,160.22,145,158.35,147.46,157.68Z"/><path class="cls-6" d="M158.07,179.72c-3.44-4-4.54-8.93-5.55-13.89-.15-.73-.15-1.5-.33-2.22-.44-1.8.05-2.71,2.06-2.37a3,3,0,0,0,3-1.35c1-1.25,1.54-.77,2.16.28a30.48,30.48,0,0,1,4.62,13.51c.24.6.39,1.18-.2,1.68-.63.15-1.1-.25-1.61-.49-1.11-.51-2.24-.81-3.21.17a2.55,2.55,0,0,0-.5,3.18,2.26,2.26,0,0,1,.23,1C158.67,179.54,158.56,179.88,158.07,179.72Z"/><path class="cls-6" d="M165.47,189.31,177,214.26c-3.65-.57-7-1-10.3-1.62-1.42-.24-1.06-1.49-1.1-2.42q-.36-9.21-.66-18.43C164.89,190.91,164.18,189.9,165.47,189.31Z"/><path class="cls-7" d="M143.08,163.17c-.65,5.13-1.29,11-2.16,16.81a8,8,0,0,1-15.81-2.2q1-8.52,2.44-17a7.9,7.9,0,0,1,8.75-6.42C140.5,155,143.37,158.35,143.08,163.17Z"/><path class="cls-7" d="M142.47,186.82a6.53,6.53,0,0,1,1.12,5.11c-.64,5.77-1.08,11.56-1.59,17.35-.16,1.73-1.06,2.93-2.83,2.8s-2.57-1.54-2.4-3.39q.94-10.41,1.84-20.83a5.3,5.3,0,0,1,1.48-3.31c1.51-1.64,1.18,0,1.38.7S140.93,187.07,142.47,186.82Z"/><path class="cls-7" d="M123.94,182.22a3.47,3.47,0,0,1,1.92,3.49c-.76,6.5-1.57,13-2.35,19.49-.22,1.83-1.12,3.05-3.06,2.77s-2.36-1.58-2.15-3.32c.76-6.42,1.5-12.84,2.26-19.26.21-1.74,1.58-2.45,3-3.13C123.69,182.71,123.82,182.56,123.94,182.22Z"/><path class="cls-9" d="M110.49,170.14c-.24,1.84-.49,3.54-.69,5.24a6.15,6.15,0,0,0,5,6.94c3.56.57,6.6-1.34,7.2-4.89.95-5.57,1.75-11.17,2.44-16.78.41-3.35-1.5-5.84-4.88-6.84-.58-.17-1.44.08-1.21-1.05s1-.73,1.73-.59a7.57,7.57,0,0,1,6.07,8c-.63,5.95-1.43,11.89-2.47,17.78a7.76,7.76,0,0,1-8.64,6.24,8,8,0,0,1-7-8.3C108.1,173.78,108,171.51,110.49,170.14Z"/><path class="cls-7" d="M170.12,180.38a10.75,10.75,0,0,1,2.43-7.55c8.23-10.67,16.32-21.46,24.46-32.21.45-.59.9-1.19,1.37-1.77.25-.32.52-.75,1-.37a.84.84,0,0,1,0,1.14c-.13.21-.28.41-.42.62Z"/><path class="cls-10" d="M166.13,186.09c2.51-1.47,4.54-.46,6.6.34q8.82,3.4,17.64,6.76c1.77.66,3.49,1.49,2.49,3.7s-2.63,1.39-4.23.58c-6.89-3.47-13.8-6.88-20.7-10.33C167.36,186.86,166.83,186.5,166.13,186.09Z"/><path class="cls-9" d="M159.2,200.65c-.22,4.06-.46,8.13-.67,12.19-.08,1.7-.9,2.7-2.65,2.54s-2.19-1.37-2-2.88q1.79-12.18,3.64-24.36c.07-.44.17-1.21.81-.62s1.79-.26,1.58,1.46c-.48,3.86-.53,7.78-.76,11.67Z"/><path class="cls-9" d="M162.42,188.25c.16-.27.29-.71.5-.76.64-.15.55.42.57.79.1,2.08.17,4.16.25,6.24q.38,9,.76,18c.07,1.78-.35,3.29-2.48,3.23s-2.22-1.67-2.14-3.26q.56-11.73,1.17-23.45c0-.57-.2-1.71,1-.76a10.86,10.86,0,0,1,.16,2.9,10.52,10.52,0,0,1-.13,2.69,9.55,9.55,0,0,0,.15-2.67A11.44,11.44,0,0,1,162.42,188.25Z"/><path class="cls-11" d="M174.13,183.19c6.37,1.57,12.74,3.12,19.09,4.73A2.22,2.22,0,0,1,195,191c-.49,1.55-1.67,1.94-3.17,1.36l-20.83-8a.55.55,0,0,1-.17-.41c0-.16,0-.23.05-.23C171.82,182.65,173,183.26,174.13,183.19Z"/><path class="cls-9" d="M105.44,176.24c.14-1.05.06-2.22,1.22-2.62,1.59,9.41-1.31,18.49-2.2,27.74a2.54,2.54,0,0,1-2.3,2.54c-.89.12-1.25-.26-1.07-1.14a6,6,0,0,0,.26-2.86,4,4,0,0,0,.59-1.71c0-.21,0-.42,0-.63a6.28,6.28,0,0,1,.13-1,7.88,7.88,0,0,0,.32-2,8.31,8.31,0,0,1,.13-1.41,8.31,8.31,0,0,0,.33-2.16c-.09-1.3.42-2.52.45-3.81a14,14,0,0,1,.17-1.57c.45-1.81.5-3.68.85-5.51A7.56,7.56,0,0,1,105.44,176.24Z"/><path class="cls-9" d="M231.32,89c4.49-.15,5.7-1.05,7.18-5.65.87,1.12.42,2.23.36,3.27-.14,2.68,1,4.48,3.38,5.11,2.58.69,4.17,0,5.56-2.48s2.88-.16,4.1.17.14,1.51-.3,2.11c-1.89,2.64-4.65,3-7.58,2.51C239.48,93.28,235.48,91,231.32,89Z"/><path class="cls-10" d="M195.32,120.38c.66,1.08,0,1.74-.64,2.43q-13.27,15.54-26.6,31.07c-.37.42-.61,1.64-1.56,1-.77-.56-.34-1.26.21-1.89q14-16.09,28-32.19A2.42,2.42,0,0,1,195.32,120.38Z"/><path class="cls-10" d="M203.46,69.82c4,.22,7.52-.93,11.12-1.93.64-.17,1.54-.73,2.06,0s-.06,1.46-.37,2.12c-1.53,3.16-7.38,5.82-10.74,4.93a1.16,1.16,0,0,1-1-.94C204.24,72.69,203.86,71.36,203.46,69.82Z"/><path class="cls-9" d="M234.43,83.79c-2.79,0-5.33-2.34-5.34-4.86,0-2.09,1.18-3.39,3.07-3.35,3.18.08,6.2,2.17,6.19,4.27A3.94,3.94,0,0,1,234.43,83.79Z"/><path class="cls-9" d="M223.12,79.29c-2.66,0-5.51-2.17-5.53-4.13s2.17-3.47,4.72-3.42c2.95.06,4.94,1.62,4.9,3.84A3.66,3.66,0,0,1,223.12,79.29Z"/><path class="cls-11" d="M103,193.32v1.38a2,2,0,0,0-.5,2.13l0,1c-.73.46-1.11.07-1.41-.56-1.43-6.79.88-13.3,1.46-19.94.11-1.26,1.27-1.69,2.21-2.11.27-.13.22.68.33,1.05.33,1.32-.63,2.53-.33,3.84a34.12,34.12,0,0,0-.76,5.6v1.64a6.37,6.37,0,0,0-.75,3.7C103.15,191.79,102.67,192.51,103,193.32Z"/><path class="cls-12" d="M212.6,107.38c-1-3.57-3.37-4.81-7-4.06a8.47,8.47,0,0,1,4.88-4.8c2.84-1,4.78.54,4.51,3.53C214.8,103.61,214.17,105.07,212.6,107.38Z"/><path class="cls-13" d="M204.56,80.76l-.53.45c-.76-.47-1.52-.93-2.44-1.51a7,7,0,0,0,2.6-2.71c.27-.64.83-.72,1.44-.7a14.43,14.43,0,0,0,10.67-3.87c.53,1.61-.28,2.58-1.2,3.43-2.57,2.36-5.47,4-9.11,3.88C205.22,79.7,204.42,79.56,204.56,80.76Z"/><path class="cls-11" d="M156.52,181.25c-5.21-6.75-8.87-14-7.81-23.22,2.18,1.14,2.11,2.76,2.21,4.31A35.47,35.47,0,0,0,157,180.75C157.18,181.23,157,181.35,156.52,181.25Z"/><path class="cls-14" d="M146.48,172.77l3.29,6.77a17.15,17.15,0,0,0-1.79.72,2.93,2.93,0,0,0-1.54,3.14,2.86,2.86,0,0,0,2,2.58c1.44.57,2.55,0,3.59-1,.34-.34.37-1.68,1.28-.76.6.61-.16,1.22-.61,1.67a4.31,4.31,0,0,1-4.58,1.16,4.47,4.47,0,0,1-3.16-3.82c-.59-3.52.37-7,.58-10.42A.56.56,0,0,1,146.48,172.77Z"/><path class="cls-15" d="M144,166.52c1.18,3.83.06,7.55-.21,11.31a18.44,18.44,0,0,0,.09,5.93c.55,2.18,1.68,3.87,3.91,4.42a5.9,5.9,0,0,0,6.17-1.66c.33-.35.46-1.33,1.21-.82.91.61,0,1.17-.31,1.62a6.87,6.87,0,0,1-10.92-.38,10.31,10.31,0,0,1-1.68-5.4,30.6,30.6,0,0,1,.38-5C143,173.22,143.5,169.87,144,166.52Z"/><path class="cls-12" d="M201.94,101.8c-1.44-.21-4,.23-4.58-1.51-.48-1.41,2-2.22,3.19-3.29a20.68,20.68,0,0,1,2.58-2c.67-.45,1.31-1.48,2.08-1.15,1,.41,1,1.68,1.06,2.64C206.61,99.91,205.07,101.9,201.94,101.8Z"/><path class="cls-10" d="M219,114.31c-2.78.31-4.52-1.82-6.67-2.94-.65-.34,0-1,.35-1.44a5.71,5.71,0,0,1,6.2-1.1c1.54.87,2.28,3.7,1.52,5.8-.14.39-.21.83-.77.77s-.69-.59-.67-1.11c.49-.68.05-1.45.17-1.74A3.64,3.64,0,0,1,219,114.31Z"/><path class="cls-10" d="M239,77.47a11,11,0,0,0-7.77-3.26c.95-3.63,3.05-5.2,5.71-4.35S240.36,73.53,239,77.47Z"/><path class="cls-9" d="M221,70.34l-2.52,1a2.33,2.33,0,0,1-.06-2c1.52-3,3.89-4.17,6.57-3.14,3.07,1.19,4.22,3.64,3.24,7a4.13,4.13,0,0,1-2-2.06,3.08,3.08,0,0,0,.5-.52c-.39-.2-.4.33-.68.35-.57.17-.77-.38-1.15-.57-1.08-.7-2.28-.42-3.44-.41A1.62,1.62,0,0,0,221,70.34Z"/><path class="cls-16" d="M199.49,95.27c0,1.72-1.55,2.12-2.56,2.91-.54.42-.81-.36-.82-.83,0-2,0-4,.06-6a.9.9,0,0,1,1.15-1,19.88,19.88,0,0,1,5.12,1c1.8.75,2,1.56.07,2.42C201.32,93.92,200.48,94.75,199.49,95.27Z"/><path class="cls-10" d="M244.78,87.41c-2.54,0-4.43-1.34-4.44-3.31s.76-2.95,2.83-2.9c2.9.06,4.9,1.4,4.88,3.4S247.08,87.38,244.78,87.41Z"/><path class="cls-14" d="M99.76,188.33c-1.52-2.12-2.43-4.45-3.87-6.48-.69-1-.32-1.45.61-1.88,1.42-.67,2.8-1.42,4.67-2.38C100.67,181.43,100.21,184.88,99.76,188.33Z"/><path class="cls-11" d="M216.19,66.16c-4,1-7.57,2.54-11.57,2.33C206.23,64.63,211.89,63.37,216.19,66.16Z"/><path class="cls-17" d="M229.17,67.81c-2.29-2.72-5.06-3.81-8.52-2.92,1.72-3.19,3.49-4.19,5.84-3.43S229.79,64.3,229.17,67.81Z"/><path class="cls-18" d="M165.43,172.41c-.86-3.1-1.74-6.17-2.89-9.19s-4-4.84-4.19-8.91c5.34,4.89,6.52,10.9,7.57,17C165.64,171.61,165.9,172.17,165.43,172.41Z"/><path class="cls-19" d="M207,63.71c-.81.72-1.34,1.94-2.79,1.48,1.86-4.89,6-6.71,10.74-4.78a1.69,1.69,0,0,1,0,1.25,2.35,2.35,0,0,1-.63,1.14,1.2,1.2,0,0,1-.61.23,3.67,3.67,0,0,1-1.32-.09c-.86-.5-1.75-.14-2.63-.12C208.93,63.38,207.88,63.3,207,63.71Z"/><path class="cls-20" d="M205,51.33c1.21,1.35,2.18,2.6,4.13,3.05-2,1.14-3.53,2.16-4.38,4s-.4,3.77-1.65,5.93A28,28,0,0,1,205,51.33Z"/><path class="cls-10" d="M209.57,109.35c-2.55.17-4-2.12-6.31-2.61,2.63-3,5-3.19,7.21-.91.53.57,0,1.09-.07,1.64A6.87,6.87,0,0,1,209.57,109.35Z"/><path class="cls-21" d="M186,90.29c1.1,4.29-1.31,7.46-4.95,6.48a3,3,0,0,1-2.39-3.08A2.73,2.73,0,0,1,181.06,91c.49-.1,1.08-.1,1.24.5s-.29.76-.72.79c-1.13.07-1.68.63-1.59,1.75s.81,1.42,1.66,1.59a2.58,2.58,0,0,0,2.81-1.14c.88-1.29.46-2.73.48-4.12Z"/><path class="cls-22" d="M225.58,80.21c-1.3,2.77-2.88,3.6-5.07,3-1.95-.54-3.11-2.41-2.89-5C219.87,80.27,222.47,80.78,225.58,80.21Z"/><path class="cls-23" d="M236.78,84.68c-1.31,2.45-2.73,3.41-4.89,2.86-2.39-.62-3.38-2.29-3.18-5.53C230.75,84.46,233.27,85.36,236.78,84.68Z"/><path class="cls-24" d="M201.32,84.29a23.52,23.52,0,0,1-2.73-.23c-.89-.18-2.37.36-1.94-1.61.32-1.48.64-2.5,2.53-1.91,1.35.42,2.76.62,3.86,1.59.5.45,1.08,1,.93,1.67-.2,1-1.08.39-1.66.48A4.32,4.32,0,0,1,201.32,84.29Z"/><path class="cls-24" d="M227.42,84.29a18.36,18.36,0,0,0,1.81,4l-7.46-3.38c2.16-.72,3.77-1.5,4.77-3.1C228,82.22,226.72,83.62,227.42,84.29Z"/><path class="cls-25" d="M204.5,49.31a6.29,6.29,0,0,1,2.42-3.65,4,4,0,0,1,5.72.92,2.45,2.45,0,0,1-.85,3.79c-.82.34-1.94.43-2.19-.38-.33-1.09.86-.51,1.37-.72,1.62-.7,1-1.65.15-2.45-1.55-1.41-3.32-.7-5.18,2Z"/><path class="cls-26" d="M246.77,88.38c-.9,2.16-2.11,2.63-3.62,2.34-1.75-.34-3-1.3-3.21-3.8C242.05,88.28,244,89.24,246.77,88.38Z"/><path class="cls-17" d="M193,142.88a1.86,1.86,0,0,1-2,1.82,1.94,1.94,0,1,1,.17-3.87A1.85,1.85,0,0,1,193,142.88Z"/><path class="cls-27" d="M174.76,161.72c1.34.15,2,.86,1.93,2a1.89,1.89,0,1,1-1.93-2Z"/><path class="cls-28" d="M202.47,76.18c-1.83-.75-2.66-2.51-4-3.84,3-1.12,4.15-.74,4.6,1.44C202.65,74.52,203.69,75.63,202.47,76.18Z"/><path class="cls-29" d="M196.52,88.79c-.51-3.63-.5-3.64,2.49-3.41.52.28,1.1.1,1.64.18,1.67.26,2,.94.63,2.1-1.12.44-2.38.44-3.44,1.08C197.41,88.91,197,89.21,196.52,88.79Z"/><path class="cls-24" d="M207,57.35c3.47-2.9,7.84-2,9.41,2-.8.11-1.33-.39-1.93-.64a3.78,3.78,0,0,0-1.5-1,5,5,0,0,0-2.48-.25c-.91.08-1.73.53-2.64.65C207.41,58.05,206.85,58.1,207,57.35Z"/><path class="cls-19" d="M151.49,182.88a1.84,1.84,0,0,1-1.78,2A1.78,1.78,0,0,1,147.6,183a1.76,1.76,0,0,1,1.87-1.87A1.88,1.88,0,0,1,151.49,182.88Z"/><path class="cls-30" d="M197.58,73.38c1.15,1.22,2.3,2.45,3.46,3.67.71.74.81,1.26-.47,1.28-.51.31-1-.1-1.47-.08-1.24,0-2.07-.38-1.85-1.84C197.4,75.4,196.92,74.33,197.58,73.38Z"/><path class="cls-17" d="M201.07,87.27c1-.65.81-1.13-.22-1.43-.61-.17-1.34.13-1.84-.46,1.23,0,2.47.06,3.71.14.45,0,1.07-.06,1.25.54a1.25,1.25,0,0,1-.55,1.31c-1.06.73-2,2.13-3.57.93A3.56,3.56,0,0,1,201.07,87.27Z"/><path class="cls-31" d="M158.07,179.72l.43-.44a8,8,0,0,0,5.21-1.17c.37.14.59.35.36.77C162.61,181.76,160.65,182,158.07,179.72Z"/><path class="cls-32" d="M214.49,61.31l.46-.9c2.09.68,2.22,2.31,2,4.42l-3-1.38a.47.47,0,0,1-.16-.41c0-.15.05-.23.09-.23a.55.55,0,0,1,.25-.07C214.88,62.42,214.91,61.92,214.49,61.31Z"/><path class="cls-17" d="M244,79.82c-.67,0-1.67.49-1.91-.36s.64-1.41,1.37-1.82a2.85,2.85,0,0,1,3,.25,1.19,1.19,0,0,1-.22,1.21c-.47.52-1.15.3-1.71.5A3.71,3.71,0,0,1,244,79.82Z"/><path class="cls-33" d="M166,172.2a9.62,9.62,0,0,1-.5,7.55c.24-1.84-.06-3.69,0-5.52C166,173.62,165.45,172.78,166,172.2Z"/><path class="cls-34" d="M156.52,181.25l.49-.5c1.45,1.39,3.42,1.56,5.24,2.12C159.91,183.71,158,183.27,156.52,181.25Z"/><path class="cls-35" d="M197.58,73.38c-.06.49-.1,1-.17,1.48-.24,1.65-.11,3,2.09,2.94-.11,1.2-.79.72-1.37.59.28.51,1.09-.14,1.39.47-1.71.92-2.74.59-2.55-1.53C197.1,76,196.35,74.53,197.58,73.38Z"/><path class="cls-36" d="M213.4,57.34a1.36,1.36,0,0,1,1.09,1.41,11.13,11.13,0,0,0-6.44.29.73.73,0,0,1-.22-.71c.48-.73,1.29-.77,2-.95a14.57,14.57,0,0,1,2.19-.06C212.5,57.29,213,57.52,213.4,57.34Z"/><path class="cls-37" d="M208,58.3l.06.74-2.45,1.38A3.33,3.33,0,0,1,207,57.35l.82.43C208.17,57.87,208.23,58.05,208,58.3Z"/><path class="cls-38" d="M101.09,197.24l1.41.56c0,.17,0,.34,0,.5-.35.54-.59,1.14-1,1.67,1,1.11-.17,1.88-.44,2.79Z"/><path class="cls-39" d="M210,107.18l.5-1.35c1.17,1.49.77,3.09.39,4.7-.83-.08-1-.59-.89-1.24S210,107.88,210,107.18Z"/><path class="cls-39" d="M246,78.83l.47-.94a2.25,2.25,0,0,1,1.58,2c.26,1.81-.68,1.19-1.53.75a.89.89,0,0,1-.34-.77C246.2,79.52,246.33,79.14,246,78.83Z"/><path class="cls-40" d="M174.13,183.19l-3.13.65a1.09,1.09,0,0,1-.75-.65.87.87,0,0,1,.24-.94A9.22,9.22,0,0,1,174.13,183.19Z"/><path class="cls-41" d="M164.07,178.88l-.49-.61a3.07,3.07,0,0,1,0-3c.57-.4.37-1,.5-1.57A6.84,6.84,0,0,1,164.07,178.88Z"/><path class="cls-15" d="M221,70.34l0-.65c1.22.08,2.61-.88,3.57.63C223.41,71.53,222.2,70.2,221,70.34Z"/><path class="cls-42" d="M199.49,95.27c.77-1,1.43-2.19,3-1.47C201.67,94.63,200.88,95.57,199.49,95.27Z"/><path class="cls-43" d="M226.07,70.9A2.27,2.27,0,0,1,227.52,69c-.19,1.12.67,2.25-1.27,2.11A.24.24,0,0,1,226.07,70.9Z"/><path class="cls-44" d="M104.52,180.26a9.5,9.5,0,0,1,.57-4h.35l-.49,4C104.81,180.49,104.67,180.5,104.52,180.26Z"/><path class="cls-45" d="M142.47,186.82c-1-.22-.76.84-1.32,1.53-.16-1.31-.26-2.23.32-3.1A2.23,2.23,0,0,1,142.47,186.82Z"/><path class="cls-46" d="M33.53,75.78l-.79,1.55c-.21-1.88-.46-3.23.25-4.57C33.33,73.74,32.6,74.91,33.53,75.78Z"/><path class="cls-47" d="M202.47,76.18c.7-.68-.56-1.85.61-2.4C203.68,74.78,204.07,75.73,202.47,76.18Z"/><path class="cls-48" d="M224.61,70.32c-1-1.07-2.42-.18-3.57-.63,1.4-.41,2.88-1.36,3.88.64l-.16,0Z"/><path class="cls-49" d="M165.47,189.31c-.86.68-.19,1.69-.54,2.48-.7-1.13-.32-2.35-.41-3.59C165.27,188.35,165.34,188.86,165.47,189.31Z"/><path class="cls-9" d="M213.88,62.81l.07.64-4.45-.07a.5.5,0,0,1,.07-.74c1,0,2-.52,2.9.16Z"/><path class="cls-28" d="M209.5,62.75v.63a2.78,2.78,0,0,1-2.5.33c.51-1.06,1.87-.58,2.51-1.4.16.11.21.2.16.3S209.56,62.75,209.5,62.75Z"/><path class="cls-50" d="M170.49,182.25l0,1c-.61.56-1.27.22-1.92.12C168.87,182.4,169,181.26,170.49,182.25Z"/><path class="cls-51" d="M201.07,87.27c-.12.68-.81.68-1.22,1l-.71.51c-.59,0-1.23,0-1.61-.58Z"/><path class="cls-52" d="M227.42,84.29c-.87-.61,0-1.84-.88-2.47l.54-1.43c.44-.16.65-.06.46.44Z"/><path class="cls-53" d="M210,107.18c.61.7.79,1.41,0,2.11a1.34,1.34,0,0,1-.4.06C209.57,108.6,209.19,107.78,210,107.18Z"/><path class="cls-54" d="M168.62,183.4l1.92-.12.46.56c0,.16,0,.32,0,.48A3.27,3.27,0,0,1,168.62,183.4Z"/><path class="cls-55" d="M197.53,88.23c.56.13,1.25-.11,1.61.58a2.19,2.19,0,0,1-2.62,0A1.12,1.12,0,0,0,197.53,88.23Z"/><path class="cls-56" d="M246.51,79.89v.77c-.81-.38-1.81-.17-2.53-.84V79.3C245,78.84,245.71,79.51,246.51,79.89Z"/><path class="cls-57" d="M123.94,182.22a2.07,2.07,0,0,1-.34,1.82c-1-.57-.2-1.19-.09-1.78A1.24,1.24,0,0,1,123.94,182.22Z"/><path class="cls-58" d="M239.7,81.06a1.23,1.23,0,0,1,.07-1.51c0-.06.52,0,.55.15A1,1,0,0,1,239.7,81.06Z"/><path class="cls-59" d="M228.61,75.63c0-.85.2-1.41,1.11-1.68A1.52,1.52,0,0,1,228.61,75.63Z"/><path class="cls-5" d="M199.52,78.86l-1.72-.12c.39-.75,1.4-.19,1.7-.94l1.07.53C200.4,78.84,199.93,78.79,199.52,78.86Z"/><path class="cls-60" d="M162.06,191.25l0-3h.34v3C162.3,191.48,162.18,191.48,162.06,191.25Z"/><path class="cls-5" d="M166,172.2c-.23.66.2,1.47-.47,2,0-.61-.1-1.22-.14-1.82l.49-1.13Z"/><path class="cls-61" d="M212.51,53.82l.53.94c-.46,0-1.07.22-1.27-.33S212.14,53.88,212.51,53.82Z"/><path class="cls-62" d="M218.42,69.28l.06,2C217.51,70.66,218.11,70,218.42,69.28Z"/><path class="cls-63" d="M227.54,80.83l-.46-.44c.14-.5.16-1.06.76-1.32A1.5,1.5,0,0,1,227.54,80.83Z"/><path class="cls-64" d="M146.48,172.77l-.91,0c0-.41-.35-1.08.29-1.13C146.35,171.62,146.5,172.27,146.48,172.77Z"/><path class="cls-65" d="M208.93,216.93c.65-4.9,1.1-9.27,1.86-13.6a4.76,4.76,0,0,0-1.45-4.65c-3.13-3.19-6.1-6.56-9.39-10.14,5-.94,9.57-1.91,14.19-2.63a3.65,3.65,0,0,0,3-2.2c2.2-4.09,4.52-8.12,7-12.53,2.33,4.29,4.63,8.19,6.59,12.26a4.78,4.78,0,0,0,4,2.78c4.33.8,8.64,1.66,13.38,2.58-3.19,3.38-6,6.67-9.13,9.56-2,1.81-2.16,3.7-1.82,6,.51,3.53.89,7.08,1.36,10.62.22,1.64-.33,1.89-1.75,1.18-3.57-1.79-7.22-3.44-10.78-5.25a4,4,0,0,0-4-.08C217.81,212.9,213.57,214.79,208.93,216.93Z"/><path class="cls-65" d="M131.49,131.24c.66-4.77,1.2-9.05,1.88-13.3a5.26,5.26,0,0,0-1.52-5.15c-3.14-3.07-6-6.39-9.35-10,4.79-.89,9.22-1.81,13.68-2.5A4.59,4.59,0,0,0,140,97.63c2-4,4.33-7.84,6.75-12.17,2,3.77,4.07,7.08,5.65,10.59a7.32,7.32,0,0,0,6.49,4.81c3.83.42,7.61,1.4,12,2.24-2.38,2.45-4.24,4.83-6.54,6.64-4.41,3.45-5.53,7.64-4,12.88a27.17,27.17,0,0,1,.68,5.43c.06.86.55,2-.33,2.56s-1.55-.31-2.28-.65c-3.46-1.63-6.93-3.25-10.34-5a3,3,0,0,0-3,0C140.64,127.05,136.26,129,131.49,131.24Z"/><path class="cls-65" d="M115,265.19c.59-4.11,1.1-8.23,1.81-12.31a3.24,3.24,0,0,0-.87-3.13c-3.21-3.49-6.33-7-9.66-10.77,2.71-1.09,5.51-1.2,8.2-1.65,7.9-1.33,7.9-1.26,11.78-8.12,1.31-2.32,2.65-4.6,4.25-7.37,1.53,2.88,3.22,5.27,4.14,7.93,1.8,5.22,5.15,7.82,10.69,8.15,2.84.18,5.64,1.21,9.27,2.05-3.64,3.49-6.83,6.62-10.1,9.66a4.25,4.25,0,0,0-1.58,4.12c.62,4.51,1,9.06,1.43,13.81-1.85-.19-3.21-1.31-4.72-2-3.31-1.54-6.53-4.34-9.87-4.47s-6.55,2.47-9.83,3.87l-4.36,1.85C114.32,266.64,114.84,265.85,115,265.19Z"/><path class="cls-66" d="M115,265.19c.11.57,0,1.23.58,1.61-.23.26-.64.46-.82.18A1.4,1.4,0,0,1,115,265.19Z"/><path class="cls-67" d="M219.73,103.57c-1.21-.58-.74-1.42-.72-2.08a9.86,9.86,0,0,0-.66-4.37c-.24-.54-.93-1.32,0-1.64.8-.27,1,.72,1.19,1.29C220.47,99,220.87,101.23,219.73,103.57Z"/><path class="cls-68" d="M112.85,176c.26-1.94,1.36-3,3.33-2.86a3.09,3.09,0,1,1-.42,6.17C113.75,179.25,112.9,178,112.85,176Z"/><path class="cls-69" d="M201.38,134.38c.59,0,.69.44.62.68-.32,1.12,1.42.38,1.14,1.31,0,.16-.57.29-.86.25-1.22-.14-.6-1.33-1.05-1.94C201.21,134.66,201.29,134.56,201.38,134.38Z"/><path class="cls-70" d="M197.54,116.64c1.35,1.24.78,2.69,1.16,3.87C197.79,119.48,197.74,118.21,197.54,116.64Z"/><path class="cls-71" d="M221.47,131.22c-1.23.31-2.38,1-4.08.95a7.73,7.73,0,0,1,4.09-1.4c.12.1.15.2.11.3S221.51,131.22,221.47,131.22Z"/><path class="cls-72" d="M201.12,132.08c-.94-.82-.63-2-.83-3C201.24,129.87,201.05,131,201.12,132.08Z"/><path class="cls-57" d="M199.77,124.49l.69,3.43C199.12,126.72,199.48,125.52,199.77,124.49Z"/><path class="cls-73" d="M221.47,131.22c0-.15,0-.3,0-.45.68-.71,1.54-.49,2.29-.8l.16.61Z"/><path class="cls-74" d="M206.78,134.9c-.63,1-1.3,1-2.67.58Z"/><path class="cls-75" d="M210.75,133.74c-1.05,1.23-1.79,1.17-3.1.81Z"/><path class="cls-76" d="M213.7,132.88a1.47,1.47,0,0,1-2.3.62Z"/><path class="cls-77" d="M163.55,175.25a4.14,4.14,0,0,1,0,3c-1.36,2-3.11,2.07-5.08,1-1.36-1.75-1.54-3.56.33-5S162.23,173.61,163.55,175.25Z"/><path class="cls-78" d="M135.24,156.12a6,6,0,0,1,6.12,7c-.66,4.95-1.26,9.9-1.9,14.85a15.46,15.46,0,0,1-.47,2.44,6.11,6.11,0,0,1-7,4.33,5.83,5.83,0,0,1-5.11-6.34c.63-5.86,1.47-11.71,2.46-17.52A5.73,5.73,0,0,1,135.24,156.12Z"/><path class="cls-79" d="M141.16,193.24c-.88-1.29-.81-2.09,0-3.12A3.55,3.55,0,0,1,141.16,193.24Z"/><path class="cls-80" d="M140.24,195.51c1.06,1.24.69,2,.58,3C139.57,197.65,140.14,196.84,140.24,195.51Z"/><path class="cls-81" d="M140,204.57a2.71,2.71,0,0,1-.08-2.83C140.89,202.68,140.33,203.36,140,204.57Z"/><path class="cls-82" d="M140,208.45c-.08.12-.22.55-.42.58-.62.09-.52-.44-.5-.81s0-.71.47-.68S140,207.94,140,208.45Z"/><path class="cls-83" d="M121.23,201.7a2.12,2.12,0,0,1,.45-2.46A2.19,2.19,0,0,1,121.23,201.7Z"/><path class="cls-84" d="M123,190.73c0,.64.23,1.31-.52,1.93a1.32,1.32,0,0,1,0-1.91C122.63,190.52,122.79,190.52,123,190.73Z"/><path class="cls-85" d="M120.77,205.17c-.29-.7-.37-1.29.43-1.82C121.59,204.13,121.66,204.72,120.77,205.17Z"/><path class="cls-86" d="M121.82,197.2a2.16,2.16,0,0,1,.4-2.48A2.15,2.15,0,0,1,121.82,197.2Z"/><path class="cls-53" d="M122.61,188.32a1.32,1.32,0,0,1,.26-1.36.42.42,0,0,1,.41,0,1.41,1.41,0,0,1-.22,1.79A.83.83,0,0,1,122.61,188.32Z"/><path class="cls-87" d="M122.61,188.32l.45.47c0,.65-.07,1.29-.1,1.94a3.7,3.7,0,0,1-.47,0Z"/><path class="cls-88" d="M177.06,189.85a3.09,3.09,0,0,1,2.7,1.31C178.49,190.91,177.69,190.76,177.06,189.85Z"/><path class="cls-89" d="M188.63,195.16c.81-.35,1.29,0,1.79.61C189.58,196.15,189.09,195.84,188.63,195.16Z"/><path class="cls-90" d="M170.61,187c1-.25,1.34.35,2.55.6C171.69,188.07,171.19,187.64,170.61,187Z"/><path class="cls-90" d="M185.21,193.58c-1-.11-1.84-.22-1.8-.73.07-.88.68-.08,1-.06C184.61,192.8,184.76,193.09,185.21,193.58Z"/><path class="cls-53" d="M158.49,191.45a2.17,2.17,0,0,1-.11-2.52C159.36,189.65,159,190.35,158.49,191.45Z"/><path class="cls-91" d="M157.2,201.14c-.2-1.62-.25-2.49.55-3.35C158.15,198.88,157.8,199.68,157.2,201.14Z"/><path class="cls-70" d="M158.24,193.16A3.7,3.7,0,0,1,158,196C157.17,195,157.61,194.22,158.24,193.16Z"/><path class="cls-92" d="M157.22,202.86c.35.63.43,1.2-.18,1.7-.15-.07-.37-.11-.39-.19C156.49,203.75,156.3,203.1,157.22,202.86Z"/><path class="cls-76" d="M156.26,209.91a4.5,4.5,0,0,1,.43-3.33A4,4,0,0,1,156.26,209.91Z"/><path class="cls-93" d="M161.58,206.3c0-3.36.06-6.71.11-10.06,0-.08.25-.22.37-.2s.22.19.34.29a12.46,12.46,0,0,0-.16,3c.1,1.12-.19,2.27.18,3.38,0,3.39.35,6.78-.35,10.14-.63-.89-.17-1.91-.31-2.86C161.67,208.75,162,207.51,161.58,206.3Z"/><path class="cls-94" d="M162.42,202.7c-.79-1.09-.28-2.32-.35-3.49l.35,0Z"/><path class="cls-89" d="M161.58,206.3c.79,1.09.28,2.32.35,3.49l-.34,0Z"/><path class="cls-95" d="M161.59,209.76a1.31,1.31,0,0,1,.34,0c0,1,.1,2,.14,3.05C160.85,212,161.79,210.78,161.59,209.76Z"/><path class="cls-91" d="M162.42,199.24a2.07,2.07,0,0,1-.35,0c.08-1-.36-2,.33-2.88C162.41,197.3,162.41,198.27,162.42,199.24Z"/><path class="cls-96" d="M162.06,191.25h.36a5.42,5.42,0,0,1-.2,2.89A5.09,5.09,0,0,1,162.06,191.25Z"/><path class="cls-97" d="M191.28,189.72a3,3,0,0,1-2.71-.79C189.67,188.59,190.43,189.32,191.28,189.72Z"/><path class="cls-75" d="M181.47,186.38c.81.32,1.82.18,2.6,1.36-1-.38-1.95-.21-2.57-1-.17-.08-.22-.16-.18-.24S181.42,186.38,181.47,186.38Z"/><path class="cls-98" d="M181.47,186.38a.82.82,0,0,0,0,.38,4.52,4.52,0,0,1-2.44-.7C180.05,185.47,180.7,186.34,181.47,186.38Z"/><path class="cls-71" d="M104.52,180.26H105c-.33,1.81-.16,3.7-1,5.43A9.57,9.57,0,0,1,104.52,180.26Z"/><path class="cls-99" d="M103,191.26c.18-1.35-.31-2.89,1-3.94l-.54,3.9A.31.31,0,0,1,103,191.26Z"/><path class="cls-100" d="M103,191.26l.5,0a3.09,3.09,0,0,1-.42,2.1C102.14,192.67,102.42,192,103,191.26Z"/><path class="cls-80" d="M102.54,196.83c-.8-.94-1-1.73.5-2.13A3.78,3.78,0,0,1,102.54,196.83Z"/><path class="cls-43" d="M101.53,200c0-.75.14-1.4,1-1.67C102.58,199.1,102.45,199.76,101.53,200Z"/><path class="cls-101" d="M205.86,71.77c1,1.56,1,1.56,2.76,1.54C207.47,73.66,206,74.92,205.86,71.77Z"/><path class="cls-44" d="M235.45,82.2a2.57,2.57,0,0,1-2.47-.39l2.48-.15c.14.12.18.24.13.36S235.49,82.2,235.45,82.2Z"/><path class="cls-102" d="M235.45,82.2v-.54c.27-.3.55-.59.82-.88a.35.35,0,0,1,.55,0A1.77,1.77,0,0,1,235.45,82.2Z"/><path class="cls-103" d="M236.83,80.75l-.55,0,.35-2.25A2.35,2.35,0,0,1,236.83,80.75Z"/><path class="cls-104" d="M220.82,76.94l3.34.46A2.9,2.9,0,0,1,220.82,76.94Z"/><path class="cls-100" d="M225.85,75.07c.06.71,0,1-.4,1.11S225,76,225,75.8c0-.34-.21-.86.43-.86C225.7,74.94,225.92,75.09,225.85,75.07Z"/><path class="cls-105" d="M213.26,100.17c1,1.08,1,2.18.05,3.59C213,102.38,213.86,101.26,213.26,100.17Z"/><path class="cls-106" d="M204.15,99.05V95.51C205.09,96.8,205,97.63,204.15,99.05Z"/><path class="cls-106" d="M201.51,100.7a3.4,3.4,0,0,1-2.84-.86c1.55,0,2.49-.11,3.42.38C202,100.53,201.72,100.56,201.51,100.7Z"/><path class="cls-107" d="M201.51,100.7l.58-.48c.54,0,1.15-.31,1.58.33A3.22,3.22,0,0,1,201.51,100.7Z"/><path class="cls-108" d="M219,114.31v-2.67c.41.9.79,1.79,0,2.65Z"/><path class="cls-109" d="M233.84,72.79c.51.09.88.12.91.53s-.38.44-.67.44-.89-.06-.83-.6C233.27,73,233.72,72.86,233.84,72.79Z"/><path class="cls-110" d="M238.51,74.58c-.94.34-1.72.55-1.85-.11s.53-.13.82-.19S237.92,74.39,238.51,74.58Z"/><path class="cls-111" d="M246.29,85.37c-1,1.84-2.32.84-3.94.23,1.46-.44,2.68.6,3.73-.23Z"/><path class="cls-112" d="M246.29,85.37h-.21c0-.67-.21-1.39.36-2C247.31,84.21,246.53,84.76,246.29,85.37Z"/><path class="cls-107" d="M226,64.2l-3.11-.55c1.41-.45,2.28-.59,3.06.21Z"/><path d="M226,64.2a.78.78,0,0,0-.05-.34.64.64,0,0,1,.24,0c.52.29,1.3-.43,1.67.42a.46.46,0,0,1-.14.42C227,65.13,226.62,64.33,226,64.2Z"/><path class="cls-113" d="M209.5,62.75a2.17,2.17,0,0,1,0-.44c1,.11,2.21-1.12,3,.49Z"/><path class="cls-114" d="M214.49,61.31a1.39,1.39,0,0,1,.68,1.63c-.16.43-.66-.19-1-.2Z"/><path class="cls-115" d="M202.1,83.16h-3.32A4.58,4.58,0,0,1,202.1,83.16Z"/><path class="cls-71" d="M213.4,57.34c-.05.51-.46.33-.75.39a8.92,8.92,0,0,0-2.06-.24.41.41,0,0,1-.19-.37c0-.15.06-.22.1-.22A3.78,3.78,0,0,1,213.4,57.34Z"/><path class="cls-116" d="M210.5,56.9c0,.14,0,.27,0,.4-.07.3-.36.34-.57.47L208,58.3c-.05-.17-.1-.34-.16-.52A5,5,0,0,1,210.5,56.9Z"/><path class="cls-117" d="M246.51,79.89,244,79.3c.44-1.19,1.49.31,2-.47C246.78,78.88,247.13,79.15,246.51,79.89Z"/><path class="cls-118" d="M209.92,57.77l.57-.47c.72.12,1.52-.13,2.16.43Z"/><path class="cls-5" d="M237,214.86c-3.88-1.86-7.63-3.59-11.31-5.47a3.55,3.55,0,0,0-3.5,0c-3.77,1.84-7.6,3.57-11.68,5.48.6-4.56,1.07-8.76,1.75-12.93a3.22,3.22,0,0,0-1-3.09c-2.92-3.05-5.77-6.17-8.86-9.49,4.18-.75,8-1.51,11.83-2.1a4.71,4.71,0,0,0,4-2.76c1.75-3.56,3.81-7,5.9-10.71,2,3.72,4,7.08,5.67,10.56a4.84,4.84,0,0,0,4.08,3c3.77.58,7.49,1.44,11.81,2.3L240,195.5c-4.75,4.93-4.68,4.92-3.77,11.66A36.39,36.39,0,0,1,237,214.86Z"/><path class="cls-5" d="M168.24,103.91c-3.17,3.33-6,6.36-8.92,9.3a3.39,3.39,0,0,0-1.1,3.29c.54,3.11.85,6.27,1.21,9.4.1.9.54,2.09-.13,2.64s-1.66-.34-2.46-.7c-2.94-1.36-5.88-2.71-8.76-4.2a3.19,3.19,0,0,0-3.24,0c-3.77,1.83-7.61,3.54-11.74,5.45.56-4.38.93-8.34,1.64-12.24a4.22,4.22,0,0,0-1.33-4.18c-2.77-2.83-5.41-5.78-8.41-9,4.52-.83,8.56-1.66,12.63-2.28a3.51,3.51,0,0,0,2.84-2.06c2-3.65,4-7.26,6.22-11.26,2.15,4,4.18,7.62,6.09,11.32a3.42,3.42,0,0,0,2.79,2.06C159.67,102.1,163.72,103,168.24,103.91Z"/><path class="cls-5" d="M130.48,224.37c2.11,4,4,7.63,5.82,11.26a3.61,3.61,0,0,0,2.91,2.28c4.06.71,8.06,1.71,12.55,2.69-3,3-5.6,5.91-8.47,8.49a5.1,5.1,0,0,0-1.66,5.07c.51,3.77.85,7.56,1.3,11.64-4-2-7.72-3.74-11.37-5.69a3.62,3.62,0,0,0-3.69-.13c-3.21,1.55-6.53,2.88-9.75,4.41-1.61.76-1.87.24-1.63-1.27.56-3.61,1-7.24,1.64-10.84a3.29,3.29,0,0,0-1-3.11c-2.82-3-5.56-6.13-8.66-9.57,4.11-.68,7.75-1.39,11.42-1.85a5.46,5.46,0,0,0,4.76-3.25C126.33,231.16,128.36,228,130.48,224.37Z"/><path class="cls-119" d="M118,176.23c-.18,1.18-.79,2-2.06,2a1.94,1.94,0,0,1-.1-3.87C117.06,174.22,117.72,175,118,176.23Z"/><path class="cls-15" d="M162.58,176.9a1.76,1.76,0,0,1-1.81,1.85,1.72,1.72,0,0,1-2-1.75,1.89,1.89,0,1,1,3.77-.1Z"/><path class="cls-6" d="M130.47,182.78a4.48,4.48,0,0,1-2.37-4.8q1.08-8.13,2.37-16.23a4.93,4.93,0,0,1,5.35-4.42c2.83.33,4.55,2.47,4.2,5.64-.59,5.43-1.3,10.86-2,16.28-.36,2.57-1.94,3.87-5,4.34a.76.76,0,0,1-.1-1,10,10,0,0,1,1.38-1,2.24,2.24,0,0,0,.4-3.31c-.74-1-1.71-1.59-3-.85a2.38,2.38,0,0,0-1.32,3.1,9.78,9.78,0,0,1,.78,1.82C131.1,182.72,131,183,130.47,182.78Z"/><path class="cls-120" d="M130.47,182.78l.52-.4a1.37,1.37,0,0,1,2,.48v.73A3.05,3.05,0,0,1,130.47,182.78Z"/><path class="cls-121" d="M133,182.86l-2-.48c-1.29-1.14-2-2.47-1.09-4.15a3.07,3.07,0,0,1,3-1.81,3.17,3.17,0,0,1,2.91,2.32C136.42,180.52,135.45,181.93,133,182.86Z"/><path class="cls-16" d="M134.62,179.38c0,1.37-.66,2.11-1.75,2.17a1.77,1.77,0,0,1-2-2,1.7,1.7,0,0,1,1.86-1.83A1.72,1.72,0,0,1,134.62,179.38Z"/></svg>