<svg id="Layer_1" data-name="Layer 1" xmlns="http://www.w3.org/2000/svg" viewBox="0 0 300 300"><defs><style>.cls-1{fill:#c6a665;}.cls-2{fill:#7d6940;}.cls-3{fill:#e01e21;}.cls-4{fill:#138539;}.cls-5{fill:#9c2235;}.cls-6{fill:#fefefe;}.cls-7{fill:#c6a664;}.cls-8{fill:#c5a664;}.cls-9{fill:#c5a564;}.cls-10{fill:#c4a564;}.cls-11{fill:#c4a463;}.cls-12{fill:#bfa061;}.cls-13{fill:#010402;}.cls-14{fill:#c3a463;}.cls-15{fill:#b99c5e;}.cls-16{fill:#c0a162;}.cls-17{fill:#bb9d5f;}.cls-18{fill:#c0a161;}.cls-19{fill:#bd9f60;}.cls-20{fill:#c1a262;}.cls-21{fill:#c0a262;}.cls-22{fill:#be9f60;}.cls-23{fill:#b89a5d;}.cls-24{fill:#b79a5d;}.cls-25{fill:#4f4328;}.cls-26{fill:#4f4228;}.cls-27{fill:#c71b1d;}.cls-28{fill:#c21a1c;}.cls-29{fill:#0b4c20;}.cls-30{fill:#106c2e;}.cls-31{fill:#0f6c2e;}.cls-32{fill:#897446;}.cls-33{fill:#8a7446;}.cls-34{fill:#030000;}.cls-35{fill:#41090a;}</style></defs><path d="M22.34.36H278a1,1,0,0,1,1,1V172.51A127.49,127.49,0,0,1,151.52,300h-2.18a128,128,0,0,1-128-128V1.36a1,1,0,0,1,1-1Z"/><path class="cls-1" d="M150,2.64q61.83,0,123.65-.05c2.33,0,2.94.55,2.94,2.92q-.1,82.22-.06,164.43c0,60.57-40.79,111.65-100,124.22C104.83,309.37,37.67,261.88,25.45,193.33a123.62,123.62,0,0,1-2-21.81q0-83.11-.07-166.23c0-2.49.86-2.69,2.91-2.69Q88.16,2.68,150,2.64Z"/><path d="M92.76,37.68c0-7.1,1.36-14.22-.52-21.8,7.15,3.67,14.7,3,21.87,4.41,5.83,1.13,11.06,3.34,14.22,9.75,2.2-6.65,8-8.79,12.85-12,3.8-2.53,6.94-5.62,8.51-10,.27.05.54,0,.57.11,2.38,6,7.3,9.38,12.6,12.38,3.75,2.12,7,4.71,8.77,9.31a17.26,17.26,0,0,1,5.92-6.51c3.71-2.22,7.81-3.06,12-3.56,6-.71,12.19-.76,18.21-3.87-2.29,8.76.2,17.19-.86,25.57.15,0,.37.14.41.09,4.43-4.9,10.13-6.32,16.49-6.57,6-.23,12.1.43,18.29-2.51-2.62,8.53,0,16.93-1.59,25.14a22,22,0,0,1-4.09,9.7C244.84,67.81,251,74,259,74.62l3.85.35c0,.16.13.4.06.47-4.34,4.42-6.5,10-8.65,15.68-1.91,5-4.26,9.77-8.86,13.48,5.13,1.11,8.91,3.67,11.29,8s2.77,8.94,2.47,13.76c-.37,6-2,11.86-1.45,18.13a55.76,55.76,0,0,0-7.13-1.82c-2-.28-3-.09-3,2.52.21,10.4.19,20.82.15,31.23-.06,13.45-8,24-20.26,27.14a26.81,26.81,0,0,1-33.55-25.47c-.18-9.29,0-18.59,0-27.88v-1.93c-3,6.88-6.32,13.58-6.79,21.95-5.09-7.25-12.73-8.49-19.91-10.66-4-1.21-7.62-3.08-10.47-7.28.07,23.3-.43,45.87.62,68.82a22.31,22.31,0,0,1,11.09-1.88,2.27,2.27,0,0,0,2.38-1.66c.84-2.6,1.67-1.27,2.5,0,.24.35.43.74.69,1.21,2.57-3,5.35-5.4,9.82-3.65-1.46,2-2.83,3.88-2.78,6.36,0,1.7.39,2.51,2.42,1.59,9-4.11,11.09-14.28,4.32-21.78-2.7-3-6.2-4.86-10-6.91,3.39-2.4,6.9-2.3,10.4-1.39,8.89,2.3,15.47,10.85,16,20.59.8,14.18-5.11,23.44-18.31,28.71-.56.22-1.11.46-1.77.73a4,4,0,0,0,5.05,1.35c2.66-1,4.62-2.93,6.65-4.79C203,233.05,211,229,221,229.81a25,25,0,0,1,8.62,2.46c.84.39,1.46.76,1.36,1.87-.58,6.43-1.1,12.87-3.78,18.86-4.83,10.81-13.48,16.13-25,17.08a38.91,38.91,0,0,1-9.27-.31c-.85-.14-1.56-.25-2.1.85-4.56,9.34-8.44,11.24-18.82,9.55a113.46,113.46,0,0,0-12.75-1.84c-3.36-.17-6.52,1.82-9.42,1.66s-6-1.77-9.2-1.64c-4.31.17-8.5,1.2-12.75,1.83a35.55,35.55,0,0,1-6.68.34c-5.77-.27-9.87-2.86-11.55-8.53-.64-2.14-1.68-2.34-3.71-2.12-9.55,1-18.54-.34-26.09-7-5.94-5.21-8.59-12.09-9.83-19.64-.45-2.71-.56-5.47-1-8.19-.25-1.65.34-2.46,1.84-3.11,8.73-3.76,17.11-2.75,25.26,1.69a41.43,41.43,0,0,1,9,6.84,16.4,16.4,0,0,0,5.72,3.88,4.26,4.26,0,0,0,5-1.32,45.17,45.17,0,0,1-10.27-5.38c-13.89-10.47-13.34-33.89,1-42.55a16.59,16.59,0,0,1,11.58-2.48,6.6,6.6,0,0,1,3.74,1.67c-2.26,1.4-4.5,2.64-6.59,4.11a16,16,0,0,0-7,11,12.8,12.8,0,0,0,9,14c1.47.46,1.43-.45,1.55-1.23.42-2.8-1.16-4.91-2.66-7,4-1.28,5.81-.62,9.74,3.58A15.14,15.14,0,0,1,127,217c.69-.84,1.43-1.8,2,.16a2.65,2.65,0,0,0,2.91,2.09c3.7-.48,7.14.38,10.73,1.81,1.09-22.85.55-45.44.65-68.72-3.85,5.49-9.3,7-14.78,8.44-5.87,1.57-11.5,3.58-15.61,9.49-.44-8.36-3.77-15.07-6.64-22.58-.07,1.22-.14,1.9-.14,2.57,0,8.78,0,17.56,0,26.34,0,14.77-9.62,25.72-24.23,27.7-14.35,1.94-28.84-10-29.39-24.65-.43-11.52-.2-23.06-.09-34.58,0-2.34-.76-2.81-2.8-2.44a26,26,0,0,0-6,1.52c-1,.46-1.39.21-1.31-.92.41-5.9-1.24-11.61-1.53-17.45a28.48,28.48,0,0,1,.63-8.19c1.73-7.07,5.8-11.17,13.11-13-5.82-4.79-8-11.53-10.59-18.08A35,35,0,0,0,36.9,75c9.88.74,17-6.89,26.51-7.8C59.11,61.1,58.75,54.39,59,47.53c.2-4.88.55-9.78-1.24-15.06,6.66,3,13.25,2.21,19.69,2.55,5.93.31,11.11,2,15.19,6.5A6.7,6.7,0,0,0,92.76,37.68Z"/><path class="cls-2" d="M92.76,37.68c.59,1.3.37,2.68.43,4a.26.26,0,0,1-.13.2c-.36.11-.35-.17-.4-.39Z"/><path class="cls-3" d="M133.74,242.08c-4,.92-8,1.76-12.18.69-4.47-1.15-7.61-4.28-8.1-8.32-.25-2.12.06-4.09,2.2-5.6,1.14,5,4.14,7.61,9.74,8.17-5.88-3.66-7-8.4-5.09-14.18.73-2.25-.23-4.39-1.34-6.6a4.66,4.66,0,0,1,4.12,1.76,18.26,18.26,0,0,1,2.21,2.83c3.12,4.94,4.45,5.49,10.72,4-3.1-1.54-8.67.79-8.22-5.82,2.22,1.91,4.64,2,7.22,1.66,1.9-.22,3.68.71,5.48,1.27,2.92.91,5.88,1.44,8.67-.45a1.22,1.22,0,0,1,1.61,0c2.77,1.93,5.74,1.45,8.65.5,2.55-.84,5-1.6,7.8-1.13a5.49,5.49,0,0,0,4.7-1.72c.45,2.6-.21,4-2.17,4.76-1.75.69-3.82-.37-5.49,1,5.68,1.52,7.35.87,10.38-4,1.42-2.29,3-4.35,6.71-4.93-2.67,3.65-1.56,7.09-.92,10.62.83,4.57-1.77,7.66-5.59,10.43,5.37-.55,8.34-3.19,9.44-8,3,2.35,3.13,6.88.27,10.09-3.5,3.91-8.08,4.64-13,4-1.93-.26-3.82-.85-6.29-1.42,4.78,3.74,9.57,3.78,14.5,2.29,1.42-.43,2.36-.62,3.57.64,1.91,2,4.38,2.15,6.91,1a23.91,23.91,0,0,0,6.41-4.71c6.75-6.2,14.37-10.3,23.92-9.56.34,0,.68,0,1,.07,7.19.8,8.33,2.32,7.17,9.34a53.53,53.53,0,0,1-2.34,10,26.72,26.72,0,0,1-24.3,17.79,53.52,53.52,0,0,1-10-.42c-1-.13-2.1-.5-2.42,1.09-1.76,8.64-7.27,10.87-17.61,9.38-4.42-.64-8.81-2.2-13.25-1.7a70.44,70.44,0,0,1-17.59,0c-4.42-.58-8.83,1-13.25,1.69a32.15,32.15,0,0,1-6.42.37c-6-.3-9.16-2.48-10.69-8.23-.72-2.69-2-2.83-4.2-2.53-6.31.85-12.55.65-18.5-1.89-10.31-4.41-15-12.89-16.64-23.45-.38-2.37-.48-4.79-.88-7.16-.26-1.53.41-2.19,1.68-2.68a25.38,25.38,0,0,1,19.35.22,37.61,37.61,0,0,1,12.15,8.12,21,21,0,0,0,5.82,4.21c2.63,1.18,5.12.94,7.13-1.12,1-1.07,1.79-1.06,3.1-.64C124.73,245.39,129.46,245.45,133.74,242.08Z"/><path class="cls-4" d="M155.24,160.1c0,16.41-.06,32.82.09,49.22,0,3,.31,6,.32,9,0,.88.55,2.08-.48,2.58a2.78,2.78,0,0,1-3.16-.45c-1.43-1.41-2.59-1.41-4,0a2.82,2.82,0,0,1-3.16.46c-1-.51-.52-1.72-.48-2.58.77-18.12.43-36.24.49-54.35,0-1.12-.05-2.23-.08-3.35a89.37,89.37,0,0,1-.16-9.26,27.83,27.83,0,0,0-.86-7.62c-1.51-5.1-5.08-8.08-10.48-8.16,6.78.93,10.72,5.11,10,10.61h0c-.59.77,0,1.76-.44,2.56-1.22,4.75-4.63,7.28-9,8.78-2.76.94-5.57,1.75-8.36,2.57A28.57,28.57,0,0,0,114,166.22c-1-7.27-4.59-13.37-6.47-20-1.16-4.11-1.35-8.2.73-12,2.25-4.12,5.67-7.14,10.48-7.46,4.36-.28,7.13,2.46,8.73,7.08,2.14-4.91,5.47-4.84,9.36-3.2-4.05-4.25-8.82-7.68-11.63-13,2.63-1,4.44-.73,6.06,1.78,2.45,3.78,6.55,6,9.46,9.44l2,2.34c1.56-.31.65-1.3.56-2.07a21.49,21.49,0,0,0-3.21-10.48,30.28,30.28,0,0,1-3.82-8.83c-1.43,1.42-2.36,2.88-3.79,3.8-8.13,5.16-17.13.31-17.6-9.47a30.9,30.9,0,0,1,1.09-8.4c.62-2.76,1.37-5.5,1.91-8.27a35.31,35.31,0,0,0,.56-8.88c6.86,4.43,14.65,5.48,21.84,8.18a15.48,15.48,0,0,1,6.9,5.21c4.16,5.48,1,13.7-6.06,15.42-2.3.56-2.51,1.41-1.57,3.23.59,1.15,1,2.4,1.62,3.5,2.31,3.91,4.57,7.84,5.55,12.37,0-3.71.16-7.44-.06-11.14-.12-2.06.12-4.18-.32-6.16-.7-3.12,1.87-4.39,3.13-6.4.19-.31.61-.55.81-.17,1,1.9,3.4,2.77,3.32,5.53-.19,6.1-.85,12.18-.3,18.37.82-6.1,5.08-10.62,7.18-16.14.64-1.7.58-2.44-1.44-3-3.89-1-6.93-3.46-7.87-7.39s.32-7.51,3.66-10.33,7-3.87,10.93-4.93c5.3-1.46,10.54-3,15.68-6.15-.48,7.93,2.44,15,3.52,22.41.94,6.51-2.05,12.15-7.2,14-4.64,1.63-8.6.29-12.07-2.93-.61-.58-1.12-1.27-2-2.3-1.23,6-5.72,10.22-6.64,16-.18,1.1-.28,2.21-.42,3.31-.37,1.6-.33,1.76.56,2.07a60.62,60.62,0,0,1,8-8,23,23,0,0,0,3.23-3.32c2.24-2.91,2.27-2.89,6.35-2.39-2.9,5.52-7.71,9.08-12.1,13.25,3.83-1.29,7.63-2.62,9.51,2.74.47-.56.72-.72.79-.94,2-5.74,8.52-8.18,14.77-3.05,5.38,4.41,6.39,10,4.73,16.49-1.05,4.1-3,7.86-4.31,11.85a43.76,43.76,0,0,0-2.23,8.5c-5.7-5.54-13.11-6.35-19.83-8.78-4.32-1.56-7.81-4-9-8.78-.46-.8.15-1.79-.44-2.56h0c-.7-5.52,3.34-9.79,10-10.56-5.17-.07-8.9,3-10.42,7.93-1.31,4.23-.66,8.48-.89,12.72A16.29,16.29,0,0,1,155.24,160.1Z"/><path class="cls-4" d="M151.49,43.83V80.25l.72.25c2.32-3.59,4.29-7.47,8.16-10.09-.68-.36-1-.58-1.4-.74-6.23-2.72-7.94-8.35-4.25-14.21,3.45-5.49,8.81-7.67,14.95-8.41,4.91-.59,9.93-.47,14.86-2.35-.33,2.42-.76,4.59-.91,6.78-.29,4.3.36,8.57.77,12.84.94,9.76-3.8,16-13.26,16.33-3.79.15-6.47-1.94-8.39-5.08-.39-.64-.7-1.33-1.14-2.17-4.27,3.89-7.71,8-8,14-.14,2.45-2.5,3.53-3.5,5.91-1.64-2.74-3.57-4.61-3.92-7.87-.53-5-3.87-8.66-7.68-12a32.62,32.62,0,0,1-2.17,3.5,9.56,9.56,0,0,1-10.65,3.39c-4.92-1.42-8.83-4.18-9.75-9.83a31.13,31.13,0,0,1,0-8.46c.62-5.7,1.11-11.42-.65-17.5,6.13,2.37,12.25,1.72,18.09,3A18.32,18.32,0,0,1,145,55c2,2.88,2.3,6.07,1.85,9.37-.33,2.35-2,3.71-4.07,4.64-.93.41-1.87.78-3.19,1.34,3.79,2.79,6,6.4,8.07,10.17l.73-.12V43.77c-.58-.07-1,.68-1.55,1.16A9.28,9.28,0,0,1,136.5,46.7a11,11,0,0,1-7.15-9.06c-1-7.09,1.93-12.14,8.09-15.54,4.55-2.5,8.87-5.29,11.81-9.75.49-.75.86-1,1.46-.07,3,4.65,7.58,7.37,12.22,10,5.48,3.15,8.33,7.69,7.82,14.22a11.25,11.25,0,0,1-6.95,10,9.26,9.26,0,0,1-10.94-1.94,6.52,6.52,0,0,0-1-.76A.53.53,0,0,0,151.49,43.83Z"/><path class="cls-4" d="M84.27,97.89a64.45,64.45,0,0,0-11.94-4c-.93-.23-1.29,0-1.31.92a11.08,11.08,0,0,1-.17,2.31c-.82,3.45-2.11,6.6-5.89,7.81-4,1.28-7.51.07-10.53-2.52a24.1,24.1,0,0,1-6.13-9.13c-2.44-5.64-4.1-11.65-8.37-17,8.47-.4,14.63-6.38,22.48-7.34,6-.72,11.64,0,15.49,5.32,4.23,5.84,2.94,11.52-3.19,15.28-.34.22-.66.47-1.35,1,2.19.7,4,1.31,5.85,1.85,2.41.7,4.67,1.52,6.43,3.52,1.13,1.29,2.88,1.82,4.86,2.54-2.42,2.11-4.67,4.13-7,6.07-4.93,4.14-6.89,9.88-4.36,15.82,2.86,6.71,1.06,13.57,1.64,20.33.11,1.27-.78,1.28-1.71,1.31-1.43,0-1.4-.91-1.4-1.9q0-9.17,0-18.32c0-4,0-8,0-12.61-3.57,2.93-6.82,5.13-9.41,8.07.1.21.13.44.22.47,3.55,1.3,6.21,3.44,6.65,7.44a11.91,11.91,0,0,1-4.84,11.54c-3.12,2.33-6.76,3.25-10.53,3.82-4.75.72-9.64.07-14.32,1.42-.65.19-1.27.14-1.32-.7-.54-8.24-3.27-16.42-.79-24.74,1.67-5.63,6.79-10,11.77-10.09,4.56-.11,7.39,2.32,9.14,6.26.47,1.08.73,2,2,.76A148.9,148.9,0,0,1,83.77,98.62C84,98.48,84.05,98.21,84.27,97.89Z"/><path class="cls-4" d="M215.43,98a146,146,0,0,1,12.86,10.35c1.84,1.69,3.68,3.37,5.5,5.07.65.6,1.29,1.06,1.74-.12,1.82-4.68,5-7.54,10.22-6.83,5.46.73,8.79,4.34,10.7,9.33,1.75,4.56,1.36,9.29.9,14-.36,3.58-.93,7.14-1.39,10.71-.09.76,0,1.76-1.2,1.43-5.69-1.51-11.66-.59-17.36-2-5.4-1.31-10.31-3.54-12-9.36s-.78-10.76,6.36-13.71a34.87,34.87,0,0,0-9.2-7.16c-.58.85-.28,1.81-.28,2.7,0,9,0,18.07,0,27.11,0,1.15.37,2.49-1.64,2.44s-1.38-1.34-1.46-2.36a3,3,0,0,1,0-.52c.08-7.07-.33-14.07,2.06-21.05,1.83-5.32-.12-10.31-4.78-13.94-2.22-1.73-4.35-3.58-6.48-5.34,5-3.78,10-7.1,16.11-7.84.2-1.13-.58-1.2-1-1.48-6.92-4.26-7.21-13-.51-17.74,5-3.55,10.58-3.65,16.28-2A65.66,65.66,0,0,1,251,74.06c2.72,1.3,5.68,1.78,8.93,2.4-4.15,5.17-5.78,11.2-8.26,16.83-1.68,3.8-3.65,7.43-7.17,9.89-3.25,2.27-6.76,3.13-10.45,1.36s-4.81-5.09-5-8.74c-.1-2.08-.86-2.17-2.45-1.7A75.11,75.11,0,0,0,215.43,98Z"/><path class="cls-5" d="M79.24,178.28c7.74,0,15.49,0,23.23,0,1.5,0,2.2.28,2,2A25.64,25.64,0,0,1,78.4,202.93c-12.19-.3-23-10.18-24.42-22.17-.22-1.89.26-2.56,2.29-2.53C63.93,178.35,71.59,178.28,79.24,178.28Z"/><path class="cls-5" d="M221,178.28c7.48,0,15,.08,22.45-.05,2.22,0,2.85.6,2.53,2.78a25.42,25.42,0,0,1-50.45-.74c-.21-1.71.47-2,2-2C205.35,178.31,213.18,178.28,221,178.28Z"/><path class="cls-4" d="M105.29,138.9c-4.63-4.68-10.54-5.91-15.64-8.68-6.13-3.32-9.78-8.26-9.84-15.44A12.59,12.59,0,0,1,80.2,112c1.17-5.23,4.55-7.27,9.73-5.86,1.15.31,2.25.8,3.55,1.27-.1-2.38-.84-4.49-.87-6.72,0-1.62.57-2,2-2.13,1.78-.22,1.54.84,1.62,1.85a7.87,7.87,0,0,0,.11,1.54c.41,1.45.13,3.58,1.46,4.16,1.13.51,1.65-1.61,2.6-2.42,4.13-3.55,8.44-3.57,11.89-.06a6.06,6.06,0,0,1,1.44,2.95,12,12,0,0,0,.72,2.72c4.19,7.6.89,13.7-4,19.32C108,131.46,105.91,134.39,105.29,138.9Z"/><path class="cls-4" d="M206.38,107.47c2.33-.85,4.2-1.69,6.34-1.66,3.81,0,5.93,1.59,6.93,5.26,2,7.29-1.47,15-8.72,18.81-3,1.62-6.25,2.86-9.38,4.27-2.29,1-4.29,3.65-6.24,3.71-1.55,0-1.5-4.11-3.07-6-1.06-1.24-2.07-2.53-3.2-3.7-3.5-3.66-5-8.12-5.47-13a5.66,5.66,0,0,1,.85-3.67,9.8,9.8,0,0,0,1.6-3.76c.39-3.28,2-5.48,5.1-6.43,3.63-1.13,6.49.63,9,3,.67.63,1,2.12,1.89,1.88,1.09-.31,1-1.8,1.23-2.86s.28-1.86.45-2.79-.41-2.18,1.46-2c1.55.14,2.29.49,2.2,2.26A67.24,67.24,0,0,1,206.38,107.47Z"/><path class="cls-4" d="M113.07,102.2a63,63,0,0,1-8.59-9.92c-.92-1.31-1.47-1.52-2.55,0C98.84,96.5,94.6,98,90,96.61c-4-1.19-6.65-5-7.19-10-.52-4.83.06-9.58.42-14.37A41.14,41.14,0,0,0,82.86,62c7.48,3.12,15.36,1.49,22.67,3.67a14.37,14.37,0,0,1,9.86,8.72c2.43,6.07.35,10.72-6,12.26-2.45.59-2.59,1.34-1.18,3.11,1,1.27,1.72,3,3,3.85C114.45,95.89,114.24,98.75,113.07,102.2Z"/><path class="cls-4" d="M217.09,61.93c-1.07,7.12.23,13.74.4,20.41a23.65,23.65,0,0,1-.83,6.87c-1.13,4.21-3.7,7-8,7.73a9.91,9.91,0,0,1-10.15-4.19c-1.41-1.89-2-1.88-3.34,0a51.28,51.28,0,0,1-8.15,9.32c-1.38-3.32-1.36-6,1.7-8.43,1.43-1.12,2.31-3,3.42-4.49.92-1.25,1-2.09-.9-2.41a12.83,12.83,0,0,1-3.61-1.31,7.3,7.3,0,0,1-3.87-8c1.17-6,4.78-9.91,10.6-11.82,3-1,6.08-1,9.16-1.26C208,64,212.53,63.89,217.09,61.93Z"/><path class="cls-5" d="M79,161.1c-7.57,0-15.14-.07-22.71,0-2,0-2.49-.6-2.43-2.5.13-4.29.1-8.6,0-12.9,0-1.59.34-2.27,2.12-2.27q23.24.09,46.45,0c1.47,0,2.18.29,2.15,2q-.15,6.84,0,13.68c0,1.65-.6,2-2.11,2C94.65,161.07,86.82,161.1,79,161.1Z"/><path class="cls-5" d="M220.6,161.1c-7.66,0-15.32,0-23,0-1.65,0-2.26-.42-2.22-2.16.11-4.47.09-8.94,0-13.41,0-1.56.43-2.09,2-2.08q23.36.08,46.71,0c1.69,0,2,.7,2,2.16-.06,4.38-.1,8.77,0,13.16,0,1.79-.5,2.36-2.32,2.34C236.08,161.05,228.34,161.1,220.6,161.1Z"/><path class="cls-4" d="M61.77,35.64c6.88,1.07,13.94.2,20.76,1.66C90.2,38.94,94.62,44.68,94.31,52a10.85,10.85,0,0,1-6.83,9.22c-2.33.78-4-1.15-6.27-1.6.05.93.07,1.82.13,2.7a6,6,0,0,1-8.27,6.33,17.37,17.37,0,0,0-5.21-1.32,4.65,4.65,0,0,1-4.27-2.71,21,21,0,0,1-2.92-10.3c-.12-5.68,0-11.36,0-17C60.41,36.33,60,35.2,61.77,35.64Z"/><path class="cls-4" d="M239.37,37.29c0,5.59,0,11.18,0,16.77a21.85,21.85,0,0,1-1.9,8.5,17.47,17.47,0,0,1-2.11,3.52c-1,1.37-11.53,3.25-13.06,2.44-2.59-1.36-4.61-3-3.64-6.44a11.27,11.27,0,0,0,.18-2.25c-.51-.32-.87,0-1.23.18-2.1.89-4.09,2.25-6.49.54-2.76-2-5-4.2-5.38-7.77-.7-7.05,3.2-12.66,10.24-15.11,3.93-1.37,8-.9,12-1.31,3.41-.34,6.87-.13,10.27-.72C240,35.2,239.6,36.32,239.37,37.29Z"/><path class="cls-4" d="M94.78,18.77c6.09,2.07,12.42,1.93,18.58,3a21.8,21.8,0,0,1,9.49,3.74c5.33,3.91,6.23,12.1,2,16.66-2,2.14-4.13,2.93-6.9,1.75-1.55-.66-3.14-1.22-5-1.94.39,1.49.72,2.7,1,3.92,1.31,5.31-3.62,10.34-9.11,9.28-5.67-1.09-9.26-6.13-10.14-13-.79-6.22.44-12.35.13-18.52C94.72,22.05,94.78,20.52,94.78,18.77Z"/><path class="cls-4" d="M187.14,41.87c-1.73.69-3,1.24-4.27,1.68-5.16,1.78-9.79-1.34-10.19-6.84-.51-7.15,2.51-11.48,9.63-13.93,3.69-1.27,7.56-1.54,11.38-1.93a63.92,63.92,0,0,0,11.68-2.08,127.13,127.13,0,0,0,.27,15.52,31.36,31.36,0,0,1-1.42,12.46c-1.31,4-3.76,6.93-7.95,8.09A9.56,9.56,0,0,1,186,50.69a5,5,0,0,1-.21-3.76C186.11,45.36,186.61,43.82,187.14,41.87Z"/><path class="cls-6" d="M221,162.62c7.48,0,15,.12,22.44-.08,2.4-.06,2.84.71,2.72,2.86-.18,3.26-.1,6.53,0,9.8,0,1.24-.35,1.59-1.59,1.59q-23.75-.06-47.48,0c-1.45,0-1.68-.53-1.65-1.79.06-3.52.09-7,0-10.57,0-1.46.38-1.87,1.85-1.86C205.18,162.65,213.09,162.62,221,162.62Z"/><path class="cls-6" d="M79.1,176.76c-7.74,0-15.48,0-23.22,0-1.51,0-2.12-.26-2.05-1.94.15-3.52.11-7.05,0-10.58,0-1.4.44-1.7,1.76-1.69q23.61.06,47.22,0c1.59,0,1.79.6,1.76,1.94-.08,3.44-.13,6.88,0,10.32.07,1.64-.46,2-2,2C94.75,176.72,86.93,176.76,79.1,176.76Z"/><path class="cls-3" d="M182.54,225.21c1.29-.68,2.62-1.29,3.87-2,7.94-4.72,9.24-15.15,2.87-22.53a34.48,34.48,0,0,0-7.93-6.22,12.25,12.25,0,0,1,8.3.64c7.62,3.15,11.55,9.15,12.87,17.07,2.07,12.39-4.23,23.51-15.89,28.15-.39.16-.75.47-1.24.19,2.29-2.78,3.41-5.85,2.36-9.46a6.84,6.84,0,0,0-2.14-3.15c-1.46-1.34-2.33-1.05-2.68.88C181.61,227.7,182.39,226.42,182.54,225.21Z"/><path class="cls-3" d="M117.08,228.75c-.42-2.38-1.53-1.93-2.88-.73-2.61,2.3-3.12,6.51-1.18,10.22.35.68.81,1.3,1.59,2.54-5-1.95-8.86-4.38-11.91-8-8-9.53-7.19-25.73,1.58-33.92a16.12,16.12,0,0,1,14.27-4.44c-1.57,1.07-3,1.94-4.26,2.94-5.58,4.31-8.57,9.77-7.23,17,.73,4,3.18,6.78,6.54,8.83,1.24.76,2.57,1.37,3.87,2C117.62,226.42,118.38,227.7,117.08,228.75Z"/><path class="cls-7" d="M186.17,68.77c-.4-5.61-.77-10.8-1.15-16.27,6.81,5.82,11.93,5.82,18.88-.88.44,4.47,2.57,7.82,6.85,10.58-4.84.4-9,.63-13.1,1.12A19.81,19.81,0,0,0,186.17,68.77Z"/><path class="cls-7" d="M115,52.12c-.41,5.83-.77,11-1.16,16.61a20.18,20.18,0,0,0-11.43-5.4c-4.14-.48-8.31-.72-13.07-1.12,4.08-2.82,6.46-6,6.67-11,2.66,3.06,5.48,5.23,9.25,5.54S112,55.23,115,52.12Z"/><path class="cls-8" d="M105.36,141.9c-4.73,0-9,0-13.23,0-3.15,0-7.35,1.33-9.18-.49s-.43-6.17-.58-9.4c-.08-1.62,0-3.25,0-5.55,4.92,5.66,11.75,7,17.59,10.25A13.86,13.86,0,0,1,105.36,141.9Z"/><path class="cls-8" d="M217.64,126.36c0,5.17,0,9.67,0,14.18,0,1.24-.62,1.37-1.6,1.37-6.94,0-13.88,0-21.09,0a9.17,9.17,0,0,1,4.47-4.82,51.76,51.76,0,0,1,6-2.87C209.76,132.34,214.08,130.52,217.64,126.36Z"/><path class="cls-7" d="M181.88,114.77a30.13,30.13,0,0,0,3.29,11c-2.3-.33-4.33-1.13-6.46-.45a12.31,12.31,0,0,0-3.27,1.45,7.32,7.32,0,0,1-7.38,1,54,54,0,0,0,9-10.56C177.89,116,180.14,115.63,181.88,114.77Z"/><path class="cls-7" d="M131.87,127.85c-3.32,1.11-4.54.93-7.25-1-2.88-2-6.07-2-9.7-1.12A29.68,29.68,0,0,0,118,114.83c3.18,1.19,5.7,2.72,7.27,5.78C126.75,123.44,129.48,125.33,131.87,127.85Z"/><path class="cls-8" d="M81.56,98.26a207.11,207.11,0,0,0-15.93,13.46,18,18,0,0,0-3.55-4.6c6.61-.54,9.4-4.61,10.37-10.33.18-1.08.5-1.22,1.48-.89C76.28,96.69,78.66,97.37,81.56,98.26Z"/><path class="cls-8" d="M218.63,98.39a49.65,49.65,0,0,1,8.55-2.73c2.21,8.39,4.14,10.52,10.32,11.38.07.82-.72,1.07-1.09,1.59-.67,1-1.39,1.89-2.09,2.83-1-.81-2-1.59-2.95-2.45C227.38,105.36,223.23,101.9,218.63,98.39Z"/><path class="cls-9" d="M161.09,75.92A13.3,13.3,0,0,0,169,82.18c-4.95,1.68-9.64,2.35-13.86,5.33C155.46,82.56,157.92,79.24,161.09,75.92Z"/><path class="cls-9" d="M145,87.54c-4.42-2.88-9-3.79-14-5.29a13.51,13.51,0,0,0,7.94-6.3A18.63,18.63,0,0,1,145,87.54Z"/><path class="cls-10" d="M135.61,113.28c1.72,4.64,5.54,8.27,5.69,13.84-3.1-3.27-6.55-5.67-9.19-8.93-1.14-1.4-1.21-2.19.59-3A18.35,18.35,0,0,0,135.61,113.28Z"/><path class="cls-10" d="M164.55,113.33a12.4,12.4,0,0,0,2.41,1.73c2.18.86,2.08,1.85.66,3.45a96,96,0,0,1-9.19,8.56,20.4,20.4,0,0,1,2.52-7.26C162.1,117.7,163.28,115.62,164.55,113.33Z"/><path class="cls-11" d="M192,99.34c1.55-2,2.83-3.55,4.05-5.18.65-.86,1-.46,1.56.11a15.5,15.5,0,0,0,2.07,1.9c3,2.24,3.23,3.15,1.77,7.27A12.53,12.53,0,0,0,192,99.34Z"/><path class="cls-11" d="M103.33,93.48,108,99.29c-3.84.2-7,1.34-9.31,4.09-1.67-3.51-1.28-5,1.49-7.13C101.27,95.43,102.23,94.45,103.33,93.48Z"/><path class="cls-12" d="M223.89,141.49v-9.8a17.23,17.23,0,0,0,11.78,9.38c0,.22.09.59-.29.6C231.55,141.77,227.71,142.1,223.89,141.49Z"/><path class="cls-12" d="M64.33,141.07a19.09,19.09,0,0,0,11.78-8.43v8.84c-3.82.63-7.66.28-11.49.19C64.24,141.66,64.38,141.29,64.33,141.07Z"/><path class="cls-13" d="M143.28,146.19c-.77-4.63-2.8-8.2-7.68-9.57-1.43-.4-2.89,0-4.34-.38.36-1.54,1.55-1.43,2.64-1.44,5.75-.07,10.54,4.75,10.8,11.18.2,4.87.05,9.76.06,14.64-1-4-.16-8-.46-11.93C144.23,147.77,144.85,146.51,143.28,146.19Z"/><path class="cls-13" d="M155.24,160.1c0-5.55-.45-11.13.43-16.66.77-4.79,5.89-8.85,10.68-8.65,1,.05,2.1.05,2.4,1.59-4.46-.32-8.11,1-10.53,4.94-.94,1.53-.82,3.3-1.5,4.87-1.43.24-1,1.38-1,2.24,0,3.08,0,6.15,0,9.23C155.66,158.49,155.94,159.39,155.24,160.1Z"/><path class="cls-14" d="M184.09,84.74c1.73,1.91,4,2.82,6.53,3.71a22.06,22.06,0,0,1-5.25,6.34,44.24,44.24,0,0,1-1.88-8.93C183.33,85.29,183.09,84.69,184.09,84.74Z"/><path class="cls-14" d="M116.51,85.86a46.18,46.18,0,0,1-1.86,8.9,22.19,22.19,0,0,1-4.8-5.43c-.85-1.18.29-1.23.9-1.42a12.5,12.5,0,0,0,5.16-3.17C116.91,84.69,116.68,85.29,116.51,85.86Z"/><path class="cls-15" d="M76,112.48v9.19a15.29,15.29,0,0,0-4.49-4.29c-.9-.49-.36-1,.1-1.36C72.86,114.94,74.19,113.89,76,112.48Z"/><path class="cls-16" d="M223.93,122.05v-9.62a24.84,24.84,0,0,1,5.23,4A12.64,12.64,0,0,0,223.93,122.05Z"/><path class="cls-17" d="M147.15,55.35a26.53,26.53,0,0,0-5.61-6.16,24.37,24.37,0,0,0,5.61-2.3Z"/><path class="cls-17" d="M158.57,49.18a43.4,43.4,0,0,0-5.89,5.58c0-2.28,0-4.57,0-6.86,0-1,.58-.84,1.17-.46C155.15,48.28,156.68,48.54,158.57,49.18Z"/><path class="cls-12" d="M155,117.56V108c.38,0,.57-.11.7-.06,3.87,1.64,3.87,1.65,1.82,5.35C156.86,114.53,156.1,115.76,155,117.56Z"/><path class="cls-12" d="M144.86,117.38c-.91-1.55-1.62-2.71-2.28-3.89-2.2-3.93-2.2-3.94,2.28-5.72Z"/><path class="cls-18" d="M81.69,67.81c.37,3-.39,5.82-.34,9.42-1.3-2.5-2.26-4.36-3.8-5.8-.69-.66-.24-.93.39-1.28C79.13,69.49,80.26,68.72,81.69,67.81Z"/><path class="cls-18" d="M218.75,77c-.24-3.28-.45-6-.68-9.18,1.61,1,3,1.76,4.3,2.52.73.42.4.82,0,1.19C220.88,72.9,220,74.73,218.75,77Z"/><path class="cls-19" d="M131.84,45.64l-7.74-.74A14.46,14.46,0,0,0,128,40.17C129.2,41.93,129.92,43.74,131.84,45.64Z"/><path class="cls-12" d="M168.21,45.65a19.43,19.43,0,0,0,3.58-5.46c1.25,1.61,2.11,3.29,4.33,4.65Z"/><path class="cls-20" d="M146.94,75.81c-.82-1-1.16-1.36-1.46-1.75-2.57-3.36-2.57-3.36,1.39-5.65,0,.39.07.7.07,1C147,71.29,146.94,73.16,146.94,75.81Z"/><path class="cls-21" d="M153.12,75.37V68.56c.17,0,.38-.13.48-.07C157.5,71.13,157.5,71.13,153.12,75.37Z"/><path class="cls-22" d="M82.34,91.74l-5.08-1.59L81,86Z"/><path class="cls-22" d="M217.62,91.8c.5-2.1.89-3.74,1.37-5.74l3.77,4Z"/><path class="cls-23" d="M214,104.18c-.94,0-1.29.1-1.62.07-1.27-.15-3,1.08-3.58.22s0-2.59.12-4.12C210.87,101.15,212.11,102.64,214,104.18Z"/><path class="cls-24" d="M91,100.43c.4,4.16.4,4.16-3.93,3.75C87.81,102.63,88.18,102.27,91,100.43Z"/><path class="cls-25" d="M64.33,141.07c1.52,1.16,3.26.45,4.89.53,2.29.1,4.59-.07,6.89-.12-.26.78-.93.62-1.5.62-4.43,0-8.86,0-13.38-.35Z"/><path class="cls-26" d="M223.89,141.49l10.73.13a1,1,0,0,0,1-.55l2.63.58,0,.43c-4.54,0-9.09,0-13.64,0C224.38,142.05,224.13,141.68,223.89,141.49Z"/><path class="cls-27" d="M117.08,228.75c.72-1.11.21-2.36.39-3.54.94,1.68.13,3.49.13,5.3Z"/><path class="cls-28" d="M182.54,225.21c.17,1.17-.34,2.42.39,3.53a1.64,1.64,0,0,1-.94,1.42C182.38,228.39,181.62,226.75,182.54,225.21Z"/><path class="cls-29" d="M157.22,131.2c-.29.56-.7,1.17-1,.08a2.13,2.13,0,0,1,.42-2.15C156.88,129.81,156.41,130.68,157.22,131.2Z"/><path class="cls-29" d="M143.34,129.13a2.12,2.12,0,0,1,.42,2.14c-.27,1.1-.68.49-1-.07C143.59,130.68,143.12,129.81,143.34,129.13Z"/><path class="cls-30" d="M61.77,35.64c-1.07.07-1.1.87-1.14,1.65a1.43,1.43,0,0,1-.29-1.77C60.76,34.88,61.31,35.27,61.77,35.64Z"/><path class="cls-31" d="M239.37,37.29c0-.79-.07-1.58-1.14-1.65.46-.37,1-.76,1.43-.12A1.43,1.43,0,0,1,239.37,37.29Z"/><path class="cls-13" d="M156.72,146.19c.68.76.41,1.68.44,2.56C156.4,148,156.82,147.05,156.72,146.19Z"/><path class="cls-13" d="M142.84,148.75c0-.88-.25-1.8.44-2.56C143.18,147.05,143.6,148,142.84,148.75Z"/><path class="cls-32" d="M184.09,84.74c-.49.22-.44.72-.6,1.12-.42-.59-.68-1.32-.22-1.86C183.5,83.74,183.94,84.32,184.09,84.74Z"/><path class="cls-33" d="M116.51,85.86c-.16-.4-.11-.9-.6-1.12.15-.42.59-1,.82-.74C117.2,84.54,116.92,85.27,116.51,85.86Z"/><path class="cls-34" d="M92.64,246.4c-2.54-.27-4.27-2-6.14-3.56-1.54,6.53,8.94,12.88,20.61,12.58-.73,1.54-2.07,1.71-3.46,1.79a18.7,18.7,0,0,1-7-1.34c-.39-.14-.83-.41-1.19-.05a1.17,1.17,0,0,0,0,1.43,5.79,5.79,0,0,0,4.52,3.06c3.47.59,7,.94,10.43,1.56a5.54,5.54,0,0,1,4.81,3.56c-5.18-3-10.49-2.35-15.43-3.56-3.4-.83-6.16-2.36-6.14-6.45,0-1.15-.94-1.34-1.62-1.78a18.83,18.83,0,0,1-6.17-5.74,7.74,7.74,0,0,1-1.27-4.65A6.58,6.58,0,0,0,78.74,236c-1.06-.16-2.14-.16-3.63-.26,1.81-1.66,3.53-1.45,5.26-.94,2.73.81,4.38,2.91,5.93,5.11a13.71,13.71,0,0,0,8.38,6C94.23,247.14,93.39,246.56,92.64,246.4Z"/><path class="cls-34" d="M205.32,246a13.62,13.62,0,0,0,8.24-5.8,14.27,14.27,0,0,1,4.22-4.46c2.17-1.25,4.4-1.87,7.28,0-1.55.12-2.56.17-3.57.3a6.59,6.59,0,0,0-6,7.28,8,8,0,0,1-1.43,4.87,15.71,15.71,0,0,1-5,4.78c-1.54,1-2.92,1.78-2.84,4.07.06,1.7-1.4,2.92-2.89,3.7a14.56,14.56,0,0,1-3.37,1.21c-5,1.18-10.3.48-15,3.2,1.55-2.54,3.29-3.32,7.38-3.77,2.65-.29,5.29-.61,7.91-1.08a5.83,5.83,0,0,0,4.2-2.74c.3-.51.57-1.15.13-1.67s-1-.07-1.42.08a18.13,18.13,0,0,1-7.06,1.26c-1.29-.1-2.57-.27-3.25-1.93,7.42,1.31,13.35-1.44,18.5-6.29a7,7,0,0,0,2.45-6.19c-2.2,1.34-3.84,3.42-6.47,3.61C206.61,246.56,205.77,247.14,205.32,246Z"/><path class="cls-35" d="M92.64,246.4c.67-.2,1.48.23,2-.45l2.63.53C95.7,246.84,94.13,247.25,92.64,246.4Z"/><path class="cls-35" d="M205.32,246c.56.68,1.37.25,2,.45-1.49.9-3.06.35-4.67.08Z"/></svg>