<svg id="Layer_1" data-name="Layer 1" xmlns="http://www.w3.org/2000/svg" viewBox="0 0 300 300"><defs><style>.cls-1{fill:#d8dad7;}.cls-2{fill:#0054a4;}.cls-3{fill:#bb8814;}.cls-4{fill:#00a564;}.cls-5{fill:#d6d8d5;}.cls-6{fill:#d4d6d3;}.cls-7{fill:#009e5f;}.cls-8{fill:#00a261;}.cls-9{fill:#00a161;}.cls-10{fill:#d1d3d0;}.cls-11{fill:#008550;}.cls-12{fill:#00955b;}.cls-13{fill:#00804d;}.cls-14{fill:#007245;}.cls-15{fill:#4e4f4d;}</style></defs><path d="M23.79-.61H276.21a1,1,0,0,1,1,1V174.06A125.93,125.93,0,0,1,151.28,300h0A128.49,128.49,0,0,1,22.79,171.5V.38a1,1,0,0,1,1-1Z"/><path class="cls-1" d="M130.59,85.33A30.44,30.44,0,0,0,138.4,81c1.31-1,2.39-1.94,1.41-4s-2.32-.19-3.42-.55c-.37-.49.08-.75.32-1,2.82-3.33,2.77-3.28-.28-6.32-1-1-1.61-1.09-2.69-.11a30.9,30.9,0,0,1-9.65,5.69,3.37,3.37,0,0,1-2.2.22,11.61,11.61,0,0,0,2.53-3.6c.35-1,.81-1.92-.34-2.73-1-.68-.26-1.35.12-2,.66-1,1.09-1.91-.35-2.69-1.2-.65-2-2.41-3.76-.56a8.54,8.54,0,0,1-4.69,2.49c-1.33.24-3.67,2.25-3.42-1.46,0-.15-.09-.42-.19-.44-3.79-.82-1-2.76-.53-4,1.36-3.54,1.31-3.71-2.18-5.11-1.19-.48-1.61-.08-2.25.77a21.62,21.62,0,0,1-5.3,5.48C103,58,101.36,57.4,99.22,57a1.65,1.65,0,0,0-2,1,10.82,10.82,0,0,1-4.54,4.45c0-2.76,0-5.12,0-7.48a1,1,0,0,1,.79-1.11,3.42,3.42,0,0,0,1-.37c4.29-2.57,8.69-3,13.72-2.19,7.42,1.21,13.73-1.74,18.7-7.38.68-.77,1.9-1.71.41-2.7-1.22-.81-1.28-3.88-3.9-2.12-.26.17-.8.42-.87.35-2.45-2.86-3.9.28-5.76.93l-1,.3c-.15-1.11.78-1.61.93-2.4.2-1.1,1.82-2.15.25-3.36-1.39-1.06-2.58-2.21-4.6-.6a16.6,16.6,0,0,1-7.38,3.43c1.66-1.32,3.33-2.62,5-4,.81-.66,1.66-1.37.53-2.48-.84-.82-.24-1.32.43-1.82a12.74,12.74,0,0,1,1.62-1.25c2.36-1.25,2.3-2.56.49-4.39-1-1-1.52-1.23-2.65-.32-1.45,1.18-3.07,2.17-4.62,3.23-.34.23-.72.56-1.06,0s0-.78.39-1c1.2-.82,2.42-1.6,3.6-2.46.58-.42,1.94-.77.79-1.77-1-.84-.92-3.36-3.26-2.23-.59.29-1.2.57-2,.93.17-1.37,1.22-1.88,1.81-2.7.85-1.15,2.17-1.85.45-3.71-.68-.73-.32-2.79-1.84-3.8-.87-.57-1.29-.79-2,.19a12.77,12.77,0,0,1-4.18,3.72,6.25,6.25,0,0,1-5.9.51c-1.89-.9-3.52-1.66-5.47-.1-1,.78-1.52-.48-1.89-1.13-1.72-3-3.41-.56-5.06,0-2.1.72-.57,2-.14,2.81.68,1.31.46,2.09-.86,2.52-2.41.79-2,2.26-1,3.9.83,1.37,1.7,2.73,2.68,4.31a8,8,0,0,1-5.2-2.49c-2.18-2.39-4.29-.92-6,0-3.18,1.81-3.13,2.48-.73,5.34a33.57,33.57,0,0,0,2.54,2.52c.36.35.86.62.42,1.24s-.92,1-1.5.45c-1.18-1-2.12-.66-3.08.28-.71.7-1.28.09-1.79-.31C64.31,32.91,63.21,32,62.1,31c-.43-.37-.85-1.12-1.46-.52-1.17,1.14-1.81.64-2.91-.29-1.29-1.09-2.08.83-3.18,1.22s-1.3,1.41-.89,2.5c1.87,5.05,5,8.87,10.2,10.81l1.43.56c-.5,1.23-1.4.58-2.19.48-.91.37-2.3-.71-2.79.49a21.08,21.08,0,0,0-1.25,5.21c-.07.54,1,.75,1.65,1a27.38,27.38,0,0,0,16.88.74,3.59,3.59,0,0,1,3.49.67,5.49,5.49,0,0,0,3,1.4c2.8.05,3.15,1.6,2.87,3.82a19.76,19.76,0,0,0,0,2.31c0,4.17-.19,4.33-4.31,3.22a20.22,20.22,0,0,1-6.24-2.91c-1.15-.79-2.1-1-2.94.36-.67,1.13-1.49,1.07-2.5.35s-2.11-1.14-3.07-1.84c-2-1.42-3.82-2.16-5.78,0-1.19,1.32-1.88,0-2.72-.62s-1.57-2.47-3.07-1c-1.18,1.16-4.37.94-2.94,4,.41.88-.13,1.32-.81,1.54-1.89.61-1.36,1.64-.61,2.82C56,73.84,62.14,76.9,69.46,78.08a19.23,19.23,0,0,1,3.35.72c-6.55.71-12.83-.53-19-2.61-1.1-.37-2.23-1.11-2.69.81-.22.88-.86.59-1.4.23-1-.65-2-1.26-3-2-2.1-1.52-3.82-1.31-5.57.52-.75.79-.1,1.29.15,1.78a12.52,12.52,0,0,0,4.66,5c1.22.75,1.83,1.46.88,2.8s-.42,2.19.88,2.8,1.85,1.4,1,2.77c-.73,1.13.39,1.26,1,1.59,3.74,2.13,7.87,2.7,12.07,3a6.73,6.73,0,0,1,3.54.63c-3.74,1-6.9.47-10,.28a10.89,10.89,0,0,1-3.54-.55c-3-1.33-4.49.89-6.35,2.43-1.2,1,.3,1.39.31,2.29-2.3-.09-4.17-1.27-6.12-2.14-.9-.41-1.68-1-2.22.41-.26.68-.78.54-1.19.15-2-1.93-2.73.4-3.75,1.28-1.47,1.25.19,2,.78,2.63,2.18,2.41,4.5,4.69,6.82,7,.71.7,1.48,1.28.5,2.25-1.3,1.27-.6,2.24.39,3.21a20.8,20.8,0,0,0,13.63,5.76c5.06.35,10.1.1,14.84-2,1.64-.73,2.65.55,4.28,1a12.63,12.63,0,0,1-4.24,2c-.94.32-1.32.74-1,1.65s1.13.5,1.72.27a18.68,18.68,0,0,0,4-1.71c1.75-1.22,3.28-1,5,.25-2.66,1.79-5.68,2.61-8.62,3.58a51.29,51.29,0,0,1-6.69,1.72c-1.57.28-2.5,1-2.55,2.54s-.92,1.57-2,1.53c-1.46,0-2.91,0-4.37,0S52,131.83,52,134c0,1.23-.93.95-1.67.86a38,38,0,0,1-7.78-1.52c-1.26-.43-1.72-.1-1.88,1.12a9.37,9.37,0,0,1-.52,2.24c-.82,2-.42,3.24,1.91,3.51.4.05,1,.26,1.12.51,1.16,4.69,5.53,3.39,8.53,4.59.82.33,1.9,0,2.22,1.28.48,1.84.54,3.28-2,3.36-1.36.05-2.7.41-4.05.59-1,.14-1.67.48-1.34,1.64.4,1.38-.24,1.85-1.53,1.94s-2.3.82-1.78,2.37.3,3.23,2.89,2.94c4-.45,7.94-1.16,11.87-2,.86-.17,1.69-.62,2,.63s-.81,1.1-1.4,1.34c-3.5,1.41-3.37,1.34-2.21,4.95.61,1.9,1.45,2.26,3.3,1.82a45,45,0,0,0,24-14.28l.86-.93a3.74,3.74,0,0,1,.39,2.6q.15,48,.25,96c0,1.2,0,2.4-.1,3.59-.48,5.21-4.22,7.85-9.3,6.35a14.68,14.68,0,0,0-7-.31c-4,.71-7.49,0-10.58-3.36-16.8-18.27-27.77-39.38-31.77-64a115.56,115.56,0,0,1-1.32-18.4q0-83.67,0-167.35c0-2.11.48-2.67,2.64-2.66q59.15.1,118.3,0c1.9,0,2.59.34,2.58,2.46q-.09,125.76,0,251.53c0,2.07-.59,2.53-2.55,2.49a52.21,52.21,0,0,1-9.66-1c-3-.62-6.14-.66-9,.95a3.86,3.86,0,0,1-4.34-.08,6.75,6.75,0,0,0-6.6-.6,5.72,5.72,0,0,1-5.6-.55c-1.72-1.14-3.17-.89-4.87.39a6.58,6.58,0,0,1-10.45-4.8c-.13-1.37-.18-2.74-.18-4.11q0-34.26,0-68.52c0-.68.06-1.35.1-2.26,2.94,1.12,5.75,2.12,8.75,2.12.79,0,2.07.79,2.29-.73.18-1.3.41-2.65-1.52-3.23a21.68,21.68,0,0,1-4.82-2.34,10.76,10.76,0,0,1-5.58-9.74c0-3.6,0-7.19-.09-10.78,0-1.4,0-2,1.75-1.3,6,2.43,12.1,3.65,18.49,1.76.93-.28,1.67.26,2.47.48a37.17,37.17,0,0,0,8.8,1.6c1.23.05,2.76.7,3.07-1.52.11-.76,1.32-.54,2-.62a23.38,23.38,0,0,0,7.19-1.75c.73-.33,2.15-.65,1.36-1.91s-.19-3.76-2.81-3.57a23.9,23.9,0,0,0-2.79.35c-1.14.21-2.08.24-2.08-1.32,0-.69-.36-1-1.08-1.14a43.43,43.43,0,0,1-15.21-6.5c-.58-.41-1.94-.63-1.34-1.71s1.55-.08,2.24.21c8.85,3.61,17.82,4.6,27,1.33.88-.31,3-.25,2.08-2-.8-1.46-.05-4.93-3.71-3.76-.9.29-1.8.62-2.57-.71-.86-1.5-2.53.46-3.75-.4-.12-1.11.94-1,1.48-1.38.78-.61,2.87-.29,1.94-2.19-.68-1.39-.24-4.31-3.38-3-.68.27-1.1.08-1.38-.63-.35-.88.17-1.24.75-1.65a26.39,26.39,0,0,0,6.72-6.27c.52-.75,1.67-1.59.57-2.64-.87-.83-.85-2.48-3.14-2.06a29.28,29.28,0,0,0-4.89,1.18c-.16.06-.37.24-.46.19a5.17,5.17,0,0,0-4.59-.29,29.15,29.15,0,0,1-4.7,1.06c-.34-1,.44-1.37.77-1.88a14.41,14.41,0,0,0,2.69-7.1c.2-3.19-1.12-4.85-4.25-5.44-.82-.16-1.08.28-1.4.76a19.44,19.44,0,0,1-7.17,6.06c-1.12.62-2.24,1.75-3.48,0-.48-.68-1.23,0-1.85.22a28.92,28.92,0,0,1-5.88,1.92c0-1,.86-1.3,1.35-1.76,3-2.79,3-2.72,0-5.59-1-1-1.59-.72-2.53,0a30.11,30.11,0,0,1-7.47,3.87c-1.25.43-1.86.45-1.84-1.18,0-3.59,0-7.18-.16-10.77a1.77,1.77,0,0,1,1.38-2.08,11.81,11.81,0,0,0,2.59-1.08c1.24-.75,2.06-.42,3.13.47,4.73,3.95,10,6.93,16.29,7.38,5.6.4,10.82-1.13,15.87-3.38.37-.16,1-.53.95-.72-.7-4.48,3.46-3.8,5.59-5.15,1.1-.71,1.54-1,1.2-2.45-.41-1.71-1-2.22-2.75-1.75s-3.68.69-5.53,1C131.52,85.84,130.68,86.65,130.59,85.33Z"/><path class="cls-2" d="M212.87,102.31c-19.5,0-39,0-58.5.06-2.38,0-3-.68-3-3q.1-46.44,0-92.89c0-2.37.65-3,3-3q58.77.12,117.52,0c2.38,0,3,.67,3,3q-.11,46.46,0,92.9c0,2.36-.64,3-3,3C252.21,102.28,232.54,102.31,212.87,102.31Z"/><path class="cls-2" d="M213.38,175.15c19.51,0,39,0,58.51-.05,2.4,0,3,.65,2.92,3-1.05,26.86-10.38,50.59-27.45,71.18-20.76,25-47.39,40.1-79.52,45.29a99.92,99.92,0,0,1-14,1.25c-1.72,0-2.39-.35-2.39-2.23q.08-58.12,0-116.26c0-2.25,1.13-2.19,2.71-2.19Q183.75,175.17,213.38,175.15Z"/><path class="cls-3" d="M213.06,104.4c19.67,0,39.33,0,59-.06,2.28,0,2.84.62,2.83,2.86q-.13,31.56,0,63.11c0,2.24-.52,2.85-2.81,2.84q-59-.1-118,0c-2.12,0-2.71-.54-2.7-2.69q.12-31.68,0-63.36c0-2.42.84-2.75,2.95-2.75C173.9,104.43,193.48,104.4,213.06,104.4Z"/><path class="cls-4" d="M41.24,101.66c3,.88,5.95,2.18,9.17,2.25.91,0,2.15.59,2.54-.87s-.66-1.75-1.65-2.15a8,8,0,0,1-1.61-.78c-.56-.39-1.77-.43-1.46-1.39s1.28-1.19,2.36-1a46.16,46.16,0,0,0,13.52.86c2.73-.22,3-.77,2.59-3.37-.23-1.33-.76-1.86-2.18-1.79a30.88,30.88,0,0,1-11.36-1.55c-1.24-.41-2.59-.75-1.6-2.59.57-1-.41-1.37-1-1.69-1.46-.78-2-1.74-1-3.24.81-1.19.55-1.92-.82-2.53a12.19,12.19,0,0,1-4.55-3.67c-.35-.44-.95-.93-.38-1.54s1-.19,1.57.19a22,22,0,0,0,5.06,3c.63.25,1.53.71,1.8-.11.65-2,1.82-1.22,3-.87a49.87,49.87,0,0,0,17.45,2.27c1.15-.08,2.8.34,2.7-1.78-.08-1.7-.24-2.85-2.63-3-6.93-.43-13.27-2.49-17.81-8.24-.43-.55-1.25-1-.73-2.17,1.47,1.2,2.85,2.38,4.31,3.46.54.4,1.27,1.2,2,.27s0-1.48-.79-2a10.52,10.52,0,0,1-4-3.94C55.4,63,55,62.23,56,61.52a1.48,1.48,0,0,1,2.25.25c1.63,2.07,3.32,2.39,5.25.4.86-.88,1.79-.72,2.78-.08s2.35,1.39,3.53,2.08c1.57.91,3.06,2.43,4.68-.07.66-1,1.56-.08,2.25.28C79.93,66.06,83.2,67.47,87,67c4.53-.51,7.84-3.11,10.85-6.27.48-.51.61-1.47,1.6-1.43.57.75,0,1.33-.31,1.88-.44.76-.64,1.38.24,2s1.45,1.08,2.51.36a30.64,30.64,0,0,0,5.57-5.28c.47-.52.82-1.57,1.78-1,1.15.66.2,1.51-.06,2.21A9.6,9.6,0,0,1,108,61.73c-1.2,1.67-1.92,3,1,3.52,1.27.21.8,1.27.58,2.08a22.84,22.84,0,0,1-4.29,7.82c-.53.69-1.22,1.32-.11,2.07s1.31-.35,1.74-.86c1.77-2.11,2.65-4.89,4.34-6.9s5.21-1.08,7.49-2.73a6.1,6.1,0,0,1,1.11-.63c.67-.29,1.24-1.41,2-.86,1,.77-.27,1.45-.53,2.16-.21.56-.66,1.12,0,1.57,2,1.26.82,2.43-.11,3.53a10.74,10.74,0,0,1-2.09,1.89,1.81,1.81,0,0,0-.69,2.6c.53,1.24,1.32,1,2.29.81a34.46,34.46,0,0,0,12.7-5.92c.79-.57,1.58-1.54,2.56-.25s-.19,1.75-.79,2.31A35.73,35.73,0,0,1,132,76.42c-.81.58-1.86.86-1.21,2.33s1.6.88,2.56.86,2-1,3.33-.12c-2.19,2.16-4.95,3.06-7.52,4.28-.77.37-1.94.4-1.4,1.88.41,1.12.48,2.4,2.18,2.28,1.36-.1,2.73-.1,4.1-.14.59-.1,1.33-.73,1.54.44l-3,1.37c-.65.29-1.3.66-1.08,1.5.57,2.18-1,2.52-2.46,3.09-10.51,4.18-19.77,1.89-28-5.51-1.3-1.18-2.15-1.34-3.73-.53-7.7,4-15.6,3.76-23.53.64-.83-.32-1.64-.88-2.13.28s.63,1.34,1.25,1.56c1.56.57,2.06,1.55,2.32,3.2a12.14,12.14,0,0,0,11.55,9.87c1.35,0,1.8-.43,1.82-1.74,0-2.48.23-5,.31-7.43,0-1,.19-1.68,1.39-1.62s1.07.91,1.08,1.65q.09,4.23.11,8.46c0,1.6.65,3.6-2.18,3.5-.6,0-.78.61-.7,1.16.13.82.79.74,1.39.75a20.42,20.42,0,0,0,9.14-2.2c1.07-.52,2.08-1.18,3.16-1.71.76-.37,1.64-1.53,2.42-.37s-.75,1.46-1.27,2.11c-1,1.25-3.39,1.85-1.61,4.24a1.72,1.72,0,0,0,2.13.83c1.63-.51,3.28-1,4.89-1.53,1-.35,2-1,2.91.27.6.82,1.43.11,2.09-.17a25.66,25.66,0,0,0,8.81-6.07c.64-.69,1.16-1.47,2.35-.88s1,1.45,1,2.39a11.6,11.6,0,0,1-3.34,7.31c-.61.66-1.2,1.21-.54,2.19s1,1.89,2.28,1.67l4.79-.85c1.1-.2,2.27-1,3.19.45.27.42.8.24,1.16,0,2.07-1.26,4.33-1.24,7.15-1.06a24.34,24.34,0,0,1-8.57,7.67,30.85,30.85,0,0,1-6.48,2.37c-.76.23-1.57.4-1.27,1.49.35,1.24,1.19.6,1.87.44a23.13,23.13,0,0,0,2.95-.85c1.68-.65,3.33-1.67,3.82,1.33.19,1.17,1.25.36,1.93.38s1.33-.43,1.59.3-.6,1-1.09,1.1c-2.86.58-2.17,2.4-1.6,4.24.27.85.61,1.31,1.63,1.12,1.23-.24,2.46-.51,3.28,1.06.42.79,1.4.06,2.13,0,.89-.11,2.1-.63,2.29.74.17,1.16-1.13,1-1.86,1.26-8.63,2.65-16.89,1.14-25-2.32-1.57-.67-4.6.7-5.06,2.3-.23.79.46,1,.86,1.38a33.39,33.39,0,0,0,11.5,6.57c2.07.71,3.42,3.23,6.09,2.41.08,0,.33.19.35.31.67,3.38,3.07,1.89,5,1.79.79,0,1.84-.6,2.16.63s-1,1.16-1.65,1.39a34.2,34.2,0,0,1-5.78,1.06c-1.11.17-2.53-.26-3.12,1.54-.29.88-1.73.4-2.62.27a39.66,39.66,0,0,1-23-11.33,99.73,99.73,0,0,1-8.5-10.19c0,4.2,0,8.4,0,12.6,0,1,.94,1.36,1.61,1.85a27.27,27.27,0,0,0,13.53,5c.8.09.8.08,2.38,1a29.86,29.86,0,0,1-17.62-5.08c.32,7-.49,13.56.64,20.05.8,4.62,4.31,7.18,8.16,9.28,0,1-.51.71-1,.49-2.44-.28-4.32-1.81-6.36-3a3.68,3.68,0,0,0-.41,2.6q0,35.93,0,71.86c0,1.2,0,2.39.1,3.59.44,7.45,7.64,11.09,13.84,6.93a2.2,2.2,0,0,1,2.77-.1,7.2,7.2,0,0,0,6.86.66,5.5,5.5,0,0,1,5.37.51,5.34,5.34,0,0,0,5.84.11,10.47,10.47,0,0,1,7.48-.93,42.92,42.92,0,0,0,10.94,1c1.44-.07,1.94.43,1.93,1.89,0,10-.05,20,0,30,0,1.94-.91,2-2.35,2a123.62,123.62,0,0,1-49.9-12.3,129.81,129.81,0,0,1-29.06-19.11c-.93-.8-1.81-1.68-3.23-3,4.67.46,8.43-.83,12.56.26,5.74,1.52,10-2.1,10.62-8a37.29,37.29,0,0,0,.13-4.36q0-40.29-.12-80.58c0-7.36-.1-14.71-.18-22.07,0-.63.25-1.34-.47-2.12A40.77,40.77,0,0,1,76.3,156.16a42.72,42.72,0,0,1-15.8,7.67c-1,.25-2,.7-2.4-.86s.91-1.33,1.63-1.71c1-.5,2.79-.47,2.8-1.42,0-1.53-.81-3.09-1.42-4.59-.38-.94-1.2-.3-1.79-.19-3.19.59-6.37,1.29-9.56,1.85a7.38,7.38,0,0,1-4.41,0c.5-1,1.43-1,2.14-1.18s1.49-.3,1.32-1.22c-.39-2.1,1.13-2.13,2.44-2.37,4.39-.8,8.71-1.82,12.59-4.14.56-.33,1.64-.47,1-1.62s-1.19-.54-1.91-.18c-1.53.76-3.08,1.48-4.67,2.1-.61.24-1.59.89-1.92-.27-.25-.86-.94-2.09.66-2.51.65-.18,1.14-.36,1-1.17s-.86-1-1.56-.88a21.33,21.33,0,0,1-9.06-1.28c-.78-.26-1.78-.45-1.61-1.64.21-1.51-1-1.56-1.9-1.9s-1.87-.45-1.57-1.84c.33-1.55,1.3-.92,2.17-.76a52.34,52.34,0,0,0,9.15,1.11c.83,0,2,.66,2.38-.72s-1.31-1-2.25-2.39c2.45,0,4.47-.14,6.47,0s2.91-.47,3-2.38c.08-1.11.67-1.55,1.75-1.83,5.7-1.49,11.44-2.89,16.5-6.13.74-.47,1.48-.17,2.23-.11a33.74,33.74,0,0,0,12-.72c.59-.16,1.52-.07,1.3-1.15s-.86-1.09-1.75-.84c-8.71,2.54-16.48-.45-24.16-4.07-1.41-.67-1.47-1.39-.51-2.47.4-.44.65-1,1.06-1.44,1.23-1.26.91-2.1-.51-3a19.68,19.68,0,0,1-3-2.45c-.67-.63-1.16-.5-1.74.08s-.08,1,.31,1.45a.82.82,0,0,0,.18.19c3.17,1.75,2.82,3.8.52,6-.18.18-.46.48-.41.63,1.09,3.43-1.93,2.5-3.23,2.73-6.43,1.14-12.8,1.08-18.62-2.47-1.75-1.07-4-2.1-1.72-4.78.77-.89-.28-1.34-.8-1.81a83.46,83.46,0,0,1-8.32-8.38c1.42-.22,1.95.63,2.64,1.11A23.89,23.89,0,0,0,41.57,105c.72.29,1.48.71,1.89-.4.35-.93-.3-1.16-1-1.45a18.17,18.17,0,0,1-1.78-1C40.63,101.7,40.67,101.39,41.24,101.66Z"/><path class="cls-4" d="M105.85,22.62c-.92.63-1.79,1.33-2.75,1.89s-1.37,1.19-.8,2.44c1.63,3.55,1.55,3.58,4.8,1.31l4.15-2.87.5.55c-1.15,1-2.32,1.9-3.42,2.91-.5.45-1.71.81-.9,1.72,1.57,1.76.25,2.49-1,3.33a37.07,37.07,0,0,1-3.85,2.54c-1.45.76-1.7,1.51-.9,3s1.34,1.9,2.93,1.2a71.34,71.34,0,0,0,8.44-4.32c.56-.34,1.18-.93,1.8-.21s0,1.17-.3,1.63a27.13,27.13,0,0,1-2.84,3.62c-.92.91-.57,1.61-.15,2.49.58,1.19,1.4.69,2.14.33,1.31-.62,2.58-1.34,3.87-2s2.66-2.49,4.35-.34c.47.6,1.1-.12,1.57-.41a1,1,0,0,1,1.51.36c.41.58,0,.92-.33,1.32-4.68,6.29-18.49,8.45-25,3.91-.28-.19-.59-.33-.84-.47.29-.41.35-.58.46-.65.76-.45,2.4.59,2.33-1.16s-1.55-.93-2.4-.94c-8-.11-8,0-14.55,4.1a26.66,26.66,0,0,1-21.17,3.33c-.83-.2-2.45.07-2-1.89.36-1.7,1.4-1.33,2.51-1.2s2.41.06,3.59.24c1.46.22,1.92-.52,2.22-1.77.45-1.88.35-2.79-2.08-3.06-5.54-.6-9.35-3.87-11.62-8.92-.25-.57-.77-1.21,0-1.82s1.18.13,1.67.55.78,1.23,1.41.59c1.7-1.7,2.63,0,3.85.69,1.65,1,3,3.54,5.37,1.13,2.57,1.53,4.14-.13,5.91-1.64.36-.32,1.56.39,2.39.57.63.14,1.39.55,1.71-.44s-.26-1.31-1.14-1.54a12.35,12.35,0,0,1-7-4.44c-.33-.44-1-.88-.56-1.54s1-.6,1.7-.75c3.72-.75,5.87,2.53,9,3.3,1.42.35,2.5.83,3.5-.75.59-.92.61-1.42-.2-2.11a14.67,14.67,0,0,1-3.6-4.31c-.37-.69-.8-1.34.18-1.95a1.41,1.41,0,0,1,2.17.26c.74.82,1.45,2.88,2.74,1.8,1.66-1.39-.8-2.1-1.29-3.18S82.78,17,82.2,16c-.28-.49-.71-1.05.08-1.53a1,1,0,0,1,1.5.4c1.22,2.34,2.82,2.63,4.88,1a1.28,1.28,0,0,1,1.44-.2c5.31,2.73,9.55.73,13.32-3.13.42.5-.26,1,0,1.21,2.2,2.09.26,3.35-1,4.67-.93,1-1.22,1.72-.23,3s1.87,1.5,3.14.65C105.88,21.9,106,22.16,105.85,22.62Z"/><path class="cls-5" d="M86.74,97.15a2.26,2.26,0,0,1,0,.26c-.16,4.62-1,5.06-5,2.64a9.88,9.88,0,0,1-4.45-6c-.39-1.32-.13-1.94,1.39-1.59a26.47,26.47,0,0,0,6.58.56c1.2,0,1.73.3,1.59,1.56a23.91,23.91,0,0,0,0,2.54Z"/><path class="cls-6" d="M94.48,139.64c2,2.19,3.6,4,5.34,5.73s3.63,3.24,5.78,5.15a23.55,23.55,0,0,1-10.36-4.26c-1.26-.85-.65-2.16-.75-3.28C94.41,142.06,94.48,141.13,94.48,139.64Z"/><path class="cls-7" d="M90.82,46.18c0,5.69,0,10.9,0,16.1,0,.93-.14,1.9-1.2,1.93-1.29,0-.67-1.15-.67-1.74,0-4.44,0-8.88,0-13.33A2.63,2.63,0,0,1,90.82,46.18Z"/><path class="cls-8" d="M98.78,49a15.47,15.47,0,0,1-1.29.87c-1.51.72-3.36,2.37-4.58,1.5s-.26-3.17-.39-4.85c-.11-1.32.61-1.38,1.58-1C95.93,46.11,97.06,47.66,98.78,49Z"/><path class="cls-9" d="M86.59,49.37c.6,1,.25,1.94.35,2.83.14,1.33-.5,1.58-1.66,1.31s-2.58-.43-2.8-1.39,1.37-1.17,2.15-1.71A17.36,17.36,0,0,1,86.59,49.37Z"/><path class="cls-10" d="M63.1,45.79c.73-.16,1.55.08,2.19-.48l2.36.48A7.44,7.44,0,0,1,63.1,45.79Z"/><path class="cls-11" d="M135.56,88.23,134,87.79a5,5,0,0,1,2.8-.51C136.52,88.1,136,88.1,135.56,88.23Z"/><path class="cls-12" d="M41.24,101.66l-.54.48A2.74,2.74,0,0,1,39,100.81,2.92,2.92,0,0,1,41.24,101.66Z"/><path class="cls-13" d="M100.15,178.73l1-.49c.46.13,1,.19,1.21.78A2,2,0,0,1,100.15,178.73Z"/><path class="cls-14" d="M105.85,22.62l-.52-.52c.41-.39,1-1,1.4-.4C107.05,22.14,106.3,22.44,105.85,22.62Z"/><path class="cls-15" d="M130.59,85.33c.32.66,1,.25,1.48.51a1.47,1.47,0,0,1-1.85.15C130,85.77,130.16,85.39,130.59,85.33Z"/></svg>