<svg id="Layer_1" data-name="Layer 1" xmlns="http://www.w3.org/2000/svg" viewBox="0 0 300 300"><defs><style>.cls-1{fill:#f5c00e;}.cls-2{fill:#f4bf0e;}.cls-3{fill:#f3be0e;}.cls-4{fill:#e9b60d;}.cls-5{fill:#271f02;}.cls-6{fill:#0b0901;}.cls-7{fill:#1d1702;}.cls-8{fill:#261e02;}.cls-9{fill:#c0960b;}.cls-10{fill:#050400;}.cls-11{fill:#292002;}.cls-12{fill:#1b1602;}.cls-13{fill:#322703;}.cls-14{fill:#030200;}.cls-15{fill:#403304;}.cls-16{fill:#372b03;}.cls-17{fill:#231b02;}.cls-18{fill:#725906;}.cls-19{fill:#362b03;}.cls-20{fill:#020200;}.cls-21{fill:#181201;}.cls-22{fill:#382c03;}.cls-23{fill:#120e01;}.cls-24{fill:#1a1401;}</style></defs><path d="M21.74-.61H278.26a1,1,0,0,1,1,1V174.06A125.93,125.93,0,0,1,153.33,300h-4.09A128.49,128.49,0,0,1,20.75,171.5V.38a1,1,0,0,1,1-1Z"/><path class="cls-1" d="M124.47,200.26c0-29.87.07-59.73-.09-89.6,0-3.6,1-4.37,4.44-4.32,14.36.21,28.73.15,43.1,0,2.64,0,3.6.56,3.6,3.44q-.14,90.44,0,180.88c0,2.37-.53,3.42-3.07,3.83a142.07,142.07,0,0,1-44.57.09c-2.82-.43-3.47-1.57-3.46-4.34C124.51,260.27,124.47,230.26,124.47,200.26Z"/><path class="cls-1" d="M166,60.74c-1.28-1.48-2.48-3.05-3.88-4.42-2-2-2.45-6.21-5.09-6.28-4.9-.15-10.1-.32-14.69,2.36a45.79,45.79,0,0,1-15.42,5.46c-6,1-12,2-17.65-1.3a7.09,7.09,0,0,1-2-1.74,12.15,12.15,0,0,0-1.61-2.46c0,.06,0,0,0,0a10.2,10.2,0,0,1,1.51,2.21,6.22,6.22,0,0,1,1.25,2.84l1,2.43c1.62,1.93,1.46,3.81-.16,5.65a1.29,1.29,0,0,1-1.29.23c-6.31-.11-12.63.44-18.94-.24-1.57-.17-3.31,0-3.89,1.73-.65,2,.84,3.17,2.35,4,3.44,1.82,6.51,6.2,11,1.72.71-.71,1.14.21,1.51.8,1.22,1.94.38,3.89-.33,5.59S97.19,81,95.58,80.75c-7.65-1-13.3-5-17.18-11.57-2.7-4.54-1.26-7.05,4-7.74,4.24-.57,8.75.33,12.63-2.24.36-2.21.13-4.05-2.63-4.39A10.34,10.34,0,0,1,87,52.56a27.79,27.79,0,0,0-17.35-5.62c-9,.17-17.7-3.46-26.79-2.3-1.67.21-3.48-.37-3.44-2.2s2-.71,3.1-1.06a9.09,9.09,0,0,1,1.66-.23c.88-.9,2.06-.59,3.11-.82-2.26.5-4.53-.94-6.8,0A23.15,23.15,0,0,1,36,39.41a4.64,4.64,0,0,1-3-4.24c.07-1.46,2.14-1.29,3.43-1.58C42,32.31,47.47,31,51.45,26.07a7.14,7.14,0,0,1,8-2.41C59,19.47,60.6,15.73,61.77,11.1c2.58,3.62,5,6.37,6.28,9.9.34.65.58,1.48,1.61.9,1.27.06,2.66-.2,3.77.24,8.71,3.43,17.77,2.23,26.72,2,19.7-.47,39.4-1.14,59.11-.63,5.4.13,10.77,1,15.52,3.55,16.65,8.87,34.35,15.41,51.3,23.59,11.83,5.71,22.24,13.72,33.5,20.34a17.23,17.23,0,0,1,7.28,9.07A11.39,11.39,0,0,1,258,95.38c-2.41.39-4.79.3-6.57-1.8,3.51-4.25,2.38-9.11-2.79-11.32a23.75,23.75,0,0,0-6.89-1.88C229,79.16,218.7,72.86,209.13,64.94a2.24,2.24,0,0,1-.92-2c.31,1.23-.85,2.55-.08,3.92,0,2.78,1.24,5.13,2.5,7.5,3,5.67-1.86,14-8.23,14.06a28.16,28.16,0,0,1-3.78.1c-1.11-.13-3,2.07-3.29-1.15-.21-2.29.15-3.88,2.48-4.6a4.32,4.32,0,0,1,1.25-.14c2.25,0,4.87.44,5.58-2.49a9.92,9.92,0,0,0-2.58-9.38c-1.91-2.06-4.18-2.11-6.55-.92-5.71,2.87-11.22,1.42-16.71-.71-1.32-.29-2.7.16-4-.32a4.75,4.75,0,0,1-2.7-1.12,6.64,6.64,0,0,0-3.28-2.08,4.2,4.2,0,0,1-1-.66C166.77,63.74,166.49,62.18,166,60.74Z"/><path class="cls-1" d="M226.69,270.34v-4.07q0-77.73-.08-155.46c0-3.39.63-4.54,4.29-4.48,13.79.24,27.6.19,41.39,0,3,0,3.76.75,3.74,3.72-.16,21.12.49,42.27-.29,63.36-1.39,38-16.21,70-45.45,94.83C229.38,269,228.62,270.15,226.69,270.34Z"/><path class="cls-1" d="M73,270.81a114.1,114.1,0,0,1-25.89-27.05C32,221.84,24.4,197.41,24,170.85c-.3-20.27-.05-40.55-.14-60.83,0-2.51.29-3.71,3.33-3.67,14.22.18,28.44.12,42.66,0,2.38,0,3.49.33,3.49,3.15q-.14,79.64-.09,159.27A18.47,18.47,0,0,1,73,270.81Z"/><path class="cls-2" d="M108,65.76l.18.12a5,5,0,0,0,2-3.65c.24-1.46.21-3.2,2.56-2.41,5.7,5.44,9.39,12.62,15.48,17.78,2.58,2.2,1.47,6.35-1.84,7.49-4.47,1.55-9,3.18-14.19,2.26,1.12-3,2.16-5.71,6.11-5.78,1.46,0,3.28-.62,3.48-2.49.18-1.7-1.51-2.21-2.69-2.88a43.34,43.34,0,0,1-9.48-7C108.67,68.32,107.1,67.56,108,65.76Z"/><path class="cls-3" d="M172.8,66.69l2.63.9c.76.86,1.95,1.33,2.31,2.55,1.08,2.26,3.1,4.58,3,6.77s-4.12,2.17-5.27,4.26c-4.11,7.45-10.82,6.43-17.67,5.68.76-3.52,1.6-6.41,6.46-5.13a5.87,5.87,0,0,0,6.81-3c1.6-2.84-.09-4.81-1.93-6.65a12.09,12.09,0,0,1-3.92-9.41c2-1.42,2.37.65,3.31,1.52l.76,0A39.14,39.14,0,0,1,172.8,66.69Z"/><path class="cls-4" d="M73.79,18.48c-.87,1.81-2.44,2.65-4.12,1.68-2.15-1.23-.12-2.64.41-3.84a8.65,8.65,0,0,1,3.31-3.75,9.9,9.9,0,0,1,1.44,4.81C75.2,18.43,74.69,18.64,73.79,18.48Z"/><path class="cls-5" d="M208.13,66.84c-1.44-2.52-.27-5.33-.95-8,2.07,1.61,1.46,4,1.95,6.06Z"/><path class="cls-6" d="M40.5,40.35c2.92-1.07,5.92-.8,9.6-.59a8.64,8.64,0,0,1-5.91,1.39Z"/><path d="M92.37,54.81c.18-.59-1.55-2.44.44-1.61,2.17.9,4.64,2.86,2.19,6A8.8,8.8,0,0,0,92.37,54.81Z"/><path class="cls-7" d="M69.66,21.9c-.33,1.25.45,2.75-1.61,4.43V21Z"/><path class="cls-8" d="M110.78,63.22c-.37,1.39-.86,2.66-2.64,2.66.74-1.94,1.76-3.81,1.27-6,.26,0,.53,0,.79-.05C111,60.86,110.27,62.15,110.78,63.22Z"/><path class="cls-9" d="M73.79,18.48l1-1.1a3.12,3.12,0,0,1,.25,3.44C73.83,20.45,73.92,19.4,73.79,18.48Z"/><path class="cls-10" d="M110.78,63.22c-.19-1.13-.39-2.26-.58-3.39a1.64,1.64,0,0,1,2.51,0C109.81,59.67,111.63,62.2,110.78,63.22Z"/><path class="cls-11" d="M168.5,64.13c-1.22-.25-1.84-1.81-3.31-1.52l.76-1.87C167.06,61.68,169.09,61.92,168.5,64.13Z"/><path class="cls-12" d="M177.74,70.14c-.82-.8-2.4-.92-2.31-2.55,1.23.27,2.54.37,3.37,1.52Z"/><path class="cls-13" d="M108.41,57.45A3.53,3.53,0,0,1,107,54.79c.28-.6.62-.63,1-.1l1.24,1.87Z"/><path class="cls-14" d="M201.44,58.16a9.14,9.14,0,0,1-5.76,3.21c-2.76.31-5.42-.48-6-3.42-1.48-7.62-5-14.22-10.12-21,5.18.18,8.1,2.43,10.2,5.91,1.81,3,3.31,6.19,5.14,9.18,1.38,2.26,2.81,4.59,5.69,5.31C201.5,57,201.62,57.42,201.44,58.16Z"/><path class="cls-15" d="M53.48,32.74c-1.33.22-2.83.69-2.36-1.65.64-.95-.25-2.62,1.46-3.05,1.15.26,1.92.84,1.89,2.15C55,31.36,54.3,32.08,53.48,32.74Z"/><path class="cls-16" d="M105.17,52.26a5.2,5.2,0,0,1-2.1-4.25c2,.78,2.19,2.79,3.29,4.15A.75.75,0,0,1,105.17,52.26Z"/><path class="cls-17" d="M201.44,58.16l-.83-.8c1.73-1.26,3.4-1.16,6.21.47Z"/><path class="cls-18" d="M53.48,32.74l1-2.55L58,32.08C56.31,33.11,54.85,32.66,53.48,32.74Z"/><path class="cls-19" d="M172.8,66.69a3.63,3.63,0,0,1-3.54-2.59C171.05,64.12,172.41,64.74,172.8,66.69Z"/><path class="cls-20" d="M65.56,26.28l-.17-3.67C66.81,23.67,67.23,24.52,65.56,26.28Z"/><path class="cls-21" d="M69.45,37.07c.19,1.27.52,2.58-.86,3.66-1-1.41,0-2.5,0-3.62A.55.55,0,0,1,69.45,37.07Z"/><path class="cls-22" d="M105.17,52.26l1.19-.1L108,54.69l-1,.1A3.35,3.35,0,0,1,105.17,52.26Z"/><path class="cls-23" d="M52.58,28l-1.46,3.05C51.44,30,49.38,27.76,52.58,28Z"/><path class="cls-24" d="M69.45,37.07l-.85,0c-.41-.71-.91-1.39-.36-2.32A2.24,2.24,0,0,1,69.45,37.07Z"/></svg>