<svg id="Layer_1" data-name="Layer 1" xmlns="http://www.w3.org/2000/svg" viewBox="0 0 300 300"><defs><style>.cls-1{fill:#c3c3c5;}.cls-2{fill:#b90838;}.cls-3{fill:#b90938;}.cls-4{fill:#c4c3c5;}.cls-5{fill:#b90939;}.cls-6{fill:#b80a39;}.cls-7{fill:#b60e3b;}.cls-8{fill:#b50e3b;}.cls-9{fill:#c4bcc0;}.cls-10{fill:#b80838;}.cls-11{fill:#c5c5c8;}.cls-12{fill:#b80938;}.cls-13{fill:#c6c3c6;}.cls-14{fill:#b5133f;}.cls-15{fill:#b70b3a;}.cls-16{fill:#b50d3b;}.cls-17{fill:#b60f3c;}.cls-18{fill:#c4bdc1;}.cls-19{fill:#c3bcc0;}.cls-20{fill:#c4c2c5;}.cls-21{fill:#c4c2c4;}.cls-22{fill:#b71440;}.cls-23{fill:#a42a4b;}.cls-24{fill:#a8274a;}.cls-25{fill:#c2c3c5;}.cls-26{fill:#daa155;}.cls-27{fill:#daa154;}.cls-28{fill:#d9a154;}.cls-29{fill:#d9a054;}.cls-30{fill:#d8a054;}.cls-31{fill:#d79f53;}.cls-32{fill:#050402;}.cls-33{fill:#070503;}.cls-34{fill:#030201;}</style></defs><path d="M25.16.36H275.39a1,1,0,0,1,1,1V174a126,126,0,0,1-126,126h0A126.22,126.22,0,0,1,24.17,173.78V1.36a1,1,0,0,1,1-1Z"/><path class="cls-1" d="M173,3.69h3.38c3.24,1.05,5,3.9,7.3,6.07,3.86,3.64,3,3.62,6.77,0,2.3-2.17,4.08-5,7.27-6.11H201c3.61,1.68,5.83,5,8.88,7.41,2.26,1.76,2.16,1.91,4.26-.15,1.57-1.54,3.15-3.06,4.65-4.66a11.26,11.26,0,0,1,3.68-2.6h3.29c3.33,1.22,5.2,4.19,7.62,6.47,3.06,2.89,2.94,2.89,6.06-.05,2.42-2.28,4.26-5.29,7.65-6.42h3.39c3.15.86,4.82,3.59,7,5.65,4.46,4.21,3.22,4.2,7.66,0,2.12-2,3.81-4.57,6.73-5.62,1.4-.35,1.89.19,1.55,1.56-.87,2.52-3,4-4.72,5.84-1,1.1-2.11,2.18-3.21,3.22s-1.1,1.92,0,3c1.81,1.77,3.55,3.61,5.38,5.35a8.94,8.94,0,0,1,2.57,4V30c-1.05,3.23-3.9,5-6.06,7.3-3.65,3.86-3.63,3-.05,6.76,2.17,2.3,5,4.09,6.11,7.27,0,1.1,0,2.2,0,3.3-1.7,3.61-5,5.87-7.44,8.86-1.23,1.5-1.23,2.24,0,3.74,2.44,3,5.74,5.25,7.44,8.86,0,1.1,0,2.2,0,3.3-1.22,3.33-4.19,5.2-6.47,7.63-2.89,3.06-2.89,2.93,0,6,2.28,2.42,5.28,4.27,6.42,7.65v3.4c-.86,3.15-3.58,4.81-5.64,7-4.22,4.46-4.21,3.21,0,7.65,2,2.12,4.56,3.81,5.62,6.73v3.29c-.87,2.51-3,4-4.72,5.83q-1.56,1.65-3.21,3.23c-1.09,1-1.1,1.92,0,3,1.81,1.78,3.55,3.61,5.38,5.36a8.83,8.83,0,0,1,2.57,4v3.39c-1.05,3.25-3.9,5-6.08,7.32-3.61,3.84-3.6,2.92,0,6.77,2.16,2.31,5.1,4,6,7.33-.1,1.17-.19,2.33-.29,3.5-1.58,3.46-4.64,5.74-7,8.52-1.4,1.62-1.27,2.42.08,3.91,1.71,1.9,4,3.49,4.49,6.28l-.33,2c-1.41.39-2.19-.62-3-1.41-1.55-1.43-3-3-4.51-4.46a1.7,1.7,0,0,0-2.8,0c-2.26,2.28-4.55,4.53-6.8,6.82a1.59,1.59,0,0,0,0,2.6c2.25,2.29,4.54,4.55,6.81,6.83,1,1,1.86.85,2.79-.1s2-2.08,3.09-3c.73-.62,1.41-1.55,2.62-1a7.39,7.39,0,0,1-1,3.39,18.13,18.13,0,0,1-1,1.69,5.79,5.79,0,0,0-1.47,5.81l-.66,1.61c-1.82,1-2.41-1.25-3.78-1.41-.87-.33-2.13.25-2.58-1.07a3.88,3.88,0,0,0-1.12-3.18c-2.26-2.14-4.44-4.37-6.61-6.59-1.08-1.1-2-1.33-3.16-.11q-3.25,3.34-6.6,6.6a3.92,3.92,0,0,0-1,3.22,1.6,1.6,0,0,1-1.24,1.28,4.38,4.38,0,0,0-3.8,1.53c-1.9,2-3.91,4-5.91,5.94-1.14,1.11-1.26,2-.06,3.19,2.24,2.18,4.47,4.39,6.63,6.65a4,4,0,0,0,3.21,1.14c1.34.48.72,1.77,1.11,2.65,1.67,2.78,4.37,4.6,6.46,7,.81.93,1.9,1.74,1.44,3.24l-1,1.3c-1.43.48-2.21-.57-3-1.35-1.86-1.74-3.62-3.57-5.41-5.37a1.7,1.7,0,0,0-2.8,0c-2.22,2.21-4.42,4.44-6.65,6.64-1.11,1.09-1,2,.06,3,2,2,4,3.93,5.92,5.94.76.78,1.63,1.53,1.46,2.81l-1.41,1.35c-1.27.1-2-.79-2.77-1.55-2-1.93-4-3.92-5.93-5.9-1.07-1.08-2-1-3,0-2.13,2.17-4.27,4.33-6.46,6.45-1.2,1.17-1,2.09.08,3.18,1.64,1.59,3.26,3.19,4.83,4.85.81.86,1.73,1.71,1.23,3.09l-1.61,1.1c-1.25.09-2-.76-2.8-1.52-1.64-1.59-3.26-3.2-4.84-4.84-1.1-1.14-2-1.27-3.18-.07q-3.09,3.19-6.29,6.28c-1.25,1.2-1.33,2.2,0,3.37.89.78,1.7,1.65,2.51,2.51s1.43,1.48,1.23,2.65l-1.8.9c-2.09.43-3-1.33-4.13-2.42-2.19-2-2.2-2.05-4.26,0-1.81,1.77-3.55,3.61-5.39,5.35a4.69,4.69,0,0,0-1.69,3.77c-3.07,0-5.43,2.53-8.55,2.37-.45-1.37.74-1.9,1.4-2.66s1.18-1.63.2-2.59c-2.81-2.76-5.38-5.77-8.47-8.22-.34-.06-.75-.19-1,0C171,281,168,283.3,166,286.63c-.58,1,0,1.71.62,2.41,1,1,2,2,2.93,3.06.61.75,1.41,1.51.65,2.63l-2.26.2c-1.86-.19-3-1.56-4.1-2.78s-2.16-1.22-3.37,0c-1.59,1.61-3,3.52-5.36,4.11l-2.61.07c-.39-1.31.57-2,1.29-2.81,1.37-1.49,2.85-2.88,4.26-4.33.82-.84,1.13-1.62.18-2.6-2.36-2.41-4.73-4.81-7.16-7.15a1.4,1.4,0,0,0-2.21,0c-2.43,2.34-4.8,4.74-7.16,7.15-.95,1-.64,1.76.18,2.6,1.41,1.45,2.89,2.84,4.26,4.33.72.78,1.68,1.5,1.31,2.81l-2.62-.07c-2.39-.58-3.78-2.5-5.36-4.11-1.21-1.23-2.17-1.32-3.38,0s-2.24,2.58-4.09,2.79l-2.27-.21c-.9-1.9.79-2.66,1.69-3.72,1.3-1.54,3.27-2.66,3-5.13.52-1.29,1.8-.67,2.67-1.08,3.43-2.36,6-5.64,8.92-8.49a1.22,1.22,0,0,0-.05-2c-3.14-3-5.88-6.48-9.5-9a3.49,3.49,0,0,1-1.06-1.46c-2.75-3.1-5.8-5.9-8.69-8.85-.68-.69-1.41-1.35-2.35-.37-2.84,3-6.14,5.54-8.5,9-.37.86.23,2.14-1.09,2.6a3.9,3.9,0,0,0-3.2,1.13c-2.16,2.27-4.39,4.47-6.63,6.66-1.18,1.14-1.16,2.05,0,3.17,1.82,1.77,3.67,3.52,5.36,5.41,1.36,1.51,2.78,2.4,4.84,1.61a1.43,1.43,0,0,1,1.24,1.22c-.41,1.71-.35,3.26,1.18,4.52a1.88,1.88,0,0,1,.65,2.26c-2.81-.68-5.29-2.41-8.25-2.59a5.26,5.26,0,0,0-1.91-4c-1.9-1.8-3.78-3.63-5.55-5.56-1.37-1.5-2.41-1.33-3.74.05-1.19,1.22-2.18,2.92-4.31,2.67l-1.7-.74c-.37-2.19,1.45-3.1,2.61-4.34,2.3-2.44,2.35-2.4,0-4.73-2-2-4-3.94-5.93-5.93-1.06-1.08-1.93-1.09-3,0-1.6,1.63-3.22,3.25-4.86,4.84-.8.76-1.59,1.57-2.87,1.31l-.42-.32c-.84-1.2.18-1.85.83-2.54,1.6-1.71,3.29-3.35,4.94-5,.64-.64,1.43-1.23,1-2.34-2.46-3-5.42-5.58-8.13-8.36-.94-.95-1.73-.73-2.6.12-2,2-3.93,4-5.94,5.9-.85.81-1.64,1.76-3,1.61l-1.26-1.19c-.18-1.37.73-2.19,1.54-3,1.87-1.95,3.79-3.85,5.72-5.73,1.11-1.09,1.32-2,.1-3.17q-3.27-3.18-6.44-6.44c-1.16-1.2-2.08-1-3.17.08-1.7,1.76-3.42,3.5-5.2,5.17-.84.79-1.62,1.83-3,1.34l-1-1.3c-.47-1.39.46-2.23,1.26-3.08,1.69-1.77,3.42-3.49,5.18-5.2,1.07-1,1.15-1.89,0-3-2.24-2.17-4.43-4.39-6.63-6.6-1.23-1.25-2.25-1.17-3.42,0q-1.48,1.54-3,3a3.3,3.3,0,0,1-2.36,1.31,3.06,3.06,0,0,1-1-1.7c.24-1.53,1.36-2.46,2.36-3.48,3.59-3.67,3.62-3-.09-6.76-1.36-1.38-2.78-2.7-4.09-4.12-1.14-1.24-2.2-2.11-3.75-.54a.93.93,0,0,1-1.52,0L35,216.35c1.26-3.2-1.31-5.13-2.51-7.52a7.44,7.44,0,0,1-1-3.39c1.79-.57,2.56.93,3.53,1.85,4.14,3.92,3.1,4.11,7.28-.07a48.12,48.12,0,0,0,5.74-6,1.69,1.69,0,0,0-.58-1.79q-3.42-3.47-6.88-6.89a1.61,1.61,0,0,0-1.8-.49c-2.21,1.59-3.85,3.78-5.87,5.57-.92.82-1.7,2-3.22,1.59l-.33-2a5.19,5.19,0,0,1,1.8-3.22c1.08-1.06,2.13-2.15,3.17-3.25a2.29,2.29,0,0,0,0-3.53c-1.18-1.32-2.41-2.58-3.69-3.8a15.26,15.26,0,0,1-3.79-4.94L26.61,175c.68-2.85,3.08-4.36,4.94-6.27,4.38-4.49,4.39-4.43,0-8.92-1.87-1.9-4.19-3.48-5-6.25v-3.37c.85-3.16,3.58-4.83,5.64-7,4.22-4.46,4.21-3.22,0-7.66-2-2.12-4.57-3.81-5.62-6.73v-3.27c.86-2.52,3-4,4.72-5.85,1-1.1,2.11-2.18,3.21-3.22s1.1-1.92,0-3c-1.81-1.77-3.55-3.61-5.38-5.36a8.75,8.75,0,0,1-2.57-4v-3.38c1-3.24,3.89-5,6.06-7.3,3.65-3.87,3.63-3,0-6.77-2.17-2.3-5-4.09-6.11-7.28V76.12c.82-2.21,2.62-3.65,4.21-5.26.82-.84,1.67-1.66,2.49-2.51,2.66-2.78,2.61-3.1,0-5.95-2.31-2.53-5.31-4.46-6.71-7.76V51.36C27.76,48,30.73,46.15,33,43.72c2.89-3.06,2.89-2.93,0-6-2.28-2.43-5.29-4.27-6.42-7.66V26.63c.85-3.16,3.58-4.82,5.64-7,4.22-4.45,4.21-3.21,0-7.66-2-2.11-4.57-3.8-5.62-6.73-.35-1.39.19-1.89,1.56-1.55,2.52.87,4,3,5.84,4.72q1.65,1.58,3.23,3.22c1,1.09,1.92,1.08,3,0,1.78-1.81,3.61-3.55,5.36-5.38a8.75,8.75,0,0,1,4-2.57h3.39c3.23,1.05,5,3.9,7.3,6.07,3.86,3.64,3,3.62,6.76,0,2.3-2.17,4.08-5,7.27-6.11h3.3c3.61,1.68,5.83,5,8.88,7.41,2.27,1.76,2.16,1.91,4.27-.15,1.56-1.54,3.14-3.06,4.64-4.66A11.26,11.26,0,0,1,99,3.69h3.29c3.33,1.22,5.2,4.19,7.62,6.47,3.07,2.89,2.94,2.89,6.06-.05,2.42-2.28,4.26-5.29,7.66-6.42H127c3.15.86,4.82,3.59,7,5.65,4.45,4.21,3.21,4.2,7.65,0,2.12-2,3.81-4.57,6.73-5.62h3.28c2.52.87,4,3,5.84,4.72,1.1,1.05,2.18,2.12,3.22,3.22s1.92,1.08,3,0c1.77-1.81,3.61-3.55,5.36-5.38A8.75,8.75,0,0,1,173,3.69Z"/><path class="cls-2" d="M147.48,296.35c-2.36-2.42-4.68-4.9-7.11-7.25-1-1-1.11-1.6,0-2.63,2.88-2.74,5.68-5.57,8.44-8.43.92-1,1.51-1,2.44,0,2.82,2.93,5.7,5.8,8.61,8.63.89.86.83,1.42,0,2.26-2.47,2.43-4.85,4.95-7.27,7.43Z"/><path class="cls-2" d="M268.49,205.45c-2.43,1.3-4,3.61-5.91,5.44-.95.9-1.55,1.26-2.63.12-2.73-2.88-5.58-5.66-8.43-8.43-.87-.85-1.16-1.46-.12-2.46q4.38-4.22,8.61-8.6c1-1,1.56-.81,2.46.07,2.6,2.53,4.93,5.34,7.82,7.57C269.77,201.28,269.54,203.48,268.49,205.45Z"/><path class="cls-2" d="M29.69,199.18a81,81,0,0,0,8.48-8.4c.74-.74,1.23-.05,1.66.37q4.56,4.47,9,9c.45.46,1,.95.47,1.71-3,2.93-6.08,5.8-9,8.83-1.26,1.32-2,1.17-3.17,0-1.82-1.83-3.34-4-5.7-5.24C30.44,203.48,30.21,201.29,29.69,199.18Z"/><path class="cls-2" d="M53.71,249.32c3.12-2.47,5.71-5.49,8.52-8.28,1-1,1.63-1,2.63,0q4.11,4.31,8.41,8.43c1,.93.94,1.49,0,2.42-3.08,3-6.06,6.12-9.08,9.19A89.51,89.51,0,0,1,53.71,249.32Z"/><path class="cls-2" d="M235.82,261c-2.92-2.92-5.79-5.88-8.77-8.75-1.1-1-1.45-1.74-.12-3,2.85-2.63,5.56-5.41,8.23-8.22,1-1,1.61-1,2.62,0,2.81,2.79,5.4,5.8,8.5,8.28A78.24,78.24,0,0,1,235.82,261Z"/><path class="cls-2" d="M65.45,262.29c2.88-2.81,5.84-5.55,8.62-8.46,1.31-1.36,2.1-1.6,3.52-.07,2.8,3,5.84,5.78,8.78,8.65.81,1.2-.38,1.65-.93,2.22-2.57,2.65-5.19,5.26-7.82,7.85A89.9,89.9,0,0,1,65.45,262.29Z"/><path class="cls-2" d="M222.39,272.47c-2.59-2.67-5.13-5.39-7.79-8-1.07-1-1.25-1.71-.06-2.83,2.84-2.67,5.61-5.42,8.26-8.26,1.18-1.27,1.81-.88,2.81.14,2.88,3,5.86,5.87,8.8,8.8A79.77,79.77,0,0,1,222.39,272.47Z"/><path class="cls-2" d="M134.53,285.88c1.45,1.29,1.48,2.34-.08,3.77s-3.65,2.91-4.69,5.08a103.12,103.12,0,0,1-11.54-2.51,4.54,4.54,0,0,0-2-2.49c-1.72-1.27-1.83-2.5-.32-4,1.74-3.69,5.08-5.93,7.86-8.68a2,2,0,0,1,2.8.1c2.58,2.28,5.2,4.51,7.55,7A1.7,1.7,0,0,1,134.53,285.88Z"/><path class="cls-2" d="M170.23,294.73c-1.12-2.26-3.18-3.68-4.93-5.34-1.33-1.27-1.24-2.16-.05-3.27,2.64-2.83,5.43-5.51,8.17-8.23.49-.48,1-1.61,2-.55,2.89,2.94,5.69,6,8.71,8.79,1.44,1.34,1.4,2.17-.06,3.32a25.44,25.44,0,0,0-2.43,2.44C178,293.71,174.06,293.94,170.23,294.73Z"/><path class="cls-2" d="M43.71,234.56c1.84-1.87,3.7-3.71,5.5-5.61,1.14-1.2,2.09-1.43,3.37-.09q4,4.21,8.29,8.21c1.09,1,1,1.63,0,2.61-2.77,2.72-5.43,5.55-8.13,8.34A80.88,80.88,0,0,1,43.71,234.56Z"/><path class="cls-2" d="M247.32,248c-2.52-2.6-5-5.18-7.54-7.79-.63-.66-1.19-1.4-1.78-2.1,2.09-3.83,5.28-6.74,8.38-9.69,1.85-1.76,3-1.7,4.76.12s3.85,3.29,5.11,5.54c-.35,2.35-2,4-3.21,5.91A60.1,60.1,0,0,1,247.32,248Z"/><path class="cls-2" d="M78.75,273.24c2.84-2.15,5.14-4.86,7.62-7.37,1.18-1.19,1.92-1.5,3.21-.11,2.71,2.9,5.55,5.67,8.4,8.43.93.9,1,1.48,0,2.42-1.82,1.75-3.49,3.65-5.23,5.48A85.62,85.62,0,0,1,78.75,273.24Z"/><path class="cls-2" d="M207.41,282c-1.8-1.78-3.54-3.62-5.4-5.32a1.64,1.64,0,0,1-.06-2.75c2.86-2.86,5.76-5.68,8.57-8.59,1-1,1.55-.54,2.27.19l8,8.09A76.89,76.89,0,0,1,207.41,282Z"/><path class="cls-3" d="M26.54,54.64c3.24,3.21,6.46,6.44,9.73,9.61.86.84.89,1.41,0,2.26-3.29,3.17-6.5,6.41-9.74,9.61Z"/><path class="cls-3" d="M222.51,3.69c-3.21,3.24-6.43,6.46-9.6,9.74-.85.88-1.42.86-2.26,0-3.18-3.27-6.41-6.49-9.61-9.73Z"/><path class="cls-3" d="M99,3.69c-3.2,3.24-6.43,6.46-9.6,9.74-.85.88-1.42.86-2.26,0-3.17-3.27-6.4-6.49-9.61-9.73Z"/><path class="cls-3" d="M273.46,76.11c-3.24-3.21-6.46-6.44-9.74-9.6-.87-.85-.87-1.41,0-2.26,3.27-3.17,6.49-6.39,9.73-9.6Z"/><path class="cls-3" d="M261,215.16l3.38,2.79a79.78,79.78,0,0,1-7.09,14.9c-1,.87-1.7.11-2.36-.54-1.45-1.43-2.85-2.9-4.32-4.3a2.33,2.33,0,0,1-.08-3.76C253.81,221,256.81,217.42,261,215.16Z"/><path class="cls-2" d="M26.54,104.13c3.25,3.19,6.47,6.41,9.75,9.56.87.85.86,1.42,0,2.26-3.28,3.15-6.5,6.37-9.74,9.57Z"/><path class="cls-2" d="M49.48,3.69c-3.19,3.25-6.4,6.47-9.56,9.75-.84.88-1.42.85-2.25,0-3.16-3.27-6.37-6.49-9.57-9.73Z"/><path class="cls-2" d="M273.45,150.17c-3.24-3.19-6.46-6.41-9.74-9.56-.87-.84-.86-1.41,0-2.25,3.28-3.16,6.49-6.37,9.73-9.56Z"/><path class="cls-2" d="M273.45,26.62c-3.24-3.19-6.46-6.4-9.74-9.55-.87-.85-.86-1.42,0-2.26,3.28-3.15,6.49-6.37,9.73-9.56Z"/><path class="cls-2" d="M26.54,30c3.24,3.19,6.47,6.4,9.74,9.55.87.84.89,1.4,0,2.25C33,45,29.78,48.17,26.54,51.36Z"/><path class="cls-2" d="M273.38,175c-3.16-3.15-6.3-6.33-9.48-9.45-.83-.82-1.28-1.4-.19-2.43,3.3-3.13,6.5-6.35,9.74-9.54C273.55,160.7,273.67,167.84,273.38,175Z"/><path class="cls-2" d="M26.54,128.79c3.24,3.19,6.46,6.41,9.73,9.57.87.83.9,1.4,0,2.25-3.28,3.16-6.5,6.37-9.75,9.57Z"/><path class="cls-2" d="M26.54,153.55c3.24,3.19,6.45,6.42,9.75,9.55,1.08,1,.65,1.61-.19,2.43-3.19,3.12-6.33,6.3-9.49,9.46Q26.58,164.27,26.54,153.55Z"/><path class="cls-2" d="M74.2,3.69c-3.18,3.24-6.39,6.46-9.54,9.74-.84.88-1.41.87-2.25,0-3.15-3.28-6.36-6.5-9.54-9.74Z"/><path class="cls-2" d="M273.45,125.51c-3.24-3.19-6.45-6.41-9.73-9.56-.87-.84-.88-1.41,0-2.26,3.28-3.15,6.5-6.36,9.74-9.55Z"/><path class="cls-2" d="M26.54,5.24c3.24,3.2,6.46,6.41,9.73,9.57.87.83.9,1.4,0,2.26-3.28,3.15-6.5,6.37-9.75,9.56Z"/><path class="cls-2" d="M123.6,3.69c-3.19,3.25-6.4,6.47-9.55,9.75-.84.88-1.41.86-2.24,0-3.15-3.28-6.37-6.5-9.55-9.74Z"/><path class="cls-2" d="M148.36,3.69c-3.19,3.24-6.4,6.46-9.56,9.74-.84.87-1.41.88-2.26,0-3.15-3.27-6.36-6.5-9.56-9.74Z"/><path class="cls-2" d="M273.45,100.74c-3.24-3.18-6.46-6.39-9.74-9.54-.87-.84-.87-1.41,0-2.24,3.27-3.15,6.49-6.36,9.73-9.55Z"/><path class="cls-2" d="M173,3.69c-3.19,3.25-6.41,6.47-9.56,9.75-.85.88-1.42.85-2.26,0-3.15-3.27-6.37-6.49-9.56-9.73Z"/><path class="cls-2" d="M197.74,3.69c-3.18,3.24-6.39,6.46-9.54,9.74-.85.88-1.41.87-2.25,0-3.15-3.28-6.36-6.5-9.55-9.74Z"/><path class="cls-2" d="M273.45,51.35c-3.24-3.19-6.46-6.4-9.73-9.55-.88-.84-.88-1.4,0-2.24,3.28-3.15,6.5-6.36,9.74-9.54Z"/><path class="cls-2" d="M26.54,79.4C29.78,82.59,33,85.8,36.28,89c.88.84.89,1.39,0,2.24-3.29,3.15-6.5,6.36-9.75,9.55Z"/><path class="cls-2" d="M247.13,3.69c-3.18,3.25-6.39,6.46-9.54,9.75-.85.88-1.41.86-2.25,0-3.15-3.28-6.36-6.5-9.54-9.74Z"/><path class="cls-2" d="M271.9,3.69c-3.19,3.24-6.41,6.46-9.56,9.74-.84.87-1.41.88-2.26,0-3.15-3.27-6.37-6.5-9.56-9.74Z"/><path class="cls-2" d="M35.64,218c3.38-2.73,3.37-2.72,6.55.52,2,2,4,4.11,6.07,6.06,1.1,1,1.25,1.78.07,2.85-1.93,1.75-3.74,3.64-5.6,5.46A81.28,81.28,0,0,1,35.64,218Z"/><path class="cls-4" d="M261,215.16c-3.21,3.24-6.32,6.57-9.67,9.66-1.11,1-1.29,1.52-.17,2.47,2.11,1.78,3.63,4.21,6.13,5.56,0,.67-.55.93-1,1.25-2.62-.91-3.93-3.34-5.79-5.11-1.29-1.22-2.06-1.26-3.29,0-3,3.11-6.1,6.09-9.17,9.12-.09-1,1.07-1.83.37-2.91-.17-1.71,1.27-2.45,2.12-3.55.68-.86,1.36-1.72,2.11-2.52,3.46-3.68,3.94-2.72-.23-6.93-1.13-1.14-2.3-2.24-3.38-3.42-.67-.73-1.49-1.44-1.19-2.62a1.24,1.24,0,0,0,1.16-1.07c1.33-.52,2,.48,2.82,1.19,1.62,1.49,3.12,3.1,4.69,4.64,2.12,2.07,2.18,2.11,4.22.06,1.62-1.62,3.46-3,5.13-4.53a2.44,2.44,0,0,1,2.23-.94C259.13,216.24,260,215.07,261,215.16Z"/><path class="cls-5" d="M26.89,178.46c3.1,3.09,6.17,6.21,9.3,9.25.94.91,1,1.5,0,2.44-2.34,2.29-4.56,4.7-6.84,7A82.75,82.75,0,0,1,26.89,178.46Z"/><path class="cls-3" d="M270.62,197.19c-2.26-2.36-4.49-4.76-6.82-7.05-.94-.92-.94-1.51,0-2.43,3.13-3,6.19-6.15,9.28-9.23A82.57,82.57,0,0,1,270.62,197.19Z"/><path class="cls-3" d="M190.14,289.52c-1.6-1.21-1.38-2.21.06-3.53,2.73-2.51,5.32-5.18,7.88-7.87,1-1,1.64-1.08,2.63,0,1.56,1.66,3.26,3.17,4.91,4.74A82.83,82.83,0,0,1,190.14,289.52Z"/><path class="cls-3" d="M94.47,282.83c1.39-1.34,2.89-2.59,4.14-4.05s2.34-1.92,3.91-.11a77.5,77.5,0,0,0,7.12,7.15c1.47,1.32,1.86,2.39.34,3.81A84.28,84.28,0,0,1,94.47,282.83Z"/><path class="cls-6" d="M155.14,296.28c2-2,4.09-4,6.06-6,.82-.85,1.4-.95,2.24,0,1.46,1.6,3,3.13,4.53,4.68A65.14,65.14,0,0,1,155.14,296.28Z"/><path class="cls-6" d="M132,294.94c1.74-1.92,3.4-4.92,5.56-5.13s3.58,3.11,5.46,4.75c.62.55,1.21,1.14,1.81,1.72A65.9,65.9,0,0,1,132,294.94Z"/><path class="cls-7" d="M32.47,208.83c.67.62,1.35,1.23,2,1.87,2.7,2.68,2.7,2.68.52,5.65A29.32,29.32,0,0,1,32.47,208.83Z"/><path class="cls-8" d="M265,216.34c-2.18-2.94-2.18-3,.47-5.58.66-.66,1.36-1.28,2-1.91A29.21,29.21,0,0,1,265,216.34Z"/><path class="cls-9" d="M77.62,272.48c2.23-2.86,5.06-5.15,7.5-7.81.59-.64,1.61-1.08,1.25-2.26,1.17,1.17,0,1.8-.64,2.45-1.91,2-3.89,3.9-5.83,5.87-.64.64-1.43,1.19-1.57,2.19Z"/><path d="M168.17,196.15l1.72-1.19a2.53,2.53,0,0,1,1.12-1.9,62.17,62.17,0,0,0,7.92-7.81,4,4,0,0,1,1.91-1.16l1.16-1.84c0-.34-.15-.74,0-1,1.06-2.08.69-4-.4-5.94a4.09,4.09,0,0,1,.5-4.53c1.53-2.08,2.77-4.49,6.13-3.89.73.13.89-1.21.95-2a2.72,2.72,0,0,1,.54-1.76c.54-1.08,1.2-2.13.9-3.43-.59-1.86.43-3.44.92-5.09.67-2.25,1.73-4.41.71-6.84a2,2,0,0,1,.4-1.9l0-2.33c-.62-2.9,1.45-4.37,3.47-5.14,4.38-1.68,8.94-2.07,13.31.37l3.75.88c3.31-.93,14.16,2.77,16.15,5.51a4.09,4.09,0,0,0,2,.9,6,6,0,0,1,3.15.62c3,1.5,6,3,8.87,4.73.94.56,1.92,1.1,2.09,2.35l1.61,1.11a3.28,3.28,0,0,1,1.95.36,47.62,47.62,0,0,1,9.41,8.58c.35.42.15,1,.3,1.45l.84,1.94a1.44,1.44,0,0,1,1,.75c1.17,2.92.23,5.53-1.52,7.81-1.61,2.09-3.5,4.06-6.63,2.82-.9,0-1.83-.34-2.64.34a3.37,3.37,0,0,1-.46,2.64c-1.88,3.17-3.76,6.34-5.68,9.49a3.27,3.27,0,0,1-2.08,1.69l-1.08,1.84c.09,1.17-.29,2.37.12,3.5,1.7,4.68-1.49,9.23-8.39,8.39-.66-.08-1.27-.44-1.95-.48a3.53,3.53,0,0,0-1.45,1.49,3.07,3.07,0,0,1-1,2.2,79.14,79.14,0,0,1-8.06,7.13,3.84,3.84,0,0,1-2.56.82l-1.59,1.17c-1.39,2.89-10.63,8.34-13.74,8.1l-1.91.86a1.74,1.74,0,0,1-2.24,1.12,11.86,11.86,0,0,0-4.27,1.55c-2.09,1.16-4.07,2.52-6.5,3a5.71,5.71,0,0,1-3.4-.09l-2.34.43c-.89,1.54-2.49,1.5-3.94,1.74a59.51,59.51,0,0,1-8.93,1.09c-.84,0-1.68.15-2.28-.65-1.4-.19-2.55-.1-3.22,1.53-.53,1.31-1.92,1.79-3.26,2.12-1.56,1-2.86.38-4.15-.58a10,10,0,0,0-10.79,0c-1.29,1-2.59,1.63-4.15.58a4.76,4.76,0,0,1-3.73-2.94c-.65-1.82-2.37-1.09-3.59-1.54-.06.06-.11.14-.18.17-2.74,1-10.21-1.34-11.86-3.69l-2.13-.74a3.2,3.2,0,0,1-2.22-.05A84.54,84.54,0,0,1,106,225.2a3,3,0,0,1-1.44-2l-1.72-1a1.72,1.72,0,0,1-.75,0,29.13,29.13,0,0,1-11.54-9.53l-1.42-1.28c-3.18-1.47-5.12-4.32-7.37-6.77-1.26-1.37-3.29-2.29-3.32-4.58l-1.16-1.42a4.32,4.32,0,0,1-2.53-2A81.62,81.62,0,0,1,68,185.73l-1.81-.81a1.89,1.89,0,0,1-1.76-1.25c-.63-2-2-3.65-3-5.45s-1.23-3.8-2.87-5.2a1.71,1.71,0,0,1-.21-2.12l0-2.57a22,22,0,0,1-8.17-9.6,4.42,4.42,0,0,1,0-4.11,2.19,2.19,0,0,1,1.77-.53,3.36,3.36,0,0,0,2-.92,2.85,2.85,0,0,1,1.89-1.91c3.39-1.52,6.76-3.1,10.16-4.62a3.16,3.16,0,0,1,2.7-.15l0,0a29.79,29.79,0,0,0,2.5,3.17,3.74,3.74,0,0,1,.76,4.82l.3,2.35c1.06,3.64,5.06,5.72,5.2,9.88,0,.82.78,1.45,1.19,2.18a3.53,3.53,0,0,1-.19,3.58L80,173.75a2.41,2.41,0,0,1,2.11,2.69,4.94,4.94,0,0,0,2.19,3.95l3.85,3.21A3.6,3.6,0,0,1,89.86,186l1.68,1.12a3.53,3.53,0,0,1,2.6.71,104.91,104.91,0,0,0,9.34,5.46,3.34,3.34,0,0,1,1.83,2l1.92.95a2.48,2.48,0,0,1,1.24-.15c5,1.81,10.42,2.73,15.06,5.63a13.72,13.72,0,0,0,4.07.68c2-1.2,4.08-.32,6.12-.37a3.74,3.74,0,0,0,2.71-.9c3.54-3.08,6.14-2.9,9.33.54a11.45,11.45,0,0,0,1.62,1.57l4.81-.89c1.21-1.4,1.8-3.22,3.1-4.57l1.23-1.22c1.4-1.54,3.14-2.11,4.9-.92s3.34,1.63,5.27.63C167.09,196,167.68,196.2,168.17,196.15Z"/><path d="M100.52,54.61V51.37c-1.39-2.8-.86-5.8-.83-8.74a1.89,1.89,0,0,1,1.06-1.89,1.66,1.66,0,0,1,1.93.87c1.14,1.63,2.81,3,2.5,5.35a3.12,3.12,0,0,0,1.14,1.58,1.69,1.69,0,0,1,1,.27,114.24,114.24,0,0,0,10.3,9.25c.26.2.27.61.43.91a3.38,3.38,0,0,0,1.89,1c.59,0,1.2-.33,1.75-.1,4.44,1.81,9.38,2.17,13.59,4.66,2,.77,2.17-.11,1.49-1.71-2.35-4.09-2.68-8.88-4.51-13.15a4.4,4.4,0,0,1,0-2,2.84,2.84,0,0,0-1-1.92c-1.64-.6-2.23-2.2-3.25-3.39-1.7-2-3.22-4.1-5.37-5.65A4,4,0,0,1,120.84,34l-1.49-1.11c-2.11.36-3.45-1.07-4.93-2.15-.68-.5-1.36-1.18-1.06-2.11s1.21-1.12,2.08-1.16c2.78-.13,5.56-.28,8.24.72h3.19A9.35,9.35,0,0,1,131,27.4c4.3,0,8.6,0,12.9,0a14.24,14.24,0,0,1,4.44.82,8,8,0,0,0,3.24,0,14.91,14.91,0,0,1,6-.82c3.79,0,7.58,0,11.38,0a9.49,9.49,0,0,1,4.17.83h3.19c2.68-1,5.46-.84,8.23-.72.87,0,1.78.24,2.08,1.15s-.37,1.62-1,2.12c-1.48,1.06-2.81,2.51-4.92,2.14l-1.46,1.13a4.11,4.11,0,0,1-1.6,2.49A34.61,34.61,0,0,0,170.87,44a4.8,4.8,0,0,1-2.1,1.74,2.85,2.85,0,0,0-1,1.91,4.5,4.5,0,0,1,0,2c-1.71,4.2-2.36,8.74-4.05,13-.16.36-.25.77-.66.95a.65.65,0,0,0-.15,1.06c.42.41.94.12,1.42,0,4.36-2.49,9.46-2.78,14-4.68.55-.23,1.16.15,1.75.1A3.46,3.46,0,0,0,182,59a2.91,2.91,0,0,1,1.1-1.64,53.68,53.68,0,0,0,8.81-7.89,2.53,2.53,0,0,1,1.74-.91A3.14,3.14,0,0,0,194.82,47c-.27-2.4,1.36-4,2.7-5.51s2.58-1,2.72,1c.23,3,.65,6.09-.76,9V54.6c1.37,3.16,1.37,18.4,0,21.56v3.22a11.21,11.21,0,0,1,1,5.15c0,3.61-.05,7.23,0,10.85a12.75,12.75,0,0,1-1,5.4l0,3.25c1.52,3,1,6.09.69,9.16-.16,1.52-1.47,1.86-2.6.72-1.46-1.49-2.9-3.1-2.74-5.46l-1.19-1.59a4.6,4.6,0,0,1-2.36-1.39,37.2,37.2,0,0,0-8.72-7.64,2,2,0,0,1-.91-1.17c-.21-.92-1.07-.39-1.55-.7-5.1-1.6-10.38-2.62-15.24-4.93-1.2-.14-2.54-.4-1.59,1.59,2.48,4.17,2.59,9.15,4.59,13.48a3.14,3.14,0,0,1-.08,1.74c-.09.81.49,1.3.92,1.87a2.43,2.43,0,0,1,1.81,1.23,50.81,50.81,0,0,0,7.72,8.59,2.12,2.12,0,0,1,.8,1.77l1.82,1.31c2.46-.18,4.08,1.42,5.66,2.87,1.28,1.16.84,2.44-.93,2.58-3.07.24-6.22.75-9.16-.82H173a11.58,11.58,0,0,1-5.39,1c-3.88-.06-7.75,0-11.63,0a8,8,0,0,1-4.36-1h-3.28a4.23,4.23,0,0,1-1.61.7c-6.6.22-13.24,1.25-19.77-.7H123.6c-2.94,1.56-6.09,1.06-9.16.82-1.78-.14-2.22-1.42-.94-2.58,1.58-1.45,3.21-3,5.66-2.88a4.18,4.18,0,0,0,1.82-1.31,2.6,2.6,0,0,1,1.19-2.13,51.91,51.91,0,0,0,8.71-10.22,11.19,11.19,0,0,1,.76-1.65A80.43,80.43,0,0,0,135.89,93a1.29,1.29,0,0,0-1.09-1.09,67.54,67.54,0,0,0-14.28,4.29c-.69.48-1.59.57-2.22,1.17a35,35,0,0,0-9.26,7.71,4.87,4.87,0,0,1-2.68,1.78l-1.17,1.59c.2,2.16-1.18,3.59-2.36,5.11a1.92,1.92,0,0,1-1.93,1c-.92-.25-1.19-1.14-1.22-2-.1-2.85-.39-5.72.84-8.43v-3.29a12.82,12.82,0,0,1-1-5.65q.08-5.3,0-10.59a11.39,11.39,0,0,1,1-5.15V76.15C99.16,73,99.16,57.77,100.52,54.61Z"/><path class="cls-2" d="M61.92,65.46c-.42.46-.74.84-1.1,1.2-2.74,2.75-5.55,5.46-8.22,8.28-1.13,1.2-2,1.26-3.12.11-2.72-2.78-5.48-5.53-8.25-8.26a1.69,1.69,0,0,1,0-2.8c2.83-2.8,5.61-5.64,8.44-8.43.78-.77,1.56-1.15,2.56-.11,2.94,3,6,6,9,9A9.82,9.82,0,0,1,61.92,65.46Z"/><path class="cls-2" d="M51.2,178.19c.39.33.8.63,1.15,1,2.88,2.87,5.7,5.79,8.63,8.6,1,1,.78,1.57-.11,2.43-2.85,2.77-5.68,5.56-8.42,8.45-1.11,1.17-1.94,1-2.93,0q-4.12-4.14-8.26-8.26c-.82-.82-1.2-1.64-.24-2.61,2.93-2.93,5.85-5.87,8.8-8.78A6.78,6.78,0,0,1,51.2,178.19Z"/><path class="cls-2" d="M88.24,137.87c-.44-.36-.85-.66-1.2-1-2.89-2.86-5.74-5.76-8.66-8.59-.87-.84-.91-1.38,0-2.24,3-2.88,5.92-5.82,8.83-8.78.76-.77,1.3-.82,2.08,0q4.45,4.53,9,9c.7.68.73,1.15,0,1.86-3,3-6,6-9,9A12.34,12.34,0,0,1,88.24,137.87Z"/><path class="cls-2" d="M88.24,261.42c-.44-.37-.85-.66-1.2-1-2.83-2.8-5.6-5.65-8.49-8.4-1-1-1.07-1.61,0-2.61,2.88-2.74,5.69-5.57,8.47-8.42.91-.94,1.51-1,2.45,0q4.23,4.4,8.63,8.62c.87.85.9,1.38,0,2.24-2.92,2.82-5.77,5.73-8.65,8.6C89.1,260.76,88.69,261.05,88.24,261.42Z"/><path class="cls-2" d="M211.71,261.4c-.42-.37-.82-.68-1.17-1-2.83-2.8-5.62-5.64-8.48-8.4-.88-.86-1.18-1.43-.12-2.43,2.94-2.8,5.82-5.68,8.64-8.61,1-1,1.57-.85,2.46.07,2.83,2.91,5.73,5.76,8.61,8.63.54.55,1.17,1,.3,1.85-3.14,3.08-6.24,6.22-9.37,9.32A5.45,5.45,0,0,1,211.71,261.4Z"/><path class="cls-2" d="M211.71,137.86c-.42-.37-.82-.68-1.17-1-2.83-2.8-5.62-5.64-8.48-8.41-.88-.85-1.19-1.42-.13-2.43q4.42-4.2,8.65-8.6c1-1,1.56-.86,2.45.06,2.83,2.92,5.74,5.76,8.62,8.64.54.54,1.17,1,.3,1.84-3.14,3.09-6.24,6.22-9.36,9.32A6.09,6.09,0,0,1,211.71,137.86Z"/><path class="cls-2" d="M185.35,266c1.19-1.29,2.15-1.33,3.44.12a99.46,99.46,0,0,0,7.53,7.56c1.57,1.42,1.3,2.26-.09,3.55-2.6,2.42-5.16,4.91-7.52,7.57-1.44,1.62-2.44,1.25-3.69,0-2.85-2.9-5.72-5.77-8.59-8.65-.66-1.07.31-1.55.84-2.08C180,271.35,182.58,268.6,185.35,266Z"/><path class="cls-2" d="M99,102.46c-.39.44-.7.84-1,1.19-2.86,2.88-5.77,5.72-8.59,8.64-1,1-1.64,1.07-2.66,0-2.68-2.82-5.44-5.57-8.25-8.26-1.17-1.11-1-1.85.09-2.88C81.4,98.4,84.2,95.58,87,92.73c.85-.88,1.44-1.13,2.43-.1,2.8,2.93,5.72,5.76,8.58,8.64C98.34,101.62,98.64,102,99,102.46Z"/><path class="cls-2" d="M222.52,102.42a14.19,14.19,0,0,1-1,1.15c-2.92,2.94-5.88,5.85-8.77,8.82-.91.93-1.55,1-2.48,0-2.69-2.8-5.45-5.55-8.25-8.25-1.07-1-1.25-1.77-.08-2.89,2.94-2.8,5.77-5.71,8.63-8.59.64-.63,1.14-1.19,2-.26,3,3.09,6.09,6.12,9.14,9.17C222,101.79,222.23,102.06,222.52,102.42Z"/><path class="cls-2" d="M88.22,39.06c-.41-.35-.82-.64-1.17-1-2.88-2.86-5.71-5.76-8.63-8.58-.93-.91-1-1.68-.13-2.56,2.92-2.94,5.87-5.84,8.77-8.79a1.13,1.13,0,0,1,1.9,0q4.65,4.66,9.32,9.32c.56.55.79,1,.12,1.67-3.13,3.09-6.22,6.21-9.33,9.31A9.81,9.81,0,0,1,88.22,39.06Z"/><path class="cls-2" d="M211.72,39.05c-.37-.31-.71-.56-1-.85-2.93-2.92-5.83-5.88-8.81-8.76a1.55,1.55,0,0,1,0-2.56c2.91-2.94,5.86-5.84,8.76-8.79.73-.75,1.29-.56,1.91.06,3.1,3.12,6.19,6.23,9.32,9.32.6.61.64,1.06,0,1.68-3.13,3.09-6.22,6.2-9.33,9.3A6.5,6.5,0,0,1,211.72,39.05Z"/><path class="cls-2" d="M61.88,18.86c1.1-1.17,2-1.32,3.25.05,2.56,2.81,5.29,5.47,8,8.1,1,1,1.07,1.61,0,2.63C70.37,32.32,67.6,35.05,65,37.9c-1.3,1.41-2.23,1-3.31-.07L52.89,29c-.65-1.05.29-1.53.82-2.06C56.42,24.25,59.07,21.48,61.88,18.86Z"/><path class="cls-2" d="M160.69,188.93c-.33.41-.62.82-1,1.17-2.86,2.89-5.75,5.74-8.58,8.66-.82.85-1.36,1-2.24.06q-4.32-4.48-8.78-8.82c-.95-.93-.67-1.48.12-2.26,2.9-2.85,5.76-5.75,8.61-8.64.64-.64,1.14-1.19,2-.25,3,3.1,6.08,6.14,9.12,9.21A8.13,8.13,0,0,1,160.69,188.93Z"/><path class="cls-2" d="M99,152c-.41.45-.73.83-1.08,1.18-2.81,2.81-5.64,5.59-8.4,8.44-.87.89-1.46,1.11-2.43.09q-4.22-4.38-8.6-8.6a1.64,1.64,0,0,1,0-2.75c2.86-2.87,5.75-5.71,8.59-8.6.68-.69,1.22-.79,1.91-.1q4.74,4.75,9.48,9.51A5,5,0,0,1,99,152Z"/><path class="cls-2" d="M52.89,225.28c3.19-3,6-6.39,9.42-9.16,1-.82,1.57-.81,2.46.12,2.75,2.86,5.55,5.69,8.42,8.43,1.06,1,1,1.64,0,2.63-2.74,2.63-5.47,5.29-8,8.09-1.24,1.37-2.15,1.23-3.25.05-2.81-2.61-5.46-5.39-8.17-8.11C53.18,226.8,52.24,226.33,52.89,225.28Z"/><path class="cls-2" d="M52.89,101.73c3.19-3,6-6.39,9.42-9.15,1-.83,1.57-.82,2.46.11,2.75,2.87,5.55,5.7,8.42,8.44,1.06,1,1,1.63,0,2.62-2.74,2.63-5.47,5.29-8,8.1-1.24,1.37-2.15,1.22-3.25.05-2.81-2.62-5.46-5.39-8.17-8.11C53.18,103.26,52.24,102.78,52.89,101.73Z"/><path class="cls-2" d="M239.47,92.07c-1.52-1.22-1.49-2.27,0-3.64,2.74-2.52,5.36-5.19,7.92-7.89,1.06-1.11,1.72-1.21,2.82,0,2.5,2.66,5,5.29,7.75,7.7,1.63,1.43,1.59,2.47.11,3.78.06.33.16.71,0,1-2.32,3.13-5.38,5.49-8.35,7.93a1.79,1.79,0,0,1-2.36-.14C244.57,98,241.21,95.76,239.47,92.07Z"/><path class="cls-2" d="M258.05,215.53c-2.59,2.52-5.25,5-7.74,7.59-1.17,1.23-1.85,1.12-3,0-2.74-2.7-5.17-5.73-8.34-8a1.67,1.67,0,0,1,.11-2.73c2.88-2.72,5.7-5.5,8.4-8.39,1.17-1.24,1.82-.89,2.81.14,2.51,2.61,5,5.26,7.71,7.64C259.64,213.21,259.49,214.25,258.05,215.53Z"/><path class="cls-2" d="M134.53,162.33c1.52,1.33,1.44,2.41-.14,3.81a104.88,104.88,0,0,0-7.55,7.51c-1.26,1.36-2,1.18-3.18-.07-2.36-2.54-4.79-5-7.37-7.33-1.54-1.38-2-2.52-.36-4,1.74-3.68,5.08-5.93,7.86-8.67a2,2,0,0,1,2.8.1c2.58,2.27,5.2,4.51,7.55,7A1.71,1.71,0,0,1,134.53,162.33Z"/><path class="cls-2" d="M237.8,216.18c2.76,2.83,5.48,5.7,8.31,8.47,1,1,1.07,1.6,0,2.63-2.65,2.58-5.18,5.28-7.76,7.94-1.29,1.47-2.33,1.56-3.77-.08-2.46-2.79-5.17-5.35-7.85-7.93-.94-.91-1-1.51,0-2.45,2.92-2.81,5.81-5.66,8.58-8.63C236.34,215,237,215.5,237.8,216.18Z"/><path class="cls-2" d="M114.76,284.7c-1.33,1.59-2.37,1.36-3.74-.18-2.41-2.7-5-5.24-7.68-7.71-1.18-1.12-1-1.78.06-2.82,2.63-2.49,5.27-5,7.66-7.73,1.43-1.63,2.47-1.57,3.76-.09a1.42,1.42,0,0,1,1.23.13,61.07,61.07,0,0,1,7.6,8.07,1.8,1.8,0,0,1,0,2.37C120.88,279.58,118.71,283.15,114.76,284.7Z"/><path class="cls-2" d="M237.79,38.12c-.81.7-1.45,1.15-2.48.05-2.77-3-5.66-5.81-8.58-8.62-1-.94-.93-1.53,0-2.45,2.68-2.58,5.4-5.14,7.85-7.92,1.43-1.63,2.47-1.58,3.77-.11a1.43,1.43,0,0,1,1.22.14,60.19,60.19,0,0,1,7.59,8.05,2,2,0,0,1,0,2.6,92.52,92.52,0,0,1-7.67,7.67C239,37.9,238.33,37.86,237.79,38.12Z"/><path class="cls-2" d="M238.36,111.69c-1.3,1.48-2.34,1.52-3.77-.11-2.39-2.72-5-5.23-7.66-7.73-1.1-1-1.23-1.7-.05-2.81,2.65-2.48,5.26-5,7.68-7.71,1.37-1.54,2.41-1.78,3.74-.18,2.7.58,4,2.91,5.83,4.64,4.54,4.41,4.49,4.45,0,9.09-1.17,1.22-2.15,2.6-3.4,3.74C240.07,111.25,239.44,112,238.36,111.69Z"/><path class="cls-2" d="M114.76,161.16c-1.33,1.58-2.37,1.36-3.74-.18-2.41-2.71-5-5.24-7.68-7.72-1.18-1.11-1-1.77.06-2.81,2.63-2.5,5.27-5,7.65-7.73,1.44-1.63,2.48-1.57,3.77-.1a1.42,1.42,0,0,1,1.23.13,61.07,61.07,0,0,1,7.6,8.07,1.81,1.81,0,0,1,0,2.38C120.88,156,118.71,159.6,114.76,161.16Z"/><path class="cls-2" d="M258.07,38.78c1.51,1.33,1.45,2.4-.14,3.81-2.7,2.41-5.2,5-7.73,7.66-.9.92-1.52,1.31-2.62.16-2.79-2.93-5.65-5.81-8.61-8.57-1.1-1-.63-1.68.05-2.49a6.54,6.54,0,0,1,2.1-3.35c1.83-1.74,3.59-3.56,5.37-5.35,1.08-1.08,2.36-1.58,3.6-.54a88.36,88.36,0,0,1,7.59,7A1.71,1.71,0,0,1,258.07,38.78Z"/><path class="cls-2" d="M197.68,228.85a3.46,3.46,0,0,1,2.24-1.12c3,3.08,6,6.21,9,9.21,1.11,1.08,1.16,1.74,0,2.83-2.82,2.67-5.55,5.43-8.24,8.23-1,1-1.59,1.13-2.61.05-2.74-2.87-5.54-5.69-8.42-8.42-1.11-1.06-.85-1.66.09-2.62C192.44,234.31,195.34,231.85,197.68,228.85Z"/><path class="cls-2" d="M41.76,91.8c-1.29-1.19-1.32-2.14.12-3.43,2.81-2.54,5.45-5.29,8.08-8,.92-.95,1.51-1,2.44,0,2.81,2.91,5.67,5.79,8.6,8.58,1,1,.77,1.54-.11,2.41-3.06,3-6,6.11-9,9.18-1,1-1.46-.06-2-.55C47.17,97.26,44.39,94.6,41.76,91.8Z"/><path class="cls-2" d="M175.37,153.8c3,3,5.87,6,8.88,9,1,1,1.37,1.62.12,2.78-2.9,2.7-5.68,5.54-8.43,8.4-.93,1-1.52.94-2.44,0-2.63-2.73-5.27-5.48-8.09-8-1.43-1.3-1.4-2.24-.11-3.43,2.62-2.81,5.4-5.46,8.13-8.17C173.91,153.86,174.39,152.77,175.37,153.8Z"/><path class="cls-2" d="M41.71,215.28c-1.2-1.12-1.29-2,.07-3.26,2.81-2.57,5.47-5.3,8.1-8.06,1-1.06,1.66-1,2.64,0q4.13,4.31,8.44,8.43c1,.95.89,1.51,0,2.42-3.08,3-6.06,6.13-9.08,9.2-1,1.06-1.47-.07-2-.55C47.14,220.78,44.35,218.11,41.71,215.28Z"/><path class="cls-2" d="M163.8,263.15c3.27-3.3,6.55-6.59,9.78-9.93.83-.85,1.38-.92,2.25,0,2.88,3,5.84,5.87,8.76,8.81.45.45,1.2.95.42,1.65-3.73,3.36-6.79,7.43-10.94,10.35C170,271,166.09,267.85,163.8,263.15Z"/><path class="cls-2" d="M163.8,139.6c3.27-3.3,6.55-6.59,9.78-9.92.83-.86,1.39-.92,2.25,0,2.88,3,5.84,5.87,8.76,8.81.45.45,1.2.94.42,1.65-3.73,3.36-6.79,7.42-10.94,10.35C170,147.44,166.09,144.3,163.8,139.6Z"/><path class="cls-2" d="M75.84,249.11c-.41-.35-.8-.65-1.15-1-2.87-2.87-5.71-5.77-8.62-8.6-.84-.82-1-1.37-.06-2.25q4.36-4.23,8.6-8.62c.88-.91,1.5-1.07,2.46-.07,2.81,2.93,5.71,5.78,8.59,8.64.66.66,1.12,1.2.22,2.08-3.08,3-6.11,6.09-9.17,9.13A9.81,9.81,0,0,1,75.84,249.11Z"/><path class="cls-2" d="M40.27,16.06c3.26-3.31,6.55-6.59,9.77-9.93.83-.85,1.39-.92,2.25,0,2.88,3,5.84,5.87,8.76,8.81.45.45,1.21.95.42,1.65C57.73,19.91,54.69,24,50.54,26.91,46.48,23.89,42.55,20.76,40.27,16.06Z"/><path class="cls-2" d="M51.84,30.25c3,3,5.87,6.09,8.91,9,1.1,1.07,1.23,1.68,0,2.79-2.84,2.66-5.58,5.44-8.27,8.25-1,1-1.62,1.09-2.64,0-2.63-2.75-5.29-5.48-8.1-8.05-1.36-1.24-1.26-2.15-.07-3.26,2.64-2.83,5.43-5.51,8.18-8.23C50.37,30.32,50.85,29.19,51.84,30.25Z"/><path class="cls-2" d="M50.93,103.79c3.3,3.25,6.56,6.53,9.92,9.71,1,1,1,1.62,0,2.61-2.87,2.74-5.65,5.55-8.41,8.4-.86.88-1.45,1.12-2.43.1-3.2-3.35-6.49-6.61-9.74-9.91a5.62,5.62,0,0,1,1.82-3.21c1.89-1.79,3.73-3.64,5.53-5.53A7.32,7.32,0,0,1,50.93,103.79Z"/><path class="cls-2" d="M99,226a9.33,9.33,0,0,1-.73.93c-3,3-6,6-8.92,9-.93,1-1.48.65-2.25-.14-2.84-2.9-5.68-5.78-8.6-8.59-1-.94-.89-1.53,0-2.43,2.91-2.81,5.74-5.71,8.62-8.57.51-.51,1-1.28,1.84-.41l9.49,9.5A7.46,7.46,0,0,1,99,226Z"/><path class="cls-2" d="M248.84,76.13c-.4-.34-.82-.62-1.16-1-2.88-2.86-5.7-5.76-8.62-8.57-1-.93-.93-1.52,0-2.43q4.38-4.21,8.59-8.6c1-1,1.58-.77,2.43.11,2.82,2.9,5.7,5.75,8.59,8.6.68.68,1.06,1.2.17,2.06-3.09,3-6.11,6.07-9.16,9.11A8.64,8.64,0,0,1,248.84,76.13Z"/><path class="cls-2" d="M136,188.91c-.34.42-.62.82-1,1.17-2.86,2.87-5.76,5.7-8.57,8.62-.93,1-1.52.93-2.43,0-2.81-2.92-5.69-5.78-8.59-8.61-.81-.79-1-1.34-.08-2.24,3-2.87,5.88-5.82,8.78-8.77.67-.68,1.19-1.06,2.06-.17,3,3.08,6.07,6.1,9.11,9.15C135.58,188.29,135.76,188.57,136,188.91Z"/><path class="cls-2" d="M164.37,16.76c-.55-.84-.06-1.37.52-1.94,2.9-2.86,5.8-5.7,8.62-8.63.94-1,1.53-.91,2.44,0,2.82,2.93,5.72,5.78,8.61,8.64.69.68,1.05,1.18.16,2.05-3,2.95-6,6-9,9-.52.53-1,.84-1.78.46C171.65,25.8,164.91,19.06,164.37,16.76Z"/><path class="cls-2" d="M172.9,275.1c-.34,1.54-1.74,2.21-2.68,3.26-1.18,1.31-2.49,2.52-3.74,3.78-4.16,4.18-4.16,4.18-8.43-.09-1.79-1.79-3.55-3.62-5.38-5.36-.88-.83-1.19-1.43-.14-2.43,3.36-3.2,6.62-6.5,9.93-9.75a5.73,5.73,0,0,1,3.22,1.84c2,2.08,4,4.09,6.08,6.11C172.5,273.2,173.17,273.94,172.9,275.1Z"/><path class="cls-2" d="M136.84,265.07c.84-.54,1.37-.08,1.94.51,2.9,2.94,5.83,5.87,8.75,8.79.57.57,1.09,1.05.24,1.85-3.49,3.29-6.57,7-10.34,10-3.89-2.09-6.71-5.42-9.77-8.47a3.22,3.22,0,0,1-1.08-3.17c2.49-3.5,5.84-6.19,8.84-9.21A1.58,1.58,0,0,1,136.84,265.07Z"/><path class="cls-2" d="M100.58,150.21c-.44-.36-.84-.65-1.19-1-2.81-2.8-5.58-5.65-8.45-8.4-1-1-1-1.66,0-2.65q4.3-4.12,8.44-8.42c.92-1,1.5-1,2.43,0,2.81,2.93,5.72,5.76,8.58,8.64.53.53,1.22,1,.37,1.86-3.12,3.1-6.21,6.22-9.32,9.33A7.89,7.89,0,0,1,100.58,150.21Z"/><path class="cls-2" d="M114.46,139.72c3-3.75,6.71-6.82,10-10.31.75-.79,1.26-.46,1.86.15q4.94,5,9.9,10.06a5.48,5.48,0,0,1-1.82,3.19c-2.8,2.5-5.07,5.57-8.19,7.74a3.19,3.19,0,0,1-3.21-1C119.87,146.49,116.57,143.62,114.46,139.72Z"/><path class="cls-2" d="M198.8,273.57c-2.94-3-5.83-6.07-8.84-9-1.12-1.1-1.37-1.79-.08-3,2.84-2.64,5.56-5.41,8.23-8.22,1-1.07,1.63-1,2.61,0,3,3.07,6.12,6,9.19,9,.73.74.05,1.23-.37,1.66-3,3.05-6,6.05-9,9C200.05,273.56,199.57,274.15,198.8,273.57Z"/><path class="cls-2" d="M150,252.28c.37.32.7.56,1,.85,2.93,2.93,5.83,5.88,8.8,8.77.87.85.87,1.41,0,2.27q-4.37,4.24-8.59,8.62c-.94,1-1.55.93-2.46,0-2.82-2.92-5.71-5.78-8.59-8.63-.7-.69-1-1.22-.16-2.08,3.08-3,6.11-6.08,9.16-9.13A8.78,8.78,0,0,1,150,252.28Z"/><path class="cls-2" d="M114.46,263.26c3-3.74,6.71-6.81,10-10.3.75-.8,1.26-.47,1.86.15q4.94,5,9.9,10.05a5.47,5.47,0,0,1-1.83,3.19c-2.8,2.5-5.07,5.57-8.18,7.75a3.19,3.19,0,0,1-3.21-1C119.87,270,116.58,267.16,114.46,263.26Z"/><path class="cls-2" d="M100.58,252.32a8,8,0,0,1,1,.73c3,3,6,6,9,8.95.79.78.78,1.3,0,2.07q-4.44,4.35-8.77,8.8c-.85.88-1.44.86-2.28,0-2.89-3-5.84-5.88-8.78-8.8-.62-.61-.92-1.14-.15-1.89,3.13-3.09,6.22-6.21,9.34-9.32A8.7,8.7,0,0,1,100.58,252.32Z"/><path class="cls-2" d="M161.71,187.07c-3-3.07-6-6.19-9-9.2-1-1-1.09-1.6,0-2.61q4.31-4.09,8.41-8.4c1.05-1.11,1.66-.89,2.61.08,3,3.05,6.13,6,9.2,9,.56.77,0,1.25-.47,1.71q-4.49,4.56-9,9C162.94,187.13,162.45,187.81,161.71,187.07Z"/><path class="cls-2" d="M75.26,26.48c-2.94-3-5.83-6.07-8.84-9-1.12-1.1-1.37-1.79-.07-3,2.83-2.64,5.55-5.41,8.23-8.22,1-1.07,1.62-1,2.61,0,3,3.07,6.11,6,9.18,9,.73.74.06,1.23-.37,1.66C83,20,80,23,77,26,76.52,26.47,76,27.06,75.26,26.48Z"/><path class="cls-2" d="M100.76,26.53c-.8-.07-1.12-.62-1.52-1C96.48,22.77,93.77,20,91,17.28c-1-1-1.09-1.63,0-2.64,2.88-2.75,5.68-5.57,8.44-8.43.89-.92,1.47-1,2.43,0,2.8,2.93,5.71,5.78,8.59,8.63.65.65,1.15,1.16.23,2.06-3.08,3-6.1,6.1-9.15,9.14A4.64,4.64,0,0,1,100.76,26.53Z"/><path class="cls-2" d="M126,26.36c-1,.52-1.54-.26-2.13-.85-2.76-2.75-5.47-5.55-8.29-8.24-1-1-1.06-1.61,0-2.62,2.88-2.75,5.67-5.59,8.46-8.42.73-.75,1.28-1.22,2.25-.22,2.94,3.05,6,6,9,9a1.27,1.27,0,0,1,.34,1.77C135.07,19.06,128.34,25.8,126,26.36Z"/><path class="cls-2" d="M149.83,5.33c.69,0,1,.49,1.3.83,2.88,2.86,5.71,5.77,8.63,8.59,1,1,.86,1.55-.06,2.44q-4.27,4.15-8.42,8.45c-.86.88-1.47,1.14-2.46.11-2.8-2.93-5.7-5.77-8.58-8.64-.63-.63-1.21-1.15-.28-2.06,3.08-3,6.11-6.09,9.16-9.14A7.93,7.93,0,0,1,149.83,5.33Z"/><path class="cls-2" d="M260.38,18a1.26,1.26,0,0,1,1.76.33q4.53,4.61,9.11,9.15c.59.58.72,1,.06,1.67-3.49,3.3-6.58,7-10.34,10-3.9-2.08-6.72-5.41-9.77-8.46a3.23,3.23,0,0,1-1.08-3.17C252.61,24,256,21.32,259,18.3A1.58,1.58,0,0,1,260.38,18Z"/><path class="cls-2" d="M198.8,26.48c-2.94-3-5.83-6.07-8.84-9-1.12-1.1-1.37-1.79-.08-3,2.84-2.64,5.56-5.41,8.23-8.22,1-1.07,1.63-1,2.61,0,3,3.07,6.12,6,9.19,9,.73.74.05,1.23-.37,1.66-3,3.05-6,6.05-9,9C200.05,26.47,199.57,27.06,198.8,26.48Z"/><path class="cls-2" d="M234.86,15.93c-.34.42-.62.81-1,1.16-2.86,2.88-5.76,5.72-8.57,8.65-1,1-1.59.8-2.46-.1q-4.16-4.28-8.43-8.43c-.91-.88-1.09-1.49-.08-2.46,2.92-2.81,5.77-5.71,8.63-8.59.62-.62,1.13-1.22,2-.27,3,3.09,6.08,6.11,9.12,9.17A9.7,9.7,0,0,1,234.86,15.93Z"/><path class="cls-2" d="M238,16.17c3-3.74,6.7-6.81,10-10.3.75-.8,1.25-.47,1.86.15q4.93,5,9.9,10.05a5.47,5.47,0,0,1-1.83,3.19c-2.8,2.5-5.07,5.57-8.19,7.75a3.18,3.18,0,0,1-3.2-1C243.41,23,240.11,20.07,238,16.17Z"/><path class="cls-2" d="M137.69,165.83c.4.34.8.64,1.15,1,2.88,2.86,5.72,5.76,8.63,8.59.84.82,1,1.35.06,2.24-2.92,2.82-5.78,5.7-8.6,8.61-.89.92-1.5,1.07-2.47.07-2.81-2.92-5.71-5.76-8.59-8.62-.66-.66-1.13-1.21-.23-2.08,3.08-3,6.11-6.08,9.17-9.12A8.56,8.56,0,0,1,137.69,165.83Z"/><path class="cls-2" d="M112.74,166c.7,0,1,.47,1.31.81,2.89,2.86,5.71,5.78,8.64,8.59,1,1,.87,1.55,0,2.44-2.85,2.76-5.68,5.56-8.42,8.44-1,1.09-1.67.95-2.63-.06-2.75-2.86-5.59-5.65-8.4-8.45-.62-.62-1.27-1.12-.32-2.06,3.09-3,6.11-6.08,9.16-9.13C112.27,166.31,112.54,166.12,112.74,166Z"/><path class="cls-2" d="M162.45,240c.38.33.71.59,1,.88,2.88,2.87,5.71,5.77,8.64,8.59,1,.93.93,1.54,0,2.45q-4.38,4.23-8.61,8.6c-.87.89-1.43.83-2.27,0-2.89-3-5.84-5.88-8.77-8.81-.47-.47-1.09-.91-.34-1.66,3.17-3.16,6.33-6.34,9.51-9.49A5.06,5.06,0,0,1,162.45,240Z"/><path class="cls-2" d="M148.42,250.73c-.32.37-.57.69-.86,1-2.93,2.94-5.88,5.84-8.77,8.82-.85.88-1.42.84-2.26,0-2.83-2.9-5.7-5.78-8.62-8.59-1-.94-.92-1.55,0-2.46,2.92-2.82,5.78-5.71,8.63-8.59.69-.7,1.22-1,2.07-.15,3,3.08,6.09,6.11,9.13,9.17A9.92,9.92,0,0,1,148.42,250.73Z"/><path class="cls-2" d="M112.91,261.45c-.45-.4-.84-.7-1.19-1.05-2.81-2.8-5.57-5.66-8.45-8.4-1-1-1-1.63,0-2.62q4.3-4.12,8.43-8.43c.93-1,1.52-.93,2.44,0,2.81,2.92,5.69,5.79,8.6,8.61.89.86.84,1.41,0,2.25-3,2.89-5.87,5.85-8.8,8.77C113.65,260.89,113.31,261.12,112.91,261.45Z"/><path class="cls-2" d="M86.38,115.44c-3.07,3-6.18,6-9.19,9-1,1-1.59,1.11-2.61,0q-4.1-4.31-8.41-8.41c-1.1-1-.9-1.65.07-2.61,3.06-3,6-6.13,9-9.2.77-.58,1.26,0,1.71.46q4.56,4.49,9,9C86.43,114.21,87.09,114.7,86.38,115.44Z"/><path class="cls-2" d="M224.16,104.07c.45.38.85.67,1.19,1,2.81,2.81,5.57,5.67,8.44,8.42,1.05,1,1,1.63,0,2.62q-4.31,4.13-8.42,8.44c-.93,1-1.51,1-2.43,0-2.82-2.92-5.7-5.78-8.61-8.61-.86-.84-.89-1.42,0-2.28,3-2.89,5.87-5.85,8.8-8.77C223.4,104.63,223.75,104.4,224.16,104.07Z"/><path class="cls-2" d="M259.73,114.7c-3.27,3.31-6.55,6.62-9.8,10-.69.7-1.22,1-2.06.15-3.22-3.47-6.9-6.5-9.87-10.21,2.09-3.9,5.41-6.74,8.48-9.79a3.23,3.23,0,0,1,3.19-1.06c3.49,2.53,6.18,5.9,9.26,8.87C259.48,113.14,259.49,114,259.73,114.7Z"/><path class="cls-2" d="M49.36,28c-.34,1.53-1.74,2.21-2.68,3.26-1.18,1.31-2.49,2.52-3.74,3.78-4.16,4.18-4.16,4.18-8.43-.09-1.79-1.79-3.54-3.62-5.38-5.36-.88-.83-1.19-1.43-.14-2.43,3.36-3.2,6.63-6.5,9.93-9.76a5.77,5.77,0,0,1,3.22,1.85c2,2.08,4,4.09,6.09,6.11C49,26.11,49.64,26.85,49.36,28Z"/><path class="cls-2" d="M49.54,127.2c-.42.48-.73.87-1.08,1.22-2.8,2.81-5.65,5.59-8.41,8.44-.9.92-1.5,1-2.45,0-2.81-2.92-5.68-5.8-8.61-8.6-1.06-1-.75-1.58.12-2.42,2.85-2.77,5.64-5.6,8.44-8.42.71-.71,1.26-1.29,2.25-.27,3,3,6,6,9,9A8.89,8.89,0,0,1,49.54,127.2Z"/><path class="cls-2" d="M38.17,187.07c-3-3.08-6-6.19-9-9.2-1-1-1.09-1.6,0-2.61q4.3-4.09,8.41-8.4c1-1.11,1.66-.89,2.61.08,3,3.05,6.13,6,9.2,9,.56.77,0,1.25-.47,1.71q-4.48,4.56-9,9C39.4,187.13,38.91,187.81,38.17,187.07Z"/><path class="cls-2" d="M63.55,116.4c.46.4.85.71,1.2,1,2.81,2.81,5.57,5.67,8.44,8.41,1.07,1,1,1.63,0,2.61-2.86,2.75-5.67,5.57-8.42,8.43-.94,1-1.53.91-2.44,0q-4.23-4.37-8.61-8.6c-.89-.87-.82-1.43,0-2.26,2.91-2.83,5.76-5.72,8.63-8.58C62.7,117.08,63.1,116.78,63.55,116.4Z"/><path class="cls-2" d="M149.82,153.64c.72,0,1,.49,1.34.83,2.88,2.86,5.7,5.78,8.63,8.59,1,1,.78,1.57-.11,2.43q-4.29,4.15-8.43,8.43c-.87.91-1.45,1.1-2.43.08-2.8-2.93-5.71-5.76-8.59-8.62-.64-.64-1.19-1.15-.26-2.06,3.08-3,6.1-6.08,9.15-9.13A8.21,8.21,0,0,1,149.82,153.64Z"/><path class="cls-2" d="M49.2,151.11c.48.88-.1,1.4-.65,1.95-2.88,2.87-5.77,5.73-8.6,8.64-.84.86-1.39.92-2.25,0-2.89-3-5.84-5.9-8.79-8.82-.59-.59-1-1.08-.21-1.87q4.71-4.64,9.34-9.36a1.18,1.18,0,0,1,1.58-.16C41.91,142.08,48.65,148.82,49.2,151.11Z"/><path class="cls-2" d="M100.6,175c-.42-.35-.82-.64-1.16-1-2.82-2.8-5.6-5.65-8.46-8.4-1-1-1.15-1.6-.06-2.64,2.87-2.74,5.67-5.56,8.43-8.41.89-.92,1.5-1.06,2.45-.06,2.81,2.93,5.71,5.77,8.59,8.63.64.64,1.17,1.15.24,2-3.08,3-6.11,6.09-9.16,9.13A9.92,9.92,0,0,1,100.6,175Z"/><path class="cls-2" d="M136.84,141.53c.84-.55,1.37-.08,1.94.5,2.9,2.95,5.83,5.87,8.75,8.8.57.56,1.09,1,.24,1.85-3.49,3.29-6.57,7-10.34,10-3.89-2.08-6.71-5.41-9.77-8.46a3.24,3.24,0,0,1-1.08-3.18c2.49-3.49,5.84-6.18,8.84-9.2A1.55,1.55,0,0,1,136.84,141.53Z"/><path class="cls-2" d="M224.15,249.11c-.41-.35-.81-.63-1.15-1-2.88-2.86-5.71-5.77-8.64-8.58-1-1-.83-1.58.08-2.46q4.27-4.15,8.42-8.44c.87-.89,1.49-1.11,2.47-.09,2.81,2.92,5.7,5.77,8.57,8.64.63.63,1.22,1.14.28,2-3.08,3-6.11,6.09-9.16,9.14C224.79,248.63,224.51,248.82,224.15,249.11Z"/><path class="cls-2" d="M76,30c.43.38.83.69,1.18,1.05,2.82,2.8,5.59,5.64,8.45,8.4.92.9,1,1.5,0,2.46C82.7,44.7,79.84,47.58,77,50.48c-.83.85-1.38.94-2.26,0-2.88-3-5.83-5.88-8.77-8.8-.59-.58-1-1.06-.23-1.86,3.13-3.08,6.22-6.21,9.34-9.31A5.35,5.35,0,0,1,76,30Z"/><path class="cls-2" d="M172.9,151.55c-.34,1.54-1.74,2.22-2.68,3.26-1.18,1.32-2.49,2.52-3.74,3.78-4.16,4.18-4.16,4.19-8.43-.08-1.79-1.79-3.55-3.62-5.38-5.37-.88-.83-1.19-1.42-.14-2.42,3.36-3.21,6.62-6.5,9.93-9.76a5.74,5.74,0,0,1,3.22,1.85c2,2.08,4,4.08,6.08,6.11C172.5,149.65,173.17,150.39,172.9,151.55Z"/><path class="cls-2" d="M260.38,141.53c.84-.55,1.37-.08,1.94.51,2.86,2.89,5.7,5.8,8.63,8.62,1,.94.92,1.52,0,2.43-2.92,2.83-5.76,5.74-8.63,8.62-.54.53-1,1.2-1.86.34q-4.73-4.78-9.51-9.53c-.44-.45-.3-.92-.13-1.41C251.34,148.81,258.08,142.07,260.38,141.53Z"/><path class="cls-2" d="M234.74,40.49c0,.7-.48,1-.83,1.32-2.86,2.88-5.77,5.71-8.57,8.64-1,1-1.56.85-2.44-.07q-4.16-4.27-8.44-8.42c-.87-.85-1.17-1.45-.13-2.45,2.93-2.8,5.78-5.69,8.62-8.59.78-.8,1.35-1.07,2.27-.13,2.88,3,5.83,5.88,8.75,8.82A11.25,11.25,0,0,1,234.74,40.49Z"/><path class="cls-2" d="M100.38,227.78c.7,0,1,.43,1.36.78,2.87,2.87,5.69,5.78,8.61,8.6,1,1,.91,1.53,0,2.44q-4.38,4.23-8.61,8.61c-.87.9-1.41.83-2.24,0-2.83-2.91-5.7-5.79-8.62-8.61-1-.93-.93-1.54,0-2.46,2.85-2.76,5.63-5.6,8.45-8.41C99.67,228.36,100.07,228.05,100.38,227.78Z"/><path class="cls-2" d="M38.17,63.52c-3-3.07-6-6.18-9-9.19-1-1-1.09-1.6,0-2.61C32,49,34.8,46.19,37.53,43.31c1-1.1,1.66-.88,2.61.08,3,3.06,6.13,6,9.2,9,.56.77,0,1.26-.47,1.72q-4.48,4.54-9,9C39.4,63.58,38.91,64.26,38.17,63.52Z"/><path class="cls-2" d="M63.51,42.31a9,9,0,0,1,.95.71c3,3,6,6,9,9,.79.77.78,1.29,0,2.06q-4.44,4.35-8.77,8.8c-.85.88-1.42.87-2.27,0-2.89-3-5.83-5.88-8.77-8.8-.61-.61-1-1.12-.18-1.89,3.14-3.08,6.23-6.2,9.35-9.31A7.23,7.23,0,0,1,63.51,42.31Z"/><path class="cls-2" d="M77.94,53.88c-.56-.8-.21-1.34.41-1.94q4.43-4.34,8.78-8.75c.67-.68,1.18-1.06,2.05-.18q4.5,4.62,9.13,9.12a1.2,1.2,0,0,1,.2,1.75c0,.17.09.38,0,.5-2.43,3.8-5.86,6.65-9.23,9.53a2.15,2.15,0,0,1-2.82-.36c-2.82-2.66-5.57-5.4-8.22-8.24A1.63,1.63,0,0,1,77.94,53.88Z"/><path class="cls-2" d="M150,150.24c-.47-.41-.87-.71-1.22-1.05-2.81-2.81-5.59-5.65-8.43-8.43-.88-.85-1.16-1.44-.12-2.44q4.39-4.22,8.61-8.61c1-1,1.53-.87,2.42,0,2.76,2.86,5.59,5.65,8.41,8.46.68.67,1.38,1.22.32,2.24-3,2.95-6,6-9,9A12.55,12.55,0,0,1,150,150.24Z"/><path class="cls-2" d="M201.48,53.88c-.56-.8-.21-1.34.41-1.94q4.41-4.34,8.77-8.75c.68-.68,1.19-1.06,2.06-.18q4.5,4.62,9.12,9.12a1.19,1.19,0,0,1,.21,1.75c0,.17.09.37,0,.5-2.42,3.8-5.86,6.65-9.22,9.53a2.15,2.15,0,0,1-2.82-.36c-2.82-2.66-5.57-5.4-8.22-8.24A1.6,1.6,0,0,1,201.48,53.88Z"/><path class="cls-2" d="M247.2,53.06c-.41.46-.72.85-1.07,1.2-2.8,2.82-5.64,5.6-8.4,8.46-.89.91-1.49,1.07-2.46.07q-4.2-4.4-8.59-8.62c-1-1-.76-1.58.12-2.44,2.84-2.76,5.64-5.59,8.43-8.42.71-.71,1.24-1.29,2.24-.25,2.93,3,6,6,8.94,9A10.18,10.18,0,0,1,247.2,53.06Z"/><path class="cls-2" d="M261.18,42.32a8,8,0,0,1,1,.72c3,3,5.95,6,9,8.94.8.78.78,1.29,0,2.05q-4.44,4.35-8.78,8.81c-.84.86-1.42.87-2.27,0-2.89-3-5.84-5.88-8.78-8.8-.61-.6-.95-1.13-.17-1.89,3.13-3.09,6.23-6.21,9.35-9.31A7,7,0,0,1,261.18,42.32Z"/><path class="cls-2" d="M236.51,116.43c.43.37.82.67,1.17,1,2.81,2.8,5.57,5.66,8.45,8.4,1.07,1,1,1.64,0,2.63-2.87,2.74-5.67,5.56-8.43,8.42-.94,1-1.53.91-2.43,0-2.82-2.92-5.72-5.75-8.59-8.63-.54-.53-1.19-1-.34-1.85,3.13-3.09,6.22-6.22,9.34-9.32A6.19,6.19,0,0,1,236.51,116.43Z"/><path class="cls-2" d="M197.81,250.71c-.35.41-.65.8-1,1.14-2.86,2.88-5.77,5.71-8.57,8.64-1,1.05-1.58.76-2.44-.12-2.77-2.84-5.57-5.66-8.43-8.42-.91-.88-1.08-1.47-.07-2.44,2.93-2.81,5.77-5.71,8.63-8.59.64-.64,1.15-1.18,2-.25,3,3.08,6.08,6.11,9.12,9.17A9.91,9.91,0,0,1,197.81,250.71Z"/><path class="cls-2" d="M76.73,75.68c-.8.56-1.34.2-1.94-.41q-4.33-4.42-8.74-8.78c-.68-.67-1.07-1.18-.18-2,3.07-3,6.1-6.06,9.1-9.13a1.23,1.23,0,0,1,1.76-.22c.17,0,.38-.09.5,0,3.79,2.43,6.65,5.86,9.53,9.23a2.16,2.16,0,0,1-.36,2.82q-4,4.23-8.23,8.22A1.67,1.67,0,0,1,76.73,75.68Z"/><path class="cls-2" d="M261.26,116.42c.45.4.84.71,1.19,1.06,2.81,2.81,5.59,5.65,8.44,8.41.88.85,1.18,1.41.12,2.42-2.94,2.8-5.8,5.68-8.61,8.61-1,1-1.56.85-2.45-.06-2.76-2.86-5.6-5.64-8.43-8.44-.7-.69-1.33-1.26-.29-2.26,3-2.94,6-6,9-8.94A11.32,11.32,0,0,1,261.26,116.42Z"/><path class="cls-2" d="M234.87,90.09c-.29.35-.53.69-.81,1-2.92,2.94-5.89,5.83-8.75,8.82-1,1.05-1.6.74-2.45-.13-2.77-2.84-5.58-5.66-8.44-8.42-.92-.89-1-1.5,0-2.45,2.93-2.81,5.77-5.71,8.63-8.59.65-.65,1.17-1.15,2.06-.23,3,3.08,6.09,6.11,9.13,9.16A8.32,8.32,0,0,1,234.87,90.09Z"/><path class="cls-2" d="M223.27,55.09c.79-.55,1.33-.22,1.94.4,2.89,2.95,5.79,5.89,8.75,8.77.86.84.87,1.39,0,2.24-3,2.88-5.87,5.82-8.76,8.78-.6.62-1.15.94-1.93.38-.33-.07,0,.18-.25,0-4.12-2.28-7-5.91-9.88-9.47a2.05,2.05,0,0,1,.45-2.58c2.68-2.81,5.41-5.57,8.24-8.22A1.7,1.7,0,0,1,223.27,55.09Z"/><path class="cls-2" d="M86.56,213.73c-.39.43-.7.82-1,1.17-2.81,2.82-5.65,5.59-8.41,8.45-.91.94-1.51,1-2.45,0-2.81-2.93-5.69-5.79-8.6-8.62-.85-.83-.93-1.38,0-2.24,3-2.89,5.88-5.84,8.8-8.78.59-.59,1.08-1,1.87-.21,3.09,3.13,6.22,6.22,9.32,9.33A4.66,4.66,0,0,1,86.56,213.73Z"/><path class="cls-2" d="M49.34,78.35c-3,2.94-6.07,5.83-9,8.84-1.09,1.11-1.78,1.38-3,.08-2.64-2.84-5.41-5.55-8.22-8.23-1.06-1-1-1.62,0-2.61,3.06-3,6-6.12,9-9.19.74-.74,1.23-.06,1.66.36q4.56,4.47,9,9C49.32,77.09,49.9,77.58,49.34,78.35Z"/><path class="cls-2" d="M74.23,77.73a9.58,9.58,0,0,1-.73,1c-3,3-6,6-8.94,9-.78.8-1.3.75-2.06,0-2.9-3-5.82-5.9-8.8-8.78-.87-.85-.85-1.42,0-2.27,3-2.89,5.88-5.84,8.8-8.78.61-.61,1.12-.94,1.89-.16,3.08,3.13,6.2,6.23,9.3,9.35A8.7,8.7,0,0,1,74.23,77.73Z"/><path class="cls-2" d="M98.52,76.88c.57.79.22,1.33-.4,1.93-3,2.89-5.87,5.82-8.77,8.75-.67.68-1.19,1.08-2,.19q-4.51-4.6-9.14-9.11a1.23,1.23,0,0,1-.22-1.76c0-.17-.09-.37,0-.5,2.42-3.8,5.86-6.65,9.23-9.53a2.14,2.14,0,0,1,2.81.36c2.82,2.66,5.57,5.4,8.22,8.23A1.64,1.64,0,0,1,98.52,76.88Z"/><path class="cls-2" d="M222.05,76.88c.58.79.22,1.33-.39,1.93-2.95,2.89-5.87,5.82-8.77,8.75-.67.68-1.19,1.08-2.06.19q-4.5-4.6-9.13-9.11a1.23,1.23,0,0,1-.22-1.76c.08-.33-.17,0,0-.25,2.28-4.12,5.9-7,9.46-9.87a2.05,2.05,0,0,1,2.58.45c2.81,2.67,5.57,5.4,8.22,8.23A1.6,1.6,0,0,1,222.05,76.88Z"/><path class="cls-2" d="M236.42,88.48c-.37-.32-.7-.56-1-.85-2.93-2.93-5.83-5.89-8.8-8.77-.91-.88-.8-1.43,0-2.25,2.9-2.84,5.78-5.7,8.59-8.63,1-1,1.55-.89,2.46,0,2.81,2.91,5.71,5.76,8.58,8.63.54.55,1.16,1,.31,1.87-3.12,3.09-6.22,6.21-9.33,9.32A9.24,9.24,0,0,1,236.42,88.48Z"/><path class="cls-2" d="M261.16,67.05a10.13,10.13,0,0,1,1,.74c3,3,5.95,6,9,9,.82.8.71,1.3-.06,2-3,2.9-5.9,5.82-8.78,8.8-.87.9-1.43.79-2.25,0-2.83-2.9-5.73-5.74-8.61-8.61-.62-.62-1.24-1.16-.32-2.07,3.08-3,6.11-6.09,9.17-9.14A10.82,10.82,0,0,1,261.16,67.05Z"/><path class="cls-2" d="M86.45,89.92c-.06.8-.62,1.11-1,1.51-2.74,2.76-5.53,5.47-8.23,8.28-1,1-1.6,1.13-2.63.05-2.74-2.88-5.57-5.68-8.42-8.44-.91-.89-1.07-1.47-.06-2.43,2.93-2.81,5.77-5.71,8.63-8.59.64-.65,1.16-1.17,2.06-.25,3,3.09,6.09,6.11,9.13,9.16A5.57,5.57,0,0,1,86.45,89.92Z"/><path class="cls-2" d="M63.53,212c-.36-.3-.7-.53-1-.82-2.93-2.92-5.84-5.87-8.81-8.76-.84-.83-.94-1.4,0-2.27q4.37-4.23,8.6-8.61c.9-.93,1.51-1,2.46,0,2.8,2.93,5.7,5.78,8.57,8.64.66.65,1.14,1.16.22,2.05-3.08,3-6.1,6.09-9.15,9.14A9.33,9.33,0,0,1,63.53,212Z"/><path class="cls-2" d="M38.92,113.35c-3.3-3.26-6.59-6.54-9.92-9.77-.84-.81-1-1.37-.05-2.24,3-2.88,5.86-5.84,8.79-8.76.44-.44.93-1.25,1.64-.46,3.27,3.59,7.23,6.55,10,10.63a2.51,2.51,0,0,1-1,2.46c-2.27,2.26-4.57,4.52-6.8,6.82A5.51,5.51,0,0,1,38.92,113.35Z"/><path class="cls-2" d="M40.83,140.31c-.54-.84-.06-1.37.52-1.94,2.9-2.86,5.8-5.71,8.62-8.63.94-1,1.53-.92,2.44,0,2.82,2.92,5.72,5.77,8.61,8.63.69.68,1,1.19.16,2-3,3-6,6-9,9-.52.53-1,.85-1.78.46C48.12,149.34,41.38,142.6,40.83,140.31Z"/><path class="cls-2" d="M261,91.61c3.76,3,6.85,6.72,10.34,10,.67.63.53,1.09-.06,1.67-3.11,3.1-6.22,6.2-9.29,9.33a1.17,1.17,0,0,1-1.58.14,1.55,1.55,0,0,1-1.42-.31c-3-3-6.31-5.7-8.83-9.16a3.2,3.2,0,0,1,1-3.19C254.22,97,257.07,93.72,261,91.61Z"/><path class="cls-2" d="M75.26,150c-2.94-3-5.83-6.08-8.84-9-1.12-1.09-1.37-1.78-.07-3,2.83-2.64,5.55-5.42,8.23-8.23,1-1.06,1.62-1,2.6,0,3,3.06,6.12,6,9.19,9,.73.74.06,1.23-.37,1.67q-4.47,4.56-9,9C76.52,150,76,150.6,75.26,150Z"/><path class="cls-2" d="M249.58,149.9c-1,.53-1.54-.26-2.13-.84-2.76-2.75-5.47-5.55-8.29-8.24-1-1-1.07-1.62,0-2.62,2.88-2.75,5.66-5.59,8.46-8.43.73-.74,1.27-1.21,2.24-.21,2.94,3.05,6,6,9,9a1.28,1.28,0,0,1,.34,1.77C258.61,142.59,251.87,149.34,249.58,149.9Z"/><path class="cls-2" d="M192.63,145.84c2.7,5.1-.16,9.39-2,13.83a2.61,2.61,0,0,0-.67.33c-3.3,2.84-3.29,2.84-6.35-.23l-7.15-7.2c-.66-1,.29-1.52.82-2,2.7-2.72,5.36-5.5,8.17-8.11,1.1-1.18,2-1.34,3.26,0S190.78,145.33,192.63,145.84Z"/><path class="cls-2" d="M123.68,28.23H113.29c2,2.33,4.39,3,6.06,4.7-1.74,1.72-3.54,3.39-5.21,5.17-.92,1-1.51.95-2.42,0-2.81-2.92-5.69-5.78-8.59-8.61-.84-.83-.93-1.39,0-2.26,3-2.88,5.9-5.8,8.76-8.8,1.08-1.13,1.65-.53,2.42.27C117.39,21.88,120.54,25.05,123.68,28.23Z"/><path class="cls-2" d="M180.66,32.92l5.66-4-.1-.66h-9.9c3.14-3.17,6.31-6.32,9.4-9.54,1-1,1.61-1.14,2.64-.06,2.73,2.87,5.55,5.67,8.39,8.44.88.85,1.14,1.43.11,2.43-3,2.86-5.89,5.81-8.77,8.77-.77.8-1.29.78-2,0C184.29,36.45,182.46,34.7,180.66,32.92Z"/><path class="cls-2" d="M100.52,104.06v10l.53.16,4.14-5.73c1.66,1.68,3.28,3.42,5,5,1,.94,1.18,1.57.07,2.62-2.88,2.74-5.68,5.58-8.44,8.44-.9.94-1.49,1-2.43,0q-4.14-4.31-8.45-8.44c-1-1-1.08-1.64,0-2.65C94.18,110.4,97.33,107.21,100.52,104.06Z"/><path class="cls-2" d="M194.81,108.45l4.05,5.67.6,0V104a.41.41,0,0,1,.23-.18c3.07,3.15,6.23,6.21,9.29,9.37.55.57,1.74,1,.94,2.22-3.08,3-6.19,6-9.2,9-1,1-1.6,1.08-2.61,0-2.74-2.87-5.53-5.69-8.41-8.42-1.12-1.06-.88-1.7.1-2.62C191.53,111.85,193.14,110.13,194.81,108.45Z"/><path class="cls-2" d="M176.4,127.24h10.83l-6.4-4.63c2-2,3.88-5.33,6.16-5.67s4,3.36,6,5.26c1.63,1.56,4.37,3,4.39,4.93s-2.74,3.37-4.36,4.94c-2,1.92-3.68,5.43-6,5.3-2-.11-3.93-3.34-5.84-5.23C179.54,130.54,178,128.87,176.4,127.24Z"/><path class="cls-2" d="M199.48,51.38v-10l-.48-.15L194.82,47c-1.74-1.72-3.45-3.48-5.24-5.15-.9-.83-.88-1.39,0-2.24,3-2.88,5.89-5.82,8.78-8.78.76-.78,1.3-.82,2.08,0,2.9,3,5.82,5.89,8.79,8.78.85.83.91,1.41,0,2.26C206,45,202.73,48.18,199.48,51.38Z"/><path class="cls-2" d="M105.17,47l-4.1-5.68h-.56V51.37c-3.19-3.13-6.34-6.31-9.58-9.39-1.08-1-1-1.66,0-2.64q4.29-4.12,8.43-8.42c.94-1,1.54-.9,2.45,0q4.22,4.38,8.59,8.61c.88.86.86,1.42,0,2.25C108.62,43.48,106.91,45.24,105.17,47Z"/><path class="cls-2" d="M119.16,122.6l-6.42,4.64H123.6c-3.2,3.25-6.42,6.47-9.57,9.76-.87.91-1.43.79-2.25-.05q-4.32-4.44-8.77-8.78c-.8-.78-.75-1.3,0-2.06q4.44-4.33,8.78-8.78c.84-.87,1.42-.9,2.25,0C115.71,119.13,117.45,120.85,119.16,122.6Z"/><path class="cls-2" d="M89.86,186A72.17,72.17,0,0,1,82,179.76c-.66-.56-1.16-1.07-.85-2.11.46-1.49-.24-2.76-1.17-3.9,2.29-2.25,4.62-4.47,6.85-6.78.93-1,1.55-1.24,2.62-.12,2.8,2.94,5.69,5.79,8.61,8.61.9.87.82,1.41,0,2.24C95.3,180.42,92.59,183.22,89.86,186Z"/><path class="cls-2" d="M121.09,231.58a93.38,93.38,0,0,0,12,3.52c2.94,3.41,2.94,3.41-.26,6.6-2.16,2.16-4.35,4.28-6.46,6.48-.83.86-1.39.91-2.25,0q-4.24-4.38-8.63-8.62c-.94-.91-1-1.51,0-2.43C117.43,235.35,119.24,233.44,121.09,231.58Z"/><path class="cls-2" d="M252.43,178.55c6.21-1.78,8.54-5.47,7.18-11.38,1.05-1.41,1.94-1.35,3.17,0,2.58,2.79,5.3,5.44,8.05,8.07,1,1,1.16,1.57.07,2.61-2.88,2.73-5.66,5.57-8.42,8.42-.87.89-1.49,1.13-2.46.1C257.54,183.7,255,181.14,252.43,178.55Z"/><path class="cls-2" d="M241.57,192.71l8.22-13.82c2.85,2.86,5.63,5.8,8.57,8.57,1.25,1.18,1.14,1.86-.05,3-2.76,2.59-5.46,5.26-8,8-1.2,1.29-1.9,1.07-3-.09C245.47,196.42,243.49,194.59,241.57,192.71Z"/><path class="cls-2" d="M201.83,226.87a159.08,159.08,0,0,0,13.74-8.1c1.9,1.92,3.75,3.9,5.72,5.76,1,1,1.39,1.62.13,2.8-2.9,2.71-5.68,5.56-8.44,8.43-.93,1-1.53.93-2.43,0C207.68,232.74,204.74,229.82,201.83,226.87Z"/><path class="cls-2" d="M166,235.93l15.15-2.18c.45.5.9,1,1.37,1.49,3.08,3.15,3.08,3.14.05,6.17-2.15,2.16-4.37,4.26-6.45,6.49-1,1.12-1.7,1.24-2.81,0-2.24-2.42-4.65-4.69-7-7C163.85,238.44,163.86,238.44,166,235.93Z"/><path class="cls-2" d="M229.34,145.13a144.23,144.23,0,0,0-16.15-5.51c3.28-3.31,6.57-6.6,9.81-9.94.81-.84,1.36-1,2.24-.05,2.89,3,5.83,5.91,8.8,8.82.78.76.83,1.3,0,2.06C232.44,142,230.91,143.59,229.34,145.13Z"/><path class="cls-2" d="M50.61,154.7A9.93,9.93,0,0,0,53,161.77c1.33,1.6,2.91,3,4.35,4.5.54.57,1.45,1,1,2.06-2.3,1.48-4,3.65-5.88,5.55-1,1-1.64,1-2.64,0-2.75-2.87-5.58-5.67-8.45-8.43-1-.93-.94-1.55,0-2.46,2.87-2.74,5.68-5.56,8.51-8.35A.39.39,0,0,1,50.61,154.7Z"/><path class="cls-2" d="M105.31,195.24a66.25,66.25,0,0,1-13.77-8.13c2.61-2.64,5.26-5.25,7.82-7.94.9-.94,1.49-1,2.43,0q4.21,4.4,8.59,8.62c1,1,.8,1.57-.1,2.43C108.57,191.82,107,193.55,105.31,195.24Z"/><path class="cls-2" d="M168.77,45.74A32.84,32.84,0,0,1,179.2,34.05c1.76,1.81,3.46,3.68,5.29,5.42,1,.93,1,1.5,0,2.42-2.86,2.75-5.69,5.53-8.4,8.42-1.16,1.23-1.84.92-2.81-.13C171.84,48.63,170.28,47.21,168.77,45.74Z"/><path class="cls-2" d="M120.84,34c4.26,3.19,8,6.88,10.37,11.71-1.56,1.54-3.17,3-4.67,4.63-.86.9-1.47,1.09-2.44.08-2.81-2.92-5.68-5.79-8.6-8.58-1-1-.91-1.53,0-2.43C117.36,37.71,119.08,35.85,120.84,34Z"/><path class="cls-2" d="M179,121.3a34.92,34.92,0,0,1-10.33-11.59c1.51-1.58,3-3.18,4.54-4.73a1.61,1.61,0,0,1,2.61.07c2.91,2.94,5.85,5.86,8.82,8.73.79.77.79,1.31,0,2.06C182.73,117.62,180.88,119.47,179,121.3Z"/><path class="cls-2" d="M180.84,184.09a37.08,37.08,0,0,1-11,10.87c-1.69-1.66-3.34-3.36-5.08-5-1-.9-.93-1.62,0-2.52,2.79-2.73,5.53-5.49,8.27-8.25,1-1,1.86-1.18,2.94,0C177.54,180.93,179.22,182.48,180.84,184.09Z"/><path class="cls-2" d="M118,59a33.47,33.47,0,0,1-11.69-10.43c1.82-1.76,3.69-3.46,5.42-5.29.93-1,1.52-.91,2.42,0q4.13,4.28,8.4,8.4c1,1,1.15,1.61.06,2.62C121,55.77,119.53,57.41,118,59Z"/><path class="cls-2" d="M193.67,48.53A33.66,33.66,0,0,1,182,59c-1.53-1.56-3-3.16-4.61-4.67-.87-.83-1.21-1.43-.15-2.44,3-2.86,5.89-5.78,8.76-8.75.92-1,1.46-.66,2.23.13C190,45,191.86,46.77,193.67,48.53Z"/><path class="cls-2" d="M106.36,106.85A32.67,32.67,0,0,1,118,96.56c3,.34,4.34,2.85,5.88,4.93.71,1-.12,2.06-.8,3a18.27,18.27,0,0,1-4.84,3.86c-1.28,1.22-2.64,2.38-3.82,3.7-1,1.13-1.71,1.29-2.81.06C109.93,110.23,108.11,108.58,106.36,106.85Z"/><path class="cls-2" d="M181.63,96.66c2.51.29,4.07,2.17,5.86,3.6a29.58,29.58,0,0,1,6.13,6.6c-1.67,1.66-3.45,3.22-5,5-1.21,1.42-2.14,1.19-3.23,0-2.81-2.62-5.47-5.39-8.17-8.11-.53-.53-1.48-1-.82-2.06Z"/><path class="cls-2" d="M131.4,109.64A35.92,35.92,0,0,1,121,121.29a54.3,54.3,0,0,1-6.52-6.7,3,3,0,0,1,.82-1.26,84.49,84.49,0,0,0,6.65-7.49c2.5-3,3.92-2.91,6.58-.13C129.63,106.88,131.35,107.67,131.4,109.64Z"/><path class="cls-2" d="M217.16,217.6l11.66-10.15c1.74,1.71,3.45,3.46,5.22,5.14.79.74.83,1.26,0,2-3,2.94-6,5.93-8.93,8.94-.81.83-1.36.65-2.07-.08C221.13,221.51,219.13,219.56,217.16,217.6Z"/><path class="cls-2" d="M140.45,239.58a5.36,5.36,0,0,0,4.29-2.24c1-1.26,9.55-1.26,10.51,0a5.37,5.37,0,0,0,4.29,2.24c-2.84,2.9-5.71,5.78-8.51,8.71-.77.81-1.29.79-2.06,0C146.16,245.35,143.3,242.48,140.45,239.58Z"/><path class="cls-2" d="M147.38,203.19c-1.3.3-2.08-.22-2.89-1.31-2-2.68-5.29-2.72-7.22,0a2.82,2.82,0,0,1-3.18,1.3c-2.15-.36-4.38-.07-6.49-.81-.85-.94-.38-1.6.38-2.33,2.78-2.73,5.57-5.45,8.25-8.28,1.07-1.11,1.75-1.2,2.84,0,2.43,2.6,4.92,5.16,7.56,7.54C148,200.51,148.49,201.61,147.38,203.19Z"/><path class="cls-2" d="M78.4,172.44c0-1.74-.25-3.4-1.86-4.44-.76-.49-.53-1.08-.43-1.76.21-1.53-.17-3.17-1.48-3.79C72,161.21,72,159.09,72.2,156.8c3.84-3.33,3.84-3.33,7.47.31,2,2,3.89,4,5.91,5.87.92.88,1.07,1.5,0,2.44C83.17,167.71,80.81,170.1,78.4,172.44Z"/><path class="cls-10" d="M173.13,28.23c-7.17.23-14.34.27-21.51,0l9.43-9.53c.59-.6,1.11-1.35,2.11-.71,2.28.56,9,7.31,9.58,9.59Z"/><path class="cls-10" d="M148.38,28.21c-7.17.3-14.34.24-21.51,0l.39-.67c.55-2.29,7.29-9,9.58-9.58,1-.65,1.52.09,2.11.69Z"/><path class="cls-3" d="M199.47,76.16V54.6l.8.49c.17,0,.37-.09.5,0,3.79,2.43,6.64,5.86,9.53,9.23a2.15,2.15,0,0,1-.36,2.81q-4,4.23-8.23,8.23a1.66,1.66,0,0,1-1.44.32Z"/><path class="cls-3" d="M100.52,54.61V76.15l-.79-.49c-.17,0-.38.1-.5,0-3.81-2.43-6.65-5.86-9.54-9.23a2.15,2.15,0,0,1,.36-2.81q4-4.23,8.24-8.23a1.62,1.62,0,0,1,1.44-.31Z"/><path class="cls-3" d="M209.44,138.74a36.83,36.83,0,0,0-9.08-.47c-3.53.34-6.31,1.77-7.7,5.24-4.38-3.82-4.38-3.82-.36-7.84,2-2,4-3.9,5.88-5.92.9-1,1.5-1,2.42,0C203.5,132.77,206.49,135.74,209.44,138.74Z"/><path class="cls-2" d="M151.64,127.23H173c-3.19,3.24-6.41,6.46-9.56,9.74-.85.88-1.42.86-2.26,0C158.05,133.69,154.83,130.48,151.64,127.23Z"/><path class="cls-2" d="M199.48,100.78V79.38c3.24,3.19,6.47,6.41,9.75,9.57.87.84.87,1.42,0,2.26C206,94.37,202.72,97.59,199.48,100.78Z"/><path class="cls-2" d="M100.51,79.38v21.39c-3.24-3.19-6.46-6.4-9.74-9.56-.87-.84-.87-1.42,0-2.26C94.05,85.79,97.27,82.58,100.51,79.38Z"/><path class="cls-2" d="M127,127.24h21.38c-3.19,3.24-6.4,6.45-9.56,9.73-.84.87-1.41.89-2.26,0C133.39,133.7,130.18,130.48,127,127.24Z"/><path class="cls-11" d="M99.73,55.1c-2.9,3-5.74,6-8.71,8.86-1.13,1.09-1.13,1.75,0,2.84,3,2.88,5.81,5.9,8.71,8.86a2.44,2.44,0,0,1-1.21,1.22c-3-2.9-6-5.74-8.87-8.72-1.09-1.13-1.75-1.12-2.84,0-2.89,3-5.9,5.81-8.87,8.71a2.44,2.44,0,0,1-1.21-1.2c2.89-3,5.74-6,8.71-8.88,1.13-1.09,1.13-1.75,0-2.84-3-2.89-5.81-5.91-8.71-8.87a2.46,2.46,0,0,1,1.21-1.21c3,2.89,6,5.74,8.87,8.71,1.08,1.12,1.74,1.15,2.84,0,2.88-3,5.9-5.82,8.86-8.72A2.42,2.42,0,0,1,99.73,55.1Z"/><path class="cls-11" d="M200.27,75.67c2.89-3,5.74-6,8.71-8.87,1.13-1.09,1.13-1.75,0-2.84-3-2.89-5.81-5.91-8.71-8.87a2.46,2.46,0,0,1,1.21-1.21c3,2.89,6,5.74,8.87,8.71,1.08,1.12,1.74,1.15,2.84,0,2.88-3,5.9-5.82,8.86-8.72a2.48,2.48,0,0,1,1.22,1.21c-2.9,3-5.74,6-8.71,8.87-1.13,1.09-1.14,1.74,0,2.84,3,2.88,5.82,5.9,8.72,8.86a2.46,2.46,0,0,1-1.22,1.22c-3-2.9-6-5.74-8.86-8.72-1.09-1.13-1.75-1.12-2.84,0-2.89,3-5.9,5.81-8.87,8.71A2.42,2.42,0,0,1,200.27,75.67Z"/><path class="cls-3" d="M230.27,206c1-1,2.24-.31,3.35-.34,5.26-.15,7.21-2.84,5.53-7.81-.5-1.48.67-2.27,1.34-3.26,1.94,1.88,3.84,3.8,5.82,5.64.92.85.8,1.43,0,2.25q-4.46,4.34-8.79,8.78c-.78.81-1.31.77-2,0C233.75,209.42,232,207.7,230.27,206Z"/><path class="cls-3" d="M104.58,223.22A159.26,159.26,0,0,0,119,230.84c-1.54,1.56-3.15,3.07-4.6,4.71-1,1.15-1.69,1.24-2.8,0-2.47-2.65-5-5.25-7.69-7.71-1.48-1.35-2-2.4-.09-3.7A5.44,5.44,0,0,0,104.58,223.22Z"/><path class="cls-2" d="M58.37,170.9c3.18,2.23,2.7,6.88,6,9,.84.55.19,1.4.34,2.11a7.65,7.65,0,0,0,1.51,2.86,5.79,5.79,0,0,0-.93.84c-1.19,1.66-2.18,1.48-3.52,0-2.5-2.73-5.17-5.31-7.84-7.88-1-.94-1.22-1.61-.08-2.62C55.42,173.9,56.87,172.36,58.37,170.9Z"/><path class="cls-4" d="M131.4,109.64c-1.89-1.18-3.24-2.94-4.77-4.49-1-1-1.64-1.05-2.66,0-3.12,3.2-6.33,6.31-9.51,9.45.6-2.57,3.09-3.59,4.51-5.48.21-.29.82-.54.38-1-.18-.17-.76.08-1.16.14,1.45-1.52,2.84-3.1,4.36-4.53,1-1,1.19-1.61.06-2.62C121,99.7,119.5,98.1,118,96.56a3,3,0,0,1,1.92-1c1.66.17,2.64,1.39,3.66,2.47s2,1.07,3.15,0c2.64-2.53,5.21-5.17,8.48-7,.61-.16,1.28-.78,1.82-.24s-.22,1.19-.25,1.81c-1.3,3.17-4.06,5.12-6.3,7.49s-2.32,2.38,0,4.81c.81.85,1.72,1.64,1.79,3Z"/><path class="cls-4" d="M238,16.17q4.63,4.59,9.29,9.18c.62.61,1.13,1.58,2.29,1a1.37,1.37,0,0,1,1.22,1.2c-.58,1.16.39,1.67,1,2.29,3,3.11,6.11,6.2,9.17,9.29-1,.11-1.83-1.09-2.9-.36-2.65-2.58-5.36-5.11-7.94-7.77-1-1-1.64-1-2.64,0-2.77,2.83-5.64,5.55-8.47,8.32a1.42,1.42,0,0,0-1.23-1.23c2.77-2.83,5.49-5.7,8.32-8.47,1-1,1.06-1.61,0-2.63-2.66-2.58-5.19-5.29-7.77-7.95C239.09,18,237.9,17.17,238,16.17Z"/><path class="cls-4" d="M127.26,151.11c-.58,1.16.39,1.67,1,2.29,3,3.11,6.11,6.19,9.17,9.29-1,.1-1.83-1.09-2.9-.36-2.6-2.53-5.26-5-7.76-7.61-1.18-1.23-1.87-1.09-3,0-2.57,2.53-4.83,5.39-7.82,7.47a1.25,1.25,0,0,0-1.17-1.07c2.53-2.6,5-5.26,7.62-7.76,1.18-1.13,1.28-1.83.05-3-2.62-2.5-5.08-5.17-7.61-7.77.73-1.07-.46-1.91-.36-2.9,3.1,3.06,6.19,6.13,9.29,9.17.63.61,1.13,1.58,2.29,1A1.37,1.37,0,0,1,127.26,151.11Z"/><path class="cls-4" d="M261,91.61c-3.06,3.1-6.13,6.19-9.17,9.3-.61.62-1.58,1.12-1,2.28a1.35,1.35,0,0,1-1.21,1.21c-1.16-.57-1.66.4-2.29,1q-4.65,4.57-9.29,9.18c-.11-1,1.09-1.83.36-2.9,2.52-2.6,5-5.27,7.6-7.78,1.24-1.17,1.15-1.87,0-3-2.62-2.51-5.09-5.17-7.62-7.76a1.28,1.28,0,0,0,1.17-1.08c3,2.09,5.25,4.94,7.82,7.47,1.15,1.13,1.83,1.28,3,0,2.5-2.62,5.17-5.09,7.77-7.61C259.14,92.7,260,91.51,261,91.61Z"/><path class="cls-4" d="M114.46,263.26q4.65,4.59,9.29,9.18c.63.61,1.13,1.58,2.29,1a1.37,1.37,0,0,1,1.22,1.2c-.58,1.16.39,1.67,1,2.29,3,3.11,6.11,6.2,9.17,9.3-1,.1-1.83-1.1-2.9-.36-2.6-2.53-5.26-5-7.76-7.61-1.19-1.24-1.87-1.1-3,0-2.57,2.52-4.83,5.38-7.82,7.47a1.26,1.26,0,0,0-1.17-1.08c2.53-2.59,5-5.25,7.62-7.76,1.18-1.12,1.28-1.82.05-3-2.62-2.5-5.08-5.17-7.61-7.77C115.55,265.09,114.36,264.26,114.46,263.26Z"/><path class="cls-3" d="M245.5,153.73,231.39,146a42,42,0,0,0,3.37-3.44c1.32-1.69,2.24-1.32,3.53.08,2.34,2.55,4.77,5.05,7.34,7.37C247.26,151.51,247.28,152.56,245.5,153.73Z"/><path class="cls-3" d="M68.67,146.49l-14.75,6.68c-1.2-.83-1.11-1.58-.06-2.58q4.26-4.12,8.36-8.4c1-1.05,1.72-1.07,2.62,0C66.05,143.7,67.78,144.72,68.67,146.49Z"/><path class="cls-2" d="M123.53,201.67a65.63,65.63,0,0,1-16.3-5.48c1.85-1.82,3.54-4.87,5.59-5.12s3.84,3.05,5.62,4.88S122.53,199.15,123.53,201.67Z"/><path class="cls-3" d="M180.11,60a44.47,44.47,0,0,1-15.78,4.58c2.89-2.93,5.79-5.86,8.66-8.82,1.09-1.11,2-1.26,3.11,0C177.35,57.25,178.76,58.58,180.11,60Z"/><path class="cls-5" d="M167.76,107.84a42.31,42.31,0,0,1-4.51-15.22c2.94,2.9,5.86,5.81,8.83,8.68.85.83.91,1.47,0,2.3C170.62,105,169.21,106.42,167.76,107.84Z"/><path class="cls-3" d="M135.23,64.54c-5.34-.77-10.55-2-15.34-4.56,1.41-1.46,2.85-2.89,4.22-4.39.75-.81,1.33-1.09,2.25-.13C129.27,58.53,132.26,61.52,135.23,64.54Z"/><path class="cls-3" d="M164.84,91a46.34,46.34,0,0,1,14.33,3.89c.45.2,1,.37.91,1a24.17,24.17,0,0,0-4.71,4.55c-1,1.06-1.46-.07-2-.56-2.74-2.71-5.54-5.39-8.17-8.22Z"/><path class="cls-2" d="M163.27,62.83c.69-5.3,1.86-10.46,4.5-15.18l5.11,4.77a.78.78,0,0,1,0,1.13C169.72,56.7,166.9,60.18,163.27,62.83Z"/><path class="cls-2" d="M132.21,47.67c2.65,4.71,3.79,9.87,4.51,15.16-2.95-2.9-5.89-5.81-8.88-8.68-.87-.83-.92-1.45,0-2.27C129.33,50.52,130.76,49.08,132.21,47.67Z"/><path class="cls-12" d="M68,185.73a1.55,1.55,0,0,1,1.77,1.05,103.55,103.55,0,0,0,7.51,11.83c-1,1-1.76,1.08-2.84-.08-2.44-2.66-5-5.25-7.64-7.66-1.65-1.47-1.85-2.54,0-3.85A8.13,8.13,0,0,0,68,185.73Z"/><path class="cls-3" d="M182.08,170.78a9.39,9.39,0,0,0,1.56,6.47c1.48,2.21-.88,3.39-1.64,5-1.56-1.51-3.09-3.07-4.71-4.52-1-.93-.85-1.58.08-2.43C179,173.84,180.51,172.3,182.08,170.78Z"/><path class="cls-5" d="M168.17,196.15c-.78.47-1.58.91-2.35,1.4-1.4.9-2.44,1.15-3.76-.47s-3.58-1.45-5.54-.57c.06-.15.08-.35.2-.45,2-1.74,3.44-5.24,5.8-5C164.57,191.32,166.3,194.35,168.17,196.15Z"/><path class="cls-6" d="M90.57,212.66l12.29,9.53c-2.2,2.42-2.2,2.42-4.46.16-2.49-2.48-5-5-7.47-7.45C90.24,214.22,89.53,213.59,90.57,212.66Z"/><path class="cls-13" d="M38.92,113.35l10.44-10.6c.48.42.85,1,1.57,1-3.25,3.93-7.09,7.3-10.66,10.91A1.55,1.55,0,0,0,38.92,113.35Z"/><path class="cls-13" d="M172.9,151.55,162.46,141a1.55,1.55,0,0,0,1.34-1.35l9.27,9.19c.47.47,1,.89,1,1.66Z"/><path class="cls-13" d="M172.9,275.1l-10.44-10.59a1.56,1.56,0,0,0,1.34-1.36l9.27,9.2c.47.46,1,.89,1,1.65Z"/><path class="cls-13" d="M49.36,28,38.92,17.41a1.55,1.55,0,0,0,1.35-1.35l9.26,9.2c.47.46,1,.89,1,1.65Z"/><path class="cls-14" d="M258.77,165.23c-3-4.44-7.52-7.21-11.66-10.39,1.14-1.33,2.08-1.43,3.4,0,2.58,2.84,5.38,5.49,8.13,8.18C259.4,163.79,259.9,164.43,258.77,165.23Z"/><path class="cls-13" d="M250.8,27.56a2.38,2.38,0,0,1-1.22-1.2l10.15-10.29.65,1.91A122,122,0,0,1,250.8,27.56Z"/><path class="cls-13" d="M127.26,274.65a2.42,2.42,0,0,1-1.22-1.2l10.15-10.29c.22.64.44,1.28.65,1.91A122,122,0,0,1,127.26,274.65Z"/><path class="cls-13" d="M249.58,104.4a2.46,2.46,0,0,1,1.21-1.21,127.47,127.47,0,0,1,9.59,9.58c-.22.65-.43,1.29-.65,1.93Q254.66,109.56,249.58,104.4Z"/><path class="cls-13" d="M127.26,151.11a2.46,2.46,0,0,1-1.22-1.2l10.15-10.29c.22.63.44,1.27.65,1.91A125.49,125.49,0,0,1,127.26,151.11Z"/><path class="cls-13" d="M249.58,149.9a123.83,123.83,0,0,1,9.59-9.58,2.42,2.42,0,0,1,1.21,1.21,123.83,123.83,0,0,1-9.59,9.58A2.46,2.46,0,0,1,249.58,149.9Z"/><path class="cls-13" d="M40.83,140.31a122,122,0,0,1,9.58,9.58,2.4,2.4,0,0,1-1.21,1.22,127.47,127.47,0,0,1-9.58-9.59A2.46,2.46,0,0,1,40.83,140.31Z"/><path class="cls-13" d="M172.74,27.56A125.63,125.63,0,0,1,163.16,18a2.42,2.42,0,0,1,1.21-1.21A127.47,127.47,0,0,1,174,26.35,2.46,2.46,0,0,1,172.74,27.56Z"/><path class="cls-13" d="M136.84,18a123.7,123.7,0,0,1-9.58,9.58,2.42,2.42,0,0,1-1.22-1.2,124,124,0,0,1,9.59-9.59A2.46,2.46,0,0,1,136.84,18Z"/><path class="cls-15" d="M183.51,233.32l9.9-2.92c-1,1-1.92,2.09-2.92,3.09C187,237,187,237,183.51,233.32Z"/><path class="cls-16" d="M78.46,200q5.12,5.88,10.69,11.35c-.85,1-1.44.32-2.07-.31-2.87-2.88-5.71-5.79-8.65-8.59C77.41,201.52,77.52,200.83,78.46,200Z"/><path class="cls-17" d="M71.9,154.45c.19-3.18-2.37-5.25-3.26-8a16.68,16.68,0,0,1,5,4.79C74.88,152.83,72.48,153.34,71.9,154.45Z"/><path class="cls-18" d="M49.34,78.35A35.68,35.68,0,0,0,38.17,67.24c1-1.08,1.65-.16,2.27.45,2.8,2.76,5.58,5.55,8.35,8.34C49.41,76.67,50.28,77.31,49.34,78.35Z"/><path class="cls-18" d="M38.17,63.52a1.31,1.31,0,0,0,1.37-.33q4.7-4.72,9.41-9.41a1.34,1.34,0,0,0,.39-1.37c.94,1,.07,1.68-.55,2.31q-4.15,4.2-8.35,8.35C39.82,63.68,39.17,64.6,38.17,63.52Z"/><path class="cls-18" d="M198.8,26.48a35.76,35.76,0,0,0,11.11-11.16c1.07,1,.15,1.65-.46,2.27q-4.14,4.22-8.34,8.35C200.48,26.56,199.84,27.44,198.8,26.48Z"/><path class="cls-18" d="M75.26,26.48A35.76,35.76,0,0,0,86.37,15.32c1.07,1,.15,1.65-.46,2.27q-4.14,4.22-8.34,8.35C76.94,26.56,76.3,27.44,75.26,26.48Z"/><path class="cls-18" d="M75.26,150a35.79,35.79,0,0,0,11.11-11.17c1.07,1,.15,1.66-.46,2.28q-4.14,4.2-8.34,8.34C76.94,150.11,76.3,151,75.26,150Z"/><path class="cls-18" d="M86.38,115.44a1.42,1.42,0,0,0-.53-1.55q-4.53-4.52-9-9.06a1.44,1.44,0,0,0-1.55-.55c1-1,1.68-.08,2.31.54q4.2,4.14,8.34,8.34C86.52,113.79,87.44,114.44,86.38,115.44Z"/><path class="cls-18" d="M198.8,273.57a35.65,35.65,0,0,0,11.11-11.16c1.07,1,.15,1.65-.46,2.28q-4.14,4.2-8.34,8.34C200.48,273.65,199.84,274.53,198.8,273.57Z"/><path class="cls-18" d="M161.71,187.07a1.42,1.42,0,0,0,1.55-.51q4.52-4.55,9.05-9.06a1.44,1.44,0,0,0,.57-1.54c.94,1,.07,1.68-.55,2.31q-4.16,4.2-8.35,8.34C163.36,187.22,162.71,188.14,161.71,187.07Z"/><path class="cls-18" d="M38.17,187.07a1.29,1.29,0,0,0,1.37-.34L49,177.32a1.33,1.33,0,0,0,.39-1.36c.94,1,.07,1.68-.55,2.31q-4.15,4.2-8.35,8.34C39.82,187.22,39.17,188.15,38.17,187.07Z"/><path class="cls-18" d="M49.34,201.89a35.89,35.89,0,0,0-11.17-11.11c1-1.08,1.65-.15,2.27.46q4.2,4.14,8.35,8.34C49.41,200.21,50.28,200.85,49.34,201.89Z"/><path class="cls-18" d="M209.92,115.44c.34-1.18-.68-1.63-1.27-2.28-2.92-3.17-6.3-5.89-9-9.31,3.85,2.84,6.85,6.58,10.27,9.87A1,1,0,0,1,209.92,115.44Z"/><path class="cls-19" d="M163.27,62.83c3-3,6-5.92,9-8.86a1.46,1.46,0,0,0,.58-1.55,1.09,1.09,0,0,1,0,1.75c-3.26,3.12-6.08,6.7-9.76,9.38Z"/><path class="cls-20" d="M52.89,101.73c-.14,1.09.67,1.63,1.3,2.28l7.69,7.89c-3.56-2.3-6.09-5.7-9.09-8.6A1,1,0,0,1,52.89,101.73Z"/><path class="cls-20" d="M52.89,225.28c-.14,1.08.67,1.63,1.3,2.28l7.69,7.88c-3.56-2.3-6.09-5.7-9.09-8.6A1,1,0,0,1,52.89,225.28Z"/><path class="cls-20" d="M175.37,277.34c-1.19-.54-1.63.53-2.23,1.11-2.66,2.53-5.26,5.11-7.89,7.67,2.23-3.54,5.64-6,8.45-9A.94.94,0,0,1,175.37,277.34Z"/><path class="cls-20" d="M41.71,215.28c2.63,2.56,5.24,5.13,7.89,7.66.61.58,1,1.66,2.24,1.11-.37.66-1,.83-1.47.34C47.43,221.41,44,218.85,41.71,215.28Z"/><path class="cls-21" d="M176.43,101.73c-.14,1.09.67,1.63,1.3,2.28l7.69,7.89c-3.57-2.3-6.09-5.7-9.09-8.6A1,1,0,0,1,176.43,101.73Z"/><path class="cls-20" d="M51.84,30.25c-1.2-.54-1.63.54-2.24,1.11C47,33.89,44.34,36.47,41.71,39c2.23-3.55,5.64-6,8.46-9A.94.94,0,0,1,51.84,30.25Z"/><path class="cls-21" d="M165.25,91.73c2.62,2.56,5.23,5.13,7.89,7.67.6.58,1,1.65,2.23,1.11-.36.66-1,.83-1.46.34C171,97.87,167.57,95.3,165.25,91.73Z"/><path class="cls-20" d="M61.88,18.86l-7.69,7.89c-.63.65-1.44,1.19-1.3,2.28a1,1,0,0,1-.1-1.57C55.79,24.56,58.32,21.16,61.88,18.86Z"/><path class="cls-20" d="M185.42,142.41l-7.69,7.88c-.63.65-1.44,1.2-1.3,2.28a1,1,0,0,1-.1-1.56C179.33,148.11,181.85,144.71,185.42,142.41Z"/><path class="cls-20" d="M175.37,153.8c-1.21-.55-1.64.55-2.26,1.13-2.63,2.5-5.21,5-7.81,7.58,2.24-3.5,5.61-5.95,8.41-8.91A.94.94,0,0,1,175.37,153.8Z"/><path class="cls-20" d="M41.76,91.8c2.6,2.53,5.19,5.07,7.82,7.57.61.59,1,1.68,2.26,1.14a.94.94,0,0,1-1.66.2C47.37,97.74,44,95.3,41.76,91.8Z"/><path class="cls-20" d="M185.35,266l-7.6,7.82c-.63.65-1.46,1.2-1.32,2.3a1,1,0,0,1-.11-1.56C179.3,271.67,181.82,268.31,185.35,266Z"/><path class="cls-22" d="M155.29,197.73a6.62,6.62,0,0,0-.61,2.11c.13,1.89-.93,2.38-2.49,2.46-.72-.82-.5-1.48.29-2.1C153.45,199.42,154.07,198.24,155.29,197.73Z"/><path class="cls-23" d="M50.61,154.7l-.66-.07c.52-.74,1-1.66,2-.54Z"/><path class="cls-24" d="M189.7,163.1a2.44,2.44,0,0,1-.54,1.76C188.16,163.91,189.17,163.58,189.7,163.1Z"/><path class="cls-25" d="M228.24,204.6a97.33,97.33,0,0,1-23.83,18.26c-12,6.44-25,9.64-38.54,10.64-1.81.13-2.27-.34-2.25-2.14q.13-14.09,0-28.18a2.79,2.79,0,0,1,1.93-3,44.1,44.1,0,0,0,19.6-18.52c.66-1.17,1-1.88,2.42-.59C199.46,191.49,212.53,199.9,228.24,204.6Z"/><path class="cls-25" d="M136.33,219.55c0,3.81-.14,7.63,0,11.43.11,2.15-.65,2.28-2.43,1.93a83.29,83.29,0,0,1-31.52-14c-12.06-8.45-22.3-18.65-29.74-31.5-1.06-1.81-1.22-2.88,1-3.81,1.92-.82,3.78-2.91,5.52-2.77s3.28,2.4,4.92,3.71c12.69,10.11,26.67,17.52,42.88,20.14a48.51,48.51,0,0,0,7.31.71c1.75,0,2.1.63,2.06,2.21C136.26,211.59,136.33,215.57,136.33,219.55Z"/><path class="cls-26" d="M237.86,193.75c-.5,2.48-1.77,2.48-3.75,1.87-15.52-4.75-29.44-12.24-41.21-23.57-2-2-2.62-3.64-1.53-6.36,1.69-4.21,2.9-8.63,4.42-13.28a87.2,87.2,0,0,0,16.26,12.23,110.92,110.92,0,0,0,33.29,13.29c.61.13,2.19-.37,1.53,1.09-.4.9-.46,2.78-2.45,2.19-2.18-.65-4.39-1.22-6.58-1.88-.94-.29-2-.63-2.26.65-.24,1.1.84,1.3,1.64,1.54,1.7.52,3.41,1,5.1,1.52.65.21,2.08,0,1.36,1.34-.45.86-.49,2.54-2.36,1.94-2.17-.7-4.39-1.23-6.57-1.9-.89-.27-1.79-.5-2.09.61s.69,1.36,1.52,1.6c1.7.5,3.41,1,5.1,1.51.61.2,1.94.08,1.42,1.13-.44.89-.45,2.78-2.46,2.15s-4.05-1.19-6.09-1.75c-.84-.22-2-.91-2.37.41s.95,1.5,1.87,1.79Z"/><path class="cls-26" d="M200.29,139.93c21.65,2.3,39.56,11.22,55.3,25-2.14,0-3.75-1.31-5.58-2.06-2.51-1-5-2.12-7.49-3.11-.85-.33-2-1.23-2.54.31-.41,1.24.82,1.42,1.66,1.77a108.68,108.68,0,0,1,10.87,4.84l2.33,1.28C240.46,169.64,205.07,152,200.29,139.93Z"/><path class="cls-26" d="M257.58,170.6c-.7,3.76-2.24,5.29-5.67,5.48-5.61.3-10.86-1.45-16.09-3.14a105.26,105.26,0,0,1-34.62-18.72,17.83,17.83,0,0,1-5.52-6.54,5.35,5.35,0,0,1-.53-3.92,3.41,3.41,0,0,1,2.2-2.3c1.36-.43,1.36,1,1.79,1.69,3.26,5,7.86,8.6,12.8,11.77,11.34,7.28,23.38,12.92,36.8,15.17A48.22,48.22,0,0,0,257.58,170.6Z"/><path class="cls-26" d="M233.43,203.4a16.74,16.74,0,0,1-5.18-1.12c-15.7-4.95-29.15-13.69-41.18-24.75a7.22,7.22,0,0,1-2.62-3.94c-.28-1.43-.18-2.77,1.17-3.59s2.38.1,3.27,1.06c9.59,10.38,21.21,17.76,34.21,23.08a116.73,116.73,0,0,0,11.24,3.92c1.43.42,3.44.43,3.43,2.68C237.77,202.29,235.87,203.38,233.43,203.4Z"/><path class="cls-27" d="M154.57,219.33c0,4.32,0,8.64,0,13,0,1.25-.3,1.94-1.63,1.92a4.53,4.53,0,0,0-.5.06c-6.85.74-7.05.57-7.05-6.17s0-13.73,0-20.59c0-1.41.16-2.14,1.87-2.14a21.9,21.9,0,0,0,5.25-.81c1.76-.45,2.14.13,2.1,1.8C154.51,210.68,154.57,215,154.57,219.33Z"/><path class="cls-26" d="M161.3,217.73c0,5.41,0,10.82,0,16.23,0,1.65-.17,3.23-2.3,3.16-2-.07-2.06-1.63-2.06-3.14V201.27c0-1.54.17-3,2.17-3s2.19,1.45,2.19,3C161.29,206.74,161.3,212.24,161.3,217.73Z"/><path class="cls-26" d="M138.7,219.42c0-4.73,0-9.46,0-14.19,0-1.6.31-3,2.28-2.93,1.81,0,2.08,1.4,2.08,2.87q0,14.45,0,28.9c0,1.54-.19,3-2.16,3.05s-2.21-1.41-2.21-3C138.71,229.22,138.7,224.32,138.7,219.42Z"/><path class="cls-28" d="M69.36,154.09a2.87,2.87,0,0,1,.19.52c0,2.34,1.56,5.44.13,6.81-2.21,2.1-5.58,3-8.47,4.35-.65.31-1.08-.11-1.56-.5-5.3-4.29-5.3-4.31.81-7.11Z"/><path class="cls-29" d="M63.24,172c-1.35,0-2-.36-2.42-1.22a1.72,1.72,0,0,1,.7-2.41q4.82-2.45,9.77-4.64A2,2,0,0,1,73.24,167,81.2,81.2,0,0,1,63.24,172Z"/><path class="cls-30" d="M76.09,171.53a2.26,2.26,0,0,1-1.25,1.77c-2.59,1.4-5.18,2.78-7.76,4.18-1.13.61-2.2.53-2.83-.61a1.88,1.88,0,0,1,1-2.74c2.66-1.43,5.3-2.9,8-4.21C74.76,169.19,76.15,170.07,76.09,171.53Z"/><path class="cls-30" d="M78.9,175.94c.09,1.72-.43,2.31-1.23,2.77q-3.73,2.14-7.47,4.32c-1.11.64-2.19.63-2.87-.51a1.87,1.87,0,0,1,.9-2.77c2.65-1.51,5.27-3.05,8-4.46C77.59,174.55,78.86,175.28,78.9,175.94Z"/><path class="cls-31" d="M68.58,151.29c.11.81-.55.85-1,1-4.21,2-8.43,3.9-12.65,5.85-.65.3-1.29.64-1.55-.42-.16-.68-.71-1.39.39-1.89,4.31-1.94,8.6-3.94,12.9-5.91C68.18,149.3,68,150.8,68.58,151.29Z"/><path class="cls-26" d="M197,48.5v58.16c-.29.17-.54,0-.76-.28-7.63-10.82-18.5-16-31.24-17.84-5.14-.76-5.1-.81-4.23,4.32,1.61,9.41,4.44,18.25,11.24,25.35a78.43,78.43,0,0,0,7.37,6.49H120.67c1-.82,1.7-1.45,2.46-2,9.1-7.1,13.77-16.7,15.68-27.85.28-1.67.5-3.36.9-5s-.19-2-1.8-1.78c-13.85,1.8-26.07,6.56-34.4,18.58-.06.1-.29.08-.57.14V48.86c.77-.3,1,.47,1.25.88,7.29,9.95,17.39,15,29.32,16.91,1.67.27,3.34.55,5,.88,1,.19,1.47,0,1.29-1.09-1.53-9.86-3.58-19.51-10.29-27.42a57.7,57.7,0,0,0-9.07-8.31h58.45c.23.32,0,.57-.26.77-11,7.73-16.07,18.83-17.92,31.74-.66,4.6-.7,4.58,3.8,3.82,9.75-1.64,19-4.44,26.23-11.65C192.87,53.27,194.8,51,197,48.5Z"/><path class="cls-5" d="M132.21,107.84c-1.44-1.41-2.84-2.86-4.33-4.2-1-.91-.87-1.57.05-2.45,3-2.83,5.87-5.73,8.8-8.6A41.83,41.83,0,0,1,132.21,107.84Z"/><path class="cls-5" d="M135.16,91c-2.88,2.92-5.79,5.82-8.64,8.78-.88.92-1.52,1.07-2.43,0-1.35-1.5-2.81-2.88-4.22-4.32A41,41,0,0,1,135.16,91Z"/><path class="cls-32" d="M152.25,216.29a2.17,2.17,0,0,1-2.3,2.24,2.08,2.08,0,0,1-2.18-2.3A2,2,0,0,1,150,214C151.5,214.07,152.13,215,152.25,216.29Z"/><path class="cls-32" d="M150.12,211.63c-1.61-.11-2.37-.94-2.35-2.31a2.23,2.23,0,1,1,4.45.09A2.1,2.1,0,0,1,150.12,211.63Z"/><path class="cls-33" d="M150.14,225.39c-1.51,0-2.33-.79-2.37-2.15a2.09,2.09,0,0,1,2.32-2.35,2.26,2.26,0,0,1,0,4.5Z"/><path class="cls-34" d="M152.25,229.9c-.09,1.47-.82,2.37-2.19,2.41a2.08,2.08,0,0,1-2.29-2.2,2.06,2.06,0,0,1,2.16-2.3A2.15,2.15,0,0,1,152.25,229.9Z"/></svg>