<svg id="Layer_1" data-name="Layer 1" xmlns="http://www.w3.org/2000/svg" viewBox="0 0 300 300"><defs><style>.cls-1{fill:#b90905;}.cls-2{fill:#be9324;}.cls-3{fill:#b60905;}.cls-4{fill:#b70905;}.cls-5{fill:#bd9224;}.cls-6{fill:#bc9223;}.cls-7{fill:#b80905;}.cls-8{fill:#b28a22;}.cls-9{fill:#ad0805;}.cls-10{fill:#b88f23;}.cls-11{fill:#b38b22;}.cls-12{fill:#b40905;}.cls-13{fill:#bb9123;}.cls-14{fill:#b08821;}.cls-15{fill:#ab0805;}.cls-16{fill:#bd9324;}.cls-17{fill:#bc9224;}.cls-18{fill:#bc9123;}.cls-19{fill:#ba9023;}.cls-20{fill:#b99023;}.cls-21{fill:#af8721;}.cls-22{fill:#b98f23;}.cls-23{fill:#ad8621;}.cls-24{fill:#ad8620;}.cls-25{fill:#b18921;}.cls-26{fill:#b08921;}.cls-27{fill:#a7811f;}.cls-28{fill:#af8821;}.cls-29{fill:#ae8721;}.cls-30{fill:#b50905;}.cls-31{fill:#aa0805;}.cls-32{fill:#a70804;}.cls-33{fill:#b30905;}.cls-34{fill:#ac0805;}.cls-35{fill:#a40804;}.cls-36{fill:#a90804;}</style></defs><path d="M21.74-.61H278.26a1,1,0,0,1,1,1V174.06A125.93,125.93,0,0,1,153.33,300h-4.09A128.49,128.49,0,0,1,20.75,171.5V.38a1,1,0,0,1,1-1Z"/><path class="cls-1" d="M275.4,5.4a7.19,7.19,0,0,1,.43,3.76q0,81,0,161.94c0,55.42-37.47,105.86-90.85,121-52.25,14.78-108.19-3.41-140-52.23-1.3-2-1.21-3.11.5-4.81q47.52-47.37,94.88-94.9c1.75-1.76,2.75-1.68,4.65-.21a30.71,30.71,0,0,0,38.21-.59c1.72-1.4,2.8-2.92,2.5-5.18-.73-5.51,1.51-9.55,5.66-13.11a109.65,109.65,0,0,0,11.55-12.14c7-8.2,9.79-17.26,6-27.8a36.91,36.91,0,0,1-1.15-5,5.09,5.09,0,0,1,1.58-4.95q32.43-32.34,64.8-64.75A15.21,15.21,0,0,1,275.4,5.4Z"/><path class="cls-2" d="M274.32,3.3c-1.28,1.35-2,2.13-2.73,2.88Q240.24,37.55,208.91,69c-2.17,2.19-4.33,3-7.19,2.16-1.76-.49-3.55-.85-5.29-1.39-8.46-2.65-16.13-.93-23.16,4.19a109.59,109.59,0,0,0-16.12,14.84c-3,3.25-6.15,5.21-10.57,4.6-3.85-.53-6.09,1.47-8.15,4.41a30.75,30.75,0,0,0,.81,36.41c1.43,1.83,1.66,2.81-.15,4.61q-47.32,47.13-94.45,94.43c-1.87,1.88-2.67,1.95-4-.48-10.41-18.88-16.44-38.92-16.45-60.6q0-82.74-.06-165.5c0-2.6.52-3.41,3.29-3.41Q149.2,3.35,271,3.3Z"/><path class="cls-2" d="M205.18,75.7c5.41,12.2,4.7,23.42-5,33.47q-6.83,7.06-13.64,14.15c-1.16,1.21-1.89,1.25-3.07,0-3.8-3.94-7.71-7.79-11.61-11.64-.94-.93-1.51-1.59-.25-2.83q16.6-16.45,33.11-33A1.24,1.24,0,0,1,205.18,75.7Z"/><path class="cls-1" d="M203.38,73.73c-.1,1.16-1,1.66-1.67,2.32-10.17,10.2-20.41,20.33-30.49,30.6-1.84,1.88-2.86,1.72-4.53-.07-3.45-3.69-7.07-7.22-10.71-10.72-1.27-1.23-1.44-2-.07-3.34,5.18-5,10.17-10.19,15.66-14.87,7.68-6.55,16.15-9.19,26-5.58a25.51,25.51,0,0,0,3.11.85C201.59,73.13,202.6,73.07,203.38,73.73Z"/><path class="cls-1" d="M145.28,95.85c4.53-1.31,7.78-.85,10.66,2.53a145.5,145.5,0,0,0,10.42,10.51c1.31,1.26.72,2.08-.32,2.81s-1.66,3.11-3.53,1.27C156.86,107.42,151.27,101.81,145.28,95.85Z"/><path class="cls-2" d="M183,133.55,166.2,116.7c-1.93-1.93.46-2.48,1.18-3.49s1.58-1.83,3-.35c4.07,4.29,8.33,8.39,12.5,12.59,2.43,2.45.46,5.28,1,7.9Z"/><path class="cls-3" d="M152.3,110.32c0,4.47,0,4.47-4.58,4.47-4.34,0-4.34,0-4.33-4.71,0-4.27,0-4.27,4.72-4.26C152.3,105.82,152.3,105.82,152.3,110.32Z"/><path class="cls-4" d="M152.29,121.06c-.06,5.1.21,4.14-5,4.2-3.87,0-3.87,0-3.86-4.74,0-4.26,0-4.26,5.05-4.24C152.3,116.29,152.3,116.29,152.29,121.06Z"/><path class="cls-2" d="M158.05,135.75c-4.93-.09-4.15.59-4.15-4.68,0-4.56-.85-4.14,4.73-4.14,5,0,4.16-.38,4.22,5C162.88,135.76,162.85,135.76,158.05,135.75Z"/><path class="cls-5" d="M173.31,131.12c-.08,5.2.69,4.61-4.2,4.62-5.33,0-4.7.58-4.74-4.47,0-4.35,0-4.37,4.59-4.35C174,127,173.23,126.54,173.31,131.12Z"/><path class="cls-6" d="M169.28,137.47c1.42.48,4.38-1.41,4.08,2.62-.22,2.9-2.26,4.16-7.17,4.14-3,0-1.7-2.23-1.76-3.49C164.26,137.48,164.38,137.47,169.28,137.47Z"/><path class="cls-4" d="M141.76,110.26c-.44,1.92,1.12,5-2.74,4.48-1.54-.2-4.22,1.43-4.05-2.22.25-5.36,1.25-6.85,4.59-6.71C143.35,106,140.91,108.9,141.76,110.26Z"/><path class="cls-5" d="M158.71,137.48c1.31.64,4.58-1.58,4.11,2.48-.17,1.43,1.06,3.77-1,4.12a9.84,9.84,0,0,1-7.62-1.63c-1-.79-.55-2.87-.2-4.28.29-1.19,1.62-.56,2.5-.68A19.14,19.14,0,0,1,158.71,137.48Z"/><path class="cls-7" d="M141.68,121.18c-.35,1.58,1.21,4.41-2.68,4.13-2.85-.21-3.82-1.86-4.07-6.9-.14-2.86,1.78-2.08,3.2-2.11C141.69,116.23,141.69,116.27,141.68,121.18Z"/><path class="cls-8" d="M164.7,118l6.09,6.83C164.94,126.88,163.68,125.75,164.7,118Z"/><path class="cls-9" d="M154.26,107.76a42.52,42.52,0,0,1,6.5,6.57C153.1,115.4,153.41,115.32,154.26,107.76Z"/><path class="cls-10" d="M182.11,134.66c-7.31,1.8-7.58,1.53-6.87-5.58,1.58.45,2.25,1.9,3.36,2.78S180.94,133.73,182.11,134.66Z"/><path class="cls-11" d="M152,129.57c.72,7,.93,6.66-6.19,5.83Z"/><path class="cls-4" d="M160.88,116.55a40,40,0,0,1-6.5,6.56C152.85,116.42,153.45,115.78,160.88,116.55Z"/><path class="cls-12" d="M149.51,103.92c-6.32.79-6.67.44-5.9-6Z"/><path class="cls-13" d="M162.54,118c.69,9.07,1,7.1-6.73,7.1C157.71,122.42,160.09,120.56,162.54,118Z"/><path class="cls-1" d="M149.78,127.42l-5.93,5.76C142.42,127.2,143.58,126,149.78,127.42Z"/><path class="cls-14" d="M145.38,137.46h5.47c.89,0,1.45.34,1.42,1.29a5.41,5.41,0,0,1-.24,2.48c-.49.84-1.33.12-1.93-.22A13.82,13.82,0,0,1,145.38,137.46Z"/><path class="cls-15" d="M141.69,133.51c-2-1.24-2.55-2.8-3.38-4.14-.38-.61-1.06-1.35-.53-2,.68-.86,1.79-.45,2.73-.4s1.18.76,1.18,1.58Z"/><path class="cls-13" d="M175.4,141.73c-.79-4.71-.53-4.88,6.25-3.89A17.71,17.71,0,0,1,175.4,141.73Z"/><path class="cls-3" d="M141.68,97.56c0,1.88,0,3.23,0,4.57,0,.81.14,1.81-1.09,1.92-.94.08-2.09.44-2.73-.31s.19-1.59.61-2.29A9.65,9.65,0,0,1,141.68,97.56Z"/><path d="M84.1,214.16c.1-8.63,2.49-15.14,7.14-20.86,1.31-1.61,2.77-2.65,4.94-2.35,5.51.77,9.51-1.49,13.12-5.62a105.38,105.38,0,0,1,13.91-13c7.62-6,16-8,25.41-4.94,2.95,1,5.93,2,9.14,1.26,1.17-.28,1.59.19,1.38,1.36-.59,3.3.35,6.42,1.33,9.48,2.92,9.17,1.09,17.38-4.74,24.86a150.06,150.06,0,0,1-15.4,16.48c-2.38,2.26-3.82,4.6-3.22,7.86.94,5.1-1.8,8-5.81,10.32-10.3,6-20.86,6.59-31.29.81S84.46,224.81,84.1,214.16Z"/><path d="M209.6,195c-10.1-.59-19.74-6.23-25.09-17.85-5.28-11.46-3.58-22.39,4.07-32.43,1.42-1.86,3-3,5.46-2.61,5.29.87,9.08-1.31,12.54-5.26a107.12,107.12,0,0,1,14.12-13.21c7.64-6.07,16-7.92,25.42-4.88,3,1,6,1.82,9.17,1.25,1.21-.22,1.55.25,1.33,1.41-.64,3.42.49,6.61,1.46,9.79a25.17,25.17,0,0,1-4,23.22c-4.7,6.48-10.42,12-16.15,17.54-2.43,2.34-4,4.74-3.38,8.13.94,5-1.72,7.78-5.58,10.11C223.8,193.32,218.26,195.07,209.6,195Z"/><path d="M64.1,195c-10.56-.48-20.22-6.06-25.69-17.61C33,166,34.6,155.08,42.14,145c1.54-2.06,3.33-3.32,6-2.87,5.07.85,8.64-1.34,12-5A113.54,113.54,0,0,1,74.7,123.45c7.46-5.83,15.67-7.75,24.82-4.77A24.62,24.62,0,0,0,110.25,120a28.85,28.85,0,0,0,1.42,10.62c3.16,9.25,1.15,17.56-4.75,25.11a129.45,129.45,0,0,1-14.51,15.55c-3,2.77-4.73,5.79-4.11,9.8.66,4.24-1.66,6.55-4.78,8.6C78.26,193.13,72.54,195,64.1,195Z"/><path d="M113.14,97.57c-10.82-.6-20.45-6-25.9-17.48S83.32,57.55,91,47.36c1.46-1.94,3.13-3.16,5.69-2.75,5.14.83,8.89-1.21,12.27-5.11A116.63,116.63,0,0,1,122,27.07c8-6.75,16.86-9.11,27-5.72,2.85.95,5.78,1.78,8.85,1.14,1.31-.28,1.48.28,1.27,1.37-.62,3.3.36,6.42,1.34,9.48,2.87,9,1.12,17.15-4.57,24.58a150.37,150.37,0,0,1-15.85,17c-2.22,2.12-3.5,4.32-2.94,7.3,1,5.53-2,8.5-6.32,11C125.83,96,120.56,97.52,113.14,97.57Z"/><path class="cls-2" d="M159.91,188.07c.11,5.66-2.17,10.46-5.49,14.82-5,6.62-11.12,12.25-16.89,18.18-1,1-1.63.9-2.59-.07q-14-14.06-28-28.05c-1-1-1-1.65,0-2.63,5.93-5.77,11.57-11.85,18.17-16.91,6.87-5.26,14.41-6.91,22.75-4.16a33,33,0,0,0,7.54,1.66c.72.07,1.66-.06,1.65,1.05,0,5,2.72,9.5,2.83,14.5C159.84,187,159.88,187.53,159.91,188.07Z"/><path class="cls-16" d="M97.31,193c3.63-.79,6.85-.5,10,2.88,7.9,8.47,16.28,16.47,24.47,24.67,3.93,3.93,4.1,4.5,3.05,10Z"/><path class="cls-5" d="M99.26,222.74c-4.7,0-4.73,0-4.69-4.43,0-5.2-.69-4.54,4.61-4.53,5.08,0,4.33-.72,4.34,4.77C103.52,223.37,104.21,222.65,99.26,222.74Z"/><path class="cls-17" d="M103.54,207.92c-.09,5,.68,4.34-4.56,4.34s-4.36.64-4.41-4.81c0-4.15,0-4.19,5.05-4.14C104.2,203.36,103.46,202.68,103.54,207.92Z"/><path class="cls-18" d="M109.68,222.74c-4.57,0-4.59,0-4.56-4.61,0-5.18-.28-4.35,4.52-4.36s4.37-.7,4.36,4.81C114,223.43,114.53,222.66,109.68,222.74Z"/><path class="cls-2" d="M103.54,228.83c-.1,4.9.78,4.41-4.46,4.41s-4.49.48-4.5-4.7c0-4.56-.7-4.09,4.79-4.09C104.28,224.45,103.45,224,103.54,228.83Z"/><path class="cls-6" d="M109.72,224.43c4.93.07,4.28-.52,4.28,4.62,0,4.74.67,4.18-4.69,4.19-4.69,0-4.16.52-4.19-4.76C105.1,224.43,105.12,224.43,109.72,224.43Z"/><path class="cls-5" d="M124.67,228.93c0,4.33,0,4.36-4.67,4.32-5,0-4.25.52-4.25-4.65,0-4.69-.76-4.12,4.74-4.16C124.67,224.41,124.67,224.44,124.67,228.93Z"/><path class="cls-19" d="M93,218.93c-.26,1.37,1.22,4.17-2.67,3.86-2.82-.22-4.16-2.41-4.21-7.14,0-3,2.1-1.64,3.4-1.88C93.85,213,93.07,216,93,218.93Z"/><path class="cls-20" d="M93,208c-.47,1.53,1.37,4.85-2.76,4.24-1.48-.22-4.24,1.63-4.14-2,.14-5.21,1.37-7.06,4.69-6.88C93,203.41,93,203.41,93,208Z"/><path class="cls-17" d="M120,234.94c2.41.11,5.26-.91,4.69,3.23-.21,1.53-.63,2.39-2.15,2.64-.74.12-1.45.4-2.19.54-4.36.82-6-1-4.58-5.31C116.6,233.75,118.83,235.56,120,234.94Z"/><path class="cls-13" d="M109.47,234.86c2,.47,5.21-1.2,4.49,2.89-.25,1.38,1.66,4-1.85,3.95-5.58-.15-7.1-1.22-7-4.62C105.18,233.21,108.15,235.76,109.47,234.86Z"/><path class="cls-21" d="M105.45,205.73l6.66,6.12C104.19,212.93,104.63,212.77,105.45,205.73Z"/><path class="cls-22" d="M94.74,194.61l6.23,6.61C94.67,202.74,94.17,202.26,94.74,194.61Z"/><path class="cls-22" d="M126.31,226.63c.9-.15,1.18.39,1.55.73,1.78,1.67,3.53,3.36,5.47,5.21C126.55,234.51,125.88,233.9,126.31,226.63Z"/><path class="cls-6" d="M121.82,222.47c-7.1.51-6.35,1.4-5.85-6.1Z"/><path class="cls-23" d="M93.06,194.65v5.18c0,.91-.14,1.75-1.31,1.79-.94,0-2.12.41-2.75-.32s.25-1.59.65-2.29A12.41,12.41,0,0,1,93.06,194.65Z"/><path class="cls-24" d="M92.27,231c-.87-1.31-1.78-2.59-2.59-3.94-.42-.69-1.28-1.61-.69-2.27.72-.82,2-.46,3-.31s1,1.18,1,2c0,1.44,0,2.89,0,4.34Z"/><path class="cls-20" d="M103.3,239.19c-2.46-.6-4.33-2.12-6.35-3.6C102.21,233.73,103.8,234.62,103.3,239.19Z"/><path class="cls-10" d="M126.5,239.27c-.68-4.83-.58-4.89,6.58-4A19.35,19.35,0,0,1,126.5,239.27Z"/><path class="cls-2" d="M238,119.28c3.49-.11,6.79,1.65,10.25,2,4.66.41,7.31,2.07,7.06,7.06a4.21,4.21,0,0,0,.44,1.54c3.74,10.41,1,19.3-6.15,27.32-4.59,5.13-9.47,9.95-14.26,14.88-1.14,1.18-1.84,1.32-3.07.07q-13.71-13.84-27.56-27.56c-1.33-1.31-1.23-2.08.05-3.33,5.09-4.92,10-10.08,15.41-14.63C225.25,122.3,230.79,119,238,119.28Z"/><path class="cls-2" d="M195.07,144.13c3.74-.91,7,.16,10.21,3.56,7.63,8.16,15.71,15.88,23.61,23.78,4.24,4.24,4.24,4.24,3.56,10Z"/><path class="cls-6" d="M196.63,154.46c5.12.09,4.31-.6,4.37,4.84,0,4.13,0,4.16-4.71,4.12-5,0-4.2.65-4.25-4.95C192,154.46,192,154.46,196.63,154.46Z"/><path class="cls-6" d="M217.52,184.59c-5-.1-4.26.76-4.31-4.87,0-4.1,0-4.13,4.75-4.09s4.17-.71,4.18,5C222.16,185.24,222.57,184.53,217.52,184.59Z"/><path class="cls-5" d="M196.71,184.59c-5.34-.08-4.66.71-4.66-4.56s-.72-4.34,4.8-4.4c4.15,0,4.19,0,4.14,4.7C201,185.22,201.63,184.51,196.71,184.59Z"/><path class="cls-18" d="M196.71,165.11c4.3,0,4.33,0,4.28,4.86,0,4.52.78,4.06-4.78,4.06-5,0-4.14.39-4.17-5C192,164.63,191.5,165.16,196.71,165.11Z"/><path class="cls-16" d="M207.09,184.59c-4.77-.08-4.45.76-4.44-4.5s-.44-4.43,4.77-4.44c4.58,0,4.05-.76,4.09,4.77C211.53,184.59,211.51,184.59,207.09,184.59Z"/><path class="cls-6" d="M202.64,169.17c.08-4.7-.47-4,4.91-4,4.53,0,3.92-.6,4,5,0,4,0,4-5,3.95C202.63,174,202.63,174,202.64,169.17Z"/><path class="cls-20" d="M218.16,186.17c1.37.38,4.26-1.33,4,2.58-.15,2.89-2.16,4.11-7.08,4.28-3,.11-1.64-2-1.92-3.29C212.28,185.44,215.28,186.08,218.16,186.17Z"/><path class="cls-19" d="M190.47,170.31c-.19,1.31,1.15,4.06-2.7,3.78-2.81-.21-3.9-2-4.18-7-.17-3,1.95-1.75,3.27-2C191.14,164.24,190.62,167.17,190.47,170.31Z"/><path class="cls-19" d="M190.53,158.75c0,4.55-1.78,5.83-5.89,4.64-.29-.08-.79-.19-.82-.36a12.72,12.72,0,0,1,1.29-7.72c.82-1.7,3.06-1.13,4.37-.66C191.67,155.42,189.88,157.69,190.53,158.75Z"/><path class="cls-13" d="M207.21,186.13c1.69.34,4.87-1.21,4.25,2.82-.23,1.47,1.61,4.24-2.1,4-5.32-.28-7.05-1.5-6.71-4.87C202.85,186.13,202.85,186.13,207.21,186.13Z"/><path class="cls-25" d="M192.32,145.65l6.27,6.85C192.86,154.61,191.45,153.33,192.32,145.65Z"/><path class="cls-14" d="M213.69,166.6c2.18,2.31,4,4.24,5.84,6.19a4.74,4.74,0,0,1,.49,1.08c-2.34.17-5.09,1.16-6.44-.45C212.4,172,212.93,169.3,213.69,166.6Z"/><path class="cls-26" d="M223.9,177.54l6.24,6.79C222.5,184.94,223.43,185.52,223.9,177.54Z"/><path class="cls-10" d="M208.68,163.11c-7.17.83-6.3.92-5.82-5.62Z"/><path class="cls-27" d="M230.48,186.09c-1.21,2.09-2.88,2.66-4.29,3.53-.67.41-1.68,1.28-2.27.51s-.27-1.84-.25-2.79c0-1.21,1-1.24,1.83-1.25Z"/><path class="cls-28" d="M190.56,145.64c0,2.18-.12,3.43,0,4.64.28,2.35-.83,2.92-2.93,2.74-1.33-.11-1.74-.44-1.08-1.71A22.1,22.1,0,0,1,190.56,145.64Z"/><path class="cls-14" d="M186.16,176c4.84-.76,5-.5,4.07,6.35A13.64,13.64,0,0,1,186.16,176Z"/><path class="cls-29" d="M194,186.51c7.08-1.07,7.42-.85,6.68,3.93C198.25,189.8,196.36,188.36,194,186.51Z"/><path class="cls-1" d="M91.26,119.29c3.85-.26,7.54,1.72,11.45,2.11,4.16.41,6.23,1.88,6.22,6.29,0,2,1.07,3.91,1.57,5.89a22,22,0,0,1-3.19,18.18c-5.14,7.77-12.12,13.92-18.55,20.55-1.06,1.09-1.8.69-2.68-.19q-13.9-13.94-27.83-27.82c-.89-.88-1.31-1.56-.2-2.63,6.49-6.26,12.52-13,20-18.2A21.6,21.6,0,0,1,91.26,119.29Z"/><path class="cls-7" d="M86.12,181.64l-37.5-37.46c3.48-.52,6.76-.42,9.91,2.95Q70.55,160,83.39,172C86.69,175.1,86.8,178.26,86.12,181.64Z"/><path class="cls-4" d="M75.84,180.12c-.06,5,.51,4.43-4.48,4.47-4.48,0-4.5,0-4.48-4.51,0-5.12-.41-4.41,4.84-4.45C75.84,175.6,75.84,175.63,75.84,180.12Z"/><path class="cls-7" d="M60.64,184.59c-4.78-.07-4.21.52-4.21-4.73,0-4.84-.51-4.19,4.68-4.23,4.28,0,4.28,0,4.27,4.71C65.38,184.6,65.38,184.6,60.64,184.59Z"/><path class="cls-4" d="M56.41,169.6c0-4.49,0-4.49,4.52-4.49s4.45,0,4.45,4.6c0,4.34,0,4.34-4.73,4.34C56.41,174,56.41,174,56.41,169.6Z"/><path class="cls-4" d="M54.74,169.52c0,4.53,0,4.53-4.54,4.53-4.31,0-4.31,0-4.31-4.43s0-4.51,4.54-4.5C54.74,165.12,54.74,165.12,54.74,169.52Z"/><path class="cls-7" d="M45.89,180.09c0-4.47,0-4.47,4.51-4.46,4.35,0,4.35,0,4.34,4.63,0,4.33,0,4.33-4.67,4.33C45.89,184.58,45.89,184.58,45.89,180.09Z"/><path class="cls-7" d="M45.89,158.8c0-4.34,0-4.34,4.43-4.34s4.43,0,4.42,4.67c0,4.3,0,4.3-4.75,4.29C45.89,163.42,45.89,163.42,45.89,158.8Z"/><path class="cls-12" d="M67.1,190.47c-1-5.46,2.35-4.24,4.67-4.32,2-.07,4.49-.7,4.12,2.93-.27,2.55-2.68,3.94-7.08,3.94C65.92,193,67.23,190.89,67.1,190.47Z"/><path class="cls-30" d="M61,186.12c1.75.3,4.83-1.09,4.31,2.88-.21,1.55,1.33,4.2-2.27,4-5.23-.3-6.85-1.35-6.67-4.61C56.54,186.12,56.54,186.12,61,186.12Z"/><path class="cls-3" d="M44.19,170c-.31,1.45,1.2,4.27-2.67,4-2.84-.18-3.94-2-4.08-7-.08-2.93,2-1.74,3.36-2C44.92,164.4,44.23,167.31,44.19,170Z"/><path class="cls-4" d="M44.23,158.84c-.19,2.22,1,5.22-3,4.54-1.36-.24-3.77,1.34-3.8-1.81,0-5,1.28-7.07,4.28-7.13C45.73,154.36,43.62,157.39,44.23,158.84Z"/><path class="cls-31" d="M67.15,166.89a44,44,0,0,1,6.56,6.61C67.24,175.3,66.28,174.37,67.15,166.89Z"/><path class="cls-12" d="M52.7,152.75c-7.2.68-7.73.13-6.41-6.22A20.56,20.56,0,0,1,52.7,152.75Z"/><path class="cls-12" d="M84.34,184.32c-7.07.84-7.62.28-6.47-6.14C80,179.26,82,181.16,84.34,184.32Z"/><path class="cls-4" d="M62.78,163.22c-6.75.69-7.12.31-6-6.29A15.81,15.81,0,0,1,62.78,163.22Z"/><path class="cls-32" d="M84.34,186.13A11.18,11.18,0,0,1,80,189.58c-.61.36-1.41,1-2,.54-.8-.65-.47-1.76-.4-2.69a1.32,1.32,0,0,1,1.5-1.29C80.65,186.12,82.22,186.13,84.34,186.13Z"/><path class="cls-32" d="M47.84,186.11c2,0,3.51,0,5,0,.88,0,1.75.12,1.88,1.24.12.94.41,2.1-.35,2.71s-1.57-.23-2.27-.63A11.72,11.72,0,0,1,47.84,186.11Z"/><path class="cls-33" d="M44.21,146.08c0,2.07,0,3.6,0,5.13,0,.74,0,1.62-1,1.68s-2.1.27-2.78-.18c-.88-.57,0-1.51.38-2.19A12.37,12.37,0,0,1,44.21,146.08Z"/><path class="cls-12" d="M40.08,175.89c4.53-.55,4.93.12,3.68,6.3A13,13,0,0,1,40.08,175.89Z"/><path class="cls-1" d="M159.87,42c.12,4.86-1.66,9.29-4.51,13.33-5.11,7.23-11.66,13.16-17.81,19.47-1,1-1.72.88-2.66-.07q-14-14-28-28c-1-1-.89-1.72.06-2.65,5.77-5.62,11.28-11.5,17.63-16.5,7.11-5.6,14.88-7.26,23.59-4.45,2.82.91,6.72.46,8.41,2.26s1.08,5.46,2,8.22A25,25,0,0,1,159.87,42Z"/><path class="cls-1" d="M97.54,46.73c3.69-.89,6.93-.06,10.07,3.28,7.93,8.44,16.11,16.67,24.58,24.56,3.32,3.11,3.17,6.31,2.81,9.65Z"/><path class="cls-4" d="M120.18,78.13c4.49,0,4.49,0,4.49,4.47s0,4.52-4.49,4.51-4.48,0-4.45-4.51C115.77,77.53,115.25,78.2,120.18,78.13Z"/><path class="cls-7" d="M99.14,57c4.4,0,4.43,0,4.39,4.59,0,4.88.6,4.38-4.56,4.37s-4.36.56-4.41-4.86C94.53,57,94.56,57,99.14,57Z"/><path class="cls-7" d="M98.74,87.11c-4.19,0-4.22,0-4.18-4.82S94,78.14,99.7,78.15c4.4,0,3.79-.6,3.83,5.1C103.55,87.12,103.53,87.12,98.74,87.11Z"/><path class="cls-4" d="M109.57,87.12c-4.47,0-4.47,0-4.47-4.52s0-4.47,4.47-4.47,4.45,0,4.45,4.47S114,87.11,109.57,87.12Z"/><path class="cls-1" d="M99.12,67.62c4.42,0,4.42,0,4.41,4.57,0,4.31,0,4.31-4.69,4.3-4.29,0-4.29,0-4.28-4.75C94.56,67.62,94.56,67.62,99.12,67.62Z"/><path class="cls-4" d="M109.68,76.5c-4.56,0-4.56,0-4.57-4.19,0-4.69,0-4.69,4.36-4.69,4.54,0,4.54,0,4.55,4.16C114,76.49,114,76.49,109.68,76.5Z"/><path class="cls-30" d="M93.1,61.31c-.37,2.06,1.08,5.17-2.92,4.6-1.52-.22-4.21,1.42-4-2.2.26-5.26,1.58-7.09,4.92-6.74S92.38,60,93.1,61.31Z"/><path class="cls-30" d="M115.72,91.78c-.4-5,3.43-2.69,5.57-3.1,2-.38,3.62-.05,3.42,2.73s-2.45,4.11-7.06,4.1C115.72,95.5,115.68,95.43,115.72,91.78Z"/><path class="cls-30" d="M109.37,88.63c4.47,0,5.79,1.83,4.59,5.77-.1.3-.2.78-.38.83-2.63.67-5.14-.11-7.44-1.11-1.83-.8-1.28-3-.84-4.32C106,87.48,108.34,89.3,109.37,88.63Z"/><path class="cls-3" d="M93,72.21c-.16,1.94.84,4.55-2.83,4.32-2.68-.18-4.09-2.56-4.07-7,0-2.85,2.11-1.83,3.44-1.88C93,67.54,93.05,67.62,93,72.21Z"/><path class="cls-34" d="M95,48.47a36.81,36.81,0,0,1,6.43,6.59C94.59,56.42,93.6,55.4,95,48.47Z"/><path class="cls-15" d="M112.26,65.55c-7.44.82-7.81,1.3-6.78-6.36C108.1,60.85,109.85,63.2,112.26,65.55Z"/><path class="cls-34" d="M126.43,79.88A50,50,0,0,1,133,86.51C126.59,88.54,125.62,87.61,126.43,79.88Z"/><path class="cls-12" d="M121.84,76.11c-5.88,1.41-6.81.48-5.79-6.28Z"/><path class="cls-35" d="M93.06,48.52c0,2.16,0,3.71,0,5.26,0,.95-.32,1.72-1.44,1.7-.85,0-1.91.16-2.48-.27-.86-.66,0-1.57.39-2.25A11.73,11.73,0,0,1,93.06,48.52Z"/><path class="cls-36" d="M132.85,88.61c-1,2-2.61,2.57-3.94,3.34-.74.44-1.72,1.49-2.47.53-.47-.62-.28-1.85-.18-2.78.13-1.18,1.17-1.06,2-1.08C129.63,88.58,131,88.61,132.85,88.61Z"/><path class="cls-15" d="M93,85.08a12.75,12.75,0,0,1-3.45-4.41c-.39-.68-1.28-1.65-.47-2.24.65-.47,1.84-.27,2.78-.24S93,79,93,79.79C93.06,81.35,93,82.9,93,85.08Z"/><path class="cls-15" d="M96.85,88.61c1.86,0,3.24,0,4.62,0,.81,0,1.87-.15,2,1.05.11,1,.56,2.29-.33,3-.7.55-1.61-.26-2.3-.7C99.53,91.14,98,90.63,96.85,88.61Z"/></svg>