<svg id="Layer_1" data-name="Layer 1" xmlns="http://www.w3.org/2000/svg" viewBox="0 0 300 300"><defs><style>.cls-1{fill:#2d2926;}.cls-2{fill:#1b253d;}.cls-3{fill:#4c3f26;}.cls-4{fill:#393226;}.cls-5{fill:#383226;}.cls-6{fill:#1e2538;}.cls-7{fill:#1c243b;}.cls-8{fill:#3a3225;}.cls-9{fill:#00339f;}.cls-10{fill:#cb8900;}.cls-11{fill:#ca8900;}.cls-12{fill:#1f273a;}.cls-13{fill:#202739;}.cls-14{fill:#1c2438;}.cls-15{fill:#1e2639;}.cls-16{fill:#1f2639;}.cls-17{fill:#1d2538;}.cls-18{fill:#1e263b;}.cls-19{fill:#01339d;}.cls-20{fill:#c98800;}.cls-21{fill:#c98801;}.cls-22{fill:#c68701;}.cls-23{fill:#c38402;}.cls-24{fill:#bf8203;}.cls-25{fill:#403421;}.cls-26{fill:#122f70;}.cls-27{fill:#785714;}.cls-28{fill:#5d461a;}.cls-29{fill:#372f23;}.cls-30{fill:#3a3123;}.cls-31{fill:#56421c;}.cls-32{fill:#3d3322;}.cls-33{fill:#4e3d1e;}.cls-34{fill:#54411d;}.cls-35{fill:#55411c;}.cls-36{fill:#302b25;}</style></defs><path class="cls-1" d="M142.51,299.34h-1c-.5-.47-1.2-.08-1.74-.39a22.77,22.77,0,0,0-3.2-.11,10.22,10.22,0,0,1-1.11,0,7.2,7.2,0,0,0-2.4-.22c-10,.08-19.28-2.95-28.48-6.32a120.75,120.75,0,0,1-37.12-21.62,122.56,122.56,0,0,1-35.3-50,130.59,130.59,0,0,1-4.86-15.73,50,50,0,0,1-1.49-12.12,8.73,8.73,0,0,0-.22-2.39c0-.48,0-1,0-1.45a22.77,22.77,0,0,0-.08-3.2c-.24-.42-.05-1-.42-1.36v-1.5a3.09,3.09,0,0,0,.24-1.94q0-33.3,0-66.61a3.1,3.1,0,0,0-.24-1.94v-1.5a131.71,131.71,0,0,0,0-18v-1.5c.08-.15.22-.3.22-.44q.07-16.06,0-32.12c0-.15-.14-.29-.22-.44v-2.5a101.74,101.74,0,0,0,0-16v-2q.61-16.74,0-33.49V2.89c.65-.92-.15-2.08.5-3H274.45c.65.92-.15,2.08.5,3v1.5q-.61,16.74,0,33.49v2a104.22,104.22,0,0,0,0,16v2.5q-.61,16.75,0,33.5v1a131.71,131.71,0,0,0,0,18v1.5a3.1,3.1,0,0,0-.24,1.94q0,33.32,0,66.61a3.09,3.09,0,0,0,.24,1.94v1.5c-.37.38-.18.93-.41,1.35a27.9,27.9,0,0,0-.09,3.17c.11.38-.1.75-.05,1.12a10.15,10.15,0,0,0-.2,2.75c0,8.2-2.33,16-4.86,23.64A115.87,115.87,0,0,1,258,240.77a120.34,120.34,0,0,1-42.15,41.71,134.58,134.58,0,0,1-40.14,15.4,44.74,44.74,0,0,1-8.18.71,11.62,11.62,0,0,0-2.88.21,7.5,7.5,0,0,1-1.16,0,17.27,17.27,0,0,0-3.29.15c-.69.29-1.5-.17-2.15.35h-1a14.74,14.74,0,0,0-6,0h-3A13.07,13.07,0,0,0,142.51,299.34Z"/><path class="cls-2" d="M275,182.86a9,9,0,0,1-.5-3.93V116.3a9.22,9.22,0,0,1,.5-3.93Z"/><path class="cls-2" d="M25.06,112.37a9.22,9.22,0,0,1,.5,3.93v62.63a9,9,0,0,1-.5,3.93Z"/><path class="cls-3" d="M25.06,4.39a7.31,7.31,0,0,1,.5,3.17V34.71a7.44,7.44,0,0,1-.5,3.17Z"/><path class="cls-3" d="M275,37.88a7.44,7.44,0,0,1-.5-3.17q0-13.58,0-27.15A7.31,7.31,0,0,1,275,4.39Z"/><path class="cls-3" d="M275,91.88a7.33,7.33,0,0,1-.49-3.18q0-13.58,0-27.15a7.31,7.31,0,0,1,.49-3.17Z"/><path class="cls-3" d="M25.06,58.38a7.31,7.31,0,0,1,.5,3.17V88.2a7.19,7.19,0,0,1-.5,3.18Z"/><path class="cls-4" d="M275,110.87a66.9,66.9,0,0,1,0-18Z"/><path class="cls-4" d="M25.06,92.88a66.49,66.49,0,0,1,0,18Z"/><path class="cls-5" d="M275,55.88a53,53,0,0,1,0-16Z"/><path class="cls-5" d="M25.06,39.88a53,53,0,0,1,0,16Z"/><path class="cls-6" d="M151,299.34a8.81,8.81,0,0,1,6,0Z"/><path class="cls-7" d="M142.51,299.34a7.62,7.62,0,0,1,5.5,0Z"/><path class="cls-8" d="M275,2.89a7,7,0,0,1-.5-3C275.48.75,274.7,1.9,275,2.89Z"/><path class="cls-8" d="M25.56-.11a7,7,0,0,1-.5,3C25.35,1.91,24.48.74,25.56-.11Z"/><path class="cls-9" d="M270,150.37v25c0,58-40.38,106.59-97.48,116.84-37.32,6.7-71.06-1.94-100.39-25.94-22.66-18.53-35.58-43-40.52-71.73A109.64,109.64,0,0,1,30,175.64c.07-19.08,0-38.15,0-57.23,0-3.17,0-3.18,2.72-1.64,2.1,1.19,4.23,2.34,6.26,3.64a3,3,0,0,0,3.65,0c3.92-2.37,8-4.55,11.87-6.93a3.29,3.29,0,0,1,3.89,0c3.77,2.29,7.67,4.37,11.43,6.68a3.6,3.6,0,0,0,4.31,0c3.83-2.36,7.79-4.5,11.64-6.82a3.15,3.15,0,0,1,3.68,0c3.78,2.28,7.69,4.35,11.42,6.69a3.92,3.92,0,0,0,4.75-.06c3.67-2.29,7.51-4.32,11.21-6.57a3.29,3.29,0,0,1,3.88,0c3.92,2.37,8,4.56,11.87,6.93a3.08,3.08,0,0,0,3.65,0c3.7-2.23,7.56-4.23,11.2-6.56,1.92-1.23,3.37-1.08,5.21.07,3.67,2.3,7.51,4.33,11.22,6.57a2.93,2.93,0,0,0,3.42,0c3.92-2.37,8-4.54,11.87-6.93a3.47,3.47,0,0,1,4.1,0c3.77,2.3,7.65,4.4,11.43,6.69a3.43,3.43,0,0,0,4.09,0c3.9-2.39,7.93-4.58,11.86-6.93a3,3,0,0,1,3.46,0c3.71,2.22,7.57,4.23,11.2,6.57,2,1.28,3.51,1.12,5.42-.08,3.59-2.26,7.35-4.25,11-6.44a3.14,3.14,0,0,1,3.67,0c3.86,2.32,7.83,4.44,11.65,6.81a3.5,3.5,0,0,0,4.31-.06c2-1.33,4.19-2.4,6.24-3.68,1.76-1.1,2.39-.87,2.37,1.35C269.92,128.71,270,139.54,270,150.37Z"/><path class="cls-10" d="M86.43,102.11c2,6.74-2,9.52-7.12,12.68s-9.49,4-14.37-.11c-2.14-1.8-5.8-2.25-6.94-4.58s0-5.58-.47-8.34c-1-6,1.14-9.86,6.89-12,2.69-1,5.09-3.78,7.66-3.82s4.8,2.77,7.42,3.72c5.94,2.16,8.14,6.16,6.93,12.23A1,1,0,0,0,86.43,102.11Z"/><path class="cls-10" d="M242,102.16c2.14,6.49-1.33,9.34-6.43,12.48-5.56,3.42-9.55,3.32-15.13,0-5.23-3.08-7.15-6.17-7.18-12.32,0-6.49,1.87-10,7.57-13.12,5.26-2.91,8.94-3.3,14.23,0S244.4,95.36,242,102.16Z"/><path class="cls-10" d="M120.4,102.05c-2.43-6.72,1.57-9.49,6.68-12.69,5.37-3.37,9.21-3.23,14.67-.06s7.39,6.44,7.39,12.74-1.86,9.6-7.35,12.75-9.31,3.33-14.7,0C122,111.55,118,108.77,120.4,102.05Z"/><path class="cls-10" d="M258,76.14c1.92,5.49-1.37,9-7,11.24a13.33,13.33,0,0,0-3.44,2c-2.62,2.11-5,2.05-7.76.07a81.54,81.54,0,0,0-8.82-5.15,3.1,3.1,0,0,1-1.81-3.18q.13-6.11,0-12.22a3.07,3.07,0,0,1,1.75-3.2c3.8-2.07,7.53-4.26,11.24-6.48a2.51,2.51,0,0,1,2.95,0c3.77,2.27,7.58,4.49,11.44,6.61A2.66,2.66,0,0,1,258,68.59C257.9,70.75,258,72.91,258,76.14Z"/><path class="cls-10" d="M101.64,75c2.35,6.62-1.49,9.42-6.62,12.67-5.5,3.48-9.41,3.14-14.88,0S72.9,81.25,72.89,75s1.5-10.33,7.49-12.54c2.62-1,4.81-3.89,7.43-3.68s4.68,2.73,7.2,3.74C100.73,64.87,103.89,68.41,101.64,75Z"/><path class="cls-10" d="M135.56,73.86c-1.78-5.36,1.24-9,6.92-11.14a5.67,5.67,0,0,0,1.72-1c3.87-3.4,7.63-3.42,11.62-.08A25.15,25.15,0,0,0,161.64,65a4.35,4.35,0,0,1,2.87,4.83c-.22,3.81-.11,7.65,0,11.48A2.71,2.71,0,0,1,163,84.15c-3.86,2.13-7.67,4.36-11.45,6.61a2.62,2.62,0,0,1-3,0q-5.67-3.39-11.44-6.6a2.67,2.67,0,0,1-1.56-2.78C135.64,79.22,135.56,77.05,135.56,73.86Z"/><path class="cls-10" d="M164.07,21.25c2.32,6.56-1.59,9.17-6.51,12.3-5.51,3.51-9.5,3.32-15.09.05-5.37-3.13-7.15-6.39-7.19-12.53,0-6.3,1.9-9.6,7.35-12.71s9.31-3.26,14.74,0S166.31,14.64,164.07,21.25Z"/><path class="cls-10" d="M102,22.23C104,27.8,100,30.44,95,33.66c-5.51,3.58-9.43,3.05-14.9-.06s-7.2-6.41-7.2-12.58,1.28-10.28,7.32-12.38a22.41,22.41,0,0,0,5-2.83A3.88,3.88,0,0,1,90,5.74q5,3.1,10.16,5.85A3.11,3.11,0,0,1,102.06,15C101.93,17,102,19.11,102,22.23Z"/><path class="cls-10" d="M257.59,21c2.32,6.67-1.53,9.55-6.81,12.78s-9.12,3-14.47,0c-5.58-3.14-7.54-6.5-7.48-12.93,0-6.13,1.93-9.24,7.16-12.35,5.63-3.32,9.64-3.36,15.21.06C256.3,11.66,259.69,14.55,257.59,21Z"/><path class="cls-10" d="M120.38,48c-2.23-6.62,1.07-10.11,6.73-12.4,2.59-1,4.81-3.89,7.41-3.72s4.68,2.75,7.21,3.7c5.88,2.22,7.45,6.08,7.42,12.35s-1.91,9.59-7.4,12.72-9.3,3.33-14.66-.06C122,57.39,117.93,54.68,120.38,48Z"/><path class="cls-10" d="M213.88,48c-2.17-6.57,1.05-10.09,6.74-12.38,2.6-1,4.83-3.88,7.42-3.74s4.67,2.73,7.21,3.67c5.93,2.19,7.39,6.12,7.39,12.35s-1.83,9.59-7.32,12.74-9.75,4-14.54-.25a.61.61,0,0,0-.22-.13C214.83,58.11,211.63,54.5,213.88,48Z"/><path class="cls-10" d="M86.43,48.18c1.88,6.46-1.39,9.88-7,12.16-2.6,1.06-4.85,3.89-7.42,3.73s-4.84-2.78-7.45-3.73c-6-2.19-7.22-6.26-7.28-12.38s1.47-10.15,7.38-12.33c2.62-1,4.83-3.87,7.42-3.73s4.67,2.74,7.21,3.67c6,2.19,8.37,6.15,7.1,12.36A1,1,0,0,0,86.43,48.18Z"/><path class="cls-10" d="M117.54,102.09c1.95,6.66-1.84,9.52-7,12.7-5.4,3.32-9.22,3.15-14.66,0s-7.29-6.51-7.3-12.78,1.55-10.29,7.5-12.53c2.54-1,4.83-3.62,7.22-3.62s4.66,2.72,7.21,3.65c5.94,2.19,8.32,6.16,7.06,12.35A1,1,0,0,0,117.54,102.09Z"/><path class="cls-10" d="M182.41,100.76c-1.88-5.43,1.43-8.81,7-11.12,2.58-1.09,4.94-3.77,7.41-3.77s4.81,2.75,7.42,3.73c5.72,2.15,7.93,6,6.91,12-.49,2.92,1,6.47-.55,8.77s-5,2.87-7.21,4.66c-4.42,3.54-8.51,3.88-13,.08a27.87,27.87,0,0,0-6-3.5,3.24,3.24,0,0,1-2-3.56C182.5,106,182.41,103.86,182.41,100.76Z"/><path class="cls-10" d="M179.6,102c2.35,6.75-1.51,9.63-6.79,12.85s-9.11,3-14.45,0c-5.49-3.11-7.29-6.47-7.31-12.74s1.87-9.77,7.45-12.91c5.28-3,9.42-4,14.07.23a.88.88,0,0,0,.21.12C178.46,91.79,182.05,95.26,179.6,102Z"/><path class="cls-10" d="M226.25,75c2.37,6.68-1.48,9.51-6.66,12.72s-9.5,3.85-14.34-.18c-2.15-1.79-5.77-2.24-6.93-4.57s.05-5.44-.42-8.1c-1.1-6.29,1.32-10.12,7.18-12.34,2.53-1,4.73-3.53,7.21-3.72s4.68,2.6,7.2,3.63C225.22,64.78,228.61,68.32,226.25,75Z"/><path class="cls-10" d="M70.71,75.13c1.82,6.51-1.81,9.37-6.95,12.54-5.41,3.33-9.65,3.91-14.57-.21-2.08-1.73-5.54-2.36-6.74-4.43S42,77.69,42.07,75s-1-6,.39-8.07,4.46-3,6.84-4.36,4.79-3.68,7.18-3.67,4.68,2.68,7.21,3.62c5.81,2.18,8.32,6,7,12.16A2.78,2.78,0,0,0,70.71,75.13Z"/><path class="cls-10" d="M195.32,21.58c2.15,6.14-1.75,9-7,12.24s-9,3-14.24,0c-5.48-3.1-8.27-6.37-7.18-12.71.47-2.76-.94-6.14.48-8.32s4.7-2.69,6.81-4.4c4.84-3.93,9.35-3.92,14.16,0,2.08,1.72,5.56,2.36,6.73,4.43S195.32,18.21,195.32,21.58Z"/><path class="cls-10" d="M195.5,75c2,6.68-1.91,9.45-7,12.67-5.41,3.4-9.25,3.13-14.65,0-5.24-3.07-8-6.15-6.94-12.33.5-2.84-1-6.31.51-8.55s4.87-2.74,7-4.53c4.76-4,9.17-3.79,13.79.11a18.46,18.46,0,0,0,4.73,2.75c2.2.92,2.85,2.42,2.62,4.67C195.36,71.49,195.5,73.25,195.5,75Z"/><path class="cls-10" d="M133.07,74.88a3.65,3.65,0,0,0,0,.74c1.18,5.81-1,9.57-6.61,11.64-2.7,1-5,4-7.63,3.84s-5-2.84-7.67-3.85c-5.67-2.12-7.83-5.9-6.78-11.82a23.92,23.92,0,0,0,0-6,3.77,3.77,0,0,1,2.29-4.13c3.54-1.84,7-3.88,10.38-6a3,3,0,0,1,3.6,0q5.22,3.18,10.58,6.12a3,3,0,0,1,1.85,3.13C133,70.71,133.07,72.8,133.07,74.88Z"/><path class="cls-10" d="M70.71,21.18c1.83,6.54-1.84,9.41-7,12.53s-9.49,4-14.37-.12c-2.13-1.8-5.77-2.26-7-4.57s.05-5.44-.42-8.11c-1.09-6.27,1.7-9.45,7.06-12.53s9.3-3.26,14.78,0c5.25,3.08,8.18,6.19,6.89,12.33A2.78,2.78,0,0,0,70.71,21.18Z"/><path class="cls-10" d="M226.46,21.63c2.17,6.09-1.71,8.91-6.86,12.11-5.31,3.29-9.57,4-14.3-.2a3.24,3.24,0,0,0-1.08-.62c-5.36-1.82-7.24-5.47-6.31-11,.51-3-1-6.65.54-9s4.87-3.26,7.47-4.71c8.13-4.51,4.82-4.47,13,0l.43.25c2.36,1.52,5.81,2.17,6.94,4.53S226.46,18.3,226.46,21.63Z"/><path class="cls-10" d="M133.07,21c2,6.79-1.93,9.67-7.22,12.88s-9.2,3.7-13.94-.14c-2.17-1.76-5.57-2.45-7-4.58s-.06-5.7-.53-8.54c-1-5.9,1-9.77,6.77-11.82A32,32,0,0,0,117,5.45a3.23,3.23,0,0,1,3.72,0q5.48,3.26,11,6.37a2.34,2.34,0,0,1,1.35,2.39C133,16.48,133.07,18.73,133.07,21Z"/><path class="cls-10" d="M117.38,48.7c2.14,6.07-1.81,8.8-7,12-5.32,3.29-9.06,3-14.41,0-5.6-3.14-7.5-6.52-7.46-12.92,0-6.13,1.48-10,7.28-12.14,2.61-1,5-3.76,7.41-3.76s4.94,2.41,7.36,3.84,5.56,2,6.55,4.23S117.38,45.32,117.38,48.7Z"/><path class="cls-10" d="M179.62,48.12c2.21,6.49-1,10-6.58,12.21-2.6,1-4.84,3.91-7.42,3.75s-4.84-2.76-7.45-3.74c-5.76-2.16-7.89-6-6.89-12,.45-2.77-.88-6.06.45-8.35s5-2.83,7.17-4.71c4.68-4,9.07-3.7,13.55.15a.59.59,0,0,0,.22.12C178.58,37.73,181.94,41.42,179.62,48.12Z"/><path class="cls-10" d="M182.8,48c-2.27-6.55.94-10.06,6.62-12.39,2.59-1.05,4.94-3.75,7.4-3.74s4.79,2.79,7.4,3.77c5.73,2.14,7,6,7.1,12,.12,6.56-1.77,10.13-7.63,13.29-5.13,2.77-9.12,3.81-13.63-.22a1.59,1.59,0,0,0-.43-.26C184,58.15,180.32,54.75,182.8,48Z"/><path class="cls-10" d="M30.05,102c0-2.91.05-5.83,0-8.74a2.14,2.14,0,0,1,1.38-2.35c.15-.07.29-.17.43-.25,3-1.68,5.86-4.51,8.93-4.71s5.81,3.24,8.94,4.52c4.35,1.78,6.35,4.59,5.43,9.33a9.52,9.52,0,0,0,0,3.49c1,5.41-1,8.93-6.21,10.88a33.55,33.55,0,0,0-6.27,3.6,3,3,0,0,1-3.64,0c-2.32-1.47-4.68-2.89-7.13-4.12A3.11,3.11,0,0,1,30,110.21C30.13,107.46,30.05,104.71,30.05,102Z"/><path class="cls-10" d="M270,102c0,2.58-.12,5.17,0,7.73a3.74,3.74,0,0,1-2.29,4.14,76.25,76.25,0,0,0-6.91,4,2.7,2.7,0,0,1-3.2,0c-3.7-2.23-7.45-4.38-11.22-6.49a2.8,2.8,0,0,1-1.63-2.77q.09-6.61,0-13.22a2.6,2.6,0,0,1,1.54-2.55c3.84-2.15,7.67-4.34,11.44-6.61a2.48,2.48,0,0,1,2.94,0c2.55,1.55,5.14,3.07,7.77,4.47A2.65,2.65,0,0,1,270,93.5C269.91,96.33,270,99.16,270,102Z"/><path class="cls-10" d="M270,48c0,2.83-.06,5.65,0,8.48a2.67,2.67,0,0,1-1.53,2.79c-2.64,1.41-5.22,2.93-7.77,4.48a2.52,2.52,0,0,1-3,0c-3.77-2.26-7.57-4.48-11.42-6.61a2.74,2.74,0,0,1-1.56-2.8c.05-4.24.06-8.48,0-12.71a2.73,2.73,0,0,1,1.55-2.79q5.77-3.19,11.43-6.6a2.45,2.45,0,0,1,2.92,0q3.81,2.37,7.76,4.48A2.65,2.65,0,0,1,270,39.5C269.9,42.32,270,45.15,270,48Z"/><path class="cls-10" d="M30,48c.2-3.48-1.17-7.5.52-10.12s5.49-3.48,8.29-5.27a3.3,3.3,0,0,1,4-.06c3.52,2.2,7.15,4.24,10.78,6.26a2.55,2.55,0,0,1,1.5,2.55c-.06,4.41-.07,8.83,0,13.24a2.75,2.75,0,0,1-1.66,2.74c-3.7,2.06-7.38,4.17-11,6.36a2.67,2.67,0,0,1-3.18,0c-3-1.85-6.92-2.94-8.71-5.55S30.26,51.36,30,48Z"/><path class="cls-10" d="M30.05,61.15c3.23,1.86,5.95,3.45,8.69,5A1.85,1.85,0,0,1,39.63,68c0,4.58,0,9.16,0,13.75A2.18,2.18,0,0,1,38.42,84c-2.33,1.27-4.63,2.62-6.92,4-1.06.63-1.46.43-1.46-.83C30.06,78.68,30.05,70.2,30.05,61.15Z"/><path class="cls-10" d="M30.17,7.26C33.25,9,35.9,10.6,38.58,12.08a2,2,0,0,1,1.06,2.06c0,4.58,0,9.16,0,13.74,0,.67.06,1.38-.64,1.78-2.84,1.67-5.69,3.32-8.82,5.15Z"/><path class="cls-10" d="M270,61.14c0,9.07,0,17.55,0,26,0,1.31-.45,1.4-1.47.8q-3.54-2.1-7.13-4.11a1.87,1.87,0,0,1-1-1.84c0-4.74,0-9.49,0-14.23a1.66,1.66,0,0,1,.9-1.62C264,64.62,266.73,63,270,61.14Z"/><path class="cls-10" d="M269.81,34.75c-3.09-1.78-5.8-3.36-8.53-4.92a1.69,1.69,0,0,1-.9-1.64c0-4.83,0-9.65,0-14.48a1.48,1.48,0,0,1,.78-1.43c2.79-1.59,5.56-3.22,8.63-5Z"/><path class="cls-11" d="M81.07,5.39,73,10.08a1.5,1.5,0,0,1-1.64.07,61.2,61.2,0,0,1-8.13-5.27h17.7Z"/><path class="cls-11" d="M156.7,4.85h17.72l.22.5q-4.21,2.45-8.44,4.88c-.6.35-1.12,0-1.63-.25q-4-2.3-8-4.6Z"/><path class="cls-11" d="M237,5.4c-2.65,1.53-5.3,3-7.94,4.61A1.84,1.84,0,0,1,227,10a74.43,74.43,0,0,1-7.87-5h17.75Z"/><path class="cls-10" d="M32.09,4.85H49.81l.18.48C47.16,7,44.32,8.6,41.48,10.22a1.33,1.33,0,0,1-1.42-.09L31.91,5.42Z"/><path class="cls-11" d="M143.48,5.38l-8.14,4.68a1.38,1.38,0,0,1-1.41.21,62.83,62.83,0,0,1-8.33-5.39h17.71Z"/><path class="cls-11" d="M112.22,5.4l-8.28,4.78a1.49,1.49,0,0,1-1.63-.13A68.65,68.65,0,0,1,94.45,5H112Z"/><path class="cls-11" d="M250.44,4.83h17.49l.26.53c-2.87,1.65-5.74,3.32-8.64,4.93a1.49,1.49,0,0,1-1.16-.17C255.66,8.58,253,7,250.25,5.44Z"/><path class="cls-10" d="M188,4.85h17.73l.2.46-8.48,4.9a1.53,1.53,0,0,1-1.64-.18c-2.65-1.55-5.31-3.07-8-4.6Z"/><path class="cls-12" d="M274.39,185.43a6.61,6.61,0,0,1-.43,3.49A8.61,8.61,0,0,1,274.39,185.43Z"/><path class="cls-13" d="M26.05,189a6.52,6.52,0,0,1-.42-3.52A9,9,0,0,1,26.05,189Z"/><path class="cls-14" d="M140,298.79a6.82,6.82,0,0,1-3.52-.43A8.42,8.42,0,0,1,140,298.79Z"/><path class="cls-14" d="M163.55,298.36a6.82,6.82,0,0,1-3.52.43A8.4,8.4,0,0,1,163.55,298.36Z"/><path class="cls-15" d="M167.47,297.84a5.08,5.08,0,0,1-2.9.44A7,7,0,0,1,167.47,297.84Z"/><path class="cls-16" d="M273.89,189.94a5.39,5.39,0,0,1-.43,3A7.25,7.25,0,0,1,273.89,189.94Z"/><path class="cls-17" d="M26.54,193a4.74,4.74,0,0,1-.43-2.57C26.25,191.24,26.4,192.09,26.54,193Z"/><path class="cls-18" d="M135.46,298.28a4.43,4.43,0,0,1-2.51-.42Z"/><path class="cls-1" d="M130,156.86a15.59,15.59,0,0,1,.95-6.37c1.22-3,3.62-4.42,6.83-5.27-2-1.75-4.26-2.53-6.22-3.72-5.4-3.29-10.75-6.68-16.18-9.94-1.79-1.07-2.69-2.38-1.51-4.26s2.79-.93,4.16-.12c8.17,4.83,16.1,10.07,24.51,14.49,1.58.84,2.91,1.28,4.59.21a5.09,5.09,0,0,1,5.69,0c1.68,1.07,3,.63,4.59-.2,8-4.2,15.51-9.12,23.22-13.74a19.66,19.66,0,0,1,2.63-1.42c1.2-.49,2.37-.35,3,1s.65,2.44-.62,3.35c-.54.39-1.11.73-1.68,1.07Q173.87,138,163.8,144c-.47.29-1.11.44-1.28,1.3,6.07,1.49,7.63,6,7.46,11.57-.24,4.79-2,6.7-6.35,7,0,0,0,.05,0,0,2.48.67,4.16-.24,5.4-3,.6-1.32.8-2.79,1.4-4.12a4.88,4.88,0,0,1,2.89-3.49c2.79-1.36,4.29-4.13,6.15-6.43a7,7,0,0,1,6.14-3,61.47,61.47,0,0,0,6.47-.43c1.32-.08,2.67.09,2.82,1.73s-1.07,2.09-2.4,2.3a3.18,3.18,0,0,1-1,.16c-5.16-1-7.64,2.34-9.9,6.06a7.38,7.38,0,0,0-1.18,3.25c-.66,7.41-3.29,13.73-10.11,17.57-1.91,1.08-2.09,2-.36,3.43a40.84,40.84,0,0,1,4.07,4c1.11,1.24,1.84,1,2.72-.24a99.47,99.47,0,0,1,7.49-9c1.28-1.37,2.62-2.12,4.63-1.61a19.17,19.17,0,0,0,4.23.17,11.39,11.39,0,0,1,6.5,2.29c1,.72,1.79,1.67,1.23,3s-1.78,1-2.83.78c-1.79-.39-3.55-.92-5.33-1.3-2-.43-3.23.09-3.82,2.34a25.91,25.91,0,0,1-4.88,9.77c-1.33,1.65-1.2,2.64.31,4.13,9.47,9.37,18.85,18.84,28.24,28.29a102.8,102.8,0,0,1,10.76,12.81,26.38,26.38,0,0,1,4.46,10.48c1,5.33-1.11,8-6.47,8-3.58,0-7-.16-10.3-2.19a17.06,17.06,0,0,0-7.89-2.16,10.08,10.08,0,0,1-7-3.3c-1.1-1.21-1.92-1.4-3.18,0-1.71,1.83-3.51,1.58-6-.14-1.11-.77-2.05-2.67-3.37-2-1.06.52-.34,2.45-.51,3.75-.32,2.44-.08,5.06-2.24,6.91-.62.53-.5,1.1,0,1.74,2.09,2.8,4.19,5.51,3.81,9.44-.14,1.44,1.41,2.75,2.29,4.07a15.94,15.94,0,0,1,2.57,4.54,1.72,1.72,0,0,1-.71,2.19,1.43,1.43,0,0,1-2-.55c-3-5.64-8.72-9.19-11.58-14.83-2.39-4.71-4.36-9.68-3.63-15.23a36.06,36.06,0,0,0,0-4.57c-1.6,1.13-1.52,2.46-1.48,3.73.26,8.48-2.55,16.21-5.83,23.81a23.42,23.42,0,0,1-5.77,8.08c-5.27,4.8-11.58,4.82-16.82,0-4-3.71-6.42-8.48-8.08-13.6-2-6.18-4.06-12.36-3.55-19,.09-1.16,0-1.17-1.18-2.93-.52,2.65-.1,5.11-.32,7.52-.67,7.41-3.18,13.85-9.09,18.85-2,1.72-3.19,4.43-4.82,6.63-.79,1.08-1.54,3-3.17,2.06-1.86-1.11-.57-2.82.19-4.15s1.74-2.64,2.62-4a6.85,6.85,0,0,0,1.4-4.62c-.23-2.69,1.64-4.65,3.14-6.62,1-1.27,1.11-2.06-.07-3.35-2-2.14-1.39-5-1.67-7.62-.08-.8.33-1.92-.42-2.34-1-.56-1.5.72-2.23,1.17s-1.42,1.17-2.22,1.61c-1.75,1-3.57,1.15-5-.53-1.19-1.43-2.06-1.18-3.17,0a10.41,10.41,0,0,1-7,3.31,28.42,28.42,0,0,0-9.9,3.14c-3.66,1.82-7.81,1.66-11.73.78-2.56-.57-3.3-2.94-3.21-5.33a22.83,22.83,0,0,1,4.36-12.31,96.17,96.17,0,0,1,11-13.21c9.39-9.46,18.77-18.93,28.24-28.3,1.51-1.49,1.64-2.47.31-4.13a28.54,28.54,0,0,1-5-10.24,2.39,2.39,0,0,0-2.9-2c-2.11.16-4,1-6.07,1.41-1.06.21-2.28.52-2.84-.79s.23-2.24,1.23-3a11.7,11.7,0,0,1,6.5-2.3,26.14,26.14,0,0,0,5.22-.3c1.45-.35,2.52.58,3.46,1.57a86.22,86.22,0,0,1,7.51,9c1,1.4,1.82,1.69,3.06.26a38,38,0,0,1,4.07-4c1.54-1.31,1.42-2.21-.33-3.1-6-3-8.41-8.48-10-14.51a3.2,3.2,0,0,1-.27-1.21c.68-4.42-2.94-6.84-4.68-10.13-.51-1-1.51-.9-2.43-.94a26.78,26.78,0,0,1-5.71-.56,2,2,0,0,1-1.69-2.14,1.82,1.82,0,0,1,2.09-1.71c3.33.14,6.65.35,10,.6a3.37,3.37,0,0,1,2.2,1.52c1.46,1.72,2.93,3.42,4.37,5.15a8.64,8.64,0,0,0,3.63,2.94c1.4.51,1.86,1.81,2.23,3.12.8,1.78,1.1,3.73,2.29,5.41s2.62,2.53,4.64,1.62c0,0-.07,0-.1,0C132,163.49,130.27,161.61,130,156.86Z"/><path class="cls-19" d="M139,163.85a27.88,27.88,0,0,0-3.56,2.2c-1.27,1.06-2,.59-2.8-.49a14,14,0,0,1-3-8.7H130c1.09,4.43,4.08,6.23,8.46,6.1C138.82,163.16,139.47,163.19,139,163.85Z"/><path class="cls-19" d="M170.41,156.86a14,14,0,0,1-3,8.7c-.82,1.08-1.53,1.55-2.8.5a26.85,26.85,0,0,0-3.56-2.21c-.47-.67.18-.69.52-.89,4.37.13,7.36-1.68,8.45-6.1Z"/><path class="cls-10" d="M137,169.82c-.31-.82-1.52-1.08-1.37-2.41,1.51.28,2.19,1.78,3.51,2.22.37-.82-.5-1.12-.68-1.69-.23-.73-1.76-1.37-.36-2.22s1.4.72,1.94,1.3a19,19,0,0,1,1.24,1.6c.43-1.16-.31-1.92-.48-2.79-.11-.55-.55-1.13.31-1.43s1,.32,1.3.84c.4.81.76,1.64,1.28,2.75a5.23,5.23,0,0,0-.1-3.28c-.07-.41-.09-.87.46-1s.73.22.91.63c.48,1,.45,2.27,1.3,3.26.49-1,.08-2,.2-2.94.06-.4,0-.89.55-1a.83.83,0,0,1,.91.67c.26,1,.51,1.9.84,3.1,1.14-1.13.1-2.62,1.13-3.63,1.29.84.21,2.35,1,3.45.81-.76.74-1.86,1-2.79.15-.44.37-.8.82-.8.74,0,.66.6.67,1.07,0,.91,0,1.82,0,3,1.06-1.07,1-2.32,1.45-3.32.24-.49.45-.94,1.07-.72s.42.66.34,1.07a7,7,0,0,0-.35,2.94c1-.51,1-1.54,1.44-2.29.34-.55.5-1.37,1.39-1.06,1.05.36.36,1.07.22,1.65s-.35,1.25-.65,2.28c1.27-.56,1.54-1.55,2.09-2.24.42-.51.79-.81,1.45-.37s.38.92.09,1.46c-.42.77-1.26,1.31-1.37,2.58l3.71-2.63c0,1.91-1.77,2.28-2.1,3.51.36.33.72.17,1.13.08.76-.16,1.66-1.56,2.25-.28.48,1.05-1,1.26-1.68,1.8a13.41,13.41,0,0,1-1.27.82c.95.92,2.54-.52,2.89.67s-1.59.89-2,1.85c.43.69,1.65-.25,1.8.79s-1.13.8-1.62,1.65c.66.39,1.74.37,1.39,1.84-1,4.19-1.91,8.45-4.11,12.18-5.71,9.64-16.48,9.64-22.2,0-2.21-3.72-3.21-8-4-12.2-.22-1.13-.13-1.15,1.24-1.79-.13-.93-1.73-.6-1.56-1.68s1.36-.1,1.81-.78c-.37-1-2.34-.68-2-1.85s1.79.06,2.76-.45c-.21-.79-1-.9-1.55-1.31s-1.67-.64-1.32-1.54c.53-1.35,1.37.2,2.09,0C136.9,170.56,137.38,170.62,137,169.82Z"/><path class="cls-10" d="M150.7,247.84c-4.53,0-8.35-.25-12-1.5-7.09-2.43-10.62-8.66-9.13-16,.25-1.24.65-1.51,1.78-.7,2.24,1.6,4.89,2,7.57,2.21a139.44,139.44,0,0,0,22.2,0c2.59-.2,5.19-.54,7.36-2.08,1.63-1.15,1.89-.43,2,1.06,1,9.89-3.91,14.79-13,16.44A29.67,29.67,0,0,1,150.7,247.84Z"/><path class="cls-10" d="M150,230.84c-4.48,0-9,.31-13.43-.47-6-1-7-3.34-3.54-8.38,1.63-2.37,3.83-4.44,4-7.58,0-.63.53-.79,1-.84,1.33-.12,2.8-.46,3.93.27,4.09,2.64,8.58,1.26,12.88,1.34,2,0,3.55-2.07,5.84-1.74,1.33.19,2.31.17,2.44,2s1.44,3.47,2.64,5a19.8,19.8,0,0,1,2.81,4.66c.93,2.23.16,3.47-1.84,4.33a19.75,19.75,0,0,1-7.3,1.41C156.31,230.91,153.15,230.84,150,230.84Z"/><path class="cls-10" d="M131.14,243.1c10.49,8.09,27,8.08,37.25.39,1.53,4.42-.67,12.17-4.3,15.11a22.83,22.83,0,0,1-28.2,0,10.87,10.87,0,0,1-3.89-6.21A44.24,44.24,0,0,1,131.14,243.1Z"/><path class="cls-10" d="M103.63,206.06l11.78-11.73,15.74-15.68c.46-.44.86-1.29,1.56-1.05s.65,1.23.78,2a6.59,6.59,0,0,1-.53,4.13,29.3,29.3,0,0,1-2.36,4.39c-7.18,9.67-11.83,20.58-15.69,31.87-.36,1-.63,1.92-2.11,2-2.06.1-3-.37-3-2.66a8.69,8.69,0,0,1,2.67-6.72c.92-.92,2.34-1.63,2.49-3,.77-7.13,5.62-12.07,9.34-17.62a4.94,4.94,0,0,0,1.14-2.58c-1.11-.15-1.32.85-1.78,1.44a112.75,112.75,0,0,0-7.8,11.58c-.62,1-1.23,1.74-2.52,1.54a4.12,4.12,0,0,0-3,1.05C107.9,206.63,107.55,206.69,103.63,206.06Z"/><path class="cls-10" d="M196,206.22c-2.58.43-4.83.36-6.69-1.48-.34-.34-.9-.77-1.28-.7-3.21.58-4-2-5.25-3.95a112.14,112.14,0,0,0-6.35-9.25c-.48-.61-.72-1.56-1.8-1.56-.55,1,.33,1.54.78,2.13,2.54,3.3,4.76,6.82,7,10.31a11.33,11.33,0,0,1,2.13,5.27,7.32,7.32,0,0,0,2.74,5.35,7.73,7.73,0,0,1,2.82,7.58c-.14.83.17,2-1.29,1.92-1.26-.11-2.81.71-3.52-1.33-1.3-3.77-2.84-7.46-4.22-11.21a81.61,81.61,0,0,0-9.83-18.43,69.64,69.64,0,0,1-3.63-6,8.81,8.81,0,0,1-1.09-3c-.2-1.46-.52-3.44.75-4.17,1-.54,1.9,1.29,2.75,2.13q12.15,12,24.21,24.15C194.85,204.6,195.69,205.08,196,206.22Z"/><path class="cls-10" d="M134.33,183.78c.74,2.32,1.31,4.12,1.89,5.91.23.72.17,1.33-.6,1.66-2,.88-2.87,2.72-3.62,4.57-1.26,3.14-3.17,6.08-3.14,9.64a2,2,0,0,1-.81,1.49c-2.38,2.08-3.15,4.85-3.23,7.84a10.55,10.55,0,0,1-2.86,7.24,17.86,17.86,0,0,0-5,14.59c.22,2.35-4.55,7.28-6.9,7.42-1.38.07-2-1-2.77-1.86-.59-.68-.24-1.24.25-1.74,4.47-4.52,5.81-10.27,7.45-16.23,2.92-10.65,6.87-21,13.18-30.29A70.52,70.52,0,0,0,134.33,183.78Z"/><path class="cls-10" d="M165.51,184.49a123.5,123.5,0,0,1,19.33,38.44,13.1,13.1,0,0,1,.66,2.66,23.86,23.86,0,0,0,6.6,14.47c.67.71,1.5,1.4.46,2.51s-1.84,2.11-3.37,1.32a31.65,31.65,0,0,1-5.71-4.41c-.72-.62-.47-1.59-.39-2.37a18.35,18.35,0,0,0-5.25-15.27,9.64,9.64,0,0,1-2.61-6.56c-.1-3.16-.8-6.12-3.35-8.31a2,2,0,0,1-.74-1.52c-.15-4.14-2.38-7.55-3.94-11.2-.19-.45-.41-1-.79-1.25C161.86,190.51,164.77,187.39,165.51,184.49Z"/><path class="cls-10" d="M198.45,238.41c.72-3.87-.7-7.24-3.82-10.33-2.28-2.24-3.83-5.15-3.25-8.75.52-3.25-1-5.83-3.34-7.94a7.35,7.35,0,0,1-2.32-4.49c-.41-2.3.94-2,2.09-1.59a6.86,6.86,0,0,1,3.73,3.17,23.41,23.41,0,0,0,4.2,5.54,7.25,7.25,0,0,1,2.27,4.83c.12,2.28,2.09,3.54,3.64,4.83,1.88,1.58,2.84,3.3,2.51,5.78-.65,4.87,2,8.41,5,11.73a7.07,7.07,0,0,1,1.89,5.47c-.06,1-.39,1.42-1.37,1.05a34.9,34.9,0,0,0-8-1.67c-2.22-.3-3.7-1.32-3.23-4A24.14,24.14,0,0,0,198.45,238.41Z"/><path class="cls-10" d="M89,245.76a5.07,5.07,0,0,1,1.52-4.12c3.85-3.93,6.07-8.46,5.33-14.12-.16-1.24.56-2,1.38-2.75,2.32-2.19,5.15-4.05,5.09-7.84a2.76,2.76,0,0,1,.8-1.52,71.45,71.45,0,0,0,5.92-7.67c1-1.58,2.68-3.18,5-2.43.91.3-.08,4.14-1.57,5.48A10.84,10.84,0,0,0,108.68,221a7.6,7.6,0,0,1-2.78,6.43c-4.15,3.62-4.72,8-4.41,13.07s-.27,5.45-5.3,5.78a16.55,16.55,0,0,0-4.84,1.1C89.54,248.1,88.62,247.9,89,245.76Z"/><path class="cls-10" d="M220.42,250.71c-.47,0-1.38-.11-2.29-.2-5.32-.53-5.31-.54-6-5.68a4.81,4.81,0,0,0-.54-2.15c-3.72-5-1-10.64-1.42-16-.15-2.17,3.14-3.17,4.82-1.38,5,5.34,9.91,10.86,11.41,18.42.05.24.06.49.09.74C227,249.28,225.64,250.77,220.42,250.71Z"/><path class="cls-10" d="M90.05,232.45c.24,2-.47,4.15.47,6.24.35.77-.14,1.31-.59,1.76a7.64,7.64,0,0,0-2.19,6.16c.15,2.37-1.07,3.39-3.16,3.61a50.23,50.23,0,0,1-6.47.44c-3.6-.06-4.8-1.39-4.67-4.94a20.35,20.35,0,0,1,3.36-10.08,75.28,75.28,0,0,1,7.29-9.5c1.12-1.29,2.45-2,4.19-1.37s1.76,2,1.77,3.5Z"/><path class="cls-10" d="M166.13,258.67c-1.81,6.06-4,11.12-8.09,15.14-5,5-11,4.93-16.12,0A31,31,0,0,1,134.23,259C144.73,266.67,155.18,266.73,166.13,258.67Z"/><path class="cls-10" d="M118.27,238.06c.07-4.22-.53-7.95,1.89-11.23,1.09-1.48,2.12-3,3.27-4.42a11.33,11.33,0,0,0,2.65-7.32,8.7,8.7,0,0,1,2.8-6.82v10.22c1.28-.06,1.11-.77,1.12-1.3a65.19,65.19,0,0,0,0-7c-.53-5.58,1.49-10.43,3.93-15.2.41-.8.8-2.07,1.72-1.88,1.18.24.89,1.65.83,2.55-.23,3.67.62,7.36-.8,11.07-.75,2-.19,4.44-.14,6.69a7.11,7.11,0,0,1-1.46,4.65,53,53,0,0,0-4.88,8.58C126.85,231.2,123,234.76,118.27,238.06Z"/><path class="cls-10" d="M171.7,208.89a6.67,6.67,0,0,1,2.19,5.41c-.14,3.91,1.48,6.95,4,9.64,3.16,3.4,4.23,7.44,4,11.94,0,.55.26,1.28-.37,1.59s-1.07-.35-1.47-.7c-4.15-3.68-8.57-7.12-10.26-12.81-.63-2.1-2.18-3.72-3.5-5.42-.83-1.08-1.74-2.27-1.67-3.55.35-6.64-1.81-13.12-1.08-19.77.08-.78-.15-1.94.78-2.15s1.31.91,1.66,1.61c2.33,4.71,4.58,9.41,4,14.94a71,71,0,0,0,0,8c0,.37-.12.94.45,1s.8-.5.82-1c0-1.42,0-2.83,0-4.25S171.06,210.58,171.7,208.89Z"/><path class="cls-10" d="M133.23,160.28c3.83-.69,5.56-3.58,7.92-5.72,4.2-3.81,13.94-3.61,18.07.31,2.2,2.09,3.9,4.75,7.49,5.42C162.31,162.92,137.8,162.93,133.23,160.28Z"/><path class="cls-10" d="M208.74,238.14c-2-1.63-3-3.14-3.22-5.15a8.89,8.89,0,0,1-.07-2,8.52,8.52,0,0,0-3.83-9,5.63,5.63,0,0,1-2.7-5c.05-1.09-.78-2-1.48-2.82s-1.76-1.78-2.49-2.78-2.66-2.5-1.58-3.37a4.26,4.26,0,0,1,5.11.3c5,4.61,9.85,9.38,14.7,14.52-4,.7-4.47,3.28-4.45,6.21S208.74,234.79,208.74,238.14Z"/><path class="cls-10" d="M91.62,237.72c-.71-1.53-.28-3.12-.33-4.66-.06-1.74-.08-3.49-.08-5.23,0-2.66-1.29-4.19-4-4.63.89-1.74,2.34-2.86,3.58-4.14,3.24-3.33,6.65-6.51,9.8-9.93,1.72-1.87,3.72-1.47,5.75-1.42.87,0,.83.61.52,1.23a14.19,14.19,0,0,1-2.55,3.37c-1.75,1.8-3.37,3.58-3.41,6.39,0,1.55-1.43,2.67-2.62,3.49-3.08,2.12-3.94,4.9-3.72,8.53C94.75,234.72,94.11,235.67,91.62,237.72Z"/><path class="cls-10" d="M127.79,231.6c-.74,6.48-.16,12.89-.78,19.25-.13,1.36-.3,3-1.84,3.53-1.73.55-3-.42-4.32-1.7-3.59-3.54-2.37-8-2.71-12.2a1.4,1.4,0,0,1,.62-1A67.52,67.52,0,0,0,127.79,231.6Z"/><path class="cls-10" d="M172,231.38c3,2.94,5.86,5.94,9.33,8.22a1.31,1.31,0,0,1,.46.58c1.36,3.07-1.1,11.75-3.88,13.71-1.85,1.32-3.78.75-4.52-1.37a8.94,8.94,0,0,1-.48-2.18C172.38,244.08,173,237.75,172,231.38Z"/><path class="cls-10" d="M159.42,153a20.24,20.24,0,0,0-18.75,0c-.58-1.81-.61-3.76-1.5-5.47-.51-1,.22-1.13.94-1.16a11.08,11.08,0,0,0,6.07-2.61,5.81,5.81,0,0,1,7.58,0,11.3,11.3,0,0,0,6.31,2.66c1,0,1.12.51.72,1.31C160,149.32,159.83,151.17,159.42,153Z"/><path class="cls-10" d="M167.16,174.89c-.12-2-.15-4-.37-5.85a2.37,2.37,0,0,1,.85-1.95,15.65,15.65,0,0,0,3.93-9.23c.15-2.44,1.51-3.68,3.35-3.5,2.37.25,4.65,2.62,4.23,4.65C177.68,166.09,174.49,171.94,167.16,174.89Z"/><path class="cls-10" d="M133,174.92c-7.21-2.88-10.39-8.47-12-15.26-.6-2.54,1.16-4.82,3.94-5.28,1.95-.31,3.34,1.06,3.55,3.81a12.53,12.53,0,0,0,2.92,7.54,6.15,6.15,0,0,1,1.6,5.62A20,20,0,0,0,133,174.92Z"/><path class="cls-10" d="M150.24,214.08c-2.83-.08-5.5.37-7.87-1.4-1-.74-2.43-.3-3.67-.33-.84,0-1.79.11-1.67-1.18.09-1-.6-2.51,1.1-2.89,2.44-.54,4.92-.87,7.3.22a10.32,10.32,0,0,0,9.1,0c2.31-1.07,4.7-.7,7.08-.32,1.87.29,1.31,1.78,1.38,2.94.08,1.49-1,1.23-1.89,1.2a8.68,8.68,0,0,0-5.21,1.22C154.12,214.66,152,213.87,150.24,214.08Z"/><path class="cls-11" d="M197.15,243.46c-6-5.46-10.13-11.09-10.59-18.77,0-.66-.28-1.47.72-1.53s2.66-.65,3.2.62c1.45,3.37,4.37,5.68,6.09,8.76S197.25,239.34,197.15,243.46Z"/><path class="cls-11" d="M103,243.45c-.55-5.76-1.4-10.85,3.42-14.64,1.26-1,1.74-2.6,2.46-4,.33-.65.57-1.37,1.4-1.65,2.29-.78,3.15.14,3,2.56C112.76,233.12,108.35,238.16,103,243.45Z"/><path class="cls-11" d="M162.09,194.88c-.6,6-5.49,10-12.2,10-6.53,0-11.38-4.05-12-9.93-.16-.55-.41-1.14.59-1,6.83,8.92,16.51,8.9,23-.05C162.51,193.7,162.22,194.34,162.09,194.88Z"/><path class="cls-10" d="M111.63,174.93c.14-.84-.2-2.12.81-2.59s1.8.52,2.48,1.25c2.78,3,5.31,6.18,7.81,9.4.78,1,.78,1.73-.21,2.49a4.42,4.42,0,0,0-.53.53c-3.82,3.85-3.82,3.85-6.64-1C113.32,181.54,111.65,177.05,111.63,174.93Z"/><path class="cls-10" d="M188.5,174.87a31.58,31.58,0,0,1-6.27,13.72c-.45.58-.87.71-1.42.16-1.24-1.23-2.46-2.48-3.73-3.68-.91-.87-.21-1.47.28-2.12a109.55,109.55,0,0,1,7.78-9.42c.63-.67,1.29-1.55,2.28-1.24C188.67,172.68,188.05,174,188.5,174.87Z"/><path class="cls-20" d="M163.28,207.05c-4.06-.31-7.5-.78-10.8,1a5.37,5.37,0,0,1-4.63.08c-3.45-1.71-7-1.5-11-1a9.27,9.27,0,0,0,1.74-6.29A14.67,14.67,0,0,0,150,206.13,14,14,0,0,0,161.2,201C161.68,203.14,161.61,205.16,163.28,207.05Z"/><path class="cls-10" d="M168.52,154.89c0,1.4.24,3.18-1.12,3.83-1.56.75-3-.44-4.23-1.47a7.37,7.37,0,0,1-1.08-9.47c.66-.91,1.32-.75,2.14-.43C166.81,148.36,168.51,151.32,168.52,154.89Z"/><path class="cls-10" d="M131.48,155c.09-3.25,1.05-6,4.23-7.55.64-.31,1.43-.76,2,.13a7.93,7.93,0,0,1,1.19,6.9,6.81,6.81,0,0,1-5.29,4.46,1.32,1.32,0,0,1-1.71-1A8.71,8.71,0,0,1,131.48,155Z"/><path class="cls-20" d="M115.91,127.44a9.19,9.19,0,0,1,1.21.55c4.54,2.76,9,5.57,13.63,8.28,1.12.66.9,1.14.43,2.11-.64,1.3-1.27.66-2,.24-4.53-2.77-9-5.56-13.59-8.33-.77-.48-1.36-1-1-2A1.14,1.14,0,0,1,115.91,127.44Z"/><path class="cls-20" d="M185.41,128.53c.17,1-.42,1.36-1,1.71-4.6,2.81-9.21,5.6-13.79,8.44-.9.55-1.34.49-1.9-.5s-.35-1.36.53-1.89c4.55-2.73,9.06-5.53,13.6-8.27C183.9,127.38,185,126.84,185.41,128.53Z"/><path class="cls-11" d="M183.33,261.61a2.65,2.65,0,0,1-1.69,2.51c-1.21.58-1.88-.2-2.49-1-.88-1.09-1.69-2.24-2.48-3.4-2-3-1.52-4.16,2-4.75a1.74,1.74,0,0,1,.91.08C180.54,255.53,183.32,260.39,183.33,261.61Z"/><path class="cls-11" d="M116.69,261.4a11.87,11.87,0,0,1,3.78-6.22c1-.86,2.49.33,3.61.8s.46,1.66,0,2.39c-1,1.68-2.18,3.3-3.35,4.9-.54.74-1.23,1.37-2.31.88A2.72,2.72,0,0,1,116.69,261.4Z"/><path class="cls-20" d="M117.41,145.49a6.88,6.88,0,0,1,.83.71c1.73,2,3.43,4,5.17,6,.68.78.57,1.4-.37,1.65s-1.65,2.15-2.8.65c-1.5-2-2.81-4.06-4.13-6.15C115.44,147.3,116.22,145.53,117.41,145.49Z"/><path class="cls-20" d="M179.08,155.19a10.69,10.69,0,0,1-2.73-1.8c-.68-.85.51-1.39,1-2,1.39-1.75,2.87-3.42,4.33-5.11.48-.55,1-1.25,1.79-.38.56.6,1.33,1.09.67,2.08-1.5,2.27-3,4.54-4.5,6.8A1.78,1.78,0,0,1,179.08,155.19Z"/><path class="cls-21" d="M159.07,145.23c-1-.39-2.09-.41-2.36-1.22s.84-1,1.44-1.38c2.39-1.33,4.81-2.63,7.24-3.91.82-.43,1.75-.9,2.37.24s-.29,1.63-1.11,2.08Z"/><path class="cls-21" d="M143.77,143.65c-1.23,1.22-2.41,1.57-3.35,1.12-2.69-1.28-5.28-2.79-7.88-4.26a1.06,1.06,0,0,1-.31-1.54c.45-.88,1.22-.83,1.93-.47C137.3,140.15,140.42,141.85,143.77,143.65Z"/><path class="cls-22" d="M192.1,172.45a11,11,0,0,1,6.94,2.23c.46.35,1,.85.62,1.42-.17.25-.95.27-1.38.15-2.53-.73-5-1.61-7.73-1.45-.71,0-1-.38-1.05-1.08s.29-1.25,1.12-1.27Z"/><path class="cls-22" d="M107.88,172.45h1.48c.81,0,1.19.4,1.15,1.24,0,.68-.29,1.15-1,1.11-2.7-.15-5.2.7-7.73,1.45-.49.15-1.24.42-1.47-.34s.39-1,.86-1.37A11.1,11.1,0,0,1,107.88,172.45Z"/><path class="cls-23" d="M190.35,144.82c1,.36,3-.91,3.09.64s-2,.87-3.08,1.11a24,24,0,0,1-3.72.26c-.66,0-1.19-.22-1.29-.88-.15-1,.72-.66,1.17-.73C187.75,145,189,145,190.35,144.82Z"/><path class="cls-23" d="M109,144.76c1.82.18,3.31.31,4.79.48.36,0,.94-.05.94.5a1,1,0,0,1-.87,1,31.29,31.29,0,0,1-6.69-.51.81.81,0,0,1-.72-.87c0-.53.47-.62.89-.64C108,144.75,108.64,144.76,109,144.76Z"/><path class="cls-24" d="M111.65,273.16c.9-3,3.29-5.23,4.76-7.94a.58.58,0,0,1,.85-.24.66.66,0,0,1,.24,1q-2.52,3.8-5.08,7.57Z"/><path class="cls-24" d="M188.06,273.37a36.14,36.14,0,0,1-5.65-7.61c-.2-.33,0-.66.37-.78s.59,0,.66.09C185.07,267.78,187.35,270.12,188.06,273.37Z"/><path class="cls-25" d="M137,169.82a2.3,2.3,0,0,1,1.18,1.3c-.84.35-1.32-.24-1.84-.67Z"/><path class="cls-26" d="M161.53,163l-.52.89c-.32,0-.73-.16-.65-.51C160.52,162.71,161.09,162.94,161.53,163Z"/><path class="cls-26" d="M139,163.85l-.51-.89c.44,0,1-.25,1.16.38C139.73,163.69,139.33,163.81,139,163.85Z"/><path class="cls-27" d="M138.51,193.87l-.59,1c-.22-.45-.48-1-.1-1.37S138.39,193.49,138.51,193.87Z"/><path class="cls-28" d="M162.09,194.88c-.16-.38-.12-.87-.6-1.06.14-.34.41-.53.68-.22S162.29,194.46,162.09,194.88Z"/><path class="cls-29" d="M158.88,189.84c-1.73,3.84-4.42,6.5-8.88,6.5s-7.14-2.67-8.88-6.51c.1-.22,0-.59.42-.54,2.06,2.86,4.25,5.48,8.22,5.59,4.21.11,6.55-2.55,8.71-5.58A.52.52,0,0,1,158.88,189.84Z"/><path class="cls-30" d="M143.39,185.41c.35.66.65,1.35,1.05,2,3,4.62,8.13,4.62,11.13,0,.4-.62.7-1.31,1-2,.53-.16.66,0,.44.5-.79,2.77-2.28,5-5.11,5.92-3.91,1.3-7.33-1-9-5.92C142.74,185.43,142.87,185.25,143.39,185.41Z"/><path class="cls-31" d="M158,178.63a2.83,2.83,0,0,1-.49,3.42Z"/><path class="cls-31" d="M142.35,181c-1-.71-.78-1.51-.39-2.37Z"/><path class="cls-32" d="M160.85,184l-.55,2.24-.54-.08c.16-.74.32-1.48.49-2.22Z"/><path class="cls-32" d="M139.65,186l-.65-2.6C140.11,184.48,140.07,185.19,139.65,186Z"/><path class="cls-33" d="M161.41,179.84a2.64,2.64,0,0,1-.56,2.34c-.44-.87.13-1.58.21-2.33l.17-.34Z"/><path class="cls-34" d="M157.05,185.92l-.44-.5c.25-.55.15-1.27.81-1.71A2,2,0,0,1,157.05,185.92Z"/><path class="cls-35" d="M143.39,185.41l-.43.51a2.65,2.65,0,0,1-.5-2.29C143.26,184.15,143.15,184.86,143.39,185.41Z"/><path class="cls-33" d="M139,179.85c.06.58.55,1.16.09,1.82-.67-.53-.46-1.2-.43-1.83l.17-.33Z"/><path class="cls-29" d="M161.41,179.84h-.35V177A4.55,4.55,0,0,1,161.41,179.84Z"/><path class="cls-29" d="M139,179.85h-.34v-2.19l.34,0Z"/><path class="cls-36" d="M141.54,189.29l-.42.54c-.28-.53-.71-1-.51-1.73C141.33,188.24,141.42,188.78,141.54,189.29Z"/><path class="cls-36" d="M158.88,189.84l-.41-.54a1.47,1.47,0,0,1,.85-1.25C159.67,188.83,159.13,189.29,158.88,189.84Z"/></svg>