<svg id="Layer_1" data-name="Layer 1" xmlns="http://www.w3.org/2000/svg" viewBox="0 0 300 300"><defs><style>.cls-1{fill:#22568f;}.cls-2{fill:#e3a62a;}.cls-3{fill:#1e4b7d;}.cls-4{fill:#1a426f;}.cls-5{fill:#081421;}.cls-6{fill:#112a47;}.cls-7{fill:#081523;}.cls-8{fill:#091624;}.cls-9{fill:#b0b0b0;}.cls-10{fill:#afafaf;}.cls-11{fill:#aaa;}.cls-12{fill:#a9a9a9;}.cls-13{fill:#a5a5a5;}.cls-14{fill:#a7a7a7;}.cls-15{fill:#a4a4a4;}.cls-16{fill:#040404;}.cls-17{fill:#080808;}.cls-18{fill:#02060a;}.cls-19{fill:#020407;}.cls-20{fill:#010406;}.cls-21{fill:#020406;}.cls-22{fill:#03090f;}.cls-23{fill:#04090f;}.cls-24{fill:#03080e;}</style></defs><path d="M23.79-.61H276.21a1,1,0,0,1,1,1V174.06A125.93,125.93,0,0,1,151.28,300h0A128.49,128.49,0,0,1,22.79,171.5V.38a1,1,0,0,1,1-1Z"/><path class="cls-1" d="M150.07,84.45H267.5c3.92,0,3.44-.34,3.44,3.51q0,42,0,84c0,26.51-6.48,51.17-22,72.92-19.87,27.82-47,44.63-80.75,49.5C125.39,300.55,89,287,59.54,255.47c-16.35-17.55-25.39-38.86-29-62.51A157.24,157.24,0,0,1,29,168.81q.08-40.62,0-81.22c0-2.48.56-3.2,3.13-3.2Q91.1,84.53,150.07,84.45Z"/><path class="cls-2" d="M150,4Q209.1,4,268.2,4c2.35,0,2.81.68,2.8,2.88q-.12,36,0,72c0,2-.4,2.66-2.55,2.66Q150,81.41,31.56,81.5c-2.16,0-2.55-.66-2.55-2.66q.1-36,0-72c0-2.2.45-2.88,2.8-2.88Q90.9,4.12,150,4Z"/><path d="M248.87,181.08c-6.66-1.54-13.38-2.54-20.38-1.76,7.62,2.75,15,5.83,21.25,11.32a68.31,68.31,0,0,0-23.09-2.36c6.5,3.94,13.42,7.21,18.87,12.64.09.51-.07.77-.62.63-6.06-2.29-12.19-4.31-18.81-4.47,6.13,4.27,12.44,8.24,16.66,14.75-6.69-3.18-13.52-5.81-20.95-6.92,6,5.08,12,10.1,15.65,17.26-5.89-4.27-12-7.92-19.25-9.77,4.55,6,8.74,12.19,10.72,19.64-4.87-5.39-9.81-10.58-16.07-14.38,3.84,7.25,7.24,14.58,7.9,22.92-2.29-3-4-6.42-6.24-9.44a63.87,63.87,0,0,0-7.38-8.8c2.1,8,3.69,16,1.94,24.37a71.82,71.82,0,0,0-8.3-20.55c-.45,8.1-.57,16.19-3.24,24-1-6.79-1.47-13.64-3.91-20.2-1.12,6.94-1.82,14-4.89,20.44A82.13,82.13,0,0,0,186.11,230c-2.06,7.12-3.35,14.47-7.48,20.91a107.27,107.27,0,0,0-.59-21c-2.95,6.35-5,13.09-9.24,18.77.4-5.88,2.43-11.59,1.17-17.61-2.8,5.65-5.25,11.45-9.72,16.21.65-2.12,1.37-4.22,1.94-6.36a68.36,68.36,0,0,0,1.59-7.05c.35-2.26,1-4.54.55-7.49-3.5,5.93-6.57,11.55-11.36,16,2.33-6.32,4.73-12.55,5.16-20.08-4.38,5.2-7.53,10.58-12.52,14.27-.57.1-.8-.13-.7-.7a94.88,94.88,0,0,0,5.4-11.54c-5.88-.73-9.92,2.92-14.74,5.78.5-2,2-2.9,2.57-4.57-3.78-.33-7.41-.31-11-.93a54.37,54.37,0,0,1-8-1.83,5.11,5.11,0,0,0-4.51.39c-4,2.3-7.89,4.65-11,8.15-.31.34-.5,1-1.1.76s-.49-.82-.5-1.32a5.47,5.47,0,0,0-.29-2.82c-1.61.5-2.07,2.28-3.53,3.26-.92-1.78.58-3.76-.75-5.48-1.42.4-2.09,1.93-3.51,2.71-.72-1.21.29-2.29.12-3.36-.1-.66-.06-1.47-.67-1.81s-1.15.4-1.65.77-1.23,1.06-1.89,1.63c-1.14-4.18-.33-6.24,4.41-11.1a67.29,67.29,0,0,0-18.4-1.35c-4.74.31-9.48.41-14.23.35a23.32,23.32,0,0,0-4.71.31,6.16,6.16,0,0,1-7.4-7.18c.4-2.75,2.63-4.31,5.22-3.34a2.64,2.64,0,0,0,3.09-.74c5.28-4.86,7.13-10.93,5.94-17.88a75.26,75.26,0,0,0-2.39-8.13c-.34-1.18-.94-1.49-2.19-1.28a106.83,106.83,0,0,0-11.47,2.45,7.84,7.84,0,0,1-3.82.59c4.57-3.84,9.52-6.31,14.13-9.36-4.08-.31-8,.54-12,.51a76.55,76.55,0,0,1,21.67-6.38A13.65,13.65,0,0,0,61.27,162c-2.17,0-4.33,0-6.5,0a41.75,41.75,0,0,1-6.1-.3c8.13-3.48,16.65-4.76,25.42-5.12-3.06-1.8-6.45-2.34-9.77-3s-6.71-1.15-10.56-1.79c3.72-1.14,7.14-1.14,10.52-1.46a52.33,52.33,0,0,1,10.47,0c3.44.37,6.88.72,10.37.9-6.5-4.34-14-6.05-21.34-8.32,10.33-.66,20.48,0,30.38,3.55-2.83-2.77-6.2-4.52-9.6-6.23s-7-2.91-10.43-4.53c9.28.43,17.91,3.19,26.3,6.9.55.16.8,0,.59-.58-4.82-4.5-10.58-7.65-16-11.28a76.89,76.89,0,0,1,25.17,10.49,47.15,47.15,0,0,0-7.74-7.79c-2.84-2.39-5.77-4.68-8.55-7.26a62.57,62.57,0,0,1,10.82,4.27c3.62,1.7,6.86,4.05,10.25,6.13.61.19.83,0,.65-.63-4.09-4.87-9.31-8.45-14.16-12.52a81,81,0,0,1,26.23,12.84c-3.87-6.34-9.15-11.33-14.68-16.16,9.65,2.89,17.69,8.43,25.2,14.94a65.2,65.2,0,0,0-13.73-17.89c9.2,3.06,16.3,9.27,23.43,15.5-3.45-6.64-8.54-12-13.52-17.42,8.46,3.33,14.77,9.61,21.48,15.45a71.19,71.19,0,0,0-10.06-17.41c7.1,3.72,12.07,9.81,17.48,15.55-1.7-6-4.63-11.34-7.86-16.62,7,4.22,11.31,10.81,15.89,17.34.33-2.21-.51-4.24-1.09-6.28s-1.28-4.31-2-6.42-1.61-4.13-2.23-6.3c7,5.19,10.2,12.88,13.38,20.87,1.13-4,.09-12.27-2.46-20.68,3,1,4.69,4.44,9.33,19.52,1.37-2.21,1.68-9.59.75-18.2-.2-.55-.38-1.09.55-1a33.34,33.34,0,0,1,3.44,9.86c.69,3.31.48,6.71,1.05,10.12,3-5.64,5.31-11.58,9.69-16.36-2.1,6.2-4.43,12.3-4.94,18.94,4.68-5.88,9.4-11.59,16.42-14.79-4.34,5.25-8.8,10.37-10.76,17.17,3.29-2.46,6.29-5.3,9.81-7.42a27.86,27.86,0,0,1,11.44-4.22,65.41,65.41,0,0,0-14.8,15.61c7.8-4.22,15.6-8.45,24.82-8.54-6.37,3.38-12.52,7-17.35,12.57,7.47-3.1,15-5.81,23.24-4.75-7,2.8-13.6,6.17-19.1,11.59a76.6,76.6,0,0,1,26.07-.62c-7.26,1.71-14.45,3.5-21.14,7.11,7.95.74,16,.76,23.55,3.91-7.1.39-14.11,1-20.87,3.71,7.65.88,15.37,1.38,22.35,5.14-3.84,0-7.69-.13-11.52,0a74.82,74.82,0,0,0-12,1.62c8.18,2.45,15.76,4.69,22.58,8.79C249.55,181,249.43,181.25,248.87,181.08Z"/><path class="cls-3" d="M115.57,135.94a2.49,2.49,0,0,1,1.36,1.85,3,3,0,0,1-2-1.22Z"/><path class="cls-4" d="M101,142l1.45,1.13a2,2,0,0,1-2-.55Z"/><path class="cls-5" d="M144.91,235.87l.7.7c-.36.38-.78,1.08-1.26.6S144.54,236.24,144.91,235.87Z"/><path class="cls-6" d="M187.47,111l-.55,1c-.29-.49-.72-1-.12-1.5C187.08,110.32,187.37,110.68,187.47,111Z"/><path class="cls-7" d="M248.87,181.08l.58-.58c.45.14,1.19.36.92.8S249.35,181.42,248.87,181.08Z"/><path class="cls-8" d="M244.9,201.55l.62-.63c.37.27,1.08.51.63,1S245.25,201.93,244.9,201.55Z"/><path d="M221.82,66.35c-4.08,4.51-7.43,5.2-12.91,2.68a18.74,18.74,0,0,1-6.47-4.59c-2.17-2.49-3.12-5.31-1.88-8.54.4-1,.59-1.62-.86-1.81-3.77-.5-5.8-3-6.78-6.44a19.42,19.42,0,0,1-.13-9.87c.87-3.7,2.94-6.34,6.9-7,1.35-.21,1.34-.66.88-1.78A7.49,7.49,0,0,1,202,21.1a18.08,18.08,0,0,1,11.21-6.48c3.64-.62,6.46,1,8.5,4,4.19-4.57,7.62-5.22,13.2-2.54a19,19,0,0,1,6.07,4.3c2.27,2.54,3.29,5.43,2,8.74-.48,1.18-.34,1.54.93,1.74,3.85.59,5.91,3.14,6.84,6.72a18.79,18.79,0,0,1-.3,10.84c-1,3-3,5.19-6.34,5.67-1.29.18-1.7.42-1.13,1.83,1.39,3.42.25,6.38-2.16,8.9A19.32,19.32,0,0,1,232.06,70C227.81,71.23,224.35,70.05,221.82,66.35Z"/><path d="M78.17,18.65c4.32-4.93,8.46-5.39,14.77-1.77s8.06,7.5,6,13.69c3.71.31,6.53,2,7.76,5.62a17.91,17.91,0,0,1-.47,13.62A7,7,0,0,1,100.72,54c-1.32.2-1.94.37-1.28,2,1.25,3,.42,5.77-1.62,8.12a18.06,18.06,0,0,1-11.33,6.26c-3.46.49-6.14-1.06-8.18-4.08-2.28,3.07-5.15,4.83-9,4-5-1.14-9.36-3.49-12-8.18a6.87,6.87,0,0,1-.25-6.27c.51-1.18.33-1.57-1-1.73-3.45-.43-5.49-2.63-6.52-5.77a18.47,18.47,0,0,1,0-11.55c1-3.16,3-5.35,6.44-5.9,1.22-.2,1.67-.46,1.08-1.85a7.38,7.38,0,0,1,1.4-7.94A18,18,0,0,1,69.7,14.62C73.34,14,76.18,15.55,78.17,18.65Z"/><path d="M170.72,30.44c7.24,1.8,10.14,7.2,8.52,15.56-.82,4.24-2.71,7.54-7.47,8.14-1.24.15-1,.75-.68,1.53,1.4,3.73.29,6.86-2.47,9.49a19.32,19.32,0,0,1-9.31,5A7.88,7.88,0,0,1,151,67.5c-.73-.88-1.07-1.25-2-.12-2.24,2.85-5.25,3.59-8.72,2.73A19.19,19.19,0,0,1,131,64.72c-2.45-2.53-3.37-5.53-2.07-8.93.46-1.2.25-1.55-1-1.71-3.32-.43-5.36-2.52-6.41-5.56a18.28,18.28,0,0,1,0-12,7.72,7.72,0,0,1,6.35-5.66c1.24-.2,1.62-.49,1.08-1.84a7.39,7.39,0,0,1,1.09-7.55,18,18,0,0,1,11.52-6.85A7.51,7.51,0,0,1,149,17.46c.73.92,1.06,1.21,1.94.09,2.32-3,5.45-3.55,9-2.66a19.62,19.62,0,0,1,7.69,4C171.68,22.21,172.52,25.32,170.72,30.44Z"/><path class="cls-9" d="M129.4,222.52c-6.74-.42-13.07-2.59-19.14-5.26-12.92-5.69-26.37-7.18-40.28-6-2.23.18-4.48,0-6.86,0-.5-.72,1.46-1.38.38-2.17s-1.86,0-2.75.51a19.84,19.84,0,0,1-2.92,1.36c-.58.2-1.4.43-1.34-.75,0-.53.3-1.31-.63-1.3a1.28,1.28,0,0,0-1.36,1.45c0,.37.18.83-.41,1.14a4,4,0,0,1-2.4-3.67,2.23,2.23,0,0,1,.9-2.21,1.69,1.69,0,0,1,2.28.33c1,1.12,1.74.34,2.56-.18,7-4.52,10.55-13.94,8.42-22.38a51.41,51.41,0,0,0-2-6.43c-.71-1.78-.29-2.37,1.57-2.44a85.6,85.6,0,0,0,8.6-.79,84.05,84.05,0,0,0-17.8.11c-.26-.9.55-.91,1-1.21,7.65-5.71,16-4.09,24.4-2.38,2.1.43,4.16,1,6.37,1.35-1.76-2-4.37-2.81-6.9-4.62,3.56.1,6.37,1.1,9.24,1.85,1.17.3.83,1,.53,1.67s-.56,1.35.26,1.73,1.2-.37,1.54-.9a29.4,29.4,0,0,1,3-4.31c1.6-1.72,3.41-2.74,5.76-1.74,1.94.84,2.84,3.4,2.1,6.1a21.89,21.89,0,0,1-4.32,7.81c-1.65,2.07-3.42,4.05-5.31,6.27,2.31-.09,3.64-1.85,5.9-2.49-1.35,3.38-4,5.54-5.86,8.68,6.84-1.78,12.24-5.49,18.22-9.4-2.46,5.93-6.8,9.76-11,14.5,6.74-1.73,12-4.87,17.25-8.21-2.79,5.08-7,8.81-11.69,12.84,7.08-1.68,12.53-5.36,18.17-8.73-3.3,5.22-7.86,9.2-12.47,13.17,6.87-1.51,12.83-4.94,18.93-8.2-2.93,5.33-7.39,9.33-11.44,13.8,6.07-1.5,11.15-5.07,16.56-8-2.94,5.31-7.19,9.43-11.52,13.6,6.12-1.45,11.1-5.21,16.44-8.36a51.08,51.08,0,0,1-7.6,11c-.64.72-1.59,1.26-1.64,2.4A2.25,2.25,0,0,1,129.4,222.52Z"/><path class="cls-10" d="M129.4,222.52l2.66-.56c5-2.13,9.12-5.64,14-8.2a31,31,0,0,1-5.54,8.92,1.37,1.37,0,0,1-.91.28C136.18,222.94,132.76,223.38,129.4,222.52Z"/><path class="cls-11" d="M105.24,217.72a81.57,81.57,0,0,1-9,5.54C96.24,220.24,100.79,217.22,105.24,217.72Z"/><path class="cls-12" d="M113.47,221.21a68.73,68.73,0,0,0-9.12,6.18C104.27,224,110.44,219.79,113.47,221.21Z"/><path class="cls-13" d="M100.2,225.81c.23-3.06,5.1-6.68,8.77-6.53Z"/><path class="cls-14" d="M91.9,220.64c2.18-3.77,5.58-5.53,8.37-4.46C97.55,217.68,95.22,219.6,91.9,220.64Z"/><path class="cls-15" d="M147.57,221.84a27.06,27.06,0,0,1,4.33-4C152,221.44,151.44,221.92,147.57,221.84Z"/><path class="cls-1" d="M249.37,42.16a20.55,20.55,0,0,1-1,5.87c-1.48,3.77-5.15,5.27-8.78,3.46-2.6-1.3-5.07-2.86-7.63-4.26-.65-.36-1.42-1.28-2.13-.18-.86,1.33.56,1.51,1.21,1.91,2.34,1.45,4.77,2.74,7.08,4.22,4,2.53,4.48,6.76,1.22,10.16a16.74,16.74,0,0,1-9.06,5,6,6,0,0,1-7.36-5.8c-.13-3-.08-6-.14-9,0-.71.16-1.69-.91-1.75-1.33-.07-1,1-1.06,1.81-.12,3.08-.08,6.16-.31,9.23a5.92,5.92,0,0,1-7.12,5.54,16.6,16.6,0,0,1-9.29-5c-3.25-3.45-2.69-7.61,1.31-10.14,2.39-1.52,4.89-2.86,7.31-4.31.58-.35,1.57-.59,1.05-1.63-.6-1.22-1.4-.45-2.07-.07-2.48,1.37-4.89,2.87-7.4,4.16-4.19,2.15-8.09.48-9.42-4a16.7,16.7,0,0,1,.08-9.85c1.36-4.27,5.13-5.88,9.11-3.88,2.59,1.31,5.07,2.86,7.63,4.26.65.36,1.41,1.22,2,0,.55-1-.4-1.3-1-1.65-2.49-1.51-5.06-2.9-7.51-4.47-3.77-2.42-4.33-6.47-1.35-9.79a16.37,16.37,0,0,1,9.19-5.22,5.91,5.91,0,0,1,7.44,5.66c.21,3,.18,6,.29,9,0,.69-.2,1.69.89,1.75,1.28,0,1.06-1,1.08-1.82.06-2.83,0-5.67.13-8.49.16-4.33,3.34-6.94,7.55-6.08a16.23,16.23,0,0,1,9.32,5.45c2.71,3.17,2.12,7.16-1.4,9.46-2.51,1.64-5.15,3.06-7.72,4.61-.59.35-1.51.6-.91,1.65s1.27.42,1.88.08c2.4-1.34,4.75-2.76,7.17-4.06,4.7-2.52,8.86-.62,10,4.57C249.14,39.72,249.22,41.06,249.37,42.16Z"/><path class="cls-1" d="M105.76,42.16a17.64,17.64,0,0,1-.94,6.05c-1.55,3.61-5.13,5.06-8.66,3.3-2.67-1.33-5.22-2.93-7.84-4.38-.68-.37-1.49-1.12-2.08.09-.5,1,.5,1.27,1.08,1.62,2.42,1.47,4.92,2.81,7.31,4.33,3.9,2.48,4.5,6.56,1.4,10a16.46,16.46,0,0,1-9.46,5.2,5.9,5.9,0,0,1-7.09-5.57c-.22-3.07-.19-6.16-.3-9.23,0-.7.22-1.7-.85-1.78-1.27-.1-1.11,1-1.12,1.78-.06,3,0,6-.15,9a6,6,0,0,1-7.14,5.8A16.44,16.44,0,0,1,60.29,63c-2.84-3.24-2.24-7.29,1.4-9.64,2.44-1.58,5-3,7.51-4.45.64-.39,1.75-.67,1-1.82-.66-1-1.34-.23-1.93.09-2.48,1.37-4.89,2.86-7.4,4.15-4.21,2.17-8.08.53-9.45-4a16.13,16.13,0,0,1,.14-10.07c1.41-4.11,5.11-5.66,9-3.71,2.67,1.35,5.23,2.93,7.84,4.38.62.34,1.28,1,1.88-.06s-.31-1.31-.9-1.66c-2.5-1.5-5.06-2.9-7.51-4.46-3.88-2.48-4.41-6.6-1.31-10a16.69,16.69,0,0,1,8.75-5c4.32-1,7.64,1.6,7.81,6,.1,2.75,0,5.5.13,8.24,0,.82-.37,2.11,1.06,2.07,1.24,0,.87-1.22.9-2,.13-2.91.08-5.83.29-8.73a5.91,5.91,0,0,1,7.43-5.68,16.37,16.37,0,0,1,9.19,5.2c3,3.31,2.44,7.38-1.32,9.81-2.44,1.57-5,3-7.5,4.47-.59.36-1.55.59-1,1.64.63,1.23,1.4.42,2.06,0,2.33-1.29,4.61-2.67,7-3.93,4.9-2.61,9.17-.54,10.18,5C105.65,40,105.67,41.16,105.76,42.16Z"/><path class="cls-1" d="M151,57.72c0-1.58,0-3.16,0-4.74,0-.6-.06-1.2-.87-1.26S149,52.24,149,53c0,2.83,0,5.66,0,8.49-.07,5.18-3.71,8-8.69,6.56A16.4,16.4,0,0,1,132,62.82a6.06,6.06,0,0,1,1.42-9.46c2.52-1.62,5.15-3,7.72-4.59.59-.36,1.53-.61.89-1.65s-1.28-.42-1.91-.06c-2.47,1.38-4.89,2.86-7.4,4.16-4.4,2.29-8.36.53-9.66-4.27a17,17,0,0,1,.11-9.38c1.3-4.38,5.18-6.06,9.24-4,2.6,1.31,5.08,2.85,7.62,4.27.68.38,1.43,1.15,2.05-.09s-.47-1.28-1-1.63c-2.42-1.46-4.92-2.79-7.31-4.31-4-2.53-4.56-6.75-1.35-10.17a16.64,16.64,0,0,1,8.8-4.95c4.33-.93,7.73,1.9,7.84,6.4.06,2.75,0,5.5,0,8.25,0,.68-.26,1.66.86,1.74,1.34.11,1.1-1,1.11-1.75,0-2.75,0-5.5,0-8.24.1-4.61,3.64-7.4,8.09-6.35a17.07,17.07,0,0,1,8.37,4.72c3.38,3.45,2.88,7.77-1.18,10.36-2.38,1.52-4.88,2.86-7.3,4.33-.56.34-1.58.51-1,1.61s1.37.48,2,.1c2.47-1.39,4.89-2.87,7.39-4.19,4.15-2.2,8.16-.57,9.46,3.9a16.27,16.27,0,0,1-.21,10.32c-1.44,3.94-5.16,5.44-8.89,3.55-2.59-1.32-5.07-2.87-7.62-4.27-.66-.36-1.44-1.2-2.12-.05s.51,1.38,1.12,1.75c2.48,1.52,5.05,2.9,7.49,4.48a6.09,6.09,0,0,1,1.4,9.48,16.42,16.42,0,0,1-9.32,5.45A6.2,6.2,0,0,1,151,62.47c-.11-1.58,0-3.16,0-4.75Z"/><path class="cls-16" d="M101.69,170.49a13.82,13.82,0,0,1-4.06,7.41c-.31.32-.78.75-1.29.29s-.19-.92.06-1.35c.93-1.67,1.94-3.29,2.8-5,.38-.75,1-1.86-.09-2.39s-1.58.54-2.08,1.33c-.41.63-.59,1.89-1.69,1.12-.78-.54-.43-1.53,0-2.26,1-1.6,2.23-2.73,4.28-2.28C101.06,167.69,101.66,168.69,101.69,170.49Z"/><path class="cls-16" d="M74.86,187.36c3-.2,5.13,1.06,6,3.31.23.65.44,1.33-.31,1.75a1.19,1.19,0,0,1-1.71-.53c-1.4-2.88-3.84-2.7-6.38-2.27-.86.14-1.8.27-1.92-.88s1.05-.78,1.64-.94A18.82,18.82,0,0,1,74.86,187.36Z"/><path class="cls-17" d="M75.43,193a1.82,1.82,0,0,1-1.94,1.6c-1,0-1.62-.58-1.45-1.57a1.92,1.92,0,0,1,2.16-1.62C75.11,191.48,75.32,192.27,75.43,193Z"/><path class="cls-18" d="M218.2,42.46a1.38,1.38,0,0,1-1.39,1.42,1.4,1.4,0,0,1,0-2.79C217.66,41.08,218.07,41.65,218.2,42.46Z"/><path class="cls-19" d="M221.72,48.89a1.36,1.36,0,0,1-1.29-1.55,1.23,1.23,0,0,1,1.26-1.27,1.27,1.27,0,0,1,1.42,1.38A1.36,1.36,0,0,1,221.72,48.89Z"/><path class="cls-20" d="M221.71,36.09a1.34,1.34,0,0,1,1.36,1.45,1.32,1.32,0,1,1-2.64.06A1.33,1.33,0,0,1,221.71,36.09Z"/><path class="cls-21" d="M228.05,42.37c0,.9-.44,1.49-1.3,1.51a1.26,1.26,0,0,1-1.34-1.43,1.22,1.22,0,0,1,1.17-1.34A1.27,1.27,0,0,1,228.05,42.37Z"/><path class="cls-18" d="M83.06,41.06c1,.07,1.49.53,1.5,1.4a1.27,1.27,0,0,1-1.33,1.43,1.31,1.31,0,0,1-1.4-1.38A1.38,1.38,0,0,1,83.06,41.06Z"/><path class="cls-19" d="M78.22,48.88a1.37,1.37,0,0,1-1.33-1.51,1.27,1.27,0,0,1,1.5-1.3,1.23,1.23,0,0,1,1.19,1.35A1.34,1.34,0,0,1,78.22,48.88Z"/><path class="cls-20" d="M78.24,38.93a1.35,1.35,0,0,1-1.3-1.5,1.32,1.32,0,1,1,2.64,0A1.35,1.35,0,0,1,78.24,38.93Z"/><path class="cls-20" d="M73.29,41.06c1,.18,1.39.72,1.3,1.58a1.22,1.22,0,0,1-1.52,1.21A1.25,1.25,0,0,1,72,42.45,1.34,1.34,0,0,1,73.29,41.06Z"/><path class="cls-22" d="M150.06,36.07c.85.15,1.41.62,1.35,1.5a1.33,1.33,0,0,1-1.48,1.34,1.3,1.3,0,0,1-1.34-1.47A1.38,1.38,0,0,1,150.06,36.07Z"/><path class="cls-23" d="M145,41.05a1.37,1.37,0,0,1,1.46,1.37,1.3,1.3,0,0,1-1.35,1.45,1.34,1.34,0,0,1-1.47-1.35C143.57,41.64,144.13,41.18,145,41.05Z"/><path class="cls-23" d="M155,43.93c-.94-.19-1.51-.63-1.46-1.52a1.41,1.41,0,0,1,2.82.11A1.51,1.51,0,0,1,155,43.93Z"/><path class="cls-24" d="M150.14,48.89c-.92-.12-1.51-.54-1.54-1.4a1.41,1.41,0,0,1,2.81-.11C151.46,48.28,150.82,48.66,150.14,48.89Z"/></svg>