<svg id="Layer_1" data-name="Layer 1" xmlns="http://www.w3.org/2000/svg" viewBox="0 0 300 300"><defs><style>.cls-1{fill:#b90905;}.cls-2{fill:#deae20;}.cls-3{fill:#44360a;}.cls-4{fill:#390302;}</style></defs><path d="M23.79-.61H276.21a1,1,0,0,1,1,1V174.06A125.93,125.93,0,0,1,151.28,300h0A128.49,128.49,0,0,1,22.79,171.5V.38a1,1,0,0,1,1-1Z"/><path class="cls-1" d="M275.6,92.34q0,39.28,0,78.56c-.05,55.25-37.73,105.41-90.77,120.76a133.33,133.33,0,0,1-30.46,4.73c-2.76.13-3.49-.8-3.42-3.43.17-5.69.11-11.38,0-17.07,0-2.09.33-3.13,2.81-3.55,14.23-2.38,23.19-14.73,21-29-.46-3,1.42-2.55,2.87-2.93,11.24-3,18.9-9.75,21.23-21.31,3.12-15.43-8.64-30-24.6-31-3.88-.25-7.77-.19-11.42,1.26-2.59,1-3.24.45-3.23-2.3.1-16.64,0-33.27,0-49.91,0-9.77.07-19.53,0-29.3,0-2.27.67-2.9,2.91-2.89,15.56.09,31.13,0,46.69.11,2.67,0,3.48-.71,3.41-3.4-.17-7.4-.14-14.81,0-22.22,0-2.29-.75-2.94-3-2.87-4.72.14-9.44.1-14.16,0-1.79,0-2.62.56-2.41,2.39,0,.32,0,.65,0,1,.07,2.24-.61,4.94.4,6.62,1.19,2,4.13.72,6.29.81,2.66.1,2.12,1.92,2.1,3.41s.66,3.44-2.06,3.39q-5.81-.1-11.59,0c-1.79,0-2.14-.86-2.12-2.39,0-4.3,0-8.59,0-12.88,0-1.58-.43-2.23-2.16-2.34-8.64-.54-8.59-.6-8.66,8.13,0,3,1.28,6.81-.56,8.72-2,2.08-5.91.49-9,.73-.64.06-1.29,0-1.93,0-4.12,0-5.12-1.38-4.18-5.42.37-1.6,1.5-1.26,2.49-1.31,6.39-.35,6.39-.34,6.39-6.87,0-5.9-.22-11.82.09-17.71.18-3.44-1.09-4.44-4.2-4a4.56,4.56,0,0,1-.64,0c-4,0-5.13-1.53-4.13-5.53a1.39,1.39,0,0,1,1.56-1.22c4.08,0,8.16,0,12.23,0,1.7,0,1.87,1,1.87,2.31,0,4.08.09,8.16,0,12.24-.06,2.12.47,3,2.84,3,8,.08,7.93.17,8-7.8,0-3.09-1.31-7.07.53-9,2-2.15,6.09-.49,9.25-.75.64,0,1.29,0,1.93,0,4.28,0,4.21,0,4.1,4.3,0,2.06-1,2.46-2.77,2.51-6.1.16-6.1.21-6.09,6.42,0,4.31,0,4.32,4.33,4.32,4.08,0,8.16-.11,12.23,0,2.2.08,3-.57,3-2.88q-.19-11.26,0-22.53c0-2.42-.69-3.1-3.09-3.08-14.59.1-29.19,0-43.79,0-5.87,0-5.85,0-6.1-5.75-.2-4.76-1.7-8.69-6.88-10C151.07,25.16,151,24,151,22.66c0-5.47.12-10.95,0-16.42-.08-2.53.94-3,3.21-3,16.42.08,32.84,0,49.26,0,22.76,0,45.51.09,68.26-.09,3.4,0,4,1,4,4.13C275.55,35.67,275.6,64,275.6,92.34Z"/><path class="cls-2" d="M140.33,190.45a33.16,33.16,0,0,0-14.48-2.33c-12.14.76-22.88,10.06-24.83,21.59a26.74,26.74,0,0,0,20.85,30.54c2.73.62,3.6,1.19,3.2,4.37-1.74,13.66,7.68,25.74,21.42,27.77,2.14.31,2.61,1,2.58,3-.1,6-.16,12,0,18,.07,2.44-.64,3.08-3.06,3-26.72-1-51-9-72.07-25.68C46.49,249,30.3,220.55,25.26,185.85a101.08,101.08,0,0,1-.87-14.77q0-82.11-.06-164.23c0-3,.83-3.63,3.69-3.62q58.77.15,117.53,0c2.8,0,3.69.62,3.55,3.5-.25,5.36-.07,10.73-.07,16.1,0,1.18.14,2.3-1.52,2.68-5.34,1.21-7,5.16-7.15,10.08-.21,5.73-.2,5.73-6,5.73-14.71,0-29.41,0-44.11,0-2.23,0-2.93.54-2.89,2.83q.22,11.43,0,22.86c0,2.33.7,2.88,2.91,2.81,4.82-.16,9.65-.11,14.48,0,1.7,0,2.39-.51,2.16-2.2a11.09,11.09,0,0,1,0-1.29c0-2.24.68-5-.38-6.59-1.19-1.77-4.16-.6-6.34-.67-3.29-.12-1.8-2.53-2-4s-.24-3,2.16-2.87c3.75.17,7.51.14,11.26,0,1.85-.06,2.4.56,2.35,2.38-.12,4.29,0,8.59-.07,12.88,0,1.81.49,2.34,2.33,2.38,8.46.2,8.44.26,8.47-8.2,0-3-1-7,.51-8.72,1.76-2,5.85-.46,8.92-.67a27.75,27.75,0,0,0,2.89,0c3-.56,3.43.9,3.46,3.55S139.68,59.13,137,59c-5.57-.19-5.58,0-5.58,5.52V83.24c0,4.22,0,4.22,4.38,4.22a6.94,6.94,0,0,0,1.29,0c2.78-.49,3.25.8,3.33,3.37.1,2.91-.79,3.7-3.58,3.47a69.16,69.16,0,0,0-9.33,0c-2.19.12-3-.45-2.94-2.81.19-4.07,0-8.16.08-12.23.06-1.89-.43-2.58-2.48-2.62-8.31-.14-8.31-.21-8.31,8,0,2.47-.07,4.94,0,7.41.07,1.61-.35,2.33-2.12,2.28-3.86-.11-7.73-.11-11.59,0-3.1.08-1.93-2.18-2-3.62s-.54-3.16,2.15-3.24c6.62-.2,6.48-.34,6.67-7.05.07-2.79-.48-4-3.6-3.75a132.34,132.34,0,0,1-13.51,0c-2.06-.07-2.51.65-2.48,2.56.1,7.73.14,15.46,0,23.19-.05,2.41.84,2.74,2.95,2.73,15.57-.08,31.13,0,46.69-.1,2.61,0,3.4.52,3.39,3.28-.12,26.29-.07,52.59-.07,78.89Z"/><path class="cls-1" d="M140.16,232c-1.4,3.14-2.91,5.6-3.78,8.38-2.15,6.84.43,17.67,10.65,19.44.94.16,2,.34,2,1.66,0,2.58.08,5.16,0,7.73-.07,1.93-1.57,1.37-2.65,1.23-10.31-1.33-19-10.85-19.54-21.32a18.1,18.1,0,0,1,.68-7.33c.84-2.29-.13-2.61-2.14-2.85a25.61,25.61,0,0,1-22.54-21.1c-2.25-13.78,8.59-26.87,23-27.78a30.68,30.68,0,0,1,8.33.47,52.11,52.11,0,0,1,7.65,2.7c.69-1.09.43-2.17.43-3.17,0-27.8,0-55.61.07-83.41,0-2.74-.56-3.65-3.5-3.62-15.45.16-30.91,0-46.37.12-2.31,0-3.21-.51-3.14-3,.17-6.33.11-12.67,0-19,0-1.94.58-2.67,2.57-2.6,3.64.12,7.3.12,10.95,0,2.73-.09,2.15,1.83,2.09,3.29s.9,3.64-2.08,3.7c-2.1,0-4.83-1-6.16.59s-.31,4.55-.55,6.88.52,3.27,3,3.17c4.5-.19,9-.21,13.51,0,2.68.13,3.27-.93,3.17-3.35-.16-4,.08-7.94-.08-11.91-.11-2.55,1.43-2.49,3.09-2.33s3.92-1,3.87,2.22c-.08,4.19.07,8.38,0,12.56-.06,2.08.66,2.84,2.77,2.79,4.72-.12,9.45-.13,14.17,0,2.2.07,2.89-.82,2.62-2.83,0-.11,0-.21,0-.32,0-2.25.66-5-.34-6.64-1.18-2-4.13-.67-6.3-.83-1.63-.11-2.28-.68-2.27-2.33.05-6.65.07-13.31,0-20,0-1.86.76-2.35,2.49-2.44,6.47-.33,6.33-.39,6.5-7.05.07-2.78-.6-3.8-3.53-3.63-4.39.26-8.8.18-13.2,0-2.3-.08-3,.77-2.91,3,.14,3.75-.12,7.52.09,11.27.16,2.72-.81,3.48-3.46,3.43-2.45-.05-3.76-.35-3.57-3.29.26-3.95,0-7.94.09-11.91,0-1.77-.53-2.49-2.38-2.46-4.93.09-9.87,0-14.81,0-.43,0-1-.13-1.26.09-2.65,2.44-.68,5.58-1.18,8.36-.31,1.68.75,2.28,2.33,2.19.85-.05,1.73.11,2.57,0,3.09-.47,4.13.71,4,3.87-.13,2.33-.64,3.25-3.1,3.1a79.83,79.83,0,0,0-9.66,0c-2.53.17-3-.87-3-3.17.13-6,.17-12,0-18-.08-2.64.67-3.46,3.39-3.44,15.24.13,30.48,0,45.72.14,3.07,0,4.25-.7,3.91-3.88a29.39,29.39,0,0,1,.28-6.41,6.43,6.43,0,0,1,1.74-3.74c1.07-1.13,2.52-2.2,3.93-1.77S149,29.78,149,31q.06,91,0,181.94c0,4-.35,4.24-4.26,3.49a13.48,13.48,0,0,1-1.86-.51c-2.15-.77-4.47-1.56-4.74-4.23s2-3.76,4.07-4.73c.36-.16.68-.4,1.4-.82-5.68-4.58-11.59-7.17-18.59-5.07-6.25,1.88-9.66,6.54-10.74,12.85a12.38,12.38,0,0,0,3.38,10.68A22.47,22.47,0,0,0,133.3,232C135.43,232.17,137.58,232,140.16,232Z"/><path class="cls-2" d="M157.74,193.6a30,30,0,0,1,16.42-3.54c11.12.8,21,9.26,22.89,19.81,2.53,13.94-7.53,27.32-22,29-2.52.29-3.11.69-2.46,3.35a23.14,23.14,0,0,1-18.38,28.15c-2.19.42-3.62.25-3.21-2.52a8.08,8.08,0,0,0,0-2.25c-.52-3.59.31-5.55,4.46-6.67,6.86-1.85,10.38-10.12,8.46-17.64-.82-3.23-2.52-6.07-4.08-9.25,3.89-.15,7.52.3,11.07-.73a25.9,25.9,0,0,0,8.38-4c6.15-4.58,8.13-11.15,5.31-17.55-3.09-7-9.94-10.74-17.27-9.28a21.29,21.29,0,0,0-10.7,5.42c.39,1.09,1.42,1,2.12,1.38,1.68.91,3.2,1.94,3.13,4.08s-1.67,3.1-3.38,3.9l-.29.13c-6,2.58-7.2,1.82-7.2-4.47q0-90,0-180c0-1.2-.7-3,.63-3.47,1.53-.5,3.09.62,4.15,1.91,2.06,2.52,2,5.57,2,8.58,0,5.22,0,5.22,5.18,5.22,14.92,0,29.84.06,44.76,0,2.42,0,3.09.61,3,3-.17,6.33-.11,12.67,0,19,0,1.84-.29,2.72-2.43,2.62-3.64-.18-7.29-.1-10.94,0-1.51,0-2.29-.19-2.34-2-.13-4.86-.24-4.86,4.71-4.87,4.14,0,4.14,0,4.14-4.16,0-6.5,0-6.5-6.56-6.5-3.54,0-7.09.11-10.63-.05-2-.09-2.54.64-2.48,2.58.13,4.29-.1,8.59.09,12.88.12,2.81-1.73,2.2-3.17,2.09s-3.9,1.15-3.8-2.17c.13-4.29-.07-8.59.07-12.88.07-2-.65-2.54-2.58-2.49-4.94.12-9.88.09-14.81,0-1.61,0-2.47.36-2.22,2.12a11.09,11.09,0,0,1,0,1.29c0,2.24-.68,5,.38,6.59,1.19,1.75,4.16.58,6.34.65,1.67.06,2.21.62,2.2,2.28q-.12,10,0,20c0,1.78-.48,2.47-2.35,2.47-2.1,0-4.86-1-6.14.49s-.13,4.35-.46,6.55c-.47,3.09.88,3.74,3.7,3.61,4.5-.22,9-.13,13.52,0,1.79,0,2.45-.49,2.4-2.35-.11-4.29.12-8.59-.08-12.87-.16-3.26,2.05-2.3,3.66-2.34s3.49-.73,3.34,2.27c-.23,4.28,0,8.59-.1,12.88,0,1.77.44,2.46,2.32,2.41,5.05-.11,10.09-.09,15.14,0,1.67,0,2.41-.52,2.21-2.21,0-.21,0-.43,0-.64,0-2.36.7-5.17-.34-6.95-1.24-2.13-4.31-.58-6.57-.82-1.32-.14-1.81-.49-1.92-1.88-.41-5.1-.47-5.09,4.72-5.09,2.68,0,5.38.19,8-.06s3,.8,2.95,3.09q-.24,9.18,0,18.35c.07,2.48-.56,3.24-3.14,3.21-14.38-.13-28.77-.06-43.15-.06-6.67,0-6.67,0-6.67,6.63V193.6Z"/><path class="cls-1" d="M156.37,230.74c2.29,3.38,4.47,6.82,5.55,10.82,1.83,6.81-1.48,13.93-7.41,15.94-3.13,1.05-3.57.77-3.57-2.5,0-11.05.05-22.1-.05-33.15,0-2.28.58-3.4,3-3.38a12,12,0,0,0,3.46-.66c7.08-2.1,8.33-6.79,3.2-11.93,5.51-5.3,15.21-4.74,20,1.15,5.26,6.45,4.17,14-2.68,19-5.89,4.28-12.55,4.51-19.4,3.91C156.7,229.58,156.7,229.58,156.37,230.74Z"/><path class="cls-2" d="M141.52,229.94c-7.21.67-14.18.3-20.17-4.5-8-6.42-6.33-18.42,3.2-22.21,5.44-2.16,10.45-.71,15.32,2.48-2.37,1.87-4.35,3.76-3.49,6.87,1,3.48,4,4.46,7,5.48,1.8.61,4.45-.36,5.32,1.39s.36,4,.36,6q0,14.82,0,29.63c0,3.23-.42,3.49-3.55,2.43-5.93-2-9.25-9.18-7.41-15.95,1.09-4,3.27-7.43,5.56-10.81C143.31,229.58,143.31,229.58,141.52,229.94Z"/><path class="cls-3" d="M141.52,229.94c.83-.4,1.73-.89,2.56-.17.32.28-.07.74-.45,1C143.08,230.06,142.21,230.23,141.52,229.94Z"/><path class="cls-4" d="M156.37,230.74c-.28-1.5-.14-1.55,2.11-.8Z"/></svg>